<?xml version="1.0"?>
<Project_Data Version="8.00">
<Project_Settings>
<ProfileName></ProfileName>
<ProjectWidth>1280</ProjectWidth>
<ProjectHeight>720</ProjectHeight>
<IsCustomProject>1</IsCustomProject>
<SavedProjectSettings>1</SavedProjectSettings>
<LastFlashTemplate>-1</LastFlashTemplate>
</Project_Settings>


<AutoSaveFile>C:\Users\Tomas\AppData\Local\TechSmith\Camtasia Studio\8.0\Auto-Saves\screencast925980f.autosave.camproj</AutoSaveFile>

<ProjectID>25449F40-6C50-4879-987F-4C782D07C259</ProjectID>

<PowerPointProject>0</PowerPointProject>

<PowerPointFilename></PowerPointFilename>


<Project_Notes>
</Project_Notes>

<Project_MetaData>
<Project_MetaData_Object>
<FieldArrayKey>8</FieldArrayKey>
<Value>screencast</Value>
</Project_MetaData_Object>
<Project_MetaData_Object>
<FieldArrayKey>13</FieldArrayKey>
<Value>2015-11-20 03:56:17 PM</Value>
</Project_MetaData_Object>
<Project_MetaData_Object>
<FieldArrayKey>16</FieldArrayKey>
<Value>ENU</Value>
</Project_MetaData_Object>
</Project_MetaData>

<CSMLData>
<GoProject id="1" version="3.0" >
 <Project id="2" editRate="30/1" version="3.0" >
  <Author></Author>
  <Comment></Comment>
  <System></System>
  <SourceBin id="3"  >
    <Source id="4" src="C:\Tomas\Research\TypeProviders\pldi-2016\screencast\source.avi" lastMod="20151120T161428" rect="(0,0,1280,720)" >
      <SourceTrack range="(0,10389333333)" type="0" editRate="10000000/1" trackRect="(0,0,1280,720)" sampleRate="5000000/333333" bitDepth="24" numChannels="0" filename="" metaData="" />
    </Source>
    <Source id="5" src="C:\Tomas\Research\TypeProviders\pldi-2016\screencast\source-audio.avi" lastMod="20151120T171114" rect="(0,0,1280,720)" >
      <SourceTrack range="(0,14864666667)" type="0" editRate="10000000/1" trackRect="(0,0,1280,720)" sampleRate="5000000/333333" bitDepth="24" numChannels="0" filename="" metaData="" />
      <SourceTrack range="(0,14862000000)" type="2" editRate="10000000/1" trackRect="(0,0,0,0)" sampleRate="44100/1" bitDepth="16" numChannels="2" filename="" metaData="" />
    </Source>
  </SourceBin>
  <Timeline id="6"  >
   <Attributes>
    <Attribute id="7" value="1280" name="width"/>
    <Attribute id="8" value="720" name="height"/>
    <Attribute id="9" value="(0,0,0,255)" name="backgroundColor"/>
   </Attributes>
    <GenericMixer id="10"  name="Unified Mixer">
     <MetaData>
      <entry key="MixerType" val="TimelineMixer"/>
     </MetaData>
     <Tracks>
      <GenericTrack id="11"  >
       <Attributes>
        <Attribute id="12" value="" name="ident"/>
        <Attribute id="13" value="0" name="audioMuted"/>
        <Attribute id="14" value="0" name="videoHidden"/>
       </Attributes>
       <MetaData>
        <entry key="IsLocked" val="False"/>
        <entry key="WinTrackHeight" val="62"/>
       </MetaData>
       <Medias>
        <StitchedMedia id="15" start="0" duration="534" scalar="1/1" mediaStart="0/1" mediaDuration="534/1" minMediaStart="0/1" >
         <Transformer>
          <VectorParam id="16"  name="translation">
           <InterpolatingParam id="17" interp="linr"  time="-9999999/1" value="0" leadInLength="0/1"  interpolater="leadin-linr"  />
           <InterpolatingParam id="18" interp="linr"  time="-9999999/1" value="0" leadInLength="0/1"  interpolater="leadin-linr"  />
           <InterpolatingParam id="19" interp="linr"  time="-9999999/1" value="0" leadInLength="0/1"  interpolater="leadin-linr"  />
          </VectorParam>
          <VectorParam id="20"  name="rotation">
           <InterpolatingParam id="21" interp="linr"  time="-9999999/1" value="0" leadInLength="0/1"  interpolater="leadin-linr"  />
           <InterpolatingParam id="22" interp="linr"  time="-9999999/1" value="0" leadInLength="0/1"  interpolater="leadin-linr"  />
           <InterpolatingParam id="23" interp="linr"  time="-9999999/1" value="0" leadInLength="0/1"  interpolater="leadin-linr"  />
          </VectorParam>
          <VectorParam id="24"  name="shear">
           <InterpolatingParam id="25" interp="linr"  time="-9999999/1" value="0" leadInLength="0/1"  interpolater="leadin-linr"  />
           <InterpolatingParam id="26" interp="linr"  time="-9999999/1" value="0" leadInLength="0/1"  interpolater="leadin-linr"  />
           <InterpolatingParam id="27" interp="linr"  time="-9999999/1" value="0" leadInLength="0/1"  interpolater="leadin-linr"  />
          </VectorParam>
          <VectorParam id="28"  name="scale">
           <InterpolatingParam id="29" interp="linr"  time="-9999999/1" value="1" leadInLength="0/1"  interpolater="leadin-linr"  />
           <InterpolatingParam id="30" interp="linr"  time="-9999999/1" value="1" leadInLength="0/1"  interpolater="leadin-linr"  />
           <InterpolatingParam id="31" interp="linr"  time="-9999999/1" value="1" leadInLength="0/1"  interpolater="leadin-linr"  />
          </VectorParam>
          <VectorParam id="32"  name="anchor">
           <InterpolatingParam id="33" interp="linr"  >
            <Keyframes>
            <Keyframe id="34"  time="0/1" value="0" leadInLength="0/1"  />
            <Keyframe id="35"  time="164/1" value="0" leadInLength="0/1"  />
            <Keyframe id="36"  time="427/1" value="0" leadInLength="0/1"  />
            <Keyframe id="37"  time="8154/1" value="0" leadInLength="0/1"  />
            <Keyframe id="38"  time="8232/1" value="0" leadInLength="0/1"  />
            </Keyframes>
           </InterpolatingParam>
           <InterpolatingParam id="39" interp="linr"  >
            <Keyframes>
            <Keyframe id="40"  time="0/1" value="0" leadInLength="0/1"  />
            <Keyframe id="41"  time="164/1" value="0" leadInLength="0/1"  />
            <Keyframe id="42"  time="427/1" value="0" leadInLength="0/1"  />
            <Keyframe id="43"  time="8154/1" value="0" leadInLength="0/1"  />
            <Keyframe id="44"  time="8232/1" value="0" leadInLength="0/1"  />
            </Keyframes>
           </InterpolatingParam>
           <InterpolatingParam id="45" interp="linr"  >
            <Keyframes>
            <Keyframe id="46"  time="0/1" value="0" leadInLength="0/1"  />
            <Keyframe id="47"  time="164/1" value="0" leadInLength="0/1"  />
            <Keyframe id="48"  time="427/1" value="0" leadInLength="0/1"  />
            <Keyframe id="49"  time="8154/1" value="0" leadInLength="0/1"  />
            <Keyframe id="50"  time="8232/1" value="0" leadInLength="0/1"  />
            </Keyframes>
           </InterpolatingParam>
          </VectorParam>
         </Transformer>
         <Parameters>
          <VectorParam id="51"  name="sourceCrop">
           <InterpolatingParam id="52" interp="linr"  >
            <Keyframes>
            <Keyframe id="53"  time="0/1" value="0" leadInLength="0/1"  />
            <Keyframe id="54"  time="164/1" value="0" leadInLength="0/1"  />
            <Keyframe id="55"  time="427/1" value="0" leadInLength="0/1"  />
            <Keyframe id="56"  time="8154/1" value="0" leadInLength="0/1"  />
            <Keyframe id="57"  time="8232/1" value="0" leadInLength="0/1"  />
            </Keyframes>
           </InterpolatingParam>
           <InterpolatingParam id="58" interp="linr"  >
            <Keyframes>
            <Keyframe id="59"  time="0/1" value="0" leadInLength="0/1"  />
            <Keyframe id="60"  time="164/1" value="0" leadInLength="0/1"  />
            <Keyframe id="61"  time="427/1" value="0" leadInLength="0/1"  />
            <Keyframe id="62"  time="8154/1" value="0" leadInLength="0/1"  />
            <Keyframe id="63"  time="8232/1" value="0" leadInLength="0/1"  />
            </Keyframes>
           </InterpolatingParam>
           <InterpolatingParam id="64" interp="linr"  >
            <Keyframes>
            <Keyframe id="65"  time="0/1" value="0" leadInLength="0/1"  />
            <Keyframe id="66"  time="164/1" value="0" leadInLength="0/1"  />
            <Keyframe id="67"  time="427/1" value="0" leadInLength="0/1"  />
            <Keyframe id="68"  time="8154/1" value="0" leadInLength="0/1"  />
            <Keyframe id="69"  time="8232/1" value="0" leadInLength="0/1"  />
            </Keyframes>
           </InterpolatingParam>
           <InterpolatingParam id="70" interp="linr"  >
            <Keyframes>
            <Keyframe id="71"  time="0/1" value="0" leadInLength="0/1"  />
            <Keyframe id="72"  time="164/1" value="0" leadInLength="0/1"  />
            <Keyframe id="73"  time="427/1" value="0" leadInLength="0/1"  />
            <Keyframe id="74"  time="8154/1" value="0" leadInLength="0/1"  />
            <Keyframe id="75"  time="8232/1" value="0" leadInLength="0/1"  />
            </Keyframes>
           </InterpolatingParam>
          </VectorParam>
          <VectorParam id="76"  name="geometryCrop">
           <InterpolatingParam id="77" interp="linr"  time="-9999999/1" value="0" leadInLength="0/1"  interpolater="leadin-linr"  />
           <InterpolatingParam id="78" interp="linr"  time="-9999999/1" value="0" leadInLength="0/1"  interpolater="leadin-linr"  />
           <InterpolatingParam id="79" interp="linr"  time="-9999999/1" value="0" leadInLength="0/1"  interpolater="leadin-linr"  />
           <InterpolatingParam id="80" interp="linr"  time="-9999999/1" value="0" leadInLength="0/1"  interpolater="leadin-linr"  />
          </VectorParam>
          <InterpolatingParam id="81" interp="linr"  time="-9999999/1" value="1" leadInLength="0/1"  interpolater="leadin-linr"  name="opacity"/>
          <InterpolatingParam id="82" interp="linr"  time="0/1" value="1" leadInLength="0/1"  name="cursorOpacity"/>
          <InterpolatingParam id="83" interp="linr"  time="0/1" value="1" leadInLength="0/1"  name="cursorScale"/>
          <Parameter id="84"  name="captions"/>
         </Parameters>
         <Attributes>
          <Attribute id="85" value="" name="ident"/>
         </Attributes>
         <MetaData>
          <entry key="WinSubProjectDisplayName" val=""/>
         </MetaData>
         <ExtraData>
          <Entry key="ZoomPanBin">
           <ZoomPanBin id="86"  >
            <ZoomPanKeyframes>
             <ZoomPanKeyframe id="87" timeRangeEnd="-9999999/1" timeRangeDuration="0/1" interpolaterName="linr"  />
            </ZoomPanKeyframes>
           </ZoomPanBin>
          </Entry>
          <Entry key="CursorEffectBin">
           <CursorEffectBin id="88"  >
            <CursorEffectKeyframes>
            </CursorEffectKeyframes>
           </CursorEffectBin>
          </Entry>
         </ExtraData>
         <GenericTrack id="89"  >
          <Attributes>
           <Attribute id="90" value="" name="ident"/>
           <Attribute id="91" value="0" name="audioMuted"/>
           <Attribute id="92" value="0" name="videoHidden"/>
          </Attributes>
          <MetaData>
           <entry key="IsLocked" val="False"/>
           <entry key="WinTrackHeight" val="0"/>
          </MetaData>
          <Medias>
           <VMFile id="93" start="0" duration="164" scalar="1/1" mediaStart="0/1" mediaDuration="164/1" trackNumber="0" src="4" >
            <Transformer>
             <VectorParam id="94"  name="translation">
              <InterpolatingParam id="95" interp="linr"  time="-9999999/1" value="0" leadInLength="0/1"  />
              <InterpolatingParam id="96" interp="linr"  time="-9999999/1" value="0" leadInLength="0/1"  />
              <InterpolatingParam id="97" interp="linr"  time="-9999999/1" value="0" leadInLength="0/1"  />
             </VectorParam>
             <VectorParam id="98"  name="rotation">
              <InterpolatingParam id="99" interp="linr"  time="-9999999/1" value="0" leadInLength="0/1"  />
              <InterpolatingParam id="100" interp="linr"  time="-9999999/1" value="0" leadInLength="0/1"  />
              <InterpolatingParam id="101" interp="linr"  time="-9999999/1" value="0" leadInLength="0/1"  />
             </VectorParam>
             <VectorParam id="102"  name="shear">
              <InterpolatingParam id="103" interp="linr"  time="-9999999/1" value="0" leadInLength="0/1"  />
              <InterpolatingParam id="104" interp="linr"  time="-9999999/1" value="0" leadInLength="0/1"  />
              <InterpolatingParam id="105" interp="linr"  time="-9999999/1" value="0" leadInLength="0/1"  />
             </VectorParam>
             <VectorParam id="106"  name="scale">
              <InterpolatingParam id="107" interp="linr"  time="-9999999/1" value="1" leadInLength="0/1"  />
              <InterpolatingParam id="108" interp="linr"  time="-9999999/1" value="1" leadInLength="0/1"  />
              <InterpolatingParam id="109" interp="linr"  time="-9999999/1" value="1" leadInLength="0/1"  />
             </VectorParam>
             <VectorParam id="110"  name="anchor">
              <InterpolatingParam id="111" interp="linr"  time="0/1" value="0" leadInLength="0/1"  />
              <InterpolatingParam id="112" interp="linr"  time="0/1" value="0" leadInLength="0/1"  />
              <InterpolatingParam id="113" interp="linr"  time="0/1" value="0" leadInLength="0/1"  />
             </VectorParam>
            </Transformer>
            <Parameters>
             <VectorParam id="114"  name="sourceCrop">
              <InterpolatingParam id="115" interp="linr"  time="0/1" value="0" leadInLength="0/1"  />
              <InterpolatingParam id="116" interp="linr"  time="0/1" value="0" leadInLength="0/1"  />
              <InterpolatingParam id="117" interp="linr"  time="0/1" value="0" leadInLength="0/1"  />
              <InterpolatingParam id="118" interp="linr"  time="0/1" value="0" leadInLength="0/1"  />
             </VectorParam>
             <VectorParam id="119"  name="geometryCrop">
              <InterpolatingParam id="120" interp="linr"  time="-9999999/1" value="0" leadInLength="0/1"  />
              <InterpolatingParam id="121" interp="linr"  time="-9999999/1" value="0" leadInLength="0/1"  />
              <InterpolatingParam id="122" interp="linr"  time="-9999999/1" value="0" leadInLength="0/1"  />
              <InterpolatingParam id="123" interp="linr"  time="-9999999/1" value="0" leadInLength="0/1"  />
             </VectorParam>
             <InterpolatingParam id="124" interp="linr"  time="-9999999/1" value="1" leadInLength="0/1"  name="opacity"/>
            </Parameters>
            <Attributes>
             <Attribute id="125" value="" name="ident"/>
            </Attributes>
            <MetaData>
             <entry key="WinSubProjectDisplayName" val=""/>
            </MetaData>
            <ExtraData>
             <Entry key="ZoomPanBin">
              <ZoomPanBin id="126"  >
               <ZoomPanKeyframes>
                <ZoomPanKeyframe id="127" timeRangeEnd="-9999999/1" timeRangeDuration="0/1" interpolaterName=""  />
               </ZoomPanKeyframes>
              </ZoomPanBin>
             </Entry>
            </ExtraData>
           </VMFile>
           <IMFile id="128" start="164" duration="53" scalar="1/1" mediaStart="164/1" mediaDuration="1/1" trackNumber="0" src="4" trimStartSum="0/1" >
            <Transformer>
             <VectorParam id="129"  name="translation">
              <InterpolatingParam id="130" interp="linr"  time="-9999999/1" value="0" leadInLength="0/1"  />
              <InterpolatingParam id="131" interp="linr"  time="-9999999/1" value="0" leadInLength="0/1"  />
              <InterpolatingParam id="132" interp="linr"  time="-9999999/1" value="0" leadInLength="0/1"  />
             </VectorParam>
             <VectorParam id="133"  name="rotation">
              <InterpolatingParam id="134" interp="linr"  time="-9999999/1" value="0" leadInLength="0/1"  />
              <InterpolatingParam id="135" interp="linr"  time="-9999999/1" value="0" leadInLength="0/1"  />
              <InterpolatingParam id="136" interp="linr"  time="-9999999/1" value="0" leadInLength="0/1"  />
             </VectorParam>
             <VectorParam id="137"  name="shear">
              <InterpolatingParam id="138" interp="linr"  time="-9999999/1" value="0" leadInLength="0/1"  />
              <InterpolatingParam id="139" interp="linr"  time="-9999999/1" value="0" leadInLength="0/1"  />
              <InterpolatingParam id="140" interp="linr"  time="-9999999/1" value="0" leadInLength="0/1"  />
             </VectorParam>
             <VectorParam id="141"  name="scale">
              <InterpolatingParam id="142" interp="linr"  time="-9999999/1" value="1" leadInLength="0/1"  />
              <InterpolatingParam id="143" interp="linr"  time="-9999999/1" value="1" leadInLength="0/1"  />
              <InterpolatingParam id="144" interp="linr"  time="-9999999/1" value="1" leadInLength="0/1"  />
             </VectorParam>
             <VectorParam id="145"  name="anchor">
              <InterpolatingParam id="146" interp="linr"  time="0/1" value="0" leadInLength="0/1"  />
              <InterpolatingParam id="147" interp="linr"  time="0/1" value="0" leadInLength="0/1"  />
              <InterpolatingParam id="148" interp="linr"  time="0/1" value="0" leadInLength="0/1"  />
             </VectorParam>
            </Transformer>
            <Parameters>
             <VectorParam id="149"  name="sourceCrop">
              <InterpolatingParam id="150" interp="linr"  time="0/1" value="0" leadInLength="0/1"  />
              <InterpolatingParam id="151" interp="linr"  time="0/1" value="0" leadInLength="0/1"  />
              <InterpolatingParam id="152" interp="linr"  time="0/1" value="0" leadInLength="0/1"  />
              <InterpolatingParam id="153" interp="linr"  time="0/1" value="0" leadInLength="0/1"  />
             </VectorParam>
             <VectorParam id="154"  name="geometryCrop">
              <InterpolatingParam id="155" interp="linr"  time="-9999999/1" value="0" leadInLength="0/1"  />
              <InterpolatingParam id="156" interp="linr"  time="-9999999/1" value="0" leadInLength="0/1"  />
              <InterpolatingParam id="157" interp="linr"  time="-9999999/1" value="0" leadInLength="0/1"  />
              <InterpolatingParam id="158" interp="linr"  time="-9999999/1" value="0" leadInLength="0/1"  />
             </VectorParam>
             <InterpolatingParam id="159" interp="linr"  time="-9999999/1" value="1" leadInLength="0/1"  name="opacity"/>
            </Parameters>
            <Attributes>
             <Attribute id="160" value="" name="ident"/>
            </Attributes>
            <MetaData>
             <entry key="WinSubProjectDisplayName" val=""/>
            </MetaData>
            <ExtraData>
             <Entry key="ZoomPanBin">
              <ZoomPanBin id="161"  >
               <ZoomPanKeyframes>
                <ZoomPanKeyframe id="162" timeRangeEnd="-9999999/1" timeRangeDuration="0/1" interpolaterName=""  />
               </ZoomPanKeyframes>
              </ZoomPanBin>
             </Entry>
            </ExtraData>
           </IMFile>
           <VMFile id="163" start="217" duration="210" scalar="1/1" mediaStart="164/1" mediaDuration="210/1" trackNumber="0" src="4" >
            <Transformer>
             <VectorParam id="164"  name="translation">
              <InterpolatingParam id="165" interp="linr"  time="-9999999/1" value="0" leadInLength="0/1"  />
              <InterpolatingParam id="166" interp="linr"  time="-9999999/1" value="0" leadInLength="0/1"  />
              <InterpolatingParam id="167" interp="linr"  time="-9999999/1" value="0" leadInLength="0/1"  />
             </VectorParam>
             <VectorParam id="168"  name="rotation">
              <InterpolatingParam id="169" interp="linr"  time="-9999999/1" value="0" leadInLength="0/1"  />
              <InterpolatingParam id="170" interp="linr"  time="-9999999/1" value="0" leadInLength="0/1"  />
              <InterpolatingParam id="171" interp="linr"  time="-9999999/1" value="0" leadInLength="0/1"  />
             </VectorParam>
             <VectorParam id="172"  name="shear">
              <InterpolatingParam id="173" interp="linr"  time="-9999999/1" value="0" leadInLength="0/1"  />
              <InterpolatingParam id="174" interp="linr"  time="-9999999/1" value="0" leadInLength="0/1"  />
              <InterpolatingParam id="175" interp="linr"  time="-9999999/1" value="0" leadInLength="0/1"  />
             </VectorParam>
             <VectorParam id="176"  name="scale">
              <InterpolatingParam id="177" interp="linr"  time="-9999999/1" value="1" leadInLength="0/1"  />
              <InterpolatingParam id="178" interp="linr"  time="-9999999/1" value="1" leadInLength="0/1"  />
              <InterpolatingParam id="179" interp="linr"  time="-9999999/1" value="1" leadInLength="0/1"  />
             </VectorParam>
             <VectorParam id="180"  name="anchor">
              <InterpolatingParam id="181" interp="linr"  time="0/1" value="0" leadInLength="0/1"  />
              <InterpolatingParam id="182" interp="linr"  time="0/1" value="0" leadInLength="0/1"  />
              <InterpolatingParam id="183" interp="linr"  time="0/1" value="0" leadInLength="0/1"  />
             </VectorParam>
            </Transformer>
            <Parameters>
             <VectorParam id="184"  name="sourceCrop">
              <InterpolatingParam id="185" interp="linr"  time="0/1" value="0" leadInLength="0/1"  />
              <InterpolatingParam id="186" interp="linr"  time="0/1" value="0" leadInLength="0/1"  />
              <InterpolatingParam id="187" interp="linr"  time="0/1" value="0" leadInLength="0/1"  />
              <InterpolatingParam id="188" interp="linr"  time="0/1" value="0" leadInLength="0/1"  />
             </VectorParam>
             <VectorParam id="189"  name="geometryCrop">
              <InterpolatingParam id="190" interp="linr"  time="-9999999/1" value="0" leadInLength="0/1"  />
              <InterpolatingParam id="191" interp="linr"  time="-9999999/1" value="0" leadInLength="0/1"  />
              <InterpolatingParam id="192" interp="linr"  time="-9999999/1" value="0" leadInLength="0/1"  />
              <InterpolatingParam id="193" interp="linr"  time="-9999999/1" value="0" leadInLength="0/1"  />
             </VectorParam>
             <InterpolatingParam id="194" interp="linr"  time="-9999999/1" value="1" leadInLength="0/1"  name="opacity"/>
            </Parameters>
            <Attributes>
             <Attribute id="195" value="" name="ident"/>
            </Attributes>
            <MetaData>
             <entry key="WinSubProjectDisplayName" val=""/>
            </MetaData>
            <ExtraData>
             <Entry key="ZoomPanBin">
              <ZoomPanBin id="196"  >
               <ZoomPanKeyframes>
                <ZoomPanKeyframe id="197" timeRangeEnd="-9999999/1" timeRangeDuration="0/1" interpolaterName=""  />
               </ZoomPanKeyframes>
              </ZoomPanBin>
             </Entry>
            </ExtraData>
           </VMFile>
           <IMFile id="198" start="427" duration="90" scalar="1/1" mediaStart="374/1" mediaDuration="1/1" trackNumber="0" src="4" trimStartSum="0/1" >
            <Transformer>
             <VectorParam id="199"  name="translation">
              <InterpolatingParam id="200" interp="linr"  time="-9999999/1" value="0" leadInLength="0/1"  />
              <InterpolatingParam id="201" interp="linr"  time="-9999999/1" value="0" leadInLength="0/1"  />
              <InterpolatingParam id="202" interp="linr"  time="-9999999/1" value="0" leadInLength="0/1"  />
             </VectorParam>
             <VectorParam id="203"  name="rotation">
              <InterpolatingParam id="204" interp="linr"  time="-9999999/1" value="0" leadInLength="0/1"  />
              <InterpolatingParam id="205" interp="linr"  time="-9999999/1" value="0" leadInLength="0/1"  />
              <InterpolatingParam id="206" interp="linr"  time="-9999999/1" value="0" leadInLength="0/1"  />
             </VectorParam>
             <VectorParam id="207"  name="shear">
              <InterpolatingParam id="208" interp="linr"  time="-9999999/1" value="0" leadInLength="0/1"  />
              <InterpolatingParam id="209" interp="linr"  time="-9999999/1" value="0" leadInLength="0/1"  />
              <InterpolatingParam id="210" interp="linr"  time="-9999999/1" value="0" leadInLength="0/1"  />
             </VectorParam>
             <VectorParam id="211"  name="scale">
              <InterpolatingParam id="212" interp="linr"  time="-9999999/1" value="1" leadInLength="0/1"  />
              <InterpolatingParam id="213" interp="linr"  time="-9999999/1" value="1" leadInLength="0/1"  />
              <InterpolatingParam id="214" interp="linr"  time="-9999999/1" value="1" leadInLength="0/1"  />
             </VectorParam>
             <VectorParam id="215"  name="anchor">
              <InterpolatingParam id="216" interp="linr"  time="0/1" value="0" leadInLength="0/1"  />
              <InterpolatingParam id="217" interp="linr"  time="0/1" value="0" leadInLength="0/1"  />
              <InterpolatingParam id="218" interp="linr"  time="0/1" value="0" leadInLength="0/1"  />
             </VectorParam>
            </Transformer>
            <Parameters>
             <VectorParam id="219"  name="sourceCrop">
              <InterpolatingParam id="220" interp="linr"  time="0/1" value="0" leadInLength="0/1"  />
              <InterpolatingParam id="221" interp="linr"  time="0/1" value="0" leadInLength="0/1"  />
              <InterpolatingParam id="222" interp="linr"  time="0/1" value="0" leadInLength="0/1"  />
              <InterpolatingParam id="223" interp="linr"  time="0/1" value="0" leadInLength="0/1"  />
             </VectorParam>
             <VectorParam id="224"  name="geometryCrop">
              <InterpolatingParam id="225" interp="linr"  time="-9999999/1" value="0" leadInLength="0/1"  />
              <InterpolatingParam id="226" interp="linr"  time="-9999999/1" value="0" leadInLength="0/1"  />
              <InterpolatingParam id="227" interp="linr"  time="-9999999/1" value="0" leadInLength="0/1"  />
              <InterpolatingParam id="228" interp="linr"  time="-9999999/1" value="0" leadInLength="0/1"  />
             </VectorParam>
             <InterpolatingParam id="229" interp="linr"  time="-9999999/1" value="1" leadInLength="0/1"  name="opacity"/>
            </Parameters>
            <Attributes>
             <Attribute id="230" value="" name="ident"/>
            </Attributes>
            <MetaData>
             <entry key="WinSubProjectDisplayName" val=""/>
            </MetaData>
            <ExtraData>
             <Entry key="ZoomPanBin">
              <ZoomPanBin id="231"  >
               <ZoomPanKeyframes>
                <ZoomPanKeyframe id="232" timeRangeEnd="-9999999/1" timeRangeDuration="0/1" interpolaterName=""  />
               </ZoomPanKeyframes>
              </ZoomPanBin>
             </Entry>
            </ExtraData>
           </IMFile>
           <VMFile id="233" start="517" duration="9" scalar="1/1" mediaStart="374/1" mediaDuration="9/1" trackNumber="0" src="4" >
            <Transformer>
             <VectorParam id="234"  name="translation">
              <InterpolatingParam id="235" interp="linr"  time="-9999999/1" value="0" leadInLength="0/1"  />
              <InterpolatingParam id="236" interp="linr"  time="-9999999/1" value="0" leadInLength="0/1"  />
              <InterpolatingParam id="237" interp="linr"  time="-9999999/1" value="0" leadInLength="0/1"  />
             </VectorParam>
             <VectorParam id="238"  name="rotation">
              <InterpolatingParam id="239" interp="linr"  time="-9999999/1" value="0" leadInLength="0/1"  />
              <InterpolatingParam id="240" interp="linr"  time="-9999999/1" value="0" leadInLength="0/1"  />
              <InterpolatingParam id="241" interp="linr"  time="-9999999/1" value="0" leadInLength="0/1"  />
             </VectorParam>
             <VectorParam id="242"  name="shear">
              <InterpolatingParam id="243" interp="linr"  time="-9999999/1" value="0" leadInLength="0/1"  />
              <InterpolatingParam id="244" interp="linr"  time="-9999999/1" value="0" leadInLength="0/1"  />
              <InterpolatingParam id="245" interp="linr"  time="-9999999/1" value="0" leadInLength="0/1"  />
             </VectorParam>
             <VectorParam id="246"  name="scale">
              <InterpolatingParam id="247" interp="linr"  time="-9999999/1" value="1" leadInLength="0/1"  />
              <InterpolatingParam id="248" interp="linr"  time="-9999999/1" value="1" leadInLength="0/1"  />
              <InterpolatingParam id="249" interp="linr"  time="-9999999/1" value="1" leadInLength="0/1"  />
             </VectorParam>
             <VectorParam id="250"  name="anchor">
              <InterpolatingParam id="251" interp="linr"  time="0/1" value="0" leadInLength="0/1"  />
              <InterpolatingParam id="252" interp="linr"  time="0/1" value="0" leadInLength="0/1"  />
              <InterpolatingParam id="253" interp="linr"  time="0/1" value="0" leadInLength="0/1"  />
             </VectorParam>
            </Transformer>
            <Parameters>
             <VectorParam id="254"  name="sourceCrop">
              <InterpolatingParam id="255" interp="linr"  time="0/1" value="0" leadInLength="0/1"  />
              <InterpolatingParam id="256" interp="linr"  time="0/1" value="0" leadInLength="0/1"  />
              <InterpolatingParam id="257" interp="linr"  time="0/1" value="0" leadInLength="0/1"  />
              <InterpolatingParam id="258" interp="linr"  time="0/1" value="0" leadInLength="0/1"  />
             </VectorParam>
             <VectorParam id="259"  name="geometryCrop">
              <InterpolatingParam id="260" interp="linr"  time="-9999999/1" value="0" leadInLength="0/1"  />
              <InterpolatingParam id="261" interp="linr"  time="-9999999/1" value="0" leadInLength="0/1"  />
              <InterpolatingParam id="262" interp="linr"  time="-9999999/1" value="0" leadInLength="0/1"  />
              <InterpolatingParam id="263" interp="linr"  time="-9999999/1" value="0" leadInLength="0/1"  />
             </VectorParam>
             <InterpolatingParam id="264" interp="linr"  time="-9999999/1" value="1" leadInLength="0/1"  name="opacity"/>
            </Parameters>
            <Attributes>
             <Attribute id="265" value="" name="ident"/>
            </Attributes>
            <MetaData>
             <entry key="WinSubProjectDisplayName" val=""/>
            </MetaData>
            <ExtraData>
             <Entry key="ZoomPanBin">
              <ZoomPanBin id="266"  >
               <ZoomPanKeyframes>
                <ZoomPanKeyframe id="267" timeRangeEnd="-9999999/1" timeRangeDuration="0/1" interpolaterName=""  />
               </ZoomPanKeyframes>
              </ZoomPanBin>
             </Entry>
            </ExtraData>
           </VMFile>
           <VMFile id="268" start="526" duration="244" scalar="1/1" mediaStart="506/1" mediaDuration="244/1" trackNumber="0" src="4" >
            <Transformer>
             <VectorParam id="269"  name="translation">
              <InterpolatingParam id="270" interp="linr"  time="-9999999/1" value="0" leadInLength="0/1"  />
              <InterpolatingParam id="271" interp="linr"  time="-9999999/1" value="0" leadInLength="0/1"  />
              <InterpolatingParam id="272" interp="linr"  time="-9999999/1" value="0" leadInLength="0/1"  />
             </VectorParam>
             <VectorParam id="273"  name="rotation">
              <InterpolatingParam id="274" interp="linr"  time="-9999999/1" value="0" leadInLength="0/1"  />
              <InterpolatingParam id="275" interp="linr"  time="-9999999/1" value="0" leadInLength="0/1"  />
              <InterpolatingParam id="276" interp="linr"  time="-9999999/1" value="0" leadInLength="0/1"  />
             </VectorParam>
             <VectorParam id="277"  name="shear">
              <InterpolatingParam id="278" interp="linr"  time="-9999999/1" value="0" leadInLength="0/1"  />
              <InterpolatingParam id="279" interp="linr"  time="-9999999/1" value="0" leadInLength="0/1"  />
              <InterpolatingParam id="280" interp="linr"  time="-9999999/1" value="0" leadInLength="0/1"  />
             </VectorParam>
             <VectorParam id="281"  name="scale">
              <InterpolatingParam id="282" interp="linr"  time="-9999999/1" value="1" leadInLength="0/1"  />
              <InterpolatingParam id="283" interp="linr"  time="-9999999/1" value="1" leadInLength="0/1"  />
              <InterpolatingParam id="284" interp="linr"  time="-9999999/1" value="1" leadInLength="0/1"  />
             </VectorParam>
             <VectorParam id="285"  name="anchor">
              <InterpolatingParam id="286" interp="linr"  time="0/1" value="0" leadInLength="0/1"  />
              <InterpolatingParam id="287" interp="linr"  time="0/1" value="0" leadInLength="0/1"  />
              <InterpolatingParam id="288" interp="linr"  time="0/1" value="0" leadInLength="0/1"  />
             </VectorParam>
            </Transformer>
            <Parameters>
             <VectorParam id="289"  name="sourceCrop">
              <InterpolatingParam id="290" interp="linr"  time="0/1" value="0" leadInLength="0/1"  />
              <InterpolatingParam id="291" interp="linr"  time="0/1" value="0" leadInLength="0/1"  />
              <InterpolatingParam id="292" interp="linr"  time="0/1" value="0" leadInLength="0/1"  />
              <InterpolatingParam id="293" interp="linr"  time="0/1" value="0" leadInLength="0/1"  />
             </VectorParam>
             <VectorParam id="294"  name="geometryCrop">
              <InterpolatingParam id="295" interp="linr"  time="-9999999/1" value="0" leadInLength="0/1"  />
              <InterpolatingParam id="296" interp="linr"  time="-9999999/1" value="0" leadInLength="0/1"  />
              <InterpolatingParam id="297" interp="linr"  time="-9999999/1" value="0" leadInLength="0/1"  />
              <InterpolatingParam id="298" interp="linr"  time="-9999999/1" value="0" leadInLength="0/1"  />
             </VectorParam>
             <InterpolatingParam id="299" interp="linr"  time="-9999999/1" value="1" leadInLength="0/1"  name="opacity"/>
            </Parameters>
            <Attributes>
             <Attribute id="300" value="" name="ident"/>
            </Attributes>
            <MetaData>
             <entry key="WinSubProjectDisplayName" val=""/>
            </MetaData>
            <ExtraData>
             <Entry key="ZoomPanBin">
              <ZoomPanBin id="301"  >
               <ZoomPanKeyframes>
                <ZoomPanKeyframe id="302" timeRangeEnd="-9999999/1" timeRangeDuration="0/1" interpolaterName=""  />
               </ZoomPanKeyframes>
              </ZoomPanBin>
             </Entry>
            </ExtraData>
           </VMFile>
           <VMFile id="303" start="770" duration="709" scalar="1/1" mediaStart="858/1" mediaDuration="709/1" trackNumber="0" src="4" >
            <Transformer>
             <VectorParam id="304"  name="translation">
              <InterpolatingParam id="305" interp="linr"  time="-9999999/1" value="0" leadInLength="0/1"  />
              <InterpolatingParam id="306" interp="linr"  time="-9999999/1" value="0" leadInLength="0/1"  />
              <InterpolatingParam id="307" interp="linr"  time="-9999999/1" value="0" leadInLength="0/1"  />
             </VectorParam>
             <VectorParam id="308"  name="rotation">
              <InterpolatingParam id="309" interp="linr"  time="-9999999/1" value="0" leadInLength="0/1"  />
              <InterpolatingParam id="310" interp="linr"  time="-9999999/1" value="0" leadInLength="0/1"  />
              <InterpolatingParam id="311" interp="linr"  time="-9999999/1" value="0" leadInLength="0/1"  />
             </VectorParam>
             <VectorParam id="312"  name="shear">
              <InterpolatingParam id="313" interp="linr"  time="-9999999/1" value="0" leadInLength="0/1"  />
              <InterpolatingParam id="314" interp="linr"  time="-9999999/1" value="0" leadInLength="0/1"  />
              <InterpolatingParam id="315" interp="linr"  time="-9999999/1" value="0" leadInLength="0/1"  />
             </VectorParam>
             <VectorParam id="316"  name="scale">
              <InterpolatingParam id="317" interp="linr"  time="-9999999/1" value="1" leadInLength="0/1"  />
              <InterpolatingParam id="318" interp="linr"  time="-9999999/1" value="1" leadInLength="0/1"  />
              <InterpolatingParam id="319" interp="linr"  time="-9999999/1" value="1" leadInLength="0/1"  />
             </VectorParam>
             <VectorParam id="320"  name="anchor">
              <InterpolatingParam id="321" interp="linr"  time="0/1" value="0" leadInLength="0/1"  />
              <InterpolatingParam id="322" interp="linr"  time="0/1" value="0" leadInLength="0/1"  />
              <InterpolatingParam id="323" interp="linr"  time="0/1" value="0" leadInLength="0/1"  />
             </VectorParam>
            </Transformer>
            <Parameters>
             <VectorParam id="324"  name="sourceCrop">
              <InterpolatingParam id="325" interp="linr"  time="0/1" value="0" leadInLength="0/1"  />
              <InterpolatingParam id="326" interp="linr"  time="0/1" value="0" leadInLength="0/1"  />
              <InterpolatingParam id="327" interp="linr"  time="0/1" value="0" leadInLength="0/1"  />
              <InterpolatingParam id="328" interp="linr"  time="0/1" value="0" leadInLength="0/1"  />
             </VectorParam>
             <VectorParam id="329"  name="geometryCrop">
              <InterpolatingParam id="330" interp="linr"  time="-9999999/1" value="0" leadInLength="0/1"  />
              <InterpolatingParam id="331" interp="linr"  time="-9999999/1" value="0" leadInLength="0/1"  />
              <InterpolatingParam id="332" interp="linr"  time="-9999999/1" value="0" leadInLength="0/1"  />
              <InterpolatingParam id="333" interp="linr"  time="-9999999/1" value="0" leadInLength="0/1"  />
             </VectorParam>
             <InterpolatingParam id="334" interp="linr"  time="-9999999/1" value="1" leadInLength="0/1"  name="opacity"/>
            </Parameters>
            <Attributes>
             <Attribute id="335" value="" name="ident"/>
            </Attributes>
            <MetaData>
             <entry key="WinSubProjectDisplayName" val=""/>
            </MetaData>
            <ExtraData>
             <Entry key="ZoomPanBin">
              <ZoomPanBin id="336"  >
               <ZoomPanKeyframes>
                <ZoomPanKeyframe id="337" timeRangeEnd="-9999999/1" timeRangeDuration="0/1" interpolaterName=""  />
               </ZoomPanKeyframes>
              </ZoomPanBin>
             </Entry>
            </ExtraData>
           </VMFile>
           <VMFile id="338" start="1479" duration="169" scalar="1/1" mediaStart="1711/1" mediaDuration="169/1" trackNumber="0" src="4" >
            <Transformer>
             <VectorParam id="339"  name="translation">
              <InterpolatingParam id="340" interp="linr"  time="-9999999/1" value="0" leadInLength="0/1"  />
              <InterpolatingParam id="341" interp="linr"  time="-9999999/1" value="0" leadInLength="0/1"  />
              <InterpolatingParam id="342" interp="linr"  time="-9999999/1" value="0" leadInLength="0/1"  />
             </VectorParam>
             <VectorParam id="343"  name="rotation">
              <InterpolatingParam id="344" interp="linr"  time="-9999999/1" value="0" leadInLength="0/1"  />
              <InterpolatingParam id="345" interp="linr"  time="-9999999/1" value="0" leadInLength="0/1"  />
              <InterpolatingParam id="346" interp="linr"  time="-9999999/1" value="0" leadInLength="0/1"  />
             </VectorParam>
             <VectorParam id="347"  name="shear">
              <InterpolatingParam id="348" interp="linr"  time="-9999999/1" value="0" leadInLength="0/1"  />
              <InterpolatingParam id="349" interp="linr"  time="-9999999/1" value="0" leadInLength="0/1"  />
              <InterpolatingParam id="350" interp="linr"  time="-9999999/1" value="0" leadInLength="0/1"  />
             </VectorParam>
             <VectorParam id="351"  name="scale">
              <InterpolatingParam id="352" interp="linr"  time="-9999999/1" value="1" leadInLength="0/1"  />
              <InterpolatingParam id="353" interp="linr"  time="-9999999/1" value="1" leadInLength="0/1"  />
              <InterpolatingParam id="354" interp="linr"  time="-9999999/1" value="1" leadInLength="0/1"  />
             </VectorParam>
             <VectorParam id="355"  name="anchor">
              <InterpolatingParam id="356" interp="linr"  time="0/1" value="0" leadInLength="0/1"  />
              <InterpolatingParam id="357" interp="linr"  time="0/1" value="0" leadInLength="0/1"  />
              <InterpolatingParam id="358" interp="linr"  time="0/1" value="0" leadInLength="0/1"  />
             </VectorParam>
            </Transformer>
            <Parameters>
             <VectorParam id="359"  name="sourceCrop">
              <InterpolatingParam id="360" interp="linr"  time="0/1" value="0" leadInLength="0/1"  />
              <InterpolatingParam id="361" interp="linr"  time="0/1" value="0" leadInLength="0/1"  />
              <InterpolatingParam id="362" interp="linr"  time="0/1" value="0" leadInLength="0/1"  />
              <InterpolatingParam id="363" interp="linr"  time="0/1" value="0" leadInLength="0/1"  />
             </VectorParam>
             <VectorParam id="364"  name="geometryCrop">
              <InterpolatingParam id="365" interp="linr"  time="-9999999/1" value="0" leadInLength="0/1"  />
              <InterpolatingParam id="366" interp="linr"  time="-9999999/1" value="0" leadInLength="0/1"  />
              <InterpolatingParam id="367" interp="linr"  time="-9999999/1" value="0" leadInLength="0/1"  />
              <InterpolatingParam id="368" interp="linr"  time="-9999999/1" value="0" leadInLength="0/1"  />
             </VectorParam>
             <InterpolatingParam id="369" interp="linr"  time="-9999999/1" value="1" leadInLength="0/1"  name="opacity"/>
            </Parameters>
            <Attributes>
             <Attribute id="370" value="" name="ident"/>
            </Attributes>
            <MetaData>
             <entry key="WinSubProjectDisplayName" val=""/>
            </MetaData>
            <ExtraData>
             <Entry key="ZoomPanBin">
              <ZoomPanBin id="371"  >
               <ZoomPanKeyframes>
                <ZoomPanKeyframe id="372" timeRangeEnd="-9999999/1" timeRangeDuration="0/1" interpolaterName=""  />
               </ZoomPanKeyframes>
              </ZoomPanBin>
             </Entry>
            </ExtraData>
           </VMFile>
           <VMFile id="373" start="1648" duration="144" scalar="1/1" mediaStart="2061/1" mediaDuration="144/1" trackNumber="0" src="4" >
            <Transformer>
             <VectorParam id="374"  name="translation">
              <InterpolatingParam id="375" interp="linr"  time="-9999999/1" value="0" leadInLength="0/1"  />
              <InterpolatingParam id="376" interp="linr"  time="-9999999/1" value="0" leadInLength="0/1"  />
              <InterpolatingParam id="377" interp="linr"  time="-9999999/1" value="0" leadInLength="0/1"  />
             </VectorParam>
             <VectorParam id="378"  name="rotation">
              <InterpolatingParam id="379" interp="linr"  time="-9999999/1" value="0" leadInLength="0/1"  />
              <InterpolatingParam id="380" interp="linr"  time="-9999999/1" value="0" leadInLength="0/1"  />
              <InterpolatingParam id="381" interp="linr"  time="-9999999/1" value="0" leadInLength="0/1"  />
             </VectorParam>
             <VectorParam id="382"  name="shear">
              <InterpolatingParam id="383" interp="linr"  time="-9999999/1" value="0" leadInLength="0/1"  />
              <InterpolatingParam id="384" interp="linr"  time="-9999999/1" value="0" leadInLength="0/1"  />
              <InterpolatingParam id="385" interp="linr"  time="-9999999/1" value="0" leadInLength="0/1"  />
             </VectorParam>
             <VectorParam id="386"  name="scale">
              <InterpolatingParam id="387" interp="linr"  time="-9999999/1" value="1" leadInLength="0/1"  />
              <InterpolatingParam id="388" interp="linr"  time="-9999999/1" value="1" leadInLength="0/1"  />
              <InterpolatingParam id="389" interp="linr"  time="-9999999/1" value="1" leadInLength="0/1"  />
             </VectorParam>
             <VectorParam id="390"  name="anchor">
              <InterpolatingParam id="391" interp="linr"  time="0/1" value="0" leadInLength="0/1"  />
              <InterpolatingParam id="392" interp="linr"  time="0/1" value="0" leadInLength="0/1"  />
              <InterpolatingParam id="393" interp="linr"  time="0/1" value="0" leadInLength="0/1"  />
             </VectorParam>
            </Transformer>
            <Parameters>
             <VectorParam id="394"  name="sourceCrop">
              <InterpolatingParam id="395" interp="linr"  time="0/1" value="0" leadInLength="0/1"  />
              <InterpolatingParam id="396" interp="linr"  time="0/1" value="0" leadInLength="0/1"  />
              <InterpolatingParam id="397" interp="linr"  time="0/1" value="0" leadInLength="0/1"  />
              <InterpolatingParam id="398" interp="linr"  time="0/1" value="0" leadInLength="0/1"  />
             </VectorParam>
             <VectorParam id="399"  name="geometryCrop">
              <InterpolatingParam id="400" interp="linr"  time="-9999999/1" value="0" leadInLength="0/1"  />
              <InterpolatingParam id="401" interp="linr"  time="-9999999/1" value="0" leadInLength="0/1"  />
              <InterpolatingParam id="402" interp="linr"  time="-9999999/1" value="0" leadInLength="0/1"  />
              <InterpolatingParam id="403" interp="linr"  time="-9999999/1" value="0" leadInLength="0/1"  />
             </VectorParam>
             <InterpolatingParam id="404" interp="linr"  time="-9999999/1" value="1" leadInLength="0/1"  name="opacity"/>
            </Parameters>
            <Attributes>
             <Attribute id="405" value="" name="ident"/>
            </Attributes>
            <MetaData>
             <entry key="WinSubProjectDisplayName" val=""/>
            </MetaData>
            <ExtraData>
             <Entry key="ZoomPanBin">
              <ZoomPanBin id="406"  >
               <ZoomPanKeyframes>
                <ZoomPanKeyframe id="407" timeRangeEnd="-9999999/1" timeRangeDuration="0/1" interpolaterName=""  />
               </ZoomPanKeyframes>
              </ZoomPanBin>
             </Entry>
            </ExtraData>
           </VMFile>
           <VMFile id="408" start="1792" duration="474" scalar="1/1" mediaStart="2294/1" mediaDuration="474/1" trackNumber="0" src="4" >
            <Transformer>
             <VectorParam id="409"  name="translation">
              <InterpolatingParam id="410" interp="linr"  time="-9999999/1" value="0" leadInLength="0/1"  />
              <InterpolatingParam id="411" interp="linr"  time="-9999999/1" value="0" leadInLength="0/1"  />
              <InterpolatingParam id="412" interp="linr"  time="-9999999/1" value="0" leadInLength="0/1"  />
             </VectorParam>
             <VectorParam id="413"  name="rotation">
              <InterpolatingParam id="414" interp="linr"  time="-9999999/1" value="0" leadInLength="0/1"  />
              <InterpolatingParam id="415" interp="linr"  time="-9999999/1" value="0" leadInLength="0/1"  />
              <InterpolatingParam id="416" interp="linr"  time="-9999999/1" value="0" leadInLength="0/1"  />
             </VectorParam>
             <VectorParam id="417"  name="shear">
              <InterpolatingParam id="418" interp="linr"  time="-9999999/1" value="0" leadInLength="0/1"  />
              <InterpolatingParam id="419" interp="linr"  time="-9999999/1" value="0" leadInLength="0/1"  />
              <InterpolatingParam id="420" interp="linr"  time="-9999999/1" value="0" leadInLength="0/1"  />
             </VectorParam>
             <VectorParam id="421"  name="scale">
              <InterpolatingParam id="422" interp="linr"  time="-9999999/1" value="1" leadInLength="0/1"  />
              <InterpolatingParam id="423" interp="linr"  time="-9999999/1" value="1" leadInLength="0/1"  />
              <InterpolatingParam id="424" interp="linr"  time="-9999999/1" value="1" leadInLength="0/1"  />
             </VectorParam>
             <VectorParam id="425"  name="anchor">
              <InterpolatingParam id="426" interp="linr"  time="0/1" value="0" leadInLength="0/1"  />
              <InterpolatingParam id="427" interp="linr"  time="0/1" value="0" leadInLength="0/1"  />
              <InterpolatingParam id="428" interp="linr"  time="0/1" value="0" leadInLength="0/1"  />
             </VectorParam>
            </Transformer>
            <Parameters>
             <VectorParam id="429"  name="sourceCrop">
              <InterpolatingParam id="430" interp="linr"  time="0/1" value="0" leadInLength="0/1"  />
              <InterpolatingParam id="431" interp="linr"  time="0/1" value="0" leadInLength="0/1"  />
              <InterpolatingParam id="432" interp="linr"  time="0/1" value="0" leadInLength="0/1"  />
              <InterpolatingParam id="433" interp="linr"  time="0/1" value="0" leadInLength="0/1"  />
             </VectorParam>
             <VectorParam id="434"  name="geometryCrop">
              <InterpolatingParam id="435" interp="linr"  time="-9999999/1" value="0" leadInLength="0/1"  />
              <InterpolatingParam id="436" interp="linr"  time="-9999999/1" value="0" leadInLength="0/1"  />
              <InterpolatingParam id="437" interp="linr"  time="-9999999/1" value="0" leadInLength="0/1"  />
              <InterpolatingParam id="438" interp="linr"  time="-9999999/1" value="0" leadInLength="0/1"  />
             </VectorParam>
             <InterpolatingParam id="439" interp="linr"  time="-9999999/1" value="1" leadInLength="0/1"  name="opacity"/>
            </Parameters>
            <Attributes>
             <Attribute id="440" value="" name="ident"/>
            </Attributes>
            <MetaData>
             <entry key="WinSubProjectDisplayName" val=""/>
            </MetaData>
            <ExtraData>
             <Entry key="ZoomPanBin">
              <ZoomPanBin id="441"  >
               <ZoomPanKeyframes>
                <ZoomPanKeyframe id="442" timeRangeEnd="-9999999/1" timeRangeDuration="0/1" interpolaterName=""  />
               </ZoomPanKeyframes>
              </ZoomPanBin>
             </Entry>
            </ExtraData>
           </VMFile>
           <VMFile id="443" start="2266" duration="386" scalar="1/1" mediaStart="2880/1" mediaDuration="386/1" trackNumber="0" src="4" >
            <Transformer>
             <VectorParam id="444"  name="translation">
              <InterpolatingParam id="445" interp="linr"  time="-9999999/1" value="0" leadInLength="0/1"  />
              <InterpolatingParam id="446" interp="linr"  time="-9999999/1" value="0" leadInLength="0/1"  />
              <InterpolatingParam id="447" interp="linr"  time="-9999999/1" value="0" leadInLength="0/1"  />
             </VectorParam>
             <VectorParam id="448"  name="rotation">
              <InterpolatingParam id="449" interp="linr"  time="-9999999/1" value="0" leadInLength="0/1"  />
              <InterpolatingParam id="450" interp="linr"  time="-9999999/1" value="0" leadInLength="0/1"  />
              <InterpolatingParam id="451" interp="linr"  time="-9999999/1" value="0" leadInLength="0/1"  />
             </VectorParam>
             <VectorParam id="452"  name="shear">
              <InterpolatingParam id="453" interp="linr"  time="-9999999/1" value="0" leadInLength="0/1"  />
              <InterpolatingParam id="454" interp="linr"  time="-9999999/1" value="0" leadInLength="0/1"  />
              <InterpolatingParam id="455" interp="linr"  time="-9999999/1" value="0" leadInLength="0/1"  />
             </VectorParam>
             <VectorParam id="456"  name="scale">
              <InterpolatingParam id="457" interp="linr"  time="-9999999/1" value="1" leadInLength="0/1"  />
              <InterpolatingParam id="458" interp="linr"  time="-9999999/1" value="1" leadInLength="0/1"  />
              <InterpolatingParam id="459" interp="linr"  time="-9999999/1" value="1" leadInLength="0/1"  />
             </VectorParam>
             <VectorParam id="460"  name="anchor">
              <InterpolatingParam id="461" interp="linr"  time="0/1" value="0" leadInLength="0/1"  />
              <InterpolatingParam id="462" interp="linr"  time="0/1" value="0" leadInLength="0/1"  />
              <InterpolatingParam id="463" interp="linr"  time="0/1" value="0" leadInLength="0/1"  />
             </VectorParam>
            </Transformer>
            <Parameters>
             <VectorParam id="464"  name="sourceCrop">
              <InterpolatingParam id="465" interp="linr"  time="0/1" value="0" leadInLength="0/1"  />
              <InterpolatingParam id="466" interp="linr"  time="0/1" value="0" leadInLength="0/1"  />
              <InterpolatingParam id="467" interp="linr"  time="0/1" value="0" leadInLength="0/1"  />
              <InterpolatingParam id="468" interp="linr"  time="0/1" value="0" leadInLength="0/1"  />
             </VectorParam>
             <VectorParam id="469"  name="geometryCrop">
              <InterpolatingParam id="470" interp="linr"  time="-9999999/1" value="0" leadInLength="0/1"  />
              <InterpolatingParam id="471" interp="linr"  time="-9999999/1" value="0" leadInLength="0/1"  />
              <InterpolatingParam id="472" interp="linr"  time="-9999999/1" value="0" leadInLength="0/1"  />
              <InterpolatingParam id="473" interp="linr"  time="-9999999/1" value="0" leadInLength="0/1"  />
             </VectorParam>
             <InterpolatingParam id="474" interp="linr"  time="-9999999/1" value="1" leadInLength="0/1"  name="opacity"/>
            </Parameters>
            <Attributes>
             <Attribute id="475" value="" name="ident"/>
            </Attributes>
            <MetaData>
             <entry key="WinSubProjectDisplayName" val=""/>
            </MetaData>
            <ExtraData>
             <Entry key="ZoomPanBin">
              <ZoomPanBin id="476"  >
               <ZoomPanKeyframes>
                <ZoomPanKeyframe id="477" timeRangeEnd="-9999999/1" timeRangeDuration="0/1" interpolaterName=""  />
               </ZoomPanKeyframes>
              </ZoomPanBin>
             </Entry>
            </ExtraData>
           </VMFile>
           <VMFile id="478" start="2652" duration="314" scalar="1/1" mediaStart="4032/1" mediaDuration="314/1" trackNumber="0" src="4" >
            <Transformer>
             <VectorParam id="479"  name="translation">
              <InterpolatingParam id="480" interp="linr"  time="-9999999/1" value="0" leadInLength="0/1"  />
              <InterpolatingParam id="481" interp="linr"  time="-9999999/1" value="0" leadInLength="0/1"  />
              <InterpolatingParam id="482" interp="linr"  time="-9999999/1" value="0" leadInLength="0/1"  />
             </VectorParam>
             <VectorParam id="483"  name="rotation">
              <InterpolatingParam id="484" interp="linr"  time="-9999999/1" value="0" leadInLength="0/1"  />
              <InterpolatingParam id="485" interp="linr"  time="-9999999/1" value="0" leadInLength="0/1"  />
              <InterpolatingParam id="486" interp="linr"  time="-9999999/1" value="0" leadInLength="0/1"  />
             </VectorParam>
             <VectorParam id="487"  name="shear">
              <InterpolatingParam id="488" interp="linr"  time="-9999999/1" value="0" leadInLength="0/1"  />
              <InterpolatingParam id="489" interp="linr"  time="-9999999/1" value="0" leadInLength="0/1"  />
              <InterpolatingParam id="490" interp="linr"  time="-9999999/1" value="0" leadInLength="0/1"  />
             </VectorParam>
             <VectorParam id="491"  name="scale">
              <InterpolatingParam id="492" interp="linr"  time="-9999999/1" value="1" leadInLength="0/1"  />
              <InterpolatingParam id="493" interp="linr"  time="-9999999/1" value="1" leadInLength="0/1"  />
              <InterpolatingParam id="494" interp="linr"  time="-9999999/1" value="1" leadInLength="0/1"  />
             </VectorParam>
             <VectorParam id="495"  name="anchor">
              <InterpolatingParam id="496" interp="linr"  time="0/1" value="0" leadInLength="0/1"  />
              <InterpolatingParam id="497" interp="linr"  time="0/1" value="0" leadInLength="0/1"  />
              <InterpolatingParam id="498" interp="linr"  time="0/1" value="0" leadInLength="0/1"  />
             </VectorParam>
            </Transformer>
            <Parameters>
             <VectorParam id="499"  name="sourceCrop">
              <InterpolatingParam id="500" interp="linr"  time="0/1" value="0" leadInLength="0/1"  />
              <InterpolatingParam id="501" interp="linr"  time="0/1" value="0" leadInLength="0/1"  />
              <InterpolatingParam id="502" interp="linr"  time="0/1" value="0" leadInLength="0/1"  />
              <InterpolatingParam id="503" interp="linr"  time="0/1" value="0" leadInLength="0/1"  />
             </VectorParam>
             <VectorParam id="504"  name="geometryCrop">
              <InterpolatingParam id="505" interp="linr"  time="-9999999/1" value="0" leadInLength="0/1"  />
              <InterpolatingParam id="506" interp="linr"  time="-9999999/1" value="0" leadInLength="0/1"  />
              <InterpolatingParam id="507" interp="linr"  time="-9999999/1" value="0" leadInLength="0/1"  />
              <InterpolatingParam id="508" interp="linr"  time="-9999999/1" value="0" leadInLength="0/1"  />
             </VectorParam>
             <InterpolatingParam id="509" interp="linr"  time="-9999999/1" value="1" leadInLength="0/1"  name="opacity"/>
            </Parameters>
            <Attributes>
             <Attribute id="510" value="" name="ident"/>
            </Attributes>
            <MetaData>
             <entry key="WinSubProjectDisplayName" val=""/>
            </MetaData>
            <ExtraData>
             <Entry key="ZoomPanBin">
              <ZoomPanBin id="511"  >
               <ZoomPanKeyframes>
                <ZoomPanKeyframe id="512" timeRangeEnd="-9999999/1" timeRangeDuration="0/1" interpolaterName=""  />
               </ZoomPanKeyframes>
              </ZoomPanBin>
             </Entry>
            </ExtraData>
           </VMFile>
           <VMFile id="513" start="2966" duration="112" scalar="1/1" mediaStart="4751/1" mediaDuration="112/1" trackNumber="0" src="4" >
            <Transformer>
             <VectorParam id="514"  name="translation">
              <InterpolatingParam id="515" interp="linr"  time="-9999999/1" value="0" leadInLength="0/1"  />
              <InterpolatingParam id="516" interp="linr"  time="-9999999/1" value="0" leadInLength="0/1"  />
              <InterpolatingParam id="517" interp="linr"  time="-9999999/1" value="0" leadInLength="0/1"  />
             </VectorParam>
             <VectorParam id="518"  name="rotation">
              <InterpolatingParam id="519" interp="linr"  time="-9999999/1" value="0" leadInLength="0/1"  />
              <InterpolatingParam id="520" interp="linr"  time="-9999999/1" value="0" leadInLength="0/1"  />
              <InterpolatingParam id="521" interp="linr"  time="-9999999/1" value="0" leadInLength="0/1"  />
             </VectorParam>
             <VectorParam id="522"  name="shear">
              <InterpolatingParam id="523" interp="linr"  time="-9999999/1" value="0" leadInLength="0/1"  />
              <InterpolatingParam id="524" interp="linr"  time="-9999999/1" value="0" leadInLength="0/1"  />
              <InterpolatingParam id="525" interp="linr"  time="-9999999/1" value="0" leadInLength="0/1"  />
             </VectorParam>
             <VectorParam id="526"  name="scale">
              <InterpolatingParam id="527" interp="linr"  time="-9999999/1" value="1" leadInLength="0/1"  />
              <InterpolatingParam id="528" interp="linr"  time="-9999999/1" value="1" leadInLength="0/1"  />
              <InterpolatingParam id="529" interp="linr"  time="-9999999/1" value="1" leadInLength="0/1"  />
             </VectorParam>
             <VectorParam id="530"  name="anchor">
              <InterpolatingParam id="531" interp="linr"  time="0/1" value="0" leadInLength="0/1"  />
              <InterpolatingParam id="532" interp="linr"  time="0/1" value="0" leadInLength="0/1"  />
              <InterpolatingParam id="533" interp="linr"  time="0/1" value="0" leadInLength="0/1"  />
             </VectorParam>
            </Transformer>
            <Parameters>
             <VectorParam id="534"  name="sourceCrop">
              <InterpolatingParam id="535" interp="linr"  time="0/1" value="0" leadInLength="0/1"  />
              <InterpolatingParam id="536" interp="linr"  time="0/1" value="0" leadInLength="0/1"  />
              <InterpolatingParam id="537" interp="linr"  time="0/1" value="0" leadInLength="0/1"  />
              <InterpolatingParam id="538" interp="linr"  time="0/1" value="0" leadInLength="0/1"  />
             </VectorParam>
             <VectorParam id="539"  name="geometryCrop">
              <InterpolatingParam id="540" interp="linr"  time="-9999999/1" value="0" leadInLength="0/1"  />
              <InterpolatingParam id="541" interp="linr"  time="-9999999/1" value="0" leadInLength="0/1"  />
              <InterpolatingParam id="542" interp="linr"  time="-9999999/1" value="0" leadInLength="0/1"  />
              <InterpolatingParam id="543" interp="linr"  time="-9999999/1" value="0" leadInLength="0/1"  />
             </VectorParam>
             <InterpolatingParam id="544" interp="linr"  time="-9999999/1" value="1" leadInLength="0/1"  name="opacity"/>
            </Parameters>
            <Attributes>
             <Attribute id="545" value="" name="ident"/>
            </Attributes>
            <MetaData>
             <entry key="WinSubProjectDisplayName" val=""/>
            </MetaData>
            <ExtraData>
             <Entry key="ZoomPanBin">
              <ZoomPanBin id="546"  >
               <ZoomPanKeyframes>
                <ZoomPanKeyframe id="547" timeRangeEnd="-9999999/1" timeRangeDuration="0/1" interpolaterName=""  />
               </ZoomPanKeyframes>
              </ZoomPanBin>
             </Entry>
            </ExtraData>
           </VMFile>
           <VMFile id="548" start="3078" duration="386" scalar="1/1" mediaStart="7805/1" mediaDuration="386/1" trackNumber="0" src="4" >
            <Transformer>
             <VectorParam id="549"  name="translation">
              <InterpolatingParam id="550" interp="linr"  time="-9999999/1" value="0" leadInLength="0/1"  />
              <InterpolatingParam id="551" interp="linr"  time="-9999999/1" value="0" leadInLength="0/1"  />
              <InterpolatingParam id="552" interp="linr"  time="-9999999/1" value="0" leadInLength="0/1"  />
             </VectorParam>
             <VectorParam id="553"  name="rotation">
              <InterpolatingParam id="554" interp="linr"  time="-9999999/1" value="0" leadInLength="0/1"  />
              <InterpolatingParam id="555" interp="linr"  time="-9999999/1" value="0" leadInLength="0/1"  />
              <InterpolatingParam id="556" interp="linr"  time="-9999999/1" value="0" leadInLength="0/1"  />
             </VectorParam>
             <VectorParam id="557"  name="shear">
              <InterpolatingParam id="558" interp="linr"  time="-9999999/1" value="0" leadInLength="0/1"  />
              <InterpolatingParam id="559" interp="linr"  time="-9999999/1" value="0" leadInLength="0/1"  />
              <InterpolatingParam id="560" interp="linr"  time="-9999999/1" value="0" leadInLength="0/1"  />
             </VectorParam>
             <VectorParam id="561"  name="scale">
              <InterpolatingParam id="562" interp="linr"  time="-9999999/1" value="1" leadInLength="0/1"  />
              <InterpolatingParam id="563" interp="linr"  time="-9999999/1" value="1" leadInLength="0/1"  />
              <InterpolatingParam id="564" interp="linr"  time="-9999999/1" value="1" leadInLength="0/1"  />
             </VectorParam>
             <VectorParam id="565"  name="anchor">
              <InterpolatingParam id="566" interp="linr"  time="0/1" value="0" leadInLength="0/1"  />
              <InterpolatingParam id="567" interp="linr"  time="0/1" value="0" leadInLength="0/1"  />
              <InterpolatingParam id="568" interp="linr"  time="0/1" value="0" leadInLength="0/1"  />
             </VectorParam>
            </Transformer>
            <Parameters>
             <VectorParam id="569"  name="sourceCrop">
              <InterpolatingParam id="570" interp="linr"  time="0/1" value="0" leadInLength="0/1"  />
              <InterpolatingParam id="571" interp="linr"  time="0/1" value="0" leadInLength="0/1"  />
              <InterpolatingParam id="572" interp="linr"  time="0/1" value="0" leadInLength="0/1"  />
              <InterpolatingParam id="573" interp="linr"  time="0/1" value="0" leadInLength="0/1"  />
             </VectorParam>
             <VectorParam id="574"  name="geometryCrop">
              <InterpolatingParam id="575" interp="linr"  time="-9999999/1" value="0" leadInLength="0/1"  />
              <InterpolatingParam id="576" interp="linr"  time="-9999999/1" value="0" leadInLength="0/1"  />
              <InterpolatingParam id="577" interp="linr"  time="-9999999/1" value="0" leadInLength="0/1"  />
              <InterpolatingParam id="578" interp="linr"  time="-9999999/1" value="0" leadInLength="0/1"  />
             </VectorParam>
             <InterpolatingParam id="579" interp="linr"  time="-9999999/1" value="1" leadInLength="0/1"  name="opacity"/>
            </Parameters>
            <Attributes>
             <Attribute id="580" value="" name="ident"/>
            </Attributes>
            <MetaData>
             <entry key="WinSubProjectDisplayName" val=""/>
            </MetaData>
            <ExtraData>
             <Entry key="ZoomPanBin">
              <ZoomPanBin id="581"  >
               <ZoomPanKeyframes>
                <ZoomPanKeyframe id="582" timeRangeEnd="-9999999/1" timeRangeDuration="0/1" interpolaterName=""  />
               </ZoomPanKeyframes>
              </ZoomPanBin>
             </Entry>
            </ExtraData>
           </VMFile>
           <VMFile id="583" start="3464" duration="1007" scalar="1/1" mediaStart="8371/1" mediaDuration="1007/1" trackNumber="0" src="4" >
            <Transformer>
             <VectorParam id="584"  name="translation">
              <InterpolatingParam id="585" interp="linr"  time="-9999999/1" value="0" leadInLength="0/1"  />
              <InterpolatingParam id="586" interp="linr"  time="-9999999/1" value="0" leadInLength="0/1"  />
              <InterpolatingParam id="587" interp="linr"  time="-9999999/1" value="0" leadInLength="0/1"  />
             </VectorParam>
             <VectorParam id="588"  name="rotation">
              <InterpolatingParam id="589" interp="linr"  time="-9999999/1" value="0" leadInLength="0/1"  />
              <InterpolatingParam id="590" interp="linr"  time="-9999999/1" value="0" leadInLength="0/1"  />
              <InterpolatingParam id="591" interp="linr"  time="-9999999/1" value="0" leadInLength="0/1"  />
             </VectorParam>
             <VectorParam id="592"  name="shear">
              <InterpolatingParam id="593" interp="linr"  time="-9999999/1" value="0" leadInLength="0/1"  />
              <InterpolatingParam id="594" interp="linr"  time="-9999999/1" value="0" leadInLength="0/1"  />
              <InterpolatingParam id="595" interp="linr"  time="-9999999/1" value="0" leadInLength="0/1"  />
             </VectorParam>
             <VectorParam id="596"  name="scale">
              <InterpolatingParam id="597" interp="linr"  time="-9999999/1" value="1" leadInLength="0/1"  />
              <InterpolatingParam id="598" interp="linr"  time="-9999999/1" value="1" leadInLength="0/1"  />
              <InterpolatingParam id="599" interp="linr"  time="-9999999/1" value="1" leadInLength="0/1"  />
             </VectorParam>
             <VectorParam id="600"  name="anchor">
              <InterpolatingParam id="601" interp="linr"  time="0/1" value="0" leadInLength="0/1"  />
              <InterpolatingParam id="602" interp="linr"  time="0/1" value="0" leadInLength="0/1"  />
              <InterpolatingParam id="603" interp="linr"  time="0/1" value="0" leadInLength="0/1"  />
             </VectorParam>
            </Transformer>
            <Parameters>
             <VectorParam id="604"  name="sourceCrop">
              <InterpolatingParam id="605" interp="linr"  time="0/1" value="0" leadInLength="0/1"  />
              <InterpolatingParam id="606" interp="linr"  time="0/1" value="0" leadInLength="0/1"  />
              <InterpolatingParam id="607" interp="linr"  time="0/1" value="0" leadInLength="0/1"  />
              <InterpolatingParam id="608" interp="linr"  time="0/1" value="0" leadInLength="0/1"  />
             </VectorParam>
             <VectorParam id="609"  name="geometryCrop">
              <InterpolatingParam id="610" interp="linr"  time="-9999999/1" value="0" leadInLength="0/1"  />
              <InterpolatingParam id="611" interp="linr"  time="-9999999/1" value="0" leadInLength="0/1"  />
              <InterpolatingParam id="612" interp="linr"  time="-9999999/1" value="0" leadInLength="0/1"  />
              <InterpolatingParam id="613" interp="linr"  time="-9999999/1" value="0" leadInLength="0/1"  />
             </VectorParam>
             <InterpolatingParam id="614" interp="linr"  time="-9999999/1" value="1" leadInLength="0/1"  name="opacity"/>
            </Parameters>
            <Attributes>
             <Attribute id="615" value="" name="ident"/>
            </Attributes>
            <MetaData>
             <entry key="WinSubProjectDisplayName" val=""/>
            </MetaData>
            <ExtraData>
             <Entry key="ZoomPanBin">
              <ZoomPanBin id="616"  >
               <ZoomPanKeyframes>
                <ZoomPanKeyframe id="617" timeRangeEnd="-9999999/1" timeRangeDuration="0/1" interpolaterName=""  />
               </ZoomPanKeyframes>
              </ZoomPanBin>
             </Entry>
            </ExtraData>
           </VMFile>
           <VMFile id="618" start="4471" duration="555" scalar="1/1" mediaStart="9516/1" mediaDuration="555/1" trackNumber="0" src="4" >
            <Transformer>
             <VectorParam id="619"  name="translation">
              <InterpolatingParam id="620" interp="linr"  time="-9999999/1" value="0" leadInLength="0/1"  />
              <InterpolatingParam id="621" interp="linr"  time="-9999999/1" value="0" leadInLength="0/1"  />
              <InterpolatingParam id="622" interp="linr"  time="-9999999/1" value="0" leadInLength="0/1"  />
             </VectorParam>
             <VectorParam id="623"  name="rotation">
              <InterpolatingParam id="624" interp="linr"  time="-9999999/1" value="0" leadInLength="0/1"  />
              <InterpolatingParam id="625" interp="linr"  time="-9999999/1" value="0" leadInLength="0/1"  />
              <InterpolatingParam id="626" interp="linr"  time="-9999999/1" value="0" leadInLength="0/1"  />
             </VectorParam>
             <VectorParam id="627"  name="shear">
              <InterpolatingParam id="628" interp="linr"  time="-9999999/1" value="0" leadInLength="0/1"  />
              <InterpolatingParam id="629" interp="linr"  time="-9999999/1" value="0" leadInLength="0/1"  />
              <InterpolatingParam id="630" interp="linr"  time="-9999999/1" value="0" leadInLength="0/1"  />
             </VectorParam>
             <VectorParam id="631"  name="scale">
              <InterpolatingParam id="632" interp="linr"  time="-9999999/1" value="1" leadInLength="0/1"  />
              <InterpolatingParam id="633" interp="linr"  time="-9999999/1" value="1" leadInLength="0/1"  />
              <InterpolatingParam id="634" interp="linr"  time="-9999999/1" value="1" leadInLength="0/1"  />
             </VectorParam>
             <VectorParam id="635"  name="anchor">
              <InterpolatingParam id="636" interp="linr"  time="0/1" value="0" leadInLength="0/1"  />
              <InterpolatingParam id="637" interp="linr"  time="0/1" value="0" leadInLength="0/1"  />
              <InterpolatingParam id="638" interp="linr"  time="0/1" value="0" leadInLength="0/1"  />
             </VectorParam>
            </Transformer>
            <Parameters>
             <VectorParam id="639"  name="sourceCrop">
              <InterpolatingParam id="640" interp="linr"  time="0/1" value="0" leadInLength="0/1"  />
              <InterpolatingParam id="641" interp="linr"  time="0/1" value="0" leadInLength="0/1"  />
              <InterpolatingParam id="642" interp="linr"  time="0/1" value="0" leadInLength="0/1"  />
              <InterpolatingParam id="643" interp="linr"  time="0/1" value="0" leadInLength="0/1"  />
             </VectorParam>
             <VectorParam id="644"  name="geometryCrop">
              <InterpolatingParam id="645" interp="linr"  time="-9999999/1" value="0" leadInLength="0/1"  />
              <InterpolatingParam id="646" interp="linr"  time="-9999999/1" value="0" leadInLength="0/1"  />
              <InterpolatingParam id="647" interp="linr"  time="-9999999/1" value="0" leadInLength="0/1"  />
              <InterpolatingParam id="648" interp="linr"  time="-9999999/1" value="0" leadInLength="0/1"  />
             </VectorParam>
             <InterpolatingParam id="649" interp="linr"  time="-9999999/1" value="1" leadInLength="0/1"  name="opacity"/>
            </Parameters>
            <Attributes>
             <Attribute id="650" value="" name="ident"/>
            </Attributes>
            <MetaData>
             <entry key="WinSubProjectDisplayName" val=""/>
            </MetaData>
            <ExtraData>
             <Entry key="ZoomPanBin">
              <ZoomPanBin id="651"  >
               <ZoomPanKeyframes>
                <ZoomPanKeyframe id="652" timeRangeEnd="-9999999/1" timeRangeDuration="0/1" interpolaterName=""  />
               </ZoomPanKeyframes>
              </ZoomPanBin>
             </Entry>
            </ExtraData>
           </VMFile>
           <VMFile id="653" start="5026" duration="460" scalar="1/1" mediaStart="11597/1" mediaDuration="460/1" trackNumber="0" src="4" >
            <Transformer>
             <VectorParam id="654"  name="translation">
              <InterpolatingParam id="655" interp="linr"  time="-9999999/1" value="0" leadInLength="0/1"  />
              <InterpolatingParam id="656" interp="linr"  time="-9999999/1" value="0" leadInLength="0/1"  />
              <InterpolatingParam id="657" interp="linr"  time="-9999999/1" value="0" leadInLength="0/1"  />
             </VectorParam>
             <VectorParam id="658"  name="rotation">
              <InterpolatingParam id="659" interp="linr"  time="-9999999/1" value="0" leadInLength="0/1"  />
              <InterpolatingParam id="660" interp="linr"  time="-9999999/1" value="0" leadInLength="0/1"  />
              <InterpolatingParam id="661" interp="linr"  time="-9999999/1" value="0" leadInLength="0/1"  />
             </VectorParam>
             <VectorParam id="662"  name="shear">
              <InterpolatingParam id="663" interp="linr"  time="-9999999/1" value="0" leadInLength="0/1"  />
              <InterpolatingParam id="664" interp="linr"  time="-9999999/1" value="0" leadInLength="0/1"  />
              <InterpolatingParam id="665" interp="linr"  time="-9999999/1" value="0" leadInLength="0/1"  />
             </VectorParam>
             <VectorParam id="666"  name="scale">
              <InterpolatingParam id="667" interp="linr"  time="-9999999/1" value="1" leadInLength="0/1"  />
              <InterpolatingParam id="668" interp="linr"  time="-9999999/1" value="1" leadInLength="0/1"  />
              <InterpolatingParam id="669" interp="linr"  time="-9999999/1" value="1" leadInLength="0/1"  />
             </VectorParam>
             <VectorParam id="670"  name="anchor">
              <InterpolatingParam id="671" interp="linr"  time="0/1" value="0" leadInLength="0/1"  />
              <InterpolatingParam id="672" interp="linr"  time="0/1" value="0" leadInLength="0/1"  />
              <InterpolatingParam id="673" interp="linr"  time="0/1" value="0" leadInLength="0/1"  />
             </VectorParam>
            </Transformer>
            <Parameters>
             <VectorParam id="674"  name="sourceCrop">
              <InterpolatingParam id="675" interp="linr"  time="0/1" value="0" leadInLength="0/1"  />
              <InterpolatingParam id="676" interp="linr"  time="0/1" value="0" leadInLength="0/1"  />
              <InterpolatingParam id="677" interp="linr"  time="0/1" value="0" leadInLength="0/1"  />
              <InterpolatingParam id="678" interp="linr"  time="0/1" value="0" leadInLength="0/1"  />
             </VectorParam>
             <VectorParam id="679"  name="geometryCrop">
              <InterpolatingParam id="680" interp="linr"  time="-9999999/1" value="0" leadInLength="0/1"  />
              <InterpolatingParam id="681" interp="linr"  time="-9999999/1" value="0" leadInLength="0/1"  />
              <InterpolatingParam id="682" interp="linr"  time="-9999999/1" value="0" leadInLength="0/1"  />
              <InterpolatingParam id="683" interp="linr"  time="-9999999/1" value="0" leadInLength="0/1"  />
             </VectorParam>
             <InterpolatingParam id="684" interp="linr"  time="-9999999/1" value="1" leadInLength="0/1"  name="opacity"/>
            </Parameters>
            <Attributes>
             <Attribute id="685" value="" name="ident"/>
            </Attributes>
            <MetaData>
             <entry key="WinSubProjectDisplayName" val=""/>
            </MetaData>
            <ExtraData>
             <Entry key="ZoomPanBin">
              <ZoomPanBin id="686"  >
               <ZoomPanKeyframes>
                <ZoomPanKeyframe id="687" timeRangeEnd="-9999999/1" timeRangeDuration="0/1" interpolaterName=""  />
               </ZoomPanKeyframes>
              </ZoomPanBin>
             </Entry>
            </ExtraData>
           </VMFile>
           <VMFile id="688" start="5486" duration="350" scalar="1/1" mediaStart="12237/1" mediaDuration="350/1" trackNumber="0" src="4" >
            <Transformer>
             <VectorParam id="689"  name="translation">
              <InterpolatingParam id="690" interp="linr"  time="-9999999/1" value="0" leadInLength="0/1"  />
              <InterpolatingParam id="691" interp="linr"  time="-9999999/1" value="0" leadInLength="0/1"  />
              <InterpolatingParam id="692" interp="linr"  time="-9999999/1" value="0" leadInLength="0/1"  />
             </VectorParam>
             <VectorParam id="693"  name="rotation">
              <InterpolatingParam id="694" interp="linr"  time="-9999999/1" value="0" leadInLength="0/1"  />
              <InterpolatingParam id="695" interp="linr"  time="-9999999/1" value="0" leadInLength="0/1"  />
              <InterpolatingParam id="696" interp="linr"  time="-9999999/1" value="0" leadInLength="0/1"  />
             </VectorParam>
             <VectorParam id="697"  name="shear">
              <InterpolatingParam id="698" interp="linr"  time="-9999999/1" value="0" leadInLength="0/1"  />
              <InterpolatingParam id="699" interp="linr"  time="-9999999/1" value="0" leadInLength="0/1"  />
              <InterpolatingParam id="700" interp="linr"  time="-9999999/1" value="0" leadInLength="0/1"  />
             </VectorParam>
             <VectorParam id="701"  name="scale">
              <InterpolatingParam id="702" interp="linr"  time="-9999999/1" value="1" leadInLength="0/1"  />
              <InterpolatingParam id="703" interp="linr"  time="-9999999/1" value="1" leadInLength="0/1"  />
              <InterpolatingParam id="704" interp="linr"  time="-9999999/1" value="1" leadInLength="0/1"  />
             </VectorParam>
             <VectorParam id="705"  name="anchor">
              <InterpolatingParam id="706" interp="linr"  time="0/1" value="0" leadInLength="0/1"  />
              <InterpolatingParam id="707" interp="linr"  time="0/1" value="0" leadInLength="0/1"  />
              <InterpolatingParam id="708" interp="linr"  time="0/1" value="0" leadInLength="0/1"  />
             </VectorParam>
            </Transformer>
            <Parameters>
             <VectorParam id="709"  name="sourceCrop">
              <InterpolatingParam id="710" interp="linr"  time="0/1" value="0" leadInLength="0/1"  />
              <InterpolatingParam id="711" interp="linr"  time="0/1" value="0" leadInLength="0/1"  />
              <InterpolatingParam id="712" interp="linr"  time="0/1" value="0" leadInLength="0/1"  />
              <InterpolatingParam id="713" interp="linr"  time="0/1" value="0" leadInLength="0/1"  />
             </VectorParam>
             <VectorParam id="714"  name="geometryCrop">
              <InterpolatingParam id="715" interp="linr"  time="-9999999/1" value="0" leadInLength="0/1"  />
              <InterpolatingParam id="716" interp="linr"  time="-9999999/1" value="0" leadInLength="0/1"  />
              <InterpolatingParam id="717" interp="linr"  time="-9999999/1" value="0" leadInLength="0/1"  />
              <InterpolatingParam id="718" interp="linr"  time="-9999999/1" value="0" leadInLength="0/1"  />
             </VectorParam>
             <InterpolatingParam id="719" interp="linr"  time="-9999999/1" value="1" leadInLength="0/1"  name="opacity"/>
            </Parameters>
            <Attributes>
             <Attribute id="720" value="" name="ident"/>
            </Attributes>
            <MetaData>
             <entry key="WinSubProjectDisplayName" val=""/>
            </MetaData>
            <ExtraData>
             <Entry key="ZoomPanBin">
              <ZoomPanBin id="721"  >
               <ZoomPanKeyframes>
                <ZoomPanKeyframe id="722" timeRangeEnd="-9999999/1" timeRangeDuration="0/1" interpolaterName=""  />
               </ZoomPanKeyframes>
              </ZoomPanBin>
             </Entry>
            </ExtraData>
           </VMFile>
           <VMFile id="723" start="5836" duration="128" scalar="1/1" mediaStart="15765/1" mediaDuration="128/1" trackNumber="0" src="4" >
            <Transformer>
             <VectorParam id="724"  name="translation">
              <InterpolatingParam id="725" interp="linr"  time="-9999999/1" value="0" leadInLength="0/1"  />
              <InterpolatingParam id="726" interp="linr"  time="-9999999/1" value="0" leadInLength="0/1"  />
              <InterpolatingParam id="727" interp="linr"  time="-9999999/1" value="0" leadInLength="0/1"  />
             </VectorParam>
             <VectorParam id="728"  name="rotation">
              <InterpolatingParam id="729" interp="linr"  time="-9999999/1" value="0" leadInLength="0/1"  />
              <InterpolatingParam id="730" interp="linr"  time="-9999999/1" value="0" leadInLength="0/1"  />
              <InterpolatingParam id="731" interp="linr"  time="-9999999/1" value="0" leadInLength="0/1"  />
             </VectorParam>
             <VectorParam id="732"  name="shear">
              <InterpolatingParam id="733" interp="linr"  time="-9999999/1" value="0" leadInLength="0/1"  />
              <InterpolatingParam id="734" interp="linr"  time="-9999999/1" value="0" leadInLength="0/1"  />
              <InterpolatingParam id="735" interp="linr"  time="-9999999/1" value="0" leadInLength="0/1"  />
             </VectorParam>
             <VectorParam id="736"  name="scale">
              <InterpolatingParam id="737" interp="linr"  time="-9999999/1" value="1" leadInLength="0/1"  />
              <InterpolatingParam id="738" interp="linr"  time="-9999999/1" value="1" leadInLength="0/1"  />
              <InterpolatingParam id="739" interp="linr"  time="-9999999/1" value="1" leadInLength="0/1"  />
             </VectorParam>
             <VectorParam id="740"  name="anchor">
              <InterpolatingParam id="741" interp="linr"  time="0/1" value="0" leadInLength="0/1"  />
              <InterpolatingParam id="742" interp="linr"  time="0/1" value="0" leadInLength="0/1"  />
              <InterpolatingParam id="743" interp="linr"  time="0/1" value="0" leadInLength="0/1"  />
             </VectorParam>
            </Transformer>
            <Parameters>
             <VectorParam id="744"  name="sourceCrop">
              <InterpolatingParam id="745" interp="linr"  time="0/1" value="0" leadInLength="0/1"  />
              <InterpolatingParam id="746" interp="linr"  time="0/1" value="0" leadInLength="0/1"  />
              <InterpolatingParam id="747" interp="linr"  time="0/1" value="0" leadInLength="0/1"  />
              <InterpolatingParam id="748" interp="linr"  time="0/1" value="0" leadInLength="0/1"  />
             </VectorParam>
             <VectorParam id="749"  name="geometryCrop">
              <InterpolatingParam id="750" interp="linr"  time="-9999999/1" value="0" leadInLength="0/1"  />
              <InterpolatingParam id="751" interp="linr"  time="-9999999/1" value="0" leadInLength="0/1"  />
              <InterpolatingParam id="752" interp="linr"  time="-9999999/1" value="0" leadInLength="0/1"  />
              <InterpolatingParam id="753" interp="linr"  time="-9999999/1" value="0" leadInLength="0/1"  />
             </VectorParam>
             <InterpolatingParam id="754" interp="linr"  time="-9999999/1" value="1" leadInLength="0/1"  name="opacity"/>
            </Parameters>
            <Attributes>
             <Attribute id="755" value="" name="ident"/>
            </Attributes>
            <MetaData>
             <entry key="WinSubProjectDisplayName" val=""/>
            </MetaData>
            <ExtraData>
             <Entry key="ZoomPanBin">
              <ZoomPanBin id="756"  >
               <ZoomPanKeyframes>
                <ZoomPanKeyframe id="757" timeRangeEnd="-9999999/1" timeRangeDuration="0/1" interpolaterName=""  />
               </ZoomPanKeyframes>
              </ZoomPanBin>
             </Entry>
            </ExtraData>
           </VMFile>
           <VMFile id="758" start="5964" duration="615" scalar="1/1" mediaStart="15918/1" mediaDuration="615/1" trackNumber="0" src="4" >
            <Transformer>
             <VectorParam id="759"  name="translation">
              <InterpolatingParam id="760" interp="linr"  time="-9999999/1" value="0" leadInLength="0/1"  />
              <InterpolatingParam id="761" interp="linr"  time="-9999999/1" value="0" leadInLength="0/1"  />
              <InterpolatingParam id="762" interp="linr"  time="-9999999/1" value="0" leadInLength="0/1"  />
             </VectorParam>
             <VectorParam id="763"  name="rotation">
              <InterpolatingParam id="764" interp="linr"  time="-9999999/1" value="0" leadInLength="0/1"  />
              <InterpolatingParam id="765" interp="linr"  time="-9999999/1" value="0" leadInLength="0/1"  />
              <InterpolatingParam id="766" interp="linr"  time="-9999999/1" value="0" leadInLength="0/1"  />
             </VectorParam>
             <VectorParam id="767"  name="shear">
              <InterpolatingParam id="768" interp="linr"  time="-9999999/1" value="0" leadInLength="0/1"  />
              <InterpolatingParam id="769" interp="linr"  time="-9999999/1" value="0" leadInLength="0/1"  />
              <InterpolatingParam id="770" interp="linr"  time="-9999999/1" value="0" leadInLength="0/1"  />
             </VectorParam>
             <VectorParam id="771"  name="scale">
              <InterpolatingParam id="772" interp="linr"  time="-9999999/1" value="1" leadInLength="0/1"  />
              <InterpolatingParam id="773" interp="linr"  time="-9999999/1" value="1" leadInLength="0/1"  />
              <InterpolatingParam id="774" interp="linr"  time="-9999999/1" value="1" leadInLength="0/1"  />
             </VectorParam>
             <VectorParam id="775"  name="anchor">
              <InterpolatingParam id="776" interp="linr"  time="0/1" value="0" leadInLength="0/1"  />
              <InterpolatingParam id="777" interp="linr"  time="0/1" value="0" leadInLength="0/1"  />
              <InterpolatingParam id="778" interp="linr"  time="0/1" value="0" leadInLength="0/1"  />
             </VectorParam>
            </Transformer>
            <Parameters>
             <VectorParam id="779"  name="sourceCrop">
              <InterpolatingParam id="780" interp="linr"  time="0/1" value="0" leadInLength="0/1"  />
              <InterpolatingParam id="781" interp="linr"  time="0/1" value="0" leadInLength="0/1"  />
              <InterpolatingParam id="782" interp="linr"  time="0/1" value="0" leadInLength="0/1"  />
              <InterpolatingParam id="783" interp="linr"  time="0/1" value="0" leadInLength="0/1"  />
             </VectorParam>
             <VectorParam id="784"  name="geometryCrop">
              <InterpolatingParam id="785" interp="linr"  time="-9999999/1" value="0" leadInLength="0/1"  />
              <InterpolatingParam id="786" interp="linr"  time="-9999999/1" value="0" leadInLength="0/1"  />
              <InterpolatingParam id="787" interp="linr"  time="-9999999/1" value="0" leadInLength="0/1"  />
              <InterpolatingParam id="788" interp="linr"  time="-9999999/1" value="0" leadInLength="0/1"  />
             </VectorParam>
             <InterpolatingParam id="789" interp="linr"  time="-9999999/1" value="1" leadInLength="0/1"  name="opacity"/>
            </Parameters>
            <Attributes>
             <Attribute id="790" value="" name="ident"/>
            </Attributes>
            <MetaData>
             <entry key="WinSubProjectDisplayName" val=""/>
            </MetaData>
            <ExtraData>
             <Entry key="ZoomPanBin">
              <ZoomPanBin id="791"  >
               <ZoomPanKeyframes>
                <ZoomPanKeyframe id="792" timeRangeEnd="-9999999/1" timeRangeDuration="0/1" interpolaterName=""  />
               </ZoomPanKeyframes>
              </ZoomPanBin>
             </Entry>
            </ExtraData>
           </VMFile>
           <VMFile id="793" start="6579" duration="323" scalar="1/1" mediaStart="16694/1" mediaDuration="323/1" trackNumber="0" src="4" >
            <Transformer>
             <VectorParam id="794"  name="translation">
              <InterpolatingParam id="795" interp="linr"  time="-9999999/1" value="0" leadInLength="0/1"  />
              <InterpolatingParam id="796" interp="linr"  time="-9999999/1" value="0" leadInLength="0/1"  />
              <InterpolatingParam id="797" interp="linr"  time="-9999999/1" value="0" leadInLength="0/1"  />
             </VectorParam>
             <VectorParam id="798"  name="rotation">
              <InterpolatingParam id="799" interp="linr"  time="-9999999/1" value="0" leadInLength="0/1"  />
              <InterpolatingParam id="800" interp="linr"  time="-9999999/1" value="0" leadInLength="0/1"  />
              <InterpolatingParam id="801" interp="linr"  time="-9999999/1" value="0" leadInLength="0/1"  />
             </VectorParam>
             <VectorParam id="802"  name="shear">
              <InterpolatingParam id="803" interp="linr"  time="-9999999/1" value="0" leadInLength="0/1"  />
              <InterpolatingParam id="804" interp="linr"  time="-9999999/1" value="0" leadInLength="0/1"  />
              <InterpolatingParam id="805" interp="linr"  time="-9999999/1" value="0" leadInLength="0/1"  />
             </VectorParam>
             <VectorParam id="806"  name="scale">
              <InterpolatingParam id="807" interp="linr"  time="-9999999/1" value="1" leadInLength="0/1"  />
              <InterpolatingParam id="808" interp="linr"  time="-9999999/1" value="1" leadInLength="0/1"  />
              <InterpolatingParam id="809" interp="linr"  time="-9999999/1" value="1" leadInLength="0/1"  />
             </VectorParam>
             <VectorParam id="810"  name="anchor">
              <InterpolatingParam id="811" interp="linr"  time="0/1" value="0" leadInLength="0/1"  />
              <InterpolatingParam id="812" interp="linr"  time="0/1" value="0" leadInLength="0/1"  />
              <InterpolatingParam id="813" interp="linr"  time="0/1" value="0" leadInLength="0/1"  />
             </VectorParam>
            </Transformer>
            <Parameters>
             <VectorParam id="814"  name="sourceCrop">
              <InterpolatingParam id="815" interp="linr"  time="0/1" value="0" leadInLength="0/1"  />
              <InterpolatingParam id="816" interp="linr"  time="0/1" value="0" leadInLength="0/1"  />
              <InterpolatingParam id="817" interp="linr"  time="0/1" value="0" leadInLength="0/1"  />
              <InterpolatingParam id="818" interp="linr"  time="0/1" value="0" leadInLength="0/1"  />
             </VectorParam>
             <VectorParam id="819"  name="geometryCrop">
              <InterpolatingParam id="820" interp="linr"  time="-9999999/1" value="0" leadInLength="0/1"  />
              <InterpolatingParam id="821" interp="linr"  time="-9999999/1" value="0" leadInLength="0/1"  />
              <InterpolatingParam id="822" interp="linr"  time="-9999999/1" value="0" leadInLength="0/1"  />
              <InterpolatingParam id="823" interp="linr"  time="-9999999/1" value="0" leadInLength="0/1"  />
             </VectorParam>
             <InterpolatingParam id="824" interp="linr"  time="-9999999/1" value="1" leadInLength="0/1"  name="opacity"/>
            </Parameters>
            <Attributes>
             <Attribute id="825" value="" name="ident"/>
            </Attributes>
            <MetaData>
             <entry key="WinSubProjectDisplayName" val=""/>
            </MetaData>
            <ExtraData>
             <Entry key="ZoomPanBin">
              <ZoomPanBin id="826"  >
               <ZoomPanKeyframes>
                <ZoomPanKeyframe id="827" timeRangeEnd="-9999999/1" timeRangeDuration="0/1" interpolaterName=""  />
               </ZoomPanKeyframes>
              </ZoomPanBin>
             </Entry>
            </ExtraData>
           </VMFile>
           <VMFile id="828" start="6902" duration="223" scalar="1/1" mediaStart="17164/1" mediaDuration="223/1" trackNumber="0" src="4" >
            <Transformer>
             <VectorParam id="829"  name="translation">
              <InterpolatingParam id="830" interp="linr"  time="-9999999/1" value="0" leadInLength="0/1"  />
              <InterpolatingParam id="831" interp="linr"  time="-9999999/1" value="0" leadInLength="0/1"  />
              <InterpolatingParam id="832" interp="linr"  time="-9999999/1" value="0" leadInLength="0/1"  />
             </VectorParam>
             <VectorParam id="833"  name="rotation">
              <InterpolatingParam id="834" interp="linr"  time="-9999999/1" value="0" leadInLength="0/1"  />
              <InterpolatingParam id="835" interp="linr"  time="-9999999/1" value="0" leadInLength="0/1"  />
              <InterpolatingParam id="836" interp="linr"  time="-9999999/1" value="0" leadInLength="0/1"  />
             </VectorParam>
             <VectorParam id="837"  name="shear">
              <InterpolatingParam id="838" interp="linr"  time="-9999999/1" value="0" leadInLength="0/1"  />
              <InterpolatingParam id="839" interp="linr"  time="-9999999/1" value="0" leadInLength="0/1"  />
              <InterpolatingParam id="840" interp="linr"  time="-9999999/1" value="0" leadInLength="0/1"  />
             </VectorParam>
             <VectorParam id="841"  name="scale">
              <InterpolatingParam id="842" interp="linr"  time="-9999999/1" value="1" leadInLength="0/1"  />
              <InterpolatingParam id="843" interp="linr"  time="-9999999/1" value="1" leadInLength="0/1"  />
              <InterpolatingParam id="844" interp="linr"  time="-9999999/1" value="1" leadInLength="0/1"  />
             </VectorParam>
             <VectorParam id="845"  name="anchor">
              <InterpolatingParam id="846" interp="linr"  time="0/1" value="0" leadInLength="0/1"  />
              <InterpolatingParam id="847" interp="linr"  time="0/1" value="0" leadInLength="0/1"  />
              <InterpolatingParam id="848" interp="linr"  time="0/1" value="0" leadInLength="0/1"  />
             </VectorParam>
            </Transformer>
            <Parameters>
             <VectorParam id="849"  name="sourceCrop">
              <InterpolatingParam id="850" interp="linr"  time="0/1" value="0" leadInLength="0/1"  />
              <InterpolatingParam id="851" interp="linr"  time="0/1" value="0" leadInLength="0/1"  />
              <InterpolatingParam id="852" interp="linr"  time="0/1" value="0" leadInLength="0/1"  />
              <InterpolatingParam id="853" interp="linr"  time="0/1" value="0" leadInLength="0/1"  />
             </VectorParam>
             <VectorParam id="854"  name="geometryCrop">
              <InterpolatingParam id="855" interp="linr"  time="-9999999/1" value="0" leadInLength="0/1"  />
              <InterpolatingParam id="856" interp="linr"  time="-9999999/1" value="0" leadInLength="0/1"  />
              <InterpolatingParam id="857" interp="linr"  time="-9999999/1" value="0" leadInLength="0/1"  />
              <InterpolatingParam id="858" interp="linr"  time="-9999999/1" value="0" leadInLength="0/1"  />
             </VectorParam>
             <InterpolatingParam id="859" interp="linr"  time="-9999999/1" value="1" leadInLength="0/1"  name="opacity"/>
            </Parameters>
            <Attributes>
             <Attribute id="860" value="" name="ident"/>
            </Attributes>
            <MetaData>
             <entry key="WinSubProjectDisplayName" val=""/>
            </MetaData>
            <ExtraData>
             <Entry key="ZoomPanBin">
              <ZoomPanBin id="861"  >
               <ZoomPanKeyframes>
                <ZoomPanKeyframe id="862" timeRangeEnd="-9999999/1" timeRangeDuration="0/1" interpolaterName=""  />
               </ZoomPanKeyframes>
              </ZoomPanBin>
             </Entry>
            </ExtraData>
           </VMFile>
           <VMFile id="863" start="7125" duration="323" scalar="1/1" mediaStart="26742/1" mediaDuration="323/1" trackNumber="0" src="4" >
            <Transformer>
             <VectorParam id="864"  name="translation">
              <InterpolatingParam id="865" interp="linr"  time="-9999999/1" value="0" leadInLength="0/1"  />
              <InterpolatingParam id="866" interp="linr"  time="-9999999/1" value="0" leadInLength="0/1"  />
              <InterpolatingParam id="867" interp="linr"  time="-9999999/1" value="0" leadInLength="0/1"  />
             </VectorParam>
             <VectorParam id="868"  name="rotation">
              <InterpolatingParam id="869" interp="linr"  time="-9999999/1" value="0" leadInLength="0/1"  />
              <InterpolatingParam id="870" interp="linr"  time="-9999999/1" value="0" leadInLength="0/1"  />
              <InterpolatingParam id="871" interp="linr"  time="-9999999/1" value="0" leadInLength="0/1"  />
             </VectorParam>
             <VectorParam id="872"  name="shear">
              <InterpolatingParam id="873" interp="linr"  time="-9999999/1" value="0" leadInLength="0/1"  />
              <InterpolatingParam id="874" interp="linr"  time="-9999999/1" value="0" leadInLength="0/1"  />
              <InterpolatingParam id="875" interp="linr"  time="-9999999/1" value="0" leadInLength="0/1"  />
             </VectorParam>
             <VectorParam id="876"  name="scale">
              <InterpolatingParam id="877" interp="linr"  time="-9999999/1" value="1" leadInLength="0/1"  />
              <InterpolatingParam id="878" interp="linr"  time="-9999999/1" value="1" leadInLength="0/1"  />
              <InterpolatingParam id="879" interp="linr"  time="-9999999/1" value="1" leadInLength="0/1"  />
             </VectorParam>
             <VectorParam id="880"  name="anchor">
              <InterpolatingParam id="881" interp="linr"  time="0/1" value="0" leadInLength="0/1"  />
              <InterpolatingParam id="882" interp="linr"  time="0/1" value="0" leadInLength="0/1"  />
              <InterpolatingParam id="883" interp="linr"  time="0/1" value="0" leadInLength="0/1"  />
             </VectorParam>
            </Transformer>
            <Parameters>
             <VectorParam id="884"  name="sourceCrop">
              <InterpolatingParam id="885" interp="linr"  time="0/1" value="0" leadInLength="0/1"  />
              <InterpolatingParam id="886" interp="linr"  time="0/1" value="0" leadInLength="0/1"  />
              <InterpolatingParam id="887" interp="linr"  time="0/1" value="0" leadInLength="0/1"  />
              <InterpolatingParam id="888" interp="linr"  time="0/1" value="0" leadInLength="0/1"  />
             </VectorParam>
             <VectorParam id="889"  name="geometryCrop">
              <InterpolatingParam id="890" interp="linr"  time="-9999999/1" value="0" leadInLength="0/1"  />
              <InterpolatingParam id="891" interp="linr"  time="-9999999/1" value="0" leadInLength="0/1"  />
              <InterpolatingParam id="892" interp="linr"  time="-9999999/1" value="0" leadInLength="0/1"  />
              <InterpolatingParam id="893" interp="linr"  time="-9999999/1" value="0" leadInLength="0/1"  />
             </VectorParam>
             <InterpolatingParam id="894" interp="linr"  time="-9999999/1" value="1" leadInLength="0/1"  name="opacity"/>
            </Parameters>
            <Attributes>
             <Attribute id="895" value="" name="ident"/>
            </Attributes>
            <MetaData>
             <entry key="WinSubProjectDisplayName" val=""/>
            </MetaData>
            <ExtraData>
             <Entry key="ZoomPanBin">
              <ZoomPanBin id="896"  >
               <ZoomPanKeyframes>
                <ZoomPanKeyframe id="897" timeRangeEnd="-9999999/1" timeRangeDuration="0/1" interpolaterName=""  />
               </ZoomPanKeyframes>
              </ZoomPanBin>
             </Entry>
            </ExtraData>
           </VMFile>
           <VMFile id="898" start="7448" duration="259" scalar="1/1" mediaStart="27825/1" mediaDuration="259/1" trackNumber="0" src="4" >
            <Transformer>
             <VectorParam id="899"  name="translation">
              <InterpolatingParam id="900" interp="linr"  time="-9999999/1" value="0" leadInLength="0/1"  />
              <InterpolatingParam id="901" interp="linr"  time="-9999999/1" value="0" leadInLength="0/1"  />
              <InterpolatingParam id="902" interp="linr"  time="-9999999/1" value="0" leadInLength="0/1"  />
             </VectorParam>
             <VectorParam id="903"  name="rotation">
              <InterpolatingParam id="904" interp="linr"  time="-9999999/1" value="0" leadInLength="0/1"  />
              <InterpolatingParam id="905" interp="linr"  time="-9999999/1" value="0" leadInLength="0/1"  />
              <InterpolatingParam id="906" interp="linr"  time="-9999999/1" value="0" leadInLength="0/1"  />
             </VectorParam>
             <VectorParam id="907"  name="shear">
              <InterpolatingParam id="908" interp="linr"  time="-9999999/1" value="0" leadInLength="0/1"  />
              <InterpolatingParam id="909" interp="linr"  time="-9999999/1" value="0" leadInLength="0/1"  />
              <InterpolatingParam id="910" interp="linr"  time="-9999999/1" value="0" leadInLength="0/1"  />
             </VectorParam>
             <VectorParam id="911"  name="scale">
              <InterpolatingParam id="912" interp="linr"  time="-9999999/1" value="1" leadInLength="0/1"  />
              <InterpolatingParam id="913" interp="linr"  time="-9999999/1" value="1" leadInLength="0/1"  />
              <InterpolatingParam id="914" interp="linr"  time="-9999999/1" value="1" leadInLength="0/1"  />
             </VectorParam>
             <VectorParam id="915"  name="anchor">
              <InterpolatingParam id="916" interp="linr"  time="0/1" value="0" leadInLength="0/1"  />
              <InterpolatingParam id="917" interp="linr"  time="0/1" value="0" leadInLength="0/1"  />
              <InterpolatingParam id="918" interp="linr"  time="0/1" value="0" leadInLength="0/1"  />
             </VectorParam>
            </Transformer>
            <Parameters>
             <VectorParam id="919"  name="sourceCrop">
              <InterpolatingParam id="920" interp="linr"  time="0/1" value="0" leadInLength="0/1"  />
              <InterpolatingParam id="921" interp="linr"  time="0/1" value="0" leadInLength="0/1"  />
              <InterpolatingParam id="922" interp="linr"  time="0/1" value="0" leadInLength="0/1"  />
              <InterpolatingParam id="923" interp="linr"  time="0/1" value="0" leadInLength="0/1"  />
             </VectorParam>
             <VectorParam id="924"  name="geometryCrop">
              <InterpolatingParam id="925" interp="linr"  time="-9999999/1" value="0" leadInLength="0/1"  />
              <InterpolatingParam id="926" interp="linr"  time="-9999999/1" value="0" leadInLength="0/1"  />
              <InterpolatingParam id="927" interp="linr"  time="-9999999/1" value="0" leadInLength="0/1"  />
              <InterpolatingParam id="928" interp="linr"  time="-9999999/1" value="0" leadInLength="0/1"  />
             </VectorParam>
             <InterpolatingParam id="929" interp="linr"  time="-9999999/1" value="1" leadInLength="0/1"  name="opacity"/>
            </Parameters>
            <Attributes>
             <Attribute id="930" value="" name="ident"/>
            </Attributes>
            <MetaData>
             <entry key="WinSubProjectDisplayName" val=""/>
            </MetaData>
            <ExtraData>
             <Entry key="ZoomPanBin">
              <ZoomPanBin id="931"  >
               <ZoomPanKeyframes>
                <ZoomPanKeyframe id="932" timeRangeEnd="-9999999/1" timeRangeDuration="0/1" interpolaterName=""  />
               </ZoomPanKeyframes>
              </ZoomPanBin>
             </Entry>
            </ExtraData>
           </VMFile>
           <VMFile id="933" start="7707" duration="157" scalar="1/1" mediaStart="28287/1" mediaDuration="157/1" trackNumber="0" src="4" >
            <Transformer>
             <VectorParam id="934"  name="translation">
              <InterpolatingParam id="935" interp="linr"  time="-9999999/1" value="0" leadInLength="0/1"  />
              <InterpolatingParam id="936" interp="linr"  time="-9999999/1" value="0" leadInLength="0/1"  />
              <InterpolatingParam id="937" interp="linr"  time="-9999999/1" value="0" leadInLength="0/1"  />
             </VectorParam>
             <VectorParam id="938"  name="rotation">
              <InterpolatingParam id="939" interp="linr"  time="-9999999/1" value="0" leadInLength="0/1"  />
              <InterpolatingParam id="940" interp="linr"  time="-9999999/1" value="0" leadInLength="0/1"  />
              <InterpolatingParam id="941" interp="linr"  time="-9999999/1" value="0" leadInLength="0/1"  />
             </VectorParam>
             <VectorParam id="942"  name="shear">
              <InterpolatingParam id="943" interp="linr"  time="-9999999/1" value="0" leadInLength="0/1"  />
              <InterpolatingParam id="944" interp="linr"  time="-9999999/1" value="0" leadInLength="0/1"  />
              <InterpolatingParam id="945" interp="linr"  time="-9999999/1" value="0" leadInLength="0/1"  />
             </VectorParam>
             <VectorParam id="946"  name="scale">
              <InterpolatingParam id="947" interp="linr"  time="-9999999/1" value="1" leadInLength="0/1"  />
              <InterpolatingParam id="948" interp="linr"  time="-9999999/1" value="1" leadInLength="0/1"  />
              <InterpolatingParam id="949" interp="linr"  time="-9999999/1" value="1" leadInLength="0/1"  />
             </VectorParam>
             <VectorParam id="950"  name="anchor">
              <InterpolatingParam id="951" interp="linr"  time="0/1" value="0" leadInLength="0/1"  />
              <InterpolatingParam id="952" interp="linr"  time="0/1" value="0" leadInLength="0/1"  />
              <InterpolatingParam id="953" interp="linr"  time="0/1" value="0" leadInLength="0/1"  />
             </VectorParam>
            </Transformer>
            <Parameters>
             <VectorParam id="954"  name="sourceCrop">
              <InterpolatingParam id="955" interp="linr"  time="0/1" value="0" leadInLength="0/1"  />
              <InterpolatingParam id="956" interp="linr"  time="0/1" value="0" leadInLength="0/1"  />
              <InterpolatingParam id="957" interp="linr"  time="0/1" value="0" leadInLength="0/1"  />
              <InterpolatingParam id="958" interp="linr"  time="0/1" value="0" leadInLength="0/1"  />
             </VectorParam>
             <VectorParam id="959"  name="geometryCrop">
              <InterpolatingParam id="960" interp="linr"  time="-9999999/1" value="0" leadInLength="0/1"  />
              <InterpolatingParam id="961" interp="linr"  time="-9999999/1" value="0" leadInLength="0/1"  />
              <InterpolatingParam id="962" interp="linr"  time="-9999999/1" value="0" leadInLength="0/1"  />
              <InterpolatingParam id="963" interp="linr"  time="-9999999/1" value="0" leadInLength="0/1"  />
             </VectorParam>
             <InterpolatingParam id="964" interp="linr"  time="-9999999/1" value="1" leadInLength="0/1"  name="opacity"/>
            </Parameters>
            <Attributes>
             <Attribute id="965" value="" name="ident"/>
            </Attributes>
            <MetaData>
             <entry key="WinSubProjectDisplayName" val=""/>
            </MetaData>
            <ExtraData>
             <Entry key="ZoomPanBin">
              <ZoomPanBin id="966"  >
               <ZoomPanKeyframes>
                <ZoomPanKeyframe id="967" timeRangeEnd="-9999999/1" timeRangeDuration="0/1" interpolaterName=""  />
               </ZoomPanKeyframes>
              </ZoomPanBin>
             </Entry>
            </ExtraData>
           </VMFile>
           <VMFile id="968" start="7864" duration="290" scalar="1/1" mediaStart="28689/1" mediaDuration="290/1" trackNumber="0" src="4" >
            <Transformer>
             <VectorParam id="969"  name="translation">
              <InterpolatingParam id="970" interp="linr"  time="-9999999/1" value="0" leadInLength="0/1"  />
              <InterpolatingParam id="971" interp="linr"  time="-9999999/1" value="0" leadInLength="0/1"  />
              <InterpolatingParam id="972" interp="linr"  time="-9999999/1" value="0" leadInLength="0/1"  />
             </VectorParam>
             <VectorParam id="973"  name="rotation">
              <InterpolatingParam id="974" interp="linr"  time="-9999999/1" value="0" leadInLength="0/1"  />
              <InterpolatingParam id="975" interp="linr"  time="-9999999/1" value="0" leadInLength="0/1"  />
              <InterpolatingParam id="976" interp="linr"  time="-9999999/1" value="0" leadInLength="0/1"  />
             </VectorParam>
             <VectorParam id="977"  name="shear">
              <InterpolatingParam id="978" interp="linr"  time="-9999999/1" value="0" leadInLength="0/1"  />
              <InterpolatingParam id="979" interp="linr"  time="-9999999/1" value="0" leadInLength="0/1"  />
              <InterpolatingParam id="980" interp="linr"  time="-9999999/1" value="0" leadInLength="0/1"  />
             </VectorParam>
             <VectorParam id="981"  name="scale">
              <InterpolatingParam id="982" interp="linr"  time="-9999999/1" value="1" leadInLength="0/1"  />
              <InterpolatingParam id="983" interp="linr"  time="-9999999/1" value="1" leadInLength="0/1"  />
              <InterpolatingParam id="984" interp="linr"  time="-9999999/1" value="1" leadInLength="0/1"  />
             </VectorParam>
             <VectorParam id="985"  name="anchor">
              <InterpolatingParam id="986" interp="linr"  time="0/1" value="0" leadInLength="0/1"  />
              <InterpolatingParam id="987" interp="linr"  time="0/1" value="0" leadInLength="0/1"  />
              <InterpolatingParam id="988" interp="linr"  time="0/1" value="0" leadInLength="0/1"  />
             </VectorParam>
            </Transformer>
            <Parameters>
             <VectorParam id="989"  name="sourceCrop">
              <InterpolatingParam id="990" interp="linr"  time="0/1" value="0" leadInLength="0/1"  />
              <InterpolatingParam id="991" interp="linr"  time="0/1" value="0" leadInLength="0/1"  />
              <InterpolatingParam id="992" interp="linr"  time="0/1" value="0" leadInLength="0/1"  />
              <InterpolatingParam id="993" interp="linr"  time="0/1" value="0" leadInLength="0/1"  />
             </VectorParam>
             <VectorParam id="994"  name="geometryCrop">
              <InterpolatingParam id="995" interp="linr"  time="-9999999/1" value="0" leadInLength="0/1"  />
              <InterpolatingParam id="996" interp="linr"  time="-9999999/1" value="0" leadInLength="0/1"  />
              <InterpolatingParam id="997" interp="linr"  time="-9999999/1" value="0" leadInLength="0/1"  />
              <InterpolatingParam id="998" interp="linr"  time="-9999999/1" value="0" leadInLength="0/1"  />
             </VectorParam>
             <InterpolatingParam id="999" interp="linr"  time="-9999999/1" value="1" leadInLength="0/1"  name="opacity"/>
            </Parameters>
            <Attributes>
             <Attribute id="1000" value="" name="ident"/>
            </Attributes>
            <MetaData>
             <entry key="WinSubProjectDisplayName" val=""/>
            </MetaData>
            <ExtraData>
             <Entry key="ZoomPanBin">
              <ZoomPanBin id="1001"  >
               <ZoomPanKeyframes>
                <ZoomPanKeyframe id="1002" timeRangeEnd="-9999999/1" timeRangeDuration="0/1" interpolaterName=""  />
               </ZoomPanKeyframes>
              </ZoomPanBin>
             </Entry>
            </ExtraData>
           </VMFile>
           <IMFile id="1003" start="8154" duration="60" scalar="1/1" mediaStart="29056/1" mediaDuration="1/1" trackNumber="0" src="4" trimStartSum="0/1" >
            <Transformer>
             <VectorParam id="1004"  name="translation">
              <InterpolatingParam id="1005" interp="linr"  time="-9999999/1" value="0" leadInLength="0/1"  />
              <InterpolatingParam id="1006" interp="linr"  time="-9999999/1" value="0" leadInLength="0/1"  />
              <InterpolatingParam id="1007" interp="linr"  time="-9999999/1" value="0" leadInLength="0/1"  />
             </VectorParam>
             <VectorParam id="1008"  name="rotation">
              <InterpolatingParam id="1009" interp="linr"  time="-9999999/1" value="0" leadInLength="0/1"  />
              <InterpolatingParam id="1010" interp="linr"  time="-9999999/1" value="0" leadInLength="0/1"  />
              <InterpolatingParam id="1011" interp="linr"  time="-9999999/1" value="0" leadInLength="0/1"  />
             </VectorParam>
             <VectorParam id="1012"  name="shear">
              <InterpolatingParam id="1013" interp="linr"  time="-9999999/1" value="0" leadInLength="0/1"  />
              <InterpolatingParam id="1014" interp="linr"  time="-9999999/1" value="0" leadInLength="0/1"  />
              <InterpolatingParam id="1015" interp="linr"  time="-9999999/1" value="0" leadInLength="0/1"  />
             </VectorParam>
             <VectorParam id="1016"  name="scale">
              <InterpolatingParam id="1017" interp="linr"  time="-9999999/1" value="1" leadInLength="0/1"  />
              <InterpolatingParam id="1018" interp="linr"  time="-9999999/1" value="1" leadInLength="0/1"  />
              <InterpolatingParam id="1019" interp="linr"  time="-9999999/1" value="1" leadInLength="0/1"  />
             </VectorParam>
             <VectorParam id="1020"  name="anchor">
              <InterpolatingParam id="1021" interp="linr"  time="0/1" value="0" leadInLength="0/1"  />
              <InterpolatingParam id="1022" interp="linr"  time="0/1" value="0" leadInLength="0/1"  />
              <InterpolatingParam id="1023" interp="linr"  time="0/1" value="0" leadInLength="0/1"  />
             </VectorParam>
            </Transformer>
            <Parameters>
             <VectorParam id="1024"  name="sourceCrop">
              <InterpolatingParam id="1025" interp="linr"  time="0/1" value="0" leadInLength="0/1"  />
              <InterpolatingParam id="1026" interp="linr"  time="0/1" value="0" leadInLength="0/1"  />
              <InterpolatingParam id="1027" interp="linr"  time="0/1" value="0" leadInLength="0/1"  />
              <InterpolatingParam id="1028" interp="linr"  time="0/1" value="0" leadInLength="0/1"  />
             </VectorParam>
             <VectorParam id="1029"  name="geometryCrop">
              <InterpolatingParam id="1030" interp="linr"  time="-9999999/1" value="0" leadInLength="0/1"  />
              <InterpolatingParam id="1031" interp="linr"  time="-9999999/1" value="0" leadInLength="0/1"  />
              <InterpolatingParam id="1032" interp="linr"  time="-9999999/1" value="0" leadInLength="0/1"  />
              <InterpolatingParam id="1033" interp="linr"  time="-9999999/1" value="0" leadInLength="0/1"  />
             </VectorParam>
             <InterpolatingParam id="1034" interp="linr"  time="-9999999/1" value="1" leadInLength="0/1"  name="opacity"/>
            </Parameters>
            <Attributes>
             <Attribute id="1035" value="" name="ident"/>
            </Attributes>
            <MetaData>
             <entry key="WinSubProjectDisplayName" val=""/>
            </MetaData>
            <ExtraData>
             <Entry key="ZoomPanBin">
              <ZoomPanBin id="1036"  >
               <ZoomPanKeyframes>
                <ZoomPanKeyframe id="1037" timeRangeEnd="-9999999/1" timeRangeDuration="0/1" interpolaterName=""  />
               </ZoomPanKeyframes>
              </ZoomPanBin>
             </Entry>
            </ExtraData>
           </IMFile>
           <VMFile id="1038" start="8214" duration="18" scalar="1/1" mediaStart="29056/1" mediaDuration="18/1" trackNumber="0" src="4" >
            <Transformer>
             <VectorParam id="1039"  name="translation">
              <InterpolatingParam id="1040" interp="linr"  time="-9999999/1" value="0" leadInLength="0/1"  />
              <InterpolatingParam id="1041" interp="linr"  time="-9999999/1" value="0" leadInLength="0/1"  />
              <InterpolatingParam id="1042" interp="linr"  time="-9999999/1" value="0" leadInLength="0/1"  />
             </VectorParam>
             <VectorParam id="1043"  name="rotation">
              <InterpolatingParam id="1044" interp="linr"  time="-9999999/1" value="0" leadInLength="0/1"  />
              <InterpolatingParam id="1045" interp="linr"  time="-9999999/1" value="0" leadInLength="0/1"  />
              <InterpolatingParam id="1046" interp="linr"  time="-9999999/1" value="0" leadInLength="0/1"  />
             </VectorParam>
             <VectorParam id="1047"  name="shear">
              <InterpolatingParam id="1048" interp="linr"  time="-9999999/1" value="0" leadInLength="0/1"  />
              <InterpolatingParam id="1049" interp="linr"  time="-9999999/1" value="0" leadInLength="0/1"  />
              <InterpolatingParam id="1050" interp="linr"  time="-9999999/1" value="0" leadInLength="0/1"  />
             </VectorParam>
             <VectorParam id="1051"  name="scale">
              <InterpolatingParam id="1052" interp="linr"  time="-9999999/1" value="1" leadInLength="0/1"  />
              <InterpolatingParam id="1053" interp="linr"  time="-9999999/1" value="1" leadInLength="0/1"  />
              <InterpolatingParam id="1054" interp="linr"  time="-9999999/1" value="1" leadInLength="0/1"  />
             </VectorParam>
             <VectorParam id="1055"  name="anchor">
              <InterpolatingParam id="1056" interp="linr"  time="0/1" value="0" leadInLength="0/1"  />
              <InterpolatingParam id="1057" interp="linr"  time="0/1" value="0" leadInLength="0/1"  />
              <InterpolatingParam id="1058" interp="linr"  time="0/1" value="0" leadInLength="0/1"  />
             </VectorParam>
            </Transformer>
            <Parameters>
             <VectorParam id="1059"  name="sourceCrop">
              <InterpolatingParam id="1060" interp="linr"  time="0/1" value="0" leadInLength="0/1"  />
              <InterpolatingParam id="1061" interp="linr"  time="0/1" value="0" leadInLength="0/1"  />
              <InterpolatingParam id="1062" interp="linr"  time="0/1" value="0" leadInLength="0/1"  />
              <InterpolatingParam id="1063" interp="linr"  time="0/1" value="0" leadInLength="0/1"  />
             </VectorParam>
             <VectorParam id="1064"  name="geometryCrop">
              <InterpolatingParam id="1065" interp="linr"  time="-9999999/1" value="0" leadInLength="0/1"  />
              <InterpolatingParam id="1066" interp="linr"  time="-9999999/1" value="0" leadInLength="0/1"  />
              <InterpolatingParam id="1067" interp="linr"  time="-9999999/1" value="0" leadInLength="0/1"  />
              <InterpolatingParam id="1068" interp="linr"  time="-9999999/1" value="0" leadInLength="0/1"  />
             </VectorParam>
             <InterpolatingParam id="1069" interp="linr"  time="-9999999/1" value="1" leadInLength="0/1"  name="opacity"/>
            </Parameters>
            <Attributes>
             <Attribute id="1070" value="" name="ident"/>
            </Attributes>
            <MetaData>
             <entry key="WinSubProjectDisplayName" val=""/>
            </MetaData>
            <ExtraData>
             <Entry key="ZoomPanBin">
              <ZoomPanBin id="1071"  >
               <ZoomPanKeyframes>
                <ZoomPanKeyframe id="1072" timeRangeEnd="-9999999/1" timeRangeDuration="0/1" interpolaterName=""  />
               </ZoomPanKeyframes>
              </ZoomPanBin>
             </Entry>
            </ExtraData>
           </VMFile>
           <IMFile id="1073" start="8232" duration="30" scalar="1/1" mediaStart="29074/1" mediaDuration="1/1" trackNumber="0" src="4" trimStartSum="0/1" >
            <Transformer>
             <VectorParam id="1074"  name="translation">
              <InterpolatingParam id="1075" interp="linr"  time="-9999999/1" value="0" leadInLength="0/1"  />
              <InterpolatingParam id="1076" interp="linr"  time="-9999999/1" value="0" leadInLength="0/1"  />
              <InterpolatingParam id="1077" interp="linr"  time="-9999999/1" value="0" leadInLength="0/1"  />
             </VectorParam>
             <VectorParam id="1078"  name="rotation">
              <InterpolatingParam id="1079" interp="linr"  time="-9999999/1" value="0" leadInLength="0/1"  />
              <InterpolatingParam id="1080" interp="linr"  time="-9999999/1" value="0" leadInLength="0/1"  />
              <InterpolatingParam id="1081" interp="linr"  time="-9999999/1" value="0" leadInLength="0/1"  />
             </VectorParam>
             <VectorParam id="1082"  name="shear">
              <InterpolatingParam id="1083" interp="linr"  time="-9999999/1" value="0" leadInLength="0/1"  />
              <InterpolatingParam id="1084" interp="linr"  time="-9999999/1" value="0" leadInLength="0/1"  />
              <InterpolatingParam id="1085" interp="linr"  time="-9999999/1" value="0" leadInLength="0/1"  />
             </VectorParam>
             <VectorParam id="1086"  name="scale">
              <InterpolatingParam id="1087" interp="linr"  time="-9999999/1" value="1" leadInLength="0/1"  />
              <InterpolatingParam id="1088" interp="linr"  time="-9999999/1" value="1" leadInLength="0/1"  />
              <InterpolatingParam id="1089" interp="linr"  time="-9999999/1" value="1" leadInLength="0/1"  />
             </VectorParam>
             <VectorParam id="1090"  name="anchor">
              <InterpolatingParam id="1091" interp="linr"  time="0/1" value="0" leadInLength="0/1"  />
              <InterpolatingParam id="1092" interp="linr"  time="0/1" value="0" leadInLength="0/1"  />
              <InterpolatingParam id="1093" interp="linr"  time="0/1" value="0" leadInLength="0/1"  />
             </VectorParam>
            </Transformer>
            <Parameters>
             <VectorParam id="1094"  name="sourceCrop">
              <InterpolatingParam id="1095" interp="linr"  time="0/1" value="0" leadInLength="0/1"  />
              <InterpolatingParam id="1096" interp="linr"  time="0/1" value="0" leadInLength="0/1"  />
              <InterpolatingParam id="1097" interp="linr"  time="0/1" value="0" leadInLength="0/1"  />
              <InterpolatingParam id="1098" interp="linr"  time="0/1" value="0" leadInLength="0/1"  />
             </VectorParam>
             <VectorParam id="1099"  name="geometryCrop">
              <InterpolatingParam id="1100" interp="linr"  time="-9999999/1" value="0" leadInLength="0/1"  />
              <InterpolatingParam id="1101" interp="linr"  time="-9999999/1" value="0" leadInLength="0/1"  />
              <InterpolatingParam id="1102" interp="linr"  time="-9999999/1" value="0" leadInLength="0/1"  />
              <InterpolatingParam id="1103" interp="linr"  time="-9999999/1" value="0" leadInLength="0/1"  />
             </VectorParam>
             <InterpolatingParam id="1104" interp="linr"  time="-9999999/1" value="1" leadInLength="0/1"  name="opacity"/>
            </Parameters>
            <Attributes>
             <Attribute id="1105" value="" name="ident"/>
            </Attributes>
            <MetaData>
             <entry key="WinSubProjectDisplayName" val=""/>
            </MetaData>
            <ExtraData>
             <Entry key="ZoomPanBin">
              <ZoomPanBin id="1106"  >
               <ZoomPanKeyframes>
                <ZoomPanKeyframe id="1107" timeRangeEnd="-9999999/1" timeRangeDuration="0/1" interpolaterName=""  />
               </ZoomPanKeyframes>
              </ZoomPanBin>
             </Entry>
            </ExtraData>
           </IMFile>
           <VMFile id="1108" start="8262" duration="1" scalar="1/1" mediaStart="29074/1" mediaDuration="1/1" trackNumber="0" src="4" >
            <Transformer>
             <VectorParam id="1109"  name="translation">
              <InterpolatingParam id="1110" interp="linr"  time="-9999999/1" value="0" leadInLength="0/1"  />
              <InterpolatingParam id="1111" interp="linr"  time="-9999999/1" value="0" leadInLength="0/1"  />
              <InterpolatingParam id="1112" interp="linr"  time="-9999999/1" value="0" leadInLength="0/1"  />
             </VectorParam>
             <VectorParam id="1113"  name="rotation">
              <InterpolatingParam id="1114" interp="linr"  time="-9999999/1" value="0" leadInLength="0/1"  />
              <InterpolatingParam id="1115" interp="linr"  time="-9999999/1" value="0" leadInLength="0/1"  />
              <InterpolatingParam id="1116" interp="linr"  time="-9999999/1" value="0" leadInLength="0/1"  />
             </VectorParam>
             <VectorParam id="1117"  name="shear">
              <InterpolatingParam id="1118" interp="linr"  time="-9999999/1" value="0" leadInLength="0/1"  />
              <InterpolatingParam id="1119" interp="linr"  time="-9999999/1" value="0" leadInLength="0/1"  />
              <InterpolatingParam id="1120" interp="linr"  time="-9999999/1" value="0" leadInLength="0/1"  />
             </VectorParam>
             <VectorParam id="1121"  name="scale">
              <InterpolatingParam id="1122" interp="linr"  time="-9999999/1" value="1" leadInLength="0/1"  />
              <InterpolatingParam id="1123" interp="linr"  time="-9999999/1" value="1" leadInLength="0/1"  />
              <InterpolatingParam id="1124" interp="linr"  time="-9999999/1" value="1" leadInLength="0/1"  />
             </VectorParam>
             <VectorParam id="1125"  name="anchor">
              <InterpolatingParam id="1126" interp="linr"  time="0/1" value="0" leadInLength="0/1"  />
              <InterpolatingParam id="1127" interp="linr"  time="0/1" value="0" leadInLength="0/1"  />
              <InterpolatingParam id="1128" interp="linr"  time="0/1" value="0" leadInLength="0/1"  />
             </VectorParam>
            </Transformer>
            <Parameters>
             <VectorParam id="1129"  name="sourceCrop">
              <InterpolatingParam id="1130" interp="linr"  time="0/1" value="0" leadInLength="0/1"  />
              <InterpolatingParam id="1131" interp="linr"  time="0/1" value="0" leadInLength="0/1"  />
              <InterpolatingParam id="1132" interp="linr"  time="0/1" value="0" leadInLength="0/1"  />
              <InterpolatingParam id="1133" interp="linr"  time="0/1" value="0" leadInLength="0/1"  />
             </VectorParam>
             <VectorParam id="1134"  name="geometryCrop">
              <InterpolatingParam id="1135" interp="linr"  time="-9999999/1" value="0" leadInLength="0/1"  />
              <InterpolatingParam id="1136" interp="linr"  time="-9999999/1" value="0" leadInLength="0/1"  />
              <InterpolatingParam id="1137" interp="linr"  time="-9999999/1" value="0" leadInLength="0/1"  />
              <InterpolatingParam id="1138" interp="linr"  time="-9999999/1" value="0" leadInLength="0/1"  />
             </VectorParam>
             <InterpolatingParam id="1139" interp="linr"  time="-9999999/1" value="1" leadInLength="0/1"  name="opacity"/>
            </Parameters>
            <Attributes>
             <Attribute id="1140" value="" name="ident"/>
            </Attributes>
            <MetaData>
             <entry key="WinSubProjectDisplayName" val=""/>
            </MetaData>
            <ExtraData>
             <Entry key="ZoomPanBin">
              <ZoomPanBin id="1141"  >
               <ZoomPanKeyframes>
                <ZoomPanKeyframe id="1142" timeRangeEnd="-9999999/1" timeRangeDuration="0/1" interpolaterName=""  />
               </ZoomPanKeyframes>
              </ZoomPanBin>
             </Entry>
            </ExtraData>
           </VMFile>
           <VMFile id="1143" start="8263" duration="42" scalar="1/1" mediaStart="29274/1" mediaDuration="42/1" trackNumber="0" src="4" >
            <Transformer>
             <VectorParam id="1144"  name="translation">
              <InterpolatingParam id="1145" interp="linr"  time="-9999999/1" value="0" leadInLength="0/1"  />
              <InterpolatingParam id="1146" interp="linr"  time="-9999999/1" value="0" leadInLength="0/1"  />
              <InterpolatingParam id="1147" interp="linr"  time="-9999999/1" value="0" leadInLength="0/1"  />
             </VectorParam>
             <VectorParam id="1148"  name="rotation">
              <InterpolatingParam id="1149" interp="linr"  time="-9999999/1" value="0" leadInLength="0/1"  />
              <InterpolatingParam id="1150" interp="linr"  time="-9999999/1" value="0" leadInLength="0/1"  />
              <InterpolatingParam id="1151" interp="linr"  time="-9999999/1" value="0" leadInLength="0/1"  />
             </VectorParam>
             <VectorParam id="1152"  name="shear">
              <InterpolatingParam id="1153" interp="linr"  time="-9999999/1" value="0" leadInLength="0/1"  />
              <InterpolatingParam id="1154" interp="linr"  time="-9999999/1" value="0" leadInLength="0/1"  />
              <InterpolatingParam id="1155" interp="linr"  time="-9999999/1" value="0" leadInLength="0/1"  />
             </VectorParam>
             <VectorParam id="1156"  name="scale">
              <InterpolatingParam id="1157" interp="linr"  time="-9999999/1" value="1" leadInLength="0/1"  />
              <InterpolatingParam id="1158" interp="linr"  time="-9999999/1" value="1" leadInLength="0/1"  />
              <InterpolatingParam id="1159" interp="linr"  time="-9999999/1" value="1" leadInLength="0/1"  />
             </VectorParam>
             <VectorParam id="1160"  name="anchor">
              <InterpolatingParam id="1161" interp="linr"  time="0/1" value="0" leadInLength="0/1"  />
              <InterpolatingParam id="1162" interp="linr"  time="0/1" value="0" leadInLength="0/1"  />
              <InterpolatingParam id="1163" interp="linr"  time="0/1" value="0" leadInLength="0/1"  />
             </VectorParam>
            </Transformer>
            <Parameters>
             <VectorParam id="1164"  name="sourceCrop">
              <InterpolatingParam id="1165" interp="linr"  time="0/1" value="0" leadInLength="0/1"  />
              <InterpolatingParam id="1166" interp="linr"  time="0/1" value="0" leadInLength="0/1"  />
              <InterpolatingParam id="1167" interp="linr"  time="0/1" value="0" leadInLength="0/1"  />
              <InterpolatingParam id="1168" interp="linr"  time="0/1" value="0" leadInLength="0/1"  />
             </VectorParam>
             <VectorParam id="1169"  name="geometryCrop">
              <InterpolatingParam id="1170" interp="linr"  time="-9999999/1" value="0" leadInLength="0/1"  />
              <InterpolatingParam id="1171" interp="linr"  time="-9999999/1" value="0" leadInLength="0/1"  />
              <InterpolatingParam id="1172" interp="linr"  time="-9999999/1" value="0" leadInLength="0/1"  />
              <InterpolatingParam id="1173" interp="linr"  time="-9999999/1" value="0" leadInLength="0/1"  />
             </VectorParam>
             <InterpolatingParam id="1174" interp="linr"  time="-9999999/1" value="1" leadInLength="0/1"  name="opacity"/>
            </Parameters>
            <Attributes>
             <Attribute id="1175" value="" name="ident"/>
            </Attributes>
            <MetaData>
             <entry key="WinSubProjectDisplayName" val=""/>
            </MetaData>
            <ExtraData>
             <Entry key="ZoomPanBin">
              <ZoomPanBin id="1176"  >
               <ZoomPanKeyframes>
                <ZoomPanKeyframe id="1177" timeRangeEnd="-9999999/1" timeRangeDuration="0/1" interpolaterName=""  />
               </ZoomPanKeyframes>
              </ZoomPanBin>
             </Entry>
            </ExtraData>
           </VMFile>
           <VMFile id="1178" start="8305" duration="147" scalar="1/1" mediaStart="29358/1" mediaDuration="147/1" trackNumber="0" src="4" >
            <Transformer>
             <VectorParam id="1179"  name="translation">
              <InterpolatingParam id="1180" interp="linr"  time="-9999999/1" value="0" leadInLength="0/1"  />
              <InterpolatingParam id="1181" interp="linr"  time="-9999999/1" value="0" leadInLength="0/1"  />
              <InterpolatingParam id="1182" interp="linr"  time="-9999999/1" value="0" leadInLength="0/1"  />
             </VectorParam>
             <VectorParam id="1183"  name="rotation">
              <InterpolatingParam id="1184" interp="linr"  time="-9999999/1" value="0" leadInLength="0/1"  />
              <InterpolatingParam id="1185" interp="linr"  time="-9999999/1" value="0" leadInLength="0/1"  />
              <InterpolatingParam id="1186" interp="linr"  time="-9999999/1" value="0" leadInLength="0/1"  />
             </VectorParam>
             <VectorParam id="1187"  name="shear">
              <InterpolatingParam id="1188" interp="linr"  time="-9999999/1" value="0" leadInLength="0/1"  />
              <InterpolatingParam id="1189" interp="linr"  time="-9999999/1" value="0" leadInLength="0/1"  />
              <InterpolatingParam id="1190" interp="linr"  time="-9999999/1" value="0" leadInLength="0/1"  />
             </VectorParam>
             <VectorParam id="1191"  name="scale">
              <InterpolatingParam id="1192" interp="linr"  time="-9999999/1" value="1" leadInLength="0/1"  />
              <InterpolatingParam id="1193" interp="linr"  time="-9999999/1" value="1" leadInLength="0/1"  />
              <InterpolatingParam id="1194" interp="linr"  time="-9999999/1" value="1" leadInLength="0/1"  />
             </VectorParam>
             <VectorParam id="1195"  name="anchor">
              <InterpolatingParam id="1196" interp="linr"  time="0/1" value="0" leadInLength="0/1"  />
              <InterpolatingParam id="1197" interp="linr"  time="0/1" value="0" leadInLength="0/1"  />
              <InterpolatingParam id="1198" interp="linr"  time="0/1" value="0" leadInLength="0/1"  />
             </VectorParam>
            </Transformer>
            <Parameters>
             <VectorParam id="1199"  name="sourceCrop">
              <InterpolatingParam id="1200" interp="linr"  time="0/1" value="0" leadInLength="0/1"  />
              <InterpolatingParam id="1201" interp="linr"  time="0/1" value="0" leadInLength="0/1"  />
              <InterpolatingParam id="1202" interp="linr"  time="0/1" value="0" leadInLength="0/1"  />
              <InterpolatingParam id="1203" interp="linr"  time="0/1" value="0" leadInLength="0/1"  />
             </VectorParam>
             <VectorParam id="1204"  name="geometryCrop">
              <InterpolatingParam id="1205" interp="linr"  time="-9999999/1" value="0" leadInLength="0/1"  />
              <InterpolatingParam id="1206" interp="linr"  time="-9999999/1" value="0" leadInLength="0/1"  />
              <InterpolatingParam id="1207" interp="linr"  time="-9999999/1" value="0" leadInLength="0/1"  />
              <InterpolatingParam id="1208" interp="linr"  time="-9999999/1" value="0" leadInLength="0/1"  />
             </VectorParam>
             <InterpolatingParam id="1209" interp="linr"  time="-9999999/1" value="1" leadInLength="0/1"  name="opacity"/>
            </Parameters>
            <Attributes>
             <Attribute id="1210" value="" name="ident"/>
            </Attributes>
            <MetaData>
             <entry key="WinSubProjectDisplayName" val=""/>
            </MetaData>
            <ExtraData>
             <Entry key="ZoomPanBin">
              <ZoomPanBin id="1211"  >
               <ZoomPanKeyframes>
                <ZoomPanKeyframe id="1212" timeRangeEnd="-9999999/1" timeRangeDuration="0/1" interpolaterName=""  />
               </ZoomPanKeyframes>
              </ZoomPanBin>
             </Entry>
            </ExtraData>
           </VMFile>
           <VMFile id="1213" start="8452" duration="580" scalar="1/1" mediaStart="29557/1" mediaDuration="580/1" trackNumber="0" src="4" >
            <Transformer>
             <VectorParam id="1214"  name="translation">
              <InterpolatingParam id="1215" interp="linr"  time="-9999999/1" value="0" leadInLength="0/1"  />
              <InterpolatingParam id="1216" interp="linr"  time="-9999999/1" value="0" leadInLength="0/1"  />
              <InterpolatingParam id="1217" interp="linr"  time="-9999999/1" value="0" leadInLength="0/1"  />
             </VectorParam>
             <VectorParam id="1218"  name="rotation">
              <InterpolatingParam id="1219" interp="linr"  time="-9999999/1" value="0" leadInLength="0/1"  />
              <InterpolatingParam id="1220" interp="linr"  time="-9999999/1" value="0" leadInLength="0/1"  />
              <InterpolatingParam id="1221" interp="linr"  time="-9999999/1" value="0" leadInLength="0/1"  />
             </VectorParam>
             <VectorParam id="1222"  name="shear">
              <InterpolatingParam id="1223" interp="linr"  time="-9999999/1" value="0" leadInLength="0/1"  />
              <InterpolatingParam id="1224" interp="linr"  time="-9999999/1" value="0" leadInLength="0/1"  />
              <InterpolatingParam id="1225" interp="linr"  time="-9999999/1" value="0" leadInLength="0/1"  />
             </VectorParam>
             <VectorParam id="1226"  name="scale">
              <InterpolatingParam id="1227" interp="linr"  time="-9999999/1" value="1" leadInLength="0/1"  />
              <InterpolatingParam id="1228" interp="linr"  time="-9999999/1" value="1" leadInLength="0/1"  />
              <InterpolatingParam id="1229" interp="linr"  time="-9999999/1" value="1" leadInLength="0/1"  />
             </VectorParam>
             <VectorParam id="1230"  name="anchor">
              <InterpolatingParam id="1231" interp="linr"  time="0/1" value="0" leadInLength="0/1"  />
              <InterpolatingParam id="1232" interp="linr"  time="0/1" value="0" leadInLength="0/1"  />
              <InterpolatingParam id="1233" interp="linr"  time="0/1" value="0" leadInLength="0/1"  />
             </VectorParam>
            </Transformer>
            <Parameters>
             <VectorParam id="1234"  name="sourceCrop">
              <InterpolatingParam id="1235" interp="linr"  time="0/1" value="0" leadInLength="0/1"  />
              <InterpolatingParam id="1236" interp="linr"  time="0/1" value="0" leadInLength="0/1"  />
              <InterpolatingParam id="1237" interp="linr"  time="0/1" value="0" leadInLength="0/1"  />
              <InterpolatingParam id="1238" interp="linr"  time="0/1" value="0" leadInLength="0/1"  />
             </VectorParam>
             <VectorParam id="1239"  name="geometryCrop">
              <InterpolatingParam id="1240" interp="linr"  time="-9999999/1" value="0" leadInLength="0/1"  />
              <InterpolatingParam id="1241" interp="linr"  time="-9999999/1" value="0" leadInLength="0/1"  />
              <InterpolatingParam id="1242" interp="linr"  time="-9999999/1" value="0" leadInLength="0/1"  />
              <InterpolatingParam id="1243" interp="linr"  time="-9999999/1" value="0" leadInLength="0/1"  />
             </VectorParam>
             <InterpolatingParam id="1244" interp="linr"  time="-9999999/1" value="1" leadInLength="0/1"  name="opacity"/>
            </Parameters>
            <Attributes>
             <Attribute id="1245" value="" name="ident"/>
            </Attributes>
            <MetaData>
             <entry key="WinSubProjectDisplayName" val=""/>
            </MetaData>
            <ExtraData>
             <Entry key="ZoomPanBin">
              <ZoomPanBin id="1246"  >
               <ZoomPanKeyframes>
                <ZoomPanKeyframe id="1247" timeRangeEnd="-9999999/1" timeRangeDuration="0/1" interpolaterName=""  />
               </ZoomPanKeyframes>
              </ZoomPanBin>
             </Entry>
            </ExtraData>
           </VMFile>
           <VMFile id="1248" start="9032" duration="25" scalar="1/1" mediaStart="30200/1" mediaDuration="25/1" trackNumber="0" src="4" >
            <Transformer>
             <VectorParam id="1249"  name="translation">
              <InterpolatingParam id="1250" interp="linr"  time="-9999999/1" value="0" leadInLength="0/1"  />
              <InterpolatingParam id="1251" interp="linr"  time="-9999999/1" value="0" leadInLength="0/1"  />
              <InterpolatingParam id="1252" interp="linr"  time="-9999999/1" value="0" leadInLength="0/1"  />
             </VectorParam>
             <VectorParam id="1253"  name="rotation">
              <InterpolatingParam id="1254" interp="linr"  time="-9999999/1" value="0" leadInLength="0/1"  />
              <InterpolatingParam id="1255" interp="linr"  time="-9999999/1" value="0" leadInLength="0/1"  />
              <InterpolatingParam id="1256" interp="linr"  time="-9999999/1" value="0" leadInLength="0/1"  />
             </VectorParam>
             <VectorParam id="1257"  name="shear">
              <InterpolatingParam id="1258" interp="linr"  time="-9999999/1" value="0" leadInLength="0/1"  />
              <InterpolatingParam id="1259" interp="linr"  time="-9999999/1" value="0" leadInLength="0/1"  />
              <InterpolatingParam id="1260" interp="linr"  time="-9999999/1" value="0" leadInLength="0/1"  />
             </VectorParam>
             <VectorParam id="1261"  name="scale">
              <InterpolatingParam id="1262" interp="linr"  time="-9999999/1" value="1" leadInLength="0/1"  />
              <InterpolatingParam id="1263" interp="linr"  time="-9999999/1" value="1" leadInLength="0/1"  />
              <InterpolatingParam id="1264" interp="linr"  time="-9999999/1" value="1" leadInLength="0/1"  />
             </VectorParam>
             <VectorParam id="1265"  name="anchor">
              <InterpolatingParam id="1266" interp="linr"  time="0/1" value="0" leadInLength="0/1"  />
              <InterpolatingParam id="1267" interp="linr"  time="0/1" value="0" leadInLength="0/1"  />
              <InterpolatingParam id="1268" interp="linr"  time="0/1" value="0" leadInLength="0/1"  />
             </VectorParam>
            </Transformer>
            <Parameters>
             <VectorParam id="1269"  name="sourceCrop">
              <InterpolatingParam id="1270" interp="linr"  time="0/1" value="0" leadInLength="0/1"  />
              <InterpolatingParam id="1271" interp="linr"  time="0/1" value="0" leadInLength="0/1"  />
              <InterpolatingParam id="1272" interp="linr"  time="0/1" value="0" leadInLength="0/1"  />
              <InterpolatingParam id="1273" interp="linr"  time="0/1" value="0" leadInLength="0/1"  />
             </VectorParam>
             <VectorParam id="1274"  name="geometryCrop">
              <InterpolatingParam id="1275" interp="linr"  time="-9999999/1" value="0" leadInLength="0/1"  />
              <InterpolatingParam id="1276" interp="linr"  time="-9999999/1" value="0" leadInLength="0/1"  />
              <InterpolatingParam id="1277" interp="linr"  time="-9999999/1" value="0" leadInLength="0/1"  />
              <InterpolatingParam id="1278" interp="linr"  time="-9999999/1" value="0" leadInLength="0/1"  />
             </VectorParam>
             <InterpolatingParam id="1279" interp="linr"  time="-9999999/1" value="1" leadInLength="0/1"  name="opacity"/>
            </Parameters>
            <Attributes>
             <Attribute id="1280" value="" name="ident"/>
            </Attributes>
            <MetaData>
             <entry key="WinSubProjectDisplayName" val=""/>
            </MetaData>
            <ExtraData>
             <Entry key="ZoomPanBin">
              <ZoomPanBin id="1281"  >
               <ZoomPanKeyframes>
                <ZoomPanKeyframe id="1282" timeRangeEnd="-9999999/1" timeRangeDuration="0/1" interpolaterName=""  />
               </ZoomPanKeyframes>
              </ZoomPanBin>
             </Entry>
            </ExtraData>
           </VMFile>
           <VMFile id="1283" start="9057" duration="119" scalar="1/1" mediaStart="30368/1" mediaDuration="119/1" trackNumber="0" src="4" >
            <Transformer>
             <VectorParam id="1284"  name="translation">
              <InterpolatingParam id="1285" interp="linr"  time="-9999999/1" value="0" leadInLength="0/1"  />
              <InterpolatingParam id="1286" interp="linr"  time="-9999999/1" value="0" leadInLength="0/1"  />
              <InterpolatingParam id="1287" interp="linr"  time="-9999999/1" value="0" leadInLength="0/1"  />
             </VectorParam>
             <VectorParam id="1288"  name="rotation">
              <InterpolatingParam id="1289" interp="linr"  time="-9999999/1" value="0" leadInLength="0/1"  />
              <InterpolatingParam id="1290" interp="linr"  time="-9999999/1" value="0" leadInLength="0/1"  />
              <InterpolatingParam id="1291" interp="linr"  time="-9999999/1" value="0" leadInLength="0/1"  />
             </VectorParam>
             <VectorParam id="1292"  name="shear">
              <InterpolatingParam id="1293" interp="linr"  time="-9999999/1" value="0" leadInLength="0/1"  />
              <InterpolatingParam id="1294" interp="linr"  time="-9999999/1" value="0" leadInLength="0/1"  />
              <InterpolatingParam id="1295" interp="linr"  time="-9999999/1" value="0" leadInLength="0/1"  />
             </VectorParam>
             <VectorParam id="1296"  name="scale">
              <InterpolatingParam id="1297" interp="linr"  time="-9999999/1" value="1" leadInLength="0/1"  />
              <InterpolatingParam id="1298" interp="linr"  time="-9999999/1" value="1" leadInLength="0/1"  />
              <InterpolatingParam id="1299" interp="linr"  time="-9999999/1" value="1" leadInLength="0/1"  />
             </VectorParam>
             <VectorParam id="1300"  name="anchor">
              <InterpolatingParam id="1301" interp="linr"  time="0/1" value="0" leadInLength="0/1"  />
              <InterpolatingParam id="1302" interp="linr"  time="0/1" value="0" leadInLength="0/1"  />
              <InterpolatingParam id="1303" interp="linr"  time="0/1" value="0" leadInLength="0/1"  />
             </VectorParam>
            </Transformer>
            <Parameters>
             <VectorParam id="1304"  name="sourceCrop">
              <InterpolatingParam id="1305" interp="linr"  time="0/1" value="0" leadInLength="0/1"  />
              <InterpolatingParam id="1306" interp="linr"  time="0/1" value="0" leadInLength="0/1"  />
              <InterpolatingParam id="1307" interp="linr"  time="0/1" value="0" leadInLength="0/1"  />
              <InterpolatingParam id="1308" interp="linr"  time="0/1" value="0" leadInLength="0/1"  />
             </VectorParam>
             <VectorParam id="1309"  name="geometryCrop">
              <InterpolatingParam id="1310" interp="linr"  time="-9999999/1" value="0" leadInLength="0/1"  />
              <InterpolatingParam id="1311" interp="linr"  time="-9999999/1" value="0" leadInLength="0/1"  />
              <InterpolatingParam id="1312" interp="linr"  time="-9999999/1" value="0" leadInLength="0/1"  />
              <InterpolatingParam id="1313" interp="linr"  time="-9999999/1" value="0" leadInLength="0/1"  />
             </VectorParam>
             <InterpolatingParam id="1314" interp="linr"  time="-9999999/1" value="1" leadInLength="0/1"  name="opacity"/>
            </Parameters>
            <Attributes>
             <Attribute id="1315" value="" name="ident"/>
            </Attributes>
            <MetaData>
             <entry key="WinSubProjectDisplayName" val=""/>
            </MetaData>
            <ExtraData>
             <Entry key="ZoomPanBin">
              <ZoomPanBin id="1316"  >
               <ZoomPanKeyframes>
                <ZoomPanKeyframe id="1317" timeRangeEnd="-9999999/1" timeRangeDuration="0/1" interpolaterName=""  />
               </ZoomPanKeyframes>
              </ZoomPanBin>
             </Entry>
            </ExtraData>
           </VMFile>
           <VMFile id="1318" start="9176" duration="411" scalar="1/1" mediaStart="30756/1" mediaDuration="411/1" trackNumber="0" src="4" >
            <Transformer>
             <VectorParam id="1319"  name="translation">
              <InterpolatingParam id="1320" interp="linr"  time="-9999999/1" value="0" leadInLength="0/1"  />
              <InterpolatingParam id="1321" interp="linr"  time="-9999999/1" value="0" leadInLength="0/1"  />
              <InterpolatingParam id="1322" interp="linr"  time="-9999999/1" value="0" leadInLength="0/1"  />
             </VectorParam>
             <VectorParam id="1323"  name="rotation">
              <InterpolatingParam id="1324" interp="linr"  time="-9999999/1" value="0" leadInLength="0/1"  />
              <InterpolatingParam id="1325" interp="linr"  time="-9999999/1" value="0" leadInLength="0/1"  />
              <InterpolatingParam id="1326" interp="linr"  time="-9999999/1" value="0" leadInLength="0/1"  />
             </VectorParam>
             <VectorParam id="1327"  name="shear">
              <InterpolatingParam id="1328" interp="linr"  time="-9999999/1" value="0" leadInLength="0/1"  />
              <InterpolatingParam id="1329" interp="linr"  time="-9999999/1" value="0" leadInLength="0/1"  />
              <InterpolatingParam id="1330" interp="linr"  time="-9999999/1" value="0" leadInLength="0/1"  />
             </VectorParam>
             <VectorParam id="1331"  name="scale">
              <InterpolatingParam id="1332" interp="linr"  time="-9999999/1" value="1" leadInLength="0/1"  />
              <InterpolatingParam id="1333" interp="linr"  time="-9999999/1" value="1" leadInLength="0/1"  />
              <InterpolatingParam id="1334" interp="linr"  time="-9999999/1" value="1" leadInLength="0/1"  />
             </VectorParam>
             <VectorParam id="1335"  name="anchor">
              <InterpolatingParam id="1336" interp="linr"  time="0/1" value="0" leadInLength="0/1"  />
              <InterpolatingParam id="1337" interp="linr"  time="0/1" value="0" leadInLength="0/1"  />
              <InterpolatingParam id="1338" interp="linr"  time="0/1" value="0" leadInLength="0/1"  />
             </VectorParam>
            </Transformer>
            <Parameters>
             <VectorParam id="1339"  name="sourceCrop">
              <InterpolatingParam id="1340" interp="linr"  time="0/1" value="0" leadInLength="0/1"  />
              <InterpolatingParam id="1341" interp="linr"  time="0/1" value="0" leadInLength="0/1"  />
              <InterpolatingParam id="1342" interp="linr"  time="0/1" value="0" leadInLength="0/1"  />
              <InterpolatingParam id="1343" interp="linr"  time="0/1" value="0" leadInLength="0/1"  />
             </VectorParam>
             <VectorParam id="1344"  name="geometryCrop">
              <InterpolatingParam id="1345" interp="linr"  time="-9999999/1" value="0" leadInLength="0/1"  />
              <InterpolatingParam id="1346" interp="linr"  time="-9999999/1" value="0" leadInLength="0/1"  />
              <InterpolatingParam id="1347" interp="linr"  time="-9999999/1" value="0" leadInLength="0/1"  />
              <InterpolatingParam id="1348" interp="linr"  time="-9999999/1" value="0" leadInLength="0/1"  />
             </VectorParam>
             <InterpolatingParam id="1349" interp="linr"  time="-9999999/1" value="1" leadInLength="0/1"  name="opacity"/>
            </Parameters>
            <Attributes>
             <Attribute id="1350" value="" name="ident"/>
            </Attributes>
            <MetaData>
             <entry key="WinSubProjectDisplayName" val=""/>
            </MetaData>
            <ExtraData>
             <Entry key="ZoomPanBin">
              <ZoomPanBin id="1351"  >
               <ZoomPanKeyframes>
                <ZoomPanKeyframe id="1352" timeRangeEnd="-9999999/1" timeRangeDuration="0/1" interpolaterName=""  />
               </ZoomPanKeyframes>
              </ZoomPanBin>
             </Entry>
            </ExtraData>
           </VMFile>
          </Medias>
         </GenericTrack>
        </StitchedMedia>
        <StitchedMedia id="1353" start="534" duration="235" scalar="4526/9053" mediaStart="534/1" mediaDuration="2127455/4526" minMediaStart="0/1" >
         <Transformer>
          <VectorParam id="1354"  name="translation">
           <InterpolatingParam id="1355" interp="linr"  time="-9999999/1" value="0" leadInLength="0/1"  interpolater="leadin-linr"  />
           <InterpolatingParam id="1356" interp="linr"  time="-9999999/1" value="0" leadInLength="0/1"  interpolater="leadin-linr"  />
           <InterpolatingParam id="1357" interp="linr"  time="-9999999/1" value="0" leadInLength="0/1"  interpolater="leadin-linr"  />
          </VectorParam>
          <VectorParam id="1358"  name="rotation">
           <InterpolatingParam id="1359" interp="linr"  time="-9999999/1" value="0" leadInLength="0/1"  interpolater="leadin-linr"  />
           <InterpolatingParam id="1360" interp="linr"  time="-9999999/1" value="0" leadInLength="0/1"  interpolater="leadin-linr"  />
           <InterpolatingParam id="1361" interp="linr"  time="-9999999/1" value="0" leadInLength="0/1"  interpolater="leadin-linr"  />
          </VectorParam>
          <VectorParam id="1362"  name="shear">
           <InterpolatingParam id="1363" interp="linr"  time="-9999999/1" value="0" leadInLength="0/1"  interpolater="leadin-linr"  />
           <InterpolatingParam id="1364" interp="linr"  time="-9999999/1" value="0" leadInLength="0/1"  interpolater="leadin-linr"  />
           <InterpolatingParam id="1365" interp="linr"  time="-9999999/1" value="0" leadInLength="0/1"  interpolater="leadin-linr"  />
          </VectorParam>
          <VectorParam id="1366"  name="scale">
           <InterpolatingParam id="1367" interp="linr"  time="-9999999/1" value="1" leadInLength="0/1"  interpolater="leadin-linr"  />
           <InterpolatingParam id="1368" interp="linr"  time="-9999999/1" value="1" leadInLength="0/1"  interpolater="leadin-linr"  />
           <InterpolatingParam id="1369" interp="linr"  time="-9999999/1" value="1" leadInLength="0/1"  interpolater="leadin-linr"  />
          </VectorParam>
          <VectorParam id="1370"  name="anchor">
           <InterpolatingParam id="1371" interp="linr"  >
            <Keyframes>
            <Keyframe id="1372"  time="0/1" value="0" leadInLength="0/1"  />
            <Keyframe id="1373"  time="164/1" value="0" leadInLength="0/1"  />
            <Keyframe id="1374"  time="427/1" value="0" leadInLength="0/1"  />
            <Keyframe id="1375"  time="8154/1" value="0" leadInLength="0/1"  />
            <Keyframe id="1376"  time="8232/1" value="0" leadInLength="0/1"  />
            </Keyframes>
           </InterpolatingParam>
           <InterpolatingParam id="1377" interp="linr"  >
            <Keyframes>
            <Keyframe id="1378"  time="0/1" value="0" leadInLength="0/1"  />
            <Keyframe id="1379"  time="164/1" value="0" leadInLength="0/1"  />
            <Keyframe id="1380"  time="427/1" value="0" leadInLength="0/1"  />
            <Keyframe id="1381"  time="8154/1" value="0" leadInLength="0/1"  />
            <Keyframe id="1382"  time="8232/1" value="0" leadInLength="0/1"  />
            </Keyframes>
           </InterpolatingParam>
           <InterpolatingParam id="1383" interp="linr"  >
            <Keyframes>
            <Keyframe id="1384"  time="0/1" value="0" leadInLength="0/1"  />
            <Keyframe id="1385"  time="164/1" value="0" leadInLength="0/1"  />
            <Keyframe id="1386"  time="427/1" value="0" leadInLength="0/1"  />
            <Keyframe id="1387"  time="8154/1" value="0" leadInLength="0/1"  />
            <Keyframe id="1388"  time="8232/1" value="0" leadInLength="0/1"  />
            </Keyframes>
           </InterpolatingParam>
          </VectorParam>
         </Transformer>
         <Parameters>
          <VectorParam id="1389"  name="sourceCrop">
           <InterpolatingParam id="1390" interp="linr"  >
            <Keyframes>
            <Keyframe id="1391"  time="0/1" value="0" leadInLength="0/1"  />
            <Keyframe id="1392"  time="164/1" value="0" leadInLength="0/1"  />
            <Keyframe id="1393"  time="427/1" value="0" leadInLength="0/1"  />
            <Keyframe id="1394"  time="8154/1" value="0" leadInLength="0/1"  />
            <Keyframe id="1395"  time="8232/1" value="0" leadInLength="0/1"  />
            </Keyframes>
           </InterpolatingParam>
           <InterpolatingParam id="1396" interp="linr"  >
            <Keyframes>
            <Keyframe id="1397"  time="0/1" value="0" leadInLength="0/1"  />
            <Keyframe id="1398"  time="164/1" value="0" leadInLength="0/1"  />
            <Keyframe id="1399"  time="427/1" value="0" leadInLength="0/1"  />
            <Keyframe id="1400"  time="8154/1" value="0" leadInLength="0/1"  />
            <Keyframe id="1401"  time="8232/1" value="0" leadInLength="0/1"  />
            </Keyframes>
           </InterpolatingParam>
           <InterpolatingParam id="1402" interp="linr"  >
            <Keyframes>
            <Keyframe id="1403"  time="0/1" value="0" leadInLength="0/1"  />
            <Keyframe id="1404"  time="164/1" value="0" leadInLength="0/1"  />
            <Keyframe id="1405"  time="427/1" value="0" leadInLength="0/1"  />
            <Keyframe id="1406"  time="8154/1" value="0" leadInLength="0/1"  />
            <Keyframe id="1407"  time="8232/1" value="0" leadInLength="0/1"  />
            </Keyframes>
           </InterpolatingParam>
           <InterpolatingParam id="1408" interp="linr"  >
            <Keyframes>
            <Keyframe id="1409"  time="0/1" value="0" leadInLength="0/1"  />
            <Keyframe id="1410"  time="164/1" value="0" leadInLength="0/1"  />
            <Keyframe id="1411"  time="427/1" value="0" leadInLength="0/1"  />
            <Keyframe id="1412"  time="8154/1" value="0" leadInLength="0/1"  />
            <Keyframe id="1413"  time="8232/1" value="0" leadInLength="0/1"  />
            </Keyframes>
           </InterpolatingParam>
          </VectorParam>
          <VectorParam id="1414"  name="geometryCrop">
           <InterpolatingParam id="1415" interp="linr"  time="-9999999/1" value="0" leadInLength="0/1"  interpolater="leadin-linr"  />
           <InterpolatingParam id="1416" interp="linr"  time="-9999999/1" value="0" leadInLength="0/1"  interpolater="leadin-linr"  />
           <InterpolatingParam id="1417" interp="linr"  time="-9999999/1" value="0" leadInLength="0/1"  interpolater="leadin-linr"  />
           <InterpolatingParam id="1418" interp="linr"  time="-9999999/1" value="0" leadInLength="0/1"  interpolater="leadin-linr"  />
          </VectorParam>
          <InterpolatingParam id="1419" interp="linr"  time="-9999999/1" value="1" leadInLength="0/1"  interpolater="leadin-linr"  name="opacity"/>
          <InterpolatingParam id="1420" interp="linr"  time="0/1" value="1" leadInLength="0/1"  name="cursorOpacity"/>
          <InterpolatingParam id="1421" interp="linr"  time="0/1" value="1" leadInLength="0/1"  name="cursorScale"/>
          <Parameter id="1422"  name="captions"/>
         </Parameters>
         <Attributes>
          <Attribute id="1423" value="" name="ident"/>
         </Attributes>
         <MetaData>
          <entry key="WinSubProjectDisplayName" val=""/>
         </MetaData>
         <ExtraData>
          <Entry key="ZoomPanBin">
           <ZoomPanBin id="1424"  >
            <ZoomPanKeyframes>
             <ZoomPanKeyframe id="1425" timeRangeEnd="-9999999/1" timeRangeDuration="0/1" interpolaterName="linr"  />
            </ZoomPanKeyframes>
           </ZoomPanBin>
          </Entry>
          <Entry key="CursorEffectBin">
           <CursorEffectBin id="1426"  >
            <CursorEffectKeyframes>
            </CursorEffectKeyframes>
           </CursorEffectBin>
          </Entry>
         </ExtraData>
         <GenericTrack id="1427"  >
          <Attributes>
           <Attribute id="1428" value="" name="ident"/>
           <Attribute id="1429" value="0" name="audioMuted"/>
           <Attribute id="1430" value="0" name="videoHidden"/>
          </Attributes>
          <MetaData>
           <entry key="IsLocked" val="False"/>
           <entry key="WinTrackHeight" val="0"/>
          </MetaData>
          <Medias>
           <VMFile id="1431" start="0" duration="164" scalar="1/1" mediaStart="0/1" mediaDuration="164/1" trackNumber="0" src="4" >
            <Transformer>
             <VectorParam id="1432"  name="translation">
              <InterpolatingParam id="1433" interp="linr"  time="-9999999/1" value="0" leadInLength="0/1"  />
              <InterpolatingParam id="1434" interp="linr"  time="-9999999/1" value="0" leadInLength="0/1"  />
              <InterpolatingParam id="1435" interp="linr"  time="-9999999/1" value="0" leadInLength="0/1"  />
             </VectorParam>
             <VectorParam id="1436"  name="rotation">
              <InterpolatingParam id="1437" interp="linr"  time="-9999999/1" value="0" leadInLength="0/1"  />
              <InterpolatingParam id="1438" interp="linr"  time="-9999999/1" value="0" leadInLength="0/1"  />
              <InterpolatingParam id="1439" interp="linr"  time="-9999999/1" value="0" leadInLength="0/1"  />
             </VectorParam>
             <VectorParam id="1440"  name="shear">
              <InterpolatingParam id="1441" interp="linr"  time="-9999999/1" value="0" leadInLength="0/1"  />
              <InterpolatingParam id="1442" interp="linr"  time="-9999999/1" value="0" leadInLength="0/1"  />
              <InterpolatingParam id="1443" interp="linr"  time="-9999999/1" value="0" leadInLength="0/1"  />
             </VectorParam>
             <VectorParam id="1444"  name="scale">
              <InterpolatingParam id="1445" interp="linr"  time="-9999999/1" value="1" leadInLength="0/1"  />
              <InterpolatingParam id="1446" interp="linr"  time="-9999999/1" value="1" leadInLength="0/1"  />
              <InterpolatingParam id="1447" interp="linr"  time="-9999999/1" value="1" leadInLength="0/1"  />
             </VectorParam>
             <VectorParam id="1448"  name="anchor">
              <InterpolatingParam id="1449" interp="linr"  time="0/1" value="0" leadInLength="0/1"  />
              <InterpolatingParam id="1450" interp="linr"  time="0/1" value="0" leadInLength="0/1"  />
              <InterpolatingParam id="1451" interp="linr"  time="0/1" value="0" leadInLength="0/1"  />
             </VectorParam>
            </Transformer>
            <Parameters>
             <VectorParam id="1452"  name="sourceCrop">
              <InterpolatingParam id="1453" interp="linr"  time="0/1" value="0" leadInLength="0/1"  />
              <InterpolatingParam id="1454" interp="linr"  time="0/1" value="0" leadInLength="0/1"  />
              <InterpolatingParam id="1455" interp="linr"  time="0/1" value="0" leadInLength="0/1"  />
              <InterpolatingParam id="1456" interp="linr"  time="0/1" value="0" leadInLength="0/1"  />
             </VectorParam>
             <VectorParam id="1457"  name="geometryCrop">
              <InterpolatingParam id="1458" interp="linr"  time="-9999999/1" value="0" leadInLength="0/1"  />
              <InterpolatingParam id="1459" interp="linr"  time="-9999999/1" value="0" leadInLength="0/1"  />
              <InterpolatingParam id="1460" interp="linr"  time="-9999999/1" value="0" leadInLength="0/1"  />
              <InterpolatingParam id="1461" interp="linr"  time="-9999999/1" value="0" leadInLength="0/1"  />
             </VectorParam>
             <InterpolatingParam id="1462" interp="linr"  time="-9999999/1" value="1" leadInLength="0/1"  name="opacity"/>
            </Parameters>
            <Attributes>
             <Attribute id="1463" value="" name="ident"/>
            </Attributes>
            <MetaData>
             <entry key="WinSubProjectDisplayName" val=""/>
            </MetaData>
            <ExtraData>
             <Entry key="ZoomPanBin">
              <ZoomPanBin id="1464"  >
               <ZoomPanKeyframes>
                <ZoomPanKeyframe id="1465" timeRangeEnd="-9999999/1" timeRangeDuration="0/1" interpolaterName=""  />
               </ZoomPanKeyframes>
              </ZoomPanBin>
             </Entry>
            </ExtraData>
           </VMFile>
           <IMFile id="1466" start="164" duration="53" scalar="1/1" mediaStart="164/1" mediaDuration="1/1" trackNumber="0" src="4" trimStartSum="0/1" >
            <Transformer>
             <VectorParam id="1467"  name="translation">
              <InterpolatingParam id="1468" interp="linr"  time="-9999999/1" value="0" leadInLength="0/1"  />
              <InterpolatingParam id="1469" interp="linr"  time="-9999999/1" value="0" leadInLength="0/1"  />
              <InterpolatingParam id="1470" interp="linr"  time="-9999999/1" value="0" leadInLength="0/1"  />
             </VectorParam>
             <VectorParam id="1471"  name="rotation">
              <InterpolatingParam id="1472" interp="linr"  time="-9999999/1" value="0" leadInLength="0/1"  />
              <InterpolatingParam id="1473" interp="linr"  time="-9999999/1" value="0" leadInLength="0/1"  />
              <InterpolatingParam id="1474" interp="linr"  time="-9999999/1" value="0" leadInLength="0/1"  />
             </VectorParam>
             <VectorParam id="1475"  name="shear">
              <InterpolatingParam id="1476" interp="linr"  time="-9999999/1" value="0" leadInLength="0/1"  />
              <InterpolatingParam id="1477" interp="linr"  time="-9999999/1" value="0" leadInLength="0/1"  />
              <InterpolatingParam id="1478" interp="linr"  time="-9999999/1" value="0" leadInLength="0/1"  />
             </VectorParam>
             <VectorParam id="1479"  name="scale">
              <InterpolatingParam id="1480" interp="linr"  time="-9999999/1" value="1" leadInLength="0/1"  />
              <InterpolatingParam id="1481" interp="linr"  time="-9999999/1" value="1" leadInLength="0/1"  />
              <InterpolatingParam id="1482" interp="linr"  time="-9999999/1" value="1" leadInLength="0/1"  />
             </VectorParam>
             <VectorParam id="1483"  name="anchor">
              <InterpolatingParam id="1484" interp="linr"  time="0/1" value="0" leadInLength="0/1"  />
              <InterpolatingParam id="1485" interp="linr"  time="0/1" value="0" leadInLength="0/1"  />
              <InterpolatingParam id="1486" interp="linr"  time="0/1" value="0" leadInLength="0/1"  />
             </VectorParam>
            </Transformer>
            <Parameters>
             <VectorParam id="1487"  name="sourceCrop">
              <InterpolatingParam id="1488" interp="linr"  time="0/1" value="0" leadInLength="0/1"  />
              <InterpolatingParam id="1489" interp="linr"  time="0/1" value="0" leadInLength="0/1"  />
              <InterpolatingParam id="1490" interp="linr"  time="0/1" value="0" leadInLength="0/1"  />
              <InterpolatingParam id="1491" interp="linr"  time="0/1" value="0" leadInLength="0/1"  />
             </VectorParam>
             <VectorParam id="1492"  name="geometryCrop">
              <InterpolatingParam id="1493" interp="linr"  time="-9999999/1" value="0" leadInLength="0/1"  />
              <InterpolatingParam id="1494" interp="linr"  time="-9999999/1" value="0" leadInLength="0/1"  />
              <InterpolatingParam id="1495" interp="linr"  time="-9999999/1" value="0" leadInLength="0/1"  />
              <InterpolatingParam id="1496" interp="linr"  time="-9999999/1" value="0" leadInLength="0/1"  />
             </VectorParam>
             <InterpolatingParam id="1497" interp="linr"  time="-9999999/1" value="1" leadInLength="0/1"  name="opacity"/>
            </Parameters>
            <Attributes>
             <Attribute id="1498" value="" name="ident"/>
            </Attributes>
            <MetaData>
             <entry key="WinSubProjectDisplayName" val=""/>
            </MetaData>
            <ExtraData>
             <Entry key="ZoomPanBin">
              <ZoomPanBin id="1499"  >
               <ZoomPanKeyframes>
                <ZoomPanKeyframe id="1500" timeRangeEnd="-9999999/1" timeRangeDuration="0/1" interpolaterName=""  />
               </ZoomPanKeyframes>
              </ZoomPanBin>
             </Entry>
            </ExtraData>
           </IMFile>
           <VMFile id="1501" start="217" duration="210" scalar="1/1" mediaStart="164/1" mediaDuration="210/1" trackNumber="0" src="4" >
            <Transformer>
             <VectorParam id="1502"  name="translation">
              <InterpolatingParam id="1503" interp="linr"  time="-9999999/1" value="0" leadInLength="0/1"  />
              <InterpolatingParam id="1504" interp="linr"  time="-9999999/1" value="0" leadInLength="0/1"  />
              <InterpolatingParam id="1505" interp="linr"  time="-9999999/1" value="0" leadInLength="0/1"  />
             </VectorParam>
             <VectorParam id="1506"  name="rotation">
              <InterpolatingParam id="1507" interp="linr"  time="-9999999/1" value="0" leadInLength="0/1"  />
              <InterpolatingParam id="1508" interp="linr"  time="-9999999/1" value="0" leadInLength="0/1"  />
              <InterpolatingParam id="1509" interp="linr"  time="-9999999/1" value="0" leadInLength="0/1"  />
             </VectorParam>
             <VectorParam id="1510"  name="shear">
              <InterpolatingParam id="1511" interp="linr"  time="-9999999/1" value="0" leadInLength="0/1"  />
              <InterpolatingParam id="1512" interp="linr"  time="-9999999/1" value="0" leadInLength="0/1"  />
              <InterpolatingParam id="1513" interp="linr"  time="-9999999/1" value="0" leadInLength="0/1"  />
             </VectorParam>
             <VectorParam id="1514"  name="scale">
              <InterpolatingParam id="1515" interp="linr"  time="-9999999/1" value="1" leadInLength="0/1"  />
              <InterpolatingParam id="1516" interp="linr"  time="-9999999/1" value="1" leadInLength="0/1"  />
              <InterpolatingParam id="1517" interp="linr"  time="-9999999/1" value="1" leadInLength="0/1"  />
             </VectorParam>
             <VectorParam id="1518"  name="anchor">
              <InterpolatingParam id="1519" interp="linr"  time="0/1" value="0" leadInLength="0/1"  />
              <InterpolatingParam id="1520" interp="linr"  time="0/1" value="0" leadInLength="0/1"  />
              <InterpolatingParam id="1521" interp="linr"  time="0/1" value="0" leadInLength="0/1"  />
             </VectorParam>
            </Transformer>
            <Parameters>
             <VectorParam id="1522"  name="sourceCrop">
              <InterpolatingParam id="1523" interp="linr"  time="0/1" value="0" leadInLength="0/1"  />
              <InterpolatingParam id="1524" interp="linr"  time="0/1" value="0" leadInLength="0/1"  />
              <InterpolatingParam id="1525" interp="linr"  time="0/1" value="0" leadInLength="0/1"  />
              <InterpolatingParam id="1526" interp="linr"  time="0/1" value="0" leadInLength="0/1"  />
             </VectorParam>
             <VectorParam id="1527"  name="geometryCrop">
              <InterpolatingParam id="1528" interp="linr"  time="-9999999/1" value="0" leadInLength="0/1"  />
              <InterpolatingParam id="1529" interp="linr"  time="-9999999/1" value="0" leadInLength="0/1"  />
              <InterpolatingParam id="1530" interp="linr"  time="-9999999/1" value="0" leadInLength="0/1"  />
              <InterpolatingParam id="1531" interp="linr"  time="-9999999/1" value="0" leadInLength="0/1"  />
             </VectorParam>
             <InterpolatingParam id="1532" interp="linr"  time="-9999999/1" value="1" leadInLength="0/1"  name="opacity"/>
            </Parameters>
            <Attributes>
             <Attribute id="1533" value="" name="ident"/>
            </Attributes>
            <MetaData>
             <entry key="WinSubProjectDisplayName" val=""/>
            </MetaData>
            <ExtraData>
             <Entry key="ZoomPanBin">
              <ZoomPanBin id="1534"  >
               <ZoomPanKeyframes>
                <ZoomPanKeyframe id="1535" timeRangeEnd="-9999999/1" timeRangeDuration="0/1" interpolaterName=""  />
               </ZoomPanKeyframes>
              </ZoomPanBin>
             </Entry>
            </ExtraData>
           </VMFile>
           <IMFile id="1536" start="427" duration="90" scalar="1/1" mediaStart="374/1" mediaDuration="1/1" trackNumber="0" src="4" trimStartSum="0/1" >
            <Transformer>
             <VectorParam id="1537"  name="translation">
              <InterpolatingParam id="1538" interp="linr"  time="-9999999/1" value="0" leadInLength="0/1"  />
              <InterpolatingParam id="1539" interp="linr"  time="-9999999/1" value="0" leadInLength="0/1"  />
              <InterpolatingParam id="1540" interp="linr"  time="-9999999/1" value="0" leadInLength="0/1"  />
             </VectorParam>
             <VectorParam id="1541"  name="rotation">
              <InterpolatingParam id="1542" interp="linr"  time="-9999999/1" value="0" leadInLength="0/1"  />
              <InterpolatingParam id="1543" interp="linr"  time="-9999999/1" value="0" leadInLength="0/1"  />
              <InterpolatingParam id="1544" interp="linr"  time="-9999999/1" value="0" leadInLength="0/1"  />
             </VectorParam>
             <VectorParam id="1545"  name="shear">
              <InterpolatingParam id="1546" interp="linr"  time="-9999999/1" value="0" leadInLength="0/1"  />
              <InterpolatingParam id="1547" interp="linr"  time="-9999999/1" value="0" leadInLength="0/1"  />
              <InterpolatingParam id="1548" interp="linr"  time="-9999999/1" value="0" leadInLength="0/1"  />
             </VectorParam>
             <VectorParam id="1549"  name="scale">
              <InterpolatingParam id="1550" interp="linr"  time="-9999999/1" value="1" leadInLength="0/1"  />
              <InterpolatingParam id="1551" interp="linr"  time="-9999999/1" value="1" leadInLength="0/1"  />
              <InterpolatingParam id="1552" interp="linr"  time="-9999999/1" value="1" leadInLength="0/1"  />
             </VectorParam>
             <VectorParam id="1553"  name="anchor">
              <InterpolatingParam id="1554" interp="linr"  time="0/1" value="0" leadInLength="0/1"  />
              <InterpolatingParam id="1555" interp="linr"  time="0/1" value="0" leadInLength="0/1"  />
              <InterpolatingParam id="1556" interp="linr"  time="0/1" value="0" leadInLength="0/1"  />
             </VectorParam>
            </Transformer>
            <Parameters>
             <VectorParam id="1557"  name="sourceCrop">
              <InterpolatingParam id="1558" interp="linr"  time="0/1" value="0" leadInLength="0/1"  />
              <InterpolatingParam id="1559" interp="linr"  time="0/1" value="0" leadInLength="0/1"  />
              <InterpolatingParam id="1560" interp="linr"  time="0/1" value="0" leadInLength="0/1"  />
              <InterpolatingParam id="1561" interp="linr"  time="0/1" value="0" leadInLength="0/1"  />
             </VectorParam>
             <VectorParam id="1562"  name="geometryCrop">
              <InterpolatingParam id="1563" interp="linr"  time="-9999999/1" value="0" leadInLength="0/1"  />
              <InterpolatingParam id="1564" interp="linr"  time="-9999999/1" value="0" leadInLength="0/1"  />
              <InterpolatingParam id="1565" interp="linr"  time="-9999999/1" value="0" leadInLength="0/1"  />
              <InterpolatingParam id="1566" interp="linr"  time="-9999999/1" value="0" leadInLength="0/1"  />
             </VectorParam>
             <InterpolatingParam id="1567" interp="linr"  time="-9999999/1" value="1" leadInLength="0/1"  name="opacity"/>
            </Parameters>
            <Attributes>
             <Attribute id="1568" value="" name="ident"/>
            </Attributes>
            <MetaData>
             <entry key="WinSubProjectDisplayName" val=""/>
            </MetaData>
            <ExtraData>
             <Entry key="ZoomPanBin">
              <ZoomPanBin id="1569"  >
               <ZoomPanKeyframes>
                <ZoomPanKeyframe id="1570" timeRangeEnd="-9999999/1" timeRangeDuration="0/1" interpolaterName=""  />
               </ZoomPanKeyframes>
              </ZoomPanBin>
             </Entry>
            </ExtraData>
           </IMFile>
           <VMFile id="1571" start="517" duration="9" scalar="1/1" mediaStart="374/1" mediaDuration="9/1" trackNumber="0" src="4" >
            <Transformer>
             <VectorParam id="1572"  name="translation">
              <InterpolatingParam id="1573" interp="linr"  time="-9999999/1" value="0" leadInLength="0/1"  />
              <InterpolatingParam id="1574" interp="linr"  time="-9999999/1" value="0" leadInLength="0/1"  />
              <InterpolatingParam id="1575" interp="linr"  time="-9999999/1" value="0" leadInLength="0/1"  />
             </VectorParam>
             <VectorParam id="1576"  name="rotation">
              <InterpolatingParam id="1577" interp="linr"  time="-9999999/1" value="0" leadInLength="0/1"  />
              <InterpolatingParam id="1578" interp="linr"  time="-9999999/1" value="0" leadInLength="0/1"  />
              <InterpolatingParam id="1579" interp="linr"  time="-9999999/1" value="0" leadInLength="0/1"  />
             </VectorParam>
             <VectorParam id="1580"  name="shear">
              <InterpolatingParam id="1581" interp="linr"  time="-9999999/1" value="0" leadInLength="0/1"  />
              <InterpolatingParam id="1582" interp="linr"  time="-9999999/1" value="0" leadInLength="0/1"  />
              <InterpolatingParam id="1583" interp="linr"  time="-9999999/1" value="0" leadInLength="0/1"  />
             </VectorParam>
             <VectorParam id="1584"  name="scale">
              <InterpolatingParam id="1585" interp="linr"  time="-9999999/1" value="1" leadInLength="0/1"  />
              <InterpolatingParam id="1586" interp="linr"  time="-9999999/1" value="1" leadInLength="0/1"  />
              <InterpolatingParam id="1587" interp="linr"  time="-9999999/1" value="1" leadInLength="0/1"  />
             </VectorParam>
             <VectorParam id="1588"  name="anchor">
              <InterpolatingParam id="1589" interp="linr"  time="0/1" value="0" leadInLength="0/1"  />
              <InterpolatingParam id="1590" interp="linr"  time="0/1" value="0" leadInLength="0/1"  />
              <InterpolatingParam id="1591" interp="linr"  time="0/1" value="0" leadInLength="0/1"  />
             </VectorParam>
            </Transformer>
            <Parameters>
             <VectorParam id="1592"  name="sourceCrop">
              <InterpolatingParam id="1593" interp="linr"  time="0/1" value="0" leadInLength="0/1"  />
              <InterpolatingParam id="1594" interp="linr"  time="0/1" value="0" leadInLength="0/1"  />
              <InterpolatingParam id="1595" interp="linr"  time="0/1" value="0" leadInLength="0/1"  />
              <InterpolatingParam id="1596" interp="linr"  time="0/1" value="0" leadInLength="0/1"  />
             </VectorParam>
             <VectorParam id="1597"  name="geometryCrop">
              <InterpolatingParam id="1598" interp="linr"  time="-9999999/1" value="0" leadInLength="0/1"  />
              <InterpolatingParam id="1599" interp="linr"  time="-9999999/1" value="0" leadInLength="0/1"  />
              <InterpolatingParam id="1600" interp="linr"  time="-9999999/1" value="0" leadInLength="0/1"  />
              <InterpolatingParam id="1601" interp="linr"  time="-9999999/1" value="0" leadInLength="0/1"  />
             </VectorParam>
             <InterpolatingParam id="1602" interp="linr"  time="-9999999/1" value="1" leadInLength="0/1"  name="opacity"/>
            </Parameters>
            <Attributes>
             <Attribute id="1603" value="" name="ident"/>
            </Attributes>
            <MetaData>
             <entry key="WinSubProjectDisplayName" val=""/>
            </MetaData>
            <ExtraData>
             <Entry key="ZoomPanBin">
              <ZoomPanBin id="1604"  >
               <ZoomPanKeyframes>
                <ZoomPanKeyframe id="1605" timeRangeEnd="-9999999/1" timeRangeDuration="0/1" interpolaterName=""  />
               </ZoomPanKeyframes>
              </ZoomPanBin>
             </Entry>
            </ExtraData>
           </VMFile>
           <VMFile id="1606" start="526" duration="244" scalar="1/1" mediaStart="506/1" mediaDuration="244/1" trackNumber="0" src="4" >
            <Transformer>
             <VectorParam id="1607"  name="translation">
              <InterpolatingParam id="1608" interp="linr"  time="-9999999/1" value="0" leadInLength="0/1"  />
              <InterpolatingParam id="1609" interp="linr"  time="-9999999/1" value="0" leadInLength="0/1"  />
              <InterpolatingParam id="1610" interp="linr"  time="-9999999/1" value="0" leadInLength="0/1"  />
             </VectorParam>
             <VectorParam id="1611"  name="rotation">
              <InterpolatingParam id="1612" interp="linr"  time="-9999999/1" value="0" leadInLength="0/1"  />
              <InterpolatingParam id="1613" interp="linr"  time="-9999999/1" value="0" leadInLength="0/1"  />
              <InterpolatingParam id="1614" interp="linr"  time="-9999999/1" value="0" leadInLength="0/1"  />
             </VectorParam>
             <VectorParam id="1615"  name="shear">
              <InterpolatingParam id="1616" interp="linr"  time="-9999999/1" value="0" leadInLength="0/1"  />
              <InterpolatingParam id="1617" interp="linr"  time="-9999999/1" value="0" leadInLength="0/1"  />
              <InterpolatingParam id="1618" interp="linr"  time="-9999999/1" value="0" leadInLength="0/1"  />
             </VectorParam>
             <VectorParam id="1619"  name="scale">
              <InterpolatingParam id="1620" interp="linr"  time="-9999999/1" value="1" leadInLength="0/1"  />
              <InterpolatingParam id="1621" interp="linr"  time="-9999999/1" value="1" leadInLength="0/1"  />
              <InterpolatingParam id="1622" interp="linr"  time="-9999999/1" value="1" leadInLength="0/1"  />
             </VectorParam>
             <VectorParam id="1623"  name="anchor">
              <InterpolatingParam id="1624" interp="linr"  time="0/1" value="0" leadInLength="0/1"  />
              <InterpolatingParam id="1625" interp="linr"  time="0/1" value="0" leadInLength="0/1"  />
              <InterpolatingParam id="1626" interp="linr"  time="0/1" value="0" leadInLength="0/1"  />
             </VectorParam>
            </Transformer>
            <Parameters>
             <VectorParam id="1627"  name="sourceCrop">
              <InterpolatingParam id="1628" interp="linr"  time="0/1" value="0" leadInLength="0/1"  />
              <InterpolatingParam id="1629" interp="linr"  time="0/1" value="0" leadInLength="0/1"  />
              <InterpolatingParam id="1630" interp="linr"  time="0/1" value="0" leadInLength="0/1"  />
              <InterpolatingParam id="1631" interp="linr"  time="0/1" value="0" leadInLength="0/1"  />
             </VectorParam>
             <VectorParam id="1632"  name="geometryCrop">
              <InterpolatingParam id="1633" interp="linr"  time="-9999999/1" value="0" leadInLength="0/1"  />
              <InterpolatingParam id="1634" interp="linr"  time="-9999999/1" value="0" leadInLength="0/1"  />
              <InterpolatingParam id="1635" interp="linr"  time="-9999999/1" value="0" leadInLength="0/1"  />
              <InterpolatingParam id="1636" interp="linr"  time="-9999999/1" value="0" leadInLength="0/1"  />
             </VectorParam>
             <InterpolatingParam id="1637" interp="linr"  time="-9999999/1" value="1" leadInLength="0/1"  name="opacity"/>
            </Parameters>
            <Attributes>
             <Attribute id="1638" value="" name="ident"/>
            </Attributes>
            <MetaData>
             <entry key="WinSubProjectDisplayName" val=""/>
            </MetaData>
            <ExtraData>
             <Entry key="ZoomPanBin">
              <ZoomPanBin id="1639"  >
               <ZoomPanKeyframes>
                <ZoomPanKeyframe id="1640" timeRangeEnd="-9999999/1" timeRangeDuration="0/1" interpolaterName=""  />
               </ZoomPanKeyframes>
              </ZoomPanBin>
             </Entry>
            </ExtraData>
           </VMFile>
           <VMFile id="1641" start="770" duration="709" scalar="1/1" mediaStart="858/1" mediaDuration="709/1" trackNumber="0" src="4" >
            <Transformer>
             <VectorParam id="1642"  name="translation">
              <InterpolatingParam id="1643" interp="linr"  time="-9999999/1" value="0" leadInLength="0/1"  />
              <InterpolatingParam id="1644" interp="linr"  time="-9999999/1" value="0" leadInLength="0/1"  />
              <InterpolatingParam id="1645" interp="linr"  time="-9999999/1" value="0" leadInLength="0/1"  />
             </VectorParam>
             <VectorParam id="1646"  name="rotation">
              <InterpolatingParam id="1647" interp="linr"  time="-9999999/1" value="0" leadInLength="0/1"  />
              <InterpolatingParam id="1648" interp="linr"  time="-9999999/1" value="0" leadInLength="0/1"  />
              <InterpolatingParam id="1649" interp="linr"  time="-9999999/1" value="0" leadInLength="0/1"  />
             </VectorParam>
             <VectorParam id="1650"  name="shear">
              <InterpolatingParam id="1651" interp="linr"  time="-9999999/1" value="0" leadInLength="0/1"  />
              <InterpolatingParam id="1652" interp="linr"  time="-9999999/1" value="0" leadInLength="0/1"  />
              <InterpolatingParam id="1653" interp="linr"  time="-9999999/1" value="0" leadInLength="0/1"  />
             </VectorParam>
             <VectorParam id="1654"  name="scale">
              <InterpolatingParam id="1655" interp="linr"  time="-9999999/1" value="1" leadInLength="0/1"  />
              <InterpolatingParam id="1656" interp="linr"  time="-9999999/1" value="1" leadInLength="0/1"  />
              <InterpolatingParam id="1657" interp="linr"  time="-9999999/1" value="1" leadInLength="0/1"  />
             </VectorParam>
             <VectorParam id="1658"  name="anchor">
              <InterpolatingParam id="1659" interp="linr"  time="0/1" value="0" leadInLength="0/1"  />
              <InterpolatingParam id="1660" interp="linr"  time="0/1" value="0" leadInLength="0/1"  />
              <InterpolatingParam id="1661" interp="linr"  time="0/1" value="0" leadInLength="0/1"  />
             </VectorParam>
            </Transformer>
            <Parameters>
             <VectorParam id="1662"  name="sourceCrop">
              <InterpolatingParam id="1663" interp="linr"  time="0/1" value="0" leadInLength="0/1"  />
              <InterpolatingParam id="1664" interp="linr"  time="0/1" value="0" leadInLength="0/1"  />
              <InterpolatingParam id="1665" interp="linr"  time="0/1" value="0" leadInLength="0/1"  />
              <InterpolatingParam id="1666" interp="linr"  time="0/1" value="0" leadInLength="0/1"  />
             </VectorParam>
             <VectorParam id="1667"  name="geometryCrop">
              <InterpolatingParam id="1668" interp="linr"  time="-9999999/1" value="0" leadInLength="0/1"  />
              <InterpolatingParam id="1669" interp="linr"  time="-9999999/1" value="0" leadInLength="0/1"  />
              <InterpolatingParam id="1670" interp="linr"  time="-9999999/1" value="0" leadInLength="0/1"  />
              <InterpolatingParam id="1671" interp="linr"  time="-9999999/1" value="0" leadInLength="0/1"  />
             </VectorParam>
             <InterpolatingParam id="1672" interp="linr"  time="-9999999/1" value="1" leadInLength="0/1"  name="opacity"/>
            </Parameters>
            <Attributes>
             <Attribute id="1673" value="" name="ident"/>
            </Attributes>
            <MetaData>
             <entry key="WinSubProjectDisplayName" val=""/>
            </MetaData>
            <ExtraData>
             <Entry key="ZoomPanBin">
              <ZoomPanBin id="1674"  >
               <ZoomPanKeyframes>
                <ZoomPanKeyframe id="1675" timeRangeEnd="-9999999/1" timeRangeDuration="0/1" interpolaterName=""  />
               </ZoomPanKeyframes>
              </ZoomPanBin>
             </Entry>
            </ExtraData>
           </VMFile>
           <VMFile id="1676" start="1479" duration="169" scalar="1/1" mediaStart="1711/1" mediaDuration="169/1" trackNumber="0" src="4" >
            <Transformer>
             <VectorParam id="1677"  name="translation">
              <InterpolatingParam id="1678" interp="linr"  time="-9999999/1" value="0" leadInLength="0/1"  />
              <InterpolatingParam id="1679" interp="linr"  time="-9999999/1" value="0" leadInLength="0/1"  />
              <InterpolatingParam id="1680" interp="linr"  time="-9999999/1" value="0" leadInLength="0/1"  />
             </VectorParam>
             <VectorParam id="1681"  name="rotation">
              <InterpolatingParam id="1682" interp="linr"  time="-9999999/1" value="0" leadInLength="0/1"  />
              <InterpolatingParam id="1683" interp="linr"  time="-9999999/1" value="0" leadInLength="0/1"  />
              <InterpolatingParam id="1684" interp="linr"  time="-9999999/1" value="0" leadInLength="0/1"  />
             </VectorParam>
             <VectorParam id="1685"  name="shear">
              <InterpolatingParam id="1686" interp="linr"  time="-9999999/1" value="0" leadInLength="0/1"  />
              <InterpolatingParam id="1687" interp="linr"  time="-9999999/1" value="0" leadInLength="0/1"  />
              <InterpolatingParam id="1688" interp="linr"  time="-9999999/1" value="0" leadInLength="0/1"  />
             </VectorParam>
             <VectorParam id="1689"  name="scale">
              <InterpolatingParam id="1690" interp="linr"  time="-9999999/1" value="1" leadInLength="0/1"  />
              <InterpolatingParam id="1691" interp="linr"  time="-9999999/1" value="1" leadInLength="0/1"  />
              <InterpolatingParam id="1692" interp="linr"  time="-9999999/1" value="1" leadInLength="0/1"  />
             </VectorParam>
             <VectorParam id="1693"  name="anchor">
              <InterpolatingParam id="1694" interp="linr"  time="0/1" value="0" leadInLength="0/1"  />
              <InterpolatingParam id="1695" interp="linr"  time="0/1" value="0" leadInLength="0/1"  />
              <InterpolatingParam id="1696" interp="linr"  time="0/1" value="0" leadInLength="0/1"  />
             </VectorParam>
            </Transformer>
            <Parameters>
             <VectorParam id="1697"  name="sourceCrop">
              <InterpolatingParam id="1698" interp="linr"  time="0/1" value="0" leadInLength="0/1"  />
              <InterpolatingParam id="1699" interp="linr"  time="0/1" value="0" leadInLength="0/1"  />
              <InterpolatingParam id="1700" interp="linr"  time="0/1" value="0" leadInLength="0/1"  />
              <InterpolatingParam id="1701" interp="linr"  time="0/1" value="0" leadInLength="0/1"  />
             </VectorParam>
             <VectorParam id="1702"  name="geometryCrop">
              <InterpolatingParam id="1703" interp="linr"  time="-9999999/1" value="0" leadInLength="0/1"  />
              <InterpolatingParam id="1704" interp="linr"  time="-9999999/1" value="0" leadInLength="0/1"  />
              <InterpolatingParam id="1705" interp="linr"  time="-9999999/1" value="0" leadInLength="0/1"  />
              <InterpolatingParam id="1706" interp="linr"  time="-9999999/1" value="0" leadInLength="0/1"  />
             </VectorParam>
             <InterpolatingParam id="1707" interp="linr"  time="-9999999/1" value="1" leadInLength="0/1"  name="opacity"/>
            </Parameters>
            <Attributes>
             <Attribute id="1708" value="" name="ident"/>
            </Attributes>
            <MetaData>
             <entry key="WinSubProjectDisplayName" val=""/>
            </MetaData>
            <ExtraData>
             <Entry key="ZoomPanBin">
              <ZoomPanBin id="1709"  >
               <ZoomPanKeyframes>
                <ZoomPanKeyframe id="1710" timeRangeEnd="-9999999/1" timeRangeDuration="0/1" interpolaterName=""  />
               </ZoomPanKeyframes>
              </ZoomPanBin>
             </Entry>
            </ExtraData>
           </VMFile>
           <VMFile id="1711" start="1648" duration="144" scalar="1/1" mediaStart="2061/1" mediaDuration="144/1" trackNumber="0" src="4" >
            <Transformer>
             <VectorParam id="1712"  name="translation">
              <InterpolatingParam id="1713" interp="linr"  time="-9999999/1" value="0" leadInLength="0/1"  />
              <InterpolatingParam id="1714" interp="linr"  time="-9999999/1" value="0" leadInLength="0/1"  />
              <InterpolatingParam id="1715" interp="linr"  time="-9999999/1" value="0" leadInLength="0/1"  />
             </VectorParam>
             <VectorParam id="1716"  name="rotation">
              <InterpolatingParam id="1717" interp="linr"  time="-9999999/1" value="0" leadInLength="0/1"  />
              <InterpolatingParam id="1718" interp="linr"  time="-9999999/1" value="0" leadInLength="0/1"  />
              <InterpolatingParam id="1719" interp="linr"  time="-9999999/1" value="0" leadInLength="0/1"  />
             </VectorParam>
             <VectorParam id="1720"  name="shear">
              <InterpolatingParam id="1721" interp="linr"  time="-9999999/1" value="0" leadInLength="0/1"  />
              <InterpolatingParam id="1722" interp="linr"  time="-9999999/1" value="0" leadInLength="0/1"  />
              <InterpolatingParam id="1723" interp="linr"  time="-9999999/1" value="0" leadInLength="0/1"  />
             </VectorParam>
             <VectorParam id="1724"  name="scale">
              <InterpolatingParam id="1725" interp="linr"  time="-9999999/1" value="1" leadInLength="0/1"  />
              <InterpolatingParam id="1726" interp="linr"  time="-9999999/1" value="1" leadInLength="0/1"  />
              <InterpolatingParam id="1727" interp="linr"  time="-9999999/1" value="1" leadInLength="0/1"  />
             </VectorParam>
             <VectorParam id="1728"  name="anchor">
              <InterpolatingParam id="1729" interp="linr"  time="0/1" value="0" leadInLength="0/1"  />
              <InterpolatingParam id="1730" interp="linr"  time="0/1" value="0" leadInLength="0/1"  />
              <InterpolatingParam id="1731" interp="linr"  time="0/1" value="0" leadInLength="0/1"  />
             </VectorParam>
            </Transformer>
            <Parameters>
             <VectorParam id="1732"  name="sourceCrop">
              <InterpolatingParam id="1733" interp="linr"  time="0/1" value="0" leadInLength="0/1"  />
              <InterpolatingParam id="1734" interp="linr"  time="0/1" value="0" leadInLength="0/1"  />
              <InterpolatingParam id="1735" interp="linr"  time="0/1" value="0" leadInLength="0/1"  />
              <InterpolatingParam id="1736" interp="linr"  time="0/1" value="0" leadInLength="0/1"  />
             </VectorParam>
             <VectorParam id="1737"  name="geometryCrop">
              <InterpolatingParam id="1738" interp="linr"  time="-9999999/1" value="0" leadInLength="0/1"  />
              <InterpolatingParam id="1739" interp="linr"  time="-9999999/1" value="0" leadInLength="0/1"  />
              <InterpolatingParam id="1740" interp="linr"  time="-9999999/1" value="0" leadInLength="0/1"  />
              <InterpolatingParam id="1741" interp="linr"  time="-9999999/1" value="0" leadInLength="0/1"  />
             </VectorParam>
             <InterpolatingParam id="1742" interp="linr"  time="-9999999/1" value="1" leadInLength="0/1"  name="opacity"/>
            </Parameters>
            <Attributes>
             <Attribute id="1743" value="" name="ident"/>
            </Attributes>
            <MetaData>
             <entry key="WinSubProjectDisplayName" val=""/>
            </MetaData>
            <ExtraData>
             <Entry key="ZoomPanBin">
              <ZoomPanBin id="1744"  >
               <ZoomPanKeyframes>
                <ZoomPanKeyframe id="1745" timeRangeEnd="-9999999/1" timeRangeDuration="0/1" interpolaterName=""  />
               </ZoomPanKeyframes>
              </ZoomPanBin>
             </Entry>
            </ExtraData>
           </VMFile>
           <VMFile id="1746" start="1792" duration="474" scalar="1/1" mediaStart="2294/1" mediaDuration="474/1" trackNumber="0" src="4" >
            <Transformer>
             <VectorParam id="1747"  name="translation">
              <InterpolatingParam id="1748" interp="linr"  time="-9999999/1" value="0" leadInLength="0/1"  />
              <InterpolatingParam id="1749" interp="linr"  time="-9999999/1" value="0" leadInLength="0/1"  />
              <InterpolatingParam id="1750" interp="linr"  time="-9999999/1" value="0" leadInLength="0/1"  />
             </VectorParam>
             <VectorParam id="1751"  name="rotation">
              <InterpolatingParam id="1752" interp="linr"  time="-9999999/1" value="0" leadInLength="0/1"  />
              <InterpolatingParam id="1753" interp="linr"  time="-9999999/1" value="0" leadInLength="0/1"  />
              <InterpolatingParam id="1754" interp="linr"  time="-9999999/1" value="0" leadInLength="0/1"  />
             </VectorParam>
             <VectorParam id="1755"  name="shear">
              <InterpolatingParam id="1756" interp="linr"  time="-9999999/1" value="0" leadInLength="0/1"  />
              <InterpolatingParam id="1757" interp="linr"  time="-9999999/1" value="0" leadInLength="0/1"  />
              <InterpolatingParam id="1758" interp="linr"  time="-9999999/1" value="0" leadInLength="0/1"  />
             </VectorParam>
             <VectorParam id="1759"  name="scale">
              <InterpolatingParam id="1760" interp="linr"  time="-9999999/1" value="1" leadInLength="0/1"  />
              <InterpolatingParam id="1761" interp="linr"  time="-9999999/1" value="1" leadInLength="0/1"  />
              <InterpolatingParam id="1762" interp="linr"  time="-9999999/1" value="1" leadInLength="0/1"  />
             </VectorParam>
             <VectorParam id="1763"  name="anchor">
              <InterpolatingParam id="1764" interp="linr"  time="0/1" value="0" leadInLength="0/1"  />
              <InterpolatingParam id="1765" interp="linr"  time="0/1" value="0" leadInLength="0/1"  />
              <InterpolatingParam id="1766" interp="linr"  time="0/1" value="0" leadInLength="0/1"  />
             </VectorParam>
            </Transformer>
            <Parameters>
             <VectorParam id="1767"  name="sourceCrop">
              <InterpolatingParam id="1768" interp="linr"  time="0/1" value="0" leadInLength="0/1"  />
              <InterpolatingParam id="1769" interp="linr"  time="0/1" value="0" leadInLength="0/1"  />
              <InterpolatingParam id="1770" interp="linr"  time="0/1" value="0" leadInLength="0/1"  />
              <InterpolatingParam id="1771" interp="linr"  time="0/1" value="0" leadInLength="0/1"  />
             </VectorParam>
             <VectorParam id="1772"  name="geometryCrop">
              <InterpolatingParam id="1773" interp="linr"  time="-9999999/1" value="0" leadInLength="0/1"  />
              <InterpolatingParam id="1774" interp="linr"  time="-9999999/1" value="0" leadInLength="0/1"  />
              <InterpolatingParam id="1775" interp="linr"  time="-9999999/1" value="0" leadInLength="0/1"  />
              <InterpolatingParam id="1776" interp="linr"  time="-9999999/1" value="0" leadInLength="0/1"  />
             </VectorParam>
             <InterpolatingParam id="1777" interp="linr"  time="-9999999/1" value="1" leadInLength="0/1"  name="opacity"/>
            </Parameters>
            <Attributes>
             <Attribute id="1778" value="" name="ident"/>
            </Attributes>
            <MetaData>
             <entry key="WinSubProjectDisplayName" val=""/>
            </MetaData>
            <ExtraData>
             <Entry key="ZoomPanBin">
              <ZoomPanBin id="1779"  >
               <ZoomPanKeyframes>
                <ZoomPanKeyframe id="1780" timeRangeEnd="-9999999/1" timeRangeDuration="0/1" interpolaterName=""  />
               </ZoomPanKeyframes>
              </ZoomPanBin>
             </Entry>
            </ExtraData>
           </VMFile>
           <VMFile id="1781" start="2266" duration="386" scalar="1/1" mediaStart="2880/1" mediaDuration="386/1" trackNumber="0" src="4" >
            <Transformer>
             <VectorParam id="1782"  name="translation">
              <InterpolatingParam id="1783" interp="linr"  time="-9999999/1" value="0" leadInLength="0/1"  />
              <InterpolatingParam id="1784" interp="linr"  time="-9999999/1" value="0" leadInLength="0/1"  />
              <InterpolatingParam id="1785" interp="linr"  time="-9999999/1" value="0" leadInLength="0/1"  />
             </VectorParam>
             <VectorParam id="1786"  name="rotation">
              <InterpolatingParam id="1787" interp="linr"  time="-9999999/1" value="0" leadInLength="0/1"  />
              <InterpolatingParam id="1788" interp="linr"  time="-9999999/1" value="0" leadInLength="0/1"  />
              <InterpolatingParam id="1789" interp="linr"  time="-9999999/1" value="0" leadInLength="0/1"  />
             </VectorParam>
             <VectorParam id="1790"  name="shear">
              <InterpolatingParam id="1791" interp="linr"  time="-9999999/1" value="0" leadInLength="0/1"  />
              <InterpolatingParam id="1792" interp="linr"  time="-9999999/1" value="0" leadInLength="0/1"  />
              <InterpolatingParam id="1793" interp="linr"  time="-9999999/1" value="0" leadInLength="0/1"  />
             </VectorParam>
             <VectorParam id="1794"  name="scale">
              <InterpolatingParam id="1795" interp="linr"  time="-9999999/1" value="1" leadInLength="0/1"  />
              <InterpolatingParam id="1796" interp="linr"  time="-9999999/1" value="1" leadInLength="0/1"  />
              <InterpolatingParam id="1797" interp="linr"  time="-9999999/1" value="1" leadInLength="0/1"  />
             </VectorParam>
             <VectorParam id="1798"  name="anchor">
              <InterpolatingParam id="1799" interp="linr"  time="0/1" value="0" leadInLength="0/1"  />
              <InterpolatingParam id="1800" interp="linr"  time="0/1" value="0" leadInLength="0/1"  />
              <InterpolatingParam id="1801" interp="linr"  time="0/1" value="0" leadInLength="0/1"  />
             </VectorParam>
            </Transformer>
            <Parameters>
             <VectorParam id="1802"  name="sourceCrop">
              <InterpolatingParam id="1803" interp="linr"  time="0/1" value="0" leadInLength="0/1"  />
              <InterpolatingParam id="1804" interp="linr"  time="0/1" value="0" leadInLength="0/1"  />
              <InterpolatingParam id="1805" interp="linr"  time="0/1" value="0" leadInLength="0/1"  />
              <InterpolatingParam id="1806" interp="linr"  time="0/1" value="0" leadInLength="0/1"  />
             </VectorParam>
             <VectorParam id="1807"  name="geometryCrop">
              <InterpolatingParam id="1808" interp="linr"  time="-9999999/1" value="0" leadInLength="0/1"  />
              <InterpolatingParam id="1809" interp="linr"  time="-9999999/1" value="0" leadInLength="0/1"  />
              <InterpolatingParam id="1810" interp="linr"  time="-9999999/1" value="0" leadInLength="0/1"  />
              <InterpolatingParam id="1811" interp="linr"  time="-9999999/1" value="0" leadInLength="0/1"  />
             </VectorParam>
             <InterpolatingParam id="1812" interp="linr"  time="-9999999/1" value="1" leadInLength="0/1"  name="opacity"/>
            </Parameters>
            <Attributes>
             <Attribute id="1813" value="" name="ident"/>
            </Attributes>
            <MetaData>
             <entry key="WinSubProjectDisplayName" val=""/>
            </MetaData>
            <ExtraData>
             <Entry key="ZoomPanBin">
              <ZoomPanBin id="1814"  >
               <ZoomPanKeyframes>
                <ZoomPanKeyframe id="1815" timeRangeEnd="-9999999/1" timeRangeDuration="0/1" interpolaterName=""  />
               </ZoomPanKeyframes>
              </ZoomPanBin>
             </Entry>
            </ExtraData>
           </VMFile>
           <VMFile id="1816" start="2652" duration="314" scalar="1/1" mediaStart="4032/1" mediaDuration="314/1" trackNumber="0" src="4" >
            <Transformer>
             <VectorParam id="1817"  name="translation">
              <InterpolatingParam id="1818" interp="linr"  time="-9999999/1" value="0" leadInLength="0/1"  />
              <InterpolatingParam id="1819" interp="linr"  time="-9999999/1" value="0" leadInLength="0/1"  />
              <InterpolatingParam id="1820" interp="linr"  time="-9999999/1" value="0" leadInLength="0/1"  />
             </VectorParam>
             <VectorParam id="1821"  name="rotation">
              <InterpolatingParam id="1822" interp="linr"  time="-9999999/1" value="0" leadInLength="0/1"  />
              <InterpolatingParam id="1823" interp="linr"  time="-9999999/1" value="0" leadInLength="0/1"  />
              <InterpolatingParam id="1824" interp="linr"  time="-9999999/1" value="0" leadInLength="0/1"  />
             </VectorParam>
             <VectorParam id="1825"  name="shear">
              <InterpolatingParam id="1826" interp="linr"  time="-9999999/1" value="0" leadInLength="0/1"  />
              <InterpolatingParam id="1827" interp="linr"  time="-9999999/1" value="0" leadInLength="0/1"  />
              <InterpolatingParam id="1828" interp="linr"  time="-9999999/1" value="0" leadInLength="0/1"  />
             </VectorParam>
             <VectorParam id="1829"  name="scale">
              <InterpolatingParam id="1830" interp="linr"  time="-9999999/1" value="1" leadInLength="0/1"  />
              <InterpolatingParam id="1831" interp="linr"  time="-9999999/1" value="1" leadInLength="0/1"  />
              <InterpolatingParam id="1832" interp="linr"  time="-9999999/1" value="1" leadInLength="0/1"  />
             </VectorParam>
             <VectorParam id="1833"  name="anchor">
              <InterpolatingParam id="1834" interp="linr"  time="0/1" value="0" leadInLength="0/1"  />
              <InterpolatingParam id="1835" interp="linr"  time="0/1" value="0" leadInLength="0/1"  />
              <InterpolatingParam id="1836" interp="linr"  time="0/1" value="0" leadInLength="0/1"  />
             </VectorParam>
            </Transformer>
            <Parameters>
             <VectorParam id="1837"  name="sourceCrop">
              <InterpolatingParam id="1838" interp="linr"  time="0/1" value="0" leadInLength="0/1"  />
              <InterpolatingParam id="1839" interp="linr"  time="0/1" value="0" leadInLength="0/1"  />
              <InterpolatingParam id="1840" interp="linr"  time="0/1" value="0" leadInLength="0/1"  />
              <InterpolatingParam id="1841" interp="linr"  time="0/1" value="0" leadInLength="0/1"  />
             </VectorParam>
             <VectorParam id="1842"  name="geometryCrop">
              <InterpolatingParam id="1843" interp="linr"  time="-9999999/1" value="0" leadInLength="0/1"  />
              <InterpolatingParam id="1844" interp="linr"  time="-9999999/1" value="0" leadInLength="0/1"  />
              <InterpolatingParam id="1845" interp="linr"  time="-9999999/1" value="0" leadInLength="0/1"  />
              <InterpolatingParam id="1846" interp="linr"  time="-9999999/1" value="0" leadInLength="0/1"  />
             </VectorParam>
             <InterpolatingParam id="1847" interp="linr"  time="-9999999/1" value="1" leadInLength="0/1"  name="opacity"/>
            </Parameters>
            <Attributes>
             <Attribute id="1848" value="" name="ident"/>
            </Attributes>
            <MetaData>
             <entry key="WinSubProjectDisplayName" val=""/>
            </MetaData>
            <ExtraData>
             <Entry key="ZoomPanBin">
              <ZoomPanBin id="1849"  >
               <ZoomPanKeyframes>
                <ZoomPanKeyframe id="1850" timeRangeEnd="-9999999/1" timeRangeDuration="0/1" interpolaterName=""  />
               </ZoomPanKeyframes>
              </ZoomPanBin>
             </Entry>
            </ExtraData>
           </VMFile>
           <VMFile id="1851" start="2966" duration="112" scalar="1/1" mediaStart="4751/1" mediaDuration="112/1" trackNumber="0" src="4" >
            <Transformer>
             <VectorParam id="1852"  name="translation">
              <InterpolatingParam id="1853" interp="linr"  time="-9999999/1" value="0" leadInLength="0/1"  />
              <InterpolatingParam id="1854" interp="linr"  time="-9999999/1" value="0" leadInLength="0/1"  />
              <InterpolatingParam id="1855" interp="linr"  time="-9999999/1" value="0" leadInLength="0/1"  />
             </VectorParam>
             <VectorParam id="1856"  name="rotation">
              <InterpolatingParam id="1857" interp="linr"  time="-9999999/1" value="0" leadInLength="0/1"  />
              <InterpolatingParam id="1858" interp="linr"  time="-9999999/1" value="0" leadInLength="0/1"  />
              <InterpolatingParam id="1859" interp="linr"  time="-9999999/1" value="0" leadInLength="0/1"  />
             </VectorParam>
             <VectorParam id="1860"  name="shear">
              <InterpolatingParam id="1861" interp="linr"  time="-9999999/1" value="0" leadInLength="0/1"  />
              <InterpolatingParam id="1862" interp="linr"  time="-9999999/1" value="0" leadInLength="0/1"  />
              <InterpolatingParam id="1863" interp="linr"  time="-9999999/1" value="0" leadInLength="0/1"  />
             </VectorParam>
             <VectorParam id="1864"  name="scale">
              <InterpolatingParam id="1865" interp="linr"  time="-9999999/1" value="1" leadInLength="0/1"  />
              <InterpolatingParam id="1866" interp="linr"  time="-9999999/1" value="1" leadInLength="0/1"  />
              <InterpolatingParam id="1867" interp="linr"  time="-9999999/1" value="1" leadInLength="0/1"  />
             </VectorParam>
             <VectorParam id="1868"  name="anchor">
              <InterpolatingParam id="1869" interp="linr"  time="0/1" value="0" leadInLength="0/1"  />
              <InterpolatingParam id="1870" interp="linr"  time="0/1" value="0" leadInLength="0/1"  />
              <InterpolatingParam id="1871" interp="linr"  time="0/1" value="0" leadInLength="0/1"  />
             </VectorParam>
            </Transformer>
            <Parameters>
             <VectorParam id="1872"  name="sourceCrop">
              <InterpolatingParam id="1873" interp="linr"  time="0/1" value="0" leadInLength="0/1"  />
              <InterpolatingParam id="1874" interp="linr"  time="0/1" value="0" leadInLength="0/1"  />
              <InterpolatingParam id="1875" interp="linr"  time="0/1" value="0" leadInLength="0/1"  />
              <InterpolatingParam id="1876" interp="linr"  time="0/1" value="0" leadInLength="0/1"  />
             </VectorParam>
             <VectorParam id="1877"  name="geometryCrop">
              <InterpolatingParam id="1878" interp="linr"  time="-9999999/1" value="0" leadInLength="0/1"  />
              <InterpolatingParam id="1879" interp="linr"  time="-9999999/1" value="0" leadInLength="0/1"  />
              <InterpolatingParam id="1880" interp="linr"  time="-9999999/1" value="0" leadInLength="0/1"  />
              <InterpolatingParam id="1881" interp="linr"  time="-9999999/1" value="0" leadInLength="0/1"  />
             </VectorParam>
             <InterpolatingParam id="1882" interp="linr"  time="-9999999/1" value="1" leadInLength="0/1"  name="opacity"/>
            </Parameters>
            <Attributes>
             <Attribute id="1883" value="" name="ident"/>
            </Attributes>
            <MetaData>
             <entry key="WinSubProjectDisplayName" val=""/>
            </MetaData>
            <ExtraData>
             <Entry key="ZoomPanBin">
              <ZoomPanBin id="1884"  >
               <ZoomPanKeyframes>
                <ZoomPanKeyframe id="1885" timeRangeEnd="-9999999/1" timeRangeDuration="0/1" interpolaterName=""  />
               </ZoomPanKeyframes>
              </ZoomPanBin>
             </Entry>
            </ExtraData>
           </VMFile>
           <VMFile id="1886" start="3078" duration="386" scalar="1/1" mediaStart="7805/1" mediaDuration="386/1" trackNumber="0" src="4" >
            <Transformer>
             <VectorParam id="1887"  name="translation">
              <InterpolatingParam id="1888" interp="linr"  time="-9999999/1" value="0" leadInLength="0/1"  />
              <InterpolatingParam id="1889" interp="linr"  time="-9999999/1" value="0" leadInLength="0/1"  />
              <InterpolatingParam id="1890" interp="linr"  time="-9999999/1" value="0" leadInLength="0/1"  />
             </VectorParam>
             <VectorParam id="1891"  name="rotation">
              <InterpolatingParam id="1892" interp="linr"  time="-9999999/1" value="0" leadInLength="0/1"  />
              <InterpolatingParam id="1893" interp="linr"  time="-9999999/1" value="0" leadInLength="0/1"  />
              <InterpolatingParam id="1894" interp="linr"  time="-9999999/1" value="0" leadInLength="0/1"  />
             </VectorParam>
             <VectorParam id="1895"  name="shear">
              <InterpolatingParam id="1896" interp="linr"  time="-9999999/1" value="0" leadInLength="0/1"  />
              <InterpolatingParam id="1897" interp="linr"  time="-9999999/1" value="0" leadInLength="0/1"  />
              <InterpolatingParam id="1898" interp="linr"  time="-9999999/1" value="0" leadInLength="0/1"  />
             </VectorParam>
             <VectorParam id="1899"  name="scale">
              <InterpolatingParam id="1900" interp="linr"  time="-9999999/1" value="1" leadInLength="0/1"  />
              <InterpolatingParam id="1901" interp="linr"  time="-9999999/1" value="1" leadInLength="0/1"  />
              <InterpolatingParam id="1902" interp="linr"  time="-9999999/1" value="1" leadInLength="0/1"  />
             </VectorParam>
             <VectorParam id="1903"  name="anchor">
              <InterpolatingParam id="1904" interp="linr"  time="0/1" value="0" leadInLength="0/1"  />
              <InterpolatingParam id="1905" interp="linr"  time="0/1" value="0" leadInLength="0/1"  />
              <InterpolatingParam id="1906" interp="linr"  time="0/1" value="0" leadInLength="0/1"  />
             </VectorParam>
            </Transformer>
            <Parameters>
             <VectorParam id="1907"  name="sourceCrop">
              <InterpolatingParam id="1908" interp="linr"  time="0/1" value="0" leadInLength="0/1"  />
              <InterpolatingParam id="1909" interp="linr"  time="0/1" value="0" leadInLength="0/1"  />
              <InterpolatingParam id="1910" interp="linr"  time="0/1" value="0" leadInLength="0/1"  />
              <InterpolatingParam id="1911" interp="linr"  time="0/1" value="0" leadInLength="0/1"  />
             </VectorParam>
             <VectorParam id="1912"  name="geometryCrop">
              <InterpolatingParam id="1913" interp="linr"  time="-9999999/1" value="0" leadInLength="0/1"  />
              <InterpolatingParam id="1914" interp="linr"  time="-9999999/1" value="0" leadInLength="0/1"  />
              <InterpolatingParam id="1915" interp="linr"  time="-9999999/1" value="0" leadInLength="0/1"  />
              <InterpolatingParam id="1916" interp="linr"  time="-9999999/1" value="0" leadInLength="0/1"  />
             </VectorParam>
             <InterpolatingParam id="1917" interp="linr"  time="-9999999/1" value="1" leadInLength="0/1"  name="opacity"/>
            </Parameters>
            <Attributes>
             <Attribute id="1918" value="" name="ident"/>
            </Attributes>
            <MetaData>
             <entry key="WinSubProjectDisplayName" val=""/>
            </MetaData>
            <ExtraData>
             <Entry key="ZoomPanBin">
              <ZoomPanBin id="1919"  >
               <ZoomPanKeyframes>
                <ZoomPanKeyframe id="1920" timeRangeEnd="-9999999/1" timeRangeDuration="0/1" interpolaterName=""  />
               </ZoomPanKeyframes>
              </ZoomPanBin>
             </Entry>
            </ExtraData>
           </VMFile>
           <VMFile id="1921" start="3464" duration="1007" scalar="1/1" mediaStart="8371/1" mediaDuration="1007/1" trackNumber="0" src="4" >
            <Transformer>
             <VectorParam id="1922"  name="translation">
              <InterpolatingParam id="1923" interp="linr"  time="-9999999/1" value="0" leadInLength="0/1"  />
              <InterpolatingParam id="1924" interp="linr"  time="-9999999/1" value="0" leadInLength="0/1"  />
              <InterpolatingParam id="1925" interp="linr"  time="-9999999/1" value="0" leadInLength="0/1"  />
             </VectorParam>
             <VectorParam id="1926"  name="rotation">
              <InterpolatingParam id="1927" interp="linr"  time="-9999999/1" value="0" leadInLength="0/1"  />
              <InterpolatingParam id="1928" interp="linr"  time="-9999999/1" value="0" leadInLength="0/1"  />
              <InterpolatingParam id="1929" interp="linr"  time="-9999999/1" value="0" leadInLength="0/1"  />
             </VectorParam>
             <VectorParam id="1930"  name="shear">
              <InterpolatingParam id="1931" interp="linr"  time="-9999999/1" value="0" leadInLength="0/1"  />
              <InterpolatingParam id="1932" interp="linr"  time="-9999999/1" value="0" leadInLength="0/1"  />
              <InterpolatingParam id="1933" interp="linr"  time="-9999999/1" value="0" leadInLength="0/1"  />
             </VectorParam>
             <VectorParam id="1934"  name="scale">
              <InterpolatingParam id="1935" interp="linr"  time="-9999999/1" value="1" leadInLength="0/1"  />
              <InterpolatingParam id="1936" interp="linr"  time="-9999999/1" value="1" leadInLength="0/1"  />
              <InterpolatingParam id="1937" interp="linr"  time="-9999999/1" value="1" leadInLength="0/1"  />
             </VectorParam>
             <VectorParam id="1938"  name="anchor">
              <InterpolatingParam id="1939" interp="linr"  time="0/1" value="0" leadInLength="0/1"  />
              <InterpolatingParam id="1940" interp="linr"  time="0/1" value="0" leadInLength="0/1"  />
              <InterpolatingParam id="1941" interp="linr"  time="0/1" value="0" leadInLength="0/1"  />
             </VectorParam>
            </Transformer>
            <Parameters>
             <VectorParam id="1942"  name="sourceCrop">
              <InterpolatingParam id="1943" interp="linr"  time="0/1" value="0" leadInLength="0/1"  />
              <InterpolatingParam id="1944" interp="linr"  time="0/1" value="0" leadInLength="0/1"  />
              <InterpolatingParam id="1945" interp="linr"  time="0/1" value="0" leadInLength="0/1"  />
              <InterpolatingParam id="1946" interp="linr"  time="0/1" value="0" leadInLength="0/1"  />
             </VectorParam>
             <VectorParam id="1947"  name="geometryCrop">
              <InterpolatingParam id="1948" interp="linr"  time="-9999999/1" value="0" leadInLength="0/1"  />
              <InterpolatingParam id="1949" interp="linr"  time="-9999999/1" value="0" leadInLength="0/1"  />
              <InterpolatingParam id="1950" interp="linr"  time="-9999999/1" value="0" leadInLength="0/1"  />
              <InterpolatingParam id="1951" interp="linr"  time="-9999999/1" value="0" leadInLength="0/1"  />
             </VectorParam>
             <InterpolatingParam id="1952" interp="linr"  time="-9999999/1" value="1" leadInLength="0/1"  name="opacity"/>
            </Parameters>
            <Attributes>
             <Attribute id="1953" value="" name="ident"/>
            </Attributes>
            <MetaData>
             <entry key="WinSubProjectDisplayName" val=""/>
            </MetaData>
            <ExtraData>
             <Entry key="ZoomPanBin">
              <ZoomPanBin id="1954"  >
               <ZoomPanKeyframes>
                <ZoomPanKeyframe id="1955" timeRangeEnd="-9999999/1" timeRangeDuration="0/1" interpolaterName=""  />
               </ZoomPanKeyframes>
              </ZoomPanBin>
             </Entry>
            </ExtraData>
           </VMFile>
           <VMFile id="1956" start="4471" duration="555" scalar="1/1" mediaStart="9516/1" mediaDuration="555/1" trackNumber="0" src="4" >
            <Transformer>
             <VectorParam id="1957"  name="translation">
              <InterpolatingParam id="1958" interp="linr"  time="-9999999/1" value="0" leadInLength="0/1"  />
              <InterpolatingParam id="1959" interp="linr"  time="-9999999/1" value="0" leadInLength="0/1"  />
              <InterpolatingParam id="1960" interp="linr"  time="-9999999/1" value="0" leadInLength="0/1"  />
             </VectorParam>
             <VectorParam id="1961"  name="rotation">
              <InterpolatingParam id="1962" interp="linr"  time="-9999999/1" value="0" leadInLength="0/1"  />
              <InterpolatingParam id="1963" interp="linr"  time="-9999999/1" value="0" leadInLength="0/1"  />
              <InterpolatingParam id="1964" interp="linr"  time="-9999999/1" value="0" leadInLength="0/1"  />
             </VectorParam>
             <VectorParam id="1965"  name="shear">
              <InterpolatingParam id="1966" interp="linr"  time="-9999999/1" value="0" leadInLength="0/1"  />
              <InterpolatingParam id="1967" interp="linr"  time="-9999999/1" value="0" leadInLength="0/1"  />
              <InterpolatingParam id="1968" interp="linr"  time="-9999999/1" value="0" leadInLength="0/1"  />
             </VectorParam>
             <VectorParam id="1969"  name="scale">
              <InterpolatingParam id="1970" interp="linr"  time="-9999999/1" value="1" leadInLength="0/1"  />
              <InterpolatingParam id="1971" interp="linr"  time="-9999999/1" value="1" leadInLength="0/1"  />
              <InterpolatingParam id="1972" interp="linr"  time="-9999999/1" value="1" leadInLength="0/1"  />
             </VectorParam>
             <VectorParam id="1973"  name="anchor">
              <InterpolatingParam id="1974" interp="linr"  time="0/1" value="0" leadInLength="0/1"  />
              <InterpolatingParam id="1975" interp="linr"  time="0/1" value="0" leadInLength="0/1"  />
              <InterpolatingParam id="1976" interp="linr"  time="0/1" value="0" leadInLength="0/1"  />
             </VectorParam>
            </Transformer>
            <Parameters>
             <VectorParam id="1977"  name="sourceCrop">
              <InterpolatingParam id="1978" interp="linr"  time="0/1" value="0" leadInLength="0/1"  />
              <InterpolatingParam id="1979" interp="linr"  time="0/1" value="0" leadInLength="0/1"  />
              <InterpolatingParam id="1980" interp="linr"  time="0/1" value="0" leadInLength="0/1"  />
              <InterpolatingParam id="1981" interp="linr"  time="0/1" value="0" leadInLength="0/1"  />
             </VectorParam>
             <VectorParam id="1982"  name="geometryCrop">
              <InterpolatingParam id="1983" interp="linr"  time="-9999999/1" value="0" leadInLength="0/1"  />
              <InterpolatingParam id="1984" interp="linr"  time="-9999999/1" value="0" leadInLength="0/1"  />
              <InterpolatingParam id="1985" interp="linr"  time="-9999999/1" value="0" leadInLength="0/1"  />
              <InterpolatingParam id="1986" interp="linr"  time="-9999999/1" value="0" leadInLength="0/1"  />
             </VectorParam>
             <InterpolatingParam id="1987" interp="linr"  time="-9999999/1" value="1" leadInLength="0/1"  name="opacity"/>
            </Parameters>
            <Attributes>
             <Attribute id="1988" value="" name="ident"/>
            </Attributes>
            <MetaData>
             <entry key="WinSubProjectDisplayName" val=""/>
            </MetaData>
            <ExtraData>
             <Entry key="ZoomPanBin">
              <ZoomPanBin id="1989"  >
               <ZoomPanKeyframes>
                <ZoomPanKeyframe id="1990" timeRangeEnd="-9999999/1" timeRangeDuration="0/1" interpolaterName=""  />
               </ZoomPanKeyframes>
              </ZoomPanBin>
             </Entry>
            </ExtraData>
           </VMFile>
           <VMFile id="1991" start="5026" duration="460" scalar="1/1" mediaStart="11597/1" mediaDuration="460/1" trackNumber="0" src="4" >
            <Transformer>
             <VectorParam id="1992"  name="translation">
              <InterpolatingParam id="1993" interp="linr"  time="-9999999/1" value="0" leadInLength="0/1"  />
              <InterpolatingParam id="1994" interp="linr"  time="-9999999/1" value="0" leadInLength="0/1"  />
              <InterpolatingParam id="1995" interp="linr"  time="-9999999/1" value="0" leadInLength="0/1"  />
             </VectorParam>
             <VectorParam id="1996"  name="rotation">
              <InterpolatingParam id="1997" interp="linr"  time="-9999999/1" value="0" leadInLength="0/1"  />
              <InterpolatingParam id="1998" interp="linr"  time="-9999999/1" value="0" leadInLength="0/1"  />
              <InterpolatingParam id="1999" interp="linr"  time="-9999999/1" value="0" leadInLength="0/1"  />
             </VectorParam>
             <VectorParam id="2000"  name="shear">
              <InterpolatingParam id="2001" interp="linr"  time="-9999999/1" value="0" leadInLength="0/1"  />
              <InterpolatingParam id="2002" interp="linr"  time="-9999999/1" value="0" leadInLength="0/1"  />
              <InterpolatingParam id="2003" interp="linr"  time="-9999999/1" value="0" leadInLength="0/1"  />
             </VectorParam>
             <VectorParam id="2004"  name="scale">
              <InterpolatingParam id="2005" interp="linr"  time="-9999999/1" value="1" leadInLength="0/1"  />
              <InterpolatingParam id="2006" interp="linr"  time="-9999999/1" value="1" leadInLength="0/1"  />
              <InterpolatingParam id="2007" interp="linr"  time="-9999999/1" value="1" leadInLength="0/1"  />
             </VectorParam>
             <VectorParam id="2008"  name="anchor">
              <InterpolatingParam id="2009" interp="linr"  time="0/1" value="0" leadInLength="0/1"  />
              <InterpolatingParam id="2010" interp="linr"  time="0/1" value="0" leadInLength="0/1"  />
              <InterpolatingParam id="2011" interp="linr"  time="0/1" value="0" leadInLength="0/1"  />
             </VectorParam>
            </Transformer>
            <Parameters>
             <VectorParam id="2012"  name="sourceCrop">
              <InterpolatingParam id="2013" interp="linr"  time="0/1" value="0" leadInLength="0/1"  />
              <InterpolatingParam id="2014" interp="linr"  time="0/1" value="0" leadInLength="0/1"  />
              <InterpolatingParam id="2015" interp="linr"  time="0/1" value="0" leadInLength="0/1"  />
              <InterpolatingParam id="2016" interp="linr"  time="0/1" value="0" leadInLength="0/1"  />
             </VectorParam>
             <VectorParam id="2017"  name="geometryCrop">
              <InterpolatingParam id="2018" interp="linr"  time="-9999999/1" value="0" leadInLength="0/1"  />
              <InterpolatingParam id="2019" interp="linr"  time="-9999999/1" value="0" leadInLength="0/1"  />
              <InterpolatingParam id="2020" interp="linr"  time="-9999999/1" value="0" leadInLength="0/1"  />
              <InterpolatingParam id="2021" interp="linr"  time="-9999999/1" value="0" leadInLength="0/1"  />
             </VectorParam>
             <InterpolatingParam id="2022" interp="linr"  time="-9999999/1" value="1" leadInLength="0/1"  name="opacity"/>
            </Parameters>
            <Attributes>
             <Attribute id="2023" value="" name="ident"/>
            </Attributes>
            <MetaData>
             <entry key="WinSubProjectDisplayName" val=""/>
            </MetaData>
            <ExtraData>
             <Entry key="ZoomPanBin">
              <ZoomPanBin id="2024"  >
               <ZoomPanKeyframes>
                <ZoomPanKeyframe id="2025" timeRangeEnd="-9999999/1" timeRangeDuration="0/1" interpolaterName=""  />
               </ZoomPanKeyframes>
              </ZoomPanBin>
             </Entry>
            </ExtraData>
           </VMFile>
           <VMFile id="2026" start="5486" duration="350" scalar="1/1" mediaStart="12237/1" mediaDuration="350/1" trackNumber="0" src="4" >
            <Transformer>
             <VectorParam id="2027"  name="translation">
              <InterpolatingParam id="2028" interp="linr"  time="-9999999/1" value="0" leadInLength="0/1"  />
              <InterpolatingParam id="2029" interp="linr"  time="-9999999/1" value="0" leadInLength="0/1"  />
              <InterpolatingParam id="2030" interp="linr"  time="-9999999/1" value="0" leadInLength="0/1"  />
             </VectorParam>
             <VectorParam id="2031"  name="rotation">
              <InterpolatingParam id="2032" interp="linr"  time="-9999999/1" value="0" leadInLength="0/1"  />
              <InterpolatingParam id="2033" interp="linr"  time="-9999999/1" value="0" leadInLength="0/1"  />
              <InterpolatingParam id="2034" interp="linr"  time="-9999999/1" value="0" leadInLength="0/1"  />
             </VectorParam>
             <VectorParam id="2035"  name="shear">
              <InterpolatingParam id="2036" interp="linr"  time="-9999999/1" value="0" leadInLength="0/1"  />
              <InterpolatingParam id="2037" interp="linr"  time="-9999999/1" value="0" leadInLength="0/1"  />
              <InterpolatingParam id="2038" interp="linr"  time="-9999999/1" value="0" leadInLength="0/1"  />
             </VectorParam>
             <VectorParam id="2039"  name="scale">
              <InterpolatingParam id="2040" interp="linr"  time="-9999999/1" value="1" leadInLength="0/1"  />
              <InterpolatingParam id="2041" interp="linr"  time="-9999999/1" value="1" leadInLength="0/1"  />
              <InterpolatingParam id="2042" interp="linr"  time="-9999999/1" value="1" leadInLength="0/1"  />
             </VectorParam>
             <VectorParam id="2043"  name="anchor">
              <InterpolatingParam id="2044" interp="linr"  time="0/1" value="0" leadInLength="0/1"  />
              <InterpolatingParam id="2045" interp="linr"  time="0/1" value="0" leadInLength="0/1"  />
              <InterpolatingParam id="2046" interp="linr"  time="0/1" value="0" leadInLength="0/1"  />
             </VectorParam>
            </Transformer>
            <Parameters>
             <VectorParam id="2047"  name="sourceCrop">
              <InterpolatingParam id="2048" interp="linr"  time="0/1" value="0" leadInLength="0/1"  />
              <InterpolatingParam id="2049" interp="linr"  time="0/1" value="0" leadInLength="0/1"  />
              <InterpolatingParam id="2050" interp="linr"  time="0/1" value="0" leadInLength="0/1"  />
              <InterpolatingParam id="2051" interp="linr"  time="0/1" value="0" leadInLength="0/1"  />
             </VectorParam>
             <VectorParam id="2052"  name="geometryCrop">
              <InterpolatingParam id="2053" interp="linr"  time="-9999999/1" value="0" leadInLength="0/1"  />
              <InterpolatingParam id="2054" interp="linr"  time="-9999999/1" value="0" leadInLength="0/1"  />
              <InterpolatingParam id="2055" interp="linr"  time="-9999999/1" value="0" leadInLength="0/1"  />
              <InterpolatingParam id="2056" interp="linr"  time="-9999999/1" value="0" leadInLength="0/1"  />
             </VectorParam>
             <InterpolatingParam id="2057" interp="linr"  time="-9999999/1" value="1" leadInLength="0/1"  name="opacity"/>
            </Parameters>
            <Attributes>
             <Attribute id="2058" value="" name="ident"/>
            </Attributes>
            <MetaData>
             <entry key="WinSubProjectDisplayName" val=""/>
            </MetaData>
            <ExtraData>
             <Entry key="ZoomPanBin">
              <ZoomPanBin id="2059"  >
               <ZoomPanKeyframes>
                <ZoomPanKeyframe id="2060" timeRangeEnd="-9999999/1" timeRangeDuration="0/1" interpolaterName=""  />
               </ZoomPanKeyframes>
              </ZoomPanBin>
             </Entry>
            </ExtraData>
           </VMFile>
           <VMFile id="2061" start="5836" duration="128" scalar="1/1" mediaStart="15765/1" mediaDuration="128/1" trackNumber="0" src="4" >
            <Transformer>
             <VectorParam id="2062"  name="translation">
              <InterpolatingParam id="2063" interp="linr"  time="-9999999/1" value="0" leadInLength="0/1"  />
              <InterpolatingParam id="2064" interp="linr"  time="-9999999/1" value="0" leadInLength="0/1"  />
              <InterpolatingParam id="2065" interp="linr"  time="-9999999/1" value="0" leadInLength="0/1"  />
             </VectorParam>
             <VectorParam id="2066"  name="rotation">
              <InterpolatingParam id="2067" interp="linr"  time="-9999999/1" value="0" leadInLength="0/1"  />
              <InterpolatingParam id="2068" interp="linr"  time="-9999999/1" value="0" leadInLength="0/1"  />
              <InterpolatingParam id="2069" interp="linr"  time="-9999999/1" value="0" leadInLength="0/1"  />
             </VectorParam>
             <VectorParam id="2070"  name="shear">
              <InterpolatingParam id="2071" interp="linr"  time="-9999999/1" value="0" leadInLength="0/1"  />
              <InterpolatingParam id="2072" interp="linr"  time="-9999999/1" value="0" leadInLength="0/1"  />
              <InterpolatingParam id="2073" interp="linr"  time="-9999999/1" value="0" leadInLength="0/1"  />
             </VectorParam>
             <VectorParam id="2074"  name="scale">
              <InterpolatingParam id="2075" interp="linr"  time="-9999999/1" value="1" leadInLength="0/1"  />
              <InterpolatingParam id="2076" interp="linr"  time="-9999999/1" value="1" leadInLength="0/1"  />
              <InterpolatingParam id="2077" interp="linr"  time="-9999999/1" value="1" leadInLength="0/1"  />
             </VectorParam>
             <VectorParam id="2078"  name="anchor">
              <InterpolatingParam id="2079" interp="linr"  time="0/1" value="0" leadInLength="0/1"  />
              <InterpolatingParam id="2080" interp="linr"  time="0/1" value="0" leadInLength="0/1"  />
              <InterpolatingParam id="2081" interp="linr"  time="0/1" value="0" leadInLength="0/1"  />
             </VectorParam>
            </Transformer>
            <Parameters>
             <VectorParam id="2082"  name="sourceCrop">
              <InterpolatingParam id="2083" interp="linr"  time="0/1" value="0" leadInLength="0/1"  />
              <InterpolatingParam id="2084" interp="linr"  time="0/1" value="0" leadInLength="0/1"  />
              <InterpolatingParam id="2085" interp="linr"  time="0/1" value="0" leadInLength="0/1"  />
              <InterpolatingParam id="2086" interp="linr"  time="0/1" value="0" leadInLength="0/1"  />
             </VectorParam>
             <VectorParam id="2087"  name="geometryCrop">
              <InterpolatingParam id="2088" interp="linr"  time="-9999999/1" value="0" leadInLength="0/1"  />
              <InterpolatingParam id="2089" interp="linr"  time="-9999999/1" value="0" leadInLength="0/1"  />
              <InterpolatingParam id="2090" interp="linr"  time="-9999999/1" value="0" leadInLength="0/1"  />
              <InterpolatingParam id="2091" interp="linr"  time="-9999999/1" value="0" leadInLength="0/1"  />
             </VectorParam>
             <InterpolatingParam id="2092" interp="linr"  time="-9999999/1" value="1" leadInLength="0/1"  name="opacity"/>
            </Parameters>
            <Attributes>
             <Attribute id="2093" value="" name="ident"/>
            </Attributes>
            <MetaData>
             <entry key="WinSubProjectDisplayName" val=""/>
            </MetaData>
            <ExtraData>
             <Entry key="ZoomPanBin">
              <ZoomPanBin id="2094"  >
               <ZoomPanKeyframes>
                <ZoomPanKeyframe id="2095" timeRangeEnd="-9999999/1" timeRangeDuration="0/1" interpolaterName=""  />
               </ZoomPanKeyframes>
              </ZoomPanBin>
             </Entry>
            </ExtraData>
           </VMFile>
           <VMFile id="2096" start="5964" duration="615" scalar="1/1" mediaStart="15918/1" mediaDuration="615/1" trackNumber="0" src="4" >
            <Transformer>
             <VectorParam id="2097"  name="translation">
              <InterpolatingParam id="2098" interp="linr"  time="-9999999/1" value="0" leadInLength="0/1"  />
              <InterpolatingParam id="2099" interp="linr"  time="-9999999/1" value="0" leadInLength="0/1"  />
              <InterpolatingParam id="2100" interp="linr"  time="-9999999/1" value="0" leadInLength="0/1"  />
             </VectorParam>
             <VectorParam id="2101"  name="rotation">
              <InterpolatingParam id="2102" interp="linr"  time="-9999999/1" value="0" leadInLength="0/1"  />
              <InterpolatingParam id="2103" interp="linr"  time="-9999999/1" value="0" leadInLength="0/1"  />
              <InterpolatingParam id="2104" interp="linr"  time="-9999999/1" value="0" leadInLength="0/1"  />
             </VectorParam>
             <VectorParam id="2105"  name="shear">
              <InterpolatingParam id="2106" interp="linr"  time="-9999999/1" value="0" leadInLength="0/1"  />
              <InterpolatingParam id="2107" interp="linr"  time="-9999999/1" value="0" leadInLength="0/1"  />
              <InterpolatingParam id="2108" interp="linr"  time="-9999999/1" value="0" leadInLength="0/1"  />
             </VectorParam>
             <VectorParam id="2109"  name="scale">
              <InterpolatingParam id="2110" interp="linr"  time="-9999999/1" value="1" leadInLength="0/1"  />
              <InterpolatingParam id="2111" interp="linr"  time="-9999999/1" value="1" leadInLength="0/1"  />
              <InterpolatingParam id="2112" interp="linr"  time="-9999999/1" value="1" leadInLength="0/1"  />
             </VectorParam>
             <VectorParam id="2113"  name="anchor">
              <InterpolatingParam id="2114" interp="linr"  time="0/1" value="0" leadInLength="0/1"  />
              <InterpolatingParam id="2115" interp="linr"  time="0/1" value="0" leadInLength="0/1"  />
              <InterpolatingParam id="2116" interp="linr"  time="0/1" value="0" leadInLength="0/1"  />
             </VectorParam>
            </Transformer>
            <Parameters>
             <VectorParam id="2117"  name="sourceCrop">
              <InterpolatingParam id="2118" interp="linr"  time="0/1" value="0" leadInLength="0/1"  />
              <InterpolatingParam id="2119" interp="linr"  time="0/1" value="0" leadInLength="0/1"  />
              <InterpolatingParam id="2120" interp="linr"  time="0/1" value="0" leadInLength="0/1"  />
              <InterpolatingParam id="2121" interp="linr"  time="0/1" value="0" leadInLength="0/1"  />
             </VectorParam>
             <VectorParam id="2122"  name="geometryCrop">
              <InterpolatingParam id="2123" interp="linr"  time="-9999999/1" value="0" leadInLength="0/1"  />
              <InterpolatingParam id="2124" interp="linr"  time="-9999999/1" value="0" leadInLength="0/1"  />
              <InterpolatingParam id="2125" interp="linr"  time="-9999999/1" value="0" leadInLength="0/1"  />
              <InterpolatingParam id="2126" interp="linr"  time="-9999999/1" value="0" leadInLength="0/1"  />
             </VectorParam>
             <InterpolatingParam id="2127" interp="linr"  time="-9999999/1" value="1" leadInLength="0/1"  name="opacity"/>
            </Parameters>
            <Attributes>
             <Attribute id="2128" value="" name="ident"/>
            </Attributes>
            <MetaData>
             <entry key="WinSubProjectDisplayName" val=""/>
            </MetaData>
            <ExtraData>
             <Entry key="ZoomPanBin">
              <ZoomPanBin id="2129"  >
               <ZoomPanKeyframes>
                <ZoomPanKeyframe id="2130" timeRangeEnd="-9999999/1" timeRangeDuration="0/1" interpolaterName=""  />
               </ZoomPanKeyframes>
              </ZoomPanBin>
             </Entry>
            </ExtraData>
           </VMFile>
           <VMFile id="2131" start="6579" duration="323" scalar="1/1" mediaStart="16694/1" mediaDuration="323/1" trackNumber="0" src="4" >
            <Transformer>
             <VectorParam id="2132"  name="translation">
              <InterpolatingParam id="2133" interp="linr"  time="-9999999/1" value="0" leadInLength="0/1"  />
              <InterpolatingParam id="2134" interp="linr"  time="-9999999/1" value="0" leadInLength="0/1"  />
              <InterpolatingParam id="2135" interp="linr"  time="-9999999/1" value="0" leadInLength="0/1"  />
             </VectorParam>
             <VectorParam id="2136"  name="rotation">
              <InterpolatingParam id="2137" interp="linr"  time="-9999999/1" value="0" leadInLength="0/1"  />
              <InterpolatingParam id="2138" interp="linr"  time="-9999999/1" value="0" leadInLength="0/1"  />
              <InterpolatingParam id="2139" interp="linr"  time="-9999999/1" value="0" leadInLength="0/1"  />
             </VectorParam>
             <VectorParam id="2140"  name="shear">
              <InterpolatingParam id="2141" interp="linr"  time="-9999999/1" value="0" leadInLength="0/1"  />
              <InterpolatingParam id="2142" interp="linr"  time="-9999999/1" value="0" leadInLength="0/1"  />
              <InterpolatingParam id="2143" interp="linr"  time="-9999999/1" value="0" leadInLength="0/1"  />
             </VectorParam>
             <VectorParam id="2144"  name="scale">
              <InterpolatingParam id="2145" interp="linr"  time="-9999999/1" value="1" leadInLength="0/1"  />
              <InterpolatingParam id="2146" interp="linr"  time="-9999999/1" value="1" leadInLength="0/1"  />
              <InterpolatingParam id="2147" interp="linr"  time="-9999999/1" value="1" leadInLength="0/1"  />
             </VectorParam>
             <VectorParam id="2148"  name="anchor">
              <InterpolatingParam id="2149" interp="linr"  time="0/1" value="0" leadInLength="0/1"  />
              <InterpolatingParam id="2150" interp="linr"  time="0/1" value="0" leadInLength="0/1"  />
              <InterpolatingParam id="2151" interp="linr"  time="0/1" value="0" leadInLength="0/1"  />
             </VectorParam>
            </Transformer>
            <Parameters>
             <VectorParam id="2152"  name="sourceCrop">
              <InterpolatingParam id="2153" interp="linr"  time="0/1" value="0" leadInLength="0/1"  />
              <InterpolatingParam id="2154" interp="linr"  time="0/1" value="0" leadInLength="0/1"  />
              <InterpolatingParam id="2155" interp="linr"  time="0/1" value="0" leadInLength="0/1"  />
              <InterpolatingParam id="2156" interp="linr"  time="0/1" value="0" leadInLength="0/1"  />
             </VectorParam>
             <VectorParam id="2157"  name="geometryCrop">
              <InterpolatingParam id="2158" interp="linr"  time="-9999999/1" value="0" leadInLength="0/1"  />
              <InterpolatingParam id="2159" interp="linr"  time="-9999999/1" value="0" leadInLength="0/1"  />
              <InterpolatingParam id="2160" interp="linr"  time="-9999999/1" value="0" leadInLength="0/1"  />
              <InterpolatingParam id="2161" interp="linr"  time="-9999999/1" value="0" leadInLength="0/1"  />
             </VectorParam>
             <InterpolatingParam id="2162" interp="linr"  time="-9999999/1" value="1" leadInLength="0/1"  name="opacity"/>
            </Parameters>
            <Attributes>
             <Attribute id="2163" value="" name="ident"/>
            </Attributes>
            <MetaData>
             <entry key="WinSubProjectDisplayName" val=""/>
            </MetaData>
            <ExtraData>
             <Entry key="ZoomPanBin">
              <ZoomPanBin id="2164"  >
               <ZoomPanKeyframes>
                <ZoomPanKeyframe id="2165" timeRangeEnd="-9999999/1" timeRangeDuration="0/1" interpolaterName=""  />
               </ZoomPanKeyframes>
              </ZoomPanBin>
             </Entry>
            </ExtraData>
           </VMFile>
           <VMFile id="2166" start="6902" duration="223" scalar="1/1" mediaStart="17164/1" mediaDuration="223/1" trackNumber="0" src="4" >
            <Transformer>
             <VectorParam id="2167"  name="translation">
              <InterpolatingParam id="2168" interp="linr"  time="-9999999/1" value="0" leadInLength="0/1"  />
              <InterpolatingParam id="2169" interp="linr"  time="-9999999/1" value="0" leadInLength="0/1"  />
              <InterpolatingParam id="2170" interp="linr"  time="-9999999/1" value="0" leadInLength="0/1"  />
             </VectorParam>
             <VectorParam id="2171"  name="rotation">
              <InterpolatingParam id="2172" interp="linr"  time="-9999999/1" value="0" leadInLength="0/1"  />
              <InterpolatingParam id="2173" interp="linr"  time="-9999999/1" value="0" leadInLength="0/1"  />
              <InterpolatingParam id="2174" interp="linr"  time="-9999999/1" value="0" leadInLength="0/1"  />
             </VectorParam>
             <VectorParam id="2175"  name="shear">
              <InterpolatingParam id="2176" interp="linr"  time="-9999999/1" value="0" leadInLength="0/1"  />
              <InterpolatingParam id="2177" interp="linr"  time="-9999999/1" value="0" leadInLength="0/1"  />
              <InterpolatingParam id="2178" interp="linr"  time="-9999999/1" value="0" leadInLength="0/1"  />
             </VectorParam>
             <VectorParam id="2179"  name="scale">
              <InterpolatingParam id="2180" interp="linr"  time="-9999999/1" value="1" leadInLength="0/1"  />
              <InterpolatingParam id="2181" interp="linr"  time="-9999999/1" value="1" leadInLength="0/1"  />
              <InterpolatingParam id="2182" interp="linr"  time="-9999999/1" value="1" leadInLength="0/1"  />
             </VectorParam>
             <VectorParam id="2183"  name="anchor">
              <InterpolatingParam id="2184" interp="linr"  time="0/1" value="0" leadInLength="0/1"  />
              <InterpolatingParam id="2185" interp="linr"  time="0/1" value="0" leadInLength="0/1"  />
              <InterpolatingParam id="2186" interp="linr"  time="0/1" value="0" leadInLength="0/1"  />
             </VectorParam>
            </Transformer>
            <Parameters>
             <VectorParam id="2187"  name="sourceCrop">
              <InterpolatingParam id="2188" interp="linr"  time="0/1" value="0" leadInLength="0/1"  />
              <InterpolatingParam id="2189" interp="linr"  time="0/1" value="0" leadInLength="0/1"  />
              <InterpolatingParam id="2190" interp="linr"  time="0/1" value="0" leadInLength="0/1"  />
              <InterpolatingParam id="2191" interp="linr"  time="0/1" value="0" leadInLength="0/1"  />
             </VectorParam>
             <VectorParam id="2192"  name="geometryCrop">
              <InterpolatingParam id="2193" interp="linr"  time="-9999999/1" value="0" leadInLength="0/1"  />
              <InterpolatingParam id="2194" interp="linr"  time="-9999999/1" value="0" leadInLength="0/1"  />
              <InterpolatingParam id="2195" interp="linr"  time="-9999999/1" value="0" leadInLength="0/1"  />
              <InterpolatingParam id="2196" interp="linr"  time="-9999999/1" value="0" leadInLength="0/1"  />
             </VectorParam>
             <InterpolatingParam id="2197" interp="linr"  time="-9999999/1" value="1" leadInLength="0/1"  name="opacity"/>
            </Parameters>
            <Attributes>
             <Attribute id="2198" value="" name="ident"/>
            </Attributes>
            <MetaData>
             <entry key="WinSubProjectDisplayName" val=""/>
            </MetaData>
            <ExtraData>
             <Entry key="ZoomPanBin">
              <ZoomPanBin id="2199"  >
               <ZoomPanKeyframes>
                <ZoomPanKeyframe id="2200" timeRangeEnd="-9999999/1" timeRangeDuration="0/1" interpolaterName=""  />
               </ZoomPanKeyframes>
              </ZoomPanBin>
             </Entry>
            </ExtraData>
           </VMFile>
           <VMFile id="2201" start="7125" duration="323" scalar="1/1" mediaStart="26742/1" mediaDuration="323/1" trackNumber="0" src="4" >
            <Transformer>
             <VectorParam id="2202"  name="translation">
              <InterpolatingParam id="2203" interp="linr"  time="-9999999/1" value="0" leadInLength="0/1"  />
              <InterpolatingParam id="2204" interp="linr"  time="-9999999/1" value="0" leadInLength="0/1"  />
              <InterpolatingParam id="2205" interp="linr"  time="-9999999/1" value="0" leadInLength="0/1"  />
             </VectorParam>
             <VectorParam id="2206"  name="rotation">
              <InterpolatingParam id="2207" interp="linr"  time="-9999999/1" value="0" leadInLength="0/1"  />
              <InterpolatingParam id="2208" interp="linr"  time="-9999999/1" value="0" leadInLength="0/1"  />
              <InterpolatingParam id="2209" interp="linr"  time="-9999999/1" value="0" leadInLength="0/1"  />
             </VectorParam>
             <VectorParam id="2210"  name="shear">
              <InterpolatingParam id="2211" interp="linr"  time="-9999999/1" value="0" leadInLength="0/1"  />
              <InterpolatingParam id="2212" interp="linr"  time="-9999999/1" value="0" leadInLength="0/1"  />
              <InterpolatingParam id="2213" interp="linr"  time="-9999999/1" value="0" leadInLength="0/1"  />
             </VectorParam>
             <VectorParam id="2214"  name="scale">
              <InterpolatingParam id="2215" interp="linr"  time="-9999999/1" value="1" leadInLength="0/1"  />
              <InterpolatingParam id="2216" interp="linr"  time="-9999999/1" value="1" leadInLength="0/1"  />
              <InterpolatingParam id="2217" interp="linr"  time="-9999999/1" value="1" leadInLength="0/1"  />
             </VectorParam>
             <VectorParam id="2218"  name="anchor">
              <InterpolatingParam id="2219" interp="linr"  time="0/1" value="0" leadInLength="0/1"  />
              <InterpolatingParam id="2220" interp="linr"  time="0/1" value="0" leadInLength="0/1"  />
              <InterpolatingParam id="2221" interp="linr"  time="0/1" value="0" leadInLength="0/1"  />
             </VectorParam>
            </Transformer>
            <Parameters>
             <VectorParam id="2222"  name="sourceCrop">
              <InterpolatingParam id="2223" interp="linr"  time="0/1" value="0" leadInLength="0/1"  />
              <InterpolatingParam id="2224" interp="linr"  time="0/1" value="0" leadInLength="0/1"  />
              <InterpolatingParam id="2225" interp="linr"  time="0/1" value="0" leadInLength="0/1"  />
              <InterpolatingParam id="2226" interp="linr"  time="0/1" value="0" leadInLength="0/1"  />
             </VectorParam>
             <VectorParam id="2227"  name="geometryCrop">
              <InterpolatingParam id="2228" interp="linr"  time="-9999999/1" value="0" leadInLength="0/1"  />
              <InterpolatingParam id="2229" interp="linr"  time="-9999999/1" value="0" leadInLength="0/1"  />
              <InterpolatingParam id="2230" interp="linr"  time="-9999999/1" value="0" leadInLength="0/1"  />
              <InterpolatingParam id="2231" interp="linr"  time="-9999999/1" value="0" leadInLength="0/1"  />
             </VectorParam>
             <InterpolatingParam id="2232" interp="linr"  time="-9999999/1" value="1" leadInLength="0/1"  name="opacity"/>
            </Parameters>
            <Attributes>
             <Attribute id="2233" value="" name="ident"/>
            </Attributes>
            <MetaData>
             <entry key="WinSubProjectDisplayName" val=""/>
            </MetaData>
            <ExtraData>
             <Entry key="ZoomPanBin">
              <ZoomPanBin id="2234"  >
               <ZoomPanKeyframes>
                <ZoomPanKeyframe id="2235" timeRangeEnd="-9999999/1" timeRangeDuration="0/1" interpolaterName=""  />
               </ZoomPanKeyframes>
              </ZoomPanBin>
             </Entry>
            </ExtraData>
           </VMFile>
           <VMFile id="2236" start="7448" duration="259" scalar="1/1" mediaStart="27825/1" mediaDuration="259/1" trackNumber="0" src="4" >
            <Transformer>
             <VectorParam id="2237"  name="translation">
              <InterpolatingParam id="2238" interp="linr"  time="-9999999/1" value="0" leadInLength="0/1"  />
              <InterpolatingParam id="2239" interp="linr"  time="-9999999/1" value="0" leadInLength="0/1"  />
              <InterpolatingParam id="2240" interp="linr"  time="-9999999/1" value="0" leadInLength="0/1"  />
             </VectorParam>
             <VectorParam id="2241"  name="rotation">
              <InterpolatingParam id="2242" interp="linr"  time="-9999999/1" value="0" leadInLength="0/1"  />
              <InterpolatingParam id="2243" interp="linr"  time="-9999999/1" value="0" leadInLength="0/1"  />
              <InterpolatingParam id="2244" interp="linr"  time="-9999999/1" value="0" leadInLength="0/1"  />
             </VectorParam>
             <VectorParam id="2245"  name="shear">
              <InterpolatingParam id="2246" interp="linr"  time="-9999999/1" value="0" leadInLength="0/1"  />
              <InterpolatingParam id="2247" interp="linr"  time="-9999999/1" value="0" leadInLength="0/1"  />
              <InterpolatingParam id="2248" interp="linr"  time="-9999999/1" value="0" leadInLength="0/1"  />
             </VectorParam>
             <VectorParam id="2249"  name="scale">
              <InterpolatingParam id="2250" interp="linr"  time="-9999999/1" value="1" leadInLength="0/1"  />
              <InterpolatingParam id="2251" interp="linr"  time="-9999999/1" value="1" leadInLength="0/1"  />
              <InterpolatingParam id="2252" interp="linr"  time="-9999999/1" value="1" leadInLength="0/1"  />
             </VectorParam>
             <VectorParam id="2253"  name="anchor">
              <InterpolatingParam id="2254" interp="linr"  time="0/1" value="0" leadInLength="0/1"  />
              <InterpolatingParam id="2255" interp="linr"  time="0/1" value="0" leadInLength="0/1"  />
              <InterpolatingParam id="2256" interp="linr"  time="0/1" value="0" leadInLength="0/1"  />
             </VectorParam>
            </Transformer>
            <Parameters>
             <VectorParam id="2257"  name="sourceCrop">
              <InterpolatingParam id="2258" interp="linr"  time="0/1" value="0" leadInLength="0/1"  />
              <InterpolatingParam id="2259" interp="linr"  time="0/1" value="0" leadInLength="0/1"  />
              <InterpolatingParam id="2260" interp="linr"  time="0/1" value="0" leadInLength="0/1"  />
              <InterpolatingParam id="2261" interp="linr"  time="0/1" value="0" leadInLength="0/1"  />
             </VectorParam>
             <VectorParam id="2262"  name="geometryCrop">
              <InterpolatingParam id="2263" interp="linr"  time="-9999999/1" value="0" leadInLength="0/1"  />
              <InterpolatingParam id="2264" interp="linr"  time="-9999999/1" value="0" leadInLength="0/1"  />
              <InterpolatingParam id="2265" interp="linr"  time="-9999999/1" value="0" leadInLength="0/1"  />
              <InterpolatingParam id="2266" interp="linr"  time="-9999999/1" value="0" leadInLength="0/1"  />
             </VectorParam>
             <InterpolatingParam id="2267" interp="linr"  time="-9999999/1" value="1" leadInLength="0/1"  name="opacity"/>
            </Parameters>
            <Attributes>
             <Attribute id="2268" value="" name="ident"/>
            </Attributes>
            <MetaData>
             <entry key="WinSubProjectDisplayName" val=""/>
            </MetaData>
            <ExtraData>
             <Entry key="ZoomPanBin">
              <ZoomPanBin id="2269"  >
               <ZoomPanKeyframes>
                <ZoomPanKeyframe id="2270" timeRangeEnd="-9999999/1" timeRangeDuration="0/1" interpolaterName=""  />
               </ZoomPanKeyframes>
              </ZoomPanBin>
             </Entry>
            </ExtraData>
           </VMFile>
           <VMFile id="2271" start="7707" duration="157" scalar="1/1" mediaStart="28287/1" mediaDuration="157/1" trackNumber="0" src="4" >
            <Transformer>
             <VectorParam id="2272"  name="translation">
              <InterpolatingParam id="2273" interp="linr"  time="-9999999/1" value="0" leadInLength="0/1"  />
              <InterpolatingParam id="2274" interp="linr"  time="-9999999/1" value="0" leadInLength="0/1"  />
              <InterpolatingParam id="2275" interp="linr"  time="-9999999/1" value="0" leadInLength="0/1"  />
             </VectorParam>
             <VectorParam id="2276"  name="rotation">
              <InterpolatingParam id="2277" interp="linr"  time="-9999999/1" value="0" leadInLength="0/1"  />
              <InterpolatingParam id="2278" interp="linr"  time="-9999999/1" value="0" leadInLength="0/1"  />
              <InterpolatingParam id="2279" interp="linr"  time="-9999999/1" value="0" leadInLength="0/1"  />
             </VectorParam>
             <VectorParam id="2280"  name="shear">
              <InterpolatingParam id="2281" interp="linr"  time="-9999999/1" value="0" leadInLength="0/1"  />
              <InterpolatingParam id="2282" interp="linr"  time="-9999999/1" value="0" leadInLength="0/1"  />
              <InterpolatingParam id="2283" interp="linr"  time="-9999999/1" value="0" leadInLength="0/1"  />
             </VectorParam>
             <VectorParam id="2284"  name="scale">
              <InterpolatingParam id="2285" interp="linr"  time="-9999999/1" value="1" leadInLength="0/1"  />
              <InterpolatingParam id="2286" interp="linr"  time="-9999999/1" value="1" leadInLength="0/1"  />
              <InterpolatingParam id="2287" interp="linr"  time="-9999999/1" value="1" leadInLength="0/1"  />
             </VectorParam>
             <VectorParam id="2288"  name="anchor">
              <InterpolatingParam id="2289" interp="linr"  time="0/1" value="0" leadInLength="0/1"  />
              <InterpolatingParam id="2290" interp="linr"  time="0/1" value="0" leadInLength="0/1"  />
              <InterpolatingParam id="2291" interp="linr"  time="0/1" value="0" leadInLength="0/1"  />
             </VectorParam>
            </Transformer>
            <Parameters>
             <VectorParam id="2292"  name="sourceCrop">
              <InterpolatingParam id="2293" interp="linr"  time="0/1" value="0" leadInLength="0/1"  />
              <InterpolatingParam id="2294" interp="linr"  time="0/1" value="0" leadInLength="0/1"  />
              <InterpolatingParam id="2295" interp="linr"  time="0/1" value="0" leadInLength="0/1"  />
              <InterpolatingParam id="2296" interp="linr"  time="0/1" value="0" leadInLength="0/1"  />
             </VectorParam>
             <VectorParam id="2297"  name="geometryCrop">
              <InterpolatingParam id="2298" interp="linr"  time="-9999999/1" value="0" leadInLength="0/1"  />
              <InterpolatingParam id="2299" interp="linr"  time="-9999999/1" value="0" leadInLength="0/1"  />
              <InterpolatingParam id="2300" interp="linr"  time="-9999999/1" value="0" leadInLength="0/1"  />
              <InterpolatingParam id="2301" interp="linr"  time="-9999999/1" value="0" leadInLength="0/1"  />
             </VectorParam>
             <InterpolatingParam id="2302" interp="linr"  time="-9999999/1" value="1" leadInLength="0/1"  name="opacity"/>
            </Parameters>
            <Attributes>
             <Attribute id="2303" value="" name="ident"/>
            </Attributes>
            <MetaData>
             <entry key="WinSubProjectDisplayName" val=""/>
            </MetaData>
            <ExtraData>
             <Entry key="ZoomPanBin">
              <ZoomPanBin id="2304"  >
               <ZoomPanKeyframes>
                <ZoomPanKeyframe id="2305" timeRangeEnd="-9999999/1" timeRangeDuration="0/1" interpolaterName=""  />
               </ZoomPanKeyframes>
              </ZoomPanBin>
             </Entry>
            </ExtraData>
           </VMFile>
           <VMFile id="2306" start="7864" duration="290" scalar="1/1" mediaStart="28689/1" mediaDuration="290/1" trackNumber="0" src="4" >
            <Transformer>
             <VectorParam id="2307"  name="translation">
              <InterpolatingParam id="2308" interp="linr"  time="-9999999/1" value="0" leadInLength="0/1"  />
              <InterpolatingParam id="2309" interp="linr"  time="-9999999/1" value="0" leadInLength="0/1"  />
              <InterpolatingParam id="2310" interp="linr"  time="-9999999/1" value="0" leadInLength="0/1"  />
             </VectorParam>
             <VectorParam id="2311"  name="rotation">
              <InterpolatingParam id="2312" interp="linr"  time="-9999999/1" value="0" leadInLength="0/1"  />
              <InterpolatingParam id="2313" interp="linr"  time="-9999999/1" value="0" leadInLength="0/1"  />
              <InterpolatingParam id="2314" interp="linr"  time="-9999999/1" value="0" leadInLength="0/1"  />
             </VectorParam>
             <VectorParam id="2315"  name="shear">
              <InterpolatingParam id="2316" interp="linr"  time="-9999999/1" value="0" leadInLength="0/1"  />
              <InterpolatingParam id="2317" interp="linr"  time="-9999999/1" value="0" leadInLength="0/1"  />
              <InterpolatingParam id="2318" interp="linr"  time="-9999999/1" value="0" leadInLength="0/1"  />
             </VectorParam>
             <VectorParam id="2319"  name="scale">
              <InterpolatingParam id="2320" interp="linr"  time="-9999999/1" value="1" leadInLength="0/1"  />
              <InterpolatingParam id="2321" interp="linr"  time="-9999999/1" value="1" leadInLength="0/1"  />
              <InterpolatingParam id="2322" interp="linr"  time="-9999999/1" value="1" leadInLength="0/1"  />
             </VectorParam>
             <VectorParam id="2323"  name="anchor">
              <InterpolatingParam id="2324" interp="linr"  time="0/1" value="0" leadInLength="0/1"  />
              <InterpolatingParam id="2325" interp="linr"  time="0/1" value="0" leadInLength="0/1"  />
              <InterpolatingParam id="2326" interp="linr"  time="0/1" value="0" leadInLength="0/1"  />
             </VectorParam>
            </Transformer>
            <Parameters>
             <VectorParam id="2327"  name="sourceCrop">
              <InterpolatingParam id="2328" interp="linr"  time="0/1" value="0" leadInLength="0/1"  />
              <InterpolatingParam id="2329" interp="linr"  time="0/1" value="0" leadInLength="0/1"  />
              <InterpolatingParam id="2330" interp="linr"  time="0/1" value="0" leadInLength="0/1"  />
              <InterpolatingParam id="2331" interp="linr"  time="0/1" value="0" leadInLength="0/1"  />
             </VectorParam>
             <VectorParam id="2332"  name="geometryCrop">
              <InterpolatingParam id="2333" interp="linr"  time="-9999999/1" value="0" leadInLength="0/1"  />
              <InterpolatingParam id="2334" interp="linr"  time="-9999999/1" value="0" leadInLength="0/1"  />
              <InterpolatingParam id="2335" interp="linr"  time="-9999999/1" value="0" leadInLength="0/1"  />
              <InterpolatingParam id="2336" interp="linr"  time="-9999999/1" value="0" leadInLength="0/1"  />
             </VectorParam>
             <InterpolatingParam id="2337" interp="linr"  time="-9999999/1" value="1" leadInLength="0/1"  name="opacity"/>
            </Parameters>
            <Attributes>
             <Attribute id="2338" value="" name="ident"/>
            </Attributes>
            <MetaData>
             <entry key="WinSubProjectDisplayName" val=""/>
            </MetaData>
            <ExtraData>
             <Entry key="ZoomPanBin">
              <ZoomPanBin id="2339"  >
               <ZoomPanKeyframes>
                <ZoomPanKeyframe id="2340" timeRangeEnd="-9999999/1" timeRangeDuration="0/1" interpolaterName=""  />
               </ZoomPanKeyframes>
              </ZoomPanBin>
             </Entry>
            </ExtraData>
           </VMFile>
           <IMFile id="2341" start="8154" duration="60" scalar="1/1" mediaStart="29056/1" mediaDuration="1/1" trackNumber="0" src="4" trimStartSum="0/1" >
            <Transformer>
             <VectorParam id="2342"  name="translation">
              <InterpolatingParam id="2343" interp="linr"  time="-9999999/1" value="0" leadInLength="0/1"  />
              <InterpolatingParam id="2344" interp="linr"  time="-9999999/1" value="0" leadInLength="0/1"  />
              <InterpolatingParam id="2345" interp="linr"  time="-9999999/1" value="0" leadInLength="0/1"  />
             </VectorParam>
             <VectorParam id="2346"  name="rotation">
              <InterpolatingParam id="2347" interp="linr"  time="-9999999/1" value="0" leadInLength="0/1"  />
              <InterpolatingParam id="2348" interp="linr"  time="-9999999/1" value="0" leadInLength="0/1"  />
              <InterpolatingParam id="2349" interp="linr"  time="-9999999/1" value="0" leadInLength="0/1"  />
             </VectorParam>
             <VectorParam id="2350"  name="shear">
              <InterpolatingParam id="2351" interp="linr"  time="-9999999/1" value="0" leadInLength="0/1"  />
              <InterpolatingParam id="2352" interp="linr"  time="-9999999/1" value="0" leadInLength="0/1"  />
              <InterpolatingParam id="2353" interp="linr"  time="-9999999/1" value="0" leadInLength="0/1"  />
             </VectorParam>
             <VectorParam id="2354"  name="scale">
              <InterpolatingParam id="2355" interp="linr"  time="-9999999/1" value="1" leadInLength="0/1"  />
              <InterpolatingParam id="2356" interp="linr"  time="-9999999/1" value="1" leadInLength="0/1"  />
              <InterpolatingParam id="2357" interp="linr"  time="-9999999/1" value="1" leadInLength="0/1"  />
             </VectorParam>
             <VectorParam id="2358"  name="anchor">
              <InterpolatingParam id="2359" interp="linr"  time="0/1" value="0" leadInLength="0/1"  />
              <InterpolatingParam id="2360" interp="linr"  time="0/1" value="0" leadInLength="0/1"  />
              <InterpolatingParam id="2361" interp="linr"  time="0/1" value="0" leadInLength="0/1"  />
             </VectorParam>
            </Transformer>
            <Parameters>
             <VectorParam id="2362"  name="sourceCrop">
              <InterpolatingParam id="2363" interp="linr"  time="0/1" value="0" leadInLength="0/1"  />
              <InterpolatingParam id="2364" interp="linr"  time="0/1" value="0" leadInLength="0/1"  />
              <InterpolatingParam id="2365" interp="linr"  time="0/1" value="0" leadInLength="0/1"  />
              <InterpolatingParam id="2366" interp="linr"  time="0/1" value="0" leadInLength="0/1"  />
             </VectorParam>
             <VectorParam id="2367"  name="geometryCrop">
              <InterpolatingParam id="2368" interp="linr"  time="-9999999/1" value="0" leadInLength="0/1"  />
              <InterpolatingParam id="2369" interp="linr"  time="-9999999/1" value="0" leadInLength="0/1"  />
              <InterpolatingParam id="2370" interp="linr"  time="-9999999/1" value="0" leadInLength="0/1"  />
              <InterpolatingParam id="2371" interp="linr"  time="-9999999/1" value="0" leadInLength="0/1"  />
             </VectorParam>
             <InterpolatingParam id="2372" interp="linr"  time="-9999999/1" value="1" leadInLength="0/1"  name="opacity"/>
            </Parameters>
            <Attributes>
             <Attribute id="2373" value="" name="ident"/>
            </Attributes>
            <MetaData>
             <entry key="WinSubProjectDisplayName" val=""/>
            </MetaData>
            <ExtraData>
             <Entry key="ZoomPanBin">
              <ZoomPanBin id="2374"  >
               <ZoomPanKeyframes>
                <ZoomPanKeyframe id="2375" timeRangeEnd="-9999999/1" timeRangeDuration="0/1" interpolaterName=""  />
               </ZoomPanKeyframes>
              </ZoomPanBin>
             </Entry>
            </ExtraData>
           </IMFile>
           <VMFile id="2376" start="8214" duration="18" scalar="1/1" mediaStart="29056/1" mediaDuration="18/1" trackNumber="0" src="4" >
            <Transformer>
             <VectorParam id="2377"  name="translation">
              <InterpolatingParam id="2378" interp="linr"  time="-9999999/1" value="0" leadInLength="0/1"  />
              <InterpolatingParam id="2379" interp="linr"  time="-9999999/1" value="0" leadInLength="0/1"  />
              <InterpolatingParam id="2380" interp="linr"  time="-9999999/1" value="0" leadInLength="0/1"  />
             </VectorParam>
             <VectorParam id="2381"  name="rotation">
              <InterpolatingParam id="2382" interp="linr"  time="-9999999/1" value="0" leadInLength="0/1"  />
              <InterpolatingParam id="2383" interp="linr"  time="-9999999/1" value="0" leadInLength="0/1"  />
              <InterpolatingParam id="2384" interp="linr"  time="-9999999/1" value="0" leadInLength="0/1"  />
             </VectorParam>
             <VectorParam id="2385"  name="shear">
              <InterpolatingParam id="2386" interp="linr"  time="-9999999/1" value="0" leadInLength="0/1"  />
              <InterpolatingParam id="2387" interp="linr"  time="-9999999/1" value="0" leadInLength="0/1"  />
              <InterpolatingParam id="2388" interp="linr"  time="-9999999/1" value="0" leadInLength="0/1"  />
             </VectorParam>
             <VectorParam id="2389"  name="scale">
              <InterpolatingParam id="2390" interp="linr"  time="-9999999/1" value="1" leadInLength="0/1"  />
              <InterpolatingParam id="2391" interp="linr"  time="-9999999/1" value="1" leadInLength="0/1"  />
              <InterpolatingParam id="2392" interp="linr"  time="-9999999/1" value="1" leadInLength="0/1"  />
             </VectorParam>
             <VectorParam id="2393"  name="anchor">
              <InterpolatingParam id="2394" interp="linr"  time="0/1" value="0" leadInLength="0/1"  />
              <InterpolatingParam id="2395" interp="linr"  time="0/1" value="0" leadInLength="0/1"  />
              <InterpolatingParam id="2396" interp="linr"  time="0/1" value="0" leadInLength="0/1"  />
             </VectorParam>
            </Transformer>
            <Parameters>
             <VectorParam id="2397"  name="sourceCrop">
              <InterpolatingParam id="2398" interp="linr"  time="0/1" value="0" leadInLength="0/1"  />
              <InterpolatingParam id="2399" interp="linr"  time="0/1" value="0" leadInLength="0/1"  />
              <InterpolatingParam id="2400" interp="linr"  time="0/1" value="0" leadInLength="0/1"  />
              <InterpolatingParam id="2401" interp="linr"  time="0/1" value="0" leadInLength="0/1"  />
             </VectorParam>
             <VectorParam id="2402"  name="geometryCrop">
              <InterpolatingParam id="2403" interp="linr"  time="-9999999/1" value="0" leadInLength="0/1"  />
              <InterpolatingParam id="2404" interp="linr"  time="-9999999/1" value="0" leadInLength="0/1"  />
              <InterpolatingParam id="2405" interp="linr"  time="-9999999/1" value="0" leadInLength="0/1"  />
              <InterpolatingParam id="2406" interp="linr"  time="-9999999/1" value="0" leadInLength="0/1"  />
             </VectorParam>
             <InterpolatingParam id="2407" interp="linr"  time="-9999999/1" value="1" leadInLength="0/1"  name="opacity"/>
            </Parameters>
            <Attributes>
             <Attribute id="2408" value="" name="ident"/>
            </Attributes>
            <MetaData>
             <entry key="WinSubProjectDisplayName" val=""/>
            </MetaData>
            <ExtraData>
             <Entry key="ZoomPanBin">
              <ZoomPanBin id="2409"  >
               <ZoomPanKeyframes>
                <ZoomPanKeyframe id="2410" timeRangeEnd="-9999999/1" timeRangeDuration="0/1" interpolaterName=""  />
               </ZoomPanKeyframes>
              </ZoomPanBin>
             </Entry>
            </ExtraData>
           </VMFile>
           <IMFile id="2411" start="8232" duration="30" scalar="1/1" mediaStart="29074/1" mediaDuration="1/1" trackNumber="0" src="4" trimStartSum="0/1" >
            <Transformer>
             <VectorParam id="2412"  name="translation">
              <InterpolatingParam id="2413" interp="linr"  time="-9999999/1" value="0" leadInLength="0/1"  />
              <InterpolatingParam id="2414" interp="linr"  time="-9999999/1" value="0" leadInLength="0/1"  />
              <InterpolatingParam id="2415" interp="linr"  time="-9999999/1" value="0" leadInLength="0/1"  />
             </VectorParam>
             <VectorParam id="2416"  name="rotation">
              <InterpolatingParam id="2417" interp="linr"  time="-9999999/1" value="0" leadInLength="0/1"  />
              <InterpolatingParam id="2418" interp="linr"  time="-9999999/1" value="0" leadInLength="0/1"  />
              <InterpolatingParam id="2419" interp="linr"  time="-9999999/1" value="0" leadInLength="0/1"  />
             </VectorParam>
             <VectorParam id="2420"  name="shear">
              <InterpolatingParam id="2421" interp="linr"  time="-9999999/1" value="0" leadInLength="0/1"  />
              <InterpolatingParam id="2422" interp="linr"  time="-9999999/1" value="0" leadInLength="0/1"  />
              <InterpolatingParam id="2423" interp="linr"  time="-9999999/1" value="0" leadInLength="0/1"  />
             </VectorParam>
             <VectorParam id="2424"  name="scale">
              <InterpolatingParam id="2425" interp="linr"  time="-9999999/1" value="1" leadInLength="0/1"  />
              <InterpolatingParam id="2426" interp="linr"  time="-9999999/1" value="1" leadInLength="0/1"  />
              <InterpolatingParam id="2427" interp="linr"  time="-9999999/1" value="1" leadInLength="0/1"  />
             </VectorParam>
             <VectorParam id="2428"  name="anchor">
              <InterpolatingParam id="2429" interp="linr"  time="0/1" value="0" leadInLength="0/1"  />
              <InterpolatingParam id="2430" interp="linr"  time="0/1" value="0" leadInLength="0/1"  />
              <InterpolatingParam id="2431" interp="linr"  time="0/1" value="0" leadInLength="0/1"  />
             </VectorParam>
            </Transformer>
            <Parameters>
             <VectorParam id="2432"  name="sourceCrop">
              <InterpolatingParam id="2433" interp="linr"  time="0/1" value="0" leadInLength="0/1"  />
              <InterpolatingParam id="2434" interp="linr"  time="0/1" value="0" leadInLength="0/1"  />
              <InterpolatingParam id="2435" interp="linr"  time="0/1" value="0" leadInLength="0/1"  />
              <InterpolatingParam id="2436" interp="linr"  time="0/1" value="0" leadInLength="0/1"  />
             </VectorParam>
             <VectorParam id="2437"  name="geometryCrop">
              <InterpolatingParam id="2438" interp="linr"  time="-9999999/1" value="0" leadInLength="0/1"  />
              <InterpolatingParam id="2439" interp="linr"  time="-9999999/1" value="0" leadInLength="0/1"  />
              <InterpolatingParam id="2440" interp="linr"  time="-9999999/1" value="0" leadInLength="0/1"  />
              <InterpolatingParam id="2441" interp="linr"  time="-9999999/1" value="0" leadInLength="0/1"  />
             </VectorParam>
             <InterpolatingParam id="2442" interp="linr"  time="-9999999/1" value="1" leadInLength="0/1"  name="opacity"/>
            </Parameters>
            <Attributes>
             <Attribute id="2443" value="" name="ident"/>
            </Attributes>
            <MetaData>
             <entry key="WinSubProjectDisplayName" val=""/>
            </MetaData>
            <ExtraData>
             <Entry key="ZoomPanBin">
              <ZoomPanBin id="2444"  >
               <ZoomPanKeyframes>
                <ZoomPanKeyframe id="2445" timeRangeEnd="-9999999/1" timeRangeDuration="0/1" interpolaterName=""  />
               </ZoomPanKeyframes>
              </ZoomPanBin>
             </Entry>
            </ExtraData>
           </IMFile>
           <VMFile id="2446" start="8262" duration="1" scalar="1/1" mediaStart="29074/1" mediaDuration="1/1" trackNumber="0" src="4" >
            <Transformer>
             <VectorParam id="2447"  name="translation">
              <InterpolatingParam id="2448" interp="linr"  time="-9999999/1" value="0" leadInLength="0/1"  />
              <InterpolatingParam id="2449" interp="linr"  time="-9999999/1" value="0" leadInLength="0/1"  />
              <InterpolatingParam id="2450" interp="linr"  time="-9999999/1" value="0" leadInLength="0/1"  />
             </VectorParam>
             <VectorParam id="2451"  name="rotation">
              <InterpolatingParam id="2452" interp="linr"  time="-9999999/1" value="0" leadInLength="0/1"  />
              <InterpolatingParam id="2453" interp="linr"  time="-9999999/1" value="0" leadInLength="0/1"  />
              <InterpolatingParam id="2454" interp="linr"  time="-9999999/1" value="0" leadInLength="0/1"  />
             </VectorParam>
             <VectorParam id="2455"  name="shear">
              <InterpolatingParam id="2456" interp="linr"  time="-9999999/1" value="0" leadInLength="0/1"  />
              <InterpolatingParam id="2457" interp="linr"  time="-9999999/1" value="0" leadInLength="0/1"  />
              <InterpolatingParam id="2458" interp="linr"  time="-9999999/1" value="0" leadInLength="0/1"  />
             </VectorParam>
             <VectorParam id="2459"  name="scale">
              <InterpolatingParam id="2460" interp="linr"  time="-9999999/1" value="1" leadInLength="0/1"  />
              <InterpolatingParam id="2461" interp="linr"  time="-9999999/1" value="1" leadInLength="0/1"  />
              <InterpolatingParam id="2462" interp="linr"  time="-9999999/1" value="1" leadInLength="0/1"  />
             </VectorParam>
             <VectorParam id="2463"  name="anchor">
              <InterpolatingParam id="2464" interp="linr"  time="0/1" value="0" leadInLength="0/1"  />
              <InterpolatingParam id="2465" interp="linr"  time="0/1" value="0" leadInLength="0/1"  />
              <InterpolatingParam id="2466" interp="linr"  time="0/1" value="0" leadInLength="0/1"  />
             </VectorParam>
            </Transformer>
            <Parameters>
             <VectorParam id="2467"  name="sourceCrop">
              <InterpolatingParam id="2468" interp="linr"  time="0/1" value="0" leadInLength="0/1"  />
              <InterpolatingParam id="2469" interp="linr"  time="0/1" value="0" leadInLength="0/1"  />
              <InterpolatingParam id="2470" interp="linr"  time="0/1" value="0" leadInLength="0/1"  />
              <InterpolatingParam id="2471" interp="linr"  time="0/1" value="0" leadInLength="0/1"  />
             </VectorParam>
             <VectorParam id="2472"  name="geometryCrop">
              <InterpolatingParam id="2473" interp="linr"  time="-9999999/1" value="0" leadInLength="0/1"  />
              <InterpolatingParam id="2474" interp="linr"  time="-9999999/1" value="0" leadInLength="0/1"  />
              <InterpolatingParam id="2475" interp="linr"  time="-9999999/1" value="0" leadInLength="0/1"  />
              <InterpolatingParam id="2476" interp="linr"  time="-9999999/1" value="0" leadInLength="0/1"  />
             </VectorParam>
             <InterpolatingParam id="2477" interp="linr"  time="-9999999/1" value="1" leadInLength="0/1"  name="opacity"/>
            </Parameters>
            <Attributes>
             <Attribute id="2478" value="" name="ident"/>
            </Attributes>
            <MetaData>
             <entry key="WinSubProjectDisplayName" val=""/>
            </MetaData>
            <ExtraData>
             <Entry key="ZoomPanBin">
              <ZoomPanBin id="2479"  >
               <ZoomPanKeyframes>
                <ZoomPanKeyframe id="2480" timeRangeEnd="-9999999/1" timeRangeDuration="0/1" interpolaterName=""  />
               </ZoomPanKeyframes>
              </ZoomPanBin>
             </Entry>
            </ExtraData>
           </VMFile>
           <VMFile id="2481" start="8263" duration="42" scalar="1/1" mediaStart="29274/1" mediaDuration="42/1" trackNumber="0" src="4" >
            <Transformer>
             <VectorParam id="2482"  name="translation">
              <InterpolatingParam id="2483" interp="linr"  time="-9999999/1" value="0" leadInLength="0/1"  />
              <InterpolatingParam id="2484" interp="linr"  time="-9999999/1" value="0" leadInLength="0/1"  />
              <InterpolatingParam id="2485" interp="linr"  time="-9999999/1" value="0" leadInLength="0/1"  />
             </VectorParam>
             <VectorParam id="2486"  name="rotation">
              <InterpolatingParam id="2487" interp="linr"  time="-9999999/1" value="0" leadInLength="0/1"  />
              <InterpolatingParam id="2488" interp="linr"  time="-9999999/1" value="0" leadInLength="0/1"  />
              <InterpolatingParam id="2489" interp="linr"  time="-9999999/1" value="0" leadInLength="0/1"  />
             </VectorParam>
             <VectorParam id="2490"  name="shear">
              <InterpolatingParam id="2491" interp="linr"  time="-9999999/1" value="0" leadInLength="0/1"  />
              <InterpolatingParam id="2492" interp="linr"  time="-9999999/1" value="0" leadInLength="0/1"  />
              <InterpolatingParam id="2493" interp="linr"  time="-9999999/1" value="0" leadInLength="0/1"  />
             </VectorParam>
             <VectorParam id="2494"  name="scale">
              <InterpolatingParam id="2495" interp="linr"  time="-9999999/1" value="1" leadInLength="0/1"  />
              <InterpolatingParam id="2496" interp="linr"  time="-9999999/1" value="1" leadInLength="0/1"  />
              <InterpolatingParam id="2497" interp="linr"  time="-9999999/1" value="1" leadInLength="0/1"  />
             </VectorParam>
             <VectorParam id="2498"  name="anchor">
              <InterpolatingParam id="2499" interp="linr"  time="0/1" value="0" leadInLength="0/1"  />
              <InterpolatingParam id="2500" interp="linr"  time="0/1" value="0" leadInLength="0/1"  />
              <InterpolatingParam id="2501" interp="linr"  time="0/1" value="0" leadInLength="0/1"  />
             </VectorParam>
            </Transformer>
            <Parameters>
             <VectorParam id="2502"  name="sourceCrop">
              <InterpolatingParam id="2503" interp="linr"  time="0/1" value="0" leadInLength="0/1"  />
              <InterpolatingParam id="2504" interp="linr"  time="0/1" value="0" leadInLength="0/1"  />
              <InterpolatingParam id="2505" interp="linr"  time="0/1" value="0" leadInLength="0/1"  />
              <InterpolatingParam id="2506" interp="linr"  time="0/1" value="0" leadInLength="0/1"  />
             </VectorParam>
             <VectorParam id="2507"  name="geometryCrop">
              <InterpolatingParam id="2508" interp="linr"  time="-9999999/1" value="0" leadInLength="0/1"  />
              <InterpolatingParam id="2509" interp="linr"  time="-9999999/1" value="0" leadInLength="0/1"  />
              <InterpolatingParam id="2510" interp="linr"  time="-9999999/1" value="0" leadInLength="0/1"  />
              <InterpolatingParam id="2511" interp="linr"  time="-9999999/1" value="0" leadInLength="0/1"  />
             </VectorParam>
             <InterpolatingParam id="2512" interp="linr"  time="-9999999/1" value="1" leadInLength="0/1"  name="opacity"/>
            </Parameters>
            <Attributes>
             <Attribute id="2513" value="" name="ident"/>
            </Attributes>
            <MetaData>
             <entry key="WinSubProjectDisplayName" val=""/>
            </MetaData>
            <ExtraData>
             <Entry key="ZoomPanBin">
              <ZoomPanBin id="2514"  >
               <ZoomPanKeyframes>
                <ZoomPanKeyframe id="2515" timeRangeEnd="-9999999/1" timeRangeDuration="0/1" interpolaterName=""  />
               </ZoomPanKeyframes>
              </ZoomPanBin>
             </Entry>
            </ExtraData>
           </VMFile>
           <VMFile id="2516" start="8305" duration="147" scalar="1/1" mediaStart="29358/1" mediaDuration="147/1" trackNumber="0" src="4" >
            <Transformer>
             <VectorParam id="2517"  name="translation">
              <InterpolatingParam id="2518" interp="linr"  time="-9999999/1" value="0" leadInLength="0/1"  />
              <InterpolatingParam id="2519" interp="linr"  time="-9999999/1" value="0" leadInLength="0/1"  />
              <InterpolatingParam id="2520" interp="linr"  time="-9999999/1" value="0" leadInLength="0/1"  />
             </VectorParam>
             <VectorParam id="2521"  name="rotation">
              <InterpolatingParam id="2522" interp="linr"  time="-9999999/1" value="0" leadInLength="0/1"  />
              <InterpolatingParam id="2523" interp="linr"  time="-9999999/1" value="0" leadInLength="0/1"  />
              <InterpolatingParam id="2524" interp="linr"  time="-9999999/1" value="0" leadInLength="0/1"  />
             </VectorParam>
             <VectorParam id="2525"  name="shear">
              <InterpolatingParam id="2526" interp="linr"  time="-9999999/1" value="0" leadInLength="0/1"  />
              <InterpolatingParam id="2527" interp="linr"  time="-9999999/1" value="0" leadInLength="0/1"  />
              <InterpolatingParam id="2528" interp="linr"  time="-9999999/1" value="0" leadInLength="0/1"  />
             </VectorParam>
             <VectorParam id="2529"  name="scale">
              <InterpolatingParam id="2530" interp="linr"  time="-9999999/1" value="1" leadInLength="0/1"  />
              <InterpolatingParam id="2531" interp="linr"  time="-9999999/1" value="1" leadInLength="0/1"  />
              <InterpolatingParam id="2532" interp="linr"  time="-9999999/1" value="1" leadInLength="0/1"  />
             </VectorParam>
             <VectorParam id="2533"  name="anchor">
              <InterpolatingParam id="2534" interp="linr"  time="0/1" value="0" leadInLength="0/1"  />
              <InterpolatingParam id="2535" interp="linr"  time="0/1" value="0" leadInLength="0/1"  />
              <InterpolatingParam id="2536" interp="linr"  time="0/1" value="0" leadInLength="0/1"  />
             </VectorParam>
            </Transformer>
            <Parameters>
             <VectorParam id="2537"  name="sourceCrop">
              <InterpolatingParam id="2538" interp="linr"  time="0/1" value="0" leadInLength="0/1"  />
              <InterpolatingParam id="2539" interp="linr"  time="0/1" value="0" leadInLength="0/1"  />
              <InterpolatingParam id="2540" interp="linr"  time="0/1" value="0" leadInLength="0/1"  />
              <InterpolatingParam id="2541" interp="linr"  time="0/1" value="0" leadInLength="0/1"  />
             </VectorParam>
             <VectorParam id="2542"  name="geometryCrop">
              <InterpolatingParam id="2543" interp="linr"  time="-9999999/1" value="0" leadInLength="0/1"  />
              <InterpolatingParam id="2544" interp="linr"  time="-9999999/1" value="0" leadInLength="0/1"  />
              <InterpolatingParam id="2545" interp="linr"  time="-9999999/1" value="0" leadInLength="0/1"  />
              <InterpolatingParam id="2546" interp="linr"  time="-9999999/1" value="0" leadInLength="0/1"  />
             </VectorParam>
             <InterpolatingParam id="2547" interp="linr"  time="-9999999/1" value="1" leadInLength="0/1"  name="opacity"/>
            </Parameters>
            <Attributes>
             <Attribute id="2548" value="" name="ident"/>
            </Attributes>
            <MetaData>
             <entry key="WinSubProjectDisplayName" val=""/>
            </MetaData>
            <ExtraData>
             <Entry key="ZoomPanBin">
              <ZoomPanBin id="2549"  >
               <ZoomPanKeyframes>
                <ZoomPanKeyframe id="2550" timeRangeEnd="-9999999/1" timeRangeDuration="0/1" interpolaterName=""  />
               </ZoomPanKeyframes>
              </ZoomPanBin>
             </Entry>
            </ExtraData>
           </VMFile>
           <VMFile id="2551" start="8452" duration="580" scalar="1/1" mediaStart="29557/1" mediaDuration="580/1" trackNumber="0" src="4" >
            <Transformer>
             <VectorParam id="2552"  name="translation">
              <InterpolatingParam id="2553" interp="linr"  time="-9999999/1" value="0" leadInLength="0/1"  />
              <InterpolatingParam id="2554" interp="linr"  time="-9999999/1" value="0" leadInLength="0/1"  />
              <InterpolatingParam id="2555" interp="linr"  time="-9999999/1" value="0" leadInLength="0/1"  />
             </VectorParam>
             <VectorParam id="2556"  name="rotation">
              <InterpolatingParam id="2557" interp="linr"  time="-9999999/1" value="0" leadInLength="0/1"  />
              <InterpolatingParam id="2558" interp="linr"  time="-9999999/1" value="0" leadInLength="0/1"  />
              <InterpolatingParam id="2559" interp="linr"  time="-9999999/1" value="0" leadInLength="0/1"  />
             </VectorParam>
             <VectorParam id="2560"  name="shear">
              <InterpolatingParam id="2561" interp="linr"  time="-9999999/1" value="0" leadInLength="0/1"  />
              <InterpolatingParam id="2562" interp="linr"  time="-9999999/1" value="0" leadInLength="0/1"  />
              <InterpolatingParam id="2563" interp="linr"  time="-9999999/1" value="0" leadInLength="0/1"  />
             </VectorParam>
             <VectorParam id="2564"  name="scale">
              <InterpolatingParam id="2565" interp="linr"  time="-9999999/1" value="1" leadInLength="0/1"  />
              <InterpolatingParam id="2566" interp="linr"  time="-9999999/1" value="1" leadInLength="0/1"  />
              <InterpolatingParam id="2567" interp="linr"  time="-9999999/1" value="1" leadInLength="0/1"  />
             </VectorParam>
             <VectorParam id="2568"  name="anchor">
              <InterpolatingParam id="2569" interp="linr"  time="0/1" value="0" leadInLength="0/1"  />
              <InterpolatingParam id="2570" interp="linr"  time="0/1" value="0" leadInLength="0/1"  />
              <InterpolatingParam id="2571" interp="linr"  time="0/1" value="0" leadInLength="0/1"  />
             </VectorParam>
            </Transformer>
            <Parameters>
             <VectorParam id="2572"  name="sourceCrop">
              <InterpolatingParam id="2573" interp="linr"  time="0/1" value="0" leadInLength="0/1"  />
              <InterpolatingParam id="2574" interp="linr"  time="0/1" value="0" leadInLength="0/1"  />
              <InterpolatingParam id="2575" interp="linr"  time="0/1" value="0" leadInLength="0/1"  />
              <InterpolatingParam id="2576" interp="linr"  time="0/1" value="0" leadInLength="0/1"  />
             </VectorParam>
             <VectorParam id="2577"  name="geometryCrop">
              <InterpolatingParam id="2578" interp="linr"  time="-9999999/1" value="0" leadInLength="0/1"  />
              <InterpolatingParam id="2579" interp="linr"  time="-9999999/1" value="0" leadInLength="0/1"  />
              <InterpolatingParam id="2580" interp="linr"  time="-9999999/1" value="0" leadInLength="0/1"  />
              <InterpolatingParam id="2581" interp="linr"  time="-9999999/1" value="0" leadInLength="0/1"  />
             </VectorParam>
             <InterpolatingParam id="2582" interp="linr"  time="-9999999/1" value="1" leadInLength="0/1"  name="opacity"/>
            </Parameters>
            <Attributes>
             <Attribute id="2583" value="" name="ident"/>
            </Attributes>
            <MetaData>
             <entry key="WinSubProjectDisplayName" val=""/>
            </MetaData>
            <ExtraData>
             <Entry key="ZoomPanBin">
              <ZoomPanBin id="2584"  >
               <ZoomPanKeyframes>
                <ZoomPanKeyframe id="2585" timeRangeEnd="-9999999/1" timeRangeDuration="0/1" interpolaterName=""  />
               </ZoomPanKeyframes>
              </ZoomPanBin>
             </Entry>
            </ExtraData>
           </VMFile>
           <VMFile id="2586" start="9032" duration="25" scalar="1/1" mediaStart="30200/1" mediaDuration="25/1" trackNumber="0" src="4" >
            <Transformer>
             <VectorParam id="2587"  name="translation">
              <InterpolatingParam id="2588" interp="linr"  time="-9999999/1" value="0" leadInLength="0/1"  />
              <InterpolatingParam id="2589" interp="linr"  time="-9999999/1" value="0" leadInLength="0/1"  />
              <InterpolatingParam id="2590" interp="linr"  time="-9999999/1" value="0" leadInLength="0/1"  />
             </VectorParam>
             <VectorParam id="2591"  name="rotation">
              <InterpolatingParam id="2592" interp="linr"  time="-9999999/1" value="0" leadInLength="0/1"  />
              <InterpolatingParam id="2593" interp="linr"  time="-9999999/1" value="0" leadInLength="0/1"  />
              <InterpolatingParam id="2594" interp="linr"  time="-9999999/1" value="0" leadInLength="0/1"  />
             </VectorParam>
             <VectorParam id="2595"  name="shear">
              <InterpolatingParam id="2596" interp="linr"  time="-9999999/1" value="0" leadInLength="0/1"  />
              <InterpolatingParam id="2597" interp="linr"  time="-9999999/1" value="0" leadInLength="0/1"  />
              <InterpolatingParam id="2598" interp="linr"  time="-9999999/1" value="0" leadInLength="0/1"  />
             </VectorParam>
             <VectorParam id="2599"  name="scale">
              <InterpolatingParam id="2600" interp="linr"  time="-9999999/1" value="1" leadInLength="0/1"  />
              <InterpolatingParam id="2601" interp="linr"  time="-9999999/1" value="1" leadInLength="0/1"  />
              <InterpolatingParam id="2602" interp="linr"  time="-9999999/1" value="1" leadInLength="0/1"  />
             </VectorParam>
             <VectorParam id="2603"  name="anchor">
              <InterpolatingParam id="2604" interp="linr"  time="0/1" value="0" leadInLength="0/1"  />
              <InterpolatingParam id="2605" interp="linr"  time="0/1" value="0" leadInLength="0/1"  />
              <InterpolatingParam id="2606" interp="linr"  time="0/1" value="0" leadInLength="0/1"  />
             </VectorParam>
            </Transformer>
            <Parameters>
             <VectorParam id="2607"  name="sourceCrop">
              <InterpolatingParam id="2608" interp="linr"  time="0/1" value="0" leadInLength="0/1"  />
              <InterpolatingParam id="2609" interp="linr"  time="0/1" value="0" leadInLength="0/1"  />
              <InterpolatingParam id="2610" interp="linr"  time="0/1" value="0" leadInLength="0/1"  />
              <InterpolatingParam id="2611" interp="linr"  time="0/1" value="0" leadInLength="0/1"  />
             </VectorParam>
             <VectorParam id="2612"  name="geometryCrop">
              <InterpolatingParam id="2613" interp="linr"  time="-9999999/1" value="0" leadInLength="0/1"  />
              <InterpolatingParam id="2614" interp="linr"  time="-9999999/1" value="0" leadInLength="0/1"  />
              <InterpolatingParam id="2615" interp="linr"  time="-9999999/1" value="0" leadInLength="0/1"  />
              <InterpolatingParam id="2616" interp="linr"  time="-9999999/1" value="0" leadInLength="0/1"  />
             </VectorParam>
             <InterpolatingParam id="2617" interp="linr"  time="-9999999/1" value="1" leadInLength="0/1"  name="opacity"/>
            </Parameters>
            <Attributes>
             <Attribute id="2618" value="" name="ident"/>
            </Attributes>
            <MetaData>
             <entry key="WinSubProjectDisplayName" val=""/>
            </MetaData>
            <ExtraData>
             <Entry key="ZoomPanBin">
              <ZoomPanBin id="2619"  >
               <ZoomPanKeyframes>
                <ZoomPanKeyframe id="2620" timeRangeEnd="-9999999/1" timeRangeDuration="0/1" interpolaterName=""  />
               </ZoomPanKeyframes>
              </ZoomPanBin>
             </Entry>
            </ExtraData>
           </VMFile>
           <VMFile id="2621" start="9057" duration="119" scalar="1/1" mediaStart="30368/1" mediaDuration="119/1" trackNumber="0" src="4" >
            <Transformer>
             <VectorParam id="2622"  name="translation">
              <InterpolatingParam id="2623" interp="linr"  time="-9999999/1" value="0" leadInLength="0/1"  />
              <InterpolatingParam id="2624" interp="linr"  time="-9999999/1" value="0" leadInLength="0/1"  />
              <InterpolatingParam id="2625" interp="linr"  time="-9999999/1" value="0" leadInLength="0/1"  />
             </VectorParam>
             <VectorParam id="2626"  name="rotation">
              <InterpolatingParam id="2627" interp="linr"  time="-9999999/1" value="0" leadInLength="0/1"  />
              <InterpolatingParam id="2628" interp="linr"  time="-9999999/1" value="0" leadInLength="0/1"  />
              <InterpolatingParam id="2629" interp="linr"  time="-9999999/1" value="0" leadInLength="0/1"  />
             </VectorParam>
             <VectorParam id="2630"  name="shear">
              <InterpolatingParam id="2631" interp="linr"  time="-9999999/1" value="0" leadInLength="0/1"  />
              <InterpolatingParam id="2632" interp="linr"  time="-9999999/1" value="0" leadInLength="0/1"  />
              <InterpolatingParam id="2633" interp="linr"  time="-9999999/1" value="0" leadInLength="0/1"  />
             </VectorParam>
             <VectorParam id="2634"  name="scale">
              <InterpolatingParam id="2635" interp="linr"  time="-9999999/1" value="1" leadInLength="0/1"  />
              <InterpolatingParam id="2636" interp="linr"  time="-9999999/1" value="1" leadInLength="0/1"  />
              <InterpolatingParam id="2637" interp="linr"  time="-9999999/1" value="1" leadInLength="0/1"  />
             </VectorParam>
             <VectorParam id="2638"  name="anchor">
              <InterpolatingParam id="2639" interp="linr"  time="0/1" value="0" leadInLength="0/1"  />
              <InterpolatingParam id="2640" interp="linr"  time="0/1" value="0" leadInLength="0/1"  />
              <InterpolatingParam id="2641" interp="linr"  time="0/1" value="0" leadInLength="0/1"  />
             </VectorParam>
            </Transformer>
            <Parameters>
             <VectorParam id="2642"  name="sourceCrop">
              <InterpolatingParam id="2643" interp="linr"  time="0/1" value="0" leadInLength="0/1"  />
              <InterpolatingParam id="2644" interp="linr"  time="0/1" value="0" leadInLength="0/1"  />
              <InterpolatingParam id="2645" interp="linr"  time="0/1" value="0" leadInLength="0/1"  />
              <InterpolatingParam id="2646" interp="linr"  time="0/1" value="0" leadInLength="0/1"  />
             </VectorParam>
             <VectorParam id="2647"  name="geometryCrop">
              <InterpolatingParam id="2648" interp="linr"  time="-9999999/1" value="0" leadInLength="0/1"  />
              <InterpolatingParam id="2649" interp="linr"  time="-9999999/1" value="0" leadInLength="0/1"  />
              <InterpolatingParam id="2650" interp="linr"  time="-9999999/1" value="0" leadInLength="0/1"  />
              <InterpolatingParam id="2651" interp="linr"  time="-9999999/1" value="0" leadInLength="0/1"  />
             </VectorParam>
             <InterpolatingParam id="2652" interp="linr"  time="-9999999/1" value="1" leadInLength="0/1"  name="opacity"/>
            </Parameters>
            <Attributes>
             <Attribute id="2653" value="" name="ident"/>
            </Attributes>
            <MetaData>
             <entry key="WinSubProjectDisplayName" val=""/>
            </MetaData>
            <ExtraData>
             <Entry key="ZoomPanBin">
              <ZoomPanBin id="2654"  >
               <ZoomPanKeyframes>
                <ZoomPanKeyframe id="2655" timeRangeEnd="-9999999/1" timeRangeDuration="0/1" interpolaterName=""  />
               </ZoomPanKeyframes>
              </ZoomPanBin>
             </Entry>
            </ExtraData>
           </VMFile>
           <VMFile id="2656" start="9176" duration="411" scalar="1/1" mediaStart="30756/1" mediaDuration="411/1" trackNumber="0" src="4" >
            <Transformer>
             <VectorParam id="2657"  name="translation">
              <InterpolatingParam id="2658" interp="linr"  time="-9999999/1" value="0" leadInLength="0/1"  />
              <InterpolatingParam id="2659" interp="linr"  time="-9999999/1" value="0" leadInLength="0/1"  />
              <InterpolatingParam id="2660" interp="linr"  time="-9999999/1" value="0" leadInLength="0/1"  />
             </VectorParam>
             <VectorParam id="2661"  name="rotation">
              <InterpolatingParam id="2662" interp="linr"  time="-9999999/1" value="0" leadInLength="0/1"  />
              <InterpolatingParam id="2663" interp="linr"  time="-9999999/1" value="0" leadInLength="0/1"  />
              <InterpolatingParam id="2664" interp="linr"  time="-9999999/1" value="0" leadInLength="0/1"  />
             </VectorParam>
             <VectorParam id="2665"  name="shear">
              <InterpolatingParam id="2666" interp="linr"  time="-9999999/1" value="0" leadInLength="0/1"  />
              <InterpolatingParam id="2667" interp="linr"  time="-9999999/1" value="0" leadInLength="0/1"  />
              <InterpolatingParam id="2668" interp="linr"  time="-9999999/1" value="0" leadInLength="0/1"  />
             </VectorParam>
             <VectorParam id="2669"  name="scale">
              <InterpolatingParam id="2670" interp="linr"  time="-9999999/1" value="1" leadInLength="0/1"  />
              <InterpolatingParam id="2671" interp="linr"  time="-9999999/1" value="1" leadInLength="0/1"  />
              <InterpolatingParam id="2672" interp="linr"  time="-9999999/1" value="1" leadInLength="0/1"  />
             </VectorParam>
             <VectorParam id="2673"  name="anchor">
              <InterpolatingParam id="2674" interp="linr"  time="0/1" value="0" leadInLength="0/1"  />
              <InterpolatingParam id="2675" interp="linr"  time="0/1" value="0" leadInLength="0/1"  />
              <InterpolatingParam id="2676" interp="linr"  time="0/1" value="0" leadInLength="0/1"  />
             </VectorParam>
            </Transformer>
            <Parameters>
             <VectorParam id="2677"  name="sourceCrop">
              <InterpolatingParam id="2678" interp="linr"  time="0/1" value="0" leadInLength="0/1"  />
              <InterpolatingParam id="2679" interp="linr"  time="0/1" value="0" leadInLength="0/1"  />
              <InterpolatingParam id="2680" interp="linr"  time="0/1" value="0" leadInLength="0/1"  />
              <InterpolatingParam id="2681" interp="linr"  time="0/1" value="0" leadInLength="0/1"  />
             </VectorParam>
             <VectorParam id="2682"  name="geometryCrop">
              <InterpolatingParam id="2683" interp="linr"  time="-9999999/1" value="0" leadInLength="0/1"  />
              <InterpolatingParam id="2684" interp="linr"  time="-9999999/1" value="0" leadInLength="0/1"  />
              <InterpolatingParam id="2685" interp="linr"  time="-9999999/1" value="0" leadInLength="0/1"  />
              <InterpolatingParam id="2686" interp="linr"  time="-9999999/1" value="0" leadInLength="0/1"  />
             </VectorParam>
             <InterpolatingParam id="2687" interp="linr"  time="-9999999/1" value="1" leadInLength="0/1"  name="opacity"/>
            </Parameters>
            <Attributes>
             <Attribute id="2688" value="" name="ident"/>
            </Attributes>
            <MetaData>
             <entry key="WinSubProjectDisplayName" val=""/>
            </MetaData>
            <ExtraData>
             <Entry key="ZoomPanBin">
              <ZoomPanBin id="2689"  >
               <ZoomPanKeyframes>
                <ZoomPanKeyframe id="2690" timeRangeEnd="-9999999/1" timeRangeDuration="0/1" interpolaterName=""  />
               </ZoomPanKeyframes>
              </ZoomPanBin>
             </Entry>
            </ExtraData>
           </VMFile>
          </Medias>
         </GenericTrack>
        </StitchedMedia>
        <StitchedMedia id="2691" start="769" duration="189" scalar="592/1479" mediaStart="596037/592" mediaDuration="279531/592" minMediaStart="0/1" >
         <Transformer>
          <VectorParam id="2692"  name="translation">
           <InterpolatingParam id="2693" interp="linr"  time="-9999999/1" value="0" leadInLength="0/1"  interpolater="leadin-linr"  />
           <InterpolatingParam id="2694" interp="linr"  time="-9999999/1" value="0" leadInLength="0/1"  interpolater="leadin-linr"  />
           <InterpolatingParam id="2695" interp="linr"  time="-9999999/1" value="0" leadInLength="0/1"  interpolater="leadin-linr"  />
          </VectorParam>
          <VectorParam id="2696"  name="rotation">
           <InterpolatingParam id="2697" interp="linr"  time="-9999999/1" value="0" leadInLength="0/1"  interpolater="leadin-linr"  />
           <InterpolatingParam id="2698" interp="linr"  time="-9999999/1" value="0" leadInLength="0/1"  interpolater="leadin-linr"  />
           <InterpolatingParam id="2699" interp="linr"  time="-9999999/1" value="0" leadInLength="0/1"  interpolater="leadin-linr"  />
          </VectorParam>
          <VectorParam id="2700"  name="shear">
           <InterpolatingParam id="2701" interp="linr"  time="-9999999/1" value="0" leadInLength="0/1"  interpolater="leadin-linr"  />
           <InterpolatingParam id="2702" interp="linr"  time="-9999999/1" value="0" leadInLength="0/1"  interpolater="leadin-linr"  />
           <InterpolatingParam id="2703" interp="linr"  time="-9999999/1" value="0" leadInLength="0/1"  interpolater="leadin-linr"  />
          </VectorParam>
          <VectorParam id="2704"  name="scale">
           <InterpolatingParam id="2705" interp="linr"  time="-9999999/1" value="1" leadInLength="0/1"  interpolater="leadin-linr"  />
           <InterpolatingParam id="2706" interp="linr"  time="-9999999/1" value="1" leadInLength="0/1"  interpolater="leadin-linr"  />
           <InterpolatingParam id="2707" interp="linr"  time="-9999999/1" value="1" leadInLength="0/1"  interpolater="leadin-linr"  />
          </VectorParam>
          <VectorParam id="2708"  name="anchor">
           <InterpolatingParam id="2709" interp="linr"  >
            <Keyframes>
            <Keyframe id="2710"  time="0/1" value="0" leadInLength="0/1"  />
            <Keyframe id="2711"  time="164/1" value="0" leadInLength="0/1"  />
            <Keyframe id="2712"  time="427/1" value="0" leadInLength="0/1"  />
            </Keyframes>
           </InterpolatingParam>
           <InterpolatingParam id="2713" interp="linr"  >
            <Keyframes>
            <Keyframe id="2714"  time="0/1" value="0" leadInLength="0/1"  />
            <Keyframe id="2715"  time="164/1" value="0" leadInLength="0/1"  />
            <Keyframe id="2716"  time="427/1" value="0" leadInLength="0/1"  />
            </Keyframes>
           </InterpolatingParam>
           <InterpolatingParam id="2717" interp="linr"  >
            <Keyframes>
            <Keyframe id="2718"  time="0/1" value="0" leadInLength="0/1"  />
            <Keyframe id="2719"  time="164/1" value="0" leadInLength="0/1"  />
            <Keyframe id="2720"  time="427/1" value="0" leadInLength="0/1"  />
            </Keyframes>
           </InterpolatingParam>
          </VectorParam>
         </Transformer>
         <Parameters>
          <VectorParam id="2721"  name="sourceCrop">
           <InterpolatingParam id="2722" interp="linr"  >
            <Keyframes>
            <Keyframe id="2723"  time="0/1" value="0" leadInLength="0/1"  />
            <Keyframe id="2724"  time="164/1" value="0" leadInLength="0/1"  />
            <Keyframe id="2725"  time="427/1" value="0" leadInLength="0/1"  />
            </Keyframes>
           </InterpolatingParam>
           <InterpolatingParam id="2726" interp="linr"  >
            <Keyframes>
            <Keyframe id="2727"  time="0/1" value="0" leadInLength="0/1"  />
            <Keyframe id="2728"  time="164/1" value="0" leadInLength="0/1"  />
            <Keyframe id="2729"  time="427/1" value="0" leadInLength="0/1"  />
            </Keyframes>
           </InterpolatingParam>
           <InterpolatingParam id="2730" interp="linr"  >
            <Keyframes>
            <Keyframe id="2731"  time="0/1" value="0" leadInLength="0/1"  />
            <Keyframe id="2732"  time="164/1" value="0" leadInLength="0/1"  />
            <Keyframe id="2733"  time="427/1" value="0" leadInLength="0/1"  />
            </Keyframes>
           </InterpolatingParam>
           <InterpolatingParam id="2734" interp="linr"  >
            <Keyframes>
            <Keyframe id="2735"  time="0/1" value="0" leadInLength="0/1"  />
            <Keyframe id="2736"  time="164/1" value="0" leadInLength="0/1"  />
            <Keyframe id="2737"  time="427/1" value="0" leadInLength="0/1"  />
            </Keyframes>
           </InterpolatingParam>
          </VectorParam>
          <VectorParam id="2738"  name="geometryCrop">
           <InterpolatingParam id="2739" interp="linr"  time="-9999999/1" value="0" leadInLength="0/1"  interpolater="leadin-linr"  />
           <InterpolatingParam id="2740" interp="linr"  time="-9999999/1" value="0" leadInLength="0/1"  interpolater="leadin-linr"  />
           <InterpolatingParam id="2741" interp="linr"  time="-9999999/1" value="0" leadInLength="0/1"  interpolater="leadin-linr"  />
           <InterpolatingParam id="2742" interp="linr"  time="-9999999/1" value="0" leadInLength="0/1"  interpolater="leadin-linr"  />
          </VectorParam>
          <InterpolatingParam id="2743" interp="linr"  time="-9999999/1" value="1" leadInLength="0/1"  interpolater="leadin-linr"  name="opacity"/>
          <InterpolatingParam id="2744" interp="linr"  time="0/1" value="1" leadInLength="0/1"  name="cursorOpacity"/>
          <InterpolatingParam id="2745" interp="linr"  time="0/1" value="1" leadInLength="0/1"  name="cursorScale"/>
          <Parameter id="2746"  name="captions"/>
         </Parameters>
         <Attributes>
          <Attribute id="2747" value="" name="ident"/>
         </Attributes>
         <MetaData>
          <entry key="WinSubProjectDisplayName" val=""/>
         </MetaData>
         <ExtraData>
          <Entry key="ZoomPanBin">
           <ZoomPanBin id="2748"  >
            <ZoomPanKeyframes>
             <ZoomPanKeyframe id="2749" timeRangeEnd="-9999999/1" timeRangeDuration="0/1" interpolaterName="linr"  />
            </ZoomPanKeyframes>
           </ZoomPanBin>
          </Entry>
          <Entry key="CursorEffectBin">
           <CursorEffectBin id="2750"  >
            <CursorEffectKeyframes>
            </CursorEffectKeyframes>
           </CursorEffectBin>
          </Entry>
         </ExtraData>
         <GenericTrack id="2751"  >
          <Attributes>
           <Attribute id="2752" value="" name="ident"/>
           <Attribute id="2753" value="0" name="audioMuted"/>
           <Attribute id="2754" value="0" name="videoHidden"/>
          </Attributes>
          <MetaData>
           <entry key="IsLocked" val="False"/>
           <entry key="WinTrackHeight" val="0"/>
          </MetaData>
          <Medias>
           <VMFile id="2755" start="0" duration="164" scalar="1/1" mediaStart="0/1" mediaDuration="164/1" trackNumber="0" src="4" >
            <Transformer>
             <VectorParam id="2756"  name="translation">
              <InterpolatingParam id="2757" interp="linr"  time="-9999999/1" value="0" leadInLength="0/1"  />
              <InterpolatingParam id="2758" interp="linr"  time="-9999999/1" value="0" leadInLength="0/1"  />
              <InterpolatingParam id="2759" interp="linr"  time="-9999999/1" value="0" leadInLength="0/1"  />
             </VectorParam>
             <VectorParam id="2760"  name="rotation">
              <InterpolatingParam id="2761" interp="linr"  time="-9999999/1" value="0" leadInLength="0/1"  />
              <InterpolatingParam id="2762" interp="linr"  time="-9999999/1" value="0" leadInLength="0/1"  />
              <InterpolatingParam id="2763" interp="linr"  time="-9999999/1" value="0" leadInLength="0/1"  />
             </VectorParam>
             <VectorParam id="2764"  name="shear">
              <InterpolatingParam id="2765" interp="linr"  time="-9999999/1" value="0" leadInLength="0/1"  />
              <InterpolatingParam id="2766" interp="linr"  time="-9999999/1" value="0" leadInLength="0/1"  />
              <InterpolatingParam id="2767" interp="linr"  time="-9999999/1" value="0" leadInLength="0/1"  />
             </VectorParam>
             <VectorParam id="2768"  name="scale">
              <InterpolatingParam id="2769" interp="linr"  time="-9999999/1" value="1" leadInLength="0/1"  />
              <InterpolatingParam id="2770" interp="linr"  time="-9999999/1" value="1" leadInLength="0/1"  />
              <InterpolatingParam id="2771" interp="linr"  time="-9999999/1" value="1" leadInLength="0/1"  />
             </VectorParam>
             <VectorParam id="2772"  name="anchor">
              <InterpolatingParam id="2773" interp="linr"  time="0/1" value="0" leadInLength="0/1"  />
              <InterpolatingParam id="2774" interp="linr"  time="0/1" value="0" leadInLength="0/1"  />
              <InterpolatingParam id="2775" interp="linr"  time="0/1" value="0" leadInLength="0/1"  />
             </VectorParam>
            </Transformer>
            <Parameters>
             <VectorParam id="2776"  name="sourceCrop">
              <InterpolatingParam id="2777" interp="linr"  time="0/1" value="0" leadInLength="0/1"  />
              <InterpolatingParam id="2778" interp="linr"  time="0/1" value="0" leadInLength="0/1"  />
              <InterpolatingParam id="2779" interp="linr"  time="0/1" value="0" leadInLength="0/1"  />
              <InterpolatingParam id="2780" interp="linr"  time="0/1" value="0" leadInLength="0/1"  />
             </VectorParam>
             <VectorParam id="2781"  name="geometryCrop">
              <InterpolatingParam id="2782" interp="linr"  time="-9999999/1" value="0" leadInLength="0/1"  />
              <InterpolatingParam id="2783" interp="linr"  time="-9999999/1" value="0" leadInLength="0/1"  />
              <InterpolatingParam id="2784" interp="linr"  time="-9999999/1" value="0" leadInLength="0/1"  />
              <InterpolatingParam id="2785" interp="linr"  time="-9999999/1" value="0" leadInLength="0/1"  />
             </VectorParam>
             <InterpolatingParam id="2786" interp="linr"  time="-9999999/1" value="1" leadInLength="0/1"  name="opacity"/>
            </Parameters>
            <Attributes>
             <Attribute id="2787" value="" name="ident"/>
            </Attributes>
            <MetaData>
             <entry key="WinSubProjectDisplayName" val=""/>
            </MetaData>
            <ExtraData>
             <Entry key="ZoomPanBin">
              <ZoomPanBin id="2788"  >
               <ZoomPanKeyframes>
               </ZoomPanKeyframes>
              </ZoomPanBin>
             </Entry>
            </ExtraData>
           </VMFile>
           <IMFile id="2789" start="164" duration="53" scalar="1/1" mediaStart="164/1" mediaDuration="1/1" trackNumber="0" src="4" trimStartSum="0/1" >
            <Transformer>
             <VectorParam id="2790"  name="translation">
              <InterpolatingParam id="2791" interp="linr"  time="-9999999/1" value="0" leadInLength="0/1"  />
              <InterpolatingParam id="2792" interp="linr"  time="-9999999/1" value="0" leadInLength="0/1"  />
              <InterpolatingParam id="2793" interp="linr"  time="-9999999/1" value="0" leadInLength="0/1"  />
             </VectorParam>
             <VectorParam id="2794"  name="rotation">
              <InterpolatingParam id="2795" interp="linr"  time="-9999999/1" value="0" leadInLength="0/1"  />
              <InterpolatingParam id="2796" interp="linr"  time="-9999999/1" value="0" leadInLength="0/1"  />
              <InterpolatingParam id="2797" interp="linr"  time="-9999999/1" value="0" leadInLength="0/1"  />
             </VectorParam>
             <VectorParam id="2798"  name="shear">
              <InterpolatingParam id="2799" interp="linr"  time="-9999999/1" value="0" leadInLength="0/1"  />
              <InterpolatingParam id="2800" interp="linr"  time="-9999999/1" value="0" leadInLength="0/1"  />
              <InterpolatingParam id="2801" interp="linr"  time="-9999999/1" value="0" leadInLength="0/1"  />
             </VectorParam>
             <VectorParam id="2802"  name="scale">
              <InterpolatingParam id="2803" interp="linr"  time="-9999999/1" value="1" leadInLength="0/1"  />
              <InterpolatingParam id="2804" interp="linr"  time="-9999999/1" value="1" leadInLength="0/1"  />
              <InterpolatingParam id="2805" interp="linr"  time="-9999999/1" value="1" leadInLength="0/1"  />
             </VectorParam>
             <VectorParam id="2806"  name="anchor">
              <InterpolatingParam id="2807" interp="linr"  time="0/1" value="0" leadInLength="0/1"  />
              <InterpolatingParam id="2808" interp="linr"  time="0/1" value="0" leadInLength="0/1"  />
              <InterpolatingParam id="2809" interp="linr"  time="0/1" value="0" leadInLength="0/1"  />
             </VectorParam>
            </Transformer>
            <Parameters>
             <VectorParam id="2810"  name="sourceCrop">
              <InterpolatingParam id="2811" interp="linr"  time="0/1" value="0" leadInLength="0/1"  />
              <InterpolatingParam id="2812" interp="linr"  time="0/1" value="0" leadInLength="0/1"  />
              <InterpolatingParam id="2813" interp="linr"  time="0/1" value="0" leadInLength="0/1"  />
              <InterpolatingParam id="2814" interp="linr"  time="0/1" value="0" leadInLength="0/1"  />
             </VectorParam>
             <VectorParam id="2815"  name="geometryCrop">
              <InterpolatingParam id="2816" interp="linr"  time="-9999999/1" value="0" leadInLength="0/1"  />
              <InterpolatingParam id="2817" interp="linr"  time="-9999999/1" value="0" leadInLength="0/1"  />
              <InterpolatingParam id="2818" interp="linr"  time="-9999999/1" value="0" leadInLength="0/1"  />
              <InterpolatingParam id="2819" interp="linr"  time="-9999999/1" value="0" leadInLength="0/1"  />
             </VectorParam>
             <InterpolatingParam id="2820" interp="linr"  time="-9999999/1" value="1" leadInLength="0/1"  name="opacity"/>
            </Parameters>
            <Attributes>
             <Attribute id="2821" value="" name="ident"/>
            </Attributes>
            <MetaData>
             <entry key="WinSubProjectDisplayName" val=""/>
            </MetaData>
            <ExtraData>
             <Entry key="ZoomPanBin">
              <ZoomPanBin id="2822"  >
               <ZoomPanKeyframes>
               </ZoomPanKeyframes>
              </ZoomPanBin>
             </Entry>
            </ExtraData>
           </IMFile>
           <VMFile id="2823" start="217" duration="210" scalar="1/1" mediaStart="164/1" mediaDuration="210/1" trackNumber="0" src="4" >
            <Transformer>
             <VectorParam id="2824"  name="translation">
              <InterpolatingParam id="2825" interp="linr"  time="-9999999/1" value="0" leadInLength="0/1"  />
              <InterpolatingParam id="2826" interp="linr"  time="-9999999/1" value="0" leadInLength="0/1"  />
              <InterpolatingParam id="2827" interp="linr"  time="-9999999/1" value="0" leadInLength="0/1"  />
             </VectorParam>
             <VectorParam id="2828"  name="rotation">
              <InterpolatingParam id="2829" interp="linr"  time="-9999999/1" value="0" leadInLength="0/1"  />
              <InterpolatingParam id="2830" interp="linr"  time="-9999999/1" value="0" leadInLength="0/1"  />
              <InterpolatingParam id="2831" interp="linr"  time="-9999999/1" value="0" leadInLength="0/1"  />
             </VectorParam>
             <VectorParam id="2832"  name="shear">
              <InterpolatingParam id="2833" interp="linr"  time="-9999999/1" value="0" leadInLength="0/1"  />
              <InterpolatingParam id="2834" interp="linr"  time="-9999999/1" value="0" leadInLength="0/1"  />
              <InterpolatingParam id="2835" interp="linr"  time="-9999999/1" value="0" leadInLength="0/1"  />
             </VectorParam>
             <VectorParam id="2836"  name="scale">
              <InterpolatingParam id="2837" interp="linr"  time="-9999999/1" value="1" leadInLength="0/1"  />
              <InterpolatingParam id="2838" interp="linr"  time="-9999999/1" value="1" leadInLength="0/1"  />
              <InterpolatingParam id="2839" interp="linr"  time="-9999999/1" value="1" leadInLength="0/1"  />
             </VectorParam>
             <VectorParam id="2840"  name="anchor">
              <InterpolatingParam id="2841" interp="linr"  time="0/1" value="0" leadInLength="0/1"  />
              <InterpolatingParam id="2842" interp="linr"  time="0/1" value="0" leadInLength="0/1"  />
              <InterpolatingParam id="2843" interp="linr"  time="0/1" value="0" leadInLength="0/1"  />
             </VectorParam>
            </Transformer>
            <Parameters>
             <VectorParam id="2844"  name="sourceCrop">
              <InterpolatingParam id="2845" interp="linr"  time="0/1" value="0" leadInLength="0/1"  />
              <InterpolatingParam id="2846" interp="linr"  time="0/1" value="0" leadInLength="0/1"  />
              <InterpolatingParam id="2847" interp="linr"  time="0/1" value="0" leadInLength="0/1"  />
              <InterpolatingParam id="2848" interp="linr"  time="0/1" value="0" leadInLength="0/1"  />
             </VectorParam>
             <VectorParam id="2849"  name="geometryCrop">
              <InterpolatingParam id="2850" interp="linr"  time="-9999999/1" value="0" leadInLength="0/1"  />
              <InterpolatingParam id="2851" interp="linr"  time="-9999999/1" value="0" leadInLength="0/1"  />
              <InterpolatingParam id="2852" interp="linr"  time="-9999999/1" value="0" leadInLength="0/1"  />
              <InterpolatingParam id="2853" interp="linr"  time="-9999999/1" value="0" leadInLength="0/1"  />
             </VectorParam>
             <InterpolatingParam id="2854" interp="linr"  time="-9999999/1" value="1" leadInLength="0/1"  name="opacity"/>
            </Parameters>
            <Attributes>
             <Attribute id="2855" value="" name="ident"/>
            </Attributes>
            <MetaData>
             <entry key="WinSubProjectDisplayName" val=""/>
            </MetaData>
            <ExtraData>
             <Entry key="ZoomPanBin">
              <ZoomPanBin id="2856"  >
               <ZoomPanKeyframes>
               </ZoomPanKeyframes>
              </ZoomPanBin>
             </Entry>
            </ExtraData>
           </VMFile>
           <IMFile id="2857" start="427" duration="90" scalar="1/1" mediaStart="374/1" mediaDuration="1/1" trackNumber="0" src="4" trimStartSum="0/1" >
            <Transformer>
             <VectorParam id="2858"  name="translation">
              <InterpolatingParam id="2859" interp="linr"  time="-9999999/1" value="0" leadInLength="0/1"  />
              <InterpolatingParam id="2860" interp="linr"  time="-9999999/1" value="0" leadInLength="0/1"  />
              <InterpolatingParam id="2861" interp="linr"  time="-9999999/1" value="0" leadInLength="0/1"  />
             </VectorParam>
             <VectorParam id="2862"  name="rotation">
              <InterpolatingParam id="2863" interp="linr"  time="-9999999/1" value="0" leadInLength="0/1"  />
              <InterpolatingParam id="2864" interp="linr"  time="-9999999/1" value="0" leadInLength="0/1"  />
              <InterpolatingParam id="2865" interp="linr"  time="-9999999/1" value="0" leadInLength="0/1"  />
             </VectorParam>
             <VectorParam id="2866"  name="shear">
              <InterpolatingParam id="2867" interp="linr"  time="-9999999/1" value="0" leadInLength="0/1"  />
              <InterpolatingParam id="2868" interp="linr"  time="-9999999/1" value="0" leadInLength="0/1"  />
              <InterpolatingParam id="2869" interp="linr"  time="-9999999/1" value="0" leadInLength="0/1"  />
             </VectorParam>
             <VectorParam id="2870"  name="scale">
              <InterpolatingParam id="2871" interp="linr"  time="-9999999/1" value="1" leadInLength="0/1"  />
              <InterpolatingParam id="2872" interp="linr"  time="-9999999/1" value="1" leadInLength="0/1"  />
              <InterpolatingParam id="2873" interp="linr"  time="-9999999/1" value="1" leadInLength="0/1"  />
             </VectorParam>
             <VectorParam id="2874"  name="anchor">
              <InterpolatingParam id="2875" interp="linr"  time="0/1" value="0" leadInLength="0/1"  />
              <InterpolatingParam id="2876" interp="linr"  time="0/1" value="0" leadInLength="0/1"  />
              <InterpolatingParam id="2877" interp="linr"  time="0/1" value="0" leadInLength="0/1"  />
             </VectorParam>
            </Transformer>
            <Parameters>
             <VectorParam id="2878"  name="sourceCrop">
              <InterpolatingParam id="2879" interp="linr"  time="0/1" value="0" leadInLength="0/1"  />
              <InterpolatingParam id="2880" interp="linr"  time="0/1" value="0" leadInLength="0/1"  />
              <InterpolatingParam id="2881" interp="linr"  time="0/1" value="0" leadInLength="0/1"  />
              <InterpolatingParam id="2882" interp="linr"  time="0/1" value="0" leadInLength="0/1"  />
             </VectorParam>
             <VectorParam id="2883"  name="geometryCrop">
              <InterpolatingParam id="2884" interp="linr"  time="-9999999/1" value="0" leadInLength="0/1"  />
              <InterpolatingParam id="2885" interp="linr"  time="-9999999/1" value="0" leadInLength="0/1"  />
              <InterpolatingParam id="2886" interp="linr"  time="-9999999/1" value="0" leadInLength="0/1"  />
              <InterpolatingParam id="2887" interp="linr"  time="-9999999/1" value="0" leadInLength="0/1"  />
             </VectorParam>
             <InterpolatingParam id="2888" interp="linr"  time="-9999999/1" value="1" leadInLength="0/1"  name="opacity"/>
            </Parameters>
            <Attributes>
             <Attribute id="2889" value="" name="ident"/>
            </Attributes>
            <MetaData>
             <entry key="WinSubProjectDisplayName" val=""/>
            </MetaData>
            <ExtraData>
             <Entry key="ZoomPanBin">
              <ZoomPanBin id="2890"  >
               <ZoomPanKeyframes>
               </ZoomPanKeyframes>
              </ZoomPanBin>
             </Entry>
            </ExtraData>
           </IMFile>
           <VMFile id="2891" start="517" duration="9" scalar="1/1" mediaStart="374/1" mediaDuration="9/1" trackNumber="0" src="4" >
            <Transformer>
             <VectorParam id="2892"  name="translation">
              <InterpolatingParam id="2893" interp="linr"  time="-9999999/1" value="0" leadInLength="0/1"  />
              <InterpolatingParam id="2894" interp="linr"  time="-9999999/1" value="0" leadInLength="0/1"  />
              <InterpolatingParam id="2895" interp="linr"  time="-9999999/1" value="0" leadInLength="0/1"  />
             </VectorParam>
             <VectorParam id="2896"  name="rotation">
              <InterpolatingParam id="2897" interp="linr"  time="-9999999/1" value="0" leadInLength="0/1"  />
              <InterpolatingParam id="2898" interp="linr"  time="-9999999/1" value="0" leadInLength="0/1"  />
              <InterpolatingParam id="2899" interp="linr"  time="-9999999/1" value="0" leadInLength="0/1"  />
             </VectorParam>
             <VectorParam id="2900"  name="shear">
              <InterpolatingParam id="2901" interp="linr"  time="-9999999/1" value="0" leadInLength="0/1"  />
              <InterpolatingParam id="2902" interp="linr"  time="-9999999/1" value="0" leadInLength="0/1"  />
              <InterpolatingParam id="2903" interp="linr"  time="-9999999/1" value="0" leadInLength="0/1"  />
             </VectorParam>
             <VectorParam id="2904"  name="scale">
              <InterpolatingParam id="2905" interp="linr"  time="-9999999/1" value="1" leadInLength="0/1"  />
              <InterpolatingParam id="2906" interp="linr"  time="-9999999/1" value="1" leadInLength="0/1"  />
              <InterpolatingParam id="2907" interp="linr"  time="-9999999/1" value="1" leadInLength="0/1"  />
             </VectorParam>
             <VectorParam id="2908"  name="anchor">
              <InterpolatingParam id="2909" interp="linr"  time="0/1" value="0" leadInLength="0/1"  />
              <InterpolatingParam id="2910" interp="linr"  time="0/1" value="0" leadInLength="0/1"  />
              <InterpolatingParam id="2911" interp="linr"  time="0/1" value="0" leadInLength="0/1"  />
             </VectorParam>
            </Transformer>
            <Parameters>
             <VectorParam id="2912"  name="sourceCrop">
              <InterpolatingParam id="2913" interp="linr"  time="0/1" value="0" leadInLength="0/1"  />
              <InterpolatingParam id="2914" interp="linr"  time="0/1" value="0" leadInLength="0/1"  />
              <InterpolatingParam id="2915" interp="linr"  time="0/1" value="0" leadInLength="0/1"  />
              <InterpolatingParam id="2916" interp="linr"  time="0/1" value="0" leadInLength="0/1"  />
             </VectorParam>
             <VectorParam id="2917"  name="geometryCrop">
              <InterpolatingParam id="2918" interp="linr"  time="-9999999/1" value="0" leadInLength="0/1"  />
              <InterpolatingParam id="2919" interp="linr"  time="-9999999/1" value="0" leadInLength="0/1"  />
              <InterpolatingParam id="2920" interp="linr"  time="-9999999/1" value="0" leadInLength="0/1"  />
              <InterpolatingParam id="2921" interp="linr"  time="-9999999/1" value="0" leadInLength="0/1"  />
             </VectorParam>
             <InterpolatingParam id="2922" interp="linr"  time="-9999999/1" value="1" leadInLength="0/1"  name="opacity"/>
            </Parameters>
            <Attributes>
             <Attribute id="2923" value="" name="ident"/>
            </Attributes>
            <MetaData>
             <entry key="WinSubProjectDisplayName" val=""/>
            </MetaData>
            <ExtraData>
             <Entry key="ZoomPanBin">
              <ZoomPanBin id="2924"  >
               <ZoomPanKeyframes>
               </ZoomPanKeyframes>
              </ZoomPanBin>
             </Entry>
            </ExtraData>
           </VMFile>
           <VMFile id="2925" start="526" duration="244" scalar="1/1" mediaStart="506/1" mediaDuration="244/1" trackNumber="0" src="4" >
            <Transformer>
             <VectorParam id="2926"  name="translation">
              <InterpolatingParam id="2927" interp="linr"  time="-9999999/1" value="0" leadInLength="0/1"  />
              <InterpolatingParam id="2928" interp="linr"  time="-9999999/1" value="0" leadInLength="0/1"  />
              <InterpolatingParam id="2929" interp="linr"  time="-9999999/1" value="0" leadInLength="0/1"  />
             </VectorParam>
             <VectorParam id="2930"  name="rotation">
              <InterpolatingParam id="2931" interp="linr"  time="-9999999/1" value="0" leadInLength="0/1"  />
              <InterpolatingParam id="2932" interp="linr"  time="-9999999/1" value="0" leadInLength="0/1"  />
              <InterpolatingParam id="2933" interp="linr"  time="-9999999/1" value="0" leadInLength="0/1"  />
             </VectorParam>
             <VectorParam id="2934"  name="shear">
              <InterpolatingParam id="2935" interp="linr"  time="-9999999/1" value="0" leadInLength="0/1"  />
              <InterpolatingParam id="2936" interp="linr"  time="-9999999/1" value="0" leadInLength="0/1"  />
              <InterpolatingParam id="2937" interp="linr"  time="-9999999/1" value="0" leadInLength="0/1"  />
             </VectorParam>
             <VectorParam id="2938"  name="scale">
              <InterpolatingParam id="2939" interp="linr"  time="-9999999/1" value="1" leadInLength="0/1"  />
              <InterpolatingParam id="2940" interp="linr"  time="-9999999/1" value="1" leadInLength="0/1"  />
              <InterpolatingParam id="2941" interp="linr"  time="-9999999/1" value="1" leadInLength="0/1"  />
             </VectorParam>
             <VectorParam id="2942"  name="anchor">
              <InterpolatingParam id="2943" interp="linr"  time="0/1" value="0" leadInLength="0/1"  />
              <InterpolatingParam id="2944" interp="linr"  time="0/1" value="0" leadInLength="0/1"  />
              <InterpolatingParam id="2945" interp="linr"  time="0/1" value="0" leadInLength="0/1"  />
             </VectorParam>
            </Transformer>
            <Parameters>
             <VectorParam id="2946"  name="sourceCrop">
              <InterpolatingParam id="2947" interp="linr"  time="0/1" value="0" leadInLength="0/1"  />
              <InterpolatingParam id="2948" interp="linr"  time="0/1" value="0" leadInLength="0/1"  />
              <InterpolatingParam id="2949" interp="linr"  time="0/1" value="0" leadInLength="0/1"  />
              <InterpolatingParam id="2950" interp="linr"  time="0/1" value="0" leadInLength="0/1"  />
             </VectorParam>
             <VectorParam id="2951"  name="geometryCrop">
              <InterpolatingParam id="2952" interp="linr"  time="-9999999/1" value="0" leadInLength="0/1"  />
              <InterpolatingParam id="2953" interp="linr"  time="-9999999/1" value="0" leadInLength="0/1"  />
              <InterpolatingParam id="2954" interp="linr"  time="-9999999/1" value="0" leadInLength="0/1"  />
              <InterpolatingParam id="2955" interp="linr"  time="-9999999/1" value="0" leadInLength="0/1"  />
             </VectorParam>
             <InterpolatingParam id="2956" interp="linr"  time="-9999999/1" value="1" leadInLength="0/1"  name="opacity"/>
            </Parameters>
            <Attributes>
             <Attribute id="2957" value="" name="ident"/>
            </Attributes>
            <MetaData>
             <entry key="WinSubProjectDisplayName" val=""/>
            </MetaData>
            <ExtraData>
             <Entry key="ZoomPanBin">
              <ZoomPanBin id="2958"  >
               <ZoomPanKeyframes>
               </ZoomPanKeyframes>
              </ZoomPanBin>
             </Entry>
            </ExtraData>
           </VMFile>
           <VMFile id="2959" start="770" duration="30309" scalar="1/1" mediaStart="858/1" mediaDuration="30309/1" trackNumber="0" src="4" >
            <Transformer>
             <VectorParam id="2960"  name="translation">
              <InterpolatingParam id="2961" interp="linr"  time="-9999999/1" value="0" leadInLength="0/1"  />
              <InterpolatingParam id="2962" interp="linr"  time="-9999999/1" value="0" leadInLength="0/1"  />
              <InterpolatingParam id="2963" interp="linr"  time="-9999999/1" value="0" leadInLength="0/1"  />
             </VectorParam>
             <VectorParam id="2964"  name="rotation">
              <InterpolatingParam id="2965" interp="linr"  time="-9999999/1" value="0" leadInLength="0/1"  />
              <InterpolatingParam id="2966" interp="linr"  time="-9999999/1" value="0" leadInLength="0/1"  />
              <InterpolatingParam id="2967" interp="linr"  time="-9999999/1" value="0" leadInLength="0/1"  />
             </VectorParam>
             <VectorParam id="2968"  name="shear">
              <InterpolatingParam id="2969" interp="linr"  time="-9999999/1" value="0" leadInLength="0/1"  />
              <InterpolatingParam id="2970" interp="linr"  time="-9999999/1" value="0" leadInLength="0/1"  />
              <InterpolatingParam id="2971" interp="linr"  time="-9999999/1" value="0" leadInLength="0/1"  />
             </VectorParam>
             <VectorParam id="2972"  name="scale">
              <InterpolatingParam id="2973" interp="linr"  time="-9999999/1" value="1" leadInLength="0/1"  />
              <InterpolatingParam id="2974" interp="linr"  time="-9999999/1" value="1" leadInLength="0/1"  />
              <InterpolatingParam id="2975" interp="linr"  time="-9999999/1" value="1" leadInLength="0/1"  />
             </VectorParam>
             <VectorParam id="2976"  name="anchor">
              <InterpolatingParam id="2977" interp="linr"  time="0/1" value="0" leadInLength="0/1"  />
              <InterpolatingParam id="2978" interp="linr"  time="0/1" value="0" leadInLength="0/1"  />
              <InterpolatingParam id="2979" interp="linr"  time="0/1" value="0" leadInLength="0/1"  />
             </VectorParam>
            </Transformer>
            <Parameters>
             <VectorParam id="2980"  name="sourceCrop">
              <InterpolatingParam id="2981" interp="linr"  time="0/1" value="0" leadInLength="0/1"  />
              <InterpolatingParam id="2982" interp="linr"  time="0/1" value="0" leadInLength="0/1"  />
              <InterpolatingParam id="2983" interp="linr"  time="0/1" value="0" leadInLength="0/1"  />
              <InterpolatingParam id="2984" interp="linr"  time="0/1" value="0" leadInLength="0/1"  />
             </VectorParam>
             <VectorParam id="2985"  name="geometryCrop">
              <InterpolatingParam id="2986" interp="linr"  time="-9999999/1" value="0" leadInLength="0/1"  />
              <InterpolatingParam id="2987" interp="linr"  time="-9999999/1" value="0" leadInLength="0/1"  />
              <InterpolatingParam id="2988" interp="linr"  time="-9999999/1" value="0" leadInLength="0/1"  />
              <InterpolatingParam id="2989" interp="linr"  time="-9999999/1" value="0" leadInLength="0/1"  />
             </VectorParam>
             <InterpolatingParam id="2990" interp="linr"  time="-9999999/1" value="1" leadInLength="0/1"  name="opacity"/>
            </Parameters>
            <Attributes>
             <Attribute id="2991" value="" name="ident"/>
            </Attributes>
            <MetaData>
             <entry key="WinSubProjectDisplayName" val=""/>
            </MetaData>
            <ExtraData>
             <Entry key="ZoomPanBin">
              <ZoomPanBin id="2992"  >
               <ZoomPanKeyframes>
               </ZoomPanKeyframes>
              </ZoomPanBin>
             </Entry>
            </ExtraData>
           </VMFile>
          </Medias>
         </GenericTrack>
        </StitchedMedia>
        <StitchedMedia id="2993" start="958" duration="171" scalar="16215/32432" mediaStart="1711/1" mediaDuration="1848624/5405" minMediaStart="0/1" >
         <Transformer>
          <VectorParam id="2994"  name="translation">
           <InterpolatingParam id="2995" interp="linr"  time="-9999999/1" value="0" leadInLength="0/1"  interpolater="leadin-linr"  />
           <InterpolatingParam id="2996" interp="linr"  time="-9999999/1" value="0" leadInLength="0/1"  interpolater="leadin-linr"  />
           <InterpolatingParam id="2997" interp="linr"  time="-9999999/1" value="0" leadInLength="0/1"  interpolater="leadin-linr"  />
          </VectorParam>
          <VectorParam id="2998"  name="rotation">
           <InterpolatingParam id="2999" interp="linr"  time="-9999999/1" value="0" leadInLength="0/1"  interpolater="leadin-linr"  />
           <InterpolatingParam id="3000" interp="linr"  time="-9999999/1" value="0" leadInLength="0/1"  interpolater="leadin-linr"  />
           <InterpolatingParam id="3001" interp="linr"  time="-9999999/1" value="0" leadInLength="0/1"  interpolater="leadin-linr"  />
          </VectorParam>
          <VectorParam id="3002"  name="shear">
           <InterpolatingParam id="3003" interp="linr"  time="-9999999/1" value="0" leadInLength="0/1"  interpolater="leadin-linr"  />
           <InterpolatingParam id="3004" interp="linr"  time="-9999999/1" value="0" leadInLength="0/1"  interpolater="leadin-linr"  />
           <InterpolatingParam id="3005" interp="linr"  time="-9999999/1" value="0" leadInLength="0/1"  interpolater="leadin-linr"  />
          </VectorParam>
          <VectorParam id="3006"  name="scale">
           <InterpolatingParam id="3007" interp="linr"  time="-9999999/1" value="1" leadInLength="0/1"  interpolater="leadin-linr"  />
           <InterpolatingParam id="3008" interp="linr"  time="-9999999/1" value="1" leadInLength="0/1"  interpolater="leadin-linr"  />
           <InterpolatingParam id="3009" interp="linr"  time="-9999999/1" value="1" leadInLength="0/1"  interpolater="leadin-linr"  />
          </VectorParam>
          <VectorParam id="3010"  name="anchor">
           <InterpolatingParam id="3011" interp="linr"  >
            <Keyframes>
            <Keyframe id="3012"  time="8386/1" value="0" leadInLength="0/1"  />
            <Keyframe id="3013"  time="8464/1" value="0" leadInLength="0/1"  />
            </Keyframes>
           </InterpolatingParam>
           <InterpolatingParam id="3014" interp="linr"  >
            <Keyframes>
            <Keyframe id="3015"  time="8386/1" value="0" leadInLength="0/1"  />
            <Keyframe id="3016"  time="8464/1" value="0" leadInLength="0/1"  />
            </Keyframes>
           </InterpolatingParam>
           <InterpolatingParam id="3017" interp="linr"  >
            <Keyframes>
            <Keyframe id="3018"  time="8386/1" value="0" leadInLength="0/1"  />
            <Keyframe id="3019"  time="8464/1" value="0" leadInLength="0/1"  />
            </Keyframes>
           </InterpolatingParam>
          </VectorParam>
         </Transformer>
         <Parameters>
          <VectorParam id="3020"  name="sourceCrop">
           <InterpolatingParam id="3021" interp="linr"  >
            <Keyframes>
            <Keyframe id="3022"  time="8386/1" value="0" leadInLength="0/1"  />
            <Keyframe id="3023"  time="8464/1" value="0" leadInLength="0/1"  />
            </Keyframes>
           </InterpolatingParam>
           <InterpolatingParam id="3024" interp="linr"  >
            <Keyframes>
            <Keyframe id="3025"  time="8386/1" value="0" leadInLength="0/1"  />
            <Keyframe id="3026"  time="8464/1" value="0" leadInLength="0/1"  />
            </Keyframes>
           </InterpolatingParam>
           <InterpolatingParam id="3027" interp="linr"  >
            <Keyframes>
            <Keyframe id="3028"  time="8386/1" value="0" leadInLength="0/1"  />
            <Keyframe id="3029"  time="8464/1" value="0" leadInLength="0/1"  />
            </Keyframes>
           </InterpolatingParam>
           <InterpolatingParam id="3030" interp="linr"  >
            <Keyframes>
            <Keyframe id="3031"  time="8386/1" value="0" leadInLength="0/1"  />
            <Keyframe id="3032"  time="8464/1" value="0" leadInLength="0/1"  />
            </Keyframes>
           </InterpolatingParam>
          </VectorParam>
          <VectorParam id="3033"  name="geometryCrop">
           <InterpolatingParam id="3034" interp="linr"  time="-9999999/1" value="0" leadInLength="0/1"  interpolater="leadin-linr"  />
           <InterpolatingParam id="3035" interp="linr"  time="-9999999/1" value="0" leadInLength="0/1"  interpolater="leadin-linr"  />
           <InterpolatingParam id="3036" interp="linr"  time="-9999999/1" value="0" leadInLength="0/1"  interpolater="leadin-linr"  />
           <InterpolatingParam id="3037" interp="linr"  time="-9999999/1" value="0" leadInLength="0/1"  interpolater="leadin-linr"  />
          </VectorParam>
          <InterpolatingParam id="3038" interp="linr"  time="-9999999/1" value="1" leadInLength="0/1"  interpolater="leadin-linr"  name="opacity"/>
          <InterpolatingParam id="3039" interp="linr"  time="0/1" value="1" leadInLength="0/1"  name="cursorOpacity"/>
          <InterpolatingParam id="3040" interp="linr"  time="0/1" value="1" leadInLength="0/1"  name="cursorScale"/>
          <Parameter id="3041"  name="captions"/>
         </Parameters>
         <Attributes>
          <Attribute id="3042" value="" name="ident"/>
         </Attributes>
         <MetaData>
          <entry key="WinSubProjectDisplayName" val=""/>
         </MetaData>
         <ExtraData>
          <Entry key="ZoomPanBin">
           <ZoomPanBin id="3043"  >
            <ZoomPanKeyframes>
             <ZoomPanKeyframe id="3044" timeRangeEnd="-9999999/1" timeRangeDuration="0/1" interpolaterName="linr"  />
            </ZoomPanKeyframes>
           </ZoomPanBin>
          </Entry>
          <Entry key="CursorEffectBin">
           <CursorEffectBin id="3045"  >
            <CursorEffectKeyframes>
            </CursorEffectKeyframes>
           </CursorEffectBin>
          </Entry>
         </ExtraData>
         <GenericTrack id="3046"  >
          <Attributes>
           <Attribute id="3047" value="" name="ident"/>
           <Attribute id="3048" value="0" name="audioMuted"/>
           <Attribute id="3049" value="0" name="videoHidden"/>
          </Attributes>
          <MetaData>
           <entry key="IsLocked" val="False"/>
           <entry key="WinTrackHeight" val="0"/>
          </MetaData>
          <Medias>
           <VMFile id="3050" start="0" duration="1880" scalar="1/1" mediaStart="0/1" mediaDuration="1880/1" trackNumber="0" src="4" >
            <Transformer>
             <VectorParam id="3051"  name="translation">
              <InterpolatingParam id="3052" interp="linr"  time="-9999999/1" value="0" leadInLength="0/1"  />
              <InterpolatingParam id="3053" interp="linr"  time="-9999999/1" value="0" leadInLength="0/1"  />
              <InterpolatingParam id="3054" interp="linr"  time="-9999999/1" value="0" leadInLength="0/1"  />
             </VectorParam>
             <VectorParam id="3055"  name="rotation">
              <InterpolatingParam id="3056" interp="linr"  time="-9999999/1" value="0" leadInLength="0/1"  />
              <InterpolatingParam id="3057" interp="linr"  time="-9999999/1" value="0" leadInLength="0/1"  />
              <InterpolatingParam id="3058" interp="linr"  time="-9999999/1" value="0" leadInLength="0/1"  />
             </VectorParam>
             <VectorParam id="3059"  name="shear">
              <InterpolatingParam id="3060" interp="linr"  time="-9999999/1" value="0" leadInLength="0/1"  />
              <InterpolatingParam id="3061" interp="linr"  time="-9999999/1" value="0" leadInLength="0/1"  />
              <InterpolatingParam id="3062" interp="linr"  time="-9999999/1" value="0" leadInLength="0/1"  />
             </VectorParam>
             <VectorParam id="3063"  name="scale">
              <InterpolatingParam id="3064" interp="linr"  time="-9999999/1" value="1" leadInLength="0/1"  />
              <InterpolatingParam id="3065" interp="linr"  time="-9999999/1" value="1" leadInLength="0/1"  />
              <InterpolatingParam id="3066" interp="linr"  time="-9999999/1" value="1" leadInLength="0/1"  />
             </VectorParam>
             <VectorParam id="3067"  name="anchor">
              <InterpolatingParam id="3068" interp="linr"  time="0/1" value="0" leadInLength="0/1"  />
              <InterpolatingParam id="3069" interp="linr"  time="0/1" value="0" leadInLength="0/1"  />
              <InterpolatingParam id="3070" interp="linr"  time="0/1" value="0" leadInLength="0/1"  />
             </VectorParam>
            </Transformer>
            <Parameters>
             <VectorParam id="3071"  name="sourceCrop">
              <InterpolatingParam id="3072" interp="linr"  time="0/1" value="0" leadInLength="0/1"  />
              <InterpolatingParam id="3073" interp="linr"  time="0/1" value="0" leadInLength="0/1"  />
              <InterpolatingParam id="3074" interp="linr"  time="0/1" value="0" leadInLength="0/1"  />
              <InterpolatingParam id="3075" interp="linr"  time="0/1" value="0" leadInLength="0/1"  />
             </VectorParam>
             <VectorParam id="3076"  name="geometryCrop">
              <InterpolatingParam id="3077" interp="linr"  time="-9999999/1" value="0" leadInLength="0/1"  />
              <InterpolatingParam id="3078" interp="linr"  time="-9999999/1" value="0" leadInLength="0/1"  />
              <InterpolatingParam id="3079" interp="linr"  time="-9999999/1" value="0" leadInLength="0/1"  />
              <InterpolatingParam id="3080" interp="linr"  time="-9999999/1" value="0" leadInLength="0/1"  />
             </VectorParam>
             <InterpolatingParam id="3081" interp="linr"  time="-9999999/1" value="1" leadInLength="0/1"  name="opacity"/>
            </Parameters>
            <Attributes>
             <Attribute id="3082" value="" name="ident"/>
            </Attributes>
            <MetaData>
             <entry key="WinSubProjectDisplayName" val=""/>
            </MetaData>
            <ExtraData>
             <Entry key="ZoomPanBin">
              <ZoomPanBin id="3083"  >
               <ZoomPanKeyframes>
               </ZoomPanKeyframes>
              </ZoomPanBin>
             </Entry>
            </ExtraData>
           </VMFile>
           <VMFile id="3084" start="1880" duration="144" scalar="1/1" mediaStart="2061/1" mediaDuration="144/1" trackNumber="0" src="4" >
            <Transformer>
             <VectorParam id="3085"  name="translation">
              <InterpolatingParam id="3086" interp="linr"  time="-9999999/1" value="0" leadInLength="0/1"  />
              <InterpolatingParam id="3087" interp="linr"  time="-9999999/1" value="0" leadInLength="0/1"  />
              <InterpolatingParam id="3088" interp="linr"  time="-9999999/1" value="0" leadInLength="0/1"  />
             </VectorParam>
             <VectorParam id="3089"  name="rotation">
              <InterpolatingParam id="3090" interp="linr"  time="-9999999/1" value="0" leadInLength="0/1"  />
              <InterpolatingParam id="3091" interp="linr"  time="-9999999/1" value="0" leadInLength="0/1"  />
              <InterpolatingParam id="3092" interp="linr"  time="-9999999/1" value="0" leadInLength="0/1"  />
             </VectorParam>
             <VectorParam id="3093"  name="shear">
              <InterpolatingParam id="3094" interp="linr"  time="-9999999/1" value="0" leadInLength="0/1"  />
              <InterpolatingParam id="3095" interp="linr"  time="-9999999/1" value="0" leadInLength="0/1"  />
              <InterpolatingParam id="3096" interp="linr"  time="-9999999/1" value="0" leadInLength="0/1"  />
             </VectorParam>
             <VectorParam id="3097"  name="scale">
              <InterpolatingParam id="3098" interp="linr"  time="-9999999/1" value="1" leadInLength="0/1"  />
              <InterpolatingParam id="3099" interp="linr"  time="-9999999/1" value="1" leadInLength="0/1"  />
              <InterpolatingParam id="3100" interp="linr"  time="-9999999/1" value="1" leadInLength="0/1"  />
             </VectorParam>
             <VectorParam id="3101"  name="anchor">
              <InterpolatingParam id="3102" interp="linr"  time="0/1" value="0" leadInLength="0/1"  />
              <InterpolatingParam id="3103" interp="linr"  time="0/1" value="0" leadInLength="0/1"  />
              <InterpolatingParam id="3104" interp="linr"  time="0/1" value="0" leadInLength="0/1"  />
             </VectorParam>
            </Transformer>
            <Parameters>
             <VectorParam id="3105"  name="sourceCrop">
              <InterpolatingParam id="3106" interp="linr"  time="0/1" value="0" leadInLength="0/1"  />
              <InterpolatingParam id="3107" interp="linr"  time="0/1" value="0" leadInLength="0/1"  />
              <InterpolatingParam id="3108" interp="linr"  time="0/1" value="0" leadInLength="0/1"  />
              <InterpolatingParam id="3109" interp="linr"  time="0/1" value="0" leadInLength="0/1"  />
             </VectorParam>
             <VectorParam id="3110"  name="geometryCrop">
              <InterpolatingParam id="3111" interp="linr"  time="-9999999/1" value="0" leadInLength="0/1"  />
              <InterpolatingParam id="3112" interp="linr"  time="-9999999/1" value="0" leadInLength="0/1"  />
              <InterpolatingParam id="3113" interp="linr"  time="-9999999/1" value="0" leadInLength="0/1"  />
              <InterpolatingParam id="3114" interp="linr"  time="-9999999/1" value="0" leadInLength="0/1"  />
             </VectorParam>
             <InterpolatingParam id="3115" interp="linr"  time="-9999999/1" value="1" leadInLength="0/1"  name="opacity"/>
            </Parameters>
            <Attributes>
             <Attribute id="3116" value="" name="ident"/>
            </Attributes>
            <MetaData>
             <entry key="WinSubProjectDisplayName" val=""/>
            </MetaData>
            <ExtraData>
             <Entry key="ZoomPanBin">
              <ZoomPanBin id="3117"  >
               <ZoomPanKeyframes>
               </ZoomPanKeyframes>
              </ZoomPanBin>
             </Entry>
            </ExtraData>
           </VMFile>
           <VMFile id="3118" start="2024" duration="474" scalar="1/1" mediaStart="2294/1" mediaDuration="474/1" trackNumber="0" src="4" >
            <Transformer>
             <VectorParam id="3119"  name="translation">
              <InterpolatingParam id="3120" interp="linr"  time="-9999999/1" value="0" leadInLength="0/1"  />
              <InterpolatingParam id="3121" interp="linr"  time="-9999999/1" value="0" leadInLength="0/1"  />
              <InterpolatingParam id="3122" interp="linr"  time="-9999999/1" value="0" leadInLength="0/1"  />
             </VectorParam>
             <VectorParam id="3123"  name="rotation">
              <InterpolatingParam id="3124" interp="linr"  time="-9999999/1" value="0" leadInLength="0/1"  />
              <InterpolatingParam id="3125" interp="linr"  time="-9999999/1" value="0" leadInLength="0/1"  />
              <InterpolatingParam id="3126" interp="linr"  time="-9999999/1" value="0" leadInLength="0/1"  />
             </VectorParam>
             <VectorParam id="3127"  name="shear">
              <InterpolatingParam id="3128" interp="linr"  time="-9999999/1" value="0" leadInLength="0/1"  />
              <InterpolatingParam id="3129" interp="linr"  time="-9999999/1" value="0" leadInLength="0/1"  />
              <InterpolatingParam id="3130" interp="linr"  time="-9999999/1" value="0" leadInLength="0/1"  />
             </VectorParam>
             <VectorParam id="3131"  name="scale">
              <InterpolatingParam id="3132" interp="linr"  time="-9999999/1" value="1" leadInLength="0/1"  />
              <InterpolatingParam id="3133" interp="linr"  time="-9999999/1" value="1" leadInLength="0/1"  />
              <InterpolatingParam id="3134" interp="linr"  time="-9999999/1" value="1" leadInLength="0/1"  />
             </VectorParam>
             <VectorParam id="3135"  name="anchor">
              <InterpolatingParam id="3136" interp="linr"  time="0/1" value="0" leadInLength="0/1"  />
              <InterpolatingParam id="3137" interp="linr"  time="0/1" value="0" leadInLength="0/1"  />
              <InterpolatingParam id="3138" interp="linr"  time="0/1" value="0" leadInLength="0/1"  />
             </VectorParam>
            </Transformer>
            <Parameters>
             <VectorParam id="3139"  name="sourceCrop">
              <InterpolatingParam id="3140" interp="linr"  time="0/1" value="0" leadInLength="0/1"  />
              <InterpolatingParam id="3141" interp="linr"  time="0/1" value="0" leadInLength="0/1"  />
              <InterpolatingParam id="3142" interp="linr"  time="0/1" value="0" leadInLength="0/1"  />
              <InterpolatingParam id="3143" interp="linr"  time="0/1" value="0" leadInLength="0/1"  />
             </VectorParam>
             <VectorParam id="3144"  name="geometryCrop">
              <InterpolatingParam id="3145" interp="linr"  time="-9999999/1" value="0" leadInLength="0/1"  />
              <InterpolatingParam id="3146" interp="linr"  time="-9999999/1" value="0" leadInLength="0/1"  />
              <InterpolatingParam id="3147" interp="linr"  time="-9999999/1" value="0" leadInLength="0/1"  />
              <InterpolatingParam id="3148" interp="linr"  time="-9999999/1" value="0" leadInLength="0/1"  />
             </VectorParam>
             <InterpolatingParam id="3149" interp="linr"  time="-9999999/1" value="1" leadInLength="0/1"  name="opacity"/>
            </Parameters>
            <Attributes>
             <Attribute id="3150" value="" name="ident"/>
            </Attributes>
            <MetaData>
             <entry key="WinSubProjectDisplayName" val=""/>
            </MetaData>
            <ExtraData>
             <Entry key="ZoomPanBin">
              <ZoomPanBin id="3151"  >
               <ZoomPanKeyframes>
               </ZoomPanKeyframes>
              </ZoomPanBin>
             </Entry>
            </ExtraData>
           </VMFile>
           <VMFile id="3152" start="2498" duration="386" scalar="1/1" mediaStart="2880/1" mediaDuration="386/1" trackNumber="0" src="4" >
            <Transformer>
             <VectorParam id="3153"  name="translation">
              <InterpolatingParam id="3154" interp="linr"  time="-9999999/1" value="0" leadInLength="0/1"  />
              <InterpolatingParam id="3155" interp="linr"  time="-9999999/1" value="0" leadInLength="0/1"  />
              <InterpolatingParam id="3156" interp="linr"  time="-9999999/1" value="0" leadInLength="0/1"  />
             </VectorParam>
             <VectorParam id="3157"  name="rotation">
              <InterpolatingParam id="3158" interp="linr"  time="-9999999/1" value="0" leadInLength="0/1"  />
              <InterpolatingParam id="3159" interp="linr"  time="-9999999/1" value="0" leadInLength="0/1"  />
              <InterpolatingParam id="3160" interp="linr"  time="-9999999/1" value="0" leadInLength="0/1"  />
             </VectorParam>
             <VectorParam id="3161"  name="shear">
              <InterpolatingParam id="3162" interp="linr"  time="-9999999/1" value="0" leadInLength="0/1"  />
              <InterpolatingParam id="3163" interp="linr"  time="-9999999/1" value="0" leadInLength="0/1"  />
              <InterpolatingParam id="3164" interp="linr"  time="-9999999/1" value="0" leadInLength="0/1"  />
             </VectorParam>
             <VectorParam id="3165"  name="scale">
              <InterpolatingParam id="3166" interp="linr"  time="-9999999/1" value="1" leadInLength="0/1"  />
              <InterpolatingParam id="3167" interp="linr"  time="-9999999/1" value="1" leadInLength="0/1"  />
              <InterpolatingParam id="3168" interp="linr"  time="-9999999/1" value="1" leadInLength="0/1"  />
             </VectorParam>
             <VectorParam id="3169"  name="anchor">
              <InterpolatingParam id="3170" interp="linr"  time="0/1" value="0" leadInLength="0/1"  />
              <InterpolatingParam id="3171" interp="linr"  time="0/1" value="0" leadInLength="0/1"  />
              <InterpolatingParam id="3172" interp="linr"  time="0/1" value="0" leadInLength="0/1"  />
             </VectorParam>
            </Transformer>
            <Parameters>
             <VectorParam id="3173"  name="sourceCrop">
              <InterpolatingParam id="3174" interp="linr"  time="0/1" value="0" leadInLength="0/1"  />
              <InterpolatingParam id="3175" interp="linr"  time="0/1" value="0" leadInLength="0/1"  />
              <InterpolatingParam id="3176" interp="linr"  time="0/1" value="0" leadInLength="0/1"  />
              <InterpolatingParam id="3177" interp="linr"  time="0/1" value="0" leadInLength="0/1"  />
             </VectorParam>
             <VectorParam id="3178"  name="geometryCrop">
              <InterpolatingParam id="3179" interp="linr"  time="-9999999/1" value="0" leadInLength="0/1"  />
              <InterpolatingParam id="3180" interp="linr"  time="-9999999/1" value="0" leadInLength="0/1"  />
              <InterpolatingParam id="3181" interp="linr"  time="-9999999/1" value="0" leadInLength="0/1"  />
              <InterpolatingParam id="3182" interp="linr"  time="-9999999/1" value="0" leadInLength="0/1"  />
             </VectorParam>
             <InterpolatingParam id="3183" interp="linr"  time="-9999999/1" value="1" leadInLength="0/1"  name="opacity"/>
            </Parameters>
            <Attributes>
             <Attribute id="3184" value="" name="ident"/>
            </Attributes>
            <MetaData>
             <entry key="WinSubProjectDisplayName" val=""/>
            </MetaData>
            <ExtraData>
             <Entry key="ZoomPanBin">
              <ZoomPanBin id="3185"  >
               <ZoomPanKeyframes>
               </ZoomPanKeyframes>
              </ZoomPanBin>
             </Entry>
            </ExtraData>
           </VMFile>
           <VMFile id="3186" start="2884" duration="314" scalar="1/1" mediaStart="4032/1" mediaDuration="314/1" trackNumber="0" src="4" >
            <Transformer>
             <VectorParam id="3187"  name="translation">
              <InterpolatingParam id="3188" interp="linr"  time="-9999999/1" value="0" leadInLength="0/1"  />
              <InterpolatingParam id="3189" interp="linr"  time="-9999999/1" value="0" leadInLength="0/1"  />
              <InterpolatingParam id="3190" interp="linr"  time="-9999999/1" value="0" leadInLength="0/1"  />
             </VectorParam>
             <VectorParam id="3191"  name="rotation">
              <InterpolatingParam id="3192" interp="linr"  time="-9999999/1" value="0" leadInLength="0/1"  />
              <InterpolatingParam id="3193" interp="linr"  time="-9999999/1" value="0" leadInLength="0/1"  />
              <InterpolatingParam id="3194" interp="linr"  time="-9999999/1" value="0" leadInLength="0/1"  />
             </VectorParam>
             <VectorParam id="3195"  name="shear">
              <InterpolatingParam id="3196" interp="linr"  time="-9999999/1" value="0" leadInLength="0/1"  />
              <InterpolatingParam id="3197" interp="linr"  time="-9999999/1" value="0" leadInLength="0/1"  />
              <InterpolatingParam id="3198" interp="linr"  time="-9999999/1" value="0" leadInLength="0/1"  />
             </VectorParam>
             <VectorParam id="3199"  name="scale">
              <InterpolatingParam id="3200" interp="linr"  time="-9999999/1" value="1" leadInLength="0/1"  />
              <InterpolatingParam id="3201" interp="linr"  time="-9999999/1" value="1" leadInLength="0/1"  />
              <InterpolatingParam id="3202" interp="linr"  time="-9999999/1" value="1" leadInLength="0/1"  />
             </VectorParam>
             <VectorParam id="3203"  name="anchor">
              <InterpolatingParam id="3204" interp="linr"  time="0/1" value="0" leadInLength="0/1"  />
              <InterpolatingParam id="3205" interp="linr"  time="0/1" value="0" leadInLength="0/1"  />
              <InterpolatingParam id="3206" interp="linr"  time="0/1" value="0" leadInLength="0/1"  />
             </VectorParam>
            </Transformer>
            <Parameters>
             <VectorParam id="3207"  name="sourceCrop">
              <InterpolatingParam id="3208" interp="linr"  time="0/1" value="0" leadInLength="0/1"  />
              <InterpolatingParam id="3209" interp="linr"  time="0/1" value="0" leadInLength="0/1"  />
              <InterpolatingParam id="3210" interp="linr"  time="0/1" value="0" leadInLength="0/1"  />
              <InterpolatingParam id="3211" interp="linr"  time="0/1" value="0" leadInLength="0/1"  />
             </VectorParam>
             <VectorParam id="3212"  name="geometryCrop">
              <InterpolatingParam id="3213" interp="linr"  time="-9999999/1" value="0" leadInLength="0/1"  />
              <InterpolatingParam id="3214" interp="linr"  time="-9999999/1" value="0" leadInLength="0/1"  />
              <InterpolatingParam id="3215" interp="linr"  time="-9999999/1" value="0" leadInLength="0/1"  />
              <InterpolatingParam id="3216" interp="linr"  time="-9999999/1" value="0" leadInLength="0/1"  />
             </VectorParam>
             <InterpolatingParam id="3217" interp="linr"  time="-9999999/1" value="1" leadInLength="0/1"  name="opacity"/>
            </Parameters>
            <Attributes>
             <Attribute id="3218" value="" name="ident"/>
            </Attributes>
            <MetaData>
             <entry key="WinSubProjectDisplayName" val=""/>
            </MetaData>
            <ExtraData>
             <Entry key="ZoomPanBin">
              <ZoomPanBin id="3219"  >
               <ZoomPanKeyframes>
               </ZoomPanKeyframes>
              </ZoomPanBin>
             </Entry>
            </ExtraData>
           </VMFile>
           <VMFile id="3220" start="3198" duration="112" scalar="1/1" mediaStart="4751/1" mediaDuration="112/1" trackNumber="0" src="4" >
            <Transformer>
             <VectorParam id="3221"  name="translation">
              <InterpolatingParam id="3222" interp="linr"  time="-9999999/1" value="0" leadInLength="0/1"  />
              <InterpolatingParam id="3223" interp="linr"  time="-9999999/1" value="0" leadInLength="0/1"  />
              <InterpolatingParam id="3224" interp="linr"  time="-9999999/1" value="0" leadInLength="0/1"  />
             </VectorParam>
             <VectorParam id="3225"  name="rotation">
              <InterpolatingParam id="3226" interp="linr"  time="-9999999/1" value="0" leadInLength="0/1"  />
              <InterpolatingParam id="3227" interp="linr"  time="-9999999/1" value="0" leadInLength="0/1"  />
              <InterpolatingParam id="3228" interp="linr"  time="-9999999/1" value="0" leadInLength="0/1"  />
             </VectorParam>
             <VectorParam id="3229"  name="shear">
              <InterpolatingParam id="3230" interp="linr"  time="-9999999/1" value="0" leadInLength="0/1"  />
              <InterpolatingParam id="3231" interp="linr"  time="-9999999/1" value="0" leadInLength="0/1"  />
              <InterpolatingParam id="3232" interp="linr"  time="-9999999/1" value="0" leadInLength="0/1"  />
             </VectorParam>
             <VectorParam id="3233"  name="scale">
              <InterpolatingParam id="3234" interp="linr"  time="-9999999/1" value="1" leadInLength="0/1"  />
              <InterpolatingParam id="3235" interp="linr"  time="-9999999/1" value="1" leadInLength="0/1"  />
              <InterpolatingParam id="3236" interp="linr"  time="-9999999/1" value="1" leadInLength="0/1"  />
             </VectorParam>
             <VectorParam id="3237"  name="anchor">
              <InterpolatingParam id="3238" interp="linr"  time="0/1" value="0" leadInLength="0/1"  />
              <InterpolatingParam id="3239" interp="linr"  time="0/1" value="0" leadInLength="0/1"  />
              <InterpolatingParam id="3240" interp="linr"  time="0/1" value="0" leadInLength="0/1"  />
             </VectorParam>
            </Transformer>
            <Parameters>
             <VectorParam id="3241"  name="sourceCrop">
              <InterpolatingParam id="3242" interp="linr"  time="0/1" value="0" leadInLength="0/1"  />
              <InterpolatingParam id="3243" interp="linr"  time="0/1" value="0" leadInLength="0/1"  />
              <InterpolatingParam id="3244" interp="linr"  time="0/1" value="0" leadInLength="0/1"  />
              <InterpolatingParam id="3245" interp="linr"  time="0/1" value="0" leadInLength="0/1"  />
             </VectorParam>
             <VectorParam id="3246"  name="geometryCrop">
              <InterpolatingParam id="3247" interp="linr"  time="-9999999/1" value="0" leadInLength="0/1"  />
              <InterpolatingParam id="3248" interp="linr"  time="-9999999/1" value="0" leadInLength="0/1"  />
              <InterpolatingParam id="3249" interp="linr"  time="-9999999/1" value="0" leadInLength="0/1"  />
              <InterpolatingParam id="3250" interp="linr"  time="-9999999/1" value="0" leadInLength="0/1"  />
             </VectorParam>
             <InterpolatingParam id="3251" interp="linr"  time="-9999999/1" value="1" leadInLength="0/1"  name="opacity"/>
            </Parameters>
            <Attributes>
             <Attribute id="3252" value="" name="ident"/>
            </Attributes>
            <MetaData>
             <entry key="WinSubProjectDisplayName" val=""/>
            </MetaData>
            <ExtraData>
             <Entry key="ZoomPanBin">
              <ZoomPanBin id="3253"  >
               <ZoomPanKeyframes>
               </ZoomPanKeyframes>
              </ZoomPanBin>
             </Entry>
            </ExtraData>
           </VMFile>
           <VMFile id="3254" start="3310" duration="386" scalar="1/1" mediaStart="7805/1" mediaDuration="386/1" trackNumber="0" src="4" >
            <Transformer>
             <VectorParam id="3255"  name="translation">
              <InterpolatingParam id="3256" interp="linr"  time="-9999999/1" value="0" leadInLength="0/1"  />
              <InterpolatingParam id="3257" interp="linr"  time="-9999999/1" value="0" leadInLength="0/1"  />
              <InterpolatingParam id="3258" interp="linr"  time="-9999999/1" value="0" leadInLength="0/1"  />
             </VectorParam>
             <VectorParam id="3259"  name="rotation">
              <InterpolatingParam id="3260" interp="linr"  time="-9999999/1" value="0" leadInLength="0/1"  />
              <InterpolatingParam id="3261" interp="linr"  time="-9999999/1" value="0" leadInLength="0/1"  />
              <InterpolatingParam id="3262" interp="linr"  time="-9999999/1" value="0" leadInLength="0/1"  />
             </VectorParam>
             <VectorParam id="3263"  name="shear">
              <InterpolatingParam id="3264" interp="linr"  time="-9999999/1" value="0" leadInLength="0/1"  />
              <InterpolatingParam id="3265" interp="linr"  time="-9999999/1" value="0" leadInLength="0/1"  />
              <InterpolatingParam id="3266" interp="linr"  time="-9999999/1" value="0" leadInLength="0/1"  />
             </VectorParam>
             <VectorParam id="3267"  name="scale">
              <InterpolatingParam id="3268" interp="linr"  time="-9999999/1" value="1" leadInLength="0/1"  />
              <InterpolatingParam id="3269" interp="linr"  time="-9999999/1" value="1" leadInLength="0/1"  />
              <InterpolatingParam id="3270" interp="linr"  time="-9999999/1" value="1" leadInLength="0/1"  />
             </VectorParam>
             <VectorParam id="3271"  name="anchor">
              <InterpolatingParam id="3272" interp="linr"  time="0/1" value="0" leadInLength="0/1"  />
              <InterpolatingParam id="3273" interp="linr"  time="0/1" value="0" leadInLength="0/1"  />
              <InterpolatingParam id="3274" interp="linr"  time="0/1" value="0" leadInLength="0/1"  />
             </VectorParam>
            </Transformer>
            <Parameters>
             <VectorParam id="3275"  name="sourceCrop">
              <InterpolatingParam id="3276" interp="linr"  time="0/1" value="0" leadInLength="0/1"  />
              <InterpolatingParam id="3277" interp="linr"  time="0/1" value="0" leadInLength="0/1"  />
              <InterpolatingParam id="3278" interp="linr"  time="0/1" value="0" leadInLength="0/1"  />
              <InterpolatingParam id="3279" interp="linr"  time="0/1" value="0" leadInLength="0/1"  />
             </VectorParam>
             <VectorParam id="3280"  name="geometryCrop">
              <InterpolatingParam id="3281" interp="linr"  time="-9999999/1" value="0" leadInLength="0/1"  />
              <InterpolatingParam id="3282" interp="linr"  time="-9999999/1" value="0" leadInLength="0/1"  />
              <InterpolatingParam id="3283" interp="linr"  time="-9999999/1" value="0" leadInLength="0/1"  />
              <InterpolatingParam id="3284" interp="linr"  time="-9999999/1" value="0" leadInLength="0/1"  />
             </VectorParam>
             <InterpolatingParam id="3285" interp="linr"  time="-9999999/1" value="1" leadInLength="0/1"  name="opacity"/>
            </Parameters>
            <Attributes>
             <Attribute id="3286" value="" name="ident"/>
            </Attributes>
            <MetaData>
             <entry key="WinSubProjectDisplayName" val=""/>
            </MetaData>
            <ExtraData>
             <Entry key="ZoomPanBin">
              <ZoomPanBin id="3287"  >
               <ZoomPanKeyframes>
               </ZoomPanKeyframes>
              </ZoomPanBin>
             </Entry>
            </ExtraData>
           </VMFile>
           <VMFile id="3288" start="3696" duration="1007" scalar="1/1" mediaStart="8371/1" mediaDuration="1007/1" trackNumber="0" src="4" >
            <Transformer>
             <VectorParam id="3289"  name="translation">
              <InterpolatingParam id="3290" interp="linr"  time="-9999999/1" value="0" leadInLength="0/1"  />
              <InterpolatingParam id="3291" interp="linr"  time="-9999999/1" value="0" leadInLength="0/1"  />
              <InterpolatingParam id="3292" interp="linr"  time="-9999999/1" value="0" leadInLength="0/1"  />
             </VectorParam>
             <VectorParam id="3293"  name="rotation">
              <InterpolatingParam id="3294" interp="linr"  time="-9999999/1" value="0" leadInLength="0/1"  />
              <InterpolatingParam id="3295" interp="linr"  time="-9999999/1" value="0" leadInLength="0/1"  />
              <InterpolatingParam id="3296" interp="linr"  time="-9999999/1" value="0" leadInLength="0/1"  />
             </VectorParam>
             <VectorParam id="3297"  name="shear">
              <InterpolatingParam id="3298" interp="linr"  time="-9999999/1" value="0" leadInLength="0/1"  />
              <InterpolatingParam id="3299" interp="linr"  time="-9999999/1" value="0" leadInLength="0/1"  />
              <InterpolatingParam id="3300" interp="linr"  time="-9999999/1" value="0" leadInLength="0/1"  />
             </VectorParam>
             <VectorParam id="3301"  name="scale">
              <InterpolatingParam id="3302" interp="linr"  time="-9999999/1" value="1" leadInLength="0/1"  />
              <InterpolatingParam id="3303" interp="linr"  time="-9999999/1" value="1" leadInLength="0/1"  />
              <InterpolatingParam id="3304" interp="linr"  time="-9999999/1" value="1" leadInLength="0/1"  />
             </VectorParam>
             <VectorParam id="3305"  name="anchor">
              <InterpolatingParam id="3306" interp="linr"  time="0/1" value="0" leadInLength="0/1"  />
              <InterpolatingParam id="3307" interp="linr"  time="0/1" value="0" leadInLength="0/1"  />
              <InterpolatingParam id="3308" interp="linr"  time="0/1" value="0" leadInLength="0/1"  />
             </VectorParam>
            </Transformer>
            <Parameters>
             <VectorParam id="3309"  name="sourceCrop">
              <InterpolatingParam id="3310" interp="linr"  time="0/1" value="0" leadInLength="0/1"  />
              <InterpolatingParam id="3311" interp="linr"  time="0/1" value="0" leadInLength="0/1"  />
              <InterpolatingParam id="3312" interp="linr"  time="0/1" value="0" leadInLength="0/1"  />
              <InterpolatingParam id="3313" interp="linr"  time="0/1" value="0" leadInLength="0/1"  />
             </VectorParam>
             <VectorParam id="3314"  name="geometryCrop">
              <InterpolatingParam id="3315" interp="linr"  time="-9999999/1" value="0" leadInLength="0/1"  />
              <InterpolatingParam id="3316" interp="linr"  time="-9999999/1" value="0" leadInLength="0/1"  />
              <InterpolatingParam id="3317" interp="linr"  time="-9999999/1" value="0" leadInLength="0/1"  />
              <InterpolatingParam id="3318" interp="linr"  time="-9999999/1" value="0" leadInLength="0/1"  />
             </VectorParam>
             <InterpolatingParam id="3319" interp="linr"  time="-9999999/1" value="1" leadInLength="0/1"  name="opacity"/>
            </Parameters>
            <Attributes>
             <Attribute id="3320" value="" name="ident"/>
            </Attributes>
            <MetaData>
             <entry key="WinSubProjectDisplayName" val=""/>
            </MetaData>
            <ExtraData>
             <Entry key="ZoomPanBin">
              <ZoomPanBin id="3321"  >
               <ZoomPanKeyframes>
               </ZoomPanKeyframes>
              </ZoomPanBin>
             </Entry>
            </ExtraData>
           </VMFile>
           <VMFile id="3322" start="4703" duration="555" scalar="1/1" mediaStart="9516/1" mediaDuration="555/1" trackNumber="0" src="4" >
            <Transformer>
             <VectorParam id="3323"  name="translation">
              <InterpolatingParam id="3324" interp="linr"  time="-9999999/1" value="0" leadInLength="0/1"  />
              <InterpolatingParam id="3325" interp="linr"  time="-9999999/1" value="0" leadInLength="0/1"  />
              <InterpolatingParam id="3326" interp="linr"  time="-9999999/1" value="0" leadInLength="0/1"  />
             </VectorParam>
             <VectorParam id="3327"  name="rotation">
              <InterpolatingParam id="3328" interp="linr"  time="-9999999/1" value="0" leadInLength="0/1"  />
              <InterpolatingParam id="3329" interp="linr"  time="-9999999/1" value="0" leadInLength="0/1"  />
              <InterpolatingParam id="3330" interp="linr"  time="-9999999/1" value="0" leadInLength="0/1"  />
             </VectorParam>
             <VectorParam id="3331"  name="shear">
              <InterpolatingParam id="3332" interp="linr"  time="-9999999/1" value="0" leadInLength="0/1"  />
              <InterpolatingParam id="3333" interp="linr"  time="-9999999/1" value="0" leadInLength="0/1"  />
              <InterpolatingParam id="3334" interp="linr"  time="-9999999/1" value="0" leadInLength="0/1"  />
             </VectorParam>
             <VectorParam id="3335"  name="scale">
              <InterpolatingParam id="3336" interp="linr"  time="-9999999/1" value="1" leadInLength="0/1"  />
              <InterpolatingParam id="3337" interp="linr"  time="-9999999/1" value="1" leadInLength="0/1"  />
              <InterpolatingParam id="3338" interp="linr"  time="-9999999/1" value="1" leadInLength="0/1"  />
             </VectorParam>
             <VectorParam id="3339"  name="anchor">
              <InterpolatingParam id="3340" interp="linr"  time="0/1" value="0" leadInLength="0/1"  />
              <InterpolatingParam id="3341" interp="linr"  time="0/1" value="0" leadInLength="0/1"  />
              <InterpolatingParam id="3342" interp="linr"  time="0/1" value="0" leadInLength="0/1"  />
             </VectorParam>
            </Transformer>
            <Parameters>
             <VectorParam id="3343"  name="sourceCrop">
              <InterpolatingParam id="3344" interp="linr"  time="0/1" value="0" leadInLength="0/1"  />
              <InterpolatingParam id="3345" interp="linr"  time="0/1" value="0" leadInLength="0/1"  />
              <InterpolatingParam id="3346" interp="linr"  time="0/1" value="0" leadInLength="0/1"  />
              <InterpolatingParam id="3347" interp="linr"  time="0/1" value="0" leadInLength="0/1"  />
             </VectorParam>
             <VectorParam id="3348"  name="geometryCrop">
              <InterpolatingParam id="3349" interp="linr"  time="-9999999/1" value="0" leadInLength="0/1"  />
              <InterpolatingParam id="3350" interp="linr"  time="-9999999/1" value="0" leadInLength="0/1"  />
              <InterpolatingParam id="3351" interp="linr"  time="-9999999/1" value="0" leadInLength="0/1"  />
              <InterpolatingParam id="3352" interp="linr"  time="-9999999/1" value="0" leadInLength="0/1"  />
             </VectorParam>
             <InterpolatingParam id="3353" interp="linr"  time="-9999999/1" value="1" leadInLength="0/1"  name="opacity"/>
            </Parameters>
            <Attributes>
             <Attribute id="3354" value="" name="ident"/>
            </Attributes>
            <MetaData>
             <entry key="WinSubProjectDisplayName" val=""/>
            </MetaData>
            <ExtraData>
             <Entry key="ZoomPanBin">
              <ZoomPanBin id="3355"  >
               <ZoomPanKeyframes>
               </ZoomPanKeyframes>
              </ZoomPanBin>
             </Entry>
            </ExtraData>
           </VMFile>
           <VMFile id="3356" start="5258" duration="460" scalar="1/1" mediaStart="11597/1" mediaDuration="460/1" trackNumber="0" src="4" >
            <Transformer>
             <VectorParam id="3357"  name="translation">
              <InterpolatingParam id="3358" interp="linr"  time="-9999999/1" value="0" leadInLength="0/1"  />
              <InterpolatingParam id="3359" interp="linr"  time="-9999999/1" value="0" leadInLength="0/1"  />
              <InterpolatingParam id="3360" interp="linr"  time="-9999999/1" value="0" leadInLength="0/1"  />
             </VectorParam>
             <VectorParam id="3361"  name="rotation">
              <InterpolatingParam id="3362" interp="linr"  time="-9999999/1" value="0" leadInLength="0/1"  />
              <InterpolatingParam id="3363" interp="linr"  time="-9999999/1" value="0" leadInLength="0/1"  />
              <InterpolatingParam id="3364" interp="linr"  time="-9999999/1" value="0" leadInLength="0/1"  />
             </VectorParam>
             <VectorParam id="3365"  name="shear">
              <InterpolatingParam id="3366" interp="linr"  time="-9999999/1" value="0" leadInLength="0/1"  />
              <InterpolatingParam id="3367" interp="linr"  time="-9999999/1" value="0" leadInLength="0/1"  />
              <InterpolatingParam id="3368" interp="linr"  time="-9999999/1" value="0" leadInLength="0/1"  />
             </VectorParam>
             <VectorParam id="3369"  name="scale">
              <InterpolatingParam id="3370" interp="linr"  time="-9999999/1" value="1" leadInLength="0/1"  />
              <InterpolatingParam id="3371" interp="linr"  time="-9999999/1" value="1" leadInLength="0/1"  />
              <InterpolatingParam id="3372" interp="linr"  time="-9999999/1" value="1" leadInLength="0/1"  />
             </VectorParam>
             <VectorParam id="3373"  name="anchor">
              <InterpolatingParam id="3374" interp="linr"  time="0/1" value="0" leadInLength="0/1"  />
              <InterpolatingParam id="3375" interp="linr"  time="0/1" value="0" leadInLength="0/1"  />
              <InterpolatingParam id="3376" interp="linr"  time="0/1" value="0" leadInLength="0/1"  />
             </VectorParam>
            </Transformer>
            <Parameters>
             <VectorParam id="3377"  name="sourceCrop">
              <InterpolatingParam id="3378" interp="linr"  time="0/1" value="0" leadInLength="0/1"  />
              <InterpolatingParam id="3379" interp="linr"  time="0/1" value="0" leadInLength="0/1"  />
              <InterpolatingParam id="3380" interp="linr"  time="0/1" value="0" leadInLength="0/1"  />
              <InterpolatingParam id="3381" interp="linr"  time="0/1" value="0" leadInLength="0/1"  />
             </VectorParam>
             <VectorParam id="3382"  name="geometryCrop">
              <InterpolatingParam id="3383" interp="linr"  time="-9999999/1" value="0" leadInLength="0/1"  />
              <InterpolatingParam id="3384" interp="linr"  time="-9999999/1" value="0" leadInLength="0/1"  />
              <InterpolatingParam id="3385" interp="linr"  time="-9999999/1" value="0" leadInLength="0/1"  />
              <InterpolatingParam id="3386" interp="linr"  time="-9999999/1" value="0" leadInLength="0/1"  />
             </VectorParam>
             <InterpolatingParam id="3387" interp="linr"  time="-9999999/1" value="1" leadInLength="0/1"  name="opacity"/>
            </Parameters>
            <Attributes>
             <Attribute id="3388" value="" name="ident"/>
            </Attributes>
            <MetaData>
             <entry key="WinSubProjectDisplayName" val=""/>
            </MetaData>
            <ExtraData>
             <Entry key="ZoomPanBin">
              <ZoomPanBin id="3389"  >
               <ZoomPanKeyframes>
               </ZoomPanKeyframes>
              </ZoomPanBin>
             </Entry>
            </ExtraData>
           </VMFile>
           <VMFile id="3390" start="5718" duration="350" scalar="1/1" mediaStart="12237/1" mediaDuration="350/1" trackNumber="0" src="4" >
            <Transformer>
             <VectorParam id="3391"  name="translation">
              <InterpolatingParam id="3392" interp="linr"  time="-9999999/1" value="0" leadInLength="0/1"  />
              <InterpolatingParam id="3393" interp="linr"  time="-9999999/1" value="0" leadInLength="0/1"  />
              <InterpolatingParam id="3394" interp="linr"  time="-9999999/1" value="0" leadInLength="0/1"  />
             </VectorParam>
             <VectorParam id="3395"  name="rotation">
              <InterpolatingParam id="3396" interp="linr"  time="-9999999/1" value="0" leadInLength="0/1"  />
              <InterpolatingParam id="3397" interp="linr"  time="-9999999/1" value="0" leadInLength="0/1"  />
              <InterpolatingParam id="3398" interp="linr"  time="-9999999/1" value="0" leadInLength="0/1"  />
             </VectorParam>
             <VectorParam id="3399"  name="shear">
              <InterpolatingParam id="3400" interp="linr"  time="-9999999/1" value="0" leadInLength="0/1"  />
              <InterpolatingParam id="3401" interp="linr"  time="-9999999/1" value="0" leadInLength="0/1"  />
              <InterpolatingParam id="3402" interp="linr"  time="-9999999/1" value="0" leadInLength="0/1"  />
             </VectorParam>
             <VectorParam id="3403"  name="scale">
              <InterpolatingParam id="3404" interp="linr"  time="-9999999/1" value="1" leadInLength="0/1"  />
              <InterpolatingParam id="3405" interp="linr"  time="-9999999/1" value="1" leadInLength="0/1"  />
              <InterpolatingParam id="3406" interp="linr"  time="-9999999/1" value="1" leadInLength="0/1"  />
             </VectorParam>
             <VectorParam id="3407"  name="anchor">
              <InterpolatingParam id="3408" interp="linr"  time="0/1" value="0" leadInLength="0/1"  />
              <InterpolatingParam id="3409" interp="linr"  time="0/1" value="0" leadInLength="0/1"  />
              <InterpolatingParam id="3410" interp="linr"  time="0/1" value="0" leadInLength="0/1"  />
             </VectorParam>
            </Transformer>
            <Parameters>
             <VectorParam id="3411"  name="sourceCrop">
              <InterpolatingParam id="3412" interp="linr"  time="0/1" value="0" leadInLength="0/1"  />
              <InterpolatingParam id="3413" interp="linr"  time="0/1" value="0" leadInLength="0/1"  />
              <InterpolatingParam id="3414" interp="linr"  time="0/1" value="0" leadInLength="0/1"  />
              <InterpolatingParam id="3415" interp="linr"  time="0/1" value="0" leadInLength="0/1"  />
             </VectorParam>
             <VectorParam id="3416"  name="geometryCrop">
              <InterpolatingParam id="3417" interp="linr"  time="-9999999/1" value="0" leadInLength="0/1"  />
              <InterpolatingParam id="3418" interp="linr"  time="-9999999/1" value="0" leadInLength="0/1"  />
              <InterpolatingParam id="3419" interp="linr"  time="-9999999/1" value="0" leadInLength="0/1"  />
              <InterpolatingParam id="3420" interp="linr"  time="-9999999/1" value="0" leadInLength="0/1"  />
             </VectorParam>
             <InterpolatingParam id="3421" interp="linr"  time="-9999999/1" value="1" leadInLength="0/1"  name="opacity"/>
            </Parameters>
            <Attributes>
             <Attribute id="3422" value="" name="ident"/>
            </Attributes>
            <MetaData>
             <entry key="WinSubProjectDisplayName" val=""/>
            </MetaData>
            <ExtraData>
             <Entry key="ZoomPanBin">
              <ZoomPanBin id="3423"  >
               <ZoomPanKeyframes>
               </ZoomPanKeyframes>
              </ZoomPanBin>
             </Entry>
            </ExtraData>
           </VMFile>
           <VMFile id="3424" start="6068" duration="128" scalar="1/1" mediaStart="15765/1" mediaDuration="128/1" trackNumber="0" src="4" >
            <Transformer>
             <VectorParam id="3425"  name="translation">
              <InterpolatingParam id="3426" interp="linr"  time="-9999999/1" value="0" leadInLength="0/1"  />
              <InterpolatingParam id="3427" interp="linr"  time="-9999999/1" value="0" leadInLength="0/1"  />
              <InterpolatingParam id="3428" interp="linr"  time="-9999999/1" value="0" leadInLength="0/1"  />
             </VectorParam>
             <VectorParam id="3429"  name="rotation">
              <InterpolatingParam id="3430" interp="linr"  time="-9999999/1" value="0" leadInLength="0/1"  />
              <InterpolatingParam id="3431" interp="linr"  time="-9999999/1" value="0" leadInLength="0/1"  />
              <InterpolatingParam id="3432" interp="linr"  time="-9999999/1" value="0" leadInLength="0/1"  />
             </VectorParam>
             <VectorParam id="3433"  name="shear">
              <InterpolatingParam id="3434" interp="linr"  time="-9999999/1" value="0" leadInLength="0/1"  />
              <InterpolatingParam id="3435" interp="linr"  time="-9999999/1" value="0" leadInLength="0/1"  />
              <InterpolatingParam id="3436" interp="linr"  time="-9999999/1" value="0" leadInLength="0/1"  />
             </VectorParam>
             <VectorParam id="3437"  name="scale">
              <InterpolatingParam id="3438" interp="linr"  time="-9999999/1" value="1" leadInLength="0/1"  />
              <InterpolatingParam id="3439" interp="linr"  time="-9999999/1" value="1" leadInLength="0/1"  />
              <InterpolatingParam id="3440" interp="linr"  time="-9999999/1" value="1" leadInLength="0/1"  />
             </VectorParam>
             <VectorParam id="3441"  name="anchor">
              <InterpolatingParam id="3442" interp="linr"  time="0/1" value="0" leadInLength="0/1"  />
              <InterpolatingParam id="3443" interp="linr"  time="0/1" value="0" leadInLength="0/1"  />
              <InterpolatingParam id="3444" interp="linr"  time="0/1" value="0" leadInLength="0/1"  />
             </VectorParam>
            </Transformer>
            <Parameters>
             <VectorParam id="3445"  name="sourceCrop">
              <InterpolatingParam id="3446" interp="linr"  time="0/1" value="0" leadInLength="0/1"  />
              <InterpolatingParam id="3447" interp="linr"  time="0/1" value="0" leadInLength="0/1"  />
              <InterpolatingParam id="3448" interp="linr"  time="0/1" value="0" leadInLength="0/1"  />
              <InterpolatingParam id="3449" interp="linr"  time="0/1" value="0" leadInLength="0/1"  />
             </VectorParam>
             <VectorParam id="3450"  name="geometryCrop">
              <InterpolatingParam id="3451" interp="linr"  time="-9999999/1" value="0" leadInLength="0/1"  />
              <InterpolatingParam id="3452" interp="linr"  time="-9999999/1" value="0" leadInLength="0/1"  />
              <InterpolatingParam id="3453" interp="linr"  time="-9999999/1" value="0" leadInLength="0/1"  />
              <InterpolatingParam id="3454" interp="linr"  time="-9999999/1" value="0" leadInLength="0/1"  />
             </VectorParam>
             <InterpolatingParam id="3455" interp="linr"  time="-9999999/1" value="1" leadInLength="0/1"  name="opacity"/>
            </Parameters>
            <Attributes>
             <Attribute id="3456" value="" name="ident"/>
            </Attributes>
            <MetaData>
             <entry key="WinSubProjectDisplayName" val=""/>
            </MetaData>
            <ExtraData>
             <Entry key="ZoomPanBin">
              <ZoomPanBin id="3457"  >
               <ZoomPanKeyframes>
               </ZoomPanKeyframes>
              </ZoomPanBin>
             </Entry>
            </ExtraData>
           </VMFile>
           <VMFile id="3458" start="6196" duration="615" scalar="1/1" mediaStart="15918/1" mediaDuration="615/1" trackNumber="0" src="4" >
            <Transformer>
             <VectorParam id="3459"  name="translation">
              <InterpolatingParam id="3460" interp="linr"  time="-9999999/1" value="0" leadInLength="0/1"  />
              <InterpolatingParam id="3461" interp="linr"  time="-9999999/1" value="0" leadInLength="0/1"  />
              <InterpolatingParam id="3462" interp="linr"  time="-9999999/1" value="0" leadInLength="0/1"  />
             </VectorParam>
             <VectorParam id="3463"  name="rotation">
              <InterpolatingParam id="3464" interp="linr"  time="-9999999/1" value="0" leadInLength="0/1"  />
              <InterpolatingParam id="3465" interp="linr"  time="-9999999/1" value="0" leadInLength="0/1"  />
              <InterpolatingParam id="3466" interp="linr"  time="-9999999/1" value="0" leadInLength="0/1"  />
             </VectorParam>
             <VectorParam id="3467"  name="shear">
              <InterpolatingParam id="3468" interp="linr"  time="-9999999/1" value="0" leadInLength="0/1"  />
              <InterpolatingParam id="3469" interp="linr"  time="-9999999/1" value="0" leadInLength="0/1"  />
              <InterpolatingParam id="3470" interp="linr"  time="-9999999/1" value="0" leadInLength="0/1"  />
             </VectorParam>
             <VectorParam id="3471"  name="scale">
              <InterpolatingParam id="3472" interp="linr"  time="-9999999/1" value="1" leadInLength="0/1"  />
              <InterpolatingParam id="3473" interp="linr"  time="-9999999/1" value="1" leadInLength="0/1"  />
              <InterpolatingParam id="3474" interp="linr"  time="-9999999/1" value="1" leadInLength="0/1"  />
             </VectorParam>
             <VectorParam id="3475"  name="anchor">
              <InterpolatingParam id="3476" interp="linr"  time="0/1" value="0" leadInLength="0/1"  />
              <InterpolatingParam id="3477" interp="linr"  time="0/1" value="0" leadInLength="0/1"  />
              <InterpolatingParam id="3478" interp="linr"  time="0/1" value="0" leadInLength="0/1"  />
             </VectorParam>
            </Transformer>
            <Parameters>
             <VectorParam id="3479"  name="sourceCrop">
              <InterpolatingParam id="3480" interp="linr"  time="0/1" value="0" leadInLength="0/1"  />
              <InterpolatingParam id="3481" interp="linr"  time="0/1" value="0" leadInLength="0/1"  />
              <InterpolatingParam id="3482" interp="linr"  time="0/1" value="0" leadInLength="0/1"  />
              <InterpolatingParam id="3483" interp="linr"  time="0/1" value="0" leadInLength="0/1"  />
             </VectorParam>
             <VectorParam id="3484"  name="geometryCrop">
              <InterpolatingParam id="3485" interp="linr"  time="-9999999/1" value="0" leadInLength="0/1"  />
              <InterpolatingParam id="3486" interp="linr"  time="-9999999/1" value="0" leadInLength="0/1"  />
              <InterpolatingParam id="3487" interp="linr"  time="-9999999/1" value="0" leadInLength="0/1"  />
              <InterpolatingParam id="3488" interp="linr"  time="-9999999/1" value="0" leadInLength="0/1"  />
             </VectorParam>
             <InterpolatingParam id="3489" interp="linr"  time="-9999999/1" value="1" leadInLength="0/1"  name="opacity"/>
            </Parameters>
            <Attributes>
             <Attribute id="3490" value="" name="ident"/>
            </Attributes>
            <MetaData>
             <entry key="WinSubProjectDisplayName" val=""/>
            </MetaData>
            <ExtraData>
             <Entry key="ZoomPanBin">
              <ZoomPanBin id="3491"  >
               <ZoomPanKeyframes>
               </ZoomPanKeyframes>
              </ZoomPanBin>
             </Entry>
            </ExtraData>
           </VMFile>
           <VMFile id="3492" start="6811" duration="323" scalar="1/1" mediaStart="16694/1" mediaDuration="323/1" trackNumber="0" src="4" >
            <Transformer>
             <VectorParam id="3493"  name="translation">
              <InterpolatingParam id="3494" interp="linr"  time="-9999999/1" value="0" leadInLength="0/1"  />
              <InterpolatingParam id="3495" interp="linr"  time="-9999999/1" value="0" leadInLength="0/1"  />
              <InterpolatingParam id="3496" interp="linr"  time="-9999999/1" value="0" leadInLength="0/1"  />
             </VectorParam>
             <VectorParam id="3497"  name="rotation">
              <InterpolatingParam id="3498" interp="linr"  time="-9999999/1" value="0" leadInLength="0/1"  />
              <InterpolatingParam id="3499" interp="linr"  time="-9999999/1" value="0" leadInLength="0/1"  />
              <InterpolatingParam id="3500" interp="linr"  time="-9999999/1" value="0" leadInLength="0/1"  />
             </VectorParam>
             <VectorParam id="3501"  name="shear">
              <InterpolatingParam id="3502" interp="linr"  time="-9999999/1" value="0" leadInLength="0/1"  />
              <InterpolatingParam id="3503" interp="linr"  time="-9999999/1" value="0" leadInLength="0/1"  />
              <InterpolatingParam id="3504" interp="linr"  time="-9999999/1" value="0" leadInLength="0/1"  />
             </VectorParam>
             <VectorParam id="3505"  name="scale">
              <InterpolatingParam id="3506" interp="linr"  time="-9999999/1" value="1" leadInLength="0/1"  />
              <InterpolatingParam id="3507" interp="linr"  time="-9999999/1" value="1" leadInLength="0/1"  />
              <InterpolatingParam id="3508" interp="linr"  time="-9999999/1" value="1" leadInLength="0/1"  />
             </VectorParam>
             <VectorParam id="3509"  name="anchor">
              <InterpolatingParam id="3510" interp="linr"  time="0/1" value="0" leadInLength="0/1"  />
              <InterpolatingParam id="3511" interp="linr"  time="0/1" value="0" leadInLength="0/1"  />
              <InterpolatingParam id="3512" interp="linr"  time="0/1" value="0" leadInLength="0/1"  />
             </VectorParam>
            </Transformer>
            <Parameters>
             <VectorParam id="3513"  name="sourceCrop">
              <InterpolatingParam id="3514" interp="linr"  time="0/1" value="0" leadInLength="0/1"  />
              <InterpolatingParam id="3515" interp="linr"  time="0/1" value="0" leadInLength="0/1"  />
              <InterpolatingParam id="3516" interp="linr"  time="0/1" value="0" leadInLength="0/1"  />
              <InterpolatingParam id="3517" interp="linr"  time="0/1" value="0" leadInLength="0/1"  />
             </VectorParam>
             <VectorParam id="3518"  name="geometryCrop">
              <InterpolatingParam id="3519" interp="linr"  time="-9999999/1" value="0" leadInLength="0/1"  />
              <InterpolatingParam id="3520" interp="linr"  time="-9999999/1" value="0" leadInLength="0/1"  />
              <InterpolatingParam id="3521" interp="linr"  time="-9999999/1" value="0" leadInLength="0/1"  />
              <InterpolatingParam id="3522" interp="linr"  time="-9999999/1" value="0" leadInLength="0/1"  />
             </VectorParam>
             <InterpolatingParam id="3523" interp="linr"  time="-9999999/1" value="1" leadInLength="0/1"  name="opacity"/>
            </Parameters>
            <Attributes>
             <Attribute id="3524" value="" name="ident"/>
            </Attributes>
            <MetaData>
             <entry key="WinSubProjectDisplayName" val=""/>
            </MetaData>
            <ExtraData>
             <Entry key="ZoomPanBin">
              <ZoomPanBin id="3525"  >
               <ZoomPanKeyframes>
               </ZoomPanKeyframes>
              </ZoomPanBin>
             </Entry>
            </ExtraData>
           </VMFile>
           <VMFile id="3526" start="7134" duration="223" scalar="1/1" mediaStart="17164/1" mediaDuration="223/1" trackNumber="0" src="4" >
            <Transformer>
             <VectorParam id="3527"  name="translation">
              <InterpolatingParam id="3528" interp="linr"  time="-9999999/1" value="0" leadInLength="0/1"  />
              <InterpolatingParam id="3529" interp="linr"  time="-9999999/1" value="0" leadInLength="0/1"  />
              <InterpolatingParam id="3530" interp="linr"  time="-9999999/1" value="0" leadInLength="0/1"  />
             </VectorParam>
             <VectorParam id="3531"  name="rotation">
              <InterpolatingParam id="3532" interp="linr"  time="-9999999/1" value="0" leadInLength="0/1"  />
              <InterpolatingParam id="3533" interp="linr"  time="-9999999/1" value="0" leadInLength="0/1"  />
              <InterpolatingParam id="3534" interp="linr"  time="-9999999/1" value="0" leadInLength="0/1"  />
             </VectorParam>
             <VectorParam id="3535"  name="shear">
              <InterpolatingParam id="3536" interp="linr"  time="-9999999/1" value="0" leadInLength="0/1"  />
              <InterpolatingParam id="3537" interp="linr"  time="-9999999/1" value="0" leadInLength="0/1"  />
              <InterpolatingParam id="3538" interp="linr"  time="-9999999/1" value="0" leadInLength="0/1"  />
             </VectorParam>
             <VectorParam id="3539"  name="scale">
              <InterpolatingParam id="3540" interp="linr"  time="-9999999/1" value="1" leadInLength="0/1"  />
              <InterpolatingParam id="3541" interp="linr"  time="-9999999/1" value="1" leadInLength="0/1"  />
              <InterpolatingParam id="3542" interp="linr"  time="-9999999/1" value="1" leadInLength="0/1"  />
             </VectorParam>
             <VectorParam id="3543"  name="anchor">
              <InterpolatingParam id="3544" interp="linr"  time="0/1" value="0" leadInLength="0/1"  />
              <InterpolatingParam id="3545" interp="linr"  time="0/1" value="0" leadInLength="0/1"  />
              <InterpolatingParam id="3546" interp="linr"  time="0/1" value="0" leadInLength="0/1"  />
             </VectorParam>
            </Transformer>
            <Parameters>
             <VectorParam id="3547"  name="sourceCrop">
              <InterpolatingParam id="3548" interp="linr"  time="0/1" value="0" leadInLength="0/1"  />
              <InterpolatingParam id="3549" interp="linr"  time="0/1" value="0" leadInLength="0/1"  />
              <InterpolatingParam id="3550" interp="linr"  time="0/1" value="0" leadInLength="0/1"  />
              <InterpolatingParam id="3551" interp="linr"  time="0/1" value="0" leadInLength="0/1"  />
             </VectorParam>
             <VectorParam id="3552"  name="geometryCrop">
              <InterpolatingParam id="3553" interp="linr"  time="-9999999/1" value="0" leadInLength="0/1"  />
              <InterpolatingParam id="3554" interp="linr"  time="-9999999/1" value="0" leadInLength="0/1"  />
              <InterpolatingParam id="3555" interp="linr"  time="-9999999/1" value="0" leadInLength="0/1"  />
              <InterpolatingParam id="3556" interp="linr"  time="-9999999/1" value="0" leadInLength="0/1"  />
             </VectorParam>
             <InterpolatingParam id="3557" interp="linr"  time="-9999999/1" value="1" leadInLength="0/1"  name="opacity"/>
            </Parameters>
            <Attributes>
             <Attribute id="3558" value="" name="ident"/>
            </Attributes>
            <MetaData>
             <entry key="WinSubProjectDisplayName" val=""/>
            </MetaData>
            <ExtraData>
             <Entry key="ZoomPanBin">
              <ZoomPanBin id="3559"  >
               <ZoomPanKeyframes>
               </ZoomPanKeyframes>
              </ZoomPanBin>
             </Entry>
            </ExtraData>
           </VMFile>
           <VMFile id="3560" start="7357" duration="323" scalar="1/1" mediaStart="26742/1" mediaDuration="323/1" trackNumber="0" src="4" >
            <Transformer>
             <VectorParam id="3561"  name="translation">
              <InterpolatingParam id="3562" interp="linr"  time="-9999999/1" value="0" leadInLength="0/1"  />
              <InterpolatingParam id="3563" interp="linr"  time="-9999999/1" value="0" leadInLength="0/1"  />
              <InterpolatingParam id="3564" interp="linr"  time="-9999999/1" value="0" leadInLength="0/1"  />
             </VectorParam>
             <VectorParam id="3565"  name="rotation">
              <InterpolatingParam id="3566" interp="linr"  time="-9999999/1" value="0" leadInLength="0/1"  />
              <InterpolatingParam id="3567" interp="linr"  time="-9999999/1" value="0" leadInLength="0/1"  />
              <InterpolatingParam id="3568" interp="linr"  time="-9999999/1" value="0" leadInLength="0/1"  />
             </VectorParam>
             <VectorParam id="3569"  name="shear">
              <InterpolatingParam id="3570" interp="linr"  time="-9999999/1" value="0" leadInLength="0/1"  />
              <InterpolatingParam id="3571" interp="linr"  time="-9999999/1" value="0" leadInLength="0/1"  />
              <InterpolatingParam id="3572" interp="linr"  time="-9999999/1" value="0" leadInLength="0/1"  />
             </VectorParam>
             <VectorParam id="3573"  name="scale">
              <InterpolatingParam id="3574" interp="linr"  time="-9999999/1" value="1" leadInLength="0/1"  />
              <InterpolatingParam id="3575" interp="linr"  time="-9999999/1" value="1" leadInLength="0/1"  />
              <InterpolatingParam id="3576" interp="linr"  time="-9999999/1" value="1" leadInLength="0/1"  />
             </VectorParam>
             <VectorParam id="3577"  name="anchor">
              <InterpolatingParam id="3578" interp="linr"  time="0/1" value="0" leadInLength="0/1"  />
              <InterpolatingParam id="3579" interp="linr"  time="0/1" value="0" leadInLength="0/1"  />
              <InterpolatingParam id="3580" interp="linr"  time="0/1" value="0" leadInLength="0/1"  />
             </VectorParam>
            </Transformer>
            <Parameters>
             <VectorParam id="3581"  name="sourceCrop">
              <InterpolatingParam id="3582" interp="linr"  time="0/1" value="0" leadInLength="0/1"  />
              <InterpolatingParam id="3583" interp="linr"  time="0/1" value="0" leadInLength="0/1"  />
              <InterpolatingParam id="3584" interp="linr"  time="0/1" value="0" leadInLength="0/1"  />
              <InterpolatingParam id="3585" interp="linr"  time="0/1" value="0" leadInLength="0/1"  />
             </VectorParam>
             <VectorParam id="3586"  name="geometryCrop">
              <InterpolatingParam id="3587" interp="linr"  time="-9999999/1" value="0" leadInLength="0/1"  />
              <InterpolatingParam id="3588" interp="linr"  time="-9999999/1" value="0" leadInLength="0/1"  />
              <InterpolatingParam id="3589" interp="linr"  time="-9999999/1" value="0" leadInLength="0/1"  />
              <InterpolatingParam id="3590" interp="linr"  time="-9999999/1" value="0" leadInLength="0/1"  />
             </VectorParam>
             <InterpolatingParam id="3591" interp="linr"  time="-9999999/1" value="1" leadInLength="0/1"  name="opacity"/>
            </Parameters>
            <Attributes>
             <Attribute id="3592" value="" name="ident"/>
            </Attributes>
            <MetaData>
             <entry key="WinSubProjectDisplayName" val=""/>
            </MetaData>
            <ExtraData>
             <Entry key="ZoomPanBin">
              <ZoomPanBin id="3593"  >
               <ZoomPanKeyframes>
               </ZoomPanKeyframes>
              </ZoomPanBin>
             </Entry>
            </ExtraData>
           </VMFile>
           <VMFile id="3594" start="7680" duration="259" scalar="1/1" mediaStart="27825/1" mediaDuration="259/1" trackNumber="0" src="4" >
            <Transformer>
             <VectorParam id="3595"  name="translation">
              <InterpolatingParam id="3596" interp="linr"  time="-9999999/1" value="0" leadInLength="0/1"  />
              <InterpolatingParam id="3597" interp="linr"  time="-9999999/1" value="0" leadInLength="0/1"  />
              <InterpolatingParam id="3598" interp="linr"  time="-9999999/1" value="0" leadInLength="0/1"  />
             </VectorParam>
             <VectorParam id="3599"  name="rotation">
              <InterpolatingParam id="3600" interp="linr"  time="-9999999/1" value="0" leadInLength="0/1"  />
              <InterpolatingParam id="3601" interp="linr"  time="-9999999/1" value="0" leadInLength="0/1"  />
              <InterpolatingParam id="3602" interp="linr"  time="-9999999/1" value="0" leadInLength="0/1"  />
             </VectorParam>
             <VectorParam id="3603"  name="shear">
              <InterpolatingParam id="3604" interp="linr"  time="-9999999/1" value="0" leadInLength="0/1"  />
              <InterpolatingParam id="3605" interp="linr"  time="-9999999/1" value="0" leadInLength="0/1"  />
              <InterpolatingParam id="3606" interp="linr"  time="-9999999/1" value="0" leadInLength="0/1"  />
             </VectorParam>
             <VectorParam id="3607"  name="scale">
              <InterpolatingParam id="3608" interp="linr"  time="-9999999/1" value="1" leadInLength="0/1"  />
              <InterpolatingParam id="3609" interp="linr"  time="-9999999/1" value="1" leadInLength="0/1"  />
              <InterpolatingParam id="3610" interp="linr"  time="-9999999/1" value="1" leadInLength="0/1"  />
             </VectorParam>
             <VectorParam id="3611"  name="anchor">
              <InterpolatingParam id="3612" interp="linr"  time="0/1" value="0" leadInLength="0/1"  />
              <InterpolatingParam id="3613" interp="linr"  time="0/1" value="0" leadInLength="0/1"  />
              <InterpolatingParam id="3614" interp="linr"  time="0/1" value="0" leadInLength="0/1"  />
             </VectorParam>
            </Transformer>
            <Parameters>
             <VectorParam id="3615"  name="sourceCrop">
              <InterpolatingParam id="3616" interp="linr"  time="0/1" value="0" leadInLength="0/1"  />
              <InterpolatingParam id="3617" interp="linr"  time="0/1" value="0" leadInLength="0/1"  />
              <InterpolatingParam id="3618" interp="linr"  time="0/1" value="0" leadInLength="0/1"  />
              <InterpolatingParam id="3619" interp="linr"  time="0/1" value="0" leadInLength="0/1"  />
             </VectorParam>
             <VectorParam id="3620"  name="geometryCrop">
              <InterpolatingParam id="3621" interp="linr"  time="-9999999/1" value="0" leadInLength="0/1"  />
              <InterpolatingParam id="3622" interp="linr"  time="-9999999/1" value="0" leadInLength="0/1"  />
              <InterpolatingParam id="3623" interp="linr"  time="-9999999/1" value="0" leadInLength="0/1"  />
              <InterpolatingParam id="3624" interp="linr"  time="-9999999/1" value="0" leadInLength="0/1"  />
             </VectorParam>
             <InterpolatingParam id="3625" interp="linr"  time="-9999999/1" value="1" leadInLength="0/1"  name="opacity"/>
            </Parameters>
            <Attributes>
             <Attribute id="3626" value="" name="ident"/>
            </Attributes>
            <MetaData>
             <entry key="WinSubProjectDisplayName" val=""/>
            </MetaData>
            <ExtraData>
             <Entry key="ZoomPanBin">
              <ZoomPanBin id="3627"  >
               <ZoomPanKeyframes>
               </ZoomPanKeyframes>
              </ZoomPanBin>
             </Entry>
            </ExtraData>
           </VMFile>
           <VMFile id="3628" start="7939" duration="157" scalar="1/1" mediaStart="28287/1" mediaDuration="157/1" trackNumber="0" src="4" >
            <Transformer>
             <VectorParam id="3629"  name="translation">
              <InterpolatingParam id="3630" interp="linr"  time="-9999999/1" value="0" leadInLength="0/1"  />
              <InterpolatingParam id="3631" interp="linr"  time="-9999999/1" value="0" leadInLength="0/1"  />
              <InterpolatingParam id="3632" interp="linr"  time="-9999999/1" value="0" leadInLength="0/1"  />
             </VectorParam>
             <VectorParam id="3633"  name="rotation">
              <InterpolatingParam id="3634" interp="linr"  time="-9999999/1" value="0" leadInLength="0/1"  />
              <InterpolatingParam id="3635" interp="linr"  time="-9999999/1" value="0" leadInLength="0/1"  />
              <InterpolatingParam id="3636" interp="linr"  time="-9999999/1" value="0" leadInLength="0/1"  />
             </VectorParam>
             <VectorParam id="3637"  name="shear">
              <InterpolatingParam id="3638" interp="linr"  time="-9999999/1" value="0" leadInLength="0/1"  />
              <InterpolatingParam id="3639" interp="linr"  time="-9999999/1" value="0" leadInLength="0/1"  />
              <InterpolatingParam id="3640" interp="linr"  time="-9999999/1" value="0" leadInLength="0/1"  />
             </VectorParam>
             <VectorParam id="3641"  name="scale">
              <InterpolatingParam id="3642" interp="linr"  time="-9999999/1" value="1" leadInLength="0/1"  />
              <InterpolatingParam id="3643" interp="linr"  time="-9999999/1" value="1" leadInLength="0/1"  />
              <InterpolatingParam id="3644" interp="linr"  time="-9999999/1" value="1" leadInLength="0/1"  />
             </VectorParam>
             <VectorParam id="3645"  name="anchor">
              <InterpolatingParam id="3646" interp="linr"  time="0/1" value="0" leadInLength="0/1"  />
              <InterpolatingParam id="3647" interp="linr"  time="0/1" value="0" leadInLength="0/1"  />
              <InterpolatingParam id="3648" interp="linr"  time="0/1" value="0" leadInLength="0/1"  />
             </VectorParam>
            </Transformer>
            <Parameters>
             <VectorParam id="3649"  name="sourceCrop">
              <InterpolatingParam id="3650" interp="linr"  time="0/1" value="0" leadInLength="0/1"  />
              <InterpolatingParam id="3651" interp="linr"  time="0/1" value="0" leadInLength="0/1"  />
              <InterpolatingParam id="3652" interp="linr"  time="0/1" value="0" leadInLength="0/1"  />
              <InterpolatingParam id="3653" interp="linr"  time="0/1" value="0" leadInLength="0/1"  />
             </VectorParam>
             <VectorParam id="3654"  name="geometryCrop">
              <InterpolatingParam id="3655" interp="linr"  time="-9999999/1" value="0" leadInLength="0/1"  />
              <InterpolatingParam id="3656" interp="linr"  time="-9999999/1" value="0" leadInLength="0/1"  />
              <InterpolatingParam id="3657" interp="linr"  time="-9999999/1" value="0" leadInLength="0/1"  />
              <InterpolatingParam id="3658" interp="linr"  time="-9999999/1" value="0" leadInLength="0/1"  />
             </VectorParam>
             <InterpolatingParam id="3659" interp="linr"  time="-9999999/1" value="1" leadInLength="0/1"  name="opacity"/>
            </Parameters>
            <Attributes>
             <Attribute id="3660" value="" name="ident"/>
            </Attributes>
            <MetaData>
             <entry key="WinSubProjectDisplayName" val=""/>
            </MetaData>
            <ExtraData>
             <Entry key="ZoomPanBin">
              <ZoomPanBin id="3661"  >
               <ZoomPanKeyframes>
               </ZoomPanKeyframes>
              </ZoomPanBin>
             </Entry>
            </ExtraData>
           </VMFile>
           <VMFile id="3662" start="8096" duration="290" scalar="1/1" mediaStart="28689/1" mediaDuration="290/1" trackNumber="0" src="4" >
            <Transformer>
             <VectorParam id="3663"  name="translation">
              <InterpolatingParam id="3664" interp="linr"  time="-9999999/1" value="0" leadInLength="0/1"  />
              <InterpolatingParam id="3665" interp="linr"  time="-9999999/1" value="0" leadInLength="0/1"  />
              <InterpolatingParam id="3666" interp="linr"  time="-9999999/1" value="0" leadInLength="0/1"  />
             </VectorParam>
             <VectorParam id="3667"  name="rotation">
              <InterpolatingParam id="3668" interp="linr"  time="-9999999/1" value="0" leadInLength="0/1"  />
              <InterpolatingParam id="3669" interp="linr"  time="-9999999/1" value="0" leadInLength="0/1"  />
              <InterpolatingParam id="3670" interp="linr"  time="-9999999/1" value="0" leadInLength="0/1"  />
             </VectorParam>
             <VectorParam id="3671"  name="shear">
              <InterpolatingParam id="3672" interp="linr"  time="-9999999/1" value="0" leadInLength="0/1"  />
              <InterpolatingParam id="3673" interp="linr"  time="-9999999/1" value="0" leadInLength="0/1"  />
              <InterpolatingParam id="3674" interp="linr"  time="-9999999/1" value="0" leadInLength="0/1"  />
             </VectorParam>
             <VectorParam id="3675"  name="scale">
              <InterpolatingParam id="3676" interp="linr"  time="-9999999/1" value="1" leadInLength="0/1"  />
              <InterpolatingParam id="3677" interp="linr"  time="-9999999/1" value="1" leadInLength="0/1"  />
              <InterpolatingParam id="3678" interp="linr"  time="-9999999/1" value="1" leadInLength="0/1"  />
             </VectorParam>
             <VectorParam id="3679"  name="anchor">
              <InterpolatingParam id="3680" interp="linr"  time="0/1" value="0" leadInLength="0/1"  />
              <InterpolatingParam id="3681" interp="linr"  time="0/1" value="0" leadInLength="0/1"  />
              <InterpolatingParam id="3682" interp="linr"  time="0/1" value="0" leadInLength="0/1"  />
             </VectorParam>
            </Transformer>
            <Parameters>
             <VectorParam id="3683"  name="sourceCrop">
              <InterpolatingParam id="3684" interp="linr"  time="0/1" value="0" leadInLength="0/1"  />
              <InterpolatingParam id="3685" interp="linr"  time="0/1" value="0" leadInLength="0/1"  />
              <InterpolatingParam id="3686" interp="linr"  time="0/1" value="0" leadInLength="0/1"  />
              <InterpolatingParam id="3687" interp="linr"  time="0/1" value="0" leadInLength="0/1"  />
             </VectorParam>
             <VectorParam id="3688"  name="geometryCrop">
              <InterpolatingParam id="3689" interp="linr"  time="-9999999/1" value="0" leadInLength="0/1"  />
              <InterpolatingParam id="3690" interp="linr"  time="-9999999/1" value="0" leadInLength="0/1"  />
              <InterpolatingParam id="3691" interp="linr"  time="-9999999/1" value="0" leadInLength="0/1"  />
              <InterpolatingParam id="3692" interp="linr"  time="-9999999/1" value="0" leadInLength="0/1"  />
             </VectorParam>
             <InterpolatingParam id="3693" interp="linr"  time="-9999999/1" value="1" leadInLength="0/1"  name="opacity"/>
            </Parameters>
            <Attributes>
             <Attribute id="3694" value="" name="ident"/>
            </Attributes>
            <MetaData>
             <entry key="WinSubProjectDisplayName" val=""/>
            </MetaData>
            <ExtraData>
             <Entry key="ZoomPanBin">
              <ZoomPanBin id="3695"  >
               <ZoomPanKeyframes>
               </ZoomPanKeyframes>
              </ZoomPanBin>
             </Entry>
            </ExtraData>
           </VMFile>
           <IMFile id="3696" start="8386" duration="60" scalar="1/1" mediaStart="29056/1" mediaDuration="1/1" trackNumber="0" src="4" trimStartSum="0/1" >
            <Transformer>
             <VectorParam id="3697"  name="translation">
              <InterpolatingParam id="3698" interp="linr"  time="-9999999/1" value="0" leadInLength="0/1"  />
              <InterpolatingParam id="3699" interp="linr"  time="-9999999/1" value="0" leadInLength="0/1"  />
              <InterpolatingParam id="3700" interp="linr"  time="-9999999/1" value="0" leadInLength="0/1"  />
             </VectorParam>
             <VectorParam id="3701"  name="rotation">
              <InterpolatingParam id="3702" interp="linr"  time="-9999999/1" value="0" leadInLength="0/1"  />
              <InterpolatingParam id="3703" interp="linr"  time="-9999999/1" value="0" leadInLength="0/1"  />
              <InterpolatingParam id="3704" interp="linr"  time="-9999999/1" value="0" leadInLength="0/1"  />
             </VectorParam>
             <VectorParam id="3705"  name="shear">
              <InterpolatingParam id="3706" interp="linr"  time="-9999999/1" value="0" leadInLength="0/1"  />
              <InterpolatingParam id="3707" interp="linr"  time="-9999999/1" value="0" leadInLength="0/1"  />
              <InterpolatingParam id="3708" interp="linr"  time="-9999999/1" value="0" leadInLength="0/1"  />
             </VectorParam>
             <VectorParam id="3709"  name="scale">
              <InterpolatingParam id="3710" interp="linr"  time="-9999999/1" value="1" leadInLength="0/1"  />
              <InterpolatingParam id="3711" interp="linr"  time="-9999999/1" value="1" leadInLength="0/1"  />
              <InterpolatingParam id="3712" interp="linr"  time="-9999999/1" value="1" leadInLength="0/1"  />
             </VectorParam>
             <VectorParam id="3713"  name="anchor">
              <InterpolatingParam id="3714" interp="linr"  time="0/1" value="0" leadInLength="0/1"  />
              <InterpolatingParam id="3715" interp="linr"  time="0/1" value="0" leadInLength="0/1"  />
              <InterpolatingParam id="3716" interp="linr"  time="0/1" value="0" leadInLength="0/1"  />
             </VectorParam>
            </Transformer>
            <Parameters>
             <VectorParam id="3717"  name="sourceCrop">
              <InterpolatingParam id="3718" interp="linr"  time="0/1" value="0" leadInLength="0/1"  />
              <InterpolatingParam id="3719" interp="linr"  time="0/1" value="0" leadInLength="0/1"  />
              <InterpolatingParam id="3720" interp="linr"  time="0/1" value="0" leadInLength="0/1"  />
              <InterpolatingParam id="3721" interp="linr"  time="0/1" value="0" leadInLength="0/1"  />
             </VectorParam>
             <VectorParam id="3722"  name="geometryCrop">
              <InterpolatingParam id="3723" interp="linr"  time="-9999999/1" value="0" leadInLength="0/1"  />
              <InterpolatingParam id="3724" interp="linr"  time="-9999999/1" value="0" leadInLength="0/1"  />
              <InterpolatingParam id="3725" interp="linr"  time="-9999999/1" value="0" leadInLength="0/1"  />
              <InterpolatingParam id="3726" interp="linr"  time="-9999999/1" value="0" leadInLength="0/1"  />
             </VectorParam>
             <InterpolatingParam id="3727" interp="linr"  time="-9999999/1" value="1" leadInLength="0/1"  name="opacity"/>
            </Parameters>
            <Attributes>
             <Attribute id="3728" value="" name="ident"/>
            </Attributes>
            <MetaData>
             <entry key="WinSubProjectDisplayName" val=""/>
            </MetaData>
            <ExtraData>
             <Entry key="ZoomPanBin">
              <ZoomPanBin id="3729"  >
               <ZoomPanKeyframes>
               </ZoomPanKeyframes>
              </ZoomPanBin>
             </Entry>
            </ExtraData>
           </IMFile>
           <VMFile id="3730" start="8446" duration="18" scalar="1/1" mediaStart="29056/1" mediaDuration="18/1" trackNumber="0" src="4" >
            <Transformer>
             <VectorParam id="3731"  name="translation">
              <InterpolatingParam id="3732" interp="linr"  time="-9999999/1" value="0" leadInLength="0/1"  />
              <InterpolatingParam id="3733" interp="linr"  time="-9999999/1" value="0" leadInLength="0/1"  />
              <InterpolatingParam id="3734" interp="linr"  time="-9999999/1" value="0" leadInLength="0/1"  />
             </VectorParam>
             <VectorParam id="3735"  name="rotation">
              <InterpolatingParam id="3736" interp="linr"  time="-9999999/1" value="0" leadInLength="0/1"  />
              <InterpolatingParam id="3737" interp="linr"  time="-9999999/1" value="0" leadInLength="0/1"  />
              <InterpolatingParam id="3738" interp="linr"  time="-9999999/1" value="0" leadInLength="0/1"  />
             </VectorParam>
             <VectorParam id="3739"  name="shear">
              <InterpolatingParam id="3740" interp="linr"  time="-9999999/1" value="0" leadInLength="0/1"  />
              <InterpolatingParam id="3741" interp="linr"  time="-9999999/1" value="0" leadInLength="0/1"  />
              <InterpolatingParam id="3742" interp="linr"  time="-9999999/1" value="0" leadInLength="0/1"  />
             </VectorParam>
             <VectorParam id="3743"  name="scale">
              <InterpolatingParam id="3744" interp="linr"  time="-9999999/1" value="1" leadInLength="0/1"  />
              <InterpolatingParam id="3745" interp="linr"  time="-9999999/1" value="1" leadInLength="0/1"  />
              <InterpolatingParam id="3746" interp="linr"  time="-9999999/1" value="1" leadInLength="0/1"  />
             </VectorParam>
             <VectorParam id="3747"  name="anchor">
              <InterpolatingParam id="3748" interp="linr"  time="0/1" value="0" leadInLength="0/1"  />
              <InterpolatingParam id="3749" interp="linr"  time="0/1" value="0" leadInLength="0/1"  />
              <InterpolatingParam id="3750" interp="linr"  time="0/1" value="0" leadInLength="0/1"  />
             </VectorParam>
            </Transformer>
            <Parameters>
             <VectorParam id="3751"  name="sourceCrop">
              <InterpolatingParam id="3752" interp="linr"  time="0/1" value="0" leadInLength="0/1"  />
              <InterpolatingParam id="3753" interp="linr"  time="0/1" value="0" leadInLength="0/1"  />
              <InterpolatingParam id="3754" interp="linr"  time="0/1" value="0" leadInLength="0/1"  />
              <InterpolatingParam id="3755" interp="linr"  time="0/1" value="0" leadInLength="0/1"  />
             </VectorParam>
             <VectorParam id="3756"  name="geometryCrop">
              <InterpolatingParam id="3757" interp="linr"  time="-9999999/1" value="0" leadInLength="0/1"  />
              <InterpolatingParam id="3758" interp="linr"  time="-9999999/1" value="0" leadInLength="0/1"  />
              <InterpolatingParam id="3759" interp="linr"  time="-9999999/1" value="0" leadInLength="0/1"  />
              <InterpolatingParam id="3760" interp="linr"  time="-9999999/1" value="0" leadInLength="0/1"  />
             </VectorParam>
             <InterpolatingParam id="3761" interp="linr"  time="-9999999/1" value="1" leadInLength="0/1"  name="opacity"/>
            </Parameters>
            <Attributes>
             <Attribute id="3762" value="" name="ident"/>
            </Attributes>
            <MetaData>
             <entry key="WinSubProjectDisplayName" val=""/>
            </MetaData>
            <ExtraData>
             <Entry key="ZoomPanBin">
              <ZoomPanBin id="3763"  >
               <ZoomPanKeyframes>
               </ZoomPanKeyframes>
              </ZoomPanBin>
             </Entry>
            </ExtraData>
           </VMFile>
           <IMFile id="3764" start="8464" duration="30" scalar="1/1" mediaStart="29074/1" mediaDuration="1/1" trackNumber="0" src="4" trimStartSum="0/1" >
            <Transformer>
             <VectorParam id="3765"  name="translation">
              <InterpolatingParam id="3766" interp="linr"  time="-9999999/1" value="0" leadInLength="0/1"  />
              <InterpolatingParam id="3767" interp="linr"  time="-9999999/1" value="0" leadInLength="0/1"  />
              <InterpolatingParam id="3768" interp="linr"  time="-9999999/1" value="0" leadInLength="0/1"  />
             </VectorParam>
             <VectorParam id="3769"  name="rotation">
              <InterpolatingParam id="3770" interp="linr"  time="-9999999/1" value="0" leadInLength="0/1"  />
              <InterpolatingParam id="3771" interp="linr"  time="-9999999/1" value="0" leadInLength="0/1"  />
              <InterpolatingParam id="3772" interp="linr"  time="-9999999/1" value="0" leadInLength="0/1"  />
             </VectorParam>
             <VectorParam id="3773"  name="shear">
              <InterpolatingParam id="3774" interp="linr"  time="-9999999/1" value="0" leadInLength="0/1"  />
              <InterpolatingParam id="3775" interp="linr"  time="-9999999/1" value="0" leadInLength="0/1"  />
              <InterpolatingParam id="3776" interp="linr"  time="-9999999/1" value="0" leadInLength="0/1"  />
             </VectorParam>
             <VectorParam id="3777"  name="scale">
              <InterpolatingParam id="3778" interp="linr"  time="-9999999/1" value="1" leadInLength="0/1"  />
              <InterpolatingParam id="3779" interp="linr"  time="-9999999/1" value="1" leadInLength="0/1"  />
              <InterpolatingParam id="3780" interp="linr"  time="-9999999/1" value="1" leadInLength="0/1"  />
             </VectorParam>
             <VectorParam id="3781"  name="anchor">
              <InterpolatingParam id="3782" interp="linr"  time="0/1" value="0" leadInLength="0/1"  />
              <InterpolatingParam id="3783" interp="linr"  time="0/1" value="0" leadInLength="0/1"  />
              <InterpolatingParam id="3784" interp="linr"  time="0/1" value="0" leadInLength="0/1"  />
             </VectorParam>
            </Transformer>
            <Parameters>
             <VectorParam id="3785"  name="sourceCrop">
              <InterpolatingParam id="3786" interp="linr"  time="0/1" value="0" leadInLength="0/1"  />
              <InterpolatingParam id="3787" interp="linr"  time="0/1" value="0" leadInLength="0/1"  />
              <InterpolatingParam id="3788" interp="linr"  time="0/1" value="0" leadInLength="0/1"  />
              <InterpolatingParam id="3789" interp="linr"  time="0/1" value="0" leadInLength="0/1"  />
             </VectorParam>
             <VectorParam id="3790"  name="geometryCrop">
              <InterpolatingParam id="3791" interp="linr"  time="-9999999/1" value="0" leadInLength="0/1"  />
              <InterpolatingParam id="3792" interp="linr"  time="-9999999/1" value="0" leadInLength="0/1"  />
              <InterpolatingParam id="3793" interp="linr"  time="-9999999/1" value="0" leadInLength="0/1"  />
              <InterpolatingParam id="3794" interp="linr"  time="-9999999/1" value="0" leadInLength="0/1"  />
             </VectorParam>
             <InterpolatingParam id="3795" interp="linr"  time="-9999999/1" value="1" leadInLength="0/1"  name="opacity"/>
            </Parameters>
            <Attributes>
             <Attribute id="3796" value="" name="ident"/>
            </Attributes>
            <MetaData>
             <entry key="WinSubProjectDisplayName" val=""/>
            </MetaData>
            <ExtraData>
             <Entry key="ZoomPanBin">
              <ZoomPanBin id="3797"  >
               <ZoomPanKeyframes>
               </ZoomPanKeyframes>
              </ZoomPanBin>
             </Entry>
            </ExtraData>
           </IMFile>
           <VMFile id="3798" start="8494" duration="1" scalar="1/1" mediaStart="29074/1" mediaDuration="1/1" trackNumber="0" src="4" >
            <Transformer>
             <VectorParam id="3799"  name="translation">
              <InterpolatingParam id="3800" interp="linr"  time="-9999999/1" value="0" leadInLength="0/1"  />
              <InterpolatingParam id="3801" interp="linr"  time="-9999999/1" value="0" leadInLength="0/1"  />
              <InterpolatingParam id="3802" interp="linr"  time="-9999999/1" value="0" leadInLength="0/1"  />
             </VectorParam>
             <VectorParam id="3803"  name="rotation">
              <InterpolatingParam id="3804" interp="linr"  time="-9999999/1" value="0" leadInLength="0/1"  />
              <InterpolatingParam id="3805" interp="linr"  time="-9999999/1" value="0" leadInLength="0/1"  />
              <InterpolatingParam id="3806" interp="linr"  time="-9999999/1" value="0" leadInLength="0/1"  />
             </VectorParam>
             <VectorParam id="3807"  name="shear">
              <InterpolatingParam id="3808" interp="linr"  time="-9999999/1" value="0" leadInLength="0/1"  />
              <InterpolatingParam id="3809" interp="linr"  time="-9999999/1" value="0" leadInLength="0/1"  />
              <InterpolatingParam id="3810" interp="linr"  time="-9999999/1" value="0" leadInLength="0/1"  />
             </VectorParam>
             <VectorParam id="3811"  name="scale">
              <InterpolatingParam id="3812" interp="linr"  time="-9999999/1" value="1" leadInLength="0/1"  />
              <InterpolatingParam id="3813" interp="linr"  time="-9999999/1" value="1" leadInLength="0/1"  />
              <InterpolatingParam id="3814" interp="linr"  time="-9999999/1" value="1" leadInLength="0/1"  />
             </VectorParam>
             <VectorParam id="3815"  name="anchor">
              <InterpolatingParam id="3816" interp="linr"  time="0/1" value="0" leadInLength="0/1"  />
              <InterpolatingParam id="3817" interp="linr"  time="0/1" value="0" leadInLength="0/1"  />
              <InterpolatingParam id="3818" interp="linr"  time="0/1" value="0" leadInLength="0/1"  />
             </VectorParam>
            </Transformer>
            <Parameters>
             <VectorParam id="3819"  name="sourceCrop">
              <InterpolatingParam id="3820" interp="linr"  time="0/1" value="0" leadInLength="0/1"  />
              <InterpolatingParam id="3821" interp="linr"  time="0/1" value="0" leadInLength="0/1"  />
              <InterpolatingParam id="3822" interp="linr"  time="0/1" value="0" leadInLength="0/1"  />
              <InterpolatingParam id="3823" interp="linr"  time="0/1" value="0" leadInLength="0/1"  />
             </VectorParam>
             <VectorParam id="3824"  name="geometryCrop">
              <InterpolatingParam id="3825" interp="linr"  time="-9999999/1" value="0" leadInLength="0/1"  />
              <InterpolatingParam id="3826" interp="linr"  time="-9999999/1" value="0" leadInLength="0/1"  />
              <InterpolatingParam id="3827" interp="linr"  time="-9999999/1" value="0" leadInLength="0/1"  />
              <InterpolatingParam id="3828" interp="linr"  time="-9999999/1" value="0" leadInLength="0/1"  />
             </VectorParam>
             <InterpolatingParam id="3829" interp="linr"  time="-9999999/1" value="1" leadInLength="0/1"  name="opacity"/>
            </Parameters>
            <Attributes>
             <Attribute id="3830" value="" name="ident"/>
            </Attributes>
            <MetaData>
             <entry key="WinSubProjectDisplayName" val=""/>
            </MetaData>
            <ExtraData>
             <Entry key="ZoomPanBin">
              <ZoomPanBin id="3831"  >
               <ZoomPanKeyframes>
               </ZoomPanKeyframes>
              </ZoomPanBin>
             </Entry>
            </ExtraData>
           </VMFile>
           <VMFile id="3832" start="8495" duration="42" scalar="1/1" mediaStart="29274/1" mediaDuration="42/1" trackNumber="0" src="4" >
            <Transformer>
             <VectorParam id="3833"  name="translation">
              <InterpolatingParam id="3834" interp="linr"  time="-9999999/1" value="0" leadInLength="0/1"  />
              <InterpolatingParam id="3835" interp="linr"  time="-9999999/1" value="0" leadInLength="0/1"  />
              <InterpolatingParam id="3836" interp="linr"  time="-9999999/1" value="0" leadInLength="0/1"  />
             </VectorParam>
             <VectorParam id="3837"  name="rotation">
              <InterpolatingParam id="3838" interp="linr"  time="-9999999/1" value="0" leadInLength="0/1"  />
              <InterpolatingParam id="3839" interp="linr"  time="-9999999/1" value="0" leadInLength="0/1"  />
              <InterpolatingParam id="3840" interp="linr"  time="-9999999/1" value="0" leadInLength="0/1"  />
             </VectorParam>
             <VectorParam id="3841"  name="shear">
              <InterpolatingParam id="3842" interp="linr"  time="-9999999/1" value="0" leadInLength="0/1"  />
              <InterpolatingParam id="3843" interp="linr"  time="-9999999/1" value="0" leadInLength="0/1"  />
              <InterpolatingParam id="3844" interp="linr"  time="-9999999/1" value="0" leadInLength="0/1"  />
             </VectorParam>
             <VectorParam id="3845"  name="scale">
              <InterpolatingParam id="3846" interp="linr"  time="-9999999/1" value="1" leadInLength="0/1"  />
              <InterpolatingParam id="3847" interp="linr"  time="-9999999/1" value="1" leadInLength="0/1"  />
              <InterpolatingParam id="3848" interp="linr"  time="-9999999/1" value="1" leadInLength="0/1"  />
             </VectorParam>
             <VectorParam id="3849"  name="anchor">
              <InterpolatingParam id="3850" interp="linr"  time="0/1" value="0" leadInLength="0/1"  />
              <InterpolatingParam id="3851" interp="linr"  time="0/1" value="0" leadInLength="0/1"  />
              <InterpolatingParam id="3852" interp="linr"  time="0/1" value="0" leadInLength="0/1"  />
             </VectorParam>
            </Transformer>
            <Parameters>
             <VectorParam id="3853"  name="sourceCrop">
              <InterpolatingParam id="3854" interp="linr"  time="0/1" value="0" leadInLength="0/1"  />
              <InterpolatingParam id="3855" interp="linr"  time="0/1" value="0" leadInLength="0/1"  />
              <InterpolatingParam id="3856" interp="linr"  time="0/1" value="0" leadInLength="0/1"  />
              <InterpolatingParam id="3857" interp="linr"  time="0/1" value="0" leadInLength="0/1"  />
             </VectorParam>
             <VectorParam id="3858"  name="geometryCrop">
              <InterpolatingParam id="3859" interp="linr"  time="-9999999/1" value="0" leadInLength="0/1"  />
              <InterpolatingParam id="3860" interp="linr"  time="-9999999/1" value="0" leadInLength="0/1"  />
              <InterpolatingParam id="3861" interp="linr"  time="-9999999/1" value="0" leadInLength="0/1"  />
              <InterpolatingParam id="3862" interp="linr"  time="-9999999/1" value="0" leadInLength="0/1"  />
             </VectorParam>
             <InterpolatingParam id="3863" interp="linr"  time="-9999999/1" value="1" leadInLength="0/1"  name="opacity"/>
            </Parameters>
            <Attributes>
             <Attribute id="3864" value="" name="ident"/>
            </Attributes>
            <MetaData>
             <entry key="WinSubProjectDisplayName" val=""/>
            </MetaData>
            <ExtraData>
             <Entry key="ZoomPanBin">
              <ZoomPanBin id="3865"  >
               <ZoomPanKeyframes>
               </ZoomPanKeyframes>
              </ZoomPanBin>
             </Entry>
            </ExtraData>
           </VMFile>
           <VMFile id="3866" start="8537" duration="147" scalar="1/1" mediaStart="29358/1" mediaDuration="147/1" trackNumber="0" src="4" >
            <Transformer>
             <VectorParam id="3867"  name="translation">
              <InterpolatingParam id="3868" interp="linr"  time="-9999999/1" value="0" leadInLength="0/1"  />
              <InterpolatingParam id="3869" interp="linr"  time="-9999999/1" value="0" leadInLength="0/1"  />
              <InterpolatingParam id="3870" interp="linr"  time="-9999999/1" value="0" leadInLength="0/1"  />
             </VectorParam>
             <VectorParam id="3871"  name="rotation">
              <InterpolatingParam id="3872" interp="linr"  time="-9999999/1" value="0" leadInLength="0/1"  />
              <InterpolatingParam id="3873" interp="linr"  time="-9999999/1" value="0" leadInLength="0/1"  />
              <InterpolatingParam id="3874" interp="linr"  time="-9999999/1" value="0" leadInLength="0/1"  />
             </VectorParam>
             <VectorParam id="3875"  name="shear">
              <InterpolatingParam id="3876" interp="linr"  time="-9999999/1" value="0" leadInLength="0/1"  />
              <InterpolatingParam id="3877" interp="linr"  time="-9999999/1" value="0" leadInLength="0/1"  />
              <InterpolatingParam id="3878" interp="linr"  time="-9999999/1" value="0" leadInLength="0/1"  />
             </VectorParam>
             <VectorParam id="3879"  name="scale">
              <InterpolatingParam id="3880" interp="linr"  time="-9999999/1" value="1" leadInLength="0/1"  />
              <InterpolatingParam id="3881" interp="linr"  time="-9999999/1" value="1" leadInLength="0/1"  />
              <InterpolatingParam id="3882" interp="linr"  time="-9999999/1" value="1" leadInLength="0/1"  />
             </VectorParam>
             <VectorParam id="3883"  name="anchor">
              <InterpolatingParam id="3884" interp="linr"  time="0/1" value="0" leadInLength="0/1"  />
              <InterpolatingParam id="3885" interp="linr"  time="0/1" value="0" leadInLength="0/1"  />
              <InterpolatingParam id="3886" interp="linr"  time="0/1" value="0" leadInLength="0/1"  />
             </VectorParam>
            </Transformer>
            <Parameters>
             <VectorParam id="3887"  name="sourceCrop">
              <InterpolatingParam id="3888" interp="linr"  time="0/1" value="0" leadInLength="0/1"  />
              <InterpolatingParam id="3889" interp="linr"  time="0/1" value="0" leadInLength="0/1"  />
              <InterpolatingParam id="3890" interp="linr"  time="0/1" value="0" leadInLength="0/1"  />
              <InterpolatingParam id="3891" interp="linr"  time="0/1" value="0" leadInLength="0/1"  />
             </VectorParam>
             <VectorParam id="3892"  name="geometryCrop">
              <InterpolatingParam id="3893" interp="linr"  time="-9999999/1" value="0" leadInLength="0/1"  />
              <InterpolatingParam id="3894" interp="linr"  time="-9999999/1" value="0" leadInLength="0/1"  />
              <InterpolatingParam id="3895" interp="linr"  time="-9999999/1" value="0" leadInLength="0/1"  />
              <InterpolatingParam id="3896" interp="linr"  time="-9999999/1" value="0" leadInLength="0/1"  />
             </VectorParam>
             <InterpolatingParam id="3897" interp="linr"  time="-9999999/1" value="1" leadInLength="0/1"  name="opacity"/>
            </Parameters>
            <Attributes>
             <Attribute id="3898" value="" name="ident"/>
            </Attributes>
            <MetaData>
             <entry key="WinSubProjectDisplayName" val=""/>
            </MetaData>
            <ExtraData>
             <Entry key="ZoomPanBin">
              <ZoomPanBin id="3899"  >
               <ZoomPanKeyframes>
               </ZoomPanKeyframes>
              </ZoomPanBin>
             </Entry>
            </ExtraData>
           </VMFile>
           <VMFile id="3900" start="8684" duration="580" scalar="1/1" mediaStart="29557/1" mediaDuration="580/1" trackNumber="0" src="4" >
            <Transformer>
             <VectorParam id="3901"  name="translation">
              <InterpolatingParam id="3902" interp="linr"  time="-9999999/1" value="0" leadInLength="0/1"  />
              <InterpolatingParam id="3903" interp="linr"  time="-9999999/1" value="0" leadInLength="0/1"  />
              <InterpolatingParam id="3904" interp="linr"  time="-9999999/1" value="0" leadInLength="0/1"  />
             </VectorParam>
             <VectorParam id="3905"  name="rotation">
              <InterpolatingParam id="3906" interp="linr"  time="-9999999/1" value="0" leadInLength="0/1"  />
              <InterpolatingParam id="3907" interp="linr"  time="-9999999/1" value="0" leadInLength="0/1"  />
              <InterpolatingParam id="3908" interp="linr"  time="-9999999/1" value="0" leadInLength="0/1"  />
             </VectorParam>
             <VectorParam id="3909"  name="shear">
              <InterpolatingParam id="3910" interp="linr"  time="-9999999/1" value="0" leadInLength="0/1"  />
              <InterpolatingParam id="3911" interp="linr"  time="-9999999/1" value="0" leadInLength="0/1"  />
              <InterpolatingParam id="3912" interp="linr"  time="-9999999/1" value="0" leadInLength="0/1"  />
             </VectorParam>
             <VectorParam id="3913"  name="scale">
              <InterpolatingParam id="3914" interp="linr"  time="-9999999/1" value="1" leadInLength="0/1"  />
              <InterpolatingParam id="3915" interp="linr"  time="-9999999/1" value="1" leadInLength="0/1"  />
              <InterpolatingParam id="3916" interp="linr"  time="-9999999/1" value="1" leadInLength="0/1"  />
             </VectorParam>
             <VectorParam id="3917"  name="anchor">
              <InterpolatingParam id="3918" interp="linr"  time="0/1" value="0" leadInLength="0/1"  />
              <InterpolatingParam id="3919" interp="linr"  time="0/1" value="0" leadInLength="0/1"  />
              <InterpolatingParam id="3920" interp="linr"  time="0/1" value="0" leadInLength="0/1"  />
             </VectorParam>
            </Transformer>
            <Parameters>
             <VectorParam id="3921"  name="sourceCrop">
              <InterpolatingParam id="3922" interp="linr"  time="0/1" value="0" leadInLength="0/1"  />
              <InterpolatingParam id="3923" interp="linr"  time="0/1" value="0" leadInLength="0/1"  />
              <InterpolatingParam id="3924" interp="linr"  time="0/1" value="0" leadInLength="0/1"  />
              <InterpolatingParam id="3925" interp="linr"  time="0/1" value="0" leadInLength="0/1"  />
             </VectorParam>
             <VectorParam id="3926"  name="geometryCrop">
              <InterpolatingParam id="3927" interp="linr"  time="-9999999/1" value="0" leadInLength="0/1"  />
              <InterpolatingParam id="3928" interp="linr"  time="-9999999/1" value="0" leadInLength="0/1"  />
              <InterpolatingParam id="3929" interp="linr"  time="-9999999/1" value="0" leadInLength="0/1"  />
              <InterpolatingParam id="3930" interp="linr"  time="-9999999/1" value="0" leadInLength="0/1"  />
             </VectorParam>
             <InterpolatingParam id="3931" interp="linr"  time="-9999999/1" value="1" leadInLength="0/1"  name="opacity"/>
            </Parameters>
            <Attributes>
             <Attribute id="3932" value="" name="ident"/>
            </Attributes>
            <MetaData>
             <entry key="WinSubProjectDisplayName" val=""/>
            </MetaData>
            <ExtraData>
             <Entry key="ZoomPanBin">
              <ZoomPanBin id="3933"  >
               <ZoomPanKeyframes>
               </ZoomPanKeyframes>
              </ZoomPanBin>
             </Entry>
            </ExtraData>
           </VMFile>
           <VMFile id="3934" start="9264" duration="25" scalar="1/1" mediaStart="30200/1" mediaDuration="25/1" trackNumber="0" src="4" >
            <Transformer>
             <VectorParam id="3935"  name="translation">
              <InterpolatingParam id="3936" interp="linr"  time="-9999999/1" value="0" leadInLength="0/1"  />
              <InterpolatingParam id="3937" interp="linr"  time="-9999999/1" value="0" leadInLength="0/1"  />
              <InterpolatingParam id="3938" interp="linr"  time="-9999999/1" value="0" leadInLength="0/1"  />
             </VectorParam>
             <VectorParam id="3939"  name="rotation">
              <InterpolatingParam id="3940" interp="linr"  time="-9999999/1" value="0" leadInLength="0/1"  />
              <InterpolatingParam id="3941" interp="linr"  time="-9999999/1" value="0" leadInLength="0/1"  />
              <InterpolatingParam id="3942" interp="linr"  time="-9999999/1" value="0" leadInLength="0/1"  />
             </VectorParam>
             <VectorParam id="3943"  name="shear">
              <InterpolatingParam id="3944" interp="linr"  time="-9999999/1" value="0" leadInLength="0/1"  />
              <InterpolatingParam id="3945" interp="linr"  time="-9999999/1" value="0" leadInLength="0/1"  />
              <InterpolatingParam id="3946" interp="linr"  time="-9999999/1" value="0" leadInLength="0/1"  />
             </VectorParam>
             <VectorParam id="3947"  name="scale">
              <InterpolatingParam id="3948" interp="linr"  time="-9999999/1" value="1" leadInLength="0/1"  />
              <InterpolatingParam id="3949" interp="linr"  time="-9999999/1" value="1" leadInLength="0/1"  />
              <InterpolatingParam id="3950" interp="linr"  time="-9999999/1" value="1" leadInLength="0/1"  />
             </VectorParam>
             <VectorParam id="3951"  name="anchor">
              <InterpolatingParam id="3952" interp="linr"  time="0/1" value="0" leadInLength="0/1"  />
              <InterpolatingParam id="3953" interp="linr"  time="0/1" value="0" leadInLength="0/1"  />
              <InterpolatingParam id="3954" interp="linr"  time="0/1" value="0" leadInLength="0/1"  />
             </VectorParam>
            </Transformer>
            <Parameters>
             <VectorParam id="3955"  name="sourceCrop">
              <InterpolatingParam id="3956" interp="linr"  time="0/1" value="0" leadInLength="0/1"  />
              <InterpolatingParam id="3957" interp="linr"  time="0/1" value="0" leadInLength="0/1"  />
              <InterpolatingParam id="3958" interp="linr"  time="0/1" value="0" leadInLength="0/1"  />
              <InterpolatingParam id="3959" interp="linr"  time="0/1" value="0" leadInLength="0/1"  />
             </VectorParam>
             <VectorParam id="3960"  name="geometryCrop">
              <InterpolatingParam id="3961" interp="linr"  time="-9999999/1" value="0" leadInLength="0/1"  />
              <InterpolatingParam id="3962" interp="linr"  time="-9999999/1" value="0" leadInLength="0/1"  />
              <InterpolatingParam id="3963" interp="linr"  time="-9999999/1" value="0" leadInLength="0/1"  />
              <InterpolatingParam id="3964" interp="linr"  time="-9999999/1" value="0" leadInLength="0/1"  />
             </VectorParam>
             <InterpolatingParam id="3965" interp="linr"  time="-9999999/1" value="1" leadInLength="0/1"  name="opacity"/>
            </Parameters>
            <Attributes>
             <Attribute id="3966" value="" name="ident"/>
            </Attributes>
            <MetaData>
             <entry key="WinSubProjectDisplayName" val=""/>
            </MetaData>
            <ExtraData>
             <Entry key="ZoomPanBin">
              <ZoomPanBin id="3967"  >
               <ZoomPanKeyframes>
               </ZoomPanKeyframes>
              </ZoomPanBin>
             </Entry>
            </ExtraData>
           </VMFile>
           <VMFile id="3968" start="9289" duration="119" scalar="1/1" mediaStart="30368/1" mediaDuration="119/1" trackNumber="0" src="4" >
            <Transformer>
             <VectorParam id="3969"  name="translation">
              <InterpolatingParam id="3970" interp="linr"  time="-9999999/1" value="0" leadInLength="0/1"  />
              <InterpolatingParam id="3971" interp="linr"  time="-9999999/1" value="0" leadInLength="0/1"  />
              <InterpolatingParam id="3972" interp="linr"  time="-9999999/1" value="0" leadInLength="0/1"  />
             </VectorParam>
             <VectorParam id="3973"  name="rotation">
              <InterpolatingParam id="3974" interp="linr"  time="-9999999/1" value="0" leadInLength="0/1"  />
              <InterpolatingParam id="3975" interp="linr"  time="-9999999/1" value="0" leadInLength="0/1"  />
              <InterpolatingParam id="3976" interp="linr"  time="-9999999/1" value="0" leadInLength="0/1"  />
             </VectorParam>
             <VectorParam id="3977"  name="shear">
              <InterpolatingParam id="3978" interp="linr"  time="-9999999/1" value="0" leadInLength="0/1"  />
              <InterpolatingParam id="3979" interp="linr"  time="-9999999/1" value="0" leadInLength="0/1"  />
              <InterpolatingParam id="3980" interp="linr"  time="-9999999/1" value="0" leadInLength="0/1"  />
             </VectorParam>
             <VectorParam id="3981"  name="scale">
              <InterpolatingParam id="3982" interp="linr"  time="-9999999/1" value="1" leadInLength="0/1"  />
              <InterpolatingParam id="3983" interp="linr"  time="-9999999/1" value="1" leadInLength="0/1"  />
              <InterpolatingParam id="3984" interp="linr"  time="-9999999/1" value="1" leadInLength="0/1"  />
             </VectorParam>
             <VectorParam id="3985"  name="anchor">
              <InterpolatingParam id="3986" interp="linr"  time="0/1" value="0" leadInLength="0/1"  />
              <InterpolatingParam id="3987" interp="linr"  time="0/1" value="0" leadInLength="0/1"  />
              <InterpolatingParam id="3988" interp="linr"  time="0/1" value="0" leadInLength="0/1"  />
             </VectorParam>
            </Transformer>
            <Parameters>
             <VectorParam id="3989"  name="sourceCrop">
              <InterpolatingParam id="3990" interp="linr"  time="0/1" value="0" leadInLength="0/1"  />
              <InterpolatingParam id="3991" interp="linr"  time="0/1" value="0" leadInLength="0/1"  />
              <InterpolatingParam id="3992" interp="linr"  time="0/1" value="0" leadInLength="0/1"  />
              <InterpolatingParam id="3993" interp="linr"  time="0/1" value="0" leadInLength="0/1"  />
             </VectorParam>
             <VectorParam id="3994"  name="geometryCrop">
              <InterpolatingParam id="3995" interp="linr"  time="-9999999/1" value="0" leadInLength="0/1"  />
              <InterpolatingParam id="3996" interp="linr"  time="-9999999/1" value="0" leadInLength="0/1"  />
              <InterpolatingParam id="3997" interp="linr"  time="-9999999/1" value="0" leadInLength="0/1"  />
              <InterpolatingParam id="3998" interp="linr"  time="-9999999/1" value="0" leadInLength="0/1"  />
             </VectorParam>
             <InterpolatingParam id="3999" interp="linr"  time="-9999999/1" value="1" leadInLength="0/1"  name="opacity"/>
            </Parameters>
            <Attributes>
             <Attribute id="4000" value="" name="ident"/>
            </Attributes>
            <MetaData>
             <entry key="WinSubProjectDisplayName" val=""/>
            </MetaData>
            <ExtraData>
             <Entry key="ZoomPanBin">
              <ZoomPanBin id="4001"  >
               <ZoomPanKeyframes>
               </ZoomPanKeyframes>
              </ZoomPanBin>
             </Entry>
            </ExtraData>
           </VMFile>
           <VMFile id="4002" start="9408" duration="411" scalar="1/1" mediaStart="30756/1" mediaDuration="411/1" trackNumber="0" src="4" >
            <Transformer>
             <VectorParam id="4003"  name="translation">
              <InterpolatingParam id="4004" interp="linr"  time="-9999999/1" value="0" leadInLength="0/1"  />
              <InterpolatingParam id="4005" interp="linr"  time="-9999999/1" value="0" leadInLength="0/1"  />
              <InterpolatingParam id="4006" interp="linr"  time="-9999999/1" value="0" leadInLength="0/1"  />
             </VectorParam>
             <VectorParam id="4007"  name="rotation">
              <InterpolatingParam id="4008" interp="linr"  time="-9999999/1" value="0" leadInLength="0/1"  />
              <InterpolatingParam id="4009" interp="linr"  time="-9999999/1" value="0" leadInLength="0/1"  />
              <InterpolatingParam id="4010" interp="linr"  time="-9999999/1" value="0" leadInLength="0/1"  />
             </VectorParam>
             <VectorParam id="4011"  name="shear">
              <InterpolatingParam id="4012" interp="linr"  time="-9999999/1" value="0" leadInLength="0/1"  />
              <InterpolatingParam id="4013" interp="linr"  time="-9999999/1" value="0" leadInLength="0/1"  />
              <InterpolatingParam id="4014" interp="linr"  time="-9999999/1" value="0" leadInLength="0/1"  />
             </VectorParam>
             <VectorParam id="4015"  name="scale">
              <InterpolatingParam id="4016" interp="linr"  time="-9999999/1" value="1" leadInLength="0/1"  />
              <InterpolatingParam id="4017" interp="linr"  time="-9999999/1" value="1" leadInLength="0/1"  />
              <InterpolatingParam id="4018" interp="linr"  time="-9999999/1" value="1" leadInLength="0/1"  />
             </VectorParam>
             <VectorParam id="4019"  name="anchor">
              <InterpolatingParam id="4020" interp="linr"  time="0/1" value="0" leadInLength="0/1"  />
              <InterpolatingParam id="4021" interp="linr"  time="0/1" value="0" leadInLength="0/1"  />
              <InterpolatingParam id="4022" interp="linr"  time="0/1" value="0" leadInLength="0/1"  />
             </VectorParam>
            </Transformer>
            <Parameters>
             <VectorParam id="4023"  name="sourceCrop">
              <InterpolatingParam id="4024" interp="linr"  time="0/1" value="0" leadInLength="0/1"  />
              <InterpolatingParam id="4025" interp="linr"  time="0/1" value="0" leadInLength="0/1"  />
              <InterpolatingParam id="4026" interp="linr"  time="0/1" value="0" leadInLength="0/1"  />
              <InterpolatingParam id="4027" interp="linr"  time="0/1" value="0" leadInLength="0/1"  />
             </VectorParam>
             <VectorParam id="4028"  name="geometryCrop">
              <InterpolatingParam id="4029" interp="linr"  time="-9999999/1" value="0" leadInLength="0/1"  />
              <InterpolatingParam id="4030" interp="linr"  time="-9999999/1" value="0" leadInLength="0/1"  />
              <InterpolatingParam id="4031" interp="linr"  time="-9999999/1" value="0" leadInLength="0/1"  />
              <InterpolatingParam id="4032" interp="linr"  time="-9999999/1" value="0" leadInLength="0/1"  />
             </VectorParam>
             <InterpolatingParam id="4033" interp="linr"  time="-9999999/1" value="1" leadInLength="0/1"  name="opacity"/>
            </Parameters>
            <Attributes>
             <Attribute id="4034" value="" name="ident"/>
            </Attributes>
            <MetaData>
             <entry key="WinSubProjectDisplayName" val=""/>
            </MetaData>
            <ExtraData>
             <Entry key="ZoomPanBin">
              <ZoomPanBin id="4035"  >
               <ZoomPanKeyframes>
               </ZoomPanKeyframes>
              </ZoomPanBin>
             </Entry>
            </ExtraData>
           </VMFile>
          </Medias>
         </GenericTrack>
        </StitchedMedia>
        <StitchedMedia id="4036" start="1129" duration="146" scalar="5405/8108" mediaStart="11096579/5405" mediaDuration="1183768/5405" minMediaStart="0/1" >
         <Transformer>
          <VectorParam id="4037"  name="translation">
           <InterpolatingParam id="4038" interp="linr"  time="-9999999/1" value="0" leadInLength="0/1"  interpolater="leadin-linr"  />
           <InterpolatingParam id="4039" interp="linr"  time="-9999999/1" value="0" leadInLength="0/1"  interpolater="leadin-linr"  />
           <InterpolatingParam id="4040" interp="linr"  time="-9999999/1" value="0" leadInLength="0/1"  interpolater="leadin-linr"  />
          </VectorParam>
          <VectorParam id="4041"  name="rotation">
           <InterpolatingParam id="4042" interp="linr"  time="-9999999/1" value="0" leadInLength="0/1"  interpolater="leadin-linr"  />
           <InterpolatingParam id="4043" interp="linr"  time="-9999999/1" value="0" leadInLength="0/1"  interpolater="leadin-linr"  />
           <InterpolatingParam id="4044" interp="linr"  time="-9999999/1" value="0" leadInLength="0/1"  interpolater="leadin-linr"  />
          </VectorParam>
          <VectorParam id="4045"  name="shear">
           <InterpolatingParam id="4046" interp="linr"  time="-9999999/1" value="0" leadInLength="0/1"  interpolater="leadin-linr"  />
           <InterpolatingParam id="4047" interp="linr"  time="-9999999/1" value="0" leadInLength="0/1"  interpolater="leadin-linr"  />
           <InterpolatingParam id="4048" interp="linr"  time="-9999999/1" value="0" leadInLength="0/1"  interpolater="leadin-linr"  />
          </VectorParam>
          <VectorParam id="4049"  name="scale">
           <InterpolatingParam id="4050" interp="linr"  time="-9999999/1" value="1" leadInLength="0/1"  interpolater="leadin-linr"  />
           <InterpolatingParam id="4051" interp="linr"  time="-9999999/1" value="1" leadInLength="0/1"  interpolater="leadin-linr"  />
           <InterpolatingParam id="4052" interp="linr"  time="-9999999/1" value="1" leadInLength="0/1"  interpolater="leadin-linr"  />
          </VectorParam>
          <VectorParam id="4053"  name="anchor">
           <InterpolatingParam id="4054" interp="linr"  >
            <Keyframes>
            <Keyframe id="4055"  time="8386/1" value="0" leadInLength="0/1"  />
            <Keyframe id="4056"  time="8464/1" value="0" leadInLength="0/1"  />
            </Keyframes>
           </InterpolatingParam>
           <InterpolatingParam id="4057" interp="linr"  >
            <Keyframes>
            <Keyframe id="4058"  time="8386/1" value="0" leadInLength="0/1"  />
            <Keyframe id="4059"  time="8464/1" value="0" leadInLength="0/1"  />
            </Keyframes>
           </InterpolatingParam>
           <InterpolatingParam id="4060" interp="linr"  >
            <Keyframes>
            <Keyframe id="4061"  time="8386/1" value="0" leadInLength="0/1"  />
            <Keyframe id="4062"  time="8464/1" value="0" leadInLength="0/1"  />
            </Keyframes>
           </InterpolatingParam>
          </VectorParam>
         </Transformer>
         <Parameters>
          <VectorParam id="4063"  name="sourceCrop">
           <InterpolatingParam id="4064" interp="linr"  >
            <Keyframes>
            <Keyframe id="4065"  time="8386/1" value="0" leadInLength="0/1"  />
            <Keyframe id="4066"  time="8464/1" value="0" leadInLength="0/1"  />
            </Keyframes>
           </InterpolatingParam>
           <InterpolatingParam id="4067" interp="linr"  >
            <Keyframes>
            <Keyframe id="4068"  time="8386/1" value="0" leadInLength="0/1"  />
            <Keyframe id="4069"  time="8464/1" value="0" leadInLength="0/1"  />
            </Keyframes>
           </InterpolatingParam>
           <InterpolatingParam id="4070" interp="linr"  >
            <Keyframes>
            <Keyframe id="4071"  time="8386/1" value="0" leadInLength="0/1"  />
            <Keyframe id="4072"  time="8464/1" value="0" leadInLength="0/1"  />
            </Keyframes>
           </InterpolatingParam>
           <InterpolatingParam id="4073" interp="linr"  >
            <Keyframes>
            <Keyframe id="4074"  time="8386/1" value="0" leadInLength="0/1"  />
            <Keyframe id="4075"  time="8464/1" value="0" leadInLength="0/1"  />
            </Keyframes>
           </InterpolatingParam>
          </VectorParam>
          <VectorParam id="4076"  name="geometryCrop">
           <InterpolatingParam id="4077" interp="linr"  time="-9999999/1" value="0" leadInLength="0/1"  interpolater="leadin-linr"  />
           <InterpolatingParam id="4078" interp="linr"  time="-9999999/1" value="0" leadInLength="0/1"  interpolater="leadin-linr"  />
           <InterpolatingParam id="4079" interp="linr"  time="-9999999/1" value="0" leadInLength="0/1"  interpolater="leadin-linr"  />
           <InterpolatingParam id="4080" interp="linr"  time="-9999999/1" value="0" leadInLength="0/1"  interpolater="leadin-linr"  />
          </VectorParam>
          <InterpolatingParam id="4081" interp="linr"  time="-9999999/1" value="1" leadInLength="0/1"  interpolater="leadin-linr"  name="opacity"/>
          <InterpolatingParam id="4082" interp="linr"  time="0/1" value="1" leadInLength="0/1"  name="cursorOpacity"/>
          <InterpolatingParam id="4083" interp="linr"  time="0/1" value="1" leadInLength="0/1"  name="cursorScale"/>
          <Parameter id="4084"  name="captions"/>
         </Parameters>
         <Attributes>
          <Attribute id="4085" value="" name="ident"/>
         </Attributes>
         <MetaData>
          <entry key="WinSubProjectDisplayName" val=""/>
         </MetaData>
         <ExtraData>
          <Entry key="ZoomPanBin">
           <ZoomPanBin id="4086"  >
            <ZoomPanKeyframes>
             <ZoomPanKeyframe id="4087" timeRangeEnd="-9999999/1" timeRangeDuration="0/1" interpolaterName="linr"  />
            </ZoomPanKeyframes>
           </ZoomPanBin>
          </Entry>
          <Entry key="CursorEffectBin">
           <CursorEffectBin id="4088"  >
            <CursorEffectKeyframes>
            </CursorEffectKeyframes>
           </CursorEffectBin>
          </Entry>
         </ExtraData>
         <GenericTrack id="4089"  >
          <Attributes>
           <Attribute id="4090" value="" name="ident"/>
           <Attribute id="4091" value="0" name="audioMuted"/>
           <Attribute id="4092" value="0" name="videoHidden"/>
          </Attributes>
          <MetaData>
           <entry key="IsLocked" val="False"/>
           <entry key="WinTrackHeight" val="0"/>
          </MetaData>
          <Medias>
           <VMFile id="4093" start="0" duration="1880" scalar="1/1" mediaStart="0/1" mediaDuration="1880/1" trackNumber="0" src="4" >
            <Transformer>
             <VectorParam id="4094"  name="translation">
              <InterpolatingParam id="4095" interp="linr"  time="-9999999/1" value="0" leadInLength="0/1"  />
              <InterpolatingParam id="4096" interp="linr"  time="-9999999/1" value="0" leadInLength="0/1"  />
              <InterpolatingParam id="4097" interp="linr"  time="-9999999/1" value="0" leadInLength="0/1"  />
             </VectorParam>
             <VectorParam id="4098"  name="rotation">
              <InterpolatingParam id="4099" interp="linr"  time="-9999999/1" value="0" leadInLength="0/1"  />
              <InterpolatingParam id="4100" interp="linr"  time="-9999999/1" value="0" leadInLength="0/1"  />
              <InterpolatingParam id="4101" interp="linr"  time="-9999999/1" value="0" leadInLength="0/1"  />
             </VectorParam>
             <VectorParam id="4102"  name="shear">
              <InterpolatingParam id="4103" interp="linr"  time="-9999999/1" value="0" leadInLength="0/1"  />
              <InterpolatingParam id="4104" interp="linr"  time="-9999999/1" value="0" leadInLength="0/1"  />
              <InterpolatingParam id="4105" interp="linr"  time="-9999999/1" value="0" leadInLength="0/1"  />
             </VectorParam>
             <VectorParam id="4106"  name="scale">
              <InterpolatingParam id="4107" interp="linr"  time="-9999999/1" value="1" leadInLength="0/1"  />
              <InterpolatingParam id="4108" interp="linr"  time="-9999999/1" value="1" leadInLength="0/1"  />
              <InterpolatingParam id="4109" interp="linr"  time="-9999999/1" value="1" leadInLength="0/1"  />
             </VectorParam>
             <VectorParam id="4110"  name="anchor">
              <InterpolatingParam id="4111" interp="linr"  time="0/1" value="0" leadInLength="0/1"  />
              <InterpolatingParam id="4112" interp="linr"  time="0/1" value="0" leadInLength="0/1"  />
              <InterpolatingParam id="4113" interp="linr"  time="0/1" value="0" leadInLength="0/1"  />
             </VectorParam>
            </Transformer>
            <Parameters>
             <VectorParam id="4114"  name="sourceCrop">
              <InterpolatingParam id="4115" interp="linr"  time="0/1" value="0" leadInLength="0/1"  />
              <InterpolatingParam id="4116" interp="linr"  time="0/1" value="0" leadInLength="0/1"  />
              <InterpolatingParam id="4117" interp="linr"  time="0/1" value="0" leadInLength="0/1"  />
              <InterpolatingParam id="4118" interp="linr"  time="0/1" value="0" leadInLength="0/1"  />
             </VectorParam>
             <VectorParam id="4119"  name="geometryCrop">
              <InterpolatingParam id="4120" interp="linr"  time="-9999999/1" value="0" leadInLength="0/1"  />
              <InterpolatingParam id="4121" interp="linr"  time="-9999999/1" value="0" leadInLength="0/1"  />
              <InterpolatingParam id="4122" interp="linr"  time="-9999999/1" value="0" leadInLength="0/1"  />
              <InterpolatingParam id="4123" interp="linr"  time="-9999999/1" value="0" leadInLength="0/1"  />
             </VectorParam>
             <InterpolatingParam id="4124" interp="linr"  time="-9999999/1" value="1" leadInLength="0/1"  name="opacity"/>
            </Parameters>
            <Attributes>
             <Attribute id="4125" value="" name="ident"/>
            </Attributes>
            <MetaData>
             <entry key="WinSubProjectDisplayName" val=""/>
            </MetaData>
            <ExtraData>
             <Entry key="ZoomPanBin">
              <ZoomPanBin id="4126"  >
               <ZoomPanKeyframes>
               </ZoomPanKeyframes>
              </ZoomPanBin>
             </Entry>
            </ExtraData>
           </VMFile>
           <VMFile id="4127" start="1880" duration="144" scalar="1/1" mediaStart="2061/1" mediaDuration="144/1" trackNumber="0" src="4" >
            <Transformer>
             <VectorParam id="4128"  name="translation">
              <InterpolatingParam id="4129" interp="linr"  time="-9999999/1" value="0" leadInLength="0/1"  />
              <InterpolatingParam id="4130" interp="linr"  time="-9999999/1" value="0" leadInLength="0/1"  />
              <InterpolatingParam id="4131" interp="linr"  time="-9999999/1" value="0" leadInLength="0/1"  />
             </VectorParam>
             <VectorParam id="4132"  name="rotation">
              <InterpolatingParam id="4133" interp="linr"  time="-9999999/1" value="0" leadInLength="0/1"  />
              <InterpolatingParam id="4134" interp="linr"  time="-9999999/1" value="0" leadInLength="0/1"  />
              <InterpolatingParam id="4135" interp="linr"  time="-9999999/1" value="0" leadInLength="0/1"  />
             </VectorParam>
             <VectorParam id="4136"  name="shear">
              <InterpolatingParam id="4137" interp="linr"  time="-9999999/1" value="0" leadInLength="0/1"  />
              <InterpolatingParam id="4138" interp="linr"  time="-9999999/1" value="0" leadInLength="0/1"  />
              <InterpolatingParam id="4139" interp="linr"  time="-9999999/1" value="0" leadInLength="0/1"  />
             </VectorParam>
             <VectorParam id="4140"  name="scale">
              <InterpolatingParam id="4141" interp="linr"  time="-9999999/1" value="1" leadInLength="0/1"  />
              <InterpolatingParam id="4142" interp="linr"  time="-9999999/1" value="1" leadInLength="0/1"  />
              <InterpolatingParam id="4143" interp="linr"  time="-9999999/1" value="1" leadInLength="0/1"  />
             </VectorParam>
             <VectorParam id="4144"  name="anchor">
              <InterpolatingParam id="4145" interp="linr"  time="0/1" value="0" leadInLength="0/1"  />
              <InterpolatingParam id="4146" interp="linr"  time="0/1" value="0" leadInLength="0/1"  />
              <InterpolatingParam id="4147" interp="linr"  time="0/1" value="0" leadInLength="0/1"  />
             </VectorParam>
            </Transformer>
            <Parameters>
             <VectorParam id="4148"  name="sourceCrop">
              <InterpolatingParam id="4149" interp="linr"  time="0/1" value="0" leadInLength="0/1"  />
              <InterpolatingParam id="4150" interp="linr"  time="0/1" value="0" leadInLength="0/1"  />
              <InterpolatingParam id="4151" interp="linr"  time="0/1" value="0" leadInLength="0/1"  />
              <InterpolatingParam id="4152" interp="linr"  time="0/1" value="0" leadInLength="0/1"  />
             </VectorParam>
             <VectorParam id="4153"  name="geometryCrop">
              <InterpolatingParam id="4154" interp="linr"  time="-9999999/1" value="0" leadInLength="0/1"  />
              <InterpolatingParam id="4155" interp="linr"  time="-9999999/1" value="0" leadInLength="0/1"  />
              <InterpolatingParam id="4156" interp="linr"  time="-9999999/1" value="0" leadInLength="0/1"  />
              <InterpolatingParam id="4157" interp="linr"  time="-9999999/1" value="0" leadInLength="0/1"  />
             </VectorParam>
             <InterpolatingParam id="4158" interp="linr"  time="-9999999/1" value="1" leadInLength="0/1"  name="opacity"/>
            </Parameters>
            <Attributes>
             <Attribute id="4159" value="" name="ident"/>
            </Attributes>
            <MetaData>
             <entry key="WinSubProjectDisplayName" val=""/>
            </MetaData>
            <ExtraData>
             <Entry key="ZoomPanBin">
              <ZoomPanBin id="4160"  >
               <ZoomPanKeyframes>
               </ZoomPanKeyframes>
              </ZoomPanBin>
             </Entry>
            </ExtraData>
           </VMFile>
           <VMFile id="4161" start="2024" duration="474" scalar="1/1" mediaStart="2294/1" mediaDuration="474/1" trackNumber="0" src="4" >
            <Transformer>
             <VectorParam id="4162"  name="translation">
              <InterpolatingParam id="4163" interp="linr"  time="-9999999/1" value="0" leadInLength="0/1"  />
              <InterpolatingParam id="4164" interp="linr"  time="-9999999/1" value="0" leadInLength="0/1"  />
              <InterpolatingParam id="4165" interp="linr"  time="-9999999/1" value="0" leadInLength="0/1"  />
             </VectorParam>
             <VectorParam id="4166"  name="rotation">
              <InterpolatingParam id="4167" interp="linr"  time="-9999999/1" value="0" leadInLength="0/1"  />
              <InterpolatingParam id="4168" interp="linr"  time="-9999999/1" value="0" leadInLength="0/1"  />
              <InterpolatingParam id="4169" interp="linr"  time="-9999999/1" value="0" leadInLength="0/1"  />
             </VectorParam>
             <VectorParam id="4170"  name="shear">
              <InterpolatingParam id="4171" interp="linr"  time="-9999999/1" value="0" leadInLength="0/1"  />
              <InterpolatingParam id="4172" interp="linr"  time="-9999999/1" value="0" leadInLength="0/1"  />
              <InterpolatingParam id="4173" interp="linr"  time="-9999999/1" value="0" leadInLength="0/1"  />
             </VectorParam>
             <VectorParam id="4174"  name="scale">
              <InterpolatingParam id="4175" interp="linr"  time="-9999999/1" value="1" leadInLength="0/1"  />
              <InterpolatingParam id="4176" interp="linr"  time="-9999999/1" value="1" leadInLength="0/1"  />
              <InterpolatingParam id="4177" interp="linr"  time="-9999999/1" value="1" leadInLength="0/1"  />
             </VectorParam>
             <VectorParam id="4178"  name="anchor">
              <InterpolatingParam id="4179" interp="linr"  time="0/1" value="0" leadInLength="0/1"  />
              <InterpolatingParam id="4180" interp="linr"  time="0/1" value="0" leadInLength="0/1"  />
              <InterpolatingParam id="4181" interp="linr"  time="0/1" value="0" leadInLength="0/1"  />
             </VectorParam>
            </Transformer>
            <Parameters>
             <VectorParam id="4182"  name="sourceCrop">
              <InterpolatingParam id="4183" interp="linr"  time="0/1" value="0" leadInLength="0/1"  />
              <InterpolatingParam id="4184" interp="linr"  time="0/1" value="0" leadInLength="0/1"  />
              <InterpolatingParam id="4185" interp="linr"  time="0/1" value="0" leadInLength="0/1"  />
              <InterpolatingParam id="4186" interp="linr"  time="0/1" value="0" leadInLength="0/1"  />
             </VectorParam>
             <VectorParam id="4187"  name="geometryCrop">
              <InterpolatingParam id="4188" interp="linr"  time="-9999999/1" value="0" leadInLength="0/1"  />
              <InterpolatingParam id="4189" interp="linr"  time="-9999999/1" value="0" leadInLength="0/1"  />
              <InterpolatingParam id="4190" interp="linr"  time="-9999999/1" value="0" leadInLength="0/1"  />
              <InterpolatingParam id="4191" interp="linr"  time="-9999999/1" value="0" leadInLength="0/1"  />
             </VectorParam>
             <InterpolatingParam id="4192" interp="linr"  time="-9999999/1" value="1" leadInLength="0/1"  name="opacity"/>
            </Parameters>
            <Attributes>
             <Attribute id="4193" value="" name="ident"/>
            </Attributes>
            <MetaData>
             <entry key="WinSubProjectDisplayName" val=""/>
            </MetaData>
            <ExtraData>
             <Entry key="ZoomPanBin">
              <ZoomPanBin id="4194"  >
               <ZoomPanKeyframes>
               </ZoomPanKeyframes>
              </ZoomPanBin>
             </Entry>
            </ExtraData>
           </VMFile>
           <VMFile id="4195" start="2498" duration="386" scalar="1/1" mediaStart="2880/1" mediaDuration="386/1" trackNumber="0" src="4" >
            <Transformer>
             <VectorParam id="4196"  name="translation">
              <InterpolatingParam id="4197" interp="linr"  time="-9999999/1" value="0" leadInLength="0/1"  />
              <InterpolatingParam id="4198" interp="linr"  time="-9999999/1" value="0" leadInLength="0/1"  />
              <InterpolatingParam id="4199" interp="linr"  time="-9999999/1" value="0" leadInLength="0/1"  />
             </VectorParam>
             <VectorParam id="4200"  name="rotation">
              <InterpolatingParam id="4201" interp="linr"  time="-9999999/1" value="0" leadInLength="0/1"  />
              <InterpolatingParam id="4202" interp="linr"  time="-9999999/1" value="0" leadInLength="0/1"  />
              <InterpolatingParam id="4203" interp="linr"  time="-9999999/1" value="0" leadInLength="0/1"  />
             </VectorParam>
             <VectorParam id="4204"  name="shear">
              <InterpolatingParam id="4205" interp="linr"  time="-9999999/1" value="0" leadInLength="0/1"  />
              <InterpolatingParam id="4206" interp="linr"  time="-9999999/1" value="0" leadInLength="0/1"  />
              <InterpolatingParam id="4207" interp="linr"  time="-9999999/1" value="0" leadInLength="0/1"  />
             </VectorParam>
             <VectorParam id="4208"  name="scale">
              <InterpolatingParam id="4209" interp="linr"  time="-9999999/1" value="1" leadInLength="0/1"  />
              <InterpolatingParam id="4210" interp="linr"  time="-9999999/1" value="1" leadInLength="0/1"  />
              <InterpolatingParam id="4211" interp="linr"  time="-9999999/1" value="1" leadInLength="0/1"  />
             </VectorParam>
             <VectorParam id="4212"  name="anchor">
              <InterpolatingParam id="4213" interp="linr"  time="0/1" value="0" leadInLength="0/1"  />
              <InterpolatingParam id="4214" interp="linr"  time="0/1" value="0" leadInLength="0/1"  />
              <InterpolatingParam id="4215" interp="linr"  time="0/1" value="0" leadInLength="0/1"  />
             </VectorParam>
            </Transformer>
            <Parameters>
             <VectorParam id="4216"  name="sourceCrop">
              <InterpolatingParam id="4217" interp="linr"  time="0/1" value="0" leadInLength="0/1"  />
              <InterpolatingParam id="4218" interp="linr"  time="0/1" value="0" leadInLength="0/1"  />
              <InterpolatingParam id="4219" interp="linr"  time="0/1" value="0" leadInLength="0/1"  />
              <InterpolatingParam id="4220" interp="linr"  time="0/1" value="0" leadInLength="0/1"  />
             </VectorParam>
             <VectorParam id="4221"  name="geometryCrop">
              <InterpolatingParam id="4222" interp="linr"  time="-9999999/1" value="0" leadInLength="0/1"  />
              <InterpolatingParam id="4223" interp="linr"  time="-9999999/1" value="0" leadInLength="0/1"  />
              <InterpolatingParam id="4224" interp="linr"  time="-9999999/1" value="0" leadInLength="0/1"  />
              <InterpolatingParam id="4225" interp="linr"  time="-9999999/1" value="0" leadInLength="0/1"  />
             </VectorParam>
             <InterpolatingParam id="4226" interp="linr"  time="-9999999/1" value="1" leadInLength="0/1"  name="opacity"/>
            </Parameters>
            <Attributes>
             <Attribute id="4227" value="" name="ident"/>
            </Attributes>
            <MetaData>
             <entry key="WinSubProjectDisplayName" val=""/>
            </MetaData>
            <ExtraData>
             <Entry key="ZoomPanBin">
              <ZoomPanBin id="4228"  >
               <ZoomPanKeyframes>
               </ZoomPanKeyframes>
              </ZoomPanBin>
             </Entry>
            </ExtraData>
           </VMFile>
           <VMFile id="4229" start="2884" duration="314" scalar="1/1" mediaStart="4032/1" mediaDuration="314/1" trackNumber="0" src="4" >
            <Transformer>
             <VectorParam id="4230"  name="translation">
              <InterpolatingParam id="4231" interp="linr"  time="-9999999/1" value="0" leadInLength="0/1"  />
              <InterpolatingParam id="4232" interp="linr"  time="-9999999/1" value="0" leadInLength="0/1"  />
              <InterpolatingParam id="4233" interp="linr"  time="-9999999/1" value="0" leadInLength="0/1"  />
             </VectorParam>
             <VectorParam id="4234"  name="rotation">
              <InterpolatingParam id="4235" interp="linr"  time="-9999999/1" value="0" leadInLength="0/1"  />
              <InterpolatingParam id="4236" interp="linr"  time="-9999999/1" value="0" leadInLength="0/1"  />
              <InterpolatingParam id="4237" interp="linr"  time="-9999999/1" value="0" leadInLength="0/1"  />
             </VectorParam>
             <VectorParam id="4238"  name="shear">
              <InterpolatingParam id="4239" interp="linr"  time="-9999999/1" value="0" leadInLength="0/1"  />
              <InterpolatingParam id="4240" interp="linr"  time="-9999999/1" value="0" leadInLength="0/1"  />
              <InterpolatingParam id="4241" interp="linr"  time="-9999999/1" value="0" leadInLength="0/1"  />
             </VectorParam>
             <VectorParam id="4242"  name="scale">
              <InterpolatingParam id="4243" interp="linr"  time="-9999999/1" value="1" leadInLength="0/1"  />
              <InterpolatingParam id="4244" interp="linr"  time="-9999999/1" value="1" leadInLength="0/1"  />
              <InterpolatingParam id="4245" interp="linr"  time="-9999999/1" value="1" leadInLength="0/1"  />
             </VectorParam>
             <VectorParam id="4246"  name="anchor">
              <InterpolatingParam id="4247" interp="linr"  time="0/1" value="0" leadInLength="0/1"  />
              <InterpolatingParam id="4248" interp="linr"  time="0/1" value="0" leadInLength="0/1"  />
              <InterpolatingParam id="4249" interp="linr"  time="0/1" value="0" leadInLength="0/1"  />
             </VectorParam>
            </Transformer>
            <Parameters>
             <VectorParam id="4250"  name="sourceCrop">
              <InterpolatingParam id="4251" interp="linr"  time="0/1" value="0" leadInLength="0/1"  />
              <InterpolatingParam id="4252" interp="linr"  time="0/1" value="0" leadInLength="0/1"  />
              <InterpolatingParam id="4253" interp="linr"  time="0/1" value="0" leadInLength="0/1"  />
              <InterpolatingParam id="4254" interp="linr"  time="0/1" value="0" leadInLength="0/1"  />
             </VectorParam>
             <VectorParam id="4255"  name="geometryCrop">
              <InterpolatingParam id="4256" interp="linr"  time="-9999999/1" value="0" leadInLength="0/1"  />
              <InterpolatingParam id="4257" interp="linr"  time="-9999999/1" value="0" leadInLength="0/1"  />
              <InterpolatingParam id="4258" interp="linr"  time="-9999999/1" value="0" leadInLength="0/1"  />
              <InterpolatingParam id="4259" interp="linr"  time="-9999999/1" value="0" leadInLength="0/1"  />
             </VectorParam>
             <InterpolatingParam id="4260" interp="linr"  time="-9999999/1" value="1" leadInLength="0/1"  name="opacity"/>
            </Parameters>
            <Attributes>
             <Attribute id="4261" value="" name="ident"/>
            </Attributes>
            <MetaData>
             <entry key="WinSubProjectDisplayName" val=""/>
            </MetaData>
            <ExtraData>
             <Entry key="ZoomPanBin">
              <ZoomPanBin id="4262"  >
               <ZoomPanKeyframes>
               </ZoomPanKeyframes>
              </ZoomPanBin>
             </Entry>
            </ExtraData>
           </VMFile>
           <VMFile id="4263" start="3198" duration="112" scalar="1/1" mediaStart="4751/1" mediaDuration="112/1" trackNumber="0" src="4" >
            <Transformer>
             <VectorParam id="4264"  name="translation">
              <InterpolatingParam id="4265" interp="linr"  time="-9999999/1" value="0" leadInLength="0/1"  />
              <InterpolatingParam id="4266" interp="linr"  time="-9999999/1" value="0" leadInLength="0/1"  />
              <InterpolatingParam id="4267" interp="linr"  time="-9999999/1" value="0" leadInLength="0/1"  />
             </VectorParam>
             <VectorParam id="4268"  name="rotation">
              <InterpolatingParam id="4269" interp="linr"  time="-9999999/1" value="0" leadInLength="0/1"  />
              <InterpolatingParam id="4270" interp="linr"  time="-9999999/1" value="0" leadInLength="0/1"  />
              <InterpolatingParam id="4271" interp="linr"  time="-9999999/1" value="0" leadInLength="0/1"  />
             </VectorParam>
             <VectorParam id="4272"  name="shear">
              <InterpolatingParam id="4273" interp="linr"  time="-9999999/1" value="0" leadInLength="0/1"  />
              <InterpolatingParam id="4274" interp="linr"  time="-9999999/1" value="0" leadInLength="0/1"  />
              <InterpolatingParam id="4275" interp="linr"  time="-9999999/1" value="0" leadInLength="0/1"  />
             </VectorParam>
             <VectorParam id="4276"  name="scale">
              <InterpolatingParam id="4277" interp="linr"  time="-9999999/1" value="1" leadInLength="0/1"  />
              <InterpolatingParam id="4278" interp="linr"  time="-9999999/1" value="1" leadInLength="0/1"  />
              <InterpolatingParam id="4279" interp="linr"  time="-9999999/1" value="1" leadInLength="0/1"  />
             </VectorParam>
             <VectorParam id="4280"  name="anchor">
              <InterpolatingParam id="4281" interp="linr"  time="0/1" value="0" leadInLength="0/1"  />
              <InterpolatingParam id="4282" interp="linr"  time="0/1" value="0" leadInLength="0/1"  />
              <InterpolatingParam id="4283" interp="linr"  time="0/1" value="0" leadInLength="0/1"  />
             </VectorParam>
            </Transformer>
            <Parameters>
             <VectorParam id="4284"  name="sourceCrop">
              <InterpolatingParam id="4285" interp="linr"  time="0/1" value="0" leadInLength="0/1"  />
              <InterpolatingParam id="4286" interp="linr"  time="0/1" value="0" leadInLength="0/1"  />
              <InterpolatingParam id="4287" interp="linr"  time="0/1" value="0" leadInLength="0/1"  />
              <InterpolatingParam id="4288" interp="linr"  time="0/1" value="0" leadInLength="0/1"  />
             </VectorParam>
             <VectorParam id="4289"  name="geometryCrop">
              <InterpolatingParam id="4290" interp="linr"  time="-9999999/1" value="0" leadInLength="0/1"  />
              <InterpolatingParam id="4291" interp="linr"  time="-9999999/1" value="0" leadInLength="0/1"  />
              <InterpolatingParam id="4292" interp="linr"  time="-9999999/1" value="0" leadInLength="0/1"  />
              <InterpolatingParam id="4293" interp="linr"  time="-9999999/1" value="0" leadInLength="0/1"  />
             </VectorParam>
             <InterpolatingParam id="4294" interp="linr"  time="-9999999/1" value="1" leadInLength="0/1"  name="opacity"/>
            </Parameters>
            <Attributes>
             <Attribute id="4295" value="" name="ident"/>
            </Attributes>
            <MetaData>
             <entry key="WinSubProjectDisplayName" val=""/>
            </MetaData>
            <ExtraData>
             <Entry key="ZoomPanBin">
              <ZoomPanBin id="4296"  >
               <ZoomPanKeyframes>
               </ZoomPanKeyframes>
              </ZoomPanBin>
             </Entry>
            </ExtraData>
           </VMFile>
           <VMFile id="4297" start="3310" duration="386" scalar="1/1" mediaStart="7805/1" mediaDuration="386/1" trackNumber="0" src="4" >
            <Transformer>
             <VectorParam id="4298"  name="translation">
              <InterpolatingParam id="4299" interp="linr"  time="-9999999/1" value="0" leadInLength="0/1"  />
              <InterpolatingParam id="4300" interp="linr"  time="-9999999/1" value="0" leadInLength="0/1"  />
              <InterpolatingParam id="4301" interp="linr"  time="-9999999/1" value="0" leadInLength="0/1"  />
             </VectorParam>
             <VectorParam id="4302"  name="rotation">
              <InterpolatingParam id="4303" interp="linr"  time="-9999999/1" value="0" leadInLength="0/1"  />
              <InterpolatingParam id="4304" interp="linr"  time="-9999999/1" value="0" leadInLength="0/1"  />
              <InterpolatingParam id="4305" interp="linr"  time="-9999999/1" value="0" leadInLength="0/1"  />
             </VectorParam>
             <VectorParam id="4306"  name="shear">
              <InterpolatingParam id="4307" interp="linr"  time="-9999999/1" value="0" leadInLength="0/1"  />
              <InterpolatingParam id="4308" interp="linr"  time="-9999999/1" value="0" leadInLength="0/1"  />
              <InterpolatingParam id="4309" interp="linr"  time="-9999999/1" value="0" leadInLength="0/1"  />
             </VectorParam>
             <VectorParam id="4310"  name="scale">
              <InterpolatingParam id="4311" interp="linr"  time="-9999999/1" value="1" leadInLength="0/1"  />
              <InterpolatingParam id="4312" interp="linr"  time="-9999999/1" value="1" leadInLength="0/1"  />
              <InterpolatingParam id="4313" interp="linr"  time="-9999999/1" value="1" leadInLength="0/1"  />
             </VectorParam>
             <VectorParam id="4314"  name="anchor">
              <InterpolatingParam id="4315" interp="linr"  time="0/1" value="0" leadInLength="0/1"  />
              <InterpolatingParam id="4316" interp="linr"  time="0/1" value="0" leadInLength="0/1"  />
              <InterpolatingParam id="4317" interp="linr"  time="0/1" value="0" leadInLength="0/1"  />
             </VectorParam>
            </Transformer>
            <Parameters>
             <VectorParam id="4318"  name="sourceCrop">
              <InterpolatingParam id="4319" interp="linr"  time="0/1" value="0" leadInLength="0/1"  />
              <InterpolatingParam id="4320" interp="linr"  time="0/1" value="0" leadInLength="0/1"  />
              <InterpolatingParam id="4321" interp="linr"  time="0/1" value="0" leadInLength="0/1"  />
              <InterpolatingParam id="4322" interp="linr"  time="0/1" value="0" leadInLength="0/1"  />
             </VectorParam>
             <VectorParam id="4323"  name="geometryCrop">
              <InterpolatingParam id="4324" interp="linr"  time="-9999999/1" value="0" leadInLength="0/1"  />
              <InterpolatingParam id="4325" interp="linr"  time="-9999999/1" value="0" leadInLength="0/1"  />
              <InterpolatingParam id="4326" interp="linr"  time="-9999999/1" value="0" leadInLength="0/1"  />
              <InterpolatingParam id="4327" interp="linr"  time="-9999999/1" value="0" leadInLength="0/1"  />
             </VectorParam>
             <InterpolatingParam id="4328" interp="linr"  time="-9999999/1" value="1" leadInLength="0/1"  name="opacity"/>
            </Parameters>
            <Attributes>
             <Attribute id="4329" value="" name="ident"/>
            </Attributes>
            <MetaData>
             <entry key="WinSubProjectDisplayName" val=""/>
            </MetaData>
            <ExtraData>
             <Entry key="ZoomPanBin">
              <ZoomPanBin id="4330"  >
               <ZoomPanKeyframes>
               </ZoomPanKeyframes>
              </ZoomPanBin>
             </Entry>
            </ExtraData>
           </VMFile>
           <VMFile id="4331" start="3696" duration="1007" scalar="1/1" mediaStart="8371/1" mediaDuration="1007/1" trackNumber="0" src="4" >
            <Transformer>
             <VectorParam id="4332"  name="translation">
              <InterpolatingParam id="4333" interp="linr"  time="-9999999/1" value="0" leadInLength="0/1"  />
              <InterpolatingParam id="4334" interp="linr"  time="-9999999/1" value="0" leadInLength="0/1"  />
              <InterpolatingParam id="4335" interp="linr"  time="-9999999/1" value="0" leadInLength="0/1"  />
             </VectorParam>
             <VectorParam id="4336"  name="rotation">
              <InterpolatingParam id="4337" interp="linr"  time="-9999999/1" value="0" leadInLength="0/1"  />
              <InterpolatingParam id="4338" interp="linr"  time="-9999999/1" value="0" leadInLength="0/1"  />
              <InterpolatingParam id="4339" interp="linr"  time="-9999999/1" value="0" leadInLength="0/1"  />
             </VectorParam>
             <VectorParam id="4340"  name="shear">
              <InterpolatingParam id="4341" interp="linr"  time="-9999999/1" value="0" leadInLength="0/1"  />
              <InterpolatingParam id="4342" interp="linr"  time="-9999999/1" value="0" leadInLength="0/1"  />
              <InterpolatingParam id="4343" interp="linr"  time="-9999999/1" value="0" leadInLength="0/1"  />
             </VectorParam>
             <VectorParam id="4344"  name="scale">
              <InterpolatingParam id="4345" interp="linr"  time="-9999999/1" value="1" leadInLength="0/1"  />
              <InterpolatingParam id="4346" interp="linr"  time="-9999999/1" value="1" leadInLength="0/1"  />
              <InterpolatingParam id="4347" interp="linr"  time="-9999999/1" value="1" leadInLength="0/1"  />
             </VectorParam>
             <VectorParam id="4348"  name="anchor">
              <InterpolatingParam id="4349" interp="linr"  time="0/1" value="0" leadInLength="0/1"  />
              <InterpolatingParam id="4350" interp="linr"  time="0/1" value="0" leadInLength="0/1"  />
              <InterpolatingParam id="4351" interp="linr"  time="0/1" value="0" leadInLength="0/1"  />
             </VectorParam>
            </Transformer>
            <Parameters>
             <VectorParam id="4352"  name="sourceCrop">
              <InterpolatingParam id="4353" interp="linr"  time="0/1" value="0" leadInLength="0/1"  />
              <InterpolatingParam id="4354" interp="linr"  time="0/1" value="0" leadInLength="0/1"  />
              <InterpolatingParam id="4355" interp="linr"  time="0/1" value="0" leadInLength="0/1"  />
              <InterpolatingParam id="4356" interp="linr"  time="0/1" value="0" leadInLength="0/1"  />
             </VectorParam>
             <VectorParam id="4357"  name="geometryCrop">
              <InterpolatingParam id="4358" interp="linr"  time="-9999999/1" value="0" leadInLength="0/1"  />
              <InterpolatingParam id="4359" interp="linr"  time="-9999999/1" value="0" leadInLength="0/1"  />
              <InterpolatingParam id="4360" interp="linr"  time="-9999999/1" value="0" leadInLength="0/1"  />
              <InterpolatingParam id="4361" interp="linr"  time="-9999999/1" value="0" leadInLength="0/1"  />
             </VectorParam>
             <InterpolatingParam id="4362" interp="linr"  time="-9999999/1" value="1" leadInLength="0/1"  name="opacity"/>
            </Parameters>
            <Attributes>
             <Attribute id="4363" value="" name="ident"/>
            </Attributes>
            <MetaData>
             <entry key="WinSubProjectDisplayName" val=""/>
            </MetaData>
            <ExtraData>
             <Entry key="ZoomPanBin">
              <ZoomPanBin id="4364"  >
               <ZoomPanKeyframes>
               </ZoomPanKeyframes>
              </ZoomPanBin>
             </Entry>
            </ExtraData>
           </VMFile>
           <VMFile id="4365" start="4703" duration="555" scalar="1/1" mediaStart="9516/1" mediaDuration="555/1" trackNumber="0" src="4" >
            <Transformer>
             <VectorParam id="4366"  name="translation">
              <InterpolatingParam id="4367" interp="linr"  time="-9999999/1" value="0" leadInLength="0/1"  />
              <InterpolatingParam id="4368" interp="linr"  time="-9999999/1" value="0" leadInLength="0/1"  />
              <InterpolatingParam id="4369" interp="linr"  time="-9999999/1" value="0" leadInLength="0/1"  />
             </VectorParam>
             <VectorParam id="4370"  name="rotation">
              <InterpolatingParam id="4371" interp="linr"  time="-9999999/1" value="0" leadInLength="0/1"  />
              <InterpolatingParam id="4372" interp="linr"  time="-9999999/1" value="0" leadInLength="0/1"  />
              <InterpolatingParam id="4373" interp="linr"  time="-9999999/1" value="0" leadInLength="0/1"  />
             </VectorParam>
             <VectorParam id="4374"  name="shear">
              <InterpolatingParam id="4375" interp="linr"  time="-9999999/1" value="0" leadInLength="0/1"  />
              <InterpolatingParam id="4376" interp="linr"  time="-9999999/1" value="0" leadInLength="0/1"  />
              <InterpolatingParam id="4377" interp="linr"  time="-9999999/1" value="0" leadInLength="0/1"  />
             </VectorParam>
             <VectorParam id="4378"  name="scale">
              <InterpolatingParam id="4379" interp="linr"  time="-9999999/1" value="1" leadInLength="0/1"  />
              <InterpolatingParam id="4380" interp="linr"  time="-9999999/1" value="1" leadInLength="0/1"  />
              <InterpolatingParam id="4381" interp="linr"  time="-9999999/1" value="1" leadInLength="0/1"  />
             </VectorParam>
             <VectorParam id="4382"  name="anchor">
              <InterpolatingParam id="4383" interp="linr"  time="0/1" value="0" leadInLength="0/1"  />
              <InterpolatingParam id="4384" interp="linr"  time="0/1" value="0" leadInLength="0/1"  />
              <InterpolatingParam id="4385" interp="linr"  time="0/1" value="0" leadInLength="0/1"  />
             </VectorParam>
            </Transformer>
            <Parameters>
             <VectorParam id="4386"  name="sourceCrop">
              <InterpolatingParam id="4387" interp="linr"  time="0/1" value="0" leadInLength="0/1"  />
              <InterpolatingParam id="4388" interp="linr"  time="0/1" value="0" leadInLength="0/1"  />
              <InterpolatingParam id="4389" interp="linr"  time="0/1" value="0" leadInLength="0/1"  />
              <InterpolatingParam id="4390" interp="linr"  time="0/1" value="0" leadInLength="0/1"  />
             </VectorParam>
             <VectorParam id="4391"  name="geometryCrop">
              <InterpolatingParam id="4392" interp="linr"  time="-9999999/1" value="0" leadInLength="0/1"  />
              <InterpolatingParam id="4393" interp="linr"  time="-9999999/1" value="0" leadInLength="0/1"  />
              <InterpolatingParam id="4394" interp="linr"  time="-9999999/1" value="0" leadInLength="0/1"  />
              <InterpolatingParam id="4395" interp="linr"  time="-9999999/1" value="0" leadInLength="0/1"  />
             </VectorParam>
             <InterpolatingParam id="4396" interp="linr"  time="-9999999/1" value="1" leadInLength="0/1"  name="opacity"/>
            </Parameters>
            <Attributes>
             <Attribute id="4397" value="" name="ident"/>
            </Attributes>
            <MetaData>
             <entry key="WinSubProjectDisplayName" val=""/>
            </MetaData>
            <ExtraData>
             <Entry key="ZoomPanBin">
              <ZoomPanBin id="4398"  >
               <ZoomPanKeyframes>
               </ZoomPanKeyframes>
              </ZoomPanBin>
             </Entry>
            </ExtraData>
           </VMFile>
           <VMFile id="4399" start="5258" duration="460" scalar="1/1" mediaStart="11597/1" mediaDuration="460/1" trackNumber="0" src="4" >
            <Transformer>
             <VectorParam id="4400"  name="translation">
              <InterpolatingParam id="4401" interp="linr"  time="-9999999/1" value="0" leadInLength="0/1"  />
              <InterpolatingParam id="4402" interp="linr"  time="-9999999/1" value="0" leadInLength="0/1"  />
              <InterpolatingParam id="4403" interp="linr"  time="-9999999/1" value="0" leadInLength="0/1"  />
             </VectorParam>
             <VectorParam id="4404"  name="rotation">
              <InterpolatingParam id="4405" interp="linr"  time="-9999999/1" value="0" leadInLength="0/1"  />
              <InterpolatingParam id="4406" interp="linr"  time="-9999999/1" value="0" leadInLength="0/1"  />
              <InterpolatingParam id="4407" interp="linr"  time="-9999999/1" value="0" leadInLength="0/1"  />
             </VectorParam>
             <VectorParam id="4408"  name="shear">
              <InterpolatingParam id="4409" interp="linr"  time="-9999999/1" value="0" leadInLength="0/1"  />
              <InterpolatingParam id="4410" interp="linr"  time="-9999999/1" value="0" leadInLength="0/1"  />
              <InterpolatingParam id="4411" interp="linr"  time="-9999999/1" value="0" leadInLength="0/1"  />
             </VectorParam>
             <VectorParam id="4412"  name="scale">
              <InterpolatingParam id="4413" interp="linr"  time="-9999999/1" value="1" leadInLength="0/1"  />
              <InterpolatingParam id="4414" interp="linr"  time="-9999999/1" value="1" leadInLength="0/1"  />
              <InterpolatingParam id="4415" interp="linr"  time="-9999999/1" value="1" leadInLength="0/1"  />
             </VectorParam>
             <VectorParam id="4416"  name="anchor">
              <InterpolatingParam id="4417" interp="linr"  time="0/1" value="0" leadInLength="0/1"  />
              <InterpolatingParam id="4418" interp="linr"  time="0/1" value="0" leadInLength="0/1"  />
              <InterpolatingParam id="4419" interp="linr"  time="0/1" value="0" leadInLength="0/1"  />
             </VectorParam>
            </Transformer>
            <Parameters>
             <VectorParam id="4420"  name="sourceCrop">
              <InterpolatingParam id="4421" interp="linr"  time="0/1" value="0" leadInLength="0/1"  />
              <InterpolatingParam id="4422" interp="linr"  time="0/1" value="0" leadInLength="0/1"  />
              <InterpolatingParam id="4423" interp="linr"  time="0/1" value="0" leadInLength="0/1"  />
              <InterpolatingParam id="4424" interp="linr"  time="0/1" value="0" leadInLength="0/1"  />
             </VectorParam>
             <VectorParam id="4425"  name="geometryCrop">
              <InterpolatingParam id="4426" interp="linr"  time="-9999999/1" value="0" leadInLength="0/1"  />
              <InterpolatingParam id="4427" interp="linr"  time="-9999999/1" value="0" leadInLength="0/1"  />
              <InterpolatingParam id="4428" interp="linr"  time="-9999999/1" value="0" leadInLength="0/1"  />
              <InterpolatingParam id="4429" interp="linr"  time="-9999999/1" value="0" leadInLength="0/1"  />
             </VectorParam>
             <InterpolatingParam id="4430" interp="linr"  time="-9999999/1" value="1" leadInLength="0/1"  name="opacity"/>
            </Parameters>
            <Attributes>
             <Attribute id="4431" value="" name="ident"/>
            </Attributes>
            <MetaData>
             <entry key="WinSubProjectDisplayName" val=""/>
            </MetaData>
            <ExtraData>
             <Entry key="ZoomPanBin">
              <ZoomPanBin id="4432"  >
               <ZoomPanKeyframes>
               </ZoomPanKeyframes>
              </ZoomPanBin>
             </Entry>
            </ExtraData>
           </VMFile>
           <VMFile id="4433" start="5718" duration="350" scalar="1/1" mediaStart="12237/1" mediaDuration="350/1" trackNumber="0" src="4" >
            <Transformer>
             <VectorParam id="4434"  name="translation">
              <InterpolatingParam id="4435" interp="linr"  time="-9999999/1" value="0" leadInLength="0/1"  />
              <InterpolatingParam id="4436" interp="linr"  time="-9999999/1" value="0" leadInLength="0/1"  />
              <InterpolatingParam id="4437" interp="linr"  time="-9999999/1" value="0" leadInLength="0/1"  />
             </VectorParam>
             <VectorParam id="4438"  name="rotation">
              <InterpolatingParam id="4439" interp="linr"  time="-9999999/1" value="0" leadInLength="0/1"  />
              <InterpolatingParam id="4440" interp="linr"  time="-9999999/1" value="0" leadInLength="0/1"  />
              <InterpolatingParam id="4441" interp="linr"  time="-9999999/1" value="0" leadInLength="0/1"  />
             </VectorParam>
             <VectorParam id="4442"  name="shear">
              <InterpolatingParam id="4443" interp="linr"  time="-9999999/1" value="0" leadInLength="0/1"  />
              <InterpolatingParam id="4444" interp="linr"  time="-9999999/1" value="0" leadInLength="0/1"  />
              <InterpolatingParam id="4445" interp="linr"  time="-9999999/1" value="0" leadInLength="0/1"  />
             </VectorParam>
             <VectorParam id="4446"  name="scale">
              <InterpolatingParam id="4447" interp="linr"  time="-9999999/1" value="1" leadInLength="0/1"  />
              <InterpolatingParam id="4448" interp="linr"  time="-9999999/1" value="1" leadInLength="0/1"  />
              <InterpolatingParam id="4449" interp="linr"  time="-9999999/1" value="1" leadInLength="0/1"  />
             </VectorParam>
             <VectorParam id="4450"  name="anchor">
              <InterpolatingParam id="4451" interp="linr"  time="0/1" value="0" leadInLength="0/1"  />
              <InterpolatingParam id="4452" interp="linr"  time="0/1" value="0" leadInLength="0/1"  />
              <InterpolatingParam id="4453" interp="linr"  time="0/1" value="0" leadInLength="0/1"  />
             </VectorParam>
            </Transformer>
            <Parameters>
             <VectorParam id="4454"  name="sourceCrop">
              <InterpolatingParam id="4455" interp="linr"  time="0/1" value="0" leadInLength="0/1"  />
              <InterpolatingParam id="4456" interp="linr"  time="0/1" value="0" leadInLength="0/1"  />
              <InterpolatingParam id="4457" interp="linr"  time="0/1" value="0" leadInLength="0/1"  />
              <InterpolatingParam id="4458" interp="linr"  time="0/1" value="0" leadInLength="0/1"  />
             </VectorParam>
             <VectorParam id="4459"  name="geometryCrop">
              <InterpolatingParam id="4460" interp="linr"  time="-9999999/1" value="0" leadInLength="0/1"  />
              <InterpolatingParam id="4461" interp="linr"  time="-9999999/1" value="0" leadInLength="0/1"  />
              <InterpolatingParam id="4462" interp="linr"  time="-9999999/1" value="0" leadInLength="0/1"  />
              <InterpolatingParam id="4463" interp="linr"  time="-9999999/1" value="0" leadInLength="0/1"  />
             </VectorParam>
             <InterpolatingParam id="4464" interp="linr"  time="-9999999/1" value="1" leadInLength="0/1"  name="opacity"/>
            </Parameters>
            <Attributes>
             <Attribute id="4465" value="" name="ident"/>
            </Attributes>
            <MetaData>
             <entry key="WinSubProjectDisplayName" val=""/>
            </MetaData>
            <ExtraData>
             <Entry key="ZoomPanBin">
              <ZoomPanBin id="4466"  >
               <ZoomPanKeyframes>
               </ZoomPanKeyframes>
              </ZoomPanBin>
             </Entry>
            </ExtraData>
           </VMFile>
           <VMFile id="4467" start="6068" duration="128" scalar="1/1" mediaStart="15765/1" mediaDuration="128/1" trackNumber="0" src="4" >
            <Transformer>
             <VectorParam id="4468"  name="translation">
              <InterpolatingParam id="4469" interp="linr"  time="-9999999/1" value="0" leadInLength="0/1"  />
              <InterpolatingParam id="4470" interp="linr"  time="-9999999/1" value="0" leadInLength="0/1"  />
              <InterpolatingParam id="4471" interp="linr"  time="-9999999/1" value="0" leadInLength="0/1"  />
             </VectorParam>
             <VectorParam id="4472"  name="rotation">
              <InterpolatingParam id="4473" interp="linr"  time="-9999999/1" value="0" leadInLength="0/1"  />
              <InterpolatingParam id="4474" interp="linr"  time="-9999999/1" value="0" leadInLength="0/1"  />
              <InterpolatingParam id="4475" interp="linr"  time="-9999999/1" value="0" leadInLength="0/1"  />
             </VectorParam>
             <VectorParam id="4476"  name="shear">
              <InterpolatingParam id="4477" interp="linr"  time="-9999999/1" value="0" leadInLength="0/1"  />
              <InterpolatingParam id="4478" interp="linr"  time="-9999999/1" value="0" leadInLength="0/1"  />
              <InterpolatingParam id="4479" interp="linr"  time="-9999999/1" value="0" leadInLength="0/1"  />
             </VectorParam>
             <VectorParam id="4480"  name="scale">
              <InterpolatingParam id="4481" interp="linr"  time="-9999999/1" value="1" leadInLength="0/1"  />
              <InterpolatingParam id="4482" interp="linr"  time="-9999999/1" value="1" leadInLength="0/1"  />
              <InterpolatingParam id="4483" interp="linr"  time="-9999999/1" value="1" leadInLength="0/1"  />
             </VectorParam>
             <VectorParam id="4484"  name="anchor">
              <InterpolatingParam id="4485" interp="linr"  time="0/1" value="0" leadInLength="0/1"  />
              <InterpolatingParam id="4486" interp="linr"  time="0/1" value="0" leadInLength="0/1"  />
              <InterpolatingParam id="4487" interp="linr"  time="0/1" value="0" leadInLength="0/1"  />
             </VectorParam>
            </Transformer>
            <Parameters>
             <VectorParam id="4488"  name="sourceCrop">
              <InterpolatingParam id="4489" interp="linr"  time="0/1" value="0" leadInLength="0/1"  />
              <InterpolatingParam id="4490" interp="linr"  time="0/1" value="0" leadInLength="0/1"  />
              <InterpolatingParam id="4491" interp="linr"  time="0/1" value="0" leadInLength="0/1"  />
              <InterpolatingParam id="4492" interp="linr"  time="0/1" value="0" leadInLength="0/1"  />
             </VectorParam>
             <VectorParam id="4493"  name="geometryCrop">
              <InterpolatingParam id="4494" interp="linr"  time="-9999999/1" value="0" leadInLength="0/1"  />
              <InterpolatingParam id="4495" interp="linr"  time="-9999999/1" value="0" leadInLength="0/1"  />
              <InterpolatingParam id="4496" interp="linr"  time="-9999999/1" value="0" leadInLength="0/1"  />
              <InterpolatingParam id="4497" interp="linr"  time="-9999999/1" value="0" leadInLength="0/1"  />
             </VectorParam>
             <InterpolatingParam id="4498" interp="linr"  time="-9999999/1" value="1" leadInLength="0/1"  name="opacity"/>
            </Parameters>
            <Attributes>
             <Attribute id="4499" value="" name="ident"/>
            </Attributes>
            <MetaData>
             <entry key="WinSubProjectDisplayName" val=""/>
            </MetaData>
            <ExtraData>
             <Entry key="ZoomPanBin">
              <ZoomPanBin id="4500"  >
               <ZoomPanKeyframes>
               </ZoomPanKeyframes>
              </ZoomPanBin>
             </Entry>
            </ExtraData>
           </VMFile>
           <VMFile id="4501" start="6196" duration="615" scalar="1/1" mediaStart="15918/1" mediaDuration="615/1" trackNumber="0" src="4" >
            <Transformer>
             <VectorParam id="4502"  name="translation">
              <InterpolatingParam id="4503" interp="linr"  time="-9999999/1" value="0" leadInLength="0/1"  />
              <InterpolatingParam id="4504" interp="linr"  time="-9999999/1" value="0" leadInLength="0/1"  />
              <InterpolatingParam id="4505" interp="linr"  time="-9999999/1" value="0" leadInLength="0/1"  />
             </VectorParam>
             <VectorParam id="4506"  name="rotation">
              <InterpolatingParam id="4507" interp="linr"  time="-9999999/1" value="0" leadInLength="0/1"  />
              <InterpolatingParam id="4508" interp="linr"  time="-9999999/1" value="0" leadInLength="0/1"  />
              <InterpolatingParam id="4509" interp="linr"  time="-9999999/1" value="0" leadInLength="0/1"  />
             </VectorParam>
             <VectorParam id="4510"  name="shear">
              <InterpolatingParam id="4511" interp="linr"  time="-9999999/1" value="0" leadInLength="0/1"  />
              <InterpolatingParam id="4512" interp="linr"  time="-9999999/1" value="0" leadInLength="0/1"  />
              <InterpolatingParam id="4513" interp="linr"  time="-9999999/1" value="0" leadInLength="0/1"  />
             </VectorParam>
             <VectorParam id="4514"  name="scale">
              <InterpolatingParam id="4515" interp="linr"  time="-9999999/1" value="1" leadInLength="0/1"  />
              <InterpolatingParam id="4516" interp="linr"  time="-9999999/1" value="1" leadInLength="0/1"  />
              <InterpolatingParam id="4517" interp="linr"  time="-9999999/1" value="1" leadInLength="0/1"  />
             </VectorParam>
             <VectorParam id="4518"  name="anchor">
              <InterpolatingParam id="4519" interp="linr"  time="0/1" value="0" leadInLength="0/1"  />
              <InterpolatingParam id="4520" interp="linr"  time="0/1" value="0" leadInLength="0/1"  />
              <InterpolatingParam id="4521" interp="linr"  time="0/1" value="0" leadInLength="0/1"  />
             </VectorParam>
            </Transformer>
            <Parameters>
             <VectorParam id="4522"  name="sourceCrop">
              <InterpolatingParam id="4523" interp="linr"  time="0/1" value="0" leadInLength="0/1"  />
              <InterpolatingParam id="4524" interp="linr"  time="0/1" value="0" leadInLength="0/1"  />
              <InterpolatingParam id="4525" interp="linr"  time="0/1" value="0" leadInLength="0/1"  />
              <InterpolatingParam id="4526" interp="linr"  time="0/1" value="0" leadInLength="0/1"  />
             </VectorParam>
             <VectorParam id="4527"  name="geometryCrop">
              <InterpolatingParam id="4528" interp="linr"  time="-9999999/1" value="0" leadInLength="0/1"  />
              <InterpolatingParam id="4529" interp="linr"  time="-9999999/1" value="0" leadInLength="0/1"  />
              <InterpolatingParam id="4530" interp="linr"  time="-9999999/1" value="0" leadInLength="0/1"  />
              <InterpolatingParam id="4531" interp="linr"  time="-9999999/1" value="0" leadInLength="0/1"  />
             </VectorParam>
             <InterpolatingParam id="4532" interp="linr"  time="-9999999/1" value="1" leadInLength="0/1"  name="opacity"/>
            </Parameters>
            <Attributes>
             <Attribute id="4533" value="" name="ident"/>
            </Attributes>
            <MetaData>
             <entry key="WinSubProjectDisplayName" val=""/>
            </MetaData>
            <ExtraData>
             <Entry key="ZoomPanBin">
              <ZoomPanBin id="4534"  >
               <ZoomPanKeyframes>
               </ZoomPanKeyframes>
              </ZoomPanBin>
             </Entry>
            </ExtraData>
           </VMFile>
           <VMFile id="4535" start="6811" duration="323" scalar="1/1" mediaStart="16694/1" mediaDuration="323/1" trackNumber="0" src="4" >
            <Transformer>
             <VectorParam id="4536"  name="translation">
              <InterpolatingParam id="4537" interp="linr"  time="-9999999/1" value="0" leadInLength="0/1"  />
              <InterpolatingParam id="4538" interp="linr"  time="-9999999/1" value="0" leadInLength="0/1"  />
              <InterpolatingParam id="4539" interp="linr"  time="-9999999/1" value="0" leadInLength="0/1"  />
             </VectorParam>
             <VectorParam id="4540"  name="rotation">
              <InterpolatingParam id="4541" interp="linr"  time="-9999999/1" value="0" leadInLength="0/1"  />
              <InterpolatingParam id="4542" interp="linr"  time="-9999999/1" value="0" leadInLength="0/1"  />
              <InterpolatingParam id="4543" interp="linr"  time="-9999999/1" value="0" leadInLength="0/1"  />
             </VectorParam>
             <VectorParam id="4544"  name="shear">
              <InterpolatingParam id="4545" interp="linr"  time="-9999999/1" value="0" leadInLength="0/1"  />
              <InterpolatingParam id="4546" interp="linr"  time="-9999999/1" value="0" leadInLength="0/1"  />
              <InterpolatingParam id="4547" interp="linr"  time="-9999999/1" value="0" leadInLength="0/1"  />
             </VectorParam>
             <VectorParam id="4548"  name="scale">
              <InterpolatingParam id="4549" interp="linr"  time="-9999999/1" value="1" leadInLength="0/1"  />
              <InterpolatingParam id="4550" interp="linr"  time="-9999999/1" value="1" leadInLength="0/1"  />
              <InterpolatingParam id="4551" interp="linr"  time="-9999999/1" value="1" leadInLength="0/1"  />
             </VectorParam>
             <VectorParam id="4552"  name="anchor">
              <InterpolatingParam id="4553" interp="linr"  time="0/1" value="0" leadInLength="0/1"  />
              <InterpolatingParam id="4554" interp="linr"  time="0/1" value="0" leadInLength="0/1"  />
              <InterpolatingParam id="4555" interp="linr"  time="0/1" value="0" leadInLength="0/1"  />
             </VectorParam>
            </Transformer>
            <Parameters>
             <VectorParam id="4556"  name="sourceCrop">
              <InterpolatingParam id="4557" interp="linr"  time="0/1" value="0" leadInLength="0/1"  />
              <InterpolatingParam id="4558" interp="linr"  time="0/1" value="0" leadInLength="0/1"  />
              <InterpolatingParam id="4559" interp="linr"  time="0/1" value="0" leadInLength="0/1"  />
              <InterpolatingParam id="4560" interp="linr"  time="0/1" value="0" leadInLength="0/1"  />
             </VectorParam>
             <VectorParam id="4561"  name="geometryCrop">
              <InterpolatingParam id="4562" interp="linr"  time="-9999999/1" value="0" leadInLength="0/1"  />
              <InterpolatingParam id="4563" interp="linr"  time="-9999999/1" value="0" leadInLength="0/1"  />
              <InterpolatingParam id="4564" interp="linr"  time="-9999999/1" value="0" leadInLength="0/1"  />
              <InterpolatingParam id="4565" interp="linr"  time="-9999999/1" value="0" leadInLength="0/1"  />
             </VectorParam>
             <InterpolatingParam id="4566" interp="linr"  time="-9999999/1" value="1" leadInLength="0/1"  name="opacity"/>
            </Parameters>
            <Attributes>
             <Attribute id="4567" value="" name="ident"/>
            </Attributes>
            <MetaData>
             <entry key="WinSubProjectDisplayName" val=""/>
            </MetaData>
            <ExtraData>
             <Entry key="ZoomPanBin">
              <ZoomPanBin id="4568"  >
               <ZoomPanKeyframes>
               </ZoomPanKeyframes>
              </ZoomPanBin>
             </Entry>
            </ExtraData>
           </VMFile>
           <VMFile id="4569" start="7134" duration="223" scalar="1/1" mediaStart="17164/1" mediaDuration="223/1" trackNumber="0" src="4" >
            <Transformer>
             <VectorParam id="4570"  name="translation">
              <InterpolatingParam id="4571" interp="linr"  time="-9999999/1" value="0" leadInLength="0/1"  />
              <InterpolatingParam id="4572" interp="linr"  time="-9999999/1" value="0" leadInLength="0/1"  />
              <InterpolatingParam id="4573" interp="linr"  time="-9999999/1" value="0" leadInLength="0/1"  />
             </VectorParam>
             <VectorParam id="4574"  name="rotation">
              <InterpolatingParam id="4575" interp="linr"  time="-9999999/1" value="0" leadInLength="0/1"  />
              <InterpolatingParam id="4576" interp="linr"  time="-9999999/1" value="0" leadInLength="0/1"  />
              <InterpolatingParam id="4577" interp="linr"  time="-9999999/1" value="0" leadInLength="0/1"  />
             </VectorParam>
             <VectorParam id="4578"  name="shear">
              <InterpolatingParam id="4579" interp="linr"  time="-9999999/1" value="0" leadInLength="0/1"  />
              <InterpolatingParam id="4580" interp="linr"  time="-9999999/1" value="0" leadInLength="0/1"  />
              <InterpolatingParam id="4581" interp="linr"  time="-9999999/1" value="0" leadInLength="0/1"  />
             </VectorParam>
             <VectorParam id="4582"  name="scale">
              <InterpolatingParam id="4583" interp="linr"  time="-9999999/1" value="1" leadInLength="0/1"  />
              <InterpolatingParam id="4584" interp="linr"  time="-9999999/1" value="1" leadInLength="0/1"  />
              <InterpolatingParam id="4585" interp="linr"  time="-9999999/1" value="1" leadInLength="0/1"  />
             </VectorParam>
             <VectorParam id="4586"  name="anchor">
              <InterpolatingParam id="4587" interp="linr"  time="0/1" value="0" leadInLength="0/1"  />
              <InterpolatingParam id="4588" interp="linr"  time="0/1" value="0" leadInLength="0/1"  />
              <InterpolatingParam id="4589" interp="linr"  time="0/1" value="0" leadInLength="0/1"  />
             </VectorParam>
            </Transformer>
            <Parameters>
             <VectorParam id="4590"  name="sourceCrop">
              <InterpolatingParam id="4591" interp="linr"  time="0/1" value="0" leadInLength="0/1"  />
              <InterpolatingParam id="4592" interp="linr"  time="0/1" value="0" leadInLength="0/1"  />
              <InterpolatingParam id="4593" interp="linr"  time="0/1" value="0" leadInLength="0/1"  />
              <InterpolatingParam id="4594" interp="linr"  time="0/1" value="0" leadInLength="0/1"  />
             </VectorParam>
             <VectorParam id="4595"  name="geometryCrop">
              <InterpolatingParam id="4596" interp="linr"  time="-9999999/1" value="0" leadInLength="0/1"  />
              <InterpolatingParam id="4597" interp="linr"  time="-9999999/1" value="0" leadInLength="0/1"  />
              <InterpolatingParam id="4598" interp="linr"  time="-9999999/1" value="0" leadInLength="0/1"  />
              <InterpolatingParam id="4599" interp="linr"  time="-9999999/1" value="0" leadInLength="0/1"  />
             </VectorParam>
             <InterpolatingParam id="4600" interp="linr"  time="-9999999/1" value="1" leadInLength="0/1"  name="opacity"/>
            </Parameters>
            <Attributes>
             <Attribute id="4601" value="" name="ident"/>
            </Attributes>
            <MetaData>
             <entry key="WinSubProjectDisplayName" val=""/>
            </MetaData>
            <ExtraData>
             <Entry key="ZoomPanBin">
              <ZoomPanBin id="4602"  >
               <ZoomPanKeyframes>
               </ZoomPanKeyframes>
              </ZoomPanBin>
             </Entry>
            </ExtraData>
           </VMFile>
           <VMFile id="4603" start="7357" duration="323" scalar="1/1" mediaStart="26742/1" mediaDuration="323/1" trackNumber="0" src="4" >
            <Transformer>
             <VectorParam id="4604"  name="translation">
              <InterpolatingParam id="4605" interp="linr"  time="-9999999/1" value="0" leadInLength="0/1"  />
              <InterpolatingParam id="4606" interp="linr"  time="-9999999/1" value="0" leadInLength="0/1"  />
              <InterpolatingParam id="4607" interp="linr"  time="-9999999/1" value="0" leadInLength="0/1"  />
             </VectorParam>
             <VectorParam id="4608"  name="rotation">
              <InterpolatingParam id="4609" interp="linr"  time="-9999999/1" value="0" leadInLength="0/1"  />
              <InterpolatingParam id="4610" interp="linr"  time="-9999999/1" value="0" leadInLength="0/1"  />
              <InterpolatingParam id="4611" interp="linr"  time="-9999999/1" value="0" leadInLength="0/1"  />
             </VectorParam>
             <VectorParam id="4612"  name="shear">
              <InterpolatingParam id="4613" interp="linr"  time="-9999999/1" value="0" leadInLength="0/1"  />
              <InterpolatingParam id="4614" interp="linr"  time="-9999999/1" value="0" leadInLength="0/1"  />
              <InterpolatingParam id="4615" interp="linr"  time="-9999999/1" value="0" leadInLength="0/1"  />
             </VectorParam>
             <VectorParam id="4616"  name="scale">
              <InterpolatingParam id="4617" interp="linr"  time="-9999999/1" value="1" leadInLength="0/1"  />
              <InterpolatingParam id="4618" interp="linr"  time="-9999999/1" value="1" leadInLength="0/1"  />
              <InterpolatingParam id="4619" interp="linr"  time="-9999999/1" value="1" leadInLength="0/1"  />
             </VectorParam>
             <VectorParam id="4620"  name="anchor">
              <InterpolatingParam id="4621" interp="linr"  time="0/1" value="0" leadInLength="0/1"  />
              <InterpolatingParam id="4622" interp="linr"  time="0/1" value="0" leadInLength="0/1"  />
              <InterpolatingParam id="4623" interp="linr"  time="0/1" value="0" leadInLength="0/1"  />
             </VectorParam>
            </Transformer>
            <Parameters>
             <VectorParam id="4624"  name="sourceCrop">
              <InterpolatingParam id="4625" interp="linr"  time="0/1" value="0" leadInLength="0/1"  />
              <InterpolatingParam id="4626" interp="linr"  time="0/1" value="0" leadInLength="0/1"  />
              <InterpolatingParam id="4627" interp="linr"  time="0/1" value="0" leadInLength="0/1"  />
              <InterpolatingParam id="4628" interp="linr"  time="0/1" value="0" leadInLength="0/1"  />
             </VectorParam>
             <VectorParam id="4629"  name="geometryCrop">
              <InterpolatingParam id="4630" interp="linr"  time="-9999999/1" value="0" leadInLength="0/1"  />
              <InterpolatingParam id="4631" interp="linr"  time="-9999999/1" value="0" leadInLength="0/1"  />
              <InterpolatingParam id="4632" interp="linr"  time="-9999999/1" value="0" leadInLength="0/1"  />
              <InterpolatingParam id="4633" interp="linr"  time="-9999999/1" value="0" leadInLength="0/1"  />
             </VectorParam>
             <InterpolatingParam id="4634" interp="linr"  time="-9999999/1" value="1" leadInLength="0/1"  name="opacity"/>
            </Parameters>
            <Attributes>
             <Attribute id="4635" value="" name="ident"/>
            </Attributes>
            <MetaData>
             <entry key="WinSubProjectDisplayName" val=""/>
            </MetaData>
            <ExtraData>
             <Entry key="ZoomPanBin">
              <ZoomPanBin id="4636"  >
               <ZoomPanKeyframes>
               </ZoomPanKeyframes>
              </ZoomPanBin>
             </Entry>
            </ExtraData>
           </VMFile>
           <VMFile id="4637" start="7680" duration="259" scalar="1/1" mediaStart="27825/1" mediaDuration="259/1" trackNumber="0" src="4" >
            <Transformer>
             <VectorParam id="4638"  name="translation">
              <InterpolatingParam id="4639" interp="linr"  time="-9999999/1" value="0" leadInLength="0/1"  />
              <InterpolatingParam id="4640" interp="linr"  time="-9999999/1" value="0" leadInLength="0/1"  />
              <InterpolatingParam id="4641" interp="linr"  time="-9999999/1" value="0" leadInLength="0/1"  />
             </VectorParam>
             <VectorParam id="4642"  name="rotation">
              <InterpolatingParam id="4643" interp="linr"  time="-9999999/1" value="0" leadInLength="0/1"  />
              <InterpolatingParam id="4644" interp="linr"  time="-9999999/1" value="0" leadInLength="0/1"  />
              <InterpolatingParam id="4645" interp="linr"  time="-9999999/1" value="0" leadInLength="0/1"  />
             </VectorParam>
             <VectorParam id="4646"  name="shear">
              <InterpolatingParam id="4647" interp="linr"  time="-9999999/1" value="0" leadInLength="0/1"  />
              <InterpolatingParam id="4648" interp="linr"  time="-9999999/1" value="0" leadInLength="0/1"  />
              <InterpolatingParam id="4649" interp="linr"  time="-9999999/1" value="0" leadInLength="0/1"  />
             </VectorParam>
             <VectorParam id="4650"  name="scale">
              <InterpolatingParam id="4651" interp="linr"  time="-9999999/1" value="1" leadInLength="0/1"  />
              <InterpolatingParam id="4652" interp="linr"  time="-9999999/1" value="1" leadInLength="0/1"  />
              <InterpolatingParam id="4653" interp="linr"  time="-9999999/1" value="1" leadInLength="0/1"  />
             </VectorParam>
             <VectorParam id="4654"  name="anchor">
              <InterpolatingParam id="4655" interp="linr"  time="0/1" value="0" leadInLength="0/1"  />
              <InterpolatingParam id="4656" interp="linr"  time="0/1" value="0" leadInLength="0/1"  />
              <InterpolatingParam id="4657" interp="linr"  time="0/1" value="0" leadInLength="0/1"  />
             </VectorParam>
            </Transformer>
            <Parameters>
             <VectorParam id="4658"  name="sourceCrop">
              <InterpolatingParam id="4659" interp="linr"  time="0/1" value="0" leadInLength="0/1"  />
              <InterpolatingParam id="4660" interp="linr"  time="0/1" value="0" leadInLength="0/1"  />
              <InterpolatingParam id="4661" interp="linr"  time="0/1" value="0" leadInLength="0/1"  />
              <InterpolatingParam id="4662" interp="linr"  time="0/1" value="0" leadInLength="0/1"  />
             </VectorParam>
             <VectorParam id="4663"  name="geometryCrop">
              <InterpolatingParam id="4664" interp="linr"  time="-9999999/1" value="0" leadInLength="0/1"  />
              <InterpolatingParam id="4665" interp="linr"  time="-9999999/1" value="0" leadInLength="0/1"  />
              <InterpolatingParam id="4666" interp="linr"  time="-9999999/1" value="0" leadInLength="0/1"  />
              <InterpolatingParam id="4667" interp="linr"  time="-9999999/1" value="0" leadInLength="0/1"  />
             </VectorParam>
             <InterpolatingParam id="4668" interp="linr"  time="-9999999/1" value="1" leadInLength="0/1"  name="opacity"/>
            </Parameters>
            <Attributes>
             <Attribute id="4669" value="" name="ident"/>
            </Attributes>
            <MetaData>
             <entry key="WinSubProjectDisplayName" val=""/>
            </MetaData>
            <ExtraData>
             <Entry key="ZoomPanBin">
              <ZoomPanBin id="4670"  >
               <ZoomPanKeyframes>
               </ZoomPanKeyframes>
              </ZoomPanBin>
             </Entry>
            </ExtraData>
           </VMFile>
           <VMFile id="4671" start="7939" duration="157" scalar="1/1" mediaStart="28287/1" mediaDuration="157/1" trackNumber="0" src="4" >
            <Transformer>
             <VectorParam id="4672"  name="translation">
              <InterpolatingParam id="4673" interp="linr"  time="-9999999/1" value="0" leadInLength="0/1"  />
              <InterpolatingParam id="4674" interp="linr"  time="-9999999/1" value="0" leadInLength="0/1"  />
              <InterpolatingParam id="4675" interp="linr"  time="-9999999/1" value="0" leadInLength="0/1"  />
             </VectorParam>
             <VectorParam id="4676"  name="rotation">
              <InterpolatingParam id="4677" interp="linr"  time="-9999999/1" value="0" leadInLength="0/1"  />
              <InterpolatingParam id="4678" interp="linr"  time="-9999999/1" value="0" leadInLength="0/1"  />
              <InterpolatingParam id="4679" interp="linr"  time="-9999999/1" value="0" leadInLength="0/1"  />
             </VectorParam>
             <VectorParam id="4680"  name="shear">
              <InterpolatingParam id="4681" interp="linr"  time="-9999999/1" value="0" leadInLength="0/1"  />
              <InterpolatingParam id="4682" interp="linr"  time="-9999999/1" value="0" leadInLength="0/1"  />
              <InterpolatingParam id="4683" interp="linr"  time="-9999999/1" value="0" leadInLength="0/1"  />
             </VectorParam>
             <VectorParam id="4684"  name="scale">
              <InterpolatingParam id="4685" interp="linr"  time="-9999999/1" value="1" leadInLength="0/1"  />
              <InterpolatingParam id="4686" interp="linr"  time="-9999999/1" value="1" leadInLength="0/1"  />
              <InterpolatingParam id="4687" interp="linr"  time="-9999999/1" value="1" leadInLength="0/1"  />
             </VectorParam>
             <VectorParam id="4688"  name="anchor">
              <InterpolatingParam id="4689" interp="linr"  time="0/1" value="0" leadInLength="0/1"  />
              <InterpolatingParam id="4690" interp="linr"  time="0/1" value="0" leadInLength="0/1"  />
              <InterpolatingParam id="4691" interp="linr"  time="0/1" value="0" leadInLength="0/1"  />
             </VectorParam>
            </Transformer>
            <Parameters>
             <VectorParam id="4692"  name="sourceCrop">
              <InterpolatingParam id="4693" interp="linr"  time="0/1" value="0" leadInLength="0/1"  />
              <InterpolatingParam id="4694" interp="linr"  time="0/1" value="0" leadInLength="0/1"  />
              <InterpolatingParam id="4695" interp="linr"  time="0/1" value="0" leadInLength="0/1"  />
              <InterpolatingParam id="4696" interp="linr"  time="0/1" value="0" leadInLength="0/1"  />
             </VectorParam>
             <VectorParam id="4697"  name="geometryCrop">
              <InterpolatingParam id="4698" interp="linr"  time="-9999999/1" value="0" leadInLength="0/1"  />
              <InterpolatingParam id="4699" interp="linr"  time="-9999999/1" value="0" leadInLength="0/1"  />
              <InterpolatingParam id="4700" interp="linr"  time="-9999999/1" value="0" leadInLength="0/1"  />
              <InterpolatingParam id="4701" interp="linr"  time="-9999999/1" value="0" leadInLength="0/1"  />
             </VectorParam>
             <InterpolatingParam id="4702" interp="linr"  time="-9999999/1" value="1" leadInLength="0/1"  name="opacity"/>
            </Parameters>
            <Attributes>
             <Attribute id="4703" value="" name="ident"/>
            </Attributes>
            <MetaData>
             <entry key="WinSubProjectDisplayName" val=""/>
            </MetaData>
            <ExtraData>
             <Entry key="ZoomPanBin">
              <ZoomPanBin id="4704"  >
               <ZoomPanKeyframes>
               </ZoomPanKeyframes>
              </ZoomPanBin>
             </Entry>
            </ExtraData>
           </VMFile>
           <VMFile id="4705" start="8096" duration="290" scalar="1/1" mediaStart="28689/1" mediaDuration="290/1" trackNumber="0" src="4" >
            <Transformer>
             <VectorParam id="4706"  name="translation">
              <InterpolatingParam id="4707" interp="linr"  time="-9999999/1" value="0" leadInLength="0/1"  />
              <InterpolatingParam id="4708" interp="linr"  time="-9999999/1" value="0" leadInLength="0/1"  />
              <InterpolatingParam id="4709" interp="linr"  time="-9999999/1" value="0" leadInLength="0/1"  />
             </VectorParam>
             <VectorParam id="4710"  name="rotation">
              <InterpolatingParam id="4711" interp="linr"  time="-9999999/1" value="0" leadInLength="0/1"  />
              <InterpolatingParam id="4712" interp="linr"  time="-9999999/1" value="0" leadInLength="0/1"  />
              <InterpolatingParam id="4713" interp="linr"  time="-9999999/1" value="0" leadInLength="0/1"  />
             </VectorParam>
             <VectorParam id="4714"  name="shear">
              <InterpolatingParam id="4715" interp="linr"  time="-9999999/1" value="0" leadInLength="0/1"  />
              <InterpolatingParam id="4716" interp="linr"  time="-9999999/1" value="0" leadInLength="0/1"  />
              <InterpolatingParam id="4717" interp="linr"  time="-9999999/1" value="0" leadInLength="0/1"  />
             </VectorParam>
             <VectorParam id="4718"  name="scale">
              <InterpolatingParam id="4719" interp="linr"  time="-9999999/1" value="1" leadInLength="0/1"  />
              <InterpolatingParam id="4720" interp="linr"  time="-9999999/1" value="1" leadInLength="0/1"  />
              <InterpolatingParam id="4721" interp="linr"  time="-9999999/1" value="1" leadInLength="0/1"  />
             </VectorParam>
             <VectorParam id="4722"  name="anchor">
              <InterpolatingParam id="4723" interp="linr"  time="0/1" value="0" leadInLength="0/1"  />
              <InterpolatingParam id="4724" interp="linr"  time="0/1" value="0" leadInLength="0/1"  />
              <InterpolatingParam id="4725" interp="linr"  time="0/1" value="0" leadInLength="0/1"  />
             </VectorParam>
            </Transformer>
            <Parameters>
             <VectorParam id="4726"  name="sourceCrop">
              <InterpolatingParam id="4727" interp="linr"  time="0/1" value="0" leadInLength="0/1"  />
              <InterpolatingParam id="4728" interp="linr"  time="0/1" value="0" leadInLength="0/1"  />
              <InterpolatingParam id="4729" interp="linr"  time="0/1" value="0" leadInLength="0/1"  />
              <InterpolatingParam id="4730" interp="linr"  time="0/1" value="0" leadInLength="0/1"  />
             </VectorParam>
             <VectorParam id="4731"  name="geometryCrop">
              <InterpolatingParam id="4732" interp="linr"  time="-9999999/1" value="0" leadInLength="0/1"  />
              <InterpolatingParam id="4733" interp="linr"  time="-9999999/1" value="0" leadInLength="0/1"  />
              <InterpolatingParam id="4734" interp="linr"  time="-9999999/1" value="0" leadInLength="0/1"  />
              <InterpolatingParam id="4735" interp="linr"  time="-9999999/1" value="0" leadInLength="0/1"  />
             </VectorParam>
             <InterpolatingParam id="4736" interp="linr"  time="-9999999/1" value="1" leadInLength="0/1"  name="opacity"/>
            </Parameters>
            <Attributes>
             <Attribute id="4737" value="" name="ident"/>
            </Attributes>
            <MetaData>
             <entry key="WinSubProjectDisplayName" val=""/>
            </MetaData>
            <ExtraData>
             <Entry key="ZoomPanBin">
              <ZoomPanBin id="4738"  >
               <ZoomPanKeyframes>
               </ZoomPanKeyframes>
              </ZoomPanBin>
             </Entry>
            </ExtraData>
           </VMFile>
           <IMFile id="4739" start="8386" duration="60" scalar="1/1" mediaStart="29056/1" mediaDuration="1/1" trackNumber="0" src="4" trimStartSum="0/1" >
            <Transformer>
             <VectorParam id="4740"  name="translation">
              <InterpolatingParam id="4741" interp="linr"  time="-9999999/1" value="0" leadInLength="0/1"  />
              <InterpolatingParam id="4742" interp="linr"  time="-9999999/1" value="0" leadInLength="0/1"  />
              <InterpolatingParam id="4743" interp="linr"  time="-9999999/1" value="0" leadInLength="0/1"  />
             </VectorParam>
             <VectorParam id="4744"  name="rotation">
              <InterpolatingParam id="4745" interp="linr"  time="-9999999/1" value="0" leadInLength="0/1"  />
              <InterpolatingParam id="4746" interp="linr"  time="-9999999/1" value="0" leadInLength="0/1"  />
              <InterpolatingParam id="4747" interp="linr"  time="-9999999/1" value="0" leadInLength="0/1"  />
             </VectorParam>
             <VectorParam id="4748"  name="shear">
              <InterpolatingParam id="4749" interp="linr"  time="-9999999/1" value="0" leadInLength="0/1"  />
              <InterpolatingParam id="4750" interp="linr"  time="-9999999/1" value="0" leadInLength="0/1"  />
              <InterpolatingParam id="4751" interp="linr"  time="-9999999/1" value="0" leadInLength="0/1"  />
             </VectorParam>
             <VectorParam id="4752"  name="scale">
              <InterpolatingParam id="4753" interp="linr"  time="-9999999/1" value="1" leadInLength="0/1"  />
              <InterpolatingParam id="4754" interp="linr"  time="-9999999/1" value="1" leadInLength="0/1"  />
              <InterpolatingParam id="4755" interp="linr"  time="-9999999/1" value="1" leadInLength="0/1"  />
             </VectorParam>
             <VectorParam id="4756"  name="anchor">
              <InterpolatingParam id="4757" interp="linr"  time="0/1" value="0" leadInLength="0/1"  />
              <InterpolatingParam id="4758" interp="linr"  time="0/1" value="0" leadInLength="0/1"  />
              <InterpolatingParam id="4759" interp="linr"  time="0/1" value="0" leadInLength="0/1"  />
             </VectorParam>
            </Transformer>
            <Parameters>
             <VectorParam id="4760"  name="sourceCrop">
              <InterpolatingParam id="4761" interp="linr"  time="0/1" value="0" leadInLength="0/1"  />
              <InterpolatingParam id="4762" interp="linr"  time="0/1" value="0" leadInLength="0/1"  />
              <InterpolatingParam id="4763" interp="linr"  time="0/1" value="0" leadInLength="0/1"  />
              <InterpolatingParam id="4764" interp="linr"  time="0/1" value="0" leadInLength="0/1"  />
             </VectorParam>
             <VectorParam id="4765"  name="geometryCrop">
              <InterpolatingParam id="4766" interp="linr"  time="-9999999/1" value="0" leadInLength="0/1"  />
              <InterpolatingParam id="4767" interp="linr"  time="-9999999/1" value="0" leadInLength="0/1"  />
              <InterpolatingParam id="4768" interp="linr"  time="-9999999/1" value="0" leadInLength="0/1"  />
              <InterpolatingParam id="4769" interp="linr"  time="-9999999/1" value="0" leadInLength="0/1"  />
             </VectorParam>
             <InterpolatingParam id="4770" interp="linr"  time="-9999999/1" value="1" leadInLength="0/1"  name="opacity"/>
            </Parameters>
            <Attributes>
             <Attribute id="4771" value="" name="ident"/>
            </Attributes>
            <MetaData>
             <entry key="WinSubProjectDisplayName" val=""/>
            </MetaData>
            <ExtraData>
             <Entry key="ZoomPanBin">
              <ZoomPanBin id="4772"  >
               <ZoomPanKeyframes>
               </ZoomPanKeyframes>
              </ZoomPanBin>
             </Entry>
            </ExtraData>
           </IMFile>
           <VMFile id="4773" start="8446" duration="18" scalar="1/1" mediaStart="29056/1" mediaDuration="18/1" trackNumber="0" src="4" >
            <Transformer>
             <VectorParam id="4774"  name="translation">
              <InterpolatingParam id="4775" interp="linr"  time="-9999999/1" value="0" leadInLength="0/1"  />
              <InterpolatingParam id="4776" interp="linr"  time="-9999999/1" value="0" leadInLength="0/1"  />
              <InterpolatingParam id="4777" interp="linr"  time="-9999999/1" value="0" leadInLength="0/1"  />
             </VectorParam>
             <VectorParam id="4778"  name="rotation">
              <InterpolatingParam id="4779" interp="linr"  time="-9999999/1" value="0" leadInLength="0/1"  />
              <InterpolatingParam id="4780" interp="linr"  time="-9999999/1" value="0" leadInLength="0/1"  />
              <InterpolatingParam id="4781" interp="linr"  time="-9999999/1" value="0" leadInLength="0/1"  />
             </VectorParam>
             <VectorParam id="4782"  name="shear">
              <InterpolatingParam id="4783" interp="linr"  time="-9999999/1" value="0" leadInLength="0/1"  />
              <InterpolatingParam id="4784" interp="linr"  time="-9999999/1" value="0" leadInLength="0/1"  />
              <InterpolatingParam id="4785" interp="linr"  time="-9999999/1" value="0" leadInLength="0/1"  />
             </VectorParam>
             <VectorParam id="4786"  name="scale">
              <InterpolatingParam id="4787" interp="linr"  time="-9999999/1" value="1" leadInLength="0/1"  />
              <InterpolatingParam id="4788" interp="linr"  time="-9999999/1" value="1" leadInLength="0/1"  />
              <InterpolatingParam id="4789" interp="linr"  time="-9999999/1" value="1" leadInLength="0/1"  />
             </VectorParam>
             <VectorParam id="4790"  name="anchor">
              <InterpolatingParam id="4791" interp="linr"  time="0/1" value="0" leadInLength="0/1"  />
              <InterpolatingParam id="4792" interp="linr"  time="0/1" value="0" leadInLength="0/1"  />
              <InterpolatingParam id="4793" interp="linr"  time="0/1" value="0" leadInLength="0/1"  />
             </VectorParam>
            </Transformer>
            <Parameters>
             <VectorParam id="4794"  name="sourceCrop">
              <InterpolatingParam id="4795" interp="linr"  time="0/1" value="0" leadInLength="0/1"  />
              <InterpolatingParam id="4796" interp="linr"  time="0/1" value="0" leadInLength="0/1"  />
              <InterpolatingParam id="4797" interp="linr"  time="0/1" value="0" leadInLength="0/1"  />
              <InterpolatingParam id="4798" interp="linr"  time="0/1" value="0" leadInLength="0/1"  />
             </VectorParam>
             <VectorParam id="4799"  name="geometryCrop">
              <InterpolatingParam id="4800" interp="linr"  time="-9999999/1" value="0" leadInLength="0/1"  />
              <InterpolatingParam id="4801" interp="linr"  time="-9999999/1" value="0" leadInLength="0/1"  />
              <InterpolatingParam id="4802" interp="linr"  time="-9999999/1" value="0" leadInLength="0/1"  />
              <InterpolatingParam id="4803" interp="linr"  time="-9999999/1" value="0" leadInLength="0/1"  />
             </VectorParam>
             <InterpolatingParam id="4804" interp="linr"  time="-9999999/1" value="1" leadInLength="0/1"  name="opacity"/>
            </Parameters>
            <Attributes>
             <Attribute id="4805" value="" name="ident"/>
            </Attributes>
            <MetaData>
             <entry key="WinSubProjectDisplayName" val=""/>
            </MetaData>
            <ExtraData>
             <Entry key="ZoomPanBin">
              <ZoomPanBin id="4806"  >
               <ZoomPanKeyframes>
               </ZoomPanKeyframes>
              </ZoomPanBin>
             </Entry>
            </ExtraData>
           </VMFile>
           <IMFile id="4807" start="8464" duration="30" scalar="1/1" mediaStart="29074/1" mediaDuration="1/1" trackNumber="0" src="4" trimStartSum="0/1" >
            <Transformer>
             <VectorParam id="4808"  name="translation">
              <InterpolatingParam id="4809" interp="linr"  time="-9999999/1" value="0" leadInLength="0/1"  />
              <InterpolatingParam id="4810" interp="linr"  time="-9999999/1" value="0" leadInLength="0/1"  />
              <InterpolatingParam id="4811" interp="linr"  time="-9999999/1" value="0" leadInLength="0/1"  />
             </VectorParam>
             <VectorParam id="4812"  name="rotation">
              <InterpolatingParam id="4813" interp="linr"  time="-9999999/1" value="0" leadInLength="0/1"  />
              <InterpolatingParam id="4814" interp="linr"  time="-9999999/1" value="0" leadInLength="0/1"  />
              <InterpolatingParam id="4815" interp="linr"  time="-9999999/1" value="0" leadInLength="0/1"  />
             </VectorParam>
             <VectorParam id="4816"  name="shear">
              <InterpolatingParam id="4817" interp="linr"  time="-9999999/1" value="0" leadInLength="0/1"  />
              <InterpolatingParam id="4818" interp="linr"  time="-9999999/1" value="0" leadInLength="0/1"  />
              <InterpolatingParam id="4819" interp="linr"  time="-9999999/1" value="0" leadInLength="0/1"  />
             </VectorParam>
             <VectorParam id="4820"  name="scale">
              <InterpolatingParam id="4821" interp="linr"  time="-9999999/1" value="1" leadInLength="0/1"  />
              <InterpolatingParam id="4822" interp="linr"  time="-9999999/1" value="1" leadInLength="0/1"  />
              <InterpolatingParam id="4823" interp="linr"  time="-9999999/1" value="1" leadInLength="0/1"  />
             </VectorParam>
             <VectorParam id="4824"  name="anchor">
              <InterpolatingParam id="4825" interp="linr"  time="0/1" value="0" leadInLength="0/1"  />
              <InterpolatingParam id="4826" interp="linr"  time="0/1" value="0" leadInLength="0/1"  />
              <InterpolatingParam id="4827" interp="linr"  time="0/1" value="0" leadInLength="0/1"  />
             </VectorParam>
            </Transformer>
            <Parameters>
             <VectorParam id="4828"  name="sourceCrop">
              <InterpolatingParam id="4829" interp="linr"  time="0/1" value="0" leadInLength="0/1"  />
              <InterpolatingParam id="4830" interp="linr"  time="0/1" value="0" leadInLength="0/1"  />
              <InterpolatingParam id="4831" interp="linr"  time="0/1" value="0" leadInLength="0/1"  />
              <InterpolatingParam id="4832" interp="linr"  time="0/1" value="0" leadInLength="0/1"  />
             </VectorParam>
             <VectorParam id="4833"  name="geometryCrop">
              <InterpolatingParam id="4834" interp="linr"  time="-9999999/1" value="0" leadInLength="0/1"  />
              <InterpolatingParam id="4835" interp="linr"  time="-9999999/1" value="0" leadInLength="0/1"  />
              <InterpolatingParam id="4836" interp="linr"  time="-9999999/1" value="0" leadInLength="0/1"  />
              <InterpolatingParam id="4837" interp="linr"  time="-9999999/1" value="0" leadInLength="0/1"  />
             </VectorParam>
             <InterpolatingParam id="4838" interp="linr"  time="-9999999/1" value="1" leadInLength="0/1"  name="opacity"/>
            </Parameters>
            <Attributes>
             <Attribute id="4839" value="" name="ident"/>
            </Attributes>
            <MetaData>
             <entry key="WinSubProjectDisplayName" val=""/>
            </MetaData>
            <ExtraData>
             <Entry key="ZoomPanBin">
              <ZoomPanBin id="4840"  >
               <ZoomPanKeyframes>
               </ZoomPanKeyframes>
              </ZoomPanBin>
             </Entry>
            </ExtraData>
           </IMFile>
           <VMFile id="4841" start="8494" duration="1" scalar="1/1" mediaStart="29074/1" mediaDuration="1/1" trackNumber="0" src="4" >
            <Transformer>
             <VectorParam id="4842"  name="translation">
              <InterpolatingParam id="4843" interp="linr"  time="-9999999/1" value="0" leadInLength="0/1"  />
              <InterpolatingParam id="4844" interp="linr"  time="-9999999/1" value="0" leadInLength="0/1"  />
              <InterpolatingParam id="4845" interp="linr"  time="-9999999/1" value="0" leadInLength="0/1"  />
             </VectorParam>
             <VectorParam id="4846"  name="rotation">
              <InterpolatingParam id="4847" interp="linr"  time="-9999999/1" value="0" leadInLength="0/1"  />
              <InterpolatingParam id="4848" interp="linr"  time="-9999999/1" value="0" leadInLength="0/1"  />
              <InterpolatingParam id="4849" interp="linr"  time="-9999999/1" value="0" leadInLength="0/1"  />
             </VectorParam>
             <VectorParam id="4850"  name="shear">
              <InterpolatingParam id="4851" interp="linr"  time="-9999999/1" value="0" leadInLength="0/1"  />
              <InterpolatingParam id="4852" interp="linr"  time="-9999999/1" value="0" leadInLength="0/1"  />
              <InterpolatingParam id="4853" interp="linr"  time="-9999999/1" value="0" leadInLength="0/1"  />
             </VectorParam>
             <VectorParam id="4854"  name="scale">
              <InterpolatingParam id="4855" interp="linr"  time="-9999999/1" value="1" leadInLength="0/1"  />
              <InterpolatingParam id="4856" interp="linr"  time="-9999999/1" value="1" leadInLength="0/1"  />
              <InterpolatingParam id="4857" interp="linr"  time="-9999999/1" value="1" leadInLength="0/1"  />
             </VectorParam>
             <VectorParam id="4858"  name="anchor">
              <InterpolatingParam id="4859" interp="linr"  time="0/1" value="0" leadInLength="0/1"  />
              <InterpolatingParam id="4860" interp="linr"  time="0/1" value="0" leadInLength="0/1"  />
              <InterpolatingParam id="4861" interp="linr"  time="0/1" value="0" leadInLength="0/1"  />
             </VectorParam>
            </Transformer>
            <Parameters>
             <VectorParam id="4862"  name="sourceCrop">
              <InterpolatingParam id="4863" interp="linr"  time="0/1" value="0" leadInLength="0/1"  />
              <InterpolatingParam id="4864" interp="linr"  time="0/1" value="0" leadInLength="0/1"  />
              <InterpolatingParam id="4865" interp="linr"  time="0/1" value="0" leadInLength="0/1"  />
              <InterpolatingParam id="4866" interp="linr"  time="0/1" value="0" leadInLength="0/1"  />
             </VectorParam>
             <VectorParam id="4867"  name="geometryCrop">
              <InterpolatingParam id="4868" interp="linr"  time="-9999999/1" value="0" leadInLength="0/1"  />
              <InterpolatingParam id="4869" interp="linr"  time="-9999999/1" value="0" leadInLength="0/1"  />
              <InterpolatingParam id="4870" interp="linr"  time="-9999999/1" value="0" leadInLength="0/1"  />
              <InterpolatingParam id="4871" interp="linr"  time="-9999999/1" value="0" leadInLength="0/1"  />
             </VectorParam>
             <InterpolatingParam id="4872" interp="linr"  time="-9999999/1" value="1" leadInLength="0/1"  name="opacity"/>
            </Parameters>
            <Attributes>
             <Attribute id="4873" value="" name="ident"/>
            </Attributes>
            <MetaData>
             <entry key="WinSubProjectDisplayName" val=""/>
            </MetaData>
            <ExtraData>
             <Entry key="ZoomPanBin">
              <ZoomPanBin id="4874"  >
               <ZoomPanKeyframes>
               </ZoomPanKeyframes>
              </ZoomPanBin>
             </Entry>
            </ExtraData>
           </VMFile>
           <VMFile id="4875" start="8495" duration="42" scalar="1/1" mediaStart="29274/1" mediaDuration="42/1" trackNumber="0" src="4" >
            <Transformer>
             <VectorParam id="4876"  name="translation">
              <InterpolatingParam id="4877" interp="linr"  time="-9999999/1" value="0" leadInLength="0/1"  />
              <InterpolatingParam id="4878" interp="linr"  time="-9999999/1" value="0" leadInLength="0/1"  />
              <InterpolatingParam id="4879" interp="linr"  time="-9999999/1" value="0" leadInLength="0/1"  />
             </VectorParam>
             <VectorParam id="4880"  name="rotation">
              <InterpolatingParam id="4881" interp="linr"  time="-9999999/1" value="0" leadInLength="0/1"  />
              <InterpolatingParam id="4882" interp="linr"  time="-9999999/1" value="0" leadInLength="0/1"  />
              <InterpolatingParam id="4883" interp="linr"  time="-9999999/1" value="0" leadInLength="0/1"  />
             </VectorParam>
             <VectorParam id="4884"  name="shear">
              <InterpolatingParam id="4885" interp="linr"  time="-9999999/1" value="0" leadInLength="0/1"  />
              <InterpolatingParam id="4886" interp="linr"  time="-9999999/1" value="0" leadInLength="0/1"  />
              <InterpolatingParam id="4887" interp="linr"  time="-9999999/1" value="0" leadInLength="0/1"  />
             </VectorParam>
             <VectorParam id="4888"  name="scale">
              <InterpolatingParam id="4889" interp="linr"  time="-9999999/1" value="1" leadInLength="0/1"  />
              <InterpolatingParam id="4890" interp="linr"  time="-9999999/1" value="1" leadInLength="0/1"  />
              <InterpolatingParam id="4891" interp="linr"  time="-9999999/1" value="1" leadInLength="0/1"  />
             </VectorParam>
             <VectorParam id="4892"  name="anchor">
              <InterpolatingParam id="4893" interp="linr"  time="0/1" value="0" leadInLength="0/1"  />
              <InterpolatingParam id="4894" interp="linr"  time="0/1" value="0" leadInLength="0/1"  />
              <InterpolatingParam id="4895" interp="linr"  time="0/1" value="0" leadInLength="0/1"  />
             </VectorParam>
            </Transformer>
            <Parameters>
             <VectorParam id="4896"  name="sourceCrop">
              <InterpolatingParam id="4897" interp="linr"  time="0/1" value="0" leadInLength="0/1"  />
              <InterpolatingParam id="4898" interp="linr"  time="0/1" value="0" leadInLength="0/1"  />
              <InterpolatingParam id="4899" interp="linr"  time="0/1" value="0" leadInLength="0/1"  />
              <InterpolatingParam id="4900" interp="linr"  time="0/1" value="0" leadInLength="0/1"  />
             </VectorParam>
             <VectorParam id="4901"  name="geometryCrop">
              <InterpolatingParam id="4902" interp="linr"  time="-9999999/1" value="0" leadInLength="0/1"  />
              <InterpolatingParam id="4903" interp="linr"  time="-9999999/1" value="0" leadInLength="0/1"  />
              <InterpolatingParam id="4904" interp="linr"  time="-9999999/1" value="0" leadInLength="0/1"  />
              <InterpolatingParam id="4905" interp="linr"  time="-9999999/1" value="0" leadInLength="0/1"  />
             </VectorParam>
             <InterpolatingParam id="4906" interp="linr"  time="-9999999/1" value="1" leadInLength="0/1"  name="opacity"/>
            </Parameters>
            <Attributes>
             <Attribute id="4907" value="" name="ident"/>
            </Attributes>
            <MetaData>
             <entry key="WinSubProjectDisplayName" val=""/>
            </MetaData>
            <ExtraData>
             <Entry key="ZoomPanBin">
              <ZoomPanBin id="4908"  >
               <ZoomPanKeyframes>
               </ZoomPanKeyframes>
              </ZoomPanBin>
             </Entry>
            </ExtraData>
           </VMFile>
           <VMFile id="4909" start="8537" duration="147" scalar="1/1" mediaStart="29358/1" mediaDuration="147/1" trackNumber="0" src="4" >
            <Transformer>
             <VectorParam id="4910"  name="translation">
              <InterpolatingParam id="4911" interp="linr"  time="-9999999/1" value="0" leadInLength="0/1"  />
              <InterpolatingParam id="4912" interp="linr"  time="-9999999/1" value="0" leadInLength="0/1"  />
              <InterpolatingParam id="4913" interp="linr"  time="-9999999/1" value="0" leadInLength="0/1"  />
             </VectorParam>
             <VectorParam id="4914"  name="rotation">
              <InterpolatingParam id="4915" interp="linr"  time="-9999999/1" value="0" leadInLength="0/1"  />
              <InterpolatingParam id="4916" interp="linr"  time="-9999999/1" value="0" leadInLength="0/1"  />
              <InterpolatingParam id="4917" interp="linr"  time="-9999999/1" value="0" leadInLength="0/1"  />
             </VectorParam>
             <VectorParam id="4918"  name="shear">
              <InterpolatingParam id="4919" interp="linr"  time="-9999999/1" value="0" leadInLength="0/1"  />
              <InterpolatingParam id="4920" interp="linr"  time="-9999999/1" value="0" leadInLength="0/1"  />
              <InterpolatingParam id="4921" interp="linr"  time="-9999999/1" value="0" leadInLength="0/1"  />
             </VectorParam>
             <VectorParam id="4922"  name="scale">
              <InterpolatingParam id="4923" interp="linr"  time="-9999999/1" value="1" leadInLength="0/1"  />
              <InterpolatingParam id="4924" interp="linr"  time="-9999999/1" value="1" leadInLength="0/1"  />
              <InterpolatingParam id="4925" interp="linr"  time="-9999999/1" value="1" leadInLength="0/1"  />
             </VectorParam>
             <VectorParam id="4926"  name="anchor">
              <InterpolatingParam id="4927" interp="linr"  time="0/1" value="0" leadInLength="0/1"  />
              <InterpolatingParam id="4928" interp="linr"  time="0/1" value="0" leadInLength="0/1"  />
              <InterpolatingParam id="4929" interp="linr"  time="0/1" value="0" leadInLength="0/1"  />
             </VectorParam>
            </Transformer>
            <Parameters>
             <VectorParam id="4930"  name="sourceCrop">
              <InterpolatingParam id="4931" interp="linr"  time="0/1" value="0" leadInLength="0/1"  />
              <InterpolatingParam id="4932" interp="linr"  time="0/1" value="0" leadInLength="0/1"  />
              <InterpolatingParam id="4933" interp="linr"  time="0/1" value="0" leadInLength="0/1"  />
              <InterpolatingParam id="4934" interp="linr"  time="0/1" value="0" leadInLength="0/1"  />
             </VectorParam>
             <VectorParam id="4935"  name="geometryCrop">
              <InterpolatingParam id="4936" interp="linr"  time="-9999999/1" value="0" leadInLength="0/1"  />
              <InterpolatingParam id="4937" interp="linr"  time="-9999999/1" value="0" leadInLength="0/1"  />
              <InterpolatingParam id="4938" interp="linr"  time="-9999999/1" value="0" leadInLength="0/1"  />
              <InterpolatingParam id="4939" interp="linr"  time="-9999999/1" value="0" leadInLength="0/1"  />
             </VectorParam>
             <InterpolatingParam id="4940" interp="linr"  time="-9999999/1" value="1" leadInLength="0/1"  name="opacity"/>
            </Parameters>
            <Attributes>
             <Attribute id="4941" value="" name="ident"/>
            </Attributes>
            <MetaData>
             <entry key="WinSubProjectDisplayName" val=""/>
            </MetaData>
            <ExtraData>
             <Entry key="ZoomPanBin">
              <ZoomPanBin id="4942"  >
               <ZoomPanKeyframes>
               </ZoomPanKeyframes>
              </ZoomPanBin>
             </Entry>
            </ExtraData>
           </VMFile>
           <VMFile id="4943" start="8684" duration="580" scalar="1/1" mediaStart="29557/1" mediaDuration="580/1" trackNumber="0" src="4" >
            <Transformer>
             <VectorParam id="4944"  name="translation">
              <InterpolatingParam id="4945" interp="linr"  time="-9999999/1" value="0" leadInLength="0/1"  />
              <InterpolatingParam id="4946" interp="linr"  time="-9999999/1" value="0" leadInLength="0/1"  />
              <InterpolatingParam id="4947" interp="linr"  time="-9999999/1" value="0" leadInLength="0/1"  />
             </VectorParam>
             <VectorParam id="4948"  name="rotation">
              <InterpolatingParam id="4949" interp="linr"  time="-9999999/1" value="0" leadInLength="0/1"  />
              <InterpolatingParam id="4950" interp="linr"  time="-9999999/1" value="0" leadInLength="0/1"  />
              <InterpolatingParam id="4951" interp="linr"  time="-9999999/1" value="0" leadInLength="0/1"  />
             </VectorParam>
             <VectorParam id="4952"  name="shear">
              <InterpolatingParam id="4953" interp="linr"  time="-9999999/1" value="0" leadInLength="0/1"  />
              <InterpolatingParam id="4954" interp="linr"  time="-9999999/1" value="0" leadInLength="0/1"  />
              <InterpolatingParam id="4955" interp="linr"  time="-9999999/1" value="0" leadInLength="0/1"  />
             </VectorParam>
             <VectorParam id="4956"  name="scale">
              <InterpolatingParam id="4957" interp="linr"  time="-9999999/1" value="1" leadInLength="0/1"  />
              <InterpolatingParam id="4958" interp="linr"  time="-9999999/1" value="1" leadInLength="0/1"  />
              <InterpolatingParam id="4959" interp="linr"  time="-9999999/1" value="1" leadInLength="0/1"  />
             </VectorParam>
             <VectorParam id="4960"  name="anchor">
              <InterpolatingParam id="4961" interp="linr"  time="0/1" value="0" leadInLength="0/1"  />
              <InterpolatingParam id="4962" interp="linr"  time="0/1" value="0" leadInLength="0/1"  />
              <InterpolatingParam id="4963" interp="linr"  time="0/1" value="0" leadInLength="0/1"  />
             </VectorParam>
            </Transformer>
            <Parameters>
             <VectorParam id="4964"  name="sourceCrop">
              <InterpolatingParam id="4965" interp="linr"  time="0/1" value="0" leadInLength="0/1"  />
              <InterpolatingParam id="4966" interp="linr"  time="0/1" value="0" leadInLength="0/1"  />
              <InterpolatingParam id="4967" interp="linr"  time="0/1" value="0" leadInLength="0/1"  />
              <InterpolatingParam id="4968" interp="linr"  time="0/1" value="0" leadInLength="0/1"  />
             </VectorParam>
             <VectorParam id="4969"  name="geometryCrop">
              <InterpolatingParam id="4970" interp="linr"  time="-9999999/1" value="0" leadInLength="0/1"  />
              <InterpolatingParam id="4971" interp="linr"  time="-9999999/1" value="0" leadInLength="0/1"  />
              <InterpolatingParam id="4972" interp="linr"  time="-9999999/1" value="0" leadInLength="0/1"  />
              <InterpolatingParam id="4973" interp="linr"  time="-9999999/1" value="0" leadInLength="0/1"  />
             </VectorParam>
             <InterpolatingParam id="4974" interp="linr"  time="-9999999/1" value="1" leadInLength="0/1"  name="opacity"/>
            </Parameters>
            <Attributes>
             <Attribute id="4975" value="" name="ident"/>
            </Attributes>
            <MetaData>
             <entry key="WinSubProjectDisplayName" val=""/>
            </MetaData>
            <ExtraData>
             <Entry key="ZoomPanBin">
              <ZoomPanBin id="4976"  >
               <ZoomPanKeyframes>
               </ZoomPanKeyframes>
              </ZoomPanBin>
             </Entry>
            </ExtraData>
           </VMFile>
           <VMFile id="4977" start="9264" duration="25" scalar="1/1" mediaStart="30200/1" mediaDuration="25/1" trackNumber="0" src="4" >
            <Transformer>
             <VectorParam id="4978"  name="translation">
              <InterpolatingParam id="4979" interp="linr"  time="-9999999/1" value="0" leadInLength="0/1"  />
              <InterpolatingParam id="4980" interp="linr"  time="-9999999/1" value="0" leadInLength="0/1"  />
              <InterpolatingParam id="4981" interp="linr"  time="-9999999/1" value="0" leadInLength="0/1"  />
             </VectorParam>
             <VectorParam id="4982"  name="rotation">
              <InterpolatingParam id="4983" interp="linr"  time="-9999999/1" value="0" leadInLength="0/1"  />
              <InterpolatingParam id="4984" interp="linr"  time="-9999999/1" value="0" leadInLength="0/1"  />
              <InterpolatingParam id="4985" interp="linr"  time="-9999999/1" value="0" leadInLength="0/1"  />
             </VectorParam>
             <VectorParam id="4986"  name="shear">
              <InterpolatingParam id="4987" interp="linr"  time="-9999999/1" value="0" leadInLength="0/1"  />
              <InterpolatingParam id="4988" interp="linr"  time="-9999999/1" value="0" leadInLength="0/1"  />
              <InterpolatingParam id="4989" interp="linr"  time="-9999999/1" value="0" leadInLength="0/1"  />
             </VectorParam>
             <VectorParam id="4990"  name="scale">
              <InterpolatingParam id="4991" interp="linr"  time="-9999999/1" value="1" leadInLength="0/1"  />
              <InterpolatingParam id="4992" interp="linr"  time="-9999999/1" value="1" leadInLength="0/1"  />
              <InterpolatingParam id="4993" interp="linr"  time="-9999999/1" value="1" leadInLength="0/1"  />
             </VectorParam>
             <VectorParam id="4994"  name="anchor">
              <InterpolatingParam id="4995" interp="linr"  time="0/1" value="0" leadInLength="0/1"  />
              <InterpolatingParam id="4996" interp="linr"  time="0/1" value="0" leadInLength="0/1"  />
              <InterpolatingParam id="4997" interp="linr"  time="0/1" value="0" leadInLength="0/1"  />
             </VectorParam>
            </Transformer>
            <Parameters>
             <VectorParam id="4998"  name="sourceCrop">
              <InterpolatingParam id="4999" interp="linr"  time="0/1" value="0" leadInLength="0/1"  />
              <InterpolatingParam id="5000" interp="linr"  time="0/1" value="0" leadInLength="0/1"  />
              <InterpolatingParam id="5001" interp="linr"  time="0/1" value="0" leadInLength="0/1"  />
              <InterpolatingParam id="5002" interp="linr"  time="0/1" value="0" leadInLength="0/1"  />
             </VectorParam>
             <VectorParam id="5003"  name="geometryCrop">
              <InterpolatingParam id="5004" interp="linr"  time="-9999999/1" value="0" leadInLength="0/1"  />
              <InterpolatingParam id="5005" interp="linr"  time="-9999999/1" value="0" leadInLength="0/1"  />
              <InterpolatingParam id="5006" interp="linr"  time="-9999999/1" value="0" leadInLength="0/1"  />
              <InterpolatingParam id="5007" interp="linr"  time="-9999999/1" value="0" leadInLength="0/1"  />
             </VectorParam>
             <InterpolatingParam id="5008" interp="linr"  time="-9999999/1" value="1" leadInLength="0/1"  name="opacity"/>
            </Parameters>
            <Attributes>
             <Attribute id="5009" value="" name="ident"/>
            </Attributes>
            <MetaData>
             <entry key="WinSubProjectDisplayName" val=""/>
            </MetaData>
            <ExtraData>
             <Entry key="ZoomPanBin">
              <ZoomPanBin id="5010"  >
               <ZoomPanKeyframes>
               </ZoomPanKeyframes>
              </ZoomPanBin>
             </Entry>
            </ExtraData>
           </VMFile>
           <VMFile id="5011" start="9289" duration="119" scalar="1/1" mediaStart="30368/1" mediaDuration="119/1" trackNumber="0" src="4" >
            <Transformer>
             <VectorParam id="5012"  name="translation">
              <InterpolatingParam id="5013" interp="linr"  time="-9999999/1" value="0" leadInLength="0/1"  />
              <InterpolatingParam id="5014" interp="linr"  time="-9999999/1" value="0" leadInLength="0/1"  />
              <InterpolatingParam id="5015" interp="linr"  time="-9999999/1" value="0" leadInLength="0/1"  />
             </VectorParam>
             <VectorParam id="5016"  name="rotation">
              <InterpolatingParam id="5017" interp="linr"  time="-9999999/1" value="0" leadInLength="0/1"  />
              <InterpolatingParam id="5018" interp="linr"  time="-9999999/1" value="0" leadInLength="0/1"  />
              <InterpolatingParam id="5019" interp="linr"  time="-9999999/1" value="0" leadInLength="0/1"  />
             </VectorParam>
             <VectorParam id="5020"  name="shear">
              <InterpolatingParam id="5021" interp="linr"  time="-9999999/1" value="0" leadInLength="0/1"  />
              <InterpolatingParam id="5022" interp="linr"  time="-9999999/1" value="0" leadInLength="0/1"  />
              <InterpolatingParam id="5023" interp="linr"  time="-9999999/1" value="0" leadInLength="0/1"  />
             </VectorParam>
             <VectorParam id="5024"  name="scale">
              <InterpolatingParam id="5025" interp="linr"  time="-9999999/1" value="1" leadInLength="0/1"  />
              <InterpolatingParam id="5026" interp="linr"  time="-9999999/1" value="1" leadInLength="0/1"  />
              <InterpolatingParam id="5027" interp="linr"  time="-9999999/1" value="1" leadInLength="0/1"  />
             </VectorParam>
             <VectorParam id="5028"  name="anchor">
              <InterpolatingParam id="5029" interp="linr"  time="0/1" value="0" leadInLength="0/1"  />
              <InterpolatingParam id="5030" interp="linr"  time="0/1" value="0" leadInLength="0/1"  />
              <InterpolatingParam id="5031" interp="linr"  time="0/1" value="0" leadInLength="0/1"  />
             </VectorParam>
            </Transformer>
            <Parameters>
             <VectorParam id="5032"  name="sourceCrop">
              <InterpolatingParam id="5033" interp="linr"  time="0/1" value="0" leadInLength="0/1"  />
              <InterpolatingParam id="5034" interp="linr"  time="0/1" value="0" leadInLength="0/1"  />
              <InterpolatingParam id="5035" interp="linr"  time="0/1" value="0" leadInLength="0/1"  />
              <InterpolatingParam id="5036" interp="linr"  time="0/1" value="0" leadInLength="0/1"  />
             </VectorParam>
             <VectorParam id="5037"  name="geometryCrop">
              <InterpolatingParam id="5038" interp="linr"  time="-9999999/1" value="0" leadInLength="0/1"  />
              <InterpolatingParam id="5039" interp="linr"  time="-9999999/1" value="0" leadInLength="0/1"  />
              <InterpolatingParam id="5040" interp="linr"  time="-9999999/1" value="0" leadInLength="0/1"  />
              <InterpolatingParam id="5041" interp="linr"  time="-9999999/1" value="0" leadInLength="0/1"  />
             </VectorParam>
             <InterpolatingParam id="5042" interp="linr"  time="-9999999/1" value="1" leadInLength="0/1"  name="opacity"/>
            </Parameters>
            <Attributes>
             <Attribute id="5043" value="" name="ident"/>
            </Attributes>
            <MetaData>
             <entry key="WinSubProjectDisplayName" val=""/>
            </MetaData>
            <ExtraData>
             <Entry key="ZoomPanBin">
              <ZoomPanBin id="5044"  >
               <ZoomPanKeyframes>
               </ZoomPanKeyframes>
              </ZoomPanBin>
             </Entry>
            </ExtraData>
           </VMFile>
           <VMFile id="5045" start="9408" duration="411" scalar="1/1" mediaStart="30756/1" mediaDuration="411/1" trackNumber="0" src="4" >
            <Transformer>
             <VectorParam id="5046"  name="translation">
              <InterpolatingParam id="5047" interp="linr"  time="-9999999/1" value="0" leadInLength="0/1"  />
              <InterpolatingParam id="5048" interp="linr"  time="-9999999/1" value="0" leadInLength="0/1"  />
              <InterpolatingParam id="5049" interp="linr"  time="-9999999/1" value="0" leadInLength="0/1"  />
             </VectorParam>
             <VectorParam id="5050"  name="rotation">
              <InterpolatingParam id="5051" interp="linr"  time="-9999999/1" value="0" leadInLength="0/1"  />
              <InterpolatingParam id="5052" interp="linr"  time="-9999999/1" value="0" leadInLength="0/1"  />
              <InterpolatingParam id="5053" interp="linr"  time="-9999999/1" value="0" leadInLength="0/1"  />
             </VectorParam>
             <VectorParam id="5054"  name="shear">
              <InterpolatingParam id="5055" interp="linr"  time="-9999999/1" value="0" leadInLength="0/1"  />
              <InterpolatingParam id="5056" interp="linr"  time="-9999999/1" value="0" leadInLength="0/1"  />
              <InterpolatingParam id="5057" interp="linr"  time="-9999999/1" value="0" leadInLength="0/1"  />
             </VectorParam>
             <VectorParam id="5058"  name="scale">
              <InterpolatingParam id="5059" interp="linr"  time="-9999999/1" value="1" leadInLength="0/1"  />
              <InterpolatingParam id="5060" interp="linr"  time="-9999999/1" value="1" leadInLength="0/1"  />
              <InterpolatingParam id="5061" interp="linr"  time="-9999999/1" value="1" leadInLength="0/1"  />
             </VectorParam>
             <VectorParam id="5062"  name="anchor">
              <InterpolatingParam id="5063" interp="linr"  time="0/1" value="0" leadInLength="0/1"  />
              <InterpolatingParam id="5064" interp="linr"  time="0/1" value="0" leadInLength="0/1"  />
              <InterpolatingParam id="5065" interp="linr"  time="0/1" value="0" leadInLength="0/1"  />
             </VectorParam>
            </Transformer>
            <Parameters>
             <VectorParam id="5066"  name="sourceCrop">
              <InterpolatingParam id="5067" interp="linr"  time="0/1" value="0" leadInLength="0/1"  />
              <InterpolatingParam id="5068" interp="linr"  time="0/1" value="0" leadInLength="0/1"  />
              <InterpolatingParam id="5069" interp="linr"  time="0/1" value="0" leadInLength="0/1"  />
              <InterpolatingParam id="5070" interp="linr"  time="0/1" value="0" leadInLength="0/1"  />
             </VectorParam>
             <VectorParam id="5071"  name="geometryCrop">
              <InterpolatingParam id="5072" interp="linr"  time="-9999999/1" value="0" leadInLength="0/1"  />
              <InterpolatingParam id="5073" interp="linr"  time="-9999999/1" value="0" leadInLength="0/1"  />
              <InterpolatingParam id="5074" interp="linr"  time="-9999999/1" value="0" leadInLength="0/1"  />
              <InterpolatingParam id="5075" interp="linr"  time="-9999999/1" value="0" leadInLength="0/1"  />
             </VectorParam>
             <InterpolatingParam id="5076" interp="linr"  time="-9999999/1" value="1" leadInLength="0/1"  name="opacity"/>
            </Parameters>
            <Attributes>
             <Attribute id="5077" value="" name="ident"/>
            </Attributes>
            <MetaData>
             <entry key="WinSubProjectDisplayName" val=""/>
            </MetaData>
            <ExtraData>
             <Entry key="ZoomPanBin">
              <ZoomPanBin id="5078"  >
               <ZoomPanKeyframes>
               </ZoomPanKeyframes>
              </ZoomPanBin>
             </Entry>
            </ExtraData>
           </VMFile>
          </Medias>
         </GenericTrack>
        </StitchedMedia>
        <StitchedMedia id="5079" start="1275" duration="30" scalar="5405/8108" mediaStart="12547911/5405" mediaDuration="48648/1081" minMediaStart="0/1" >
         <Transformer>
          <VectorParam id="5080"  name="translation">
           <InterpolatingParam id="5081" interp="linr"  time="-9999999/1" value="0" leadInLength="0/1"  interpolater="leadin-linr"  />
           <InterpolatingParam id="5082" interp="linr"  time="-9999999/1" value="0" leadInLength="0/1"  interpolater="leadin-linr"  />
           <InterpolatingParam id="5083" interp="linr"  time="-9999999/1" value="0" leadInLength="0/1"  interpolater="leadin-linr"  />
          </VectorParam>
          <VectorParam id="5084"  name="rotation">
           <InterpolatingParam id="5085" interp="linr"  time="-9999999/1" value="0" leadInLength="0/1"  interpolater="leadin-linr"  />
           <InterpolatingParam id="5086" interp="linr"  time="-9999999/1" value="0" leadInLength="0/1"  interpolater="leadin-linr"  />
           <InterpolatingParam id="5087" interp="linr"  time="-9999999/1" value="0" leadInLength="0/1"  interpolater="leadin-linr"  />
          </VectorParam>
          <VectorParam id="5088"  name="shear">
           <InterpolatingParam id="5089" interp="linr"  time="-9999999/1" value="0" leadInLength="0/1"  interpolater="leadin-linr"  />
           <InterpolatingParam id="5090" interp="linr"  time="-9999999/1" value="0" leadInLength="0/1"  interpolater="leadin-linr"  />
           <InterpolatingParam id="5091" interp="linr"  time="-9999999/1" value="0" leadInLength="0/1"  interpolater="leadin-linr"  />
          </VectorParam>
          <VectorParam id="5092"  name="scale">
           <InterpolatingParam id="5093" interp="linr"  time="-9999999/1" value="1" leadInLength="0/1"  interpolater="leadin-linr"  />
           <InterpolatingParam id="5094" interp="linr"  time="-9999999/1" value="1" leadInLength="0/1"  interpolater="leadin-linr"  />
           <InterpolatingParam id="5095" interp="linr"  time="-9999999/1" value="1" leadInLength="0/1"  interpolater="leadin-linr"  />
          </VectorParam>
          <VectorParam id="5096"  name="anchor">
           <InterpolatingParam id="5097" interp="linr"  >
            <Keyframes>
            <Keyframe id="5098"  time="8386/1" value="0" leadInLength="0/1"  />
            <Keyframe id="5099"  time="8464/1" value="0" leadInLength="0/1"  />
            </Keyframes>
           </InterpolatingParam>
           <InterpolatingParam id="5100" interp="linr"  >
            <Keyframes>
            <Keyframe id="5101"  time="8386/1" value="0" leadInLength="0/1"  />
            <Keyframe id="5102"  time="8464/1" value="0" leadInLength="0/1"  />
            </Keyframes>
           </InterpolatingParam>
           <InterpolatingParam id="5103" interp="linr"  >
            <Keyframes>
            <Keyframe id="5104"  time="8386/1" value="0" leadInLength="0/1"  />
            <Keyframe id="5105"  time="8464/1" value="0" leadInLength="0/1"  />
            </Keyframes>
           </InterpolatingParam>
          </VectorParam>
         </Transformer>
         <Parameters>
          <VectorParam id="5106"  name="sourceCrop">
           <InterpolatingParam id="5107" interp="linr"  >
            <Keyframes>
            <Keyframe id="5108"  time="8386/1" value="0" leadInLength="0/1"  />
            <Keyframe id="5109"  time="8464/1" value="0" leadInLength="0/1"  />
            </Keyframes>
           </InterpolatingParam>
           <InterpolatingParam id="5110" interp="linr"  >
            <Keyframes>
            <Keyframe id="5111"  time="8386/1" value="0" leadInLength="0/1"  />
            <Keyframe id="5112"  time="8464/1" value="0" leadInLength="0/1"  />
            </Keyframes>
           </InterpolatingParam>
           <InterpolatingParam id="5113" interp="linr"  >
            <Keyframes>
            <Keyframe id="5114"  time="8386/1" value="0" leadInLength="0/1"  />
            <Keyframe id="5115"  time="8464/1" value="0" leadInLength="0/1"  />
            </Keyframes>
           </InterpolatingParam>
           <InterpolatingParam id="5116" interp="linr"  >
            <Keyframes>
            <Keyframe id="5117"  time="8386/1" value="0" leadInLength="0/1"  />
            <Keyframe id="5118"  time="8464/1" value="0" leadInLength="0/1"  />
            </Keyframes>
           </InterpolatingParam>
          </VectorParam>
          <VectorParam id="5119"  name="geometryCrop">
           <InterpolatingParam id="5120" interp="linr"  time="-9999999/1" value="0" leadInLength="0/1"  interpolater="leadin-linr"  />
           <InterpolatingParam id="5121" interp="linr"  time="-9999999/1" value="0" leadInLength="0/1"  interpolater="leadin-linr"  />
           <InterpolatingParam id="5122" interp="linr"  time="-9999999/1" value="0" leadInLength="0/1"  interpolater="leadin-linr"  />
           <InterpolatingParam id="5123" interp="linr"  time="-9999999/1" value="0" leadInLength="0/1"  interpolater="leadin-linr"  />
          </VectorParam>
          <InterpolatingParam id="5124" interp="linr"  time="-9999999/1" value="1" leadInLength="0/1"  interpolater="leadin-linr"  name="opacity"/>
          <InterpolatingParam id="5125" interp="linr"  time="0/1" value="1" leadInLength="0/1"  name="cursorOpacity"/>
          <InterpolatingParam id="5126" interp="linr"  time="0/1" value="1" leadInLength="0/1"  name="cursorScale"/>
          <Parameter id="5127"  name="captions"/>
         </Parameters>
         <Attributes>
          <Attribute id="5128" value="" name="ident"/>
         </Attributes>
         <MetaData>
          <entry key="WinSubProjectDisplayName" val=""/>
         </MetaData>
         <ExtraData>
          <Entry key="ZoomPanBin">
           <ZoomPanBin id="5129"  >
            <ZoomPanKeyframes>
             <ZoomPanKeyframe id="5130" timeRangeEnd="-9999999/1" timeRangeDuration="0/1" interpolaterName="linr"  />
            </ZoomPanKeyframes>
           </ZoomPanBin>
          </Entry>
          <Entry key="CursorEffectBin">
           <CursorEffectBin id="5131"  >
            <CursorEffectKeyframes>
            </CursorEffectKeyframes>
           </CursorEffectBin>
          </Entry>
         </ExtraData>
         <GenericTrack id="5132"  >
          <Attributes>
           <Attribute id="5133" value="" name="ident"/>
           <Attribute id="5134" value="0" name="audioMuted"/>
           <Attribute id="5135" value="0" name="videoHidden"/>
          </Attributes>
          <MetaData>
           <entry key="IsLocked" val="False"/>
           <entry key="WinTrackHeight" val="0"/>
          </MetaData>
          <Medias>
           <VMFile id="5136" start="0" duration="1880" scalar="1/1" mediaStart="0/1" mediaDuration="1880/1" trackNumber="0" src="4" >
            <Transformer>
             <VectorParam id="5137"  name="translation">
              <InterpolatingParam id="5138" interp="linr"  time="-9999999/1" value="0" leadInLength="0/1"  />
              <InterpolatingParam id="5139" interp="linr"  time="-9999999/1" value="0" leadInLength="0/1"  />
              <InterpolatingParam id="5140" interp="linr"  time="-9999999/1" value="0" leadInLength="0/1"  />
             </VectorParam>
             <VectorParam id="5141"  name="rotation">
              <InterpolatingParam id="5142" interp="linr"  time="-9999999/1" value="0" leadInLength="0/1"  />
              <InterpolatingParam id="5143" interp="linr"  time="-9999999/1" value="0" leadInLength="0/1"  />
              <InterpolatingParam id="5144" interp="linr"  time="-9999999/1" value="0" leadInLength="0/1"  />
             </VectorParam>
             <VectorParam id="5145"  name="shear">
              <InterpolatingParam id="5146" interp="linr"  time="-9999999/1" value="0" leadInLength="0/1"  />
              <InterpolatingParam id="5147" interp="linr"  time="-9999999/1" value="0" leadInLength="0/1"  />
              <InterpolatingParam id="5148" interp="linr"  time="-9999999/1" value="0" leadInLength="0/1"  />
             </VectorParam>
             <VectorParam id="5149"  name="scale">
              <InterpolatingParam id="5150" interp="linr"  time="-9999999/1" value="1" leadInLength="0/1"  />
              <InterpolatingParam id="5151" interp="linr"  time="-9999999/1" value="1" leadInLength="0/1"  />
              <InterpolatingParam id="5152" interp="linr"  time="-9999999/1" value="1" leadInLength="0/1"  />
             </VectorParam>
             <VectorParam id="5153"  name="anchor">
              <InterpolatingParam id="5154" interp="linr"  time="0/1" value="0" leadInLength="0/1"  />
              <InterpolatingParam id="5155" interp="linr"  time="0/1" value="0" leadInLength="0/1"  />
              <InterpolatingParam id="5156" interp="linr"  time="0/1" value="0" leadInLength="0/1"  />
             </VectorParam>
            </Transformer>
            <Parameters>
             <VectorParam id="5157"  name="sourceCrop">
              <InterpolatingParam id="5158" interp="linr"  time="0/1" value="0" leadInLength="0/1"  />
              <InterpolatingParam id="5159" interp="linr"  time="0/1" value="0" leadInLength="0/1"  />
              <InterpolatingParam id="5160" interp="linr"  time="0/1" value="0" leadInLength="0/1"  />
              <InterpolatingParam id="5161" interp="linr"  time="0/1" value="0" leadInLength="0/1"  />
             </VectorParam>
             <VectorParam id="5162"  name="geometryCrop">
              <InterpolatingParam id="5163" interp="linr"  time="-9999999/1" value="0" leadInLength="0/1"  />
              <InterpolatingParam id="5164" interp="linr"  time="-9999999/1" value="0" leadInLength="0/1"  />
              <InterpolatingParam id="5165" interp="linr"  time="-9999999/1" value="0" leadInLength="0/1"  />
              <InterpolatingParam id="5166" interp="linr"  time="-9999999/1" value="0" leadInLength="0/1"  />
             </VectorParam>
             <InterpolatingParam id="5167" interp="linr"  time="-9999999/1" value="1" leadInLength="0/1"  name="opacity"/>
            </Parameters>
            <Attributes>
             <Attribute id="5168" value="" name="ident"/>
            </Attributes>
            <MetaData>
             <entry key="WinSubProjectDisplayName" val=""/>
            </MetaData>
            <ExtraData>
             <Entry key="ZoomPanBin">
              <ZoomPanBin id="5169"  >
               <ZoomPanKeyframes>
               </ZoomPanKeyframes>
              </ZoomPanBin>
             </Entry>
            </ExtraData>
           </VMFile>
           <VMFile id="5170" start="1880" duration="144" scalar="1/1" mediaStart="2061/1" mediaDuration="144/1" trackNumber="0" src="4" >
            <Transformer>
             <VectorParam id="5171"  name="translation">
              <InterpolatingParam id="5172" interp="linr"  time="-9999999/1" value="0" leadInLength="0/1"  />
              <InterpolatingParam id="5173" interp="linr"  time="-9999999/1" value="0" leadInLength="0/1"  />
              <InterpolatingParam id="5174" interp="linr"  time="-9999999/1" value="0" leadInLength="0/1"  />
             </VectorParam>
             <VectorParam id="5175"  name="rotation">
              <InterpolatingParam id="5176" interp="linr"  time="-9999999/1" value="0" leadInLength="0/1"  />
              <InterpolatingParam id="5177" interp="linr"  time="-9999999/1" value="0" leadInLength="0/1"  />
              <InterpolatingParam id="5178" interp="linr"  time="-9999999/1" value="0" leadInLength="0/1"  />
             </VectorParam>
             <VectorParam id="5179"  name="shear">
              <InterpolatingParam id="5180" interp="linr"  time="-9999999/1" value="0" leadInLength="0/1"  />
              <InterpolatingParam id="5181" interp="linr"  time="-9999999/1" value="0" leadInLength="0/1"  />
              <InterpolatingParam id="5182" interp="linr"  time="-9999999/1" value="0" leadInLength="0/1"  />
             </VectorParam>
             <VectorParam id="5183"  name="scale">
              <InterpolatingParam id="5184" interp="linr"  time="-9999999/1" value="1" leadInLength="0/1"  />
              <InterpolatingParam id="5185" interp="linr"  time="-9999999/1" value="1" leadInLength="0/1"  />
              <InterpolatingParam id="5186" interp="linr"  time="-9999999/1" value="1" leadInLength="0/1"  />
             </VectorParam>
             <VectorParam id="5187"  name="anchor">
              <InterpolatingParam id="5188" interp="linr"  time="0/1" value="0" leadInLength="0/1"  />
              <InterpolatingParam id="5189" interp="linr"  time="0/1" value="0" leadInLength="0/1"  />
              <InterpolatingParam id="5190" interp="linr"  time="0/1" value="0" leadInLength="0/1"  />
             </VectorParam>
            </Transformer>
            <Parameters>
             <VectorParam id="5191"  name="sourceCrop">
              <InterpolatingParam id="5192" interp="linr"  time="0/1" value="0" leadInLength="0/1"  />
              <InterpolatingParam id="5193" interp="linr"  time="0/1" value="0" leadInLength="0/1"  />
              <InterpolatingParam id="5194" interp="linr"  time="0/1" value="0" leadInLength="0/1"  />
              <InterpolatingParam id="5195" interp="linr"  time="0/1" value="0" leadInLength="0/1"  />
             </VectorParam>
             <VectorParam id="5196"  name="geometryCrop">
              <InterpolatingParam id="5197" interp="linr"  time="-9999999/1" value="0" leadInLength="0/1"  />
              <InterpolatingParam id="5198" interp="linr"  time="-9999999/1" value="0" leadInLength="0/1"  />
              <InterpolatingParam id="5199" interp="linr"  time="-9999999/1" value="0" leadInLength="0/1"  />
              <InterpolatingParam id="5200" interp="linr"  time="-9999999/1" value="0" leadInLength="0/1"  />
             </VectorParam>
             <InterpolatingParam id="5201" interp="linr"  time="-9999999/1" value="1" leadInLength="0/1"  name="opacity"/>
            </Parameters>
            <Attributes>
             <Attribute id="5202" value="" name="ident"/>
            </Attributes>
            <MetaData>
             <entry key="WinSubProjectDisplayName" val=""/>
            </MetaData>
            <ExtraData>
             <Entry key="ZoomPanBin">
              <ZoomPanBin id="5203"  >
               <ZoomPanKeyframes>
               </ZoomPanKeyframes>
              </ZoomPanBin>
             </Entry>
            </ExtraData>
           </VMFile>
           <VMFile id="5204" start="2024" duration="474" scalar="1/1" mediaStart="2294/1" mediaDuration="474/1" trackNumber="0" src="4" >
            <Transformer>
             <VectorParam id="5205"  name="translation">
              <InterpolatingParam id="5206" interp="linr"  time="-9999999/1" value="0" leadInLength="0/1"  />
              <InterpolatingParam id="5207" interp="linr"  time="-9999999/1" value="0" leadInLength="0/1"  />
              <InterpolatingParam id="5208" interp="linr"  time="-9999999/1" value="0" leadInLength="0/1"  />
             </VectorParam>
             <VectorParam id="5209"  name="rotation">
              <InterpolatingParam id="5210" interp="linr"  time="-9999999/1" value="0" leadInLength="0/1"  />
              <InterpolatingParam id="5211" interp="linr"  time="-9999999/1" value="0" leadInLength="0/1"  />
              <InterpolatingParam id="5212" interp="linr"  time="-9999999/1" value="0" leadInLength="0/1"  />
             </VectorParam>
             <VectorParam id="5213"  name="shear">
              <InterpolatingParam id="5214" interp="linr"  time="-9999999/1" value="0" leadInLength="0/1"  />
              <InterpolatingParam id="5215" interp="linr"  time="-9999999/1" value="0" leadInLength="0/1"  />
              <InterpolatingParam id="5216" interp="linr"  time="-9999999/1" value="0" leadInLength="0/1"  />
             </VectorParam>
             <VectorParam id="5217"  name="scale">
              <InterpolatingParam id="5218" interp="linr"  time="-9999999/1" value="1" leadInLength="0/1"  />
              <InterpolatingParam id="5219" interp="linr"  time="-9999999/1" value="1" leadInLength="0/1"  />
              <InterpolatingParam id="5220" interp="linr"  time="-9999999/1" value="1" leadInLength="0/1"  />
             </VectorParam>
             <VectorParam id="5221"  name="anchor">
              <InterpolatingParam id="5222" interp="linr"  time="0/1" value="0" leadInLength="0/1"  />
              <InterpolatingParam id="5223" interp="linr"  time="0/1" value="0" leadInLength="0/1"  />
              <InterpolatingParam id="5224" interp="linr"  time="0/1" value="0" leadInLength="0/1"  />
             </VectorParam>
            </Transformer>
            <Parameters>
             <VectorParam id="5225"  name="sourceCrop">
              <InterpolatingParam id="5226" interp="linr"  time="0/1" value="0" leadInLength="0/1"  />
              <InterpolatingParam id="5227" interp="linr"  time="0/1" value="0" leadInLength="0/1"  />
              <InterpolatingParam id="5228" interp="linr"  time="0/1" value="0" leadInLength="0/1"  />
              <InterpolatingParam id="5229" interp="linr"  time="0/1" value="0" leadInLength="0/1"  />
             </VectorParam>
             <VectorParam id="5230"  name="geometryCrop">
              <InterpolatingParam id="5231" interp="linr"  time="-9999999/1" value="0" leadInLength="0/1"  />
              <InterpolatingParam id="5232" interp="linr"  time="-9999999/1" value="0" leadInLength="0/1"  />
              <InterpolatingParam id="5233" interp="linr"  time="-9999999/1" value="0" leadInLength="0/1"  />
              <InterpolatingParam id="5234" interp="linr"  time="-9999999/1" value="0" leadInLength="0/1"  />
             </VectorParam>
             <InterpolatingParam id="5235" interp="linr"  time="-9999999/1" value="1" leadInLength="0/1"  name="opacity"/>
            </Parameters>
            <Attributes>
             <Attribute id="5236" value="" name="ident"/>
            </Attributes>
            <MetaData>
             <entry key="WinSubProjectDisplayName" val=""/>
            </MetaData>
            <ExtraData>
             <Entry key="ZoomPanBin">
              <ZoomPanBin id="5237"  >
               <ZoomPanKeyframes>
               </ZoomPanKeyframes>
              </ZoomPanBin>
             </Entry>
            </ExtraData>
           </VMFile>
           <VMFile id="5238" start="2498" duration="386" scalar="1/1" mediaStart="2880/1" mediaDuration="386/1" trackNumber="0" src="4" >
            <Transformer>
             <VectorParam id="5239"  name="translation">
              <InterpolatingParam id="5240" interp="linr"  time="-9999999/1" value="0" leadInLength="0/1"  />
              <InterpolatingParam id="5241" interp="linr"  time="-9999999/1" value="0" leadInLength="0/1"  />
              <InterpolatingParam id="5242" interp="linr"  time="-9999999/1" value="0" leadInLength="0/1"  />
             </VectorParam>
             <VectorParam id="5243"  name="rotation">
              <InterpolatingParam id="5244" interp="linr"  time="-9999999/1" value="0" leadInLength="0/1"  />
              <InterpolatingParam id="5245" interp="linr"  time="-9999999/1" value="0" leadInLength="0/1"  />
              <InterpolatingParam id="5246" interp="linr"  time="-9999999/1" value="0" leadInLength="0/1"  />
             </VectorParam>
             <VectorParam id="5247"  name="shear">
              <InterpolatingParam id="5248" interp="linr"  time="-9999999/1" value="0" leadInLength="0/1"  />
              <InterpolatingParam id="5249" interp="linr"  time="-9999999/1" value="0" leadInLength="0/1"  />
              <InterpolatingParam id="5250" interp="linr"  time="-9999999/1" value="0" leadInLength="0/1"  />
             </VectorParam>
             <VectorParam id="5251"  name="scale">
              <InterpolatingParam id="5252" interp="linr"  time="-9999999/1" value="1" leadInLength="0/1"  />
              <InterpolatingParam id="5253" interp="linr"  time="-9999999/1" value="1" leadInLength="0/1"  />
              <InterpolatingParam id="5254" interp="linr"  time="-9999999/1" value="1" leadInLength="0/1"  />
             </VectorParam>
             <VectorParam id="5255"  name="anchor">
              <InterpolatingParam id="5256" interp="linr"  time="0/1" value="0" leadInLength="0/1"  />
              <InterpolatingParam id="5257" interp="linr"  time="0/1" value="0" leadInLength="0/1"  />
              <InterpolatingParam id="5258" interp="linr"  time="0/1" value="0" leadInLength="0/1"  />
             </VectorParam>
            </Transformer>
            <Parameters>
             <VectorParam id="5259"  name="sourceCrop">
              <InterpolatingParam id="5260" interp="linr"  time="0/1" value="0" leadInLength="0/1"  />
              <InterpolatingParam id="5261" interp="linr"  time="0/1" value="0" leadInLength="0/1"  />
              <InterpolatingParam id="5262" interp="linr"  time="0/1" value="0" leadInLength="0/1"  />
              <InterpolatingParam id="5263" interp="linr"  time="0/1" value="0" leadInLength="0/1"  />
             </VectorParam>
             <VectorParam id="5264"  name="geometryCrop">
              <InterpolatingParam id="5265" interp="linr"  time="-9999999/1" value="0" leadInLength="0/1"  />
              <InterpolatingParam id="5266" interp="linr"  time="-9999999/1" value="0" leadInLength="0/1"  />
              <InterpolatingParam id="5267" interp="linr"  time="-9999999/1" value="0" leadInLength="0/1"  />
              <InterpolatingParam id="5268" interp="linr"  time="-9999999/1" value="0" leadInLength="0/1"  />
             </VectorParam>
             <InterpolatingParam id="5269" interp="linr"  time="-9999999/1" value="1" leadInLength="0/1"  name="opacity"/>
            </Parameters>
            <Attributes>
             <Attribute id="5270" value="" name="ident"/>
            </Attributes>
            <MetaData>
             <entry key="WinSubProjectDisplayName" val=""/>
            </MetaData>
            <ExtraData>
             <Entry key="ZoomPanBin">
              <ZoomPanBin id="5271"  >
               <ZoomPanKeyframes>
               </ZoomPanKeyframes>
              </ZoomPanBin>
             </Entry>
            </ExtraData>
           </VMFile>
           <VMFile id="5272" start="2884" duration="314" scalar="1/1" mediaStart="4032/1" mediaDuration="314/1" trackNumber="0" src="4" >
            <Transformer>
             <VectorParam id="5273"  name="translation">
              <InterpolatingParam id="5274" interp="linr"  time="-9999999/1" value="0" leadInLength="0/1"  />
              <InterpolatingParam id="5275" interp="linr"  time="-9999999/1" value="0" leadInLength="0/1"  />
              <InterpolatingParam id="5276" interp="linr"  time="-9999999/1" value="0" leadInLength="0/1"  />
             </VectorParam>
             <VectorParam id="5277"  name="rotation">
              <InterpolatingParam id="5278" interp="linr"  time="-9999999/1" value="0" leadInLength="0/1"  />
              <InterpolatingParam id="5279" interp="linr"  time="-9999999/1" value="0" leadInLength="0/1"  />
              <InterpolatingParam id="5280" interp="linr"  time="-9999999/1" value="0" leadInLength="0/1"  />
             </VectorParam>
             <VectorParam id="5281"  name="shear">
              <InterpolatingParam id="5282" interp="linr"  time="-9999999/1" value="0" leadInLength="0/1"  />
              <InterpolatingParam id="5283" interp="linr"  time="-9999999/1" value="0" leadInLength="0/1"  />
              <InterpolatingParam id="5284" interp="linr"  time="-9999999/1" value="0" leadInLength="0/1"  />
             </VectorParam>
             <VectorParam id="5285"  name="scale">
              <InterpolatingParam id="5286" interp="linr"  time="-9999999/1" value="1" leadInLength="0/1"  />
              <InterpolatingParam id="5287" interp="linr"  time="-9999999/1" value="1" leadInLength="0/1"  />
              <InterpolatingParam id="5288" interp="linr"  time="-9999999/1" value="1" leadInLength="0/1"  />
             </VectorParam>
             <VectorParam id="5289"  name="anchor">
              <InterpolatingParam id="5290" interp="linr"  time="0/1" value="0" leadInLength="0/1"  />
              <InterpolatingParam id="5291" interp="linr"  time="0/1" value="0" leadInLength="0/1"  />
              <InterpolatingParam id="5292" interp="linr"  time="0/1" value="0" leadInLength="0/1"  />
             </VectorParam>
            </Transformer>
            <Parameters>
             <VectorParam id="5293"  name="sourceCrop">
              <InterpolatingParam id="5294" interp="linr"  time="0/1" value="0" leadInLength="0/1"  />
              <InterpolatingParam id="5295" interp="linr"  time="0/1" value="0" leadInLength="0/1"  />
              <InterpolatingParam id="5296" interp="linr"  time="0/1" value="0" leadInLength="0/1"  />
              <InterpolatingParam id="5297" interp="linr"  time="0/1" value="0" leadInLength="0/1"  />
             </VectorParam>
             <VectorParam id="5298"  name="geometryCrop">
              <InterpolatingParam id="5299" interp="linr"  time="-9999999/1" value="0" leadInLength="0/1"  />
              <InterpolatingParam id="5300" interp="linr"  time="-9999999/1" value="0" leadInLength="0/1"  />
              <InterpolatingParam id="5301" interp="linr"  time="-9999999/1" value="0" leadInLength="0/1"  />
              <InterpolatingParam id="5302" interp="linr"  time="-9999999/1" value="0" leadInLength="0/1"  />
             </VectorParam>
             <InterpolatingParam id="5303" interp="linr"  time="-9999999/1" value="1" leadInLength="0/1"  name="opacity"/>
            </Parameters>
            <Attributes>
             <Attribute id="5304" value="" name="ident"/>
            </Attributes>
            <MetaData>
             <entry key="WinSubProjectDisplayName" val=""/>
            </MetaData>
            <ExtraData>
             <Entry key="ZoomPanBin">
              <ZoomPanBin id="5305"  >
               <ZoomPanKeyframes>
               </ZoomPanKeyframes>
              </ZoomPanBin>
             </Entry>
            </ExtraData>
           </VMFile>
           <VMFile id="5306" start="3198" duration="112" scalar="1/1" mediaStart="4751/1" mediaDuration="112/1" trackNumber="0" src="4" >
            <Transformer>
             <VectorParam id="5307"  name="translation">
              <InterpolatingParam id="5308" interp="linr"  time="-9999999/1" value="0" leadInLength="0/1"  />
              <InterpolatingParam id="5309" interp="linr"  time="-9999999/1" value="0" leadInLength="0/1"  />
              <InterpolatingParam id="5310" interp="linr"  time="-9999999/1" value="0" leadInLength="0/1"  />
             </VectorParam>
             <VectorParam id="5311"  name="rotation">
              <InterpolatingParam id="5312" interp="linr"  time="-9999999/1" value="0" leadInLength="0/1"  />
              <InterpolatingParam id="5313" interp="linr"  time="-9999999/1" value="0" leadInLength="0/1"  />
              <InterpolatingParam id="5314" interp="linr"  time="-9999999/1" value="0" leadInLength="0/1"  />
             </VectorParam>
             <VectorParam id="5315"  name="shear">
              <InterpolatingParam id="5316" interp="linr"  time="-9999999/1" value="0" leadInLength="0/1"  />
              <InterpolatingParam id="5317" interp="linr"  time="-9999999/1" value="0" leadInLength="0/1"  />
              <InterpolatingParam id="5318" interp="linr"  time="-9999999/1" value="0" leadInLength="0/1"  />
             </VectorParam>
             <VectorParam id="5319"  name="scale">
              <InterpolatingParam id="5320" interp="linr"  time="-9999999/1" value="1" leadInLength="0/1"  />
              <InterpolatingParam id="5321" interp="linr"  time="-9999999/1" value="1" leadInLength="0/1"  />
              <InterpolatingParam id="5322" interp="linr"  time="-9999999/1" value="1" leadInLength="0/1"  />
             </VectorParam>
             <VectorParam id="5323"  name="anchor">
              <InterpolatingParam id="5324" interp="linr"  time="0/1" value="0" leadInLength="0/1"  />
              <InterpolatingParam id="5325" interp="linr"  time="0/1" value="0" leadInLength="0/1"  />
              <InterpolatingParam id="5326" interp="linr"  time="0/1" value="0" leadInLength="0/1"  />
             </VectorParam>
            </Transformer>
            <Parameters>
             <VectorParam id="5327"  name="sourceCrop">
              <InterpolatingParam id="5328" interp="linr"  time="0/1" value="0" leadInLength="0/1"  />
              <InterpolatingParam id="5329" interp="linr"  time="0/1" value="0" leadInLength="0/1"  />
              <InterpolatingParam id="5330" interp="linr"  time="0/1" value="0" leadInLength="0/1"  />
              <InterpolatingParam id="5331" interp="linr"  time="0/1" value="0" leadInLength="0/1"  />
             </VectorParam>
             <VectorParam id="5332"  name="geometryCrop">
              <InterpolatingParam id="5333" interp="linr"  time="-9999999/1" value="0" leadInLength="0/1"  />
              <InterpolatingParam id="5334" interp="linr"  time="-9999999/1" value="0" leadInLength="0/1"  />
              <InterpolatingParam id="5335" interp="linr"  time="-9999999/1" value="0" leadInLength="0/1"  />
              <InterpolatingParam id="5336" interp="linr"  time="-9999999/1" value="0" leadInLength="0/1"  />
             </VectorParam>
             <InterpolatingParam id="5337" interp="linr"  time="-9999999/1" value="1" leadInLength="0/1"  name="opacity"/>
            </Parameters>
            <Attributes>
             <Attribute id="5338" value="" name="ident"/>
            </Attributes>
            <MetaData>
             <entry key="WinSubProjectDisplayName" val=""/>
            </MetaData>
            <ExtraData>
             <Entry key="ZoomPanBin">
              <ZoomPanBin id="5339"  >
               <ZoomPanKeyframes>
               </ZoomPanKeyframes>
              </ZoomPanBin>
             </Entry>
            </ExtraData>
           </VMFile>
           <VMFile id="5340" start="3310" duration="386" scalar="1/1" mediaStart="7805/1" mediaDuration="386/1" trackNumber="0" src="4" >
            <Transformer>
             <VectorParam id="5341"  name="translation">
              <InterpolatingParam id="5342" interp="linr"  time="-9999999/1" value="0" leadInLength="0/1"  />
              <InterpolatingParam id="5343" interp="linr"  time="-9999999/1" value="0" leadInLength="0/1"  />
              <InterpolatingParam id="5344" interp="linr"  time="-9999999/1" value="0" leadInLength="0/1"  />
             </VectorParam>
             <VectorParam id="5345"  name="rotation">
              <InterpolatingParam id="5346" interp="linr"  time="-9999999/1" value="0" leadInLength="0/1"  />
              <InterpolatingParam id="5347" interp="linr"  time="-9999999/1" value="0" leadInLength="0/1"  />
              <InterpolatingParam id="5348" interp="linr"  time="-9999999/1" value="0" leadInLength="0/1"  />
             </VectorParam>
             <VectorParam id="5349"  name="shear">
              <InterpolatingParam id="5350" interp="linr"  time="-9999999/1" value="0" leadInLength="0/1"  />
              <InterpolatingParam id="5351" interp="linr"  time="-9999999/1" value="0" leadInLength="0/1"  />
              <InterpolatingParam id="5352" interp="linr"  time="-9999999/1" value="0" leadInLength="0/1"  />
             </VectorParam>
             <VectorParam id="5353"  name="scale">
              <InterpolatingParam id="5354" interp="linr"  time="-9999999/1" value="1" leadInLength="0/1"  />
              <InterpolatingParam id="5355" interp="linr"  time="-9999999/1" value="1" leadInLength="0/1"  />
              <InterpolatingParam id="5356" interp="linr"  time="-9999999/1" value="1" leadInLength="0/1"  />
             </VectorParam>
             <VectorParam id="5357"  name="anchor">
              <InterpolatingParam id="5358" interp="linr"  time="0/1" value="0" leadInLength="0/1"  />
              <InterpolatingParam id="5359" interp="linr"  time="0/1" value="0" leadInLength="0/1"  />
              <InterpolatingParam id="5360" interp="linr"  time="0/1" value="0" leadInLength="0/1"  />
             </VectorParam>
            </Transformer>
            <Parameters>
             <VectorParam id="5361"  name="sourceCrop">
              <InterpolatingParam id="5362" interp="linr"  time="0/1" value="0" leadInLength="0/1"  />
              <InterpolatingParam id="5363" interp="linr"  time="0/1" value="0" leadInLength="0/1"  />
              <InterpolatingParam id="5364" interp="linr"  time="0/1" value="0" leadInLength="0/1"  />
              <InterpolatingParam id="5365" interp="linr"  time="0/1" value="0" leadInLength="0/1"  />
             </VectorParam>
             <VectorParam id="5366"  name="geometryCrop">
              <InterpolatingParam id="5367" interp="linr"  time="-9999999/1" value="0" leadInLength="0/1"  />
              <InterpolatingParam id="5368" interp="linr"  time="-9999999/1" value="0" leadInLength="0/1"  />
              <InterpolatingParam id="5369" interp="linr"  time="-9999999/1" value="0" leadInLength="0/1"  />
              <InterpolatingParam id="5370" interp="linr"  time="-9999999/1" value="0" leadInLength="0/1"  />
             </VectorParam>
             <InterpolatingParam id="5371" interp="linr"  time="-9999999/1" value="1" leadInLength="0/1"  name="opacity"/>
            </Parameters>
            <Attributes>
             <Attribute id="5372" value="" name="ident"/>
            </Attributes>
            <MetaData>
             <entry key="WinSubProjectDisplayName" val=""/>
            </MetaData>
            <ExtraData>
             <Entry key="ZoomPanBin">
              <ZoomPanBin id="5373"  >
               <ZoomPanKeyframes>
               </ZoomPanKeyframes>
              </ZoomPanBin>
             </Entry>
            </ExtraData>
           </VMFile>
           <VMFile id="5374" start="3696" duration="1007" scalar="1/1" mediaStart="8371/1" mediaDuration="1007/1" trackNumber="0" src="4" >
            <Transformer>
             <VectorParam id="5375"  name="translation">
              <InterpolatingParam id="5376" interp="linr"  time="-9999999/1" value="0" leadInLength="0/1"  />
              <InterpolatingParam id="5377" interp="linr"  time="-9999999/1" value="0" leadInLength="0/1"  />
              <InterpolatingParam id="5378" interp="linr"  time="-9999999/1" value="0" leadInLength="0/1"  />
             </VectorParam>
             <VectorParam id="5379"  name="rotation">
              <InterpolatingParam id="5380" interp="linr"  time="-9999999/1" value="0" leadInLength="0/1"  />
              <InterpolatingParam id="5381" interp="linr"  time="-9999999/1" value="0" leadInLength="0/1"  />
              <InterpolatingParam id="5382" interp="linr"  time="-9999999/1" value="0" leadInLength="0/1"  />
             </VectorParam>
             <VectorParam id="5383"  name="shear">
              <InterpolatingParam id="5384" interp="linr"  time="-9999999/1" value="0" leadInLength="0/1"  />
              <InterpolatingParam id="5385" interp="linr"  time="-9999999/1" value="0" leadInLength="0/1"  />
              <InterpolatingParam id="5386" interp="linr"  time="-9999999/1" value="0" leadInLength="0/1"  />
             </VectorParam>
             <VectorParam id="5387"  name="scale">
              <InterpolatingParam id="5388" interp="linr"  time="-9999999/1" value="1" leadInLength="0/1"  />
              <InterpolatingParam id="5389" interp="linr"  time="-9999999/1" value="1" leadInLength="0/1"  />
              <InterpolatingParam id="5390" interp="linr"  time="-9999999/1" value="1" leadInLength="0/1"  />
             </VectorParam>
             <VectorParam id="5391"  name="anchor">
              <InterpolatingParam id="5392" interp="linr"  time="0/1" value="0" leadInLength="0/1"  />
              <InterpolatingParam id="5393" interp="linr"  time="0/1" value="0" leadInLength="0/1"  />
              <InterpolatingParam id="5394" interp="linr"  time="0/1" value="0" leadInLength="0/1"  />
             </VectorParam>
            </Transformer>
            <Parameters>
             <VectorParam id="5395"  name="sourceCrop">
              <InterpolatingParam id="5396" interp="linr"  time="0/1" value="0" leadInLength="0/1"  />
              <InterpolatingParam id="5397" interp="linr"  time="0/1" value="0" leadInLength="0/1"  />
              <InterpolatingParam id="5398" interp="linr"  time="0/1" value="0" leadInLength="0/1"  />
              <InterpolatingParam id="5399" interp="linr"  time="0/1" value="0" leadInLength="0/1"  />
             </VectorParam>
             <VectorParam id="5400"  name="geometryCrop">
              <InterpolatingParam id="5401" interp="linr"  time="-9999999/1" value="0" leadInLength="0/1"  />
              <InterpolatingParam id="5402" interp="linr"  time="-9999999/1" value="0" leadInLength="0/1"  />
              <InterpolatingParam id="5403" interp="linr"  time="-9999999/1" value="0" leadInLength="0/1"  />
              <InterpolatingParam id="5404" interp="linr"  time="-9999999/1" value="0" leadInLength="0/1"  />
             </VectorParam>
             <InterpolatingParam id="5405" interp="linr"  time="-9999999/1" value="1" leadInLength="0/1"  name="opacity"/>
            </Parameters>
            <Attributes>
             <Attribute id="5406" value="" name="ident"/>
            </Attributes>
            <MetaData>
             <entry key="WinSubProjectDisplayName" val=""/>
            </MetaData>
            <ExtraData>
             <Entry key="ZoomPanBin">
              <ZoomPanBin id="5407"  >
               <ZoomPanKeyframes>
               </ZoomPanKeyframes>
              </ZoomPanBin>
             </Entry>
            </ExtraData>
           </VMFile>
           <VMFile id="5408" start="4703" duration="555" scalar="1/1" mediaStart="9516/1" mediaDuration="555/1" trackNumber="0" src="4" >
            <Transformer>
             <VectorParam id="5409"  name="translation">
              <InterpolatingParam id="5410" interp="linr"  time="-9999999/1" value="0" leadInLength="0/1"  />
              <InterpolatingParam id="5411" interp="linr"  time="-9999999/1" value="0" leadInLength="0/1"  />
              <InterpolatingParam id="5412" interp="linr"  time="-9999999/1" value="0" leadInLength="0/1"  />
             </VectorParam>
             <VectorParam id="5413"  name="rotation">
              <InterpolatingParam id="5414" interp="linr"  time="-9999999/1" value="0" leadInLength="0/1"  />
              <InterpolatingParam id="5415" interp="linr"  time="-9999999/1" value="0" leadInLength="0/1"  />
              <InterpolatingParam id="5416" interp="linr"  time="-9999999/1" value="0" leadInLength="0/1"  />
             </VectorParam>
             <VectorParam id="5417"  name="shear">
              <InterpolatingParam id="5418" interp="linr"  time="-9999999/1" value="0" leadInLength="0/1"  />
              <InterpolatingParam id="5419" interp="linr"  time="-9999999/1" value="0" leadInLength="0/1"  />
              <InterpolatingParam id="5420" interp="linr"  time="-9999999/1" value="0" leadInLength="0/1"  />
             </VectorParam>
             <VectorParam id="5421"  name="scale">
              <InterpolatingParam id="5422" interp="linr"  time="-9999999/1" value="1" leadInLength="0/1"  />
              <InterpolatingParam id="5423" interp="linr"  time="-9999999/1" value="1" leadInLength="0/1"  />
              <InterpolatingParam id="5424" interp="linr"  time="-9999999/1" value="1" leadInLength="0/1"  />
             </VectorParam>
             <VectorParam id="5425"  name="anchor">
              <InterpolatingParam id="5426" interp="linr"  time="0/1" value="0" leadInLength="0/1"  />
              <InterpolatingParam id="5427" interp="linr"  time="0/1" value="0" leadInLength="0/1"  />
              <InterpolatingParam id="5428" interp="linr"  time="0/1" value="0" leadInLength="0/1"  />
             </VectorParam>
            </Transformer>
            <Parameters>
             <VectorParam id="5429"  name="sourceCrop">
              <InterpolatingParam id="5430" interp="linr"  time="0/1" value="0" leadInLength="0/1"  />
              <InterpolatingParam id="5431" interp="linr"  time="0/1" value="0" leadInLength="0/1"  />
              <InterpolatingParam id="5432" interp="linr"  time="0/1" value="0" leadInLength="0/1"  />
              <InterpolatingParam id="5433" interp="linr"  time="0/1" value="0" leadInLength="0/1"  />
             </VectorParam>
             <VectorParam id="5434"  name="geometryCrop">
              <InterpolatingParam id="5435" interp="linr"  time="-9999999/1" value="0" leadInLength="0/1"  />
              <InterpolatingParam id="5436" interp="linr"  time="-9999999/1" value="0" leadInLength="0/1"  />
              <InterpolatingParam id="5437" interp="linr"  time="-9999999/1" value="0" leadInLength="0/1"  />
              <InterpolatingParam id="5438" interp="linr"  time="-9999999/1" value="0" leadInLength="0/1"  />
             </VectorParam>
             <InterpolatingParam id="5439" interp="linr"  time="-9999999/1" value="1" leadInLength="0/1"  name="opacity"/>
            </Parameters>
            <Attributes>
             <Attribute id="5440" value="" name="ident"/>
            </Attributes>
            <MetaData>
             <entry key="WinSubProjectDisplayName" val=""/>
            </MetaData>
            <ExtraData>
             <Entry key="ZoomPanBin">
              <ZoomPanBin id="5441"  >
               <ZoomPanKeyframes>
               </ZoomPanKeyframes>
              </ZoomPanBin>
             </Entry>
            </ExtraData>
           </VMFile>
           <VMFile id="5442" start="5258" duration="460" scalar="1/1" mediaStart="11597/1" mediaDuration="460/1" trackNumber="0" src="4" >
            <Transformer>
             <VectorParam id="5443"  name="translation">
              <InterpolatingParam id="5444" interp="linr"  time="-9999999/1" value="0" leadInLength="0/1"  />
              <InterpolatingParam id="5445" interp="linr"  time="-9999999/1" value="0" leadInLength="0/1"  />
              <InterpolatingParam id="5446" interp="linr"  time="-9999999/1" value="0" leadInLength="0/1"  />
             </VectorParam>
             <VectorParam id="5447"  name="rotation">
              <InterpolatingParam id="5448" interp="linr"  time="-9999999/1" value="0" leadInLength="0/1"  />
              <InterpolatingParam id="5449" interp="linr"  time="-9999999/1" value="0" leadInLength="0/1"  />
              <InterpolatingParam id="5450" interp="linr"  time="-9999999/1" value="0" leadInLength="0/1"  />
             </VectorParam>
             <VectorParam id="5451"  name="shear">
              <InterpolatingParam id="5452" interp="linr"  time="-9999999/1" value="0" leadInLength="0/1"  />
              <InterpolatingParam id="5453" interp="linr"  time="-9999999/1" value="0" leadInLength="0/1"  />
              <InterpolatingParam id="5454" interp="linr"  time="-9999999/1" value="0" leadInLength="0/1"  />
             </VectorParam>
             <VectorParam id="5455"  name="scale">
              <InterpolatingParam id="5456" interp="linr"  time="-9999999/1" value="1" leadInLength="0/1"  />
              <InterpolatingParam id="5457" interp="linr"  time="-9999999/1" value="1" leadInLength="0/1"  />
              <InterpolatingParam id="5458" interp="linr"  time="-9999999/1" value="1" leadInLength="0/1"  />
             </VectorParam>
             <VectorParam id="5459"  name="anchor">
              <InterpolatingParam id="5460" interp="linr"  time="0/1" value="0" leadInLength="0/1"  />
              <InterpolatingParam id="5461" interp="linr"  time="0/1" value="0" leadInLength="0/1"  />
              <InterpolatingParam id="5462" interp="linr"  time="0/1" value="0" leadInLength="0/1"  />
             </VectorParam>
            </Transformer>
            <Parameters>
             <VectorParam id="5463"  name="sourceCrop">
              <InterpolatingParam id="5464" interp="linr"  time="0/1" value="0" leadInLength="0/1"  />
              <InterpolatingParam id="5465" interp="linr"  time="0/1" value="0" leadInLength="0/1"  />
              <InterpolatingParam id="5466" interp="linr"  time="0/1" value="0" leadInLength="0/1"  />
              <InterpolatingParam id="5467" interp="linr"  time="0/1" value="0" leadInLength="0/1"  />
             </VectorParam>
             <VectorParam id="5468"  name="geometryCrop">
              <InterpolatingParam id="5469" interp="linr"  time="-9999999/1" value="0" leadInLength="0/1"  />
              <InterpolatingParam id="5470" interp="linr"  time="-9999999/1" value="0" leadInLength="0/1"  />
              <InterpolatingParam id="5471" interp="linr"  time="-9999999/1" value="0" leadInLength="0/1"  />
              <InterpolatingParam id="5472" interp="linr"  time="-9999999/1" value="0" leadInLength="0/1"  />
             </VectorParam>
             <InterpolatingParam id="5473" interp="linr"  time="-9999999/1" value="1" leadInLength="0/1"  name="opacity"/>
            </Parameters>
            <Attributes>
             <Attribute id="5474" value="" name="ident"/>
            </Attributes>
            <MetaData>
             <entry key="WinSubProjectDisplayName" val=""/>
            </MetaData>
            <ExtraData>
             <Entry key="ZoomPanBin">
              <ZoomPanBin id="5475"  >
               <ZoomPanKeyframes>
               </ZoomPanKeyframes>
              </ZoomPanBin>
             </Entry>
            </ExtraData>
           </VMFile>
           <VMFile id="5476" start="5718" duration="350" scalar="1/1" mediaStart="12237/1" mediaDuration="350/1" trackNumber="0" src="4" >
            <Transformer>
             <VectorParam id="5477"  name="translation">
              <InterpolatingParam id="5478" interp="linr"  time="-9999999/1" value="0" leadInLength="0/1"  />
              <InterpolatingParam id="5479" interp="linr"  time="-9999999/1" value="0" leadInLength="0/1"  />
              <InterpolatingParam id="5480" interp="linr"  time="-9999999/1" value="0" leadInLength="0/1"  />
             </VectorParam>
             <VectorParam id="5481"  name="rotation">
              <InterpolatingParam id="5482" interp="linr"  time="-9999999/1" value="0" leadInLength="0/1"  />
              <InterpolatingParam id="5483" interp="linr"  time="-9999999/1" value="0" leadInLength="0/1"  />
              <InterpolatingParam id="5484" interp="linr"  time="-9999999/1" value="0" leadInLength="0/1"  />
             </VectorParam>
             <VectorParam id="5485"  name="shear">
              <InterpolatingParam id="5486" interp="linr"  time="-9999999/1" value="0" leadInLength="0/1"  />
              <InterpolatingParam id="5487" interp="linr"  time="-9999999/1" value="0" leadInLength="0/1"  />
              <InterpolatingParam id="5488" interp="linr"  time="-9999999/1" value="0" leadInLength="0/1"  />
             </VectorParam>
             <VectorParam id="5489"  name="scale">
              <InterpolatingParam id="5490" interp="linr"  time="-9999999/1" value="1" leadInLength="0/1"  />
              <InterpolatingParam id="5491" interp="linr"  time="-9999999/1" value="1" leadInLength="0/1"  />
              <InterpolatingParam id="5492" interp="linr"  time="-9999999/1" value="1" leadInLength="0/1"  />
             </VectorParam>
             <VectorParam id="5493"  name="anchor">
              <InterpolatingParam id="5494" interp="linr"  time="0/1" value="0" leadInLength="0/1"  />
              <InterpolatingParam id="5495" interp="linr"  time="0/1" value="0" leadInLength="0/1"  />
              <InterpolatingParam id="5496" interp="linr"  time="0/1" value="0" leadInLength="0/1"  />
             </VectorParam>
            </Transformer>
            <Parameters>
             <VectorParam id="5497"  name="sourceCrop">
              <InterpolatingParam id="5498" interp="linr"  time="0/1" value="0" leadInLength="0/1"  />
              <InterpolatingParam id="5499" interp="linr"  time="0/1" value="0" leadInLength="0/1"  />
              <InterpolatingParam id="5500" interp="linr"  time="0/1" value="0" leadInLength="0/1"  />
              <InterpolatingParam id="5501" interp="linr"  time="0/1" value="0" leadInLength="0/1"  />
             </VectorParam>
             <VectorParam id="5502"  name="geometryCrop">
              <InterpolatingParam id="5503" interp="linr"  time="-9999999/1" value="0" leadInLength="0/1"  />
              <InterpolatingParam id="5504" interp="linr"  time="-9999999/1" value="0" leadInLength="0/1"  />
              <InterpolatingParam id="5505" interp="linr"  time="-9999999/1" value="0" leadInLength="0/1"  />
              <InterpolatingParam id="5506" interp="linr"  time="-9999999/1" value="0" leadInLength="0/1"  />
             </VectorParam>
             <InterpolatingParam id="5507" interp="linr"  time="-9999999/1" value="1" leadInLength="0/1"  name="opacity"/>
            </Parameters>
            <Attributes>
             <Attribute id="5508" value="" name="ident"/>
            </Attributes>
            <MetaData>
             <entry key="WinSubProjectDisplayName" val=""/>
            </MetaData>
            <ExtraData>
             <Entry key="ZoomPanBin">
              <ZoomPanBin id="5509"  >
               <ZoomPanKeyframes>
               </ZoomPanKeyframes>
              </ZoomPanBin>
             </Entry>
            </ExtraData>
           </VMFile>
           <VMFile id="5510" start="6068" duration="128" scalar="1/1" mediaStart="15765/1" mediaDuration="128/1" trackNumber="0" src="4" >
            <Transformer>
             <VectorParam id="5511"  name="translation">
              <InterpolatingParam id="5512" interp="linr"  time="-9999999/1" value="0" leadInLength="0/1"  />
              <InterpolatingParam id="5513" interp="linr"  time="-9999999/1" value="0" leadInLength="0/1"  />
              <InterpolatingParam id="5514" interp="linr"  time="-9999999/1" value="0" leadInLength="0/1"  />
             </VectorParam>
             <VectorParam id="5515"  name="rotation">
              <InterpolatingParam id="5516" interp="linr"  time="-9999999/1" value="0" leadInLength="0/1"  />
              <InterpolatingParam id="5517" interp="linr"  time="-9999999/1" value="0" leadInLength="0/1"  />
              <InterpolatingParam id="5518" interp="linr"  time="-9999999/1" value="0" leadInLength="0/1"  />
             </VectorParam>
             <VectorParam id="5519"  name="shear">
              <InterpolatingParam id="5520" interp="linr"  time="-9999999/1" value="0" leadInLength="0/1"  />
              <InterpolatingParam id="5521" interp="linr"  time="-9999999/1" value="0" leadInLength="0/1"  />
              <InterpolatingParam id="5522" interp="linr"  time="-9999999/1" value="0" leadInLength="0/1"  />
             </VectorParam>
             <VectorParam id="5523"  name="scale">
              <InterpolatingParam id="5524" interp="linr"  time="-9999999/1" value="1" leadInLength="0/1"  />
              <InterpolatingParam id="5525" interp="linr"  time="-9999999/1" value="1" leadInLength="0/1"  />
              <InterpolatingParam id="5526" interp="linr"  time="-9999999/1" value="1" leadInLength="0/1"  />
             </VectorParam>
             <VectorParam id="5527"  name="anchor">
              <InterpolatingParam id="5528" interp="linr"  time="0/1" value="0" leadInLength="0/1"  />
              <InterpolatingParam id="5529" interp="linr"  time="0/1" value="0" leadInLength="0/1"  />
              <InterpolatingParam id="5530" interp="linr"  time="0/1" value="0" leadInLength="0/1"  />
             </VectorParam>
            </Transformer>
            <Parameters>
             <VectorParam id="5531"  name="sourceCrop">
              <InterpolatingParam id="5532" interp="linr"  time="0/1" value="0" leadInLength="0/1"  />
              <InterpolatingParam id="5533" interp="linr"  time="0/1" value="0" leadInLength="0/1"  />
              <InterpolatingParam id="5534" interp="linr"  time="0/1" value="0" leadInLength="0/1"  />
              <InterpolatingParam id="5535" interp="linr"  time="0/1" value="0" leadInLength="0/1"  />
             </VectorParam>
             <VectorParam id="5536"  name="geometryCrop">
              <InterpolatingParam id="5537" interp="linr"  time="-9999999/1" value="0" leadInLength="0/1"  />
              <InterpolatingParam id="5538" interp="linr"  time="-9999999/1" value="0" leadInLength="0/1"  />
              <InterpolatingParam id="5539" interp="linr"  time="-9999999/1" value="0" leadInLength="0/1"  />
              <InterpolatingParam id="5540" interp="linr"  time="-9999999/1" value="0" leadInLength="0/1"  />
             </VectorParam>
             <InterpolatingParam id="5541" interp="linr"  time="-9999999/1" value="1" leadInLength="0/1"  name="opacity"/>
            </Parameters>
            <Attributes>
             <Attribute id="5542" value="" name="ident"/>
            </Attributes>
            <MetaData>
             <entry key="WinSubProjectDisplayName" val=""/>
            </MetaData>
            <ExtraData>
             <Entry key="ZoomPanBin">
              <ZoomPanBin id="5543"  >
               <ZoomPanKeyframes>
               </ZoomPanKeyframes>
              </ZoomPanBin>
             </Entry>
            </ExtraData>
           </VMFile>
           <VMFile id="5544" start="6196" duration="615" scalar="1/1" mediaStart="15918/1" mediaDuration="615/1" trackNumber="0" src="4" >
            <Transformer>
             <VectorParam id="5545"  name="translation">
              <InterpolatingParam id="5546" interp="linr"  time="-9999999/1" value="0" leadInLength="0/1"  />
              <InterpolatingParam id="5547" interp="linr"  time="-9999999/1" value="0" leadInLength="0/1"  />
              <InterpolatingParam id="5548" interp="linr"  time="-9999999/1" value="0" leadInLength="0/1"  />
             </VectorParam>
             <VectorParam id="5549"  name="rotation">
              <InterpolatingParam id="5550" interp="linr"  time="-9999999/1" value="0" leadInLength="0/1"  />
              <InterpolatingParam id="5551" interp="linr"  time="-9999999/1" value="0" leadInLength="0/1"  />
              <InterpolatingParam id="5552" interp="linr"  time="-9999999/1" value="0" leadInLength="0/1"  />
             </VectorParam>
             <VectorParam id="5553"  name="shear">
              <InterpolatingParam id="5554" interp="linr"  time="-9999999/1" value="0" leadInLength="0/1"  />
              <InterpolatingParam id="5555" interp="linr"  time="-9999999/1" value="0" leadInLength="0/1"  />
              <InterpolatingParam id="5556" interp="linr"  time="-9999999/1" value="0" leadInLength="0/1"  />
             </VectorParam>
             <VectorParam id="5557"  name="scale">
              <InterpolatingParam id="5558" interp="linr"  time="-9999999/1" value="1" leadInLength="0/1"  />
              <InterpolatingParam id="5559" interp="linr"  time="-9999999/1" value="1" leadInLength="0/1"  />
              <InterpolatingParam id="5560" interp="linr"  time="-9999999/1" value="1" leadInLength="0/1"  />
             </VectorParam>
             <VectorParam id="5561"  name="anchor">
              <InterpolatingParam id="5562" interp="linr"  time="0/1" value="0" leadInLength="0/1"  />
              <InterpolatingParam id="5563" interp="linr"  time="0/1" value="0" leadInLength="0/1"  />
              <InterpolatingParam id="5564" interp="linr"  time="0/1" value="0" leadInLength="0/1"  />
             </VectorParam>
            </Transformer>
            <Parameters>
             <VectorParam id="5565"  name="sourceCrop">
              <InterpolatingParam id="5566" interp="linr"  time="0/1" value="0" leadInLength="0/1"  />
              <InterpolatingParam id="5567" interp="linr"  time="0/1" value="0" leadInLength="0/1"  />
              <InterpolatingParam id="5568" interp="linr"  time="0/1" value="0" leadInLength="0/1"  />
              <InterpolatingParam id="5569" interp="linr"  time="0/1" value="0" leadInLength="0/1"  />
             </VectorParam>
             <VectorParam id="5570"  name="geometryCrop">
              <InterpolatingParam id="5571" interp="linr"  time="-9999999/1" value="0" leadInLength="0/1"  />
              <InterpolatingParam id="5572" interp="linr"  time="-9999999/1" value="0" leadInLength="0/1"  />
              <InterpolatingParam id="5573" interp="linr"  time="-9999999/1" value="0" leadInLength="0/1"  />
              <InterpolatingParam id="5574" interp="linr"  time="-9999999/1" value="0" leadInLength="0/1"  />
             </VectorParam>
             <InterpolatingParam id="5575" interp="linr"  time="-9999999/1" value="1" leadInLength="0/1"  name="opacity"/>
            </Parameters>
            <Attributes>
             <Attribute id="5576" value="" name="ident"/>
            </Attributes>
            <MetaData>
             <entry key="WinSubProjectDisplayName" val=""/>
            </MetaData>
            <ExtraData>
             <Entry key="ZoomPanBin">
              <ZoomPanBin id="5577"  >
               <ZoomPanKeyframes>
               </ZoomPanKeyframes>
              </ZoomPanBin>
             </Entry>
            </ExtraData>
           </VMFile>
           <VMFile id="5578" start="6811" duration="323" scalar="1/1" mediaStart="16694/1" mediaDuration="323/1" trackNumber="0" src="4" >
            <Transformer>
             <VectorParam id="5579"  name="translation">
              <InterpolatingParam id="5580" interp="linr"  time="-9999999/1" value="0" leadInLength="0/1"  />
              <InterpolatingParam id="5581" interp="linr"  time="-9999999/1" value="0" leadInLength="0/1"  />
              <InterpolatingParam id="5582" interp="linr"  time="-9999999/1" value="0" leadInLength="0/1"  />
             </VectorParam>
             <VectorParam id="5583"  name="rotation">
              <InterpolatingParam id="5584" interp="linr"  time="-9999999/1" value="0" leadInLength="0/1"  />
              <InterpolatingParam id="5585" interp="linr"  time="-9999999/1" value="0" leadInLength="0/1"  />
              <InterpolatingParam id="5586" interp="linr"  time="-9999999/1" value="0" leadInLength="0/1"  />
             </VectorParam>
             <VectorParam id="5587"  name="shear">
              <InterpolatingParam id="5588" interp="linr"  time="-9999999/1" value="0" leadInLength="0/1"  />
              <InterpolatingParam id="5589" interp="linr"  time="-9999999/1" value="0" leadInLength="0/1"  />
              <InterpolatingParam id="5590" interp="linr"  time="-9999999/1" value="0" leadInLength="0/1"  />
             </VectorParam>
             <VectorParam id="5591"  name="scale">
              <InterpolatingParam id="5592" interp="linr"  time="-9999999/1" value="1" leadInLength="0/1"  />
              <InterpolatingParam id="5593" interp="linr"  time="-9999999/1" value="1" leadInLength="0/1"  />
              <InterpolatingParam id="5594" interp="linr"  time="-9999999/1" value="1" leadInLength="0/1"  />
             </VectorParam>
             <VectorParam id="5595"  name="anchor">
              <InterpolatingParam id="5596" interp="linr"  time="0/1" value="0" leadInLength="0/1"  />
              <InterpolatingParam id="5597" interp="linr"  time="0/1" value="0" leadInLength="0/1"  />
              <InterpolatingParam id="5598" interp="linr"  time="0/1" value="0" leadInLength="0/1"  />
             </VectorParam>
            </Transformer>
            <Parameters>
             <VectorParam id="5599"  name="sourceCrop">
              <InterpolatingParam id="5600" interp="linr"  time="0/1" value="0" leadInLength="0/1"  />
              <InterpolatingParam id="5601" interp="linr"  time="0/1" value="0" leadInLength="0/1"  />
              <InterpolatingParam id="5602" interp="linr"  time="0/1" value="0" leadInLength="0/1"  />
              <InterpolatingParam id="5603" interp="linr"  time="0/1" value="0" leadInLength="0/1"  />
             </VectorParam>
             <VectorParam id="5604"  name="geometryCrop">
              <InterpolatingParam id="5605" interp="linr"  time="-9999999/1" value="0" leadInLength="0/1"  />
              <InterpolatingParam id="5606" interp="linr"  time="-9999999/1" value="0" leadInLength="0/1"  />
              <InterpolatingParam id="5607" interp="linr"  time="-9999999/1" value="0" leadInLength="0/1"  />
              <InterpolatingParam id="5608" interp="linr"  time="-9999999/1" value="0" leadInLength="0/1"  />
             </VectorParam>
             <InterpolatingParam id="5609" interp="linr"  time="-9999999/1" value="1" leadInLength="0/1"  name="opacity"/>
            </Parameters>
            <Attributes>
             <Attribute id="5610" value="" name="ident"/>
            </Attributes>
            <MetaData>
             <entry key="WinSubProjectDisplayName" val=""/>
            </MetaData>
            <ExtraData>
             <Entry key="ZoomPanBin">
              <ZoomPanBin id="5611"  >
               <ZoomPanKeyframes>
               </ZoomPanKeyframes>
              </ZoomPanBin>
             </Entry>
            </ExtraData>
           </VMFile>
           <VMFile id="5612" start="7134" duration="223" scalar="1/1" mediaStart="17164/1" mediaDuration="223/1" trackNumber="0" src="4" >
            <Transformer>
             <VectorParam id="5613"  name="translation">
              <InterpolatingParam id="5614" interp="linr"  time="-9999999/1" value="0" leadInLength="0/1"  />
              <InterpolatingParam id="5615" interp="linr"  time="-9999999/1" value="0" leadInLength="0/1"  />
              <InterpolatingParam id="5616" interp="linr"  time="-9999999/1" value="0" leadInLength="0/1"  />
             </VectorParam>
             <VectorParam id="5617"  name="rotation">
              <InterpolatingParam id="5618" interp="linr"  time="-9999999/1" value="0" leadInLength="0/1"  />
              <InterpolatingParam id="5619" interp="linr"  time="-9999999/1" value="0" leadInLength="0/1"  />
              <InterpolatingParam id="5620" interp="linr"  time="-9999999/1" value="0" leadInLength="0/1"  />
             </VectorParam>
             <VectorParam id="5621"  name="shear">
              <InterpolatingParam id="5622" interp="linr"  time="-9999999/1" value="0" leadInLength="0/1"  />
              <InterpolatingParam id="5623" interp="linr"  time="-9999999/1" value="0" leadInLength="0/1"  />
              <InterpolatingParam id="5624" interp="linr"  time="-9999999/1" value="0" leadInLength="0/1"  />
             </VectorParam>
             <VectorParam id="5625"  name="scale">
              <InterpolatingParam id="5626" interp="linr"  time="-9999999/1" value="1" leadInLength="0/1"  />
              <InterpolatingParam id="5627" interp="linr"  time="-9999999/1" value="1" leadInLength="0/1"  />
              <InterpolatingParam id="5628" interp="linr"  time="-9999999/1" value="1" leadInLength="0/1"  />
             </VectorParam>
             <VectorParam id="5629"  name="anchor">
              <InterpolatingParam id="5630" interp="linr"  time="0/1" value="0" leadInLength="0/1"  />
              <InterpolatingParam id="5631" interp="linr"  time="0/1" value="0" leadInLength="0/1"  />
              <InterpolatingParam id="5632" interp="linr"  time="0/1" value="0" leadInLength="0/1"  />
             </VectorParam>
            </Transformer>
            <Parameters>
             <VectorParam id="5633"  name="sourceCrop">
              <InterpolatingParam id="5634" interp="linr"  time="0/1" value="0" leadInLength="0/1"  />
              <InterpolatingParam id="5635" interp="linr"  time="0/1" value="0" leadInLength="0/1"  />
              <InterpolatingParam id="5636" interp="linr"  time="0/1" value="0" leadInLength="0/1"  />
              <InterpolatingParam id="5637" interp="linr"  time="0/1" value="0" leadInLength="0/1"  />
             </VectorParam>
             <VectorParam id="5638"  name="geometryCrop">
              <InterpolatingParam id="5639" interp="linr"  time="-9999999/1" value="0" leadInLength="0/1"  />
              <InterpolatingParam id="5640" interp="linr"  time="-9999999/1" value="0" leadInLength="0/1"  />
              <InterpolatingParam id="5641" interp="linr"  time="-9999999/1" value="0" leadInLength="0/1"  />
              <InterpolatingParam id="5642" interp="linr"  time="-9999999/1" value="0" leadInLength="0/1"  />
             </VectorParam>
             <InterpolatingParam id="5643" interp="linr"  time="-9999999/1" value="1" leadInLength="0/1"  name="opacity"/>
            </Parameters>
            <Attributes>
             <Attribute id="5644" value="" name="ident"/>
            </Attributes>
            <MetaData>
             <entry key="WinSubProjectDisplayName" val=""/>
            </MetaData>
            <ExtraData>
             <Entry key="ZoomPanBin">
              <ZoomPanBin id="5645"  >
               <ZoomPanKeyframes>
               </ZoomPanKeyframes>
              </ZoomPanBin>
             </Entry>
            </ExtraData>
           </VMFile>
           <VMFile id="5646" start="7357" duration="323" scalar="1/1" mediaStart="26742/1" mediaDuration="323/1" trackNumber="0" src="4" >
            <Transformer>
             <VectorParam id="5647"  name="translation">
              <InterpolatingParam id="5648" interp="linr"  time="-9999999/1" value="0" leadInLength="0/1"  />
              <InterpolatingParam id="5649" interp="linr"  time="-9999999/1" value="0" leadInLength="0/1"  />
              <InterpolatingParam id="5650" interp="linr"  time="-9999999/1" value="0" leadInLength="0/1"  />
             </VectorParam>
             <VectorParam id="5651"  name="rotation">
              <InterpolatingParam id="5652" interp="linr"  time="-9999999/1" value="0" leadInLength="0/1"  />
              <InterpolatingParam id="5653" interp="linr"  time="-9999999/1" value="0" leadInLength="0/1"  />
              <InterpolatingParam id="5654" interp="linr"  time="-9999999/1" value="0" leadInLength="0/1"  />
             </VectorParam>
             <VectorParam id="5655"  name="shear">
              <InterpolatingParam id="5656" interp="linr"  time="-9999999/1" value="0" leadInLength="0/1"  />
              <InterpolatingParam id="5657" interp="linr"  time="-9999999/1" value="0" leadInLength="0/1"  />
              <InterpolatingParam id="5658" interp="linr"  time="-9999999/1" value="0" leadInLength="0/1"  />
             </VectorParam>
             <VectorParam id="5659"  name="scale">
              <InterpolatingParam id="5660" interp="linr"  time="-9999999/1" value="1" leadInLength="0/1"  />
              <InterpolatingParam id="5661" interp="linr"  time="-9999999/1" value="1" leadInLength="0/1"  />
              <InterpolatingParam id="5662" interp="linr"  time="-9999999/1" value="1" leadInLength="0/1"  />
             </VectorParam>
             <VectorParam id="5663"  name="anchor">
              <InterpolatingParam id="5664" interp="linr"  time="0/1" value="0" leadInLength="0/1"  />
              <InterpolatingParam id="5665" interp="linr"  time="0/1" value="0" leadInLength="0/1"  />
              <InterpolatingParam id="5666" interp="linr"  time="0/1" value="0" leadInLength="0/1"  />
             </VectorParam>
            </Transformer>
            <Parameters>
             <VectorParam id="5667"  name="sourceCrop">
              <InterpolatingParam id="5668" interp="linr"  time="0/1" value="0" leadInLength="0/1"  />
              <InterpolatingParam id="5669" interp="linr"  time="0/1" value="0" leadInLength="0/1"  />
              <InterpolatingParam id="5670" interp="linr"  time="0/1" value="0" leadInLength="0/1"  />
              <InterpolatingParam id="5671" interp="linr"  time="0/1" value="0" leadInLength="0/1"  />
             </VectorParam>
             <VectorParam id="5672"  name="geometryCrop">
              <InterpolatingParam id="5673" interp="linr"  time="-9999999/1" value="0" leadInLength="0/1"  />
              <InterpolatingParam id="5674" interp="linr"  time="-9999999/1" value="0" leadInLength="0/1"  />
              <InterpolatingParam id="5675" interp="linr"  time="-9999999/1" value="0" leadInLength="0/1"  />
              <InterpolatingParam id="5676" interp="linr"  time="-9999999/1" value="0" leadInLength="0/1"  />
             </VectorParam>
             <InterpolatingParam id="5677" interp="linr"  time="-9999999/1" value="1" leadInLength="0/1"  name="opacity"/>
            </Parameters>
            <Attributes>
             <Attribute id="5678" value="" name="ident"/>
            </Attributes>
            <MetaData>
             <entry key="WinSubProjectDisplayName" val=""/>
            </MetaData>
            <ExtraData>
             <Entry key="ZoomPanBin">
              <ZoomPanBin id="5679"  >
               <ZoomPanKeyframes>
               </ZoomPanKeyframes>
              </ZoomPanBin>
             </Entry>
            </ExtraData>
           </VMFile>
           <VMFile id="5680" start="7680" duration="259" scalar="1/1" mediaStart="27825/1" mediaDuration="259/1" trackNumber="0" src="4" >
            <Transformer>
             <VectorParam id="5681"  name="translation">
              <InterpolatingParam id="5682" interp="linr"  time="-9999999/1" value="0" leadInLength="0/1"  />
              <InterpolatingParam id="5683" interp="linr"  time="-9999999/1" value="0" leadInLength="0/1"  />
              <InterpolatingParam id="5684" interp="linr"  time="-9999999/1" value="0" leadInLength="0/1"  />
             </VectorParam>
             <VectorParam id="5685"  name="rotation">
              <InterpolatingParam id="5686" interp="linr"  time="-9999999/1" value="0" leadInLength="0/1"  />
              <InterpolatingParam id="5687" interp="linr"  time="-9999999/1" value="0" leadInLength="0/1"  />
              <InterpolatingParam id="5688" interp="linr"  time="-9999999/1" value="0" leadInLength="0/1"  />
             </VectorParam>
             <VectorParam id="5689"  name="shear">
              <InterpolatingParam id="5690" interp="linr"  time="-9999999/1" value="0" leadInLength="0/1"  />
              <InterpolatingParam id="5691" interp="linr"  time="-9999999/1" value="0" leadInLength="0/1"  />
              <InterpolatingParam id="5692" interp="linr"  time="-9999999/1" value="0" leadInLength="0/1"  />
             </VectorParam>
             <VectorParam id="5693"  name="scale">
              <InterpolatingParam id="5694" interp="linr"  time="-9999999/1" value="1" leadInLength="0/1"  />
              <InterpolatingParam id="5695" interp="linr"  time="-9999999/1" value="1" leadInLength="0/1"  />
              <InterpolatingParam id="5696" interp="linr"  time="-9999999/1" value="1" leadInLength="0/1"  />
             </VectorParam>
             <VectorParam id="5697"  name="anchor">
              <InterpolatingParam id="5698" interp="linr"  time="0/1" value="0" leadInLength="0/1"  />
              <InterpolatingParam id="5699" interp="linr"  time="0/1" value="0" leadInLength="0/1"  />
              <InterpolatingParam id="5700" interp="linr"  time="0/1" value="0" leadInLength="0/1"  />
             </VectorParam>
            </Transformer>
            <Parameters>
             <VectorParam id="5701"  name="sourceCrop">
              <InterpolatingParam id="5702" interp="linr"  time="0/1" value="0" leadInLength="0/1"  />
              <InterpolatingParam id="5703" interp="linr"  time="0/1" value="0" leadInLength="0/1"  />
              <InterpolatingParam id="5704" interp="linr"  time="0/1" value="0" leadInLength="0/1"  />
              <InterpolatingParam id="5705" interp="linr"  time="0/1" value="0" leadInLength="0/1"  />
             </VectorParam>
             <VectorParam id="5706"  name="geometryCrop">
              <InterpolatingParam id="5707" interp="linr"  time="-9999999/1" value="0" leadInLength="0/1"  />
              <InterpolatingParam id="5708" interp="linr"  time="-9999999/1" value="0" leadInLength="0/1"  />
              <InterpolatingParam id="5709" interp="linr"  time="-9999999/1" value="0" leadInLength="0/1"  />
              <InterpolatingParam id="5710" interp="linr"  time="-9999999/1" value="0" leadInLength="0/1"  />
             </VectorParam>
             <InterpolatingParam id="5711" interp="linr"  time="-9999999/1" value="1" leadInLength="0/1"  name="opacity"/>
            </Parameters>
            <Attributes>
             <Attribute id="5712" value="" name="ident"/>
            </Attributes>
            <MetaData>
             <entry key="WinSubProjectDisplayName" val=""/>
            </MetaData>
            <ExtraData>
             <Entry key="ZoomPanBin">
              <ZoomPanBin id="5713"  >
               <ZoomPanKeyframes>
               </ZoomPanKeyframes>
              </ZoomPanBin>
             </Entry>
            </ExtraData>
           </VMFile>
           <VMFile id="5714" start="7939" duration="157" scalar="1/1" mediaStart="28287/1" mediaDuration="157/1" trackNumber="0" src="4" >
            <Transformer>
             <VectorParam id="5715"  name="translation">
              <InterpolatingParam id="5716" interp="linr"  time="-9999999/1" value="0" leadInLength="0/1"  />
              <InterpolatingParam id="5717" interp="linr"  time="-9999999/1" value="0" leadInLength="0/1"  />
              <InterpolatingParam id="5718" interp="linr"  time="-9999999/1" value="0" leadInLength="0/1"  />
             </VectorParam>
             <VectorParam id="5719"  name="rotation">
              <InterpolatingParam id="5720" interp="linr"  time="-9999999/1" value="0" leadInLength="0/1"  />
              <InterpolatingParam id="5721" interp="linr"  time="-9999999/1" value="0" leadInLength="0/1"  />
              <InterpolatingParam id="5722" interp="linr"  time="-9999999/1" value="0" leadInLength="0/1"  />
             </VectorParam>
             <VectorParam id="5723"  name="shear">
              <InterpolatingParam id="5724" interp="linr"  time="-9999999/1" value="0" leadInLength="0/1"  />
              <InterpolatingParam id="5725" interp="linr"  time="-9999999/1" value="0" leadInLength="0/1"  />
              <InterpolatingParam id="5726" interp="linr"  time="-9999999/1" value="0" leadInLength="0/1"  />
             </VectorParam>
             <VectorParam id="5727"  name="scale">
              <InterpolatingParam id="5728" interp="linr"  time="-9999999/1" value="1" leadInLength="0/1"  />
              <InterpolatingParam id="5729" interp="linr"  time="-9999999/1" value="1" leadInLength="0/1"  />
              <InterpolatingParam id="5730" interp="linr"  time="-9999999/1" value="1" leadInLength="0/1"  />
             </VectorParam>
             <VectorParam id="5731"  name="anchor">
              <InterpolatingParam id="5732" interp="linr"  time="0/1" value="0" leadInLength="0/1"  />
              <InterpolatingParam id="5733" interp="linr"  time="0/1" value="0" leadInLength="0/1"  />
              <InterpolatingParam id="5734" interp="linr"  time="0/1" value="0" leadInLength="0/1"  />
             </VectorParam>
            </Transformer>
            <Parameters>
             <VectorParam id="5735"  name="sourceCrop">
              <InterpolatingParam id="5736" interp="linr"  time="0/1" value="0" leadInLength="0/1"  />
              <InterpolatingParam id="5737" interp="linr"  time="0/1" value="0" leadInLength="0/1"  />
              <InterpolatingParam id="5738" interp="linr"  time="0/1" value="0" leadInLength="0/1"  />
              <InterpolatingParam id="5739" interp="linr"  time="0/1" value="0" leadInLength="0/1"  />
             </VectorParam>
             <VectorParam id="5740"  name="geometryCrop">
              <InterpolatingParam id="5741" interp="linr"  time="-9999999/1" value="0" leadInLength="0/1"  />
              <InterpolatingParam id="5742" interp="linr"  time="-9999999/1" value="0" leadInLength="0/1"  />
              <InterpolatingParam id="5743" interp="linr"  time="-9999999/1" value="0" leadInLength="0/1"  />
              <InterpolatingParam id="5744" interp="linr"  time="-9999999/1" value="0" leadInLength="0/1"  />
             </VectorParam>
             <InterpolatingParam id="5745" interp="linr"  time="-9999999/1" value="1" leadInLength="0/1"  name="opacity"/>
            </Parameters>
            <Attributes>
             <Attribute id="5746" value="" name="ident"/>
            </Attributes>
            <MetaData>
             <entry key="WinSubProjectDisplayName" val=""/>
            </MetaData>
            <ExtraData>
             <Entry key="ZoomPanBin">
              <ZoomPanBin id="5747"  >
               <ZoomPanKeyframes>
               </ZoomPanKeyframes>
              </ZoomPanBin>
             </Entry>
            </ExtraData>
           </VMFile>
           <VMFile id="5748" start="8096" duration="290" scalar="1/1" mediaStart="28689/1" mediaDuration="290/1" trackNumber="0" src="4" >
            <Transformer>
             <VectorParam id="5749"  name="translation">
              <InterpolatingParam id="5750" interp="linr"  time="-9999999/1" value="0" leadInLength="0/1"  />
              <InterpolatingParam id="5751" interp="linr"  time="-9999999/1" value="0" leadInLength="0/1"  />
              <InterpolatingParam id="5752" interp="linr"  time="-9999999/1" value="0" leadInLength="0/1"  />
             </VectorParam>
             <VectorParam id="5753"  name="rotation">
              <InterpolatingParam id="5754" interp="linr"  time="-9999999/1" value="0" leadInLength="0/1"  />
              <InterpolatingParam id="5755" interp="linr"  time="-9999999/1" value="0" leadInLength="0/1"  />
              <InterpolatingParam id="5756" interp="linr"  time="-9999999/1" value="0" leadInLength="0/1"  />
             </VectorParam>
             <VectorParam id="5757"  name="shear">
              <InterpolatingParam id="5758" interp="linr"  time="-9999999/1" value="0" leadInLength="0/1"  />
              <InterpolatingParam id="5759" interp="linr"  time="-9999999/1" value="0" leadInLength="0/1"  />
              <InterpolatingParam id="5760" interp="linr"  time="-9999999/1" value="0" leadInLength="0/1"  />
             </VectorParam>
             <VectorParam id="5761"  name="scale">
              <InterpolatingParam id="5762" interp="linr"  time="-9999999/1" value="1" leadInLength="0/1"  />
              <InterpolatingParam id="5763" interp="linr"  time="-9999999/1" value="1" leadInLength="0/1"  />
              <InterpolatingParam id="5764" interp="linr"  time="-9999999/1" value="1" leadInLength="0/1"  />
             </VectorParam>
             <VectorParam id="5765"  name="anchor">
              <InterpolatingParam id="5766" interp="linr"  time="0/1" value="0" leadInLength="0/1"  />
              <InterpolatingParam id="5767" interp="linr"  time="0/1" value="0" leadInLength="0/1"  />
              <InterpolatingParam id="5768" interp="linr"  time="0/1" value="0" leadInLength="0/1"  />
             </VectorParam>
            </Transformer>
            <Parameters>
             <VectorParam id="5769"  name="sourceCrop">
              <InterpolatingParam id="5770" interp="linr"  time="0/1" value="0" leadInLength="0/1"  />
              <InterpolatingParam id="5771" interp="linr"  time="0/1" value="0" leadInLength="0/1"  />
              <InterpolatingParam id="5772" interp="linr"  time="0/1" value="0" leadInLength="0/1"  />
              <InterpolatingParam id="5773" interp="linr"  time="0/1" value="0" leadInLength="0/1"  />
             </VectorParam>
             <VectorParam id="5774"  name="geometryCrop">
              <InterpolatingParam id="5775" interp="linr"  time="-9999999/1" value="0" leadInLength="0/1"  />
              <InterpolatingParam id="5776" interp="linr"  time="-9999999/1" value="0" leadInLength="0/1"  />
              <InterpolatingParam id="5777" interp="linr"  time="-9999999/1" value="0" leadInLength="0/1"  />
              <InterpolatingParam id="5778" interp="linr"  time="-9999999/1" value="0" leadInLength="0/1"  />
             </VectorParam>
             <InterpolatingParam id="5779" interp="linr"  time="-9999999/1" value="1" leadInLength="0/1"  name="opacity"/>
            </Parameters>
            <Attributes>
             <Attribute id="5780" value="" name="ident"/>
            </Attributes>
            <MetaData>
             <entry key="WinSubProjectDisplayName" val=""/>
            </MetaData>
            <ExtraData>
             <Entry key="ZoomPanBin">
              <ZoomPanBin id="5781"  >
               <ZoomPanKeyframes>
               </ZoomPanKeyframes>
              </ZoomPanBin>
             </Entry>
            </ExtraData>
           </VMFile>
           <IMFile id="5782" start="8386" duration="60" scalar="1/1" mediaStart="29056/1" mediaDuration="1/1" trackNumber="0" src="4" trimStartSum="0/1" >
            <Transformer>
             <VectorParam id="5783"  name="translation">
              <InterpolatingParam id="5784" interp="linr"  time="-9999999/1" value="0" leadInLength="0/1"  />
              <InterpolatingParam id="5785" interp="linr"  time="-9999999/1" value="0" leadInLength="0/1"  />
              <InterpolatingParam id="5786" interp="linr"  time="-9999999/1" value="0" leadInLength="0/1"  />
             </VectorParam>
             <VectorParam id="5787"  name="rotation">
              <InterpolatingParam id="5788" interp="linr"  time="-9999999/1" value="0" leadInLength="0/1"  />
              <InterpolatingParam id="5789" interp="linr"  time="-9999999/1" value="0" leadInLength="0/1"  />
              <InterpolatingParam id="5790" interp="linr"  time="-9999999/1" value="0" leadInLength="0/1"  />
             </VectorParam>
             <VectorParam id="5791"  name="shear">
              <InterpolatingParam id="5792" interp="linr"  time="-9999999/1" value="0" leadInLength="0/1"  />
              <InterpolatingParam id="5793" interp="linr"  time="-9999999/1" value="0" leadInLength="0/1"  />
              <InterpolatingParam id="5794" interp="linr"  time="-9999999/1" value="0" leadInLength="0/1"  />
             </VectorParam>
             <VectorParam id="5795"  name="scale">
              <InterpolatingParam id="5796" interp="linr"  time="-9999999/1" value="1" leadInLength="0/1"  />
              <InterpolatingParam id="5797" interp="linr"  time="-9999999/1" value="1" leadInLength="0/1"  />
              <InterpolatingParam id="5798" interp="linr"  time="-9999999/1" value="1" leadInLength="0/1"  />
             </VectorParam>
             <VectorParam id="5799"  name="anchor">
              <InterpolatingParam id="5800" interp="linr"  time="0/1" value="0" leadInLength="0/1"  />
              <InterpolatingParam id="5801" interp="linr"  time="0/1" value="0" leadInLength="0/1"  />
              <InterpolatingParam id="5802" interp="linr"  time="0/1" value="0" leadInLength="0/1"  />
             </VectorParam>
            </Transformer>
            <Parameters>
             <VectorParam id="5803"  name="sourceCrop">
              <InterpolatingParam id="5804" interp="linr"  time="0/1" value="0" leadInLength="0/1"  />
              <InterpolatingParam id="5805" interp="linr"  time="0/1" value="0" leadInLength="0/1"  />
              <InterpolatingParam id="5806" interp="linr"  time="0/1" value="0" leadInLength="0/1"  />
              <InterpolatingParam id="5807" interp="linr"  time="0/1" value="0" leadInLength="0/1"  />
             </VectorParam>
             <VectorParam id="5808"  name="geometryCrop">
              <InterpolatingParam id="5809" interp="linr"  time="-9999999/1" value="0" leadInLength="0/1"  />
              <InterpolatingParam id="5810" interp="linr"  time="-9999999/1" value="0" leadInLength="0/1"  />
              <InterpolatingParam id="5811" interp="linr"  time="-9999999/1" value="0" leadInLength="0/1"  />
              <InterpolatingParam id="5812" interp="linr"  time="-9999999/1" value="0" leadInLength="0/1"  />
             </VectorParam>
             <InterpolatingParam id="5813" interp="linr"  time="-9999999/1" value="1" leadInLength="0/1"  name="opacity"/>
            </Parameters>
            <Attributes>
             <Attribute id="5814" value="" name="ident"/>
            </Attributes>
            <MetaData>
             <entry key="WinSubProjectDisplayName" val=""/>
            </MetaData>
            <ExtraData>
             <Entry key="ZoomPanBin">
              <ZoomPanBin id="5815"  >
               <ZoomPanKeyframes>
               </ZoomPanKeyframes>
              </ZoomPanBin>
             </Entry>
            </ExtraData>
           </IMFile>
           <VMFile id="5816" start="8446" duration="18" scalar="1/1" mediaStart="29056/1" mediaDuration="18/1" trackNumber="0" src="4" >
            <Transformer>
             <VectorParam id="5817"  name="translation">
              <InterpolatingParam id="5818" interp="linr"  time="-9999999/1" value="0" leadInLength="0/1"  />
              <InterpolatingParam id="5819" interp="linr"  time="-9999999/1" value="0" leadInLength="0/1"  />
              <InterpolatingParam id="5820" interp="linr"  time="-9999999/1" value="0" leadInLength="0/1"  />
             </VectorParam>
             <VectorParam id="5821"  name="rotation">
              <InterpolatingParam id="5822" interp="linr"  time="-9999999/1" value="0" leadInLength="0/1"  />
              <InterpolatingParam id="5823" interp="linr"  time="-9999999/1" value="0" leadInLength="0/1"  />
              <InterpolatingParam id="5824" interp="linr"  time="-9999999/1" value="0" leadInLength="0/1"  />
             </VectorParam>
             <VectorParam id="5825"  name="shear">
              <InterpolatingParam id="5826" interp="linr"  time="-9999999/1" value="0" leadInLength="0/1"  />
              <InterpolatingParam id="5827" interp="linr"  time="-9999999/1" value="0" leadInLength="0/1"  />
              <InterpolatingParam id="5828" interp="linr"  time="-9999999/1" value="0" leadInLength="0/1"  />
             </VectorParam>
             <VectorParam id="5829"  name="scale">
              <InterpolatingParam id="5830" interp="linr"  time="-9999999/1" value="1" leadInLength="0/1"  />
              <InterpolatingParam id="5831" interp="linr"  time="-9999999/1" value="1" leadInLength="0/1"  />
              <InterpolatingParam id="5832" interp="linr"  time="-9999999/1" value="1" leadInLength="0/1"  />
             </VectorParam>
             <VectorParam id="5833"  name="anchor">
              <InterpolatingParam id="5834" interp="linr"  time="0/1" value="0" leadInLength="0/1"  />
              <InterpolatingParam id="5835" interp="linr"  time="0/1" value="0" leadInLength="0/1"  />
              <InterpolatingParam id="5836" interp="linr"  time="0/1" value="0" leadInLength="0/1"  />
             </VectorParam>
            </Transformer>
            <Parameters>
             <VectorParam id="5837"  name="sourceCrop">
              <InterpolatingParam id="5838" interp="linr"  time="0/1" value="0" leadInLength="0/1"  />
              <InterpolatingParam id="5839" interp="linr"  time="0/1" value="0" leadInLength="0/1"  />
              <InterpolatingParam id="5840" interp="linr"  time="0/1" value="0" leadInLength="0/1"  />
              <InterpolatingParam id="5841" interp="linr"  time="0/1" value="0" leadInLength="0/1"  />
             </VectorParam>
             <VectorParam id="5842"  name="geometryCrop">
              <InterpolatingParam id="5843" interp="linr"  time="-9999999/1" value="0" leadInLength="0/1"  />
              <InterpolatingParam id="5844" interp="linr"  time="-9999999/1" value="0" leadInLength="0/1"  />
              <InterpolatingParam id="5845" interp="linr"  time="-9999999/1" value="0" leadInLength="0/1"  />
              <InterpolatingParam id="5846" interp="linr"  time="-9999999/1" value="0" leadInLength="0/1"  />
             </VectorParam>
             <InterpolatingParam id="5847" interp="linr"  time="-9999999/1" value="1" leadInLength="0/1"  name="opacity"/>
            </Parameters>
            <Attributes>
             <Attribute id="5848" value="" name="ident"/>
            </Attributes>
            <MetaData>
             <entry key="WinSubProjectDisplayName" val=""/>
            </MetaData>
            <ExtraData>
             <Entry key="ZoomPanBin">
              <ZoomPanBin id="5849"  >
               <ZoomPanKeyframes>
               </ZoomPanKeyframes>
              </ZoomPanBin>
             </Entry>
            </ExtraData>
           </VMFile>
           <IMFile id="5850" start="8464" duration="30" scalar="1/1" mediaStart="29074/1" mediaDuration="1/1" trackNumber="0" src="4" trimStartSum="0/1" >
            <Transformer>
             <VectorParam id="5851"  name="translation">
              <InterpolatingParam id="5852" interp="linr"  time="-9999999/1" value="0" leadInLength="0/1"  />
              <InterpolatingParam id="5853" interp="linr"  time="-9999999/1" value="0" leadInLength="0/1"  />
              <InterpolatingParam id="5854" interp="linr"  time="-9999999/1" value="0" leadInLength="0/1"  />
             </VectorParam>
             <VectorParam id="5855"  name="rotation">
              <InterpolatingParam id="5856" interp="linr"  time="-9999999/1" value="0" leadInLength="0/1"  />
              <InterpolatingParam id="5857" interp="linr"  time="-9999999/1" value="0" leadInLength="0/1"  />
              <InterpolatingParam id="5858" interp="linr"  time="-9999999/1" value="0" leadInLength="0/1"  />
             </VectorParam>
             <VectorParam id="5859"  name="shear">
              <InterpolatingParam id="5860" interp="linr"  time="-9999999/1" value="0" leadInLength="0/1"  />
              <InterpolatingParam id="5861" interp="linr"  time="-9999999/1" value="0" leadInLength="0/1"  />
              <InterpolatingParam id="5862" interp="linr"  time="-9999999/1" value="0" leadInLength="0/1"  />
             </VectorParam>
             <VectorParam id="5863"  name="scale">
              <InterpolatingParam id="5864" interp="linr"  time="-9999999/1" value="1" leadInLength="0/1"  />
              <InterpolatingParam id="5865" interp="linr"  time="-9999999/1" value="1" leadInLength="0/1"  />
              <InterpolatingParam id="5866" interp="linr"  time="-9999999/1" value="1" leadInLength="0/1"  />
             </VectorParam>
             <VectorParam id="5867"  name="anchor">
              <InterpolatingParam id="5868" interp="linr"  time="0/1" value="0" leadInLength="0/1"  />
              <InterpolatingParam id="5869" interp="linr"  time="0/1" value="0" leadInLength="0/1"  />
              <InterpolatingParam id="5870" interp="linr"  time="0/1" value="0" leadInLength="0/1"  />
             </VectorParam>
            </Transformer>
            <Parameters>
             <VectorParam id="5871"  name="sourceCrop">
              <InterpolatingParam id="5872" interp="linr"  time="0/1" value="0" leadInLength="0/1"  />
              <InterpolatingParam id="5873" interp="linr"  time="0/1" value="0" leadInLength="0/1"  />
              <InterpolatingParam id="5874" interp="linr"  time="0/1" value="0" leadInLength="0/1"  />
              <InterpolatingParam id="5875" interp="linr"  time="0/1" value="0" leadInLength="0/1"  />
             </VectorParam>
             <VectorParam id="5876"  name="geometryCrop">
              <InterpolatingParam id="5877" interp="linr"  time="-9999999/1" value="0" leadInLength="0/1"  />
              <InterpolatingParam id="5878" interp="linr"  time="-9999999/1" value="0" leadInLength="0/1"  />
              <InterpolatingParam id="5879" interp="linr"  time="-9999999/1" value="0" leadInLength="0/1"  />
              <InterpolatingParam id="5880" interp="linr"  time="-9999999/1" value="0" leadInLength="0/1"  />
             </VectorParam>
             <InterpolatingParam id="5881" interp="linr"  time="-9999999/1" value="1" leadInLength="0/1"  name="opacity"/>
            </Parameters>
            <Attributes>
             <Attribute id="5882" value="" name="ident"/>
            </Attributes>
            <MetaData>
             <entry key="WinSubProjectDisplayName" val=""/>
            </MetaData>
            <ExtraData>
             <Entry key="ZoomPanBin">
              <ZoomPanBin id="5883"  >
               <ZoomPanKeyframes>
               </ZoomPanKeyframes>
              </ZoomPanBin>
             </Entry>
            </ExtraData>
           </IMFile>
           <VMFile id="5884" start="8494" duration="1" scalar="1/1" mediaStart="29074/1" mediaDuration="1/1" trackNumber="0" src="4" >
            <Transformer>
             <VectorParam id="5885"  name="translation">
              <InterpolatingParam id="5886" interp="linr"  time="-9999999/1" value="0" leadInLength="0/1"  />
              <InterpolatingParam id="5887" interp="linr"  time="-9999999/1" value="0" leadInLength="0/1"  />
              <InterpolatingParam id="5888" interp="linr"  time="-9999999/1" value="0" leadInLength="0/1"  />
             </VectorParam>
             <VectorParam id="5889"  name="rotation">
              <InterpolatingParam id="5890" interp="linr"  time="-9999999/1" value="0" leadInLength="0/1"  />
              <InterpolatingParam id="5891" interp="linr"  time="-9999999/1" value="0" leadInLength="0/1"  />
              <InterpolatingParam id="5892" interp="linr"  time="-9999999/1" value="0" leadInLength="0/1"  />
             </VectorParam>
             <VectorParam id="5893"  name="shear">
              <InterpolatingParam id="5894" interp="linr"  time="-9999999/1" value="0" leadInLength="0/1"  />
              <InterpolatingParam id="5895" interp="linr"  time="-9999999/1" value="0" leadInLength="0/1"  />
              <InterpolatingParam id="5896" interp="linr"  time="-9999999/1" value="0" leadInLength="0/1"  />
             </VectorParam>
             <VectorParam id="5897"  name="scale">
              <InterpolatingParam id="5898" interp="linr"  time="-9999999/1" value="1" leadInLength="0/1"  />
              <InterpolatingParam id="5899" interp="linr"  time="-9999999/1" value="1" leadInLength="0/1"  />
              <InterpolatingParam id="5900" interp="linr"  time="-9999999/1" value="1" leadInLength="0/1"  />
             </VectorParam>
             <VectorParam id="5901"  name="anchor">
              <InterpolatingParam id="5902" interp="linr"  time="0/1" value="0" leadInLength="0/1"  />
              <InterpolatingParam id="5903" interp="linr"  time="0/1" value="0" leadInLength="0/1"  />
              <InterpolatingParam id="5904" interp="linr"  time="0/1" value="0" leadInLength="0/1"  />
             </VectorParam>
            </Transformer>
            <Parameters>
             <VectorParam id="5905"  name="sourceCrop">
              <InterpolatingParam id="5906" interp="linr"  time="0/1" value="0" leadInLength="0/1"  />
              <InterpolatingParam id="5907" interp="linr"  time="0/1" value="0" leadInLength="0/1"  />
              <InterpolatingParam id="5908" interp="linr"  time="0/1" value="0" leadInLength="0/1"  />
              <InterpolatingParam id="5909" interp="linr"  time="0/1" value="0" leadInLength="0/1"  />
             </VectorParam>
             <VectorParam id="5910"  name="geometryCrop">
              <InterpolatingParam id="5911" interp="linr"  time="-9999999/1" value="0" leadInLength="0/1"  />
              <InterpolatingParam id="5912" interp="linr"  time="-9999999/1" value="0" leadInLength="0/1"  />
              <InterpolatingParam id="5913" interp="linr"  time="-9999999/1" value="0" leadInLength="0/1"  />
              <InterpolatingParam id="5914" interp="linr"  time="-9999999/1" value="0" leadInLength="0/1"  />
             </VectorParam>
             <InterpolatingParam id="5915" interp="linr"  time="-9999999/1" value="1" leadInLength="0/1"  name="opacity"/>
            </Parameters>
            <Attributes>
             <Attribute id="5916" value="" name="ident"/>
            </Attributes>
            <MetaData>
             <entry key="WinSubProjectDisplayName" val=""/>
            </MetaData>
            <ExtraData>
             <Entry key="ZoomPanBin">
              <ZoomPanBin id="5917"  >
               <ZoomPanKeyframes>
               </ZoomPanKeyframes>
              </ZoomPanBin>
             </Entry>
            </ExtraData>
           </VMFile>
           <VMFile id="5918" start="8495" duration="42" scalar="1/1" mediaStart="29274/1" mediaDuration="42/1" trackNumber="0" src="4" >
            <Transformer>
             <VectorParam id="5919"  name="translation">
              <InterpolatingParam id="5920" interp="linr"  time="-9999999/1" value="0" leadInLength="0/1"  />
              <InterpolatingParam id="5921" interp="linr"  time="-9999999/1" value="0" leadInLength="0/1"  />
              <InterpolatingParam id="5922" interp="linr"  time="-9999999/1" value="0" leadInLength="0/1"  />
             </VectorParam>
             <VectorParam id="5923"  name="rotation">
              <InterpolatingParam id="5924" interp="linr"  time="-9999999/1" value="0" leadInLength="0/1"  />
              <InterpolatingParam id="5925" interp="linr"  time="-9999999/1" value="0" leadInLength="0/1"  />
              <InterpolatingParam id="5926" interp="linr"  time="-9999999/1" value="0" leadInLength="0/1"  />
             </VectorParam>
             <VectorParam id="5927"  name="shear">
              <InterpolatingParam id="5928" interp="linr"  time="-9999999/1" value="0" leadInLength="0/1"  />
              <InterpolatingParam id="5929" interp="linr"  time="-9999999/1" value="0" leadInLength="0/1"  />
              <InterpolatingParam id="5930" interp="linr"  time="-9999999/1" value="0" leadInLength="0/1"  />
             </VectorParam>
             <VectorParam id="5931"  name="scale">
              <InterpolatingParam id="5932" interp="linr"  time="-9999999/1" value="1" leadInLength="0/1"  />
              <InterpolatingParam id="5933" interp="linr"  time="-9999999/1" value="1" leadInLength="0/1"  />
              <InterpolatingParam id="5934" interp="linr"  time="-9999999/1" value="1" leadInLength="0/1"  />
             </VectorParam>
             <VectorParam id="5935"  name="anchor">
              <InterpolatingParam id="5936" interp="linr"  time="0/1" value="0" leadInLength="0/1"  />
              <InterpolatingParam id="5937" interp="linr"  time="0/1" value="0" leadInLength="0/1"  />
              <InterpolatingParam id="5938" interp="linr"  time="0/1" value="0" leadInLength="0/1"  />
             </VectorParam>
            </Transformer>
            <Parameters>
             <VectorParam id="5939"  name="sourceCrop">
              <InterpolatingParam id="5940" interp="linr"  time="0/1" value="0" leadInLength="0/1"  />
              <InterpolatingParam id="5941" interp="linr"  time="0/1" value="0" leadInLength="0/1"  />
              <InterpolatingParam id="5942" interp="linr"  time="0/1" value="0" leadInLength="0/1"  />
              <InterpolatingParam id="5943" interp="linr"  time="0/1" value="0" leadInLength="0/1"  />
             </VectorParam>
             <VectorParam id="5944"  name="geometryCrop">
              <InterpolatingParam id="5945" interp="linr"  time="-9999999/1" value="0" leadInLength="0/1"  />
              <InterpolatingParam id="5946" interp="linr"  time="-9999999/1" value="0" leadInLength="0/1"  />
              <InterpolatingParam id="5947" interp="linr"  time="-9999999/1" value="0" leadInLength="0/1"  />
              <InterpolatingParam id="5948" interp="linr"  time="-9999999/1" value="0" leadInLength="0/1"  />
             </VectorParam>
             <InterpolatingParam id="5949" interp="linr"  time="-9999999/1" value="1" leadInLength="0/1"  name="opacity"/>
            </Parameters>
            <Attributes>
             <Attribute id="5950" value="" name="ident"/>
            </Attributes>
            <MetaData>
             <entry key="WinSubProjectDisplayName" val=""/>
            </MetaData>
            <ExtraData>
             <Entry key="ZoomPanBin">
              <ZoomPanBin id="5951"  >
               <ZoomPanKeyframes>
               </ZoomPanKeyframes>
              </ZoomPanBin>
             </Entry>
            </ExtraData>
           </VMFile>
           <VMFile id="5952" start="8537" duration="147" scalar="1/1" mediaStart="29358/1" mediaDuration="147/1" trackNumber="0" src="4" >
            <Transformer>
             <VectorParam id="5953"  name="translation">
              <InterpolatingParam id="5954" interp="linr"  time="-9999999/1" value="0" leadInLength="0/1"  />
              <InterpolatingParam id="5955" interp="linr"  time="-9999999/1" value="0" leadInLength="0/1"  />
              <InterpolatingParam id="5956" interp="linr"  time="-9999999/1" value="0" leadInLength="0/1"  />
             </VectorParam>
             <VectorParam id="5957"  name="rotation">
              <InterpolatingParam id="5958" interp="linr"  time="-9999999/1" value="0" leadInLength="0/1"  />
              <InterpolatingParam id="5959" interp="linr"  time="-9999999/1" value="0" leadInLength="0/1"  />
              <InterpolatingParam id="5960" interp="linr"  time="-9999999/1" value="0" leadInLength="0/1"  />
             </VectorParam>
             <VectorParam id="5961"  name="shear">
              <InterpolatingParam id="5962" interp="linr"  time="-9999999/1" value="0" leadInLength="0/1"  />
              <InterpolatingParam id="5963" interp="linr"  time="-9999999/1" value="0" leadInLength="0/1"  />
              <InterpolatingParam id="5964" interp="linr"  time="-9999999/1" value="0" leadInLength="0/1"  />
             </VectorParam>
             <VectorParam id="5965"  name="scale">
              <InterpolatingParam id="5966" interp="linr"  time="-9999999/1" value="1" leadInLength="0/1"  />
              <InterpolatingParam id="5967" interp="linr"  time="-9999999/1" value="1" leadInLength="0/1"  />
              <InterpolatingParam id="5968" interp="linr"  time="-9999999/1" value="1" leadInLength="0/1"  />
             </VectorParam>
             <VectorParam id="5969"  name="anchor">
              <InterpolatingParam id="5970" interp="linr"  time="0/1" value="0" leadInLength="0/1"  />
              <InterpolatingParam id="5971" interp="linr"  time="0/1" value="0" leadInLength="0/1"  />
              <InterpolatingParam id="5972" interp="linr"  time="0/1" value="0" leadInLength="0/1"  />
             </VectorParam>
            </Transformer>
            <Parameters>
             <VectorParam id="5973"  name="sourceCrop">
              <InterpolatingParam id="5974" interp="linr"  time="0/1" value="0" leadInLength="0/1"  />
              <InterpolatingParam id="5975" interp="linr"  time="0/1" value="0" leadInLength="0/1"  />
              <InterpolatingParam id="5976" interp="linr"  time="0/1" value="0" leadInLength="0/1"  />
              <InterpolatingParam id="5977" interp="linr"  time="0/1" value="0" leadInLength="0/1"  />
             </VectorParam>
             <VectorParam id="5978"  name="geometryCrop">
              <InterpolatingParam id="5979" interp="linr"  time="-9999999/1" value="0" leadInLength="0/1"  />
              <InterpolatingParam id="5980" interp="linr"  time="-9999999/1" value="0" leadInLength="0/1"  />
              <InterpolatingParam id="5981" interp="linr"  time="-9999999/1" value="0" leadInLength="0/1"  />
              <InterpolatingParam id="5982" interp="linr"  time="-9999999/1" value="0" leadInLength="0/1"  />
             </VectorParam>
             <InterpolatingParam id="5983" interp="linr"  time="-9999999/1" value="1" leadInLength="0/1"  name="opacity"/>
            </Parameters>
            <Attributes>
             <Attribute id="5984" value="" name="ident"/>
            </Attributes>
            <MetaData>
             <entry key="WinSubProjectDisplayName" val=""/>
            </MetaData>
            <ExtraData>
             <Entry key="ZoomPanBin">
              <ZoomPanBin id="5985"  >
               <ZoomPanKeyframes>
               </ZoomPanKeyframes>
              </ZoomPanBin>
             </Entry>
            </ExtraData>
           </VMFile>
           <VMFile id="5986" start="8684" duration="580" scalar="1/1" mediaStart="29557/1" mediaDuration="580/1" trackNumber="0" src="4" >
            <Transformer>
             <VectorParam id="5987"  name="translation">
              <InterpolatingParam id="5988" interp="linr"  time="-9999999/1" value="0" leadInLength="0/1"  />
              <InterpolatingParam id="5989" interp="linr"  time="-9999999/1" value="0" leadInLength="0/1"  />
              <InterpolatingParam id="5990" interp="linr"  time="-9999999/1" value="0" leadInLength="0/1"  />
             </VectorParam>
             <VectorParam id="5991"  name="rotation">
              <InterpolatingParam id="5992" interp="linr"  time="-9999999/1" value="0" leadInLength="0/1"  />
              <InterpolatingParam id="5993" interp="linr"  time="-9999999/1" value="0" leadInLength="0/1"  />
              <InterpolatingParam id="5994" interp="linr"  time="-9999999/1" value="0" leadInLength="0/1"  />
             </VectorParam>
             <VectorParam id="5995"  name="shear">
              <InterpolatingParam id="5996" interp="linr"  time="-9999999/1" value="0" leadInLength="0/1"  />
              <InterpolatingParam id="5997" interp="linr"  time="-9999999/1" value="0" leadInLength="0/1"  />
              <InterpolatingParam id="5998" interp="linr"  time="-9999999/1" value="0" leadInLength="0/1"  />
             </VectorParam>
             <VectorParam id="5999"  name="scale">
              <InterpolatingParam id="6000" interp="linr"  time="-9999999/1" value="1" leadInLength="0/1"  />
              <InterpolatingParam id="6001" interp="linr"  time="-9999999/1" value="1" leadInLength="0/1"  />
              <InterpolatingParam id="6002" interp="linr"  time="-9999999/1" value="1" leadInLength="0/1"  />
             </VectorParam>
             <VectorParam id="6003"  name="anchor">
              <InterpolatingParam id="6004" interp="linr"  time="0/1" value="0" leadInLength="0/1"  />
              <InterpolatingParam id="6005" interp="linr"  time="0/1" value="0" leadInLength="0/1"  />
              <InterpolatingParam id="6006" interp="linr"  time="0/1" value="0" leadInLength="0/1"  />
             </VectorParam>
            </Transformer>
            <Parameters>
             <VectorParam id="6007"  name="sourceCrop">
              <InterpolatingParam id="6008" interp="linr"  time="0/1" value="0" leadInLength="0/1"  />
              <InterpolatingParam id="6009" interp="linr"  time="0/1" value="0" leadInLength="0/1"  />
              <InterpolatingParam id="6010" interp="linr"  time="0/1" value="0" leadInLength="0/1"  />
              <InterpolatingParam id="6011" interp="linr"  time="0/1" value="0" leadInLength="0/1"  />
             </VectorParam>
             <VectorParam id="6012"  name="geometryCrop">
              <InterpolatingParam id="6013" interp="linr"  time="-9999999/1" value="0" leadInLength="0/1"  />
              <InterpolatingParam id="6014" interp="linr"  time="-9999999/1" value="0" leadInLength="0/1"  />
              <InterpolatingParam id="6015" interp="linr"  time="-9999999/1" value="0" leadInLength="0/1"  />
              <InterpolatingParam id="6016" interp="linr"  time="-9999999/1" value="0" leadInLength="0/1"  />
             </VectorParam>
             <InterpolatingParam id="6017" interp="linr"  time="-9999999/1" value="1" leadInLength="0/1"  name="opacity"/>
            </Parameters>
            <Attributes>
             <Attribute id="6018" value="" name="ident"/>
            </Attributes>
            <MetaData>
             <entry key="WinSubProjectDisplayName" val=""/>
            </MetaData>
            <ExtraData>
             <Entry key="ZoomPanBin">
              <ZoomPanBin id="6019"  >
               <ZoomPanKeyframes>
               </ZoomPanKeyframes>
              </ZoomPanBin>
             </Entry>
            </ExtraData>
           </VMFile>
           <VMFile id="6020" start="9264" duration="25" scalar="1/1" mediaStart="30200/1" mediaDuration="25/1" trackNumber="0" src="4" >
            <Transformer>
             <VectorParam id="6021"  name="translation">
              <InterpolatingParam id="6022" interp="linr"  time="-9999999/1" value="0" leadInLength="0/1"  />
              <InterpolatingParam id="6023" interp="linr"  time="-9999999/1" value="0" leadInLength="0/1"  />
              <InterpolatingParam id="6024" interp="linr"  time="-9999999/1" value="0" leadInLength="0/1"  />
             </VectorParam>
             <VectorParam id="6025"  name="rotation">
              <InterpolatingParam id="6026" interp="linr"  time="-9999999/1" value="0" leadInLength="0/1"  />
              <InterpolatingParam id="6027" interp="linr"  time="-9999999/1" value="0" leadInLength="0/1"  />
              <InterpolatingParam id="6028" interp="linr"  time="-9999999/1" value="0" leadInLength="0/1"  />
             </VectorParam>
             <VectorParam id="6029"  name="shear">
              <InterpolatingParam id="6030" interp="linr"  time="-9999999/1" value="0" leadInLength="0/1"  />
              <InterpolatingParam id="6031" interp="linr"  time="-9999999/1" value="0" leadInLength="0/1"  />
              <InterpolatingParam id="6032" interp="linr"  time="-9999999/1" value="0" leadInLength="0/1"  />
             </VectorParam>
             <VectorParam id="6033"  name="scale">
              <InterpolatingParam id="6034" interp="linr"  time="-9999999/1" value="1" leadInLength="0/1"  />
              <InterpolatingParam id="6035" interp="linr"  time="-9999999/1" value="1" leadInLength="0/1"  />
              <InterpolatingParam id="6036" interp="linr"  time="-9999999/1" value="1" leadInLength="0/1"  />
             </VectorParam>
             <VectorParam id="6037"  name="anchor">
              <InterpolatingParam id="6038" interp="linr"  time="0/1" value="0" leadInLength="0/1"  />
              <InterpolatingParam id="6039" interp="linr"  time="0/1" value="0" leadInLength="0/1"  />
              <InterpolatingParam id="6040" interp="linr"  time="0/1" value="0" leadInLength="0/1"  />
             </VectorParam>
            </Transformer>
            <Parameters>
             <VectorParam id="6041"  name="sourceCrop">
              <InterpolatingParam id="6042" interp="linr"  time="0/1" value="0" leadInLength="0/1"  />
              <InterpolatingParam id="6043" interp="linr"  time="0/1" value="0" leadInLength="0/1"  />
              <InterpolatingParam id="6044" interp="linr"  time="0/1" value="0" leadInLength="0/1"  />
              <InterpolatingParam id="6045" interp="linr"  time="0/1" value="0" leadInLength="0/1"  />
             </VectorParam>
             <VectorParam id="6046"  name="geometryCrop">
              <InterpolatingParam id="6047" interp="linr"  time="-9999999/1" value="0" leadInLength="0/1"  />
              <InterpolatingParam id="6048" interp="linr"  time="-9999999/1" value="0" leadInLength="0/1"  />
              <InterpolatingParam id="6049" interp="linr"  time="-9999999/1" value="0" leadInLength="0/1"  />
              <InterpolatingParam id="6050" interp="linr"  time="-9999999/1" value="0" leadInLength="0/1"  />
             </VectorParam>
             <InterpolatingParam id="6051" interp="linr"  time="-9999999/1" value="1" leadInLength="0/1"  name="opacity"/>
            </Parameters>
            <Attributes>
             <Attribute id="6052" value="" name="ident"/>
            </Attributes>
            <MetaData>
             <entry key="WinSubProjectDisplayName" val=""/>
            </MetaData>
            <ExtraData>
             <Entry key="ZoomPanBin">
              <ZoomPanBin id="6053"  >
               <ZoomPanKeyframes>
               </ZoomPanKeyframes>
              </ZoomPanBin>
             </Entry>
            </ExtraData>
           </VMFile>
           <VMFile id="6054" start="9289" duration="119" scalar="1/1" mediaStart="30368/1" mediaDuration="119/1" trackNumber="0" src="4" >
            <Transformer>
             <VectorParam id="6055"  name="translation">
              <InterpolatingParam id="6056" interp="linr"  time="-9999999/1" value="0" leadInLength="0/1"  />
              <InterpolatingParam id="6057" interp="linr"  time="-9999999/1" value="0" leadInLength="0/1"  />
              <InterpolatingParam id="6058" interp="linr"  time="-9999999/1" value="0" leadInLength="0/1"  />
             </VectorParam>
             <VectorParam id="6059"  name="rotation">
              <InterpolatingParam id="6060" interp="linr"  time="-9999999/1" value="0" leadInLength="0/1"  />
              <InterpolatingParam id="6061" interp="linr"  time="-9999999/1" value="0" leadInLength="0/1"  />
              <InterpolatingParam id="6062" interp="linr"  time="-9999999/1" value="0" leadInLength="0/1"  />
             </VectorParam>
             <VectorParam id="6063"  name="shear">
              <InterpolatingParam id="6064" interp="linr"  time="-9999999/1" value="0" leadInLength="0/1"  />
              <InterpolatingParam id="6065" interp="linr"  time="-9999999/1" value="0" leadInLength="0/1"  />
              <InterpolatingParam id="6066" interp="linr"  time="-9999999/1" value="0" leadInLength="0/1"  />
             </VectorParam>
             <VectorParam id="6067"  name="scale">
              <InterpolatingParam id="6068" interp="linr"  time="-9999999/1" value="1" leadInLength="0/1"  />
              <InterpolatingParam id="6069" interp="linr"  time="-9999999/1" value="1" leadInLength="0/1"  />
              <InterpolatingParam id="6070" interp="linr"  time="-9999999/1" value="1" leadInLength="0/1"  />
             </VectorParam>
             <VectorParam id="6071"  name="anchor">
              <InterpolatingParam id="6072" interp="linr"  time="0/1" value="0" leadInLength="0/1"  />
              <InterpolatingParam id="6073" interp="linr"  time="0/1" value="0" leadInLength="0/1"  />
              <InterpolatingParam id="6074" interp="linr"  time="0/1" value="0" leadInLength="0/1"  />
             </VectorParam>
            </Transformer>
            <Parameters>
             <VectorParam id="6075"  name="sourceCrop">
              <InterpolatingParam id="6076" interp="linr"  time="0/1" value="0" leadInLength="0/1"  />
              <InterpolatingParam id="6077" interp="linr"  time="0/1" value="0" leadInLength="0/1"  />
              <InterpolatingParam id="6078" interp="linr"  time="0/1" value="0" leadInLength="0/1"  />
              <InterpolatingParam id="6079" interp="linr"  time="0/1" value="0" leadInLength="0/1"  />
             </VectorParam>
             <VectorParam id="6080"  name="geometryCrop">
              <InterpolatingParam id="6081" interp="linr"  time="-9999999/1" value="0" leadInLength="0/1"  />
              <InterpolatingParam id="6082" interp="linr"  time="-9999999/1" value="0" leadInLength="0/1"  />
              <InterpolatingParam id="6083" interp="linr"  time="-9999999/1" value="0" leadInLength="0/1"  />
              <InterpolatingParam id="6084" interp="linr"  time="-9999999/1" value="0" leadInLength="0/1"  />
             </VectorParam>
             <InterpolatingParam id="6085" interp="linr"  time="-9999999/1" value="1" leadInLength="0/1"  name="opacity"/>
            </Parameters>
            <Attributes>
             <Attribute id="6086" value="" name="ident"/>
            </Attributes>
            <MetaData>
             <entry key="WinSubProjectDisplayName" val=""/>
            </MetaData>
            <ExtraData>
             <Entry key="ZoomPanBin">
              <ZoomPanBin id="6087"  >
               <ZoomPanKeyframes>
               </ZoomPanKeyframes>
              </ZoomPanBin>
             </Entry>
            </ExtraData>
           </VMFile>
           <VMFile id="6088" start="9408" duration="411" scalar="1/1" mediaStart="30756/1" mediaDuration="411/1" trackNumber="0" src="4" >
            <Transformer>
             <VectorParam id="6089"  name="translation">
              <InterpolatingParam id="6090" interp="linr"  time="-9999999/1" value="0" leadInLength="0/1"  />
              <InterpolatingParam id="6091" interp="linr"  time="-9999999/1" value="0" leadInLength="0/1"  />
              <InterpolatingParam id="6092" interp="linr"  time="-9999999/1" value="0" leadInLength="0/1"  />
             </VectorParam>
             <VectorParam id="6093"  name="rotation">
              <InterpolatingParam id="6094" interp="linr"  time="-9999999/1" value="0" leadInLength="0/1"  />
              <InterpolatingParam id="6095" interp="linr"  time="-9999999/1" value="0" leadInLength="0/1"  />
              <InterpolatingParam id="6096" interp="linr"  time="-9999999/1" value="0" leadInLength="0/1"  />
             </VectorParam>
             <VectorParam id="6097"  name="shear">
              <InterpolatingParam id="6098" interp="linr"  time="-9999999/1" value="0" leadInLength="0/1"  />
              <InterpolatingParam id="6099" interp="linr"  time="-9999999/1" value="0" leadInLength="0/1"  />
              <InterpolatingParam id="6100" interp="linr"  time="-9999999/1" value="0" leadInLength="0/1"  />
             </VectorParam>
             <VectorParam id="6101"  name="scale">
              <InterpolatingParam id="6102" interp="linr"  time="-9999999/1" value="1" leadInLength="0/1"  />
              <InterpolatingParam id="6103" interp="linr"  time="-9999999/1" value="1" leadInLength="0/1"  />
              <InterpolatingParam id="6104" interp="linr"  time="-9999999/1" value="1" leadInLength="0/1"  />
             </VectorParam>
             <VectorParam id="6105"  name="anchor">
              <InterpolatingParam id="6106" interp="linr"  time="0/1" value="0" leadInLength="0/1"  />
              <InterpolatingParam id="6107" interp="linr"  time="0/1" value="0" leadInLength="0/1"  />
              <InterpolatingParam id="6108" interp="linr"  time="0/1" value="0" leadInLength="0/1"  />
             </VectorParam>
            </Transformer>
            <Parameters>
             <VectorParam id="6109"  name="sourceCrop">
              <InterpolatingParam id="6110" interp="linr"  time="0/1" value="0" leadInLength="0/1"  />
              <InterpolatingParam id="6111" interp="linr"  time="0/1" value="0" leadInLength="0/1"  />
              <InterpolatingParam id="6112" interp="linr"  time="0/1" value="0" leadInLength="0/1"  />
              <InterpolatingParam id="6113" interp="linr"  time="0/1" value="0" leadInLength="0/1"  />
             </VectorParam>
             <VectorParam id="6114"  name="geometryCrop">
              <InterpolatingParam id="6115" interp="linr"  time="-9999999/1" value="0" leadInLength="0/1"  />
              <InterpolatingParam id="6116" interp="linr"  time="-9999999/1" value="0" leadInLength="0/1"  />
              <InterpolatingParam id="6117" interp="linr"  time="-9999999/1" value="0" leadInLength="0/1"  />
              <InterpolatingParam id="6118" interp="linr"  time="-9999999/1" value="0" leadInLength="0/1"  />
             </VectorParam>
             <InterpolatingParam id="6119" interp="linr"  time="-9999999/1" value="1" leadInLength="0/1"  name="opacity"/>
            </Parameters>
            <Attributes>
             <Attribute id="6120" value="" name="ident"/>
            </Attributes>
            <MetaData>
             <entry key="WinSubProjectDisplayName" val=""/>
            </MetaData>
            <ExtraData>
             <Entry key="ZoomPanBin">
              <ZoomPanBin id="6121"  >
               <ZoomPanKeyframes>
               </ZoomPanKeyframes>
              </ZoomPanBin>
             </Entry>
            </ExtraData>
           </VMFile>
          </Medias>
         </GenericTrack>
        </StitchedMedia>
        <StitchedMedia id="6122" start="1305" duration="228" scalar="1923/2884" mediaStart="4617284/1923" mediaDuration="219184/641" minMediaStart="0/1" >
         <Transformer>
          <VectorParam id="6123"  name="translation">
           <InterpolatingParam id="6124" interp="linr"  time="-9999999/1" value="0" leadInLength="0/1"  interpolater="leadin-linr"  />
           <InterpolatingParam id="6125" interp="linr"  time="-9999999/1" value="0" leadInLength="0/1"  interpolater="leadin-linr"  />
           <InterpolatingParam id="6126" interp="linr"  time="-9999999/1" value="0" leadInLength="0/1"  interpolater="leadin-linr"  />
          </VectorParam>
          <VectorParam id="6127"  name="rotation">
           <InterpolatingParam id="6128" interp="linr"  time="-9999999/1" value="0" leadInLength="0/1"  interpolater="leadin-linr"  />
           <InterpolatingParam id="6129" interp="linr"  time="-9999999/1" value="0" leadInLength="0/1"  interpolater="leadin-linr"  />
           <InterpolatingParam id="6130" interp="linr"  time="-9999999/1" value="0" leadInLength="0/1"  interpolater="leadin-linr"  />
          </VectorParam>
          <VectorParam id="6131"  name="shear">
           <InterpolatingParam id="6132" interp="linr"  time="-9999999/1" value="0" leadInLength="0/1"  interpolater="leadin-linr"  />
           <InterpolatingParam id="6133" interp="linr"  time="-9999999/1" value="0" leadInLength="0/1"  interpolater="leadin-linr"  />
           <InterpolatingParam id="6134" interp="linr"  time="-9999999/1" value="0" leadInLength="0/1"  interpolater="leadin-linr"  />
          </VectorParam>
          <VectorParam id="6135"  name="scale">
           <InterpolatingParam id="6136" interp="linr"  time="-9999999/1" value="1" leadInLength="0/1"  interpolater="leadin-linr"  />
           <InterpolatingParam id="6137" interp="linr"  time="-9999999/1" value="1" leadInLength="0/1"  interpolater="leadin-linr"  />
           <InterpolatingParam id="6138" interp="linr"  time="-9999999/1" value="1" leadInLength="0/1"  interpolater="leadin-linr"  />
          </VectorParam>
          <VectorParam id="6139"  name="anchor">
           <InterpolatingParam id="6140" interp="linr"  time="0/1" value="0" leadInLength="0/1"  />
           <InterpolatingParam id="6141" interp="linr"  time="0/1" value="0" leadInLength="0/1"  />
           <InterpolatingParam id="6142" interp="linr"  time="0/1" value="0" leadInLength="0/1"  />
          </VectorParam>
         </Transformer>
         <Parameters>
          <VectorParam id="6143"  name="sourceCrop">
           <InterpolatingParam id="6144" interp="linr"  time="0/1" value="0" leadInLength="0/1"  />
           <InterpolatingParam id="6145" interp="linr"  time="0/1" value="0" leadInLength="0/1"  />
           <InterpolatingParam id="6146" interp="linr"  time="0/1" value="0" leadInLength="0/1"  />
           <InterpolatingParam id="6147" interp="linr"  time="0/1" value="0" leadInLength="0/1"  />
          </VectorParam>
          <VectorParam id="6148"  name="geometryCrop">
           <InterpolatingParam id="6149" interp="linr"  time="-9999999/1" value="0" leadInLength="0/1"  interpolater="leadin-linr"  />
           <InterpolatingParam id="6150" interp="linr"  time="-9999999/1" value="0" leadInLength="0/1"  interpolater="leadin-linr"  />
           <InterpolatingParam id="6151" interp="linr"  time="-9999999/1" value="0" leadInLength="0/1"  interpolater="leadin-linr"  />
           <InterpolatingParam id="6152" interp="linr"  time="-9999999/1" value="0" leadInLength="0/1"  interpolater="leadin-linr"  />
          </VectorParam>
          <InterpolatingParam id="6153" interp="linr"  time="-9999999/1" value="1" leadInLength="0/1"  interpolater="leadin-linr"  name="opacity"/>
          <InterpolatingParam id="6154" interp="linr"  time="0/1" value="1" leadInLength="0/1"  name="cursorOpacity"/>
          <InterpolatingParam id="6155" interp="linr"  time="0/1" value="1" leadInLength="0/1"  name="cursorScale"/>
          <Parameter id="6156"  name="captions"/>
         </Parameters>
         <Attributes>
          <Attribute id="6157" value="" name="ident"/>
         </Attributes>
         <MetaData>
          <entry key="WinSubProjectDisplayName" val=""/>
         </MetaData>
         <ExtraData>
          <Entry key="ZoomPanBin">
           <ZoomPanBin id="6158"  >
            <ZoomPanKeyframes>
             <ZoomPanKeyframe id="6159" timeRangeEnd="-9999999/1" timeRangeDuration="0/1" interpolaterName="linr"  />
            </ZoomPanKeyframes>
           </ZoomPanBin>
          </Entry>
          <Entry key="CursorEffectBin">
           <CursorEffectBin id="6160"  >
            <CursorEffectKeyframes>
            </CursorEffectKeyframes>
           </CursorEffectBin>
          </Entry>
         </ExtraData>
         <GenericTrack id="6161"  >
          <Attributes>
           <Attribute id="6162" value="" name="ident"/>
           <Attribute id="6163" value="0" name="audioMuted"/>
           <Attribute id="6164" value="0" name="videoHidden"/>
          </Attributes>
          <MetaData>
           <entry key="IsLocked" val="False"/>
           <entry key="WinTrackHeight" val="0"/>
          </MetaData>
          <Medias>
           <VMFile id="6165" start="0" duration="1880" scalar="1/1" mediaStart="0/1" mediaDuration="1880/1" trackNumber="0" src="4" >
            <Transformer>
             <VectorParam id="6166"  name="translation">
              <InterpolatingParam id="6167" interp="linr"  time="-9999999/1" value="0" leadInLength="0/1"  />
              <InterpolatingParam id="6168" interp="linr"  time="-9999999/1" value="0" leadInLength="0/1"  />
              <InterpolatingParam id="6169" interp="linr"  time="-9999999/1" value="0" leadInLength="0/1"  />
             </VectorParam>
             <VectorParam id="6170"  name="rotation">
              <InterpolatingParam id="6171" interp="linr"  time="-9999999/1" value="0" leadInLength="0/1"  />
              <InterpolatingParam id="6172" interp="linr"  time="-9999999/1" value="0" leadInLength="0/1"  />
              <InterpolatingParam id="6173" interp="linr"  time="-9999999/1" value="0" leadInLength="0/1"  />
             </VectorParam>
             <VectorParam id="6174"  name="shear">
              <InterpolatingParam id="6175" interp="linr"  time="-9999999/1" value="0" leadInLength="0/1"  />
              <InterpolatingParam id="6176" interp="linr"  time="-9999999/1" value="0" leadInLength="0/1"  />
              <InterpolatingParam id="6177" interp="linr"  time="-9999999/1" value="0" leadInLength="0/1"  />
             </VectorParam>
             <VectorParam id="6178"  name="scale">
              <InterpolatingParam id="6179" interp="linr"  time="-9999999/1" value="1" leadInLength="0/1"  />
              <InterpolatingParam id="6180" interp="linr"  time="-9999999/1" value="1" leadInLength="0/1"  />
              <InterpolatingParam id="6181" interp="linr"  time="-9999999/1" value="1" leadInLength="0/1"  />
             </VectorParam>
             <VectorParam id="6182"  name="anchor">
              <InterpolatingParam id="6183" interp="linr"  time="0/1" value="0" leadInLength="0/1"  />
              <InterpolatingParam id="6184" interp="linr"  time="0/1" value="0" leadInLength="0/1"  />
              <InterpolatingParam id="6185" interp="linr"  time="0/1" value="0" leadInLength="0/1"  />
             </VectorParam>
            </Transformer>
            <Parameters>
             <VectorParam id="6186"  name="sourceCrop">
              <InterpolatingParam id="6187" interp="linr"  time="0/1" value="0" leadInLength="0/1"  />
              <InterpolatingParam id="6188" interp="linr"  time="0/1" value="0" leadInLength="0/1"  />
              <InterpolatingParam id="6189" interp="linr"  time="0/1" value="0" leadInLength="0/1"  />
              <InterpolatingParam id="6190" interp="linr"  time="0/1" value="0" leadInLength="0/1"  />
             </VectorParam>
             <VectorParam id="6191"  name="geometryCrop">
              <InterpolatingParam id="6192" interp="linr"  time="-9999999/1" value="0" leadInLength="0/1"  />
              <InterpolatingParam id="6193" interp="linr"  time="-9999999/1" value="0" leadInLength="0/1"  />
              <InterpolatingParam id="6194" interp="linr"  time="-9999999/1" value="0" leadInLength="0/1"  />
              <InterpolatingParam id="6195" interp="linr"  time="-9999999/1" value="0" leadInLength="0/1"  />
             </VectorParam>
             <InterpolatingParam id="6196" interp="linr"  time="-9999999/1" value="1" leadInLength="0/1"  name="opacity"/>
            </Parameters>
            <Attributes>
             <Attribute id="6197" value="" name="ident"/>
            </Attributes>
            <MetaData>
             <entry key="WinSubProjectDisplayName" val=""/>
            </MetaData>
            <ExtraData>
             <Entry key="ZoomPanBin">
              <ZoomPanBin id="6198"  >
               <ZoomPanKeyframes>
               </ZoomPanKeyframes>
              </ZoomPanBin>
             </Entry>
            </ExtraData>
           </VMFile>
           <VMFile id="6199" start="1880" duration="144" scalar="1/1" mediaStart="2061/1" mediaDuration="144/1" trackNumber="0" src="4" >
            <Transformer>
             <VectorParam id="6200"  name="translation">
              <InterpolatingParam id="6201" interp="linr"  time="-9999999/1" value="0" leadInLength="0/1"  />
              <InterpolatingParam id="6202" interp="linr"  time="-9999999/1" value="0" leadInLength="0/1"  />
              <InterpolatingParam id="6203" interp="linr"  time="-9999999/1" value="0" leadInLength="0/1"  />
             </VectorParam>
             <VectorParam id="6204"  name="rotation">
              <InterpolatingParam id="6205" interp="linr"  time="-9999999/1" value="0" leadInLength="0/1"  />
              <InterpolatingParam id="6206" interp="linr"  time="-9999999/1" value="0" leadInLength="0/1"  />
              <InterpolatingParam id="6207" interp="linr"  time="-9999999/1" value="0" leadInLength="0/1"  />
             </VectorParam>
             <VectorParam id="6208"  name="shear">
              <InterpolatingParam id="6209" interp="linr"  time="-9999999/1" value="0" leadInLength="0/1"  />
              <InterpolatingParam id="6210" interp="linr"  time="-9999999/1" value="0" leadInLength="0/1"  />
              <InterpolatingParam id="6211" interp="linr"  time="-9999999/1" value="0" leadInLength="0/1"  />
             </VectorParam>
             <VectorParam id="6212"  name="scale">
              <InterpolatingParam id="6213" interp="linr"  time="-9999999/1" value="1" leadInLength="0/1"  />
              <InterpolatingParam id="6214" interp="linr"  time="-9999999/1" value="1" leadInLength="0/1"  />
              <InterpolatingParam id="6215" interp="linr"  time="-9999999/1" value="1" leadInLength="0/1"  />
             </VectorParam>
             <VectorParam id="6216"  name="anchor">
              <InterpolatingParam id="6217" interp="linr"  time="0/1" value="0" leadInLength="0/1"  />
              <InterpolatingParam id="6218" interp="linr"  time="0/1" value="0" leadInLength="0/1"  />
              <InterpolatingParam id="6219" interp="linr"  time="0/1" value="0" leadInLength="0/1"  />
             </VectorParam>
            </Transformer>
            <Parameters>
             <VectorParam id="6220"  name="sourceCrop">
              <InterpolatingParam id="6221" interp="linr"  time="0/1" value="0" leadInLength="0/1"  />
              <InterpolatingParam id="6222" interp="linr"  time="0/1" value="0" leadInLength="0/1"  />
              <InterpolatingParam id="6223" interp="linr"  time="0/1" value="0" leadInLength="0/1"  />
              <InterpolatingParam id="6224" interp="linr"  time="0/1" value="0" leadInLength="0/1"  />
             </VectorParam>
             <VectorParam id="6225"  name="geometryCrop">
              <InterpolatingParam id="6226" interp="linr"  time="-9999999/1" value="0" leadInLength="0/1"  />
              <InterpolatingParam id="6227" interp="linr"  time="-9999999/1" value="0" leadInLength="0/1"  />
              <InterpolatingParam id="6228" interp="linr"  time="-9999999/1" value="0" leadInLength="0/1"  />
              <InterpolatingParam id="6229" interp="linr"  time="-9999999/1" value="0" leadInLength="0/1"  />
             </VectorParam>
             <InterpolatingParam id="6230" interp="linr"  time="-9999999/1" value="1" leadInLength="0/1"  name="opacity"/>
            </Parameters>
            <Attributes>
             <Attribute id="6231" value="" name="ident"/>
            </Attributes>
            <MetaData>
             <entry key="WinSubProjectDisplayName" val=""/>
            </MetaData>
            <ExtraData>
             <Entry key="ZoomPanBin">
              <ZoomPanBin id="6232"  >
               <ZoomPanKeyframes>
               </ZoomPanKeyframes>
              </ZoomPanBin>
             </Entry>
            </ExtraData>
           </VMFile>
           <VMFile id="6233" start="2024" duration="474" scalar="1/1" mediaStart="2294/1" mediaDuration="474/1" trackNumber="0" src="4" >
            <Transformer>
             <VectorParam id="6234"  name="translation">
              <InterpolatingParam id="6235" interp="linr"  time="-9999999/1" value="0" leadInLength="0/1"  />
              <InterpolatingParam id="6236" interp="linr"  time="-9999999/1" value="0" leadInLength="0/1"  />
              <InterpolatingParam id="6237" interp="linr"  time="-9999999/1" value="0" leadInLength="0/1"  />
             </VectorParam>
             <VectorParam id="6238"  name="rotation">
              <InterpolatingParam id="6239" interp="linr"  time="-9999999/1" value="0" leadInLength="0/1"  />
              <InterpolatingParam id="6240" interp="linr"  time="-9999999/1" value="0" leadInLength="0/1"  />
              <InterpolatingParam id="6241" interp="linr"  time="-9999999/1" value="0" leadInLength="0/1"  />
             </VectorParam>
             <VectorParam id="6242"  name="shear">
              <InterpolatingParam id="6243" interp="linr"  time="-9999999/1" value="0" leadInLength="0/1"  />
              <InterpolatingParam id="6244" interp="linr"  time="-9999999/1" value="0" leadInLength="0/1"  />
              <InterpolatingParam id="6245" interp="linr"  time="-9999999/1" value="0" leadInLength="0/1"  />
             </VectorParam>
             <VectorParam id="6246"  name="scale">
              <InterpolatingParam id="6247" interp="linr"  time="-9999999/1" value="1" leadInLength="0/1"  />
              <InterpolatingParam id="6248" interp="linr"  time="-9999999/1" value="1" leadInLength="0/1"  />
              <InterpolatingParam id="6249" interp="linr"  time="-9999999/1" value="1" leadInLength="0/1"  />
             </VectorParam>
             <VectorParam id="6250"  name="anchor">
              <InterpolatingParam id="6251" interp="linr"  time="0/1" value="0" leadInLength="0/1"  />
              <InterpolatingParam id="6252" interp="linr"  time="0/1" value="0" leadInLength="0/1"  />
              <InterpolatingParam id="6253" interp="linr"  time="0/1" value="0" leadInLength="0/1"  />
             </VectorParam>
            </Transformer>
            <Parameters>
             <VectorParam id="6254"  name="sourceCrop">
              <InterpolatingParam id="6255" interp="linr"  time="0/1" value="0" leadInLength="0/1"  />
              <InterpolatingParam id="6256" interp="linr"  time="0/1" value="0" leadInLength="0/1"  />
              <InterpolatingParam id="6257" interp="linr"  time="0/1" value="0" leadInLength="0/1"  />
              <InterpolatingParam id="6258" interp="linr"  time="0/1" value="0" leadInLength="0/1"  />
             </VectorParam>
             <VectorParam id="6259"  name="geometryCrop">
              <InterpolatingParam id="6260" interp="linr"  time="-9999999/1" value="0" leadInLength="0/1"  />
              <InterpolatingParam id="6261" interp="linr"  time="-9999999/1" value="0" leadInLength="0/1"  />
              <InterpolatingParam id="6262" interp="linr"  time="-9999999/1" value="0" leadInLength="0/1"  />
              <InterpolatingParam id="6263" interp="linr"  time="-9999999/1" value="0" leadInLength="0/1"  />
             </VectorParam>
             <InterpolatingParam id="6264" interp="linr"  time="-9999999/1" value="1" leadInLength="0/1"  name="opacity"/>
            </Parameters>
            <Attributes>
             <Attribute id="6265" value="" name="ident"/>
            </Attributes>
            <MetaData>
             <entry key="WinSubProjectDisplayName" val=""/>
            </MetaData>
            <ExtraData>
             <Entry key="ZoomPanBin">
              <ZoomPanBin id="6266"  >
               <ZoomPanKeyframes>
               </ZoomPanKeyframes>
              </ZoomPanBin>
             </Entry>
            </ExtraData>
           </VMFile>
           <VMFile id="6267" start="2498" duration="28287" scalar="1/1" mediaStart="2880/1" mediaDuration="28287/1" trackNumber="0" src="4" >
            <Transformer>
             <VectorParam id="6268"  name="translation">
              <InterpolatingParam id="6269" interp="linr"  time="-9999999/1" value="0" leadInLength="0/1"  />
              <InterpolatingParam id="6270" interp="linr"  time="-9999999/1" value="0" leadInLength="0/1"  />
              <InterpolatingParam id="6271" interp="linr"  time="-9999999/1" value="0" leadInLength="0/1"  />
             </VectorParam>
             <VectorParam id="6272"  name="rotation">
              <InterpolatingParam id="6273" interp="linr"  time="-9999999/1" value="0" leadInLength="0/1"  />
              <InterpolatingParam id="6274" interp="linr"  time="-9999999/1" value="0" leadInLength="0/1"  />
              <InterpolatingParam id="6275" interp="linr"  time="-9999999/1" value="0" leadInLength="0/1"  />
             </VectorParam>
             <VectorParam id="6276"  name="shear">
              <InterpolatingParam id="6277" interp="linr"  time="-9999999/1" value="0" leadInLength="0/1"  />
              <InterpolatingParam id="6278" interp="linr"  time="-9999999/1" value="0" leadInLength="0/1"  />
              <InterpolatingParam id="6279" interp="linr"  time="-9999999/1" value="0" leadInLength="0/1"  />
             </VectorParam>
             <VectorParam id="6280"  name="scale">
              <InterpolatingParam id="6281" interp="linr"  time="-9999999/1" value="1" leadInLength="0/1"  />
              <InterpolatingParam id="6282" interp="linr"  time="-9999999/1" value="1" leadInLength="0/1"  />
              <InterpolatingParam id="6283" interp="linr"  time="-9999999/1" value="1" leadInLength="0/1"  />
             </VectorParam>
             <VectorParam id="6284"  name="anchor">
              <InterpolatingParam id="6285" interp="linr"  time="0/1" value="0" leadInLength="0/1"  />
              <InterpolatingParam id="6286" interp="linr"  time="0/1" value="0" leadInLength="0/1"  />
              <InterpolatingParam id="6287" interp="linr"  time="0/1" value="0" leadInLength="0/1"  />
             </VectorParam>
            </Transformer>
            <Parameters>
             <VectorParam id="6288"  name="sourceCrop">
              <InterpolatingParam id="6289" interp="linr"  time="0/1" value="0" leadInLength="0/1"  />
              <InterpolatingParam id="6290" interp="linr"  time="0/1" value="0" leadInLength="0/1"  />
              <InterpolatingParam id="6291" interp="linr"  time="0/1" value="0" leadInLength="0/1"  />
              <InterpolatingParam id="6292" interp="linr"  time="0/1" value="0" leadInLength="0/1"  />
             </VectorParam>
             <VectorParam id="6293"  name="geometryCrop">
              <InterpolatingParam id="6294" interp="linr"  time="-9999999/1" value="0" leadInLength="0/1"  />
              <InterpolatingParam id="6295" interp="linr"  time="-9999999/1" value="0" leadInLength="0/1"  />
              <InterpolatingParam id="6296" interp="linr"  time="-9999999/1" value="0" leadInLength="0/1"  />
              <InterpolatingParam id="6297" interp="linr"  time="-9999999/1" value="0" leadInLength="0/1"  />
             </VectorParam>
             <InterpolatingParam id="6298" interp="linr"  time="-9999999/1" value="1" leadInLength="0/1"  name="opacity"/>
            </Parameters>
            <Attributes>
             <Attribute id="6299" value="" name="ident"/>
            </Attributes>
            <MetaData>
             <entry key="WinSubProjectDisplayName" val=""/>
            </MetaData>
            <ExtraData>
             <Entry key="ZoomPanBin">
              <ZoomPanBin id="6300"  >
               <ZoomPanKeyframes>
               </ZoomPanKeyframes>
              </ZoomPanBin>
             </Entry>
            </ExtraData>
           </VMFile>
          </Medias>
         </GenericTrack>
        </StitchedMedia>
        <StitchedMedia id="6301" start="1533" duration="44" scalar="7051/14420" mediaStart="1790964/641" mediaDuration="57680/641" minMediaStart="0/1" >
         <Transformer>
          <VectorParam id="6302"  name="translation">
           <InterpolatingParam id="6303" interp="linr"  time="-9999999/1" value="0" leadInLength="0/1"  interpolater="leadin-linr"  />
           <InterpolatingParam id="6304" interp="linr"  time="-9999999/1" value="0" leadInLength="0/1"  interpolater="leadin-linr"  />
           <InterpolatingParam id="6305" interp="linr"  time="-9999999/1" value="0" leadInLength="0/1"  interpolater="leadin-linr"  />
          </VectorParam>
          <VectorParam id="6306"  name="rotation">
           <InterpolatingParam id="6307" interp="linr"  time="-9999999/1" value="0" leadInLength="0/1"  interpolater="leadin-linr"  />
           <InterpolatingParam id="6308" interp="linr"  time="-9999999/1" value="0" leadInLength="0/1"  interpolater="leadin-linr"  />
           <InterpolatingParam id="6309" interp="linr"  time="-9999999/1" value="0" leadInLength="0/1"  interpolater="leadin-linr"  />
          </VectorParam>
          <VectorParam id="6310"  name="shear">
           <InterpolatingParam id="6311" interp="linr"  time="-9999999/1" value="0" leadInLength="0/1"  interpolater="leadin-linr"  />
           <InterpolatingParam id="6312" interp="linr"  time="-9999999/1" value="0" leadInLength="0/1"  interpolater="leadin-linr"  />
           <InterpolatingParam id="6313" interp="linr"  time="-9999999/1" value="0" leadInLength="0/1"  interpolater="leadin-linr"  />
          </VectorParam>
          <VectorParam id="6314"  name="scale">
           <InterpolatingParam id="6315" interp="linr"  time="-9999999/1" value="1" leadInLength="0/1"  interpolater="leadin-linr"  />
           <InterpolatingParam id="6316" interp="linr"  time="-9999999/1" value="1" leadInLength="0/1"  interpolater="leadin-linr"  />
           <InterpolatingParam id="6317" interp="linr"  time="-9999999/1" value="1" leadInLength="0/1"  interpolater="leadin-linr"  />
          </VectorParam>
          <VectorParam id="6318"  name="anchor">
           <InterpolatingParam id="6319" interp="linr"  time="0/1" value="0" leadInLength="0/1"  />
           <InterpolatingParam id="6320" interp="linr"  time="0/1" value="0" leadInLength="0/1"  />
           <InterpolatingParam id="6321" interp="linr"  time="0/1" value="0" leadInLength="0/1"  />
          </VectorParam>
         </Transformer>
         <Parameters>
          <VectorParam id="6322"  name="sourceCrop">
           <InterpolatingParam id="6323" interp="linr"  time="0/1" value="0" leadInLength="0/1"  />
           <InterpolatingParam id="6324" interp="linr"  time="0/1" value="0" leadInLength="0/1"  />
           <InterpolatingParam id="6325" interp="linr"  time="0/1" value="0" leadInLength="0/1"  />
           <InterpolatingParam id="6326" interp="linr"  time="0/1" value="0" leadInLength="0/1"  />
          </VectorParam>
          <VectorParam id="6327"  name="geometryCrop">
           <InterpolatingParam id="6328" interp="linr"  time="-9999999/1" value="0" leadInLength="0/1"  interpolater="leadin-linr"  />
           <InterpolatingParam id="6329" interp="linr"  time="-9999999/1" value="0" leadInLength="0/1"  interpolater="leadin-linr"  />
           <InterpolatingParam id="6330" interp="linr"  time="-9999999/1" value="0" leadInLength="0/1"  interpolater="leadin-linr"  />
           <InterpolatingParam id="6331" interp="linr"  time="-9999999/1" value="0" leadInLength="0/1"  interpolater="leadin-linr"  />
          </VectorParam>
          <InterpolatingParam id="6332" interp="linr"  time="-9999999/1" value="1" leadInLength="0/1"  interpolater="leadin-linr"  name="opacity"/>
          <InterpolatingParam id="6333" interp="linr"  time="0/1" value="1" leadInLength="0/1"  name="cursorOpacity"/>
          <InterpolatingParam id="6334" interp="linr"  time="0/1" value="1" leadInLength="0/1"  name="cursorScale"/>
          <Parameter id="6335"  name="captions"/>
         </Parameters>
         <Attributes>
          <Attribute id="6336" value="" name="ident"/>
         </Attributes>
         <MetaData>
          <entry key="WinSubProjectDisplayName" val=""/>
         </MetaData>
         <ExtraData>
          <Entry key="ZoomPanBin">
           <ZoomPanBin id="6337"  >
            <ZoomPanKeyframes>
             <ZoomPanKeyframe id="6338" timeRangeEnd="-9999999/1" timeRangeDuration="0/1" interpolaterName="linr"  />
            </ZoomPanKeyframes>
           </ZoomPanBin>
          </Entry>
          <Entry key="CursorEffectBin">
           <CursorEffectBin id="6339"  >
            <CursorEffectKeyframes>
            </CursorEffectKeyframes>
           </CursorEffectBin>
          </Entry>
         </ExtraData>
         <GenericTrack id="6340"  >
          <Attributes>
           <Attribute id="6341" value="" name="ident"/>
           <Attribute id="6342" value="0" name="audioMuted"/>
           <Attribute id="6343" value="0" name="videoHidden"/>
          </Attributes>
          <MetaData>
           <entry key="IsLocked" val="False"/>
           <entry key="WinTrackHeight" val="0"/>
          </MetaData>
          <Medias>
           <VMFile id="6344" start="0" duration="1880" scalar="1/1" mediaStart="0/1" mediaDuration="1880/1" trackNumber="0" src="4" >
            <Transformer>
             <VectorParam id="6345"  name="translation">
              <InterpolatingParam id="6346" interp="linr"  time="-9999999/1" value="0" leadInLength="0/1"  />
              <InterpolatingParam id="6347" interp="linr"  time="-9999999/1" value="0" leadInLength="0/1"  />
              <InterpolatingParam id="6348" interp="linr"  time="-9999999/1" value="0" leadInLength="0/1"  />
             </VectorParam>
             <VectorParam id="6349"  name="rotation">
              <InterpolatingParam id="6350" interp="linr"  time="-9999999/1" value="0" leadInLength="0/1"  />
              <InterpolatingParam id="6351" interp="linr"  time="-9999999/1" value="0" leadInLength="0/1"  />
              <InterpolatingParam id="6352" interp="linr"  time="-9999999/1" value="0" leadInLength="0/1"  />
             </VectorParam>
             <VectorParam id="6353"  name="shear">
              <InterpolatingParam id="6354" interp="linr"  time="-9999999/1" value="0" leadInLength="0/1"  />
              <InterpolatingParam id="6355" interp="linr"  time="-9999999/1" value="0" leadInLength="0/1"  />
              <InterpolatingParam id="6356" interp="linr"  time="-9999999/1" value="0" leadInLength="0/1"  />
             </VectorParam>
             <VectorParam id="6357"  name="scale">
              <InterpolatingParam id="6358" interp="linr"  time="-9999999/1" value="1" leadInLength="0/1"  />
              <InterpolatingParam id="6359" interp="linr"  time="-9999999/1" value="1" leadInLength="0/1"  />
              <InterpolatingParam id="6360" interp="linr"  time="-9999999/1" value="1" leadInLength="0/1"  />
             </VectorParam>
             <VectorParam id="6361"  name="anchor">
              <InterpolatingParam id="6362" interp="linr"  time="0/1" value="0" leadInLength="0/1"  />
              <InterpolatingParam id="6363" interp="linr"  time="0/1" value="0" leadInLength="0/1"  />
              <InterpolatingParam id="6364" interp="linr"  time="0/1" value="0" leadInLength="0/1"  />
             </VectorParam>
            </Transformer>
            <Parameters>
             <VectorParam id="6365"  name="sourceCrop">
              <InterpolatingParam id="6366" interp="linr"  time="0/1" value="0" leadInLength="0/1"  />
              <InterpolatingParam id="6367" interp="linr"  time="0/1" value="0" leadInLength="0/1"  />
              <InterpolatingParam id="6368" interp="linr"  time="0/1" value="0" leadInLength="0/1"  />
              <InterpolatingParam id="6369" interp="linr"  time="0/1" value="0" leadInLength="0/1"  />
             </VectorParam>
             <VectorParam id="6370"  name="geometryCrop">
              <InterpolatingParam id="6371" interp="linr"  time="-9999999/1" value="0" leadInLength="0/1"  />
              <InterpolatingParam id="6372" interp="linr"  time="-9999999/1" value="0" leadInLength="0/1"  />
              <InterpolatingParam id="6373" interp="linr"  time="-9999999/1" value="0" leadInLength="0/1"  />
              <InterpolatingParam id="6374" interp="linr"  time="-9999999/1" value="0" leadInLength="0/1"  />
             </VectorParam>
             <InterpolatingParam id="6375" interp="linr"  time="-9999999/1" value="1" leadInLength="0/1"  name="opacity"/>
            </Parameters>
            <Attributes>
             <Attribute id="6376" value="" name="ident"/>
            </Attributes>
            <MetaData>
             <entry key="WinSubProjectDisplayName" val=""/>
            </MetaData>
            <ExtraData>
             <Entry key="ZoomPanBin">
              <ZoomPanBin id="6377"  >
               <ZoomPanKeyframes>
               </ZoomPanKeyframes>
              </ZoomPanBin>
             </Entry>
            </ExtraData>
           </VMFile>
           <VMFile id="6378" start="1880" duration="144" scalar="1/1" mediaStart="2061/1" mediaDuration="144/1" trackNumber="0" src="4" >
            <Transformer>
             <VectorParam id="6379"  name="translation">
              <InterpolatingParam id="6380" interp="linr"  time="-9999999/1" value="0" leadInLength="0/1"  />
              <InterpolatingParam id="6381" interp="linr"  time="-9999999/1" value="0" leadInLength="0/1"  />
              <InterpolatingParam id="6382" interp="linr"  time="-9999999/1" value="0" leadInLength="0/1"  />
             </VectorParam>
             <VectorParam id="6383"  name="rotation">
              <InterpolatingParam id="6384" interp="linr"  time="-9999999/1" value="0" leadInLength="0/1"  />
              <InterpolatingParam id="6385" interp="linr"  time="-9999999/1" value="0" leadInLength="0/1"  />
              <InterpolatingParam id="6386" interp="linr"  time="-9999999/1" value="0" leadInLength="0/1"  />
             </VectorParam>
             <VectorParam id="6387"  name="shear">
              <InterpolatingParam id="6388" interp="linr"  time="-9999999/1" value="0" leadInLength="0/1"  />
              <InterpolatingParam id="6389" interp="linr"  time="-9999999/1" value="0" leadInLength="0/1"  />
              <InterpolatingParam id="6390" interp="linr"  time="-9999999/1" value="0" leadInLength="0/1"  />
             </VectorParam>
             <VectorParam id="6391"  name="scale">
              <InterpolatingParam id="6392" interp="linr"  time="-9999999/1" value="1" leadInLength="0/1"  />
              <InterpolatingParam id="6393" interp="linr"  time="-9999999/1" value="1" leadInLength="0/1"  />
              <InterpolatingParam id="6394" interp="linr"  time="-9999999/1" value="1" leadInLength="0/1"  />
             </VectorParam>
             <VectorParam id="6395"  name="anchor">
              <InterpolatingParam id="6396" interp="linr"  time="0/1" value="0" leadInLength="0/1"  />
              <InterpolatingParam id="6397" interp="linr"  time="0/1" value="0" leadInLength="0/1"  />
              <InterpolatingParam id="6398" interp="linr"  time="0/1" value="0" leadInLength="0/1"  />
             </VectorParam>
            </Transformer>
            <Parameters>
             <VectorParam id="6399"  name="sourceCrop">
              <InterpolatingParam id="6400" interp="linr"  time="0/1" value="0" leadInLength="0/1"  />
              <InterpolatingParam id="6401" interp="linr"  time="0/1" value="0" leadInLength="0/1"  />
              <InterpolatingParam id="6402" interp="linr"  time="0/1" value="0" leadInLength="0/1"  />
              <InterpolatingParam id="6403" interp="linr"  time="0/1" value="0" leadInLength="0/1"  />
             </VectorParam>
             <VectorParam id="6404"  name="geometryCrop">
              <InterpolatingParam id="6405" interp="linr"  time="-9999999/1" value="0" leadInLength="0/1"  />
              <InterpolatingParam id="6406" interp="linr"  time="-9999999/1" value="0" leadInLength="0/1"  />
              <InterpolatingParam id="6407" interp="linr"  time="-9999999/1" value="0" leadInLength="0/1"  />
              <InterpolatingParam id="6408" interp="linr"  time="-9999999/1" value="0" leadInLength="0/1"  />
             </VectorParam>
             <InterpolatingParam id="6409" interp="linr"  time="-9999999/1" value="1" leadInLength="0/1"  name="opacity"/>
            </Parameters>
            <Attributes>
             <Attribute id="6410" value="" name="ident"/>
            </Attributes>
            <MetaData>
             <entry key="WinSubProjectDisplayName" val=""/>
            </MetaData>
            <ExtraData>
             <Entry key="ZoomPanBin">
              <ZoomPanBin id="6411"  >
               <ZoomPanKeyframes>
               </ZoomPanKeyframes>
              </ZoomPanBin>
             </Entry>
            </ExtraData>
           </VMFile>
           <VMFile id="6412" start="2024" duration="474" scalar="1/1" mediaStart="2294/1" mediaDuration="474/1" trackNumber="0" src="4" >
            <Transformer>
             <VectorParam id="6413"  name="translation">
              <InterpolatingParam id="6414" interp="linr"  time="-9999999/1" value="0" leadInLength="0/1"  />
              <InterpolatingParam id="6415" interp="linr"  time="-9999999/1" value="0" leadInLength="0/1"  />
              <InterpolatingParam id="6416" interp="linr"  time="-9999999/1" value="0" leadInLength="0/1"  />
             </VectorParam>
             <VectorParam id="6417"  name="rotation">
              <InterpolatingParam id="6418" interp="linr"  time="-9999999/1" value="0" leadInLength="0/1"  />
              <InterpolatingParam id="6419" interp="linr"  time="-9999999/1" value="0" leadInLength="0/1"  />
              <InterpolatingParam id="6420" interp="linr"  time="-9999999/1" value="0" leadInLength="0/1"  />
             </VectorParam>
             <VectorParam id="6421"  name="shear">
              <InterpolatingParam id="6422" interp="linr"  time="-9999999/1" value="0" leadInLength="0/1"  />
              <InterpolatingParam id="6423" interp="linr"  time="-9999999/1" value="0" leadInLength="0/1"  />
              <InterpolatingParam id="6424" interp="linr"  time="-9999999/1" value="0" leadInLength="0/1"  />
             </VectorParam>
             <VectorParam id="6425"  name="scale">
              <InterpolatingParam id="6426" interp="linr"  time="-9999999/1" value="1" leadInLength="0/1"  />
              <InterpolatingParam id="6427" interp="linr"  time="-9999999/1" value="1" leadInLength="0/1"  />
              <InterpolatingParam id="6428" interp="linr"  time="-9999999/1" value="1" leadInLength="0/1"  />
             </VectorParam>
             <VectorParam id="6429"  name="anchor">
              <InterpolatingParam id="6430" interp="linr"  time="0/1" value="0" leadInLength="0/1"  />
              <InterpolatingParam id="6431" interp="linr"  time="0/1" value="0" leadInLength="0/1"  />
              <InterpolatingParam id="6432" interp="linr"  time="0/1" value="0" leadInLength="0/1"  />
             </VectorParam>
            </Transformer>
            <Parameters>
             <VectorParam id="6433"  name="sourceCrop">
              <InterpolatingParam id="6434" interp="linr"  time="0/1" value="0" leadInLength="0/1"  />
              <InterpolatingParam id="6435" interp="linr"  time="0/1" value="0" leadInLength="0/1"  />
              <InterpolatingParam id="6436" interp="linr"  time="0/1" value="0" leadInLength="0/1"  />
              <InterpolatingParam id="6437" interp="linr"  time="0/1" value="0" leadInLength="0/1"  />
             </VectorParam>
             <VectorParam id="6438"  name="geometryCrop">
              <InterpolatingParam id="6439" interp="linr"  time="-9999999/1" value="0" leadInLength="0/1"  />
              <InterpolatingParam id="6440" interp="linr"  time="-9999999/1" value="0" leadInLength="0/1"  />
              <InterpolatingParam id="6441" interp="linr"  time="-9999999/1" value="0" leadInLength="0/1"  />
              <InterpolatingParam id="6442" interp="linr"  time="-9999999/1" value="0" leadInLength="0/1"  />
             </VectorParam>
             <InterpolatingParam id="6443" interp="linr"  time="-9999999/1" value="1" leadInLength="0/1"  name="opacity"/>
            </Parameters>
            <Attributes>
             <Attribute id="6444" value="" name="ident"/>
            </Attributes>
            <MetaData>
             <entry key="WinSubProjectDisplayName" val=""/>
            </MetaData>
            <ExtraData>
             <Entry key="ZoomPanBin">
              <ZoomPanBin id="6445"  >
               <ZoomPanKeyframes>
               </ZoomPanKeyframes>
              </ZoomPanBin>
             </Entry>
            </ExtraData>
           </VMFile>
           <VMFile id="6446" start="2498" duration="28287" scalar="1/1" mediaStart="2880/1" mediaDuration="28287/1" trackNumber="0" src="4" >
            <Transformer>
             <VectorParam id="6447"  name="translation">
              <InterpolatingParam id="6448" interp="linr"  time="-9999999/1" value="0" leadInLength="0/1"  />
              <InterpolatingParam id="6449" interp="linr"  time="-9999999/1" value="0" leadInLength="0/1"  />
              <InterpolatingParam id="6450" interp="linr"  time="-9999999/1" value="0" leadInLength="0/1"  />
             </VectorParam>
             <VectorParam id="6451"  name="rotation">
              <InterpolatingParam id="6452" interp="linr"  time="-9999999/1" value="0" leadInLength="0/1"  />
              <InterpolatingParam id="6453" interp="linr"  time="-9999999/1" value="0" leadInLength="0/1"  />
              <InterpolatingParam id="6454" interp="linr"  time="-9999999/1" value="0" leadInLength="0/1"  />
             </VectorParam>
             <VectorParam id="6455"  name="shear">
              <InterpolatingParam id="6456" interp="linr"  time="-9999999/1" value="0" leadInLength="0/1"  />
              <InterpolatingParam id="6457" interp="linr"  time="-9999999/1" value="0" leadInLength="0/1"  />
              <InterpolatingParam id="6458" interp="linr"  time="-9999999/1" value="0" leadInLength="0/1"  />
             </VectorParam>
             <VectorParam id="6459"  name="scale">
              <InterpolatingParam id="6460" interp="linr"  time="-9999999/1" value="1" leadInLength="0/1"  />
              <InterpolatingParam id="6461" interp="linr"  time="-9999999/1" value="1" leadInLength="0/1"  />
              <InterpolatingParam id="6462" interp="linr"  time="-9999999/1" value="1" leadInLength="0/1"  />
             </VectorParam>
             <VectorParam id="6463"  name="anchor">
              <InterpolatingParam id="6464" interp="linr"  time="0/1" value="0" leadInLength="0/1"  />
              <InterpolatingParam id="6465" interp="linr"  time="0/1" value="0" leadInLength="0/1"  />
              <InterpolatingParam id="6466" interp="linr"  time="0/1" value="0" leadInLength="0/1"  />
             </VectorParam>
            </Transformer>
            <Parameters>
             <VectorParam id="6467"  name="sourceCrop">
              <InterpolatingParam id="6468" interp="linr"  time="0/1" value="0" leadInLength="0/1"  />
              <InterpolatingParam id="6469" interp="linr"  time="0/1" value="0" leadInLength="0/1"  />
              <InterpolatingParam id="6470" interp="linr"  time="0/1" value="0" leadInLength="0/1"  />
              <InterpolatingParam id="6471" interp="linr"  time="0/1" value="0" leadInLength="0/1"  />
             </VectorParam>
             <VectorParam id="6472"  name="geometryCrop">
              <InterpolatingParam id="6473" interp="linr"  time="-9999999/1" value="0" leadInLength="0/1"  />
              <InterpolatingParam id="6474" interp="linr"  time="-9999999/1" value="0" leadInLength="0/1"  />
              <InterpolatingParam id="6475" interp="linr"  time="-9999999/1" value="0" leadInLength="0/1"  />
              <InterpolatingParam id="6476" interp="linr"  time="-9999999/1" value="0" leadInLength="0/1"  />
             </VectorParam>
             <InterpolatingParam id="6477" interp="linr"  time="-9999999/1" value="1" leadInLength="0/1"  name="opacity"/>
            </Parameters>
            <Attributes>
             <Attribute id="6478" value="" name="ident"/>
            </Attributes>
            <MetaData>
             <entry key="WinSubProjectDisplayName" val=""/>
            </MetaData>
            <ExtraData>
             <Entry key="ZoomPanBin">
              <ZoomPanBin id="6479"  >
               <ZoomPanKeyframes>
               </ZoomPanKeyframes>
              </ZoomPanBin>
             </Entry>
            </ExtraData>
           </VMFile>
          </Medias>
         </GenericTrack>
        </StitchedMedia>
        <StitchedMedia id="6480" start="1577" duration="668" scalar="1/1" mediaStart="4071/1" mediaDuration="668/1" minMediaStart="0/1" >
         <Transformer>
          <VectorParam id="6481"  name="translation">
           <InterpolatingParam id="6482" interp="linr"  time="-9999999/1" value="0" leadInLength="0/1"  interpolater="leadin-linr"  />
           <InterpolatingParam id="6483" interp="linr"  time="-9999999/1" value="0" leadInLength="0/1"  interpolater="leadin-linr"  />
           <InterpolatingParam id="6484" interp="linr"  time="-9999999/1" value="0" leadInLength="0/1"  interpolater="leadin-linr"  />
          </VectorParam>
          <VectorParam id="6485"  name="rotation">
           <InterpolatingParam id="6486" interp="linr"  time="-9999999/1" value="0" leadInLength="0/1"  interpolater="leadin-linr"  />
           <InterpolatingParam id="6487" interp="linr"  time="-9999999/1" value="0" leadInLength="0/1"  interpolater="leadin-linr"  />
           <InterpolatingParam id="6488" interp="linr"  time="-9999999/1" value="0" leadInLength="0/1"  interpolater="leadin-linr"  />
          </VectorParam>
          <VectorParam id="6489"  name="shear">
           <InterpolatingParam id="6490" interp="linr"  time="-9999999/1" value="0" leadInLength="0/1"  interpolater="leadin-linr"  />
           <InterpolatingParam id="6491" interp="linr"  time="-9999999/1" value="0" leadInLength="0/1"  interpolater="leadin-linr"  />
           <InterpolatingParam id="6492" interp="linr"  time="-9999999/1" value="0" leadInLength="0/1"  interpolater="leadin-linr"  />
          </VectorParam>
          <VectorParam id="6493"  name="scale">
           <InterpolatingParam id="6494" interp="linr"  time="-9999999/1" value="1" leadInLength="0/1"  interpolater="leadin-linr"  />
           <InterpolatingParam id="6495" interp="linr"  time="-9999999/1" value="1" leadInLength="0/1"  interpolater="leadin-linr"  />
           <InterpolatingParam id="6496" interp="linr"  time="-9999999/1" value="1" leadInLength="0/1"  interpolater="leadin-linr"  />
          </VectorParam>
          <VectorParam id="6497"  name="anchor">
           <InterpolatingParam id="6498" interp="linr"  >
            <Keyframes>
            <Keyframe id="6499"  time="0/1" value="0" leadInLength="0/1"  />
            <Keyframe id="6500"  time="32931335377/7971776" value="0" leadInLength="0/1"  />
            <Keyframe id="6501"  time="4328/1" value="0" leadInLength="0/1"  />
            <Keyframe id="6502"  time="4457/1" value="0" leadInLength="0/1"  />
            <Keyframe id="6503"  time="469608558155/47830656" value="0" leadInLength="0/1"  />
            <Keyframe id="6504"  time="473339349323/47830656" value="0" leadInLength="0/1"  />
            </Keyframes>
           </InterpolatingParam>
           <InterpolatingParam id="6505" interp="linr"  >
            <Keyframes>
            <Keyframe id="6506"  time="0/1" value="0" leadInLength="0/1"  />
            <Keyframe id="6507"  time="32931335377/7971776" value="0" leadInLength="0/1"  />
            <Keyframe id="6508"  time="4328/1" value="0" leadInLength="0/1"  />
            <Keyframe id="6509"  time="4457/1" value="0" leadInLength="0/1"  />
            <Keyframe id="6510"  time="469608558155/47830656" value="0" leadInLength="0/1"  />
            <Keyframe id="6511"  time="473339349323/47830656" value="0" leadInLength="0/1"  />
            </Keyframes>
           </InterpolatingParam>
           <InterpolatingParam id="6512" interp="linr"  >
            <Keyframes>
            <Keyframe id="6513"  time="0/1" value="0" leadInLength="0/1"  />
            <Keyframe id="6514"  time="32931335377/7971776" value="0" leadInLength="0/1"  />
            <Keyframe id="6515"  time="4328/1" value="0" leadInLength="0/1"  />
            <Keyframe id="6516"  time="4457/1" value="0" leadInLength="0/1"  />
            <Keyframe id="6517"  time="469608558155/47830656" value="0" leadInLength="0/1"  />
            <Keyframe id="6518"  time="473339349323/47830656" value="0" leadInLength="0/1"  />
            </Keyframes>
           </InterpolatingParam>
          </VectorParam>
         </Transformer>
         <Parameters>
          <VectorParam id="6519"  name="sourceCrop">
           <InterpolatingParam id="6520" interp="linr"  >
            <Keyframes>
            <Keyframe id="6521"  time="0/1" value="0" leadInLength="0/1"  />
            <Keyframe id="6522"  time="32931335377/7971776" value="0" leadInLength="0/1"  />
            <Keyframe id="6523"  time="4328/1" value="0" leadInLength="0/1"  />
            <Keyframe id="6524"  time="4457/1" value="0" leadInLength="0/1"  />
            <Keyframe id="6525"  time="469608558155/47830656" value="0" leadInLength="0/1"  />
            <Keyframe id="6526"  time="473339349323/47830656" value="0" leadInLength="0/1"  />
            </Keyframes>
           </InterpolatingParam>
           <InterpolatingParam id="6527" interp="linr"  >
            <Keyframes>
            <Keyframe id="6528"  time="0/1" value="0" leadInLength="0/1"  />
            <Keyframe id="6529"  time="32931335377/7971776" value="0" leadInLength="0/1"  />
            <Keyframe id="6530"  time="4328/1" value="0" leadInLength="0/1"  />
            <Keyframe id="6531"  time="4457/1" value="0" leadInLength="0/1"  />
            <Keyframe id="6532"  time="469608558155/47830656" value="0" leadInLength="0/1"  />
            <Keyframe id="6533"  time="473339349323/47830656" value="0" leadInLength="0/1"  />
            </Keyframes>
           </InterpolatingParam>
           <InterpolatingParam id="6534" interp="linr"  >
            <Keyframes>
            <Keyframe id="6535"  time="0/1" value="0" leadInLength="0/1"  />
            <Keyframe id="6536"  time="32931335377/7971776" value="0" leadInLength="0/1"  />
            <Keyframe id="6537"  time="4328/1" value="0" leadInLength="0/1"  />
            <Keyframe id="6538"  time="4457/1" value="0" leadInLength="0/1"  />
            <Keyframe id="6539"  time="469608558155/47830656" value="0" leadInLength="0/1"  />
            <Keyframe id="6540"  time="473339349323/47830656" value="0" leadInLength="0/1"  />
            </Keyframes>
           </InterpolatingParam>
           <InterpolatingParam id="6541" interp="linr"  >
            <Keyframes>
            <Keyframe id="6542"  time="0/1" value="0" leadInLength="0/1"  />
            <Keyframe id="6543"  time="32931335377/7971776" value="0" leadInLength="0/1"  />
            <Keyframe id="6544"  time="4328/1" value="0" leadInLength="0/1"  />
            <Keyframe id="6545"  time="4457/1" value="0" leadInLength="0/1"  />
            <Keyframe id="6546"  time="469608558155/47830656" value="0" leadInLength="0/1"  />
            <Keyframe id="6547"  time="473339349323/47830656" value="0" leadInLength="0/1"  />
            </Keyframes>
           </InterpolatingParam>
          </VectorParam>
          <VectorParam id="6548"  name="geometryCrop">
           <InterpolatingParam id="6549" interp="linr"  time="-9999999/1" value="0" leadInLength="0/1"  interpolater="leadin-linr"  />
           <InterpolatingParam id="6550" interp="linr"  time="-9999999/1" value="0" leadInLength="0/1"  interpolater="leadin-linr"  />
           <InterpolatingParam id="6551" interp="linr"  time="-9999999/1" value="0" leadInLength="0/1"  interpolater="leadin-linr"  />
           <InterpolatingParam id="6552" interp="linr"  time="-9999999/1" value="0" leadInLength="0/1"  interpolater="leadin-linr"  />
          </VectorParam>
          <InterpolatingParam id="6553" interp="linr"  time="-9999999/1" value="1" leadInLength="0/1"  interpolater="leadin-linr"  name="opacity"/>
          <InterpolatingParam id="6554" interp="linr"  time="0/1" value="1" leadInLength="0/1"  name="cursorOpacity"/>
          <InterpolatingParam id="6555" interp="linr"  time="0/1" value="1" leadInLength="0/1"  name="cursorScale"/>
          <Parameter id="6556"  name="captions"/>
         </Parameters>
         <Attributes>
          <Attribute id="6557" value="" name="ident"/>
         </Attributes>
         <MetaData>
          <entry key="WinSubProjectDisplayName" val=""/>
         </MetaData>
         <ExtraData>
          <Entry key="ZoomPanBin">
           <ZoomPanBin id="6558"  >
            <ZoomPanKeyframes>
             <ZoomPanKeyframe id="6559" timeRangeEnd="-9999999/1" timeRangeDuration="0/1" interpolaterName="linr"  />
            </ZoomPanKeyframes>
           </ZoomPanBin>
          </Entry>
          <Entry key="CursorEffectBin">
           <CursorEffectBin id="6560"  >
            <CursorEffectKeyframes>
            </CursorEffectKeyframes>
           </CursorEffectBin>
          </Entry>
         </ExtraData>
         <GenericTrack id="6561"  >
          <Attributes>
           <Attribute id="6562" value="" name="ident"/>
           <Attribute id="6563" value="0" name="audioMuted"/>
           <Attribute id="6564" value="0" name="videoHidden"/>
          </Attributes>
          <MetaData>
           <entry key="IsLocked" val="False"/>
           <entry key="WinTrackHeight" val="0"/>
          </MetaData>
          <Medias>
           <VMFile id="6565" start="0" duration="4131" scalar="1/1" mediaStart="0/1" mediaDuration="4131/1" trackNumber="0" src="4" >
            <Transformer>
             <VectorParam id="6566"  name="translation">
              <InterpolatingParam id="6567" interp="linr"  time="-9999999/1" value="0" leadInLength="0/1"  />
              <InterpolatingParam id="6568" interp="linr"  time="-9999999/1" value="0" leadInLength="0/1"  />
              <InterpolatingParam id="6569" interp="linr"  time="-9999999/1" value="0" leadInLength="0/1"  />
             </VectorParam>
             <VectorParam id="6570"  name="rotation">
              <InterpolatingParam id="6571" interp="linr"  time="-9999999/1" value="0" leadInLength="0/1"  />
              <InterpolatingParam id="6572" interp="linr"  time="-9999999/1" value="0" leadInLength="0/1"  />
              <InterpolatingParam id="6573" interp="linr"  time="-9999999/1" value="0" leadInLength="0/1"  />
             </VectorParam>
             <VectorParam id="6574"  name="shear">
              <InterpolatingParam id="6575" interp="linr"  time="-9999999/1" value="0" leadInLength="0/1"  />
              <InterpolatingParam id="6576" interp="linr"  time="-9999999/1" value="0" leadInLength="0/1"  />
              <InterpolatingParam id="6577" interp="linr"  time="-9999999/1" value="0" leadInLength="0/1"  />
             </VectorParam>
             <VectorParam id="6578"  name="scale">
              <InterpolatingParam id="6579" interp="linr"  time="-9999999/1" value="1" leadInLength="0/1"  />
              <InterpolatingParam id="6580" interp="linr"  time="-9999999/1" value="1" leadInLength="0/1"  />
              <InterpolatingParam id="6581" interp="linr"  time="-9999999/1" value="1" leadInLength="0/1"  />
             </VectorParam>
             <VectorParam id="6582"  name="anchor">
              <InterpolatingParam id="6583" interp="linr"  time="0/1" value="0" leadInLength="0/1"  />
              <InterpolatingParam id="6584" interp="linr"  time="0/1" value="0" leadInLength="0/1"  />
              <InterpolatingParam id="6585" interp="linr"  time="0/1" value="0" leadInLength="0/1"  />
             </VectorParam>
            </Transformer>
            <Parameters>
             <VectorParam id="6586"  name="sourceCrop">
              <InterpolatingParam id="6587" interp="linr"  time="0/1" value="0" leadInLength="0/1"  />
              <InterpolatingParam id="6588" interp="linr"  time="0/1" value="0" leadInLength="0/1"  />
              <InterpolatingParam id="6589" interp="linr"  time="0/1" value="0" leadInLength="0/1"  />
              <InterpolatingParam id="6590" interp="linr"  time="0/1" value="0" leadInLength="0/1"  />
             </VectorParam>
             <VectorParam id="6591"  name="geometryCrop">
              <InterpolatingParam id="6592" interp="linr"  time="-9999999/1" value="0" leadInLength="0/1"  />
              <InterpolatingParam id="6593" interp="linr"  time="-9999999/1" value="0" leadInLength="0/1"  />
              <InterpolatingParam id="6594" interp="linr"  time="-9999999/1" value="0" leadInLength="0/1"  />
              <InterpolatingParam id="6595" interp="linr"  time="-9999999/1" value="0" leadInLength="0/1"  />
             </VectorParam>
             <InterpolatingParam id="6596" interp="linr"  time="-9999999/1" value="1" leadInLength="0/1"  name="opacity"/>
            </Parameters>
            <Attributes>
             <Attribute id="6597" value="" name="ident"/>
            </Attributes>
            <MetaData>
             <entry key="WinSubProjectDisplayName" val=""/>
            </MetaData>
            <ExtraData>
             <Entry key="ZoomPanBin">
              <ZoomPanBin id="6598"  >
               <ZoomPanKeyframes>
                <ZoomPanKeyframe id="6599" timeRangeEnd="-9999999/1" timeRangeDuration="0/1" interpolaterName=""  />
               </ZoomPanKeyframes>
              </ZoomPanBin>
             </Entry>
            </ExtraData>
           </VMFile>
           <IMFile id="6600" start="4131" duration="12" scalar="1/1" mediaStart="4130/1" mediaDuration="1/1" trackNumber="0" src="4" trimStartSum="0/1" >
            <Transformer>
             <VectorParam id="6601"  name="translation">
              <InterpolatingParam id="6602" interp="linr"  time="-9999999/1" value="0" leadInLength="0/1"  />
              <InterpolatingParam id="6603" interp="linr"  time="-9999999/1" value="0" leadInLength="0/1"  />
              <InterpolatingParam id="6604" interp="linr"  time="-9999999/1" value="0" leadInLength="0/1"  />
             </VectorParam>
             <VectorParam id="6605"  name="rotation">
              <InterpolatingParam id="6606" interp="linr"  time="-9999999/1" value="0" leadInLength="0/1"  />
              <InterpolatingParam id="6607" interp="linr"  time="-9999999/1" value="0" leadInLength="0/1"  />
              <InterpolatingParam id="6608" interp="linr"  time="-9999999/1" value="0" leadInLength="0/1"  />
             </VectorParam>
             <VectorParam id="6609"  name="shear">
              <InterpolatingParam id="6610" interp="linr"  time="-9999999/1" value="0" leadInLength="0/1"  />
              <InterpolatingParam id="6611" interp="linr"  time="-9999999/1" value="0" leadInLength="0/1"  />
              <InterpolatingParam id="6612" interp="linr"  time="-9999999/1" value="0" leadInLength="0/1"  />
             </VectorParam>
             <VectorParam id="6613"  name="scale">
              <InterpolatingParam id="6614" interp="linr"  time="-9999999/1" value="1" leadInLength="0/1"  />
              <InterpolatingParam id="6615" interp="linr"  time="-9999999/1" value="1" leadInLength="0/1"  />
              <InterpolatingParam id="6616" interp="linr"  time="-9999999/1" value="1" leadInLength="0/1"  />
             </VectorParam>
             <VectorParam id="6617"  name="anchor">
              <InterpolatingParam id="6618" interp="linr"  time="0/1" value="0" leadInLength="0/1"  />
              <InterpolatingParam id="6619" interp="linr"  time="0/1" value="0" leadInLength="0/1"  />
              <InterpolatingParam id="6620" interp="linr"  time="0/1" value="0" leadInLength="0/1"  />
             </VectorParam>
            </Transformer>
            <Parameters>
             <VectorParam id="6621"  name="sourceCrop">
              <InterpolatingParam id="6622" interp="linr"  time="0/1" value="0" leadInLength="0/1"  />
              <InterpolatingParam id="6623" interp="linr"  time="0/1" value="0" leadInLength="0/1"  />
              <InterpolatingParam id="6624" interp="linr"  time="0/1" value="0" leadInLength="0/1"  />
              <InterpolatingParam id="6625" interp="linr"  time="0/1" value="0" leadInLength="0/1"  />
             </VectorParam>
             <VectorParam id="6626"  name="geometryCrop">
              <InterpolatingParam id="6627" interp="linr"  time="-9999999/1" value="0" leadInLength="0/1"  />
              <InterpolatingParam id="6628" interp="linr"  time="-9999999/1" value="0" leadInLength="0/1"  />
              <InterpolatingParam id="6629" interp="linr"  time="-9999999/1" value="0" leadInLength="0/1"  />
              <InterpolatingParam id="6630" interp="linr"  time="-9999999/1" value="0" leadInLength="0/1"  />
             </VectorParam>
             <InterpolatingParam id="6631" interp="linr"  time="-9999999/1" value="1" leadInLength="0/1"  name="opacity"/>
            </Parameters>
            <Attributes>
             <Attribute id="6632" value="" name="ident"/>
            </Attributes>
            <MetaData>
             <entry key="WinSubProjectDisplayName" val=""/>
            </MetaData>
            <ExtraData>
             <Entry key="ZoomPanBin">
              <ZoomPanBin id="6633"  >
               <ZoomPanKeyframes>
                <ZoomPanKeyframe id="6634" timeRangeEnd="-9999999/1" timeRangeDuration="0/1" interpolaterName=""  />
               </ZoomPanKeyframes>
              </ZoomPanBin>
             </Entry>
            </ExtraData>
           </IMFile>
           <VMFile id="6635" start="4143" duration="185" scalar="1/1" mediaStart="4130/1" mediaDuration="185/1" trackNumber="0" src="4" >
            <Transformer>
             <VectorParam id="6636"  name="translation">
              <InterpolatingParam id="6637" interp="linr"  time="-9999999/1" value="0" leadInLength="0/1"  />
              <InterpolatingParam id="6638" interp="linr"  time="-9999999/1" value="0" leadInLength="0/1"  />
              <InterpolatingParam id="6639" interp="linr"  time="-9999999/1" value="0" leadInLength="0/1"  />
             </VectorParam>
             <VectorParam id="6640"  name="rotation">
              <InterpolatingParam id="6641" interp="linr"  time="-9999999/1" value="0" leadInLength="0/1"  />
              <InterpolatingParam id="6642" interp="linr"  time="-9999999/1" value="0" leadInLength="0/1"  />
              <InterpolatingParam id="6643" interp="linr"  time="-9999999/1" value="0" leadInLength="0/1"  />
             </VectorParam>
             <VectorParam id="6644"  name="shear">
              <InterpolatingParam id="6645" interp="linr"  time="-9999999/1" value="0" leadInLength="0/1"  />
              <InterpolatingParam id="6646" interp="linr"  time="-9999999/1" value="0" leadInLength="0/1"  />
              <InterpolatingParam id="6647" interp="linr"  time="-9999999/1" value="0" leadInLength="0/1"  />
             </VectorParam>
             <VectorParam id="6648"  name="scale">
              <InterpolatingParam id="6649" interp="linr"  time="-9999999/1" value="1" leadInLength="0/1"  />
              <InterpolatingParam id="6650" interp="linr"  time="-9999999/1" value="1" leadInLength="0/1"  />
              <InterpolatingParam id="6651" interp="linr"  time="-9999999/1" value="1" leadInLength="0/1"  />
             </VectorParam>
             <VectorParam id="6652"  name="anchor">
              <InterpolatingParam id="6653" interp="linr"  time="0/1" value="0" leadInLength="0/1"  />
              <InterpolatingParam id="6654" interp="linr"  time="0/1" value="0" leadInLength="0/1"  />
              <InterpolatingParam id="6655" interp="linr"  time="0/1" value="0" leadInLength="0/1"  />
             </VectorParam>
            </Transformer>
            <Parameters>
             <VectorParam id="6656"  name="sourceCrop">
              <InterpolatingParam id="6657" interp="linr"  time="0/1" value="0" leadInLength="0/1"  />
              <InterpolatingParam id="6658" interp="linr"  time="0/1" value="0" leadInLength="0/1"  />
              <InterpolatingParam id="6659" interp="linr"  time="0/1" value="0" leadInLength="0/1"  />
              <InterpolatingParam id="6660" interp="linr"  time="0/1" value="0" leadInLength="0/1"  />
             </VectorParam>
             <VectorParam id="6661"  name="geometryCrop">
              <InterpolatingParam id="6662" interp="linr"  time="-9999999/1" value="0" leadInLength="0/1"  />
              <InterpolatingParam id="6663" interp="linr"  time="-9999999/1" value="0" leadInLength="0/1"  />
              <InterpolatingParam id="6664" interp="linr"  time="-9999999/1" value="0" leadInLength="0/1"  />
              <InterpolatingParam id="6665" interp="linr"  time="-9999999/1" value="0" leadInLength="0/1"  />
             </VectorParam>
             <InterpolatingParam id="6666" interp="linr"  time="-9999999/1" value="1" leadInLength="0/1"  name="opacity"/>
            </Parameters>
            <Attributes>
             <Attribute id="6667" value="" name="ident"/>
            </Attributes>
            <MetaData>
             <entry key="WinSubProjectDisplayName" val=""/>
            </MetaData>
            <ExtraData>
             <Entry key="ZoomPanBin">
              <ZoomPanBin id="6668"  >
               <ZoomPanKeyframes>
                <ZoomPanKeyframe id="6669" timeRangeEnd="-9999999/1" timeRangeDuration="0/1" interpolaterName=""  />
               </ZoomPanKeyframes>
              </ZoomPanBin>
             </Entry>
            </ExtraData>
           </VMFile>
           <IMFile id="6670" start="4328" duration="3" scalar="1/1" mediaStart="4315/1" mediaDuration="1/1" trackNumber="0" src="4" trimStartSum="0/1" >
            <Transformer>
             <VectorParam id="6671"  name="translation">
              <InterpolatingParam id="6672" interp="linr"  time="-9999999/1" value="0" leadInLength="0/1"  />
              <InterpolatingParam id="6673" interp="linr"  time="-9999999/1" value="0" leadInLength="0/1"  />
              <InterpolatingParam id="6674" interp="linr"  time="-9999999/1" value="0" leadInLength="0/1"  />
             </VectorParam>
             <VectorParam id="6675"  name="rotation">
              <InterpolatingParam id="6676" interp="linr"  time="-9999999/1" value="0" leadInLength="0/1"  />
              <InterpolatingParam id="6677" interp="linr"  time="-9999999/1" value="0" leadInLength="0/1"  />
              <InterpolatingParam id="6678" interp="linr"  time="-9999999/1" value="0" leadInLength="0/1"  />
             </VectorParam>
             <VectorParam id="6679"  name="shear">
              <InterpolatingParam id="6680" interp="linr"  time="-9999999/1" value="0" leadInLength="0/1"  />
              <InterpolatingParam id="6681" interp="linr"  time="-9999999/1" value="0" leadInLength="0/1"  />
              <InterpolatingParam id="6682" interp="linr"  time="-9999999/1" value="0" leadInLength="0/1"  />
             </VectorParam>
             <VectorParam id="6683"  name="scale">
              <InterpolatingParam id="6684" interp="linr"  time="-9999999/1" value="1" leadInLength="0/1"  />
              <InterpolatingParam id="6685" interp="linr"  time="-9999999/1" value="1" leadInLength="0/1"  />
              <InterpolatingParam id="6686" interp="linr"  time="-9999999/1" value="1" leadInLength="0/1"  />
             </VectorParam>
             <VectorParam id="6687"  name="anchor">
              <InterpolatingParam id="6688" interp="linr"  time="0/1" value="0" leadInLength="0/1"  />
              <InterpolatingParam id="6689" interp="linr"  time="0/1" value="0" leadInLength="0/1"  />
              <InterpolatingParam id="6690" interp="linr"  time="0/1" value="0" leadInLength="0/1"  />
             </VectorParam>
            </Transformer>
            <Parameters>
             <VectorParam id="6691"  name="sourceCrop">
              <InterpolatingParam id="6692" interp="linr"  time="0/1" value="0" leadInLength="0/1"  />
              <InterpolatingParam id="6693" interp="linr"  time="0/1" value="0" leadInLength="0/1"  />
              <InterpolatingParam id="6694" interp="linr"  time="0/1" value="0" leadInLength="0/1"  />
              <InterpolatingParam id="6695" interp="linr"  time="0/1" value="0" leadInLength="0/1"  />
             </VectorParam>
             <VectorParam id="6696"  name="geometryCrop">
              <InterpolatingParam id="6697" interp="linr"  time="-9999999/1" value="0" leadInLength="0/1"  />
              <InterpolatingParam id="6698" interp="linr"  time="-9999999/1" value="0" leadInLength="0/1"  />
              <InterpolatingParam id="6699" interp="linr"  time="-9999999/1" value="0" leadInLength="0/1"  />
              <InterpolatingParam id="6700" interp="linr"  time="-9999999/1" value="0" leadInLength="0/1"  />
             </VectorParam>
             <InterpolatingParam id="6701" interp="linr"  time="-9999999/1" value="1" leadInLength="0/1"  name="opacity"/>
            </Parameters>
            <Attributes>
             <Attribute id="6702" value="" name="ident"/>
            </Attributes>
            <MetaData>
             <entry key="WinSubProjectDisplayName" val=""/>
            </MetaData>
            <ExtraData>
             <Entry key="ZoomPanBin">
              <ZoomPanBin id="6703"  >
               <ZoomPanKeyframes>
                <ZoomPanKeyframe id="6704" timeRangeEnd="-9999999/1" timeRangeDuration="0/1" interpolaterName=""  />
               </ZoomPanKeyframes>
              </ZoomPanBin>
             </Entry>
            </ExtraData>
           </IMFile>
           <VMFile id="6705" start="4331" duration="31" scalar="1/1" mediaStart="4315/1" mediaDuration="31/1" trackNumber="0" src="4" >
            <Transformer>
             <VectorParam id="6706"  name="translation">
              <InterpolatingParam id="6707" interp="linr"  time="-9999999/1" value="0" leadInLength="0/1"  />
              <InterpolatingParam id="6708" interp="linr"  time="-9999999/1" value="0" leadInLength="0/1"  />
              <InterpolatingParam id="6709" interp="linr"  time="-9999999/1" value="0" leadInLength="0/1"  />
             </VectorParam>
             <VectorParam id="6710"  name="rotation">
              <InterpolatingParam id="6711" interp="linr"  time="-9999999/1" value="0" leadInLength="0/1"  />
              <InterpolatingParam id="6712" interp="linr"  time="-9999999/1" value="0" leadInLength="0/1"  />
              <InterpolatingParam id="6713" interp="linr"  time="-9999999/1" value="0" leadInLength="0/1"  />
             </VectorParam>
             <VectorParam id="6714"  name="shear">
              <InterpolatingParam id="6715" interp="linr"  time="-9999999/1" value="0" leadInLength="0/1"  />
              <InterpolatingParam id="6716" interp="linr"  time="-9999999/1" value="0" leadInLength="0/1"  />
              <InterpolatingParam id="6717" interp="linr"  time="-9999999/1" value="0" leadInLength="0/1"  />
             </VectorParam>
             <VectorParam id="6718"  name="scale">
              <InterpolatingParam id="6719" interp="linr"  time="-9999999/1" value="1" leadInLength="0/1"  />
              <InterpolatingParam id="6720" interp="linr"  time="-9999999/1" value="1" leadInLength="0/1"  />
              <InterpolatingParam id="6721" interp="linr"  time="-9999999/1" value="1" leadInLength="0/1"  />
             </VectorParam>
             <VectorParam id="6722"  name="anchor">
              <InterpolatingParam id="6723" interp="linr"  time="0/1" value="0" leadInLength="0/1"  />
              <InterpolatingParam id="6724" interp="linr"  time="0/1" value="0" leadInLength="0/1"  />
              <InterpolatingParam id="6725" interp="linr"  time="0/1" value="0" leadInLength="0/1"  />
             </VectorParam>
            </Transformer>
            <Parameters>
             <VectorParam id="6726"  name="sourceCrop">
              <InterpolatingParam id="6727" interp="linr"  time="0/1" value="0" leadInLength="0/1"  />
              <InterpolatingParam id="6728" interp="linr"  time="0/1" value="0" leadInLength="0/1"  />
              <InterpolatingParam id="6729" interp="linr"  time="0/1" value="0" leadInLength="0/1"  />
              <InterpolatingParam id="6730" interp="linr"  time="0/1" value="0" leadInLength="0/1"  />
             </VectorParam>
             <VectorParam id="6731"  name="geometryCrop">
              <InterpolatingParam id="6732" interp="linr"  time="-9999999/1" value="0" leadInLength="0/1"  />
              <InterpolatingParam id="6733" interp="linr"  time="-9999999/1" value="0" leadInLength="0/1"  />
              <InterpolatingParam id="6734" interp="linr"  time="-9999999/1" value="0" leadInLength="0/1"  />
              <InterpolatingParam id="6735" interp="linr"  time="-9999999/1" value="0" leadInLength="0/1"  />
             </VectorParam>
             <InterpolatingParam id="6736" interp="linr"  time="-9999999/1" value="1" leadInLength="0/1"  name="opacity"/>
            </Parameters>
            <Attributes>
             <Attribute id="6737" value="" name="ident"/>
            </Attributes>
            <MetaData>
             <entry key="WinSubProjectDisplayName" val=""/>
            </MetaData>
            <ExtraData>
             <Entry key="ZoomPanBin">
              <ZoomPanBin id="6738"  >
               <ZoomPanKeyframes>
                <ZoomPanKeyframe id="6739" timeRangeEnd="-9999999/1" timeRangeDuration="0/1" interpolaterName=""  />
               </ZoomPanKeyframes>
              </ZoomPanBin>
             </Entry>
            </ExtraData>
           </VMFile>
           <VMFile id="6740" start="4362" duration="95" scalar="1/1" mediaStart="4751/1" mediaDuration="95/1" trackNumber="0" src="4" >
            <Transformer>
             <VectorParam id="6741"  name="translation">
              <InterpolatingParam id="6742" interp="linr"  time="-9999999/1" value="0" leadInLength="0/1"  />
              <InterpolatingParam id="6743" interp="linr"  time="-9999999/1" value="0" leadInLength="0/1"  />
              <InterpolatingParam id="6744" interp="linr"  time="-9999999/1" value="0" leadInLength="0/1"  />
             </VectorParam>
             <VectorParam id="6745"  name="rotation">
              <InterpolatingParam id="6746" interp="linr"  time="-9999999/1" value="0" leadInLength="0/1"  />
              <InterpolatingParam id="6747" interp="linr"  time="-9999999/1" value="0" leadInLength="0/1"  />
              <InterpolatingParam id="6748" interp="linr"  time="-9999999/1" value="0" leadInLength="0/1"  />
             </VectorParam>
             <VectorParam id="6749"  name="shear">
              <InterpolatingParam id="6750" interp="linr"  time="-9999999/1" value="0" leadInLength="0/1"  />
              <InterpolatingParam id="6751" interp="linr"  time="-9999999/1" value="0" leadInLength="0/1"  />
              <InterpolatingParam id="6752" interp="linr"  time="-9999999/1" value="0" leadInLength="0/1"  />
             </VectorParam>
             <VectorParam id="6753"  name="scale">
              <InterpolatingParam id="6754" interp="linr"  time="-9999999/1" value="1" leadInLength="0/1"  />
              <InterpolatingParam id="6755" interp="linr"  time="-9999999/1" value="1" leadInLength="0/1"  />
              <InterpolatingParam id="6756" interp="linr"  time="-9999999/1" value="1" leadInLength="0/1"  />
             </VectorParam>
             <VectorParam id="6757"  name="anchor">
              <InterpolatingParam id="6758" interp="linr"  time="0/1" value="0" leadInLength="0/1"  />
              <InterpolatingParam id="6759" interp="linr"  time="0/1" value="0" leadInLength="0/1"  />
              <InterpolatingParam id="6760" interp="linr"  time="0/1" value="0" leadInLength="0/1"  />
             </VectorParam>
            </Transformer>
            <Parameters>
             <VectorParam id="6761"  name="sourceCrop">
              <InterpolatingParam id="6762" interp="linr"  time="0/1" value="0" leadInLength="0/1"  />
              <InterpolatingParam id="6763" interp="linr"  time="0/1" value="0" leadInLength="0/1"  />
              <InterpolatingParam id="6764" interp="linr"  time="0/1" value="0" leadInLength="0/1"  />
              <InterpolatingParam id="6765" interp="linr"  time="0/1" value="0" leadInLength="0/1"  />
             </VectorParam>
             <VectorParam id="6766"  name="geometryCrop">
              <InterpolatingParam id="6767" interp="linr"  time="-9999999/1" value="0" leadInLength="0/1"  />
              <InterpolatingParam id="6768" interp="linr"  time="-9999999/1" value="0" leadInLength="0/1"  />
              <InterpolatingParam id="6769" interp="linr"  time="-9999999/1" value="0" leadInLength="0/1"  />
              <InterpolatingParam id="6770" interp="linr"  time="-9999999/1" value="0" leadInLength="0/1"  />
             </VectorParam>
             <InterpolatingParam id="6771" interp="linr"  time="-9999999/1" value="1" leadInLength="0/1"  name="opacity"/>
            </Parameters>
            <Attributes>
             <Attribute id="6772" value="" name="ident"/>
            </Attributes>
            <MetaData>
             <entry key="WinSubProjectDisplayName" val=""/>
            </MetaData>
            <ExtraData>
             <Entry key="ZoomPanBin">
              <ZoomPanBin id="6773"  >
               <ZoomPanKeyframes>
                <ZoomPanKeyframe id="6774" timeRangeEnd="-9999999/1" timeRangeDuration="0/1" interpolaterName=""  />
               </ZoomPanKeyframes>
              </ZoomPanBin>
             </Entry>
            </ExtraData>
           </VMFile>
           <IMFile id="6775" start="4457" duration="270" scalar="1/1" mediaStart="4846/1" mediaDuration="1/1" trackNumber="0" src="4" trimStartSum="0/1" >
            <Transformer>
             <VectorParam id="6776"  name="translation">
              <InterpolatingParam id="6777" interp="linr"  time="-9999999/1" value="0" leadInLength="0/1"  />
              <InterpolatingParam id="6778" interp="linr"  time="-9999999/1" value="0" leadInLength="0/1"  />
              <InterpolatingParam id="6779" interp="linr"  time="-9999999/1" value="0" leadInLength="0/1"  />
             </VectorParam>
             <VectorParam id="6780"  name="rotation">
              <InterpolatingParam id="6781" interp="linr"  time="-9999999/1" value="0" leadInLength="0/1"  />
              <InterpolatingParam id="6782" interp="linr"  time="-9999999/1" value="0" leadInLength="0/1"  />
              <InterpolatingParam id="6783" interp="linr"  time="-9999999/1" value="0" leadInLength="0/1"  />
             </VectorParam>
             <VectorParam id="6784"  name="shear">
              <InterpolatingParam id="6785" interp="linr"  time="-9999999/1" value="0" leadInLength="0/1"  />
              <InterpolatingParam id="6786" interp="linr"  time="-9999999/1" value="0" leadInLength="0/1"  />
              <InterpolatingParam id="6787" interp="linr"  time="-9999999/1" value="0" leadInLength="0/1"  />
             </VectorParam>
             <VectorParam id="6788"  name="scale">
              <InterpolatingParam id="6789" interp="linr"  time="-9999999/1" value="1" leadInLength="0/1"  />
              <InterpolatingParam id="6790" interp="linr"  time="-9999999/1" value="1" leadInLength="0/1"  />
              <InterpolatingParam id="6791" interp="linr"  time="-9999999/1" value="1" leadInLength="0/1"  />
             </VectorParam>
             <VectorParam id="6792"  name="anchor">
              <InterpolatingParam id="6793" interp="linr"  time="0/1" value="0" leadInLength="0/1"  />
              <InterpolatingParam id="6794" interp="linr"  time="0/1" value="0" leadInLength="0/1"  />
              <InterpolatingParam id="6795" interp="linr"  time="0/1" value="0" leadInLength="0/1"  />
             </VectorParam>
            </Transformer>
            <Parameters>
             <VectorParam id="6796"  name="sourceCrop">
              <InterpolatingParam id="6797" interp="linr"  time="0/1" value="0" leadInLength="0/1"  />
              <InterpolatingParam id="6798" interp="linr"  time="0/1" value="0" leadInLength="0/1"  />
              <InterpolatingParam id="6799" interp="linr"  time="0/1" value="0" leadInLength="0/1"  />
              <InterpolatingParam id="6800" interp="linr"  time="0/1" value="0" leadInLength="0/1"  />
             </VectorParam>
             <VectorParam id="6801"  name="geometryCrop">
              <InterpolatingParam id="6802" interp="linr"  time="-9999999/1" value="0" leadInLength="0/1"  />
              <InterpolatingParam id="6803" interp="linr"  time="-9999999/1" value="0" leadInLength="0/1"  />
              <InterpolatingParam id="6804" interp="linr"  time="-9999999/1" value="0" leadInLength="0/1"  />
              <InterpolatingParam id="6805" interp="linr"  time="-9999999/1" value="0" leadInLength="0/1"  />
             </VectorParam>
             <InterpolatingParam id="6806" interp="linr"  time="-9999999/1" value="1" leadInLength="0/1"  name="opacity"/>
            </Parameters>
            <Attributes>
             <Attribute id="6807" value="" name="ident"/>
            </Attributes>
            <MetaData>
             <entry key="WinSubProjectDisplayName" val=""/>
            </MetaData>
            <ExtraData>
             <Entry key="ZoomPanBin">
              <ZoomPanBin id="6808"  >
               <ZoomPanKeyframes>
                <ZoomPanKeyframe id="6809" timeRangeEnd="-9999999/1" timeRangeDuration="0/1" interpolaterName=""  />
               </ZoomPanKeyframes>
              </ZoomPanBin>
             </Entry>
            </ExtraData>
           </IMFile>
           <VMFile id="6810" start="4727" duration="17" scalar="1/1" mediaStart="4846/1" mediaDuration="17/1" trackNumber="0" src="4" >
            <Transformer>
             <VectorParam id="6811"  name="translation">
              <InterpolatingParam id="6812" interp="linr"  time="-9999999/1" value="0" leadInLength="0/1"  />
              <InterpolatingParam id="6813" interp="linr"  time="-9999999/1" value="0" leadInLength="0/1"  />
              <InterpolatingParam id="6814" interp="linr"  time="-9999999/1" value="0" leadInLength="0/1"  />
             </VectorParam>
             <VectorParam id="6815"  name="rotation">
              <InterpolatingParam id="6816" interp="linr"  time="-9999999/1" value="0" leadInLength="0/1"  />
              <InterpolatingParam id="6817" interp="linr"  time="-9999999/1" value="0" leadInLength="0/1"  />
              <InterpolatingParam id="6818" interp="linr"  time="-9999999/1" value="0" leadInLength="0/1"  />
             </VectorParam>
             <VectorParam id="6819"  name="shear">
              <InterpolatingParam id="6820" interp="linr"  time="-9999999/1" value="0" leadInLength="0/1"  />
              <InterpolatingParam id="6821" interp="linr"  time="-9999999/1" value="0" leadInLength="0/1"  />
              <InterpolatingParam id="6822" interp="linr"  time="-9999999/1" value="0" leadInLength="0/1"  />
             </VectorParam>
             <VectorParam id="6823"  name="scale">
              <InterpolatingParam id="6824" interp="linr"  time="-9999999/1" value="1" leadInLength="0/1"  />
              <InterpolatingParam id="6825" interp="linr"  time="-9999999/1" value="1" leadInLength="0/1"  />
              <InterpolatingParam id="6826" interp="linr"  time="-9999999/1" value="1" leadInLength="0/1"  />
             </VectorParam>
             <VectorParam id="6827"  name="anchor">
              <InterpolatingParam id="6828" interp="linr"  time="0/1" value="0" leadInLength="0/1"  />
              <InterpolatingParam id="6829" interp="linr"  time="0/1" value="0" leadInLength="0/1"  />
              <InterpolatingParam id="6830" interp="linr"  time="0/1" value="0" leadInLength="0/1"  />
             </VectorParam>
            </Transformer>
            <Parameters>
             <VectorParam id="6831"  name="sourceCrop">
              <InterpolatingParam id="6832" interp="linr"  time="0/1" value="0" leadInLength="0/1"  />
              <InterpolatingParam id="6833" interp="linr"  time="0/1" value="0" leadInLength="0/1"  />
              <InterpolatingParam id="6834" interp="linr"  time="0/1" value="0" leadInLength="0/1"  />
              <InterpolatingParam id="6835" interp="linr"  time="0/1" value="0" leadInLength="0/1"  />
             </VectorParam>
             <VectorParam id="6836"  name="geometryCrop">
              <InterpolatingParam id="6837" interp="linr"  time="-9999999/1" value="0" leadInLength="0/1"  />
              <InterpolatingParam id="6838" interp="linr"  time="-9999999/1" value="0" leadInLength="0/1"  />
              <InterpolatingParam id="6839" interp="linr"  time="-9999999/1" value="0" leadInLength="0/1"  />
              <InterpolatingParam id="6840" interp="linr"  time="-9999999/1" value="0" leadInLength="0/1"  />
             </VectorParam>
             <InterpolatingParam id="6841" interp="linr"  time="-9999999/1" value="1" leadInLength="0/1"  name="opacity"/>
            </Parameters>
            <Attributes>
             <Attribute id="6842" value="" name="ident"/>
            </Attributes>
            <MetaData>
             <entry key="WinSubProjectDisplayName" val=""/>
            </MetaData>
            <ExtraData>
             <Entry key="ZoomPanBin">
              <ZoomPanBin id="6843"  >
               <ZoomPanKeyframes>
                <ZoomPanKeyframe id="6844" timeRangeEnd="-9999999/1" timeRangeDuration="0/1" interpolaterName=""  />
               </ZoomPanKeyframes>
              </ZoomPanBin>
             </Entry>
            </ExtraData>
           </VMFile>
           <VMFile id="6845" start="4744" duration="386" scalar="1/1" mediaStart="7805/1" mediaDuration="386/1" trackNumber="0" src="4" >
            <Transformer>
             <VectorParam id="6846"  name="translation">
              <InterpolatingParam id="6847" interp="linr"  time="-9999999/1" value="0" leadInLength="0/1"  />
              <InterpolatingParam id="6848" interp="linr"  time="-9999999/1" value="0" leadInLength="0/1"  />
              <InterpolatingParam id="6849" interp="linr"  time="-9999999/1" value="0" leadInLength="0/1"  />
             </VectorParam>
             <VectorParam id="6850"  name="rotation">
              <InterpolatingParam id="6851" interp="linr"  time="-9999999/1" value="0" leadInLength="0/1"  />
              <InterpolatingParam id="6852" interp="linr"  time="-9999999/1" value="0" leadInLength="0/1"  />
              <InterpolatingParam id="6853" interp="linr"  time="-9999999/1" value="0" leadInLength="0/1"  />
             </VectorParam>
             <VectorParam id="6854"  name="shear">
              <InterpolatingParam id="6855" interp="linr"  time="-9999999/1" value="0" leadInLength="0/1"  />
              <InterpolatingParam id="6856" interp="linr"  time="-9999999/1" value="0" leadInLength="0/1"  />
              <InterpolatingParam id="6857" interp="linr"  time="-9999999/1" value="0" leadInLength="0/1"  />
             </VectorParam>
             <VectorParam id="6858"  name="scale">
              <InterpolatingParam id="6859" interp="linr"  time="-9999999/1" value="1" leadInLength="0/1"  />
              <InterpolatingParam id="6860" interp="linr"  time="-9999999/1" value="1" leadInLength="0/1"  />
              <InterpolatingParam id="6861" interp="linr"  time="-9999999/1" value="1" leadInLength="0/1"  />
             </VectorParam>
             <VectorParam id="6862"  name="anchor">
              <InterpolatingParam id="6863" interp="linr"  time="0/1" value="0" leadInLength="0/1"  />
              <InterpolatingParam id="6864" interp="linr"  time="0/1" value="0" leadInLength="0/1"  />
              <InterpolatingParam id="6865" interp="linr"  time="0/1" value="0" leadInLength="0/1"  />
             </VectorParam>
            </Transformer>
            <Parameters>
             <VectorParam id="6866"  name="sourceCrop">
              <InterpolatingParam id="6867" interp="linr"  time="0/1" value="0" leadInLength="0/1"  />
              <InterpolatingParam id="6868" interp="linr"  time="0/1" value="0" leadInLength="0/1"  />
              <InterpolatingParam id="6869" interp="linr"  time="0/1" value="0" leadInLength="0/1"  />
              <InterpolatingParam id="6870" interp="linr"  time="0/1" value="0" leadInLength="0/1"  />
             </VectorParam>
             <VectorParam id="6871"  name="geometryCrop">
              <InterpolatingParam id="6872" interp="linr"  time="-9999999/1" value="0" leadInLength="0/1"  />
              <InterpolatingParam id="6873" interp="linr"  time="-9999999/1" value="0" leadInLength="0/1"  />
              <InterpolatingParam id="6874" interp="linr"  time="-9999999/1" value="0" leadInLength="0/1"  />
              <InterpolatingParam id="6875" interp="linr"  time="-9999999/1" value="0" leadInLength="0/1"  />
             </VectorParam>
             <InterpolatingParam id="6876" interp="linr"  time="-9999999/1" value="1" leadInLength="0/1"  name="opacity"/>
            </Parameters>
            <Attributes>
             <Attribute id="6877" value="" name="ident"/>
            </Attributes>
            <MetaData>
             <entry key="WinSubProjectDisplayName" val=""/>
            </MetaData>
            <ExtraData>
             <Entry key="ZoomPanBin">
              <ZoomPanBin id="6878"  >
               <ZoomPanKeyframes>
                <ZoomPanKeyframe id="6879" timeRangeEnd="-9999999/1" timeRangeDuration="0/1" interpolaterName=""  />
               </ZoomPanKeyframes>
              </ZoomPanBin>
             </Entry>
            </ExtraData>
           </VMFile>
           <VMFile id="6880" start="5130" duration="1007" scalar="1/1" mediaStart="8371/1" mediaDuration="1007/1" trackNumber="0" src="4" >
            <Transformer>
             <VectorParam id="6881"  name="translation">
              <InterpolatingParam id="6882" interp="linr"  time="-9999999/1" value="0" leadInLength="0/1"  />
              <InterpolatingParam id="6883" interp="linr"  time="-9999999/1" value="0" leadInLength="0/1"  />
              <InterpolatingParam id="6884" interp="linr"  time="-9999999/1" value="0" leadInLength="0/1"  />
             </VectorParam>
             <VectorParam id="6885"  name="rotation">
              <InterpolatingParam id="6886" interp="linr"  time="-9999999/1" value="0" leadInLength="0/1"  />
              <InterpolatingParam id="6887" interp="linr"  time="-9999999/1" value="0" leadInLength="0/1"  />
              <InterpolatingParam id="6888" interp="linr"  time="-9999999/1" value="0" leadInLength="0/1"  />
             </VectorParam>
             <VectorParam id="6889"  name="shear">
              <InterpolatingParam id="6890" interp="linr"  time="-9999999/1" value="0" leadInLength="0/1"  />
              <InterpolatingParam id="6891" interp="linr"  time="-9999999/1" value="0" leadInLength="0/1"  />
              <InterpolatingParam id="6892" interp="linr"  time="-9999999/1" value="0" leadInLength="0/1"  />
             </VectorParam>
             <VectorParam id="6893"  name="scale">
              <InterpolatingParam id="6894" interp="linr"  time="-9999999/1" value="1" leadInLength="0/1"  />
              <InterpolatingParam id="6895" interp="linr"  time="-9999999/1" value="1" leadInLength="0/1"  />
              <InterpolatingParam id="6896" interp="linr"  time="-9999999/1" value="1" leadInLength="0/1"  />
             </VectorParam>
             <VectorParam id="6897"  name="anchor">
              <InterpolatingParam id="6898" interp="linr"  time="0/1" value="0" leadInLength="0/1"  />
              <InterpolatingParam id="6899" interp="linr"  time="0/1" value="0" leadInLength="0/1"  />
              <InterpolatingParam id="6900" interp="linr"  time="0/1" value="0" leadInLength="0/1"  />
             </VectorParam>
            </Transformer>
            <Parameters>
             <VectorParam id="6901"  name="sourceCrop">
              <InterpolatingParam id="6902" interp="linr"  time="0/1" value="0" leadInLength="0/1"  />
              <InterpolatingParam id="6903" interp="linr"  time="0/1" value="0" leadInLength="0/1"  />
              <InterpolatingParam id="6904" interp="linr"  time="0/1" value="0" leadInLength="0/1"  />
              <InterpolatingParam id="6905" interp="linr"  time="0/1" value="0" leadInLength="0/1"  />
             </VectorParam>
             <VectorParam id="6906"  name="geometryCrop">
              <InterpolatingParam id="6907" interp="linr"  time="-9999999/1" value="0" leadInLength="0/1"  />
              <InterpolatingParam id="6908" interp="linr"  time="-9999999/1" value="0" leadInLength="0/1"  />
              <InterpolatingParam id="6909" interp="linr"  time="-9999999/1" value="0" leadInLength="0/1"  />
              <InterpolatingParam id="6910" interp="linr"  time="-9999999/1" value="0" leadInLength="0/1"  />
             </VectorParam>
             <InterpolatingParam id="6911" interp="linr"  time="-9999999/1" value="1" leadInLength="0/1"  name="opacity"/>
            </Parameters>
            <Attributes>
             <Attribute id="6912" value="" name="ident"/>
            </Attributes>
            <MetaData>
             <entry key="WinSubProjectDisplayName" val=""/>
            </MetaData>
            <ExtraData>
             <Entry key="ZoomPanBin">
              <ZoomPanBin id="6913"  >
               <ZoomPanKeyframes>
                <ZoomPanKeyframe id="6914" timeRangeEnd="-9999999/1" timeRangeDuration="0/1" interpolaterName=""  />
               </ZoomPanKeyframes>
              </ZoomPanBin>
             </Entry>
            </ExtraData>
           </VMFile>
           <VMFile id="6915" start="6137" duration="555" scalar="1/1" mediaStart="9516/1" mediaDuration="555/1" trackNumber="0" src="4" >
            <Transformer>
             <VectorParam id="6916"  name="translation">
              <InterpolatingParam id="6917" interp="linr"  time="-9999999/1" value="0" leadInLength="0/1"  />
              <InterpolatingParam id="6918" interp="linr"  time="-9999999/1" value="0" leadInLength="0/1"  />
              <InterpolatingParam id="6919" interp="linr"  time="-9999999/1" value="0" leadInLength="0/1"  />
             </VectorParam>
             <VectorParam id="6920"  name="rotation">
              <InterpolatingParam id="6921" interp="linr"  time="-9999999/1" value="0" leadInLength="0/1"  />
              <InterpolatingParam id="6922" interp="linr"  time="-9999999/1" value="0" leadInLength="0/1"  />
              <InterpolatingParam id="6923" interp="linr"  time="-9999999/1" value="0" leadInLength="0/1"  />
             </VectorParam>
             <VectorParam id="6924"  name="shear">
              <InterpolatingParam id="6925" interp="linr"  time="-9999999/1" value="0" leadInLength="0/1"  />
              <InterpolatingParam id="6926" interp="linr"  time="-9999999/1" value="0" leadInLength="0/1"  />
              <InterpolatingParam id="6927" interp="linr"  time="-9999999/1" value="0" leadInLength="0/1"  />
             </VectorParam>
             <VectorParam id="6928"  name="scale">
              <InterpolatingParam id="6929" interp="linr"  time="-9999999/1" value="1" leadInLength="0/1"  />
              <InterpolatingParam id="6930" interp="linr"  time="-9999999/1" value="1" leadInLength="0/1"  />
              <InterpolatingParam id="6931" interp="linr"  time="-9999999/1" value="1" leadInLength="0/1"  />
             </VectorParam>
             <VectorParam id="6932"  name="anchor">
              <InterpolatingParam id="6933" interp="linr"  time="0/1" value="0" leadInLength="0/1"  />
              <InterpolatingParam id="6934" interp="linr"  time="0/1" value="0" leadInLength="0/1"  />
              <InterpolatingParam id="6935" interp="linr"  time="0/1" value="0" leadInLength="0/1"  />
             </VectorParam>
            </Transformer>
            <Parameters>
             <VectorParam id="6936"  name="sourceCrop">
              <InterpolatingParam id="6937" interp="linr"  time="0/1" value="0" leadInLength="0/1"  />
              <InterpolatingParam id="6938" interp="linr"  time="0/1" value="0" leadInLength="0/1"  />
              <InterpolatingParam id="6939" interp="linr"  time="0/1" value="0" leadInLength="0/1"  />
              <InterpolatingParam id="6940" interp="linr"  time="0/1" value="0" leadInLength="0/1"  />
             </VectorParam>
             <VectorParam id="6941"  name="geometryCrop">
              <InterpolatingParam id="6942" interp="linr"  time="-9999999/1" value="0" leadInLength="0/1"  />
              <InterpolatingParam id="6943" interp="linr"  time="-9999999/1" value="0" leadInLength="0/1"  />
              <InterpolatingParam id="6944" interp="linr"  time="-9999999/1" value="0" leadInLength="0/1"  />
              <InterpolatingParam id="6945" interp="linr"  time="-9999999/1" value="0" leadInLength="0/1"  />
             </VectorParam>
             <InterpolatingParam id="6946" interp="linr"  time="-9999999/1" value="1" leadInLength="0/1"  name="opacity"/>
            </Parameters>
            <Attributes>
             <Attribute id="6947" value="" name="ident"/>
            </Attributes>
            <MetaData>
             <entry key="WinSubProjectDisplayName" val=""/>
            </MetaData>
            <ExtraData>
             <Entry key="ZoomPanBin">
              <ZoomPanBin id="6948"  >
               <ZoomPanKeyframes>
                <ZoomPanKeyframe id="6949" timeRangeEnd="-9999999/1" timeRangeDuration="0/1" interpolaterName=""  />
               </ZoomPanKeyframes>
              </ZoomPanBin>
             </Entry>
            </ExtraData>
           </VMFile>
           <VMFile id="6950" start="6692" duration="460" scalar="1/1" mediaStart="11597/1" mediaDuration="460/1" trackNumber="0" src="4" >
            <Transformer>
             <VectorParam id="6951"  name="translation">
              <InterpolatingParam id="6952" interp="linr"  time="-9999999/1" value="0" leadInLength="0/1"  />
              <InterpolatingParam id="6953" interp="linr"  time="-9999999/1" value="0" leadInLength="0/1"  />
              <InterpolatingParam id="6954" interp="linr"  time="-9999999/1" value="0" leadInLength="0/1"  />
             </VectorParam>
             <VectorParam id="6955"  name="rotation">
              <InterpolatingParam id="6956" interp="linr"  time="-9999999/1" value="0" leadInLength="0/1"  />
              <InterpolatingParam id="6957" interp="linr"  time="-9999999/1" value="0" leadInLength="0/1"  />
              <InterpolatingParam id="6958" interp="linr"  time="-9999999/1" value="0" leadInLength="0/1"  />
             </VectorParam>
             <VectorParam id="6959"  name="shear">
              <InterpolatingParam id="6960" interp="linr"  time="-9999999/1" value="0" leadInLength="0/1"  />
              <InterpolatingParam id="6961" interp="linr"  time="-9999999/1" value="0" leadInLength="0/1"  />
              <InterpolatingParam id="6962" interp="linr"  time="-9999999/1" value="0" leadInLength="0/1"  />
             </VectorParam>
             <VectorParam id="6963"  name="scale">
              <InterpolatingParam id="6964" interp="linr"  time="-9999999/1" value="1" leadInLength="0/1"  />
              <InterpolatingParam id="6965" interp="linr"  time="-9999999/1" value="1" leadInLength="0/1"  />
              <InterpolatingParam id="6966" interp="linr"  time="-9999999/1" value="1" leadInLength="0/1"  />
             </VectorParam>
             <VectorParam id="6967"  name="anchor">
              <InterpolatingParam id="6968" interp="linr"  time="0/1" value="0" leadInLength="0/1"  />
              <InterpolatingParam id="6969" interp="linr"  time="0/1" value="0" leadInLength="0/1"  />
              <InterpolatingParam id="6970" interp="linr"  time="0/1" value="0" leadInLength="0/1"  />
             </VectorParam>
            </Transformer>
            <Parameters>
             <VectorParam id="6971"  name="sourceCrop">
              <InterpolatingParam id="6972" interp="linr"  time="0/1" value="0" leadInLength="0/1"  />
              <InterpolatingParam id="6973" interp="linr"  time="0/1" value="0" leadInLength="0/1"  />
              <InterpolatingParam id="6974" interp="linr"  time="0/1" value="0" leadInLength="0/1"  />
              <InterpolatingParam id="6975" interp="linr"  time="0/1" value="0" leadInLength="0/1"  />
             </VectorParam>
             <VectorParam id="6976"  name="geometryCrop">
              <InterpolatingParam id="6977" interp="linr"  time="-9999999/1" value="0" leadInLength="0/1"  />
              <InterpolatingParam id="6978" interp="linr"  time="-9999999/1" value="0" leadInLength="0/1"  />
              <InterpolatingParam id="6979" interp="linr"  time="-9999999/1" value="0" leadInLength="0/1"  />
              <InterpolatingParam id="6980" interp="linr"  time="-9999999/1" value="0" leadInLength="0/1"  />
             </VectorParam>
             <InterpolatingParam id="6981" interp="linr"  time="-9999999/1" value="1" leadInLength="0/1"  name="opacity"/>
            </Parameters>
            <Attributes>
             <Attribute id="6982" value="" name="ident"/>
            </Attributes>
            <MetaData>
             <entry key="WinSubProjectDisplayName" val=""/>
            </MetaData>
            <ExtraData>
             <Entry key="ZoomPanBin">
              <ZoomPanBin id="6983"  >
               <ZoomPanKeyframes>
                <ZoomPanKeyframe id="6984" timeRangeEnd="-9999999/1" timeRangeDuration="0/1" interpolaterName=""  />
               </ZoomPanKeyframes>
              </ZoomPanBin>
             </Entry>
            </ExtraData>
           </VMFile>
           <VMFile id="6985" start="7152" duration="350" scalar="1/1" mediaStart="12237/1" mediaDuration="350/1" trackNumber="0" src="4" >
            <Transformer>
             <VectorParam id="6986"  name="translation">
              <InterpolatingParam id="6987" interp="linr"  time="-9999999/1" value="0" leadInLength="0/1"  />
              <InterpolatingParam id="6988" interp="linr"  time="-9999999/1" value="0" leadInLength="0/1"  />
              <InterpolatingParam id="6989" interp="linr"  time="-9999999/1" value="0" leadInLength="0/1"  />
             </VectorParam>
             <VectorParam id="6990"  name="rotation">
              <InterpolatingParam id="6991" interp="linr"  time="-9999999/1" value="0" leadInLength="0/1"  />
              <InterpolatingParam id="6992" interp="linr"  time="-9999999/1" value="0" leadInLength="0/1"  />
              <InterpolatingParam id="6993" interp="linr"  time="-9999999/1" value="0" leadInLength="0/1"  />
             </VectorParam>
             <VectorParam id="6994"  name="shear">
              <InterpolatingParam id="6995" interp="linr"  time="-9999999/1" value="0" leadInLength="0/1"  />
              <InterpolatingParam id="6996" interp="linr"  time="-9999999/1" value="0" leadInLength="0/1"  />
              <InterpolatingParam id="6997" interp="linr"  time="-9999999/1" value="0" leadInLength="0/1"  />
             </VectorParam>
             <VectorParam id="6998"  name="scale">
              <InterpolatingParam id="6999" interp="linr"  time="-9999999/1" value="1" leadInLength="0/1"  />
              <InterpolatingParam id="7000" interp="linr"  time="-9999999/1" value="1" leadInLength="0/1"  />
              <InterpolatingParam id="7001" interp="linr"  time="-9999999/1" value="1" leadInLength="0/1"  />
             </VectorParam>
             <VectorParam id="7002"  name="anchor">
              <InterpolatingParam id="7003" interp="linr"  time="0/1" value="0" leadInLength="0/1"  />
              <InterpolatingParam id="7004" interp="linr"  time="0/1" value="0" leadInLength="0/1"  />
              <InterpolatingParam id="7005" interp="linr"  time="0/1" value="0" leadInLength="0/1"  />
             </VectorParam>
            </Transformer>
            <Parameters>
             <VectorParam id="7006"  name="sourceCrop">
              <InterpolatingParam id="7007" interp="linr"  time="0/1" value="0" leadInLength="0/1"  />
              <InterpolatingParam id="7008" interp="linr"  time="0/1" value="0" leadInLength="0/1"  />
              <InterpolatingParam id="7009" interp="linr"  time="0/1" value="0" leadInLength="0/1"  />
              <InterpolatingParam id="7010" interp="linr"  time="0/1" value="0" leadInLength="0/1"  />
             </VectorParam>
             <VectorParam id="7011"  name="geometryCrop">
              <InterpolatingParam id="7012" interp="linr"  time="-9999999/1" value="0" leadInLength="0/1"  />
              <InterpolatingParam id="7013" interp="linr"  time="-9999999/1" value="0" leadInLength="0/1"  />
              <InterpolatingParam id="7014" interp="linr"  time="-9999999/1" value="0" leadInLength="0/1"  />
              <InterpolatingParam id="7015" interp="linr"  time="-9999999/1" value="0" leadInLength="0/1"  />
             </VectorParam>
             <InterpolatingParam id="7016" interp="linr"  time="-9999999/1" value="1" leadInLength="0/1"  name="opacity"/>
            </Parameters>
            <Attributes>
             <Attribute id="7017" value="" name="ident"/>
            </Attributes>
            <MetaData>
             <entry key="WinSubProjectDisplayName" val=""/>
            </MetaData>
            <ExtraData>
             <Entry key="ZoomPanBin">
              <ZoomPanBin id="7018"  >
               <ZoomPanKeyframes>
                <ZoomPanKeyframe id="7019" timeRangeEnd="-9999999/1" timeRangeDuration="0/1" interpolaterName=""  />
               </ZoomPanKeyframes>
              </ZoomPanBin>
             </Entry>
            </ExtraData>
           </VMFile>
           <VMFile id="7020" start="7502" duration="128" scalar="1/1" mediaStart="15765/1" mediaDuration="128/1" trackNumber="0" src="4" >
            <Transformer>
             <VectorParam id="7021"  name="translation">
              <InterpolatingParam id="7022" interp="linr"  time="-9999999/1" value="0" leadInLength="0/1"  />
              <InterpolatingParam id="7023" interp="linr"  time="-9999999/1" value="0" leadInLength="0/1"  />
              <InterpolatingParam id="7024" interp="linr"  time="-9999999/1" value="0" leadInLength="0/1"  />
             </VectorParam>
             <VectorParam id="7025"  name="rotation">
              <InterpolatingParam id="7026" interp="linr"  time="-9999999/1" value="0" leadInLength="0/1"  />
              <InterpolatingParam id="7027" interp="linr"  time="-9999999/1" value="0" leadInLength="0/1"  />
              <InterpolatingParam id="7028" interp="linr"  time="-9999999/1" value="0" leadInLength="0/1"  />
             </VectorParam>
             <VectorParam id="7029"  name="shear">
              <InterpolatingParam id="7030" interp="linr"  time="-9999999/1" value="0" leadInLength="0/1"  />
              <InterpolatingParam id="7031" interp="linr"  time="-9999999/1" value="0" leadInLength="0/1"  />
              <InterpolatingParam id="7032" interp="linr"  time="-9999999/1" value="0" leadInLength="0/1"  />
             </VectorParam>
             <VectorParam id="7033"  name="scale">
              <InterpolatingParam id="7034" interp="linr"  time="-9999999/1" value="1" leadInLength="0/1"  />
              <InterpolatingParam id="7035" interp="linr"  time="-9999999/1" value="1" leadInLength="0/1"  />
              <InterpolatingParam id="7036" interp="linr"  time="-9999999/1" value="1" leadInLength="0/1"  />
             </VectorParam>
             <VectorParam id="7037"  name="anchor">
              <InterpolatingParam id="7038" interp="linr"  time="0/1" value="0" leadInLength="0/1"  />
              <InterpolatingParam id="7039" interp="linr"  time="0/1" value="0" leadInLength="0/1"  />
              <InterpolatingParam id="7040" interp="linr"  time="0/1" value="0" leadInLength="0/1"  />
             </VectorParam>
            </Transformer>
            <Parameters>
             <VectorParam id="7041"  name="sourceCrop">
              <InterpolatingParam id="7042" interp="linr"  time="0/1" value="0" leadInLength="0/1"  />
              <InterpolatingParam id="7043" interp="linr"  time="0/1" value="0" leadInLength="0/1"  />
              <InterpolatingParam id="7044" interp="linr"  time="0/1" value="0" leadInLength="0/1"  />
              <InterpolatingParam id="7045" interp="linr"  time="0/1" value="0" leadInLength="0/1"  />
             </VectorParam>
             <VectorParam id="7046"  name="geometryCrop">
              <InterpolatingParam id="7047" interp="linr"  time="-9999999/1" value="0" leadInLength="0/1"  />
              <InterpolatingParam id="7048" interp="linr"  time="-9999999/1" value="0" leadInLength="0/1"  />
              <InterpolatingParam id="7049" interp="linr"  time="-9999999/1" value="0" leadInLength="0/1"  />
              <InterpolatingParam id="7050" interp="linr"  time="-9999999/1" value="0" leadInLength="0/1"  />
             </VectorParam>
             <InterpolatingParam id="7051" interp="linr"  time="-9999999/1" value="1" leadInLength="0/1"  name="opacity"/>
            </Parameters>
            <Attributes>
             <Attribute id="7052" value="" name="ident"/>
            </Attributes>
            <MetaData>
             <entry key="WinSubProjectDisplayName" val=""/>
            </MetaData>
            <ExtraData>
             <Entry key="ZoomPanBin">
              <ZoomPanBin id="7053"  >
               <ZoomPanKeyframes>
                <ZoomPanKeyframe id="7054" timeRangeEnd="-9999999/1" timeRangeDuration="0/1" interpolaterName=""  />
               </ZoomPanKeyframes>
              </ZoomPanBin>
             </Entry>
            </ExtraData>
           </VMFile>
           <VMFile id="7055" start="7630" duration="615" scalar="1/1" mediaStart="15918/1" mediaDuration="615/1" trackNumber="0" src="4" >
            <Transformer>
             <VectorParam id="7056"  name="translation">
              <InterpolatingParam id="7057" interp="linr"  time="-9999999/1" value="0" leadInLength="0/1"  />
              <InterpolatingParam id="7058" interp="linr"  time="-9999999/1" value="0" leadInLength="0/1"  />
              <InterpolatingParam id="7059" interp="linr"  time="-9999999/1" value="0" leadInLength="0/1"  />
             </VectorParam>
             <VectorParam id="7060"  name="rotation">
              <InterpolatingParam id="7061" interp="linr"  time="-9999999/1" value="0" leadInLength="0/1"  />
              <InterpolatingParam id="7062" interp="linr"  time="-9999999/1" value="0" leadInLength="0/1"  />
              <InterpolatingParam id="7063" interp="linr"  time="-9999999/1" value="0" leadInLength="0/1"  />
             </VectorParam>
             <VectorParam id="7064"  name="shear">
              <InterpolatingParam id="7065" interp="linr"  time="-9999999/1" value="0" leadInLength="0/1"  />
              <InterpolatingParam id="7066" interp="linr"  time="-9999999/1" value="0" leadInLength="0/1"  />
              <InterpolatingParam id="7067" interp="linr"  time="-9999999/1" value="0" leadInLength="0/1"  />
             </VectorParam>
             <VectorParam id="7068"  name="scale">
              <InterpolatingParam id="7069" interp="linr"  time="-9999999/1" value="1" leadInLength="0/1"  />
              <InterpolatingParam id="7070" interp="linr"  time="-9999999/1" value="1" leadInLength="0/1"  />
              <InterpolatingParam id="7071" interp="linr"  time="-9999999/1" value="1" leadInLength="0/1"  />
             </VectorParam>
             <VectorParam id="7072"  name="anchor">
              <InterpolatingParam id="7073" interp="linr"  time="0/1" value="0" leadInLength="0/1"  />
              <InterpolatingParam id="7074" interp="linr"  time="0/1" value="0" leadInLength="0/1"  />
              <InterpolatingParam id="7075" interp="linr"  time="0/1" value="0" leadInLength="0/1"  />
             </VectorParam>
            </Transformer>
            <Parameters>
             <VectorParam id="7076"  name="sourceCrop">
              <InterpolatingParam id="7077" interp="linr"  time="0/1" value="0" leadInLength="0/1"  />
              <InterpolatingParam id="7078" interp="linr"  time="0/1" value="0" leadInLength="0/1"  />
              <InterpolatingParam id="7079" interp="linr"  time="0/1" value="0" leadInLength="0/1"  />
              <InterpolatingParam id="7080" interp="linr"  time="0/1" value="0" leadInLength="0/1"  />
             </VectorParam>
             <VectorParam id="7081"  name="geometryCrop">
              <InterpolatingParam id="7082" interp="linr"  time="-9999999/1" value="0" leadInLength="0/1"  />
              <InterpolatingParam id="7083" interp="linr"  time="-9999999/1" value="0" leadInLength="0/1"  />
              <InterpolatingParam id="7084" interp="linr"  time="-9999999/1" value="0" leadInLength="0/1"  />
              <InterpolatingParam id="7085" interp="linr"  time="-9999999/1" value="0" leadInLength="0/1"  />
             </VectorParam>
             <InterpolatingParam id="7086" interp="linr"  time="-9999999/1" value="1" leadInLength="0/1"  name="opacity"/>
            </Parameters>
            <Attributes>
             <Attribute id="7087" value="" name="ident"/>
            </Attributes>
            <MetaData>
             <entry key="WinSubProjectDisplayName" val=""/>
            </MetaData>
            <ExtraData>
             <Entry key="ZoomPanBin">
              <ZoomPanBin id="7088"  >
               <ZoomPanKeyframes>
                <ZoomPanKeyframe id="7089" timeRangeEnd="-9999999/1" timeRangeDuration="0/1" interpolaterName=""  />
               </ZoomPanKeyframes>
              </ZoomPanBin>
             </Entry>
            </ExtraData>
           </VMFile>
           <VMFile id="7090" start="8245" duration="323" scalar="1/1" mediaStart="16694/1" mediaDuration="323/1" trackNumber="0" src="4" >
            <Transformer>
             <VectorParam id="7091"  name="translation">
              <InterpolatingParam id="7092" interp="linr"  time="-9999999/1" value="0" leadInLength="0/1"  />
              <InterpolatingParam id="7093" interp="linr"  time="-9999999/1" value="0" leadInLength="0/1"  />
              <InterpolatingParam id="7094" interp="linr"  time="-9999999/1" value="0" leadInLength="0/1"  />
             </VectorParam>
             <VectorParam id="7095"  name="rotation">
              <InterpolatingParam id="7096" interp="linr"  time="-9999999/1" value="0" leadInLength="0/1"  />
              <InterpolatingParam id="7097" interp="linr"  time="-9999999/1" value="0" leadInLength="0/1"  />
              <InterpolatingParam id="7098" interp="linr"  time="-9999999/1" value="0" leadInLength="0/1"  />
             </VectorParam>
             <VectorParam id="7099"  name="shear">
              <InterpolatingParam id="7100" interp="linr"  time="-9999999/1" value="0" leadInLength="0/1"  />
              <InterpolatingParam id="7101" interp="linr"  time="-9999999/1" value="0" leadInLength="0/1"  />
              <InterpolatingParam id="7102" interp="linr"  time="-9999999/1" value="0" leadInLength="0/1"  />
             </VectorParam>
             <VectorParam id="7103"  name="scale">
              <InterpolatingParam id="7104" interp="linr"  time="-9999999/1" value="1" leadInLength="0/1"  />
              <InterpolatingParam id="7105" interp="linr"  time="-9999999/1" value="1" leadInLength="0/1"  />
              <InterpolatingParam id="7106" interp="linr"  time="-9999999/1" value="1" leadInLength="0/1"  />
             </VectorParam>
             <VectorParam id="7107"  name="anchor">
              <InterpolatingParam id="7108" interp="linr"  time="0/1" value="0" leadInLength="0/1"  />
              <InterpolatingParam id="7109" interp="linr"  time="0/1" value="0" leadInLength="0/1"  />
              <InterpolatingParam id="7110" interp="linr"  time="0/1" value="0" leadInLength="0/1"  />
             </VectorParam>
            </Transformer>
            <Parameters>
             <VectorParam id="7111"  name="sourceCrop">
              <InterpolatingParam id="7112" interp="linr"  time="0/1" value="0" leadInLength="0/1"  />
              <InterpolatingParam id="7113" interp="linr"  time="0/1" value="0" leadInLength="0/1"  />
              <InterpolatingParam id="7114" interp="linr"  time="0/1" value="0" leadInLength="0/1"  />
              <InterpolatingParam id="7115" interp="linr"  time="0/1" value="0" leadInLength="0/1"  />
             </VectorParam>
             <VectorParam id="7116"  name="geometryCrop">
              <InterpolatingParam id="7117" interp="linr"  time="-9999999/1" value="0" leadInLength="0/1"  />
              <InterpolatingParam id="7118" interp="linr"  time="-9999999/1" value="0" leadInLength="0/1"  />
              <InterpolatingParam id="7119" interp="linr"  time="-9999999/1" value="0" leadInLength="0/1"  />
              <InterpolatingParam id="7120" interp="linr"  time="-9999999/1" value="0" leadInLength="0/1"  />
             </VectorParam>
             <InterpolatingParam id="7121" interp="linr"  time="-9999999/1" value="1" leadInLength="0/1"  name="opacity"/>
            </Parameters>
            <Attributes>
             <Attribute id="7122" value="" name="ident"/>
            </Attributes>
            <MetaData>
             <entry key="WinSubProjectDisplayName" val=""/>
            </MetaData>
            <ExtraData>
             <Entry key="ZoomPanBin">
              <ZoomPanBin id="7123"  >
               <ZoomPanKeyframes>
                <ZoomPanKeyframe id="7124" timeRangeEnd="-9999999/1" timeRangeDuration="0/1" interpolaterName=""  />
               </ZoomPanKeyframes>
              </ZoomPanBin>
             </Entry>
            </ExtraData>
           </VMFile>
           <VMFile id="7125" start="8568" duration="223" scalar="1/1" mediaStart="17164/1" mediaDuration="223/1" trackNumber="0" src="4" >
            <Transformer>
             <VectorParam id="7126"  name="translation">
              <InterpolatingParam id="7127" interp="linr"  time="-9999999/1" value="0" leadInLength="0/1"  />
              <InterpolatingParam id="7128" interp="linr"  time="-9999999/1" value="0" leadInLength="0/1"  />
              <InterpolatingParam id="7129" interp="linr"  time="-9999999/1" value="0" leadInLength="0/1"  />
             </VectorParam>
             <VectorParam id="7130"  name="rotation">
              <InterpolatingParam id="7131" interp="linr"  time="-9999999/1" value="0" leadInLength="0/1"  />
              <InterpolatingParam id="7132" interp="linr"  time="-9999999/1" value="0" leadInLength="0/1"  />
              <InterpolatingParam id="7133" interp="linr"  time="-9999999/1" value="0" leadInLength="0/1"  />
             </VectorParam>
             <VectorParam id="7134"  name="shear">
              <InterpolatingParam id="7135" interp="linr"  time="-9999999/1" value="0" leadInLength="0/1"  />
              <InterpolatingParam id="7136" interp="linr"  time="-9999999/1" value="0" leadInLength="0/1"  />
              <InterpolatingParam id="7137" interp="linr"  time="-9999999/1" value="0" leadInLength="0/1"  />
             </VectorParam>
             <VectorParam id="7138"  name="scale">
              <InterpolatingParam id="7139" interp="linr"  time="-9999999/1" value="1" leadInLength="0/1"  />
              <InterpolatingParam id="7140" interp="linr"  time="-9999999/1" value="1" leadInLength="0/1"  />
              <InterpolatingParam id="7141" interp="linr"  time="-9999999/1" value="1" leadInLength="0/1"  />
             </VectorParam>
             <VectorParam id="7142"  name="anchor">
              <InterpolatingParam id="7143" interp="linr"  time="0/1" value="0" leadInLength="0/1"  />
              <InterpolatingParam id="7144" interp="linr"  time="0/1" value="0" leadInLength="0/1"  />
              <InterpolatingParam id="7145" interp="linr"  time="0/1" value="0" leadInLength="0/1"  />
             </VectorParam>
            </Transformer>
            <Parameters>
             <VectorParam id="7146"  name="sourceCrop">
              <InterpolatingParam id="7147" interp="linr"  time="0/1" value="0" leadInLength="0/1"  />
              <InterpolatingParam id="7148" interp="linr"  time="0/1" value="0" leadInLength="0/1"  />
              <InterpolatingParam id="7149" interp="linr"  time="0/1" value="0" leadInLength="0/1"  />
              <InterpolatingParam id="7150" interp="linr"  time="0/1" value="0" leadInLength="0/1"  />
             </VectorParam>
             <VectorParam id="7151"  name="geometryCrop">
              <InterpolatingParam id="7152" interp="linr"  time="-9999999/1" value="0" leadInLength="0/1"  />
              <InterpolatingParam id="7153" interp="linr"  time="-9999999/1" value="0" leadInLength="0/1"  />
              <InterpolatingParam id="7154" interp="linr"  time="-9999999/1" value="0" leadInLength="0/1"  />
              <InterpolatingParam id="7155" interp="linr"  time="-9999999/1" value="0" leadInLength="0/1"  />
             </VectorParam>
             <InterpolatingParam id="7156" interp="linr"  time="-9999999/1" value="1" leadInLength="0/1"  name="opacity"/>
            </Parameters>
            <Attributes>
             <Attribute id="7157" value="" name="ident"/>
            </Attributes>
            <MetaData>
             <entry key="WinSubProjectDisplayName" val=""/>
            </MetaData>
            <ExtraData>
             <Entry key="ZoomPanBin">
              <ZoomPanBin id="7158"  >
               <ZoomPanKeyframes>
                <ZoomPanKeyframe id="7159" timeRangeEnd="-9999999/1" timeRangeDuration="0/1" interpolaterName=""  />
               </ZoomPanKeyframes>
              </ZoomPanBin>
             </Entry>
            </ExtraData>
           </VMFile>
           <VMFile id="7160" start="8791" duration="323" scalar="1/1" mediaStart="26742/1" mediaDuration="323/1" trackNumber="0" src="4" >
            <Transformer>
             <VectorParam id="7161"  name="translation">
              <InterpolatingParam id="7162" interp="linr"  time="-9999999/1" value="0" leadInLength="0/1"  />
              <InterpolatingParam id="7163" interp="linr"  time="-9999999/1" value="0" leadInLength="0/1"  />
              <InterpolatingParam id="7164" interp="linr"  time="-9999999/1" value="0" leadInLength="0/1"  />
             </VectorParam>
             <VectorParam id="7165"  name="rotation">
              <InterpolatingParam id="7166" interp="linr"  time="-9999999/1" value="0" leadInLength="0/1"  />
              <InterpolatingParam id="7167" interp="linr"  time="-9999999/1" value="0" leadInLength="0/1"  />
              <InterpolatingParam id="7168" interp="linr"  time="-9999999/1" value="0" leadInLength="0/1"  />
             </VectorParam>
             <VectorParam id="7169"  name="shear">
              <InterpolatingParam id="7170" interp="linr"  time="-9999999/1" value="0" leadInLength="0/1"  />
              <InterpolatingParam id="7171" interp="linr"  time="-9999999/1" value="0" leadInLength="0/1"  />
              <InterpolatingParam id="7172" interp="linr"  time="-9999999/1" value="0" leadInLength="0/1"  />
             </VectorParam>
             <VectorParam id="7173"  name="scale">
              <InterpolatingParam id="7174" interp="linr"  time="-9999999/1" value="1" leadInLength="0/1"  />
              <InterpolatingParam id="7175" interp="linr"  time="-9999999/1" value="1" leadInLength="0/1"  />
              <InterpolatingParam id="7176" interp="linr"  time="-9999999/1" value="1" leadInLength="0/1"  />
             </VectorParam>
             <VectorParam id="7177"  name="anchor">
              <InterpolatingParam id="7178" interp="linr"  time="0/1" value="0" leadInLength="0/1"  />
              <InterpolatingParam id="7179" interp="linr"  time="0/1" value="0" leadInLength="0/1"  />
              <InterpolatingParam id="7180" interp="linr"  time="0/1" value="0" leadInLength="0/1"  />
             </VectorParam>
            </Transformer>
            <Parameters>
             <VectorParam id="7181"  name="sourceCrop">
              <InterpolatingParam id="7182" interp="linr"  time="0/1" value="0" leadInLength="0/1"  />
              <InterpolatingParam id="7183" interp="linr"  time="0/1" value="0" leadInLength="0/1"  />
              <InterpolatingParam id="7184" interp="linr"  time="0/1" value="0" leadInLength="0/1"  />
              <InterpolatingParam id="7185" interp="linr"  time="0/1" value="0" leadInLength="0/1"  />
             </VectorParam>
             <VectorParam id="7186"  name="geometryCrop">
              <InterpolatingParam id="7187" interp="linr"  time="-9999999/1" value="0" leadInLength="0/1"  />
              <InterpolatingParam id="7188" interp="linr"  time="-9999999/1" value="0" leadInLength="0/1"  />
              <InterpolatingParam id="7189" interp="linr"  time="-9999999/1" value="0" leadInLength="0/1"  />
              <InterpolatingParam id="7190" interp="linr"  time="-9999999/1" value="0" leadInLength="0/1"  />
             </VectorParam>
             <InterpolatingParam id="7191" interp="linr"  time="-9999999/1" value="1" leadInLength="0/1"  name="opacity"/>
            </Parameters>
            <Attributes>
             <Attribute id="7192" value="" name="ident"/>
            </Attributes>
            <MetaData>
             <entry key="WinSubProjectDisplayName" val=""/>
            </MetaData>
            <ExtraData>
             <Entry key="ZoomPanBin">
              <ZoomPanBin id="7193"  >
               <ZoomPanKeyframes>
                <ZoomPanKeyframe id="7194" timeRangeEnd="-9999999/1" timeRangeDuration="0/1" interpolaterName=""  />
               </ZoomPanKeyframes>
              </ZoomPanBin>
             </Entry>
            </ExtraData>
           </VMFile>
           <VMFile id="7195" start="9114" duration="259" scalar="1/1" mediaStart="27825/1" mediaDuration="259/1" trackNumber="0" src="4" >
            <Transformer>
             <VectorParam id="7196"  name="translation">
              <InterpolatingParam id="7197" interp="linr"  time="-9999999/1" value="0" leadInLength="0/1"  />
              <InterpolatingParam id="7198" interp="linr"  time="-9999999/1" value="0" leadInLength="0/1"  />
              <InterpolatingParam id="7199" interp="linr"  time="-9999999/1" value="0" leadInLength="0/1"  />
             </VectorParam>
             <VectorParam id="7200"  name="rotation">
              <InterpolatingParam id="7201" interp="linr"  time="-9999999/1" value="0" leadInLength="0/1"  />
              <InterpolatingParam id="7202" interp="linr"  time="-9999999/1" value="0" leadInLength="0/1"  />
              <InterpolatingParam id="7203" interp="linr"  time="-9999999/1" value="0" leadInLength="0/1"  />
             </VectorParam>
             <VectorParam id="7204"  name="shear">
              <InterpolatingParam id="7205" interp="linr"  time="-9999999/1" value="0" leadInLength="0/1"  />
              <InterpolatingParam id="7206" interp="linr"  time="-9999999/1" value="0" leadInLength="0/1"  />
              <InterpolatingParam id="7207" interp="linr"  time="-9999999/1" value="0" leadInLength="0/1"  />
             </VectorParam>
             <VectorParam id="7208"  name="scale">
              <InterpolatingParam id="7209" interp="linr"  time="-9999999/1" value="1" leadInLength="0/1"  />
              <InterpolatingParam id="7210" interp="linr"  time="-9999999/1" value="1" leadInLength="0/1"  />
              <InterpolatingParam id="7211" interp="linr"  time="-9999999/1" value="1" leadInLength="0/1"  />
             </VectorParam>
             <VectorParam id="7212"  name="anchor">
              <InterpolatingParam id="7213" interp="linr"  time="0/1" value="0" leadInLength="0/1"  />
              <InterpolatingParam id="7214" interp="linr"  time="0/1" value="0" leadInLength="0/1"  />
              <InterpolatingParam id="7215" interp="linr"  time="0/1" value="0" leadInLength="0/1"  />
             </VectorParam>
            </Transformer>
            <Parameters>
             <VectorParam id="7216"  name="sourceCrop">
              <InterpolatingParam id="7217" interp="linr"  time="0/1" value="0" leadInLength="0/1"  />
              <InterpolatingParam id="7218" interp="linr"  time="0/1" value="0" leadInLength="0/1"  />
              <InterpolatingParam id="7219" interp="linr"  time="0/1" value="0" leadInLength="0/1"  />
              <InterpolatingParam id="7220" interp="linr"  time="0/1" value="0" leadInLength="0/1"  />
             </VectorParam>
             <VectorParam id="7221"  name="geometryCrop">
              <InterpolatingParam id="7222" interp="linr"  time="-9999999/1" value="0" leadInLength="0/1"  />
              <InterpolatingParam id="7223" interp="linr"  time="-9999999/1" value="0" leadInLength="0/1"  />
              <InterpolatingParam id="7224" interp="linr"  time="-9999999/1" value="0" leadInLength="0/1"  />
              <InterpolatingParam id="7225" interp="linr"  time="-9999999/1" value="0" leadInLength="0/1"  />
             </VectorParam>
             <InterpolatingParam id="7226" interp="linr"  time="-9999999/1" value="1" leadInLength="0/1"  name="opacity"/>
            </Parameters>
            <Attributes>
             <Attribute id="7227" value="" name="ident"/>
            </Attributes>
            <MetaData>
             <entry key="WinSubProjectDisplayName" val=""/>
            </MetaData>
            <ExtraData>
             <Entry key="ZoomPanBin">
              <ZoomPanBin id="7228"  >
               <ZoomPanKeyframes>
                <ZoomPanKeyframe id="7229" timeRangeEnd="-9999999/1" timeRangeDuration="0/1" interpolaterName=""  />
               </ZoomPanKeyframes>
              </ZoomPanBin>
             </Entry>
            </ExtraData>
           </VMFile>
           <VMFile id="7230" start="9373" duration="157" scalar="1/1" mediaStart="28287/1" mediaDuration="157/1" trackNumber="0" src="4" >
            <Transformer>
             <VectorParam id="7231"  name="translation">
              <InterpolatingParam id="7232" interp="linr"  time="-9999999/1" value="0" leadInLength="0/1"  />
              <InterpolatingParam id="7233" interp="linr"  time="-9999999/1" value="0" leadInLength="0/1"  />
              <InterpolatingParam id="7234" interp="linr"  time="-9999999/1" value="0" leadInLength="0/1"  />
             </VectorParam>
             <VectorParam id="7235"  name="rotation">
              <InterpolatingParam id="7236" interp="linr"  time="-9999999/1" value="0" leadInLength="0/1"  />
              <InterpolatingParam id="7237" interp="linr"  time="-9999999/1" value="0" leadInLength="0/1"  />
              <InterpolatingParam id="7238" interp="linr"  time="-9999999/1" value="0" leadInLength="0/1"  />
             </VectorParam>
             <VectorParam id="7239"  name="shear">
              <InterpolatingParam id="7240" interp="linr"  time="-9999999/1" value="0" leadInLength="0/1"  />
              <InterpolatingParam id="7241" interp="linr"  time="-9999999/1" value="0" leadInLength="0/1"  />
              <InterpolatingParam id="7242" interp="linr"  time="-9999999/1" value="0" leadInLength="0/1"  />
             </VectorParam>
             <VectorParam id="7243"  name="scale">
              <InterpolatingParam id="7244" interp="linr"  time="-9999999/1" value="1" leadInLength="0/1"  />
              <InterpolatingParam id="7245" interp="linr"  time="-9999999/1" value="1" leadInLength="0/1"  />
              <InterpolatingParam id="7246" interp="linr"  time="-9999999/1" value="1" leadInLength="0/1"  />
             </VectorParam>
             <VectorParam id="7247"  name="anchor">
              <InterpolatingParam id="7248" interp="linr"  time="0/1" value="0" leadInLength="0/1"  />
              <InterpolatingParam id="7249" interp="linr"  time="0/1" value="0" leadInLength="0/1"  />
              <InterpolatingParam id="7250" interp="linr"  time="0/1" value="0" leadInLength="0/1"  />
             </VectorParam>
            </Transformer>
            <Parameters>
             <VectorParam id="7251"  name="sourceCrop">
              <InterpolatingParam id="7252" interp="linr"  time="0/1" value="0" leadInLength="0/1"  />
              <InterpolatingParam id="7253" interp="linr"  time="0/1" value="0" leadInLength="0/1"  />
              <InterpolatingParam id="7254" interp="linr"  time="0/1" value="0" leadInLength="0/1"  />
              <InterpolatingParam id="7255" interp="linr"  time="0/1" value="0" leadInLength="0/1"  />
             </VectorParam>
             <VectorParam id="7256"  name="geometryCrop">
              <InterpolatingParam id="7257" interp="linr"  time="-9999999/1" value="0" leadInLength="0/1"  />
              <InterpolatingParam id="7258" interp="linr"  time="-9999999/1" value="0" leadInLength="0/1"  />
              <InterpolatingParam id="7259" interp="linr"  time="-9999999/1" value="0" leadInLength="0/1"  />
              <InterpolatingParam id="7260" interp="linr"  time="-9999999/1" value="0" leadInLength="0/1"  />
             </VectorParam>
             <InterpolatingParam id="7261" interp="linr"  time="-9999999/1" value="1" leadInLength="0/1"  name="opacity"/>
            </Parameters>
            <Attributes>
             <Attribute id="7262" value="" name="ident"/>
            </Attributes>
            <MetaData>
             <entry key="WinSubProjectDisplayName" val=""/>
            </MetaData>
            <ExtraData>
             <Entry key="ZoomPanBin">
              <ZoomPanBin id="7263"  >
               <ZoomPanKeyframes>
                <ZoomPanKeyframe id="7264" timeRangeEnd="-9999999/1" timeRangeDuration="0/1" interpolaterName=""  />
               </ZoomPanKeyframes>
              </ZoomPanBin>
             </Entry>
            </ExtraData>
           </VMFile>
           <VMFile id="7265" start="9530" duration="290" scalar="1/1" mediaStart="28689/1" mediaDuration="290/1" trackNumber="0" src="4" >
            <Transformer>
             <VectorParam id="7266"  name="translation">
              <InterpolatingParam id="7267" interp="linr"  time="-9999999/1" value="0" leadInLength="0/1"  />
              <InterpolatingParam id="7268" interp="linr"  time="-9999999/1" value="0" leadInLength="0/1"  />
              <InterpolatingParam id="7269" interp="linr"  time="-9999999/1" value="0" leadInLength="0/1"  />
             </VectorParam>
             <VectorParam id="7270"  name="rotation">
              <InterpolatingParam id="7271" interp="linr"  time="-9999999/1" value="0" leadInLength="0/1"  />
              <InterpolatingParam id="7272" interp="linr"  time="-9999999/1" value="0" leadInLength="0/1"  />
              <InterpolatingParam id="7273" interp="linr"  time="-9999999/1" value="0" leadInLength="0/1"  />
             </VectorParam>
             <VectorParam id="7274"  name="shear">
              <InterpolatingParam id="7275" interp="linr"  time="-9999999/1" value="0" leadInLength="0/1"  />
              <InterpolatingParam id="7276" interp="linr"  time="-9999999/1" value="0" leadInLength="0/1"  />
              <InterpolatingParam id="7277" interp="linr"  time="-9999999/1" value="0" leadInLength="0/1"  />
             </VectorParam>
             <VectorParam id="7278"  name="scale">
              <InterpolatingParam id="7279" interp="linr"  time="-9999999/1" value="1" leadInLength="0/1"  />
              <InterpolatingParam id="7280" interp="linr"  time="-9999999/1" value="1" leadInLength="0/1"  />
              <InterpolatingParam id="7281" interp="linr"  time="-9999999/1" value="1" leadInLength="0/1"  />
             </VectorParam>
             <VectorParam id="7282"  name="anchor">
              <InterpolatingParam id="7283" interp="linr"  time="0/1" value="0" leadInLength="0/1"  />
              <InterpolatingParam id="7284" interp="linr"  time="0/1" value="0" leadInLength="0/1"  />
              <InterpolatingParam id="7285" interp="linr"  time="0/1" value="0" leadInLength="0/1"  />
             </VectorParam>
            </Transformer>
            <Parameters>
             <VectorParam id="7286"  name="sourceCrop">
              <InterpolatingParam id="7287" interp="linr"  time="0/1" value="0" leadInLength="0/1"  />
              <InterpolatingParam id="7288" interp="linr"  time="0/1" value="0" leadInLength="0/1"  />
              <InterpolatingParam id="7289" interp="linr"  time="0/1" value="0" leadInLength="0/1"  />
              <InterpolatingParam id="7290" interp="linr"  time="0/1" value="0" leadInLength="0/1"  />
             </VectorParam>
             <VectorParam id="7291"  name="geometryCrop">
              <InterpolatingParam id="7292" interp="linr"  time="-9999999/1" value="0" leadInLength="0/1"  />
              <InterpolatingParam id="7293" interp="linr"  time="-9999999/1" value="0" leadInLength="0/1"  />
              <InterpolatingParam id="7294" interp="linr"  time="-9999999/1" value="0" leadInLength="0/1"  />
              <InterpolatingParam id="7295" interp="linr"  time="-9999999/1" value="0" leadInLength="0/1"  />
             </VectorParam>
             <InterpolatingParam id="7296" interp="linr"  time="-9999999/1" value="1" leadInLength="0/1"  name="opacity"/>
            </Parameters>
            <Attributes>
             <Attribute id="7297" value="" name="ident"/>
            </Attributes>
            <MetaData>
             <entry key="WinSubProjectDisplayName" val=""/>
            </MetaData>
            <ExtraData>
             <Entry key="ZoomPanBin">
              <ZoomPanBin id="7298"  >
               <ZoomPanKeyframes>
                <ZoomPanKeyframe id="7299" timeRangeEnd="-9999999/1" timeRangeDuration="0/1" interpolaterName=""  />
               </ZoomPanKeyframes>
              </ZoomPanBin>
             </Entry>
            </ExtraData>
           </VMFile>
           <IMFile id="7300" start="9820" duration="60" scalar="1/1" mediaStart="29056/1" mediaDuration="1/1" trackNumber="0" src="4" trimStartSum="0/1" >
            <Transformer>
             <VectorParam id="7301"  name="translation">
              <InterpolatingParam id="7302" interp="linr"  time="-9999999/1" value="0" leadInLength="0/1"  />
              <InterpolatingParam id="7303" interp="linr"  time="-9999999/1" value="0" leadInLength="0/1"  />
              <InterpolatingParam id="7304" interp="linr"  time="-9999999/1" value="0" leadInLength="0/1"  />
             </VectorParam>
             <VectorParam id="7305"  name="rotation">
              <InterpolatingParam id="7306" interp="linr"  time="-9999999/1" value="0" leadInLength="0/1"  />
              <InterpolatingParam id="7307" interp="linr"  time="-9999999/1" value="0" leadInLength="0/1"  />
              <InterpolatingParam id="7308" interp="linr"  time="-9999999/1" value="0" leadInLength="0/1"  />
             </VectorParam>
             <VectorParam id="7309"  name="shear">
              <InterpolatingParam id="7310" interp="linr"  time="-9999999/1" value="0" leadInLength="0/1"  />
              <InterpolatingParam id="7311" interp="linr"  time="-9999999/1" value="0" leadInLength="0/1"  />
              <InterpolatingParam id="7312" interp="linr"  time="-9999999/1" value="0" leadInLength="0/1"  />
             </VectorParam>
             <VectorParam id="7313"  name="scale">
              <InterpolatingParam id="7314" interp="linr"  time="-9999999/1" value="1" leadInLength="0/1"  />
              <InterpolatingParam id="7315" interp="linr"  time="-9999999/1" value="1" leadInLength="0/1"  />
              <InterpolatingParam id="7316" interp="linr"  time="-9999999/1" value="1" leadInLength="0/1"  />
             </VectorParam>
             <VectorParam id="7317"  name="anchor">
              <InterpolatingParam id="7318" interp="linr"  time="0/1" value="0" leadInLength="0/1"  />
              <InterpolatingParam id="7319" interp="linr"  time="0/1" value="0" leadInLength="0/1"  />
              <InterpolatingParam id="7320" interp="linr"  time="0/1" value="0" leadInLength="0/1"  />
             </VectorParam>
            </Transformer>
            <Parameters>
             <VectorParam id="7321"  name="sourceCrop">
              <InterpolatingParam id="7322" interp="linr"  time="0/1" value="0" leadInLength="0/1"  />
              <InterpolatingParam id="7323" interp="linr"  time="0/1" value="0" leadInLength="0/1"  />
              <InterpolatingParam id="7324" interp="linr"  time="0/1" value="0" leadInLength="0/1"  />
              <InterpolatingParam id="7325" interp="linr"  time="0/1" value="0" leadInLength="0/1"  />
             </VectorParam>
             <VectorParam id="7326"  name="geometryCrop">
              <InterpolatingParam id="7327" interp="linr"  time="-9999999/1" value="0" leadInLength="0/1"  />
              <InterpolatingParam id="7328" interp="linr"  time="-9999999/1" value="0" leadInLength="0/1"  />
              <InterpolatingParam id="7329" interp="linr"  time="-9999999/1" value="0" leadInLength="0/1"  />
              <InterpolatingParam id="7330" interp="linr"  time="-9999999/1" value="0" leadInLength="0/1"  />
             </VectorParam>
             <InterpolatingParam id="7331" interp="linr"  time="-9999999/1" value="1" leadInLength="0/1"  name="opacity"/>
            </Parameters>
            <Attributes>
             <Attribute id="7332" value="" name="ident"/>
            </Attributes>
            <MetaData>
             <entry key="WinSubProjectDisplayName" val=""/>
            </MetaData>
            <ExtraData>
             <Entry key="ZoomPanBin">
              <ZoomPanBin id="7333"  >
               <ZoomPanKeyframes>
                <ZoomPanKeyframe id="7334" timeRangeEnd="-9999999/1" timeRangeDuration="0/1" interpolaterName=""  />
               </ZoomPanKeyframes>
              </ZoomPanBin>
             </Entry>
            </ExtraData>
           </IMFile>
           <VMFile id="7335" start="9880" duration="18" scalar="1/1" mediaStart="29056/1" mediaDuration="18/1" trackNumber="0" src="4" >
            <Transformer>
             <VectorParam id="7336"  name="translation">
              <InterpolatingParam id="7337" interp="linr"  time="-9999999/1" value="0" leadInLength="0/1"  />
              <InterpolatingParam id="7338" interp="linr"  time="-9999999/1" value="0" leadInLength="0/1"  />
              <InterpolatingParam id="7339" interp="linr"  time="-9999999/1" value="0" leadInLength="0/1"  />
             </VectorParam>
             <VectorParam id="7340"  name="rotation">
              <InterpolatingParam id="7341" interp="linr"  time="-9999999/1" value="0" leadInLength="0/1"  />
              <InterpolatingParam id="7342" interp="linr"  time="-9999999/1" value="0" leadInLength="0/1"  />
              <InterpolatingParam id="7343" interp="linr"  time="-9999999/1" value="0" leadInLength="0/1"  />
             </VectorParam>
             <VectorParam id="7344"  name="shear">
              <InterpolatingParam id="7345" interp="linr"  time="-9999999/1" value="0" leadInLength="0/1"  />
              <InterpolatingParam id="7346" interp="linr"  time="-9999999/1" value="0" leadInLength="0/1"  />
              <InterpolatingParam id="7347" interp="linr"  time="-9999999/1" value="0" leadInLength="0/1"  />
             </VectorParam>
             <VectorParam id="7348"  name="scale">
              <InterpolatingParam id="7349" interp="linr"  time="-9999999/1" value="1" leadInLength="0/1"  />
              <InterpolatingParam id="7350" interp="linr"  time="-9999999/1" value="1" leadInLength="0/1"  />
              <InterpolatingParam id="7351" interp="linr"  time="-9999999/1" value="1" leadInLength="0/1"  />
             </VectorParam>
             <VectorParam id="7352"  name="anchor">
              <InterpolatingParam id="7353" interp="linr"  time="0/1" value="0" leadInLength="0/1"  />
              <InterpolatingParam id="7354" interp="linr"  time="0/1" value="0" leadInLength="0/1"  />
              <InterpolatingParam id="7355" interp="linr"  time="0/1" value="0" leadInLength="0/1"  />
             </VectorParam>
            </Transformer>
            <Parameters>
             <VectorParam id="7356"  name="sourceCrop">
              <InterpolatingParam id="7357" interp="linr"  time="0/1" value="0" leadInLength="0/1"  />
              <InterpolatingParam id="7358" interp="linr"  time="0/1" value="0" leadInLength="0/1"  />
              <InterpolatingParam id="7359" interp="linr"  time="0/1" value="0" leadInLength="0/1"  />
              <InterpolatingParam id="7360" interp="linr"  time="0/1" value="0" leadInLength="0/1"  />
             </VectorParam>
             <VectorParam id="7361"  name="geometryCrop">
              <InterpolatingParam id="7362" interp="linr"  time="-9999999/1" value="0" leadInLength="0/1"  />
              <InterpolatingParam id="7363" interp="linr"  time="-9999999/1" value="0" leadInLength="0/1"  />
              <InterpolatingParam id="7364" interp="linr"  time="-9999999/1" value="0" leadInLength="0/1"  />
              <InterpolatingParam id="7365" interp="linr"  time="-9999999/1" value="0" leadInLength="0/1"  />
             </VectorParam>
             <InterpolatingParam id="7366" interp="linr"  time="-9999999/1" value="1" leadInLength="0/1"  name="opacity"/>
            </Parameters>
            <Attributes>
             <Attribute id="7367" value="" name="ident"/>
            </Attributes>
            <MetaData>
             <entry key="WinSubProjectDisplayName" val=""/>
            </MetaData>
            <ExtraData>
             <Entry key="ZoomPanBin">
              <ZoomPanBin id="7368"  >
               <ZoomPanKeyframes>
                <ZoomPanKeyframe id="7369" timeRangeEnd="-9999999/1" timeRangeDuration="0/1" interpolaterName=""  />
               </ZoomPanKeyframes>
              </ZoomPanBin>
             </Entry>
            </ExtraData>
           </VMFile>
           <IMFile id="7370" start="9898" duration="30" scalar="1/1" mediaStart="29074/1" mediaDuration="1/1" trackNumber="0" src="4" trimStartSum="0/1" >
            <Transformer>
             <VectorParam id="7371"  name="translation">
              <InterpolatingParam id="7372" interp="linr"  time="-9999999/1" value="0" leadInLength="0/1"  />
              <InterpolatingParam id="7373" interp="linr"  time="-9999999/1" value="0" leadInLength="0/1"  />
              <InterpolatingParam id="7374" interp="linr"  time="-9999999/1" value="0" leadInLength="0/1"  />
             </VectorParam>
             <VectorParam id="7375"  name="rotation">
              <InterpolatingParam id="7376" interp="linr"  time="-9999999/1" value="0" leadInLength="0/1"  />
              <InterpolatingParam id="7377" interp="linr"  time="-9999999/1" value="0" leadInLength="0/1"  />
              <InterpolatingParam id="7378" interp="linr"  time="-9999999/1" value="0" leadInLength="0/1"  />
             </VectorParam>
             <VectorParam id="7379"  name="shear">
              <InterpolatingParam id="7380" interp="linr"  time="-9999999/1" value="0" leadInLength="0/1"  />
              <InterpolatingParam id="7381" interp="linr"  time="-9999999/1" value="0" leadInLength="0/1"  />
              <InterpolatingParam id="7382" interp="linr"  time="-9999999/1" value="0" leadInLength="0/1"  />
             </VectorParam>
             <VectorParam id="7383"  name="scale">
              <InterpolatingParam id="7384" interp="linr"  time="-9999999/1" value="1" leadInLength="0/1"  />
              <InterpolatingParam id="7385" interp="linr"  time="-9999999/1" value="1" leadInLength="0/1"  />
              <InterpolatingParam id="7386" interp="linr"  time="-9999999/1" value="1" leadInLength="0/1"  />
             </VectorParam>
             <VectorParam id="7387"  name="anchor">
              <InterpolatingParam id="7388" interp="linr"  time="0/1" value="0" leadInLength="0/1"  />
              <InterpolatingParam id="7389" interp="linr"  time="0/1" value="0" leadInLength="0/1"  />
              <InterpolatingParam id="7390" interp="linr"  time="0/1" value="0" leadInLength="0/1"  />
             </VectorParam>
            </Transformer>
            <Parameters>
             <VectorParam id="7391"  name="sourceCrop">
              <InterpolatingParam id="7392" interp="linr"  time="0/1" value="0" leadInLength="0/1"  />
              <InterpolatingParam id="7393" interp="linr"  time="0/1" value="0" leadInLength="0/1"  />
              <InterpolatingParam id="7394" interp="linr"  time="0/1" value="0" leadInLength="0/1"  />
              <InterpolatingParam id="7395" interp="linr"  time="0/1" value="0" leadInLength="0/1"  />
             </VectorParam>
             <VectorParam id="7396"  name="geometryCrop">
              <InterpolatingParam id="7397" interp="linr"  time="-9999999/1" value="0" leadInLength="0/1"  />
              <InterpolatingParam id="7398" interp="linr"  time="-9999999/1" value="0" leadInLength="0/1"  />
              <InterpolatingParam id="7399" interp="linr"  time="-9999999/1" value="0" leadInLength="0/1"  />
              <InterpolatingParam id="7400" interp="linr"  time="-9999999/1" value="0" leadInLength="0/1"  />
             </VectorParam>
             <InterpolatingParam id="7401" interp="linr"  time="-9999999/1" value="1" leadInLength="0/1"  name="opacity"/>
            </Parameters>
            <Attributes>
             <Attribute id="7402" value="" name="ident"/>
            </Attributes>
            <MetaData>
             <entry key="WinSubProjectDisplayName" val=""/>
            </MetaData>
            <ExtraData>
             <Entry key="ZoomPanBin">
              <ZoomPanBin id="7403"  >
               <ZoomPanKeyframes>
                <ZoomPanKeyframe id="7404" timeRangeEnd="-9999999/1" timeRangeDuration="0/1" interpolaterName=""  />
               </ZoomPanKeyframes>
              </ZoomPanBin>
             </Entry>
            </ExtraData>
           </IMFile>
           <VMFile id="7405" start="9928" duration="1" scalar="1/1" mediaStart="29074/1" mediaDuration="1/1" trackNumber="0" src="4" >
            <Transformer>
             <VectorParam id="7406"  name="translation">
              <InterpolatingParam id="7407" interp="linr"  time="-9999999/1" value="0" leadInLength="0/1"  />
              <InterpolatingParam id="7408" interp="linr"  time="-9999999/1" value="0" leadInLength="0/1"  />
              <InterpolatingParam id="7409" interp="linr"  time="-9999999/1" value="0" leadInLength="0/1"  />
             </VectorParam>
             <VectorParam id="7410"  name="rotation">
              <InterpolatingParam id="7411" interp="linr"  time="-9999999/1" value="0" leadInLength="0/1"  />
              <InterpolatingParam id="7412" interp="linr"  time="-9999999/1" value="0" leadInLength="0/1"  />
              <InterpolatingParam id="7413" interp="linr"  time="-9999999/1" value="0" leadInLength="0/1"  />
             </VectorParam>
             <VectorParam id="7414"  name="shear">
              <InterpolatingParam id="7415" interp="linr"  time="-9999999/1" value="0" leadInLength="0/1"  />
              <InterpolatingParam id="7416" interp="linr"  time="-9999999/1" value="0" leadInLength="0/1"  />
              <InterpolatingParam id="7417" interp="linr"  time="-9999999/1" value="0" leadInLength="0/1"  />
             </VectorParam>
             <VectorParam id="7418"  name="scale">
              <InterpolatingParam id="7419" interp="linr"  time="-9999999/1" value="1" leadInLength="0/1"  />
              <InterpolatingParam id="7420" interp="linr"  time="-9999999/1" value="1" leadInLength="0/1"  />
              <InterpolatingParam id="7421" interp="linr"  time="-9999999/1" value="1" leadInLength="0/1"  />
             </VectorParam>
             <VectorParam id="7422"  name="anchor">
              <InterpolatingParam id="7423" interp="linr"  time="0/1" value="0" leadInLength="0/1"  />
              <InterpolatingParam id="7424" interp="linr"  time="0/1" value="0" leadInLength="0/1"  />
              <InterpolatingParam id="7425" interp="linr"  time="0/1" value="0" leadInLength="0/1"  />
             </VectorParam>
            </Transformer>
            <Parameters>
             <VectorParam id="7426"  name="sourceCrop">
              <InterpolatingParam id="7427" interp="linr"  time="0/1" value="0" leadInLength="0/1"  />
              <InterpolatingParam id="7428" interp="linr"  time="0/1" value="0" leadInLength="0/1"  />
              <InterpolatingParam id="7429" interp="linr"  time="0/1" value="0" leadInLength="0/1"  />
              <InterpolatingParam id="7430" interp="linr"  time="0/1" value="0" leadInLength="0/1"  />
             </VectorParam>
             <VectorParam id="7431"  name="geometryCrop">
              <InterpolatingParam id="7432" interp="linr"  time="-9999999/1" value="0" leadInLength="0/1"  />
              <InterpolatingParam id="7433" interp="linr"  time="-9999999/1" value="0" leadInLength="0/1"  />
              <InterpolatingParam id="7434" interp="linr"  time="-9999999/1" value="0" leadInLength="0/1"  />
              <InterpolatingParam id="7435" interp="linr"  time="-9999999/1" value="0" leadInLength="0/1"  />
             </VectorParam>
             <InterpolatingParam id="7436" interp="linr"  time="-9999999/1" value="1" leadInLength="0/1"  name="opacity"/>
            </Parameters>
            <Attributes>
             <Attribute id="7437" value="" name="ident"/>
            </Attributes>
            <MetaData>
             <entry key="WinSubProjectDisplayName" val=""/>
            </MetaData>
            <ExtraData>
             <Entry key="ZoomPanBin">
              <ZoomPanBin id="7438"  >
               <ZoomPanKeyframes>
                <ZoomPanKeyframe id="7439" timeRangeEnd="-9999999/1" timeRangeDuration="0/1" interpolaterName=""  />
               </ZoomPanKeyframes>
              </ZoomPanBin>
             </Entry>
            </ExtraData>
           </VMFile>
           <VMFile id="7440" start="9929" duration="42" scalar="1/1" mediaStart="29274/1" mediaDuration="42/1" trackNumber="0" src="4" >
            <Transformer>
             <VectorParam id="7441"  name="translation">
              <InterpolatingParam id="7442" interp="linr"  time="-9999999/1" value="0" leadInLength="0/1"  />
              <InterpolatingParam id="7443" interp="linr"  time="-9999999/1" value="0" leadInLength="0/1"  />
              <InterpolatingParam id="7444" interp="linr"  time="-9999999/1" value="0" leadInLength="0/1"  />
             </VectorParam>
             <VectorParam id="7445"  name="rotation">
              <InterpolatingParam id="7446" interp="linr"  time="-9999999/1" value="0" leadInLength="0/1"  />
              <InterpolatingParam id="7447" interp="linr"  time="-9999999/1" value="0" leadInLength="0/1"  />
              <InterpolatingParam id="7448" interp="linr"  time="-9999999/1" value="0" leadInLength="0/1"  />
             </VectorParam>
             <VectorParam id="7449"  name="shear">
              <InterpolatingParam id="7450" interp="linr"  time="-9999999/1" value="0" leadInLength="0/1"  />
              <InterpolatingParam id="7451" interp="linr"  time="-9999999/1" value="0" leadInLength="0/1"  />
              <InterpolatingParam id="7452" interp="linr"  time="-9999999/1" value="0" leadInLength="0/1"  />
             </VectorParam>
             <VectorParam id="7453"  name="scale">
              <InterpolatingParam id="7454" interp="linr"  time="-9999999/1" value="1" leadInLength="0/1"  />
              <InterpolatingParam id="7455" interp="linr"  time="-9999999/1" value="1" leadInLength="0/1"  />
              <InterpolatingParam id="7456" interp="linr"  time="-9999999/1" value="1" leadInLength="0/1"  />
             </VectorParam>
             <VectorParam id="7457"  name="anchor">
              <InterpolatingParam id="7458" interp="linr"  time="0/1" value="0" leadInLength="0/1"  />
              <InterpolatingParam id="7459" interp="linr"  time="0/1" value="0" leadInLength="0/1"  />
              <InterpolatingParam id="7460" interp="linr"  time="0/1" value="0" leadInLength="0/1"  />
             </VectorParam>
            </Transformer>
            <Parameters>
             <VectorParam id="7461"  name="sourceCrop">
              <InterpolatingParam id="7462" interp="linr"  time="0/1" value="0" leadInLength="0/1"  />
              <InterpolatingParam id="7463" interp="linr"  time="0/1" value="0" leadInLength="0/1"  />
              <InterpolatingParam id="7464" interp="linr"  time="0/1" value="0" leadInLength="0/1"  />
              <InterpolatingParam id="7465" interp="linr"  time="0/1" value="0" leadInLength="0/1"  />
             </VectorParam>
             <VectorParam id="7466"  name="geometryCrop">
              <InterpolatingParam id="7467" interp="linr"  time="-9999999/1" value="0" leadInLength="0/1"  />
              <InterpolatingParam id="7468" interp="linr"  time="-9999999/1" value="0" leadInLength="0/1"  />
              <InterpolatingParam id="7469" interp="linr"  time="-9999999/1" value="0" leadInLength="0/1"  />
              <InterpolatingParam id="7470" interp="linr"  time="-9999999/1" value="0" leadInLength="0/1"  />
             </VectorParam>
             <InterpolatingParam id="7471" interp="linr"  time="-9999999/1" value="1" leadInLength="0/1"  name="opacity"/>
            </Parameters>
            <Attributes>
             <Attribute id="7472" value="" name="ident"/>
            </Attributes>
            <MetaData>
             <entry key="WinSubProjectDisplayName" val=""/>
            </MetaData>
            <ExtraData>
             <Entry key="ZoomPanBin">
              <ZoomPanBin id="7473"  >
               <ZoomPanKeyframes>
                <ZoomPanKeyframe id="7474" timeRangeEnd="-9999999/1" timeRangeDuration="0/1" interpolaterName=""  />
               </ZoomPanKeyframes>
              </ZoomPanBin>
             </Entry>
            </ExtraData>
           </VMFile>
           <VMFile id="7475" start="9971" duration="147" scalar="1/1" mediaStart="29358/1" mediaDuration="147/1" trackNumber="0" src="4" >
            <Transformer>
             <VectorParam id="7476"  name="translation">
              <InterpolatingParam id="7477" interp="linr"  time="-9999999/1" value="0" leadInLength="0/1"  />
              <InterpolatingParam id="7478" interp="linr"  time="-9999999/1" value="0" leadInLength="0/1"  />
              <InterpolatingParam id="7479" interp="linr"  time="-9999999/1" value="0" leadInLength="0/1"  />
             </VectorParam>
             <VectorParam id="7480"  name="rotation">
              <InterpolatingParam id="7481" interp="linr"  time="-9999999/1" value="0" leadInLength="0/1"  />
              <InterpolatingParam id="7482" interp="linr"  time="-9999999/1" value="0" leadInLength="0/1"  />
              <InterpolatingParam id="7483" interp="linr"  time="-9999999/1" value="0" leadInLength="0/1"  />
             </VectorParam>
             <VectorParam id="7484"  name="shear">
              <InterpolatingParam id="7485" interp="linr"  time="-9999999/1" value="0" leadInLength="0/1"  />
              <InterpolatingParam id="7486" interp="linr"  time="-9999999/1" value="0" leadInLength="0/1"  />
              <InterpolatingParam id="7487" interp="linr"  time="-9999999/1" value="0" leadInLength="0/1"  />
             </VectorParam>
             <VectorParam id="7488"  name="scale">
              <InterpolatingParam id="7489" interp="linr"  time="-9999999/1" value="1" leadInLength="0/1"  />
              <InterpolatingParam id="7490" interp="linr"  time="-9999999/1" value="1" leadInLength="0/1"  />
              <InterpolatingParam id="7491" interp="linr"  time="-9999999/1" value="1" leadInLength="0/1"  />
             </VectorParam>
             <VectorParam id="7492"  name="anchor">
              <InterpolatingParam id="7493" interp="linr"  time="0/1" value="0" leadInLength="0/1"  />
              <InterpolatingParam id="7494" interp="linr"  time="0/1" value="0" leadInLength="0/1"  />
              <InterpolatingParam id="7495" interp="linr"  time="0/1" value="0" leadInLength="0/1"  />
             </VectorParam>
            </Transformer>
            <Parameters>
             <VectorParam id="7496"  name="sourceCrop">
              <InterpolatingParam id="7497" interp="linr"  time="0/1" value="0" leadInLength="0/1"  />
              <InterpolatingParam id="7498" interp="linr"  time="0/1" value="0" leadInLength="0/1"  />
              <InterpolatingParam id="7499" interp="linr"  time="0/1" value="0" leadInLength="0/1"  />
              <InterpolatingParam id="7500" interp="linr"  time="0/1" value="0" leadInLength="0/1"  />
             </VectorParam>
             <VectorParam id="7501"  name="geometryCrop">
              <InterpolatingParam id="7502" interp="linr"  time="-9999999/1" value="0" leadInLength="0/1"  />
              <InterpolatingParam id="7503" interp="linr"  time="-9999999/1" value="0" leadInLength="0/1"  />
              <InterpolatingParam id="7504" interp="linr"  time="-9999999/1" value="0" leadInLength="0/1"  />
              <InterpolatingParam id="7505" interp="linr"  time="-9999999/1" value="0" leadInLength="0/1"  />
             </VectorParam>
             <InterpolatingParam id="7506" interp="linr"  time="-9999999/1" value="1" leadInLength="0/1"  name="opacity"/>
            </Parameters>
            <Attributes>
             <Attribute id="7507" value="" name="ident"/>
            </Attributes>
            <MetaData>
             <entry key="WinSubProjectDisplayName" val=""/>
            </MetaData>
            <ExtraData>
             <Entry key="ZoomPanBin">
              <ZoomPanBin id="7508"  >
               <ZoomPanKeyframes>
                <ZoomPanKeyframe id="7509" timeRangeEnd="-9999999/1" timeRangeDuration="0/1" interpolaterName=""  />
               </ZoomPanKeyframes>
              </ZoomPanBin>
             </Entry>
            </ExtraData>
           </VMFile>
           <VMFile id="7510" start="10118" duration="580" scalar="1/1" mediaStart="29557/1" mediaDuration="580/1" trackNumber="0" src="4" >
            <Transformer>
             <VectorParam id="7511"  name="translation">
              <InterpolatingParam id="7512" interp="linr"  time="-9999999/1" value="0" leadInLength="0/1"  />
              <InterpolatingParam id="7513" interp="linr"  time="-9999999/1" value="0" leadInLength="0/1"  />
              <InterpolatingParam id="7514" interp="linr"  time="-9999999/1" value="0" leadInLength="0/1"  />
             </VectorParam>
             <VectorParam id="7515"  name="rotation">
              <InterpolatingParam id="7516" interp="linr"  time="-9999999/1" value="0" leadInLength="0/1"  />
              <InterpolatingParam id="7517" interp="linr"  time="-9999999/1" value="0" leadInLength="0/1"  />
              <InterpolatingParam id="7518" interp="linr"  time="-9999999/1" value="0" leadInLength="0/1"  />
             </VectorParam>
             <VectorParam id="7519"  name="shear">
              <InterpolatingParam id="7520" interp="linr"  time="-9999999/1" value="0" leadInLength="0/1"  />
              <InterpolatingParam id="7521" interp="linr"  time="-9999999/1" value="0" leadInLength="0/1"  />
              <InterpolatingParam id="7522" interp="linr"  time="-9999999/1" value="0" leadInLength="0/1"  />
             </VectorParam>
             <VectorParam id="7523"  name="scale">
              <InterpolatingParam id="7524" interp="linr"  time="-9999999/1" value="1" leadInLength="0/1"  />
              <InterpolatingParam id="7525" interp="linr"  time="-9999999/1" value="1" leadInLength="0/1"  />
              <InterpolatingParam id="7526" interp="linr"  time="-9999999/1" value="1" leadInLength="0/1"  />
             </VectorParam>
             <VectorParam id="7527"  name="anchor">
              <InterpolatingParam id="7528" interp="linr"  time="0/1" value="0" leadInLength="0/1"  />
              <InterpolatingParam id="7529" interp="linr"  time="0/1" value="0" leadInLength="0/1"  />
              <InterpolatingParam id="7530" interp="linr"  time="0/1" value="0" leadInLength="0/1"  />
             </VectorParam>
            </Transformer>
            <Parameters>
             <VectorParam id="7531"  name="sourceCrop">
              <InterpolatingParam id="7532" interp="linr"  time="0/1" value="0" leadInLength="0/1"  />
              <InterpolatingParam id="7533" interp="linr"  time="0/1" value="0" leadInLength="0/1"  />
              <InterpolatingParam id="7534" interp="linr"  time="0/1" value="0" leadInLength="0/1"  />
              <InterpolatingParam id="7535" interp="linr"  time="0/1" value="0" leadInLength="0/1"  />
             </VectorParam>
             <VectorParam id="7536"  name="geometryCrop">
              <InterpolatingParam id="7537" interp="linr"  time="-9999999/1" value="0" leadInLength="0/1"  />
              <InterpolatingParam id="7538" interp="linr"  time="-9999999/1" value="0" leadInLength="0/1"  />
              <InterpolatingParam id="7539" interp="linr"  time="-9999999/1" value="0" leadInLength="0/1"  />
              <InterpolatingParam id="7540" interp="linr"  time="-9999999/1" value="0" leadInLength="0/1"  />
             </VectorParam>
             <InterpolatingParam id="7541" interp="linr"  time="-9999999/1" value="1" leadInLength="0/1"  name="opacity"/>
            </Parameters>
            <Attributes>
             <Attribute id="7542" value="" name="ident"/>
            </Attributes>
            <MetaData>
             <entry key="WinSubProjectDisplayName" val=""/>
            </MetaData>
            <ExtraData>
             <Entry key="ZoomPanBin">
              <ZoomPanBin id="7543"  >
               <ZoomPanKeyframes>
                <ZoomPanKeyframe id="7544" timeRangeEnd="-9999999/1" timeRangeDuration="0/1" interpolaterName=""  />
               </ZoomPanKeyframes>
              </ZoomPanBin>
             </Entry>
            </ExtraData>
           </VMFile>
           <VMFile id="7545" start="10698" duration="25" scalar="1/1" mediaStart="30200/1" mediaDuration="25/1" trackNumber="0" src="4" >
            <Transformer>
             <VectorParam id="7546"  name="translation">
              <InterpolatingParam id="7547" interp="linr"  time="-9999999/1" value="0" leadInLength="0/1"  />
              <InterpolatingParam id="7548" interp="linr"  time="-9999999/1" value="0" leadInLength="0/1"  />
              <InterpolatingParam id="7549" interp="linr"  time="-9999999/1" value="0" leadInLength="0/1"  />
             </VectorParam>
             <VectorParam id="7550"  name="rotation">
              <InterpolatingParam id="7551" interp="linr"  time="-9999999/1" value="0" leadInLength="0/1"  />
              <InterpolatingParam id="7552" interp="linr"  time="-9999999/1" value="0" leadInLength="0/1"  />
              <InterpolatingParam id="7553" interp="linr"  time="-9999999/1" value="0" leadInLength="0/1"  />
             </VectorParam>
             <VectorParam id="7554"  name="shear">
              <InterpolatingParam id="7555" interp="linr"  time="-9999999/1" value="0" leadInLength="0/1"  />
              <InterpolatingParam id="7556" interp="linr"  time="-9999999/1" value="0" leadInLength="0/1"  />
              <InterpolatingParam id="7557" interp="linr"  time="-9999999/1" value="0" leadInLength="0/1"  />
             </VectorParam>
             <VectorParam id="7558"  name="scale">
              <InterpolatingParam id="7559" interp="linr"  time="-9999999/1" value="1" leadInLength="0/1"  />
              <InterpolatingParam id="7560" interp="linr"  time="-9999999/1" value="1" leadInLength="0/1"  />
              <InterpolatingParam id="7561" interp="linr"  time="-9999999/1" value="1" leadInLength="0/1"  />
             </VectorParam>
             <VectorParam id="7562"  name="anchor">
              <InterpolatingParam id="7563" interp="linr"  time="0/1" value="0" leadInLength="0/1"  />
              <InterpolatingParam id="7564" interp="linr"  time="0/1" value="0" leadInLength="0/1"  />
              <InterpolatingParam id="7565" interp="linr"  time="0/1" value="0" leadInLength="0/1"  />
             </VectorParam>
            </Transformer>
            <Parameters>
             <VectorParam id="7566"  name="sourceCrop">
              <InterpolatingParam id="7567" interp="linr"  time="0/1" value="0" leadInLength="0/1"  />
              <InterpolatingParam id="7568" interp="linr"  time="0/1" value="0" leadInLength="0/1"  />
              <InterpolatingParam id="7569" interp="linr"  time="0/1" value="0" leadInLength="0/1"  />
              <InterpolatingParam id="7570" interp="linr"  time="0/1" value="0" leadInLength="0/1"  />
             </VectorParam>
             <VectorParam id="7571"  name="geometryCrop">
              <InterpolatingParam id="7572" interp="linr"  time="-9999999/1" value="0" leadInLength="0/1"  />
              <InterpolatingParam id="7573" interp="linr"  time="-9999999/1" value="0" leadInLength="0/1"  />
              <InterpolatingParam id="7574" interp="linr"  time="-9999999/1" value="0" leadInLength="0/1"  />
              <InterpolatingParam id="7575" interp="linr"  time="-9999999/1" value="0" leadInLength="0/1"  />
             </VectorParam>
             <InterpolatingParam id="7576" interp="linr"  time="-9999999/1" value="1" leadInLength="0/1"  name="opacity"/>
            </Parameters>
            <Attributes>
             <Attribute id="7577" value="" name="ident"/>
            </Attributes>
            <MetaData>
             <entry key="WinSubProjectDisplayName" val=""/>
            </MetaData>
            <ExtraData>
             <Entry key="ZoomPanBin">
              <ZoomPanBin id="7578"  >
               <ZoomPanKeyframes>
                <ZoomPanKeyframe id="7579" timeRangeEnd="-9999999/1" timeRangeDuration="0/1" interpolaterName=""  />
               </ZoomPanKeyframes>
              </ZoomPanBin>
             </Entry>
            </ExtraData>
           </VMFile>
           <VMFile id="7580" start="10723" duration="119" scalar="1/1" mediaStart="30368/1" mediaDuration="119/1" trackNumber="0" src="4" >
            <Transformer>
             <VectorParam id="7581"  name="translation">
              <InterpolatingParam id="7582" interp="linr"  time="-9999999/1" value="0" leadInLength="0/1"  />
              <InterpolatingParam id="7583" interp="linr"  time="-9999999/1" value="0" leadInLength="0/1"  />
              <InterpolatingParam id="7584" interp="linr"  time="-9999999/1" value="0" leadInLength="0/1"  />
             </VectorParam>
             <VectorParam id="7585"  name="rotation">
              <InterpolatingParam id="7586" interp="linr"  time="-9999999/1" value="0" leadInLength="0/1"  />
              <InterpolatingParam id="7587" interp="linr"  time="-9999999/1" value="0" leadInLength="0/1"  />
              <InterpolatingParam id="7588" interp="linr"  time="-9999999/1" value="0" leadInLength="0/1"  />
             </VectorParam>
             <VectorParam id="7589"  name="shear">
              <InterpolatingParam id="7590" interp="linr"  time="-9999999/1" value="0" leadInLength="0/1"  />
              <InterpolatingParam id="7591" interp="linr"  time="-9999999/1" value="0" leadInLength="0/1"  />
              <InterpolatingParam id="7592" interp="linr"  time="-9999999/1" value="0" leadInLength="0/1"  />
             </VectorParam>
             <VectorParam id="7593"  name="scale">
              <InterpolatingParam id="7594" interp="linr"  time="-9999999/1" value="1" leadInLength="0/1"  />
              <InterpolatingParam id="7595" interp="linr"  time="-9999999/1" value="1" leadInLength="0/1"  />
              <InterpolatingParam id="7596" interp="linr"  time="-9999999/1" value="1" leadInLength="0/1"  />
             </VectorParam>
             <VectorParam id="7597"  name="anchor">
              <InterpolatingParam id="7598" interp="linr"  time="0/1" value="0" leadInLength="0/1"  />
              <InterpolatingParam id="7599" interp="linr"  time="0/1" value="0" leadInLength="0/1"  />
              <InterpolatingParam id="7600" interp="linr"  time="0/1" value="0" leadInLength="0/1"  />
             </VectorParam>
            </Transformer>
            <Parameters>
             <VectorParam id="7601"  name="sourceCrop">
              <InterpolatingParam id="7602" interp="linr"  time="0/1" value="0" leadInLength="0/1"  />
              <InterpolatingParam id="7603" interp="linr"  time="0/1" value="0" leadInLength="0/1"  />
              <InterpolatingParam id="7604" interp="linr"  time="0/1" value="0" leadInLength="0/1"  />
              <InterpolatingParam id="7605" interp="linr"  time="0/1" value="0" leadInLength="0/1"  />
             </VectorParam>
             <VectorParam id="7606"  name="geometryCrop">
              <InterpolatingParam id="7607" interp="linr"  time="-9999999/1" value="0" leadInLength="0/1"  />
              <InterpolatingParam id="7608" interp="linr"  time="-9999999/1" value="0" leadInLength="0/1"  />
              <InterpolatingParam id="7609" interp="linr"  time="-9999999/1" value="0" leadInLength="0/1"  />
              <InterpolatingParam id="7610" interp="linr"  time="-9999999/1" value="0" leadInLength="0/1"  />
             </VectorParam>
             <InterpolatingParam id="7611" interp="linr"  time="-9999999/1" value="1" leadInLength="0/1"  name="opacity"/>
            </Parameters>
            <Attributes>
             <Attribute id="7612" value="" name="ident"/>
            </Attributes>
            <MetaData>
             <entry key="WinSubProjectDisplayName" val=""/>
            </MetaData>
            <ExtraData>
             <Entry key="ZoomPanBin">
              <ZoomPanBin id="7613"  >
               <ZoomPanKeyframes>
                <ZoomPanKeyframe id="7614" timeRangeEnd="-9999999/1" timeRangeDuration="0/1" interpolaterName=""  />
               </ZoomPanKeyframes>
              </ZoomPanBin>
             </Entry>
            </ExtraData>
           </VMFile>
           <VMFile id="7615" start="10842" duration="411" scalar="1/1" mediaStart="30756/1" mediaDuration="411/1" trackNumber="0" src="4" >
            <Transformer>
             <VectorParam id="7616"  name="translation">
              <InterpolatingParam id="7617" interp="linr"  time="-9999999/1" value="0" leadInLength="0/1"  />
              <InterpolatingParam id="7618" interp="linr"  time="-9999999/1" value="0" leadInLength="0/1"  />
              <InterpolatingParam id="7619" interp="linr"  time="-9999999/1" value="0" leadInLength="0/1"  />
             </VectorParam>
             <VectorParam id="7620"  name="rotation">
              <InterpolatingParam id="7621" interp="linr"  time="-9999999/1" value="0" leadInLength="0/1"  />
              <InterpolatingParam id="7622" interp="linr"  time="-9999999/1" value="0" leadInLength="0/1"  />
              <InterpolatingParam id="7623" interp="linr"  time="-9999999/1" value="0" leadInLength="0/1"  />
             </VectorParam>
             <VectorParam id="7624"  name="shear">
              <InterpolatingParam id="7625" interp="linr"  time="-9999999/1" value="0" leadInLength="0/1"  />
              <InterpolatingParam id="7626" interp="linr"  time="-9999999/1" value="0" leadInLength="0/1"  />
              <InterpolatingParam id="7627" interp="linr"  time="-9999999/1" value="0" leadInLength="0/1"  />
             </VectorParam>
             <VectorParam id="7628"  name="scale">
              <InterpolatingParam id="7629" interp="linr"  time="-9999999/1" value="1" leadInLength="0/1"  />
              <InterpolatingParam id="7630" interp="linr"  time="-9999999/1" value="1" leadInLength="0/1"  />
              <InterpolatingParam id="7631" interp="linr"  time="-9999999/1" value="1" leadInLength="0/1"  />
             </VectorParam>
             <VectorParam id="7632"  name="anchor">
              <InterpolatingParam id="7633" interp="linr"  time="0/1" value="0" leadInLength="0/1"  />
              <InterpolatingParam id="7634" interp="linr"  time="0/1" value="0" leadInLength="0/1"  />
              <InterpolatingParam id="7635" interp="linr"  time="0/1" value="0" leadInLength="0/1"  />
             </VectorParam>
            </Transformer>
            <Parameters>
             <VectorParam id="7636"  name="sourceCrop">
              <InterpolatingParam id="7637" interp="linr"  time="0/1" value="0" leadInLength="0/1"  />
              <InterpolatingParam id="7638" interp="linr"  time="0/1" value="0" leadInLength="0/1"  />
              <InterpolatingParam id="7639" interp="linr"  time="0/1" value="0" leadInLength="0/1"  />
              <InterpolatingParam id="7640" interp="linr"  time="0/1" value="0" leadInLength="0/1"  />
             </VectorParam>
             <VectorParam id="7641"  name="geometryCrop">
              <InterpolatingParam id="7642" interp="linr"  time="-9999999/1" value="0" leadInLength="0/1"  />
              <InterpolatingParam id="7643" interp="linr"  time="-9999999/1" value="0" leadInLength="0/1"  />
              <InterpolatingParam id="7644" interp="linr"  time="-9999999/1" value="0" leadInLength="0/1"  />
              <InterpolatingParam id="7645" interp="linr"  time="-9999999/1" value="0" leadInLength="0/1"  />
             </VectorParam>
             <InterpolatingParam id="7646" interp="linr"  time="-9999999/1" value="1" leadInLength="0/1"  name="opacity"/>
            </Parameters>
            <Attributes>
             <Attribute id="7647" value="" name="ident"/>
            </Attributes>
            <MetaData>
             <entry key="WinSubProjectDisplayName" val=""/>
            </MetaData>
            <ExtraData>
             <Entry key="ZoomPanBin">
              <ZoomPanBin id="7648"  >
               <ZoomPanKeyframes>
                <ZoomPanKeyframe id="7649" timeRangeEnd="-9999999/1" timeRangeDuration="0/1" interpolaterName=""  />
               </ZoomPanKeyframes>
              </ZoomPanBin>
             </Entry>
            </ExtraData>
           </VMFile>
          </Medias>
         </GenericTrack>
        </StitchedMedia>
        <StitchedMedia id="7650" start="2245" duration="322" scalar="2713/3256" mediaStart="4739/1" mediaDuration="1048432/2713" minMediaStart="0/1" >
         <Transformer>
          <VectorParam id="7651"  name="translation">
           <InterpolatingParam id="7652" interp="linr"  time="-9999999/1" value="0" leadInLength="0/1"  interpolater="leadin-linr"  />
           <InterpolatingParam id="7653" interp="linr"  time="-9999999/1" value="0" leadInLength="0/1"  interpolater="leadin-linr"  />
           <InterpolatingParam id="7654" interp="linr"  time="-9999999/1" value="0" leadInLength="0/1"  interpolater="leadin-linr"  />
          </VectorParam>
          <VectorParam id="7655"  name="rotation">
           <InterpolatingParam id="7656" interp="linr"  time="-9999999/1" value="0" leadInLength="0/1"  interpolater="leadin-linr"  />
           <InterpolatingParam id="7657" interp="linr"  time="-9999999/1" value="0" leadInLength="0/1"  interpolater="leadin-linr"  />
           <InterpolatingParam id="7658" interp="linr"  time="-9999999/1" value="0" leadInLength="0/1"  interpolater="leadin-linr"  />
          </VectorParam>
          <VectorParam id="7659"  name="shear">
           <InterpolatingParam id="7660" interp="linr"  time="-9999999/1" value="0" leadInLength="0/1"  interpolater="leadin-linr"  />
           <InterpolatingParam id="7661" interp="linr"  time="-9999999/1" value="0" leadInLength="0/1"  interpolater="leadin-linr"  />
           <InterpolatingParam id="7662" interp="linr"  time="-9999999/1" value="0" leadInLength="0/1"  interpolater="leadin-linr"  />
          </VectorParam>
          <VectorParam id="7663"  name="scale">
           <InterpolatingParam id="7664" interp="linr"  time="-9999999/1" value="1" leadInLength="0/1"  interpolater="leadin-linr"  />
           <InterpolatingParam id="7665" interp="linr"  time="-9999999/1" value="1" leadInLength="0/1"  interpolater="leadin-linr"  />
           <InterpolatingParam id="7666" interp="linr"  time="-9999999/1" value="1" leadInLength="0/1"  interpolater="leadin-linr"  />
          </VectorParam>
          <VectorParam id="7667"  name="anchor">
           <InterpolatingParam id="7668" interp="linr"  >
            <Keyframes>
            <Keyframe id="7669"  time="0/1" value="0" leadInLength="0/1"  />
            <Keyframe id="7670"  time="32931335377/7971776" value="0" leadInLength="0/1"  />
            <Keyframe id="7671"  time="4328/1" value="0" leadInLength="0/1"  />
            <Keyframe id="7672"  time="4457/1" value="0" leadInLength="0/1"  />
            <Keyframe id="7673"  time="469608558155/47830656" value="0" leadInLength="0/1"  />
            <Keyframe id="7674"  time="473339349323/47830656" value="0" leadInLength="0/1"  />
            </Keyframes>
           </InterpolatingParam>
           <InterpolatingParam id="7675" interp="linr"  >
            <Keyframes>
            <Keyframe id="7676"  time="0/1" value="0" leadInLength="0/1"  />
            <Keyframe id="7677"  time="32931335377/7971776" value="0" leadInLength="0/1"  />
            <Keyframe id="7678"  time="4328/1" value="0" leadInLength="0/1"  />
            <Keyframe id="7679"  time="4457/1" value="0" leadInLength="0/1"  />
            <Keyframe id="7680"  time="469608558155/47830656" value="0" leadInLength="0/1"  />
            <Keyframe id="7681"  time="473339349323/47830656" value="0" leadInLength="0/1"  />
            </Keyframes>
           </InterpolatingParam>
           <InterpolatingParam id="7682" interp="linr"  >
            <Keyframes>
            <Keyframe id="7683"  time="0/1" value="0" leadInLength="0/1"  />
            <Keyframe id="7684"  time="32931335377/7971776" value="0" leadInLength="0/1"  />
            <Keyframe id="7685"  time="4328/1" value="0" leadInLength="0/1"  />
            <Keyframe id="7686"  time="4457/1" value="0" leadInLength="0/1"  />
            <Keyframe id="7687"  time="469608558155/47830656" value="0" leadInLength="0/1"  />
            <Keyframe id="7688"  time="473339349323/47830656" value="0" leadInLength="0/1"  />
            </Keyframes>
           </InterpolatingParam>
          </VectorParam>
         </Transformer>
         <Parameters>
          <VectorParam id="7689"  name="sourceCrop">
           <InterpolatingParam id="7690" interp="linr"  >
            <Keyframes>
            <Keyframe id="7691"  time="0/1" value="0" leadInLength="0/1"  />
            <Keyframe id="7692"  time="32931335377/7971776" value="0" leadInLength="0/1"  />
            <Keyframe id="7693"  time="4328/1" value="0" leadInLength="0/1"  />
            <Keyframe id="7694"  time="4457/1" value="0" leadInLength="0/1"  />
            <Keyframe id="7695"  time="469608558155/47830656" value="0" leadInLength="0/1"  />
            <Keyframe id="7696"  time="473339349323/47830656" value="0" leadInLength="0/1"  />
            </Keyframes>
           </InterpolatingParam>
           <InterpolatingParam id="7697" interp="linr"  >
            <Keyframes>
            <Keyframe id="7698"  time="0/1" value="0" leadInLength="0/1"  />
            <Keyframe id="7699"  time="32931335377/7971776" value="0" leadInLength="0/1"  />
            <Keyframe id="7700"  time="4328/1" value="0" leadInLength="0/1"  />
            <Keyframe id="7701"  time="4457/1" value="0" leadInLength="0/1"  />
            <Keyframe id="7702"  time="469608558155/47830656" value="0" leadInLength="0/1"  />
            <Keyframe id="7703"  time="473339349323/47830656" value="0" leadInLength="0/1"  />
            </Keyframes>
           </InterpolatingParam>
           <InterpolatingParam id="7704" interp="linr"  >
            <Keyframes>
            <Keyframe id="7705"  time="0/1" value="0" leadInLength="0/1"  />
            <Keyframe id="7706"  time="32931335377/7971776" value="0" leadInLength="0/1"  />
            <Keyframe id="7707"  time="4328/1" value="0" leadInLength="0/1"  />
            <Keyframe id="7708"  time="4457/1" value="0" leadInLength="0/1"  />
            <Keyframe id="7709"  time="469608558155/47830656" value="0" leadInLength="0/1"  />
            <Keyframe id="7710"  time="473339349323/47830656" value="0" leadInLength="0/1"  />
            </Keyframes>
           </InterpolatingParam>
           <InterpolatingParam id="7711" interp="linr"  >
            <Keyframes>
            <Keyframe id="7712"  time="0/1" value="0" leadInLength="0/1"  />
            <Keyframe id="7713"  time="32931335377/7971776" value="0" leadInLength="0/1"  />
            <Keyframe id="7714"  time="4328/1" value="0" leadInLength="0/1"  />
            <Keyframe id="7715"  time="4457/1" value="0" leadInLength="0/1"  />
            <Keyframe id="7716"  time="469608558155/47830656" value="0" leadInLength="0/1"  />
            <Keyframe id="7717"  time="473339349323/47830656" value="0" leadInLength="0/1"  />
            </Keyframes>
           </InterpolatingParam>
          </VectorParam>
          <VectorParam id="7718"  name="geometryCrop">
           <InterpolatingParam id="7719" interp="linr"  time="-9999999/1" value="0" leadInLength="0/1"  interpolater="leadin-linr"  />
           <InterpolatingParam id="7720" interp="linr"  time="-9999999/1" value="0" leadInLength="0/1"  interpolater="leadin-linr"  />
           <InterpolatingParam id="7721" interp="linr"  time="-9999999/1" value="0" leadInLength="0/1"  interpolater="leadin-linr"  />
           <InterpolatingParam id="7722" interp="linr"  time="-9999999/1" value="0" leadInLength="0/1"  interpolater="leadin-linr"  />
          </VectorParam>
          <InterpolatingParam id="7723" interp="linr"  time="-9999999/1" value="1" leadInLength="0/1"  interpolater="leadin-linr"  name="opacity"/>
          <InterpolatingParam id="7724" interp="linr"  time="0/1" value="1" leadInLength="0/1"  name="cursorOpacity"/>
          <InterpolatingParam id="7725" interp="linr"  time="0/1" value="1" leadInLength="0/1"  name="cursorScale"/>
          <Parameter id="7726"  name="captions"/>
         </Parameters>
         <Attributes>
          <Attribute id="7727" value="" name="ident"/>
         </Attributes>
         <MetaData>
          <entry key="WinSubProjectDisplayName" val=""/>
         </MetaData>
         <ExtraData>
          <Entry key="ZoomPanBin">
           <ZoomPanBin id="7728"  >
            <ZoomPanKeyframes>
             <ZoomPanKeyframe id="7729" timeRangeEnd="-9999999/1" timeRangeDuration="0/1" interpolaterName="linr"  />
            </ZoomPanKeyframes>
           </ZoomPanBin>
          </Entry>
          <Entry key="CursorEffectBin">
           <CursorEffectBin id="7730"  >
            <CursorEffectKeyframes>
            </CursorEffectKeyframes>
           </CursorEffectBin>
          </Entry>
         </ExtraData>
         <GenericTrack id="7731"  >
          <Attributes>
           <Attribute id="7732" value="" name="ident"/>
           <Attribute id="7733" value="0" name="audioMuted"/>
           <Attribute id="7734" value="0" name="videoHidden"/>
          </Attributes>
          <MetaData>
           <entry key="IsLocked" val="False"/>
           <entry key="WinTrackHeight" val="0"/>
          </MetaData>
          <Medias>
           <VMFile id="7735" start="0" duration="4131" scalar="1/1" mediaStart="0/1" mediaDuration="4131/1" trackNumber="0" src="4" >
            <Transformer>
             <VectorParam id="7736"  name="translation">
              <InterpolatingParam id="7737" interp="linr"  time="-9999999/1" value="0" leadInLength="0/1"  />
              <InterpolatingParam id="7738" interp="linr"  time="-9999999/1" value="0" leadInLength="0/1"  />
              <InterpolatingParam id="7739" interp="linr"  time="-9999999/1" value="0" leadInLength="0/1"  />
             </VectorParam>
             <VectorParam id="7740"  name="rotation">
              <InterpolatingParam id="7741" interp="linr"  time="-9999999/1" value="0" leadInLength="0/1"  />
              <InterpolatingParam id="7742" interp="linr"  time="-9999999/1" value="0" leadInLength="0/1"  />
              <InterpolatingParam id="7743" interp="linr"  time="-9999999/1" value="0" leadInLength="0/1"  />
             </VectorParam>
             <VectorParam id="7744"  name="shear">
              <InterpolatingParam id="7745" interp="linr"  time="-9999999/1" value="0" leadInLength="0/1"  />
              <InterpolatingParam id="7746" interp="linr"  time="-9999999/1" value="0" leadInLength="0/1"  />
              <InterpolatingParam id="7747" interp="linr"  time="-9999999/1" value="0" leadInLength="0/1"  />
             </VectorParam>
             <VectorParam id="7748"  name="scale">
              <InterpolatingParam id="7749" interp="linr"  time="-9999999/1" value="1" leadInLength="0/1"  />
              <InterpolatingParam id="7750" interp="linr"  time="-9999999/1" value="1" leadInLength="0/1"  />
              <InterpolatingParam id="7751" interp="linr"  time="-9999999/1" value="1" leadInLength="0/1"  />
             </VectorParam>
             <VectorParam id="7752"  name="anchor">
              <InterpolatingParam id="7753" interp="linr"  time="0/1" value="0" leadInLength="0/1"  />
              <InterpolatingParam id="7754" interp="linr"  time="0/1" value="0" leadInLength="0/1"  />
              <InterpolatingParam id="7755" interp="linr"  time="0/1" value="0" leadInLength="0/1"  />
             </VectorParam>
            </Transformer>
            <Parameters>
             <VectorParam id="7756"  name="sourceCrop">
              <InterpolatingParam id="7757" interp="linr"  time="0/1" value="0" leadInLength="0/1"  />
              <InterpolatingParam id="7758" interp="linr"  time="0/1" value="0" leadInLength="0/1"  />
              <InterpolatingParam id="7759" interp="linr"  time="0/1" value="0" leadInLength="0/1"  />
              <InterpolatingParam id="7760" interp="linr"  time="0/1" value="0" leadInLength="0/1"  />
             </VectorParam>
             <VectorParam id="7761"  name="geometryCrop">
              <InterpolatingParam id="7762" interp="linr"  time="-9999999/1" value="0" leadInLength="0/1"  />
              <InterpolatingParam id="7763" interp="linr"  time="-9999999/1" value="0" leadInLength="0/1"  />
              <InterpolatingParam id="7764" interp="linr"  time="-9999999/1" value="0" leadInLength="0/1"  />
              <InterpolatingParam id="7765" interp="linr"  time="-9999999/1" value="0" leadInLength="0/1"  />
             </VectorParam>
             <InterpolatingParam id="7766" interp="linr"  time="-9999999/1" value="1" leadInLength="0/1"  name="opacity"/>
            </Parameters>
            <Attributes>
             <Attribute id="7767" value="" name="ident"/>
            </Attributes>
            <MetaData>
             <entry key="WinSubProjectDisplayName" val=""/>
            </MetaData>
            <ExtraData>
             <Entry key="ZoomPanBin">
              <ZoomPanBin id="7768"  >
               <ZoomPanKeyframes>
                <ZoomPanKeyframe id="7769" timeRangeEnd="-9999999/1" timeRangeDuration="0/1" interpolaterName=""  />
               </ZoomPanKeyframes>
              </ZoomPanBin>
             </Entry>
            </ExtraData>
           </VMFile>
           <IMFile id="7770" start="4131" duration="12" scalar="1/1" mediaStart="4130/1" mediaDuration="1/1" trackNumber="0" src="4" trimStartSum="0/1" >
            <Transformer>
             <VectorParam id="7771"  name="translation">
              <InterpolatingParam id="7772" interp="linr"  time="-9999999/1" value="0" leadInLength="0/1"  />
              <InterpolatingParam id="7773" interp="linr"  time="-9999999/1" value="0" leadInLength="0/1"  />
              <InterpolatingParam id="7774" interp="linr"  time="-9999999/1" value="0" leadInLength="0/1"  />
             </VectorParam>
             <VectorParam id="7775"  name="rotation">
              <InterpolatingParam id="7776" interp="linr"  time="-9999999/1" value="0" leadInLength="0/1"  />
              <InterpolatingParam id="7777" interp="linr"  time="-9999999/1" value="0" leadInLength="0/1"  />
              <InterpolatingParam id="7778" interp="linr"  time="-9999999/1" value="0" leadInLength="0/1"  />
             </VectorParam>
             <VectorParam id="7779"  name="shear">
              <InterpolatingParam id="7780" interp="linr"  time="-9999999/1" value="0" leadInLength="0/1"  />
              <InterpolatingParam id="7781" interp="linr"  time="-9999999/1" value="0" leadInLength="0/1"  />
              <InterpolatingParam id="7782" interp="linr"  time="-9999999/1" value="0" leadInLength="0/1"  />
             </VectorParam>
             <VectorParam id="7783"  name="scale">
              <InterpolatingParam id="7784" interp="linr"  time="-9999999/1" value="1" leadInLength="0/1"  />
              <InterpolatingParam id="7785" interp="linr"  time="-9999999/1" value="1" leadInLength="0/1"  />
              <InterpolatingParam id="7786" interp="linr"  time="-9999999/1" value="1" leadInLength="0/1"  />
             </VectorParam>
             <VectorParam id="7787"  name="anchor">
              <InterpolatingParam id="7788" interp="linr"  time="0/1" value="0" leadInLength="0/1"  />
              <InterpolatingParam id="7789" interp="linr"  time="0/1" value="0" leadInLength="0/1"  />
              <InterpolatingParam id="7790" interp="linr"  time="0/1" value="0" leadInLength="0/1"  />
             </VectorParam>
            </Transformer>
            <Parameters>
             <VectorParam id="7791"  name="sourceCrop">
              <InterpolatingParam id="7792" interp="linr"  time="0/1" value="0" leadInLength="0/1"  />
              <InterpolatingParam id="7793" interp="linr"  time="0/1" value="0" leadInLength="0/1"  />
              <InterpolatingParam id="7794" interp="linr"  time="0/1" value="0" leadInLength="0/1"  />
              <InterpolatingParam id="7795" interp="linr"  time="0/1" value="0" leadInLength="0/1"  />
             </VectorParam>
             <VectorParam id="7796"  name="geometryCrop">
              <InterpolatingParam id="7797" interp="linr"  time="-9999999/1" value="0" leadInLength="0/1"  />
              <InterpolatingParam id="7798" interp="linr"  time="-9999999/1" value="0" leadInLength="0/1"  />
              <InterpolatingParam id="7799" interp="linr"  time="-9999999/1" value="0" leadInLength="0/1"  />
              <InterpolatingParam id="7800" interp="linr"  time="-9999999/1" value="0" leadInLength="0/1"  />
             </VectorParam>
             <InterpolatingParam id="7801" interp="linr"  time="-9999999/1" value="1" leadInLength="0/1"  name="opacity"/>
            </Parameters>
            <Attributes>
             <Attribute id="7802" value="" name="ident"/>
            </Attributes>
            <MetaData>
             <entry key="WinSubProjectDisplayName" val=""/>
            </MetaData>
            <ExtraData>
             <Entry key="ZoomPanBin">
              <ZoomPanBin id="7803"  >
               <ZoomPanKeyframes>
                <ZoomPanKeyframe id="7804" timeRangeEnd="-9999999/1" timeRangeDuration="0/1" interpolaterName=""  />
               </ZoomPanKeyframes>
              </ZoomPanBin>
             </Entry>
            </ExtraData>
           </IMFile>
           <VMFile id="7805" start="4143" duration="185" scalar="1/1" mediaStart="4130/1" mediaDuration="185/1" trackNumber="0" src="4" >
            <Transformer>
             <VectorParam id="7806"  name="translation">
              <InterpolatingParam id="7807" interp="linr"  time="-9999999/1" value="0" leadInLength="0/1"  />
              <InterpolatingParam id="7808" interp="linr"  time="-9999999/1" value="0" leadInLength="0/1"  />
              <InterpolatingParam id="7809" interp="linr"  time="-9999999/1" value="0" leadInLength="0/1"  />
             </VectorParam>
             <VectorParam id="7810"  name="rotation">
              <InterpolatingParam id="7811" interp="linr"  time="-9999999/1" value="0" leadInLength="0/1"  />
              <InterpolatingParam id="7812" interp="linr"  time="-9999999/1" value="0" leadInLength="0/1"  />
              <InterpolatingParam id="7813" interp="linr"  time="-9999999/1" value="0" leadInLength="0/1"  />
             </VectorParam>
             <VectorParam id="7814"  name="shear">
              <InterpolatingParam id="7815" interp="linr"  time="-9999999/1" value="0" leadInLength="0/1"  />
              <InterpolatingParam id="7816" interp="linr"  time="-9999999/1" value="0" leadInLength="0/1"  />
              <InterpolatingParam id="7817" interp="linr"  time="-9999999/1" value="0" leadInLength="0/1"  />
             </VectorParam>
             <VectorParam id="7818"  name="scale">
              <InterpolatingParam id="7819" interp="linr"  time="-9999999/1" value="1" leadInLength="0/1"  />
              <InterpolatingParam id="7820" interp="linr"  time="-9999999/1" value="1" leadInLength="0/1"  />
              <InterpolatingParam id="7821" interp="linr"  time="-9999999/1" value="1" leadInLength="0/1"  />
             </VectorParam>
             <VectorParam id="7822"  name="anchor">
              <InterpolatingParam id="7823" interp="linr"  time="0/1" value="0" leadInLength="0/1"  />
              <InterpolatingParam id="7824" interp="linr"  time="0/1" value="0" leadInLength="0/1"  />
              <InterpolatingParam id="7825" interp="linr"  time="0/1" value="0" leadInLength="0/1"  />
             </VectorParam>
            </Transformer>
            <Parameters>
             <VectorParam id="7826"  name="sourceCrop">
              <InterpolatingParam id="7827" interp="linr"  time="0/1" value="0" leadInLength="0/1"  />
              <InterpolatingParam id="7828" interp="linr"  time="0/1" value="0" leadInLength="0/1"  />
              <InterpolatingParam id="7829" interp="linr"  time="0/1" value="0" leadInLength="0/1"  />
              <InterpolatingParam id="7830" interp="linr"  time="0/1" value="0" leadInLength="0/1"  />
             </VectorParam>
             <VectorParam id="7831"  name="geometryCrop">
              <InterpolatingParam id="7832" interp="linr"  time="-9999999/1" value="0" leadInLength="0/1"  />
              <InterpolatingParam id="7833" interp="linr"  time="-9999999/1" value="0" leadInLength="0/1"  />
              <InterpolatingParam id="7834" interp="linr"  time="-9999999/1" value="0" leadInLength="0/1"  />
              <InterpolatingParam id="7835" interp="linr"  time="-9999999/1" value="0" leadInLength="0/1"  />
             </VectorParam>
             <InterpolatingParam id="7836" interp="linr"  time="-9999999/1" value="1" leadInLength="0/1"  name="opacity"/>
            </Parameters>
            <Attributes>
             <Attribute id="7837" value="" name="ident"/>
            </Attributes>
            <MetaData>
             <entry key="WinSubProjectDisplayName" val=""/>
            </MetaData>
            <ExtraData>
             <Entry key="ZoomPanBin">
              <ZoomPanBin id="7838"  >
               <ZoomPanKeyframes>
                <ZoomPanKeyframe id="7839" timeRangeEnd="-9999999/1" timeRangeDuration="0/1" interpolaterName=""  />
               </ZoomPanKeyframes>
              </ZoomPanBin>
             </Entry>
            </ExtraData>
           </VMFile>
           <IMFile id="7840" start="4328" duration="3" scalar="1/1" mediaStart="4315/1" mediaDuration="1/1" trackNumber="0" src="4" trimStartSum="0/1" >
            <Transformer>
             <VectorParam id="7841"  name="translation">
              <InterpolatingParam id="7842" interp="linr"  time="-9999999/1" value="0" leadInLength="0/1"  />
              <InterpolatingParam id="7843" interp="linr"  time="-9999999/1" value="0" leadInLength="0/1"  />
              <InterpolatingParam id="7844" interp="linr"  time="-9999999/1" value="0" leadInLength="0/1"  />
             </VectorParam>
             <VectorParam id="7845"  name="rotation">
              <InterpolatingParam id="7846" interp="linr"  time="-9999999/1" value="0" leadInLength="0/1"  />
              <InterpolatingParam id="7847" interp="linr"  time="-9999999/1" value="0" leadInLength="0/1"  />
              <InterpolatingParam id="7848" interp="linr"  time="-9999999/1" value="0" leadInLength="0/1"  />
             </VectorParam>
             <VectorParam id="7849"  name="shear">
              <InterpolatingParam id="7850" interp="linr"  time="-9999999/1" value="0" leadInLength="0/1"  />
              <InterpolatingParam id="7851" interp="linr"  time="-9999999/1" value="0" leadInLength="0/1"  />
              <InterpolatingParam id="7852" interp="linr"  time="-9999999/1" value="0" leadInLength="0/1"  />
             </VectorParam>
             <VectorParam id="7853"  name="scale">
              <InterpolatingParam id="7854" interp="linr"  time="-9999999/1" value="1" leadInLength="0/1"  />
              <InterpolatingParam id="7855" interp="linr"  time="-9999999/1" value="1" leadInLength="0/1"  />
              <InterpolatingParam id="7856" interp="linr"  time="-9999999/1" value="1" leadInLength="0/1"  />
             </VectorParam>
             <VectorParam id="7857"  name="anchor">
              <InterpolatingParam id="7858" interp="linr"  time="0/1" value="0" leadInLength="0/1"  />
              <InterpolatingParam id="7859" interp="linr"  time="0/1" value="0" leadInLength="0/1"  />
              <InterpolatingParam id="7860" interp="linr"  time="0/1" value="0" leadInLength="0/1"  />
             </VectorParam>
            </Transformer>
            <Parameters>
             <VectorParam id="7861"  name="sourceCrop">
              <InterpolatingParam id="7862" interp="linr"  time="0/1" value="0" leadInLength="0/1"  />
              <InterpolatingParam id="7863" interp="linr"  time="0/1" value="0" leadInLength="0/1"  />
              <InterpolatingParam id="7864" interp="linr"  time="0/1" value="0" leadInLength="0/1"  />
              <InterpolatingParam id="7865" interp="linr"  time="0/1" value="0" leadInLength="0/1"  />
             </VectorParam>
             <VectorParam id="7866"  name="geometryCrop">
              <InterpolatingParam id="7867" interp="linr"  time="-9999999/1" value="0" leadInLength="0/1"  />
              <InterpolatingParam id="7868" interp="linr"  time="-9999999/1" value="0" leadInLength="0/1"  />
              <InterpolatingParam id="7869" interp="linr"  time="-9999999/1" value="0" leadInLength="0/1"  />
              <InterpolatingParam id="7870" interp="linr"  time="-9999999/1" value="0" leadInLength="0/1"  />
             </VectorParam>
             <InterpolatingParam id="7871" interp="linr"  time="-9999999/1" value="1" leadInLength="0/1"  name="opacity"/>
            </Parameters>
            <Attributes>
             <Attribute id="7872" value="" name="ident"/>
            </Attributes>
            <MetaData>
             <entry key="WinSubProjectDisplayName" val=""/>
            </MetaData>
            <ExtraData>
             <Entry key="ZoomPanBin">
              <ZoomPanBin id="7873"  >
               <ZoomPanKeyframes>
                <ZoomPanKeyframe id="7874" timeRangeEnd="-9999999/1" timeRangeDuration="0/1" interpolaterName=""  />
               </ZoomPanKeyframes>
              </ZoomPanBin>
             </Entry>
            </ExtraData>
           </IMFile>
           <VMFile id="7875" start="4331" duration="31" scalar="1/1" mediaStart="4315/1" mediaDuration="31/1" trackNumber="0" src="4" >
            <Transformer>
             <VectorParam id="7876"  name="translation">
              <InterpolatingParam id="7877" interp="linr"  time="-9999999/1" value="0" leadInLength="0/1"  />
              <InterpolatingParam id="7878" interp="linr"  time="-9999999/1" value="0" leadInLength="0/1"  />
              <InterpolatingParam id="7879" interp="linr"  time="-9999999/1" value="0" leadInLength="0/1"  />
             </VectorParam>
             <VectorParam id="7880"  name="rotation">
              <InterpolatingParam id="7881" interp="linr"  time="-9999999/1" value="0" leadInLength="0/1"  />
              <InterpolatingParam id="7882" interp="linr"  time="-9999999/1" value="0" leadInLength="0/1"  />
              <InterpolatingParam id="7883" interp="linr"  time="-9999999/1" value="0" leadInLength="0/1"  />
             </VectorParam>
             <VectorParam id="7884"  name="shear">
              <InterpolatingParam id="7885" interp="linr"  time="-9999999/1" value="0" leadInLength="0/1"  />
              <InterpolatingParam id="7886" interp="linr"  time="-9999999/1" value="0" leadInLength="0/1"  />
              <InterpolatingParam id="7887" interp="linr"  time="-9999999/1" value="0" leadInLength="0/1"  />
             </VectorParam>
             <VectorParam id="7888"  name="scale">
              <InterpolatingParam id="7889" interp="linr"  time="-9999999/1" value="1" leadInLength="0/1"  />
              <InterpolatingParam id="7890" interp="linr"  time="-9999999/1" value="1" leadInLength="0/1"  />
              <InterpolatingParam id="7891" interp="linr"  time="-9999999/1" value="1" leadInLength="0/1"  />
             </VectorParam>
             <VectorParam id="7892"  name="anchor">
              <InterpolatingParam id="7893" interp="linr"  time="0/1" value="0" leadInLength="0/1"  />
              <InterpolatingParam id="7894" interp="linr"  time="0/1" value="0" leadInLength="0/1"  />
              <InterpolatingParam id="7895" interp="linr"  time="0/1" value="0" leadInLength="0/1"  />
             </VectorParam>
            </Transformer>
            <Parameters>
             <VectorParam id="7896"  name="sourceCrop">
              <InterpolatingParam id="7897" interp="linr"  time="0/1" value="0" leadInLength="0/1"  />
              <InterpolatingParam id="7898" interp="linr"  time="0/1" value="0" leadInLength="0/1"  />
              <InterpolatingParam id="7899" interp="linr"  time="0/1" value="0" leadInLength="0/1"  />
              <InterpolatingParam id="7900" interp="linr"  time="0/1" value="0" leadInLength="0/1"  />
             </VectorParam>
             <VectorParam id="7901"  name="geometryCrop">
              <InterpolatingParam id="7902" interp="linr"  time="-9999999/1" value="0" leadInLength="0/1"  />
              <InterpolatingParam id="7903" interp="linr"  time="-9999999/1" value="0" leadInLength="0/1"  />
              <InterpolatingParam id="7904" interp="linr"  time="-9999999/1" value="0" leadInLength="0/1"  />
              <InterpolatingParam id="7905" interp="linr"  time="-9999999/1" value="0" leadInLength="0/1"  />
             </VectorParam>
             <InterpolatingParam id="7906" interp="linr"  time="-9999999/1" value="1" leadInLength="0/1"  name="opacity"/>
            </Parameters>
            <Attributes>
             <Attribute id="7907" value="" name="ident"/>
            </Attributes>
            <MetaData>
             <entry key="WinSubProjectDisplayName" val=""/>
            </MetaData>
            <ExtraData>
             <Entry key="ZoomPanBin">
              <ZoomPanBin id="7908"  >
               <ZoomPanKeyframes>
                <ZoomPanKeyframe id="7909" timeRangeEnd="-9999999/1" timeRangeDuration="0/1" interpolaterName=""  />
               </ZoomPanKeyframes>
              </ZoomPanBin>
             </Entry>
            </ExtraData>
           </VMFile>
           <VMFile id="7910" start="4362" duration="95" scalar="1/1" mediaStart="4751/1" mediaDuration="95/1" trackNumber="0" src="4" >
            <Transformer>
             <VectorParam id="7911"  name="translation">
              <InterpolatingParam id="7912" interp="linr"  time="-9999999/1" value="0" leadInLength="0/1"  />
              <InterpolatingParam id="7913" interp="linr"  time="-9999999/1" value="0" leadInLength="0/1"  />
              <InterpolatingParam id="7914" interp="linr"  time="-9999999/1" value="0" leadInLength="0/1"  />
             </VectorParam>
             <VectorParam id="7915"  name="rotation">
              <InterpolatingParam id="7916" interp="linr"  time="-9999999/1" value="0" leadInLength="0/1"  />
              <InterpolatingParam id="7917" interp="linr"  time="-9999999/1" value="0" leadInLength="0/1"  />
              <InterpolatingParam id="7918" interp="linr"  time="-9999999/1" value="0" leadInLength="0/1"  />
             </VectorParam>
             <VectorParam id="7919"  name="shear">
              <InterpolatingParam id="7920" interp="linr"  time="-9999999/1" value="0" leadInLength="0/1"  />
              <InterpolatingParam id="7921" interp="linr"  time="-9999999/1" value="0" leadInLength="0/1"  />
              <InterpolatingParam id="7922" interp="linr"  time="-9999999/1" value="0" leadInLength="0/1"  />
             </VectorParam>
             <VectorParam id="7923"  name="scale">
              <InterpolatingParam id="7924" interp="linr"  time="-9999999/1" value="1" leadInLength="0/1"  />
              <InterpolatingParam id="7925" interp="linr"  time="-9999999/1" value="1" leadInLength="0/1"  />
              <InterpolatingParam id="7926" interp="linr"  time="-9999999/1" value="1" leadInLength="0/1"  />
             </VectorParam>
             <VectorParam id="7927"  name="anchor">
              <InterpolatingParam id="7928" interp="linr"  time="0/1" value="0" leadInLength="0/1"  />
              <InterpolatingParam id="7929" interp="linr"  time="0/1" value="0" leadInLength="0/1"  />
              <InterpolatingParam id="7930" interp="linr"  time="0/1" value="0" leadInLength="0/1"  />
             </VectorParam>
            </Transformer>
            <Parameters>
             <VectorParam id="7931"  name="sourceCrop">
              <InterpolatingParam id="7932" interp="linr"  time="0/1" value="0" leadInLength="0/1"  />
              <InterpolatingParam id="7933" interp="linr"  time="0/1" value="0" leadInLength="0/1"  />
              <InterpolatingParam id="7934" interp="linr"  time="0/1" value="0" leadInLength="0/1"  />
              <InterpolatingParam id="7935" interp="linr"  time="0/1" value="0" leadInLength="0/1"  />
             </VectorParam>
             <VectorParam id="7936"  name="geometryCrop">
              <InterpolatingParam id="7937" interp="linr"  time="-9999999/1" value="0" leadInLength="0/1"  />
              <InterpolatingParam id="7938" interp="linr"  time="-9999999/1" value="0" leadInLength="0/1"  />
              <InterpolatingParam id="7939" interp="linr"  time="-9999999/1" value="0" leadInLength="0/1"  />
              <InterpolatingParam id="7940" interp="linr"  time="-9999999/1" value="0" leadInLength="0/1"  />
             </VectorParam>
             <InterpolatingParam id="7941" interp="linr"  time="-9999999/1" value="1" leadInLength="0/1"  name="opacity"/>
            </Parameters>
            <Attributes>
             <Attribute id="7942" value="" name="ident"/>
            </Attributes>
            <MetaData>
             <entry key="WinSubProjectDisplayName" val=""/>
            </MetaData>
            <ExtraData>
             <Entry key="ZoomPanBin">
              <ZoomPanBin id="7943"  >
               <ZoomPanKeyframes>
                <ZoomPanKeyframe id="7944" timeRangeEnd="-9999999/1" timeRangeDuration="0/1" interpolaterName=""  />
               </ZoomPanKeyframes>
              </ZoomPanBin>
             </Entry>
            </ExtraData>
           </VMFile>
           <IMFile id="7945" start="4457" duration="270" scalar="1/1" mediaStart="4846/1" mediaDuration="1/1" trackNumber="0" src="4" trimStartSum="0/1" >
            <Transformer>
             <VectorParam id="7946"  name="translation">
              <InterpolatingParam id="7947" interp="linr"  time="-9999999/1" value="0" leadInLength="0/1"  />
              <InterpolatingParam id="7948" interp="linr"  time="-9999999/1" value="0" leadInLength="0/1"  />
              <InterpolatingParam id="7949" interp="linr"  time="-9999999/1" value="0" leadInLength="0/1"  />
             </VectorParam>
             <VectorParam id="7950"  name="rotation">
              <InterpolatingParam id="7951" interp="linr"  time="-9999999/1" value="0" leadInLength="0/1"  />
              <InterpolatingParam id="7952" interp="linr"  time="-9999999/1" value="0" leadInLength="0/1"  />
              <InterpolatingParam id="7953" interp="linr"  time="-9999999/1" value="0" leadInLength="0/1"  />
             </VectorParam>
             <VectorParam id="7954"  name="shear">
              <InterpolatingParam id="7955" interp="linr"  time="-9999999/1" value="0" leadInLength="0/1"  />
              <InterpolatingParam id="7956" interp="linr"  time="-9999999/1" value="0" leadInLength="0/1"  />
              <InterpolatingParam id="7957" interp="linr"  time="-9999999/1" value="0" leadInLength="0/1"  />
             </VectorParam>
             <VectorParam id="7958"  name="scale">
              <InterpolatingParam id="7959" interp="linr"  time="-9999999/1" value="1" leadInLength="0/1"  />
              <InterpolatingParam id="7960" interp="linr"  time="-9999999/1" value="1" leadInLength="0/1"  />
              <InterpolatingParam id="7961" interp="linr"  time="-9999999/1" value="1" leadInLength="0/1"  />
             </VectorParam>
             <VectorParam id="7962"  name="anchor">
              <InterpolatingParam id="7963" interp="linr"  time="0/1" value="0" leadInLength="0/1"  />
              <InterpolatingParam id="7964" interp="linr"  time="0/1" value="0" leadInLength="0/1"  />
              <InterpolatingParam id="7965" interp="linr"  time="0/1" value="0" leadInLength="0/1"  />
             </VectorParam>
            </Transformer>
            <Parameters>
             <VectorParam id="7966"  name="sourceCrop">
              <InterpolatingParam id="7967" interp="linr"  time="0/1" value="0" leadInLength="0/1"  />
              <InterpolatingParam id="7968" interp="linr"  time="0/1" value="0" leadInLength="0/1"  />
              <InterpolatingParam id="7969" interp="linr"  time="0/1" value="0" leadInLength="0/1"  />
              <InterpolatingParam id="7970" interp="linr"  time="0/1" value="0" leadInLength="0/1"  />
             </VectorParam>
             <VectorParam id="7971"  name="geometryCrop">
              <InterpolatingParam id="7972" interp="linr"  time="-9999999/1" value="0" leadInLength="0/1"  />
              <InterpolatingParam id="7973" interp="linr"  time="-9999999/1" value="0" leadInLength="0/1"  />
              <InterpolatingParam id="7974" interp="linr"  time="-9999999/1" value="0" leadInLength="0/1"  />
              <InterpolatingParam id="7975" interp="linr"  time="-9999999/1" value="0" leadInLength="0/1"  />
             </VectorParam>
             <InterpolatingParam id="7976" interp="linr"  time="-9999999/1" value="1" leadInLength="0/1"  name="opacity"/>
            </Parameters>
            <Attributes>
             <Attribute id="7977" value="" name="ident"/>
            </Attributes>
            <MetaData>
             <entry key="WinSubProjectDisplayName" val=""/>
            </MetaData>
            <ExtraData>
             <Entry key="ZoomPanBin">
              <ZoomPanBin id="7978"  >
               <ZoomPanKeyframes>
                <ZoomPanKeyframe id="7979" timeRangeEnd="-9999999/1" timeRangeDuration="0/1" interpolaterName=""  />
               </ZoomPanKeyframes>
              </ZoomPanBin>
             </Entry>
            </ExtraData>
           </IMFile>
           <VMFile id="7980" start="4727" duration="17" scalar="1/1" mediaStart="4846/1" mediaDuration="17/1" trackNumber="0" src="4" >
            <Transformer>
             <VectorParam id="7981"  name="translation">
              <InterpolatingParam id="7982" interp="linr"  time="-9999999/1" value="0" leadInLength="0/1"  />
              <InterpolatingParam id="7983" interp="linr"  time="-9999999/1" value="0" leadInLength="0/1"  />
              <InterpolatingParam id="7984" interp="linr"  time="-9999999/1" value="0" leadInLength="0/1"  />
             </VectorParam>
             <VectorParam id="7985"  name="rotation">
              <InterpolatingParam id="7986" interp="linr"  time="-9999999/1" value="0" leadInLength="0/1"  />
              <InterpolatingParam id="7987" interp="linr"  time="-9999999/1" value="0" leadInLength="0/1"  />
              <InterpolatingParam id="7988" interp="linr"  time="-9999999/1" value="0" leadInLength="0/1"  />
             </VectorParam>
             <VectorParam id="7989"  name="shear">
              <InterpolatingParam id="7990" interp="linr"  time="-9999999/1" value="0" leadInLength="0/1"  />
              <InterpolatingParam id="7991" interp="linr"  time="-9999999/1" value="0" leadInLength="0/1"  />
              <InterpolatingParam id="7992" interp="linr"  time="-9999999/1" value="0" leadInLength="0/1"  />
             </VectorParam>
             <VectorParam id="7993"  name="scale">
              <InterpolatingParam id="7994" interp="linr"  time="-9999999/1" value="1" leadInLength="0/1"  />
              <InterpolatingParam id="7995" interp="linr"  time="-9999999/1" value="1" leadInLength="0/1"  />
              <InterpolatingParam id="7996" interp="linr"  time="-9999999/1" value="1" leadInLength="0/1"  />
             </VectorParam>
             <VectorParam id="7997"  name="anchor">
              <InterpolatingParam id="7998" interp="linr"  time="0/1" value="0" leadInLength="0/1"  />
              <InterpolatingParam id="7999" interp="linr"  time="0/1" value="0" leadInLength="0/1"  />
              <InterpolatingParam id="8000" interp="linr"  time="0/1" value="0" leadInLength="0/1"  />
             </VectorParam>
            </Transformer>
            <Parameters>
             <VectorParam id="8001"  name="sourceCrop">
              <InterpolatingParam id="8002" interp="linr"  time="0/1" value="0" leadInLength="0/1"  />
              <InterpolatingParam id="8003" interp="linr"  time="0/1" value="0" leadInLength="0/1"  />
              <InterpolatingParam id="8004" interp="linr"  time="0/1" value="0" leadInLength="0/1"  />
              <InterpolatingParam id="8005" interp="linr"  time="0/1" value="0" leadInLength="0/1"  />
             </VectorParam>
             <VectorParam id="8006"  name="geometryCrop">
              <InterpolatingParam id="8007" interp="linr"  time="-9999999/1" value="0" leadInLength="0/1"  />
              <InterpolatingParam id="8008" interp="linr"  time="-9999999/1" value="0" leadInLength="0/1"  />
              <InterpolatingParam id="8009" interp="linr"  time="-9999999/1" value="0" leadInLength="0/1"  />
              <InterpolatingParam id="8010" interp="linr"  time="-9999999/1" value="0" leadInLength="0/1"  />
             </VectorParam>
             <InterpolatingParam id="8011" interp="linr"  time="-9999999/1" value="1" leadInLength="0/1"  name="opacity"/>
            </Parameters>
            <Attributes>
             <Attribute id="8012" value="" name="ident"/>
            </Attributes>
            <MetaData>
             <entry key="WinSubProjectDisplayName" val=""/>
            </MetaData>
            <ExtraData>
             <Entry key="ZoomPanBin">
              <ZoomPanBin id="8013"  >
               <ZoomPanKeyframes>
                <ZoomPanKeyframe id="8014" timeRangeEnd="-9999999/1" timeRangeDuration="0/1" interpolaterName=""  />
               </ZoomPanKeyframes>
              </ZoomPanBin>
             </Entry>
            </ExtraData>
           </VMFile>
           <VMFile id="8015" start="4744" duration="386" scalar="1/1" mediaStart="7805/1" mediaDuration="386/1" trackNumber="0" src="4" >
            <Transformer>
             <VectorParam id="8016"  name="translation">
              <InterpolatingParam id="8017" interp="linr"  time="-9999999/1" value="0" leadInLength="0/1"  />
              <InterpolatingParam id="8018" interp="linr"  time="-9999999/1" value="0" leadInLength="0/1"  />
              <InterpolatingParam id="8019" interp="linr"  time="-9999999/1" value="0" leadInLength="0/1"  />
             </VectorParam>
             <VectorParam id="8020"  name="rotation">
              <InterpolatingParam id="8021" interp="linr"  time="-9999999/1" value="0" leadInLength="0/1"  />
              <InterpolatingParam id="8022" interp="linr"  time="-9999999/1" value="0" leadInLength="0/1"  />
              <InterpolatingParam id="8023" interp="linr"  time="-9999999/1" value="0" leadInLength="0/1"  />
             </VectorParam>
             <VectorParam id="8024"  name="shear">
              <InterpolatingParam id="8025" interp="linr"  time="-9999999/1" value="0" leadInLength="0/1"  />
              <InterpolatingParam id="8026" interp="linr"  time="-9999999/1" value="0" leadInLength="0/1"  />
              <InterpolatingParam id="8027" interp="linr"  time="-9999999/1" value="0" leadInLength="0/1"  />
             </VectorParam>
             <VectorParam id="8028"  name="scale">
              <InterpolatingParam id="8029" interp="linr"  time="-9999999/1" value="1" leadInLength="0/1"  />
              <InterpolatingParam id="8030" interp="linr"  time="-9999999/1" value="1" leadInLength="0/1"  />
              <InterpolatingParam id="8031" interp="linr"  time="-9999999/1" value="1" leadInLength="0/1"  />
             </VectorParam>
             <VectorParam id="8032"  name="anchor">
              <InterpolatingParam id="8033" interp="linr"  time="0/1" value="0" leadInLength="0/1"  />
              <InterpolatingParam id="8034" interp="linr"  time="0/1" value="0" leadInLength="0/1"  />
              <InterpolatingParam id="8035" interp="linr"  time="0/1" value="0" leadInLength="0/1"  />
             </VectorParam>
            </Transformer>
            <Parameters>
             <VectorParam id="8036"  name="sourceCrop">
              <InterpolatingParam id="8037" interp="linr"  time="0/1" value="0" leadInLength="0/1"  />
              <InterpolatingParam id="8038" interp="linr"  time="0/1" value="0" leadInLength="0/1"  />
              <InterpolatingParam id="8039" interp="linr"  time="0/1" value="0" leadInLength="0/1"  />
              <InterpolatingParam id="8040" interp="linr"  time="0/1" value="0" leadInLength="0/1"  />
             </VectorParam>
             <VectorParam id="8041"  name="geometryCrop">
              <InterpolatingParam id="8042" interp="linr"  time="-9999999/1" value="0" leadInLength="0/1"  />
              <InterpolatingParam id="8043" interp="linr"  time="-9999999/1" value="0" leadInLength="0/1"  />
              <InterpolatingParam id="8044" interp="linr"  time="-9999999/1" value="0" leadInLength="0/1"  />
              <InterpolatingParam id="8045" interp="linr"  time="-9999999/1" value="0" leadInLength="0/1"  />
             </VectorParam>
             <InterpolatingParam id="8046" interp="linr"  time="-9999999/1" value="1" leadInLength="0/1"  name="opacity"/>
            </Parameters>
            <Attributes>
             <Attribute id="8047" value="" name="ident"/>
            </Attributes>
            <MetaData>
             <entry key="WinSubProjectDisplayName" val=""/>
            </MetaData>
            <ExtraData>
             <Entry key="ZoomPanBin">
              <ZoomPanBin id="8048"  >
               <ZoomPanKeyframes>
                <ZoomPanKeyframe id="8049" timeRangeEnd="-9999999/1" timeRangeDuration="0/1" interpolaterName=""  />
               </ZoomPanKeyframes>
              </ZoomPanBin>
             </Entry>
            </ExtraData>
           </VMFile>
           <VMFile id="8050" start="5130" duration="1007" scalar="1/1" mediaStart="8371/1" mediaDuration="1007/1" trackNumber="0" src="4" >
            <Transformer>
             <VectorParam id="8051"  name="translation">
              <InterpolatingParam id="8052" interp="linr"  time="-9999999/1" value="0" leadInLength="0/1"  />
              <InterpolatingParam id="8053" interp="linr"  time="-9999999/1" value="0" leadInLength="0/1"  />
              <InterpolatingParam id="8054" interp="linr"  time="-9999999/1" value="0" leadInLength="0/1"  />
             </VectorParam>
             <VectorParam id="8055"  name="rotation">
              <InterpolatingParam id="8056" interp="linr"  time="-9999999/1" value="0" leadInLength="0/1"  />
              <InterpolatingParam id="8057" interp="linr"  time="-9999999/1" value="0" leadInLength="0/1"  />
              <InterpolatingParam id="8058" interp="linr"  time="-9999999/1" value="0" leadInLength="0/1"  />
             </VectorParam>
             <VectorParam id="8059"  name="shear">
              <InterpolatingParam id="8060" interp="linr"  time="-9999999/1" value="0" leadInLength="0/1"  />
              <InterpolatingParam id="8061" interp="linr"  time="-9999999/1" value="0" leadInLength="0/1"  />
              <InterpolatingParam id="8062" interp="linr"  time="-9999999/1" value="0" leadInLength="0/1"  />
             </VectorParam>
             <VectorParam id="8063"  name="scale">
              <InterpolatingParam id="8064" interp="linr"  time="-9999999/1" value="1" leadInLength="0/1"  />
              <InterpolatingParam id="8065" interp="linr"  time="-9999999/1" value="1" leadInLength="0/1"  />
              <InterpolatingParam id="8066" interp="linr"  time="-9999999/1" value="1" leadInLength="0/1"  />
             </VectorParam>
             <VectorParam id="8067"  name="anchor">
              <InterpolatingParam id="8068" interp="linr"  time="0/1" value="0" leadInLength="0/1"  />
              <InterpolatingParam id="8069" interp="linr"  time="0/1" value="0" leadInLength="0/1"  />
              <InterpolatingParam id="8070" interp="linr"  time="0/1" value="0" leadInLength="0/1"  />
             </VectorParam>
            </Transformer>
            <Parameters>
             <VectorParam id="8071"  name="sourceCrop">
              <InterpolatingParam id="8072" interp="linr"  time="0/1" value="0" leadInLength="0/1"  />
              <InterpolatingParam id="8073" interp="linr"  time="0/1" value="0" leadInLength="0/1"  />
              <InterpolatingParam id="8074" interp="linr"  time="0/1" value="0" leadInLength="0/1"  />
              <InterpolatingParam id="8075" interp="linr"  time="0/1" value="0" leadInLength="0/1"  />
             </VectorParam>
             <VectorParam id="8076"  name="geometryCrop">
              <InterpolatingParam id="8077" interp="linr"  time="-9999999/1" value="0" leadInLength="0/1"  />
              <InterpolatingParam id="8078" interp="linr"  time="-9999999/1" value="0" leadInLength="0/1"  />
              <InterpolatingParam id="8079" interp="linr"  time="-9999999/1" value="0" leadInLength="0/1"  />
              <InterpolatingParam id="8080" interp="linr"  time="-9999999/1" value="0" leadInLength="0/1"  />
             </VectorParam>
             <InterpolatingParam id="8081" interp="linr"  time="-9999999/1" value="1" leadInLength="0/1"  name="opacity"/>
            </Parameters>
            <Attributes>
             <Attribute id="8082" value="" name="ident"/>
            </Attributes>
            <MetaData>
             <entry key="WinSubProjectDisplayName" val=""/>
            </MetaData>
            <ExtraData>
             <Entry key="ZoomPanBin">
              <ZoomPanBin id="8083"  >
               <ZoomPanKeyframes>
                <ZoomPanKeyframe id="8084" timeRangeEnd="-9999999/1" timeRangeDuration="0/1" interpolaterName=""  />
               </ZoomPanKeyframes>
              </ZoomPanBin>
             </Entry>
            </ExtraData>
           </VMFile>
           <VMFile id="8085" start="6137" duration="555" scalar="1/1" mediaStart="9516/1" mediaDuration="555/1" trackNumber="0" src="4" >
            <Transformer>
             <VectorParam id="8086"  name="translation">
              <InterpolatingParam id="8087" interp="linr"  time="-9999999/1" value="0" leadInLength="0/1"  />
              <InterpolatingParam id="8088" interp="linr"  time="-9999999/1" value="0" leadInLength="0/1"  />
              <InterpolatingParam id="8089" interp="linr"  time="-9999999/1" value="0" leadInLength="0/1"  />
             </VectorParam>
             <VectorParam id="8090"  name="rotation">
              <InterpolatingParam id="8091" interp="linr"  time="-9999999/1" value="0" leadInLength="0/1"  />
              <InterpolatingParam id="8092" interp="linr"  time="-9999999/1" value="0" leadInLength="0/1"  />
              <InterpolatingParam id="8093" interp="linr"  time="-9999999/1" value="0" leadInLength="0/1"  />
             </VectorParam>
             <VectorParam id="8094"  name="shear">
              <InterpolatingParam id="8095" interp="linr"  time="-9999999/1" value="0" leadInLength="0/1"  />
              <InterpolatingParam id="8096" interp="linr"  time="-9999999/1" value="0" leadInLength="0/1"  />
              <InterpolatingParam id="8097" interp="linr"  time="-9999999/1" value="0" leadInLength="0/1"  />
             </VectorParam>
             <VectorParam id="8098"  name="scale">
              <InterpolatingParam id="8099" interp="linr"  time="-9999999/1" value="1" leadInLength="0/1"  />
              <InterpolatingParam id="8100" interp="linr"  time="-9999999/1" value="1" leadInLength="0/1"  />
              <InterpolatingParam id="8101" interp="linr"  time="-9999999/1" value="1" leadInLength="0/1"  />
             </VectorParam>
             <VectorParam id="8102"  name="anchor">
              <InterpolatingParam id="8103" interp="linr"  time="0/1" value="0" leadInLength="0/1"  />
              <InterpolatingParam id="8104" interp="linr"  time="0/1" value="0" leadInLength="0/1"  />
              <InterpolatingParam id="8105" interp="linr"  time="0/1" value="0" leadInLength="0/1"  />
             </VectorParam>
            </Transformer>
            <Parameters>
             <VectorParam id="8106"  name="sourceCrop">
              <InterpolatingParam id="8107" interp="linr"  time="0/1" value="0" leadInLength="0/1"  />
              <InterpolatingParam id="8108" interp="linr"  time="0/1" value="0" leadInLength="0/1"  />
              <InterpolatingParam id="8109" interp="linr"  time="0/1" value="0" leadInLength="0/1"  />
              <InterpolatingParam id="8110" interp="linr"  time="0/1" value="0" leadInLength="0/1"  />
             </VectorParam>
             <VectorParam id="8111"  name="geometryCrop">
              <InterpolatingParam id="8112" interp="linr"  time="-9999999/1" value="0" leadInLength="0/1"  />
              <InterpolatingParam id="8113" interp="linr"  time="-9999999/1" value="0" leadInLength="0/1"  />
              <InterpolatingParam id="8114" interp="linr"  time="-9999999/1" value="0" leadInLength="0/1"  />
              <InterpolatingParam id="8115" interp="linr"  time="-9999999/1" value="0" leadInLength="0/1"  />
             </VectorParam>
             <InterpolatingParam id="8116" interp="linr"  time="-9999999/1" value="1" leadInLength="0/1"  name="opacity"/>
            </Parameters>
            <Attributes>
             <Attribute id="8117" value="" name="ident"/>
            </Attributes>
            <MetaData>
             <entry key="WinSubProjectDisplayName" val=""/>
            </MetaData>
            <ExtraData>
             <Entry key="ZoomPanBin">
              <ZoomPanBin id="8118"  >
               <ZoomPanKeyframes>
                <ZoomPanKeyframe id="8119" timeRangeEnd="-9999999/1" timeRangeDuration="0/1" interpolaterName=""  />
               </ZoomPanKeyframes>
              </ZoomPanBin>
             </Entry>
            </ExtraData>
           </VMFile>
           <VMFile id="8120" start="6692" duration="460" scalar="1/1" mediaStart="11597/1" mediaDuration="460/1" trackNumber="0" src="4" >
            <Transformer>
             <VectorParam id="8121"  name="translation">
              <InterpolatingParam id="8122" interp="linr"  time="-9999999/1" value="0" leadInLength="0/1"  />
              <InterpolatingParam id="8123" interp="linr"  time="-9999999/1" value="0" leadInLength="0/1"  />
              <InterpolatingParam id="8124" interp="linr"  time="-9999999/1" value="0" leadInLength="0/1"  />
             </VectorParam>
             <VectorParam id="8125"  name="rotation">
              <InterpolatingParam id="8126" interp="linr"  time="-9999999/1" value="0" leadInLength="0/1"  />
              <InterpolatingParam id="8127" interp="linr"  time="-9999999/1" value="0" leadInLength="0/1"  />
              <InterpolatingParam id="8128" interp="linr"  time="-9999999/1" value="0" leadInLength="0/1"  />
             </VectorParam>
             <VectorParam id="8129"  name="shear">
              <InterpolatingParam id="8130" interp="linr"  time="-9999999/1" value="0" leadInLength="0/1"  />
              <InterpolatingParam id="8131" interp="linr"  time="-9999999/1" value="0" leadInLength="0/1"  />
              <InterpolatingParam id="8132" interp="linr"  time="-9999999/1" value="0" leadInLength="0/1"  />
             </VectorParam>
             <VectorParam id="8133"  name="scale">
              <InterpolatingParam id="8134" interp="linr"  time="-9999999/1" value="1" leadInLength="0/1"  />
              <InterpolatingParam id="8135" interp="linr"  time="-9999999/1" value="1" leadInLength="0/1"  />
              <InterpolatingParam id="8136" interp="linr"  time="-9999999/1" value="1" leadInLength="0/1"  />
             </VectorParam>
             <VectorParam id="8137"  name="anchor">
              <InterpolatingParam id="8138" interp="linr"  time="0/1" value="0" leadInLength="0/1"  />
              <InterpolatingParam id="8139" interp="linr"  time="0/1" value="0" leadInLength="0/1"  />
              <InterpolatingParam id="8140" interp="linr"  time="0/1" value="0" leadInLength="0/1"  />
             </VectorParam>
            </Transformer>
            <Parameters>
             <VectorParam id="8141"  name="sourceCrop">
              <InterpolatingParam id="8142" interp="linr"  time="0/1" value="0" leadInLength="0/1"  />
              <InterpolatingParam id="8143" interp="linr"  time="0/1" value="0" leadInLength="0/1"  />
              <InterpolatingParam id="8144" interp="linr"  time="0/1" value="0" leadInLength="0/1"  />
              <InterpolatingParam id="8145" interp="linr"  time="0/1" value="0" leadInLength="0/1"  />
             </VectorParam>
             <VectorParam id="8146"  name="geometryCrop">
              <InterpolatingParam id="8147" interp="linr"  time="-9999999/1" value="0" leadInLength="0/1"  />
              <InterpolatingParam id="8148" interp="linr"  time="-9999999/1" value="0" leadInLength="0/1"  />
              <InterpolatingParam id="8149" interp="linr"  time="-9999999/1" value="0" leadInLength="0/1"  />
              <InterpolatingParam id="8150" interp="linr"  time="-9999999/1" value="0" leadInLength="0/1"  />
             </VectorParam>
             <InterpolatingParam id="8151" interp="linr"  time="-9999999/1" value="1" leadInLength="0/1"  name="opacity"/>
            </Parameters>
            <Attributes>
             <Attribute id="8152" value="" name="ident"/>
            </Attributes>
            <MetaData>
             <entry key="WinSubProjectDisplayName" val=""/>
            </MetaData>
            <ExtraData>
             <Entry key="ZoomPanBin">
              <ZoomPanBin id="8153"  >
               <ZoomPanKeyframes>
                <ZoomPanKeyframe id="8154" timeRangeEnd="-9999999/1" timeRangeDuration="0/1" interpolaterName=""  />
               </ZoomPanKeyframes>
              </ZoomPanBin>
             </Entry>
            </ExtraData>
           </VMFile>
           <VMFile id="8155" start="7152" duration="350" scalar="1/1" mediaStart="12237/1" mediaDuration="350/1" trackNumber="0" src="4" >
            <Transformer>
             <VectorParam id="8156"  name="translation">
              <InterpolatingParam id="8157" interp="linr"  time="-9999999/1" value="0" leadInLength="0/1"  />
              <InterpolatingParam id="8158" interp="linr"  time="-9999999/1" value="0" leadInLength="0/1"  />
              <InterpolatingParam id="8159" interp="linr"  time="-9999999/1" value="0" leadInLength="0/1"  />
             </VectorParam>
             <VectorParam id="8160"  name="rotation">
              <InterpolatingParam id="8161" interp="linr"  time="-9999999/1" value="0" leadInLength="0/1"  />
              <InterpolatingParam id="8162" interp="linr"  time="-9999999/1" value="0" leadInLength="0/1"  />
              <InterpolatingParam id="8163" interp="linr"  time="-9999999/1" value="0" leadInLength="0/1"  />
             </VectorParam>
             <VectorParam id="8164"  name="shear">
              <InterpolatingParam id="8165" interp="linr"  time="-9999999/1" value="0" leadInLength="0/1"  />
              <InterpolatingParam id="8166" interp="linr"  time="-9999999/1" value="0" leadInLength="0/1"  />
              <InterpolatingParam id="8167" interp="linr"  time="-9999999/1" value="0" leadInLength="0/1"  />
             </VectorParam>
             <VectorParam id="8168"  name="scale">
              <InterpolatingParam id="8169" interp="linr"  time="-9999999/1" value="1" leadInLength="0/1"  />
              <InterpolatingParam id="8170" interp="linr"  time="-9999999/1" value="1" leadInLength="0/1"  />
              <InterpolatingParam id="8171" interp="linr"  time="-9999999/1" value="1" leadInLength="0/1"  />
             </VectorParam>
             <VectorParam id="8172"  name="anchor">
              <InterpolatingParam id="8173" interp="linr"  time="0/1" value="0" leadInLength="0/1"  />
              <InterpolatingParam id="8174" interp="linr"  time="0/1" value="0" leadInLength="0/1"  />
              <InterpolatingParam id="8175" interp="linr"  time="0/1" value="0" leadInLength="0/1"  />
             </VectorParam>
            </Transformer>
            <Parameters>
             <VectorParam id="8176"  name="sourceCrop">
              <InterpolatingParam id="8177" interp="linr"  time="0/1" value="0" leadInLength="0/1"  />
              <InterpolatingParam id="8178" interp="linr"  time="0/1" value="0" leadInLength="0/1"  />
              <InterpolatingParam id="8179" interp="linr"  time="0/1" value="0" leadInLength="0/1"  />
              <InterpolatingParam id="8180" interp="linr"  time="0/1" value="0" leadInLength="0/1"  />
             </VectorParam>
             <VectorParam id="8181"  name="geometryCrop">
              <InterpolatingParam id="8182" interp="linr"  time="-9999999/1" value="0" leadInLength="0/1"  />
              <InterpolatingParam id="8183" interp="linr"  time="-9999999/1" value="0" leadInLength="0/1"  />
              <InterpolatingParam id="8184" interp="linr"  time="-9999999/1" value="0" leadInLength="0/1"  />
              <InterpolatingParam id="8185" interp="linr"  time="-9999999/1" value="0" leadInLength="0/1"  />
             </VectorParam>
             <InterpolatingParam id="8186" interp="linr"  time="-9999999/1" value="1" leadInLength="0/1"  name="opacity"/>
            </Parameters>
            <Attributes>
             <Attribute id="8187" value="" name="ident"/>
            </Attributes>
            <MetaData>
             <entry key="WinSubProjectDisplayName" val=""/>
            </MetaData>
            <ExtraData>
             <Entry key="ZoomPanBin">
              <ZoomPanBin id="8188"  >
               <ZoomPanKeyframes>
                <ZoomPanKeyframe id="8189" timeRangeEnd="-9999999/1" timeRangeDuration="0/1" interpolaterName=""  />
               </ZoomPanKeyframes>
              </ZoomPanBin>
             </Entry>
            </ExtraData>
           </VMFile>
           <VMFile id="8190" start="7502" duration="128" scalar="1/1" mediaStart="15765/1" mediaDuration="128/1" trackNumber="0" src="4" >
            <Transformer>
             <VectorParam id="8191"  name="translation">
              <InterpolatingParam id="8192" interp="linr"  time="-9999999/1" value="0" leadInLength="0/1"  />
              <InterpolatingParam id="8193" interp="linr"  time="-9999999/1" value="0" leadInLength="0/1"  />
              <InterpolatingParam id="8194" interp="linr"  time="-9999999/1" value="0" leadInLength="0/1"  />
             </VectorParam>
             <VectorParam id="8195"  name="rotation">
              <InterpolatingParam id="8196" interp="linr"  time="-9999999/1" value="0" leadInLength="0/1"  />
              <InterpolatingParam id="8197" interp="linr"  time="-9999999/1" value="0" leadInLength="0/1"  />
              <InterpolatingParam id="8198" interp="linr"  time="-9999999/1" value="0" leadInLength="0/1"  />
             </VectorParam>
             <VectorParam id="8199"  name="shear">
              <InterpolatingParam id="8200" interp="linr"  time="-9999999/1" value="0" leadInLength="0/1"  />
              <InterpolatingParam id="8201" interp="linr"  time="-9999999/1" value="0" leadInLength="0/1"  />
              <InterpolatingParam id="8202" interp="linr"  time="-9999999/1" value="0" leadInLength="0/1"  />
             </VectorParam>
             <VectorParam id="8203"  name="scale">
              <InterpolatingParam id="8204" interp="linr"  time="-9999999/1" value="1" leadInLength="0/1"  />
              <InterpolatingParam id="8205" interp="linr"  time="-9999999/1" value="1" leadInLength="0/1"  />
              <InterpolatingParam id="8206" interp="linr"  time="-9999999/1" value="1" leadInLength="0/1"  />
             </VectorParam>
             <VectorParam id="8207"  name="anchor">
              <InterpolatingParam id="8208" interp="linr"  time="0/1" value="0" leadInLength="0/1"  />
              <InterpolatingParam id="8209" interp="linr"  time="0/1" value="0" leadInLength="0/1"  />
              <InterpolatingParam id="8210" interp="linr"  time="0/1" value="0" leadInLength="0/1"  />
             </VectorParam>
            </Transformer>
            <Parameters>
             <VectorParam id="8211"  name="sourceCrop">
              <InterpolatingParam id="8212" interp="linr"  time="0/1" value="0" leadInLength="0/1"  />
              <InterpolatingParam id="8213" interp="linr"  time="0/1" value="0" leadInLength="0/1"  />
              <InterpolatingParam id="8214" interp="linr"  time="0/1" value="0" leadInLength="0/1"  />
              <InterpolatingParam id="8215" interp="linr"  time="0/1" value="0" leadInLength="0/1"  />
             </VectorParam>
             <VectorParam id="8216"  name="geometryCrop">
              <InterpolatingParam id="8217" interp="linr"  time="-9999999/1" value="0" leadInLength="0/1"  />
              <InterpolatingParam id="8218" interp="linr"  time="-9999999/1" value="0" leadInLength="0/1"  />
              <InterpolatingParam id="8219" interp="linr"  time="-9999999/1" value="0" leadInLength="0/1"  />
              <InterpolatingParam id="8220" interp="linr"  time="-9999999/1" value="0" leadInLength="0/1"  />
             </VectorParam>
             <InterpolatingParam id="8221" interp="linr"  time="-9999999/1" value="1" leadInLength="0/1"  name="opacity"/>
            </Parameters>
            <Attributes>
             <Attribute id="8222" value="" name="ident"/>
            </Attributes>
            <MetaData>
             <entry key="WinSubProjectDisplayName" val=""/>
            </MetaData>
            <ExtraData>
             <Entry key="ZoomPanBin">
              <ZoomPanBin id="8223"  >
               <ZoomPanKeyframes>
                <ZoomPanKeyframe id="8224" timeRangeEnd="-9999999/1" timeRangeDuration="0/1" interpolaterName=""  />
               </ZoomPanKeyframes>
              </ZoomPanBin>
             </Entry>
            </ExtraData>
           </VMFile>
           <VMFile id="8225" start="7630" duration="615" scalar="1/1" mediaStart="15918/1" mediaDuration="615/1" trackNumber="0" src="4" >
            <Transformer>
             <VectorParam id="8226"  name="translation">
              <InterpolatingParam id="8227" interp="linr"  time="-9999999/1" value="0" leadInLength="0/1"  />
              <InterpolatingParam id="8228" interp="linr"  time="-9999999/1" value="0" leadInLength="0/1"  />
              <InterpolatingParam id="8229" interp="linr"  time="-9999999/1" value="0" leadInLength="0/1"  />
             </VectorParam>
             <VectorParam id="8230"  name="rotation">
              <InterpolatingParam id="8231" interp="linr"  time="-9999999/1" value="0" leadInLength="0/1"  />
              <InterpolatingParam id="8232" interp="linr"  time="-9999999/1" value="0" leadInLength="0/1"  />
              <InterpolatingParam id="8233" interp="linr"  time="-9999999/1" value="0" leadInLength="0/1"  />
             </VectorParam>
             <VectorParam id="8234"  name="shear">
              <InterpolatingParam id="8235" interp="linr"  time="-9999999/1" value="0" leadInLength="0/1"  />
              <InterpolatingParam id="8236" interp="linr"  time="-9999999/1" value="0" leadInLength="0/1"  />
              <InterpolatingParam id="8237" interp="linr"  time="-9999999/1" value="0" leadInLength="0/1"  />
             </VectorParam>
             <VectorParam id="8238"  name="scale">
              <InterpolatingParam id="8239" interp="linr"  time="-9999999/1" value="1" leadInLength="0/1"  />
              <InterpolatingParam id="8240" interp="linr"  time="-9999999/1" value="1" leadInLength="0/1"  />
              <InterpolatingParam id="8241" interp="linr"  time="-9999999/1" value="1" leadInLength="0/1"  />
             </VectorParam>
             <VectorParam id="8242"  name="anchor">
              <InterpolatingParam id="8243" interp="linr"  time="0/1" value="0" leadInLength="0/1"  />
              <InterpolatingParam id="8244" interp="linr"  time="0/1" value="0" leadInLength="0/1"  />
              <InterpolatingParam id="8245" interp="linr"  time="0/1" value="0" leadInLength="0/1"  />
             </VectorParam>
            </Transformer>
            <Parameters>
             <VectorParam id="8246"  name="sourceCrop">
              <InterpolatingParam id="8247" interp="linr"  time="0/1" value="0" leadInLength="0/1"  />
              <InterpolatingParam id="8248" interp="linr"  time="0/1" value="0" leadInLength="0/1"  />
              <InterpolatingParam id="8249" interp="linr"  time="0/1" value="0" leadInLength="0/1"  />
              <InterpolatingParam id="8250" interp="linr"  time="0/1" value="0" leadInLength="0/1"  />
             </VectorParam>
             <VectorParam id="8251"  name="geometryCrop">
              <InterpolatingParam id="8252" interp="linr"  time="-9999999/1" value="0" leadInLength="0/1"  />
              <InterpolatingParam id="8253" interp="linr"  time="-9999999/1" value="0" leadInLength="0/1"  />
              <InterpolatingParam id="8254" interp="linr"  time="-9999999/1" value="0" leadInLength="0/1"  />
              <InterpolatingParam id="8255" interp="linr"  time="-9999999/1" value="0" leadInLength="0/1"  />
             </VectorParam>
             <InterpolatingParam id="8256" interp="linr"  time="-9999999/1" value="1" leadInLength="0/1"  name="opacity"/>
            </Parameters>
            <Attributes>
             <Attribute id="8257" value="" name="ident"/>
            </Attributes>
            <MetaData>
             <entry key="WinSubProjectDisplayName" val=""/>
            </MetaData>
            <ExtraData>
             <Entry key="ZoomPanBin">
              <ZoomPanBin id="8258"  >
               <ZoomPanKeyframes>
                <ZoomPanKeyframe id="8259" timeRangeEnd="-9999999/1" timeRangeDuration="0/1" interpolaterName=""  />
               </ZoomPanKeyframes>
              </ZoomPanBin>
             </Entry>
            </ExtraData>
           </VMFile>
           <VMFile id="8260" start="8245" duration="323" scalar="1/1" mediaStart="16694/1" mediaDuration="323/1" trackNumber="0" src="4" >
            <Transformer>
             <VectorParam id="8261"  name="translation">
              <InterpolatingParam id="8262" interp="linr"  time="-9999999/1" value="0" leadInLength="0/1"  />
              <InterpolatingParam id="8263" interp="linr"  time="-9999999/1" value="0" leadInLength="0/1"  />
              <InterpolatingParam id="8264" interp="linr"  time="-9999999/1" value="0" leadInLength="0/1"  />
             </VectorParam>
             <VectorParam id="8265"  name="rotation">
              <InterpolatingParam id="8266" interp="linr"  time="-9999999/1" value="0" leadInLength="0/1"  />
              <InterpolatingParam id="8267" interp="linr"  time="-9999999/1" value="0" leadInLength="0/1"  />
              <InterpolatingParam id="8268" interp="linr"  time="-9999999/1" value="0" leadInLength="0/1"  />
             </VectorParam>
             <VectorParam id="8269"  name="shear">
              <InterpolatingParam id="8270" interp="linr"  time="-9999999/1" value="0" leadInLength="0/1"  />
              <InterpolatingParam id="8271" interp="linr"  time="-9999999/1" value="0" leadInLength="0/1"  />
              <InterpolatingParam id="8272" interp="linr"  time="-9999999/1" value="0" leadInLength="0/1"  />
             </VectorParam>
             <VectorParam id="8273"  name="scale">
              <InterpolatingParam id="8274" interp="linr"  time="-9999999/1" value="1" leadInLength="0/1"  />
              <InterpolatingParam id="8275" interp="linr"  time="-9999999/1" value="1" leadInLength="0/1"  />
              <InterpolatingParam id="8276" interp="linr"  time="-9999999/1" value="1" leadInLength="0/1"  />
             </VectorParam>
             <VectorParam id="8277"  name="anchor">
              <InterpolatingParam id="8278" interp="linr"  time="0/1" value="0" leadInLength="0/1"  />
              <InterpolatingParam id="8279" interp="linr"  time="0/1" value="0" leadInLength="0/1"  />
              <InterpolatingParam id="8280" interp="linr"  time="0/1" value="0" leadInLength="0/1"  />
             </VectorParam>
            </Transformer>
            <Parameters>
             <VectorParam id="8281"  name="sourceCrop">
              <InterpolatingParam id="8282" interp="linr"  time="0/1" value="0" leadInLength="0/1"  />
              <InterpolatingParam id="8283" interp="linr"  time="0/1" value="0" leadInLength="0/1"  />
              <InterpolatingParam id="8284" interp="linr"  time="0/1" value="0" leadInLength="0/1"  />
              <InterpolatingParam id="8285" interp="linr"  time="0/1" value="0" leadInLength="0/1"  />
             </VectorParam>
             <VectorParam id="8286"  name="geometryCrop">
              <InterpolatingParam id="8287" interp="linr"  time="-9999999/1" value="0" leadInLength="0/1"  />
              <InterpolatingParam id="8288" interp="linr"  time="-9999999/1" value="0" leadInLength="0/1"  />
              <InterpolatingParam id="8289" interp="linr"  time="-9999999/1" value="0" leadInLength="0/1"  />
              <InterpolatingParam id="8290" interp="linr"  time="-9999999/1" value="0" leadInLength="0/1"  />
             </VectorParam>
             <InterpolatingParam id="8291" interp="linr"  time="-9999999/1" value="1" leadInLength="0/1"  name="opacity"/>
            </Parameters>
            <Attributes>
             <Attribute id="8292" value="" name="ident"/>
            </Attributes>
            <MetaData>
             <entry key="WinSubProjectDisplayName" val=""/>
            </MetaData>
            <ExtraData>
             <Entry key="ZoomPanBin">
              <ZoomPanBin id="8293"  >
               <ZoomPanKeyframes>
                <ZoomPanKeyframe id="8294" timeRangeEnd="-9999999/1" timeRangeDuration="0/1" interpolaterName=""  />
               </ZoomPanKeyframes>
              </ZoomPanBin>
             </Entry>
            </ExtraData>
           </VMFile>
           <VMFile id="8295" start="8568" duration="223" scalar="1/1" mediaStart="17164/1" mediaDuration="223/1" trackNumber="0" src="4" >
            <Transformer>
             <VectorParam id="8296"  name="translation">
              <InterpolatingParam id="8297" interp="linr"  time="-9999999/1" value="0" leadInLength="0/1"  />
              <InterpolatingParam id="8298" interp="linr"  time="-9999999/1" value="0" leadInLength="0/1"  />
              <InterpolatingParam id="8299" interp="linr"  time="-9999999/1" value="0" leadInLength="0/1"  />
             </VectorParam>
             <VectorParam id="8300"  name="rotation">
              <InterpolatingParam id="8301" interp="linr"  time="-9999999/1" value="0" leadInLength="0/1"  />
              <InterpolatingParam id="8302" interp="linr"  time="-9999999/1" value="0" leadInLength="0/1"  />
              <InterpolatingParam id="8303" interp="linr"  time="-9999999/1" value="0" leadInLength="0/1"  />
             </VectorParam>
             <VectorParam id="8304"  name="shear">
              <InterpolatingParam id="8305" interp="linr"  time="-9999999/1" value="0" leadInLength="0/1"  />
              <InterpolatingParam id="8306" interp="linr"  time="-9999999/1" value="0" leadInLength="0/1"  />
              <InterpolatingParam id="8307" interp="linr"  time="-9999999/1" value="0" leadInLength="0/1"  />
             </VectorParam>
             <VectorParam id="8308"  name="scale">
              <InterpolatingParam id="8309" interp="linr"  time="-9999999/1" value="1" leadInLength="0/1"  />
              <InterpolatingParam id="8310" interp="linr"  time="-9999999/1" value="1" leadInLength="0/1"  />
              <InterpolatingParam id="8311" interp="linr"  time="-9999999/1" value="1" leadInLength="0/1"  />
             </VectorParam>
             <VectorParam id="8312"  name="anchor">
              <InterpolatingParam id="8313" interp="linr"  time="0/1" value="0" leadInLength="0/1"  />
              <InterpolatingParam id="8314" interp="linr"  time="0/1" value="0" leadInLength="0/1"  />
              <InterpolatingParam id="8315" interp="linr"  time="0/1" value="0" leadInLength="0/1"  />
             </VectorParam>
            </Transformer>
            <Parameters>
             <VectorParam id="8316"  name="sourceCrop">
              <InterpolatingParam id="8317" interp="linr"  time="0/1" value="0" leadInLength="0/1"  />
              <InterpolatingParam id="8318" interp="linr"  time="0/1" value="0" leadInLength="0/1"  />
              <InterpolatingParam id="8319" interp="linr"  time="0/1" value="0" leadInLength="0/1"  />
              <InterpolatingParam id="8320" interp="linr"  time="0/1" value="0" leadInLength="0/1"  />
             </VectorParam>
             <VectorParam id="8321"  name="geometryCrop">
              <InterpolatingParam id="8322" interp="linr"  time="-9999999/1" value="0" leadInLength="0/1"  />
              <InterpolatingParam id="8323" interp="linr"  time="-9999999/1" value="0" leadInLength="0/1"  />
              <InterpolatingParam id="8324" interp="linr"  time="-9999999/1" value="0" leadInLength="0/1"  />
              <InterpolatingParam id="8325" interp="linr"  time="-9999999/1" value="0" leadInLength="0/1"  />
             </VectorParam>
             <InterpolatingParam id="8326" interp="linr"  time="-9999999/1" value="1" leadInLength="0/1"  name="opacity"/>
            </Parameters>
            <Attributes>
             <Attribute id="8327" value="" name="ident"/>
            </Attributes>
            <MetaData>
             <entry key="WinSubProjectDisplayName" val=""/>
            </MetaData>
            <ExtraData>
             <Entry key="ZoomPanBin">
              <ZoomPanBin id="8328"  >
               <ZoomPanKeyframes>
                <ZoomPanKeyframe id="8329" timeRangeEnd="-9999999/1" timeRangeDuration="0/1" interpolaterName=""  />
               </ZoomPanKeyframes>
              </ZoomPanBin>
             </Entry>
            </ExtraData>
           </VMFile>
           <VMFile id="8330" start="8791" duration="323" scalar="1/1" mediaStart="26742/1" mediaDuration="323/1" trackNumber="0" src="4" >
            <Transformer>
             <VectorParam id="8331"  name="translation">
              <InterpolatingParam id="8332" interp="linr"  time="-9999999/1" value="0" leadInLength="0/1"  />
              <InterpolatingParam id="8333" interp="linr"  time="-9999999/1" value="0" leadInLength="0/1"  />
              <InterpolatingParam id="8334" interp="linr"  time="-9999999/1" value="0" leadInLength="0/1"  />
             </VectorParam>
             <VectorParam id="8335"  name="rotation">
              <InterpolatingParam id="8336" interp="linr"  time="-9999999/1" value="0" leadInLength="0/1"  />
              <InterpolatingParam id="8337" interp="linr"  time="-9999999/1" value="0" leadInLength="0/1"  />
              <InterpolatingParam id="8338" interp="linr"  time="-9999999/1" value="0" leadInLength="0/1"  />
             </VectorParam>
             <VectorParam id="8339"  name="shear">
              <InterpolatingParam id="8340" interp="linr"  time="-9999999/1" value="0" leadInLength="0/1"  />
              <InterpolatingParam id="8341" interp="linr"  time="-9999999/1" value="0" leadInLength="0/1"  />
              <InterpolatingParam id="8342" interp="linr"  time="-9999999/1" value="0" leadInLength="0/1"  />
             </VectorParam>
             <VectorParam id="8343"  name="scale">
              <InterpolatingParam id="8344" interp="linr"  time="-9999999/1" value="1" leadInLength="0/1"  />
              <InterpolatingParam id="8345" interp="linr"  time="-9999999/1" value="1" leadInLength="0/1"  />
              <InterpolatingParam id="8346" interp="linr"  time="-9999999/1" value="1" leadInLength="0/1"  />
             </VectorParam>
             <VectorParam id="8347"  name="anchor">
              <InterpolatingParam id="8348" interp="linr"  time="0/1" value="0" leadInLength="0/1"  />
              <InterpolatingParam id="8349" interp="linr"  time="0/1" value="0" leadInLength="0/1"  />
              <InterpolatingParam id="8350" interp="linr"  time="0/1" value="0" leadInLength="0/1"  />
             </VectorParam>
            </Transformer>
            <Parameters>
             <VectorParam id="8351"  name="sourceCrop">
              <InterpolatingParam id="8352" interp="linr"  time="0/1" value="0" leadInLength="0/1"  />
              <InterpolatingParam id="8353" interp="linr"  time="0/1" value="0" leadInLength="0/1"  />
              <InterpolatingParam id="8354" interp="linr"  time="0/1" value="0" leadInLength="0/1"  />
              <InterpolatingParam id="8355" interp="linr"  time="0/1" value="0" leadInLength="0/1"  />
             </VectorParam>
             <VectorParam id="8356"  name="geometryCrop">
              <InterpolatingParam id="8357" interp="linr"  time="-9999999/1" value="0" leadInLength="0/1"  />
              <InterpolatingParam id="8358" interp="linr"  time="-9999999/1" value="0" leadInLength="0/1"  />
              <InterpolatingParam id="8359" interp="linr"  time="-9999999/1" value="0" leadInLength="0/1"  />
              <InterpolatingParam id="8360" interp="linr"  time="-9999999/1" value="0" leadInLength="0/1"  />
             </VectorParam>
             <InterpolatingParam id="8361" interp="linr"  time="-9999999/1" value="1" leadInLength="0/1"  name="opacity"/>
            </Parameters>
            <Attributes>
             <Attribute id="8362" value="" name="ident"/>
            </Attributes>
            <MetaData>
             <entry key="WinSubProjectDisplayName" val=""/>
            </MetaData>
            <ExtraData>
             <Entry key="ZoomPanBin">
              <ZoomPanBin id="8363"  >
               <ZoomPanKeyframes>
                <ZoomPanKeyframe id="8364" timeRangeEnd="-9999999/1" timeRangeDuration="0/1" interpolaterName=""  />
               </ZoomPanKeyframes>
              </ZoomPanBin>
             </Entry>
            </ExtraData>
           </VMFile>
           <VMFile id="8365" start="9114" duration="259" scalar="1/1" mediaStart="27825/1" mediaDuration="259/1" trackNumber="0" src="4" >
            <Transformer>
             <VectorParam id="8366"  name="translation">
              <InterpolatingParam id="8367" interp="linr"  time="-9999999/1" value="0" leadInLength="0/1"  />
              <InterpolatingParam id="8368" interp="linr"  time="-9999999/1" value="0" leadInLength="0/1"  />
              <InterpolatingParam id="8369" interp="linr"  time="-9999999/1" value="0" leadInLength="0/1"  />
             </VectorParam>
             <VectorParam id="8370"  name="rotation">
              <InterpolatingParam id="8371" interp="linr"  time="-9999999/1" value="0" leadInLength="0/1"  />
              <InterpolatingParam id="8372" interp="linr"  time="-9999999/1" value="0" leadInLength="0/1"  />
              <InterpolatingParam id="8373" interp="linr"  time="-9999999/1" value="0" leadInLength="0/1"  />
             </VectorParam>
             <VectorParam id="8374"  name="shear">
              <InterpolatingParam id="8375" interp="linr"  time="-9999999/1" value="0" leadInLength="0/1"  />
              <InterpolatingParam id="8376" interp="linr"  time="-9999999/1" value="0" leadInLength="0/1"  />
              <InterpolatingParam id="8377" interp="linr"  time="-9999999/1" value="0" leadInLength="0/1"  />
             </VectorParam>
             <VectorParam id="8378"  name="scale">
              <InterpolatingParam id="8379" interp="linr"  time="-9999999/1" value="1" leadInLength="0/1"  />
              <InterpolatingParam id="8380" interp="linr"  time="-9999999/1" value="1" leadInLength="0/1"  />
              <InterpolatingParam id="8381" interp="linr"  time="-9999999/1" value="1" leadInLength="0/1"  />
             </VectorParam>
             <VectorParam id="8382"  name="anchor">
              <InterpolatingParam id="8383" interp="linr"  time="0/1" value="0" leadInLength="0/1"  />
              <InterpolatingParam id="8384" interp="linr"  time="0/1" value="0" leadInLength="0/1"  />
              <InterpolatingParam id="8385" interp="linr"  time="0/1" value="0" leadInLength="0/1"  />
             </VectorParam>
            </Transformer>
            <Parameters>
             <VectorParam id="8386"  name="sourceCrop">
              <InterpolatingParam id="8387" interp="linr"  time="0/1" value="0" leadInLength="0/1"  />
              <InterpolatingParam id="8388" interp="linr"  time="0/1" value="0" leadInLength="0/1"  />
              <InterpolatingParam id="8389" interp="linr"  time="0/1" value="0" leadInLength="0/1"  />
              <InterpolatingParam id="8390" interp="linr"  time="0/1" value="0" leadInLength="0/1"  />
             </VectorParam>
             <VectorParam id="8391"  name="geometryCrop">
              <InterpolatingParam id="8392" interp="linr"  time="-9999999/1" value="0" leadInLength="0/1"  />
              <InterpolatingParam id="8393" interp="linr"  time="-9999999/1" value="0" leadInLength="0/1"  />
              <InterpolatingParam id="8394" interp="linr"  time="-9999999/1" value="0" leadInLength="0/1"  />
              <InterpolatingParam id="8395" interp="linr"  time="-9999999/1" value="0" leadInLength="0/1"  />
             </VectorParam>
             <InterpolatingParam id="8396" interp="linr"  time="-9999999/1" value="1" leadInLength="0/1"  name="opacity"/>
            </Parameters>
            <Attributes>
             <Attribute id="8397" value="" name="ident"/>
            </Attributes>
            <MetaData>
             <entry key="WinSubProjectDisplayName" val=""/>
            </MetaData>
            <ExtraData>
             <Entry key="ZoomPanBin">
              <ZoomPanBin id="8398"  >
               <ZoomPanKeyframes>
                <ZoomPanKeyframe id="8399" timeRangeEnd="-9999999/1" timeRangeDuration="0/1" interpolaterName=""  />
               </ZoomPanKeyframes>
              </ZoomPanBin>
             </Entry>
            </ExtraData>
           </VMFile>
           <VMFile id="8400" start="9373" duration="157" scalar="1/1" mediaStart="28287/1" mediaDuration="157/1" trackNumber="0" src="4" >
            <Transformer>
             <VectorParam id="8401"  name="translation">
              <InterpolatingParam id="8402" interp="linr"  time="-9999999/1" value="0" leadInLength="0/1"  />
              <InterpolatingParam id="8403" interp="linr"  time="-9999999/1" value="0" leadInLength="0/1"  />
              <InterpolatingParam id="8404" interp="linr"  time="-9999999/1" value="0" leadInLength="0/1"  />
             </VectorParam>
             <VectorParam id="8405"  name="rotation">
              <InterpolatingParam id="8406" interp="linr"  time="-9999999/1" value="0" leadInLength="0/1"  />
              <InterpolatingParam id="8407" interp="linr"  time="-9999999/1" value="0" leadInLength="0/1"  />
              <InterpolatingParam id="8408" interp="linr"  time="-9999999/1" value="0" leadInLength="0/1"  />
             </VectorParam>
             <VectorParam id="8409"  name="shear">
              <InterpolatingParam id="8410" interp="linr"  time="-9999999/1" value="0" leadInLength="0/1"  />
              <InterpolatingParam id="8411" interp="linr"  time="-9999999/1" value="0" leadInLength="0/1"  />
              <InterpolatingParam id="8412" interp="linr"  time="-9999999/1" value="0" leadInLength="0/1"  />
             </VectorParam>
             <VectorParam id="8413"  name="scale">
              <InterpolatingParam id="8414" interp="linr"  time="-9999999/1" value="1" leadInLength="0/1"  />
              <InterpolatingParam id="8415" interp="linr"  time="-9999999/1" value="1" leadInLength="0/1"  />
              <InterpolatingParam id="8416" interp="linr"  time="-9999999/1" value="1" leadInLength="0/1"  />
             </VectorParam>
             <VectorParam id="8417"  name="anchor">
              <InterpolatingParam id="8418" interp="linr"  time="0/1" value="0" leadInLength="0/1"  />
              <InterpolatingParam id="8419" interp="linr"  time="0/1" value="0" leadInLength="0/1"  />
              <InterpolatingParam id="8420" interp="linr"  time="0/1" value="0" leadInLength="0/1"  />
             </VectorParam>
            </Transformer>
            <Parameters>
             <VectorParam id="8421"  name="sourceCrop">
              <InterpolatingParam id="8422" interp="linr"  time="0/1" value="0" leadInLength="0/1"  />
              <InterpolatingParam id="8423" interp="linr"  time="0/1" value="0" leadInLength="0/1"  />
              <InterpolatingParam id="8424" interp="linr"  time="0/1" value="0" leadInLength="0/1"  />
              <InterpolatingParam id="8425" interp="linr"  time="0/1" value="0" leadInLength="0/1"  />
             </VectorParam>
             <VectorParam id="8426"  name="geometryCrop">
              <InterpolatingParam id="8427" interp="linr"  time="-9999999/1" value="0" leadInLength="0/1"  />
              <InterpolatingParam id="8428" interp="linr"  time="-9999999/1" value="0" leadInLength="0/1"  />
              <InterpolatingParam id="8429" interp="linr"  time="-9999999/1" value="0" leadInLength="0/1"  />
              <InterpolatingParam id="8430" interp="linr"  time="-9999999/1" value="0" leadInLength="0/1"  />
             </VectorParam>
             <InterpolatingParam id="8431" interp="linr"  time="-9999999/1" value="1" leadInLength="0/1"  name="opacity"/>
            </Parameters>
            <Attributes>
             <Attribute id="8432" value="" name="ident"/>
            </Attributes>
            <MetaData>
             <entry key="WinSubProjectDisplayName" val=""/>
            </MetaData>
            <ExtraData>
             <Entry key="ZoomPanBin">
              <ZoomPanBin id="8433"  >
               <ZoomPanKeyframes>
                <ZoomPanKeyframe id="8434" timeRangeEnd="-9999999/1" timeRangeDuration="0/1" interpolaterName=""  />
               </ZoomPanKeyframes>
              </ZoomPanBin>
             </Entry>
            </ExtraData>
           </VMFile>
           <VMFile id="8435" start="9530" duration="290" scalar="1/1" mediaStart="28689/1" mediaDuration="290/1" trackNumber="0" src="4" >
            <Transformer>
             <VectorParam id="8436"  name="translation">
              <InterpolatingParam id="8437" interp="linr"  time="-9999999/1" value="0" leadInLength="0/1"  />
              <InterpolatingParam id="8438" interp="linr"  time="-9999999/1" value="0" leadInLength="0/1"  />
              <InterpolatingParam id="8439" interp="linr"  time="-9999999/1" value="0" leadInLength="0/1"  />
             </VectorParam>
             <VectorParam id="8440"  name="rotation">
              <InterpolatingParam id="8441" interp="linr"  time="-9999999/1" value="0" leadInLength="0/1"  />
              <InterpolatingParam id="8442" interp="linr"  time="-9999999/1" value="0" leadInLength="0/1"  />
              <InterpolatingParam id="8443" interp="linr"  time="-9999999/1" value="0" leadInLength="0/1"  />
             </VectorParam>
             <VectorParam id="8444"  name="shear">
              <InterpolatingParam id="8445" interp="linr"  time="-9999999/1" value="0" leadInLength="0/1"  />
              <InterpolatingParam id="8446" interp="linr"  time="-9999999/1" value="0" leadInLength="0/1"  />
              <InterpolatingParam id="8447" interp="linr"  time="-9999999/1" value="0" leadInLength="0/1"  />
             </VectorParam>
             <VectorParam id="8448"  name="scale">
              <InterpolatingParam id="8449" interp="linr"  time="-9999999/1" value="1" leadInLength="0/1"  />
              <InterpolatingParam id="8450" interp="linr"  time="-9999999/1" value="1" leadInLength="0/1"  />
              <InterpolatingParam id="8451" interp="linr"  time="-9999999/1" value="1" leadInLength="0/1"  />
             </VectorParam>
             <VectorParam id="8452"  name="anchor">
              <InterpolatingParam id="8453" interp="linr"  time="0/1" value="0" leadInLength="0/1"  />
              <InterpolatingParam id="8454" interp="linr"  time="0/1" value="0" leadInLength="0/1"  />
              <InterpolatingParam id="8455" interp="linr"  time="0/1" value="0" leadInLength="0/1"  />
             </VectorParam>
            </Transformer>
            <Parameters>
             <VectorParam id="8456"  name="sourceCrop">
              <InterpolatingParam id="8457" interp="linr"  time="0/1" value="0" leadInLength="0/1"  />
              <InterpolatingParam id="8458" interp="linr"  time="0/1" value="0" leadInLength="0/1"  />
              <InterpolatingParam id="8459" interp="linr"  time="0/1" value="0" leadInLength="0/1"  />
              <InterpolatingParam id="8460" interp="linr"  time="0/1" value="0" leadInLength="0/1"  />
             </VectorParam>
             <VectorParam id="8461"  name="geometryCrop">
              <InterpolatingParam id="8462" interp="linr"  time="-9999999/1" value="0" leadInLength="0/1"  />
              <InterpolatingParam id="8463" interp="linr"  time="-9999999/1" value="0" leadInLength="0/1"  />
              <InterpolatingParam id="8464" interp="linr"  time="-9999999/1" value="0" leadInLength="0/1"  />
              <InterpolatingParam id="8465" interp="linr"  time="-9999999/1" value="0" leadInLength="0/1"  />
             </VectorParam>
             <InterpolatingParam id="8466" interp="linr"  time="-9999999/1" value="1" leadInLength="0/1"  name="opacity"/>
            </Parameters>
            <Attributes>
             <Attribute id="8467" value="" name="ident"/>
            </Attributes>
            <MetaData>
             <entry key="WinSubProjectDisplayName" val=""/>
            </MetaData>
            <ExtraData>
             <Entry key="ZoomPanBin">
              <ZoomPanBin id="8468"  >
               <ZoomPanKeyframes>
                <ZoomPanKeyframe id="8469" timeRangeEnd="-9999999/1" timeRangeDuration="0/1" interpolaterName=""  />
               </ZoomPanKeyframes>
              </ZoomPanBin>
             </Entry>
            </ExtraData>
           </VMFile>
           <IMFile id="8470" start="9820" duration="60" scalar="1/1" mediaStart="29056/1" mediaDuration="1/1" trackNumber="0" src="4" trimStartSum="0/1" >
            <Transformer>
             <VectorParam id="8471"  name="translation">
              <InterpolatingParam id="8472" interp="linr"  time="-9999999/1" value="0" leadInLength="0/1"  />
              <InterpolatingParam id="8473" interp="linr"  time="-9999999/1" value="0" leadInLength="0/1"  />
              <InterpolatingParam id="8474" interp="linr"  time="-9999999/1" value="0" leadInLength="0/1"  />
             </VectorParam>
             <VectorParam id="8475"  name="rotation">
              <InterpolatingParam id="8476" interp="linr"  time="-9999999/1" value="0" leadInLength="0/1"  />
              <InterpolatingParam id="8477" interp="linr"  time="-9999999/1" value="0" leadInLength="0/1"  />
              <InterpolatingParam id="8478" interp="linr"  time="-9999999/1" value="0" leadInLength="0/1"  />
             </VectorParam>
             <VectorParam id="8479"  name="shear">
              <InterpolatingParam id="8480" interp="linr"  time="-9999999/1" value="0" leadInLength="0/1"  />
              <InterpolatingParam id="8481" interp="linr"  time="-9999999/1" value="0" leadInLength="0/1"  />
              <InterpolatingParam id="8482" interp="linr"  time="-9999999/1" value="0" leadInLength="0/1"  />
             </VectorParam>
             <VectorParam id="8483"  name="scale">
              <InterpolatingParam id="8484" interp="linr"  time="-9999999/1" value="1" leadInLength="0/1"  />
              <InterpolatingParam id="8485" interp="linr"  time="-9999999/1" value="1" leadInLength="0/1"  />
              <InterpolatingParam id="8486" interp="linr"  time="-9999999/1" value="1" leadInLength="0/1"  />
             </VectorParam>
             <VectorParam id="8487"  name="anchor">
              <InterpolatingParam id="8488" interp="linr"  time="0/1" value="0" leadInLength="0/1"  />
              <InterpolatingParam id="8489" interp="linr"  time="0/1" value="0" leadInLength="0/1"  />
              <InterpolatingParam id="8490" interp="linr"  time="0/1" value="0" leadInLength="0/1"  />
             </VectorParam>
            </Transformer>
            <Parameters>
             <VectorParam id="8491"  name="sourceCrop">
              <InterpolatingParam id="8492" interp="linr"  time="0/1" value="0" leadInLength="0/1"  />
              <InterpolatingParam id="8493" interp="linr"  time="0/1" value="0" leadInLength="0/1"  />
              <InterpolatingParam id="8494" interp="linr"  time="0/1" value="0" leadInLength="0/1"  />
              <InterpolatingParam id="8495" interp="linr"  time="0/1" value="0" leadInLength="0/1"  />
             </VectorParam>
             <VectorParam id="8496"  name="geometryCrop">
              <InterpolatingParam id="8497" interp="linr"  time="-9999999/1" value="0" leadInLength="0/1"  />
              <InterpolatingParam id="8498" interp="linr"  time="-9999999/1" value="0" leadInLength="0/1"  />
              <InterpolatingParam id="8499" interp="linr"  time="-9999999/1" value="0" leadInLength="0/1"  />
              <InterpolatingParam id="8500" interp="linr"  time="-9999999/1" value="0" leadInLength="0/1"  />
             </VectorParam>
             <InterpolatingParam id="8501" interp="linr"  time="-9999999/1" value="1" leadInLength="0/1"  name="opacity"/>
            </Parameters>
            <Attributes>
             <Attribute id="8502" value="" name="ident"/>
            </Attributes>
            <MetaData>
             <entry key="WinSubProjectDisplayName" val=""/>
            </MetaData>
            <ExtraData>
             <Entry key="ZoomPanBin">
              <ZoomPanBin id="8503"  >
               <ZoomPanKeyframes>
                <ZoomPanKeyframe id="8504" timeRangeEnd="-9999999/1" timeRangeDuration="0/1" interpolaterName=""  />
               </ZoomPanKeyframes>
              </ZoomPanBin>
             </Entry>
            </ExtraData>
           </IMFile>
           <VMFile id="8505" start="9880" duration="18" scalar="1/1" mediaStart="29056/1" mediaDuration="18/1" trackNumber="0" src="4" >
            <Transformer>
             <VectorParam id="8506"  name="translation">
              <InterpolatingParam id="8507" interp="linr"  time="-9999999/1" value="0" leadInLength="0/1"  />
              <InterpolatingParam id="8508" interp="linr"  time="-9999999/1" value="0" leadInLength="0/1"  />
              <InterpolatingParam id="8509" interp="linr"  time="-9999999/1" value="0" leadInLength="0/1"  />
             </VectorParam>
             <VectorParam id="8510"  name="rotation">
              <InterpolatingParam id="8511" interp="linr"  time="-9999999/1" value="0" leadInLength="0/1"  />
              <InterpolatingParam id="8512" interp="linr"  time="-9999999/1" value="0" leadInLength="0/1"  />
              <InterpolatingParam id="8513" interp="linr"  time="-9999999/1" value="0" leadInLength="0/1"  />
             </VectorParam>
             <VectorParam id="8514"  name="shear">
              <InterpolatingParam id="8515" interp="linr"  time="-9999999/1" value="0" leadInLength="0/1"  />
              <InterpolatingParam id="8516" interp="linr"  time="-9999999/1" value="0" leadInLength="0/1"  />
              <InterpolatingParam id="8517" interp="linr"  time="-9999999/1" value="0" leadInLength="0/1"  />
             </VectorParam>
             <VectorParam id="8518"  name="scale">
              <InterpolatingParam id="8519" interp="linr"  time="-9999999/1" value="1" leadInLength="0/1"  />
              <InterpolatingParam id="8520" interp="linr"  time="-9999999/1" value="1" leadInLength="0/1"  />
              <InterpolatingParam id="8521" interp="linr"  time="-9999999/1" value="1" leadInLength="0/1"  />
             </VectorParam>
             <VectorParam id="8522"  name="anchor">
              <InterpolatingParam id="8523" interp="linr"  time="0/1" value="0" leadInLength="0/1"  />
              <InterpolatingParam id="8524" interp="linr"  time="0/1" value="0" leadInLength="0/1"  />
              <InterpolatingParam id="8525" interp="linr"  time="0/1" value="0" leadInLength="0/1"  />
             </VectorParam>
            </Transformer>
            <Parameters>
             <VectorParam id="8526"  name="sourceCrop">
              <InterpolatingParam id="8527" interp="linr"  time="0/1" value="0" leadInLength="0/1"  />
              <InterpolatingParam id="8528" interp="linr"  time="0/1" value="0" leadInLength="0/1"  />
              <InterpolatingParam id="8529" interp="linr"  time="0/1" value="0" leadInLength="0/1"  />
              <InterpolatingParam id="8530" interp="linr"  time="0/1" value="0" leadInLength="0/1"  />
             </VectorParam>
             <VectorParam id="8531"  name="geometryCrop">
              <InterpolatingParam id="8532" interp="linr"  time="-9999999/1" value="0" leadInLength="0/1"  />
              <InterpolatingParam id="8533" interp="linr"  time="-9999999/1" value="0" leadInLength="0/1"  />
              <InterpolatingParam id="8534" interp="linr"  time="-9999999/1" value="0" leadInLength="0/1"  />
              <InterpolatingParam id="8535" interp="linr"  time="-9999999/1" value="0" leadInLength="0/1"  />
             </VectorParam>
             <InterpolatingParam id="8536" interp="linr"  time="-9999999/1" value="1" leadInLength="0/1"  name="opacity"/>
            </Parameters>
            <Attributes>
             <Attribute id="8537" value="" name="ident"/>
            </Attributes>
            <MetaData>
             <entry key="WinSubProjectDisplayName" val=""/>
            </MetaData>
            <ExtraData>
             <Entry key="ZoomPanBin">
              <ZoomPanBin id="8538"  >
               <ZoomPanKeyframes>
                <ZoomPanKeyframe id="8539" timeRangeEnd="-9999999/1" timeRangeDuration="0/1" interpolaterName=""  />
               </ZoomPanKeyframes>
              </ZoomPanBin>
             </Entry>
            </ExtraData>
           </VMFile>
           <IMFile id="8540" start="9898" duration="30" scalar="1/1" mediaStart="29074/1" mediaDuration="1/1" trackNumber="0" src="4" trimStartSum="0/1" >
            <Transformer>
             <VectorParam id="8541"  name="translation">
              <InterpolatingParam id="8542" interp="linr"  time="-9999999/1" value="0" leadInLength="0/1"  />
              <InterpolatingParam id="8543" interp="linr"  time="-9999999/1" value="0" leadInLength="0/1"  />
              <InterpolatingParam id="8544" interp="linr"  time="-9999999/1" value="0" leadInLength="0/1"  />
             </VectorParam>
             <VectorParam id="8545"  name="rotation">
              <InterpolatingParam id="8546" interp="linr"  time="-9999999/1" value="0" leadInLength="0/1"  />
              <InterpolatingParam id="8547" interp="linr"  time="-9999999/1" value="0" leadInLength="0/1"  />
              <InterpolatingParam id="8548" interp="linr"  time="-9999999/1" value="0" leadInLength="0/1"  />
             </VectorParam>
             <VectorParam id="8549"  name="shear">
              <InterpolatingParam id="8550" interp="linr"  time="-9999999/1" value="0" leadInLength="0/1"  />
              <InterpolatingParam id="8551" interp="linr"  time="-9999999/1" value="0" leadInLength="0/1"  />
              <InterpolatingParam id="8552" interp="linr"  time="-9999999/1" value="0" leadInLength="0/1"  />
             </VectorParam>
             <VectorParam id="8553"  name="scale">
              <InterpolatingParam id="8554" interp="linr"  time="-9999999/1" value="1" leadInLength="0/1"  />
              <InterpolatingParam id="8555" interp="linr"  time="-9999999/1" value="1" leadInLength="0/1"  />
              <InterpolatingParam id="8556" interp="linr"  time="-9999999/1" value="1" leadInLength="0/1"  />
             </VectorParam>
             <VectorParam id="8557"  name="anchor">
              <InterpolatingParam id="8558" interp="linr"  time="0/1" value="0" leadInLength="0/1"  />
              <InterpolatingParam id="8559" interp="linr"  time="0/1" value="0" leadInLength="0/1"  />
              <InterpolatingParam id="8560" interp="linr"  time="0/1" value="0" leadInLength="0/1"  />
             </VectorParam>
            </Transformer>
            <Parameters>
             <VectorParam id="8561"  name="sourceCrop">
              <InterpolatingParam id="8562" interp="linr"  time="0/1" value="0" leadInLength="0/1"  />
              <InterpolatingParam id="8563" interp="linr"  time="0/1" value="0" leadInLength="0/1"  />
              <InterpolatingParam id="8564" interp="linr"  time="0/1" value="0" leadInLength="0/1"  />
              <InterpolatingParam id="8565" interp="linr"  time="0/1" value="0" leadInLength="0/1"  />
             </VectorParam>
             <VectorParam id="8566"  name="geometryCrop">
              <InterpolatingParam id="8567" interp="linr"  time="-9999999/1" value="0" leadInLength="0/1"  />
              <InterpolatingParam id="8568" interp="linr"  time="-9999999/1" value="0" leadInLength="0/1"  />
              <InterpolatingParam id="8569" interp="linr"  time="-9999999/1" value="0" leadInLength="0/1"  />
              <InterpolatingParam id="8570" interp="linr"  time="-9999999/1" value="0" leadInLength="0/1"  />
             </VectorParam>
             <InterpolatingParam id="8571" interp="linr"  time="-9999999/1" value="1" leadInLength="0/1"  name="opacity"/>
            </Parameters>
            <Attributes>
             <Attribute id="8572" value="" name="ident"/>
            </Attributes>
            <MetaData>
             <entry key="WinSubProjectDisplayName" val=""/>
            </MetaData>
            <ExtraData>
             <Entry key="ZoomPanBin">
              <ZoomPanBin id="8573"  >
               <ZoomPanKeyframes>
                <ZoomPanKeyframe id="8574" timeRangeEnd="-9999999/1" timeRangeDuration="0/1" interpolaterName=""  />
               </ZoomPanKeyframes>
              </ZoomPanBin>
             </Entry>
            </ExtraData>
           </IMFile>
           <VMFile id="8575" start="9928" duration="1" scalar="1/1" mediaStart="29074/1" mediaDuration="1/1" trackNumber="0" src="4" >
            <Transformer>
             <VectorParam id="8576"  name="translation">
              <InterpolatingParam id="8577" interp="linr"  time="-9999999/1" value="0" leadInLength="0/1"  />
              <InterpolatingParam id="8578" interp="linr"  time="-9999999/1" value="0" leadInLength="0/1"  />
              <InterpolatingParam id="8579" interp="linr"  time="-9999999/1" value="0" leadInLength="0/1"  />
             </VectorParam>
             <VectorParam id="8580"  name="rotation">
              <InterpolatingParam id="8581" interp="linr"  time="-9999999/1" value="0" leadInLength="0/1"  />
              <InterpolatingParam id="8582" interp="linr"  time="-9999999/1" value="0" leadInLength="0/1"  />
              <InterpolatingParam id="8583" interp="linr"  time="-9999999/1" value="0" leadInLength="0/1"  />
             </VectorParam>
             <VectorParam id="8584"  name="shear">
              <InterpolatingParam id="8585" interp="linr"  time="-9999999/1" value="0" leadInLength="0/1"  />
              <InterpolatingParam id="8586" interp="linr"  time="-9999999/1" value="0" leadInLength="0/1"  />
              <InterpolatingParam id="8587" interp="linr"  time="-9999999/1" value="0" leadInLength="0/1"  />
             </VectorParam>
             <VectorParam id="8588"  name="scale">
              <InterpolatingParam id="8589" interp="linr"  time="-9999999/1" value="1" leadInLength="0/1"  />
              <InterpolatingParam id="8590" interp="linr"  time="-9999999/1" value="1" leadInLength="0/1"  />
              <InterpolatingParam id="8591" interp="linr"  time="-9999999/1" value="1" leadInLength="0/1"  />
             </VectorParam>
             <VectorParam id="8592"  name="anchor">
              <InterpolatingParam id="8593" interp="linr"  time="0/1" value="0" leadInLength="0/1"  />
              <InterpolatingParam id="8594" interp="linr"  time="0/1" value="0" leadInLength="0/1"  />
              <InterpolatingParam id="8595" interp="linr"  time="0/1" value="0" leadInLength="0/1"  />
             </VectorParam>
            </Transformer>
            <Parameters>
             <VectorParam id="8596"  name="sourceCrop">
              <InterpolatingParam id="8597" interp="linr"  time="0/1" value="0" leadInLength="0/1"  />
              <InterpolatingParam id="8598" interp="linr"  time="0/1" value="0" leadInLength="0/1"  />
              <InterpolatingParam id="8599" interp="linr"  time="0/1" value="0" leadInLength="0/1"  />
              <InterpolatingParam id="8600" interp="linr"  time="0/1" value="0" leadInLength="0/1"  />
             </VectorParam>
             <VectorParam id="8601"  name="geometryCrop">
              <InterpolatingParam id="8602" interp="linr"  time="-9999999/1" value="0" leadInLength="0/1"  />
              <InterpolatingParam id="8603" interp="linr"  time="-9999999/1" value="0" leadInLength="0/1"  />
              <InterpolatingParam id="8604" interp="linr"  time="-9999999/1" value="0" leadInLength="0/1"  />
              <InterpolatingParam id="8605" interp="linr"  time="-9999999/1" value="0" leadInLength="0/1"  />
             </VectorParam>
             <InterpolatingParam id="8606" interp="linr"  time="-9999999/1" value="1" leadInLength="0/1"  name="opacity"/>
            </Parameters>
            <Attributes>
             <Attribute id="8607" value="" name="ident"/>
            </Attributes>
            <MetaData>
             <entry key="WinSubProjectDisplayName" val=""/>
            </MetaData>
            <ExtraData>
             <Entry key="ZoomPanBin">
              <ZoomPanBin id="8608"  >
               <ZoomPanKeyframes>
                <ZoomPanKeyframe id="8609" timeRangeEnd="-9999999/1" timeRangeDuration="0/1" interpolaterName=""  />
               </ZoomPanKeyframes>
              </ZoomPanBin>
             </Entry>
            </ExtraData>
           </VMFile>
           <VMFile id="8610" start="9929" duration="42" scalar="1/1" mediaStart="29274/1" mediaDuration="42/1" trackNumber="0" src="4" >
            <Transformer>
             <VectorParam id="8611"  name="translation">
              <InterpolatingParam id="8612" interp="linr"  time="-9999999/1" value="0" leadInLength="0/1"  />
              <InterpolatingParam id="8613" interp="linr"  time="-9999999/1" value="0" leadInLength="0/1"  />
              <InterpolatingParam id="8614" interp="linr"  time="-9999999/1" value="0" leadInLength="0/1"  />
             </VectorParam>
             <VectorParam id="8615"  name="rotation">
              <InterpolatingParam id="8616" interp="linr"  time="-9999999/1" value="0" leadInLength="0/1"  />
              <InterpolatingParam id="8617" interp="linr"  time="-9999999/1" value="0" leadInLength="0/1"  />
              <InterpolatingParam id="8618" interp="linr"  time="-9999999/1" value="0" leadInLength="0/1"  />
             </VectorParam>
             <VectorParam id="8619"  name="shear">
              <InterpolatingParam id="8620" interp="linr"  time="-9999999/1" value="0" leadInLength="0/1"  />
              <InterpolatingParam id="8621" interp="linr"  time="-9999999/1" value="0" leadInLength="0/1"  />
              <InterpolatingParam id="8622" interp="linr"  time="-9999999/1" value="0" leadInLength="0/1"  />
             </VectorParam>
             <VectorParam id="8623"  name="scale">
              <InterpolatingParam id="8624" interp="linr"  time="-9999999/1" value="1" leadInLength="0/1"  />
              <InterpolatingParam id="8625" interp="linr"  time="-9999999/1" value="1" leadInLength="0/1"  />
              <InterpolatingParam id="8626" interp="linr"  time="-9999999/1" value="1" leadInLength="0/1"  />
             </VectorParam>
             <VectorParam id="8627"  name="anchor">
              <InterpolatingParam id="8628" interp="linr"  time="0/1" value="0" leadInLength="0/1"  />
              <InterpolatingParam id="8629" interp="linr"  time="0/1" value="0" leadInLength="0/1"  />
              <InterpolatingParam id="8630" interp="linr"  time="0/1" value="0" leadInLength="0/1"  />
             </VectorParam>
            </Transformer>
            <Parameters>
             <VectorParam id="8631"  name="sourceCrop">
              <InterpolatingParam id="8632" interp="linr"  time="0/1" value="0" leadInLength="0/1"  />
              <InterpolatingParam id="8633" interp="linr"  time="0/1" value="0" leadInLength="0/1"  />
              <InterpolatingParam id="8634" interp="linr"  time="0/1" value="0" leadInLength="0/1"  />
              <InterpolatingParam id="8635" interp="linr"  time="0/1" value="0" leadInLength="0/1"  />
             </VectorParam>
             <VectorParam id="8636"  name="geometryCrop">
              <InterpolatingParam id="8637" interp="linr"  time="-9999999/1" value="0" leadInLength="0/1"  />
              <InterpolatingParam id="8638" interp="linr"  time="-9999999/1" value="0" leadInLength="0/1"  />
              <InterpolatingParam id="8639" interp="linr"  time="-9999999/1" value="0" leadInLength="0/1"  />
              <InterpolatingParam id="8640" interp="linr"  time="-9999999/1" value="0" leadInLength="0/1"  />
             </VectorParam>
             <InterpolatingParam id="8641" interp="linr"  time="-9999999/1" value="1" leadInLength="0/1"  name="opacity"/>
            </Parameters>
            <Attributes>
             <Attribute id="8642" value="" name="ident"/>
            </Attributes>
            <MetaData>
             <entry key="WinSubProjectDisplayName" val=""/>
            </MetaData>
            <ExtraData>
             <Entry key="ZoomPanBin">
              <ZoomPanBin id="8643"  >
               <ZoomPanKeyframes>
                <ZoomPanKeyframe id="8644" timeRangeEnd="-9999999/1" timeRangeDuration="0/1" interpolaterName=""  />
               </ZoomPanKeyframes>
              </ZoomPanBin>
             </Entry>
            </ExtraData>
           </VMFile>
           <VMFile id="8645" start="9971" duration="147" scalar="1/1" mediaStart="29358/1" mediaDuration="147/1" trackNumber="0" src="4" >
            <Transformer>
             <VectorParam id="8646"  name="translation">
              <InterpolatingParam id="8647" interp="linr"  time="-9999999/1" value="0" leadInLength="0/1"  />
              <InterpolatingParam id="8648" interp="linr"  time="-9999999/1" value="0" leadInLength="0/1"  />
              <InterpolatingParam id="8649" interp="linr"  time="-9999999/1" value="0" leadInLength="0/1"  />
             </VectorParam>
             <VectorParam id="8650"  name="rotation">
              <InterpolatingParam id="8651" interp="linr"  time="-9999999/1" value="0" leadInLength="0/1"  />
              <InterpolatingParam id="8652" interp="linr"  time="-9999999/1" value="0" leadInLength="0/1"  />
              <InterpolatingParam id="8653" interp="linr"  time="-9999999/1" value="0" leadInLength="0/1"  />
             </VectorParam>
             <VectorParam id="8654"  name="shear">
              <InterpolatingParam id="8655" interp="linr"  time="-9999999/1" value="0" leadInLength="0/1"  />
              <InterpolatingParam id="8656" interp="linr"  time="-9999999/1" value="0" leadInLength="0/1"  />
              <InterpolatingParam id="8657" interp="linr"  time="-9999999/1" value="0" leadInLength="0/1"  />
             </VectorParam>
             <VectorParam id="8658"  name="scale">
              <InterpolatingParam id="8659" interp="linr"  time="-9999999/1" value="1" leadInLength="0/1"  />
              <InterpolatingParam id="8660" interp="linr"  time="-9999999/1" value="1" leadInLength="0/1"  />
              <InterpolatingParam id="8661" interp="linr"  time="-9999999/1" value="1" leadInLength="0/1"  />
             </VectorParam>
             <VectorParam id="8662"  name="anchor">
              <InterpolatingParam id="8663" interp="linr"  time="0/1" value="0" leadInLength="0/1"  />
              <InterpolatingParam id="8664" interp="linr"  time="0/1" value="0" leadInLength="0/1"  />
              <InterpolatingParam id="8665" interp="linr"  time="0/1" value="0" leadInLength="0/1"  />
             </VectorParam>
            </Transformer>
            <Parameters>
             <VectorParam id="8666"  name="sourceCrop">
              <InterpolatingParam id="8667" interp="linr"  time="0/1" value="0" leadInLength="0/1"  />
              <InterpolatingParam id="8668" interp="linr"  time="0/1" value="0" leadInLength="0/1"  />
              <InterpolatingParam id="8669" interp="linr"  time="0/1" value="0" leadInLength="0/1"  />
              <InterpolatingParam id="8670" interp="linr"  time="0/1" value="0" leadInLength="0/1"  />
             </VectorParam>
             <VectorParam id="8671"  name="geometryCrop">
              <InterpolatingParam id="8672" interp="linr"  time="-9999999/1" value="0" leadInLength="0/1"  />
              <InterpolatingParam id="8673" interp="linr"  time="-9999999/1" value="0" leadInLength="0/1"  />
              <InterpolatingParam id="8674" interp="linr"  time="-9999999/1" value="0" leadInLength="0/1"  />
              <InterpolatingParam id="8675" interp="linr"  time="-9999999/1" value="0" leadInLength="0/1"  />
             </VectorParam>
             <InterpolatingParam id="8676" interp="linr"  time="-9999999/1" value="1" leadInLength="0/1"  name="opacity"/>
            </Parameters>
            <Attributes>
             <Attribute id="8677" value="" name="ident"/>
            </Attributes>
            <MetaData>
             <entry key="WinSubProjectDisplayName" val=""/>
            </MetaData>
            <ExtraData>
             <Entry key="ZoomPanBin">
              <ZoomPanBin id="8678"  >
               <ZoomPanKeyframes>
                <ZoomPanKeyframe id="8679" timeRangeEnd="-9999999/1" timeRangeDuration="0/1" interpolaterName=""  />
               </ZoomPanKeyframes>
              </ZoomPanBin>
             </Entry>
            </ExtraData>
           </VMFile>
           <VMFile id="8680" start="10118" duration="580" scalar="1/1" mediaStart="29557/1" mediaDuration="580/1" trackNumber="0" src="4" >
            <Transformer>
             <VectorParam id="8681"  name="translation">
              <InterpolatingParam id="8682" interp="linr"  time="-9999999/1" value="0" leadInLength="0/1"  />
              <InterpolatingParam id="8683" interp="linr"  time="-9999999/1" value="0" leadInLength="0/1"  />
              <InterpolatingParam id="8684" interp="linr"  time="-9999999/1" value="0" leadInLength="0/1"  />
             </VectorParam>
             <VectorParam id="8685"  name="rotation">
              <InterpolatingParam id="8686" interp="linr"  time="-9999999/1" value="0" leadInLength="0/1"  />
              <InterpolatingParam id="8687" interp="linr"  time="-9999999/1" value="0" leadInLength="0/1"  />
              <InterpolatingParam id="8688" interp="linr"  time="-9999999/1" value="0" leadInLength="0/1"  />
             </VectorParam>
             <VectorParam id="8689"  name="shear">
              <InterpolatingParam id="8690" interp="linr"  time="-9999999/1" value="0" leadInLength="0/1"  />
              <InterpolatingParam id="8691" interp="linr"  time="-9999999/1" value="0" leadInLength="0/1"  />
              <InterpolatingParam id="8692" interp="linr"  time="-9999999/1" value="0" leadInLength="0/1"  />
             </VectorParam>
             <VectorParam id="8693"  name="scale">
              <InterpolatingParam id="8694" interp="linr"  time="-9999999/1" value="1" leadInLength="0/1"  />
              <InterpolatingParam id="8695" interp="linr"  time="-9999999/1" value="1" leadInLength="0/1"  />
              <InterpolatingParam id="8696" interp="linr"  time="-9999999/1" value="1" leadInLength="0/1"  />
             </VectorParam>
             <VectorParam id="8697"  name="anchor">
              <InterpolatingParam id="8698" interp="linr"  time="0/1" value="0" leadInLength="0/1"  />
              <InterpolatingParam id="8699" interp="linr"  time="0/1" value="0" leadInLength="0/1"  />
              <InterpolatingParam id="8700" interp="linr"  time="0/1" value="0" leadInLength="0/1"  />
             </VectorParam>
            </Transformer>
            <Parameters>
             <VectorParam id="8701"  name="sourceCrop">
              <InterpolatingParam id="8702" interp="linr"  time="0/1" value="0" leadInLength="0/1"  />
              <InterpolatingParam id="8703" interp="linr"  time="0/1" value="0" leadInLength="0/1"  />
              <InterpolatingParam id="8704" interp="linr"  time="0/1" value="0" leadInLength="0/1"  />
              <InterpolatingParam id="8705" interp="linr"  time="0/1" value="0" leadInLength="0/1"  />
             </VectorParam>
             <VectorParam id="8706"  name="geometryCrop">
              <InterpolatingParam id="8707" interp="linr"  time="-9999999/1" value="0" leadInLength="0/1"  />
              <InterpolatingParam id="8708" interp="linr"  time="-9999999/1" value="0" leadInLength="0/1"  />
              <InterpolatingParam id="8709" interp="linr"  time="-9999999/1" value="0" leadInLength="0/1"  />
              <InterpolatingParam id="8710" interp="linr"  time="-9999999/1" value="0" leadInLength="0/1"  />
             </VectorParam>
             <InterpolatingParam id="8711" interp="linr"  time="-9999999/1" value="1" leadInLength="0/1"  name="opacity"/>
            </Parameters>
            <Attributes>
             <Attribute id="8712" value="" name="ident"/>
            </Attributes>
            <MetaData>
             <entry key="WinSubProjectDisplayName" val=""/>
            </MetaData>
            <ExtraData>
             <Entry key="ZoomPanBin">
              <ZoomPanBin id="8713"  >
               <ZoomPanKeyframes>
                <ZoomPanKeyframe id="8714" timeRangeEnd="-9999999/1" timeRangeDuration="0/1" interpolaterName=""  />
               </ZoomPanKeyframes>
              </ZoomPanBin>
             </Entry>
            </ExtraData>
           </VMFile>
           <VMFile id="8715" start="10698" duration="25" scalar="1/1" mediaStart="30200/1" mediaDuration="25/1" trackNumber="0" src="4" >
            <Transformer>
             <VectorParam id="8716"  name="translation">
              <InterpolatingParam id="8717" interp="linr"  time="-9999999/1" value="0" leadInLength="0/1"  />
              <InterpolatingParam id="8718" interp="linr"  time="-9999999/1" value="0" leadInLength="0/1"  />
              <InterpolatingParam id="8719" interp="linr"  time="-9999999/1" value="0" leadInLength="0/1"  />
             </VectorParam>
             <VectorParam id="8720"  name="rotation">
              <InterpolatingParam id="8721" interp="linr"  time="-9999999/1" value="0" leadInLength="0/1"  />
              <InterpolatingParam id="8722" interp="linr"  time="-9999999/1" value="0" leadInLength="0/1"  />
              <InterpolatingParam id="8723" interp="linr"  time="-9999999/1" value="0" leadInLength="0/1"  />
             </VectorParam>
             <VectorParam id="8724"  name="shear">
              <InterpolatingParam id="8725" interp="linr"  time="-9999999/1" value="0" leadInLength="0/1"  />
              <InterpolatingParam id="8726" interp="linr"  time="-9999999/1" value="0" leadInLength="0/1"  />
              <InterpolatingParam id="8727" interp="linr"  time="-9999999/1" value="0" leadInLength="0/1"  />
             </VectorParam>
             <VectorParam id="8728"  name="scale">
              <InterpolatingParam id="8729" interp="linr"  time="-9999999/1" value="1" leadInLength="0/1"  />
              <InterpolatingParam id="8730" interp="linr"  time="-9999999/1" value="1" leadInLength="0/1"  />
              <InterpolatingParam id="8731" interp="linr"  time="-9999999/1" value="1" leadInLength="0/1"  />
             </VectorParam>
             <VectorParam id="8732"  name="anchor">
              <InterpolatingParam id="8733" interp="linr"  time="0/1" value="0" leadInLength="0/1"  />
              <InterpolatingParam id="8734" interp="linr"  time="0/1" value="0" leadInLength="0/1"  />
              <InterpolatingParam id="8735" interp="linr"  time="0/1" value="0" leadInLength="0/1"  />
             </VectorParam>
            </Transformer>
            <Parameters>
             <VectorParam id="8736"  name="sourceCrop">
              <InterpolatingParam id="8737" interp="linr"  time="0/1" value="0" leadInLength="0/1"  />
              <InterpolatingParam id="8738" interp="linr"  time="0/1" value="0" leadInLength="0/1"  />
              <InterpolatingParam id="8739" interp="linr"  time="0/1" value="0" leadInLength="0/1"  />
              <InterpolatingParam id="8740" interp="linr"  time="0/1" value="0" leadInLength="0/1"  />
             </VectorParam>
             <VectorParam id="8741"  name="geometryCrop">
              <InterpolatingParam id="8742" interp="linr"  time="-9999999/1" value="0" leadInLength="0/1"  />
              <InterpolatingParam id="8743" interp="linr"  time="-9999999/1" value="0" leadInLength="0/1"  />
              <InterpolatingParam id="8744" interp="linr"  time="-9999999/1" value="0" leadInLength="0/1"  />
              <InterpolatingParam id="8745" interp="linr"  time="-9999999/1" value="0" leadInLength="0/1"  />
             </VectorParam>
             <InterpolatingParam id="8746" interp="linr"  time="-9999999/1" value="1" leadInLength="0/1"  name="opacity"/>
            </Parameters>
            <Attributes>
             <Attribute id="8747" value="" name="ident"/>
            </Attributes>
            <MetaData>
             <entry key="WinSubProjectDisplayName" val=""/>
            </MetaData>
            <ExtraData>
             <Entry key="ZoomPanBin">
              <ZoomPanBin id="8748"  >
               <ZoomPanKeyframes>
                <ZoomPanKeyframe id="8749" timeRangeEnd="-9999999/1" timeRangeDuration="0/1" interpolaterName=""  />
               </ZoomPanKeyframes>
              </ZoomPanBin>
             </Entry>
            </ExtraData>
           </VMFile>
           <VMFile id="8750" start="10723" duration="119" scalar="1/1" mediaStart="30368/1" mediaDuration="119/1" trackNumber="0" src="4" >
            <Transformer>
             <VectorParam id="8751"  name="translation">
              <InterpolatingParam id="8752" interp="linr"  time="-9999999/1" value="0" leadInLength="0/1"  />
              <InterpolatingParam id="8753" interp="linr"  time="-9999999/1" value="0" leadInLength="0/1"  />
              <InterpolatingParam id="8754" interp="linr"  time="-9999999/1" value="0" leadInLength="0/1"  />
             </VectorParam>
             <VectorParam id="8755"  name="rotation">
              <InterpolatingParam id="8756" interp="linr"  time="-9999999/1" value="0" leadInLength="0/1"  />
              <InterpolatingParam id="8757" interp="linr"  time="-9999999/1" value="0" leadInLength="0/1"  />
              <InterpolatingParam id="8758" interp="linr"  time="-9999999/1" value="0" leadInLength="0/1"  />
             </VectorParam>
             <VectorParam id="8759"  name="shear">
              <InterpolatingParam id="8760" interp="linr"  time="-9999999/1" value="0" leadInLength="0/1"  />
              <InterpolatingParam id="8761" interp="linr"  time="-9999999/1" value="0" leadInLength="0/1"  />
              <InterpolatingParam id="8762" interp="linr"  time="-9999999/1" value="0" leadInLength="0/1"  />
             </VectorParam>
             <VectorParam id="8763"  name="scale">
              <InterpolatingParam id="8764" interp="linr"  time="-9999999/1" value="1" leadInLength="0/1"  />
              <InterpolatingParam id="8765" interp="linr"  time="-9999999/1" value="1" leadInLength="0/1"  />
              <InterpolatingParam id="8766" interp="linr"  time="-9999999/1" value="1" leadInLength="0/1"  />
             </VectorParam>
             <VectorParam id="8767"  name="anchor">
              <InterpolatingParam id="8768" interp="linr"  time="0/1" value="0" leadInLength="0/1"  />
              <InterpolatingParam id="8769" interp="linr"  time="0/1" value="0" leadInLength="0/1"  />
              <InterpolatingParam id="8770" interp="linr"  time="0/1" value="0" leadInLength="0/1"  />
             </VectorParam>
            </Transformer>
            <Parameters>
             <VectorParam id="8771"  name="sourceCrop">
              <InterpolatingParam id="8772" interp="linr"  time="0/1" value="0" leadInLength="0/1"  />
              <InterpolatingParam id="8773" interp="linr"  time="0/1" value="0" leadInLength="0/1"  />
              <InterpolatingParam id="8774" interp="linr"  time="0/1" value="0" leadInLength="0/1"  />
              <InterpolatingParam id="8775" interp="linr"  time="0/1" value="0" leadInLength="0/1"  />
             </VectorParam>
             <VectorParam id="8776"  name="geometryCrop">
              <InterpolatingParam id="8777" interp="linr"  time="-9999999/1" value="0" leadInLength="0/1"  />
              <InterpolatingParam id="8778" interp="linr"  time="-9999999/1" value="0" leadInLength="0/1"  />
              <InterpolatingParam id="8779" interp="linr"  time="-9999999/1" value="0" leadInLength="0/1"  />
              <InterpolatingParam id="8780" interp="linr"  time="-9999999/1" value="0" leadInLength="0/1"  />
             </VectorParam>
             <InterpolatingParam id="8781" interp="linr"  time="-9999999/1" value="1" leadInLength="0/1"  name="opacity"/>
            </Parameters>
            <Attributes>
             <Attribute id="8782" value="" name="ident"/>
            </Attributes>
            <MetaData>
             <entry key="WinSubProjectDisplayName" val=""/>
            </MetaData>
            <ExtraData>
             <Entry key="ZoomPanBin">
              <ZoomPanBin id="8783"  >
               <ZoomPanKeyframes>
                <ZoomPanKeyframe id="8784" timeRangeEnd="-9999999/1" timeRangeDuration="0/1" interpolaterName=""  />
               </ZoomPanKeyframes>
              </ZoomPanBin>
             </Entry>
            </ExtraData>
           </VMFile>
           <VMFile id="8785" start="10842" duration="411" scalar="1/1" mediaStart="30756/1" mediaDuration="411/1" trackNumber="0" src="4" >
            <Transformer>
             <VectorParam id="8786"  name="translation">
              <InterpolatingParam id="8787" interp="linr"  time="-9999999/1" value="0" leadInLength="0/1"  />
              <InterpolatingParam id="8788" interp="linr"  time="-9999999/1" value="0" leadInLength="0/1"  />
              <InterpolatingParam id="8789" interp="linr"  time="-9999999/1" value="0" leadInLength="0/1"  />
             </VectorParam>
             <VectorParam id="8790"  name="rotation">
              <InterpolatingParam id="8791" interp="linr"  time="-9999999/1" value="0" leadInLength="0/1"  />
              <InterpolatingParam id="8792" interp="linr"  time="-9999999/1" value="0" leadInLength="0/1"  />
              <InterpolatingParam id="8793" interp="linr"  time="-9999999/1" value="0" leadInLength="0/1"  />
             </VectorParam>
             <VectorParam id="8794"  name="shear">
              <InterpolatingParam id="8795" interp="linr"  time="-9999999/1" value="0" leadInLength="0/1"  />
              <InterpolatingParam id="8796" interp="linr"  time="-9999999/1" value="0" leadInLength="0/1"  />
              <InterpolatingParam id="8797" interp="linr"  time="-9999999/1" value="0" leadInLength="0/1"  />
             </VectorParam>
             <VectorParam id="8798"  name="scale">
              <InterpolatingParam id="8799" interp="linr"  time="-9999999/1" value="1" leadInLength="0/1"  />
              <InterpolatingParam id="8800" interp="linr"  time="-9999999/1" value="1" leadInLength="0/1"  />
              <InterpolatingParam id="8801" interp="linr"  time="-9999999/1" value="1" leadInLength="0/1"  />
             </VectorParam>
             <VectorParam id="8802"  name="anchor">
              <InterpolatingParam id="8803" interp="linr"  time="0/1" value="0" leadInLength="0/1"  />
              <InterpolatingParam id="8804" interp="linr"  time="0/1" value="0" leadInLength="0/1"  />
              <InterpolatingParam id="8805" interp="linr"  time="0/1" value="0" leadInLength="0/1"  />
             </VectorParam>
            </Transformer>
            <Parameters>
             <VectorParam id="8806"  name="sourceCrop">
              <InterpolatingParam id="8807" interp="linr"  time="0/1" value="0" leadInLength="0/1"  />
              <InterpolatingParam id="8808" interp="linr"  time="0/1" value="0" leadInLength="0/1"  />
              <InterpolatingParam id="8809" interp="linr"  time="0/1" value="0" leadInLength="0/1"  />
              <InterpolatingParam id="8810" interp="linr"  time="0/1" value="0" leadInLength="0/1"  />
             </VectorParam>
             <VectorParam id="8811"  name="geometryCrop">
              <InterpolatingParam id="8812" interp="linr"  time="-9999999/1" value="0" leadInLength="0/1"  />
              <InterpolatingParam id="8813" interp="linr"  time="-9999999/1" value="0" leadInLength="0/1"  />
              <InterpolatingParam id="8814" interp="linr"  time="-9999999/1" value="0" leadInLength="0/1"  />
              <InterpolatingParam id="8815" interp="linr"  time="-9999999/1" value="0" leadInLength="0/1"  />
             </VectorParam>
             <InterpolatingParam id="8816" interp="linr"  time="-9999999/1" value="1" leadInLength="0/1"  name="opacity"/>
            </Parameters>
            <Attributes>
             <Attribute id="8817" value="" name="ident"/>
            </Attributes>
            <MetaData>
             <entry key="WinSubProjectDisplayName" val=""/>
            </MetaData>
            <ExtraData>
             <Entry key="ZoomPanBin">
              <ZoomPanBin id="8818"  >
               <ZoomPanKeyframes>
                <ZoomPanKeyframe id="8819" timeRangeEnd="-9999999/1" timeRangeDuration="0/1" interpolaterName=""  />
               </ZoomPanKeyframes>
              </ZoomPanBin>
             </Entry>
            </ExtraData>
           </VMFile>
          </Medias>
         </GenericTrack>
        </StitchedMedia>
        <StitchedMedia id="8820" start="2567" duration="301" scalar="4153603/8309312" mediaStart="13905339/2713" mediaDuration="2501102912/4153603" minMediaStart="0/1" >
         <Transformer>
          <VectorParam id="8821"  name="translation">
           <InterpolatingParam id="8822" interp="linr"  time="-9999999/1" value="0" leadInLength="0/1"  interpolater="leadin-linr"  />
           <InterpolatingParam id="8823" interp="linr"  time="-9999999/1" value="0" leadInLength="0/1"  interpolater="leadin-linr"  />
           <InterpolatingParam id="8824" interp="linr"  time="-9999999/1" value="0" leadInLength="0/1"  interpolater="leadin-linr"  />
          </VectorParam>
          <VectorParam id="8825"  name="rotation">
           <InterpolatingParam id="8826" interp="linr"  time="-9999999/1" value="0" leadInLength="0/1"  interpolater="leadin-linr"  />
           <InterpolatingParam id="8827" interp="linr"  time="-9999999/1" value="0" leadInLength="0/1"  interpolater="leadin-linr"  />
           <InterpolatingParam id="8828" interp="linr"  time="-9999999/1" value="0" leadInLength="0/1"  interpolater="leadin-linr"  />
          </VectorParam>
          <VectorParam id="8829"  name="shear">
           <InterpolatingParam id="8830" interp="linr"  time="-9999999/1" value="0" leadInLength="0/1"  interpolater="leadin-linr"  />
           <InterpolatingParam id="8831" interp="linr"  time="-9999999/1" value="0" leadInLength="0/1"  interpolater="leadin-linr"  />
           <InterpolatingParam id="8832" interp="linr"  time="-9999999/1" value="0" leadInLength="0/1"  interpolater="leadin-linr"  />
          </VectorParam>
          <VectorParam id="8833"  name="scale">
           <InterpolatingParam id="8834" interp="linr"  time="-9999999/1" value="1" leadInLength="0/1"  interpolater="leadin-linr"  />
           <InterpolatingParam id="8835" interp="linr"  time="-9999999/1" value="1" leadInLength="0/1"  interpolater="leadin-linr"  />
           <InterpolatingParam id="8836" interp="linr"  time="-9999999/1" value="1" leadInLength="0/1"  interpolater="leadin-linr"  />
          </VectorParam>
          <VectorParam id="8837"  name="anchor">
           <InterpolatingParam id="8838" interp="linr"  >
            <Keyframes>
            <Keyframe id="8839"  time="0/1" value="0" leadInLength="0/1"  />
            <Keyframe id="8840"  time="32931335377/7971776" value="0" leadInLength="0/1"  />
            <Keyframe id="8841"  time="4328/1" value="0" leadInLength="0/1"  />
            <Keyframe id="8842"  time="4457/1" value="0" leadInLength="0/1"  />
            <Keyframe id="8843"  time="469608558155/47830656" value="0" leadInLength="0/1"  />
            <Keyframe id="8844"  time="473339349323/47830656" value="0" leadInLength="0/1"  />
            </Keyframes>
           </InterpolatingParam>
           <InterpolatingParam id="8845" interp="linr"  >
            <Keyframes>
            <Keyframe id="8846"  time="0/1" value="0" leadInLength="0/1"  />
            <Keyframe id="8847"  time="32931335377/7971776" value="0" leadInLength="0/1"  />
            <Keyframe id="8848"  time="4328/1" value="0" leadInLength="0/1"  />
            <Keyframe id="8849"  time="4457/1" value="0" leadInLength="0/1"  />
            <Keyframe id="8850"  time="469608558155/47830656" value="0" leadInLength="0/1"  />
            <Keyframe id="8851"  time="473339349323/47830656" value="0" leadInLength="0/1"  />
            </Keyframes>
           </InterpolatingParam>
           <InterpolatingParam id="8852" interp="linr"  >
            <Keyframes>
            <Keyframe id="8853"  time="0/1" value="0" leadInLength="0/1"  />
            <Keyframe id="8854"  time="32931335377/7971776" value="0" leadInLength="0/1"  />
            <Keyframe id="8855"  time="4328/1" value="0" leadInLength="0/1"  />
            <Keyframe id="8856"  time="4457/1" value="0" leadInLength="0/1"  />
            <Keyframe id="8857"  time="469608558155/47830656" value="0" leadInLength="0/1"  />
            <Keyframe id="8858"  time="473339349323/47830656" value="0" leadInLength="0/1"  />
            </Keyframes>
           </InterpolatingParam>
          </VectorParam>
         </Transformer>
         <Parameters>
          <VectorParam id="8859"  name="sourceCrop">
           <InterpolatingParam id="8860" interp="linr"  >
            <Keyframes>
            <Keyframe id="8861"  time="0/1" value="0" leadInLength="0/1"  />
            <Keyframe id="8862"  time="32931335377/7971776" value="0" leadInLength="0/1"  />
            <Keyframe id="8863"  time="4328/1" value="0" leadInLength="0/1"  />
            <Keyframe id="8864"  time="4457/1" value="0" leadInLength="0/1"  />
            <Keyframe id="8865"  time="469608558155/47830656" value="0" leadInLength="0/1"  />
            <Keyframe id="8866"  time="473339349323/47830656" value="0" leadInLength="0/1"  />
            </Keyframes>
           </InterpolatingParam>
           <InterpolatingParam id="8867" interp="linr"  >
            <Keyframes>
            <Keyframe id="8868"  time="0/1" value="0" leadInLength="0/1"  />
            <Keyframe id="8869"  time="32931335377/7971776" value="0" leadInLength="0/1"  />
            <Keyframe id="8870"  time="4328/1" value="0" leadInLength="0/1"  />
            <Keyframe id="8871"  time="4457/1" value="0" leadInLength="0/1"  />
            <Keyframe id="8872"  time="469608558155/47830656" value="0" leadInLength="0/1"  />
            <Keyframe id="8873"  time="473339349323/47830656" value="0" leadInLength="0/1"  />
            </Keyframes>
           </InterpolatingParam>
           <InterpolatingParam id="8874" interp="linr"  >
            <Keyframes>
            <Keyframe id="8875"  time="0/1" value="0" leadInLength="0/1"  />
            <Keyframe id="8876"  time="32931335377/7971776" value="0" leadInLength="0/1"  />
            <Keyframe id="8877"  time="4328/1" value="0" leadInLength="0/1"  />
            <Keyframe id="8878"  time="4457/1" value="0" leadInLength="0/1"  />
            <Keyframe id="8879"  time="469608558155/47830656" value="0" leadInLength="0/1"  />
            <Keyframe id="8880"  time="473339349323/47830656" value="0" leadInLength="0/1"  />
            </Keyframes>
           </InterpolatingParam>
           <InterpolatingParam id="8881" interp="linr"  >
            <Keyframes>
            <Keyframe id="8882"  time="0/1" value="0" leadInLength="0/1"  />
            <Keyframe id="8883"  time="32931335377/7971776" value="0" leadInLength="0/1"  />
            <Keyframe id="8884"  time="4328/1" value="0" leadInLength="0/1"  />
            <Keyframe id="8885"  time="4457/1" value="0" leadInLength="0/1"  />
            <Keyframe id="8886"  time="469608558155/47830656" value="0" leadInLength="0/1"  />
            <Keyframe id="8887"  time="473339349323/47830656" value="0" leadInLength="0/1"  />
            </Keyframes>
           </InterpolatingParam>
          </VectorParam>
          <VectorParam id="8888"  name="geometryCrop">
           <InterpolatingParam id="8889" interp="linr"  time="-9999999/1" value="0" leadInLength="0/1"  interpolater="leadin-linr"  />
           <InterpolatingParam id="8890" interp="linr"  time="-9999999/1" value="0" leadInLength="0/1"  interpolater="leadin-linr"  />
           <InterpolatingParam id="8891" interp="linr"  time="-9999999/1" value="0" leadInLength="0/1"  interpolater="leadin-linr"  />
           <InterpolatingParam id="8892" interp="linr"  time="-9999999/1" value="0" leadInLength="0/1"  interpolater="leadin-linr"  />
          </VectorParam>
          <InterpolatingParam id="8893" interp="linr"  time="-9999999/1" value="1" leadInLength="0/1"  interpolater="leadin-linr"  name="opacity"/>
          <InterpolatingParam id="8894" interp="linr"  time="0/1" value="1" leadInLength="0/1"  name="cursorOpacity"/>
          <InterpolatingParam id="8895" interp="linr"  time="0/1" value="1" leadInLength="0/1"  name="cursorScale"/>
          <Parameter id="8896"  name="captions"/>
         </Parameters>
         <Attributes>
          <Attribute id="8897" value="" name="ident"/>
         </Attributes>
         <MetaData>
          <entry key="WinSubProjectDisplayName" val=""/>
         </MetaData>
         <ExtraData>
          <Entry key="ZoomPanBin">
           <ZoomPanBin id="8898"  >
            <ZoomPanKeyframes>
             <ZoomPanKeyframe id="8899" timeRangeEnd="-9999999/1" timeRangeDuration="0/1" interpolaterName="linr"  />
            </ZoomPanKeyframes>
           </ZoomPanBin>
          </Entry>
          <Entry key="CursorEffectBin">
           <CursorEffectBin id="8900"  >
            <CursorEffectKeyframes>
            </CursorEffectKeyframes>
           </CursorEffectBin>
          </Entry>
         </ExtraData>
         <GenericTrack id="8901"  >
          <Attributes>
           <Attribute id="8902" value="" name="ident"/>
           <Attribute id="8903" value="0" name="audioMuted"/>
           <Attribute id="8904" value="0" name="videoHidden"/>
          </Attributes>
          <MetaData>
           <entry key="IsLocked" val="False"/>
           <entry key="WinTrackHeight" val="0"/>
          </MetaData>
          <Medias>
           <VMFile id="8905" start="0" duration="4131" scalar="1/1" mediaStart="0/1" mediaDuration="4131/1" trackNumber="0" src="4" >
            <Transformer>
             <VectorParam id="8906"  name="translation">
              <InterpolatingParam id="8907" interp="linr"  time="-9999999/1" value="0" leadInLength="0/1"  />
              <InterpolatingParam id="8908" interp="linr"  time="-9999999/1" value="0" leadInLength="0/1"  />
              <InterpolatingParam id="8909" interp="linr"  time="-9999999/1" value="0" leadInLength="0/1"  />
             </VectorParam>
             <VectorParam id="8910"  name="rotation">
              <InterpolatingParam id="8911" interp="linr"  time="-9999999/1" value="0" leadInLength="0/1"  />
              <InterpolatingParam id="8912" interp="linr"  time="-9999999/1" value="0" leadInLength="0/1"  />
              <InterpolatingParam id="8913" interp="linr"  time="-9999999/1" value="0" leadInLength="0/1"  />
             </VectorParam>
             <VectorParam id="8914"  name="shear">
              <InterpolatingParam id="8915" interp="linr"  time="-9999999/1" value="0" leadInLength="0/1"  />
              <InterpolatingParam id="8916" interp="linr"  time="-9999999/1" value="0" leadInLength="0/1"  />
              <InterpolatingParam id="8917" interp="linr"  time="-9999999/1" value="0" leadInLength="0/1"  />
             </VectorParam>
             <VectorParam id="8918"  name="scale">
              <InterpolatingParam id="8919" interp="linr"  time="-9999999/1" value="1" leadInLength="0/1"  />
              <InterpolatingParam id="8920" interp="linr"  time="-9999999/1" value="1" leadInLength="0/1"  />
              <InterpolatingParam id="8921" interp="linr"  time="-9999999/1" value="1" leadInLength="0/1"  />
             </VectorParam>
             <VectorParam id="8922"  name="anchor">
              <InterpolatingParam id="8923" interp="linr"  time="0/1" value="0" leadInLength="0/1"  />
              <InterpolatingParam id="8924" interp="linr"  time="0/1" value="0" leadInLength="0/1"  />
              <InterpolatingParam id="8925" interp="linr"  time="0/1" value="0" leadInLength="0/1"  />
             </VectorParam>
            </Transformer>
            <Parameters>
             <VectorParam id="8926"  name="sourceCrop">
              <InterpolatingParam id="8927" interp="linr"  time="0/1" value="0" leadInLength="0/1"  />
              <InterpolatingParam id="8928" interp="linr"  time="0/1" value="0" leadInLength="0/1"  />
              <InterpolatingParam id="8929" interp="linr"  time="0/1" value="0" leadInLength="0/1"  />
              <InterpolatingParam id="8930" interp="linr"  time="0/1" value="0" leadInLength="0/1"  />
             </VectorParam>
             <VectorParam id="8931"  name="geometryCrop">
              <InterpolatingParam id="8932" interp="linr"  time="-9999999/1" value="0" leadInLength="0/1"  />
              <InterpolatingParam id="8933" interp="linr"  time="-9999999/1" value="0" leadInLength="0/1"  />
              <InterpolatingParam id="8934" interp="linr"  time="-9999999/1" value="0" leadInLength="0/1"  />
              <InterpolatingParam id="8935" interp="linr"  time="-9999999/1" value="0" leadInLength="0/1"  />
             </VectorParam>
             <InterpolatingParam id="8936" interp="linr"  time="-9999999/1" value="1" leadInLength="0/1"  name="opacity"/>
            </Parameters>
            <Attributes>
             <Attribute id="8937" value="" name="ident"/>
            </Attributes>
            <MetaData>
             <entry key="WinSubProjectDisplayName" val=""/>
            </MetaData>
            <ExtraData>
             <Entry key="ZoomPanBin">
              <ZoomPanBin id="8938"  >
               <ZoomPanKeyframes>
                <ZoomPanKeyframe id="8939" timeRangeEnd="-9999999/1" timeRangeDuration="0/1" interpolaterName=""  />
               </ZoomPanKeyframes>
              </ZoomPanBin>
             </Entry>
            </ExtraData>
           </VMFile>
           <IMFile id="8940" start="4131" duration="12" scalar="1/1" mediaStart="4130/1" mediaDuration="1/1" trackNumber="0" src="4" trimStartSum="0/1" >
            <Transformer>
             <VectorParam id="8941"  name="translation">
              <InterpolatingParam id="8942" interp="linr"  time="-9999999/1" value="0" leadInLength="0/1"  />
              <InterpolatingParam id="8943" interp="linr"  time="-9999999/1" value="0" leadInLength="0/1"  />
              <InterpolatingParam id="8944" interp="linr"  time="-9999999/1" value="0" leadInLength="0/1"  />
             </VectorParam>
             <VectorParam id="8945"  name="rotation">
              <InterpolatingParam id="8946" interp="linr"  time="-9999999/1" value="0" leadInLength="0/1"  />
              <InterpolatingParam id="8947" interp="linr"  time="-9999999/1" value="0" leadInLength="0/1"  />
              <InterpolatingParam id="8948" interp="linr"  time="-9999999/1" value="0" leadInLength="0/1"  />
             </VectorParam>
             <VectorParam id="8949"  name="shear">
              <InterpolatingParam id="8950" interp="linr"  time="-9999999/1" value="0" leadInLength="0/1"  />
              <InterpolatingParam id="8951" interp="linr"  time="-9999999/1" value="0" leadInLength="0/1"  />
              <InterpolatingParam id="8952" interp="linr"  time="-9999999/1" value="0" leadInLength="0/1"  />
             </VectorParam>
             <VectorParam id="8953"  name="scale">
              <InterpolatingParam id="8954" interp="linr"  time="-9999999/1" value="1" leadInLength="0/1"  />
              <InterpolatingParam id="8955" interp="linr"  time="-9999999/1" value="1" leadInLength="0/1"  />
              <InterpolatingParam id="8956" interp="linr"  time="-9999999/1" value="1" leadInLength="0/1"  />
             </VectorParam>
             <VectorParam id="8957"  name="anchor">
              <InterpolatingParam id="8958" interp="linr"  time="0/1" value="0" leadInLength="0/1"  />
              <InterpolatingParam id="8959" interp="linr"  time="0/1" value="0" leadInLength="0/1"  />
              <InterpolatingParam id="8960" interp="linr"  time="0/1" value="0" leadInLength="0/1"  />
             </VectorParam>
            </Transformer>
            <Parameters>
             <VectorParam id="8961"  name="sourceCrop">
              <InterpolatingParam id="8962" interp="linr"  time="0/1" value="0" leadInLength="0/1"  />
              <InterpolatingParam id="8963" interp="linr"  time="0/1" value="0" leadInLength="0/1"  />
              <InterpolatingParam id="8964" interp="linr"  time="0/1" value="0" leadInLength="0/1"  />
              <InterpolatingParam id="8965" interp="linr"  time="0/1" value="0" leadInLength="0/1"  />
             </VectorParam>
             <VectorParam id="8966"  name="geometryCrop">
              <InterpolatingParam id="8967" interp="linr"  time="-9999999/1" value="0" leadInLength="0/1"  />
              <InterpolatingParam id="8968" interp="linr"  time="-9999999/1" value="0" leadInLength="0/1"  />
              <InterpolatingParam id="8969" interp="linr"  time="-9999999/1" value="0" leadInLength="0/1"  />
              <InterpolatingParam id="8970" interp="linr"  time="-9999999/1" value="0" leadInLength="0/1"  />
             </VectorParam>
             <InterpolatingParam id="8971" interp="linr"  time="-9999999/1" value="1" leadInLength="0/1"  name="opacity"/>
            </Parameters>
            <Attributes>
             <Attribute id="8972" value="" name="ident"/>
            </Attributes>
            <MetaData>
             <entry key="WinSubProjectDisplayName" val=""/>
            </MetaData>
            <ExtraData>
             <Entry key="ZoomPanBin">
              <ZoomPanBin id="8973"  >
               <ZoomPanKeyframes>
                <ZoomPanKeyframe id="8974" timeRangeEnd="-9999999/1" timeRangeDuration="0/1" interpolaterName=""  />
               </ZoomPanKeyframes>
              </ZoomPanBin>
             </Entry>
            </ExtraData>
           </IMFile>
           <VMFile id="8975" start="4143" duration="185" scalar="1/1" mediaStart="4130/1" mediaDuration="185/1" trackNumber="0" src="4" >
            <Transformer>
             <VectorParam id="8976"  name="translation">
              <InterpolatingParam id="8977" interp="linr"  time="-9999999/1" value="0" leadInLength="0/1"  />
              <InterpolatingParam id="8978" interp="linr"  time="-9999999/1" value="0" leadInLength="0/1"  />
              <InterpolatingParam id="8979" interp="linr"  time="-9999999/1" value="0" leadInLength="0/1"  />
             </VectorParam>
             <VectorParam id="8980"  name="rotation">
              <InterpolatingParam id="8981" interp="linr"  time="-9999999/1" value="0" leadInLength="0/1"  />
              <InterpolatingParam id="8982" interp="linr"  time="-9999999/1" value="0" leadInLength="0/1"  />
              <InterpolatingParam id="8983" interp="linr"  time="-9999999/1" value="0" leadInLength="0/1"  />
             </VectorParam>
             <VectorParam id="8984"  name="shear">
              <InterpolatingParam id="8985" interp="linr"  time="-9999999/1" value="0" leadInLength="0/1"  />
              <InterpolatingParam id="8986" interp="linr"  time="-9999999/1" value="0" leadInLength="0/1"  />
              <InterpolatingParam id="8987" interp="linr"  time="-9999999/1" value="0" leadInLength="0/1"  />
             </VectorParam>
             <VectorParam id="8988"  name="scale">
              <InterpolatingParam id="8989" interp="linr"  time="-9999999/1" value="1" leadInLength="0/1"  />
              <InterpolatingParam id="8990" interp="linr"  time="-9999999/1" value="1" leadInLength="0/1"  />
              <InterpolatingParam id="8991" interp="linr"  time="-9999999/1" value="1" leadInLength="0/1"  />
             </VectorParam>
             <VectorParam id="8992"  name="anchor">
              <InterpolatingParam id="8993" interp="linr"  time="0/1" value="0" leadInLength="0/1"  />
              <InterpolatingParam id="8994" interp="linr"  time="0/1" value="0" leadInLength="0/1"  />
              <InterpolatingParam id="8995" interp="linr"  time="0/1" value="0" leadInLength="0/1"  />
             </VectorParam>
            </Transformer>
            <Parameters>
             <VectorParam id="8996"  name="sourceCrop">
              <InterpolatingParam id="8997" interp="linr"  time="0/1" value="0" leadInLength="0/1"  />
              <InterpolatingParam id="8998" interp="linr"  time="0/1" value="0" leadInLength="0/1"  />
              <InterpolatingParam id="8999" interp="linr"  time="0/1" value="0" leadInLength="0/1"  />
              <InterpolatingParam id="9000" interp="linr"  time="0/1" value="0" leadInLength="0/1"  />
             </VectorParam>
             <VectorParam id="9001"  name="geometryCrop">
              <InterpolatingParam id="9002" interp="linr"  time="-9999999/1" value="0" leadInLength="0/1"  />
              <InterpolatingParam id="9003" interp="linr"  time="-9999999/1" value="0" leadInLength="0/1"  />
              <InterpolatingParam id="9004" interp="linr"  time="-9999999/1" value="0" leadInLength="0/1"  />
              <InterpolatingParam id="9005" interp="linr"  time="-9999999/1" value="0" leadInLength="0/1"  />
             </VectorParam>
             <InterpolatingParam id="9006" interp="linr"  time="-9999999/1" value="1" leadInLength="0/1"  name="opacity"/>
            </Parameters>
            <Attributes>
             <Attribute id="9007" value="" name="ident"/>
            </Attributes>
            <MetaData>
             <entry key="WinSubProjectDisplayName" val=""/>
            </MetaData>
            <ExtraData>
             <Entry key="ZoomPanBin">
              <ZoomPanBin id="9008"  >
               <ZoomPanKeyframes>
                <ZoomPanKeyframe id="9009" timeRangeEnd="-9999999/1" timeRangeDuration="0/1" interpolaterName=""  />
               </ZoomPanKeyframes>
              </ZoomPanBin>
             </Entry>
            </ExtraData>
           </VMFile>
           <IMFile id="9010" start="4328" duration="3" scalar="1/1" mediaStart="4315/1" mediaDuration="1/1" trackNumber="0" src="4" trimStartSum="0/1" >
            <Transformer>
             <VectorParam id="9011"  name="translation">
              <InterpolatingParam id="9012" interp="linr"  time="-9999999/1" value="0" leadInLength="0/1"  />
              <InterpolatingParam id="9013" interp="linr"  time="-9999999/1" value="0" leadInLength="0/1"  />
              <InterpolatingParam id="9014" interp="linr"  time="-9999999/1" value="0" leadInLength="0/1"  />
             </VectorParam>
             <VectorParam id="9015"  name="rotation">
              <InterpolatingParam id="9016" interp="linr"  time="-9999999/1" value="0" leadInLength="0/1"  />
              <InterpolatingParam id="9017" interp="linr"  time="-9999999/1" value="0" leadInLength="0/1"  />
              <InterpolatingParam id="9018" interp="linr"  time="-9999999/1" value="0" leadInLength="0/1"  />
             </VectorParam>
             <VectorParam id="9019"  name="shear">
              <InterpolatingParam id="9020" interp="linr"  time="-9999999/1" value="0" leadInLength="0/1"  />
              <InterpolatingParam id="9021" interp="linr"  time="-9999999/1" value="0" leadInLength="0/1"  />
              <InterpolatingParam id="9022" interp="linr"  time="-9999999/1" value="0" leadInLength="0/1"  />
             </VectorParam>
             <VectorParam id="9023"  name="scale">
              <InterpolatingParam id="9024" interp="linr"  time="-9999999/1" value="1" leadInLength="0/1"  />
              <InterpolatingParam id="9025" interp="linr"  time="-9999999/1" value="1" leadInLength="0/1"  />
              <InterpolatingParam id="9026" interp="linr"  time="-9999999/1" value="1" leadInLength="0/1"  />
             </VectorParam>
             <VectorParam id="9027"  name="anchor">
              <InterpolatingParam id="9028" interp="linr"  time="0/1" value="0" leadInLength="0/1"  />
              <InterpolatingParam id="9029" interp="linr"  time="0/1" value="0" leadInLength="0/1"  />
              <InterpolatingParam id="9030" interp="linr"  time="0/1" value="0" leadInLength="0/1"  />
             </VectorParam>
            </Transformer>
            <Parameters>
             <VectorParam id="9031"  name="sourceCrop">
              <InterpolatingParam id="9032" interp="linr"  time="0/1" value="0" leadInLength="0/1"  />
              <InterpolatingParam id="9033" interp="linr"  time="0/1" value="0" leadInLength="0/1"  />
              <InterpolatingParam id="9034" interp="linr"  time="0/1" value="0" leadInLength="0/1"  />
              <InterpolatingParam id="9035" interp="linr"  time="0/1" value="0" leadInLength="0/1"  />
             </VectorParam>
             <VectorParam id="9036"  name="geometryCrop">
              <InterpolatingParam id="9037" interp="linr"  time="-9999999/1" value="0" leadInLength="0/1"  />
              <InterpolatingParam id="9038" interp="linr"  time="-9999999/1" value="0" leadInLength="0/1"  />
              <InterpolatingParam id="9039" interp="linr"  time="-9999999/1" value="0" leadInLength="0/1"  />
              <InterpolatingParam id="9040" interp="linr"  time="-9999999/1" value="0" leadInLength="0/1"  />
             </VectorParam>
             <InterpolatingParam id="9041" interp="linr"  time="-9999999/1" value="1" leadInLength="0/1"  name="opacity"/>
            </Parameters>
            <Attributes>
             <Attribute id="9042" value="" name="ident"/>
            </Attributes>
            <MetaData>
             <entry key="WinSubProjectDisplayName" val=""/>
            </MetaData>
            <ExtraData>
             <Entry key="ZoomPanBin">
              <ZoomPanBin id="9043"  >
               <ZoomPanKeyframes>
                <ZoomPanKeyframe id="9044" timeRangeEnd="-9999999/1" timeRangeDuration="0/1" interpolaterName=""  />
               </ZoomPanKeyframes>
              </ZoomPanBin>
             </Entry>
            </ExtraData>
           </IMFile>
           <VMFile id="9045" start="4331" duration="31" scalar="1/1" mediaStart="4315/1" mediaDuration="31/1" trackNumber="0" src="4" >
            <Transformer>
             <VectorParam id="9046"  name="translation">
              <InterpolatingParam id="9047" interp="linr"  time="-9999999/1" value="0" leadInLength="0/1"  />
              <InterpolatingParam id="9048" interp="linr"  time="-9999999/1" value="0" leadInLength="0/1"  />
              <InterpolatingParam id="9049" interp="linr"  time="-9999999/1" value="0" leadInLength="0/1"  />
             </VectorParam>
             <VectorParam id="9050"  name="rotation">
              <InterpolatingParam id="9051" interp="linr"  time="-9999999/1" value="0" leadInLength="0/1"  />
              <InterpolatingParam id="9052" interp="linr"  time="-9999999/1" value="0" leadInLength="0/1"  />
              <InterpolatingParam id="9053" interp="linr"  time="-9999999/1" value="0" leadInLength="0/1"  />
             </VectorParam>
             <VectorParam id="9054"  name="shear">
              <InterpolatingParam id="9055" interp="linr"  time="-9999999/1" value="0" leadInLength="0/1"  />
              <InterpolatingParam id="9056" interp="linr"  time="-9999999/1" value="0" leadInLength="0/1"  />
              <InterpolatingParam id="9057" interp="linr"  time="-9999999/1" value="0" leadInLength="0/1"  />
             </VectorParam>
             <VectorParam id="9058"  name="scale">
              <InterpolatingParam id="9059" interp="linr"  time="-9999999/1" value="1" leadInLength="0/1"  />
              <InterpolatingParam id="9060" interp="linr"  time="-9999999/1" value="1" leadInLength="0/1"  />
              <InterpolatingParam id="9061" interp="linr"  time="-9999999/1" value="1" leadInLength="0/1"  />
             </VectorParam>
             <VectorParam id="9062"  name="anchor">
              <InterpolatingParam id="9063" interp="linr"  time="0/1" value="0" leadInLength="0/1"  />
              <InterpolatingParam id="9064" interp="linr"  time="0/1" value="0" leadInLength="0/1"  />
              <InterpolatingParam id="9065" interp="linr"  time="0/1" value="0" leadInLength="0/1"  />
             </VectorParam>
            </Transformer>
            <Parameters>
             <VectorParam id="9066"  name="sourceCrop">
              <InterpolatingParam id="9067" interp="linr"  time="0/1" value="0" leadInLength="0/1"  />
              <InterpolatingParam id="9068" interp="linr"  time="0/1" value="0" leadInLength="0/1"  />
              <InterpolatingParam id="9069" interp="linr"  time="0/1" value="0" leadInLength="0/1"  />
              <InterpolatingParam id="9070" interp="linr"  time="0/1" value="0" leadInLength="0/1"  />
             </VectorParam>
             <VectorParam id="9071"  name="geometryCrop">
              <InterpolatingParam id="9072" interp="linr"  time="-9999999/1" value="0" leadInLength="0/1"  />
              <InterpolatingParam id="9073" interp="linr"  time="-9999999/1" value="0" leadInLength="0/1"  />
              <InterpolatingParam id="9074" interp="linr"  time="-9999999/1" value="0" leadInLength="0/1"  />
              <InterpolatingParam id="9075" interp="linr"  time="-9999999/1" value="0" leadInLength="0/1"  />
             </VectorParam>
             <InterpolatingParam id="9076" interp="linr"  time="-9999999/1" value="1" leadInLength="0/1"  name="opacity"/>
            </Parameters>
            <Attributes>
             <Attribute id="9077" value="" name="ident"/>
            </Attributes>
            <MetaData>
             <entry key="WinSubProjectDisplayName" val=""/>
            </MetaData>
            <ExtraData>
             <Entry key="ZoomPanBin">
              <ZoomPanBin id="9078"  >
               <ZoomPanKeyframes>
                <ZoomPanKeyframe id="9079" timeRangeEnd="-9999999/1" timeRangeDuration="0/1" interpolaterName=""  />
               </ZoomPanKeyframes>
              </ZoomPanBin>
             </Entry>
            </ExtraData>
           </VMFile>
           <VMFile id="9080" start="4362" duration="95" scalar="1/1" mediaStart="4751/1" mediaDuration="95/1" trackNumber="0" src="4" >
            <Transformer>
             <VectorParam id="9081"  name="translation">
              <InterpolatingParam id="9082" interp="linr"  time="-9999999/1" value="0" leadInLength="0/1"  />
              <InterpolatingParam id="9083" interp="linr"  time="-9999999/1" value="0" leadInLength="0/1"  />
              <InterpolatingParam id="9084" interp="linr"  time="-9999999/1" value="0" leadInLength="0/1"  />
             </VectorParam>
             <VectorParam id="9085"  name="rotation">
              <InterpolatingParam id="9086" interp="linr"  time="-9999999/1" value="0" leadInLength="0/1"  />
              <InterpolatingParam id="9087" interp="linr"  time="-9999999/1" value="0" leadInLength="0/1"  />
              <InterpolatingParam id="9088" interp="linr"  time="-9999999/1" value="0" leadInLength="0/1"  />
             </VectorParam>
             <VectorParam id="9089"  name="shear">
              <InterpolatingParam id="9090" interp="linr"  time="-9999999/1" value="0" leadInLength="0/1"  />
              <InterpolatingParam id="9091" interp="linr"  time="-9999999/1" value="0" leadInLength="0/1"  />
              <InterpolatingParam id="9092" interp="linr"  time="-9999999/1" value="0" leadInLength="0/1"  />
             </VectorParam>
             <VectorParam id="9093"  name="scale">
              <InterpolatingParam id="9094" interp="linr"  time="-9999999/1" value="1" leadInLength="0/1"  />
              <InterpolatingParam id="9095" interp="linr"  time="-9999999/1" value="1" leadInLength="0/1"  />
              <InterpolatingParam id="9096" interp="linr"  time="-9999999/1" value="1" leadInLength="0/1"  />
             </VectorParam>
             <VectorParam id="9097"  name="anchor">
              <InterpolatingParam id="9098" interp="linr"  time="0/1" value="0" leadInLength="0/1"  />
              <InterpolatingParam id="9099" interp="linr"  time="0/1" value="0" leadInLength="0/1"  />
              <InterpolatingParam id="9100" interp="linr"  time="0/1" value="0" leadInLength="0/1"  />
             </VectorParam>
            </Transformer>
            <Parameters>
             <VectorParam id="9101"  name="sourceCrop">
              <InterpolatingParam id="9102" interp="linr"  time="0/1" value="0" leadInLength="0/1"  />
              <InterpolatingParam id="9103" interp="linr"  time="0/1" value="0" leadInLength="0/1"  />
              <InterpolatingParam id="9104" interp="linr"  time="0/1" value="0" leadInLength="0/1"  />
              <InterpolatingParam id="9105" interp="linr"  time="0/1" value="0" leadInLength="0/1"  />
             </VectorParam>
             <VectorParam id="9106"  name="geometryCrop">
              <InterpolatingParam id="9107" interp="linr"  time="-9999999/1" value="0" leadInLength="0/1"  />
              <InterpolatingParam id="9108" interp="linr"  time="-9999999/1" value="0" leadInLength="0/1"  />
              <InterpolatingParam id="9109" interp="linr"  time="-9999999/1" value="0" leadInLength="0/1"  />
              <InterpolatingParam id="9110" interp="linr"  time="-9999999/1" value="0" leadInLength="0/1"  />
             </VectorParam>
             <InterpolatingParam id="9111" interp="linr"  time="-9999999/1" value="1" leadInLength="0/1"  name="opacity"/>
            </Parameters>
            <Attributes>
             <Attribute id="9112" value="" name="ident"/>
            </Attributes>
            <MetaData>
             <entry key="WinSubProjectDisplayName" val=""/>
            </MetaData>
            <ExtraData>
             <Entry key="ZoomPanBin">
              <ZoomPanBin id="9113"  >
               <ZoomPanKeyframes>
                <ZoomPanKeyframe id="9114" timeRangeEnd="-9999999/1" timeRangeDuration="0/1" interpolaterName=""  />
               </ZoomPanKeyframes>
              </ZoomPanBin>
             </Entry>
            </ExtraData>
           </VMFile>
           <IMFile id="9115" start="4457" duration="270" scalar="1/1" mediaStart="4846/1" mediaDuration="1/1" trackNumber="0" src="4" trimStartSum="0/1" >
            <Transformer>
             <VectorParam id="9116"  name="translation">
              <InterpolatingParam id="9117" interp="linr"  time="-9999999/1" value="0" leadInLength="0/1"  />
              <InterpolatingParam id="9118" interp="linr"  time="-9999999/1" value="0" leadInLength="0/1"  />
              <InterpolatingParam id="9119" interp="linr"  time="-9999999/1" value="0" leadInLength="0/1"  />
             </VectorParam>
             <VectorParam id="9120"  name="rotation">
              <InterpolatingParam id="9121" interp="linr"  time="-9999999/1" value="0" leadInLength="0/1"  />
              <InterpolatingParam id="9122" interp="linr"  time="-9999999/1" value="0" leadInLength="0/1"  />
              <InterpolatingParam id="9123" interp="linr"  time="-9999999/1" value="0" leadInLength="0/1"  />
             </VectorParam>
             <VectorParam id="9124"  name="shear">
              <InterpolatingParam id="9125" interp="linr"  time="-9999999/1" value="0" leadInLength="0/1"  />
              <InterpolatingParam id="9126" interp="linr"  time="-9999999/1" value="0" leadInLength="0/1"  />
              <InterpolatingParam id="9127" interp="linr"  time="-9999999/1" value="0" leadInLength="0/1"  />
             </VectorParam>
             <VectorParam id="9128"  name="scale">
              <InterpolatingParam id="9129" interp="linr"  time="-9999999/1" value="1" leadInLength="0/1"  />
              <InterpolatingParam id="9130" interp="linr"  time="-9999999/1" value="1" leadInLength="0/1"  />
              <InterpolatingParam id="9131" interp="linr"  time="-9999999/1" value="1" leadInLength="0/1"  />
             </VectorParam>
             <VectorParam id="9132"  name="anchor">
              <InterpolatingParam id="9133" interp="linr"  time="0/1" value="0" leadInLength="0/1"  />
              <InterpolatingParam id="9134" interp="linr"  time="0/1" value="0" leadInLength="0/1"  />
              <InterpolatingParam id="9135" interp="linr"  time="0/1" value="0" leadInLength="0/1"  />
             </VectorParam>
            </Transformer>
            <Parameters>
             <VectorParam id="9136"  name="sourceCrop">
              <InterpolatingParam id="9137" interp="linr"  time="0/1" value="0" leadInLength="0/1"  />
              <InterpolatingParam id="9138" interp="linr"  time="0/1" value="0" leadInLength="0/1"  />
              <InterpolatingParam id="9139" interp="linr"  time="0/1" value="0" leadInLength="0/1"  />
              <InterpolatingParam id="9140" interp="linr"  time="0/1" value="0" leadInLength="0/1"  />
             </VectorParam>
             <VectorParam id="9141"  name="geometryCrop">
              <InterpolatingParam id="9142" interp="linr"  time="-9999999/1" value="0" leadInLength="0/1"  />
              <InterpolatingParam id="9143" interp="linr"  time="-9999999/1" value="0" leadInLength="0/1"  />
              <InterpolatingParam id="9144" interp="linr"  time="-9999999/1" value="0" leadInLength="0/1"  />
              <InterpolatingParam id="9145" interp="linr"  time="-9999999/1" value="0" leadInLength="0/1"  />
             </VectorParam>
             <InterpolatingParam id="9146" interp="linr"  time="-9999999/1" value="1" leadInLength="0/1"  name="opacity"/>
            </Parameters>
            <Attributes>
             <Attribute id="9147" value="" name="ident"/>
            </Attributes>
            <MetaData>
             <entry key="WinSubProjectDisplayName" val=""/>
            </MetaData>
            <ExtraData>
             <Entry key="ZoomPanBin">
              <ZoomPanBin id="9148"  >
               <ZoomPanKeyframes>
                <ZoomPanKeyframe id="9149" timeRangeEnd="-9999999/1" timeRangeDuration="0/1" interpolaterName=""  />
               </ZoomPanKeyframes>
              </ZoomPanBin>
             </Entry>
            </ExtraData>
           </IMFile>
           <VMFile id="9150" start="4727" duration="17" scalar="1/1" mediaStart="4846/1" mediaDuration="17/1" trackNumber="0" src="4" >
            <Transformer>
             <VectorParam id="9151"  name="translation">
              <InterpolatingParam id="9152" interp="linr"  time="-9999999/1" value="0" leadInLength="0/1"  />
              <InterpolatingParam id="9153" interp="linr"  time="-9999999/1" value="0" leadInLength="0/1"  />
              <InterpolatingParam id="9154" interp="linr"  time="-9999999/1" value="0" leadInLength="0/1"  />
             </VectorParam>
             <VectorParam id="9155"  name="rotation">
              <InterpolatingParam id="9156" interp="linr"  time="-9999999/1" value="0" leadInLength="0/1"  />
              <InterpolatingParam id="9157" interp="linr"  time="-9999999/1" value="0" leadInLength="0/1"  />
              <InterpolatingParam id="9158" interp="linr"  time="-9999999/1" value="0" leadInLength="0/1"  />
             </VectorParam>
             <VectorParam id="9159"  name="shear">
              <InterpolatingParam id="9160" interp="linr"  time="-9999999/1" value="0" leadInLength="0/1"  />
              <InterpolatingParam id="9161" interp="linr"  time="-9999999/1" value="0" leadInLength="0/1"  />
              <InterpolatingParam id="9162" interp="linr"  time="-9999999/1" value="0" leadInLength="0/1"  />
             </VectorParam>
             <VectorParam id="9163"  name="scale">
              <InterpolatingParam id="9164" interp="linr"  time="-9999999/1" value="1" leadInLength="0/1"  />
              <InterpolatingParam id="9165" interp="linr"  time="-9999999/1" value="1" leadInLength="0/1"  />
              <InterpolatingParam id="9166" interp="linr"  time="-9999999/1" value="1" leadInLength="0/1"  />
             </VectorParam>
             <VectorParam id="9167"  name="anchor">
              <InterpolatingParam id="9168" interp="linr"  time="0/1" value="0" leadInLength="0/1"  />
              <InterpolatingParam id="9169" interp="linr"  time="0/1" value="0" leadInLength="0/1"  />
              <InterpolatingParam id="9170" interp="linr"  time="0/1" value="0" leadInLength="0/1"  />
             </VectorParam>
            </Transformer>
            <Parameters>
             <VectorParam id="9171"  name="sourceCrop">
              <InterpolatingParam id="9172" interp="linr"  time="0/1" value="0" leadInLength="0/1"  />
              <InterpolatingParam id="9173" interp="linr"  time="0/1" value="0" leadInLength="0/1"  />
              <InterpolatingParam id="9174" interp="linr"  time="0/1" value="0" leadInLength="0/1"  />
              <InterpolatingParam id="9175" interp="linr"  time="0/1" value="0" leadInLength="0/1"  />
             </VectorParam>
             <VectorParam id="9176"  name="geometryCrop">
              <InterpolatingParam id="9177" interp="linr"  time="-9999999/1" value="0" leadInLength="0/1"  />
              <InterpolatingParam id="9178" interp="linr"  time="-9999999/1" value="0" leadInLength="0/1"  />
              <InterpolatingParam id="9179" interp="linr"  time="-9999999/1" value="0" leadInLength="0/1"  />
              <InterpolatingParam id="9180" interp="linr"  time="-9999999/1" value="0" leadInLength="0/1"  />
             </VectorParam>
             <InterpolatingParam id="9181" interp="linr"  time="-9999999/1" value="1" leadInLength="0/1"  name="opacity"/>
            </Parameters>
            <Attributes>
             <Attribute id="9182" value="" name="ident"/>
            </Attributes>
            <MetaData>
             <entry key="WinSubProjectDisplayName" val=""/>
            </MetaData>
            <ExtraData>
             <Entry key="ZoomPanBin">
              <ZoomPanBin id="9183"  >
               <ZoomPanKeyframes>
                <ZoomPanKeyframe id="9184" timeRangeEnd="-9999999/1" timeRangeDuration="0/1" interpolaterName=""  />
               </ZoomPanKeyframes>
              </ZoomPanBin>
             </Entry>
            </ExtraData>
           </VMFile>
           <VMFile id="9185" start="4744" duration="386" scalar="1/1" mediaStart="7805/1" mediaDuration="386/1" trackNumber="0" src="4" >
            <Transformer>
             <VectorParam id="9186"  name="translation">
              <InterpolatingParam id="9187" interp="linr"  time="-9999999/1" value="0" leadInLength="0/1"  />
              <InterpolatingParam id="9188" interp="linr"  time="-9999999/1" value="0" leadInLength="0/1"  />
              <InterpolatingParam id="9189" interp="linr"  time="-9999999/1" value="0" leadInLength="0/1"  />
             </VectorParam>
             <VectorParam id="9190"  name="rotation">
              <InterpolatingParam id="9191" interp="linr"  time="-9999999/1" value="0" leadInLength="0/1"  />
              <InterpolatingParam id="9192" interp="linr"  time="-9999999/1" value="0" leadInLength="0/1"  />
              <InterpolatingParam id="9193" interp="linr"  time="-9999999/1" value="0" leadInLength="0/1"  />
             </VectorParam>
             <VectorParam id="9194"  name="shear">
              <InterpolatingParam id="9195" interp="linr"  time="-9999999/1" value="0" leadInLength="0/1"  />
              <InterpolatingParam id="9196" interp="linr"  time="-9999999/1" value="0" leadInLength="0/1"  />
              <InterpolatingParam id="9197" interp="linr"  time="-9999999/1" value="0" leadInLength="0/1"  />
             </VectorParam>
             <VectorParam id="9198"  name="scale">
              <InterpolatingParam id="9199" interp="linr"  time="-9999999/1" value="1" leadInLength="0/1"  />
              <InterpolatingParam id="9200" interp="linr"  time="-9999999/1" value="1" leadInLength="0/1"  />
              <InterpolatingParam id="9201" interp="linr"  time="-9999999/1" value="1" leadInLength="0/1"  />
             </VectorParam>
             <VectorParam id="9202"  name="anchor">
              <InterpolatingParam id="9203" interp="linr"  time="0/1" value="0" leadInLength="0/1"  />
              <InterpolatingParam id="9204" interp="linr"  time="0/1" value="0" leadInLength="0/1"  />
              <InterpolatingParam id="9205" interp="linr"  time="0/1" value="0" leadInLength="0/1"  />
             </VectorParam>
            </Transformer>
            <Parameters>
             <VectorParam id="9206"  name="sourceCrop">
              <InterpolatingParam id="9207" interp="linr"  time="0/1" value="0" leadInLength="0/1"  />
              <InterpolatingParam id="9208" interp="linr"  time="0/1" value="0" leadInLength="0/1"  />
              <InterpolatingParam id="9209" interp="linr"  time="0/1" value="0" leadInLength="0/1"  />
              <InterpolatingParam id="9210" interp="linr"  time="0/1" value="0" leadInLength="0/1"  />
             </VectorParam>
             <VectorParam id="9211"  name="geometryCrop">
              <InterpolatingParam id="9212" interp="linr"  time="-9999999/1" value="0" leadInLength="0/1"  />
              <InterpolatingParam id="9213" interp="linr"  time="-9999999/1" value="0" leadInLength="0/1"  />
              <InterpolatingParam id="9214" interp="linr"  time="-9999999/1" value="0" leadInLength="0/1"  />
              <InterpolatingParam id="9215" interp="linr"  time="-9999999/1" value="0" leadInLength="0/1"  />
             </VectorParam>
             <InterpolatingParam id="9216" interp="linr"  time="-9999999/1" value="1" leadInLength="0/1"  name="opacity"/>
            </Parameters>
            <Attributes>
             <Attribute id="9217" value="" name="ident"/>
            </Attributes>
            <MetaData>
             <entry key="WinSubProjectDisplayName" val=""/>
            </MetaData>
            <ExtraData>
             <Entry key="ZoomPanBin">
              <ZoomPanBin id="9218"  >
               <ZoomPanKeyframes>
                <ZoomPanKeyframe id="9219" timeRangeEnd="-9999999/1" timeRangeDuration="0/1" interpolaterName=""  />
               </ZoomPanKeyframes>
              </ZoomPanBin>
             </Entry>
            </ExtraData>
           </VMFile>
           <VMFile id="9220" start="5130" duration="1007" scalar="1/1" mediaStart="8371/1" mediaDuration="1007/1" trackNumber="0" src="4" >
            <Transformer>
             <VectorParam id="9221"  name="translation">
              <InterpolatingParam id="9222" interp="linr"  time="-9999999/1" value="0" leadInLength="0/1"  />
              <InterpolatingParam id="9223" interp="linr"  time="-9999999/1" value="0" leadInLength="0/1"  />
              <InterpolatingParam id="9224" interp="linr"  time="-9999999/1" value="0" leadInLength="0/1"  />
             </VectorParam>
             <VectorParam id="9225"  name="rotation">
              <InterpolatingParam id="9226" interp="linr"  time="-9999999/1" value="0" leadInLength="0/1"  />
              <InterpolatingParam id="9227" interp="linr"  time="-9999999/1" value="0" leadInLength="0/1"  />
              <InterpolatingParam id="9228" interp="linr"  time="-9999999/1" value="0" leadInLength="0/1"  />
             </VectorParam>
             <VectorParam id="9229"  name="shear">
              <InterpolatingParam id="9230" interp="linr"  time="-9999999/1" value="0" leadInLength="0/1"  />
              <InterpolatingParam id="9231" interp="linr"  time="-9999999/1" value="0" leadInLength="0/1"  />
              <InterpolatingParam id="9232" interp="linr"  time="-9999999/1" value="0" leadInLength="0/1"  />
             </VectorParam>
             <VectorParam id="9233"  name="scale">
              <InterpolatingParam id="9234" interp="linr"  time="-9999999/1" value="1" leadInLength="0/1"  />
              <InterpolatingParam id="9235" interp="linr"  time="-9999999/1" value="1" leadInLength="0/1"  />
              <InterpolatingParam id="9236" interp="linr"  time="-9999999/1" value="1" leadInLength="0/1"  />
             </VectorParam>
             <VectorParam id="9237"  name="anchor">
              <InterpolatingParam id="9238" interp="linr"  time="0/1" value="0" leadInLength="0/1"  />
              <InterpolatingParam id="9239" interp="linr"  time="0/1" value="0" leadInLength="0/1"  />
              <InterpolatingParam id="9240" interp="linr"  time="0/1" value="0" leadInLength="0/1"  />
             </VectorParam>
            </Transformer>
            <Parameters>
             <VectorParam id="9241"  name="sourceCrop">
              <InterpolatingParam id="9242" interp="linr"  time="0/1" value="0" leadInLength="0/1"  />
              <InterpolatingParam id="9243" interp="linr"  time="0/1" value="0" leadInLength="0/1"  />
              <InterpolatingParam id="9244" interp="linr"  time="0/1" value="0" leadInLength="0/1"  />
              <InterpolatingParam id="9245" interp="linr"  time="0/1" value="0" leadInLength="0/1"  />
             </VectorParam>
             <VectorParam id="9246"  name="geometryCrop">
              <InterpolatingParam id="9247" interp="linr"  time="-9999999/1" value="0" leadInLength="0/1"  />
              <InterpolatingParam id="9248" interp="linr"  time="-9999999/1" value="0" leadInLength="0/1"  />
              <InterpolatingParam id="9249" interp="linr"  time="-9999999/1" value="0" leadInLength="0/1"  />
              <InterpolatingParam id="9250" interp="linr"  time="-9999999/1" value="0" leadInLength="0/1"  />
             </VectorParam>
             <InterpolatingParam id="9251" interp="linr"  time="-9999999/1" value="1" leadInLength="0/1"  name="opacity"/>
            </Parameters>
            <Attributes>
             <Attribute id="9252" value="" name="ident"/>
            </Attributes>
            <MetaData>
             <entry key="WinSubProjectDisplayName" val=""/>
            </MetaData>
            <ExtraData>
             <Entry key="ZoomPanBin">
              <ZoomPanBin id="9253"  >
               <ZoomPanKeyframes>
                <ZoomPanKeyframe id="9254" timeRangeEnd="-9999999/1" timeRangeDuration="0/1" interpolaterName=""  />
               </ZoomPanKeyframes>
              </ZoomPanBin>
             </Entry>
            </ExtraData>
           </VMFile>
           <VMFile id="9255" start="6137" duration="555" scalar="1/1" mediaStart="9516/1" mediaDuration="555/1" trackNumber="0" src="4" >
            <Transformer>
             <VectorParam id="9256"  name="translation">
              <InterpolatingParam id="9257" interp="linr"  time="-9999999/1" value="0" leadInLength="0/1"  />
              <InterpolatingParam id="9258" interp="linr"  time="-9999999/1" value="0" leadInLength="0/1"  />
              <InterpolatingParam id="9259" interp="linr"  time="-9999999/1" value="0" leadInLength="0/1"  />
             </VectorParam>
             <VectorParam id="9260"  name="rotation">
              <InterpolatingParam id="9261" interp="linr"  time="-9999999/1" value="0" leadInLength="0/1"  />
              <InterpolatingParam id="9262" interp="linr"  time="-9999999/1" value="0" leadInLength="0/1"  />
              <InterpolatingParam id="9263" interp="linr"  time="-9999999/1" value="0" leadInLength="0/1"  />
             </VectorParam>
             <VectorParam id="9264"  name="shear">
              <InterpolatingParam id="9265" interp="linr"  time="-9999999/1" value="0" leadInLength="0/1"  />
              <InterpolatingParam id="9266" interp="linr"  time="-9999999/1" value="0" leadInLength="0/1"  />
              <InterpolatingParam id="9267" interp="linr"  time="-9999999/1" value="0" leadInLength="0/1"  />
             </VectorParam>
             <VectorParam id="9268"  name="scale">
              <InterpolatingParam id="9269" interp="linr"  time="-9999999/1" value="1" leadInLength="0/1"  />
              <InterpolatingParam id="9270" interp="linr"  time="-9999999/1" value="1" leadInLength="0/1"  />
              <InterpolatingParam id="9271" interp="linr"  time="-9999999/1" value="1" leadInLength="0/1"  />
             </VectorParam>
             <VectorParam id="9272"  name="anchor">
              <InterpolatingParam id="9273" interp="linr"  time="0/1" value="0" leadInLength="0/1"  />
              <InterpolatingParam id="9274" interp="linr"  time="0/1" value="0" leadInLength="0/1"  />
              <InterpolatingParam id="9275" interp="linr"  time="0/1" value="0" leadInLength="0/1"  />
             </VectorParam>
            </Transformer>
            <Parameters>
             <VectorParam id="9276"  name="sourceCrop">
              <InterpolatingParam id="9277" interp="linr"  time="0/1" value="0" leadInLength="0/1"  />
              <InterpolatingParam id="9278" interp="linr"  time="0/1" value="0" leadInLength="0/1"  />
              <InterpolatingParam id="9279" interp="linr"  time="0/1" value="0" leadInLength="0/1"  />
              <InterpolatingParam id="9280" interp="linr"  time="0/1" value="0" leadInLength="0/1"  />
             </VectorParam>
             <VectorParam id="9281"  name="geometryCrop">
              <InterpolatingParam id="9282" interp="linr"  time="-9999999/1" value="0" leadInLength="0/1"  />
              <InterpolatingParam id="9283" interp="linr"  time="-9999999/1" value="0" leadInLength="0/1"  />
              <InterpolatingParam id="9284" interp="linr"  time="-9999999/1" value="0" leadInLength="0/1"  />
              <InterpolatingParam id="9285" interp="linr"  time="-9999999/1" value="0" leadInLength="0/1"  />
             </VectorParam>
             <InterpolatingParam id="9286" interp="linr"  time="-9999999/1" value="1" leadInLength="0/1"  name="opacity"/>
            </Parameters>
            <Attributes>
             <Attribute id="9287" value="" name="ident"/>
            </Attributes>
            <MetaData>
             <entry key="WinSubProjectDisplayName" val=""/>
            </MetaData>
            <ExtraData>
             <Entry key="ZoomPanBin">
              <ZoomPanBin id="9288"  >
               <ZoomPanKeyframes>
                <ZoomPanKeyframe id="9289" timeRangeEnd="-9999999/1" timeRangeDuration="0/1" interpolaterName=""  />
               </ZoomPanKeyframes>
              </ZoomPanBin>
             </Entry>
            </ExtraData>
           </VMFile>
           <VMFile id="9290" start="6692" duration="460" scalar="1/1" mediaStart="11597/1" mediaDuration="460/1" trackNumber="0" src="4" >
            <Transformer>
             <VectorParam id="9291"  name="translation">
              <InterpolatingParam id="9292" interp="linr"  time="-9999999/1" value="0" leadInLength="0/1"  />
              <InterpolatingParam id="9293" interp="linr"  time="-9999999/1" value="0" leadInLength="0/1"  />
              <InterpolatingParam id="9294" interp="linr"  time="-9999999/1" value="0" leadInLength="0/1"  />
             </VectorParam>
             <VectorParam id="9295"  name="rotation">
              <InterpolatingParam id="9296" interp="linr"  time="-9999999/1" value="0" leadInLength="0/1"  />
              <InterpolatingParam id="9297" interp="linr"  time="-9999999/1" value="0" leadInLength="0/1"  />
              <InterpolatingParam id="9298" interp="linr"  time="-9999999/1" value="0" leadInLength="0/1"  />
             </VectorParam>
             <VectorParam id="9299"  name="shear">
              <InterpolatingParam id="9300" interp="linr"  time="-9999999/1" value="0" leadInLength="0/1"  />
              <InterpolatingParam id="9301" interp="linr"  time="-9999999/1" value="0" leadInLength="0/1"  />
              <InterpolatingParam id="9302" interp="linr"  time="-9999999/1" value="0" leadInLength="0/1"  />
             </VectorParam>
             <VectorParam id="9303"  name="scale">
              <InterpolatingParam id="9304" interp="linr"  time="-9999999/1" value="1" leadInLength="0/1"  />
              <InterpolatingParam id="9305" interp="linr"  time="-9999999/1" value="1" leadInLength="0/1"  />
              <InterpolatingParam id="9306" interp="linr"  time="-9999999/1" value="1" leadInLength="0/1"  />
             </VectorParam>
             <VectorParam id="9307"  name="anchor">
              <InterpolatingParam id="9308" interp="linr"  time="0/1" value="0" leadInLength="0/1"  />
              <InterpolatingParam id="9309" interp="linr"  time="0/1" value="0" leadInLength="0/1"  />
              <InterpolatingParam id="9310" interp="linr"  time="0/1" value="0" leadInLength="0/1"  />
             </VectorParam>
            </Transformer>
            <Parameters>
             <VectorParam id="9311"  name="sourceCrop">
              <InterpolatingParam id="9312" interp="linr"  time="0/1" value="0" leadInLength="0/1"  />
              <InterpolatingParam id="9313" interp="linr"  time="0/1" value="0" leadInLength="0/1"  />
              <InterpolatingParam id="9314" interp="linr"  time="0/1" value="0" leadInLength="0/1"  />
              <InterpolatingParam id="9315" interp="linr"  time="0/1" value="0" leadInLength="0/1"  />
             </VectorParam>
             <VectorParam id="9316"  name="geometryCrop">
              <InterpolatingParam id="9317" interp="linr"  time="-9999999/1" value="0" leadInLength="0/1"  />
              <InterpolatingParam id="9318" interp="linr"  time="-9999999/1" value="0" leadInLength="0/1"  />
              <InterpolatingParam id="9319" interp="linr"  time="-9999999/1" value="0" leadInLength="0/1"  />
              <InterpolatingParam id="9320" interp="linr"  time="-9999999/1" value="0" leadInLength="0/1"  />
             </VectorParam>
             <InterpolatingParam id="9321" interp="linr"  time="-9999999/1" value="1" leadInLength="0/1"  name="opacity"/>
            </Parameters>
            <Attributes>
             <Attribute id="9322" value="" name="ident"/>
            </Attributes>
            <MetaData>
             <entry key="WinSubProjectDisplayName" val=""/>
            </MetaData>
            <ExtraData>
             <Entry key="ZoomPanBin">
              <ZoomPanBin id="9323"  >
               <ZoomPanKeyframes>
                <ZoomPanKeyframe id="9324" timeRangeEnd="-9999999/1" timeRangeDuration="0/1" interpolaterName=""  />
               </ZoomPanKeyframes>
              </ZoomPanBin>
             </Entry>
            </ExtraData>
           </VMFile>
           <VMFile id="9325" start="7152" duration="350" scalar="1/1" mediaStart="12237/1" mediaDuration="350/1" trackNumber="0" src="4" >
            <Transformer>
             <VectorParam id="9326"  name="translation">
              <InterpolatingParam id="9327" interp="linr"  time="-9999999/1" value="0" leadInLength="0/1"  />
              <InterpolatingParam id="9328" interp="linr"  time="-9999999/1" value="0" leadInLength="0/1"  />
              <InterpolatingParam id="9329" interp="linr"  time="-9999999/1" value="0" leadInLength="0/1"  />
             </VectorParam>
             <VectorParam id="9330"  name="rotation">
              <InterpolatingParam id="9331" interp="linr"  time="-9999999/1" value="0" leadInLength="0/1"  />
              <InterpolatingParam id="9332" interp="linr"  time="-9999999/1" value="0" leadInLength="0/1"  />
              <InterpolatingParam id="9333" interp="linr"  time="-9999999/1" value="0" leadInLength="0/1"  />
             </VectorParam>
             <VectorParam id="9334"  name="shear">
              <InterpolatingParam id="9335" interp="linr"  time="-9999999/1" value="0" leadInLength="0/1"  />
              <InterpolatingParam id="9336" interp="linr"  time="-9999999/1" value="0" leadInLength="0/1"  />
              <InterpolatingParam id="9337" interp="linr"  time="-9999999/1" value="0" leadInLength="0/1"  />
             </VectorParam>
             <VectorParam id="9338"  name="scale">
              <InterpolatingParam id="9339" interp="linr"  time="-9999999/1" value="1" leadInLength="0/1"  />
              <InterpolatingParam id="9340" interp="linr"  time="-9999999/1" value="1" leadInLength="0/1"  />
              <InterpolatingParam id="9341" interp="linr"  time="-9999999/1" value="1" leadInLength="0/1"  />
             </VectorParam>
             <VectorParam id="9342"  name="anchor">
              <InterpolatingParam id="9343" interp="linr"  time="0/1" value="0" leadInLength="0/1"  />
              <InterpolatingParam id="9344" interp="linr"  time="0/1" value="0" leadInLength="0/1"  />
              <InterpolatingParam id="9345" interp="linr"  time="0/1" value="0" leadInLength="0/1"  />
             </VectorParam>
            </Transformer>
            <Parameters>
             <VectorParam id="9346"  name="sourceCrop">
              <InterpolatingParam id="9347" interp="linr"  time="0/1" value="0" leadInLength="0/1"  />
              <InterpolatingParam id="9348" interp="linr"  time="0/1" value="0" leadInLength="0/1"  />
              <InterpolatingParam id="9349" interp="linr"  time="0/1" value="0" leadInLength="0/1"  />
              <InterpolatingParam id="9350" interp="linr"  time="0/1" value="0" leadInLength="0/1"  />
             </VectorParam>
             <VectorParam id="9351"  name="geometryCrop">
              <InterpolatingParam id="9352" interp="linr"  time="-9999999/1" value="0" leadInLength="0/1"  />
              <InterpolatingParam id="9353" interp="linr"  time="-9999999/1" value="0" leadInLength="0/1"  />
              <InterpolatingParam id="9354" interp="linr"  time="-9999999/1" value="0" leadInLength="0/1"  />
              <InterpolatingParam id="9355" interp="linr"  time="-9999999/1" value="0" leadInLength="0/1"  />
             </VectorParam>
             <InterpolatingParam id="9356" interp="linr"  time="-9999999/1" value="1" leadInLength="0/1"  name="opacity"/>
            </Parameters>
            <Attributes>
             <Attribute id="9357" value="" name="ident"/>
            </Attributes>
            <MetaData>
             <entry key="WinSubProjectDisplayName" val=""/>
            </MetaData>
            <ExtraData>
             <Entry key="ZoomPanBin">
              <ZoomPanBin id="9358"  >
               <ZoomPanKeyframes>
                <ZoomPanKeyframe id="9359" timeRangeEnd="-9999999/1" timeRangeDuration="0/1" interpolaterName=""  />
               </ZoomPanKeyframes>
              </ZoomPanBin>
             </Entry>
            </ExtraData>
           </VMFile>
           <VMFile id="9360" start="7502" duration="128" scalar="1/1" mediaStart="15765/1" mediaDuration="128/1" trackNumber="0" src="4" >
            <Transformer>
             <VectorParam id="9361"  name="translation">
              <InterpolatingParam id="9362" interp="linr"  time="-9999999/1" value="0" leadInLength="0/1"  />
              <InterpolatingParam id="9363" interp="linr"  time="-9999999/1" value="0" leadInLength="0/1"  />
              <InterpolatingParam id="9364" interp="linr"  time="-9999999/1" value="0" leadInLength="0/1"  />
             </VectorParam>
             <VectorParam id="9365"  name="rotation">
              <InterpolatingParam id="9366" interp="linr"  time="-9999999/1" value="0" leadInLength="0/1"  />
              <InterpolatingParam id="9367" interp="linr"  time="-9999999/1" value="0" leadInLength="0/1"  />
              <InterpolatingParam id="9368" interp="linr"  time="-9999999/1" value="0" leadInLength="0/1"  />
             </VectorParam>
             <VectorParam id="9369"  name="shear">
              <InterpolatingParam id="9370" interp="linr"  time="-9999999/1" value="0" leadInLength="0/1"  />
              <InterpolatingParam id="9371" interp="linr"  time="-9999999/1" value="0" leadInLength="0/1"  />
              <InterpolatingParam id="9372" interp="linr"  time="-9999999/1" value="0" leadInLength="0/1"  />
             </VectorParam>
             <VectorParam id="9373"  name="scale">
              <InterpolatingParam id="9374" interp="linr"  time="-9999999/1" value="1" leadInLength="0/1"  />
              <InterpolatingParam id="9375" interp="linr"  time="-9999999/1" value="1" leadInLength="0/1"  />
              <InterpolatingParam id="9376" interp="linr"  time="-9999999/1" value="1" leadInLength="0/1"  />
             </VectorParam>
             <VectorParam id="9377"  name="anchor">
              <InterpolatingParam id="9378" interp="linr"  time="0/1" value="0" leadInLength="0/1"  />
              <InterpolatingParam id="9379" interp="linr"  time="0/1" value="0" leadInLength="0/1"  />
              <InterpolatingParam id="9380" interp="linr"  time="0/1" value="0" leadInLength="0/1"  />
             </VectorParam>
            </Transformer>
            <Parameters>
             <VectorParam id="9381"  name="sourceCrop">
              <InterpolatingParam id="9382" interp="linr"  time="0/1" value="0" leadInLength="0/1"  />
              <InterpolatingParam id="9383" interp="linr"  time="0/1" value="0" leadInLength="0/1"  />
              <InterpolatingParam id="9384" interp="linr"  time="0/1" value="0" leadInLength="0/1"  />
              <InterpolatingParam id="9385" interp="linr"  time="0/1" value="0" leadInLength="0/1"  />
             </VectorParam>
             <VectorParam id="9386"  name="geometryCrop">
              <InterpolatingParam id="9387" interp="linr"  time="-9999999/1" value="0" leadInLength="0/1"  />
              <InterpolatingParam id="9388" interp="linr"  time="-9999999/1" value="0" leadInLength="0/1"  />
              <InterpolatingParam id="9389" interp="linr"  time="-9999999/1" value="0" leadInLength="0/1"  />
              <InterpolatingParam id="9390" interp="linr"  time="-9999999/1" value="0" leadInLength="0/1"  />
             </VectorParam>
             <InterpolatingParam id="9391" interp="linr"  time="-9999999/1" value="1" leadInLength="0/1"  name="opacity"/>
            </Parameters>
            <Attributes>
             <Attribute id="9392" value="" name="ident"/>
            </Attributes>
            <MetaData>
             <entry key="WinSubProjectDisplayName" val=""/>
            </MetaData>
            <ExtraData>
             <Entry key="ZoomPanBin">
              <ZoomPanBin id="9393"  >
               <ZoomPanKeyframes>
                <ZoomPanKeyframe id="9394" timeRangeEnd="-9999999/1" timeRangeDuration="0/1" interpolaterName=""  />
               </ZoomPanKeyframes>
              </ZoomPanBin>
             </Entry>
            </ExtraData>
           </VMFile>
           <VMFile id="9395" start="7630" duration="615" scalar="1/1" mediaStart="15918/1" mediaDuration="615/1" trackNumber="0" src="4" >
            <Transformer>
             <VectorParam id="9396"  name="translation">
              <InterpolatingParam id="9397" interp="linr"  time="-9999999/1" value="0" leadInLength="0/1"  />
              <InterpolatingParam id="9398" interp="linr"  time="-9999999/1" value="0" leadInLength="0/1"  />
              <InterpolatingParam id="9399" interp="linr"  time="-9999999/1" value="0" leadInLength="0/1"  />
             </VectorParam>
             <VectorParam id="9400"  name="rotation">
              <InterpolatingParam id="9401" interp="linr"  time="-9999999/1" value="0" leadInLength="0/1"  />
              <InterpolatingParam id="9402" interp="linr"  time="-9999999/1" value="0" leadInLength="0/1"  />
              <InterpolatingParam id="9403" interp="linr"  time="-9999999/1" value="0" leadInLength="0/1"  />
             </VectorParam>
             <VectorParam id="9404"  name="shear">
              <InterpolatingParam id="9405" interp="linr"  time="-9999999/1" value="0" leadInLength="0/1"  />
              <InterpolatingParam id="9406" interp="linr"  time="-9999999/1" value="0" leadInLength="0/1"  />
              <InterpolatingParam id="9407" interp="linr"  time="-9999999/1" value="0" leadInLength="0/1"  />
             </VectorParam>
             <VectorParam id="9408"  name="scale">
              <InterpolatingParam id="9409" interp="linr"  time="-9999999/1" value="1" leadInLength="0/1"  />
              <InterpolatingParam id="9410" interp="linr"  time="-9999999/1" value="1" leadInLength="0/1"  />
              <InterpolatingParam id="9411" interp="linr"  time="-9999999/1" value="1" leadInLength="0/1"  />
             </VectorParam>
             <VectorParam id="9412"  name="anchor">
              <InterpolatingParam id="9413" interp="linr"  time="0/1" value="0" leadInLength="0/1"  />
              <InterpolatingParam id="9414" interp="linr"  time="0/1" value="0" leadInLength="0/1"  />
              <InterpolatingParam id="9415" interp="linr"  time="0/1" value="0" leadInLength="0/1"  />
             </VectorParam>
            </Transformer>
            <Parameters>
             <VectorParam id="9416"  name="sourceCrop">
              <InterpolatingParam id="9417" interp="linr"  time="0/1" value="0" leadInLength="0/1"  />
              <InterpolatingParam id="9418" interp="linr"  time="0/1" value="0" leadInLength="0/1"  />
              <InterpolatingParam id="9419" interp="linr"  time="0/1" value="0" leadInLength="0/1"  />
              <InterpolatingParam id="9420" interp="linr"  time="0/1" value="0" leadInLength="0/1"  />
             </VectorParam>
             <VectorParam id="9421"  name="geometryCrop">
              <InterpolatingParam id="9422" interp="linr"  time="-9999999/1" value="0" leadInLength="0/1"  />
              <InterpolatingParam id="9423" interp="linr"  time="-9999999/1" value="0" leadInLength="0/1"  />
              <InterpolatingParam id="9424" interp="linr"  time="-9999999/1" value="0" leadInLength="0/1"  />
              <InterpolatingParam id="9425" interp="linr"  time="-9999999/1" value="0" leadInLength="0/1"  />
             </VectorParam>
             <InterpolatingParam id="9426" interp="linr"  time="-9999999/1" value="1" leadInLength="0/1"  name="opacity"/>
            </Parameters>
            <Attributes>
             <Attribute id="9427" value="" name="ident"/>
            </Attributes>
            <MetaData>
             <entry key="WinSubProjectDisplayName" val=""/>
            </MetaData>
            <ExtraData>
             <Entry key="ZoomPanBin">
              <ZoomPanBin id="9428"  >
               <ZoomPanKeyframes>
                <ZoomPanKeyframe id="9429" timeRangeEnd="-9999999/1" timeRangeDuration="0/1" interpolaterName=""  />
               </ZoomPanKeyframes>
              </ZoomPanBin>
             </Entry>
            </ExtraData>
           </VMFile>
           <VMFile id="9430" start="8245" duration="323" scalar="1/1" mediaStart="16694/1" mediaDuration="323/1" trackNumber="0" src="4" >
            <Transformer>
             <VectorParam id="9431"  name="translation">
              <InterpolatingParam id="9432" interp="linr"  time="-9999999/1" value="0" leadInLength="0/1"  />
              <InterpolatingParam id="9433" interp="linr"  time="-9999999/1" value="0" leadInLength="0/1"  />
              <InterpolatingParam id="9434" interp="linr"  time="-9999999/1" value="0" leadInLength="0/1"  />
             </VectorParam>
             <VectorParam id="9435"  name="rotation">
              <InterpolatingParam id="9436" interp="linr"  time="-9999999/1" value="0" leadInLength="0/1"  />
              <InterpolatingParam id="9437" interp="linr"  time="-9999999/1" value="0" leadInLength="0/1"  />
              <InterpolatingParam id="9438" interp="linr"  time="-9999999/1" value="0" leadInLength="0/1"  />
             </VectorParam>
             <VectorParam id="9439"  name="shear">
              <InterpolatingParam id="9440" interp="linr"  time="-9999999/1" value="0" leadInLength="0/1"  />
              <InterpolatingParam id="9441" interp="linr"  time="-9999999/1" value="0" leadInLength="0/1"  />
              <InterpolatingParam id="9442" interp="linr"  time="-9999999/1" value="0" leadInLength="0/1"  />
             </VectorParam>
             <VectorParam id="9443"  name="scale">
              <InterpolatingParam id="9444" interp="linr"  time="-9999999/1" value="1" leadInLength="0/1"  />
              <InterpolatingParam id="9445" interp="linr"  time="-9999999/1" value="1" leadInLength="0/1"  />
              <InterpolatingParam id="9446" interp="linr"  time="-9999999/1" value="1" leadInLength="0/1"  />
             </VectorParam>
             <VectorParam id="9447"  name="anchor">
              <InterpolatingParam id="9448" interp="linr"  time="0/1" value="0" leadInLength="0/1"  />
              <InterpolatingParam id="9449" interp="linr"  time="0/1" value="0" leadInLength="0/1"  />
              <InterpolatingParam id="9450" interp="linr"  time="0/1" value="0" leadInLength="0/1"  />
             </VectorParam>
            </Transformer>
            <Parameters>
             <VectorParam id="9451"  name="sourceCrop">
              <InterpolatingParam id="9452" interp="linr"  time="0/1" value="0" leadInLength="0/1"  />
              <InterpolatingParam id="9453" interp="linr"  time="0/1" value="0" leadInLength="0/1"  />
              <InterpolatingParam id="9454" interp="linr"  time="0/1" value="0" leadInLength="0/1"  />
              <InterpolatingParam id="9455" interp="linr"  time="0/1" value="0" leadInLength="0/1"  />
             </VectorParam>
             <VectorParam id="9456"  name="geometryCrop">
              <InterpolatingParam id="9457" interp="linr"  time="-9999999/1" value="0" leadInLength="0/1"  />
              <InterpolatingParam id="9458" interp="linr"  time="-9999999/1" value="0" leadInLength="0/1"  />
              <InterpolatingParam id="9459" interp="linr"  time="-9999999/1" value="0" leadInLength="0/1"  />
              <InterpolatingParam id="9460" interp="linr"  time="-9999999/1" value="0" leadInLength="0/1"  />
             </VectorParam>
             <InterpolatingParam id="9461" interp="linr"  time="-9999999/1" value="1" leadInLength="0/1"  name="opacity"/>
            </Parameters>
            <Attributes>
             <Attribute id="9462" value="" name="ident"/>
            </Attributes>
            <MetaData>
             <entry key="WinSubProjectDisplayName" val=""/>
            </MetaData>
            <ExtraData>
             <Entry key="ZoomPanBin">
              <ZoomPanBin id="9463"  >
               <ZoomPanKeyframes>
                <ZoomPanKeyframe id="9464" timeRangeEnd="-9999999/1" timeRangeDuration="0/1" interpolaterName=""  />
               </ZoomPanKeyframes>
              </ZoomPanBin>
             </Entry>
            </ExtraData>
           </VMFile>
           <VMFile id="9465" start="8568" duration="223" scalar="1/1" mediaStart="17164/1" mediaDuration="223/1" trackNumber="0" src="4" >
            <Transformer>
             <VectorParam id="9466"  name="translation">
              <InterpolatingParam id="9467" interp="linr"  time="-9999999/1" value="0" leadInLength="0/1"  />
              <InterpolatingParam id="9468" interp="linr"  time="-9999999/1" value="0" leadInLength="0/1"  />
              <InterpolatingParam id="9469" interp="linr"  time="-9999999/1" value="0" leadInLength="0/1"  />
             </VectorParam>
             <VectorParam id="9470"  name="rotation">
              <InterpolatingParam id="9471" interp="linr"  time="-9999999/1" value="0" leadInLength="0/1"  />
              <InterpolatingParam id="9472" interp="linr"  time="-9999999/1" value="0" leadInLength="0/1"  />
              <InterpolatingParam id="9473" interp="linr"  time="-9999999/1" value="0" leadInLength="0/1"  />
             </VectorParam>
             <VectorParam id="9474"  name="shear">
              <InterpolatingParam id="9475" interp="linr"  time="-9999999/1" value="0" leadInLength="0/1"  />
              <InterpolatingParam id="9476" interp="linr"  time="-9999999/1" value="0" leadInLength="0/1"  />
              <InterpolatingParam id="9477" interp="linr"  time="-9999999/1" value="0" leadInLength="0/1"  />
             </VectorParam>
             <VectorParam id="9478"  name="scale">
              <InterpolatingParam id="9479" interp="linr"  time="-9999999/1" value="1" leadInLength="0/1"  />
              <InterpolatingParam id="9480" interp="linr"  time="-9999999/1" value="1" leadInLength="0/1"  />
              <InterpolatingParam id="9481" interp="linr"  time="-9999999/1" value="1" leadInLength="0/1"  />
             </VectorParam>
             <VectorParam id="9482"  name="anchor">
              <InterpolatingParam id="9483" interp="linr"  time="0/1" value="0" leadInLength="0/1"  />
              <InterpolatingParam id="9484" interp="linr"  time="0/1" value="0" leadInLength="0/1"  />
              <InterpolatingParam id="9485" interp="linr"  time="0/1" value="0" leadInLength="0/1"  />
             </VectorParam>
            </Transformer>
            <Parameters>
             <VectorParam id="9486"  name="sourceCrop">
              <InterpolatingParam id="9487" interp="linr"  time="0/1" value="0" leadInLength="0/1"  />
              <InterpolatingParam id="9488" interp="linr"  time="0/1" value="0" leadInLength="0/1"  />
              <InterpolatingParam id="9489" interp="linr"  time="0/1" value="0" leadInLength="0/1"  />
              <InterpolatingParam id="9490" interp="linr"  time="0/1" value="0" leadInLength="0/1"  />
             </VectorParam>
             <VectorParam id="9491"  name="geometryCrop">
              <InterpolatingParam id="9492" interp="linr"  time="-9999999/1" value="0" leadInLength="0/1"  />
              <InterpolatingParam id="9493" interp="linr"  time="-9999999/1" value="0" leadInLength="0/1"  />
              <InterpolatingParam id="9494" interp="linr"  time="-9999999/1" value="0" leadInLength="0/1"  />
              <InterpolatingParam id="9495" interp="linr"  time="-9999999/1" value="0" leadInLength="0/1"  />
             </VectorParam>
             <InterpolatingParam id="9496" interp="linr"  time="-9999999/1" value="1" leadInLength="0/1"  name="opacity"/>
            </Parameters>
            <Attributes>
             <Attribute id="9497" value="" name="ident"/>
            </Attributes>
            <MetaData>
             <entry key="WinSubProjectDisplayName" val=""/>
            </MetaData>
            <ExtraData>
             <Entry key="ZoomPanBin">
              <ZoomPanBin id="9498"  >
               <ZoomPanKeyframes>
                <ZoomPanKeyframe id="9499" timeRangeEnd="-9999999/1" timeRangeDuration="0/1" interpolaterName=""  />
               </ZoomPanKeyframes>
              </ZoomPanBin>
             </Entry>
            </ExtraData>
           </VMFile>
           <VMFile id="9500" start="8791" duration="323" scalar="1/1" mediaStart="26742/1" mediaDuration="323/1" trackNumber="0" src="4" >
            <Transformer>
             <VectorParam id="9501"  name="translation">
              <InterpolatingParam id="9502" interp="linr"  time="-9999999/1" value="0" leadInLength="0/1"  />
              <InterpolatingParam id="9503" interp="linr"  time="-9999999/1" value="0" leadInLength="0/1"  />
              <InterpolatingParam id="9504" interp="linr"  time="-9999999/1" value="0" leadInLength="0/1"  />
             </VectorParam>
             <VectorParam id="9505"  name="rotation">
              <InterpolatingParam id="9506" interp="linr"  time="-9999999/1" value="0" leadInLength="0/1"  />
              <InterpolatingParam id="9507" interp="linr"  time="-9999999/1" value="0" leadInLength="0/1"  />
              <InterpolatingParam id="9508" interp="linr"  time="-9999999/1" value="0" leadInLength="0/1"  />
             </VectorParam>
             <VectorParam id="9509"  name="shear">
              <InterpolatingParam id="9510" interp="linr"  time="-9999999/1" value="0" leadInLength="0/1"  />
              <InterpolatingParam id="9511" interp="linr"  time="-9999999/1" value="0" leadInLength="0/1"  />
              <InterpolatingParam id="9512" interp="linr"  time="-9999999/1" value="0" leadInLength="0/1"  />
             </VectorParam>
             <VectorParam id="9513"  name="scale">
              <InterpolatingParam id="9514" interp="linr"  time="-9999999/1" value="1" leadInLength="0/1"  />
              <InterpolatingParam id="9515" interp="linr"  time="-9999999/1" value="1" leadInLength="0/1"  />
              <InterpolatingParam id="9516" interp="linr"  time="-9999999/1" value="1" leadInLength="0/1"  />
             </VectorParam>
             <VectorParam id="9517"  name="anchor">
              <InterpolatingParam id="9518" interp="linr"  time="0/1" value="0" leadInLength="0/1"  />
              <InterpolatingParam id="9519" interp="linr"  time="0/1" value="0" leadInLength="0/1"  />
              <InterpolatingParam id="9520" interp="linr"  time="0/1" value="0" leadInLength="0/1"  />
             </VectorParam>
            </Transformer>
            <Parameters>
             <VectorParam id="9521"  name="sourceCrop">
              <InterpolatingParam id="9522" interp="linr"  time="0/1" value="0" leadInLength="0/1"  />
              <InterpolatingParam id="9523" interp="linr"  time="0/1" value="0" leadInLength="0/1"  />
              <InterpolatingParam id="9524" interp="linr"  time="0/1" value="0" leadInLength="0/1"  />
              <InterpolatingParam id="9525" interp="linr"  time="0/1" value="0" leadInLength="0/1"  />
             </VectorParam>
             <VectorParam id="9526"  name="geometryCrop">
              <InterpolatingParam id="9527" interp="linr"  time="-9999999/1" value="0" leadInLength="0/1"  />
              <InterpolatingParam id="9528" interp="linr"  time="-9999999/1" value="0" leadInLength="0/1"  />
              <InterpolatingParam id="9529" interp="linr"  time="-9999999/1" value="0" leadInLength="0/1"  />
              <InterpolatingParam id="9530" interp="linr"  time="-9999999/1" value="0" leadInLength="0/1"  />
             </VectorParam>
             <InterpolatingParam id="9531" interp="linr"  time="-9999999/1" value="1" leadInLength="0/1"  name="opacity"/>
            </Parameters>
            <Attributes>
             <Attribute id="9532" value="" name="ident"/>
            </Attributes>
            <MetaData>
             <entry key="WinSubProjectDisplayName" val=""/>
            </MetaData>
            <ExtraData>
             <Entry key="ZoomPanBin">
              <ZoomPanBin id="9533"  >
               <ZoomPanKeyframes>
                <ZoomPanKeyframe id="9534" timeRangeEnd="-9999999/1" timeRangeDuration="0/1" interpolaterName=""  />
               </ZoomPanKeyframes>
              </ZoomPanBin>
             </Entry>
            </ExtraData>
           </VMFile>
           <VMFile id="9535" start="9114" duration="259" scalar="1/1" mediaStart="27825/1" mediaDuration="259/1" trackNumber="0" src="4" >
            <Transformer>
             <VectorParam id="9536"  name="translation">
              <InterpolatingParam id="9537" interp="linr"  time="-9999999/1" value="0" leadInLength="0/1"  />
              <InterpolatingParam id="9538" interp="linr"  time="-9999999/1" value="0" leadInLength="0/1"  />
              <InterpolatingParam id="9539" interp="linr"  time="-9999999/1" value="0" leadInLength="0/1"  />
             </VectorParam>
             <VectorParam id="9540"  name="rotation">
              <InterpolatingParam id="9541" interp="linr"  time="-9999999/1" value="0" leadInLength="0/1"  />
              <InterpolatingParam id="9542" interp="linr"  time="-9999999/1" value="0" leadInLength="0/1"  />
              <InterpolatingParam id="9543" interp="linr"  time="-9999999/1" value="0" leadInLength="0/1"  />
             </VectorParam>
             <VectorParam id="9544"  name="shear">
              <InterpolatingParam id="9545" interp="linr"  time="-9999999/1" value="0" leadInLength="0/1"  />
              <InterpolatingParam id="9546" interp="linr"  time="-9999999/1" value="0" leadInLength="0/1"  />
              <InterpolatingParam id="9547" interp="linr"  time="-9999999/1" value="0" leadInLength="0/1"  />
             </VectorParam>
             <VectorParam id="9548"  name="scale">
              <InterpolatingParam id="9549" interp="linr"  time="-9999999/1" value="1" leadInLength="0/1"  />
              <InterpolatingParam id="9550" interp="linr"  time="-9999999/1" value="1" leadInLength="0/1"  />
              <InterpolatingParam id="9551" interp="linr"  time="-9999999/1" value="1" leadInLength="0/1"  />
             </VectorParam>
             <VectorParam id="9552"  name="anchor">
              <InterpolatingParam id="9553" interp="linr"  time="0/1" value="0" leadInLength="0/1"  />
              <InterpolatingParam id="9554" interp="linr"  time="0/1" value="0" leadInLength="0/1"  />
              <InterpolatingParam id="9555" interp="linr"  time="0/1" value="0" leadInLength="0/1"  />
             </VectorParam>
            </Transformer>
            <Parameters>
             <VectorParam id="9556"  name="sourceCrop">
              <InterpolatingParam id="9557" interp="linr"  time="0/1" value="0" leadInLength="0/1"  />
              <InterpolatingParam id="9558" interp="linr"  time="0/1" value="0" leadInLength="0/1"  />
              <InterpolatingParam id="9559" interp="linr"  time="0/1" value="0" leadInLength="0/1"  />
              <InterpolatingParam id="9560" interp="linr"  time="0/1" value="0" leadInLength="0/1"  />
             </VectorParam>
             <VectorParam id="9561"  name="geometryCrop">
              <InterpolatingParam id="9562" interp="linr"  time="-9999999/1" value="0" leadInLength="0/1"  />
              <InterpolatingParam id="9563" interp="linr"  time="-9999999/1" value="0" leadInLength="0/1"  />
              <InterpolatingParam id="9564" interp="linr"  time="-9999999/1" value="0" leadInLength="0/1"  />
              <InterpolatingParam id="9565" interp="linr"  time="-9999999/1" value="0" leadInLength="0/1"  />
             </VectorParam>
             <InterpolatingParam id="9566" interp="linr"  time="-9999999/1" value="1" leadInLength="0/1"  name="opacity"/>
            </Parameters>
            <Attributes>
             <Attribute id="9567" value="" name="ident"/>
            </Attributes>
            <MetaData>
             <entry key="WinSubProjectDisplayName" val=""/>
            </MetaData>
            <ExtraData>
             <Entry key="ZoomPanBin">
              <ZoomPanBin id="9568"  >
               <ZoomPanKeyframes>
                <ZoomPanKeyframe id="9569" timeRangeEnd="-9999999/1" timeRangeDuration="0/1" interpolaterName=""  />
               </ZoomPanKeyframes>
              </ZoomPanBin>
             </Entry>
            </ExtraData>
           </VMFile>
           <VMFile id="9570" start="9373" duration="157" scalar="1/1" mediaStart="28287/1" mediaDuration="157/1" trackNumber="0" src="4" >
            <Transformer>
             <VectorParam id="9571"  name="translation">
              <InterpolatingParam id="9572" interp="linr"  time="-9999999/1" value="0" leadInLength="0/1"  />
              <InterpolatingParam id="9573" interp="linr"  time="-9999999/1" value="0" leadInLength="0/1"  />
              <InterpolatingParam id="9574" interp="linr"  time="-9999999/1" value="0" leadInLength="0/1"  />
             </VectorParam>
             <VectorParam id="9575"  name="rotation">
              <InterpolatingParam id="9576" interp="linr"  time="-9999999/1" value="0" leadInLength="0/1"  />
              <InterpolatingParam id="9577" interp="linr"  time="-9999999/1" value="0" leadInLength="0/1"  />
              <InterpolatingParam id="9578" interp="linr"  time="-9999999/1" value="0" leadInLength="0/1"  />
             </VectorParam>
             <VectorParam id="9579"  name="shear">
              <InterpolatingParam id="9580" interp="linr"  time="-9999999/1" value="0" leadInLength="0/1"  />
              <InterpolatingParam id="9581" interp="linr"  time="-9999999/1" value="0" leadInLength="0/1"  />
              <InterpolatingParam id="9582" interp="linr"  time="-9999999/1" value="0" leadInLength="0/1"  />
             </VectorParam>
             <VectorParam id="9583"  name="scale">
              <InterpolatingParam id="9584" interp="linr"  time="-9999999/1" value="1" leadInLength="0/1"  />
              <InterpolatingParam id="9585" interp="linr"  time="-9999999/1" value="1" leadInLength="0/1"  />
              <InterpolatingParam id="9586" interp="linr"  time="-9999999/1" value="1" leadInLength="0/1"  />
             </VectorParam>
             <VectorParam id="9587"  name="anchor">
              <InterpolatingParam id="9588" interp="linr"  time="0/1" value="0" leadInLength="0/1"  />
              <InterpolatingParam id="9589" interp="linr"  time="0/1" value="0" leadInLength="0/1"  />
              <InterpolatingParam id="9590" interp="linr"  time="0/1" value="0" leadInLength="0/1"  />
             </VectorParam>
            </Transformer>
            <Parameters>
             <VectorParam id="9591"  name="sourceCrop">
              <InterpolatingParam id="9592" interp="linr"  time="0/1" value="0" leadInLength="0/1"  />
              <InterpolatingParam id="9593" interp="linr"  time="0/1" value="0" leadInLength="0/1"  />
              <InterpolatingParam id="9594" interp="linr"  time="0/1" value="0" leadInLength="0/1"  />
              <InterpolatingParam id="9595" interp="linr"  time="0/1" value="0" leadInLength="0/1"  />
             </VectorParam>
             <VectorParam id="9596"  name="geometryCrop">
              <InterpolatingParam id="9597" interp="linr"  time="-9999999/1" value="0" leadInLength="0/1"  />
              <InterpolatingParam id="9598" interp="linr"  time="-9999999/1" value="0" leadInLength="0/1"  />
              <InterpolatingParam id="9599" interp="linr"  time="-9999999/1" value="0" leadInLength="0/1"  />
              <InterpolatingParam id="9600" interp="linr"  time="-9999999/1" value="0" leadInLength="0/1"  />
             </VectorParam>
             <InterpolatingParam id="9601" interp="linr"  time="-9999999/1" value="1" leadInLength="0/1"  name="opacity"/>
            </Parameters>
            <Attributes>
             <Attribute id="9602" value="" name="ident"/>
            </Attributes>
            <MetaData>
             <entry key="WinSubProjectDisplayName" val=""/>
            </MetaData>
            <ExtraData>
             <Entry key="ZoomPanBin">
              <ZoomPanBin id="9603"  >
               <ZoomPanKeyframes>
                <ZoomPanKeyframe id="9604" timeRangeEnd="-9999999/1" timeRangeDuration="0/1" interpolaterName=""  />
               </ZoomPanKeyframes>
              </ZoomPanBin>
             </Entry>
            </ExtraData>
           </VMFile>
           <VMFile id="9605" start="9530" duration="290" scalar="1/1" mediaStart="28689/1" mediaDuration="290/1" trackNumber="0" src="4" >
            <Transformer>
             <VectorParam id="9606"  name="translation">
              <InterpolatingParam id="9607" interp="linr"  time="-9999999/1" value="0" leadInLength="0/1"  />
              <InterpolatingParam id="9608" interp="linr"  time="-9999999/1" value="0" leadInLength="0/1"  />
              <InterpolatingParam id="9609" interp="linr"  time="-9999999/1" value="0" leadInLength="0/1"  />
             </VectorParam>
             <VectorParam id="9610"  name="rotation">
              <InterpolatingParam id="9611" interp="linr"  time="-9999999/1" value="0" leadInLength="0/1"  />
              <InterpolatingParam id="9612" interp="linr"  time="-9999999/1" value="0" leadInLength="0/1"  />
              <InterpolatingParam id="9613" interp="linr"  time="-9999999/1" value="0" leadInLength="0/1"  />
             </VectorParam>
             <VectorParam id="9614"  name="shear">
              <InterpolatingParam id="9615" interp="linr"  time="-9999999/1" value="0" leadInLength="0/1"  />
              <InterpolatingParam id="9616" interp="linr"  time="-9999999/1" value="0" leadInLength="0/1"  />
              <InterpolatingParam id="9617" interp="linr"  time="-9999999/1" value="0" leadInLength="0/1"  />
             </VectorParam>
             <VectorParam id="9618"  name="scale">
              <InterpolatingParam id="9619" interp="linr"  time="-9999999/1" value="1" leadInLength="0/1"  />
              <InterpolatingParam id="9620" interp="linr"  time="-9999999/1" value="1" leadInLength="0/1"  />
              <InterpolatingParam id="9621" interp="linr"  time="-9999999/1" value="1" leadInLength="0/1"  />
             </VectorParam>
             <VectorParam id="9622"  name="anchor">
              <InterpolatingParam id="9623" interp="linr"  time="0/1" value="0" leadInLength="0/1"  />
              <InterpolatingParam id="9624" interp="linr"  time="0/1" value="0" leadInLength="0/1"  />
              <InterpolatingParam id="9625" interp="linr"  time="0/1" value="0" leadInLength="0/1"  />
             </VectorParam>
            </Transformer>
            <Parameters>
             <VectorParam id="9626"  name="sourceCrop">
              <InterpolatingParam id="9627" interp="linr"  time="0/1" value="0" leadInLength="0/1"  />
              <InterpolatingParam id="9628" interp="linr"  time="0/1" value="0" leadInLength="0/1"  />
              <InterpolatingParam id="9629" interp="linr"  time="0/1" value="0" leadInLength="0/1"  />
              <InterpolatingParam id="9630" interp="linr"  time="0/1" value="0" leadInLength="0/1"  />
             </VectorParam>
             <VectorParam id="9631"  name="geometryCrop">
              <InterpolatingParam id="9632" interp="linr"  time="-9999999/1" value="0" leadInLength="0/1"  />
              <InterpolatingParam id="9633" interp="linr"  time="-9999999/1" value="0" leadInLength="0/1"  />
              <InterpolatingParam id="9634" interp="linr"  time="-9999999/1" value="0" leadInLength="0/1"  />
              <InterpolatingParam id="9635" interp="linr"  time="-9999999/1" value="0" leadInLength="0/1"  />
             </VectorParam>
             <InterpolatingParam id="9636" interp="linr"  time="-9999999/1" value="1" leadInLength="0/1"  name="opacity"/>
            </Parameters>
            <Attributes>
             <Attribute id="9637" value="" name="ident"/>
            </Attributes>
            <MetaData>
             <entry key="WinSubProjectDisplayName" val=""/>
            </MetaData>
            <ExtraData>
             <Entry key="ZoomPanBin">
              <ZoomPanBin id="9638"  >
               <ZoomPanKeyframes>
                <ZoomPanKeyframe id="9639" timeRangeEnd="-9999999/1" timeRangeDuration="0/1" interpolaterName=""  />
               </ZoomPanKeyframes>
              </ZoomPanBin>
             </Entry>
            </ExtraData>
           </VMFile>
           <IMFile id="9640" start="9820" duration="60" scalar="1/1" mediaStart="29056/1" mediaDuration="1/1" trackNumber="0" src="4" trimStartSum="0/1" >
            <Transformer>
             <VectorParam id="9641"  name="translation">
              <InterpolatingParam id="9642" interp="linr"  time="-9999999/1" value="0" leadInLength="0/1"  />
              <InterpolatingParam id="9643" interp="linr"  time="-9999999/1" value="0" leadInLength="0/1"  />
              <InterpolatingParam id="9644" interp="linr"  time="-9999999/1" value="0" leadInLength="0/1"  />
             </VectorParam>
             <VectorParam id="9645"  name="rotation">
              <InterpolatingParam id="9646" interp="linr"  time="-9999999/1" value="0" leadInLength="0/1"  />
              <InterpolatingParam id="9647" interp="linr"  time="-9999999/1" value="0" leadInLength="0/1"  />
              <InterpolatingParam id="9648" interp="linr"  time="-9999999/1" value="0" leadInLength="0/1"  />
             </VectorParam>
             <VectorParam id="9649"  name="shear">
              <InterpolatingParam id="9650" interp="linr"  time="-9999999/1" value="0" leadInLength="0/1"  />
              <InterpolatingParam id="9651" interp="linr"  time="-9999999/1" value="0" leadInLength="0/1"  />
              <InterpolatingParam id="9652" interp="linr"  time="-9999999/1" value="0" leadInLength="0/1"  />
             </VectorParam>
             <VectorParam id="9653"  name="scale">
              <InterpolatingParam id="9654" interp="linr"  time="-9999999/1" value="1" leadInLength="0/1"  />
              <InterpolatingParam id="9655" interp="linr"  time="-9999999/1" value="1" leadInLength="0/1"  />
              <InterpolatingParam id="9656" interp="linr"  time="-9999999/1" value="1" leadInLength="0/1"  />
             </VectorParam>
             <VectorParam id="9657"  name="anchor">
              <InterpolatingParam id="9658" interp="linr"  time="0/1" value="0" leadInLength="0/1"  />
              <InterpolatingParam id="9659" interp="linr"  time="0/1" value="0" leadInLength="0/1"  />
              <InterpolatingParam id="9660" interp="linr"  time="0/1" value="0" leadInLength="0/1"  />
             </VectorParam>
            </Transformer>
            <Parameters>
             <VectorParam id="9661"  name="sourceCrop">
              <InterpolatingParam id="9662" interp="linr"  time="0/1" value="0" leadInLength="0/1"  />
              <InterpolatingParam id="9663" interp="linr"  time="0/1" value="0" leadInLength="0/1"  />
              <InterpolatingParam id="9664" interp="linr"  time="0/1" value="0" leadInLength="0/1"  />
              <InterpolatingParam id="9665" interp="linr"  time="0/1" value="0" leadInLength="0/1"  />
             </VectorParam>
             <VectorParam id="9666"  name="geometryCrop">
              <InterpolatingParam id="9667" interp="linr"  time="-9999999/1" value="0" leadInLength="0/1"  />
              <InterpolatingParam id="9668" interp="linr"  time="-9999999/1" value="0" leadInLength="0/1"  />
              <InterpolatingParam id="9669" interp="linr"  time="-9999999/1" value="0" leadInLength="0/1"  />
              <InterpolatingParam id="9670" interp="linr"  time="-9999999/1" value="0" leadInLength="0/1"  />
             </VectorParam>
             <InterpolatingParam id="9671" interp="linr"  time="-9999999/1" value="1" leadInLength="0/1"  name="opacity"/>
            </Parameters>
            <Attributes>
             <Attribute id="9672" value="" name="ident"/>
            </Attributes>
            <MetaData>
             <entry key="WinSubProjectDisplayName" val=""/>
            </MetaData>
            <ExtraData>
             <Entry key="ZoomPanBin">
              <ZoomPanBin id="9673"  >
               <ZoomPanKeyframes>
                <ZoomPanKeyframe id="9674" timeRangeEnd="-9999999/1" timeRangeDuration="0/1" interpolaterName=""  />
               </ZoomPanKeyframes>
              </ZoomPanBin>
             </Entry>
            </ExtraData>
           </IMFile>
           <VMFile id="9675" start="9880" duration="18" scalar="1/1" mediaStart="29056/1" mediaDuration="18/1" trackNumber="0" src="4" >
            <Transformer>
             <VectorParam id="9676"  name="translation">
              <InterpolatingParam id="9677" interp="linr"  time="-9999999/1" value="0" leadInLength="0/1"  />
              <InterpolatingParam id="9678" interp="linr"  time="-9999999/1" value="0" leadInLength="0/1"  />
              <InterpolatingParam id="9679" interp="linr"  time="-9999999/1" value="0" leadInLength="0/1"  />
             </VectorParam>
             <VectorParam id="9680"  name="rotation">
              <InterpolatingParam id="9681" interp="linr"  time="-9999999/1" value="0" leadInLength="0/1"  />
              <InterpolatingParam id="9682" interp="linr"  time="-9999999/1" value="0" leadInLength="0/1"  />
              <InterpolatingParam id="9683" interp="linr"  time="-9999999/1" value="0" leadInLength="0/1"  />
             </VectorParam>
             <VectorParam id="9684"  name="shear">
              <InterpolatingParam id="9685" interp="linr"  time="-9999999/1" value="0" leadInLength="0/1"  />
              <InterpolatingParam id="9686" interp="linr"  time="-9999999/1" value="0" leadInLength="0/1"  />
              <InterpolatingParam id="9687" interp="linr"  time="-9999999/1" value="0" leadInLength="0/1"  />
             </VectorParam>
             <VectorParam id="9688"  name="scale">
              <InterpolatingParam id="9689" interp="linr"  time="-9999999/1" value="1" leadInLength="0/1"  />
              <InterpolatingParam id="9690" interp="linr"  time="-9999999/1" value="1" leadInLength="0/1"  />
              <InterpolatingParam id="9691" interp="linr"  time="-9999999/1" value="1" leadInLength="0/1"  />
             </VectorParam>
             <VectorParam id="9692"  name="anchor">
              <InterpolatingParam id="9693" interp="linr"  time="0/1" value="0" leadInLength="0/1"  />
              <InterpolatingParam id="9694" interp="linr"  time="0/1" value="0" leadInLength="0/1"  />
              <InterpolatingParam id="9695" interp="linr"  time="0/1" value="0" leadInLength="0/1"  />
             </VectorParam>
            </Transformer>
            <Parameters>
             <VectorParam id="9696"  name="sourceCrop">
              <InterpolatingParam id="9697" interp="linr"  time="0/1" value="0" leadInLength="0/1"  />
              <InterpolatingParam id="9698" interp="linr"  time="0/1" value="0" leadInLength="0/1"  />
              <InterpolatingParam id="9699" interp="linr"  time="0/1" value="0" leadInLength="0/1"  />
              <InterpolatingParam id="9700" interp="linr"  time="0/1" value="0" leadInLength="0/1"  />
             </VectorParam>
             <VectorParam id="9701"  name="geometryCrop">
              <InterpolatingParam id="9702" interp="linr"  time="-9999999/1" value="0" leadInLength="0/1"  />
              <InterpolatingParam id="9703" interp="linr"  time="-9999999/1" value="0" leadInLength="0/1"  />
              <InterpolatingParam id="9704" interp="linr"  time="-9999999/1" value="0" leadInLength="0/1"  />
              <InterpolatingParam id="9705" interp="linr"  time="-9999999/1" value="0" leadInLength="0/1"  />
             </VectorParam>
             <InterpolatingParam id="9706" interp="linr"  time="-9999999/1" value="1" leadInLength="0/1"  name="opacity"/>
            </Parameters>
            <Attributes>
             <Attribute id="9707" value="" name="ident"/>
            </Attributes>
            <MetaData>
             <entry key="WinSubProjectDisplayName" val=""/>
            </MetaData>
            <ExtraData>
             <Entry key="ZoomPanBin">
              <ZoomPanBin id="9708"  >
               <ZoomPanKeyframes>
                <ZoomPanKeyframe id="9709" timeRangeEnd="-9999999/1" timeRangeDuration="0/1" interpolaterName=""  />
               </ZoomPanKeyframes>
              </ZoomPanBin>
             </Entry>
            </ExtraData>
           </VMFile>
           <IMFile id="9710" start="9898" duration="30" scalar="1/1" mediaStart="29074/1" mediaDuration="1/1" trackNumber="0" src="4" trimStartSum="0/1" >
            <Transformer>
             <VectorParam id="9711"  name="translation">
              <InterpolatingParam id="9712" interp="linr"  time="-9999999/1" value="0" leadInLength="0/1"  />
              <InterpolatingParam id="9713" interp="linr"  time="-9999999/1" value="0" leadInLength="0/1"  />
              <InterpolatingParam id="9714" interp="linr"  time="-9999999/1" value="0" leadInLength="0/1"  />
             </VectorParam>
             <VectorParam id="9715"  name="rotation">
              <InterpolatingParam id="9716" interp="linr"  time="-9999999/1" value="0" leadInLength="0/1"  />
              <InterpolatingParam id="9717" interp="linr"  time="-9999999/1" value="0" leadInLength="0/1"  />
              <InterpolatingParam id="9718" interp="linr"  time="-9999999/1" value="0" leadInLength="0/1"  />
             </VectorParam>
             <VectorParam id="9719"  name="shear">
              <InterpolatingParam id="9720" interp="linr"  time="-9999999/1" value="0" leadInLength="0/1"  />
              <InterpolatingParam id="9721" interp="linr"  time="-9999999/1" value="0" leadInLength="0/1"  />
              <InterpolatingParam id="9722" interp="linr"  time="-9999999/1" value="0" leadInLength="0/1"  />
             </VectorParam>
             <VectorParam id="9723"  name="scale">
              <InterpolatingParam id="9724" interp="linr"  time="-9999999/1" value="1" leadInLength="0/1"  />
              <InterpolatingParam id="9725" interp="linr"  time="-9999999/1" value="1" leadInLength="0/1"  />
              <InterpolatingParam id="9726" interp="linr"  time="-9999999/1" value="1" leadInLength="0/1"  />
             </VectorParam>
             <VectorParam id="9727"  name="anchor">
              <InterpolatingParam id="9728" interp="linr"  time="0/1" value="0" leadInLength="0/1"  />
              <InterpolatingParam id="9729" interp="linr"  time="0/1" value="0" leadInLength="0/1"  />
              <InterpolatingParam id="9730" interp="linr"  time="0/1" value="0" leadInLength="0/1"  />
             </VectorParam>
            </Transformer>
            <Parameters>
             <VectorParam id="9731"  name="sourceCrop">
              <InterpolatingParam id="9732" interp="linr"  time="0/1" value="0" leadInLength="0/1"  />
              <InterpolatingParam id="9733" interp="linr"  time="0/1" value="0" leadInLength="0/1"  />
              <InterpolatingParam id="9734" interp="linr"  time="0/1" value="0" leadInLength="0/1"  />
              <InterpolatingParam id="9735" interp="linr"  time="0/1" value="0" leadInLength="0/1"  />
             </VectorParam>
             <VectorParam id="9736"  name="geometryCrop">
              <InterpolatingParam id="9737" interp="linr"  time="-9999999/1" value="0" leadInLength="0/1"  />
              <InterpolatingParam id="9738" interp="linr"  time="-9999999/1" value="0" leadInLength="0/1"  />
              <InterpolatingParam id="9739" interp="linr"  time="-9999999/1" value="0" leadInLength="0/1"  />
              <InterpolatingParam id="9740" interp="linr"  time="-9999999/1" value="0" leadInLength="0/1"  />
             </VectorParam>
             <InterpolatingParam id="9741" interp="linr"  time="-9999999/1" value="1" leadInLength="0/1"  name="opacity"/>
            </Parameters>
            <Attributes>
             <Attribute id="9742" value="" name="ident"/>
            </Attributes>
            <MetaData>
             <entry key="WinSubProjectDisplayName" val=""/>
            </MetaData>
            <ExtraData>
             <Entry key="ZoomPanBin">
              <ZoomPanBin id="9743"  >
               <ZoomPanKeyframes>
                <ZoomPanKeyframe id="9744" timeRangeEnd="-9999999/1" timeRangeDuration="0/1" interpolaterName=""  />
               </ZoomPanKeyframes>
              </ZoomPanBin>
             </Entry>
            </ExtraData>
           </IMFile>
           <VMFile id="9745" start="9928" duration="1" scalar="1/1" mediaStart="29074/1" mediaDuration="1/1" trackNumber="0" src="4" >
            <Transformer>
             <VectorParam id="9746"  name="translation">
              <InterpolatingParam id="9747" interp="linr"  time="-9999999/1" value="0" leadInLength="0/1"  />
              <InterpolatingParam id="9748" interp="linr"  time="-9999999/1" value="0" leadInLength="0/1"  />
              <InterpolatingParam id="9749" interp="linr"  time="-9999999/1" value="0" leadInLength="0/1"  />
             </VectorParam>
             <VectorParam id="9750"  name="rotation">
              <InterpolatingParam id="9751" interp="linr"  time="-9999999/1" value="0" leadInLength="0/1"  />
              <InterpolatingParam id="9752" interp="linr"  time="-9999999/1" value="0" leadInLength="0/1"  />
              <InterpolatingParam id="9753" interp="linr"  time="-9999999/1" value="0" leadInLength="0/1"  />
             </VectorParam>
             <VectorParam id="9754"  name="shear">
              <InterpolatingParam id="9755" interp="linr"  time="-9999999/1" value="0" leadInLength="0/1"  />
              <InterpolatingParam id="9756" interp="linr"  time="-9999999/1" value="0" leadInLength="0/1"  />
              <InterpolatingParam id="9757" interp="linr"  time="-9999999/1" value="0" leadInLength="0/1"  />
             </VectorParam>
             <VectorParam id="9758"  name="scale">
              <InterpolatingParam id="9759" interp="linr"  time="-9999999/1" value="1" leadInLength="0/1"  />
              <InterpolatingParam id="9760" interp="linr"  time="-9999999/1" value="1" leadInLength="0/1"  />
              <InterpolatingParam id="9761" interp="linr"  time="-9999999/1" value="1" leadInLength="0/1"  />
             </VectorParam>
             <VectorParam id="9762"  name="anchor">
              <InterpolatingParam id="9763" interp="linr"  time="0/1" value="0" leadInLength="0/1"  />
              <InterpolatingParam id="9764" interp="linr"  time="0/1" value="0" leadInLength="0/1"  />
              <InterpolatingParam id="9765" interp="linr"  time="0/1" value="0" leadInLength="0/1"  />
             </VectorParam>
            </Transformer>
            <Parameters>
             <VectorParam id="9766"  name="sourceCrop">
              <InterpolatingParam id="9767" interp="linr"  time="0/1" value="0" leadInLength="0/1"  />
              <InterpolatingParam id="9768" interp="linr"  time="0/1" value="0" leadInLength="0/1"  />
              <InterpolatingParam id="9769" interp="linr"  time="0/1" value="0" leadInLength="0/1"  />
              <InterpolatingParam id="9770" interp="linr"  time="0/1" value="0" leadInLength="0/1"  />
             </VectorParam>
             <VectorParam id="9771"  name="geometryCrop">
              <InterpolatingParam id="9772" interp="linr"  time="-9999999/1" value="0" leadInLength="0/1"  />
              <InterpolatingParam id="9773" interp="linr"  time="-9999999/1" value="0" leadInLength="0/1"  />
              <InterpolatingParam id="9774" interp="linr"  time="-9999999/1" value="0" leadInLength="0/1"  />
              <InterpolatingParam id="9775" interp="linr"  time="-9999999/1" value="0" leadInLength="0/1"  />
             </VectorParam>
             <InterpolatingParam id="9776" interp="linr"  time="-9999999/1" value="1" leadInLength="0/1"  name="opacity"/>
            </Parameters>
            <Attributes>
             <Attribute id="9777" value="" name="ident"/>
            </Attributes>
            <MetaData>
             <entry key="WinSubProjectDisplayName" val=""/>
            </MetaData>
            <ExtraData>
             <Entry key="ZoomPanBin">
              <ZoomPanBin id="9778"  >
               <ZoomPanKeyframes>
                <ZoomPanKeyframe id="9779" timeRangeEnd="-9999999/1" timeRangeDuration="0/1" interpolaterName=""  />
               </ZoomPanKeyframes>
              </ZoomPanBin>
             </Entry>
            </ExtraData>
           </VMFile>
           <VMFile id="9780" start="9929" duration="42" scalar="1/1" mediaStart="29274/1" mediaDuration="42/1" trackNumber="0" src="4" >
            <Transformer>
             <VectorParam id="9781"  name="translation">
              <InterpolatingParam id="9782" interp="linr"  time="-9999999/1" value="0" leadInLength="0/1"  />
              <InterpolatingParam id="9783" interp="linr"  time="-9999999/1" value="0" leadInLength="0/1"  />
              <InterpolatingParam id="9784" interp="linr"  time="-9999999/1" value="0" leadInLength="0/1"  />
             </VectorParam>
             <VectorParam id="9785"  name="rotation">
              <InterpolatingParam id="9786" interp="linr"  time="-9999999/1" value="0" leadInLength="0/1"  />
              <InterpolatingParam id="9787" interp="linr"  time="-9999999/1" value="0" leadInLength="0/1"  />
              <InterpolatingParam id="9788" interp="linr"  time="-9999999/1" value="0" leadInLength="0/1"  />
             </VectorParam>
             <VectorParam id="9789"  name="shear">
              <InterpolatingParam id="9790" interp="linr"  time="-9999999/1" value="0" leadInLength="0/1"  />
              <InterpolatingParam id="9791" interp="linr"  time="-9999999/1" value="0" leadInLength="0/1"  />
              <InterpolatingParam id="9792" interp="linr"  time="-9999999/1" value="0" leadInLength="0/1"  />
             </VectorParam>
             <VectorParam id="9793"  name="scale">
              <InterpolatingParam id="9794" interp="linr"  time="-9999999/1" value="1" leadInLength="0/1"  />
              <InterpolatingParam id="9795" interp="linr"  time="-9999999/1" value="1" leadInLength="0/1"  />
              <InterpolatingParam id="9796" interp="linr"  time="-9999999/1" value="1" leadInLength="0/1"  />
             </VectorParam>
             <VectorParam id="9797"  name="anchor">
              <InterpolatingParam id="9798" interp="linr"  time="0/1" value="0" leadInLength="0/1"  />
              <InterpolatingParam id="9799" interp="linr"  time="0/1" value="0" leadInLength="0/1"  />
              <InterpolatingParam id="9800" interp="linr"  time="0/1" value="0" leadInLength="0/1"  />
             </VectorParam>
            </Transformer>
            <Parameters>
             <VectorParam id="9801"  name="sourceCrop">
              <InterpolatingParam id="9802" interp="linr"  time="0/1" value="0" leadInLength="0/1"  />
              <InterpolatingParam id="9803" interp="linr"  time="0/1" value="0" leadInLength="0/1"  />
              <InterpolatingParam id="9804" interp="linr"  time="0/1" value="0" leadInLength="0/1"  />
              <InterpolatingParam id="9805" interp="linr"  time="0/1" value="0" leadInLength="0/1"  />
             </VectorParam>
             <VectorParam id="9806"  name="geometryCrop">
              <InterpolatingParam id="9807" interp="linr"  time="-9999999/1" value="0" leadInLength="0/1"  />
              <InterpolatingParam id="9808" interp="linr"  time="-9999999/1" value="0" leadInLength="0/1"  />
              <InterpolatingParam id="9809" interp="linr"  time="-9999999/1" value="0" leadInLength="0/1"  />
              <InterpolatingParam id="9810" interp="linr"  time="-9999999/1" value="0" leadInLength="0/1"  />
             </VectorParam>
             <InterpolatingParam id="9811" interp="linr"  time="-9999999/1" value="1" leadInLength="0/1"  name="opacity"/>
            </Parameters>
            <Attributes>
             <Attribute id="9812" value="" name="ident"/>
            </Attributes>
            <MetaData>
             <entry key="WinSubProjectDisplayName" val=""/>
            </MetaData>
            <ExtraData>
             <Entry key="ZoomPanBin">
              <ZoomPanBin id="9813"  >
               <ZoomPanKeyframes>
                <ZoomPanKeyframe id="9814" timeRangeEnd="-9999999/1" timeRangeDuration="0/1" interpolaterName=""  />
               </ZoomPanKeyframes>
              </ZoomPanBin>
             </Entry>
            </ExtraData>
           </VMFile>
           <VMFile id="9815" start="9971" duration="147" scalar="1/1" mediaStart="29358/1" mediaDuration="147/1" trackNumber="0" src="4" >
            <Transformer>
             <VectorParam id="9816"  name="translation">
              <InterpolatingParam id="9817" interp="linr"  time="-9999999/1" value="0" leadInLength="0/1"  />
              <InterpolatingParam id="9818" interp="linr"  time="-9999999/1" value="0" leadInLength="0/1"  />
              <InterpolatingParam id="9819" interp="linr"  time="-9999999/1" value="0" leadInLength="0/1"  />
             </VectorParam>
             <VectorParam id="9820"  name="rotation">
              <InterpolatingParam id="9821" interp="linr"  time="-9999999/1" value="0" leadInLength="0/1"  />
              <InterpolatingParam id="9822" interp="linr"  time="-9999999/1" value="0" leadInLength="0/1"  />
              <InterpolatingParam id="9823" interp="linr"  time="-9999999/1" value="0" leadInLength="0/1"  />
             </VectorParam>
             <VectorParam id="9824"  name="shear">
              <InterpolatingParam id="9825" interp="linr"  time="-9999999/1" value="0" leadInLength="0/1"  />
              <InterpolatingParam id="9826" interp="linr"  time="-9999999/1" value="0" leadInLength="0/1"  />
              <InterpolatingParam id="9827" interp="linr"  time="-9999999/1" value="0" leadInLength="0/1"  />
             </VectorParam>
             <VectorParam id="9828"  name="scale">
              <InterpolatingParam id="9829" interp="linr"  time="-9999999/1" value="1" leadInLength="0/1"  />
              <InterpolatingParam id="9830" interp="linr"  time="-9999999/1" value="1" leadInLength="0/1"  />
              <InterpolatingParam id="9831" interp="linr"  time="-9999999/1" value="1" leadInLength="0/1"  />
             </VectorParam>
             <VectorParam id="9832"  name="anchor">
              <InterpolatingParam id="9833" interp="linr"  time="0/1" value="0" leadInLength="0/1"  />
              <InterpolatingParam id="9834" interp="linr"  time="0/1" value="0" leadInLength="0/1"  />
              <InterpolatingParam id="9835" interp="linr"  time="0/1" value="0" leadInLength="0/1"  />
             </VectorParam>
            </Transformer>
            <Parameters>
             <VectorParam id="9836"  name="sourceCrop">
              <InterpolatingParam id="9837" interp="linr"  time="0/1" value="0" leadInLength="0/1"  />
              <InterpolatingParam id="9838" interp="linr"  time="0/1" value="0" leadInLength="0/1"  />
              <InterpolatingParam id="9839" interp="linr"  time="0/1" value="0" leadInLength="0/1"  />
              <InterpolatingParam id="9840" interp="linr"  time="0/1" value="0" leadInLength="0/1"  />
             </VectorParam>
             <VectorParam id="9841"  name="geometryCrop">
              <InterpolatingParam id="9842" interp="linr"  time="-9999999/1" value="0" leadInLength="0/1"  />
              <InterpolatingParam id="9843" interp="linr"  time="-9999999/1" value="0" leadInLength="0/1"  />
              <InterpolatingParam id="9844" interp="linr"  time="-9999999/1" value="0" leadInLength="0/1"  />
              <InterpolatingParam id="9845" interp="linr"  time="-9999999/1" value="0" leadInLength="0/1"  />
             </VectorParam>
             <InterpolatingParam id="9846" interp="linr"  time="-9999999/1" value="1" leadInLength="0/1"  name="opacity"/>
            </Parameters>
            <Attributes>
             <Attribute id="9847" value="" name="ident"/>
            </Attributes>
            <MetaData>
             <entry key="WinSubProjectDisplayName" val=""/>
            </MetaData>
            <ExtraData>
             <Entry key="ZoomPanBin">
              <ZoomPanBin id="9848"  >
               <ZoomPanKeyframes>
                <ZoomPanKeyframe id="9849" timeRangeEnd="-9999999/1" timeRangeDuration="0/1" interpolaterName=""  />
               </ZoomPanKeyframes>
              </ZoomPanBin>
             </Entry>
            </ExtraData>
           </VMFile>
           <VMFile id="9850" start="10118" duration="580" scalar="1/1" mediaStart="29557/1" mediaDuration="580/1" trackNumber="0" src="4" >
            <Transformer>
             <VectorParam id="9851"  name="translation">
              <InterpolatingParam id="9852" interp="linr"  time="-9999999/1" value="0" leadInLength="0/1"  />
              <InterpolatingParam id="9853" interp="linr"  time="-9999999/1" value="0" leadInLength="0/1"  />
              <InterpolatingParam id="9854" interp="linr"  time="-9999999/1" value="0" leadInLength="0/1"  />
             </VectorParam>
             <VectorParam id="9855"  name="rotation">
              <InterpolatingParam id="9856" interp="linr"  time="-9999999/1" value="0" leadInLength="0/1"  />
              <InterpolatingParam id="9857" interp="linr"  time="-9999999/1" value="0" leadInLength="0/1"  />
              <InterpolatingParam id="9858" interp="linr"  time="-9999999/1" value="0" leadInLength="0/1"  />
             </VectorParam>
             <VectorParam id="9859"  name="shear">
              <InterpolatingParam id="9860" interp="linr"  time="-9999999/1" value="0" leadInLength="0/1"  />
              <InterpolatingParam id="9861" interp="linr"  time="-9999999/1" value="0" leadInLength="0/1"  />
              <InterpolatingParam id="9862" interp="linr"  time="-9999999/1" value="0" leadInLength="0/1"  />
             </VectorParam>
             <VectorParam id="9863"  name="scale">
              <InterpolatingParam id="9864" interp="linr"  time="-9999999/1" value="1" leadInLength="0/1"  />
              <InterpolatingParam id="9865" interp="linr"  time="-9999999/1" value="1" leadInLength="0/1"  />
              <InterpolatingParam id="9866" interp="linr"  time="-9999999/1" value="1" leadInLength="0/1"  />
             </VectorParam>
             <VectorParam id="9867"  name="anchor">
              <InterpolatingParam id="9868" interp="linr"  time="0/1" value="0" leadInLength="0/1"  />
              <InterpolatingParam id="9869" interp="linr"  time="0/1" value="0" leadInLength="0/1"  />
              <InterpolatingParam id="9870" interp="linr"  time="0/1" value="0" leadInLength="0/1"  />
             </VectorParam>
            </Transformer>
            <Parameters>
             <VectorParam id="9871"  name="sourceCrop">
              <InterpolatingParam id="9872" interp="linr"  time="0/1" value="0" leadInLength="0/1"  />
              <InterpolatingParam id="9873" interp="linr"  time="0/1" value="0" leadInLength="0/1"  />
              <InterpolatingParam id="9874" interp="linr"  time="0/1" value="0" leadInLength="0/1"  />
              <InterpolatingParam id="9875" interp="linr"  time="0/1" value="0" leadInLength="0/1"  />
             </VectorParam>
             <VectorParam id="9876"  name="geometryCrop">
              <InterpolatingParam id="9877" interp="linr"  time="-9999999/1" value="0" leadInLength="0/1"  />
              <InterpolatingParam id="9878" interp="linr"  time="-9999999/1" value="0" leadInLength="0/1"  />
              <InterpolatingParam id="9879" interp="linr"  time="-9999999/1" value="0" leadInLength="0/1"  />
              <InterpolatingParam id="9880" interp="linr"  time="-9999999/1" value="0" leadInLength="0/1"  />
             </VectorParam>
             <InterpolatingParam id="9881" interp="linr"  time="-9999999/1" value="1" leadInLength="0/1"  name="opacity"/>
            </Parameters>
            <Attributes>
             <Attribute id="9882" value="" name="ident"/>
            </Attributes>
            <MetaData>
             <entry key="WinSubProjectDisplayName" val=""/>
            </MetaData>
            <ExtraData>
             <Entry key="ZoomPanBin">
              <ZoomPanBin id="9883"  >
               <ZoomPanKeyframes>
                <ZoomPanKeyframe id="9884" timeRangeEnd="-9999999/1" timeRangeDuration="0/1" interpolaterName=""  />
               </ZoomPanKeyframes>
              </ZoomPanBin>
             </Entry>
            </ExtraData>
           </VMFile>
           <VMFile id="9885" start="10698" duration="25" scalar="1/1" mediaStart="30200/1" mediaDuration="25/1" trackNumber="0" src="4" >
            <Transformer>
             <VectorParam id="9886"  name="translation">
              <InterpolatingParam id="9887" interp="linr"  time="-9999999/1" value="0" leadInLength="0/1"  />
              <InterpolatingParam id="9888" interp="linr"  time="-9999999/1" value="0" leadInLength="0/1"  />
              <InterpolatingParam id="9889" interp="linr"  time="-9999999/1" value="0" leadInLength="0/1"  />
             </VectorParam>
             <VectorParam id="9890"  name="rotation">
              <InterpolatingParam id="9891" interp="linr"  time="-9999999/1" value="0" leadInLength="0/1"  />
              <InterpolatingParam id="9892" interp="linr"  time="-9999999/1" value="0" leadInLength="0/1"  />
              <InterpolatingParam id="9893" interp="linr"  time="-9999999/1" value="0" leadInLength="0/1"  />
             </VectorParam>
             <VectorParam id="9894"  name="shear">
              <InterpolatingParam id="9895" interp="linr"  time="-9999999/1" value="0" leadInLength="0/1"  />
              <InterpolatingParam id="9896" interp="linr"  time="-9999999/1" value="0" leadInLength="0/1"  />
              <InterpolatingParam id="9897" interp="linr"  time="-9999999/1" value="0" leadInLength="0/1"  />
             </VectorParam>
             <VectorParam id="9898"  name="scale">
              <InterpolatingParam id="9899" interp="linr"  time="-9999999/1" value="1" leadInLength="0/1"  />
              <InterpolatingParam id="9900" interp="linr"  time="-9999999/1" value="1" leadInLength="0/1"  />
              <InterpolatingParam id="9901" interp="linr"  time="-9999999/1" value="1" leadInLength="0/1"  />
             </VectorParam>
             <VectorParam id="9902"  name="anchor">
              <InterpolatingParam id="9903" interp="linr"  time="0/1" value="0" leadInLength="0/1"  />
              <InterpolatingParam id="9904" interp="linr"  time="0/1" value="0" leadInLength="0/1"  />
              <InterpolatingParam id="9905" interp="linr"  time="0/1" value="0" leadInLength="0/1"  />
             </VectorParam>
            </Transformer>
            <Parameters>
             <VectorParam id="9906"  name="sourceCrop">
              <InterpolatingParam id="9907" interp="linr"  time="0/1" value="0" leadInLength="0/1"  />
              <InterpolatingParam id="9908" interp="linr"  time="0/1" value="0" leadInLength="0/1"  />
              <InterpolatingParam id="9909" interp="linr"  time="0/1" value="0" leadInLength="0/1"  />
              <InterpolatingParam id="9910" interp="linr"  time="0/1" value="0" leadInLength="0/1"  />
             </VectorParam>
             <VectorParam id="9911"  name="geometryCrop">
              <InterpolatingParam id="9912" interp="linr"  time="-9999999/1" value="0" leadInLength="0/1"  />
              <InterpolatingParam id="9913" interp="linr"  time="-9999999/1" value="0" leadInLength="0/1"  />
              <InterpolatingParam id="9914" interp="linr"  time="-9999999/1" value="0" leadInLength="0/1"  />
              <InterpolatingParam id="9915" interp="linr"  time="-9999999/1" value="0" leadInLength="0/1"  />
             </VectorParam>
             <InterpolatingParam id="9916" interp="linr"  time="-9999999/1" value="1" leadInLength="0/1"  name="opacity"/>
            </Parameters>
            <Attributes>
             <Attribute id="9917" value="" name="ident"/>
            </Attributes>
            <MetaData>
             <entry key="WinSubProjectDisplayName" val=""/>
            </MetaData>
            <ExtraData>
             <Entry key="ZoomPanBin">
              <ZoomPanBin id="9918"  >
               <ZoomPanKeyframes>
                <ZoomPanKeyframe id="9919" timeRangeEnd="-9999999/1" timeRangeDuration="0/1" interpolaterName=""  />
               </ZoomPanKeyframes>
              </ZoomPanBin>
             </Entry>
            </ExtraData>
           </VMFile>
           <VMFile id="9920" start="10723" duration="119" scalar="1/1" mediaStart="30368/1" mediaDuration="119/1" trackNumber="0" src="4" >
            <Transformer>
             <VectorParam id="9921"  name="translation">
              <InterpolatingParam id="9922" interp="linr"  time="-9999999/1" value="0" leadInLength="0/1"  />
              <InterpolatingParam id="9923" interp="linr"  time="-9999999/1" value="0" leadInLength="0/1"  />
              <InterpolatingParam id="9924" interp="linr"  time="-9999999/1" value="0" leadInLength="0/1"  />
             </VectorParam>
             <VectorParam id="9925"  name="rotation">
              <InterpolatingParam id="9926" interp="linr"  time="-9999999/1" value="0" leadInLength="0/1"  />
              <InterpolatingParam id="9927" interp="linr"  time="-9999999/1" value="0" leadInLength="0/1"  />
              <InterpolatingParam id="9928" interp="linr"  time="-9999999/1" value="0" leadInLength="0/1"  />
             </VectorParam>
             <VectorParam id="9929"  name="shear">
              <InterpolatingParam id="9930" interp="linr"  time="-9999999/1" value="0" leadInLength="0/1"  />
              <InterpolatingParam id="9931" interp="linr"  time="-9999999/1" value="0" leadInLength="0/1"  />
              <InterpolatingParam id="9932" interp="linr"  time="-9999999/1" value="0" leadInLength="0/1"  />
             </VectorParam>
             <VectorParam id="9933"  name="scale">
              <InterpolatingParam id="9934" interp="linr"  time="-9999999/1" value="1" leadInLength="0/1"  />
              <InterpolatingParam id="9935" interp="linr"  time="-9999999/1" value="1" leadInLength="0/1"  />
              <InterpolatingParam id="9936" interp="linr"  time="-9999999/1" value="1" leadInLength="0/1"  />
             </VectorParam>
             <VectorParam id="9937"  name="anchor">
              <InterpolatingParam id="9938" interp="linr"  time="0/1" value="0" leadInLength="0/1"  />
              <InterpolatingParam id="9939" interp="linr"  time="0/1" value="0" leadInLength="0/1"  />
              <InterpolatingParam id="9940" interp="linr"  time="0/1" value="0" leadInLength="0/1"  />
             </VectorParam>
            </Transformer>
            <Parameters>
             <VectorParam id="9941"  name="sourceCrop">
              <InterpolatingParam id="9942" interp="linr"  time="0/1" value="0" leadInLength="0/1"  />
              <InterpolatingParam id="9943" interp="linr"  time="0/1" value="0" leadInLength="0/1"  />
              <InterpolatingParam id="9944" interp="linr"  time="0/1" value="0" leadInLength="0/1"  />
              <InterpolatingParam id="9945" interp="linr"  time="0/1" value="0" leadInLength="0/1"  />
             </VectorParam>
             <VectorParam id="9946"  name="geometryCrop">
              <InterpolatingParam id="9947" interp="linr"  time="-9999999/1" value="0" leadInLength="0/1"  />
              <InterpolatingParam id="9948" interp="linr"  time="-9999999/1" value="0" leadInLength="0/1"  />
              <InterpolatingParam id="9949" interp="linr"  time="-9999999/1" value="0" leadInLength="0/1"  />
              <InterpolatingParam id="9950" interp="linr"  time="-9999999/1" value="0" leadInLength="0/1"  />
             </VectorParam>
             <InterpolatingParam id="9951" interp="linr"  time="-9999999/1" value="1" leadInLength="0/1"  name="opacity"/>
            </Parameters>
            <Attributes>
             <Attribute id="9952" value="" name="ident"/>
            </Attributes>
            <MetaData>
             <entry key="WinSubProjectDisplayName" val=""/>
            </MetaData>
            <ExtraData>
             <Entry key="ZoomPanBin">
              <ZoomPanBin id="9953"  >
               <ZoomPanKeyframes>
                <ZoomPanKeyframe id="9954" timeRangeEnd="-9999999/1" timeRangeDuration="0/1" interpolaterName=""  />
               </ZoomPanKeyframes>
              </ZoomPanBin>
             </Entry>
            </ExtraData>
           </VMFile>
           <VMFile id="9955" start="10842" duration="411" scalar="1/1" mediaStart="30756/1" mediaDuration="411/1" trackNumber="0" src="4" >
            <Transformer>
             <VectorParam id="9956"  name="translation">
              <InterpolatingParam id="9957" interp="linr"  time="-9999999/1" value="0" leadInLength="0/1"  />
              <InterpolatingParam id="9958" interp="linr"  time="-9999999/1" value="0" leadInLength="0/1"  />
              <InterpolatingParam id="9959" interp="linr"  time="-9999999/1" value="0" leadInLength="0/1"  />
             </VectorParam>
             <VectorParam id="9960"  name="rotation">
              <InterpolatingParam id="9961" interp="linr"  time="-9999999/1" value="0" leadInLength="0/1"  />
              <InterpolatingParam id="9962" interp="linr"  time="-9999999/1" value="0" leadInLength="0/1"  />
              <InterpolatingParam id="9963" interp="linr"  time="-9999999/1" value="0" leadInLength="0/1"  />
             </VectorParam>
             <VectorParam id="9964"  name="shear">
              <InterpolatingParam id="9965" interp="linr"  time="-9999999/1" value="0" leadInLength="0/1"  />
              <InterpolatingParam id="9966" interp="linr"  time="-9999999/1" value="0" leadInLength="0/1"  />
              <InterpolatingParam id="9967" interp="linr"  time="-9999999/1" value="0" leadInLength="0/1"  />
             </VectorParam>
             <VectorParam id="9968"  name="scale">
              <InterpolatingParam id="9969" interp="linr"  time="-9999999/1" value="1" leadInLength="0/1"  />
              <InterpolatingParam id="9970" interp="linr"  time="-9999999/1" value="1" leadInLength="0/1"  />
              <InterpolatingParam id="9971" interp="linr"  time="-9999999/1" value="1" leadInLength="0/1"  />
             </VectorParam>
             <VectorParam id="9972"  name="anchor">
              <InterpolatingParam id="9973" interp="linr"  time="0/1" value="0" leadInLength="0/1"  />
              <InterpolatingParam id="9974" interp="linr"  time="0/1" value="0" leadInLength="0/1"  />
              <InterpolatingParam id="9975" interp="linr"  time="0/1" value="0" leadInLength="0/1"  />
             </VectorParam>
            </Transformer>
            <Parameters>
             <VectorParam id="9976"  name="sourceCrop">
              <InterpolatingParam id="9977" interp="linr"  time="0/1" value="0" leadInLength="0/1"  />
              <InterpolatingParam id="9978" interp="linr"  time="0/1" value="0" leadInLength="0/1"  />
              <InterpolatingParam id="9979" interp="linr"  time="0/1" value="0" leadInLength="0/1"  />
              <InterpolatingParam id="9980" interp="linr"  time="0/1" value="0" leadInLength="0/1"  />
             </VectorParam>
             <VectorParam id="9981"  name="geometryCrop">
              <InterpolatingParam id="9982" interp="linr"  time="-9999999/1" value="0" leadInLength="0/1"  />
              <InterpolatingParam id="9983" interp="linr"  time="-9999999/1" value="0" leadInLength="0/1"  />
              <InterpolatingParam id="9984" interp="linr"  time="-9999999/1" value="0" leadInLength="0/1"  />
              <InterpolatingParam id="9985" interp="linr"  time="-9999999/1" value="0" leadInLength="0/1"  />
             </VectorParam>
             <InterpolatingParam id="9986" interp="linr"  time="-9999999/1" value="1" leadInLength="0/1"  name="opacity"/>
            </Parameters>
            <Attributes>
             <Attribute id="9987" value="" name="ident"/>
            </Attributes>
            <MetaData>
             <entry key="WinSubProjectDisplayName" val=""/>
            </MetaData>
            <ExtraData>
             <Entry key="ZoomPanBin">
              <ZoomPanBin id="9988"  >
               <ZoomPanKeyframes>
                <ZoomPanKeyframe id="9989" timeRangeEnd="-9999999/1" timeRangeDuration="0/1" interpolaterName=""  />
               </ZoomPanKeyframes>
              </ZoomPanBin>
             </Entry>
            </ExtraData>
           </VMFile>
          </Medias>
         </GenericTrack>
        </StitchedMedia>
        <StitchedMedia id="9990" start="2868" duration="347" scalar="7515877842717363/7515494647316455" mediaStart="23790176921/4153603" mediaDuration="2607876642618809885/7515877842717363" minMediaStart="0/1" >
         <Transformer>
          <VectorParam id="9991"  name="translation">
           <InterpolatingParam id="9992" interp="linr"  time="-9999999/1" value="0" leadInLength="0/1"  interpolater="leadin-linr"  />
           <InterpolatingParam id="9993" interp="linr"  time="-9999999/1" value="0" leadInLength="0/1"  interpolater="leadin-linr"  />
           <InterpolatingParam id="9994" interp="linr"  time="-9999999/1" value="0" leadInLength="0/1"  interpolater="leadin-linr"  />
          </VectorParam>
          <VectorParam id="9995"  name="rotation">
           <InterpolatingParam id="9996" interp="linr"  time="-9999999/1" value="0" leadInLength="0/1"  interpolater="leadin-linr"  />
           <InterpolatingParam id="9997" interp="linr"  time="-9999999/1" value="0" leadInLength="0/1"  interpolater="leadin-linr"  />
           <InterpolatingParam id="9998" interp="linr"  time="-9999999/1" value="0" leadInLength="0/1"  interpolater="leadin-linr"  />
          </VectorParam>
          <VectorParam id="9999"  name="shear">
           <InterpolatingParam id="10000" interp="linr"  time="-9999999/1" value="0" leadInLength="0/1"  interpolater="leadin-linr"  />
           <InterpolatingParam id="10001" interp="linr"  time="-9999999/1" value="0" leadInLength="0/1"  interpolater="leadin-linr"  />
           <InterpolatingParam id="10002" interp="linr"  time="-9999999/1" value="0" leadInLength="0/1"  interpolater="leadin-linr"  />
          </VectorParam>
          <VectorParam id="10003"  name="scale">
           <InterpolatingParam id="10004" interp="linr"  time="-9999999/1" value="1" leadInLength="0/1"  interpolater="leadin-linr"  />
           <InterpolatingParam id="10005" interp="linr"  time="-9999999/1" value="1" leadInLength="0/1"  interpolater="leadin-linr"  />
           <InterpolatingParam id="10006" interp="linr"  time="-9999999/1" value="1" leadInLength="0/1"  interpolater="leadin-linr"  />
          </VectorParam>
          <VectorParam id="10007"  name="anchor">
           <InterpolatingParam id="10008" interp="linr"  >
            <Keyframes>
            <Keyframe id="10009"  time="0/1" value="0" leadInLength="0/1"  />
            <Keyframe id="10010"  time="32931335377/7971776" value="0" leadInLength="0/1"  />
            <Keyframe id="10011"  time="4328/1" value="0" leadInLength="0/1"  />
            <Keyframe id="10012"  time="4457/1" value="0" leadInLength="0/1"  />
            <Keyframe id="10013"  time="46272102474146/7646783123" value="0" leadInLength="0/1"  />
            <Keyframe id="10014"  time="1152921504606846976/117073500061145" value="0" leadInLength="0/1"  />
            <Keyframe id="10015"  time="288230376151711744/29038376098307" value="0" leadInLength="0/1"  />
            </Keyframes>
           </InterpolatingParam>
           <InterpolatingParam id="10016" interp="linr"  >
            <Keyframes>
            <Keyframe id="10017"  time="0/1" value="0" leadInLength="0/1"  />
            <Keyframe id="10018"  time="32931335377/7971776" value="0" leadInLength="0/1"  />
            <Keyframe id="10019"  time="4328/1" value="0" leadInLength="0/1"  />
            <Keyframe id="10020"  time="4457/1" value="0" leadInLength="0/1"  />
            <Keyframe id="10021"  time="46272102474146/7646783123" value="0" leadInLength="0/1"  />
            <Keyframe id="10022"  time="1152921504606846976/117073500061145" value="0" leadInLength="0/1"  />
            <Keyframe id="10023"  time="288230376151711744/29038376098307" value="0" leadInLength="0/1"  />
            </Keyframes>
           </InterpolatingParam>
           <InterpolatingParam id="10024" interp="linr"  >
            <Keyframes>
            <Keyframe id="10025"  time="0/1" value="0" leadInLength="0/1"  />
            <Keyframe id="10026"  time="32931335377/7971776" value="0" leadInLength="0/1"  />
            <Keyframe id="10027"  time="4328/1" value="0" leadInLength="0/1"  />
            <Keyframe id="10028"  time="4457/1" value="0" leadInLength="0/1"  />
            <Keyframe id="10029"  time="46272102474146/7646783123" value="0" leadInLength="0/1"  />
            <Keyframe id="10030"  time="1152921504606846976/117073500061145" value="0" leadInLength="0/1"  />
            <Keyframe id="10031"  time="288230376151711744/29038376098307" value="0" leadInLength="0/1"  />
            </Keyframes>
           </InterpolatingParam>
          </VectorParam>
         </Transformer>
         <Parameters>
          <VectorParam id="10032"  name="sourceCrop">
           <InterpolatingParam id="10033" interp="linr"  >
            <Keyframes>
            <Keyframe id="10034"  time="0/1" value="0" leadInLength="0/1"  />
            <Keyframe id="10035"  time="32931335377/7971776" value="0" leadInLength="0/1"  />
            <Keyframe id="10036"  time="4328/1" value="0" leadInLength="0/1"  />
            <Keyframe id="10037"  time="4457/1" value="0" leadInLength="0/1"  />
            <Keyframe id="10038"  time="46272102474146/7646783123" value="0" leadInLength="0/1"  />
            <Keyframe id="10039"  time="1152921504606846976/117073500061145" value="0" leadInLength="0/1"  />
            <Keyframe id="10040"  time="288230376151711744/29038376098307" value="0" leadInLength="0/1"  />
            </Keyframes>
           </InterpolatingParam>
           <InterpolatingParam id="10041" interp="linr"  >
            <Keyframes>
            <Keyframe id="10042"  time="0/1" value="0" leadInLength="0/1"  />
            <Keyframe id="10043"  time="32931335377/7971776" value="0" leadInLength="0/1"  />
            <Keyframe id="10044"  time="4328/1" value="0" leadInLength="0/1"  />
            <Keyframe id="10045"  time="4457/1" value="0" leadInLength="0/1"  />
            <Keyframe id="10046"  time="46272102474146/7646783123" value="0" leadInLength="0/1"  />
            <Keyframe id="10047"  time="1152921504606846976/117073500061145" value="0" leadInLength="0/1"  />
            <Keyframe id="10048"  time="288230376151711744/29038376098307" value="0" leadInLength="0/1"  />
            </Keyframes>
           </InterpolatingParam>
           <InterpolatingParam id="10049" interp="linr"  >
            <Keyframes>
            <Keyframe id="10050"  time="0/1" value="0" leadInLength="0/1"  />
            <Keyframe id="10051"  time="32931335377/7971776" value="0" leadInLength="0/1"  />
            <Keyframe id="10052"  time="4328/1" value="0" leadInLength="0/1"  />
            <Keyframe id="10053"  time="4457/1" value="0" leadInLength="0/1"  />
            <Keyframe id="10054"  time="46272102474146/7646783123" value="0" leadInLength="0/1"  />
            <Keyframe id="10055"  time="1152921504606846976/117073500061145" value="0" leadInLength="0/1"  />
            <Keyframe id="10056"  time="288230376151711744/29038376098307" value="0" leadInLength="0/1"  />
            </Keyframes>
           </InterpolatingParam>
           <InterpolatingParam id="10057" interp="linr"  >
            <Keyframes>
            <Keyframe id="10058"  time="0/1" value="0" leadInLength="0/1"  />
            <Keyframe id="10059"  time="32931335377/7971776" value="0" leadInLength="0/1"  />
            <Keyframe id="10060"  time="4328/1" value="0" leadInLength="0/1"  />
            <Keyframe id="10061"  time="4457/1" value="0" leadInLength="0/1"  />
            <Keyframe id="10062"  time="46272102474146/7646783123" value="0" leadInLength="0/1"  />
            <Keyframe id="10063"  time="1152921504606846976/117073500061145" value="0" leadInLength="0/1"  />
            <Keyframe id="10064"  time="288230376151711744/29038376098307" value="0" leadInLength="0/1"  />
            </Keyframes>
           </InterpolatingParam>
          </VectorParam>
          <VectorParam id="10065"  name="geometryCrop">
           <InterpolatingParam id="10066" interp="linr"  time="-9999999/1" value="0" leadInLength="0/1"  interpolater="leadin-linr"  />
           <InterpolatingParam id="10067" interp="linr"  time="-9999999/1" value="0" leadInLength="0/1"  interpolater="leadin-linr"  />
           <InterpolatingParam id="10068" interp="linr"  time="-9999999/1" value="0" leadInLength="0/1"  interpolater="leadin-linr"  />
           <InterpolatingParam id="10069" interp="linr"  time="-9999999/1" value="0" leadInLength="0/1"  interpolater="leadin-linr"  />
          </VectorParam>
          <InterpolatingParam id="10070" interp="linr"  time="-9999999/1" value="1" leadInLength="0/1"  interpolater="leadin-linr"  name="opacity"/>
          <InterpolatingParam id="10071" interp="linr"  time="0/1" value="1" leadInLength="0/1"  name="cursorOpacity"/>
          <InterpolatingParam id="10072" interp="linr"  time="0/1" value="1" leadInLength="0/1"  name="cursorScale"/>
          <Parameter id="10073"  name="captions"/>
         </Parameters>
         <Attributes>
          <Attribute id="10074" value="" name="ident"/>
         </Attributes>
         <MetaData>
          <entry key="WinSubProjectDisplayName" val=""/>
         </MetaData>
         <ExtraData>
          <Entry key="ZoomPanBin">
           <ZoomPanBin id="10075"  >
            <ZoomPanKeyframes>
             <ZoomPanKeyframe id="10076" timeRangeEnd="-9999999/1" timeRangeDuration="0/1" interpolaterName="linr"  />
            </ZoomPanKeyframes>
           </ZoomPanBin>
          </Entry>
          <Entry key="CursorEffectBin">
           <CursorEffectBin id="10077"  >
            <CursorEffectKeyframes>
            </CursorEffectKeyframes>
           </CursorEffectBin>
          </Entry>
         </ExtraData>
         <GenericTrack id="10078"  >
          <Attributes>
           <Attribute id="10079" value="" name="ident"/>
           <Attribute id="10080" value="0" name="audioMuted"/>
           <Attribute id="10081" value="0" name="videoHidden"/>
          </Attributes>
          <MetaData>
           <entry key="IsLocked" val="False"/>
           <entry key="WinTrackHeight" val="0"/>
          </MetaData>
          <Medias>
           <VMFile id="10082" start="0" duration="4131" scalar="1/1" mediaStart="0/1" mediaDuration="4131/1" trackNumber="0" src="4" >
            <Transformer>
             <VectorParam id="10083"  name="translation">
              <InterpolatingParam id="10084" interp="linr"  time="-9999999/1" value="0" leadInLength="0/1"  />
              <InterpolatingParam id="10085" interp="linr"  time="-9999999/1" value="0" leadInLength="0/1"  />
              <InterpolatingParam id="10086" interp="linr"  time="-9999999/1" value="0" leadInLength="0/1"  />
             </VectorParam>
             <VectorParam id="10087"  name="rotation">
              <InterpolatingParam id="10088" interp="linr"  time="-9999999/1" value="0" leadInLength="0/1"  />
              <InterpolatingParam id="10089" interp="linr"  time="-9999999/1" value="0" leadInLength="0/1"  />
              <InterpolatingParam id="10090" interp="linr"  time="-9999999/1" value="0" leadInLength="0/1"  />
             </VectorParam>
             <VectorParam id="10091"  name="shear">
              <InterpolatingParam id="10092" interp="linr"  time="-9999999/1" value="0" leadInLength="0/1"  />
              <InterpolatingParam id="10093" interp="linr"  time="-9999999/1" value="0" leadInLength="0/1"  />
              <InterpolatingParam id="10094" interp="linr"  time="-9999999/1" value="0" leadInLength="0/1"  />
             </VectorParam>
             <VectorParam id="10095"  name="scale">
              <InterpolatingParam id="10096" interp="linr"  time="-9999999/1" value="1" leadInLength="0/1"  />
              <InterpolatingParam id="10097" interp="linr"  time="-9999999/1" value="1" leadInLength="0/1"  />
              <InterpolatingParam id="10098" interp="linr"  time="-9999999/1" value="1" leadInLength="0/1"  />
             </VectorParam>
             <VectorParam id="10099"  name="anchor">
              <InterpolatingParam id="10100" interp="linr"  time="0/1" value="0" leadInLength="0/1"  />
              <InterpolatingParam id="10101" interp="linr"  time="0/1" value="0" leadInLength="0/1"  />
              <InterpolatingParam id="10102" interp="linr"  time="0/1" value="0" leadInLength="0/1"  />
             </VectorParam>
            </Transformer>
            <Parameters>
             <VectorParam id="10103"  name="sourceCrop">
              <InterpolatingParam id="10104" interp="linr"  time="0/1" value="0" leadInLength="0/1"  />
              <InterpolatingParam id="10105" interp="linr"  time="0/1" value="0" leadInLength="0/1"  />
              <InterpolatingParam id="10106" interp="linr"  time="0/1" value="0" leadInLength="0/1"  />
              <InterpolatingParam id="10107" interp="linr"  time="0/1" value="0" leadInLength="0/1"  />
             </VectorParam>
             <VectorParam id="10108"  name="geometryCrop">
              <InterpolatingParam id="10109" interp="linr"  time="-9999999/1" value="0" leadInLength="0/1"  />
              <InterpolatingParam id="10110" interp="linr"  time="-9999999/1" value="0" leadInLength="0/1"  />
              <InterpolatingParam id="10111" interp="linr"  time="-9999999/1" value="0" leadInLength="0/1"  />
              <InterpolatingParam id="10112" interp="linr"  time="-9999999/1" value="0" leadInLength="0/1"  />
             </VectorParam>
             <InterpolatingParam id="10113" interp="linr"  time="-9999999/1" value="1" leadInLength="0/1"  name="opacity"/>
            </Parameters>
            <Attributes>
             <Attribute id="10114" value="" name="ident"/>
            </Attributes>
            <MetaData>
             <entry key="WinSubProjectDisplayName" val=""/>
            </MetaData>
            <ExtraData>
             <Entry key="ZoomPanBin">
              <ZoomPanBin id="10115"  >
               <ZoomPanKeyframes>
                <ZoomPanKeyframe id="10116" timeRangeEnd="-9999999/1" timeRangeDuration="0/1" interpolaterName=""  />
               </ZoomPanKeyframes>
              </ZoomPanBin>
             </Entry>
            </ExtraData>
           </VMFile>
           <IMFile id="10117" start="4131" duration="12" scalar="1/1" mediaStart="4130/1" mediaDuration="1/1" trackNumber="0" src="4" trimStartSum="0/1" >
            <Transformer>
             <VectorParam id="10118"  name="translation">
              <InterpolatingParam id="10119" interp="linr"  time="-9999999/1" value="0" leadInLength="0/1"  />
              <InterpolatingParam id="10120" interp="linr"  time="-9999999/1" value="0" leadInLength="0/1"  />
              <InterpolatingParam id="10121" interp="linr"  time="-9999999/1" value="0" leadInLength="0/1"  />
             </VectorParam>
             <VectorParam id="10122"  name="rotation">
              <InterpolatingParam id="10123" interp="linr"  time="-9999999/1" value="0" leadInLength="0/1"  />
              <InterpolatingParam id="10124" interp="linr"  time="-9999999/1" value="0" leadInLength="0/1"  />
              <InterpolatingParam id="10125" interp="linr"  time="-9999999/1" value="0" leadInLength="0/1"  />
             </VectorParam>
             <VectorParam id="10126"  name="shear">
              <InterpolatingParam id="10127" interp="linr"  time="-9999999/1" value="0" leadInLength="0/1"  />
              <InterpolatingParam id="10128" interp="linr"  time="-9999999/1" value="0" leadInLength="0/1"  />
              <InterpolatingParam id="10129" interp="linr"  time="-9999999/1" value="0" leadInLength="0/1"  />
             </VectorParam>
             <VectorParam id="10130"  name="scale">
              <InterpolatingParam id="10131" interp="linr"  time="-9999999/1" value="1" leadInLength="0/1"  />
              <InterpolatingParam id="10132" interp="linr"  time="-9999999/1" value="1" leadInLength="0/1"  />
              <InterpolatingParam id="10133" interp="linr"  time="-9999999/1" value="1" leadInLength="0/1"  />
             </VectorParam>
             <VectorParam id="10134"  name="anchor">
              <InterpolatingParam id="10135" interp="linr"  time="0/1" value="0" leadInLength="0/1"  />
              <InterpolatingParam id="10136" interp="linr"  time="0/1" value="0" leadInLength="0/1"  />
              <InterpolatingParam id="10137" interp="linr"  time="0/1" value="0" leadInLength="0/1"  />
             </VectorParam>
            </Transformer>
            <Parameters>
             <VectorParam id="10138"  name="sourceCrop">
              <InterpolatingParam id="10139" interp="linr"  time="0/1" value="0" leadInLength="0/1"  />
              <InterpolatingParam id="10140" interp="linr"  time="0/1" value="0" leadInLength="0/1"  />
              <InterpolatingParam id="10141" interp="linr"  time="0/1" value="0" leadInLength="0/1"  />
              <InterpolatingParam id="10142" interp="linr"  time="0/1" value="0" leadInLength="0/1"  />
             </VectorParam>
             <VectorParam id="10143"  name="geometryCrop">
              <InterpolatingParam id="10144" interp="linr"  time="-9999999/1" value="0" leadInLength="0/1"  />
              <InterpolatingParam id="10145" interp="linr"  time="-9999999/1" value="0" leadInLength="0/1"  />
              <InterpolatingParam id="10146" interp="linr"  time="-9999999/1" value="0" leadInLength="0/1"  />
              <InterpolatingParam id="10147" interp="linr"  time="-9999999/1" value="0" leadInLength="0/1"  />
             </VectorParam>
             <InterpolatingParam id="10148" interp="linr"  time="-9999999/1" value="1" leadInLength="0/1"  name="opacity"/>
            </Parameters>
            <Attributes>
             <Attribute id="10149" value="" name="ident"/>
            </Attributes>
            <MetaData>
             <entry key="WinSubProjectDisplayName" val=""/>
            </MetaData>
            <ExtraData>
             <Entry key="ZoomPanBin">
              <ZoomPanBin id="10150"  >
               <ZoomPanKeyframes>
                <ZoomPanKeyframe id="10151" timeRangeEnd="-9999999/1" timeRangeDuration="0/1" interpolaterName=""  />
               </ZoomPanKeyframes>
              </ZoomPanBin>
             </Entry>
            </ExtraData>
           </IMFile>
           <VMFile id="10152" start="4143" duration="185" scalar="1/1" mediaStart="4130/1" mediaDuration="185/1" trackNumber="0" src="4" >
            <Transformer>
             <VectorParam id="10153"  name="translation">
              <InterpolatingParam id="10154" interp="linr"  time="-9999999/1" value="0" leadInLength="0/1"  />
              <InterpolatingParam id="10155" interp="linr"  time="-9999999/1" value="0" leadInLength="0/1"  />
              <InterpolatingParam id="10156" interp="linr"  time="-9999999/1" value="0" leadInLength="0/1"  />
             </VectorParam>
             <VectorParam id="10157"  name="rotation">
              <InterpolatingParam id="10158" interp="linr"  time="-9999999/1" value="0" leadInLength="0/1"  />
              <InterpolatingParam id="10159" interp="linr"  time="-9999999/1" value="0" leadInLength="0/1"  />
              <InterpolatingParam id="10160" interp="linr"  time="-9999999/1" value="0" leadInLength="0/1"  />
             </VectorParam>
             <VectorParam id="10161"  name="shear">
              <InterpolatingParam id="10162" interp="linr"  time="-9999999/1" value="0" leadInLength="0/1"  />
              <InterpolatingParam id="10163" interp="linr"  time="-9999999/1" value="0" leadInLength="0/1"  />
              <InterpolatingParam id="10164" interp="linr"  time="-9999999/1" value="0" leadInLength="0/1"  />
             </VectorParam>
             <VectorParam id="10165"  name="scale">
              <InterpolatingParam id="10166" interp="linr"  time="-9999999/1" value="1" leadInLength="0/1"  />
              <InterpolatingParam id="10167" interp="linr"  time="-9999999/1" value="1" leadInLength="0/1"  />
              <InterpolatingParam id="10168" interp="linr"  time="-9999999/1" value="1" leadInLength="0/1"  />
             </VectorParam>
             <VectorParam id="10169"  name="anchor">
              <InterpolatingParam id="10170" interp="linr"  time="0/1" value="0" leadInLength="0/1"  />
              <InterpolatingParam id="10171" interp="linr"  time="0/1" value="0" leadInLength="0/1"  />
              <InterpolatingParam id="10172" interp="linr"  time="0/1" value="0" leadInLength="0/1"  />
             </VectorParam>
            </Transformer>
            <Parameters>
             <VectorParam id="10173"  name="sourceCrop">
              <InterpolatingParam id="10174" interp="linr"  time="0/1" value="0" leadInLength="0/1"  />
              <InterpolatingParam id="10175" interp="linr"  time="0/1" value="0" leadInLength="0/1"  />
              <InterpolatingParam id="10176" interp="linr"  time="0/1" value="0" leadInLength="0/1"  />
              <InterpolatingParam id="10177" interp="linr"  time="0/1" value="0" leadInLength="0/1"  />
             </VectorParam>
             <VectorParam id="10178"  name="geometryCrop">
              <InterpolatingParam id="10179" interp="linr"  time="-9999999/1" value="0" leadInLength="0/1"  />
              <InterpolatingParam id="10180" interp="linr"  time="-9999999/1" value="0" leadInLength="0/1"  />
              <InterpolatingParam id="10181" interp="linr"  time="-9999999/1" value="0" leadInLength="0/1"  />
              <InterpolatingParam id="10182" interp="linr"  time="-9999999/1" value="0" leadInLength="0/1"  />
             </VectorParam>
             <InterpolatingParam id="10183" interp="linr"  time="-9999999/1" value="1" leadInLength="0/1"  name="opacity"/>
            </Parameters>
            <Attributes>
             <Attribute id="10184" value="" name="ident"/>
            </Attributes>
            <MetaData>
             <entry key="WinSubProjectDisplayName" val=""/>
            </MetaData>
            <ExtraData>
             <Entry key="ZoomPanBin">
              <ZoomPanBin id="10185"  >
               <ZoomPanKeyframes>
                <ZoomPanKeyframe id="10186" timeRangeEnd="-9999999/1" timeRangeDuration="0/1" interpolaterName=""  />
               </ZoomPanKeyframes>
              </ZoomPanBin>
             </Entry>
            </ExtraData>
           </VMFile>
           <IMFile id="10187" start="4328" duration="3" scalar="1/1" mediaStart="4315/1" mediaDuration="1/1" trackNumber="0" src="4" trimStartSum="0/1" >
            <Transformer>
             <VectorParam id="10188"  name="translation">
              <InterpolatingParam id="10189" interp="linr"  time="-9999999/1" value="0" leadInLength="0/1"  />
              <InterpolatingParam id="10190" interp="linr"  time="-9999999/1" value="0" leadInLength="0/1"  />
              <InterpolatingParam id="10191" interp="linr"  time="-9999999/1" value="0" leadInLength="0/1"  />
             </VectorParam>
             <VectorParam id="10192"  name="rotation">
              <InterpolatingParam id="10193" interp="linr"  time="-9999999/1" value="0" leadInLength="0/1"  />
              <InterpolatingParam id="10194" interp="linr"  time="-9999999/1" value="0" leadInLength="0/1"  />
              <InterpolatingParam id="10195" interp="linr"  time="-9999999/1" value="0" leadInLength="0/1"  />
             </VectorParam>
             <VectorParam id="10196"  name="shear">
              <InterpolatingParam id="10197" interp="linr"  time="-9999999/1" value="0" leadInLength="0/1"  />
              <InterpolatingParam id="10198" interp="linr"  time="-9999999/1" value="0" leadInLength="0/1"  />
              <InterpolatingParam id="10199" interp="linr"  time="-9999999/1" value="0" leadInLength="0/1"  />
             </VectorParam>
             <VectorParam id="10200"  name="scale">
              <InterpolatingParam id="10201" interp="linr"  time="-9999999/1" value="1" leadInLength="0/1"  />
              <InterpolatingParam id="10202" interp="linr"  time="-9999999/1" value="1" leadInLength="0/1"  />
              <InterpolatingParam id="10203" interp="linr"  time="-9999999/1" value="1" leadInLength="0/1"  />
             </VectorParam>
             <VectorParam id="10204"  name="anchor">
              <InterpolatingParam id="10205" interp="linr"  time="0/1" value="0" leadInLength="0/1"  />
              <InterpolatingParam id="10206" interp="linr"  time="0/1" value="0" leadInLength="0/1"  />
              <InterpolatingParam id="10207" interp="linr"  time="0/1" value="0" leadInLength="0/1"  />
             </VectorParam>
            </Transformer>
            <Parameters>
             <VectorParam id="10208"  name="sourceCrop">
              <InterpolatingParam id="10209" interp="linr"  time="0/1" value="0" leadInLength="0/1"  />
              <InterpolatingParam id="10210" interp="linr"  time="0/1" value="0" leadInLength="0/1"  />
              <InterpolatingParam id="10211" interp="linr"  time="0/1" value="0" leadInLength="0/1"  />
              <InterpolatingParam id="10212" interp="linr"  time="0/1" value="0" leadInLength="0/1"  />
             </VectorParam>
             <VectorParam id="10213"  name="geometryCrop">
              <InterpolatingParam id="10214" interp="linr"  time="-9999999/1" value="0" leadInLength="0/1"  />
              <InterpolatingParam id="10215" interp="linr"  time="-9999999/1" value="0" leadInLength="0/1"  />
              <InterpolatingParam id="10216" interp="linr"  time="-9999999/1" value="0" leadInLength="0/1"  />
              <InterpolatingParam id="10217" interp="linr"  time="-9999999/1" value="0" leadInLength="0/1"  />
             </VectorParam>
             <InterpolatingParam id="10218" interp="linr"  time="-9999999/1" value="1" leadInLength="0/1"  name="opacity"/>
            </Parameters>
            <Attributes>
             <Attribute id="10219" value="" name="ident"/>
            </Attributes>
            <MetaData>
             <entry key="WinSubProjectDisplayName" val=""/>
            </MetaData>
            <ExtraData>
             <Entry key="ZoomPanBin">
              <ZoomPanBin id="10220"  >
               <ZoomPanKeyframes>
                <ZoomPanKeyframe id="10221" timeRangeEnd="-9999999/1" timeRangeDuration="0/1" interpolaterName=""  />
               </ZoomPanKeyframes>
              </ZoomPanBin>
             </Entry>
            </ExtraData>
           </IMFile>
           <VMFile id="10222" start="4331" duration="31" scalar="1/1" mediaStart="4315/1" mediaDuration="31/1" trackNumber="0" src="4" >
            <Transformer>
             <VectorParam id="10223"  name="translation">
              <InterpolatingParam id="10224" interp="linr"  time="-9999999/1" value="0" leadInLength="0/1"  />
              <InterpolatingParam id="10225" interp="linr"  time="-9999999/1" value="0" leadInLength="0/1"  />
              <InterpolatingParam id="10226" interp="linr"  time="-9999999/1" value="0" leadInLength="0/1"  />
             </VectorParam>
             <VectorParam id="10227"  name="rotation">
              <InterpolatingParam id="10228" interp="linr"  time="-9999999/1" value="0" leadInLength="0/1"  />
              <InterpolatingParam id="10229" interp="linr"  time="-9999999/1" value="0" leadInLength="0/1"  />
              <InterpolatingParam id="10230" interp="linr"  time="-9999999/1" value="0" leadInLength="0/1"  />
             </VectorParam>
             <VectorParam id="10231"  name="shear">
              <InterpolatingParam id="10232" interp="linr"  time="-9999999/1" value="0" leadInLength="0/1"  />
              <InterpolatingParam id="10233" interp="linr"  time="-9999999/1" value="0" leadInLength="0/1"  />
              <InterpolatingParam id="10234" interp="linr"  time="-9999999/1" value="0" leadInLength="0/1"  />
             </VectorParam>
             <VectorParam id="10235"  name="scale">
              <InterpolatingParam id="10236" interp="linr"  time="-9999999/1" value="1" leadInLength="0/1"  />
              <InterpolatingParam id="10237" interp="linr"  time="-9999999/1" value="1" leadInLength="0/1"  />
              <InterpolatingParam id="10238" interp="linr"  time="-9999999/1" value="1" leadInLength="0/1"  />
             </VectorParam>
             <VectorParam id="10239"  name="anchor">
              <InterpolatingParam id="10240" interp="linr"  time="0/1" value="0" leadInLength="0/1"  />
              <InterpolatingParam id="10241" interp="linr"  time="0/1" value="0" leadInLength="0/1"  />
              <InterpolatingParam id="10242" interp="linr"  time="0/1" value="0" leadInLength="0/1"  />
             </VectorParam>
            </Transformer>
            <Parameters>
             <VectorParam id="10243"  name="sourceCrop">
              <InterpolatingParam id="10244" interp="linr"  time="0/1" value="0" leadInLength="0/1"  />
              <InterpolatingParam id="10245" interp="linr"  time="0/1" value="0" leadInLength="0/1"  />
              <InterpolatingParam id="10246" interp="linr"  time="0/1" value="0" leadInLength="0/1"  />
              <InterpolatingParam id="10247" interp="linr"  time="0/1" value="0" leadInLength="0/1"  />
             </VectorParam>
             <VectorParam id="10248"  name="geometryCrop">
              <InterpolatingParam id="10249" interp="linr"  time="-9999999/1" value="0" leadInLength="0/1"  />
              <InterpolatingParam id="10250" interp="linr"  time="-9999999/1" value="0" leadInLength="0/1"  />
              <InterpolatingParam id="10251" interp="linr"  time="-9999999/1" value="0" leadInLength="0/1"  />
              <InterpolatingParam id="10252" interp="linr"  time="-9999999/1" value="0" leadInLength="0/1"  />
             </VectorParam>
             <InterpolatingParam id="10253" interp="linr"  time="-9999999/1" value="1" leadInLength="0/1"  name="opacity"/>
            </Parameters>
            <Attributes>
             <Attribute id="10254" value="" name="ident"/>
            </Attributes>
            <MetaData>
             <entry key="WinSubProjectDisplayName" val=""/>
            </MetaData>
            <ExtraData>
             <Entry key="ZoomPanBin">
              <ZoomPanBin id="10255"  >
               <ZoomPanKeyframes>
                <ZoomPanKeyframe id="10256" timeRangeEnd="-9999999/1" timeRangeDuration="0/1" interpolaterName=""  />
               </ZoomPanKeyframes>
              </ZoomPanBin>
             </Entry>
            </ExtraData>
           </VMFile>
           <VMFile id="10257" start="4362" duration="95" scalar="1/1" mediaStart="4751/1" mediaDuration="95/1" trackNumber="0" src="4" >
            <Transformer>
             <VectorParam id="10258"  name="translation">
              <InterpolatingParam id="10259" interp="linr"  time="-9999999/1" value="0" leadInLength="0/1"  />
              <InterpolatingParam id="10260" interp="linr"  time="-9999999/1" value="0" leadInLength="0/1"  />
              <InterpolatingParam id="10261" interp="linr"  time="-9999999/1" value="0" leadInLength="0/1"  />
             </VectorParam>
             <VectorParam id="10262"  name="rotation">
              <InterpolatingParam id="10263" interp="linr"  time="-9999999/1" value="0" leadInLength="0/1"  />
              <InterpolatingParam id="10264" interp="linr"  time="-9999999/1" value="0" leadInLength="0/1"  />
              <InterpolatingParam id="10265" interp="linr"  time="-9999999/1" value="0" leadInLength="0/1"  />
             </VectorParam>
             <VectorParam id="10266"  name="shear">
              <InterpolatingParam id="10267" interp="linr"  time="-9999999/1" value="0" leadInLength="0/1"  />
              <InterpolatingParam id="10268" interp="linr"  time="-9999999/1" value="0" leadInLength="0/1"  />
              <InterpolatingParam id="10269" interp="linr"  time="-9999999/1" value="0" leadInLength="0/1"  />
             </VectorParam>
             <VectorParam id="10270"  name="scale">
              <InterpolatingParam id="10271" interp="linr"  time="-9999999/1" value="1" leadInLength="0/1"  />
              <InterpolatingParam id="10272" interp="linr"  time="-9999999/1" value="1" leadInLength="0/1"  />
              <InterpolatingParam id="10273" interp="linr"  time="-9999999/1" value="1" leadInLength="0/1"  />
             </VectorParam>
             <VectorParam id="10274"  name="anchor">
              <InterpolatingParam id="10275" interp="linr"  time="0/1" value="0" leadInLength="0/1"  />
              <InterpolatingParam id="10276" interp="linr"  time="0/1" value="0" leadInLength="0/1"  />
              <InterpolatingParam id="10277" interp="linr"  time="0/1" value="0" leadInLength="0/1"  />
             </VectorParam>
            </Transformer>
            <Parameters>
             <VectorParam id="10278"  name="sourceCrop">
              <InterpolatingParam id="10279" interp="linr"  time="0/1" value="0" leadInLength="0/1"  />
              <InterpolatingParam id="10280" interp="linr"  time="0/1" value="0" leadInLength="0/1"  />
              <InterpolatingParam id="10281" interp="linr"  time="0/1" value="0" leadInLength="0/1"  />
              <InterpolatingParam id="10282" interp="linr"  time="0/1" value="0" leadInLength="0/1"  />
             </VectorParam>
             <VectorParam id="10283"  name="geometryCrop">
              <InterpolatingParam id="10284" interp="linr"  time="-9999999/1" value="0" leadInLength="0/1"  />
              <InterpolatingParam id="10285" interp="linr"  time="-9999999/1" value="0" leadInLength="0/1"  />
              <InterpolatingParam id="10286" interp="linr"  time="-9999999/1" value="0" leadInLength="0/1"  />
              <InterpolatingParam id="10287" interp="linr"  time="-9999999/1" value="0" leadInLength="0/1"  />
             </VectorParam>
             <InterpolatingParam id="10288" interp="linr"  time="-9999999/1" value="1" leadInLength="0/1"  name="opacity"/>
            </Parameters>
            <Attributes>
             <Attribute id="10289" value="" name="ident"/>
            </Attributes>
            <MetaData>
             <entry key="WinSubProjectDisplayName" val=""/>
            </MetaData>
            <ExtraData>
             <Entry key="ZoomPanBin">
              <ZoomPanBin id="10290"  >
               <ZoomPanKeyframes>
                <ZoomPanKeyframe id="10291" timeRangeEnd="-9999999/1" timeRangeDuration="0/1" interpolaterName=""  />
               </ZoomPanKeyframes>
              </ZoomPanBin>
             </Entry>
            </ExtraData>
           </VMFile>
           <IMFile id="10292" start="4457" duration="270" scalar="1/1" mediaStart="4846/1" mediaDuration="1/1" trackNumber="0" src="4" trimStartSum="0/1" >
            <Transformer>
             <VectorParam id="10293"  name="translation">
              <InterpolatingParam id="10294" interp="linr"  time="-9999999/1" value="0" leadInLength="0/1"  />
              <InterpolatingParam id="10295" interp="linr"  time="-9999999/1" value="0" leadInLength="0/1"  />
              <InterpolatingParam id="10296" interp="linr"  time="-9999999/1" value="0" leadInLength="0/1"  />
             </VectorParam>
             <VectorParam id="10297"  name="rotation">
              <InterpolatingParam id="10298" interp="linr"  time="-9999999/1" value="0" leadInLength="0/1"  />
              <InterpolatingParam id="10299" interp="linr"  time="-9999999/1" value="0" leadInLength="0/1"  />
              <InterpolatingParam id="10300" interp="linr"  time="-9999999/1" value="0" leadInLength="0/1"  />
             </VectorParam>
             <VectorParam id="10301"  name="shear">
              <InterpolatingParam id="10302" interp="linr"  time="-9999999/1" value="0" leadInLength="0/1"  />
              <InterpolatingParam id="10303" interp="linr"  time="-9999999/1" value="0" leadInLength="0/1"  />
              <InterpolatingParam id="10304" interp="linr"  time="-9999999/1" value="0" leadInLength="0/1"  />
             </VectorParam>
             <VectorParam id="10305"  name="scale">
              <InterpolatingParam id="10306" interp="linr"  time="-9999999/1" value="1" leadInLength="0/1"  />
              <InterpolatingParam id="10307" interp="linr"  time="-9999999/1" value="1" leadInLength="0/1"  />
              <InterpolatingParam id="10308" interp="linr"  time="-9999999/1" value="1" leadInLength="0/1"  />
             </VectorParam>
             <VectorParam id="10309"  name="anchor">
              <InterpolatingParam id="10310" interp="linr"  time="0/1" value="0" leadInLength="0/1"  />
              <InterpolatingParam id="10311" interp="linr"  time="0/1" value="0" leadInLength="0/1"  />
              <InterpolatingParam id="10312" interp="linr"  time="0/1" value="0" leadInLength="0/1"  />
             </VectorParam>
            </Transformer>
            <Parameters>
             <VectorParam id="10313"  name="sourceCrop">
              <InterpolatingParam id="10314" interp="linr"  time="0/1" value="0" leadInLength="0/1"  />
              <InterpolatingParam id="10315" interp="linr"  time="0/1" value="0" leadInLength="0/1"  />
              <InterpolatingParam id="10316" interp="linr"  time="0/1" value="0" leadInLength="0/1"  />
              <InterpolatingParam id="10317" interp="linr"  time="0/1" value="0" leadInLength="0/1"  />
             </VectorParam>
             <VectorParam id="10318"  name="geometryCrop">
              <InterpolatingParam id="10319" interp="linr"  time="-9999999/1" value="0" leadInLength="0/1"  />
              <InterpolatingParam id="10320" interp="linr"  time="-9999999/1" value="0" leadInLength="0/1"  />
              <InterpolatingParam id="10321" interp="linr"  time="-9999999/1" value="0" leadInLength="0/1"  />
              <InterpolatingParam id="10322" interp="linr"  time="-9999999/1" value="0" leadInLength="0/1"  />
             </VectorParam>
             <InterpolatingParam id="10323" interp="linr"  time="-9999999/1" value="1" leadInLength="0/1"  name="opacity"/>
            </Parameters>
            <Attributes>
             <Attribute id="10324" value="" name="ident"/>
            </Attributes>
            <MetaData>
             <entry key="WinSubProjectDisplayName" val=""/>
            </MetaData>
            <ExtraData>
             <Entry key="ZoomPanBin">
              <ZoomPanBin id="10325"  >
               <ZoomPanKeyframes>
                <ZoomPanKeyframe id="10326" timeRangeEnd="-9999999/1" timeRangeDuration="0/1" interpolaterName=""  />
               </ZoomPanKeyframes>
              </ZoomPanBin>
             </Entry>
            </ExtraData>
           </IMFile>
           <VMFile id="10327" start="4727" duration="17" scalar="1/1" mediaStart="4846/1" mediaDuration="17/1" trackNumber="0" src="4" >
            <Transformer>
             <VectorParam id="10328"  name="translation">
              <InterpolatingParam id="10329" interp="linr"  time="-9999999/1" value="0" leadInLength="0/1"  />
              <InterpolatingParam id="10330" interp="linr"  time="-9999999/1" value="0" leadInLength="0/1"  />
              <InterpolatingParam id="10331" interp="linr"  time="-9999999/1" value="0" leadInLength="0/1"  />
             </VectorParam>
             <VectorParam id="10332"  name="rotation">
              <InterpolatingParam id="10333" interp="linr"  time="-9999999/1" value="0" leadInLength="0/1"  />
              <InterpolatingParam id="10334" interp="linr"  time="-9999999/1" value="0" leadInLength="0/1"  />
              <InterpolatingParam id="10335" interp="linr"  time="-9999999/1" value="0" leadInLength="0/1"  />
             </VectorParam>
             <VectorParam id="10336"  name="shear">
              <InterpolatingParam id="10337" interp="linr"  time="-9999999/1" value="0" leadInLength="0/1"  />
              <InterpolatingParam id="10338" interp="linr"  time="-9999999/1" value="0" leadInLength="0/1"  />
              <InterpolatingParam id="10339" interp="linr"  time="-9999999/1" value="0" leadInLength="0/1"  />
             </VectorParam>
             <VectorParam id="10340"  name="scale">
              <InterpolatingParam id="10341" interp="linr"  time="-9999999/1" value="1" leadInLength="0/1"  />
              <InterpolatingParam id="10342" interp="linr"  time="-9999999/1" value="1" leadInLength="0/1"  />
              <InterpolatingParam id="10343" interp="linr"  time="-9999999/1" value="1" leadInLength="0/1"  />
             </VectorParam>
             <VectorParam id="10344"  name="anchor">
              <InterpolatingParam id="10345" interp="linr"  time="0/1" value="0" leadInLength="0/1"  />
              <InterpolatingParam id="10346" interp="linr"  time="0/1" value="0" leadInLength="0/1"  />
              <InterpolatingParam id="10347" interp="linr"  time="0/1" value="0" leadInLength="0/1"  />
             </VectorParam>
            </Transformer>
            <Parameters>
             <VectorParam id="10348"  name="sourceCrop">
              <InterpolatingParam id="10349" interp="linr"  time="0/1" value="0" leadInLength="0/1"  />
              <InterpolatingParam id="10350" interp="linr"  time="0/1" value="0" leadInLength="0/1"  />
              <InterpolatingParam id="10351" interp="linr"  time="0/1" value="0" leadInLength="0/1"  />
              <InterpolatingParam id="10352" interp="linr"  time="0/1" value="0" leadInLength="0/1"  />
             </VectorParam>
             <VectorParam id="10353"  name="geometryCrop">
              <InterpolatingParam id="10354" interp="linr"  time="-9999999/1" value="0" leadInLength="0/1"  />
              <InterpolatingParam id="10355" interp="linr"  time="-9999999/1" value="0" leadInLength="0/1"  />
              <InterpolatingParam id="10356" interp="linr"  time="-9999999/1" value="0" leadInLength="0/1"  />
              <InterpolatingParam id="10357" interp="linr"  time="-9999999/1" value="0" leadInLength="0/1"  />
             </VectorParam>
             <InterpolatingParam id="10358" interp="linr"  time="-9999999/1" value="1" leadInLength="0/1"  name="opacity"/>
            </Parameters>
            <Attributes>
             <Attribute id="10359" value="" name="ident"/>
            </Attributes>
            <MetaData>
             <entry key="WinSubProjectDisplayName" val=""/>
            </MetaData>
            <ExtraData>
             <Entry key="ZoomPanBin">
              <ZoomPanBin id="10360"  >
               <ZoomPanKeyframes>
                <ZoomPanKeyframe id="10361" timeRangeEnd="-9999999/1" timeRangeDuration="0/1" interpolaterName=""  />
               </ZoomPanKeyframes>
              </ZoomPanBin>
             </Entry>
            </ExtraData>
           </VMFile>
           <VMFile id="10362" start="4744" duration="386" scalar="1/1" mediaStart="7805/1" mediaDuration="386/1" trackNumber="0" src="4" >
            <Transformer>
             <VectorParam id="10363"  name="translation">
              <InterpolatingParam id="10364" interp="linr"  time="-9999999/1" value="0" leadInLength="0/1"  />
              <InterpolatingParam id="10365" interp="linr"  time="-9999999/1" value="0" leadInLength="0/1"  />
              <InterpolatingParam id="10366" interp="linr"  time="-9999999/1" value="0" leadInLength="0/1"  />
             </VectorParam>
             <VectorParam id="10367"  name="rotation">
              <InterpolatingParam id="10368" interp="linr"  time="-9999999/1" value="0" leadInLength="0/1"  />
              <InterpolatingParam id="10369" interp="linr"  time="-9999999/1" value="0" leadInLength="0/1"  />
              <InterpolatingParam id="10370" interp="linr"  time="-9999999/1" value="0" leadInLength="0/1"  />
             </VectorParam>
             <VectorParam id="10371"  name="shear">
              <InterpolatingParam id="10372" interp="linr"  time="-9999999/1" value="0" leadInLength="0/1"  />
              <InterpolatingParam id="10373" interp="linr"  time="-9999999/1" value="0" leadInLength="0/1"  />
              <InterpolatingParam id="10374" interp="linr"  time="-9999999/1" value="0" leadInLength="0/1"  />
             </VectorParam>
             <VectorParam id="10375"  name="scale">
              <InterpolatingParam id="10376" interp="linr"  time="-9999999/1" value="1" leadInLength="0/1"  />
              <InterpolatingParam id="10377" interp="linr"  time="-9999999/1" value="1" leadInLength="0/1"  />
              <InterpolatingParam id="10378" interp="linr"  time="-9999999/1" value="1" leadInLength="0/1"  />
             </VectorParam>
             <VectorParam id="10379"  name="anchor">
              <InterpolatingParam id="10380" interp="linr"  time="0/1" value="0" leadInLength="0/1"  />
              <InterpolatingParam id="10381" interp="linr"  time="0/1" value="0" leadInLength="0/1"  />
              <InterpolatingParam id="10382" interp="linr"  time="0/1" value="0" leadInLength="0/1"  />
             </VectorParam>
            </Transformer>
            <Parameters>
             <VectorParam id="10383"  name="sourceCrop">
              <InterpolatingParam id="10384" interp="linr"  time="0/1" value="0" leadInLength="0/1"  />
              <InterpolatingParam id="10385" interp="linr"  time="0/1" value="0" leadInLength="0/1"  />
              <InterpolatingParam id="10386" interp="linr"  time="0/1" value="0" leadInLength="0/1"  />
              <InterpolatingParam id="10387" interp="linr"  time="0/1" value="0" leadInLength="0/1"  />
             </VectorParam>
             <VectorParam id="10388"  name="geometryCrop">
              <InterpolatingParam id="10389" interp="linr"  time="-9999999/1" value="0" leadInLength="0/1"  />
              <InterpolatingParam id="10390" interp="linr"  time="-9999999/1" value="0" leadInLength="0/1"  />
              <InterpolatingParam id="10391" interp="linr"  time="-9999999/1" value="0" leadInLength="0/1"  />
              <InterpolatingParam id="10392" interp="linr"  time="-9999999/1" value="0" leadInLength="0/1"  />
             </VectorParam>
             <InterpolatingParam id="10393" interp="linr"  time="-9999999/1" value="1" leadInLength="0/1"  name="opacity"/>
            </Parameters>
            <Attributes>
             <Attribute id="10394" value="" name="ident"/>
            </Attributes>
            <MetaData>
             <entry key="WinSubProjectDisplayName" val=""/>
            </MetaData>
            <ExtraData>
             <Entry key="ZoomPanBin">
              <ZoomPanBin id="10395"  >
               <ZoomPanKeyframes>
                <ZoomPanKeyframe id="10396" timeRangeEnd="-9999999/1" timeRangeDuration="0/1" interpolaterName=""  />
               </ZoomPanKeyframes>
              </ZoomPanBin>
             </Entry>
            </ExtraData>
           </VMFile>
           <VMFile id="10397" start="5130" duration="922" scalar="1/1" mediaStart="8371/1" mediaDuration="922/1" trackNumber="0" src="4" >
            <Transformer>
             <VectorParam id="10398"  name="translation">
              <InterpolatingParam id="10399" interp="linr"  time="-9999999/1" value="0" leadInLength="0/1"  />
              <InterpolatingParam id="10400" interp="linr"  time="-9999999/1" value="0" leadInLength="0/1"  />
              <InterpolatingParam id="10401" interp="linr"  time="-9999999/1" value="0" leadInLength="0/1"  />
             </VectorParam>
             <VectorParam id="10402"  name="rotation">
              <InterpolatingParam id="10403" interp="linr"  time="-9999999/1" value="0" leadInLength="0/1"  />
              <InterpolatingParam id="10404" interp="linr"  time="-9999999/1" value="0" leadInLength="0/1"  />
              <InterpolatingParam id="10405" interp="linr"  time="-9999999/1" value="0" leadInLength="0/1"  />
             </VectorParam>
             <VectorParam id="10406"  name="shear">
              <InterpolatingParam id="10407" interp="linr"  time="-9999999/1" value="0" leadInLength="0/1"  />
              <InterpolatingParam id="10408" interp="linr"  time="-9999999/1" value="0" leadInLength="0/1"  />
              <InterpolatingParam id="10409" interp="linr"  time="-9999999/1" value="0" leadInLength="0/1"  />
             </VectorParam>
             <VectorParam id="10410"  name="scale">
              <InterpolatingParam id="10411" interp="linr"  time="-9999999/1" value="1" leadInLength="0/1"  />
              <InterpolatingParam id="10412" interp="linr"  time="-9999999/1" value="1" leadInLength="0/1"  />
              <InterpolatingParam id="10413" interp="linr"  time="-9999999/1" value="1" leadInLength="0/1"  />
             </VectorParam>
             <VectorParam id="10414"  name="anchor">
              <InterpolatingParam id="10415" interp="linr"  time="0/1" value="0" leadInLength="0/1"  />
              <InterpolatingParam id="10416" interp="linr"  time="0/1" value="0" leadInLength="0/1"  />
              <InterpolatingParam id="10417" interp="linr"  time="0/1" value="0" leadInLength="0/1"  />
             </VectorParam>
            </Transformer>
            <Parameters>
             <VectorParam id="10418"  name="sourceCrop">
              <InterpolatingParam id="10419" interp="linr"  time="0/1" value="0" leadInLength="0/1"  />
              <InterpolatingParam id="10420" interp="linr"  time="0/1" value="0" leadInLength="0/1"  />
              <InterpolatingParam id="10421" interp="linr"  time="0/1" value="0" leadInLength="0/1"  />
              <InterpolatingParam id="10422" interp="linr"  time="0/1" value="0" leadInLength="0/1"  />
             </VectorParam>
             <VectorParam id="10423"  name="geometryCrop">
              <InterpolatingParam id="10424" interp="linr"  time="-9999999/1" value="0" leadInLength="0/1"  />
              <InterpolatingParam id="10425" interp="linr"  time="-9999999/1" value="0" leadInLength="0/1"  />
              <InterpolatingParam id="10426" interp="linr"  time="-9999999/1" value="0" leadInLength="0/1"  />
              <InterpolatingParam id="10427" interp="linr"  time="-9999999/1" value="0" leadInLength="0/1"  />
             </VectorParam>
             <InterpolatingParam id="10428" interp="linr"  time="-9999999/1" value="1" leadInLength="0/1"  name="opacity"/>
            </Parameters>
            <Attributes>
             <Attribute id="10429" value="" name="ident"/>
            </Attributes>
            <MetaData>
             <entry key="WinSubProjectDisplayName" val=""/>
            </MetaData>
            <ExtraData>
             <Entry key="ZoomPanBin">
              <ZoomPanBin id="10430"  >
               <ZoomPanKeyframes>
                <ZoomPanKeyframe id="10431" timeRangeEnd="-9999999/1" timeRangeDuration="0/1" interpolaterName=""  />
               </ZoomPanKeyframes>
              </ZoomPanBin>
             </Entry>
            </ExtraData>
           </VMFile>
           <IMFile id="10432" start="6052" duration="30" scalar="1/1" mediaStart="9292/1" mediaDuration="1/1" trackNumber="0" src="4" trimStartSum="0/1" >
            <Transformer>
             <VectorParam id="10433"  name="translation">
              <InterpolatingParam id="10434" interp="linr"  time="-9999999/1" value="0" leadInLength="0/1"  />
              <InterpolatingParam id="10435" interp="linr"  time="-9999999/1" value="0" leadInLength="0/1"  />
              <InterpolatingParam id="10436" interp="linr"  time="-9999999/1" value="0" leadInLength="0/1"  />
             </VectorParam>
             <VectorParam id="10437"  name="rotation">
              <InterpolatingParam id="10438" interp="linr"  time="-9999999/1" value="0" leadInLength="0/1"  />
              <InterpolatingParam id="10439" interp="linr"  time="-9999999/1" value="0" leadInLength="0/1"  />
              <InterpolatingParam id="10440" interp="linr"  time="-9999999/1" value="0" leadInLength="0/1"  />
             </VectorParam>
             <VectorParam id="10441"  name="shear">
              <InterpolatingParam id="10442" interp="linr"  time="-9999999/1" value="0" leadInLength="0/1"  />
              <InterpolatingParam id="10443" interp="linr"  time="-9999999/1" value="0" leadInLength="0/1"  />
              <InterpolatingParam id="10444" interp="linr"  time="-9999999/1" value="0" leadInLength="0/1"  />
             </VectorParam>
             <VectorParam id="10445"  name="scale">
              <InterpolatingParam id="10446" interp="linr"  time="-9999999/1" value="1" leadInLength="0/1"  />
              <InterpolatingParam id="10447" interp="linr"  time="-9999999/1" value="1" leadInLength="0/1"  />
              <InterpolatingParam id="10448" interp="linr"  time="-9999999/1" value="1" leadInLength="0/1"  />
             </VectorParam>
             <VectorParam id="10449"  name="anchor">
              <InterpolatingParam id="10450" interp="linr"  time="0/1" value="0" leadInLength="0/1"  />
              <InterpolatingParam id="10451" interp="linr"  time="0/1" value="0" leadInLength="0/1"  />
              <InterpolatingParam id="10452" interp="linr"  time="0/1" value="0" leadInLength="0/1"  />
             </VectorParam>
            </Transformer>
            <Parameters>
             <VectorParam id="10453"  name="sourceCrop">
              <InterpolatingParam id="10454" interp="linr"  time="0/1" value="0" leadInLength="0/1"  />
              <InterpolatingParam id="10455" interp="linr"  time="0/1" value="0" leadInLength="0/1"  />
              <InterpolatingParam id="10456" interp="linr"  time="0/1" value="0" leadInLength="0/1"  />
              <InterpolatingParam id="10457" interp="linr"  time="0/1" value="0" leadInLength="0/1"  />
             </VectorParam>
             <VectorParam id="10458"  name="geometryCrop">
              <InterpolatingParam id="10459" interp="linr"  time="-9999999/1" value="0" leadInLength="0/1"  />
              <InterpolatingParam id="10460" interp="linr"  time="-9999999/1" value="0" leadInLength="0/1"  />
              <InterpolatingParam id="10461" interp="linr"  time="-9999999/1" value="0" leadInLength="0/1"  />
              <InterpolatingParam id="10462" interp="linr"  time="-9999999/1" value="0" leadInLength="0/1"  />
             </VectorParam>
             <InterpolatingParam id="10463" interp="linr"  time="-9999999/1" value="1" leadInLength="0/1"  name="opacity"/>
            </Parameters>
            <Attributes>
             <Attribute id="10464" value="" name="ident"/>
            </Attributes>
            <MetaData>
             <entry key="WinSubProjectDisplayName" val=""/>
            </MetaData>
            <ExtraData>
             <Entry key="ZoomPanBin">
              <ZoomPanBin id="10465"  >
               <ZoomPanKeyframes>
                <ZoomPanKeyframe id="10466" timeRangeEnd="-9999999/1" timeRangeDuration="0/1" interpolaterName=""  />
               </ZoomPanKeyframes>
              </ZoomPanBin>
             </Entry>
            </ExtraData>
           </IMFile>
           <VMFile id="10467" start="6082" duration="86" scalar="1/1" mediaStart="9292/1" mediaDuration="86/1" trackNumber="0" src="4" >
            <Transformer>
             <VectorParam id="10468"  name="translation">
              <InterpolatingParam id="10469" interp="linr"  time="-9999999/1" value="0" leadInLength="0/1"  />
              <InterpolatingParam id="10470" interp="linr"  time="-9999999/1" value="0" leadInLength="0/1"  />
              <InterpolatingParam id="10471" interp="linr"  time="-9999999/1" value="0" leadInLength="0/1"  />
             </VectorParam>
             <VectorParam id="10472"  name="rotation">
              <InterpolatingParam id="10473" interp="linr"  time="-9999999/1" value="0" leadInLength="0/1"  />
              <InterpolatingParam id="10474" interp="linr"  time="-9999999/1" value="0" leadInLength="0/1"  />
              <InterpolatingParam id="10475" interp="linr"  time="-9999999/1" value="0" leadInLength="0/1"  />
             </VectorParam>
             <VectorParam id="10476"  name="shear">
              <InterpolatingParam id="10477" interp="linr"  time="-9999999/1" value="0" leadInLength="0/1"  />
              <InterpolatingParam id="10478" interp="linr"  time="-9999999/1" value="0" leadInLength="0/1"  />
              <InterpolatingParam id="10479" interp="linr"  time="-9999999/1" value="0" leadInLength="0/1"  />
             </VectorParam>
             <VectorParam id="10480"  name="scale">
              <InterpolatingParam id="10481" interp="linr"  time="-9999999/1" value="1" leadInLength="0/1"  />
              <InterpolatingParam id="10482" interp="linr"  time="-9999999/1" value="1" leadInLength="0/1"  />
              <InterpolatingParam id="10483" interp="linr"  time="-9999999/1" value="1" leadInLength="0/1"  />
             </VectorParam>
             <VectorParam id="10484"  name="anchor">
              <InterpolatingParam id="10485" interp="linr"  time="0/1" value="0" leadInLength="0/1"  />
              <InterpolatingParam id="10486" interp="linr"  time="0/1" value="0" leadInLength="0/1"  />
              <InterpolatingParam id="10487" interp="linr"  time="0/1" value="0" leadInLength="0/1"  />
             </VectorParam>
            </Transformer>
            <Parameters>
             <VectorParam id="10488"  name="sourceCrop">
              <InterpolatingParam id="10489" interp="linr"  time="0/1" value="0" leadInLength="0/1"  />
              <InterpolatingParam id="10490" interp="linr"  time="0/1" value="0" leadInLength="0/1"  />
              <InterpolatingParam id="10491" interp="linr"  time="0/1" value="0" leadInLength="0/1"  />
              <InterpolatingParam id="10492" interp="linr"  time="0/1" value="0" leadInLength="0/1"  />
             </VectorParam>
             <VectorParam id="10493"  name="geometryCrop">
              <InterpolatingParam id="10494" interp="linr"  time="-9999999/1" value="0" leadInLength="0/1"  />
              <InterpolatingParam id="10495" interp="linr"  time="-9999999/1" value="0" leadInLength="0/1"  />
              <InterpolatingParam id="10496" interp="linr"  time="-9999999/1" value="0" leadInLength="0/1"  />
              <InterpolatingParam id="10497" interp="linr"  time="-9999999/1" value="0" leadInLength="0/1"  />
             </VectorParam>
             <InterpolatingParam id="10498" interp="linr"  time="-9999999/1" value="1" leadInLength="0/1"  name="opacity"/>
            </Parameters>
            <Attributes>
             <Attribute id="10499" value="" name="ident"/>
            </Attributes>
            <MetaData>
             <entry key="WinSubProjectDisplayName" val=""/>
            </MetaData>
            <ExtraData>
             <Entry key="ZoomPanBin">
              <ZoomPanBin id="10500"  >
               <ZoomPanKeyframes>
                <ZoomPanKeyframe id="10501" timeRangeEnd="-9999999/1" timeRangeDuration="0/1" interpolaterName=""  />
               </ZoomPanKeyframes>
              </ZoomPanBin>
             </Entry>
            </ExtraData>
           </VMFile>
           <VMFile id="10502" start="6168" duration="555" scalar="1/1" mediaStart="9516/1" mediaDuration="555/1" trackNumber="0" src="4" >
            <Transformer>
             <VectorParam id="10503"  name="translation">
              <InterpolatingParam id="10504" interp="linr"  time="-9999999/1" value="0" leadInLength="0/1"  />
              <InterpolatingParam id="10505" interp="linr"  time="-9999999/1" value="0" leadInLength="0/1"  />
              <InterpolatingParam id="10506" interp="linr"  time="-9999999/1" value="0" leadInLength="0/1"  />
             </VectorParam>
             <VectorParam id="10507"  name="rotation">
              <InterpolatingParam id="10508" interp="linr"  time="-9999999/1" value="0" leadInLength="0/1"  />
              <InterpolatingParam id="10509" interp="linr"  time="-9999999/1" value="0" leadInLength="0/1"  />
              <InterpolatingParam id="10510" interp="linr"  time="-9999999/1" value="0" leadInLength="0/1"  />
             </VectorParam>
             <VectorParam id="10511"  name="shear">
              <InterpolatingParam id="10512" interp="linr"  time="-9999999/1" value="0" leadInLength="0/1"  />
              <InterpolatingParam id="10513" interp="linr"  time="-9999999/1" value="0" leadInLength="0/1"  />
              <InterpolatingParam id="10514" interp="linr"  time="-9999999/1" value="0" leadInLength="0/1"  />
             </VectorParam>
             <VectorParam id="10515"  name="scale">
              <InterpolatingParam id="10516" interp="linr"  time="-9999999/1" value="1" leadInLength="0/1"  />
              <InterpolatingParam id="10517" interp="linr"  time="-9999999/1" value="1" leadInLength="0/1"  />
              <InterpolatingParam id="10518" interp="linr"  time="-9999999/1" value="1" leadInLength="0/1"  />
             </VectorParam>
             <VectorParam id="10519"  name="anchor">
              <InterpolatingParam id="10520" interp="linr"  time="0/1" value="0" leadInLength="0/1"  />
              <InterpolatingParam id="10521" interp="linr"  time="0/1" value="0" leadInLength="0/1"  />
              <InterpolatingParam id="10522" interp="linr"  time="0/1" value="0" leadInLength="0/1"  />
             </VectorParam>
            </Transformer>
            <Parameters>
             <VectorParam id="10523"  name="sourceCrop">
              <InterpolatingParam id="10524" interp="linr"  time="0/1" value="0" leadInLength="0/1"  />
              <InterpolatingParam id="10525" interp="linr"  time="0/1" value="0" leadInLength="0/1"  />
              <InterpolatingParam id="10526" interp="linr"  time="0/1" value="0" leadInLength="0/1"  />
              <InterpolatingParam id="10527" interp="linr"  time="0/1" value="0" leadInLength="0/1"  />
             </VectorParam>
             <VectorParam id="10528"  name="geometryCrop">
              <InterpolatingParam id="10529" interp="linr"  time="-9999999/1" value="0" leadInLength="0/1"  />
              <InterpolatingParam id="10530" interp="linr"  time="-9999999/1" value="0" leadInLength="0/1"  />
              <InterpolatingParam id="10531" interp="linr"  time="-9999999/1" value="0" leadInLength="0/1"  />
              <InterpolatingParam id="10532" interp="linr"  time="-9999999/1" value="0" leadInLength="0/1"  />
             </VectorParam>
             <InterpolatingParam id="10533" interp="linr"  time="-9999999/1" value="1" leadInLength="0/1"  name="opacity"/>
            </Parameters>
            <Attributes>
             <Attribute id="10534" value="" name="ident"/>
            </Attributes>
            <MetaData>
             <entry key="WinSubProjectDisplayName" val=""/>
            </MetaData>
            <ExtraData>
             <Entry key="ZoomPanBin">
              <ZoomPanBin id="10535"  >
               <ZoomPanKeyframes>
                <ZoomPanKeyframe id="10536" timeRangeEnd="-9999999/1" timeRangeDuration="0/1" interpolaterName=""  />
               </ZoomPanKeyframes>
              </ZoomPanBin>
             </Entry>
            </ExtraData>
           </VMFile>
           <VMFile id="10537" start="6723" duration="460" scalar="1/1" mediaStart="11597/1" mediaDuration="460/1" trackNumber="0" src="4" >
            <Transformer>
             <VectorParam id="10538"  name="translation">
              <InterpolatingParam id="10539" interp="linr"  time="-9999999/1" value="0" leadInLength="0/1"  />
              <InterpolatingParam id="10540" interp="linr"  time="-9999999/1" value="0" leadInLength="0/1"  />
              <InterpolatingParam id="10541" interp="linr"  time="-9999999/1" value="0" leadInLength="0/1"  />
             </VectorParam>
             <VectorParam id="10542"  name="rotation">
              <InterpolatingParam id="10543" interp="linr"  time="-9999999/1" value="0" leadInLength="0/1"  />
              <InterpolatingParam id="10544" interp="linr"  time="-9999999/1" value="0" leadInLength="0/1"  />
              <InterpolatingParam id="10545" interp="linr"  time="-9999999/1" value="0" leadInLength="0/1"  />
             </VectorParam>
             <VectorParam id="10546"  name="shear">
              <InterpolatingParam id="10547" interp="linr"  time="-9999999/1" value="0" leadInLength="0/1"  />
              <InterpolatingParam id="10548" interp="linr"  time="-9999999/1" value="0" leadInLength="0/1"  />
              <InterpolatingParam id="10549" interp="linr"  time="-9999999/1" value="0" leadInLength="0/1"  />
             </VectorParam>
             <VectorParam id="10550"  name="scale">
              <InterpolatingParam id="10551" interp="linr"  time="-9999999/1" value="1" leadInLength="0/1"  />
              <InterpolatingParam id="10552" interp="linr"  time="-9999999/1" value="1" leadInLength="0/1"  />
              <InterpolatingParam id="10553" interp="linr"  time="-9999999/1" value="1" leadInLength="0/1"  />
             </VectorParam>
             <VectorParam id="10554"  name="anchor">
              <InterpolatingParam id="10555" interp="linr"  time="0/1" value="0" leadInLength="0/1"  />
              <InterpolatingParam id="10556" interp="linr"  time="0/1" value="0" leadInLength="0/1"  />
              <InterpolatingParam id="10557" interp="linr"  time="0/1" value="0" leadInLength="0/1"  />
             </VectorParam>
            </Transformer>
            <Parameters>
             <VectorParam id="10558"  name="sourceCrop">
              <InterpolatingParam id="10559" interp="linr"  time="0/1" value="0" leadInLength="0/1"  />
              <InterpolatingParam id="10560" interp="linr"  time="0/1" value="0" leadInLength="0/1"  />
              <InterpolatingParam id="10561" interp="linr"  time="0/1" value="0" leadInLength="0/1"  />
              <InterpolatingParam id="10562" interp="linr"  time="0/1" value="0" leadInLength="0/1"  />
             </VectorParam>
             <VectorParam id="10563"  name="geometryCrop">
              <InterpolatingParam id="10564" interp="linr"  time="-9999999/1" value="0" leadInLength="0/1"  />
              <InterpolatingParam id="10565" interp="linr"  time="-9999999/1" value="0" leadInLength="0/1"  />
              <InterpolatingParam id="10566" interp="linr"  time="-9999999/1" value="0" leadInLength="0/1"  />
              <InterpolatingParam id="10567" interp="linr"  time="-9999999/1" value="0" leadInLength="0/1"  />
             </VectorParam>
             <InterpolatingParam id="10568" interp="linr"  time="-9999999/1" value="1" leadInLength="0/1"  name="opacity"/>
            </Parameters>
            <Attributes>
             <Attribute id="10569" value="" name="ident"/>
            </Attributes>
            <MetaData>
             <entry key="WinSubProjectDisplayName" val=""/>
            </MetaData>
            <ExtraData>
             <Entry key="ZoomPanBin">
              <ZoomPanBin id="10570"  >
               <ZoomPanKeyframes>
                <ZoomPanKeyframe id="10571" timeRangeEnd="-9999999/1" timeRangeDuration="0/1" interpolaterName=""  />
               </ZoomPanKeyframes>
              </ZoomPanBin>
             </Entry>
            </ExtraData>
           </VMFile>
           <VMFile id="10572" start="7183" duration="350" scalar="1/1" mediaStart="12237/1" mediaDuration="350/1" trackNumber="0" src="4" >
            <Transformer>
             <VectorParam id="10573"  name="translation">
              <InterpolatingParam id="10574" interp="linr"  time="-9999999/1" value="0" leadInLength="0/1"  />
              <InterpolatingParam id="10575" interp="linr"  time="-9999999/1" value="0" leadInLength="0/1"  />
              <InterpolatingParam id="10576" interp="linr"  time="-9999999/1" value="0" leadInLength="0/1"  />
             </VectorParam>
             <VectorParam id="10577"  name="rotation">
              <InterpolatingParam id="10578" interp="linr"  time="-9999999/1" value="0" leadInLength="0/1"  />
              <InterpolatingParam id="10579" interp="linr"  time="-9999999/1" value="0" leadInLength="0/1"  />
              <InterpolatingParam id="10580" interp="linr"  time="-9999999/1" value="0" leadInLength="0/1"  />
             </VectorParam>
             <VectorParam id="10581"  name="shear">
              <InterpolatingParam id="10582" interp="linr"  time="-9999999/1" value="0" leadInLength="0/1"  />
              <InterpolatingParam id="10583" interp="linr"  time="-9999999/1" value="0" leadInLength="0/1"  />
              <InterpolatingParam id="10584" interp="linr"  time="-9999999/1" value="0" leadInLength="0/1"  />
             </VectorParam>
             <VectorParam id="10585"  name="scale">
              <InterpolatingParam id="10586" interp="linr"  time="-9999999/1" value="1" leadInLength="0/1"  />
              <InterpolatingParam id="10587" interp="linr"  time="-9999999/1" value="1" leadInLength="0/1"  />
              <InterpolatingParam id="10588" interp="linr"  time="-9999999/1" value="1" leadInLength="0/1"  />
             </VectorParam>
             <VectorParam id="10589"  name="anchor">
              <InterpolatingParam id="10590" interp="linr"  time="0/1" value="0" leadInLength="0/1"  />
              <InterpolatingParam id="10591" interp="linr"  time="0/1" value="0" leadInLength="0/1"  />
              <InterpolatingParam id="10592" interp="linr"  time="0/1" value="0" leadInLength="0/1"  />
             </VectorParam>
            </Transformer>
            <Parameters>
             <VectorParam id="10593"  name="sourceCrop">
              <InterpolatingParam id="10594" interp="linr"  time="0/1" value="0" leadInLength="0/1"  />
              <InterpolatingParam id="10595" interp="linr"  time="0/1" value="0" leadInLength="0/1"  />
              <InterpolatingParam id="10596" interp="linr"  time="0/1" value="0" leadInLength="0/1"  />
              <InterpolatingParam id="10597" interp="linr"  time="0/1" value="0" leadInLength="0/1"  />
             </VectorParam>
             <VectorParam id="10598"  name="geometryCrop">
              <InterpolatingParam id="10599" interp="linr"  time="-9999999/1" value="0" leadInLength="0/1"  />
              <InterpolatingParam id="10600" interp="linr"  time="-9999999/1" value="0" leadInLength="0/1"  />
              <InterpolatingParam id="10601" interp="linr"  time="-9999999/1" value="0" leadInLength="0/1"  />
              <InterpolatingParam id="10602" interp="linr"  time="-9999999/1" value="0" leadInLength="0/1"  />
             </VectorParam>
             <InterpolatingParam id="10603" interp="linr"  time="-9999999/1" value="1" leadInLength="0/1"  name="opacity"/>
            </Parameters>
            <Attributes>
             <Attribute id="10604" value="" name="ident"/>
            </Attributes>
            <MetaData>
             <entry key="WinSubProjectDisplayName" val=""/>
            </MetaData>
            <ExtraData>
             <Entry key="ZoomPanBin">
              <ZoomPanBin id="10605"  >
               <ZoomPanKeyframes>
                <ZoomPanKeyframe id="10606" timeRangeEnd="-9999999/1" timeRangeDuration="0/1" interpolaterName=""  />
               </ZoomPanKeyframes>
              </ZoomPanBin>
             </Entry>
            </ExtraData>
           </VMFile>
           <VMFile id="10607" start="7533" duration="128" scalar="1/1" mediaStart="15765/1" mediaDuration="128/1" trackNumber="0" src="4" >
            <Transformer>
             <VectorParam id="10608"  name="translation">
              <InterpolatingParam id="10609" interp="linr"  time="-9999999/1" value="0" leadInLength="0/1"  />
              <InterpolatingParam id="10610" interp="linr"  time="-9999999/1" value="0" leadInLength="0/1"  />
              <InterpolatingParam id="10611" interp="linr"  time="-9999999/1" value="0" leadInLength="0/1"  />
             </VectorParam>
             <VectorParam id="10612"  name="rotation">
              <InterpolatingParam id="10613" interp="linr"  time="-9999999/1" value="0" leadInLength="0/1"  />
              <InterpolatingParam id="10614" interp="linr"  time="-9999999/1" value="0" leadInLength="0/1"  />
              <InterpolatingParam id="10615" interp="linr"  time="-9999999/1" value="0" leadInLength="0/1"  />
             </VectorParam>
             <VectorParam id="10616"  name="shear">
              <InterpolatingParam id="10617" interp="linr"  time="-9999999/1" value="0" leadInLength="0/1"  />
              <InterpolatingParam id="10618" interp="linr"  time="-9999999/1" value="0" leadInLength="0/1"  />
              <InterpolatingParam id="10619" interp="linr"  time="-9999999/1" value="0" leadInLength="0/1"  />
             </VectorParam>
             <VectorParam id="10620"  name="scale">
              <InterpolatingParam id="10621" interp="linr"  time="-9999999/1" value="1" leadInLength="0/1"  />
              <InterpolatingParam id="10622" interp="linr"  time="-9999999/1" value="1" leadInLength="0/1"  />
              <InterpolatingParam id="10623" interp="linr"  time="-9999999/1" value="1" leadInLength="0/1"  />
             </VectorParam>
             <VectorParam id="10624"  name="anchor">
              <InterpolatingParam id="10625" interp="linr"  time="0/1" value="0" leadInLength="0/1"  />
              <InterpolatingParam id="10626" interp="linr"  time="0/1" value="0" leadInLength="0/1"  />
              <InterpolatingParam id="10627" interp="linr"  time="0/1" value="0" leadInLength="0/1"  />
             </VectorParam>
            </Transformer>
            <Parameters>
             <VectorParam id="10628"  name="sourceCrop">
              <InterpolatingParam id="10629" interp="linr"  time="0/1" value="0" leadInLength="0/1"  />
              <InterpolatingParam id="10630" interp="linr"  time="0/1" value="0" leadInLength="0/1"  />
              <InterpolatingParam id="10631" interp="linr"  time="0/1" value="0" leadInLength="0/1"  />
              <InterpolatingParam id="10632" interp="linr"  time="0/1" value="0" leadInLength="0/1"  />
             </VectorParam>
             <VectorParam id="10633"  name="geometryCrop">
              <InterpolatingParam id="10634" interp="linr"  time="-9999999/1" value="0" leadInLength="0/1"  />
              <InterpolatingParam id="10635" interp="linr"  time="-9999999/1" value="0" leadInLength="0/1"  />
              <InterpolatingParam id="10636" interp="linr"  time="-9999999/1" value="0" leadInLength="0/1"  />
              <InterpolatingParam id="10637" interp="linr"  time="-9999999/1" value="0" leadInLength="0/1"  />
             </VectorParam>
             <InterpolatingParam id="10638" interp="linr"  time="-9999999/1" value="1" leadInLength="0/1"  name="opacity"/>
            </Parameters>
            <Attributes>
             <Attribute id="10639" value="" name="ident"/>
            </Attributes>
            <MetaData>
             <entry key="WinSubProjectDisplayName" val=""/>
            </MetaData>
            <ExtraData>
             <Entry key="ZoomPanBin">
              <ZoomPanBin id="10640"  >
               <ZoomPanKeyframes>
                <ZoomPanKeyframe id="10641" timeRangeEnd="-9999999/1" timeRangeDuration="0/1" interpolaterName=""  />
               </ZoomPanKeyframes>
              </ZoomPanBin>
             </Entry>
            </ExtraData>
           </VMFile>
           <VMFile id="10642" start="7661" duration="615" scalar="1/1" mediaStart="15918/1" mediaDuration="615/1" trackNumber="0" src="4" >
            <Transformer>
             <VectorParam id="10643"  name="translation">
              <InterpolatingParam id="10644" interp="linr"  time="-9999999/1" value="0" leadInLength="0/1"  />
              <InterpolatingParam id="10645" interp="linr"  time="-9999999/1" value="0" leadInLength="0/1"  />
              <InterpolatingParam id="10646" interp="linr"  time="-9999999/1" value="0" leadInLength="0/1"  />
             </VectorParam>
             <VectorParam id="10647"  name="rotation">
              <InterpolatingParam id="10648" interp="linr"  time="-9999999/1" value="0" leadInLength="0/1"  />
              <InterpolatingParam id="10649" interp="linr"  time="-9999999/1" value="0" leadInLength="0/1"  />
              <InterpolatingParam id="10650" interp="linr"  time="-9999999/1" value="0" leadInLength="0/1"  />
             </VectorParam>
             <VectorParam id="10651"  name="shear">
              <InterpolatingParam id="10652" interp="linr"  time="-9999999/1" value="0" leadInLength="0/1"  />
              <InterpolatingParam id="10653" interp="linr"  time="-9999999/1" value="0" leadInLength="0/1"  />
              <InterpolatingParam id="10654" interp="linr"  time="-9999999/1" value="0" leadInLength="0/1"  />
             </VectorParam>
             <VectorParam id="10655"  name="scale">
              <InterpolatingParam id="10656" interp="linr"  time="-9999999/1" value="1" leadInLength="0/1"  />
              <InterpolatingParam id="10657" interp="linr"  time="-9999999/1" value="1" leadInLength="0/1"  />
              <InterpolatingParam id="10658" interp="linr"  time="-9999999/1" value="1" leadInLength="0/1"  />
             </VectorParam>
             <VectorParam id="10659"  name="anchor">
              <InterpolatingParam id="10660" interp="linr"  time="0/1" value="0" leadInLength="0/1"  />
              <InterpolatingParam id="10661" interp="linr"  time="0/1" value="0" leadInLength="0/1"  />
              <InterpolatingParam id="10662" interp="linr"  time="0/1" value="0" leadInLength="0/1"  />
             </VectorParam>
            </Transformer>
            <Parameters>
             <VectorParam id="10663"  name="sourceCrop">
              <InterpolatingParam id="10664" interp="linr"  time="0/1" value="0" leadInLength="0/1"  />
              <InterpolatingParam id="10665" interp="linr"  time="0/1" value="0" leadInLength="0/1"  />
              <InterpolatingParam id="10666" interp="linr"  time="0/1" value="0" leadInLength="0/1"  />
              <InterpolatingParam id="10667" interp="linr"  time="0/1" value="0" leadInLength="0/1"  />
             </VectorParam>
             <VectorParam id="10668"  name="geometryCrop">
              <InterpolatingParam id="10669" interp="linr"  time="-9999999/1" value="0" leadInLength="0/1"  />
              <InterpolatingParam id="10670" interp="linr"  time="-9999999/1" value="0" leadInLength="0/1"  />
              <InterpolatingParam id="10671" interp="linr"  time="-9999999/1" value="0" leadInLength="0/1"  />
              <InterpolatingParam id="10672" interp="linr"  time="-9999999/1" value="0" leadInLength="0/1"  />
             </VectorParam>
             <InterpolatingParam id="10673" interp="linr"  time="-9999999/1" value="1" leadInLength="0/1"  name="opacity"/>
            </Parameters>
            <Attributes>
             <Attribute id="10674" value="" name="ident"/>
            </Attributes>
            <MetaData>
             <entry key="WinSubProjectDisplayName" val=""/>
            </MetaData>
            <ExtraData>
             <Entry key="ZoomPanBin">
              <ZoomPanBin id="10675"  >
               <ZoomPanKeyframes>
                <ZoomPanKeyframe id="10676" timeRangeEnd="-9999999/1" timeRangeDuration="0/1" interpolaterName=""  />
               </ZoomPanKeyframes>
              </ZoomPanBin>
             </Entry>
            </ExtraData>
           </VMFile>
           <VMFile id="10677" start="8276" duration="323" scalar="1/1" mediaStart="16694/1" mediaDuration="323/1" trackNumber="0" src="4" >
            <Transformer>
             <VectorParam id="10678"  name="translation">
              <InterpolatingParam id="10679" interp="linr"  time="-9999999/1" value="0" leadInLength="0/1"  />
              <InterpolatingParam id="10680" interp="linr"  time="-9999999/1" value="0" leadInLength="0/1"  />
              <InterpolatingParam id="10681" interp="linr"  time="-9999999/1" value="0" leadInLength="0/1"  />
             </VectorParam>
             <VectorParam id="10682"  name="rotation">
              <InterpolatingParam id="10683" interp="linr"  time="-9999999/1" value="0" leadInLength="0/1"  />
              <InterpolatingParam id="10684" interp="linr"  time="-9999999/1" value="0" leadInLength="0/1"  />
              <InterpolatingParam id="10685" interp="linr"  time="-9999999/1" value="0" leadInLength="0/1"  />
             </VectorParam>
             <VectorParam id="10686"  name="shear">
              <InterpolatingParam id="10687" interp="linr"  time="-9999999/1" value="0" leadInLength="0/1"  />
              <InterpolatingParam id="10688" interp="linr"  time="-9999999/1" value="0" leadInLength="0/1"  />
              <InterpolatingParam id="10689" interp="linr"  time="-9999999/1" value="0" leadInLength="0/1"  />
             </VectorParam>
             <VectorParam id="10690"  name="scale">
              <InterpolatingParam id="10691" interp="linr"  time="-9999999/1" value="1" leadInLength="0/1"  />
              <InterpolatingParam id="10692" interp="linr"  time="-9999999/1" value="1" leadInLength="0/1"  />
              <InterpolatingParam id="10693" interp="linr"  time="-9999999/1" value="1" leadInLength="0/1"  />
             </VectorParam>
             <VectorParam id="10694"  name="anchor">
              <InterpolatingParam id="10695" interp="linr"  time="0/1" value="0" leadInLength="0/1"  />
              <InterpolatingParam id="10696" interp="linr"  time="0/1" value="0" leadInLength="0/1"  />
              <InterpolatingParam id="10697" interp="linr"  time="0/1" value="0" leadInLength="0/1"  />
             </VectorParam>
            </Transformer>
            <Parameters>
             <VectorParam id="10698"  name="sourceCrop">
              <InterpolatingParam id="10699" interp="linr"  time="0/1" value="0" leadInLength="0/1"  />
              <InterpolatingParam id="10700" interp="linr"  time="0/1" value="0" leadInLength="0/1"  />
              <InterpolatingParam id="10701" interp="linr"  time="0/1" value="0" leadInLength="0/1"  />
              <InterpolatingParam id="10702" interp="linr"  time="0/1" value="0" leadInLength="0/1"  />
             </VectorParam>
             <VectorParam id="10703"  name="geometryCrop">
              <InterpolatingParam id="10704" interp="linr"  time="-9999999/1" value="0" leadInLength="0/1"  />
              <InterpolatingParam id="10705" interp="linr"  time="-9999999/1" value="0" leadInLength="0/1"  />
              <InterpolatingParam id="10706" interp="linr"  time="-9999999/1" value="0" leadInLength="0/1"  />
              <InterpolatingParam id="10707" interp="linr"  time="-9999999/1" value="0" leadInLength="0/1"  />
             </VectorParam>
             <InterpolatingParam id="10708" interp="linr"  time="-9999999/1" value="1" leadInLength="0/1"  name="opacity"/>
            </Parameters>
            <Attributes>
             <Attribute id="10709" value="" name="ident"/>
            </Attributes>
            <MetaData>
             <entry key="WinSubProjectDisplayName" val=""/>
            </MetaData>
            <ExtraData>
             <Entry key="ZoomPanBin">
              <ZoomPanBin id="10710"  >
               <ZoomPanKeyframes>
                <ZoomPanKeyframe id="10711" timeRangeEnd="-9999999/1" timeRangeDuration="0/1" interpolaterName=""  />
               </ZoomPanKeyframes>
              </ZoomPanBin>
             </Entry>
            </ExtraData>
           </VMFile>
           <VMFile id="10712" start="8599" duration="223" scalar="1/1" mediaStart="17164/1" mediaDuration="223/1" trackNumber="0" src="4" >
            <Transformer>
             <VectorParam id="10713"  name="translation">
              <InterpolatingParam id="10714" interp="linr"  time="-9999999/1" value="0" leadInLength="0/1"  />
              <InterpolatingParam id="10715" interp="linr"  time="-9999999/1" value="0" leadInLength="0/1"  />
              <InterpolatingParam id="10716" interp="linr"  time="-9999999/1" value="0" leadInLength="0/1"  />
             </VectorParam>
             <VectorParam id="10717"  name="rotation">
              <InterpolatingParam id="10718" interp="linr"  time="-9999999/1" value="0" leadInLength="0/1"  />
              <InterpolatingParam id="10719" interp="linr"  time="-9999999/1" value="0" leadInLength="0/1"  />
              <InterpolatingParam id="10720" interp="linr"  time="-9999999/1" value="0" leadInLength="0/1"  />
             </VectorParam>
             <VectorParam id="10721"  name="shear">
              <InterpolatingParam id="10722" interp="linr"  time="-9999999/1" value="0" leadInLength="0/1"  />
              <InterpolatingParam id="10723" interp="linr"  time="-9999999/1" value="0" leadInLength="0/1"  />
              <InterpolatingParam id="10724" interp="linr"  time="-9999999/1" value="0" leadInLength="0/1"  />
             </VectorParam>
             <VectorParam id="10725"  name="scale">
              <InterpolatingParam id="10726" interp="linr"  time="-9999999/1" value="1" leadInLength="0/1"  />
              <InterpolatingParam id="10727" interp="linr"  time="-9999999/1" value="1" leadInLength="0/1"  />
              <InterpolatingParam id="10728" interp="linr"  time="-9999999/1" value="1" leadInLength="0/1"  />
             </VectorParam>
             <VectorParam id="10729"  name="anchor">
              <InterpolatingParam id="10730" interp="linr"  time="0/1" value="0" leadInLength="0/1"  />
              <InterpolatingParam id="10731" interp="linr"  time="0/1" value="0" leadInLength="0/1"  />
              <InterpolatingParam id="10732" interp="linr"  time="0/1" value="0" leadInLength="0/1"  />
             </VectorParam>
            </Transformer>
            <Parameters>
             <VectorParam id="10733"  name="sourceCrop">
              <InterpolatingParam id="10734" interp="linr"  time="0/1" value="0" leadInLength="0/1"  />
              <InterpolatingParam id="10735" interp="linr"  time="0/1" value="0" leadInLength="0/1"  />
              <InterpolatingParam id="10736" interp="linr"  time="0/1" value="0" leadInLength="0/1"  />
              <InterpolatingParam id="10737" interp="linr"  time="0/1" value="0" leadInLength="0/1"  />
             </VectorParam>
             <VectorParam id="10738"  name="geometryCrop">
              <InterpolatingParam id="10739" interp="linr"  time="-9999999/1" value="0" leadInLength="0/1"  />
              <InterpolatingParam id="10740" interp="linr"  time="-9999999/1" value="0" leadInLength="0/1"  />
              <InterpolatingParam id="10741" interp="linr"  time="-9999999/1" value="0" leadInLength="0/1"  />
              <InterpolatingParam id="10742" interp="linr"  time="-9999999/1" value="0" leadInLength="0/1"  />
             </VectorParam>
             <InterpolatingParam id="10743" interp="linr"  time="-9999999/1" value="1" leadInLength="0/1"  name="opacity"/>
            </Parameters>
            <Attributes>
             <Attribute id="10744" value="" name="ident"/>
            </Attributes>
            <MetaData>
             <entry key="WinSubProjectDisplayName" val=""/>
            </MetaData>
            <ExtraData>
             <Entry key="ZoomPanBin">
              <ZoomPanBin id="10745"  >
               <ZoomPanKeyframes>
                <ZoomPanKeyframe id="10746" timeRangeEnd="-9999999/1" timeRangeDuration="0/1" interpolaterName=""  />
               </ZoomPanKeyframes>
              </ZoomPanBin>
             </Entry>
            </ExtraData>
           </VMFile>
           <VMFile id="10747" start="8822" duration="323" scalar="1/1" mediaStart="26742/1" mediaDuration="323/1" trackNumber="0" src="4" >
            <Transformer>
             <VectorParam id="10748"  name="translation">
              <InterpolatingParam id="10749" interp="linr"  time="-9999999/1" value="0" leadInLength="0/1"  />
              <InterpolatingParam id="10750" interp="linr"  time="-9999999/1" value="0" leadInLength="0/1"  />
              <InterpolatingParam id="10751" interp="linr"  time="-9999999/1" value="0" leadInLength="0/1"  />
             </VectorParam>
             <VectorParam id="10752"  name="rotation">
              <InterpolatingParam id="10753" interp="linr"  time="-9999999/1" value="0" leadInLength="0/1"  />
              <InterpolatingParam id="10754" interp="linr"  time="-9999999/1" value="0" leadInLength="0/1"  />
              <InterpolatingParam id="10755" interp="linr"  time="-9999999/1" value="0" leadInLength="0/1"  />
             </VectorParam>
             <VectorParam id="10756"  name="shear">
              <InterpolatingParam id="10757" interp="linr"  time="-9999999/1" value="0" leadInLength="0/1"  />
              <InterpolatingParam id="10758" interp="linr"  time="-9999999/1" value="0" leadInLength="0/1"  />
              <InterpolatingParam id="10759" interp="linr"  time="-9999999/1" value="0" leadInLength="0/1"  />
             </VectorParam>
             <VectorParam id="10760"  name="scale">
              <InterpolatingParam id="10761" interp="linr"  time="-9999999/1" value="1" leadInLength="0/1"  />
              <InterpolatingParam id="10762" interp="linr"  time="-9999999/1" value="1" leadInLength="0/1"  />
              <InterpolatingParam id="10763" interp="linr"  time="-9999999/1" value="1" leadInLength="0/1"  />
             </VectorParam>
             <VectorParam id="10764"  name="anchor">
              <InterpolatingParam id="10765" interp="linr"  time="0/1" value="0" leadInLength="0/1"  />
              <InterpolatingParam id="10766" interp="linr"  time="0/1" value="0" leadInLength="0/1"  />
              <InterpolatingParam id="10767" interp="linr"  time="0/1" value="0" leadInLength="0/1"  />
             </VectorParam>
            </Transformer>
            <Parameters>
             <VectorParam id="10768"  name="sourceCrop">
              <InterpolatingParam id="10769" interp="linr"  time="0/1" value="0" leadInLength="0/1"  />
              <InterpolatingParam id="10770" interp="linr"  time="0/1" value="0" leadInLength="0/1"  />
              <InterpolatingParam id="10771" interp="linr"  time="0/1" value="0" leadInLength="0/1"  />
              <InterpolatingParam id="10772" interp="linr"  time="0/1" value="0" leadInLength="0/1"  />
             </VectorParam>
             <VectorParam id="10773"  name="geometryCrop">
              <InterpolatingParam id="10774" interp="linr"  time="-9999999/1" value="0" leadInLength="0/1"  />
              <InterpolatingParam id="10775" interp="linr"  time="-9999999/1" value="0" leadInLength="0/1"  />
              <InterpolatingParam id="10776" interp="linr"  time="-9999999/1" value="0" leadInLength="0/1"  />
              <InterpolatingParam id="10777" interp="linr"  time="-9999999/1" value="0" leadInLength="0/1"  />
             </VectorParam>
             <InterpolatingParam id="10778" interp="linr"  time="-9999999/1" value="1" leadInLength="0/1"  name="opacity"/>
            </Parameters>
            <Attributes>
             <Attribute id="10779" value="" name="ident"/>
            </Attributes>
            <MetaData>
             <entry key="WinSubProjectDisplayName" val=""/>
            </MetaData>
            <ExtraData>
             <Entry key="ZoomPanBin">
              <ZoomPanBin id="10780"  >
               <ZoomPanKeyframes>
                <ZoomPanKeyframe id="10781" timeRangeEnd="-9999999/1" timeRangeDuration="0/1" interpolaterName=""  />
               </ZoomPanKeyframes>
              </ZoomPanBin>
             </Entry>
            </ExtraData>
           </VMFile>
           <VMFile id="10782" start="9145" duration="259" scalar="1/1" mediaStart="27825/1" mediaDuration="259/1" trackNumber="0" src="4" >
            <Transformer>
             <VectorParam id="10783"  name="translation">
              <InterpolatingParam id="10784" interp="linr"  time="-9999999/1" value="0" leadInLength="0/1"  />
              <InterpolatingParam id="10785" interp="linr"  time="-9999999/1" value="0" leadInLength="0/1"  />
              <InterpolatingParam id="10786" interp="linr"  time="-9999999/1" value="0" leadInLength="0/1"  />
             </VectorParam>
             <VectorParam id="10787"  name="rotation">
              <InterpolatingParam id="10788" interp="linr"  time="-9999999/1" value="0" leadInLength="0/1"  />
              <InterpolatingParam id="10789" interp="linr"  time="-9999999/1" value="0" leadInLength="0/1"  />
              <InterpolatingParam id="10790" interp="linr"  time="-9999999/1" value="0" leadInLength="0/1"  />
             </VectorParam>
             <VectorParam id="10791"  name="shear">
              <InterpolatingParam id="10792" interp="linr"  time="-9999999/1" value="0" leadInLength="0/1"  />
              <InterpolatingParam id="10793" interp="linr"  time="-9999999/1" value="0" leadInLength="0/1"  />
              <InterpolatingParam id="10794" interp="linr"  time="-9999999/1" value="0" leadInLength="0/1"  />
             </VectorParam>
             <VectorParam id="10795"  name="scale">
              <InterpolatingParam id="10796" interp="linr"  time="-9999999/1" value="1" leadInLength="0/1"  />
              <InterpolatingParam id="10797" interp="linr"  time="-9999999/1" value="1" leadInLength="0/1"  />
              <InterpolatingParam id="10798" interp="linr"  time="-9999999/1" value="1" leadInLength="0/1"  />
             </VectorParam>
             <VectorParam id="10799"  name="anchor">
              <InterpolatingParam id="10800" interp="linr"  time="0/1" value="0" leadInLength="0/1"  />
              <InterpolatingParam id="10801" interp="linr"  time="0/1" value="0" leadInLength="0/1"  />
              <InterpolatingParam id="10802" interp="linr"  time="0/1" value="0" leadInLength="0/1"  />
             </VectorParam>
            </Transformer>
            <Parameters>
             <VectorParam id="10803"  name="sourceCrop">
              <InterpolatingParam id="10804" interp="linr"  time="0/1" value="0" leadInLength="0/1"  />
              <InterpolatingParam id="10805" interp="linr"  time="0/1" value="0" leadInLength="0/1"  />
              <InterpolatingParam id="10806" interp="linr"  time="0/1" value="0" leadInLength="0/1"  />
              <InterpolatingParam id="10807" interp="linr"  time="0/1" value="0" leadInLength="0/1"  />
             </VectorParam>
             <VectorParam id="10808"  name="geometryCrop">
              <InterpolatingParam id="10809" interp="linr"  time="-9999999/1" value="0" leadInLength="0/1"  />
              <InterpolatingParam id="10810" interp="linr"  time="-9999999/1" value="0" leadInLength="0/1"  />
              <InterpolatingParam id="10811" interp="linr"  time="-9999999/1" value="0" leadInLength="0/1"  />
              <InterpolatingParam id="10812" interp="linr"  time="-9999999/1" value="0" leadInLength="0/1"  />
             </VectorParam>
             <InterpolatingParam id="10813" interp="linr"  time="-9999999/1" value="1" leadInLength="0/1"  name="opacity"/>
            </Parameters>
            <Attributes>
             <Attribute id="10814" value="" name="ident"/>
            </Attributes>
            <MetaData>
             <entry key="WinSubProjectDisplayName" val=""/>
            </MetaData>
            <ExtraData>
             <Entry key="ZoomPanBin">
              <ZoomPanBin id="10815"  >
               <ZoomPanKeyframes>
                <ZoomPanKeyframe id="10816" timeRangeEnd="-9999999/1" timeRangeDuration="0/1" interpolaterName=""  />
               </ZoomPanKeyframes>
              </ZoomPanBin>
             </Entry>
            </ExtraData>
           </VMFile>
           <VMFile id="10817" start="9404" duration="157" scalar="1/1" mediaStart="28287/1" mediaDuration="157/1" trackNumber="0" src="4" >
            <Transformer>
             <VectorParam id="10818"  name="translation">
              <InterpolatingParam id="10819" interp="linr"  time="-9999999/1" value="0" leadInLength="0/1"  />
              <InterpolatingParam id="10820" interp="linr"  time="-9999999/1" value="0" leadInLength="0/1"  />
              <InterpolatingParam id="10821" interp="linr"  time="-9999999/1" value="0" leadInLength="0/1"  />
             </VectorParam>
             <VectorParam id="10822"  name="rotation">
              <InterpolatingParam id="10823" interp="linr"  time="-9999999/1" value="0" leadInLength="0/1"  />
              <InterpolatingParam id="10824" interp="linr"  time="-9999999/1" value="0" leadInLength="0/1"  />
              <InterpolatingParam id="10825" interp="linr"  time="-9999999/1" value="0" leadInLength="0/1"  />
             </VectorParam>
             <VectorParam id="10826"  name="shear">
              <InterpolatingParam id="10827" interp="linr"  time="-9999999/1" value="0" leadInLength="0/1"  />
              <InterpolatingParam id="10828" interp="linr"  time="-9999999/1" value="0" leadInLength="0/1"  />
              <InterpolatingParam id="10829" interp="linr"  time="-9999999/1" value="0" leadInLength="0/1"  />
             </VectorParam>
             <VectorParam id="10830"  name="scale">
              <InterpolatingParam id="10831" interp="linr"  time="-9999999/1" value="1" leadInLength="0/1"  />
              <InterpolatingParam id="10832" interp="linr"  time="-9999999/1" value="1" leadInLength="0/1"  />
              <InterpolatingParam id="10833" interp="linr"  time="-9999999/1" value="1" leadInLength="0/1"  />
             </VectorParam>
             <VectorParam id="10834"  name="anchor">
              <InterpolatingParam id="10835" interp="linr"  time="0/1" value="0" leadInLength="0/1"  />
              <InterpolatingParam id="10836" interp="linr"  time="0/1" value="0" leadInLength="0/1"  />
              <InterpolatingParam id="10837" interp="linr"  time="0/1" value="0" leadInLength="0/1"  />
             </VectorParam>
            </Transformer>
            <Parameters>
             <VectorParam id="10838"  name="sourceCrop">
              <InterpolatingParam id="10839" interp="linr"  time="0/1" value="0" leadInLength="0/1"  />
              <InterpolatingParam id="10840" interp="linr"  time="0/1" value="0" leadInLength="0/1"  />
              <InterpolatingParam id="10841" interp="linr"  time="0/1" value="0" leadInLength="0/1"  />
              <InterpolatingParam id="10842" interp="linr"  time="0/1" value="0" leadInLength="0/1"  />
             </VectorParam>
             <VectorParam id="10843"  name="geometryCrop">
              <InterpolatingParam id="10844" interp="linr"  time="-9999999/1" value="0" leadInLength="0/1"  />
              <InterpolatingParam id="10845" interp="linr"  time="-9999999/1" value="0" leadInLength="0/1"  />
              <InterpolatingParam id="10846" interp="linr"  time="-9999999/1" value="0" leadInLength="0/1"  />
              <InterpolatingParam id="10847" interp="linr"  time="-9999999/1" value="0" leadInLength="0/1"  />
             </VectorParam>
             <InterpolatingParam id="10848" interp="linr"  time="-9999999/1" value="1" leadInLength="0/1"  name="opacity"/>
            </Parameters>
            <Attributes>
             <Attribute id="10849" value="" name="ident"/>
            </Attributes>
            <MetaData>
             <entry key="WinSubProjectDisplayName" val=""/>
            </MetaData>
            <ExtraData>
             <Entry key="ZoomPanBin">
              <ZoomPanBin id="10850"  >
               <ZoomPanKeyframes>
                <ZoomPanKeyframe id="10851" timeRangeEnd="-9999999/1" timeRangeDuration="0/1" interpolaterName=""  />
               </ZoomPanKeyframes>
              </ZoomPanBin>
             </Entry>
            </ExtraData>
           </VMFile>
           <VMFile id="10852" start="9561" duration="290" scalar="1/1" mediaStart="28689/1" mediaDuration="290/1" trackNumber="0" src="4" >
            <Transformer>
             <VectorParam id="10853"  name="translation">
              <InterpolatingParam id="10854" interp="linr"  time="-9999999/1" value="0" leadInLength="0/1"  />
              <InterpolatingParam id="10855" interp="linr"  time="-9999999/1" value="0" leadInLength="0/1"  />
              <InterpolatingParam id="10856" interp="linr"  time="-9999999/1" value="0" leadInLength="0/1"  />
             </VectorParam>
             <VectorParam id="10857"  name="rotation">
              <InterpolatingParam id="10858" interp="linr"  time="-9999999/1" value="0" leadInLength="0/1"  />
              <InterpolatingParam id="10859" interp="linr"  time="-9999999/1" value="0" leadInLength="0/1"  />
              <InterpolatingParam id="10860" interp="linr"  time="-9999999/1" value="0" leadInLength="0/1"  />
             </VectorParam>
             <VectorParam id="10861"  name="shear">
              <InterpolatingParam id="10862" interp="linr"  time="-9999999/1" value="0" leadInLength="0/1"  />
              <InterpolatingParam id="10863" interp="linr"  time="-9999999/1" value="0" leadInLength="0/1"  />
              <InterpolatingParam id="10864" interp="linr"  time="-9999999/1" value="0" leadInLength="0/1"  />
             </VectorParam>
             <VectorParam id="10865"  name="scale">
              <InterpolatingParam id="10866" interp="linr"  time="-9999999/1" value="1" leadInLength="0/1"  />
              <InterpolatingParam id="10867" interp="linr"  time="-9999999/1" value="1" leadInLength="0/1"  />
              <InterpolatingParam id="10868" interp="linr"  time="-9999999/1" value="1" leadInLength="0/1"  />
             </VectorParam>
             <VectorParam id="10869"  name="anchor">
              <InterpolatingParam id="10870" interp="linr"  time="0/1" value="0" leadInLength="0/1"  />
              <InterpolatingParam id="10871" interp="linr"  time="0/1" value="0" leadInLength="0/1"  />
              <InterpolatingParam id="10872" interp="linr"  time="0/1" value="0" leadInLength="0/1"  />
             </VectorParam>
            </Transformer>
            <Parameters>
             <VectorParam id="10873"  name="sourceCrop">
              <InterpolatingParam id="10874" interp="linr"  time="0/1" value="0" leadInLength="0/1"  />
              <InterpolatingParam id="10875" interp="linr"  time="0/1" value="0" leadInLength="0/1"  />
              <InterpolatingParam id="10876" interp="linr"  time="0/1" value="0" leadInLength="0/1"  />
              <InterpolatingParam id="10877" interp="linr"  time="0/1" value="0" leadInLength="0/1"  />
             </VectorParam>
             <VectorParam id="10878"  name="geometryCrop">
              <InterpolatingParam id="10879" interp="linr"  time="-9999999/1" value="0" leadInLength="0/1"  />
              <InterpolatingParam id="10880" interp="linr"  time="-9999999/1" value="0" leadInLength="0/1"  />
              <InterpolatingParam id="10881" interp="linr"  time="-9999999/1" value="0" leadInLength="0/1"  />
              <InterpolatingParam id="10882" interp="linr"  time="-9999999/1" value="0" leadInLength="0/1"  />
             </VectorParam>
             <InterpolatingParam id="10883" interp="linr"  time="-9999999/1" value="1" leadInLength="0/1"  name="opacity"/>
            </Parameters>
            <Attributes>
             <Attribute id="10884" value="" name="ident"/>
            </Attributes>
            <MetaData>
             <entry key="WinSubProjectDisplayName" val=""/>
            </MetaData>
            <ExtraData>
             <Entry key="ZoomPanBin">
              <ZoomPanBin id="10885"  >
               <ZoomPanKeyframes>
                <ZoomPanKeyframe id="10886" timeRangeEnd="-9999999/1" timeRangeDuration="0/1" interpolaterName=""  />
               </ZoomPanKeyframes>
              </ZoomPanBin>
             </Entry>
            </ExtraData>
           </VMFile>
           <IMFile id="10887" start="9851" duration="60" scalar="1/1" mediaStart="29056/1" mediaDuration="1/1" trackNumber="0" src="4" trimStartSum="0/1" >
            <Transformer>
             <VectorParam id="10888"  name="translation">
              <InterpolatingParam id="10889" interp="linr"  time="-9999999/1" value="0" leadInLength="0/1"  />
              <InterpolatingParam id="10890" interp="linr"  time="-9999999/1" value="0" leadInLength="0/1"  />
              <InterpolatingParam id="10891" interp="linr"  time="-9999999/1" value="0" leadInLength="0/1"  />
             </VectorParam>
             <VectorParam id="10892"  name="rotation">
              <InterpolatingParam id="10893" interp="linr"  time="-9999999/1" value="0" leadInLength="0/1"  />
              <InterpolatingParam id="10894" interp="linr"  time="-9999999/1" value="0" leadInLength="0/1"  />
              <InterpolatingParam id="10895" interp="linr"  time="-9999999/1" value="0" leadInLength="0/1"  />
             </VectorParam>
             <VectorParam id="10896"  name="shear">
              <InterpolatingParam id="10897" interp="linr"  time="-9999999/1" value="0" leadInLength="0/1"  />
              <InterpolatingParam id="10898" interp="linr"  time="-9999999/1" value="0" leadInLength="0/1"  />
              <InterpolatingParam id="10899" interp="linr"  time="-9999999/1" value="0" leadInLength="0/1"  />
             </VectorParam>
             <VectorParam id="10900"  name="scale">
              <InterpolatingParam id="10901" interp="linr"  time="-9999999/1" value="1" leadInLength="0/1"  />
              <InterpolatingParam id="10902" interp="linr"  time="-9999999/1" value="1" leadInLength="0/1"  />
              <InterpolatingParam id="10903" interp="linr"  time="-9999999/1" value="1" leadInLength="0/1"  />
             </VectorParam>
             <VectorParam id="10904"  name="anchor">
              <InterpolatingParam id="10905" interp="linr"  time="0/1" value="0" leadInLength="0/1"  />
              <InterpolatingParam id="10906" interp="linr"  time="0/1" value="0" leadInLength="0/1"  />
              <InterpolatingParam id="10907" interp="linr"  time="0/1" value="0" leadInLength="0/1"  />
             </VectorParam>
            </Transformer>
            <Parameters>
             <VectorParam id="10908"  name="sourceCrop">
              <InterpolatingParam id="10909" interp="linr"  time="0/1" value="0" leadInLength="0/1"  />
              <InterpolatingParam id="10910" interp="linr"  time="0/1" value="0" leadInLength="0/1"  />
              <InterpolatingParam id="10911" interp="linr"  time="0/1" value="0" leadInLength="0/1"  />
              <InterpolatingParam id="10912" interp="linr"  time="0/1" value="0" leadInLength="0/1"  />
             </VectorParam>
             <VectorParam id="10913"  name="geometryCrop">
              <InterpolatingParam id="10914" interp="linr"  time="-9999999/1" value="0" leadInLength="0/1"  />
              <InterpolatingParam id="10915" interp="linr"  time="-9999999/1" value="0" leadInLength="0/1"  />
              <InterpolatingParam id="10916" interp="linr"  time="-9999999/1" value="0" leadInLength="0/1"  />
              <InterpolatingParam id="10917" interp="linr"  time="-9999999/1" value="0" leadInLength="0/1"  />
             </VectorParam>
             <InterpolatingParam id="10918" interp="linr"  time="-9999999/1" value="1" leadInLength="0/1"  name="opacity"/>
            </Parameters>
            <Attributes>
             <Attribute id="10919" value="" name="ident"/>
            </Attributes>
            <MetaData>
             <entry key="WinSubProjectDisplayName" val=""/>
            </MetaData>
            <ExtraData>
             <Entry key="ZoomPanBin">
              <ZoomPanBin id="10920"  >
               <ZoomPanKeyframes>
                <ZoomPanKeyframe id="10921" timeRangeEnd="-9999999/1" timeRangeDuration="0/1" interpolaterName=""  />
               </ZoomPanKeyframes>
              </ZoomPanBin>
             </Entry>
            </ExtraData>
           </IMFile>
           <VMFile id="10922" start="9911" duration="18" scalar="1/1" mediaStart="29056/1" mediaDuration="18/1" trackNumber="0" src="4" >
            <Transformer>
             <VectorParam id="10923"  name="translation">
              <InterpolatingParam id="10924" interp="linr"  time="-9999999/1" value="0" leadInLength="0/1"  />
              <InterpolatingParam id="10925" interp="linr"  time="-9999999/1" value="0" leadInLength="0/1"  />
              <InterpolatingParam id="10926" interp="linr"  time="-9999999/1" value="0" leadInLength="0/1"  />
             </VectorParam>
             <VectorParam id="10927"  name="rotation">
              <InterpolatingParam id="10928" interp="linr"  time="-9999999/1" value="0" leadInLength="0/1"  />
              <InterpolatingParam id="10929" interp="linr"  time="-9999999/1" value="0" leadInLength="0/1"  />
              <InterpolatingParam id="10930" interp="linr"  time="-9999999/1" value="0" leadInLength="0/1"  />
             </VectorParam>
             <VectorParam id="10931"  name="shear">
              <InterpolatingParam id="10932" interp="linr"  time="-9999999/1" value="0" leadInLength="0/1"  />
              <InterpolatingParam id="10933" interp="linr"  time="-9999999/1" value="0" leadInLength="0/1"  />
              <InterpolatingParam id="10934" interp="linr"  time="-9999999/1" value="0" leadInLength="0/1"  />
             </VectorParam>
             <VectorParam id="10935"  name="scale">
              <InterpolatingParam id="10936" interp="linr"  time="-9999999/1" value="1" leadInLength="0/1"  />
              <InterpolatingParam id="10937" interp="linr"  time="-9999999/1" value="1" leadInLength="0/1"  />
              <InterpolatingParam id="10938" interp="linr"  time="-9999999/1" value="1" leadInLength="0/1"  />
             </VectorParam>
             <VectorParam id="10939"  name="anchor">
              <InterpolatingParam id="10940" interp="linr"  time="0/1" value="0" leadInLength="0/1"  />
              <InterpolatingParam id="10941" interp="linr"  time="0/1" value="0" leadInLength="0/1"  />
              <InterpolatingParam id="10942" interp="linr"  time="0/1" value="0" leadInLength="0/1"  />
             </VectorParam>
            </Transformer>
            <Parameters>
             <VectorParam id="10943"  name="sourceCrop">
              <InterpolatingParam id="10944" interp="linr"  time="0/1" value="0" leadInLength="0/1"  />
              <InterpolatingParam id="10945" interp="linr"  time="0/1" value="0" leadInLength="0/1"  />
              <InterpolatingParam id="10946" interp="linr"  time="0/1" value="0" leadInLength="0/1"  />
              <InterpolatingParam id="10947" interp="linr"  time="0/1" value="0" leadInLength="0/1"  />
             </VectorParam>
             <VectorParam id="10948"  name="geometryCrop">
              <InterpolatingParam id="10949" interp="linr"  time="-9999999/1" value="0" leadInLength="0/1"  />
              <InterpolatingParam id="10950" interp="linr"  time="-9999999/1" value="0" leadInLength="0/1"  />
              <InterpolatingParam id="10951" interp="linr"  time="-9999999/1" value="0" leadInLength="0/1"  />
              <InterpolatingParam id="10952" interp="linr"  time="-9999999/1" value="0" leadInLength="0/1"  />
             </VectorParam>
             <InterpolatingParam id="10953" interp="linr"  time="-9999999/1" value="1" leadInLength="0/1"  name="opacity"/>
            </Parameters>
            <Attributes>
             <Attribute id="10954" value="" name="ident"/>
            </Attributes>
            <MetaData>
             <entry key="WinSubProjectDisplayName" val=""/>
            </MetaData>
            <ExtraData>
             <Entry key="ZoomPanBin">
              <ZoomPanBin id="10955"  >
               <ZoomPanKeyframes>
                <ZoomPanKeyframe id="10956" timeRangeEnd="-9999999/1" timeRangeDuration="0/1" interpolaterName=""  />
               </ZoomPanKeyframes>
              </ZoomPanBin>
             </Entry>
            </ExtraData>
           </VMFile>
           <IMFile id="10957" start="9929" duration="30" scalar="1/1" mediaStart="29074/1" mediaDuration="1/1" trackNumber="0" src="4" trimStartSum="0/1" >
            <Transformer>
             <VectorParam id="10958"  name="translation">
              <InterpolatingParam id="10959" interp="linr"  time="-9999999/1" value="0" leadInLength="0/1"  />
              <InterpolatingParam id="10960" interp="linr"  time="-9999999/1" value="0" leadInLength="0/1"  />
              <InterpolatingParam id="10961" interp="linr"  time="-9999999/1" value="0" leadInLength="0/1"  />
             </VectorParam>
             <VectorParam id="10962"  name="rotation">
              <InterpolatingParam id="10963" interp="linr"  time="-9999999/1" value="0" leadInLength="0/1"  />
              <InterpolatingParam id="10964" interp="linr"  time="-9999999/1" value="0" leadInLength="0/1"  />
              <InterpolatingParam id="10965" interp="linr"  time="-9999999/1" value="0" leadInLength="0/1"  />
             </VectorParam>
             <VectorParam id="10966"  name="shear">
              <InterpolatingParam id="10967" interp="linr"  time="-9999999/1" value="0" leadInLength="0/1"  />
              <InterpolatingParam id="10968" interp="linr"  time="-9999999/1" value="0" leadInLength="0/1"  />
              <InterpolatingParam id="10969" interp="linr"  time="-9999999/1" value="0" leadInLength="0/1"  />
             </VectorParam>
             <VectorParam id="10970"  name="scale">
              <InterpolatingParam id="10971" interp="linr"  time="-9999999/1" value="1" leadInLength="0/1"  />
              <InterpolatingParam id="10972" interp="linr"  time="-9999999/1" value="1" leadInLength="0/1"  />
              <InterpolatingParam id="10973" interp="linr"  time="-9999999/1" value="1" leadInLength="0/1"  />
             </VectorParam>
             <VectorParam id="10974"  name="anchor">
              <InterpolatingParam id="10975" interp="linr"  time="0/1" value="0" leadInLength="0/1"  />
              <InterpolatingParam id="10976" interp="linr"  time="0/1" value="0" leadInLength="0/1"  />
              <InterpolatingParam id="10977" interp="linr"  time="0/1" value="0" leadInLength="0/1"  />
             </VectorParam>
            </Transformer>
            <Parameters>
             <VectorParam id="10978"  name="sourceCrop">
              <InterpolatingParam id="10979" interp="linr"  time="0/1" value="0" leadInLength="0/1"  />
              <InterpolatingParam id="10980" interp="linr"  time="0/1" value="0" leadInLength="0/1"  />
              <InterpolatingParam id="10981" interp="linr"  time="0/1" value="0" leadInLength="0/1"  />
              <InterpolatingParam id="10982" interp="linr"  time="0/1" value="0" leadInLength="0/1"  />
             </VectorParam>
             <VectorParam id="10983"  name="geometryCrop">
              <InterpolatingParam id="10984" interp="linr"  time="-9999999/1" value="0" leadInLength="0/1"  />
              <InterpolatingParam id="10985" interp="linr"  time="-9999999/1" value="0" leadInLength="0/1"  />
              <InterpolatingParam id="10986" interp="linr"  time="-9999999/1" value="0" leadInLength="0/1"  />
              <InterpolatingParam id="10987" interp="linr"  time="-9999999/1" value="0" leadInLength="0/1"  />
             </VectorParam>
             <InterpolatingParam id="10988" interp="linr"  time="-9999999/1" value="1" leadInLength="0/1"  name="opacity"/>
            </Parameters>
            <Attributes>
             <Attribute id="10989" value="" name="ident"/>
            </Attributes>
            <MetaData>
             <entry key="WinSubProjectDisplayName" val=""/>
            </MetaData>
            <ExtraData>
             <Entry key="ZoomPanBin">
              <ZoomPanBin id="10990"  >
               <ZoomPanKeyframes>
                <ZoomPanKeyframe id="10991" timeRangeEnd="-9999999/1" timeRangeDuration="0/1" interpolaterName=""  />
               </ZoomPanKeyframes>
              </ZoomPanBin>
             </Entry>
            </ExtraData>
           </IMFile>
           <VMFile id="10992" start="9959" duration="1" scalar="1/1" mediaStart="29074/1" mediaDuration="1/1" trackNumber="0" src="4" >
            <Transformer>
             <VectorParam id="10993"  name="translation">
              <InterpolatingParam id="10994" interp="linr"  time="-9999999/1" value="0" leadInLength="0/1"  />
              <InterpolatingParam id="10995" interp="linr"  time="-9999999/1" value="0" leadInLength="0/1"  />
              <InterpolatingParam id="10996" interp="linr"  time="-9999999/1" value="0" leadInLength="0/1"  />
             </VectorParam>
             <VectorParam id="10997"  name="rotation">
              <InterpolatingParam id="10998" interp="linr"  time="-9999999/1" value="0" leadInLength="0/1"  />
              <InterpolatingParam id="10999" interp="linr"  time="-9999999/1" value="0" leadInLength="0/1"  />
              <InterpolatingParam id="11000" interp="linr"  time="-9999999/1" value="0" leadInLength="0/1"  />
             </VectorParam>
             <VectorParam id="11001"  name="shear">
              <InterpolatingParam id="11002" interp="linr"  time="-9999999/1" value="0" leadInLength="0/1"  />
              <InterpolatingParam id="11003" interp="linr"  time="-9999999/1" value="0" leadInLength="0/1"  />
              <InterpolatingParam id="11004" interp="linr"  time="-9999999/1" value="0" leadInLength="0/1"  />
             </VectorParam>
             <VectorParam id="11005"  name="scale">
              <InterpolatingParam id="11006" interp="linr"  time="-9999999/1" value="1" leadInLength="0/1"  />
              <InterpolatingParam id="11007" interp="linr"  time="-9999999/1" value="1" leadInLength="0/1"  />
              <InterpolatingParam id="11008" interp="linr"  time="-9999999/1" value="1" leadInLength="0/1"  />
             </VectorParam>
             <VectorParam id="11009"  name="anchor">
              <InterpolatingParam id="11010" interp="linr"  time="0/1" value="0" leadInLength="0/1"  />
              <InterpolatingParam id="11011" interp="linr"  time="0/1" value="0" leadInLength="0/1"  />
              <InterpolatingParam id="11012" interp="linr"  time="0/1" value="0" leadInLength="0/1"  />
             </VectorParam>
            </Transformer>
            <Parameters>
             <VectorParam id="11013"  name="sourceCrop">
              <InterpolatingParam id="11014" interp="linr"  time="0/1" value="0" leadInLength="0/1"  />
              <InterpolatingParam id="11015" interp="linr"  time="0/1" value="0" leadInLength="0/1"  />
              <InterpolatingParam id="11016" interp="linr"  time="0/1" value="0" leadInLength="0/1"  />
              <InterpolatingParam id="11017" interp="linr"  time="0/1" value="0" leadInLength="0/1"  />
             </VectorParam>
             <VectorParam id="11018"  name="geometryCrop">
              <InterpolatingParam id="11019" interp="linr"  time="-9999999/1" value="0" leadInLength="0/1"  />
              <InterpolatingParam id="11020" interp="linr"  time="-9999999/1" value="0" leadInLength="0/1"  />
              <InterpolatingParam id="11021" interp="linr"  time="-9999999/1" value="0" leadInLength="0/1"  />
              <InterpolatingParam id="11022" interp="linr"  time="-9999999/1" value="0" leadInLength="0/1"  />
             </VectorParam>
             <InterpolatingParam id="11023" interp="linr"  time="-9999999/1" value="1" leadInLength="0/1"  name="opacity"/>
            </Parameters>
            <Attributes>
             <Attribute id="11024" value="" name="ident"/>
            </Attributes>
            <MetaData>
             <entry key="WinSubProjectDisplayName" val=""/>
            </MetaData>
            <ExtraData>
             <Entry key="ZoomPanBin">
              <ZoomPanBin id="11025"  >
               <ZoomPanKeyframes>
                <ZoomPanKeyframe id="11026" timeRangeEnd="-9999999/1" timeRangeDuration="0/1" interpolaterName=""  />
               </ZoomPanKeyframes>
              </ZoomPanBin>
             </Entry>
            </ExtraData>
           </VMFile>
           <VMFile id="11027" start="9960" duration="42" scalar="1/1" mediaStart="29274/1" mediaDuration="42/1" trackNumber="0" src="4" >
            <Transformer>
             <VectorParam id="11028"  name="translation">
              <InterpolatingParam id="11029" interp="linr"  time="-9999999/1" value="0" leadInLength="0/1"  />
              <InterpolatingParam id="11030" interp="linr"  time="-9999999/1" value="0" leadInLength="0/1"  />
              <InterpolatingParam id="11031" interp="linr"  time="-9999999/1" value="0" leadInLength="0/1"  />
             </VectorParam>
             <VectorParam id="11032"  name="rotation">
              <InterpolatingParam id="11033" interp="linr"  time="-9999999/1" value="0" leadInLength="0/1"  />
              <InterpolatingParam id="11034" interp="linr"  time="-9999999/1" value="0" leadInLength="0/1"  />
              <InterpolatingParam id="11035" interp="linr"  time="-9999999/1" value="0" leadInLength="0/1"  />
             </VectorParam>
             <VectorParam id="11036"  name="shear">
              <InterpolatingParam id="11037" interp="linr"  time="-9999999/1" value="0" leadInLength="0/1"  />
              <InterpolatingParam id="11038" interp="linr"  time="-9999999/1" value="0" leadInLength="0/1"  />
              <InterpolatingParam id="11039" interp="linr"  time="-9999999/1" value="0" leadInLength="0/1"  />
             </VectorParam>
             <VectorParam id="11040"  name="scale">
              <InterpolatingParam id="11041" interp="linr"  time="-9999999/1" value="1" leadInLength="0/1"  />
              <InterpolatingParam id="11042" interp="linr"  time="-9999999/1" value="1" leadInLength="0/1"  />
              <InterpolatingParam id="11043" interp="linr"  time="-9999999/1" value="1" leadInLength="0/1"  />
             </VectorParam>
             <VectorParam id="11044"  name="anchor">
              <InterpolatingParam id="11045" interp="linr"  time="0/1" value="0" leadInLength="0/1"  />
              <InterpolatingParam id="11046" interp="linr"  time="0/1" value="0" leadInLength="0/1"  />
              <InterpolatingParam id="11047" interp="linr"  time="0/1" value="0" leadInLength="0/1"  />
             </VectorParam>
            </Transformer>
            <Parameters>
             <VectorParam id="11048"  name="sourceCrop">
              <InterpolatingParam id="11049" interp="linr"  time="0/1" value="0" leadInLength="0/1"  />
              <InterpolatingParam id="11050" interp="linr"  time="0/1" value="0" leadInLength="0/1"  />
              <InterpolatingParam id="11051" interp="linr"  time="0/1" value="0" leadInLength="0/1"  />
              <InterpolatingParam id="11052" interp="linr"  time="0/1" value="0" leadInLength="0/1"  />
             </VectorParam>
             <VectorParam id="11053"  name="geometryCrop">
              <InterpolatingParam id="11054" interp="linr"  time="-9999999/1" value="0" leadInLength="0/1"  />
              <InterpolatingParam id="11055" interp="linr"  time="-9999999/1" value="0" leadInLength="0/1"  />
              <InterpolatingParam id="11056" interp="linr"  time="-9999999/1" value="0" leadInLength="0/1"  />
              <InterpolatingParam id="11057" interp="linr"  time="-9999999/1" value="0" leadInLength="0/1"  />
             </VectorParam>
             <InterpolatingParam id="11058" interp="linr"  time="-9999999/1" value="1" leadInLength="0/1"  name="opacity"/>
            </Parameters>
            <Attributes>
             <Attribute id="11059" value="" name="ident"/>
            </Attributes>
            <MetaData>
             <entry key="WinSubProjectDisplayName" val=""/>
            </MetaData>
            <ExtraData>
             <Entry key="ZoomPanBin">
              <ZoomPanBin id="11060"  >
               <ZoomPanKeyframes>
                <ZoomPanKeyframe id="11061" timeRangeEnd="-9999999/1" timeRangeDuration="0/1" interpolaterName=""  />
               </ZoomPanKeyframes>
              </ZoomPanBin>
             </Entry>
            </ExtraData>
           </VMFile>
           <VMFile id="11062" start="10002" duration="147" scalar="1/1" mediaStart="29358/1" mediaDuration="147/1" trackNumber="0" src="4" >
            <Transformer>
             <VectorParam id="11063"  name="translation">
              <InterpolatingParam id="11064" interp="linr"  time="-9999999/1" value="0" leadInLength="0/1"  />
              <InterpolatingParam id="11065" interp="linr"  time="-9999999/1" value="0" leadInLength="0/1"  />
              <InterpolatingParam id="11066" interp="linr"  time="-9999999/1" value="0" leadInLength="0/1"  />
             </VectorParam>
             <VectorParam id="11067"  name="rotation">
              <InterpolatingParam id="11068" interp="linr"  time="-9999999/1" value="0" leadInLength="0/1"  />
              <InterpolatingParam id="11069" interp="linr"  time="-9999999/1" value="0" leadInLength="0/1"  />
              <InterpolatingParam id="11070" interp="linr"  time="-9999999/1" value="0" leadInLength="0/1"  />
             </VectorParam>
             <VectorParam id="11071"  name="shear">
              <InterpolatingParam id="11072" interp="linr"  time="-9999999/1" value="0" leadInLength="0/1"  />
              <InterpolatingParam id="11073" interp="linr"  time="-9999999/1" value="0" leadInLength="0/1"  />
              <InterpolatingParam id="11074" interp="linr"  time="-9999999/1" value="0" leadInLength="0/1"  />
             </VectorParam>
             <VectorParam id="11075"  name="scale">
              <InterpolatingParam id="11076" interp="linr"  time="-9999999/1" value="1" leadInLength="0/1"  />
              <InterpolatingParam id="11077" interp="linr"  time="-9999999/1" value="1" leadInLength="0/1"  />
              <InterpolatingParam id="11078" interp="linr"  time="-9999999/1" value="1" leadInLength="0/1"  />
             </VectorParam>
             <VectorParam id="11079"  name="anchor">
              <InterpolatingParam id="11080" interp="linr"  time="0/1" value="0" leadInLength="0/1"  />
              <InterpolatingParam id="11081" interp="linr"  time="0/1" value="0" leadInLength="0/1"  />
              <InterpolatingParam id="11082" interp="linr"  time="0/1" value="0" leadInLength="0/1"  />
             </VectorParam>
            </Transformer>
            <Parameters>
             <VectorParam id="11083"  name="sourceCrop">
              <InterpolatingParam id="11084" interp="linr"  time="0/1" value="0" leadInLength="0/1"  />
              <InterpolatingParam id="11085" interp="linr"  time="0/1" value="0" leadInLength="0/1"  />
              <InterpolatingParam id="11086" interp="linr"  time="0/1" value="0" leadInLength="0/1"  />
              <InterpolatingParam id="11087" interp="linr"  time="0/1" value="0" leadInLength="0/1"  />
             </VectorParam>
             <VectorParam id="11088"  name="geometryCrop">
              <InterpolatingParam id="11089" interp="linr"  time="-9999999/1" value="0" leadInLength="0/1"  />
              <InterpolatingParam id="11090" interp="linr"  time="-9999999/1" value="0" leadInLength="0/1"  />
              <InterpolatingParam id="11091" interp="linr"  time="-9999999/1" value="0" leadInLength="0/1"  />
              <InterpolatingParam id="11092" interp="linr"  time="-9999999/1" value="0" leadInLength="0/1"  />
             </VectorParam>
             <InterpolatingParam id="11093" interp="linr"  time="-9999999/1" value="1" leadInLength="0/1"  name="opacity"/>
            </Parameters>
            <Attributes>
             <Attribute id="11094" value="" name="ident"/>
            </Attributes>
            <MetaData>
             <entry key="WinSubProjectDisplayName" val=""/>
            </MetaData>
            <ExtraData>
             <Entry key="ZoomPanBin">
              <ZoomPanBin id="11095"  >
               <ZoomPanKeyframes>
                <ZoomPanKeyframe id="11096" timeRangeEnd="-9999999/1" timeRangeDuration="0/1" interpolaterName=""  />
               </ZoomPanKeyframes>
              </ZoomPanBin>
             </Entry>
            </ExtraData>
           </VMFile>
           <VMFile id="11097" start="10149" duration="580" scalar="1/1" mediaStart="29557/1" mediaDuration="580/1" trackNumber="0" src="4" >
            <Transformer>
             <VectorParam id="11098"  name="translation">
              <InterpolatingParam id="11099" interp="linr"  time="-9999999/1" value="0" leadInLength="0/1"  />
              <InterpolatingParam id="11100" interp="linr"  time="-9999999/1" value="0" leadInLength="0/1"  />
              <InterpolatingParam id="11101" interp="linr"  time="-9999999/1" value="0" leadInLength="0/1"  />
             </VectorParam>
             <VectorParam id="11102"  name="rotation">
              <InterpolatingParam id="11103" interp="linr"  time="-9999999/1" value="0" leadInLength="0/1"  />
              <InterpolatingParam id="11104" interp="linr"  time="-9999999/1" value="0" leadInLength="0/1"  />
              <InterpolatingParam id="11105" interp="linr"  time="-9999999/1" value="0" leadInLength="0/1"  />
             </VectorParam>
             <VectorParam id="11106"  name="shear">
              <InterpolatingParam id="11107" interp="linr"  time="-9999999/1" value="0" leadInLength="0/1"  />
              <InterpolatingParam id="11108" interp="linr"  time="-9999999/1" value="0" leadInLength="0/1"  />
              <InterpolatingParam id="11109" interp="linr"  time="-9999999/1" value="0" leadInLength="0/1"  />
             </VectorParam>
             <VectorParam id="11110"  name="scale">
              <InterpolatingParam id="11111" interp="linr"  time="-9999999/1" value="1" leadInLength="0/1"  />
              <InterpolatingParam id="11112" interp="linr"  time="-9999999/1" value="1" leadInLength="0/1"  />
              <InterpolatingParam id="11113" interp="linr"  time="-9999999/1" value="1" leadInLength="0/1"  />
             </VectorParam>
             <VectorParam id="11114"  name="anchor">
              <InterpolatingParam id="11115" interp="linr"  time="0/1" value="0" leadInLength="0/1"  />
              <InterpolatingParam id="11116" interp="linr"  time="0/1" value="0" leadInLength="0/1"  />
              <InterpolatingParam id="11117" interp="linr"  time="0/1" value="0" leadInLength="0/1"  />
             </VectorParam>
            </Transformer>
            <Parameters>
             <VectorParam id="11118"  name="sourceCrop">
              <InterpolatingParam id="11119" interp="linr"  time="0/1" value="0" leadInLength="0/1"  />
              <InterpolatingParam id="11120" interp="linr"  time="0/1" value="0" leadInLength="0/1"  />
              <InterpolatingParam id="11121" interp="linr"  time="0/1" value="0" leadInLength="0/1"  />
              <InterpolatingParam id="11122" interp="linr"  time="0/1" value="0" leadInLength="0/1"  />
             </VectorParam>
             <VectorParam id="11123"  name="geometryCrop">
              <InterpolatingParam id="11124" interp="linr"  time="-9999999/1" value="0" leadInLength="0/1"  />
              <InterpolatingParam id="11125" interp="linr"  time="-9999999/1" value="0" leadInLength="0/1"  />
              <InterpolatingParam id="11126" interp="linr"  time="-9999999/1" value="0" leadInLength="0/1"  />
              <InterpolatingParam id="11127" interp="linr"  time="-9999999/1" value="0" leadInLength="0/1"  />
             </VectorParam>
             <InterpolatingParam id="11128" interp="linr"  time="-9999999/1" value="1" leadInLength="0/1"  name="opacity"/>
            </Parameters>
            <Attributes>
             <Attribute id="11129" value="" name="ident"/>
            </Attributes>
            <MetaData>
             <entry key="WinSubProjectDisplayName" val=""/>
            </MetaData>
            <ExtraData>
             <Entry key="ZoomPanBin">
              <ZoomPanBin id="11130"  >
               <ZoomPanKeyframes>
                <ZoomPanKeyframe id="11131" timeRangeEnd="-9999999/1" timeRangeDuration="0/1" interpolaterName=""  />
               </ZoomPanKeyframes>
              </ZoomPanBin>
             </Entry>
            </ExtraData>
           </VMFile>
           <VMFile id="11132" start="10729" duration="25" scalar="1/1" mediaStart="30200/1" mediaDuration="25/1" trackNumber="0" src="4" >
            <Transformer>
             <VectorParam id="11133"  name="translation">
              <InterpolatingParam id="11134" interp="linr"  time="-9999999/1" value="0" leadInLength="0/1"  />
              <InterpolatingParam id="11135" interp="linr"  time="-9999999/1" value="0" leadInLength="0/1"  />
              <InterpolatingParam id="11136" interp="linr"  time="-9999999/1" value="0" leadInLength="0/1"  />
             </VectorParam>
             <VectorParam id="11137"  name="rotation">
              <InterpolatingParam id="11138" interp="linr"  time="-9999999/1" value="0" leadInLength="0/1"  />
              <InterpolatingParam id="11139" interp="linr"  time="-9999999/1" value="0" leadInLength="0/1"  />
              <InterpolatingParam id="11140" interp="linr"  time="-9999999/1" value="0" leadInLength="0/1"  />
             </VectorParam>
             <VectorParam id="11141"  name="shear">
              <InterpolatingParam id="11142" interp="linr"  time="-9999999/1" value="0" leadInLength="0/1"  />
              <InterpolatingParam id="11143" interp="linr"  time="-9999999/1" value="0" leadInLength="0/1"  />
              <InterpolatingParam id="11144" interp="linr"  time="-9999999/1" value="0" leadInLength="0/1"  />
             </VectorParam>
             <VectorParam id="11145"  name="scale">
              <InterpolatingParam id="11146" interp="linr"  time="-9999999/1" value="1" leadInLength="0/1"  />
              <InterpolatingParam id="11147" interp="linr"  time="-9999999/1" value="1" leadInLength="0/1"  />
              <InterpolatingParam id="11148" interp="linr"  time="-9999999/1" value="1" leadInLength="0/1"  />
             </VectorParam>
             <VectorParam id="11149"  name="anchor">
              <InterpolatingParam id="11150" interp="linr"  time="0/1" value="0" leadInLength="0/1"  />
              <InterpolatingParam id="11151" interp="linr"  time="0/1" value="0" leadInLength="0/1"  />
              <InterpolatingParam id="11152" interp="linr"  time="0/1" value="0" leadInLength="0/1"  />
             </VectorParam>
            </Transformer>
            <Parameters>
             <VectorParam id="11153"  name="sourceCrop">
              <InterpolatingParam id="11154" interp="linr"  time="0/1" value="0" leadInLength="0/1"  />
              <InterpolatingParam id="11155" interp="linr"  time="0/1" value="0" leadInLength="0/1"  />
              <InterpolatingParam id="11156" interp="linr"  time="0/1" value="0" leadInLength="0/1"  />
              <InterpolatingParam id="11157" interp="linr"  time="0/1" value="0" leadInLength="0/1"  />
             </VectorParam>
             <VectorParam id="11158"  name="geometryCrop">
              <InterpolatingParam id="11159" interp="linr"  time="-9999999/1" value="0" leadInLength="0/1"  />
              <InterpolatingParam id="11160" interp="linr"  time="-9999999/1" value="0" leadInLength="0/1"  />
              <InterpolatingParam id="11161" interp="linr"  time="-9999999/1" value="0" leadInLength="0/1"  />
              <InterpolatingParam id="11162" interp="linr"  time="-9999999/1" value="0" leadInLength="0/1"  />
             </VectorParam>
             <InterpolatingParam id="11163" interp="linr"  time="-9999999/1" value="1" leadInLength="0/1"  name="opacity"/>
            </Parameters>
            <Attributes>
             <Attribute id="11164" value="" name="ident"/>
            </Attributes>
            <MetaData>
             <entry key="WinSubProjectDisplayName" val=""/>
            </MetaData>
            <ExtraData>
             <Entry key="ZoomPanBin">
              <ZoomPanBin id="11165"  >
               <ZoomPanKeyframes>
                <ZoomPanKeyframe id="11166" timeRangeEnd="-9999999/1" timeRangeDuration="0/1" interpolaterName=""  />
               </ZoomPanKeyframes>
              </ZoomPanBin>
             </Entry>
            </ExtraData>
           </VMFile>
           <VMFile id="11167" start="10754" duration="119" scalar="1/1" mediaStart="30368/1" mediaDuration="119/1" trackNumber="0" src="4" >
            <Transformer>
             <VectorParam id="11168"  name="translation">
              <InterpolatingParam id="11169" interp="linr"  time="-9999999/1" value="0" leadInLength="0/1"  />
              <InterpolatingParam id="11170" interp="linr"  time="-9999999/1" value="0" leadInLength="0/1"  />
              <InterpolatingParam id="11171" interp="linr"  time="-9999999/1" value="0" leadInLength="0/1"  />
             </VectorParam>
             <VectorParam id="11172"  name="rotation">
              <InterpolatingParam id="11173" interp="linr"  time="-9999999/1" value="0" leadInLength="0/1"  />
              <InterpolatingParam id="11174" interp="linr"  time="-9999999/1" value="0" leadInLength="0/1"  />
              <InterpolatingParam id="11175" interp="linr"  time="-9999999/1" value="0" leadInLength="0/1"  />
             </VectorParam>
             <VectorParam id="11176"  name="shear">
              <InterpolatingParam id="11177" interp="linr"  time="-9999999/1" value="0" leadInLength="0/1"  />
              <InterpolatingParam id="11178" interp="linr"  time="-9999999/1" value="0" leadInLength="0/1"  />
              <InterpolatingParam id="11179" interp="linr"  time="-9999999/1" value="0" leadInLength="0/1"  />
             </VectorParam>
             <VectorParam id="11180"  name="scale">
              <InterpolatingParam id="11181" interp="linr"  time="-9999999/1" value="1" leadInLength="0/1"  />
              <InterpolatingParam id="11182" interp="linr"  time="-9999999/1" value="1" leadInLength="0/1"  />
              <InterpolatingParam id="11183" interp="linr"  time="-9999999/1" value="1" leadInLength="0/1"  />
             </VectorParam>
             <VectorParam id="11184"  name="anchor">
              <InterpolatingParam id="11185" interp="linr"  time="0/1" value="0" leadInLength="0/1"  />
              <InterpolatingParam id="11186" interp="linr"  time="0/1" value="0" leadInLength="0/1"  />
              <InterpolatingParam id="11187" interp="linr"  time="0/1" value="0" leadInLength="0/1"  />
             </VectorParam>
            </Transformer>
            <Parameters>
             <VectorParam id="11188"  name="sourceCrop">
              <InterpolatingParam id="11189" interp="linr"  time="0/1" value="0" leadInLength="0/1"  />
              <InterpolatingParam id="11190" interp="linr"  time="0/1" value="0" leadInLength="0/1"  />
              <InterpolatingParam id="11191" interp="linr"  time="0/1" value="0" leadInLength="0/1"  />
              <InterpolatingParam id="11192" interp="linr"  time="0/1" value="0" leadInLength="0/1"  />
             </VectorParam>
             <VectorParam id="11193"  name="geometryCrop">
              <InterpolatingParam id="11194" interp="linr"  time="-9999999/1" value="0" leadInLength="0/1"  />
              <InterpolatingParam id="11195" interp="linr"  time="-9999999/1" value="0" leadInLength="0/1"  />
              <InterpolatingParam id="11196" interp="linr"  time="-9999999/1" value="0" leadInLength="0/1"  />
              <InterpolatingParam id="11197" interp="linr"  time="-9999999/1" value="0" leadInLength="0/1"  />
             </VectorParam>
             <InterpolatingParam id="11198" interp="linr"  time="-9999999/1" value="1" leadInLength="0/1"  name="opacity"/>
            </Parameters>
            <Attributes>
             <Attribute id="11199" value="" name="ident"/>
            </Attributes>
            <MetaData>
             <entry key="WinSubProjectDisplayName" val=""/>
            </MetaData>
            <ExtraData>
             <Entry key="ZoomPanBin">
              <ZoomPanBin id="11200"  >
               <ZoomPanKeyframes>
                <ZoomPanKeyframe id="11201" timeRangeEnd="-9999999/1" timeRangeDuration="0/1" interpolaterName=""  />
               </ZoomPanKeyframes>
              </ZoomPanBin>
             </Entry>
            </ExtraData>
           </VMFile>
           <VMFile id="11202" start="10873" duration="411" scalar="1/1" mediaStart="30756/1" mediaDuration="411/1" trackNumber="0" src="4" >
            <Transformer>
             <VectorParam id="11203"  name="translation">
              <InterpolatingParam id="11204" interp="linr"  time="-9999999/1" value="0" leadInLength="0/1"  />
              <InterpolatingParam id="11205" interp="linr"  time="-9999999/1" value="0" leadInLength="0/1"  />
              <InterpolatingParam id="11206" interp="linr"  time="-9999999/1" value="0" leadInLength="0/1"  />
             </VectorParam>
             <VectorParam id="11207"  name="rotation">
              <InterpolatingParam id="11208" interp="linr"  time="-9999999/1" value="0" leadInLength="0/1"  />
              <InterpolatingParam id="11209" interp="linr"  time="-9999999/1" value="0" leadInLength="0/1"  />
              <InterpolatingParam id="11210" interp="linr"  time="-9999999/1" value="0" leadInLength="0/1"  />
             </VectorParam>
             <VectorParam id="11211"  name="shear">
              <InterpolatingParam id="11212" interp="linr"  time="-9999999/1" value="0" leadInLength="0/1"  />
              <InterpolatingParam id="11213" interp="linr"  time="-9999999/1" value="0" leadInLength="0/1"  />
              <InterpolatingParam id="11214" interp="linr"  time="-9999999/1" value="0" leadInLength="0/1"  />
             </VectorParam>
             <VectorParam id="11215"  name="scale">
              <InterpolatingParam id="11216" interp="linr"  time="-9999999/1" value="1" leadInLength="0/1"  />
              <InterpolatingParam id="11217" interp="linr"  time="-9999999/1" value="1" leadInLength="0/1"  />
              <InterpolatingParam id="11218" interp="linr"  time="-9999999/1" value="1" leadInLength="0/1"  />
             </VectorParam>
             <VectorParam id="11219"  name="anchor">
              <InterpolatingParam id="11220" interp="linr"  time="0/1" value="0" leadInLength="0/1"  />
              <InterpolatingParam id="11221" interp="linr"  time="0/1" value="0" leadInLength="0/1"  />
              <InterpolatingParam id="11222" interp="linr"  time="0/1" value="0" leadInLength="0/1"  />
             </VectorParam>
            </Transformer>
            <Parameters>
             <VectorParam id="11223"  name="sourceCrop">
              <InterpolatingParam id="11224" interp="linr"  time="0/1" value="0" leadInLength="0/1"  />
              <InterpolatingParam id="11225" interp="linr"  time="0/1" value="0" leadInLength="0/1"  />
              <InterpolatingParam id="11226" interp="linr"  time="0/1" value="0" leadInLength="0/1"  />
              <InterpolatingParam id="11227" interp="linr"  time="0/1" value="0" leadInLength="0/1"  />
             </VectorParam>
             <VectorParam id="11228"  name="geometryCrop">
              <InterpolatingParam id="11229" interp="linr"  time="-9999999/1" value="0" leadInLength="0/1"  />
              <InterpolatingParam id="11230" interp="linr"  time="-9999999/1" value="0" leadInLength="0/1"  />
              <InterpolatingParam id="11231" interp="linr"  time="-9999999/1" value="0" leadInLength="0/1"  />
              <InterpolatingParam id="11232" interp="linr"  time="-9999999/1" value="0" leadInLength="0/1"  />
             </VectorParam>
             <InterpolatingParam id="11233" interp="linr"  time="-9999999/1" value="1" leadInLength="0/1"  name="opacity"/>
            </Parameters>
            <Attributes>
             <Attribute id="11234" value="" name="ident"/>
            </Attributes>
            <MetaData>
             <entry key="WinSubProjectDisplayName" val=""/>
            </MetaData>
            <ExtraData>
             <Entry key="ZoomPanBin">
              <ZoomPanBin id="11235"  >
               <ZoomPanKeyframes>
                <ZoomPanKeyframe id="11236" timeRangeEnd="-9999999/1" timeRangeDuration="0/1" interpolaterName=""  />
               </ZoomPanKeyframes>
              </ZoomPanBin>
             </Entry>
            </ExtraData>
           </VMFile>
          </Medias>
         </GenericTrack>
        </StitchedMedia>
        <StitchedMedia id="11237" start="3215" duration="395" scalar="36028797018963968/72081611942019335" mediaStart="576460752303423488/94897182128379" mediaDuration="144115188075855872/182363504143559" minMediaStart="0/1" >
         <Transformer>
          <VectorParam id="11238"  name="translation">
           <InterpolatingParam id="11239" interp="linr"  time="-9999999/1" value="0" leadInLength="0/1"  interpolater="leadin-linr"  />
           <InterpolatingParam id="11240" interp="linr"  time="-9999999/1" value="0" leadInLength="0/1"  interpolater="leadin-linr"  />
           <InterpolatingParam id="11241" interp="linr"  time="-9999999/1" value="0" leadInLength="0/1"  interpolater="leadin-linr"  />
          </VectorParam>
          <VectorParam id="11242"  name="rotation">
           <InterpolatingParam id="11243" interp="linr"  time="-9999999/1" value="0" leadInLength="0/1"  interpolater="leadin-linr"  />
           <InterpolatingParam id="11244" interp="linr"  time="-9999999/1" value="0" leadInLength="0/1"  interpolater="leadin-linr"  />
           <InterpolatingParam id="11245" interp="linr"  time="-9999999/1" value="0" leadInLength="0/1"  interpolater="leadin-linr"  />
          </VectorParam>
          <VectorParam id="11246"  name="shear">
           <InterpolatingParam id="11247" interp="linr"  time="-9999999/1" value="0" leadInLength="0/1"  interpolater="leadin-linr"  />
           <InterpolatingParam id="11248" interp="linr"  time="-9999999/1" value="0" leadInLength="0/1"  interpolater="leadin-linr"  />
           <InterpolatingParam id="11249" interp="linr"  time="-9999999/1" value="0" leadInLength="0/1"  interpolater="leadin-linr"  />
          </VectorParam>
          <VectorParam id="11250"  name="scale">
           <InterpolatingParam id="11251" interp="linr"  time="-9999999/1" value="1" leadInLength="0/1"  interpolater="leadin-linr"  />
           <InterpolatingParam id="11252" interp="linr"  time="-9999999/1" value="1" leadInLength="0/1"  interpolater="leadin-linr"  />
           <InterpolatingParam id="11253" interp="linr"  time="-9999999/1" value="1" leadInLength="0/1"  interpolater="leadin-linr"  />
          </VectorParam>
          <VectorParam id="11254"  name="anchor">
           <InterpolatingParam id="11255" interp="linr"  >
            <Keyframes>
            <Keyframe id="11256"  time="0/1" value="0" leadInLength="0/1"  />
            <Keyframe id="11257"  time="32931335377/7971776" value="0" leadInLength="0/1"  />
            <Keyframe id="11258"  time="4328/1" value="0" leadInLength="0/1"  />
            <Keyframe id="11259"  time="4457/1" value="0" leadInLength="0/1"  />
            <Keyframe id="11260"  time="46272102474146/7646783123" value="0" leadInLength="0/1"  />
            <Keyframe id="11261"  time="1152921504606846976/117073500061145" value="0" leadInLength="0/1"  />
            <Keyframe id="11262"  time="288230376151711744/29038376098307" value="0" leadInLength="0/1"  />
            </Keyframes>
           </InterpolatingParam>
           <InterpolatingParam id="11263" interp="linr"  >
            <Keyframes>
            <Keyframe id="11264"  time="0/1" value="0" leadInLength="0/1"  />
            <Keyframe id="11265"  time="32931335377/7971776" value="0" leadInLength="0/1"  />
            <Keyframe id="11266"  time="4328/1" value="0" leadInLength="0/1"  />
            <Keyframe id="11267"  time="4457/1" value="0" leadInLength="0/1"  />
            <Keyframe id="11268"  time="46272102474146/7646783123" value="0" leadInLength="0/1"  />
            <Keyframe id="11269"  time="1152921504606846976/117073500061145" value="0" leadInLength="0/1"  />
            <Keyframe id="11270"  time="288230376151711744/29038376098307" value="0" leadInLength="0/1"  />
            </Keyframes>
           </InterpolatingParam>
           <InterpolatingParam id="11271" interp="linr"  >
            <Keyframes>
            <Keyframe id="11272"  time="0/1" value="0" leadInLength="0/1"  />
            <Keyframe id="11273"  time="32931335377/7971776" value="0" leadInLength="0/1"  />
            <Keyframe id="11274"  time="4328/1" value="0" leadInLength="0/1"  />
            <Keyframe id="11275"  time="4457/1" value="0" leadInLength="0/1"  />
            <Keyframe id="11276"  time="46272102474146/7646783123" value="0" leadInLength="0/1"  />
            <Keyframe id="11277"  time="1152921504606846976/117073500061145" value="0" leadInLength="0/1"  />
            <Keyframe id="11278"  time="288230376151711744/29038376098307" value="0" leadInLength="0/1"  />
            </Keyframes>
           </InterpolatingParam>
          </VectorParam>
         </Transformer>
         <Parameters>
          <VectorParam id="11279"  name="sourceCrop">
           <InterpolatingParam id="11280" interp="linr"  >
            <Keyframes>
            <Keyframe id="11281"  time="0/1" value="0" leadInLength="0/1"  />
            <Keyframe id="11282"  time="32931335377/7971776" value="0" leadInLength="0/1"  />
            <Keyframe id="11283"  time="4328/1" value="0" leadInLength="0/1"  />
            <Keyframe id="11284"  time="4457/1" value="0" leadInLength="0/1"  />
            <Keyframe id="11285"  time="46272102474146/7646783123" value="0" leadInLength="0/1"  />
            <Keyframe id="11286"  time="1152921504606846976/117073500061145" value="0" leadInLength="0/1"  />
            <Keyframe id="11287"  time="288230376151711744/29038376098307" value="0" leadInLength="0/1"  />
            </Keyframes>
           </InterpolatingParam>
           <InterpolatingParam id="11288" interp="linr"  >
            <Keyframes>
            <Keyframe id="11289"  time="0/1" value="0" leadInLength="0/1"  />
            <Keyframe id="11290"  time="32931335377/7971776" value="0" leadInLength="0/1"  />
            <Keyframe id="11291"  time="4328/1" value="0" leadInLength="0/1"  />
            <Keyframe id="11292"  time="4457/1" value="0" leadInLength="0/1"  />
            <Keyframe id="11293"  time="46272102474146/7646783123" value="0" leadInLength="0/1"  />
            <Keyframe id="11294"  time="1152921504606846976/117073500061145" value="0" leadInLength="0/1"  />
            <Keyframe id="11295"  time="288230376151711744/29038376098307" value="0" leadInLength="0/1"  />
            </Keyframes>
           </InterpolatingParam>
           <InterpolatingParam id="11296" interp="linr"  >
            <Keyframes>
            <Keyframe id="11297"  time="0/1" value="0" leadInLength="0/1"  />
            <Keyframe id="11298"  time="32931335377/7971776" value="0" leadInLength="0/1"  />
            <Keyframe id="11299"  time="4328/1" value="0" leadInLength="0/1"  />
            <Keyframe id="11300"  time="4457/1" value="0" leadInLength="0/1"  />
            <Keyframe id="11301"  time="46272102474146/7646783123" value="0" leadInLength="0/1"  />
            <Keyframe id="11302"  time="1152921504606846976/117073500061145" value="0" leadInLength="0/1"  />
            <Keyframe id="11303"  time="288230376151711744/29038376098307" value="0" leadInLength="0/1"  />
            </Keyframes>
           </InterpolatingParam>
           <InterpolatingParam id="11304" interp="linr"  >
            <Keyframes>
            <Keyframe id="11305"  time="0/1" value="0" leadInLength="0/1"  />
            <Keyframe id="11306"  time="32931335377/7971776" value="0" leadInLength="0/1"  />
            <Keyframe id="11307"  time="4328/1" value="0" leadInLength="0/1"  />
            <Keyframe id="11308"  time="4457/1" value="0" leadInLength="0/1"  />
            <Keyframe id="11309"  time="46272102474146/7646783123" value="0" leadInLength="0/1"  />
            <Keyframe id="11310"  time="1152921504606846976/117073500061145" value="0" leadInLength="0/1"  />
            <Keyframe id="11311"  time="288230376151711744/29038376098307" value="0" leadInLength="0/1"  />
            </Keyframes>
           </InterpolatingParam>
          </VectorParam>
          <VectorParam id="11312"  name="geometryCrop">
           <InterpolatingParam id="11313" interp="linr"  time="-9999999/1" value="0" leadInLength="0/1"  interpolater="leadin-linr"  />
           <InterpolatingParam id="11314" interp="linr"  time="-9999999/1" value="0" leadInLength="0/1"  interpolater="leadin-linr"  />
           <InterpolatingParam id="11315" interp="linr"  time="-9999999/1" value="0" leadInLength="0/1"  interpolater="leadin-linr"  />
           <InterpolatingParam id="11316" interp="linr"  time="-9999999/1" value="0" leadInLength="0/1"  interpolater="leadin-linr"  />
          </VectorParam>
          <InterpolatingParam id="11317" interp="linr"  time="-9999999/1" value="1" leadInLength="0/1"  interpolater="leadin-linr"  name="opacity"/>
          <InterpolatingParam id="11318" interp="linr"  time="0/1" value="1" leadInLength="0/1"  name="cursorOpacity"/>
          <InterpolatingParam id="11319" interp="linr"  time="0/1" value="1" leadInLength="0/1"  name="cursorScale"/>
          <Parameter id="11320"  name="captions"/>
         </Parameters>
         <Attributes>
          <Attribute id="11321" value="" name="ident"/>
         </Attributes>
         <MetaData>
          <entry key="WinSubProjectDisplayName" val=""/>
         </MetaData>
         <ExtraData>
          <Entry key="ZoomPanBin">
           <ZoomPanBin id="11322"  >
            <ZoomPanKeyframes>
             <ZoomPanKeyframe id="11323" timeRangeEnd="-9999999/1" timeRangeDuration="0/1" interpolaterName="linr"  />
            </ZoomPanKeyframes>
           </ZoomPanBin>
          </Entry>
          <Entry key="CursorEffectBin">
           <CursorEffectBin id="11324"  >
            <CursorEffectKeyframes>
            </CursorEffectKeyframes>
           </CursorEffectBin>
          </Entry>
         </ExtraData>
         <GenericTrack id="11325"  >
          <Attributes>
           <Attribute id="11326" value="" name="ident"/>
           <Attribute id="11327" value="0" name="audioMuted"/>
           <Attribute id="11328" value="0" name="videoHidden"/>
          </Attributes>
          <MetaData>
           <entry key="IsLocked" val="False"/>
           <entry key="WinTrackHeight" val="0"/>
          </MetaData>
          <Medias>
           <VMFile id="11329" start="0" duration="4131" scalar="1/1" mediaStart="0/1" mediaDuration="4131/1" trackNumber="0" src="4" >
            <Transformer>
             <VectorParam id="11330"  name="translation">
              <InterpolatingParam id="11331" interp="linr"  time="-9999999/1" value="0" leadInLength="0/1"  />
              <InterpolatingParam id="11332" interp="linr"  time="-9999999/1" value="0" leadInLength="0/1"  />
              <InterpolatingParam id="11333" interp="linr"  time="-9999999/1" value="0" leadInLength="0/1"  />
             </VectorParam>
             <VectorParam id="11334"  name="rotation">
              <InterpolatingParam id="11335" interp="linr"  time="-9999999/1" value="0" leadInLength="0/1"  />
              <InterpolatingParam id="11336" interp="linr"  time="-9999999/1" value="0" leadInLength="0/1"  />
              <InterpolatingParam id="11337" interp="linr"  time="-9999999/1" value="0" leadInLength="0/1"  />
             </VectorParam>
             <VectorParam id="11338"  name="shear">
              <InterpolatingParam id="11339" interp="linr"  time="-9999999/1" value="0" leadInLength="0/1"  />
              <InterpolatingParam id="11340" interp="linr"  time="-9999999/1" value="0" leadInLength="0/1"  />
              <InterpolatingParam id="11341" interp="linr"  time="-9999999/1" value="0" leadInLength="0/1"  />
             </VectorParam>
             <VectorParam id="11342"  name="scale">
              <InterpolatingParam id="11343" interp="linr"  time="-9999999/1" value="1" leadInLength="0/1"  />
              <InterpolatingParam id="11344" interp="linr"  time="-9999999/1" value="1" leadInLength="0/1"  />
              <InterpolatingParam id="11345" interp="linr"  time="-9999999/1" value="1" leadInLength="0/1"  />
             </VectorParam>
             <VectorParam id="11346"  name="anchor">
              <InterpolatingParam id="11347" interp="linr"  time="0/1" value="0" leadInLength="0/1"  />
              <InterpolatingParam id="11348" interp="linr"  time="0/1" value="0" leadInLength="0/1"  />
              <InterpolatingParam id="11349" interp="linr"  time="0/1" value="0" leadInLength="0/1"  />
             </VectorParam>
            </Transformer>
            <Parameters>
             <VectorParam id="11350"  name="sourceCrop">
              <InterpolatingParam id="11351" interp="linr"  time="0/1" value="0" leadInLength="0/1"  />
              <InterpolatingParam id="11352" interp="linr"  time="0/1" value="0" leadInLength="0/1"  />
              <InterpolatingParam id="11353" interp="linr"  time="0/1" value="0" leadInLength="0/1"  />
              <InterpolatingParam id="11354" interp="linr"  time="0/1" value="0" leadInLength="0/1"  />
             </VectorParam>
             <VectorParam id="11355"  name="geometryCrop">
              <InterpolatingParam id="11356" interp="linr"  time="-9999999/1" value="0" leadInLength="0/1"  />
              <InterpolatingParam id="11357" interp="linr"  time="-9999999/1" value="0" leadInLength="0/1"  />
              <InterpolatingParam id="11358" interp="linr"  time="-9999999/1" value="0" leadInLength="0/1"  />
              <InterpolatingParam id="11359" interp="linr"  time="-9999999/1" value="0" leadInLength="0/1"  />
             </VectorParam>
             <InterpolatingParam id="11360" interp="linr"  time="-9999999/1" value="1" leadInLength="0/1"  name="opacity"/>
            </Parameters>
            <Attributes>
             <Attribute id="11361" value="" name="ident"/>
            </Attributes>
            <MetaData>
             <entry key="WinSubProjectDisplayName" val=""/>
            </MetaData>
            <ExtraData>
             <Entry key="ZoomPanBin">
              <ZoomPanBin id="11362"  >
               <ZoomPanKeyframes>
                <ZoomPanKeyframe id="11363" timeRangeEnd="-9999999/1" timeRangeDuration="0/1" interpolaterName=""  />
               </ZoomPanKeyframes>
              </ZoomPanBin>
             </Entry>
            </ExtraData>
           </VMFile>
           <IMFile id="11364" start="4131" duration="12" scalar="1/1" mediaStart="4130/1" mediaDuration="1/1" trackNumber="0" src="4" trimStartSum="0/1" >
            <Transformer>
             <VectorParam id="11365"  name="translation">
              <InterpolatingParam id="11366" interp="linr"  time="-9999999/1" value="0" leadInLength="0/1"  />
              <InterpolatingParam id="11367" interp="linr"  time="-9999999/1" value="0" leadInLength="0/1"  />
              <InterpolatingParam id="11368" interp="linr"  time="-9999999/1" value="0" leadInLength="0/1"  />
             </VectorParam>
             <VectorParam id="11369"  name="rotation">
              <InterpolatingParam id="11370" interp="linr"  time="-9999999/1" value="0" leadInLength="0/1"  />
              <InterpolatingParam id="11371" interp="linr"  time="-9999999/1" value="0" leadInLength="0/1"  />
              <InterpolatingParam id="11372" interp="linr"  time="-9999999/1" value="0" leadInLength="0/1"  />
             </VectorParam>
             <VectorParam id="11373"  name="shear">
              <InterpolatingParam id="11374" interp="linr"  time="-9999999/1" value="0" leadInLength="0/1"  />
              <InterpolatingParam id="11375" interp="linr"  time="-9999999/1" value="0" leadInLength="0/1"  />
              <InterpolatingParam id="11376" interp="linr"  time="-9999999/1" value="0" leadInLength="0/1"  />
             </VectorParam>
             <VectorParam id="11377"  name="scale">
              <InterpolatingParam id="11378" interp="linr"  time="-9999999/1" value="1" leadInLength="0/1"  />
              <InterpolatingParam id="11379" interp="linr"  time="-9999999/1" value="1" leadInLength="0/1"  />
              <InterpolatingParam id="11380" interp="linr"  time="-9999999/1" value="1" leadInLength="0/1"  />
             </VectorParam>
             <VectorParam id="11381"  name="anchor">
              <InterpolatingParam id="11382" interp="linr"  time="0/1" value="0" leadInLength="0/1"  />
              <InterpolatingParam id="11383" interp="linr"  time="0/1" value="0" leadInLength="0/1"  />
              <InterpolatingParam id="11384" interp="linr"  time="0/1" value="0" leadInLength="0/1"  />
             </VectorParam>
            </Transformer>
            <Parameters>
             <VectorParam id="11385"  name="sourceCrop">
              <InterpolatingParam id="11386" interp="linr"  time="0/1" value="0" leadInLength="0/1"  />
              <InterpolatingParam id="11387" interp="linr"  time="0/1" value="0" leadInLength="0/1"  />
              <InterpolatingParam id="11388" interp="linr"  time="0/1" value="0" leadInLength="0/1"  />
              <InterpolatingParam id="11389" interp="linr"  time="0/1" value="0" leadInLength="0/1"  />
             </VectorParam>
             <VectorParam id="11390"  name="geometryCrop">
              <InterpolatingParam id="11391" interp="linr"  time="-9999999/1" value="0" leadInLength="0/1"  />
              <InterpolatingParam id="11392" interp="linr"  time="-9999999/1" value="0" leadInLength="0/1"  />
              <InterpolatingParam id="11393" interp="linr"  time="-9999999/1" value="0" leadInLength="0/1"  />
              <InterpolatingParam id="11394" interp="linr"  time="-9999999/1" value="0" leadInLength="0/1"  />
             </VectorParam>
             <InterpolatingParam id="11395" interp="linr"  time="-9999999/1" value="1" leadInLength="0/1"  name="opacity"/>
            </Parameters>
            <Attributes>
             <Attribute id="11396" value="" name="ident"/>
            </Attributes>
            <MetaData>
             <entry key="WinSubProjectDisplayName" val=""/>
            </MetaData>
            <ExtraData>
             <Entry key="ZoomPanBin">
              <ZoomPanBin id="11397"  >
               <ZoomPanKeyframes>
                <ZoomPanKeyframe id="11398" timeRangeEnd="-9999999/1" timeRangeDuration="0/1" interpolaterName=""  />
               </ZoomPanKeyframes>
              </ZoomPanBin>
             </Entry>
            </ExtraData>
           </IMFile>
           <VMFile id="11399" start="4143" duration="185" scalar="1/1" mediaStart="4130/1" mediaDuration="185/1" trackNumber="0" src="4" >
            <Transformer>
             <VectorParam id="11400"  name="translation">
              <InterpolatingParam id="11401" interp="linr"  time="-9999999/1" value="0" leadInLength="0/1"  />
              <InterpolatingParam id="11402" interp="linr"  time="-9999999/1" value="0" leadInLength="0/1"  />
              <InterpolatingParam id="11403" interp="linr"  time="-9999999/1" value="0" leadInLength="0/1"  />
             </VectorParam>
             <VectorParam id="11404"  name="rotation">
              <InterpolatingParam id="11405" interp="linr"  time="-9999999/1" value="0" leadInLength="0/1"  />
              <InterpolatingParam id="11406" interp="linr"  time="-9999999/1" value="0" leadInLength="0/1"  />
              <InterpolatingParam id="11407" interp="linr"  time="-9999999/1" value="0" leadInLength="0/1"  />
             </VectorParam>
             <VectorParam id="11408"  name="shear">
              <InterpolatingParam id="11409" interp="linr"  time="-9999999/1" value="0" leadInLength="0/1"  />
              <InterpolatingParam id="11410" interp="linr"  time="-9999999/1" value="0" leadInLength="0/1"  />
              <InterpolatingParam id="11411" interp="linr"  time="-9999999/1" value="0" leadInLength="0/1"  />
             </VectorParam>
             <VectorParam id="11412"  name="scale">
              <InterpolatingParam id="11413" interp="linr"  time="-9999999/1" value="1" leadInLength="0/1"  />
              <InterpolatingParam id="11414" interp="linr"  time="-9999999/1" value="1" leadInLength="0/1"  />
              <InterpolatingParam id="11415" interp="linr"  time="-9999999/1" value="1" leadInLength="0/1"  />
             </VectorParam>
             <VectorParam id="11416"  name="anchor">
              <InterpolatingParam id="11417" interp="linr"  time="0/1" value="0" leadInLength="0/1"  />
              <InterpolatingParam id="11418" interp="linr"  time="0/1" value="0" leadInLength="0/1"  />
              <InterpolatingParam id="11419" interp="linr"  time="0/1" value="0" leadInLength="0/1"  />
             </VectorParam>
            </Transformer>
            <Parameters>
             <VectorParam id="11420"  name="sourceCrop">
              <InterpolatingParam id="11421" interp="linr"  time="0/1" value="0" leadInLength="0/1"  />
              <InterpolatingParam id="11422" interp="linr"  time="0/1" value="0" leadInLength="0/1"  />
              <InterpolatingParam id="11423" interp="linr"  time="0/1" value="0" leadInLength="0/1"  />
              <InterpolatingParam id="11424" interp="linr"  time="0/1" value="0" leadInLength="0/1"  />
             </VectorParam>
             <VectorParam id="11425"  name="geometryCrop">
              <InterpolatingParam id="11426" interp="linr"  time="-9999999/1" value="0" leadInLength="0/1"  />
              <InterpolatingParam id="11427" interp="linr"  time="-9999999/1" value="0" leadInLength="0/1"  />
              <InterpolatingParam id="11428" interp="linr"  time="-9999999/1" value="0" leadInLength="0/1"  />
              <InterpolatingParam id="11429" interp="linr"  time="-9999999/1" value="0" leadInLength="0/1"  />
             </VectorParam>
             <InterpolatingParam id="11430" interp="linr"  time="-9999999/1" value="1" leadInLength="0/1"  name="opacity"/>
            </Parameters>
            <Attributes>
             <Attribute id="11431" value="" name="ident"/>
            </Attributes>
            <MetaData>
             <entry key="WinSubProjectDisplayName" val=""/>
            </MetaData>
            <ExtraData>
             <Entry key="ZoomPanBin">
              <ZoomPanBin id="11432"  >
               <ZoomPanKeyframes>
                <ZoomPanKeyframe id="11433" timeRangeEnd="-9999999/1" timeRangeDuration="0/1" interpolaterName=""  />
               </ZoomPanKeyframes>
              </ZoomPanBin>
             </Entry>
            </ExtraData>
           </VMFile>
           <IMFile id="11434" start="4328" duration="3" scalar="1/1" mediaStart="4315/1" mediaDuration="1/1" trackNumber="0" src="4" trimStartSum="0/1" >
            <Transformer>
             <VectorParam id="11435"  name="translation">
              <InterpolatingParam id="11436" interp="linr"  time="-9999999/1" value="0" leadInLength="0/1"  />
              <InterpolatingParam id="11437" interp="linr"  time="-9999999/1" value="0" leadInLength="0/1"  />
              <InterpolatingParam id="11438" interp="linr"  time="-9999999/1" value="0" leadInLength="0/1"  />
             </VectorParam>
             <VectorParam id="11439"  name="rotation">
              <InterpolatingParam id="11440" interp="linr"  time="-9999999/1" value="0" leadInLength="0/1"  />
              <InterpolatingParam id="11441" interp="linr"  time="-9999999/1" value="0" leadInLength="0/1"  />
              <InterpolatingParam id="11442" interp="linr"  time="-9999999/1" value="0" leadInLength="0/1"  />
             </VectorParam>
             <VectorParam id="11443"  name="shear">
              <InterpolatingParam id="11444" interp="linr"  time="-9999999/1" value="0" leadInLength="0/1"  />
              <InterpolatingParam id="11445" interp="linr"  time="-9999999/1" value="0" leadInLength="0/1"  />
              <InterpolatingParam id="11446" interp="linr"  time="-9999999/1" value="0" leadInLength="0/1"  />
             </VectorParam>
             <VectorParam id="11447"  name="scale">
              <InterpolatingParam id="11448" interp="linr"  time="-9999999/1" value="1" leadInLength="0/1"  />
              <InterpolatingParam id="11449" interp="linr"  time="-9999999/1" value="1" leadInLength="0/1"  />
              <InterpolatingParam id="11450" interp="linr"  time="-9999999/1" value="1" leadInLength="0/1"  />
             </VectorParam>
             <VectorParam id="11451"  name="anchor">
              <InterpolatingParam id="11452" interp="linr"  time="0/1" value="0" leadInLength="0/1"  />
              <InterpolatingParam id="11453" interp="linr"  time="0/1" value="0" leadInLength="0/1"  />
              <InterpolatingParam id="11454" interp="linr"  time="0/1" value="0" leadInLength="0/1"  />
             </VectorParam>
            </Transformer>
            <Parameters>
             <VectorParam id="11455"  name="sourceCrop">
              <InterpolatingParam id="11456" interp="linr"  time="0/1" value="0" leadInLength="0/1"  />
              <InterpolatingParam id="11457" interp="linr"  time="0/1" value="0" leadInLength="0/1"  />
              <InterpolatingParam id="11458" interp="linr"  time="0/1" value="0" leadInLength="0/1"  />
              <InterpolatingParam id="11459" interp="linr"  time="0/1" value="0" leadInLength="0/1"  />
             </VectorParam>
             <VectorParam id="11460"  name="geometryCrop">
              <InterpolatingParam id="11461" interp="linr"  time="-9999999/1" value="0" leadInLength="0/1"  />
              <InterpolatingParam id="11462" interp="linr"  time="-9999999/1" value="0" leadInLength="0/1"  />
              <InterpolatingParam id="11463" interp="linr"  time="-9999999/1" value="0" leadInLength="0/1"  />
              <InterpolatingParam id="11464" interp="linr"  time="-9999999/1" value="0" leadInLength="0/1"  />
             </VectorParam>
             <InterpolatingParam id="11465" interp="linr"  time="-9999999/1" value="1" leadInLength="0/1"  name="opacity"/>
            </Parameters>
            <Attributes>
             <Attribute id="11466" value="" name="ident"/>
            </Attributes>
            <MetaData>
             <entry key="WinSubProjectDisplayName" val=""/>
            </MetaData>
            <ExtraData>
             <Entry key="ZoomPanBin">
              <ZoomPanBin id="11467"  >
               <ZoomPanKeyframes>
                <ZoomPanKeyframe id="11468" timeRangeEnd="-9999999/1" timeRangeDuration="0/1" interpolaterName=""  />
               </ZoomPanKeyframes>
              </ZoomPanBin>
             </Entry>
            </ExtraData>
           </IMFile>
           <VMFile id="11469" start="4331" duration="31" scalar="1/1" mediaStart="4315/1" mediaDuration="31/1" trackNumber="0" src="4" >
            <Transformer>
             <VectorParam id="11470"  name="translation">
              <InterpolatingParam id="11471" interp="linr"  time="-9999999/1" value="0" leadInLength="0/1"  />
              <InterpolatingParam id="11472" interp="linr"  time="-9999999/1" value="0" leadInLength="0/1"  />
              <InterpolatingParam id="11473" interp="linr"  time="-9999999/1" value="0" leadInLength="0/1"  />
             </VectorParam>
             <VectorParam id="11474"  name="rotation">
              <InterpolatingParam id="11475" interp="linr"  time="-9999999/1" value="0" leadInLength="0/1"  />
              <InterpolatingParam id="11476" interp="linr"  time="-9999999/1" value="0" leadInLength="0/1"  />
              <InterpolatingParam id="11477" interp="linr"  time="-9999999/1" value="0" leadInLength="0/1"  />
             </VectorParam>
             <VectorParam id="11478"  name="shear">
              <InterpolatingParam id="11479" interp="linr"  time="-9999999/1" value="0" leadInLength="0/1"  />
              <InterpolatingParam id="11480" interp="linr"  time="-9999999/1" value="0" leadInLength="0/1"  />
              <InterpolatingParam id="11481" interp="linr"  time="-9999999/1" value="0" leadInLength="0/1"  />
             </VectorParam>
             <VectorParam id="11482"  name="scale">
              <InterpolatingParam id="11483" interp="linr"  time="-9999999/1" value="1" leadInLength="0/1"  />
              <InterpolatingParam id="11484" interp="linr"  time="-9999999/1" value="1" leadInLength="0/1"  />
              <InterpolatingParam id="11485" interp="linr"  time="-9999999/1" value="1" leadInLength="0/1"  />
             </VectorParam>
             <VectorParam id="11486"  name="anchor">
              <InterpolatingParam id="11487" interp="linr"  time="0/1" value="0" leadInLength="0/1"  />
              <InterpolatingParam id="11488" interp="linr"  time="0/1" value="0" leadInLength="0/1"  />
              <InterpolatingParam id="11489" interp="linr"  time="0/1" value="0" leadInLength="0/1"  />
             </VectorParam>
            </Transformer>
            <Parameters>
             <VectorParam id="11490"  name="sourceCrop">
              <InterpolatingParam id="11491" interp="linr"  time="0/1" value="0" leadInLength="0/1"  />
              <InterpolatingParam id="11492" interp="linr"  time="0/1" value="0" leadInLength="0/1"  />
              <InterpolatingParam id="11493" interp="linr"  time="0/1" value="0" leadInLength="0/1"  />
              <InterpolatingParam id="11494" interp="linr"  time="0/1" value="0" leadInLength="0/1"  />
             </VectorParam>
             <VectorParam id="11495"  name="geometryCrop">
              <InterpolatingParam id="11496" interp="linr"  time="-9999999/1" value="0" leadInLength="0/1"  />
              <InterpolatingParam id="11497" interp="linr"  time="-9999999/1" value="0" leadInLength="0/1"  />
              <InterpolatingParam id="11498" interp="linr"  time="-9999999/1" value="0" leadInLength="0/1"  />
              <InterpolatingParam id="11499" interp="linr"  time="-9999999/1" value="0" leadInLength="0/1"  />
             </VectorParam>
             <InterpolatingParam id="11500" interp="linr"  time="-9999999/1" value="1" leadInLength="0/1"  name="opacity"/>
            </Parameters>
            <Attributes>
             <Attribute id="11501" value="" name="ident"/>
            </Attributes>
            <MetaData>
             <entry key="WinSubProjectDisplayName" val=""/>
            </MetaData>
            <ExtraData>
             <Entry key="ZoomPanBin">
              <ZoomPanBin id="11502"  >
               <ZoomPanKeyframes>
                <ZoomPanKeyframe id="11503" timeRangeEnd="-9999999/1" timeRangeDuration="0/1" interpolaterName=""  />
               </ZoomPanKeyframes>
              </ZoomPanBin>
             </Entry>
            </ExtraData>
           </VMFile>
           <VMFile id="11504" start="4362" duration="95" scalar="1/1" mediaStart="4751/1" mediaDuration="95/1" trackNumber="0" src="4" >
            <Transformer>
             <VectorParam id="11505"  name="translation">
              <InterpolatingParam id="11506" interp="linr"  time="-9999999/1" value="0" leadInLength="0/1"  />
              <InterpolatingParam id="11507" interp="linr"  time="-9999999/1" value="0" leadInLength="0/1"  />
              <InterpolatingParam id="11508" interp="linr"  time="-9999999/1" value="0" leadInLength="0/1"  />
             </VectorParam>
             <VectorParam id="11509"  name="rotation">
              <InterpolatingParam id="11510" interp="linr"  time="-9999999/1" value="0" leadInLength="0/1"  />
              <InterpolatingParam id="11511" interp="linr"  time="-9999999/1" value="0" leadInLength="0/1"  />
              <InterpolatingParam id="11512" interp="linr"  time="-9999999/1" value="0" leadInLength="0/1"  />
             </VectorParam>
             <VectorParam id="11513"  name="shear">
              <InterpolatingParam id="11514" interp="linr"  time="-9999999/1" value="0" leadInLength="0/1"  />
              <InterpolatingParam id="11515" interp="linr"  time="-9999999/1" value="0" leadInLength="0/1"  />
              <InterpolatingParam id="11516" interp="linr"  time="-9999999/1" value="0" leadInLength="0/1"  />
             </VectorParam>
             <VectorParam id="11517"  name="scale">
              <InterpolatingParam id="11518" interp="linr"  time="-9999999/1" value="1" leadInLength="0/1"  />
              <InterpolatingParam id="11519" interp="linr"  time="-9999999/1" value="1" leadInLength="0/1"  />
              <InterpolatingParam id="11520" interp="linr"  time="-9999999/1" value="1" leadInLength="0/1"  />
             </VectorParam>
             <VectorParam id="11521"  name="anchor">
              <InterpolatingParam id="11522" interp="linr"  time="0/1" value="0" leadInLength="0/1"  />
              <InterpolatingParam id="11523" interp="linr"  time="0/1" value="0" leadInLength="0/1"  />
              <InterpolatingParam id="11524" interp="linr"  time="0/1" value="0" leadInLength="0/1"  />
             </VectorParam>
            </Transformer>
            <Parameters>
             <VectorParam id="11525"  name="sourceCrop">
              <InterpolatingParam id="11526" interp="linr"  time="0/1" value="0" leadInLength="0/1"  />
              <InterpolatingParam id="11527" interp="linr"  time="0/1" value="0" leadInLength="0/1"  />
              <InterpolatingParam id="11528" interp="linr"  time="0/1" value="0" leadInLength="0/1"  />
              <InterpolatingParam id="11529" interp="linr"  time="0/1" value="0" leadInLength="0/1"  />
             </VectorParam>
             <VectorParam id="11530"  name="geometryCrop">
              <InterpolatingParam id="11531" interp="linr"  time="-9999999/1" value="0" leadInLength="0/1"  />
              <InterpolatingParam id="11532" interp="linr"  time="-9999999/1" value="0" leadInLength="0/1"  />
              <InterpolatingParam id="11533" interp="linr"  time="-9999999/1" value="0" leadInLength="0/1"  />
              <InterpolatingParam id="11534" interp="linr"  time="-9999999/1" value="0" leadInLength="0/1"  />
             </VectorParam>
             <InterpolatingParam id="11535" interp="linr"  time="-9999999/1" value="1" leadInLength="0/1"  name="opacity"/>
            </Parameters>
            <Attributes>
             <Attribute id="11536" value="" name="ident"/>
            </Attributes>
            <MetaData>
             <entry key="WinSubProjectDisplayName" val=""/>
            </MetaData>
            <ExtraData>
             <Entry key="ZoomPanBin">
              <ZoomPanBin id="11537"  >
               <ZoomPanKeyframes>
                <ZoomPanKeyframe id="11538" timeRangeEnd="-9999999/1" timeRangeDuration="0/1" interpolaterName=""  />
               </ZoomPanKeyframes>
              </ZoomPanBin>
             </Entry>
            </ExtraData>
           </VMFile>
           <IMFile id="11539" start="4457" duration="270" scalar="1/1" mediaStart="4846/1" mediaDuration="1/1" trackNumber="0" src="4" trimStartSum="0/1" >
            <Transformer>
             <VectorParam id="11540"  name="translation">
              <InterpolatingParam id="11541" interp="linr"  time="-9999999/1" value="0" leadInLength="0/1"  />
              <InterpolatingParam id="11542" interp="linr"  time="-9999999/1" value="0" leadInLength="0/1"  />
              <InterpolatingParam id="11543" interp="linr"  time="-9999999/1" value="0" leadInLength="0/1"  />
             </VectorParam>
             <VectorParam id="11544"  name="rotation">
              <InterpolatingParam id="11545" interp="linr"  time="-9999999/1" value="0" leadInLength="0/1"  />
              <InterpolatingParam id="11546" interp="linr"  time="-9999999/1" value="0" leadInLength="0/1"  />
              <InterpolatingParam id="11547" interp="linr"  time="-9999999/1" value="0" leadInLength="0/1"  />
             </VectorParam>
             <VectorParam id="11548"  name="shear">
              <InterpolatingParam id="11549" interp="linr"  time="-9999999/1" value="0" leadInLength="0/1"  />
              <InterpolatingParam id="11550" interp="linr"  time="-9999999/1" value="0" leadInLength="0/1"  />
              <InterpolatingParam id="11551" interp="linr"  time="-9999999/1" value="0" leadInLength="0/1"  />
             </VectorParam>
             <VectorParam id="11552"  name="scale">
              <InterpolatingParam id="11553" interp="linr"  time="-9999999/1" value="1" leadInLength="0/1"  />
              <InterpolatingParam id="11554" interp="linr"  time="-9999999/1" value="1" leadInLength="0/1"  />
              <InterpolatingParam id="11555" interp="linr"  time="-9999999/1" value="1" leadInLength="0/1"  />
             </VectorParam>
             <VectorParam id="11556"  name="anchor">
              <InterpolatingParam id="11557" interp="linr"  time="0/1" value="0" leadInLength="0/1"  />
              <InterpolatingParam id="11558" interp="linr"  time="0/1" value="0" leadInLength="0/1"  />
              <InterpolatingParam id="11559" interp="linr"  time="0/1" value="0" leadInLength="0/1"  />
             </VectorParam>
            </Transformer>
            <Parameters>
             <VectorParam id="11560"  name="sourceCrop">
              <InterpolatingParam id="11561" interp="linr"  time="0/1" value="0" leadInLength="0/1"  />
              <InterpolatingParam id="11562" interp="linr"  time="0/1" value="0" leadInLength="0/1"  />
              <InterpolatingParam id="11563" interp="linr"  time="0/1" value="0" leadInLength="0/1"  />
              <InterpolatingParam id="11564" interp="linr"  time="0/1" value="0" leadInLength="0/1"  />
             </VectorParam>
             <VectorParam id="11565"  name="geometryCrop">
              <InterpolatingParam id="11566" interp="linr"  time="-9999999/1" value="0" leadInLength="0/1"  />
              <InterpolatingParam id="11567" interp="linr"  time="-9999999/1" value="0" leadInLength="0/1"  />
              <InterpolatingParam id="11568" interp="linr"  time="-9999999/1" value="0" leadInLength="0/1"  />
              <InterpolatingParam id="11569" interp="linr"  time="-9999999/1" value="0" leadInLength="0/1"  />
             </VectorParam>
             <InterpolatingParam id="11570" interp="linr"  time="-9999999/1" value="1" leadInLength="0/1"  name="opacity"/>
            </Parameters>
            <Attributes>
             <Attribute id="11571" value="" name="ident"/>
            </Attributes>
            <MetaData>
             <entry key="WinSubProjectDisplayName" val=""/>
            </MetaData>
            <ExtraData>
             <Entry key="ZoomPanBin">
              <ZoomPanBin id="11572"  >
               <ZoomPanKeyframes>
                <ZoomPanKeyframe id="11573" timeRangeEnd="-9999999/1" timeRangeDuration="0/1" interpolaterName=""  />
               </ZoomPanKeyframes>
              </ZoomPanBin>
             </Entry>
            </ExtraData>
           </IMFile>
           <VMFile id="11574" start="4727" duration="17" scalar="1/1" mediaStart="4846/1" mediaDuration="17/1" trackNumber="0" src="4" >
            <Transformer>
             <VectorParam id="11575"  name="translation">
              <InterpolatingParam id="11576" interp="linr"  time="-9999999/1" value="0" leadInLength="0/1"  />
              <InterpolatingParam id="11577" interp="linr"  time="-9999999/1" value="0" leadInLength="0/1"  />
              <InterpolatingParam id="11578" interp="linr"  time="-9999999/1" value="0" leadInLength="0/1"  />
             </VectorParam>
             <VectorParam id="11579"  name="rotation">
              <InterpolatingParam id="11580" interp="linr"  time="-9999999/1" value="0" leadInLength="0/1"  />
              <InterpolatingParam id="11581" interp="linr"  time="-9999999/1" value="0" leadInLength="0/1"  />
              <InterpolatingParam id="11582" interp="linr"  time="-9999999/1" value="0" leadInLength="0/1"  />
             </VectorParam>
             <VectorParam id="11583"  name="shear">
              <InterpolatingParam id="11584" interp="linr"  time="-9999999/1" value="0" leadInLength="0/1"  />
              <InterpolatingParam id="11585" interp="linr"  time="-9999999/1" value="0" leadInLength="0/1"  />
              <InterpolatingParam id="11586" interp="linr"  time="-9999999/1" value="0" leadInLength="0/1"  />
             </VectorParam>
             <VectorParam id="11587"  name="scale">
              <InterpolatingParam id="11588" interp="linr"  time="-9999999/1" value="1" leadInLength="0/1"  />
              <InterpolatingParam id="11589" interp="linr"  time="-9999999/1" value="1" leadInLength="0/1"  />
              <InterpolatingParam id="11590" interp="linr"  time="-9999999/1" value="1" leadInLength="0/1"  />
             </VectorParam>
             <VectorParam id="11591"  name="anchor">
              <InterpolatingParam id="11592" interp="linr"  time="0/1" value="0" leadInLength="0/1"  />
              <InterpolatingParam id="11593" interp="linr"  time="0/1" value="0" leadInLength="0/1"  />
              <InterpolatingParam id="11594" interp="linr"  time="0/1" value="0" leadInLength="0/1"  />
             </VectorParam>
            </Transformer>
            <Parameters>
             <VectorParam id="11595"  name="sourceCrop">
              <InterpolatingParam id="11596" interp="linr"  time="0/1" value="0" leadInLength="0/1"  />
              <InterpolatingParam id="11597" interp="linr"  time="0/1" value="0" leadInLength="0/1"  />
              <InterpolatingParam id="11598" interp="linr"  time="0/1" value="0" leadInLength="0/1"  />
              <InterpolatingParam id="11599" interp="linr"  time="0/1" value="0" leadInLength="0/1"  />
             </VectorParam>
             <VectorParam id="11600"  name="geometryCrop">
              <InterpolatingParam id="11601" interp="linr"  time="-9999999/1" value="0" leadInLength="0/1"  />
              <InterpolatingParam id="11602" interp="linr"  time="-9999999/1" value="0" leadInLength="0/1"  />
              <InterpolatingParam id="11603" interp="linr"  time="-9999999/1" value="0" leadInLength="0/1"  />
              <InterpolatingParam id="11604" interp="linr"  time="-9999999/1" value="0" leadInLength="0/1"  />
             </VectorParam>
             <InterpolatingParam id="11605" interp="linr"  time="-9999999/1" value="1" leadInLength="0/1"  name="opacity"/>
            </Parameters>
            <Attributes>
             <Attribute id="11606" value="" name="ident"/>
            </Attributes>
            <MetaData>
             <entry key="WinSubProjectDisplayName" val=""/>
            </MetaData>
            <ExtraData>
             <Entry key="ZoomPanBin">
              <ZoomPanBin id="11607"  >
               <ZoomPanKeyframes>
                <ZoomPanKeyframe id="11608" timeRangeEnd="-9999999/1" timeRangeDuration="0/1" interpolaterName=""  />
               </ZoomPanKeyframes>
              </ZoomPanBin>
             </Entry>
            </ExtraData>
           </VMFile>
           <VMFile id="11609" start="4744" duration="386" scalar="1/1" mediaStart="7805/1" mediaDuration="386/1" trackNumber="0" src="4" >
            <Transformer>
             <VectorParam id="11610"  name="translation">
              <InterpolatingParam id="11611" interp="linr"  time="-9999999/1" value="0" leadInLength="0/1"  />
              <InterpolatingParam id="11612" interp="linr"  time="-9999999/1" value="0" leadInLength="0/1"  />
              <InterpolatingParam id="11613" interp="linr"  time="-9999999/1" value="0" leadInLength="0/1"  />
             </VectorParam>
             <VectorParam id="11614"  name="rotation">
              <InterpolatingParam id="11615" interp="linr"  time="-9999999/1" value="0" leadInLength="0/1"  />
              <InterpolatingParam id="11616" interp="linr"  time="-9999999/1" value="0" leadInLength="0/1"  />
              <InterpolatingParam id="11617" interp="linr"  time="-9999999/1" value="0" leadInLength="0/1"  />
             </VectorParam>
             <VectorParam id="11618"  name="shear">
              <InterpolatingParam id="11619" interp="linr"  time="-9999999/1" value="0" leadInLength="0/1"  />
              <InterpolatingParam id="11620" interp="linr"  time="-9999999/1" value="0" leadInLength="0/1"  />
              <InterpolatingParam id="11621" interp="linr"  time="-9999999/1" value="0" leadInLength="0/1"  />
             </VectorParam>
             <VectorParam id="11622"  name="scale">
              <InterpolatingParam id="11623" interp="linr"  time="-9999999/1" value="1" leadInLength="0/1"  />
              <InterpolatingParam id="11624" interp="linr"  time="-9999999/1" value="1" leadInLength="0/1"  />
              <InterpolatingParam id="11625" interp="linr"  time="-9999999/1" value="1" leadInLength="0/1"  />
             </VectorParam>
             <VectorParam id="11626"  name="anchor">
              <InterpolatingParam id="11627" interp="linr"  time="0/1" value="0" leadInLength="0/1"  />
              <InterpolatingParam id="11628" interp="linr"  time="0/1" value="0" leadInLength="0/1"  />
              <InterpolatingParam id="11629" interp="linr"  time="0/1" value="0" leadInLength="0/1"  />
             </VectorParam>
            </Transformer>
            <Parameters>
             <VectorParam id="11630"  name="sourceCrop">
              <InterpolatingParam id="11631" interp="linr"  time="0/1" value="0" leadInLength="0/1"  />
              <InterpolatingParam id="11632" interp="linr"  time="0/1" value="0" leadInLength="0/1"  />
              <InterpolatingParam id="11633" interp="linr"  time="0/1" value="0" leadInLength="0/1"  />
              <InterpolatingParam id="11634" interp="linr"  time="0/1" value="0" leadInLength="0/1"  />
             </VectorParam>
             <VectorParam id="11635"  name="geometryCrop">
              <InterpolatingParam id="11636" interp="linr"  time="-9999999/1" value="0" leadInLength="0/1"  />
              <InterpolatingParam id="11637" interp="linr"  time="-9999999/1" value="0" leadInLength="0/1"  />
              <InterpolatingParam id="11638" interp="linr"  time="-9999999/1" value="0" leadInLength="0/1"  />
              <InterpolatingParam id="11639" interp="linr"  time="-9999999/1" value="0" leadInLength="0/1"  />
             </VectorParam>
             <InterpolatingParam id="11640" interp="linr"  time="-9999999/1" value="1" leadInLength="0/1"  name="opacity"/>
            </Parameters>
            <Attributes>
             <Attribute id="11641" value="" name="ident"/>
            </Attributes>
            <MetaData>
             <entry key="WinSubProjectDisplayName" val=""/>
            </MetaData>
            <ExtraData>
             <Entry key="ZoomPanBin">
              <ZoomPanBin id="11642"  >
               <ZoomPanKeyframes>
                <ZoomPanKeyframe id="11643" timeRangeEnd="-9999999/1" timeRangeDuration="0/1" interpolaterName=""  />
               </ZoomPanKeyframes>
              </ZoomPanBin>
             </Entry>
            </ExtraData>
           </VMFile>
           <VMFile id="11644" start="5130" duration="922" scalar="1/1" mediaStart="8371/1" mediaDuration="922/1" trackNumber="0" src="4" >
            <Transformer>
             <VectorParam id="11645"  name="translation">
              <InterpolatingParam id="11646" interp="linr"  time="-9999999/1" value="0" leadInLength="0/1"  />
              <InterpolatingParam id="11647" interp="linr"  time="-9999999/1" value="0" leadInLength="0/1"  />
              <InterpolatingParam id="11648" interp="linr"  time="-9999999/1" value="0" leadInLength="0/1"  />
             </VectorParam>
             <VectorParam id="11649"  name="rotation">
              <InterpolatingParam id="11650" interp="linr"  time="-9999999/1" value="0" leadInLength="0/1"  />
              <InterpolatingParam id="11651" interp="linr"  time="-9999999/1" value="0" leadInLength="0/1"  />
              <InterpolatingParam id="11652" interp="linr"  time="-9999999/1" value="0" leadInLength="0/1"  />
             </VectorParam>
             <VectorParam id="11653"  name="shear">
              <InterpolatingParam id="11654" interp="linr"  time="-9999999/1" value="0" leadInLength="0/1"  />
              <InterpolatingParam id="11655" interp="linr"  time="-9999999/1" value="0" leadInLength="0/1"  />
              <InterpolatingParam id="11656" interp="linr"  time="-9999999/1" value="0" leadInLength="0/1"  />
             </VectorParam>
             <VectorParam id="11657"  name="scale">
              <InterpolatingParam id="11658" interp="linr"  time="-9999999/1" value="1" leadInLength="0/1"  />
              <InterpolatingParam id="11659" interp="linr"  time="-9999999/1" value="1" leadInLength="0/1"  />
              <InterpolatingParam id="11660" interp="linr"  time="-9999999/1" value="1" leadInLength="0/1"  />
             </VectorParam>
             <VectorParam id="11661"  name="anchor">
              <InterpolatingParam id="11662" interp="linr"  time="0/1" value="0" leadInLength="0/1"  />
              <InterpolatingParam id="11663" interp="linr"  time="0/1" value="0" leadInLength="0/1"  />
              <InterpolatingParam id="11664" interp="linr"  time="0/1" value="0" leadInLength="0/1"  />
             </VectorParam>
            </Transformer>
            <Parameters>
             <VectorParam id="11665"  name="sourceCrop">
              <InterpolatingParam id="11666" interp="linr"  time="0/1" value="0" leadInLength="0/1"  />
              <InterpolatingParam id="11667" interp="linr"  time="0/1" value="0" leadInLength="0/1"  />
              <InterpolatingParam id="11668" interp="linr"  time="0/1" value="0" leadInLength="0/1"  />
              <InterpolatingParam id="11669" interp="linr"  time="0/1" value="0" leadInLength="0/1"  />
             </VectorParam>
             <VectorParam id="11670"  name="geometryCrop">
              <InterpolatingParam id="11671" interp="linr"  time="-9999999/1" value="0" leadInLength="0/1"  />
              <InterpolatingParam id="11672" interp="linr"  time="-9999999/1" value="0" leadInLength="0/1"  />
              <InterpolatingParam id="11673" interp="linr"  time="-9999999/1" value="0" leadInLength="0/1"  />
              <InterpolatingParam id="11674" interp="linr"  time="-9999999/1" value="0" leadInLength="0/1"  />
             </VectorParam>
             <InterpolatingParam id="11675" interp="linr"  time="-9999999/1" value="1" leadInLength="0/1"  name="opacity"/>
            </Parameters>
            <Attributes>
             <Attribute id="11676" value="" name="ident"/>
            </Attributes>
            <MetaData>
             <entry key="WinSubProjectDisplayName" val=""/>
            </MetaData>
            <ExtraData>
             <Entry key="ZoomPanBin">
              <ZoomPanBin id="11677"  >
               <ZoomPanKeyframes>
                <ZoomPanKeyframe id="11678" timeRangeEnd="-9999999/1" timeRangeDuration="0/1" interpolaterName=""  />
               </ZoomPanKeyframes>
              </ZoomPanBin>
             </Entry>
            </ExtraData>
           </VMFile>
           <IMFile id="11679" start="6052" duration="30" scalar="1/1" mediaStart="9292/1" mediaDuration="1/1" trackNumber="0" src="4" trimStartSum="0/1" >
            <Transformer>
             <VectorParam id="11680"  name="translation">
              <InterpolatingParam id="11681" interp="linr"  time="-9999999/1" value="0" leadInLength="0/1"  />
              <InterpolatingParam id="11682" interp="linr"  time="-9999999/1" value="0" leadInLength="0/1"  />
              <InterpolatingParam id="11683" interp="linr"  time="-9999999/1" value="0" leadInLength="0/1"  />
             </VectorParam>
             <VectorParam id="11684"  name="rotation">
              <InterpolatingParam id="11685" interp="linr"  time="-9999999/1" value="0" leadInLength="0/1"  />
              <InterpolatingParam id="11686" interp="linr"  time="-9999999/1" value="0" leadInLength="0/1"  />
              <InterpolatingParam id="11687" interp="linr"  time="-9999999/1" value="0" leadInLength="0/1"  />
             </VectorParam>
             <VectorParam id="11688"  name="shear">
              <InterpolatingParam id="11689" interp="linr"  time="-9999999/1" value="0" leadInLength="0/1"  />
              <InterpolatingParam id="11690" interp="linr"  time="-9999999/1" value="0" leadInLength="0/1"  />
              <InterpolatingParam id="11691" interp="linr"  time="-9999999/1" value="0" leadInLength="0/1"  />
             </VectorParam>
             <VectorParam id="11692"  name="scale">
              <InterpolatingParam id="11693" interp="linr"  time="-9999999/1" value="1" leadInLength="0/1"  />
              <InterpolatingParam id="11694" interp="linr"  time="-9999999/1" value="1" leadInLength="0/1"  />
              <InterpolatingParam id="11695" interp="linr"  time="-9999999/1" value="1" leadInLength="0/1"  />
             </VectorParam>
             <VectorParam id="11696"  name="anchor">
              <InterpolatingParam id="11697" interp="linr"  time="0/1" value="0" leadInLength="0/1"  />
              <InterpolatingParam id="11698" interp="linr"  time="0/1" value="0" leadInLength="0/1"  />
              <InterpolatingParam id="11699" interp="linr"  time="0/1" value="0" leadInLength="0/1"  />
             </VectorParam>
            </Transformer>
            <Parameters>
             <VectorParam id="11700"  name="sourceCrop">
              <InterpolatingParam id="11701" interp="linr"  time="0/1" value="0" leadInLength="0/1"  />
              <InterpolatingParam id="11702" interp="linr"  time="0/1" value="0" leadInLength="0/1"  />
              <InterpolatingParam id="11703" interp="linr"  time="0/1" value="0" leadInLength="0/1"  />
              <InterpolatingParam id="11704" interp="linr"  time="0/1" value="0" leadInLength="0/1"  />
             </VectorParam>
             <VectorParam id="11705"  name="geometryCrop">
              <InterpolatingParam id="11706" interp="linr"  time="-9999999/1" value="0" leadInLength="0/1"  />
              <InterpolatingParam id="11707" interp="linr"  time="-9999999/1" value="0" leadInLength="0/1"  />
              <InterpolatingParam id="11708" interp="linr"  time="-9999999/1" value="0" leadInLength="0/1"  />
              <InterpolatingParam id="11709" interp="linr"  time="-9999999/1" value="0" leadInLength="0/1"  />
             </VectorParam>
             <InterpolatingParam id="11710" interp="linr"  time="-9999999/1" value="1" leadInLength="0/1"  name="opacity"/>
            </Parameters>
            <Attributes>
             <Attribute id="11711" value="" name="ident"/>
            </Attributes>
            <MetaData>
             <entry key="WinSubProjectDisplayName" val=""/>
            </MetaData>
            <ExtraData>
             <Entry key="ZoomPanBin">
              <ZoomPanBin id="11712"  >
               <ZoomPanKeyframes>
                <ZoomPanKeyframe id="11713" timeRangeEnd="-9999999/1" timeRangeDuration="0/1" interpolaterName=""  />
               </ZoomPanKeyframes>
              </ZoomPanBin>
             </Entry>
            </ExtraData>
           </IMFile>
           <VMFile id="11714" start="6082" duration="86" scalar="1/1" mediaStart="9292/1" mediaDuration="86/1" trackNumber="0" src="4" >
            <Transformer>
             <VectorParam id="11715"  name="translation">
              <InterpolatingParam id="11716" interp="linr"  time="-9999999/1" value="0" leadInLength="0/1"  />
              <InterpolatingParam id="11717" interp="linr"  time="-9999999/1" value="0" leadInLength="0/1"  />
              <InterpolatingParam id="11718" interp="linr"  time="-9999999/1" value="0" leadInLength="0/1"  />
             </VectorParam>
             <VectorParam id="11719"  name="rotation">
              <InterpolatingParam id="11720" interp="linr"  time="-9999999/1" value="0" leadInLength="0/1"  />
              <InterpolatingParam id="11721" interp="linr"  time="-9999999/1" value="0" leadInLength="0/1"  />
              <InterpolatingParam id="11722" interp="linr"  time="-9999999/1" value="0" leadInLength="0/1"  />
             </VectorParam>
             <VectorParam id="11723"  name="shear">
              <InterpolatingParam id="11724" interp="linr"  time="-9999999/1" value="0" leadInLength="0/1"  />
              <InterpolatingParam id="11725" interp="linr"  time="-9999999/1" value="0" leadInLength="0/1"  />
              <InterpolatingParam id="11726" interp="linr"  time="-9999999/1" value="0" leadInLength="0/1"  />
             </VectorParam>
             <VectorParam id="11727"  name="scale">
              <InterpolatingParam id="11728" interp="linr"  time="-9999999/1" value="1" leadInLength="0/1"  />
              <InterpolatingParam id="11729" interp="linr"  time="-9999999/1" value="1" leadInLength="0/1"  />
              <InterpolatingParam id="11730" interp="linr"  time="-9999999/1" value="1" leadInLength="0/1"  />
             </VectorParam>
             <VectorParam id="11731"  name="anchor">
              <InterpolatingParam id="11732" interp="linr"  time="0/1" value="0" leadInLength="0/1"  />
              <InterpolatingParam id="11733" interp="linr"  time="0/1" value="0" leadInLength="0/1"  />
              <InterpolatingParam id="11734" interp="linr"  time="0/1" value="0" leadInLength="0/1"  />
             </VectorParam>
            </Transformer>
            <Parameters>
             <VectorParam id="11735"  name="sourceCrop">
              <InterpolatingParam id="11736" interp="linr"  time="0/1" value="0" leadInLength="0/1"  />
              <InterpolatingParam id="11737" interp="linr"  time="0/1" value="0" leadInLength="0/1"  />
              <InterpolatingParam id="11738" interp="linr"  time="0/1" value="0" leadInLength="0/1"  />
              <InterpolatingParam id="11739" interp="linr"  time="0/1" value="0" leadInLength="0/1"  />
             </VectorParam>
             <VectorParam id="11740"  name="geometryCrop">
              <InterpolatingParam id="11741" interp="linr"  time="-9999999/1" value="0" leadInLength="0/1"  />
              <InterpolatingParam id="11742" interp="linr"  time="-9999999/1" value="0" leadInLength="0/1"  />
              <InterpolatingParam id="11743" interp="linr"  time="-9999999/1" value="0" leadInLength="0/1"  />
              <InterpolatingParam id="11744" interp="linr"  time="-9999999/1" value="0" leadInLength="0/1"  />
             </VectorParam>
             <InterpolatingParam id="11745" interp="linr"  time="-9999999/1" value="1" leadInLength="0/1"  name="opacity"/>
            </Parameters>
            <Attributes>
             <Attribute id="11746" value="" name="ident"/>
            </Attributes>
            <MetaData>
             <entry key="WinSubProjectDisplayName" val=""/>
            </MetaData>
            <ExtraData>
             <Entry key="ZoomPanBin">
              <ZoomPanBin id="11747"  >
               <ZoomPanKeyframes>
                <ZoomPanKeyframe id="11748" timeRangeEnd="-9999999/1" timeRangeDuration="0/1" interpolaterName=""  />
               </ZoomPanKeyframes>
              </ZoomPanBin>
             </Entry>
            </ExtraData>
           </VMFile>
           <VMFile id="11749" start="6168" duration="555" scalar="1/1" mediaStart="9516/1" mediaDuration="555/1" trackNumber="0" src="4" >
            <Transformer>
             <VectorParam id="11750"  name="translation">
              <InterpolatingParam id="11751" interp="linr"  time="-9999999/1" value="0" leadInLength="0/1"  />
              <InterpolatingParam id="11752" interp="linr"  time="-9999999/1" value="0" leadInLength="0/1"  />
              <InterpolatingParam id="11753" interp="linr"  time="-9999999/1" value="0" leadInLength="0/1"  />
             </VectorParam>
             <VectorParam id="11754"  name="rotation">
              <InterpolatingParam id="11755" interp="linr"  time="-9999999/1" value="0" leadInLength="0/1"  />
              <InterpolatingParam id="11756" interp="linr"  time="-9999999/1" value="0" leadInLength="0/1"  />
              <InterpolatingParam id="11757" interp="linr"  time="-9999999/1" value="0" leadInLength="0/1"  />
             </VectorParam>
             <VectorParam id="11758"  name="shear">
              <InterpolatingParam id="11759" interp="linr"  time="-9999999/1" value="0" leadInLength="0/1"  />
              <InterpolatingParam id="11760" interp="linr"  time="-9999999/1" value="0" leadInLength="0/1"  />
              <InterpolatingParam id="11761" interp="linr"  time="-9999999/1" value="0" leadInLength="0/1"  />
             </VectorParam>
             <VectorParam id="11762"  name="scale">
              <InterpolatingParam id="11763" interp="linr"  time="-9999999/1" value="1" leadInLength="0/1"  />
              <InterpolatingParam id="11764" interp="linr"  time="-9999999/1" value="1" leadInLength="0/1"  />
              <InterpolatingParam id="11765" interp="linr"  time="-9999999/1" value="1" leadInLength="0/1"  />
             </VectorParam>
             <VectorParam id="11766"  name="anchor">
              <InterpolatingParam id="11767" interp="linr"  time="0/1" value="0" leadInLength="0/1"  />
              <InterpolatingParam id="11768" interp="linr"  time="0/1" value="0" leadInLength="0/1"  />
              <InterpolatingParam id="11769" interp="linr"  time="0/1" value="0" leadInLength="0/1"  />
             </VectorParam>
            </Transformer>
            <Parameters>
             <VectorParam id="11770"  name="sourceCrop">
              <InterpolatingParam id="11771" interp="linr"  time="0/1" value="0" leadInLength="0/1"  />
              <InterpolatingParam id="11772" interp="linr"  time="0/1" value="0" leadInLength="0/1"  />
              <InterpolatingParam id="11773" interp="linr"  time="0/1" value="0" leadInLength="0/1"  />
              <InterpolatingParam id="11774" interp="linr"  time="0/1" value="0" leadInLength="0/1"  />
             </VectorParam>
             <VectorParam id="11775"  name="geometryCrop">
              <InterpolatingParam id="11776" interp="linr"  time="-9999999/1" value="0" leadInLength="0/1"  />
              <InterpolatingParam id="11777" interp="linr"  time="-9999999/1" value="0" leadInLength="0/1"  />
              <InterpolatingParam id="11778" interp="linr"  time="-9999999/1" value="0" leadInLength="0/1"  />
              <InterpolatingParam id="11779" interp="linr"  time="-9999999/1" value="0" leadInLength="0/1"  />
             </VectorParam>
             <InterpolatingParam id="11780" interp="linr"  time="-9999999/1" value="1" leadInLength="0/1"  name="opacity"/>
            </Parameters>
            <Attributes>
             <Attribute id="11781" value="" name="ident"/>
            </Attributes>
            <MetaData>
             <entry key="WinSubProjectDisplayName" val=""/>
            </MetaData>
            <ExtraData>
             <Entry key="ZoomPanBin">
              <ZoomPanBin id="11782"  >
               <ZoomPanKeyframes>
                <ZoomPanKeyframe id="11783" timeRangeEnd="-9999999/1" timeRangeDuration="0/1" interpolaterName=""  />
               </ZoomPanKeyframes>
              </ZoomPanBin>
             </Entry>
            </ExtraData>
           </VMFile>
           <VMFile id="11784" start="6723" duration="460" scalar="1/1" mediaStart="11597/1" mediaDuration="460/1" trackNumber="0" src="4" >
            <Transformer>
             <VectorParam id="11785"  name="translation">
              <InterpolatingParam id="11786" interp="linr"  time="-9999999/1" value="0" leadInLength="0/1"  />
              <InterpolatingParam id="11787" interp="linr"  time="-9999999/1" value="0" leadInLength="0/1"  />
              <InterpolatingParam id="11788" interp="linr"  time="-9999999/1" value="0" leadInLength="0/1"  />
             </VectorParam>
             <VectorParam id="11789"  name="rotation">
              <InterpolatingParam id="11790" interp="linr"  time="-9999999/1" value="0" leadInLength="0/1"  />
              <InterpolatingParam id="11791" interp="linr"  time="-9999999/1" value="0" leadInLength="0/1"  />
              <InterpolatingParam id="11792" interp="linr"  time="-9999999/1" value="0" leadInLength="0/1"  />
             </VectorParam>
             <VectorParam id="11793"  name="shear">
              <InterpolatingParam id="11794" interp="linr"  time="-9999999/1" value="0" leadInLength="0/1"  />
              <InterpolatingParam id="11795" interp="linr"  time="-9999999/1" value="0" leadInLength="0/1"  />
              <InterpolatingParam id="11796" interp="linr"  time="-9999999/1" value="0" leadInLength="0/1"  />
             </VectorParam>
             <VectorParam id="11797"  name="scale">
              <InterpolatingParam id="11798" interp="linr"  time="-9999999/1" value="1" leadInLength="0/1"  />
              <InterpolatingParam id="11799" interp="linr"  time="-9999999/1" value="1" leadInLength="0/1"  />
              <InterpolatingParam id="11800" interp="linr"  time="-9999999/1" value="1" leadInLength="0/1"  />
             </VectorParam>
             <VectorParam id="11801"  name="anchor">
              <InterpolatingParam id="11802" interp="linr"  time="0/1" value="0" leadInLength="0/1"  />
              <InterpolatingParam id="11803" interp="linr"  time="0/1" value="0" leadInLength="0/1"  />
              <InterpolatingParam id="11804" interp="linr"  time="0/1" value="0" leadInLength="0/1"  />
             </VectorParam>
            </Transformer>
            <Parameters>
             <VectorParam id="11805"  name="sourceCrop">
              <InterpolatingParam id="11806" interp="linr"  time="0/1" value="0" leadInLength="0/1"  />
              <InterpolatingParam id="11807" interp="linr"  time="0/1" value="0" leadInLength="0/1"  />
              <InterpolatingParam id="11808" interp="linr"  time="0/1" value="0" leadInLength="0/1"  />
              <InterpolatingParam id="11809" interp="linr"  time="0/1" value="0" leadInLength="0/1"  />
             </VectorParam>
             <VectorParam id="11810"  name="geometryCrop">
              <InterpolatingParam id="11811" interp="linr"  time="-9999999/1" value="0" leadInLength="0/1"  />
              <InterpolatingParam id="11812" interp="linr"  time="-9999999/1" value="0" leadInLength="0/1"  />
              <InterpolatingParam id="11813" interp="linr"  time="-9999999/1" value="0" leadInLength="0/1"  />
              <InterpolatingParam id="11814" interp="linr"  time="-9999999/1" value="0" leadInLength="0/1"  />
             </VectorParam>
             <InterpolatingParam id="11815" interp="linr"  time="-9999999/1" value="1" leadInLength="0/1"  name="opacity"/>
            </Parameters>
            <Attributes>
             <Attribute id="11816" value="" name="ident"/>
            </Attributes>
            <MetaData>
             <entry key="WinSubProjectDisplayName" val=""/>
            </MetaData>
            <ExtraData>
             <Entry key="ZoomPanBin">
              <ZoomPanBin id="11817"  >
               <ZoomPanKeyframes>
                <ZoomPanKeyframe id="11818" timeRangeEnd="-9999999/1" timeRangeDuration="0/1" interpolaterName=""  />
               </ZoomPanKeyframes>
              </ZoomPanBin>
             </Entry>
            </ExtraData>
           </VMFile>
           <VMFile id="11819" start="7183" duration="350" scalar="1/1" mediaStart="12237/1" mediaDuration="350/1" trackNumber="0" src="4" >
            <Transformer>
             <VectorParam id="11820"  name="translation">
              <InterpolatingParam id="11821" interp="linr"  time="-9999999/1" value="0" leadInLength="0/1"  />
              <InterpolatingParam id="11822" interp="linr"  time="-9999999/1" value="0" leadInLength="0/1"  />
              <InterpolatingParam id="11823" interp="linr"  time="-9999999/1" value="0" leadInLength="0/1"  />
             </VectorParam>
             <VectorParam id="11824"  name="rotation">
              <InterpolatingParam id="11825" interp="linr"  time="-9999999/1" value="0" leadInLength="0/1"  />
              <InterpolatingParam id="11826" interp="linr"  time="-9999999/1" value="0" leadInLength="0/1"  />
              <InterpolatingParam id="11827" interp="linr"  time="-9999999/1" value="0" leadInLength="0/1"  />
             </VectorParam>
             <VectorParam id="11828"  name="shear">
              <InterpolatingParam id="11829" interp="linr"  time="-9999999/1" value="0" leadInLength="0/1"  />
              <InterpolatingParam id="11830" interp="linr"  time="-9999999/1" value="0" leadInLength="0/1"  />
              <InterpolatingParam id="11831" interp="linr"  time="-9999999/1" value="0" leadInLength="0/1"  />
             </VectorParam>
             <VectorParam id="11832"  name="scale">
              <InterpolatingParam id="11833" interp="linr"  time="-9999999/1" value="1" leadInLength="0/1"  />
              <InterpolatingParam id="11834" interp="linr"  time="-9999999/1" value="1" leadInLength="0/1"  />
              <InterpolatingParam id="11835" interp="linr"  time="-9999999/1" value="1" leadInLength="0/1"  />
             </VectorParam>
             <VectorParam id="11836"  name="anchor">
              <InterpolatingParam id="11837" interp="linr"  time="0/1" value="0" leadInLength="0/1"  />
              <InterpolatingParam id="11838" interp="linr"  time="0/1" value="0" leadInLength="0/1"  />
              <InterpolatingParam id="11839" interp="linr"  time="0/1" value="0" leadInLength="0/1"  />
             </VectorParam>
            </Transformer>
            <Parameters>
             <VectorParam id="11840"  name="sourceCrop">
              <InterpolatingParam id="11841" interp="linr"  time="0/1" value="0" leadInLength="0/1"  />
              <InterpolatingParam id="11842" interp="linr"  time="0/1" value="0" leadInLength="0/1"  />
              <InterpolatingParam id="11843" interp="linr"  time="0/1" value="0" leadInLength="0/1"  />
              <InterpolatingParam id="11844" interp="linr"  time="0/1" value="0" leadInLength="0/1"  />
             </VectorParam>
             <VectorParam id="11845"  name="geometryCrop">
              <InterpolatingParam id="11846" interp="linr"  time="-9999999/1" value="0" leadInLength="0/1"  />
              <InterpolatingParam id="11847" interp="linr"  time="-9999999/1" value="0" leadInLength="0/1"  />
              <InterpolatingParam id="11848" interp="linr"  time="-9999999/1" value="0" leadInLength="0/1"  />
              <InterpolatingParam id="11849" interp="linr"  time="-9999999/1" value="0" leadInLength="0/1"  />
             </VectorParam>
             <InterpolatingParam id="11850" interp="linr"  time="-9999999/1" value="1" leadInLength="0/1"  name="opacity"/>
            </Parameters>
            <Attributes>
             <Attribute id="11851" value="" name="ident"/>
            </Attributes>
            <MetaData>
             <entry key="WinSubProjectDisplayName" val=""/>
            </MetaData>
            <ExtraData>
             <Entry key="ZoomPanBin">
              <ZoomPanBin id="11852"  >
               <ZoomPanKeyframes>
                <ZoomPanKeyframe id="11853" timeRangeEnd="-9999999/1" timeRangeDuration="0/1" interpolaterName=""  />
               </ZoomPanKeyframes>
              </ZoomPanBin>
             </Entry>
            </ExtraData>
           </VMFile>
           <VMFile id="11854" start="7533" duration="128" scalar="1/1" mediaStart="15765/1" mediaDuration="128/1" trackNumber="0" src="4" >
            <Transformer>
             <VectorParam id="11855"  name="translation">
              <InterpolatingParam id="11856" interp="linr"  time="-9999999/1" value="0" leadInLength="0/1"  />
              <InterpolatingParam id="11857" interp="linr"  time="-9999999/1" value="0" leadInLength="0/1"  />
              <InterpolatingParam id="11858" interp="linr"  time="-9999999/1" value="0" leadInLength="0/1"  />
             </VectorParam>
             <VectorParam id="11859"  name="rotation">
              <InterpolatingParam id="11860" interp="linr"  time="-9999999/1" value="0" leadInLength="0/1"  />
              <InterpolatingParam id="11861" interp="linr"  time="-9999999/1" value="0" leadInLength="0/1"  />
              <InterpolatingParam id="11862" interp="linr"  time="-9999999/1" value="0" leadInLength="0/1"  />
             </VectorParam>
             <VectorParam id="11863"  name="shear">
              <InterpolatingParam id="11864" interp="linr"  time="-9999999/1" value="0" leadInLength="0/1"  />
              <InterpolatingParam id="11865" interp="linr"  time="-9999999/1" value="0" leadInLength="0/1"  />
              <InterpolatingParam id="11866" interp="linr"  time="-9999999/1" value="0" leadInLength="0/1"  />
             </VectorParam>
             <VectorParam id="11867"  name="scale">
              <InterpolatingParam id="11868" interp="linr"  time="-9999999/1" value="1" leadInLength="0/1"  />
              <InterpolatingParam id="11869" interp="linr"  time="-9999999/1" value="1" leadInLength="0/1"  />
              <InterpolatingParam id="11870" interp="linr"  time="-9999999/1" value="1" leadInLength="0/1"  />
             </VectorParam>
             <VectorParam id="11871"  name="anchor">
              <InterpolatingParam id="11872" interp="linr"  time="0/1" value="0" leadInLength="0/1"  />
              <InterpolatingParam id="11873" interp="linr"  time="0/1" value="0" leadInLength="0/1"  />
              <InterpolatingParam id="11874" interp="linr"  time="0/1" value="0" leadInLength="0/1"  />
             </VectorParam>
            </Transformer>
            <Parameters>
             <VectorParam id="11875"  name="sourceCrop">
              <InterpolatingParam id="11876" interp="linr"  time="0/1" value="0" leadInLength="0/1"  />
              <InterpolatingParam id="11877" interp="linr"  time="0/1" value="0" leadInLength="0/1"  />
              <InterpolatingParam id="11878" interp="linr"  time="0/1" value="0" leadInLength="0/1"  />
              <InterpolatingParam id="11879" interp="linr"  time="0/1" value="0" leadInLength="0/1"  />
             </VectorParam>
             <VectorParam id="11880"  name="geometryCrop">
              <InterpolatingParam id="11881" interp="linr"  time="-9999999/1" value="0" leadInLength="0/1"  />
              <InterpolatingParam id="11882" interp="linr"  time="-9999999/1" value="0" leadInLength="0/1"  />
              <InterpolatingParam id="11883" interp="linr"  time="-9999999/1" value="0" leadInLength="0/1"  />
              <InterpolatingParam id="11884" interp="linr"  time="-9999999/1" value="0" leadInLength="0/1"  />
             </VectorParam>
             <InterpolatingParam id="11885" interp="linr"  time="-9999999/1" value="1" leadInLength="0/1"  name="opacity"/>
            </Parameters>
            <Attributes>
             <Attribute id="11886" value="" name="ident"/>
            </Attributes>
            <MetaData>
             <entry key="WinSubProjectDisplayName" val=""/>
            </MetaData>
            <ExtraData>
             <Entry key="ZoomPanBin">
              <ZoomPanBin id="11887"  >
               <ZoomPanKeyframes>
                <ZoomPanKeyframe id="11888" timeRangeEnd="-9999999/1" timeRangeDuration="0/1" interpolaterName=""  />
               </ZoomPanKeyframes>
              </ZoomPanBin>
             </Entry>
            </ExtraData>
           </VMFile>
           <VMFile id="11889" start="7661" duration="615" scalar="1/1" mediaStart="15918/1" mediaDuration="615/1" trackNumber="0" src="4" >
            <Transformer>
             <VectorParam id="11890"  name="translation">
              <InterpolatingParam id="11891" interp="linr"  time="-9999999/1" value="0" leadInLength="0/1"  />
              <InterpolatingParam id="11892" interp="linr"  time="-9999999/1" value="0" leadInLength="0/1"  />
              <InterpolatingParam id="11893" interp="linr"  time="-9999999/1" value="0" leadInLength="0/1"  />
             </VectorParam>
             <VectorParam id="11894"  name="rotation">
              <InterpolatingParam id="11895" interp="linr"  time="-9999999/1" value="0" leadInLength="0/1"  />
              <InterpolatingParam id="11896" interp="linr"  time="-9999999/1" value="0" leadInLength="0/1"  />
              <InterpolatingParam id="11897" interp="linr"  time="-9999999/1" value="0" leadInLength="0/1"  />
             </VectorParam>
             <VectorParam id="11898"  name="shear">
              <InterpolatingParam id="11899" interp="linr"  time="-9999999/1" value="0" leadInLength="0/1"  />
              <InterpolatingParam id="11900" interp="linr"  time="-9999999/1" value="0" leadInLength="0/1"  />
              <InterpolatingParam id="11901" interp="linr"  time="-9999999/1" value="0" leadInLength="0/1"  />
             </VectorParam>
             <VectorParam id="11902"  name="scale">
              <InterpolatingParam id="11903" interp="linr"  time="-9999999/1" value="1" leadInLength="0/1"  />
              <InterpolatingParam id="11904" interp="linr"  time="-9999999/1" value="1" leadInLength="0/1"  />
              <InterpolatingParam id="11905" interp="linr"  time="-9999999/1" value="1" leadInLength="0/1"  />
             </VectorParam>
             <VectorParam id="11906"  name="anchor">
              <InterpolatingParam id="11907" interp="linr"  time="0/1" value="0" leadInLength="0/1"  />
              <InterpolatingParam id="11908" interp="linr"  time="0/1" value="0" leadInLength="0/1"  />
              <InterpolatingParam id="11909" interp="linr"  time="0/1" value="0" leadInLength="0/1"  />
             </VectorParam>
            </Transformer>
            <Parameters>
             <VectorParam id="11910"  name="sourceCrop">
              <InterpolatingParam id="11911" interp="linr"  time="0/1" value="0" leadInLength="0/1"  />
              <InterpolatingParam id="11912" interp="linr"  time="0/1" value="0" leadInLength="0/1"  />
              <InterpolatingParam id="11913" interp="linr"  time="0/1" value="0" leadInLength="0/1"  />
              <InterpolatingParam id="11914" interp="linr"  time="0/1" value="0" leadInLength="0/1"  />
             </VectorParam>
             <VectorParam id="11915"  name="geometryCrop">
              <InterpolatingParam id="11916" interp="linr"  time="-9999999/1" value="0" leadInLength="0/1"  />
              <InterpolatingParam id="11917" interp="linr"  time="-9999999/1" value="0" leadInLength="0/1"  />
              <InterpolatingParam id="11918" interp="linr"  time="-9999999/1" value="0" leadInLength="0/1"  />
              <InterpolatingParam id="11919" interp="linr"  time="-9999999/1" value="0" leadInLength="0/1"  />
             </VectorParam>
             <InterpolatingParam id="11920" interp="linr"  time="-9999999/1" value="1" leadInLength="0/1"  name="opacity"/>
            </Parameters>
            <Attributes>
             <Attribute id="11921" value="" name="ident"/>
            </Attributes>
            <MetaData>
             <entry key="WinSubProjectDisplayName" val=""/>
            </MetaData>
            <ExtraData>
             <Entry key="ZoomPanBin">
              <ZoomPanBin id="11922"  >
               <ZoomPanKeyframes>
                <ZoomPanKeyframe id="11923" timeRangeEnd="-9999999/1" timeRangeDuration="0/1" interpolaterName=""  />
               </ZoomPanKeyframes>
              </ZoomPanBin>
             </Entry>
            </ExtraData>
           </VMFile>
           <VMFile id="11924" start="8276" duration="323" scalar="1/1" mediaStart="16694/1" mediaDuration="323/1" trackNumber="0" src="4" >
            <Transformer>
             <VectorParam id="11925"  name="translation">
              <InterpolatingParam id="11926" interp="linr"  time="-9999999/1" value="0" leadInLength="0/1"  />
              <InterpolatingParam id="11927" interp="linr"  time="-9999999/1" value="0" leadInLength="0/1"  />
              <InterpolatingParam id="11928" interp="linr"  time="-9999999/1" value="0" leadInLength="0/1"  />
             </VectorParam>
             <VectorParam id="11929"  name="rotation">
              <InterpolatingParam id="11930" interp="linr"  time="-9999999/1" value="0" leadInLength="0/1"  />
              <InterpolatingParam id="11931" interp="linr"  time="-9999999/1" value="0" leadInLength="0/1"  />
              <InterpolatingParam id="11932" interp="linr"  time="-9999999/1" value="0" leadInLength="0/1"  />
             </VectorParam>
             <VectorParam id="11933"  name="shear">
              <InterpolatingParam id="11934" interp="linr"  time="-9999999/1" value="0" leadInLength="0/1"  />
              <InterpolatingParam id="11935" interp="linr"  time="-9999999/1" value="0" leadInLength="0/1"  />
              <InterpolatingParam id="11936" interp="linr"  time="-9999999/1" value="0" leadInLength="0/1"  />
             </VectorParam>
             <VectorParam id="11937"  name="scale">
              <InterpolatingParam id="11938" interp="linr"  time="-9999999/1" value="1" leadInLength="0/1"  />
              <InterpolatingParam id="11939" interp="linr"  time="-9999999/1" value="1" leadInLength="0/1"  />
              <InterpolatingParam id="11940" interp="linr"  time="-9999999/1" value="1" leadInLength="0/1"  />
             </VectorParam>
             <VectorParam id="11941"  name="anchor">
              <InterpolatingParam id="11942" interp="linr"  time="0/1" value="0" leadInLength="0/1"  />
              <InterpolatingParam id="11943" interp="linr"  time="0/1" value="0" leadInLength="0/1"  />
              <InterpolatingParam id="11944" interp="linr"  time="0/1" value="0" leadInLength="0/1"  />
             </VectorParam>
            </Transformer>
            <Parameters>
             <VectorParam id="11945"  name="sourceCrop">
              <InterpolatingParam id="11946" interp="linr"  time="0/1" value="0" leadInLength="0/1"  />
              <InterpolatingParam id="11947" interp="linr"  time="0/1" value="0" leadInLength="0/1"  />
              <InterpolatingParam id="11948" interp="linr"  time="0/1" value="0" leadInLength="0/1"  />
              <InterpolatingParam id="11949" interp="linr"  time="0/1" value="0" leadInLength="0/1"  />
             </VectorParam>
             <VectorParam id="11950"  name="geometryCrop">
              <InterpolatingParam id="11951" interp="linr"  time="-9999999/1" value="0" leadInLength="0/1"  />
              <InterpolatingParam id="11952" interp="linr"  time="-9999999/1" value="0" leadInLength="0/1"  />
              <InterpolatingParam id="11953" interp="linr"  time="-9999999/1" value="0" leadInLength="0/1"  />
              <InterpolatingParam id="11954" interp="linr"  time="-9999999/1" value="0" leadInLength="0/1"  />
             </VectorParam>
             <InterpolatingParam id="11955" interp="linr"  time="-9999999/1" value="1" leadInLength="0/1"  name="opacity"/>
            </Parameters>
            <Attributes>
             <Attribute id="11956" value="" name="ident"/>
            </Attributes>
            <MetaData>
             <entry key="WinSubProjectDisplayName" val=""/>
            </MetaData>
            <ExtraData>
             <Entry key="ZoomPanBin">
              <ZoomPanBin id="11957"  >
               <ZoomPanKeyframes>
                <ZoomPanKeyframe id="11958" timeRangeEnd="-9999999/1" timeRangeDuration="0/1" interpolaterName=""  />
               </ZoomPanKeyframes>
              </ZoomPanBin>
             </Entry>
            </ExtraData>
           </VMFile>
           <VMFile id="11959" start="8599" duration="223" scalar="1/1" mediaStart="17164/1" mediaDuration="223/1" trackNumber="0" src="4" >
            <Transformer>
             <VectorParam id="11960"  name="translation">
              <InterpolatingParam id="11961" interp="linr"  time="-9999999/1" value="0" leadInLength="0/1"  />
              <InterpolatingParam id="11962" interp="linr"  time="-9999999/1" value="0" leadInLength="0/1"  />
              <InterpolatingParam id="11963" interp="linr"  time="-9999999/1" value="0" leadInLength="0/1"  />
             </VectorParam>
             <VectorParam id="11964"  name="rotation">
              <InterpolatingParam id="11965" interp="linr"  time="-9999999/1" value="0" leadInLength="0/1"  />
              <InterpolatingParam id="11966" interp="linr"  time="-9999999/1" value="0" leadInLength="0/1"  />
              <InterpolatingParam id="11967" interp="linr"  time="-9999999/1" value="0" leadInLength="0/1"  />
             </VectorParam>
             <VectorParam id="11968"  name="shear">
              <InterpolatingParam id="11969" interp="linr"  time="-9999999/1" value="0" leadInLength="0/1"  />
              <InterpolatingParam id="11970" interp="linr"  time="-9999999/1" value="0" leadInLength="0/1"  />
              <InterpolatingParam id="11971" interp="linr"  time="-9999999/1" value="0" leadInLength="0/1"  />
             </VectorParam>
             <VectorParam id="11972"  name="scale">
              <InterpolatingParam id="11973" interp="linr"  time="-9999999/1" value="1" leadInLength="0/1"  />
              <InterpolatingParam id="11974" interp="linr"  time="-9999999/1" value="1" leadInLength="0/1"  />
              <InterpolatingParam id="11975" interp="linr"  time="-9999999/1" value="1" leadInLength="0/1"  />
             </VectorParam>
             <VectorParam id="11976"  name="anchor">
              <InterpolatingParam id="11977" interp="linr"  time="0/1" value="0" leadInLength="0/1"  />
              <InterpolatingParam id="11978" interp="linr"  time="0/1" value="0" leadInLength="0/1"  />
              <InterpolatingParam id="11979" interp="linr"  time="0/1" value="0" leadInLength="0/1"  />
             </VectorParam>
            </Transformer>
            <Parameters>
             <VectorParam id="11980"  name="sourceCrop">
              <InterpolatingParam id="11981" interp="linr"  time="0/1" value="0" leadInLength="0/1"  />
              <InterpolatingParam id="11982" interp="linr"  time="0/1" value="0" leadInLength="0/1"  />
              <InterpolatingParam id="11983" interp="linr"  time="0/1" value="0" leadInLength="0/1"  />
              <InterpolatingParam id="11984" interp="linr"  time="0/1" value="0" leadInLength="0/1"  />
             </VectorParam>
             <VectorParam id="11985"  name="geometryCrop">
              <InterpolatingParam id="11986" interp="linr"  time="-9999999/1" value="0" leadInLength="0/1"  />
              <InterpolatingParam id="11987" interp="linr"  time="-9999999/1" value="0" leadInLength="0/1"  />
              <InterpolatingParam id="11988" interp="linr"  time="-9999999/1" value="0" leadInLength="0/1"  />
              <InterpolatingParam id="11989" interp="linr"  time="-9999999/1" value="0" leadInLength="0/1"  />
             </VectorParam>
             <InterpolatingParam id="11990" interp="linr"  time="-9999999/1" value="1" leadInLength="0/1"  name="opacity"/>
            </Parameters>
            <Attributes>
             <Attribute id="11991" value="" name="ident"/>
            </Attributes>
            <MetaData>
             <entry key="WinSubProjectDisplayName" val=""/>
            </MetaData>
            <ExtraData>
             <Entry key="ZoomPanBin">
              <ZoomPanBin id="11992"  >
               <ZoomPanKeyframes>
                <ZoomPanKeyframe id="11993" timeRangeEnd="-9999999/1" timeRangeDuration="0/1" interpolaterName=""  />
               </ZoomPanKeyframes>
              </ZoomPanBin>
             </Entry>
            </ExtraData>
           </VMFile>
           <VMFile id="11994" start="8822" duration="323" scalar="1/1" mediaStart="26742/1" mediaDuration="323/1" trackNumber="0" src="4" >
            <Transformer>
             <VectorParam id="11995"  name="translation">
              <InterpolatingParam id="11996" interp="linr"  time="-9999999/1" value="0" leadInLength="0/1"  />
              <InterpolatingParam id="11997" interp="linr"  time="-9999999/1" value="0" leadInLength="0/1"  />
              <InterpolatingParam id="11998" interp="linr"  time="-9999999/1" value="0" leadInLength="0/1"  />
             </VectorParam>
             <VectorParam id="11999"  name="rotation">
              <InterpolatingParam id="12000" interp="linr"  time="-9999999/1" value="0" leadInLength="0/1"  />
              <InterpolatingParam id="12001" interp="linr"  time="-9999999/1" value="0" leadInLength="0/1"  />
              <InterpolatingParam id="12002" interp="linr"  time="-9999999/1" value="0" leadInLength="0/1"  />
             </VectorParam>
             <VectorParam id="12003"  name="shear">
              <InterpolatingParam id="12004" interp="linr"  time="-9999999/1" value="0" leadInLength="0/1"  />
              <InterpolatingParam id="12005" interp="linr"  time="-9999999/1" value="0" leadInLength="0/1"  />
              <InterpolatingParam id="12006" interp="linr"  time="-9999999/1" value="0" leadInLength="0/1"  />
             </VectorParam>
             <VectorParam id="12007"  name="scale">
              <InterpolatingParam id="12008" interp="linr"  time="-9999999/1" value="1" leadInLength="0/1"  />
              <InterpolatingParam id="12009" interp="linr"  time="-9999999/1" value="1" leadInLength="0/1"  />
              <InterpolatingParam id="12010" interp="linr"  time="-9999999/1" value="1" leadInLength="0/1"  />
             </VectorParam>
             <VectorParam id="12011"  name="anchor">
              <InterpolatingParam id="12012" interp="linr"  time="0/1" value="0" leadInLength="0/1"  />
              <InterpolatingParam id="12013" interp="linr"  time="0/1" value="0" leadInLength="0/1"  />
              <InterpolatingParam id="12014" interp="linr"  time="0/1" value="0" leadInLength="0/1"  />
             </VectorParam>
            </Transformer>
            <Parameters>
             <VectorParam id="12015"  name="sourceCrop">
              <InterpolatingParam id="12016" interp="linr"  time="0/1" value="0" leadInLength="0/1"  />
              <InterpolatingParam id="12017" interp="linr"  time="0/1" value="0" leadInLength="0/1"  />
              <InterpolatingParam id="12018" interp="linr"  time="0/1" value="0" leadInLength="0/1"  />
              <InterpolatingParam id="12019" interp="linr"  time="0/1" value="0" leadInLength="0/1"  />
             </VectorParam>
             <VectorParam id="12020"  name="geometryCrop">
              <InterpolatingParam id="12021" interp="linr"  time="-9999999/1" value="0" leadInLength="0/1"  />
              <InterpolatingParam id="12022" interp="linr"  time="-9999999/1" value="0" leadInLength="0/1"  />
              <InterpolatingParam id="12023" interp="linr"  time="-9999999/1" value="0" leadInLength="0/1"  />
              <InterpolatingParam id="12024" interp="linr"  time="-9999999/1" value="0" leadInLength="0/1"  />
             </VectorParam>
             <InterpolatingParam id="12025" interp="linr"  time="-9999999/1" value="1" leadInLength="0/1"  name="opacity"/>
            </Parameters>
            <Attributes>
             <Attribute id="12026" value="" name="ident"/>
            </Attributes>
            <MetaData>
             <entry key="WinSubProjectDisplayName" val=""/>
            </MetaData>
            <ExtraData>
             <Entry key="ZoomPanBin">
              <ZoomPanBin id="12027"  >
               <ZoomPanKeyframes>
                <ZoomPanKeyframe id="12028" timeRangeEnd="-9999999/1" timeRangeDuration="0/1" interpolaterName=""  />
               </ZoomPanKeyframes>
              </ZoomPanBin>
             </Entry>
            </ExtraData>
           </VMFile>
           <VMFile id="12029" start="9145" duration="259" scalar="1/1" mediaStart="27825/1" mediaDuration="259/1" trackNumber="0" src="4" >
            <Transformer>
             <VectorParam id="12030"  name="translation">
              <InterpolatingParam id="12031" interp="linr"  time="-9999999/1" value="0" leadInLength="0/1"  />
              <InterpolatingParam id="12032" interp="linr"  time="-9999999/1" value="0" leadInLength="0/1"  />
              <InterpolatingParam id="12033" interp="linr"  time="-9999999/1" value="0" leadInLength="0/1"  />
             </VectorParam>
             <VectorParam id="12034"  name="rotation">
              <InterpolatingParam id="12035" interp="linr"  time="-9999999/1" value="0" leadInLength="0/1"  />
              <InterpolatingParam id="12036" interp="linr"  time="-9999999/1" value="0" leadInLength="0/1"  />
              <InterpolatingParam id="12037" interp="linr"  time="-9999999/1" value="0" leadInLength="0/1"  />
             </VectorParam>
             <VectorParam id="12038"  name="shear">
              <InterpolatingParam id="12039" interp="linr"  time="-9999999/1" value="0" leadInLength="0/1"  />
              <InterpolatingParam id="12040" interp="linr"  time="-9999999/1" value="0" leadInLength="0/1"  />
              <InterpolatingParam id="12041" interp="linr"  time="-9999999/1" value="0" leadInLength="0/1"  />
             </VectorParam>
             <VectorParam id="12042"  name="scale">
              <InterpolatingParam id="12043" interp="linr"  time="-9999999/1" value="1" leadInLength="0/1"  />
              <InterpolatingParam id="12044" interp="linr"  time="-9999999/1" value="1" leadInLength="0/1"  />
              <InterpolatingParam id="12045" interp="linr"  time="-9999999/1" value="1" leadInLength="0/1"  />
             </VectorParam>
             <VectorParam id="12046"  name="anchor">
              <InterpolatingParam id="12047" interp="linr"  time="0/1" value="0" leadInLength="0/1"  />
              <InterpolatingParam id="12048" interp="linr"  time="0/1" value="0" leadInLength="0/1"  />
              <InterpolatingParam id="12049" interp="linr"  time="0/1" value="0" leadInLength="0/1"  />
             </VectorParam>
            </Transformer>
            <Parameters>
             <VectorParam id="12050"  name="sourceCrop">
              <InterpolatingParam id="12051" interp="linr"  time="0/1" value="0" leadInLength="0/1"  />
              <InterpolatingParam id="12052" interp="linr"  time="0/1" value="0" leadInLength="0/1"  />
              <InterpolatingParam id="12053" interp="linr"  time="0/1" value="0" leadInLength="0/1"  />
              <InterpolatingParam id="12054" interp="linr"  time="0/1" value="0" leadInLength="0/1"  />
             </VectorParam>
             <VectorParam id="12055"  name="geometryCrop">
              <InterpolatingParam id="12056" interp="linr"  time="-9999999/1" value="0" leadInLength="0/1"  />
              <InterpolatingParam id="12057" interp="linr"  time="-9999999/1" value="0" leadInLength="0/1"  />
              <InterpolatingParam id="12058" interp="linr"  time="-9999999/1" value="0" leadInLength="0/1"  />
              <InterpolatingParam id="12059" interp="linr"  time="-9999999/1" value="0" leadInLength="0/1"  />
             </VectorParam>
             <InterpolatingParam id="12060" interp="linr"  time="-9999999/1" value="1" leadInLength="0/1"  name="opacity"/>
            </Parameters>
            <Attributes>
             <Attribute id="12061" value="" name="ident"/>
            </Attributes>
            <MetaData>
             <entry key="WinSubProjectDisplayName" val=""/>
            </MetaData>
            <ExtraData>
             <Entry key="ZoomPanBin">
              <ZoomPanBin id="12062"  >
               <ZoomPanKeyframes>
                <ZoomPanKeyframe id="12063" timeRangeEnd="-9999999/1" timeRangeDuration="0/1" interpolaterName=""  />
               </ZoomPanKeyframes>
              </ZoomPanBin>
             </Entry>
            </ExtraData>
           </VMFile>
           <VMFile id="12064" start="9404" duration="157" scalar="1/1" mediaStart="28287/1" mediaDuration="157/1" trackNumber="0" src="4" >
            <Transformer>
             <VectorParam id="12065"  name="translation">
              <InterpolatingParam id="12066" interp="linr"  time="-9999999/1" value="0" leadInLength="0/1"  />
              <InterpolatingParam id="12067" interp="linr"  time="-9999999/1" value="0" leadInLength="0/1"  />
              <InterpolatingParam id="12068" interp="linr"  time="-9999999/1" value="0" leadInLength="0/1"  />
             </VectorParam>
             <VectorParam id="12069"  name="rotation">
              <InterpolatingParam id="12070" interp="linr"  time="-9999999/1" value="0" leadInLength="0/1"  />
              <InterpolatingParam id="12071" interp="linr"  time="-9999999/1" value="0" leadInLength="0/1"  />
              <InterpolatingParam id="12072" interp="linr"  time="-9999999/1" value="0" leadInLength="0/1"  />
             </VectorParam>
             <VectorParam id="12073"  name="shear">
              <InterpolatingParam id="12074" interp="linr"  time="-9999999/1" value="0" leadInLength="0/1"  />
              <InterpolatingParam id="12075" interp="linr"  time="-9999999/1" value="0" leadInLength="0/1"  />
              <InterpolatingParam id="12076" interp="linr"  time="-9999999/1" value="0" leadInLength="0/1"  />
             </VectorParam>
             <VectorParam id="12077"  name="scale">
              <InterpolatingParam id="12078" interp="linr"  time="-9999999/1" value="1" leadInLength="0/1"  />
              <InterpolatingParam id="12079" interp="linr"  time="-9999999/1" value="1" leadInLength="0/1"  />
              <InterpolatingParam id="12080" interp="linr"  time="-9999999/1" value="1" leadInLength="0/1"  />
             </VectorParam>
             <VectorParam id="12081"  name="anchor">
              <InterpolatingParam id="12082" interp="linr"  time="0/1" value="0" leadInLength="0/1"  />
              <InterpolatingParam id="12083" interp="linr"  time="0/1" value="0" leadInLength="0/1"  />
              <InterpolatingParam id="12084" interp="linr"  time="0/1" value="0" leadInLength="0/1"  />
             </VectorParam>
            </Transformer>
            <Parameters>
             <VectorParam id="12085"  name="sourceCrop">
              <InterpolatingParam id="12086" interp="linr"  time="0/1" value="0" leadInLength="0/1"  />
              <InterpolatingParam id="12087" interp="linr"  time="0/1" value="0" leadInLength="0/1"  />
              <InterpolatingParam id="12088" interp="linr"  time="0/1" value="0" leadInLength="0/1"  />
              <InterpolatingParam id="12089" interp="linr"  time="0/1" value="0" leadInLength="0/1"  />
             </VectorParam>
             <VectorParam id="12090"  name="geometryCrop">
              <InterpolatingParam id="12091" interp="linr"  time="-9999999/1" value="0" leadInLength="0/1"  />
              <InterpolatingParam id="12092" interp="linr"  time="-9999999/1" value="0" leadInLength="0/1"  />
              <InterpolatingParam id="12093" interp="linr"  time="-9999999/1" value="0" leadInLength="0/1"  />
              <InterpolatingParam id="12094" interp="linr"  time="-9999999/1" value="0" leadInLength="0/1"  />
             </VectorParam>
             <InterpolatingParam id="12095" interp="linr"  time="-9999999/1" value="1" leadInLength="0/1"  name="opacity"/>
            </Parameters>
            <Attributes>
             <Attribute id="12096" value="" name="ident"/>
            </Attributes>
            <MetaData>
             <entry key="WinSubProjectDisplayName" val=""/>
            </MetaData>
            <ExtraData>
             <Entry key="ZoomPanBin">
              <ZoomPanBin id="12097"  >
               <ZoomPanKeyframes>
                <ZoomPanKeyframe id="12098" timeRangeEnd="-9999999/1" timeRangeDuration="0/1" interpolaterName=""  />
               </ZoomPanKeyframes>
              </ZoomPanBin>
             </Entry>
            </ExtraData>
           </VMFile>
           <VMFile id="12099" start="9561" duration="290" scalar="1/1" mediaStart="28689/1" mediaDuration="290/1" trackNumber="0" src="4" >
            <Transformer>
             <VectorParam id="12100"  name="translation">
              <InterpolatingParam id="12101" interp="linr"  time="-9999999/1" value="0" leadInLength="0/1"  />
              <InterpolatingParam id="12102" interp="linr"  time="-9999999/1" value="0" leadInLength="0/1"  />
              <InterpolatingParam id="12103" interp="linr"  time="-9999999/1" value="0" leadInLength="0/1"  />
             </VectorParam>
             <VectorParam id="12104"  name="rotation">
              <InterpolatingParam id="12105" interp="linr"  time="-9999999/1" value="0" leadInLength="0/1"  />
              <InterpolatingParam id="12106" interp="linr"  time="-9999999/1" value="0" leadInLength="0/1"  />
              <InterpolatingParam id="12107" interp="linr"  time="-9999999/1" value="0" leadInLength="0/1"  />
             </VectorParam>
             <VectorParam id="12108"  name="shear">
              <InterpolatingParam id="12109" interp="linr"  time="-9999999/1" value="0" leadInLength="0/1"  />
              <InterpolatingParam id="12110" interp="linr"  time="-9999999/1" value="0" leadInLength="0/1"  />
              <InterpolatingParam id="12111" interp="linr"  time="-9999999/1" value="0" leadInLength="0/1"  />
             </VectorParam>
             <VectorParam id="12112"  name="scale">
              <InterpolatingParam id="12113" interp="linr"  time="-9999999/1" value="1" leadInLength="0/1"  />
              <InterpolatingParam id="12114" interp="linr"  time="-9999999/1" value="1" leadInLength="0/1"  />
              <InterpolatingParam id="12115" interp="linr"  time="-9999999/1" value="1" leadInLength="0/1"  />
             </VectorParam>
             <VectorParam id="12116"  name="anchor">
              <InterpolatingParam id="12117" interp="linr"  time="0/1" value="0" leadInLength="0/1"  />
              <InterpolatingParam id="12118" interp="linr"  time="0/1" value="0" leadInLength="0/1"  />
              <InterpolatingParam id="12119" interp="linr"  time="0/1" value="0" leadInLength="0/1"  />
             </VectorParam>
            </Transformer>
            <Parameters>
             <VectorParam id="12120"  name="sourceCrop">
              <InterpolatingParam id="12121" interp="linr"  time="0/1" value="0" leadInLength="0/1"  />
              <InterpolatingParam id="12122" interp="linr"  time="0/1" value="0" leadInLength="0/1"  />
              <InterpolatingParam id="12123" interp="linr"  time="0/1" value="0" leadInLength="0/1"  />
              <InterpolatingParam id="12124" interp="linr"  time="0/1" value="0" leadInLength="0/1"  />
             </VectorParam>
             <VectorParam id="12125"  name="geometryCrop">
              <InterpolatingParam id="12126" interp="linr"  time="-9999999/1" value="0" leadInLength="0/1"  />
              <InterpolatingParam id="12127" interp="linr"  time="-9999999/1" value="0" leadInLength="0/1"  />
              <InterpolatingParam id="12128" interp="linr"  time="-9999999/1" value="0" leadInLength="0/1"  />
              <InterpolatingParam id="12129" interp="linr"  time="-9999999/1" value="0" leadInLength="0/1"  />
             </VectorParam>
             <InterpolatingParam id="12130" interp="linr"  time="-9999999/1" value="1" leadInLength="0/1"  name="opacity"/>
            </Parameters>
            <Attributes>
             <Attribute id="12131" value="" name="ident"/>
            </Attributes>
            <MetaData>
             <entry key="WinSubProjectDisplayName" val=""/>
            </MetaData>
            <ExtraData>
             <Entry key="ZoomPanBin">
              <ZoomPanBin id="12132"  >
               <ZoomPanKeyframes>
                <ZoomPanKeyframe id="12133" timeRangeEnd="-9999999/1" timeRangeDuration="0/1" interpolaterName=""  />
               </ZoomPanKeyframes>
              </ZoomPanBin>
             </Entry>
            </ExtraData>
           </VMFile>
           <IMFile id="12134" start="9851" duration="60" scalar="1/1" mediaStart="29056/1" mediaDuration="1/1" trackNumber="0" src="4" trimStartSum="0/1" >
            <Transformer>
             <VectorParam id="12135"  name="translation">
              <InterpolatingParam id="12136" interp="linr"  time="-9999999/1" value="0" leadInLength="0/1"  />
              <InterpolatingParam id="12137" interp="linr"  time="-9999999/1" value="0" leadInLength="0/1"  />
              <InterpolatingParam id="12138" interp="linr"  time="-9999999/1" value="0" leadInLength="0/1"  />
             </VectorParam>
             <VectorParam id="12139"  name="rotation">
              <InterpolatingParam id="12140" interp="linr"  time="-9999999/1" value="0" leadInLength="0/1"  />
              <InterpolatingParam id="12141" interp="linr"  time="-9999999/1" value="0" leadInLength="0/1"  />
              <InterpolatingParam id="12142" interp="linr"  time="-9999999/1" value="0" leadInLength="0/1"  />
             </VectorParam>
             <VectorParam id="12143"  name="shear">
              <InterpolatingParam id="12144" interp="linr"  time="-9999999/1" value="0" leadInLength="0/1"  />
              <InterpolatingParam id="12145" interp="linr"  time="-9999999/1" value="0" leadInLength="0/1"  />
              <InterpolatingParam id="12146" interp="linr"  time="-9999999/1" value="0" leadInLength="0/1"  />
             </VectorParam>
             <VectorParam id="12147"  name="scale">
              <InterpolatingParam id="12148" interp="linr"  time="-9999999/1" value="1" leadInLength="0/1"  />
              <InterpolatingParam id="12149" interp="linr"  time="-9999999/1" value="1" leadInLength="0/1"  />
              <InterpolatingParam id="12150" interp="linr"  time="-9999999/1" value="1" leadInLength="0/1"  />
             </VectorParam>
             <VectorParam id="12151"  name="anchor">
              <InterpolatingParam id="12152" interp="linr"  time="0/1" value="0" leadInLength="0/1"  />
              <InterpolatingParam id="12153" interp="linr"  time="0/1" value="0" leadInLength="0/1"  />
              <InterpolatingParam id="12154" interp="linr"  time="0/1" value="0" leadInLength="0/1"  />
             </VectorParam>
            </Transformer>
            <Parameters>
             <VectorParam id="12155"  name="sourceCrop">
              <InterpolatingParam id="12156" interp="linr"  time="0/1" value="0" leadInLength="0/1"  />
              <InterpolatingParam id="12157" interp="linr"  time="0/1" value="0" leadInLength="0/1"  />
              <InterpolatingParam id="12158" interp="linr"  time="0/1" value="0" leadInLength="0/1"  />
              <InterpolatingParam id="12159" interp="linr"  time="0/1" value="0" leadInLength="0/1"  />
             </VectorParam>
             <VectorParam id="12160"  name="geometryCrop">
              <InterpolatingParam id="12161" interp="linr"  time="-9999999/1" value="0" leadInLength="0/1"  />
              <InterpolatingParam id="12162" interp="linr"  time="-9999999/1" value="0" leadInLength="0/1"  />
              <InterpolatingParam id="12163" interp="linr"  time="-9999999/1" value="0" leadInLength="0/1"  />
              <InterpolatingParam id="12164" interp="linr"  time="-9999999/1" value="0" leadInLength="0/1"  />
             </VectorParam>
             <InterpolatingParam id="12165" interp="linr"  time="-9999999/1" value="1" leadInLength="0/1"  name="opacity"/>
            </Parameters>
            <Attributes>
             <Attribute id="12166" value="" name="ident"/>
            </Attributes>
            <MetaData>
             <entry key="WinSubProjectDisplayName" val=""/>
            </MetaData>
            <ExtraData>
             <Entry key="ZoomPanBin">
              <ZoomPanBin id="12167"  >
               <ZoomPanKeyframes>
                <ZoomPanKeyframe id="12168" timeRangeEnd="-9999999/1" timeRangeDuration="0/1" interpolaterName=""  />
               </ZoomPanKeyframes>
              </ZoomPanBin>
             </Entry>
            </ExtraData>
           </IMFile>
           <VMFile id="12169" start="9911" duration="18" scalar="1/1" mediaStart="29056/1" mediaDuration="18/1" trackNumber="0" src="4" >
            <Transformer>
             <VectorParam id="12170"  name="translation">
              <InterpolatingParam id="12171" interp="linr"  time="-9999999/1" value="0" leadInLength="0/1"  />
              <InterpolatingParam id="12172" interp="linr"  time="-9999999/1" value="0" leadInLength="0/1"  />
              <InterpolatingParam id="12173" interp="linr"  time="-9999999/1" value="0" leadInLength="0/1"  />
             </VectorParam>
             <VectorParam id="12174"  name="rotation">
              <InterpolatingParam id="12175" interp="linr"  time="-9999999/1" value="0" leadInLength="0/1"  />
              <InterpolatingParam id="12176" interp="linr"  time="-9999999/1" value="0" leadInLength="0/1"  />
              <InterpolatingParam id="12177" interp="linr"  time="-9999999/1" value="0" leadInLength="0/1"  />
             </VectorParam>
             <VectorParam id="12178"  name="shear">
              <InterpolatingParam id="12179" interp="linr"  time="-9999999/1" value="0" leadInLength="0/1"  />
              <InterpolatingParam id="12180" interp="linr"  time="-9999999/1" value="0" leadInLength="0/1"  />
              <InterpolatingParam id="12181" interp="linr"  time="-9999999/1" value="0" leadInLength="0/1"  />
             </VectorParam>
             <VectorParam id="12182"  name="scale">
              <InterpolatingParam id="12183" interp="linr"  time="-9999999/1" value="1" leadInLength="0/1"  />
              <InterpolatingParam id="12184" interp="linr"  time="-9999999/1" value="1" leadInLength="0/1"  />
              <InterpolatingParam id="12185" interp="linr"  time="-9999999/1" value="1" leadInLength="0/1"  />
             </VectorParam>
             <VectorParam id="12186"  name="anchor">
              <InterpolatingParam id="12187" interp="linr"  time="0/1" value="0" leadInLength="0/1"  />
              <InterpolatingParam id="12188" interp="linr"  time="0/1" value="0" leadInLength="0/1"  />
              <InterpolatingParam id="12189" interp="linr"  time="0/1" value="0" leadInLength="0/1"  />
             </VectorParam>
            </Transformer>
            <Parameters>
             <VectorParam id="12190"  name="sourceCrop">
              <InterpolatingParam id="12191" interp="linr"  time="0/1" value="0" leadInLength="0/1"  />
              <InterpolatingParam id="12192" interp="linr"  time="0/1" value="0" leadInLength="0/1"  />
              <InterpolatingParam id="12193" interp="linr"  time="0/1" value="0" leadInLength="0/1"  />
              <InterpolatingParam id="12194" interp="linr"  time="0/1" value="0" leadInLength="0/1"  />
             </VectorParam>
             <VectorParam id="12195"  name="geometryCrop">
              <InterpolatingParam id="12196" interp="linr"  time="-9999999/1" value="0" leadInLength="0/1"  />
              <InterpolatingParam id="12197" interp="linr"  time="-9999999/1" value="0" leadInLength="0/1"  />
              <InterpolatingParam id="12198" interp="linr"  time="-9999999/1" value="0" leadInLength="0/1"  />
              <InterpolatingParam id="12199" interp="linr"  time="-9999999/1" value="0" leadInLength="0/1"  />
             </VectorParam>
             <InterpolatingParam id="12200" interp="linr"  time="-9999999/1" value="1" leadInLength="0/1"  name="opacity"/>
            </Parameters>
            <Attributes>
             <Attribute id="12201" value="" name="ident"/>
            </Attributes>
            <MetaData>
             <entry key="WinSubProjectDisplayName" val=""/>
            </MetaData>
            <ExtraData>
             <Entry key="ZoomPanBin">
              <ZoomPanBin id="12202"  >
               <ZoomPanKeyframes>
                <ZoomPanKeyframe id="12203" timeRangeEnd="-9999999/1" timeRangeDuration="0/1" interpolaterName=""  />
               </ZoomPanKeyframes>
              </ZoomPanBin>
             </Entry>
            </ExtraData>
           </VMFile>
           <IMFile id="12204" start="9929" duration="30" scalar="1/1" mediaStart="29074/1" mediaDuration="1/1" trackNumber="0" src="4" trimStartSum="0/1" >
            <Transformer>
             <VectorParam id="12205"  name="translation">
              <InterpolatingParam id="12206" interp="linr"  time="-9999999/1" value="0" leadInLength="0/1"  />
              <InterpolatingParam id="12207" interp="linr"  time="-9999999/1" value="0" leadInLength="0/1"  />
              <InterpolatingParam id="12208" interp="linr"  time="-9999999/1" value="0" leadInLength="0/1"  />
             </VectorParam>
             <VectorParam id="12209"  name="rotation">
              <InterpolatingParam id="12210" interp="linr"  time="-9999999/1" value="0" leadInLength="0/1"  />
              <InterpolatingParam id="12211" interp="linr"  time="-9999999/1" value="0" leadInLength="0/1"  />
              <InterpolatingParam id="12212" interp="linr"  time="-9999999/1" value="0" leadInLength="0/1"  />
             </VectorParam>
             <VectorParam id="12213"  name="shear">
              <InterpolatingParam id="12214" interp="linr"  time="-9999999/1" value="0" leadInLength="0/1"  />
              <InterpolatingParam id="12215" interp="linr"  time="-9999999/1" value="0" leadInLength="0/1"  />
              <InterpolatingParam id="12216" interp="linr"  time="-9999999/1" value="0" leadInLength="0/1"  />
             </VectorParam>
             <VectorParam id="12217"  name="scale">
              <InterpolatingParam id="12218" interp="linr"  time="-9999999/1" value="1" leadInLength="0/1"  />
              <InterpolatingParam id="12219" interp="linr"  time="-9999999/1" value="1" leadInLength="0/1"  />
              <InterpolatingParam id="12220" interp="linr"  time="-9999999/1" value="1" leadInLength="0/1"  />
             </VectorParam>
             <VectorParam id="12221"  name="anchor">
              <InterpolatingParam id="12222" interp="linr"  time="0/1" value="0" leadInLength="0/1"  />
              <InterpolatingParam id="12223" interp="linr"  time="0/1" value="0" leadInLength="0/1"  />
              <InterpolatingParam id="12224" interp="linr"  time="0/1" value="0" leadInLength="0/1"  />
             </VectorParam>
            </Transformer>
            <Parameters>
             <VectorParam id="12225"  name="sourceCrop">
              <InterpolatingParam id="12226" interp="linr"  time="0/1" value="0" leadInLength="0/1"  />
              <InterpolatingParam id="12227" interp="linr"  time="0/1" value="0" leadInLength="0/1"  />
              <InterpolatingParam id="12228" interp="linr"  time="0/1" value="0" leadInLength="0/1"  />
              <InterpolatingParam id="12229" interp="linr"  time="0/1" value="0" leadInLength="0/1"  />
             </VectorParam>
             <VectorParam id="12230"  name="geometryCrop">
              <InterpolatingParam id="12231" interp="linr"  time="-9999999/1" value="0" leadInLength="0/1"  />
              <InterpolatingParam id="12232" interp="linr"  time="-9999999/1" value="0" leadInLength="0/1"  />
              <InterpolatingParam id="12233" interp="linr"  time="-9999999/1" value="0" leadInLength="0/1"  />
              <InterpolatingParam id="12234" interp="linr"  time="-9999999/1" value="0" leadInLength="0/1"  />
             </VectorParam>
             <InterpolatingParam id="12235" interp="linr"  time="-9999999/1" value="1" leadInLength="0/1"  name="opacity"/>
            </Parameters>
            <Attributes>
             <Attribute id="12236" value="" name="ident"/>
            </Attributes>
            <MetaData>
             <entry key="WinSubProjectDisplayName" val=""/>
            </MetaData>
            <ExtraData>
             <Entry key="ZoomPanBin">
              <ZoomPanBin id="12237"  >
               <ZoomPanKeyframes>
                <ZoomPanKeyframe id="12238" timeRangeEnd="-9999999/1" timeRangeDuration="0/1" interpolaterName=""  />
               </ZoomPanKeyframes>
              </ZoomPanBin>
             </Entry>
            </ExtraData>
           </IMFile>
           <VMFile id="12239" start="9959" duration="1" scalar="1/1" mediaStart="29074/1" mediaDuration="1/1" trackNumber="0" src="4" >
            <Transformer>
             <VectorParam id="12240"  name="translation">
              <InterpolatingParam id="12241" interp="linr"  time="-9999999/1" value="0" leadInLength="0/1"  />
              <InterpolatingParam id="12242" interp="linr"  time="-9999999/1" value="0" leadInLength="0/1"  />
              <InterpolatingParam id="12243" interp="linr"  time="-9999999/1" value="0" leadInLength="0/1"  />
             </VectorParam>
             <VectorParam id="12244"  name="rotation">
              <InterpolatingParam id="12245" interp="linr"  time="-9999999/1" value="0" leadInLength="0/1"  />
              <InterpolatingParam id="12246" interp="linr"  time="-9999999/1" value="0" leadInLength="0/1"  />
              <InterpolatingParam id="12247" interp="linr"  time="-9999999/1" value="0" leadInLength="0/1"  />
             </VectorParam>
             <VectorParam id="12248"  name="shear">
              <InterpolatingParam id="12249" interp="linr"  time="-9999999/1" value="0" leadInLength="0/1"  />
              <InterpolatingParam id="12250" interp="linr"  time="-9999999/1" value="0" leadInLength="0/1"  />
              <InterpolatingParam id="12251" interp="linr"  time="-9999999/1" value="0" leadInLength="0/1"  />
             </VectorParam>
             <VectorParam id="12252"  name="scale">
              <InterpolatingParam id="12253" interp="linr"  time="-9999999/1" value="1" leadInLength="0/1"  />
              <InterpolatingParam id="12254" interp="linr"  time="-9999999/1" value="1" leadInLength="0/1"  />
              <InterpolatingParam id="12255" interp="linr"  time="-9999999/1" value="1" leadInLength="0/1"  />
             </VectorParam>
             <VectorParam id="12256"  name="anchor">
              <InterpolatingParam id="12257" interp="linr"  time="0/1" value="0" leadInLength="0/1"  />
              <InterpolatingParam id="12258" interp="linr"  time="0/1" value="0" leadInLength="0/1"  />
              <InterpolatingParam id="12259" interp="linr"  time="0/1" value="0" leadInLength="0/1"  />
             </VectorParam>
            </Transformer>
            <Parameters>
             <VectorParam id="12260"  name="sourceCrop">
              <InterpolatingParam id="12261" interp="linr"  time="0/1" value="0" leadInLength="0/1"  />
              <InterpolatingParam id="12262" interp="linr"  time="0/1" value="0" leadInLength="0/1"  />
              <InterpolatingParam id="12263" interp="linr"  time="0/1" value="0" leadInLength="0/1"  />
              <InterpolatingParam id="12264" interp="linr"  time="0/1" value="0" leadInLength="0/1"  />
             </VectorParam>
             <VectorParam id="12265"  name="geometryCrop">
              <InterpolatingParam id="12266" interp="linr"  time="-9999999/1" value="0" leadInLength="0/1"  />
              <InterpolatingParam id="12267" interp="linr"  time="-9999999/1" value="0" leadInLength="0/1"  />
              <InterpolatingParam id="12268" interp="linr"  time="-9999999/1" value="0" leadInLength="0/1"  />
              <InterpolatingParam id="12269" interp="linr"  time="-9999999/1" value="0" leadInLength="0/1"  />
             </VectorParam>
             <InterpolatingParam id="12270" interp="linr"  time="-9999999/1" value="1" leadInLength="0/1"  name="opacity"/>
            </Parameters>
            <Attributes>
             <Attribute id="12271" value="" name="ident"/>
            </Attributes>
            <MetaData>
             <entry key="WinSubProjectDisplayName" val=""/>
            </MetaData>
            <ExtraData>
             <Entry key="ZoomPanBin">
              <ZoomPanBin id="12272"  >
               <ZoomPanKeyframes>
                <ZoomPanKeyframe id="12273" timeRangeEnd="-9999999/1" timeRangeDuration="0/1" interpolaterName=""  />
               </ZoomPanKeyframes>
              </ZoomPanBin>
             </Entry>
            </ExtraData>
           </VMFile>
           <VMFile id="12274" start="9960" duration="42" scalar="1/1" mediaStart="29274/1" mediaDuration="42/1" trackNumber="0" src="4" >
            <Transformer>
             <VectorParam id="12275"  name="translation">
              <InterpolatingParam id="12276" interp="linr"  time="-9999999/1" value="0" leadInLength="0/1"  />
              <InterpolatingParam id="12277" interp="linr"  time="-9999999/1" value="0" leadInLength="0/1"  />
              <InterpolatingParam id="12278" interp="linr"  time="-9999999/1" value="0" leadInLength="0/1"  />
             </VectorParam>
             <VectorParam id="12279"  name="rotation">
              <InterpolatingParam id="12280" interp="linr"  time="-9999999/1" value="0" leadInLength="0/1"  />
              <InterpolatingParam id="12281" interp="linr"  time="-9999999/1" value="0" leadInLength="0/1"  />
              <InterpolatingParam id="12282" interp="linr"  time="-9999999/1" value="0" leadInLength="0/1"  />
             </VectorParam>
             <VectorParam id="12283"  name="shear">
              <InterpolatingParam id="12284" interp="linr"  time="-9999999/1" value="0" leadInLength="0/1"  />
              <InterpolatingParam id="12285" interp="linr"  time="-9999999/1" value="0" leadInLength="0/1"  />
              <InterpolatingParam id="12286" interp="linr"  time="-9999999/1" value="0" leadInLength="0/1"  />
             </VectorParam>
             <VectorParam id="12287"  name="scale">
              <InterpolatingParam id="12288" interp="linr"  time="-9999999/1" value="1" leadInLength="0/1"  />
              <InterpolatingParam id="12289" interp="linr"  time="-9999999/1" value="1" leadInLength="0/1"  />
              <InterpolatingParam id="12290" interp="linr"  time="-9999999/1" value="1" leadInLength="0/1"  />
             </VectorParam>
             <VectorParam id="12291"  name="anchor">
              <InterpolatingParam id="12292" interp="linr"  time="0/1" value="0" leadInLength="0/1"  />
              <InterpolatingParam id="12293" interp="linr"  time="0/1" value="0" leadInLength="0/1"  />
              <InterpolatingParam id="12294" interp="linr"  time="0/1" value="0" leadInLength="0/1"  />
             </VectorParam>
            </Transformer>
            <Parameters>
             <VectorParam id="12295"  name="sourceCrop">
              <InterpolatingParam id="12296" interp="linr"  time="0/1" value="0" leadInLength="0/1"  />
              <InterpolatingParam id="12297" interp="linr"  time="0/1" value="0" leadInLength="0/1"  />
              <InterpolatingParam id="12298" interp="linr"  time="0/1" value="0" leadInLength="0/1"  />
              <InterpolatingParam id="12299" interp="linr"  time="0/1" value="0" leadInLength="0/1"  />
             </VectorParam>
             <VectorParam id="12300"  name="geometryCrop">
              <InterpolatingParam id="12301" interp="linr"  time="-9999999/1" value="0" leadInLength="0/1"  />
              <InterpolatingParam id="12302" interp="linr"  time="-9999999/1" value="0" leadInLength="0/1"  />
              <InterpolatingParam id="12303" interp="linr"  time="-9999999/1" value="0" leadInLength="0/1"  />
              <InterpolatingParam id="12304" interp="linr"  time="-9999999/1" value="0" leadInLength="0/1"  />
             </VectorParam>
             <InterpolatingParam id="12305" interp="linr"  time="-9999999/1" value="1" leadInLength="0/1"  name="opacity"/>
            </Parameters>
            <Attributes>
             <Attribute id="12306" value="" name="ident"/>
            </Attributes>
            <MetaData>
             <entry key="WinSubProjectDisplayName" val=""/>
            </MetaData>
            <ExtraData>
             <Entry key="ZoomPanBin">
              <ZoomPanBin id="12307"  >
               <ZoomPanKeyframes>
                <ZoomPanKeyframe id="12308" timeRangeEnd="-9999999/1" timeRangeDuration="0/1" interpolaterName=""  />
               </ZoomPanKeyframes>
              </ZoomPanBin>
             </Entry>
            </ExtraData>
           </VMFile>
           <VMFile id="12309" start="10002" duration="147" scalar="1/1" mediaStart="29358/1" mediaDuration="147/1" trackNumber="0" src="4" >
            <Transformer>
             <VectorParam id="12310"  name="translation">
              <InterpolatingParam id="12311" interp="linr"  time="-9999999/1" value="0" leadInLength="0/1"  />
              <InterpolatingParam id="12312" interp="linr"  time="-9999999/1" value="0" leadInLength="0/1"  />
              <InterpolatingParam id="12313" interp="linr"  time="-9999999/1" value="0" leadInLength="0/1"  />
             </VectorParam>
             <VectorParam id="12314"  name="rotation">
              <InterpolatingParam id="12315" interp="linr"  time="-9999999/1" value="0" leadInLength="0/1"  />
              <InterpolatingParam id="12316" interp="linr"  time="-9999999/1" value="0" leadInLength="0/1"  />
              <InterpolatingParam id="12317" interp="linr"  time="-9999999/1" value="0" leadInLength="0/1"  />
             </VectorParam>
             <VectorParam id="12318"  name="shear">
              <InterpolatingParam id="12319" interp="linr"  time="-9999999/1" value="0" leadInLength="0/1"  />
              <InterpolatingParam id="12320" interp="linr"  time="-9999999/1" value="0" leadInLength="0/1"  />
              <InterpolatingParam id="12321" interp="linr"  time="-9999999/1" value="0" leadInLength="0/1"  />
             </VectorParam>
             <VectorParam id="12322"  name="scale">
              <InterpolatingParam id="12323" interp="linr"  time="-9999999/1" value="1" leadInLength="0/1"  />
              <InterpolatingParam id="12324" interp="linr"  time="-9999999/1" value="1" leadInLength="0/1"  />
              <InterpolatingParam id="12325" interp="linr"  time="-9999999/1" value="1" leadInLength="0/1"  />
             </VectorParam>
             <VectorParam id="12326"  name="anchor">
              <InterpolatingParam id="12327" interp="linr"  time="0/1" value="0" leadInLength="0/1"  />
              <InterpolatingParam id="12328" interp="linr"  time="0/1" value="0" leadInLength="0/1"  />
              <InterpolatingParam id="12329" interp="linr"  time="0/1" value="0" leadInLength="0/1"  />
             </VectorParam>
            </Transformer>
            <Parameters>
             <VectorParam id="12330"  name="sourceCrop">
              <InterpolatingParam id="12331" interp="linr"  time="0/1" value="0" leadInLength="0/1"  />
              <InterpolatingParam id="12332" interp="linr"  time="0/1" value="0" leadInLength="0/1"  />
              <InterpolatingParam id="12333" interp="linr"  time="0/1" value="0" leadInLength="0/1"  />
              <InterpolatingParam id="12334" interp="linr"  time="0/1" value="0" leadInLength="0/1"  />
             </VectorParam>
             <VectorParam id="12335"  name="geometryCrop">
              <InterpolatingParam id="12336" interp="linr"  time="-9999999/1" value="0" leadInLength="0/1"  />
              <InterpolatingParam id="12337" interp="linr"  time="-9999999/1" value="0" leadInLength="0/1"  />
              <InterpolatingParam id="12338" interp="linr"  time="-9999999/1" value="0" leadInLength="0/1"  />
              <InterpolatingParam id="12339" interp="linr"  time="-9999999/1" value="0" leadInLength="0/1"  />
             </VectorParam>
             <InterpolatingParam id="12340" interp="linr"  time="-9999999/1" value="1" leadInLength="0/1"  name="opacity"/>
            </Parameters>
            <Attributes>
             <Attribute id="12341" value="" name="ident"/>
            </Attributes>
            <MetaData>
             <entry key="WinSubProjectDisplayName" val=""/>
            </MetaData>
            <ExtraData>
             <Entry key="ZoomPanBin">
              <ZoomPanBin id="12342"  >
               <ZoomPanKeyframes>
                <ZoomPanKeyframe id="12343" timeRangeEnd="-9999999/1" timeRangeDuration="0/1" interpolaterName=""  />
               </ZoomPanKeyframes>
              </ZoomPanBin>
             </Entry>
            </ExtraData>
           </VMFile>
           <VMFile id="12344" start="10149" duration="580" scalar="1/1" mediaStart="29557/1" mediaDuration="580/1" trackNumber="0" src="4" >
            <Transformer>
             <VectorParam id="12345"  name="translation">
              <InterpolatingParam id="12346" interp="linr"  time="-9999999/1" value="0" leadInLength="0/1"  />
              <InterpolatingParam id="12347" interp="linr"  time="-9999999/1" value="0" leadInLength="0/1"  />
              <InterpolatingParam id="12348" interp="linr"  time="-9999999/1" value="0" leadInLength="0/1"  />
             </VectorParam>
             <VectorParam id="12349"  name="rotation">
              <InterpolatingParam id="12350" interp="linr"  time="-9999999/1" value="0" leadInLength="0/1"  />
              <InterpolatingParam id="12351" interp="linr"  time="-9999999/1" value="0" leadInLength="0/1"  />
              <InterpolatingParam id="12352" interp="linr"  time="-9999999/1" value="0" leadInLength="0/1"  />
             </VectorParam>
             <VectorParam id="12353"  name="shear">
              <InterpolatingParam id="12354" interp="linr"  time="-9999999/1" value="0" leadInLength="0/1"  />
              <InterpolatingParam id="12355" interp="linr"  time="-9999999/1" value="0" leadInLength="0/1"  />
              <InterpolatingParam id="12356" interp="linr"  time="-9999999/1" value="0" leadInLength="0/1"  />
             </VectorParam>
             <VectorParam id="12357"  name="scale">
              <InterpolatingParam id="12358" interp="linr"  time="-9999999/1" value="1" leadInLength="0/1"  />
              <InterpolatingParam id="12359" interp="linr"  time="-9999999/1" value="1" leadInLength="0/1"  />
              <InterpolatingParam id="12360" interp="linr"  time="-9999999/1" value="1" leadInLength="0/1"  />
             </VectorParam>
             <VectorParam id="12361"  name="anchor">
              <InterpolatingParam id="12362" interp="linr"  time="0/1" value="0" leadInLength="0/1"  />
              <InterpolatingParam id="12363" interp="linr"  time="0/1" value="0" leadInLength="0/1"  />
              <InterpolatingParam id="12364" interp="linr"  time="0/1" value="0" leadInLength="0/1"  />
             </VectorParam>
            </Transformer>
            <Parameters>
             <VectorParam id="12365"  name="sourceCrop">
              <InterpolatingParam id="12366" interp="linr"  time="0/1" value="0" leadInLength="0/1"  />
              <InterpolatingParam id="12367" interp="linr"  time="0/1" value="0" leadInLength="0/1"  />
              <InterpolatingParam id="12368" interp="linr"  time="0/1" value="0" leadInLength="0/1"  />
              <InterpolatingParam id="12369" interp="linr"  time="0/1" value="0" leadInLength="0/1"  />
             </VectorParam>
             <VectorParam id="12370"  name="geometryCrop">
              <InterpolatingParam id="12371" interp="linr"  time="-9999999/1" value="0" leadInLength="0/1"  />
              <InterpolatingParam id="12372" interp="linr"  time="-9999999/1" value="0" leadInLength="0/1"  />
              <InterpolatingParam id="12373" interp="linr"  time="-9999999/1" value="0" leadInLength="0/1"  />
              <InterpolatingParam id="12374" interp="linr"  time="-9999999/1" value="0" leadInLength="0/1"  />
             </VectorParam>
             <InterpolatingParam id="12375" interp="linr"  time="-9999999/1" value="1" leadInLength="0/1"  name="opacity"/>
            </Parameters>
            <Attributes>
             <Attribute id="12376" value="" name="ident"/>
            </Attributes>
            <MetaData>
             <entry key="WinSubProjectDisplayName" val=""/>
            </MetaData>
            <ExtraData>
             <Entry key="ZoomPanBin">
              <ZoomPanBin id="12377"  >
               <ZoomPanKeyframes>
                <ZoomPanKeyframe id="12378" timeRangeEnd="-9999999/1" timeRangeDuration="0/1" interpolaterName=""  />
               </ZoomPanKeyframes>
              </ZoomPanBin>
             </Entry>
            </ExtraData>
           </VMFile>
           <VMFile id="12379" start="10729" duration="25" scalar="1/1" mediaStart="30200/1" mediaDuration="25/1" trackNumber="0" src="4" >
            <Transformer>
             <VectorParam id="12380"  name="translation">
              <InterpolatingParam id="12381" interp="linr"  time="-9999999/1" value="0" leadInLength="0/1"  />
              <InterpolatingParam id="12382" interp="linr"  time="-9999999/1" value="0" leadInLength="0/1"  />
              <InterpolatingParam id="12383" interp="linr"  time="-9999999/1" value="0" leadInLength="0/1"  />
             </VectorParam>
             <VectorParam id="12384"  name="rotation">
              <InterpolatingParam id="12385" interp="linr"  time="-9999999/1" value="0" leadInLength="0/1"  />
              <InterpolatingParam id="12386" interp="linr"  time="-9999999/1" value="0" leadInLength="0/1"  />
              <InterpolatingParam id="12387" interp="linr"  time="-9999999/1" value="0" leadInLength="0/1"  />
             </VectorParam>
             <VectorParam id="12388"  name="shear">
              <InterpolatingParam id="12389" interp="linr"  time="-9999999/1" value="0" leadInLength="0/1"  />
              <InterpolatingParam id="12390" interp="linr"  time="-9999999/1" value="0" leadInLength="0/1"  />
              <InterpolatingParam id="12391" interp="linr"  time="-9999999/1" value="0" leadInLength="0/1"  />
             </VectorParam>
             <VectorParam id="12392"  name="scale">
              <InterpolatingParam id="12393" interp="linr"  time="-9999999/1" value="1" leadInLength="0/1"  />
              <InterpolatingParam id="12394" interp="linr"  time="-9999999/1" value="1" leadInLength="0/1"  />
              <InterpolatingParam id="12395" interp="linr"  time="-9999999/1" value="1" leadInLength="0/1"  />
             </VectorParam>
             <VectorParam id="12396"  name="anchor">
              <InterpolatingParam id="12397" interp="linr"  time="0/1" value="0" leadInLength="0/1"  />
              <InterpolatingParam id="12398" interp="linr"  time="0/1" value="0" leadInLength="0/1"  />
              <InterpolatingParam id="12399" interp="linr"  time="0/1" value="0" leadInLength="0/1"  />
             </VectorParam>
            </Transformer>
            <Parameters>
             <VectorParam id="12400"  name="sourceCrop">
              <InterpolatingParam id="12401" interp="linr"  time="0/1" value="0" leadInLength="0/1"  />
              <InterpolatingParam id="12402" interp="linr"  time="0/1" value="0" leadInLength="0/1"  />
              <InterpolatingParam id="12403" interp="linr"  time="0/1" value="0" leadInLength="0/1"  />
              <InterpolatingParam id="12404" interp="linr"  time="0/1" value="0" leadInLength="0/1"  />
             </VectorParam>
             <VectorParam id="12405"  name="geometryCrop">
              <InterpolatingParam id="12406" interp="linr"  time="-9999999/1" value="0" leadInLength="0/1"  />
              <InterpolatingParam id="12407" interp="linr"  time="-9999999/1" value="0" leadInLength="0/1"  />
              <InterpolatingParam id="12408" interp="linr"  time="-9999999/1" value="0" leadInLength="0/1"  />
              <InterpolatingParam id="12409" interp="linr"  time="-9999999/1" value="0" leadInLength="0/1"  />
             </VectorParam>
             <InterpolatingParam id="12410" interp="linr"  time="-9999999/1" value="1" leadInLength="0/1"  name="opacity"/>
            </Parameters>
            <Attributes>
             <Attribute id="12411" value="" name="ident"/>
            </Attributes>
            <MetaData>
             <entry key="WinSubProjectDisplayName" val=""/>
            </MetaData>
            <ExtraData>
             <Entry key="ZoomPanBin">
              <ZoomPanBin id="12412"  >
               <ZoomPanKeyframes>
                <ZoomPanKeyframe id="12413" timeRangeEnd="-9999999/1" timeRangeDuration="0/1" interpolaterName=""  />
               </ZoomPanKeyframes>
              </ZoomPanBin>
             </Entry>
            </ExtraData>
           </VMFile>
           <VMFile id="12414" start="10754" duration="119" scalar="1/1" mediaStart="30368/1" mediaDuration="119/1" trackNumber="0" src="4" >
            <Transformer>
             <VectorParam id="12415"  name="translation">
              <InterpolatingParam id="12416" interp="linr"  time="-9999999/1" value="0" leadInLength="0/1"  />
              <InterpolatingParam id="12417" interp="linr"  time="-9999999/1" value="0" leadInLength="0/1"  />
              <InterpolatingParam id="12418" interp="linr"  time="-9999999/1" value="0" leadInLength="0/1"  />
             </VectorParam>
             <VectorParam id="12419"  name="rotation">
              <InterpolatingParam id="12420" interp="linr"  time="-9999999/1" value="0" leadInLength="0/1"  />
              <InterpolatingParam id="12421" interp="linr"  time="-9999999/1" value="0" leadInLength="0/1"  />
              <InterpolatingParam id="12422" interp="linr"  time="-9999999/1" value="0" leadInLength="0/1"  />
             </VectorParam>
             <VectorParam id="12423"  name="shear">
              <InterpolatingParam id="12424" interp="linr"  time="-9999999/1" value="0" leadInLength="0/1"  />
              <InterpolatingParam id="12425" interp="linr"  time="-9999999/1" value="0" leadInLength="0/1"  />
              <InterpolatingParam id="12426" interp="linr"  time="-9999999/1" value="0" leadInLength="0/1"  />
             </VectorParam>
             <VectorParam id="12427"  name="scale">
              <InterpolatingParam id="12428" interp="linr"  time="-9999999/1" value="1" leadInLength="0/1"  />
              <InterpolatingParam id="12429" interp="linr"  time="-9999999/1" value="1" leadInLength="0/1"  />
              <InterpolatingParam id="12430" interp="linr"  time="-9999999/1" value="1" leadInLength="0/1"  />
             </VectorParam>
             <VectorParam id="12431"  name="anchor">
              <InterpolatingParam id="12432" interp="linr"  time="0/1" value="0" leadInLength="0/1"  />
              <InterpolatingParam id="12433" interp="linr"  time="0/1" value="0" leadInLength="0/1"  />
              <InterpolatingParam id="12434" interp="linr"  time="0/1" value="0" leadInLength="0/1"  />
             </VectorParam>
            </Transformer>
            <Parameters>
             <VectorParam id="12435"  name="sourceCrop">
              <InterpolatingParam id="12436" interp="linr"  time="0/1" value="0" leadInLength="0/1"  />
              <InterpolatingParam id="12437" interp="linr"  time="0/1" value="0" leadInLength="0/1"  />
              <InterpolatingParam id="12438" interp="linr"  time="0/1" value="0" leadInLength="0/1"  />
              <InterpolatingParam id="12439" interp="linr"  time="0/1" value="0" leadInLength="0/1"  />
             </VectorParam>
             <VectorParam id="12440"  name="geometryCrop">
              <InterpolatingParam id="12441" interp="linr"  time="-9999999/1" value="0" leadInLength="0/1"  />
              <InterpolatingParam id="12442" interp="linr"  time="-9999999/1" value="0" leadInLength="0/1"  />
              <InterpolatingParam id="12443" interp="linr"  time="-9999999/1" value="0" leadInLength="0/1"  />
              <InterpolatingParam id="12444" interp="linr"  time="-9999999/1" value="0" leadInLength="0/1"  />
             </VectorParam>
             <InterpolatingParam id="12445" interp="linr"  time="-9999999/1" value="1" leadInLength="0/1"  name="opacity"/>
            </Parameters>
            <Attributes>
             <Attribute id="12446" value="" name="ident"/>
            </Attributes>
            <MetaData>
             <entry key="WinSubProjectDisplayName" val=""/>
            </MetaData>
            <ExtraData>
             <Entry key="ZoomPanBin">
              <ZoomPanBin id="12447"  >
               <ZoomPanKeyframes>
                <ZoomPanKeyframe id="12448" timeRangeEnd="-9999999/1" timeRangeDuration="0/1" interpolaterName=""  />
               </ZoomPanKeyframes>
              </ZoomPanBin>
             </Entry>
            </ExtraData>
           </VMFile>
           <VMFile id="12449" start="10873" duration="411" scalar="1/1" mediaStart="30756/1" mediaDuration="411/1" trackNumber="0" src="4" >
            <Transformer>
             <VectorParam id="12450"  name="translation">
              <InterpolatingParam id="12451" interp="linr"  time="-9999999/1" value="0" leadInLength="0/1"  />
              <InterpolatingParam id="12452" interp="linr"  time="-9999999/1" value="0" leadInLength="0/1"  />
              <InterpolatingParam id="12453" interp="linr"  time="-9999999/1" value="0" leadInLength="0/1"  />
             </VectorParam>
             <VectorParam id="12454"  name="rotation">
              <InterpolatingParam id="12455" interp="linr"  time="-9999999/1" value="0" leadInLength="0/1"  />
              <InterpolatingParam id="12456" interp="linr"  time="-9999999/1" value="0" leadInLength="0/1"  />
              <InterpolatingParam id="12457" interp="linr"  time="-9999999/1" value="0" leadInLength="0/1"  />
             </VectorParam>
             <VectorParam id="12458"  name="shear">
              <InterpolatingParam id="12459" interp="linr"  time="-9999999/1" value="0" leadInLength="0/1"  />
              <InterpolatingParam id="12460" interp="linr"  time="-9999999/1" value="0" leadInLength="0/1"  />
              <InterpolatingParam id="12461" interp="linr"  time="-9999999/1" value="0" leadInLength="0/1"  />
             </VectorParam>
             <VectorParam id="12462"  name="scale">
              <InterpolatingParam id="12463" interp="linr"  time="-9999999/1" value="1" leadInLength="0/1"  />
              <InterpolatingParam id="12464" interp="linr"  time="-9999999/1" value="1" leadInLength="0/1"  />
              <InterpolatingParam id="12465" interp="linr"  time="-9999999/1" value="1" leadInLength="0/1"  />
             </VectorParam>
             <VectorParam id="12466"  name="anchor">
              <InterpolatingParam id="12467" interp="linr"  time="0/1" value="0" leadInLength="0/1"  />
              <InterpolatingParam id="12468" interp="linr"  time="0/1" value="0" leadInLength="0/1"  />
              <InterpolatingParam id="12469" interp="linr"  time="0/1" value="0" leadInLength="0/1"  />
             </VectorParam>
            </Transformer>
            <Parameters>
             <VectorParam id="12470"  name="sourceCrop">
              <InterpolatingParam id="12471" interp="linr"  time="0/1" value="0" leadInLength="0/1"  />
              <InterpolatingParam id="12472" interp="linr"  time="0/1" value="0" leadInLength="0/1"  />
              <InterpolatingParam id="12473" interp="linr"  time="0/1" value="0" leadInLength="0/1"  />
              <InterpolatingParam id="12474" interp="linr"  time="0/1" value="0" leadInLength="0/1"  />
             </VectorParam>
             <VectorParam id="12475"  name="geometryCrop">
              <InterpolatingParam id="12476" interp="linr"  time="-9999999/1" value="0" leadInLength="0/1"  />
              <InterpolatingParam id="12477" interp="linr"  time="-9999999/1" value="0" leadInLength="0/1"  />
              <InterpolatingParam id="12478" interp="linr"  time="-9999999/1" value="0" leadInLength="0/1"  />
              <InterpolatingParam id="12479" interp="linr"  time="-9999999/1" value="0" leadInLength="0/1"  />
             </VectorParam>
             <InterpolatingParam id="12480" interp="linr"  time="-9999999/1" value="1" leadInLength="0/1"  name="opacity"/>
            </Parameters>
            <Attributes>
             <Attribute id="12481" value="" name="ident"/>
            </Attributes>
            <MetaData>
             <entry key="WinSubProjectDisplayName" val=""/>
            </MetaData>
            <ExtraData>
             <Entry key="ZoomPanBin">
              <ZoomPanBin id="12482"  >
               <ZoomPanKeyframes>
                <ZoomPanKeyframe id="12483" timeRangeEnd="-9999999/1" timeRangeDuration="0/1" interpolaterName=""  />
               </ZoomPanKeyframes>
              </ZoomPanBin>
             </Entry>
            </ExtraData>
           </VMFile>
          </Medias>
         </GenericTrack>
        </StitchedMedia>
        <StitchedMedia id="12484" start="3610" duration="15" scalar="1152921504606846976/1153044566657568603" mediaStart="1152921504606846976/167945726952463" mediaDuration="36028797018963968/2401663449354755" minMediaStart="0/1" >
         <Transformer>
          <VectorParam id="12485"  name="translation">
           <InterpolatingParam id="12486" interp="linr"  time="-9999999/1" value="0" leadInLength="0/1"  interpolater="leadin-linr"  />
           <InterpolatingParam id="12487" interp="linr"  time="-9999999/1" value="0" leadInLength="0/1"  interpolater="leadin-linr"  />
           <InterpolatingParam id="12488" interp="linr"  time="-9999999/1" value="0" leadInLength="0/1"  interpolater="leadin-linr"  />
          </VectorParam>
          <VectorParam id="12489"  name="rotation">
           <InterpolatingParam id="12490" interp="linr"  time="-9999999/1" value="0" leadInLength="0/1"  interpolater="leadin-linr"  />
           <InterpolatingParam id="12491" interp="linr"  time="-9999999/1" value="0" leadInLength="0/1"  interpolater="leadin-linr"  />
           <InterpolatingParam id="12492" interp="linr"  time="-9999999/1" value="0" leadInLength="0/1"  interpolater="leadin-linr"  />
          </VectorParam>
          <VectorParam id="12493"  name="shear">
           <InterpolatingParam id="12494" interp="linr"  time="-9999999/1" value="0" leadInLength="0/1"  interpolater="leadin-linr"  />
           <InterpolatingParam id="12495" interp="linr"  time="-9999999/1" value="0" leadInLength="0/1"  interpolater="leadin-linr"  />
           <InterpolatingParam id="12496" interp="linr"  time="-9999999/1" value="0" leadInLength="0/1"  interpolater="leadin-linr"  />
          </VectorParam>
          <VectorParam id="12497"  name="scale">
           <InterpolatingParam id="12498" interp="linr"  time="-9999999/1" value="1" leadInLength="0/1"  interpolater="leadin-linr"  />
           <InterpolatingParam id="12499" interp="linr"  time="-9999999/1" value="1" leadInLength="0/1"  interpolater="leadin-linr"  />
           <InterpolatingParam id="12500" interp="linr"  time="-9999999/1" value="1" leadInLength="0/1"  interpolater="leadin-linr"  />
          </VectorParam>
          <VectorParam id="12501"  name="anchor">
           <InterpolatingParam id="12502" interp="linr"  >
            <Keyframes>
            <Keyframe id="12503"  time="0/1" value="0" leadInLength="0/1"  />
            <Keyframe id="12504"  time="32931335377/7971776" value="0" leadInLength="0/1"  />
            <Keyframe id="12505"  time="4328/1" value="0" leadInLength="0/1"  />
            <Keyframe id="12506"  time="4457/1" value="0" leadInLength="0/1"  />
            <Keyframe id="12507"  time="46272102474146/7646783123" value="0" leadInLength="0/1"  />
            <Keyframe id="12508"  time="1152921504606846976/117073500061145" value="0" leadInLength="0/1"  />
            <Keyframe id="12509"  time="288230376151711744/29038376098307" value="0" leadInLength="0/1"  />
            </Keyframes>
           </InterpolatingParam>
           <InterpolatingParam id="12510" interp="linr"  >
            <Keyframes>
            <Keyframe id="12511"  time="0/1" value="0" leadInLength="0/1"  />
            <Keyframe id="12512"  time="32931335377/7971776" value="0" leadInLength="0/1"  />
            <Keyframe id="12513"  time="4328/1" value="0" leadInLength="0/1"  />
            <Keyframe id="12514"  time="4457/1" value="0" leadInLength="0/1"  />
            <Keyframe id="12515"  time="46272102474146/7646783123" value="0" leadInLength="0/1"  />
            <Keyframe id="12516"  time="1152921504606846976/117073500061145" value="0" leadInLength="0/1"  />
            <Keyframe id="12517"  time="288230376151711744/29038376098307" value="0" leadInLength="0/1"  />
            </Keyframes>
           </InterpolatingParam>
           <InterpolatingParam id="12518" interp="linr"  >
            <Keyframes>
            <Keyframe id="12519"  time="0/1" value="0" leadInLength="0/1"  />
            <Keyframe id="12520"  time="32931335377/7971776" value="0" leadInLength="0/1"  />
            <Keyframe id="12521"  time="4328/1" value="0" leadInLength="0/1"  />
            <Keyframe id="12522"  time="4457/1" value="0" leadInLength="0/1"  />
            <Keyframe id="12523"  time="46272102474146/7646783123" value="0" leadInLength="0/1"  />
            <Keyframe id="12524"  time="1152921504606846976/117073500061145" value="0" leadInLength="0/1"  />
            <Keyframe id="12525"  time="288230376151711744/29038376098307" value="0" leadInLength="0/1"  />
            </Keyframes>
           </InterpolatingParam>
          </VectorParam>
         </Transformer>
         <Parameters>
          <VectorParam id="12526"  name="sourceCrop">
           <InterpolatingParam id="12527" interp="linr"  >
            <Keyframes>
            <Keyframe id="12528"  time="0/1" value="0" leadInLength="0/1"  />
            <Keyframe id="12529"  time="32931335377/7971776" value="0" leadInLength="0/1"  />
            <Keyframe id="12530"  time="4328/1" value="0" leadInLength="0/1"  />
            <Keyframe id="12531"  time="4457/1" value="0" leadInLength="0/1"  />
            <Keyframe id="12532"  time="46272102474146/7646783123" value="0" leadInLength="0/1"  />
            <Keyframe id="12533"  time="1152921504606846976/117073500061145" value="0" leadInLength="0/1"  />
            <Keyframe id="12534"  time="288230376151711744/29038376098307" value="0" leadInLength="0/1"  />
            </Keyframes>
           </InterpolatingParam>
           <InterpolatingParam id="12535" interp="linr"  >
            <Keyframes>
            <Keyframe id="12536"  time="0/1" value="0" leadInLength="0/1"  />
            <Keyframe id="12537"  time="32931335377/7971776" value="0" leadInLength="0/1"  />
            <Keyframe id="12538"  time="4328/1" value="0" leadInLength="0/1"  />
            <Keyframe id="12539"  time="4457/1" value="0" leadInLength="0/1"  />
            <Keyframe id="12540"  time="46272102474146/7646783123" value="0" leadInLength="0/1"  />
            <Keyframe id="12541"  time="1152921504606846976/117073500061145" value="0" leadInLength="0/1"  />
            <Keyframe id="12542"  time="288230376151711744/29038376098307" value="0" leadInLength="0/1"  />
            </Keyframes>
           </InterpolatingParam>
           <InterpolatingParam id="12543" interp="linr"  >
            <Keyframes>
            <Keyframe id="12544"  time="0/1" value="0" leadInLength="0/1"  />
            <Keyframe id="12545"  time="32931335377/7971776" value="0" leadInLength="0/1"  />
            <Keyframe id="12546"  time="4328/1" value="0" leadInLength="0/1"  />
            <Keyframe id="12547"  time="4457/1" value="0" leadInLength="0/1"  />
            <Keyframe id="12548"  time="46272102474146/7646783123" value="0" leadInLength="0/1"  />
            <Keyframe id="12549"  time="1152921504606846976/117073500061145" value="0" leadInLength="0/1"  />
            <Keyframe id="12550"  time="288230376151711744/29038376098307" value="0" leadInLength="0/1"  />
            </Keyframes>
           </InterpolatingParam>
           <InterpolatingParam id="12551" interp="linr"  >
            <Keyframes>
            <Keyframe id="12552"  time="0/1" value="0" leadInLength="0/1"  />
            <Keyframe id="12553"  time="32931335377/7971776" value="0" leadInLength="0/1"  />
            <Keyframe id="12554"  time="4328/1" value="0" leadInLength="0/1"  />
            <Keyframe id="12555"  time="4457/1" value="0" leadInLength="0/1"  />
            <Keyframe id="12556"  time="46272102474146/7646783123" value="0" leadInLength="0/1"  />
            <Keyframe id="12557"  time="1152921504606846976/117073500061145" value="0" leadInLength="0/1"  />
            <Keyframe id="12558"  time="288230376151711744/29038376098307" value="0" leadInLength="0/1"  />
            </Keyframes>
           </InterpolatingParam>
          </VectorParam>
          <VectorParam id="12559"  name="geometryCrop">
           <InterpolatingParam id="12560" interp="linr"  time="-9999999/1" value="0" leadInLength="0/1"  interpolater="leadin-linr"  />
           <InterpolatingParam id="12561" interp="linr"  time="-9999999/1" value="0" leadInLength="0/1"  interpolater="leadin-linr"  />
           <InterpolatingParam id="12562" interp="linr"  time="-9999999/1" value="0" leadInLength="0/1"  interpolater="leadin-linr"  />
           <InterpolatingParam id="12563" interp="linr"  time="-9999999/1" value="0" leadInLength="0/1"  interpolater="leadin-linr"  />
          </VectorParam>
          <InterpolatingParam id="12564" interp="linr"  time="-9999999/1" value="1" leadInLength="0/1"  interpolater="leadin-linr"  name="opacity"/>
          <InterpolatingParam id="12565" interp="linr"  time="0/1" value="1" leadInLength="0/1"  name="cursorOpacity"/>
          <InterpolatingParam id="12566" interp="linr"  time="0/1" value="1" leadInLength="0/1"  name="cursorScale"/>
          <Parameter id="12567"  name="captions"/>
         </Parameters>
         <Attributes>
          <Attribute id="12568" value="" name="ident"/>
         </Attributes>
         <MetaData>
          <entry key="WinSubProjectDisplayName" val=""/>
         </MetaData>
         <ExtraData>
          <Entry key="ZoomPanBin">
           <ZoomPanBin id="12569"  >
            <ZoomPanKeyframes>
             <ZoomPanKeyframe id="12570" timeRangeEnd="-9999999/1" timeRangeDuration="0/1" interpolaterName="linr"  />
            </ZoomPanKeyframes>
           </ZoomPanBin>
          </Entry>
          <Entry key="CursorEffectBin">
           <CursorEffectBin id="12571"  >
            <CursorEffectKeyframes>
            </CursorEffectKeyframes>
           </CursorEffectBin>
          </Entry>
         </ExtraData>
         <GenericTrack id="12572"  >
          <Attributes>
           <Attribute id="12573" value="" name="ident"/>
           <Attribute id="12574" value="0" name="audioMuted"/>
           <Attribute id="12575" value="0" name="videoHidden"/>
          </Attributes>
          <MetaData>
           <entry key="IsLocked" val="False"/>
           <entry key="WinTrackHeight" val="0"/>
          </MetaData>
          <Medias>
           <VMFile id="12576" start="0" duration="4131" scalar="1/1" mediaStart="0/1" mediaDuration="4131/1" trackNumber="0" src="4" >
            <Transformer>
             <VectorParam id="12577"  name="translation">
              <InterpolatingParam id="12578" interp="linr"  time="-9999999/1" value="0" leadInLength="0/1"  />
              <InterpolatingParam id="12579" interp="linr"  time="-9999999/1" value="0" leadInLength="0/1"  />
              <InterpolatingParam id="12580" interp="linr"  time="-9999999/1" value="0" leadInLength="0/1"  />
             </VectorParam>
             <VectorParam id="12581"  name="rotation">
              <InterpolatingParam id="12582" interp="linr"  time="-9999999/1" value="0" leadInLength="0/1"  />
              <InterpolatingParam id="12583" interp="linr"  time="-9999999/1" value="0" leadInLength="0/1"  />
              <InterpolatingParam id="12584" interp="linr"  time="-9999999/1" value="0" leadInLength="0/1"  />
             </VectorParam>
             <VectorParam id="12585"  name="shear">
              <InterpolatingParam id="12586" interp="linr"  time="-9999999/1" value="0" leadInLength="0/1"  />
              <InterpolatingParam id="12587" interp="linr"  time="-9999999/1" value="0" leadInLength="0/1"  />
              <InterpolatingParam id="12588" interp="linr"  time="-9999999/1" value="0" leadInLength="0/1"  />
             </VectorParam>
             <VectorParam id="12589"  name="scale">
              <InterpolatingParam id="12590" interp="linr"  time="-9999999/1" value="1" leadInLength="0/1"  />
              <InterpolatingParam id="12591" interp="linr"  time="-9999999/1" value="1" leadInLength="0/1"  />
              <InterpolatingParam id="12592" interp="linr"  time="-9999999/1" value="1" leadInLength="0/1"  />
             </VectorParam>
             <VectorParam id="12593"  name="anchor">
              <InterpolatingParam id="12594" interp="linr"  time="0/1" value="0" leadInLength="0/1"  />
              <InterpolatingParam id="12595" interp="linr"  time="0/1" value="0" leadInLength="0/1"  />
              <InterpolatingParam id="12596" interp="linr"  time="0/1" value="0" leadInLength="0/1"  />
             </VectorParam>
            </Transformer>
            <Parameters>
             <VectorParam id="12597"  name="sourceCrop">
              <InterpolatingParam id="12598" interp="linr"  time="0/1" value="0" leadInLength="0/1"  />
              <InterpolatingParam id="12599" interp="linr"  time="0/1" value="0" leadInLength="0/1"  />
              <InterpolatingParam id="12600" interp="linr"  time="0/1" value="0" leadInLength="0/1"  />
              <InterpolatingParam id="12601" interp="linr"  time="0/1" value="0" leadInLength="0/1"  />
             </VectorParam>
             <VectorParam id="12602"  name="geometryCrop">
              <InterpolatingParam id="12603" interp="linr"  time="-9999999/1" value="0" leadInLength="0/1"  />
              <InterpolatingParam id="12604" interp="linr"  time="-9999999/1" value="0" leadInLength="0/1"  />
              <InterpolatingParam id="12605" interp="linr"  time="-9999999/1" value="0" leadInLength="0/1"  />
              <InterpolatingParam id="12606" interp="linr"  time="-9999999/1" value="0" leadInLength="0/1"  />
             </VectorParam>
             <InterpolatingParam id="12607" interp="linr"  time="-9999999/1" value="1" leadInLength="0/1"  name="opacity"/>
            </Parameters>
            <Attributes>
             <Attribute id="12608" value="" name="ident"/>
            </Attributes>
            <MetaData>
             <entry key="WinSubProjectDisplayName" val=""/>
            </MetaData>
            <ExtraData>
             <Entry key="ZoomPanBin">
              <ZoomPanBin id="12609"  >
               <ZoomPanKeyframes>
                <ZoomPanKeyframe id="12610" timeRangeEnd="-9999999/1" timeRangeDuration="0/1" interpolaterName=""  />
               </ZoomPanKeyframes>
              </ZoomPanBin>
             </Entry>
            </ExtraData>
           </VMFile>
           <IMFile id="12611" start="4131" duration="12" scalar="1/1" mediaStart="4130/1" mediaDuration="1/1" trackNumber="0" src="4" trimStartSum="0/1" >
            <Transformer>
             <VectorParam id="12612"  name="translation">
              <InterpolatingParam id="12613" interp="linr"  time="-9999999/1" value="0" leadInLength="0/1"  />
              <InterpolatingParam id="12614" interp="linr"  time="-9999999/1" value="0" leadInLength="0/1"  />
              <InterpolatingParam id="12615" interp="linr"  time="-9999999/1" value="0" leadInLength="0/1"  />
             </VectorParam>
             <VectorParam id="12616"  name="rotation">
              <InterpolatingParam id="12617" interp="linr"  time="-9999999/1" value="0" leadInLength="0/1"  />
              <InterpolatingParam id="12618" interp="linr"  time="-9999999/1" value="0" leadInLength="0/1"  />
              <InterpolatingParam id="12619" interp="linr"  time="-9999999/1" value="0" leadInLength="0/1"  />
             </VectorParam>
             <VectorParam id="12620"  name="shear">
              <InterpolatingParam id="12621" interp="linr"  time="-9999999/1" value="0" leadInLength="0/1"  />
              <InterpolatingParam id="12622" interp="linr"  time="-9999999/1" value="0" leadInLength="0/1"  />
              <InterpolatingParam id="12623" interp="linr"  time="-9999999/1" value="0" leadInLength="0/1"  />
             </VectorParam>
             <VectorParam id="12624"  name="scale">
              <InterpolatingParam id="12625" interp="linr"  time="-9999999/1" value="1" leadInLength="0/1"  />
              <InterpolatingParam id="12626" interp="linr"  time="-9999999/1" value="1" leadInLength="0/1"  />
              <InterpolatingParam id="12627" interp="linr"  time="-9999999/1" value="1" leadInLength="0/1"  />
             </VectorParam>
             <VectorParam id="12628"  name="anchor">
              <InterpolatingParam id="12629" interp="linr"  time="0/1" value="0" leadInLength="0/1"  />
              <InterpolatingParam id="12630" interp="linr"  time="0/1" value="0" leadInLength="0/1"  />
              <InterpolatingParam id="12631" interp="linr"  time="0/1" value="0" leadInLength="0/1"  />
             </VectorParam>
            </Transformer>
            <Parameters>
             <VectorParam id="12632"  name="sourceCrop">
              <InterpolatingParam id="12633" interp="linr"  time="0/1" value="0" leadInLength="0/1"  />
              <InterpolatingParam id="12634" interp="linr"  time="0/1" value="0" leadInLength="0/1"  />
              <InterpolatingParam id="12635" interp="linr"  time="0/1" value="0" leadInLength="0/1"  />
              <InterpolatingParam id="12636" interp="linr"  time="0/1" value="0" leadInLength="0/1"  />
             </VectorParam>
             <VectorParam id="12637"  name="geometryCrop">
              <InterpolatingParam id="12638" interp="linr"  time="-9999999/1" value="0" leadInLength="0/1"  />
              <InterpolatingParam id="12639" interp="linr"  time="-9999999/1" value="0" leadInLength="0/1"  />
              <InterpolatingParam id="12640" interp="linr"  time="-9999999/1" value="0" leadInLength="0/1"  />
              <InterpolatingParam id="12641" interp="linr"  time="-9999999/1" value="0" leadInLength="0/1"  />
             </VectorParam>
             <InterpolatingParam id="12642" interp="linr"  time="-9999999/1" value="1" leadInLength="0/1"  name="opacity"/>
            </Parameters>
            <Attributes>
             <Attribute id="12643" value="" name="ident"/>
            </Attributes>
            <MetaData>
             <entry key="WinSubProjectDisplayName" val=""/>
            </MetaData>
            <ExtraData>
             <Entry key="ZoomPanBin">
              <ZoomPanBin id="12644"  >
               <ZoomPanKeyframes>
                <ZoomPanKeyframe id="12645" timeRangeEnd="-9999999/1" timeRangeDuration="0/1" interpolaterName=""  />
               </ZoomPanKeyframes>
              </ZoomPanBin>
             </Entry>
            </ExtraData>
           </IMFile>
           <VMFile id="12646" start="4143" duration="185" scalar="1/1" mediaStart="4130/1" mediaDuration="185/1" trackNumber="0" src="4" >
            <Transformer>
             <VectorParam id="12647"  name="translation">
              <InterpolatingParam id="12648" interp="linr"  time="-9999999/1" value="0" leadInLength="0/1"  />
              <InterpolatingParam id="12649" interp="linr"  time="-9999999/1" value="0" leadInLength="0/1"  />
              <InterpolatingParam id="12650" interp="linr"  time="-9999999/1" value="0" leadInLength="0/1"  />
             </VectorParam>
             <VectorParam id="12651"  name="rotation">
              <InterpolatingParam id="12652" interp="linr"  time="-9999999/1" value="0" leadInLength="0/1"  />
              <InterpolatingParam id="12653" interp="linr"  time="-9999999/1" value="0" leadInLength="0/1"  />
              <InterpolatingParam id="12654" interp="linr"  time="-9999999/1" value="0" leadInLength="0/1"  />
             </VectorParam>
             <VectorParam id="12655"  name="shear">
              <InterpolatingParam id="12656" interp="linr"  time="-9999999/1" value="0" leadInLength="0/1"  />
              <InterpolatingParam id="12657" interp="linr"  time="-9999999/1" value="0" leadInLength="0/1"  />
              <InterpolatingParam id="12658" interp="linr"  time="-9999999/1" value="0" leadInLength="0/1"  />
             </VectorParam>
             <VectorParam id="12659"  name="scale">
              <InterpolatingParam id="12660" interp="linr"  time="-9999999/1" value="1" leadInLength="0/1"  />
              <InterpolatingParam id="12661" interp="linr"  time="-9999999/1" value="1" leadInLength="0/1"  />
              <InterpolatingParam id="12662" interp="linr"  time="-9999999/1" value="1" leadInLength="0/1"  />
             </VectorParam>
             <VectorParam id="12663"  name="anchor">
              <InterpolatingParam id="12664" interp="linr"  time="0/1" value="0" leadInLength="0/1"  />
              <InterpolatingParam id="12665" interp="linr"  time="0/1" value="0" leadInLength="0/1"  />
              <InterpolatingParam id="12666" interp="linr"  time="0/1" value="0" leadInLength="0/1"  />
             </VectorParam>
            </Transformer>
            <Parameters>
             <VectorParam id="12667"  name="sourceCrop">
              <InterpolatingParam id="12668" interp="linr"  time="0/1" value="0" leadInLength="0/1"  />
              <InterpolatingParam id="12669" interp="linr"  time="0/1" value="0" leadInLength="0/1"  />
              <InterpolatingParam id="12670" interp="linr"  time="0/1" value="0" leadInLength="0/1"  />
              <InterpolatingParam id="12671" interp="linr"  time="0/1" value="0" leadInLength="0/1"  />
             </VectorParam>
             <VectorParam id="12672"  name="geometryCrop">
              <InterpolatingParam id="12673" interp="linr"  time="-9999999/1" value="0" leadInLength="0/1"  />
              <InterpolatingParam id="12674" interp="linr"  time="-9999999/1" value="0" leadInLength="0/1"  />
              <InterpolatingParam id="12675" interp="linr"  time="-9999999/1" value="0" leadInLength="0/1"  />
              <InterpolatingParam id="12676" interp="linr"  time="-9999999/1" value="0" leadInLength="0/1"  />
             </VectorParam>
             <InterpolatingParam id="12677" interp="linr"  time="-9999999/1" value="1" leadInLength="0/1"  name="opacity"/>
            </Parameters>
            <Attributes>
             <Attribute id="12678" value="" name="ident"/>
            </Attributes>
            <MetaData>
             <entry key="WinSubProjectDisplayName" val=""/>
            </MetaData>
            <ExtraData>
             <Entry key="ZoomPanBin">
              <ZoomPanBin id="12679"  >
               <ZoomPanKeyframes>
                <ZoomPanKeyframe id="12680" timeRangeEnd="-9999999/1" timeRangeDuration="0/1" interpolaterName=""  />
               </ZoomPanKeyframes>
              </ZoomPanBin>
             </Entry>
            </ExtraData>
           </VMFile>
           <IMFile id="12681" start="4328" duration="3" scalar="1/1" mediaStart="4315/1" mediaDuration="1/1" trackNumber="0" src="4" trimStartSum="0/1" >
            <Transformer>
             <VectorParam id="12682"  name="translation">
              <InterpolatingParam id="12683" interp="linr"  time="-9999999/1" value="0" leadInLength="0/1"  />
              <InterpolatingParam id="12684" interp="linr"  time="-9999999/1" value="0" leadInLength="0/1"  />
              <InterpolatingParam id="12685" interp="linr"  time="-9999999/1" value="0" leadInLength="0/1"  />
             </VectorParam>
             <VectorParam id="12686"  name="rotation">
              <InterpolatingParam id="12687" interp="linr"  time="-9999999/1" value="0" leadInLength="0/1"  />
              <InterpolatingParam id="12688" interp="linr"  time="-9999999/1" value="0" leadInLength="0/1"  />
              <InterpolatingParam id="12689" interp="linr"  time="-9999999/1" value="0" leadInLength="0/1"  />
             </VectorParam>
             <VectorParam id="12690"  name="shear">
              <InterpolatingParam id="12691" interp="linr"  time="-9999999/1" value="0" leadInLength="0/1"  />
              <InterpolatingParam id="12692" interp="linr"  time="-9999999/1" value="0" leadInLength="0/1"  />
              <InterpolatingParam id="12693" interp="linr"  time="-9999999/1" value="0" leadInLength="0/1"  />
             </VectorParam>
             <VectorParam id="12694"  name="scale">
              <InterpolatingParam id="12695" interp="linr"  time="-9999999/1" value="1" leadInLength="0/1"  />
              <InterpolatingParam id="12696" interp="linr"  time="-9999999/1" value="1" leadInLength="0/1"  />
              <InterpolatingParam id="12697" interp="linr"  time="-9999999/1" value="1" leadInLength="0/1"  />
             </VectorParam>
             <VectorParam id="12698"  name="anchor">
              <InterpolatingParam id="12699" interp="linr"  time="0/1" value="0" leadInLength="0/1"  />
              <InterpolatingParam id="12700" interp="linr"  time="0/1" value="0" leadInLength="0/1"  />
              <InterpolatingParam id="12701" interp="linr"  time="0/1" value="0" leadInLength="0/1"  />
             </VectorParam>
            </Transformer>
            <Parameters>
             <VectorParam id="12702"  name="sourceCrop">
              <InterpolatingParam id="12703" interp="linr"  time="0/1" value="0" leadInLength="0/1"  />
              <InterpolatingParam id="12704" interp="linr"  time="0/1" value="0" leadInLength="0/1"  />
              <InterpolatingParam id="12705" interp="linr"  time="0/1" value="0" leadInLength="0/1"  />
              <InterpolatingParam id="12706" interp="linr"  time="0/1" value="0" leadInLength="0/1"  />
             </VectorParam>
             <VectorParam id="12707"  name="geometryCrop">
              <InterpolatingParam id="12708" interp="linr"  time="-9999999/1" value="0" leadInLength="0/1"  />
              <InterpolatingParam id="12709" interp="linr"  time="-9999999/1" value="0" leadInLength="0/1"  />
              <InterpolatingParam id="12710" interp="linr"  time="-9999999/1" value="0" leadInLength="0/1"  />
              <InterpolatingParam id="12711" interp="linr"  time="-9999999/1" value="0" leadInLength="0/1"  />
             </VectorParam>
             <InterpolatingParam id="12712" interp="linr"  time="-9999999/1" value="1" leadInLength="0/1"  name="opacity"/>
            </Parameters>
            <Attributes>
             <Attribute id="12713" value="" name="ident"/>
            </Attributes>
            <MetaData>
             <entry key="WinSubProjectDisplayName" val=""/>
            </MetaData>
            <ExtraData>
             <Entry key="ZoomPanBin">
              <ZoomPanBin id="12714"  >
               <ZoomPanKeyframes>
                <ZoomPanKeyframe id="12715" timeRangeEnd="-9999999/1" timeRangeDuration="0/1" interpolaterName=""  />
               </ZoomPanKeyframes>
              </ZoomPanBin>
             </Entry>
            </ExtraData>
           </IMFile>
           <VMFile id="12716" start="4331" duration="31" scalar="1/1" mediaStart="4315/1" mediaDuration="31/1" trackNumber="0" src="4" >
            <Transformer>
             <VectorParam id="12717"  name="translation">
              <InterpolatingParam id="12718" interp="linr"  time="-9999999/1" value="0" leadInLength="0/1"  />
              <InterpolatingParam id="12719" interp="linr"  time="-9999999/1" value="0" leadInLength="0/1"  />
              <InterpolatingParam id="12720" interp="linr"  time="-9999999/1" value="0" leadInLength="0/1"  />
             </VectorParam>
             <VectorParam id="12721"  name="rotation">
              <InterpolatingParam id="12722" interp="linr"  time="-9999999/1" value="0" leadInLength="0/1"  />
              <InterpolatingParam id="12723" interp="linr"  time="-9999999/1" value="0" leadInLength="0/1"  />
              <InterpolatingParam id="12724" interp="linr"  time="-9999999/1" value="0" leadInLength="0/1"  />
             </VectorParam>
             <VectorParam id="12725"  name="shear">
              <InterpolatingParam id="12726" interp="linr"  time="-9999999/1" value="0" leadInLength="0/1"  />
              <InterpolatingParam id="12727" interp="linr"  time="-9999999/1" value="0" leadInLength="0/1"  />
              <InterpolatingParam id="12728" interp="linr"  time="-9999999/1" value="0" leadInLength="0/1"  />
             </VectorParam>
             <VectorParam id="12729"  name="scale">
              <InterpolatingParam id="12730" interp="linr"  time="-9999999/1" value="1" leadInLength="0/1"  />
              <InterpolatingParam id="12731" interp="linr"  time="-9999999/1" value="1" leadInLength="0/1"  />
              <InterpolatingParam id="12732" interp="linr"  time="-9999999/1" value="1" leadInLength="0/1"  />
             </VectorParam>
             <VectorParam id="12733"  name="anchor">
              <InterpolatingParam id="12734" interp="linr"  time="0/1" value="0" leadInLength="0/1"  />
              <InterpolatingParam id="12735" interp="linr"  time="0/1" value="0" leadInLength="0/1"  />
              <InterpolatingParam id="12736" interp="linr"  time="0/1" value="0" leadInLength="0/1"  />
             </VectorParam>
            </Transformer>
            <Parameters>
             <VectorParam id="12737"  name="sourceCrop">
              <InterpolatingParam id="12738" interp="linr"  time="0/1" value="0" leadInLength="0/1"  />
              <InterpolatingParam id="12739" interp="linr"  time="0/1" value="0" leadInLength="0/1"  />
              <InterpolatingParam id="12740" interp="linr"  time="0/1" value="0" leadInLength="0/1"  />
              <InterpolatingParam id="12741" interp="linr"  time="0/1" value="0" leadInLength="0/1"  />
             </VectorParam>
             <VectorParam id="12742"  name="geometryCrop">
              <InterpolatingParam id="12743" interp="linr"  time="-9999999/1" value="0" leadInLength="0/1"  />
              <InterpolatingParam id="12744" interp="linr"  time="-9999999/1" value="0" leadInLength="0/1"  />
              <InterpolatingParam id="12745" interp="linr"  time="-9999999/1" value="0" leadInLength="0/1"  />
              <InterpolatingParam id="12746" interp="linr"  time="-9999999/1" value="0" leadInLength="0/1"  />
             </VectorParam>
             <InterpolatingParam id="12747" interp="linr"  time="-9999999/1" value="1" leadInLength="0/1"  name="opacity"/>
            </Parameters>
            <Attributes>
             <Attribute id="12748" value="" name="ident"/>
            </Attributes>
            <MetaData>
             <entry key="WinSubProjectDisplayName" val=""/>
            </MetaData>
            <ExtraData>
             <Entry key="ZoomPanBin">
              <ZoomPanBin id="12749"  >
               <ZoomPanKeyframes>
                <ZoomPanKeyframe id="12750" timeRangeEnd="-9999999/1" timeRangeDuration="0/1" interpolaterName=""  />
               </ZoomPanKeyframes>
              </ZoomPanBin>
             </Entry>
            </ExtraData>
           </VMFile>
           <VMFile id="12751" start="4362" duration="95" scalar="1/1" mediaStart="4751/1" mediaDuration="95/1" trackNumber="0" src="4" >
            <Transformer>
             <VectorParam id="12752"  name="translation">
              <InterpolatingParam id="12753" interp="linr"  time="-9999999/1" value="0" leadInLength="0/1"  />
              <InterpolatingParam id="12754" interp="linr"  time="-9999999/1" value="0" leadInLength="0/1"  />
              <InterpolatingParam id="12755" interp="linr"  time="-9999999/1" value="0" leadInLength="0/1"  />
             </VectorParam>
             <VectorParam id="12756"  name="rotation">
              <InterpolatingParam id="12757" interp="linr"  time="-9999999/1" value="0" leadInLength="0/1"  />
              <InterpolatingParam id="12758" interp="linr"  time="-9999999/1" value="0" leadInLength="0/1"  />
              <InterpolatingParam id="12759" interp="linr"  time="-9999999/1" value="0" leadInLength="0/1"  />
             </VectorParam>
             <VectorParam id="12760"  name="shear">
              <InterpolatingParam id="12761" interp="linr"  time="-9999999/1" value="0" leadInLength="0/1"  />
              <InterpolatingParam id="12762" interp="linr"  time="-9999999/1" value="0" leadInLength="0/1"  />
              <InterpolatingParam id="12763" interp="linr"  time="-9999999/1" value="0" leadInLength="0/1"  />
             </VectorParam>
             <VectorParam id="12764"  name="scale">
              <InterpolatingParam id="12765" interp="linr"  time="-9999999/1" value="1" leadInLength="0/1"  />
              <InterpolatingParam id="12766" interp="linr"  time="-9999999/1" value="1" leadInLength="0/1"  />
              <InterpolatingParam id="12767" interp="linr"  time="-9999999/1" value="1" leadInLength="0/1"  />
             </VectorParam>
             <VectorParam id="12768"  name="anchor">
              <InterpolatingParam id="12769" interp="linr"  time="0/1" value="0" leadInLength="0/1"  />
              <InterpolatingParam id="12770" interp="linr"  time="0/1" value="0" leadInLength="0/1"  />
              <InterpolatingParam id="12771" interp="linr"  time="0/1" value="0" leadInLength="0/1"  />
             </VectorParam>
            </Transformer>
            <Parameters>
             <VectorParam id="12772"  name="sourceCrop">
              <InterpolatingParam id="12773" interp="linr"  time="0/1" value="0" leadInLength="0/1"  />
              <InterpolatingParam id="12774" interp="linr"  time="0/1" value="0" leadInLength="0/1"  />
              <InterpolatingParam id="12775" interp="linr"  time="0/1" value="0" leadInLength="0/1"  />
              <InterpolatingParam id="12776" interp="linr"  time="0/1" value="0" leadInLength="0/1"  />
             </VectorParam>
             <VectorParam id="12777"  name="geometryCrop">
              <InterpolatingParam id="12778" interp="linr"  time="-9999999/1" value="0" leadInLength="0/1"  />
              <InterpolatingParam id="12779" interp="linr"  time="-9999999/1" value="0" leadInLength="0/1"  />
              <InterpolatingParam id="12780" interp="linr"  time="-9999999/1" value="0" leadInLength="0/1"  />
              <InterpolatingParam id="12781" interp="linr"  time="-9999999/1" value="0" leadInLength="0/1"  />
             </VectorParam>
             <InterpolatingParam id="12782" interp="linr"  time="-9999999/1" value="1" leadInLength="0/1"  name="opacity"/>
            </Parameters>
            <Attributes>
             <Attribute id="12783" value="" name="ident"/>
            </Attributes>
            <MetaData>
             <entry key="WinSubProjectDisplayName" val=""/>
            </MetaData>
            <ExtraData>
             <Entry key="ZoomPanBin">
              <ZoomPanBin id="12784"  >
               <ZoomPanKeyframes>
                <ZoomPanKeyframe id="12785" timeRangeEnd="-9999999/1" timeRangeDuration="0/1" interpolaterName=""  />
               </ZoomPanKeyframes>
              </ZoomPanBin>
             </Entry>
            </ExtraData>
           </VMFile>
           <IMFile id="12786" start="4457" duration="270" scalar="1/1" mediaStart="4846/1" mediaDuration="1/1" trackNumber="0" src="4" trimStartSum="0/1" >
            <Transformer>
             <VectorParam id="12787"  name="translation">
              <InterpolatingParam id="12788" interp="linr"  time="-9999999/1" value="0" leadInLength="0/1"  />
              <InterpolatingParam id="12789" interp="linr"  time="-9999999/1" value="0" leadInLength="0/1"  />
              <InterpolatingParam id="12790" interp="linr"  time="-9999999/1" value="0" leadInLength="0/1"  />
             </VectorParam>
             <VectorParam id="12791"  name="rotation">
              <InterpolatingParam id="12792" interp="linr"  time="-9999999/1" value="0" leadInLength="0/1"  />
              <InterpolatingParam id="12793" interp="linr"  time="-9999999/1" value="0" leadInLength="0/1"  />
              <InterpolatingParam id="12794" interp="linr"  time="-9999999/1" value="0" leadInLength="0/1"  />
             </VectorParam>
             <VectorParam id="12795"  name="shear">
              <InterpolatingParam id="12796" interp="linr"  time="-9999999/1" value="0" leadInLength="0/1"  />
              <InterpolatingParam id="12797" interp="linr"  time="-9999999/1" value="0" leadInLength="0/1"  />
              <InterpolatingParam id="12798" interp="linr"  time="-9999999/1" value="0" leadInLength="0/1"  />
             </VectorParam>
             <VectorParam id="12799"  name="scale">
              <InterpolatingParam id="12800" interp="linr"  time="-9999999/1" value="1" leadInLength="0/1"  />
              <InterpolatingParam id="12801" interp="linr"  time="-9999999/1" value="1" leadInLength="0/1"  />
              <InterpolatingParam id="12802" interp="linr"  time="-9999999/1" value="1" leadInLength="0/1"  />
             </VectorParam>
             <VectorParam id="12803"  name="anchor">
              <InterpolatingParam id="12804" interp="linr"  time="0/1" value="0" leadInLength="0/1"  />
              <InterpolatingParam id="12805" interp="linr"  time="0/1" value="0" leadInLength="0/1"  />
              <InterpolatingParam id="12806" interp="linr"  time="0/1" value="0" leadInLength="0/1"  />
             </VectorParam>
            </Transformer>
            <Parameters>
             <VectorParam id="12807"  name="sourceCrop">
              <InterpolatingParam id="12808" interp="linr"  time="0/1" value="0" leadInLength="0/1"  />
              <InterpolatingParam id="12809" interp="linr"  time="0/1" value="0" leadInLength="0/1"  />
              <InterpolatingParam id="12810" interp="linr"  time="0/1" value="0" leadInLength="0/1"  />
              <InterpolatingParam id="12811" interp="linr"  time="0/1" value="0" leadInLength="0/1"  />
             </VectorParam>
             <VectorParam id="12812"  name="geometryCrop">
              <InterpolatingParam id="12813" interp="linr"  time="-9999999/1" value="0" leadInLength="0/1"  />
              <InterpolatingParam id="12814" interp="linr"  time="-9999999/1" value="0" leadInLength="0/1"  />
              <InterpolatingParam id="12815" interp="linr"  time="-9999999/1" value="0" leadInLength="0/1"  />
              <InterpolatingParam id="12816" interp="linr"  time="-9999999/1" value="0" leadInLength="0/1"  />
             </VectorParam>
             <InterpolatingParam id="12817" interp="linr"  time="-9999999/1" value="1" leadInLength="0/1"  name="opacity"/>
            </Parameters>
            <Attributes>
             <Attribute id="12818" value="" name="ident"/>
            </Attributes>
            <MetaData>
             <entry key="WinSubProjectDisplayName" val=""/>
            </MetaData>
            <ExtraData>
             <Entry key="ZoomPanBin">
              <ZoomPanBin id="12819"  >
               <ZoomPanKeyframes>
                <ZoomPanKeyframe id="12820" timeRangeEnd="-9999999/1" timeRangeDuration="0/1" interpolaterName=""  />
               </ZoomPanKeyframes>
              </ZoomPanBin>
             </Entry>
            </ExtraData>
           </IMFile>
           <VMFile id="12821" start="4727" duration="17" scalar="1/1" mediaStart="4846/1" mediaDuration="17/1" trackNumber="0" src="4" >
            <Transformer>
             <VectorParam id="12822"  name="translation">
              <InterpolatingParam id="12823" interp="linr"  time="-9999999/1" value="0" leadInLength="0/1"  />
              <InterpolatingParam id="12824" interp="linr"  time="-9999999/1" value="0" leadInLength="0/1"  />
              <InterpolatingParam id="12825" interp="linr"  time="-9999999/1" value="0" leadInLength="0/1"  />
             </VectorParam>
             <VectorParam id="12826"  name="rotation">
              <InterpolatingParam id="12827" interp="linr"  time="-9999999/1" value="0" leadInLength="0/1"  />
              <InterpolatingParam id="12828" interp="linr"  time="-9999999/1" value="0" leadInLength="0/1"  />
              <InterpolatingParam id="12829" interp="linr"  time="-9999999/1" value="0" leadInLength="0/1"  />
             </VectorParam>
             <VectorParam id="12830"  name="shear">
              <InterpolatingParam id="12831" interp="linr"  time="-9999999/1" value="0" leadInLength="0/1"  />
              <InterpolatingParam id="12832" interp="linr"  time="-9999999/1" value="0" leadInLength="0/1"  />
              <InterpolatingParam id="12833" interp="linr"  time="-9999999/1" value="0" leadInLength="0/1"  />
             </VectorParam>
             <VectorParam id="12834"  name="scale">
              <InterpolatingParam id="12835" interp="linr"  time="-9999999/1" value="1" leadInLength="0/1"  />
              <InterpolatingParam id="12836" interp="linr"  time="-9999999/1" value="1" leadInLength="0/1"  />
              <InterpolatingParam id="12837" interp="linr"  time="-9999999/1" value="1" leadInLength="0/1"  />
             </VectorParam>
             <VectorParam id="12838"  name="anchor">
              <InterpolatingParam id="12839" interp="linr"  time="0/1" value="0" leadInLength="0/1"  />
              <InterpolatingParam id="12840" interp="linr"  time="0/1" value="0" leadInLength="0/1"  />
              <InterpolatingParam id="12841" interp="linr"  time="0/1" value="0" leadInLength="0/1"  />
             </VectorParam>
            </Transformer>
            <Parameters>
             <VectorParam id="12842"  name="sourceCrop">
              <InterpolatingParam id="12843" interp="linr"  time="0/1" value="0" leadInLength="0/1"  />
              <InterpolatingParam id="12844" interp="linr"  time="0/1" value="0" leadInLength="0/1"  />
              <InterpolatingParam id="12845" interp="linr"  time="0/1" value="0" leadInLength="0/1"  />
              <InterpolatingParam id="12846" interp="linr"  time="0/1" value="0" leadInLength="0/1"  />
             </VectorParam>
             <VectorParam id="12847"  name="geometryCrop">
              <InterpolatingParam id="12848" interp="linr"  time="-9999999/1" value="0" leadInLength="0/1"  />
              <InterpolatingParam id="12849" interp="linr"  time="-9999999/1" value="0" leadInLength="0/1"  />
              <InterpolatingParam id="12850" interp="linr"  time="-9999999/1" value="0" leadInLength="0/1"  />
              <InterpolatingParam id="12851" interp="linr"  time="-9999999/1" value="0" leadInLength="0/1"  />
             </VectorParam>
             <InterpolatingParam id="12852" interp="linr"  time="-9999999/1" value="1" leadInLength="0/1"  name="opacity"/>
            </Parameters>
            <Attributes>
             <Attribute id="12853" value="" name="ident"/>
            </Attributes>
            <MetaData>
             <entry key="WinSubProjectDisplayName" val=""/>
            </MetaData>
            <ExtraData>
             <Entry key="ZoomPanBin">
              <ZoomPanBin id="12854"  >
               <ZoomPanKeyframes>
                <ZoomPanKeyframe id="12855" timeRangeEnd="-9999999/1" timeRangeDuration="0/1" interpolaterName=""  />
               </ZoomPanKeyframes>
              </ZoomPanBin>
             </Entry>
            </ExtraData>
           </VMFile>
           <VMFile id="12856" start="4744" duration="386" scalar="1/1" mediaStart="7805/1" mediaDuration="386/1" trackNumber="0" src="4" >
            <Transformer>
             <VectorParam id="12857"  name="translation">
              <InterpolatingParam id="12858" interp="linr"  time="-9999999/1" value="0" leadInLength="0/1"  />
              <InterpolatingParam id="12859" interp="linr"  time="-9999999/1" value="0" leadInLength="0/1"  />
              <InterpolatingParam id="12860" interp="linr"  time="-9999999/1" value="0" leadInLength="0/1"  />
             </VectorParam>
             <VectorParam id="12861"  name="rotation">
              <InterpolatingParam id="12862" interp="linr"  time="-9999999/1" value="0" leadInLength="0/1"  />
              <InterpolatingParam id="12863" interp="linr"  time="-9999999/1" value="0" leadInLength="0/1"  />
              <InterpolatingParam id="12864" interp="linr"  time="-9999999/1" value="0" leadInLength="0/1"  />
             </VectorParam>
             <VectorParam id="12865"  name="shear">
              <InterpolatingParam id="12866" interp="linr"  time="-9999999/1" value="0" leadInLength="0/1"  />
              <InterpolatingParam id="12867" interp="linr"  time="-9999999/1" value="0" leadInLength="0/1"  />
              <InterpolatingParam id="12868" interp="linr"  time="-9999999/1" value="0" leadInLength="0/1"  />
             </VectorParam>
             <VectorParam id="12869"  name="scale">
              <InterpolatingParam id="12870" interp="linr"  time="-9999999/1" value="1" leadInLength="0/1"  />
              <InterpolatingParam id="12871" interp="linr"  time="-9999999/1" value="1" leadInLength="0/1"  />
              <InterpolatingParam id="12872" interp="linr"  time="-9999999/1" value="1" leadInLength="0/1"  />
             </VectorParam>
             <VectorParam id="12873"  name="anchor">
              <InterpolatingParam id="12874" interp="linr"  time="0/1" value="0" leadInLength="0/1"  />
              <InterpolatingParam id="12875" interp="linr"  time="0/1" value="0" leadInLength="0/1"  />
              <InterpolatingParam id="12876" interp="linr"  time="0/1" value="0" leadInLength="0/1"  />
             </VectorParam>
            </Transformer>
            <Parameters>
             <VectorParam id="12877"  name="sourceCrop">
              <InterpolatingParam id="12878" interp="linr"  time="0/1" value="0" leadInLength="0/1"  />
              <InterpolatingParam id="12879" interp="linr"  time="0/1" value="0" leadInLength="0/1"  />
              <InterpolatingParam id="12880" interp="linr"  time="0/1" value="0" leadInLength="0/1"  />
              <InterpolatingParam id="12881" interp="linr"  time="0/1" value="0" leadInLength="0/1"  />
             </VectorParam>
             <VectorParam id="12882"  name="geometryCrop">
              <InterpolatingParam id="12883" interp="linr"  time="-9999999/1" value="0" leadInLength="0/1"  />
              <InterpolatingParam id="12884" interp="linr"  time="-9999999/1" value="0" leadInLength="0/1"  />
              <InterpolatingParam id="12885" interp="linr"  time="-9999999/1" value="0" leadInLength="0/1"  />
              <InterpolatingParam id="12886" interp="linr"  time="-9999999/1" value="0" leadInLength="0/1"  />
             </VectorParam>
             <InterpolatingParam id="12887" interp="linr"  time="-9999999/1" value="1" leadInLength="0/1"  name="opacity"/>
            </Parameters>
            <Attributes>
             <Attribute id="12888" value="" name="ident"/>
            </Attributes>
            <MetaData>
             <entry key="WinSubProjectDisplayName" val=""/>
            </MetaData>
            <ExtraData>
             <Entry key="ZoomPanBin">
              <ZoomPanBin id="12889"  >
               <ZoomPanKeyframes>
                <ZoomPanKeyframe id="12890" timeRangeEnd="-9999999/1" timeRangeDuration="0/1" interpolaterName=""  />
               </ZoomPanKeyframes>
              </ZoomPanBin>
             </Entry>
            </ExtraData>
           </VMFile>
           <VMFile id="12891" start="5130" duration="922" scalar="1/1" mediaStart="8371/1" mediaDuration="922/1" trackNumber="0" src="4" >
            <Transformer>
             <VectorParam id="12892"  name="translation">
              <InterpolatingParam id="12893" interp="linr"  time="-9999999/1" value="0" leadInLength="0/1"  />
              <InterpolatingParam id="12894" interp="linr"  time="-9999999/1" value="0" leadInLength="0/1"  />
              <InterpolatingParam id="12895" interp="linr"  time="-9999999/1" value="0" leadInLength="0/1"  />
             </VectorParam>
             <VectorParam id="12896"  name="rotation">
              <InterpolatingParam id="12897" interp="linr"  time="-9999999/1" value="0" leadInLength="0/1"  />
              <InterpolatingParam id="12898" interp="linr"  time="-9999999/1" value="0" leadInLength="0/1"  />
              <InterpolatingParam id="12899" interp="linr"  time="-9999999/1" value="0" leadInLength="0/1"  />
             </VectorParam>
             <VectorParam id="12900"  name="shear">
              <InterpolatingParam id="12901" interp="linr"  time="-9999999/1" value="0" leadInLength="0/1"  />
              <InterpolatingParam id="12902" interp="linr"  time="-9999999/1" value="0" leadInLength="0/1"  />
              <InterpolatingParam id="12903" interp="linr"  time="-9999999/1" value="0" leadInLength="0/1"  />
             </VectorParam>
             <VectorParam id="12904"  name="scale">
              <InterpolatingParam id="12905" interp="linr"  time="-9999999/1" value="1" leadInLength="0/1"  />
              <InterpolatingParam id="12906" interp="linr"  time="-9999999/1" value="1" leadInLength="0/1"  />
              <InterpolatingParam id="12907" interp="linr"  time="-9999999/1" value="1" leadInLength="0/1"  />
             </VectorParam>
             <VectorParam id="12908"  name="anchor">
              <InterpolatingParam id="12909" interp="linr"  time="0/1" value="0" leadInLength="0/1"  />
              <InterpolatingParam id="12910" interp="linr"  time="0/1" value="0" leadInLength="0/1"  />
              <InterpolatingParam id="12911" interp="linr"  time="0/1" value="0" leadInLength="0/1"  />
             </VectorParam>
            </Transformer>
            <Parameters>
             <VectorParam id="12912"  name="sourceCrop">
              <InterpolatingParam id="12913" interp="linr"  time="0/1" value="0" leadInLength="0/1"  />
              <InterpolatingParam id="12914" interp="linr"  time="0/1" value="0" leadInLength="0/1"  />
              <InterpolatingParam id="12915" interp="linr"  time="0/1" value="0" leadInLength="0/1"  />
              <InterpolatingParam id="12916" interp="linr"  time="0/1" value="0" leadInLength="0/1"  />
             </VectorParam>
             <VectorParam id="12917"  name="geometryCrop">
              <InterpolatingParam id="12918" interp="linr"  time="-9999999/1" value="0" leadInLength="0/1"  />
              <InterpolatingParam id="12919" interp="linr"  time="-9999999/1" value="0" leadInLength="0/1"  />
              <InterpolatingParam id="12920" interp="linr"  time="-9999999/1" value="0" leadInLength="0/1"  />
              <InterpolatingParam id="12921" interp="linr"  time="-9999999/1" value="0" leadInLength="0/1"  />
             </VectorParam>
             <InterpolatingParam id="12922" interp="linr"  time="-9999999/1" value="1" leadInLength="0/1"  name="opacity"/>
            </Parameters>
            <Attributes>
             <Attribute id="12923" value="" name="ident"/>
            </Attributes>
            <MetaData>
             <entry key="WinSubProjectDisplayName" val=""/>
            </MetaData>
            <ExtraData>
             <Entry key="ZoomPanBin">
              <ZoomPanBin id="12924"  >
               <ZoomPanKeyframes>
                <ZoomPanKeyframe id="12925" timeRangeEnd="-9999999/1" timeRangeDuration="0/1" interpolaterName=""  />
               </ZoomPanKeyframes>
              </ZoomPanBin>
             </Entry>
            </ExtraData>
           </VMFile>
           <IMFile id="12926" start="6052" duration="30" scalar="1/1" mediaStart="9292/1" mediaDuration="1/1" trackNumber="0" src="4" trimStartSum="0/1" >
            <Transformer>
             <VectorParam id="12927"  name="translation">
              <InterpolatingParam id="12928" interp="linr"  time="-9999999/1" value="0" leadInLength="0/1"  />
              <InterpolatingParam id="12929" interp="linr"  time="-9999999/1" value="0" leadInLength="0/1"  />
              <InterpolatingParam id="12930" interp="linr"  time="-9999999/1" value="0" leadInLength="0/1"  />
             </VectorParam>
             <VectorParam id="12931"  name="rotation">
              <InterpolatingParam id="12932" interp="linr"  time="-9999999/1" value="0" leadInLength="0/1"  />
              <InterpolatingParam id="12933" interp="linr"  time="-9999999/1" value="0" leadInLength="0/1"  />
              <InterpolatingParam id="12934" interp="linr"  time="-9999999/1" value="0" leadInLength="0/1"  />
             </VectorParam>
             <VectorParam id="12935"  name="shear">
              <InterpolatingParam id="12936" interp="linr"  time="-9999999/1" value="0" leadInLength="0/1"  />
              <InterpolatingParam id="12937" interp="linr"  time="-9999999/1" value="0" leadInLength="0/1"  />
              <InterpolatingParam id="12938" interp="linr"  time="-9999999/1" value="0" leadInLength="0/1"  />
             </VectorParam>
             <VectorParam id="12939"  name="scale">
              <InterpolatingParam id="12940" interp="linr"  time="-9999999/1" value="1" leadInLength="0/1"  />
              <InterpolatingParam id="12941" interp="linr"  time="-9999999/1" value="1" leadInLength="0/1"  />
              <InterpolatingParam id="12942" interp="linr"  time="-9999999/1" value="1" leadInLength="0/1"  />
             </VectorParam>
             <VectorParam id="12943"  name="anchor">
              <InterpolatingParam id="12944" interp="linr"  time="0/1" value="0" leadInLength="0/1"  />
              <InterpolatingParam id="12945" interp="linr"  time="0/1" value="0" leadInLength="0/1"  />
              <InterpolatingParam id="12946" interp="linr"  time="0/1" value="0" leadInLength="0/1"  />
             </VectorParam>
            </Transformer>
            <Parameters>
             <VectorParam id="12947"  name="sourceCrop">
              <InterpolatingParam id="12948" interp="linr"  time="0/1" value="0" leadInLength="0/1"  />
              <InterpolatingParam id="12949" interp="linr"  time="0/1" value="0" leadInLength="0/1"  />
              <InterpolatingParam id="12950" interp="linr"  time="0/1" value="0" leadInLength="0/1"  />
              <InterpolatingParam id="12951" interp="linr"  time="0/1" value="0" leadInLength="0/1"  />
             </VectorParam>
             <VectorParam id="12952"  name="geometryCrop">
              <InterpolatingParam id="12953" interp="linr"  time="-9999999/1" value="0" leadInLength="0/1"  />
              <InterpolatingParam id="12954" interp="linr"  time="-9999999/1" value="0" leadInLength="0/1"  />
              <InterpolatingParam id="12955" interp="linr"  time="-9999999/1" value="0" leadInLength="0/1"  />
              <InterpolatingParam id="12956" interp="linr"  time="-9999999/1" value="0" leadInLength="0/1"  />
             </VectorParam>
             <InterpolatingParam id="12957" interp="linr"  time="-9999999/1" value="1" leadInLength="0/1"  name="opacity"/>
            </Parameters>
            <Attributes>
             <Attribute id="12958" value="" name="ident"/>
            </Attributes>
            <MetaData>
             <entry key="WinSubProjectDisplayName" val=""/>
            </MetaData>
            <ExtraData>
             <Entry key="ZoomPanBin">
              <ZoomPanBin id="12959"  >
               <ZoomPanKeyframes>
                <ZoomPanKeyframe id="12960" timeRangeEnd="-9999999/1" timeRangeDuration="0/1" interpolaterName=""  />
               </ZoomPanKeyframes>
              </ZoomPanBin>
             </Entry>
            </ExtraData>
           </IMFile>
           <VMFile id="12961" start="6082" duration="86" scalar="1/1" mediaStart="9292/1" mediaDuration="86/1" trackNumber="0" src="4" >
            <Transformer>
             <VectorParam id="12962"  name="translation">
              <InterpolatingParam id="12963" interp="linr"  time="-9999999/1" value="0" leadInLength="0/1"  />
              <InterpolatingParam id="12964" interp="linr"  time="-9999999/1" value="0" leadInLength="0/1"  />
              <InterpolatingParam id="12965" interp="linr"  time="-9999999/1" value="0" leadInLength="0/1"  />
             </VectorParam>
             <VectorParam id="12966"  name="rotation">
              <InterpolatingParam id="12967" interp="linr"  time="-9999999/1" value="0" leadInLength="0/1"  />
              <InterpolatingParam id="12968" interp="linr"  time="-9999999/1" value="0" leadInLength="0/1"  />
              <InterpolatingParam id="12969" interp="linr"  time="-9999999/1" value="0" leadInLength="0/1"  />
             </VectorParam>
             <VectorParam id="12970"  name="shear">
              <InterpolatingParam id="12971" interp="linr"  time="-9999999/1" value="0" leadInLength="0/1"  />
              <InterpolatingParam id="12972" interp="linr"  time="-9999999/1" value="0" leadInLength="0/1"  />
              <InterpolatingParam id="12973" interp="linr"  time="-9999999/1" value="0" leadInLength="0/1"  />
             </VectorParam>
             <VectorParam id="12974"  name="scale">
              <InterpolatingParam id="12975" interp="linr"  time="-9999999/1" value="1" leadInLength="0/1"  />
              <InterpolatingParam id="12976" interp="linr"  time="-9999999/1" value="1" leadInLength="0/1"  />
              <InterpolatingParam id="12977" interp="linr"  time="-9999999/1" value="1" leadInLength="0/1"  />
             </VectorParam>
             <VectorParam id="12978"  name="anchor">
              <InterpolatingParam id="12979" interp="linr"  time="0/1" value="0" leadInLength="0/1"  />
              <InterpolatingParam id="12980" interp="linr"  time="0/1" value="0" leadInLength="0/1"  />
              <InterpolatingParam id="12981" interp="linr"  time="0/1" value="0" leadInLength="0/1"  />
             </VectorParam>
            </Transformer>
            <Parameters>
             <VectorParam id="12982"  name="sourceCrop">
              <InterpolatingParam id="12983" interp="linr"  time="0/1" value="0" leadInLength="0/1"  />
              <InterpolatingParam id="12984" interp="linr"  time="0/1" value="0" leadInLength="0/1"  />
              <InterpolatingParam id="12985" interp="linr"  time="0/1" value="0" leadInLength="0/1"  />
              <InterpolatingParam id="12986" interp="linr"  time="0/1" value="0" leadInLength="0/1"  />
             </VectorParam>
             <VectorParam id="12987"  name="geometryCrop">
              <InterpolatingParam id="12988" interp="linr"  time="-9999999/1" value="0" leadInLength="0/1"  />
              <InterpolatingParam id="12989" interp="linr"  time="-9999999/1" value="0" leadInLength="0/1"  />
              <InterpolatingParam id="12990" interp="linr"  time="-9999999/1" value="0" leadInLength="0/1"  />
              <InterpolatingParam id="12991" interp="linr"  time="-9999999/1" value="0" leadInLength="0/1"  />
             </VectorParam>
             <InterpolatingParam id="12992" interp="linr"  time="-9999999/1" value="1" leadInLength="0/1"  name="opacity"/>
            </Parameters>
            <Attributes>
             <Attribute id="12993" value="" name="ident"/>
            </Attributes>
            <MetaData>
             <entry key="WinSubProjectDisplayName" val=""/>
            </MetaData>
            <ExtraData>
             <Entry key="ZoomPanBin">
              <ZoomPanBin id="12994"  >
               <ZoomPanKeyframes>
                <ZoomPanKeyframe id="12995" timeRangeEnd="-9999999/1" timeRangeDuration="0/1" interpolaterName=""  />
               </ZoomPanKeyframes>
              </ZoomPanBin>
             </Entry>
            </ExtraData>
           </VMFile>
           <VMFile id="12996" start="6168" duration="555" scalar="1/1" mediaStart="9516/1" mediaDuration="555/1" trackNumber="0" src="4" >
            <Transformer>
             <VectorParam id="12997"  name="translation">
              <InterpolatingParam id="12998" interp="linr"  time="-9999999/1" value="0" leadInLength="0/1"  />
              <InterpolatingParam id="12999" interp="linr"  time="-9999999/1" value="0" leadInLength="0/1"  />
              <InterpolatingParam id="13000" interp="linr"  time="-9999999/1" value="0" leadInLength="0/1"  />
             </VectorParam>
             <VectorParam id="13001"  name="rotation">
              <InterpolatingParam id="13002" interp="linr"  time="-9999999/1" value="0" leadInLength="0/1"  />
              <InterpolatingParam id="13003" interp="linr"  time="-9999999/1" value="0" leadInLength="0/1"  />
              <InterpolatingParam id="13004" interp="linr"  time="-9999999/1" value="0" leadInLength="0/1"  />
             </VectorParam>
             <VectorParam id="13005"  name="shear">
              <InterpolatingParam id="13006" interp="linr"  time="-9999999/1" value="0" leadInLength="0/1"  />
              <InterpolatingParam id="13007" interp="linr"  time="-9999999/1" value="0" leadInLength="0/1"  />
              <InterpolatingParam id="13008" interp="linr"  time="-9999999/1" value="0" leadInLength="0/1"  />
             </VectorParam>
             <VectorParam id="13009"  name="scale">
              <InterpolatingParam id="13010" interp="linr"  time="-9999999/1" value="1" leadInLength="0/1"  />
              <InterpolatingParam id="13011" interp="linr"  time="-9999999/1" value="1" leadInLength="0/1"  />
              <InterpolatingParam id="13012" interp="linr"  time="-9999999/1" value="1" leadInLength="0/1"  />
             </VectorParam>
             <VectorParam id="13013"  name="anchor">
              <InterpolatingParam id="13014" interp="linr"  time="0/1" value="0" leadInLength="0/1"  />
              <InterpolatingParam id="13015" interp="linr"  time="0/1" value="0" leadInLength="0/1"  />
              <InterpolatingParam id="13016" interp="linr"  time="0/1" value="0" leadInLength="0/1"  />
             </VectorParam>
            </Transformer>
            <Parameters>
             <VectorParam id="13017"  name="sourceCrop">
              <InterpolatingParam id="13018" interp="linr"  time="0/1" value="0" leadInLength="0/1"  />
              <InterpolatingParam id="13019" interp="linr"  time="0/1" value="0" leadInLength="0/1"  />
              <InterpolatingParam id="13020" interp="linr"  time="0/1" value="0" leadInLength="0/1"  />
              <InterpolatingParam id="13021" interp="linr"  time="0/1" value="0" leadInLength="0/1"  />
             </VectorParam>
             <VectorParam id="13022"  name="geometryCrop">
              <InterpolatingParam id="13023" interp="linr"  time="-9999999/1" value="0" leadInLength="0/1"  />
              <InterpolatingParam id="13024" interp="linr"  time="-9999999/1" value="0" leadInLength="0/1"  />
              <InterpolatingParam id="13025" interp="linr"  time="-9999999/1" value="0" leadInLength="0/1"  />
              <InterpolatingParam id="13026" interp="linr"  time="-9999999/1" value="0" leadInLength="0/1"  />
             </VectorParam>
             <InterpolatingParam id="13027" interp="linr"  time="-9999999/1" value="1" leadInLength="0/1"  name="opacity"/>
            </Parameters>
            <Attributes>
             <Attribute id="13028" value="" name="ident"/>
            </Attributes>
            <MetaData>
             <entry key="WinSubProjectDisplayName" val=""/>
            </MetaData>
            <ExtraData>
             <Entry key="ZoomPanBin">
              <ZoomPanBin id="13029"  >
               <ZoomPanKeyframes>
                <ZoomPanKeyframe id="13030" timeRangeEnd="-9999999/1" timeRangeDuration="0/1" interpolaterName=""  />
               </ZoomPanKeyframes>
              </ZoomPanBin>
             </Entry>
            </ExtraData>
           </VMFile>
           <VMFile id="13031" start="6723" duration="460" scalar="1/1" mediaStart="11597/1" mediaDuration="460/1" trackNumber="0" src="4" >
            <Transformer>
             <VectorParam id="13032"  name="translation">
              <InterpolatingParam id="13033" interp="linr"  time="-9999999/1" value="0" leadInLength="0/1"  />
              <InterpolatingParam id="13034" interp="linr"  time="-9999999/1" value="0" leadInLength="0/1"  />
              <InterpolatingParam id="13035" interp="linr"  time="-9999999/1" value="0" leadInLength="0/1"  />
             </VectorParam>
             <VectorParam id="13036"  name="rotation">
              <InterpolatingParam id="13037" interp="linr"  time="-9999999/1" value="0" leadInLength="0/1"  />
              <InterpolatingParam id="13038" interp="linr"  time="-9999999/1" value="0" leadInLength="0/1"  />
              <InterpolatingParam id="13039" interp="linr"  time="-9999999/1" value="0" leadInLength="0/1"  />
             </VectorParam>
             <VectorParam id="13040"  name="shear">
              <InterpolatingParam id="13041" interp="linr"  time="-9999999/1" value="0" leadInLength="0/1"  />
              <InterpolatingParam id="13042" interp="linr"  time="-9999999/1" value="0" leadInLength="0/1"  />
              <InterpolatingParam id="13043" interp="linr"  time="-9999999/1" value="0" leadInLength="0/1"  />
             </VectorParam>
             <VectorParam id="13044"  name="scale">
              <InterpolatingParam id="13045" interp="linr"  time="-9999999/1" value="1" leadInLength="0/1"  />
              <InterpolatingParam id="13046" interp="linr"  time="-9999999/1" value="1" leadInLength="0/1"  />
              <InterpolatingParam id="13047" interp="linr"  time="-9999999/1" value="1" leadInLength="0/1"  />
             </VectorParam>
             <VectorParam id="13048"  name="anchor">
              <InterpolatingParam id="13049" interp="linr"  time="0/1" value="0" leadInLength="0/1"  />
              <InterpolatingParam id="13050" interp="linr"  time="0/1" value="0" leadInLength="0/1"  />
              <InterpolatingParam id="13051" interp="linr"  time="0/1" value="0" leadInLength="0/1"  />
             </VectorParam>
            </Transformer>
            <Parameters>
             <VectorParam id="13052"  name="sourceCrop">
              <InterpolatingParam id="13053" interp="linr"  time="0/1" value="0" leadInLength="0/1"  />
              <InterpolatingParam id="13054" interp="linr"  time="0/1" value="0" leadInLength="0/1"  />
              <InterpolatingParam id="13055" interp="linr"  time="0/1" value="0" leadInLength="0/1"  />
              <InterpolatingParam id="13056" interp="linr"  time="0/1" value="0" leadInLength="0/1"  />
             </VectorParam>
             <VectorParam id="13057"  name="geometryCrop">
              <InterpolatingParam id="13058" interp="linr"  time="-9999999/1" value="0" leadInLength="0/1"  />
              <InterpolatingParam id="13059" interp="linr"  time="-9999999/1" value="0" leadInLength="0/1"  />
              <InterpolatingParam id="13060" interp="linr"  time="-9999999/1" value="0" leadInLength="0/1"  />
              <InterpolatingParam id="13061" interp="linr"  time="-9999999/1" value="0" leadInLength="0/1"  />
             </VectorParam>
             <InterpolatingParam id="13062" interp="linr"  time="-9999999/1" value="1" leadInLength="0/1"  name="opacity"/>
            </Parameters>
            <Attributes>
             <Attribute id="13063" value="" name="ident"/>
            </Attributes>
            <MetaData>
             <entry key="WinSubProjectDisplayName" val=""/>
            </MetaData>
            <ExtraData>
             <Entry key="ZoomPanBin">
              <ZoomPanBin id="13064"  >
               <ZoomPanKeyframes>
                <ZoomPanKeyframe id="13065" timeRangeEnd="-9999999/1" timeRangeDuration="0/1" interpolaterName=""  />
               </ZoomPanKeyframes>
              </ZoomPanBin>
             </Entry>
            </ExtraData>
           </VMFile>
           <VMFile id="13066" start="7183" duration="350" scalar="1/1" mediaStart="12237/1" mediaDuration="350/1" trackNumber="0" src="4" >
            <Transformer>
             <VectorParam id="13067"  name="translation">
              <InterpolatingParam id="13068" interp="linr"  time="-9999999/1" value="0" leadInLength="0/1"  />
              <InterpolatingParam id="13069" interp="linr"  time="-9999999/1" value="0" leadInLength="0/1"  />
              <InterpolatingParam id="13070" interp="linr"  time="-9999999/1" value="0" leadInLength="0/1"  />
             </VectorParam>
             <VectorParam id="13071"  name="rotation">
              <InterpolatingParam id="13072" interp="linr"  time="-9999999/1" value="0" leadInLength="0/1"  />
              <InterpolatingParam id="13073" interp="linr"  time="-9999999/1" value="0" leadInLength="0/1"  />
              <InterpolatingParam id="13074" interp="linr"  time="-9999999/1" value="0" leadInLength="0/1"  />
             </VectorParam>
             <VectorParam id="13075"  name="shear">
              <InterpolatingParam id="13076" interp="linr"  time="-9999999/1" value="0" leadInLength="0/1"  />
              <InterpolatingParam id="13077" interp="linr"  time="-9999999/1" value="0" leadInLength="0/1"  />
              <InterpolatingParam id="13078" interp="linr"  time="-9999999/1" value="0" leadInLength="0/1"  />
             </VectorParam>
             <VectorParam id="13079"  name="scale">
              <InterpolatingParam id="13080" interp="linr"  time="-9999999/1" value="1" leadInLength="0/1"  />
              <InterpolatingParam id="13081" interp="linr"  time="-9999999/1" value="1" leadInLength="0/1"  />
              <InterpolatingParam id="13082" interp="linr"  time="-9999999/1" value="1" leadInLength="0/1"  />
             </VectorParam>
             <VectorParam id="13083"  name="anchor">
              <InterpolatingParam id="13084" interp="linr"  time="0/1" value="0" leadInLength="0/1"  />
              <InterpolatingParam id="13085" interp="linr"  time="0/1" value="0" leadInLength="0/1"  />
              <InterpolatingParam id="13086" interp="linr"  time="0/1" value="0" leadInLength="0/1"  />
             </VectorParam>
            </Transformer>
            <Parameters>
             <VectorParam id="13087"  name="sourceCrop">
              <InterpolatingParam id="13088" interp="linr"  time="0/1" value="0" leadInLength="0/1"  />
              <InterpolatingParam id="13089" interp="linr"  time="0/1" value="0" leadInLength="0/1"  />
              <InterpolatingParam id="13090" interp="linr"  time="0/1" value="0" leadInLength="0/1"  />
              <InterpolatingParam id="13091" interp="linr"  time="0/1" value="0" leadInLength="0/1"  />
             </VectorParam>
             <VectorParam id="13092"  name="geometryCrop">
              <InterpolatingParam id="13093" interp="linr"  time="-9999999/1" value="0" leadInLength="0/1"  />
              <InterpolatingParam id="13094" interp="linr"  time="-9999999/1" value="0" leadInLength="0/1"  />
              <InterpolatingParam id="13095" interp="linr"  time="-9999999/1" value="0" leadInLength="0/1"  />
              <InterpolatingParam id="13096" interp="linr"  time="-9999999/1" value="0" leadInLength="0/1"  />
             </VectorParam>
             <InterpolatingParam id="13097" interp="linr"  time="-9999999/1" value="1" leadInLength="0/1"  name="opacity"/>
            </Parameters>
            <Attributes>
             <Attribute id="13098" value="" name="ident"/>
            </Attributes>
            <MetaData>
             <entry key="WinSubProjectDisplayName" val=""/>
            </MetaData>
            <ExtraData>
             <Entry key="ZoomPanBin">
              <ZoomPanBin id="13099"  >
               <ZoomPanKeyframes>
                <ZoomPanKeyframe id="13100" timeRangeEnd="-9999999/1" timeRangeDuration="0/1" interpolaterName=""  />
               </ZoomPanKeyframes>
              </ZoomPanBin>
             </Entry>
            </ExtraData>
           </VMFile>
           <VMFile id="13101" start="7533" duration="128" scalar="1/1" mediaStart="15765/1" mediaDuration="128/1" trackNumber="0" src="4" >
            <Transformer>
             <VectorParam id="13102"  name="translation">
              <InterpolatingParam id="13103" interp="linr"  time="-9999999/1" value="0" leadInLength="0/1"  />
              <InterpolatingParam id="13104" interp="linr"  time="-9999999/1" value="0" leadInLength="0/1"  />
              <InterpolatingParam id="13105" interp="linr"  time="-9999999/1" value="0" leadInLength="0/1"  />
             </VectorParam>
             <VectorParam id="13106"  name="rotation">
              <InterpolatingParam id="13107" interp="linr"  time="-9999999/1" value="0" leadInLength="0/1"  />
              <InterpolatingParam id="13108" interp="linr"  time="-9999999/1" value="0" leadInLength="0/1"  />
              <InterpolatingParam id="13109" interp="linr"  time="-9999999/1" value="0" leadInLength="0/1"  />
             </VectorParam>
             <VectorParam id="13110"  name="shear">
              <InterpolatingParam id="13111" interp="linr"  time="-9999999/1" value="0" leadInLength="0/1"  />
              <InterpolatingParam id="13112" interp="linr"  time="-9999999/1" value="0" leadInLength="0/1"  />
              <InterpolatingParam id="13113" interp="linr"  time="-9999999/1" value="0" leadInLength="0/1"  />
             </VectorParam>
             <VectorParam id="13114"  name="scale">
              <InterpolatingParam id="13115" interp="linr"  time="-9999999/1" value="1" leadInLength="0/1"  />
              <InterpolatingParam id="13116" interp="linr"  time="-9999999/1" value="1" leadInLength="0/1"  />
              <InterpolatingParam id="13117" interp="linr"  time="-9999999/1" value="1" leadInLength="0/1"  />
             </VectorParam>
             <VectorParam id="13118"  name="anchor">
              <InterpolatingParam id="13119" interp="linr"  time="0/1" value="0" leadInLength="0/1"  />
              <InterpolatingParam id="13120" interp="linr"  time="0/1" value="0" leadInLength="0/1"  />
              <InterpolatingParam id="13121" interp="linr"  time="0/1" value="0" leadInLength="0/1"  />
             </VectorParam>
            </Transformer>
            <Parameters>
             <VectorParam id="13122"  name="sourceCrop">
              <InterpolatingParam id="13123" interp="linr"  time="0/1" value="0" leadInLength="0/1"  />
              <InterpolatingParam id="13124" interp="linr"  time="0/1" value="0" leadInLength="0/1"  />
              <InterpolatingParam id="13125" interp="linr"  time="0/1" value="0" leadInLength="0/1"  />
              <InterpolatingParam id="13126" interp="linr"  time="0/1" value="0" leadInLength="0/1"  />
             </VectorParam>
             <VectorParam id="13127"  name="geometryCrop">
              <InterpolatingParam id="13128" interp="linr"  time="-9999999/1" value="0" leadInLength="0/1"  />
              <InterpolatingParam id="13129" interp="linr"  time="-9999999/1" value="0" leadInLength="0/1"  />
              <InterpolatingParam id="13130" interp="linr"  time="-9999999/1" value="0" leadInLength="0/1"  />
              <InterpolatingParam id="13131" interp="linr"  time="-9999999/1" value="0" leadInLength="0/1"  />
             </VectorParam>
             <InterpolatingParam id="13132" interp="linr"  time="-9999999/1" value="1" leadInLength="0/1"  name="opacity"/>
            </Parameters>
            <Attributes>
             <Attribute id="13133" value="" name="ident"/>
            </Attributes>
            <MetaData>
             <entry key="WinSubProjectDisplayName" val=""/>
            </MetaData>
            <ExtraData>
             <Entry key="ZoomPanBin">
              <ZoomPanBin id="13134"  >
               <ZoomPanKeyframes>
                <ZoomPanKeyframe id="13135" timeRangeEnd="-9999999/1" timeRangeDuration="0/1" interpolaterName=""  />
               </ZoomPanKeyframes>
              </ZoomPanBin>
             </Entry>
            </ExtraData>
           </VMFile>
           <VMFile id="13136" start="7661" duration="615" scalar="1/1" mediaStart="15918/1" mediaDuration="615/1" trackNumber="0" src="4" >
            <Transformer>
             <VectorParam id="13137"  name="translation">
              <InterpolatingParam id="13138" interp="linr"  time="-9999999/1" value="0" leadInLength="0/1"  />
              <InterpolatingParam id="13139" interp="linr"  time="-9999999/1" value="0" leadInLength="0/1"  />
              <InterpolatingParam id="13140" interp="linr"  time="-9999999/1" value="0" leadInLength="0/1"  />
             </VectorParam>
             <VectorParam id="13141"  name="rotation">
              <InterpolatingParam id="13142" interp="linr"  time="-9999999/1" value="0" leadInLength="0/1"  />
              <InterpolatingParam id="13143" interp="linr"  time="-9999999/1" value="0" leadInLength="0/1"  />
              <InterpolatingParam id="13144" interp="linr"  time="-9999999/1" value="0" leadInLength="0/1"  />
             </VectorParam>
             <VectorParam id="13145"  name="shear">
              <InterpolatingParam id="13146" interp="linr"  time="-9999999/1" value="0" leadInLength="0/1"  />
              <InterpolatingParam id="13147" interp="linr"  time="-9999999/1" value="0" leadInLength="0/1"  />
              <InterpolatingParam id="13148" interp="linr"  time="-9999999/1" value="0" leadInLength="0/1"  />
             </VectorParam>
             <VectorParam id="13149"  name="scale">
              <InterpolatingParam id="13150" interp="linr"  time="-9999999/1" value="1" leadInLength="0/1"  />
              <InterpolatingParam id="13151" interp="linr"  time="-9999999/1" value="1" leadInLength="0/1"  />
              <InterpolatingParam id="13152" interp="linr"  time="-9999999/1" value="1" leadInLength="0/1"  />
             </VectorParam>
             <VectorParam id="13153"  name="anchor">
              <InterpolatingParam id="13154" interp="linr"  time="0/1" value="0" leadInLength="0/1"  />
              <InterpolatingParam id="13155" interp="linr"  time="0/1" value="0" leadInLength="0/1"  />
              <InterpolatingParam id="13156" interp="linr"  time="0/1" value="0" leadInLength="0/1"  />
             </VectorParam>
            </Transformer>
            <Parameters>
             <VectorParam id="13157"  name="sourceCrop">
              <InterpolatingParam id="13158" interp="linr"  time="0/1" value="0" leadInLength="0/1"  />
              <InterpolatingParam id="13159" interp="linr"  time="0/1" value="0" leadInLength="0/1"  />
              <InterpolatingParam id="13160" interp="linr"  time="0/1" value="0" leadInLength="0/1"  />
              <InterpolatingParam id="13161" interp="linr"  time="0/1" value="0" leadInLength="0/1"  />
             </VectorParam>
             <VectorParam id="13162"  name="geometryCrop">
              <InterpolatingParam id="13163" interp="linr"  time="-9999999/1" value="0" leadInLength="0/1"  />
              <InterpolatingParam id="13164" interp="linr"  time="-9999999/1" value="0" leadInLength="0/1"  />
              <InterpolatingParam id="13165" interp="linr"  time="-9999999/1" value="0" leadInLength="0/1"  />
              <InterpolatingParam id="13166" interp="linr"  time="-9999999/1" value="0" leadInLength="0/1"  />
             </VectorParam>
             <InterpolatingParam id="13167" interp="linr"  time="-9999999/1" value="1" leadInLength="0/1"  name="opacity"/>
            </Parameters>
            <Attributes>
             <Attribute id="13168" value="" name="ident"/>
            </Attributes>
            <MetaData>
             <entry key="WinSubProjectDisplayName" val=""/>
            </MetaData>
            <ExtraData>
             <Entry key="ZoomPanBin">
              <ZoomPanBin id="13169"  >
               <ZoomPanKeyframes>
                <ZoomPanKeyframe id="13170" timeRangeEnd="-9999999/1" timeRangeDuration="0/1" interpolaterName=""  />
               </ZoomPanKeyframes>
              </ZoomPanBin>
             </Entry>
            </ExtraData>
           </VMFile>
           <VMFile id="13171" start="8276" duration="323" scalar="1/1" mediaStart="16694/1" mediaDuration="323/1" trackNumber="0" src="4" >
            <Transformer>
             <VectorParam id="13172"  name="translation">
              <InterpolatingParam id="13173" interp="linr"  time="-9999999/1" value="0" leadInLength="0/1"  />
              <InterpolatingParam id="13174" interp="linr"  time="-9999999/1" value="0" leadInLength="0/1"  />
              <InterpolatingParam id="13175" interp="linr"  time="-9999999/1" value="0" leadInLength="0/1"  />
             </VectorParam>
             <VectorParam id="13176"  name="rotation">
              <InterpolatingParam id="13177" interp="linr"  time="-9999999/1" value="0" leadInLength="0/1"  />
              <InterpolatingParam id="13178" interp="linr"  time="-9999999/1" value="0" leadInLength="0/1"  />
              <InterpolatingParam id="13179" interp="linr"  time="-9999999/1" value="0" leadInLength="0/1"  />
             </VectorParam>
             <VectorParam id="13180"  name="shear">
              <InterpolatingParam id="13181" interp="linr"  time="-9999999/1" value="0" leadInLength="0/1"  />
              <InterpolatingParam id="13182" interp="linr"  time="-9999999/1" value="0" leadInLength="0/1"  />
              <InterpolatingParam id="13183" interp="linr"  time="-9999999/1" value="0" leadInLength="0/1"  />
             </VectorParam>
             <VectorParam id="13184"  name="scale">
              <InterpolatingParam id="13185" interp="linr"  time="-9999999/1" value="1" leadInLength="0/1"  />
              <InterpolatingParam id="13186" interp="linr"  time="-9999999/1" value="1" leadInLength="0/1"  />
              <InterpolatingParam id="13187" interp="linr"  time="-9999999/1" value="1" leadInLength="0/1"  />
             </VectorParam>
             <VectorParam id="13188"  name="anchor">
              <InterpolatingParam id="13189" interp="linr"  time="0/1" value="0" leadInLength="0/1"  />
              <InterpolatingParam id="13190" interp="linr"  time="0/1" value="0" leadInLength="0/1"  />
              <InterpolatingParam id="13191" interp="linr"  time="0/1" value="0" leadInLength="0/1"  />
             </VectorParam>
            </Transformer>
            <Parameters>
             <VectorParam id="13192"  name="sourceCrop">
              <InterpolatingParam id="13193" interp="linr"  time="0/1" value="0" leadInLength="0/1"  />
              <InterpolatingParam id="13194" interp="linr"  time="0/1" value="0" leadInLength="0/1"  />
              <InterpolatingParam id="13195" interp="linr"  time="0/1" value="0" leadInLength="0/1"  />
              <InterpolatingParam id="13196" interp="linr"  time="0/1" value="0" leadInLength="0/1"  />
             </VectorParam>
             <VectorParam id="13197"  name="geometryCrop">
              <InterpolatingParam id="13198" interp="linr"  time="-9999999/1" value="0" leadInLength="0/1"  />
              <InterpolatingParam id="13199" interp="linr"  time="-9999999/1" value="0" leadInLength="0/1"  />
              <InterpolatingParam id="13200" interp="linr"  time="-9999999/1" value="0" leadInLength="0/1"  />
              <InterpolatingParam id="13201" interp="linr"  time="-9999999/1" value="0" leadInLength="0/1"  />
             </VectorParam>
             <InterpolatingParam id="13202" interp="linr"  time="-9999999/1" value="1" leadInLength="0/1"  name="opacity"/>
            </Parameters>
            <Attributes>
             <Attribute id="13203" value="" name="ident"/>
            </Attributes>
            <MetaData>
             <entry key="WinSubProjectDisplayName" val=""/>
            </MetaData>
            <ExtraData>
             <Entry key="ZoomPanBin">
              <ZoomPanBin id="13204"  >
               <ZoomPanKeyframes>
                <ZoomPanKeyframe id="13205" timeRangeEnd="-9999999/1" timeRangeDuration="0/1" interpolaterName=""  />
               </ZoomPanKeyframes>
              </ZoomPanBin>
             </Entry>
            </ExtraData>
           </VMFile>
           <VMFile id="13206" start="8599" duration="223" scalar="1/1" mediaStart="17164/1" mediaDuration="223/1" trackNumber="0" src="4" >
            <Transformer>
             <VectorParam id="13207"  name="translation">
              <InterpolatingParam id="13208" interp="linr"  time="-9999999/1" value="0" leadInLength="0/1"  />
              <InterpolatingParam id="13209" interp="linr"  time="-9999999/1" value="0" leadInLength="0/1"  />
              <InterpolatingParam id="13210" interp="linr"  time="-9999999/1" value="0" leadInLength="0/1"  />
             </VectorParam>
             <VectorParam id="13211"  name="rotation">
              <InterpolatingParam id="13212" interp="linr"  time="-9999999/1" value="0" leadInLength="0/1"  />
              <InterpolatingParam id="13213" interp="linr"  time="-9999999/1" value="0" leadInLength="0/1"  />
              <InterpolatingParam id="13214" interp="linr"  time="-9999999/1" value="0" leadInLength="0/1"  />
             </VectorParam>
             <VectorParam id="13215"  name="shear">
              <InterpolatingParam id="13216" interp="linr"  time="-9999999/1" value="0" leadInLength="0/1"  />
              <InterpolatingParam id="13217" interp="linr"  time="-9999999/1" value="0" leadInLength="0/1"  />
              <InterpolatingParam id="13218" interp="linr"  time="-9999999/1" value="0" leadInLength="0/1"  />
             </VectorParam>
             <VectorParam id="13219"  name="scale">
              <InterpolatingParam id="13220" interp="linr"  time="-9999999/1" value="1" leadInLength="0/1"  />
              <InterpolatingParam id="13221" interp="linr"  time="-9999999/1" value="1" leadInLength="0/1"  />
              <InterpolatingParam id="13222" interp="linr"  time="-9999999/1" value="1" leadInLength="0/1"  />
             </VectorParam>
             <VectorParam id="13223"  name="anchor">
              <InterpolatingParam id="13224" interp="linr"  time="0/1" value="0" leadInLength="0/1"  />
              <InterpolatingParam id="13225" interp="linr"  time="0/1" value="0" leadInLength="0/1"  />
              <InterpolatingParam id="13226" interp="linr"  time="0/1" value="0" leadInLength="0/1"  />
             </VectorParam>
            </Transformer>
            <Parameters>
             <VectorParam id="13227"  name="sourceCrop">
              <InterpolatingParam id="13228" interp="linr"  time="0/1" value="0" leadInLength="0/1"  />
              <InterpolatingParam id="13229" interp="linr"  time="0/1" value="0" leadInLength="0/1"  />
              <InterpolatingParam id="13230" interp="linr"  time="0/1" value="0" leadInLength="0/1"  />
              <InterpolatingParam id="13231" interp="linr"  time="0/1" value="0" leadInLength="0/1"  />
             </VectorParam>
             <VectorParam id="13232"  name="geometryCrop">
              <InterpolatingParam id="13233" interp="linr"  time="-9999999/1" value="0" leadInLength="0/1"  />
              <InterpolatingParam id="13234" interp="linr"  time="-9999999/1" value="0" leadInLength="0/1"  />
              <InterpolatingParam id="13235" interp="linr"  time="-9999999/1" value="0" leadInLength="0/1"  />
              <InterpolatingParam id="13236" interp="linr"  time="-9999999/1" value="0" leadInLength="0/1"  />
             </VectorParam>
             <InterpolatingParam id="13237" interp="linr"  time="-9999999/1" value="1" leadInLength="0/1"  name="opacity"/>
            </Parameters>
            <Attributes>
             <Attribute id="13238" value="" name="ident"/>
            </Attributes>
            <MetaData>
             <entry key="WinSubProjectDisplayName" val=""/>
            </MetaData>
            <ExtraData>
             <Entry key="ZoomPanBin">
              <ZoomPanBin id="13239"  >
               <ZoomPanKeyframes>
                <ZoomPanKeyframe id="13240" timeRangeEnd="-9999999/1" timeRangeDuration="0/1" interpolaterName=""  />
               </ZoomPanKeyframes>
              </ZoomPanBin>
             </Entry>
            </ExtraData>
           </VMFile>
           <VMFile id="13241" start="8822" duration="323" scalar="1/1" mediaStart="26742/1" mediaDuration="323/1" trackNumber="0" src="4" >
            <Transformer>
             <VectorParam id="13242"  name="translation">
              <InterpolatingParam id="13243" interp="linr"  time="-9999999/1" value="0" leadInLength="0/1"  />
              <InterpolatingParam id="13244" interp="linr"  time="-9999999/1" value="0" leadInLength="0/1"  />
              <InterpolatingParam id="13245" interp="linr"  time="-9999999/1" value="0" leadInLength="0/1"  />
             </VectorParam>
             <VectorParam id="13246"  name="rotation">
              <InterpolatingParam id="13247" interp="linr"  time="-9999999/1" value="0" leadInLength="0/1"  />
              <InterpolatingParam id="13248" interp="linr"  time="-9999999/1" value="0" leadInLength="0/1"  />
              <InterpolatingParam id="13249" interp="linr"  time="-9999999/1" value="0" leadInLength="0/1"  />
             </VectorParam>
             <VectorParam id="13250"  name="shear">
              <InterpolatingParam id="13251" interp="linr"  time="-9999999/1" value="0" leadInLength="0/1"  />
              <InterpolatingParam id="13252" interp="linr"  time="-9999999/1" value="0" leadInLength="0/1"  />
              <InterpolatingParam id="13253" interp="linr"  time="-9999999/1" value="0" leadInLength="0/1"  />
             </VectorParam>
             <VectorParam id="13254"  name="scale">
              <InterpolatingParam id="13255" interp="linr"  time="-9999999/1" value="1" leadInLength="0/1"  />
              <InterpolatingParam id="13256" interp="linr"  time="-9999999/1" value="1" leadInLength="0/1"  />
              <InterpolatingParam id="13257" interp="linr"  time="-9999999/1" value="1" leadInLength="0/1"  />
             </VectorParam>
             <VectorParam id="13258"  name="anchor">
              <InterpolatingParam id="13259" interp="linr"  time="0/1" value="0" leadInLength="0/1"  />
              <InterpolatingParam id="13260" interp="linr"  time="0/1" value="0" leadInLength="0/1"  />
              <InterpolatingParam id="13261" interp="linr"  time="0/1" value="0" leadInLength="0/1"  />
             </VectorParam>
            </Transformer>
            <Parameters>
             <VectorParam id="13262"  name="sourceCrop">
              <InterpolatingParam id="13263" interp="linr"  time="0/1" value="0" leadInLength="0/1"  />
              <InterpolatingParam id="13264" interp="linr"  time="0/1" value="0" leadInLength="0/1"  />
              <InterpolatingParam id="13265" interp="linr"  time="0/1" value="0" leadInLength="0/1"  />
              <InterpolatingParam id="13266" interp="linr"  time="0/1" value="0" leadInLength="0/1"  />
             </VectorParam>
             <VectorParam id="13267"  name="geometryCrop">
              <InterpolatingParam id="13268" interp="linr"  time="-9999999/1" value="0" leadInLength="0/1"  />
              <InterpolatingParam id="13269" interp="linr"  time="-9999999/1" value="0" leadInLength="0/1"  />
              <InterpolatingParam id="13270" interp="linr"  time="-9999999/1" value="0" leadInLength="0/1"  />
              <InterpolatingParam id="13271" interp="linr"  time="-9999999/1" value="0" leadInLength="0/1"  />
             </VectorParam>
             <InterpolatingParam id="13272" interp="linr"  time="-9999999/1" value="1" leadInLength="0/1"  name="opacity"/>
            </Parameters>
            <Attributes>
             <Attribute id="13273" value="" name="ident"/>
            </Attributes>
            <MetaData>
             <entry key="WinSubProjectDisplayName" val=""/>
            </MetaData>
            <ExtraData>
             <Entry key="ZoomPanBin">
              <ZoomPanBin id="13274"  >
               <ZoomPanKeyframes>
                <ZoomPanKeyframe id="13275" timeRangeEnd="-9999999/1" timeRangeDuration="0/1" interpolaterName=""  />
               </ZoomPanKeyframes>
              </ZoomPanBin>
             </Entry>
            </ExtraData>
           </VMFile>
           <VMFile id="13276" start="9145" duration="259" scalar="1/1" mediaStart="27825/1" mediaDuration="259/1" trackNumber="0" src="4" >
            <Transformer>
             <VectorParam id="13277"  name="translation">
              <InterpolatingParam id="13278" interp="linr"  time="-9999999/1" value="0" leadInLength="0/1"  />
              <InterpolatingParam id="13279" interp="linr"  time="-9999999/1" value="0" leadInLength="0/1"  />
              <InterpolatingParam id="13280" interp="linr"  time="-9999999/1" value="0" leadInLength="0/1"  />
             </VectorParam>
             <VectorParam id="13281"  name="rotation">
              <InterpolatingParam id="13282" interp="linr"  time="-9999999/1" value="0" leadInLength="0/1"  />
              <InterpolatingParam id="13283" interp="linr"  time="-9999999/1" value="0" leadInLength="0/1"  />
              <InterpolatingParam id="13284" interp="linr"  time="-9999999/1" value="0" leadInLength="0/1"  />
             </VectorParam>
             <VectorParam id="13285"  name="shear">
              <InterpolatingParam id="13286" interp="linr"  time="-9999999/1" value="0" leadInLength="0/1"  />
              <InterpolatingParam id="13287" interp="linr"  time="-9999999/1" value="0" leadInLength="0/1"  />
              <InterpolatingParam id="13288" interp="linr"  time="-9999999/1" value="0" leadInLength="0/1"  />
             </VectorParam>
             <VectorParam id="13289"  name="scale">
              <InterpolatingParam id="13290" interp="linr"  time="-9999999/1" value="1" leadInLength="0/1"  />
              <InterpolatingParam id="13291" interp="linr"  time="-9999999/1" value="1" leadInLength="0/1"  />
              <InterpolatingParam id="13292" interp="linr"  time="-9999999/1" value="1" leadInLength="0/1"  />
             </VectorParam>
             <VectorParam id="13293"  name="anchor">
              <InterpolatingParam id="13294" interp="linr"  time="0/1" value="0" leadInLength="0/1"  />
              <InterpolatingParam id="13295" interp="linr"  time="0/1" value="0" leadInLength="0/1"  />
              <InterpolatingParam id="13296" interp="linr"  time="0/1" value="0" leadInLength="0/1"  />
             </VectorParam>
            </Transformer>
            <Parameters>
             <VectorParam id="13297"  name="sourceCrop">
              <InterpolatingParam id="13298" interp="linr"  time="0/1" value="0" leadInLength="0/1"  />
              <InterpolatingParam id="13299" interp="linr"  time="0/1" value="0" leadInLength="0/1"  />
              <InterpolatingParam id="13300" interp="linr"  time="0/1" value="0" leadInLength="0/1"  />
              <InterpolatingParam id="13301" interp="linr"  time="0/1" value="0" leadInLength="0/1"  />
             </VectorParam>
             <VectorParam id="13302"  name="geometryCrop">
              <InterpolatingParam id="13303" interp="linr"  time="-9999999/1" value="0" leadInLength="0/1"  />
              <InterpolatingParam id="13304" interp="linr"  time="-9999999/1" value="0" leadInLength="0/1"  />
              <InterpolatingParam id="13305" interp="linr"  time="-9999999/1" value="0" leadInLength="0/1"  />
              <InterpolatingParam id="13306" interp="linr"  time="-9999999/1" value="0" leadInLength="0/1"  />
             </VectorParam>
             <InterpolatingParam id="13307" interp="linr"  time="-9999999/1" value="1" leadInLength="0/1"  name="opacity"/>
            </Parameters>
            <Attributes>
             <Attribute id="13308" value="" name="ident"/>
            </Attributes>
            <MetaData>
             <entry key="WinSubProjectDisplayName" val=""/>
            </MetaData>
            <ExtraData>
             <Entry key="ZoomPanBin">
              <ZoomPanBin id="13309"  >
               <ZoomPanKeyframes>
                <ZoomPanKeyframe id="13310" timeRangeEnd="-9999999/1" timeRangeDuration="0/1" interpolaterName=""  />
               </ZoomPanKeyframes>
              </ZoomPanBin>
             </Entry>
            </ExtraData>
           </VMFile>
           <VMFile id="13311" start="9404" duration="157" scalar="1/1" mediaStart="28287/1" mediaDuration="157/1" trackNumber="0" src="4" >
            <Transformer>
             <VectorParam id="13312"  name="translation">
              <InterpolatingParam id="13313" interp="linr"  time="-9999999/1" value="0" leadInLength="0/1"  />
              <InterpolatingParam id="13314" interp="linr"  time="-9999999/1" value="0" leadInLength="0/1"  />
              <InterpolatingParam id="13315" interp="linr"  time="-9999999/1" value="0" leadInLength="0/1"  />
             </VectorParam>
             <VectorParam id="13316"  name="rotation">
              <InterpolatingParam id="13317" interp="linr"  time="-9999999/1" value="0" leadInLength="0/1"  />
              <InterpolatingParam id="13318" interp="linr"  time="-9999999/1" value="0" leadInLength="0/1"  />
              <InterpolatingParam id="13319" interp="linr"  time="-9999999/1" value="0" leadInLength="0/1"  />
             </VectorParam>
             <VectorParam id="13320"  name="shear">
              <InterpolatingParam id="13321" interp="linr"  time="-9999999/1" value="0" leadInLength="0/1"  />
              <InterpolatingParam id="13322" interp="linr"  time="-9999999/1" value="0" leadInLength="0/1"  />
              <InterpolatingParam id="13323" interp="linr"  time="-9999999/1" value="0" leadInLength="0/1"  />
             </VectorParam>
             <VectorParam id="13324"  name="scale">
              <InterpolatingParam id="13325" interp="linr"  time="-9999999/1" value="1" leadInLength="0/1"  />
              <InterpolatingParam id="13326" interp="linr"  time="-9999999/1" value="1" leadInLength="0/1"  />
              <InterpolatingParam id="13327" interp="linr"  time="-9999999/1" value="1" leadInLength="0/1"  />
             </VectorParam>
             <VectorParam id="13328"  name="anchor">
              <InterpolatingParam id="13329" interp="linr"  time="0/1" value="0" leadInLength="0/1"  />
              <InterpolatingParam id="13330" interp="linr"  time="0/1" value="0" leadInLength="0/1"  />
              <InterpolatingParam id="13331" interp="linr"  time="0/1" value="0" leadInLength="0/1"  />
             </VectorParam>
            </Transformer>
            <Parameters>
             <VectorParam id="13332"  name="sourceCrop">
              <InterpolatingParam id="13333" interp="linr"  time="0/1" value="0" leadInLength="0/1"  />
              <InterpolatingParam id="13334" interp="linr"  time="0/1" value="0" leadInLength="0/1"  />
              <InterpolatingParam id="13335" interp="linr"  time="0/1" value="0" leadInLength="0/1"  />
              <InterpolatingParam id="13336" interp="linr"  time="0/1" value="0" leadInLength="0/1"  />
             </VectorParam>
             <VectorParam id="13337"  name="geometryCrop">
              <InterpolatingParam id="13338" interp="linr"  time="-9999999/1" value="0" leadInLength="0/1"  />
              <InterpolatingParam id="13339" interp="linr"  time="-9999999/1" value="0" leadInLength="0/1"  />
              <InterpolatingParam id="13340" interp="linr"  time="-9999999/1" value="0" leadInLength="0/1"  />
              <InterpolatingParam id="13341" interp="linr"  time="-9999999/1" value="0" leadInLength="0/1"  />
             </VectorParam>
             <InterpolatingParam id="13342" interp="linr"  time="-9999999/1" value="1" leadInLength="0/1"  name="opacity"/>
            </Parameters>
            <Attributes>
             <Attribute id="13343" value="" name="ident"/>
            </Attributes>
            <MetaData>
             <entry key="WinSubProjectDisplayName" val=""/>
            </MetaData>
            <ExtraData>
             <Entry key="ZoomPanBin">
              <ZoomPanBin id="13344"  >
               <ZoomPanKeyframes>
                <ZoomPanKeyframe id="13345" timeRangeEnd="-9999999/1" timeRangeDuration="0/1" interpolaterName=""  />
               </ZoomPanKeyframes>
              </ZoomPanBin>
             </Entry>
            </ExtraData>
           </VMFile>
           <VMFile id="13346" start="9561" duration="290" scalar="1/1" mediaStart="28689/1" mediaDuration="290/1" trackNumber="0" src="4" >
            <Transformer>
             <VectorParam id="13347"  name="translation">
              <InterpolatingParam id="13348" interp="linr"  time="-9999999/1" value="0" leadInLength="0/1"  />
              <InterpolatingParam id="13349" interp="linr"  time="-9999999/1" value="0" leadInLength="0/1"  />
              <InterpolatingParam id="13350" interp="linr"  time="-9999999/1" value="0" leadInLength="0/1"  />
             </VectorParam>
             <VectorParam id="13351"  name="rotation">
              <InterpolatingParam id="13352" interp="linr"  time="-9999999/1" value="0" leadInLength="0/1"  />
              <InterpolatingParam id="13353" interp="linr"  time="-9999999/1" value="0" leadInLength="0/1"  />
              <InterpolatingParam id="13354" interp="linr"  time="-9999999/1" value="0" leadInLength="0/1"  />
             </VectorParam>
             <VectorParam id="13355"  name="shear">
              <InterpolatingParam id="13356" interp="linr"  time="-9999999/1" value="0" leadInLength="0/1"  />
              <InterpolatingParam id="13357" interp="linr"  time="-9999999/1" value="0" leadInLength="0/1"  />
              <InterpolatingParam id="13358" interp="linr"  time="-9999999/1" value="0" leadInLength="0/1"  />
             </VectorParam>
             <VectorParam id="13359"  name="scale">
              <InterpolatingParam id="13360" interp="linr"  time="-9999999/1" value="1" leadInLength="0/1"  />
              <InterpolatingParam id="13361" interp="linr"  time="-9999999/1" value="1" leadInLength="0/1"  />
              <InterpolatingParam id="13362" interp="linr"  time="-9999999/1" value="1" leadInLength="0/1"  />
             </VectorParam>
             <VectorParam id="13363"  name="anchor">
              <InterpolatingParam id="13364" interp="linr"  time="0/1" value="0" leadInLength="0/1"  />
              <InterpolatingParam id="13365" interp="linr"  time="0/1" value="0" leadInLength="0/1"  />
              <InterpolatingParam id="13366" interp="linr"  time="0/1" value="0" leadInLength="0/1"  />
             </VectorParam>
            </Transformer>
            <Parameters>
             <VectorParam id="13367"  name="sourceCrop">
              <InterpolatingParam id="13368" interp="linr"  time="0/1" value="0" leadInLength="0/1"  />
              <InterpolatingParam id="13369" interp="linr"  time="0/1" value="0" leadInLength="0/1"  />
              <InterpolatingParam id="13370" interp="linr"  time="0/1" value="0" leadInLength="0/1"  />
              <InterpolatingParam id="13371" interp="linr"  time="0/1" value="0" leadInLength="0/1"  />
             </VectorParam>
             <VectorParam id="13372"  name="geometryCrop">
              <InterpolatingParam id="13373" interp="linr"  time="-9999999/1" value="0" leadInLength="0/1"  />
              <InterpolatingParam id="13374" interp="linr"  time="-9999999/1" value="0" leadInLength="0/1"  />
              <InterpolatingParam id="13375" interp="linr"  time="-9999999/1" value="0" leadInLength="0/1"  />
              <InterpolatingParam id="13376" interp="linr"  time="-9999999/1" value="0" leadInLength="0/1"  />
             </VectorParam>
             <InterpolatingParam id="13377" interp="linr"  time="-9999999/1" value="1" leadInLength="0/1"  name="opacity"/>
            </Parameters>
            <Attributes>
             <Attribute id="13378" value="" name="ident"/>
            </Attributes>
            <MetaData>
             <entry key="WinSubProjectDisplayName" val=""/>
            </MetaData>
            <ExtraData>
             <Entry key="ZoomPanBin">
              <ZoomPanBin id="13379"  >
               <ZoomPanKeyframes>
                <ZoomPanKeyframe id="13380" timeRangeEnd="-9999999/1" timeRangeDuration="0/1" interpolaterName=""  />
               </ZoomPanKeyframes>
              </ZoomPanBin>
             </Entry>
            </ExtraData>
           </VMFile>
           <IMFile id="13381" start="9851" duration="60" scalar="1/1" mediaStart="29056/1" mediaDuration="1/1" trackNumber="0" src="4" trimStartSum="0/1" >
            <Transformer>
             <VectorParam id="13382"  name="translation">
              <InterpolatingParam id="13383" interp="linr"  time="-9999999/1" value="0" leadInLength="0/1"  />
              <InterpolatingParam id="13384" interp="linr"  time="-9999999/1" value="0" leadInLength="0/1"  />
              <InterpolatingParam id="13385" interp="linr"  time="-9999999/1" value="0" leadInLength="0/1"  />
             </VectorParam>
             <VectorParam id="13386"  name="rotation">
              <InterpolatingParam id="13387" interp="linr"  time="-9999999/1" value="0" leadInLength="0/1"  />
              <InterpolatingParam id="13388" interp="linr"  time="-9999999/1" value="0" leadInLength="0/1"  />
              <InterpolatingParam id="13389" interp="linr"  time="-9999999/1" value="0" leadInLength="0/1"  />
             </VectorParam>
             <VectorParam id="13390"  name="shear">
              <InterpolatingParam id="13391" interp="linr"  time="-9999999/1" value="0" leadInLength="0/1"  />
              <InterpolatingParam id="13392" interp="linr"  time="-9999999/1" value="0" leadInLength="0/1"  />
              <InterpolatingParam id="13393" interp="linr"  time="-9999999/1" value="0" leadInLength="0/1"  />
             </VectorParam>
             <VectorParam id="13394"  name="scale">
              <InterpolatingParam id="13395" interp="linr"  time="-9999999/1" value="1" leadInLength="0/1"  />
              <InterpolatingParam id="13396" interp="linr"  time="-9999999/1" value="1" leadInLength="0/1"  />
              <InterpolatingParam id="13397" interp="linr"  time="-9999999/1" value="1" leadInLength="0/1"  />
             </VectorParam>
             <VectorParam id="13398"  name="anchor">
              <InterpolatingParam id="13399" interp="linr"  time="0/1" value="0" leadInLength="0/1"  />
              <InterpolatingParam id="13400" interp="linr"  time="0/1" value="0" leadInLength="0/1"  />
              <InterpolatingParam id="13401" interp="linr"  time="0/1" value="0" leadInLength="0/1"  />
             </VectorParam>
            </Transformer>
            <Parameters>
             <VectorParam id="13402"  name="sourceCrop">
              <InterpolatingParam id="13403" interp="linr"  time="0/1" value="0" leadInLength="0/1"  />
              <InterpolatingParam id="13404" interp="linr"  time="0/1" value="0" leadInLength="0/1"  />
              <InterpolatingParam id="13405" interp="linr"  time="0/1" value="0" leadInLength="0/1"  />
              <InterpolatingParam id="13406" interp="linr"  time="0/1" value="0" leadInLength="0/1"  />
             </VectorParam>
             <VectorParam id="13407"  name="geometryCrop">
              <InterpolatingParam id="13408" interp="linr"  time="-9999999/1" value="0" leadInLength="0/1"  />
              <InterpolatingParam id="13409" interp="linr"  time="-9999999/1" value="0" leadInLength="0/1"  />
              <InterpolatingParam id="13410" interp="linr"  time="-9999999/1" value="0" leadInLength="0/1"  />
              <InterpolatingParam id="13411" interp="linr"  time="-9999999/1" value="0" leadInLength="0/1"  />
             </VectorParam>
             <InterpolatingParam id="13412" interp="linr"  time="-9999999/1" value="1" leadInLength="0/1"  name="opacity"/>
            </Parameters>
            <Attributes>
             <Attribute id="13413" value="" name="ident"/>
            </Attributes>
            <MetaData>
             <entry key="WinSubProjectDisplayName" val=""/>
            </MetaData>
            <ExtraData>
             <Entry key="ZoomPanBin">
              <ZoomPanBin id="13414"  >
               <ZoomPanKeyframes>
                <ZoomPanKeyframe id="13415" timeRangeEnd="-9999999/1" timeRangeDuration="0/1" interpolaterName=""  />
               </ZoomPanKeyframes>
              </ZoomPanBin>
             </Entry>
            </ExtraData>
           </IMFile>
           <VMFile id="13416" start="9911" duration="18" scalar="1/1" mediaStart="29056/1" mediaDuration="18/1" trackNumber="0" src="4" >
            <Transformer>
             <VectorParam id="13417"  name="translation">
              <InterpolatingParam id="13418" interp="linr"  time="-9999999/1" value="0" leadInLength="0/1"  />
              <InterpolatingParam id="13419" interp="linr"  time="-9999999/1" value="0" leadInLength="0/1"  />
              <InterpolatingParam id="13420" interp="linr"  time="-9999999/1" value="0" leadInLength="0/1"  />
             </VectorParam>
             <VectorParam id="13421"  name="rotation">
              <InterpolatingParam id="13422" interp="linr"  time="-9999999/1" value="0" leadInLength="0/1"  />
              <InterpolatingParam id="13423" interp="linr"  time="-9999999/1" value="0" leadInLength="0/1"  />
              <InterpolatingParam id="13424" interp="linr"  time="-9999999/1" value="0" leadInLength="0/1"  />
             </VectorParam>
             <VectorParam id="13425"  name="shear">
              <InterpolatingParam id="13426" interp="linr"  time="-9999999/1" value="0" leadInLength="0/1"  />
              <InterpolatingParam id="13427" interp="linr"  time="-9999999/1" value="0" leadInLength="0/1"  />
              <InterpolatingParam id="13428" interp="linr"  time="-9999999/1" value="0" leadInLength="0/1"  />
             </VectorParam>
             <VectorParam id="13429"  name="scale">
              <InterpolatingParam id="13430" interp="linr"  time="-9999999/1" value="1" leadInLength="0/1"  />
              <InterpolatingParam id="13431" interp="linr"  time="-9999999/1" value="1" leadInLength="0/1"  />
              <InterpolatingParam id="13432" interp="linr"  time="-9999999/1" value="1" leadInLength="0/1"  />
             </VectorParam>
             <VectorParam id="13433"  name="anchor">
              <InterpolatingParam id="13434" interp="linr"  time="0/1" value="0" leadInLength="0/1"  />
              <InterpolatingParam id="13435" interp="linr"  time="0/1" value="0" leadInLength="0/1"  />
              <InterpolatingParam id="13436" interp="linr"  time="0/1" value="0" leadInLength="0/1"  />
             </VectorParam>
            </Transformer>
            <Parameters>
             <VectorParam id="13437"  name="sourceCrop">
              <InterpolatingParam id="13438" interp="linr"  time="0/1" value="0" leadInLength="0/1"  />
              <InterpolatingParam id="13439" interp="linr"  time="0/1" value="0" leadInLength="0/1"  />
              <InterpolatingParam id="13440" interp="linr"  time="0/1" value="0" leadInLength="0/1"  />
              <InterpolatingParam id="13441" interp="linr"  time="0/1" value="0" leadInLength="0/1"  />
             </VectorParam>
             <VectorParam id="13442"  name="geometryCrop">
              <InterpolatingParam id="13443" interp="linr"  time="-9999999/1" value="0" leadInLength="0/1"  />
              <InterpolatingParam id="13444" interp="linr"  time="-9999999/1" value="0" leadInLength="0/1"  />
              <InterpolatingParam id="13445" interp="linr"  time="-9999999/1" value="0" leadInLength="0/1"  />
              <InterpolatingParam id="13446" interp="linr"  time="-9999999/1" value="0" leadInLength="0/1"  />
             </VectorParam>
             <InterpolatingParam id="13447" interp="linr"  time="-9999999/1" value="1" leadInLength="0/1"  name="opacity"/>
            </Parameters>
            <Attributes>
             <Attribute id="13448" value="" name="ident"/>
            </Attributes>
            <MetaData>
             <entry key="WinSubProjectDisplayName" val=""/>
            </MetaData>
            <ExtraData>
             <Entry key="ZoomPanBin">
              <ZoomPanBin id="13449"  >
               <ZoomPanKeyframes>
                <ZoomPanKeyframe id="13450" timeRangeEnd="-9999999/1" timeRangeDuration="0/1" interpolaterName=""  />
               </ZoomPanKeyframes>
              </ZoomPanBin>
             </Entry>
            </ExtraData>
           </VMFile>
           <IMFile id="13451" start="9929" duration="30" scalar="1/1" mediaStart="29074/1" mediaDuration="1/1" trackNumber="0" src="4" trimStartSum="0/1" >
            <Transformer>
             <VectorParam id="13452"  name="translation">
              <InterpolatingParam id="13453" interp="linr"  time="-9999999/1" value="0" leadInLength="0/1"  />
              <InterpolatingParam id="13454" interp="linr"  time="-9999999/1" value="0" leadInLength="0/1"  />
              <InterpolatingParam id="13455" interp="linr"  time="-9999999/1" value="0" leadInLength="0/1"  />
             </VectorParam>
             <VectorParam id="13456"  name="rotation">
              <InterpolatingParam id="13457" interp="linr"  time="-9999999/1" value="0" leadInLength="0/1"  />
              <InterpolatingParam id="13458" interp="linr"  time="-9999999/1" value="0" leadInLength="0/1"  />
              <InterpolatingParam id="13459" interp="linr"  time="-9999999/1" value="0" leadInLength="0/1"  />
             </VectorParam>
             <VectorParam id="13460"  name="shear">
              <InterpolatingParam id="13461" interp="linr"  time="-9999999/1" value="0" leadInLength="0/1"  />
              <InterpolatingParam id="13462" interp="linr"  time="-9999999/1" value="0" leadInLength="0/1"  />
              <InterpolatingParam id="13463" interp="linr"  time="-9999999/1" value="0" leadInLength="0/1"  />
             </VectorParam>
             <VectorParam id="13464"  name="scale">
              <InterpolatingParam id="13465" interp="linr"  time="-9999999/1" value="1" leadInLength="0/1"  />
              <InterpolatingParam id="13466" interp="linr"  time="-9999999/1" value="1" leadInLength="0/1"  />
              <InterpolatingParam id="13467" interp="linr"  time="-9999999/1" value="1" leadInLength="0/1"  />
             </VectorParam>
             <VectorParam id="13468"  name="anchor">
              <InterpolatingParam id="13469" interp="linr"  time="0/1" value="0" leadInLength="0/1"  />
              <InterpolatingParam id="13470" interp="linr"  time="0/1" value="0" leadInLength="0/1"  />
              <InterpolatingParam id="13471" interp="linr"  time="0/1" value="0" leadInLength="0/1"  />
             </VectorParam>
            </Transformer>
            <Parameters>
             <VectorParam id="13472"  name="sourceCrop">
              <InterpolatingParam id="13473" interp="linr"  time="0/1" value="0" leadInLength="0/1"  />
              <InterpolatingParam id="13474" interp="linr"  time="0/1" value="0" leadInLength="0/1"  />
              <InterpolatingParam id="13475" interp="linr"  time="0/1" value="0" leadInLength="0/1"  />
              <InterpolatingParam id="13476" interp="linr"  time="0/1" value="0" leadInLength="0/1"  />
             </VectorParam>
             <VectorParam id="13477"  name="geometryCrop">
              <InterpolatingParam id="13478" interp="linr"  time="-9999999/1" value="0" leadInLength="0/1"  />
              <InterpolatingParam id="13479" interp="linr"  time="-9999999/1" value="0" leadInLength="0/1"  />
              <InterpolatingParam id="13480" interp="linr"  time="-9999999/1" value="0" leadInLength="0/1"  />
              <InterpolatingParam id="13481" interp="linr"  time="-9999999/1" value="0" leadInLength="0/1"  />
             </VectorParam>
             <InterpolatingParam id="13482" interp="linr"  time="-9999999/1" value="1" leadInLength="0/1"  name="opacity"/>
            </Parameters>
            <Attributes>
             <Attribute id="13483" value="" name="ident"/>
            </Attributes>
            <MetaData>
             <entry key="WinSubProjectDisplayName" val=""/>
            </MetaData>
            <ExtraData>
             <Entry key="ZoomPanBin">
              <ZoomPanBin id="13484"  >
               <ZoomPanKeyframes>
                <ZoomPanKeyframe id="13485" timeRangeEnd="-9999999/1" timeRangeDuration="0/1" interpolaterName=""  />
               </ZoomPanKeyframes>
              </ZoomPanBin>
             </Entry>
            </ExtraData>
           </IMFile>
           <VMFile id="13486" start="9959" duration="1" scalar="1/1" mediaStart="29074/1" mediaDuration="1/1" trackNumber="0" src="4" >
            <Transformer>
             <VectorParam id="13487"  name="translation">
              <InterpolatingParam id="13488" interp="linr"  time="-9999999/1" value="0" leadInLength="0/1"  />
              <InterpolatingParam id="13489" interp="linr"  time="-9999999/1" value="0" leadInLength="0/1"  />
              <InterpolatingParam id="13490" interp="linr"  time="-9999999/1" value="0" leadInLength="0/1"  />
             </VectorParam>
             <VectorParam id="13491"  name="rotation">
              <InterpolatingParam id="13492" interp="linr"  time="-9999999/1" value="0" leadInLength="0/1"  />
              <InterpolatingParam id="13493" interp="linr"  time="-9999999/1" value="0" leadInLength="0/1"  />
              <InterpolatingParam id="13494" interp="linr"  time="-9999999/1" value="0" leadInLength="0/1"  />
             </VectorParam>
             <VectorParam id="13495"  name="shear">
              <InterpolatingParam id="13496" interp="linr"  time="-9999999/1" value="0" leadInLength="0/1"  />
              <InterpolatingParam id="13497" interp="linr"  time="-9999999/1" value="0" leadInLength="0/1"  />
              <InterpolatingParam id="13498" interp="linr"  time="-9999999/1" value="0" leadInLength="0/1"  />
             </VectorParam>
             <VectorParam id="13499"  name="scale">
              <InterpolatingParam id="13500" interp="linr"  time="-9999999/1" value="1" leadInLength="0/1"  />
              <InterpolatingParam id="13501" interp="linr"  time="-9999999/1" value="1" leadInLength="0/1"  />
              <InterpolatingParam id="13502" interp="linr"  time="-9999999/1" value="1" leadInLength="0/1"  />
             </VectorParam>
             <VectorParam id="13503"  name="anchor">
              <InterpolatingParam id="13504" interp="linr"  time="0/1" value="0" leadInLength="0/1"  />
              <InterpolatingParam id="13505" interp="linr"  time="0/1" value="0" leadInLength="0/1"  />
              <InterpolatingParam id="13506" interp="linr"  time="0/1" value="0" leadInLength="0/1"  />
             </VectorParam>
            </Transformer>
            <Parameters>
             <VectorParam id="13507"  name="sourceCrop">
              <InterpolatingParam id="13508" interp="linr"  time="0/1" value="0" leadInLength="0/1"  />
              <InterpolatingParam id="13509" interp="linr"  time="0/1" value="0" leadInLength="0/1"  />
              <InterpolatingParam id="13510" interp="linr"  time="0/1" value="0" leadInLength="0/1"  />
              <InterpolatingParam id="13511" interp="linr"  time="0/1" value="0" leadInLength="0/1"  />
             </VectorParam>
             <VectorParam id="13512"  name="geometryCrop">
              <InterpolatingParam id="13513" interp="linr"  time="-9999999/1" value="0" leadInLength="0/1"  />
              <InterpolatingParam id="13514" interp="linr"  time="-9999999/1" value="0" leadInLength="0/1"  />
              <InterpolatingParam id="13515" interp="linr"  time="-9999999/1" value="0" leadInLength="0/1"  />
              <InterpolatingParam id="13516" interp="linr"  time="-9999999/1" value="0" leadInLength="0/1"  />
             </VectorParam>
             <InterpolatingParam id="13517" interp="linr"  time="-9999999/1" value="1" leadInLength="0/1"  name="opacity"/>
            </Parameters>
            <Attributes>
             <Attribute id="13518" value="" name="ident"/>
            </Attributes>
            <MetaData>
             <entry key="WinSubProjectDisplayName" val=""/>
            </MetaData>
            <ExtraData>
             <Entry key="ZoomPanBin">
              <ZoomPanBin id="13519"  >
               <ZoomPanKeyframes>
                <ZoomPanKeyframe id="13520" timeRangeEnd="-9999999/1" timeRangeDuration="0/1" interpolaterName=""  />
               </ZoomPanKeyframes>
              </ZoomPanBin>
             </Entry>
            </ExtraData>
           </VMFile>
           <VMFile id="13521" start="9960" duration="42" scalar="1/1" mediaStart="29274/1" mediaDuration="42/1" trackNumber="0" src="4" >
            <Transformer>
             <VectorParam id="13522"  name="translation">
              <InterpolatingParam id="13523" interp="linr"  time="-9999999/1" value="0" leadInLength="0/1"  />
              <InterpolatingParam id="13524" interp="linr"  time="-9999999/1" value="0" leadInLength="0/1"  />
              <InterpolatingParam id="13525" interp="linr"  time="-9999999/1" value="0" leadInLength="0/1"  />
             </VectorParam>
             <VectorParam id="13526"  name="rotation">
              <InterpolatingParam id="13527" interp="linr"  time="-9999999/1" value="0" leadInLength="0/1"  />
              <InterpolatingParam id="13528" interp="linr"  time="-9999999/1" value="0" leadInLength="0/1"  />
              <InterpolatingParam id="13529" interp="linr"  time="-9999999/1" value="0" leadInLength="0/1"  />
             </VectorParam>
             <VectorParam id="13530"  name="shear">
              <InterpolatingParam id="13531" interp="linr"  time="-9999999/1" value="0" leadInLength="0/1"  />
              <InterpolatingParam id="13532" interp="linr"  time="-9999999/1" value="0" leadInLength="0/1"  />
              <InterpolatingParam id="13533" interp="linr"  time="-9999999/1" value="0" leadInLength="0/1"  />
             </VectorParam>
             <VectorParam id="13534"  name="scale">
              <InterpolatingParam id="13535" interp="linr"  time="-9999999/1" value="1" leadInLength="0/1"  />
              <InterpolatingParam id="13536" interp="linr"  time="-9999999/1" value="1" leadInLength="0/1"  />
              <InterpolatingParam id="13537" interp="linr"  time="-9999999/1" value="1" leadInLength="0/1"  />
             </VectorParam>
             <VectorParam id="13538"  name="anchor">
              <InterpolatingParam id="13539" interp="linr"  time="0/1" value="0" leadInLength="0/1"  />
              <InterpolatingParam id="13540" interp="linr"  time="0/1" value="0" leadInLength="0/1"  />
              <InterpolatingParam id="13541" interp="linr"  time="0/1" value="0" leadInLength="0/1"  />
             </VectorParam>
            </Transformer>
            <Parameters>
             <VectorParam id="13542"  name="sourceCrop">
              <InterpolatingParam id="13543" interp="linr"  time="0/1" value="0" leadInLength="0/1"  />
              <InterpolatingParam id="13544" interp="linr"  time="0/1" value="0" leadInLength="0/1"  />
              <InterpolatingParam id="13545" interp="linr"  time="0/1" value="0" leadInLength="0/1"  />
              <InterpolatingParam id="13546" interp="linr"  time="0/1" value="0" leadInLength="0/1"  />
             </VectorParam>
             <VectorParam id="13547"  name="geometryCrop">
              <InterpolatingParam id="13548" interp="linr"  time="-9999999/1" value="0" leadInLength="0/1"  />
              <InterpolatingParam id="13549" interp="linr"  time="-9999999/1" value="0" leadInLength="0/1"  />
              <InterpolatingParam id="13550" interp="linr"  time="-9999999/1" value="0" leadInLength="0/1"  />
              <InterpolatingParam id="13551" interp="linr"  time="-9999999/1" value="0" leadInLength="0/1"  />
             </VectorParam>
             <InterpolatingParam id="13552" interp="linr"  time="-9999999/1" value="1" leadInLength="0/1"  name="opacity"/>
            </Parameters>
            <Attributes>
             <Attribute id="13553" value="" name="ident"/>
            </Attributes>
            <MetaData>
             <entry key="WinSubProjectDisplayName" val=""/>
            </MetaData>
            <ExtraData>
             <Entry key="ZoomPanBin">
              <ZoomPanBin id="13554"  >
               <ZoomPanKeyframes>
                <ZoomPanKeyframe id="13555" timeRangeEnd="-9999999/1" timeRangeDuration="0/1" interpolaterName=""  />
               </ZoomPanKeyframes>
              </ZoomPanBin>
             </Entry>
            </ExtraData>
           </VMFile>
           <VMFile id="13556" start="10002" duration="147" scalar="1/1" mediaStart="29358/1" mediaDuration="147/1" trackNumber="0" src="4" >
            <Transformer>
             <VectorParam id="13557"  name="translation">
              <InterpolatingParam id="13558" interp="linr"  time="-9999999/1" value="0" leadInLength="0/1"  />
              <InterpolatingParam id="13559" interp="linr"  time="-9999999/1" value="0" leadInLength="0/1"  />
              <InterpolatingParam id="13560" interp="linr"  time="-9999999/1" value="0" leadInLength="0/1"  />
             </VectorParam>
             <VectorParam id="13561"  name="rotation">
              <InterpolatingParam id="13562" interp="linr"  time="-9999999/1" value="0" leadInLength="0/1"  />
              <InterpolatingParam id="13563" interp="linr"  time="-9999999/1" value="0" leadInLength="0/1"  />
              <InterpolatingParam id="13564" interp="linr"  time="-9999999/1" value="0" leadInLength="0/1"  />
             </VectorParam>
             <VectorParam id="13565"  name="shear">
              <InterpolatingParam id="13566" interp="linr"  time="-9999999/1" value="0" leadInLength="0/1"  />
              <InterpolatingParam id="13567" interp="linr"  time="-9999999/1" value="0" leadInLength="0/1"  />
              <InterpolatingParam id="13568" interp="linr"  time="-9999999/1" value="0" leadInLength="0/1"  />
             </VectorParam>
             <VectorParam id="13569"  name="scale">
              <InterpolatingParam id="13570" interp="linr"  time="-9999999/1" value="1" leadInLength="0/1"  />
              <InterpolatingParam id="13571" interp="linr"  time="-9999999/1" value="1" leadInLength="0/1"  />
              <InterpolatingParam id="13572" interp="linr"  time="-9999999/1" value="1" leadInLength="0/1"  />
             </VectorParam>
             <VectorParam id="13573"  name="anchor">
              <InterpolatingParam id="13574" interp="linr"  time="0/1" value="0" leadInLength="0/1"  />
              <InterpolatingParam id="13575" interp="linr"  time="0/1" value="0" leadInLength="0/1"  />
              <InterpolatingParam id="13576" interp="linr"  time="0/1" value="0" leadInLength="0/1"  />
             </VectorParam>
            </Transformer>
            <Parameters>
             <VectorParam id="13577"  name="sourceCrop">
              <InterpolatingParam id="13578" interp="linr"  time="0/1" value="0" leadInLength="0/1"  />
              <InterpolatingParam id="13579" interp="linr"  time="0/1" value="0" leadInLength="0/1"  />
              <InterpolatingParam id="13580" interp="linr"  time="0/1" value="0" leadInLength="0/1"  />
              <InterpolatingParam id="13581" interp="linr"  time="0/1" value="0" leadInLength="0/1"  />
             </VectorParam>
             <VectorParam id="13582"  name="geometryCrop">
              <InterpolatingParam id="13583" interp="linr"  time="-9999999/1" value="0" leadInLength="0/1"  />
              <InterpolatingParam id="13584" interp="linr"  time="-9999999/1" value="0" leadInLength="0/1"  />
              <InterpolatingParam id="13585" interp="linr"  time="-9999999/1" value="0" leadInLength="0/1"  />
              <InterpolatingParam id="13586" interp="linr"  time="-9999999/1" value="0" leadInLength="0/1"  />
             </VectorParam>
             <InterpolatingParam id="13587" interp="linr"  time="-9999999/1" value="1" leadInLength="0/1"  name="opacity"/>
            </Parameters>
            <Attributes>
             <Attribute id="13588" value="" name="ident"/>
            </Attributes>
            <MetaData>
             <entry key="WinSubProjectDisplayName" val=""/>
            </MetaData>
            <ExtraData>
             <Entry key="ZoomPanBin">
              <ZoomPanBin id="13589"  >
               <ZoomPanKeyframes>
                <ZoomPanKeyframe id="13590" timeRangeEnd="-9999999/1" timeRangeDuration="0/1" interpolaterName=""  />
               </ZoomPanKeyframes>
              </ZoomPanBin>
             </Entry>
            </ExtraData>
           </VMFile>
           <VMFile id="13591" start="10149" duration="580" scalar="1/1" mediaStart="29557/1" mediaDuration="580/1" trackNumber="0" src="4" >
            <Transformer>
             <VectorParam id="13592"  name="translation">
              <InterpolatingParam id="13593" interp="linr"  time="-9999999/1" value="0" leadInLength="0/1"  />
              <InterpolatingParam id="13594" interp="linr"  time="-9999999/1" value="0" leadInLength="0/1"  />
              <InterpolatingParam id="13595" interp="linr"  time="-9999999/1" value="0" leadInLength="0/1"  />
             </VectorParam>
             <VectorParam id="13596"  name="rotation">
              <InterpolatingParam id="13597" interp="linr"  time="-9999999/1" value="0" leadInLength="0/1"  />
              <InterpolatingParam id="13598" interp="linr"  time="-9999999/1" value="0" leadInLength="0/1"  />
              <InterpolatingParam id="13599" interp="linr"  time="-9999999/1" value="0" leadInLength="0/1"  />
             </VectorParam>
             <VectorParam id="13600"  name="shear">
              <InterpolatingParam id="13601" interp="linr"  time="-9999999/1" value="0" leadInLength="0/1"  />
              <InterpolatingParam id="13602" interp="linr"  time="-9999999/1" value="0" leadInLength="0/1"  />
              <InterpolatingParam id="13603" interp="linr"  time="-9999999/1" value="0" leadInLength="0/1"  />
             </VectorParam>
             <VectorParam id="13604"  name="scale">
              <InterpolatingParam id="13605" interp="linr"  time="-9999999/1" value="1" leadInLength="0/1"  />
              <InterpolatingParam id="13606" interp="linr"  time="-9999999/1" value="1" leadInLength="0/1"  />
              <InterpolatingParam id="13607" interp="linr"  time="-9999999/1" value="1" leadInLength="0/1"  />
             </VectorParam>
             <VectorParam id="13608"  name="anchor">
              <InterpolatingParam id="13609" interp="linr"  time="0/1" value="0" leadInLength="0/1"  />
              <InterpolatingParam id="13610" interp="linr"  time="0/1" value="0" leadInLength="0/1"  />
              <InterpolatingParam id="13611" interp="linr"  time="0/1" value="0" leadInLength="0/1"  />
             </VectorParam>
            </Transformer>
            <Parameters>
             <VectorParam id="13612"  name="sourceCrop">
              <InterpolatingParam id="13613" interp="linr"  time="0/1" value="0" leadInLength="0/1"  />
              <InterpolatingParam id="13614" interp="linr"  time="0/1" value="0" leadInLength="0/1"  />
              <InterpolatingParam id="13615" interp="linr"  time="0/1" value="0" leadInLength="0/1"  />
              <InterpolatingParam id="13616" interp="linr"  time="0/1" value="0" leadInLength="0/1"  />
             </VectorParam>
             <VectorParam id="13617"  name="geometryCrop">
              <InterpolatingParam id="13618" interp="linr"  time="-9999999/1" value="0" leadInLength="0/1"  />
              <InterpolatingParam id="13619" interp="linr"  time="-9999999/1" value="0" leadInLength="0/1"  />
              <InterpolatingParam id="13620" interp="linr"  time="-9999999/1" value="0" leadInLength="0/1"  />
              <InterpolatingParam id="13621" interp="linr"  time="-9999999/1" value="0" leadInLength="0/1"  />
             </VectorParam>
             <InterpolatingParam id="13622" interp="linr"  time="-9999999/1" value="1" leadInLength="0/1"  name="opacity"/>
            </Parameters>
            <Attributes>
             <Attribute id="13623" value="" name="ident"/>
            </Attributes>
            <MetaData>
             <entry key="WinSubProjectDisplayName" val=""/>
            </MetaData>
            <ExtraData>
             <Entry key="ZoomPanBin">
              <ZoomPanBin id="13624"  >
               <ZoomPanKeyframes>
                <ZoomPanKeyframe id="13625" timeRangeEnd="-9999999/1" timeRangeDuration="0/1" interpolaterName=""  />
               </ZoomPanKeyframes>
              </ZoomPanBin>
             </Entry>
            </ExtraData>
           </VMFile>
           <VMFile id="13626" start="10729" duration="25" scalar="1/1" mediaStart="30200/1" mediaDuration="25/1" trackNumber="0" src="4" >
            <Transformer>
             <VectorParam id="13627"  name="translation">
              <InterpolatingParam id="13628" interp="linr"  time="-9999999/1" value="0" leadInLength="0/1"  />
              <InterpolatingParam id="13629" interp="linr"  time="-9999999/1" value="0" leadInLength="0/1"  />
              <InterpolatingParam id="13630" interp="linr"  time="-9999999/1" value="0" leadInLength="0/1"  />
             </VectorParam>
             <VectorParam id="13631"  name="rotation">
              <InterpolatingParam id="13632" interp="linr"  time="-9999999/1" value="0" leadInLength="0/1"  />
              <InterpolatingParam id="13633" interp="linr"  time="-9999999/1" value="0" leadInLength="0/1"  />
              <InterpolatingParam id="13634" interp="linr"  time="-9999999/1" value="0" leadInLength="0/1"  />
             </VectorParam>
             <VectorParam id="13635"  name="shear">
              <InterpolatingParam id="13636" interp="linr"  time="-9999999/1" value="0" leadInLength="0/1"  />
              <InterpolatingParam id="13637" interp="linr"  time="-9999999/1" value="0" leadInLength="0/1"  />
              <InterpolatingParam id="13638" interp="linr"  time="-9999999/1" value="0" leadInLength="0/1"  />
             </VectorParam>
             <VectorParam id="13639"  name="scale">
              <InterpolatingParam id="13640" interp="linr"  time="-9999999/1" value="1" leadInLength="0/1"  />
              <InterpolatingParam id="13641" interp="linr"  time="-9999999/1" value="1" leadInLength="0/1"  />
              <InterpolatingParam id="13642" interp="linr"  time="-9999999/1" value="1" leadInLength="0/1"  />
             </VectorParam>
             <VectorParam id="13643"  name="anchor">
              <InterpolatingParam id="13644" interp="linr"  time="0/1" value="0" leadInLength="0/1"  />
              <InterpolatingParam id="13645" interp="linr"  time="0/1" value="0" leadInLength="0/1"  />
              <InterpolatingParam id="13646" interp="linr"  time="0/1" value="0" leadInLength="0/1"  />
             </VectorParam>
            </Transformer>
            <Parameters>
             <VectorParam id="13647"  name="sourceCrop">
              <InterpolatingParam id="13648" interp="linr"  time="0/1" value="0" leadInLength="0/1"  />
              <InterpolatingParam id="13649" interp="linr"  time="0/1" value="0" leadInLength="0/1"  />
              <InterpolatingParam id="13650" interp="linr"  time="0/1" value="0" leadInLength="0/1"  />
              <InterpolatingParam id="13651" interp="linr"  time="0/1" value="0" leadInLength="0/1"  />
             </VectorParam>
             <VectorParam id="13652"  name="geometryCrop">
              <InterpolatingParam id="13653" interp="linr"  time="-9999999/1" value="0" leadInLength="0/1"  />
              <InterpolatingParam id="13654" interp="linr"  time="-9999999/1" value="0" leadInLength="0/1"  />
              <InterpolatingParam id="13655" interp="linr"  time="-9999999/1" value="0" leadInLength="0/1"  />
              <InterpolatingParam id="13656" interp="linr"  time="-9999999/1" value="0" leadInLength="0/1"  />
             </VectorParam>
             <InterpolatingParam id="13657" interp="linr"  time="-9999999/1" value="1" leadInLength="0/1"  name="opacity"/>
            </Parameters>
            <Attributes>
             <Attribute id="13658" value="" name="ident"/>
            </Attributes>
            <MetaData>
             <entry key="WinSubProjectDisplayName" val=""/>
            </MetaData>
            <ExtraData>
             <Entry key="ZoomPanBin">
              <ZoomPanBin id="13659"  >
               <ZoomPanKeyframes>
                <ZoomPanKeyframe id="13660" timeRangeEnd="-9999999/1" timeRangeDuration="0/1" interpolaterName=""  />
               </ZoomPanKeyframes>
              </ZoomPanBin>
             </Entry>
            </ExtraData>
           </VMFile>
           <VMFile id="13661" start="10754" duration="119" scalar="1/1" mediaStart="30368/1" mediaDuration="119/1" trackNumber="0" src="4" >
            <Transformer>
             <VectorParam id="13662"  name="translation">
              <InterpolatingParam id="13663" interp="linr"  time="-9999999/1" value="0" leadInLength="0/1"  />
              <InterpolatingParam id="13664" interp="linr"  time="-9999999/1" value="0" leadInLength="0/1"  />
              <InterpolatingParam id="13665" interp="linr"  time="-9999999/1" value="0" leadInLength="0/1"  />
             </VectorParam>
             <VectorParam id="13666"  name="rotation">
              <InterpolatingParam id="13667" interp="linr"  time="-9999999/1" value="0" leadInLength="0/1"  />
              <InterpolatingParam id="13668" interp="linr"  time="-9999999/1" value="0" leadInLength="0/1"  />
              <InterpolatingParam id="13669" interp="linr"  time="-9999999/1" value="0" leadInLength="0/1"  />
             </VectorParam>
             <VectorParam id="13670"  name="shear">
              <InterpolatingParam id="13671" interp="linr"  time="-9999999/1" value="0" leadInLength="0/1"  />
              <InterpolatingParam id="13672" interp="linr"  time="-9999999/1" value="0" leadInLength="0/1"  />
              <InterpolatingParam id="13673" interp="linr"  time="-9999999/1" value="0" leadInLength="0/1"  />
             </VectorParam>
             <VectorParam id="13674"  name="scale">
              <InterpolatingParam id="13675" interp="linr"  time="-9999999/1" value="1" leadInLength="0/1"  />
              <InterpolatingParam id="13676" interp="linr"  time="-9999999/1" value="1" leadInLength="0/1"  />
              <InterpolatingParam id="13677" interp="linr"  time="-9999999/1" value="1" leadInLength="0/1"  />
             </VectorParam>
             <VectorParam id="13678"  name="anchor">
              <InterpolatingParam id="13679" interp="linr"  time="0/1" value="0" leadInLength="0/1"  />
              <InterpolatingParam id="13680" interp="linr"  time="0/1" value="0" leadInLength="0/1"  />
              <InterpolatingParam id="13681" interp="linr"  time="0/1" value="0" leadInLength="0/1"  />
             </VectorParam>
            </Transformer>
            <Parameters>
             <VectorParam id="13682"  name="sourceCrop">
              <InterpolatingParam id="13683" interp="linr"  time="0/1" value="0" leadInLength="0/1"  />
              <InterpolatingParam id="13684" interp="linr"  time="0/1" value="0" leadInLength="0/1"  />
              <InterpolatingParam id="13685" interp="linr"  time="0/1" value="0" leadInLength="0/1"  />
              <InterpolatingParam id="13686" interp="linr"  time="0/1" value="0" leadInLength="0/1"  />
             </VectorParam>
             <VectorParam id="13687"  name="geometryCrop">
              <InterpolatingParam id="13688" interp="linr"  time="-9999999/1" value="0" leadInLength="0/1"  />
              <InterpolatingParam id="13689" interp="linr"  time="-9999999/1" value="0" leadInLength="0/1"  />
              <InterpolatingParam id="13690" interp="linr"  time="-9999999/1" value="0" leadInLength="0/1"  />
              <InterpolatingParam id="13691" interp="linr"  time="-9999999/1" value="0" leadInLength="0/1"  />
             </VectorParam>
             <InterpolatingParam id="13692" interp="linr"  time="-9999999/1" value="1" leadInLength="0/1"  name="opacity"/>
            </Parameters>
            <Attributes>
             <Attribute id="13693" value="" name="ident"/>
            </Attributes>
            <MetaData>
             <entry key="WinSubProjectDisplayName" val=""/>
            </MetaData>
            <ExtraData>
             <Entry key="ZoomPanBin">
              <ZoomPanBin id="13694"  >
               <ZoomPanKeyframes>
                <ZoomPanKeyframe id="13695" timeRangeEnd="-9999999/1" timeRangeDuration="0/1" interpolaterName=""  />
               </ZoomPanKeyframes>
              </ZoomPanBin>
             </Entry>
            </ExtraData>
           </VMFile>
           <VMFile id="13696" start="10873" duration="411" scalar="1/1" mediaStart="30756/1" mediaDuration="411/1" trackNumber="0" src="4" >
            <Transformer>
             <VectorParam id="13697"  name="translation">
              <InterpolatingParam id="13698" interp="linr"  time="-9999999/1" value="0" leadInLength="0/1"  />
              <InterpolatingParam id="13699" interp="linr"  time="-9999999/1" value="0" leadInLength="0/1"  />
              <InterpolatingParam id="13700" interp="linr"  time="-9999999/1" value="0" leadInLength="0/1"  />
             </VectorParam>
             <VectorParam id="13701"  name="rotation">
              <InterpolatingParam id="13702" interp="linr"  time="-9999999/1" value="0" leadInLength="0/1"  />
              <InterpolatingParam id="13703" interp="linr"  time="-9999999/1" value="0" leadInLength="0/1"  />
              <InterpolatingParam id="13704" interp="linr"  time="-9999999/1" value="0" leadInLength="0/1"  />
             </VectorParam>
             <VectorParam id="13705"  name="shear">
              <InterpolatingParam id="13706" interp="linr"  time="-9999999/1" value="0" leadInLength="0/1"  />
              <InterpolatingParam id="13707" interp="linr"  time="-9999999/1" value="0" leadInLength="0/1"  />
              <InterpolatingParam id="13708" interp="linr"  time="-9999999/1" value="0" leadInLength="0/1"  />
             </VectorParam>
             <VectorParam id="13709"  name="scale">
              <InterpolatingParam id="13710" interp="linr"  time="-9999999/1" value="1" leadInLength="0/1"  />
              <InterpolatingParam id="13711" interp="linr"  time="-9999999/1" value="1" leadInLength="0/1"  />
              <InterpolatingParam id="13712" interp="linr"  time="-9999999/1" value="1" leadInLength="0/1"  />
             </VectorParam>
             <VectorParam id="13713"  name="anchor">
              <InterpolatingParam id="13714" interp="linr"  time="0/1" value="0" leadInLength="0/1"  />
              <InterpolatingParam id="13715" interp="linr"  time="0/1" value="0" leadInLength="0/1"  />
              <InterpolatingParam id="13716" interp="linr"  time="0/1" value="0" leadInLength="0/1"  />
             </VectorParam>
            </Transformer>
            <Parameters>
             <VectorParam id="13717"  name="sourceCrop">
              <InterpolatingParam id="13718" interp="linr"  time="0/1" value="0" leadInLength="0/1"  />
              <InterpolatingParam id="13719" interp="linr"  time="0/1" value="0" leadInLength="0/1"  />
              <InterpolatingParam id="13720" interp="linr"  time="0/1" value="0" leadInLength="0/1"  />
              <InterpolatingParam id="13721" interp="linr"  time="0/1" value="0" leadInLength="0/1"  />
             </VectorParam>
             <VectorParam id="13722"  name="geometryCrop">
              <InterpolatingParam id="13723" interp="linr"  time="-9999999/1" value="0" leadInLength="0/1"  />
              <InterpolatingParam id="13724" interp="linr"  time="-9999999/1" value="0" leadInLength="0/1"  />
              <InterpolatingParam id="13725" interp="linr"  time="-9999999/1" value="0" leadInLength="0/1"  />
              <InterpolatingParam id="13726" interp="linr"  time="-9999999/1" value="0" leadInLength="0/1"  />
             </VectorParam>
             <InterpolatingParam id="13727" interp="linr"  time="-9999999/1" value="1" leadInLength="0/1"  name="opacity"/>
            </Parameters>
            <Attributes>
             <Attribute id="13728" value="" name="ident"/>
            </Attributes>
            <MetaData>
             <entry key="WinSubProjectDisplayName" val=""/>
            </MetaData>
            <ExtraData>
             <Entry key="ZoomPanBin">
              <ZoomPanBin id="13729"  >
               <ZoomPanKeyframes>
                <ZoomPanKeyframe id="13730" timeRangeEnd="-9999999/1" timeRangeDuration="0/1" interpolaterName=""  />
               </ZoomPanKeyframes>
              </ZoomPanBin>
             </Entry>
            </ExtraData>
           </VMFile>
          </Medias>
         </GenericTrack>
        </StitchedMedia>
        <StitchedMedia id="13731" start="3625" duration="173" scalar="1152921504606846976/1153044566657568603" mediaStart="1152921504606846976/166731213060425" mediaDuration="36028797018963968/208236715261973" minMediaStart="0/1" >
         <Transformer>
          <VectorParam id="13732"  name="translation">
           <InterpolatingParam id="13733" interp="linr"  time="-9999999/1" value="0" leadInLength="0/1"  interpolater="leadin-linr"  />
           <InterpolatingParam id="13734" interp="linr"  time="-9999999/1" value="0" leadInLength="0/1"  interpolater="leadin-linr"  />
           <InterpolatingParam id="13735" interp="linr"  time="-9999999/1" value="0" leadInLength="0/1"  interpolater="leadin-linr"  />
          </VectorParam>
          <VectorParam id="13736"  name="rotation">
           <InterpolatingParam id="13737" interp="linr"  time="-9999999/1" value="0" leadInLength="0/1"  interpolater="leadin-linr"  />
           <InterpolatingParam id="13738" interp="linr"  time="-9999999/1" value="0" leadInLength="0/1"  interpolater="leadin-linr"  />
           <InterpolatingParam id="13739" interp="linr"  time="-9999999/1" value="0" leadInLength="0/1"  interpolater="leadin-linr"  />
          </VectorParam>
          <VectorParam id="13740"  name="shear">
           <InterpolatingParam id="13741" interp="linr"  time="-9999999/1" value="0" leadInLength="0/1"  interpolater="leadin-linr"  />
           <InterpolatingParam id="13742" interp="linr"  time="-9999999/1" value="0" leadInLength="0/1"  interpolater="leadin-linr"  />
           <InterpolatingParam id="13743" interp="linr"  time="-9999999/1" value="0" leadInLength="0/1"  interpolater="leadin-linr"  />
          </VectorParam>
          <VectorParam id="13744"  name="scale">
           <InterpolatingParam id="13745" interp="linr"  time="-9999999/1" value="1" leadInLength="0/1"  interpolater="leadin-linr"  />
           <InterpolatingParam id="13746" interp="linr"  time="-9999999/1" value="1" leadInLength="0/1"  interpolater="leadin-linr"  />
           <InterpolatingParam id="13747" interp="linr"  time="-9999999/1" value="1" leadInLength="0/1"  interpolater="leadin-linr"  />
          </VectorParam>
          <VectorParam id="13748"  name="anchor">
           <InterpolatingParam id="13749" interp="linr"  >
            <Keyframes>
            <Keyframe id="13750"  time="0/1" value="0" leadInLength="0/1"  />
            <Keyframe id="13751"  time="32931335377/7971776" value="0" leadInLength="0/1"  />
            <Keyframe id="13752"  time="4328/1" value="0" leadInLength="0/1"  />
            <Keyframe id="13753"  time="4457/1" value="0" leadInLength="0/1"  />
            <Keyframe id="13754"  time="46272102474146/7646783123" value="0" leadInLength="0/1"  />
            <Keyframe id="13755"  time="1152921504606846976/117073500061145" value="0" leadInLength="0/1"  />
            <Keyframe id="13756"  time="288230376151711744/29038376098307" value="0" leadInLength="0/1"  />
            </Keyframes>
           </InterpolatingParam>
           <InterpolatingParam id="13757" interp="linr"  >
            <Keyframes>
            <Keyframe id="13758"  time="0/1" value="0" leadInLength="0/1"  />
            <Keyframe id="13759"  time="32931335377/7971776" value="0" leadInLength="0/1"  />
            <Keyframe id="13760"  time="4328/1" value="0" leadInLength="0/1"  />
            <Keyframe id="13761"  time="4457/1" value="0" leadInLength="0/1"  />
            <Keyframe id="13762"  time="46272102474146/7646783123" value="0" leadInLength="0/1"  />
            <Keyframe id="13763"  time="1152921504606846976/117073500061145" value="0" leadInLength="0/1"  />
            <Keyframe id="13764"  time="288230376151711744/29038376098307" value="0" leadInLength="0/1"  />
            </Keyframes>
           </InterpolatingParam>
           <InterpolatingParam id="13765" interp="linr"  >
            <Keyframes>
            <Keyframe id="13766"  time="0/1" value="0" leadInLength="0/1"  />
            <Keyframe id="13767"  time="32931335377/7971776" value="0" leadInLength="0/1"  />
            <Keyframe id="13768"  time="4328/1" value="0" leadInLength="0/1"  />
            <Keyframe id="13769"  time="4457/1" value="0" leadInLength="0/1"  />
            <Keyframe id="13770"  time="46272102474146/7646783123" value="0" leadInLength="0/1"  />
            <Keyframe id="13771"  time="1152921504606846976/117073500061145" value="0" leadInLength="0/1"  />
            <Keyframe id="13772"  time="288230376151711744/29038376098307" value="0" leadInLength="0/1"  />
            </Keyframes>
           </InterpolatingParam>
          </VectorParam>
         </Transformer>
         <Parameters>
          <VectorParam id="13773"  name="sourceCrop">
           <InterpolatingParam id="13774" interp="linr"  >
            <Keyframes>
            <Keyframe id="13775"  time="0/1" value="0" leadInLength="0/1"  />
            <Keyframe id="13776"  time="32931335377/7971776" value="0" leadInLength="0/1"  />
            <Keyframe id="13777"  time="4328/1" value="0" leadInLength="0/1"  />
            <Keyframe id="13778"  time="4457/1" value="0" leadInLength="0/1"  />
            <Keyframe id="13779"  time="46272102474146/7646783123" value="0" leadInLength="0/1"  />
            <Keyframe id="13780"  time="1152921504606846976/117073500061145" value="0" leadInLength="0/1"  />
            <Keyframe id="13781"  time="288230376151711744/29038376098307" value="0" leadInLength="0/1"  />
            </Keyframes>
           </InterpolatingParam>
           <InterpolatingParam id="13782" interp="linr"  >
            <Keyframes>
            <Keyframe id="13783"  time="0/1" value="0" leadInLength="0/1"  />
            <Keyframe id="13784"  time="32931335377/7971776" value="0" leadInLength="0/1"  />
            <Keyframe id="13785"  time="4328/1" value="0" leadInLength="0/1"  />
            <Keyframe id="13786"  time="4457/1" value="0" leadInLength="0/1"  />
            <Keyframe id="13787"  time="46272102474146/7646783123" value="0" leadInLength="0/1"  />
            <Keyframe id="13788"  time="1152921504606846976/117073500061145" value="0" leadInLength="0/1"  />
            <Keyframe id="13789"  time="288230376151711744/29038376098307" value="0" leadInLength="0/1"  />
            </Keyframes>
           </InterpolatingParam>
           <InterpolatingParam id="13790" interp="linr"  >
            <Keyframes>
            <Keyframe id="13791"  time="0/1" value="0" leadInLength="0/1"  />
            <Keyframe id="13792"  time="32931335377/7971776" value="0" leadInLength="0/1"  />
            <Keyframe id="13793"  time="4328/1" value="0" leadInLength="0/1"  />
            <Keyframe id="13794"  time="4457/1" value="0" leadInLength="0/1"  />
            <Keyframe id="13795"  time="46272102474146/7646783123" value="0" leadInLength="0/1"  />
            <Keyframe id="13796"  time="1152921504606846976/117073500061145" value="0" leadInLength="0/1"  />
            <Keyframe id="13797"  time="288230376151711744/29038376098307" value="0" leadInLength="0/1"  />
            </Keyframes>
           </InterpolatingParam>
           <InterpolatingParam id="13798" interp="linr"  >
            <Keyframes>
            <Keyframe id="13799"  time="0/1" value="0" leadInLength="0/1"  />
            <Keyframe id="13800"  time="32931335377/7971776" value="0" leadInLength="0/1"  />
            <Keyframe id="13801"  time="4328/1" value="0" leadInLength="0/1"  />
            <Keyframe id="13802"  time="4457/1" value="0" leadInLength="0/1"  />
            <Keyframe id="13803"  time="46272102474146/7646783123" value="0" leadInLength="0/1"  />
            <Keyframe id="13804"  time="1152921504606846976/117073500061145" value="0" leadInLength="0/1"  />
            <Keyframe id="13805"  time="288230376151711744/29038376098307" value="0" leadInLength="0/1"  />
            </Keyframes>
           </InterpolatingParam>
          </VectorParam>
          <VectorParam id="13806"  name="geometryCrop">
           <InterpolatingParam id="13807" interp="linr"  time="-9999999/1" value="0" leadInLength="0/1"  interpolater="leadin-linr"  />
           <InterpolatingParam id="13808" interp="linr"  time="-9999999/1" value="0" leadInLength="0/1"  interpolater="leadin-linr"  />
           <InterpolatingParam id="13809" interp="linr"  time="-9999999/1" value="0" leadInLength="0/1"  interpolater="leadin-linr"  />
           <InterpolatingParam id="13810" interp="linr"  time="-9999999/1" value="0" leadInLength="0/1"  interpolater="leadin-linr"  />
          </VectorParam>
          <InterpolatingParam id="13811" interp="linr"  time="-9999999/1" value="1" leadInLength="0/1"  interpolater="leadin-linr"  name="opacity"/>
          <InterpolatingParam id="13812" interp="linr"  time="0/1" value="1" leadInLength="0/1"  name="cursorOpacity"/>
          <InterpolatingParam id="13813" interp="linr"  time="0/1" value="1" leadInLength="0/1"  name="cursorScale"/>
          <Parameter id="13814"  name="captions"/>
         </Parameters>
         <Attributes>
          <Attribute id="13815" value="" name="ident"/>
         </Attributes>
         <MetaData>
          <entry key="WinSubProjectDisplayName" val=""/>
         </MetaData>
         <ExtraData>
          <Entry key="ZoomPanBin">
           <ZoomPanBin id="13816"  >
            <ZoomPanKeyframes>
             <ZoomPanKeyframe id="13817" timeRangeEnd="-9999999/1" timeRangeDuration="0/1" interpolaterName="linr"  />
            </ZoomPanKeyframes>
           </ZoomPanBin>
          </Entry>
          <Entry key="CursorEffectBin">
           <CursorEffectBin id="13818"  >
            <CursorEffectKeyframes>
            </CursorEffectKeyframes>
           </CursorEffectBin>
          </Entry>
         </ExtraData>
         <GenericTrack id="13819"  >
          <Attributes>
           <Attribute id="13820" value="" name="ident"/>
           <Attribute id="13821" value="0" name="audioMuted"/>
           <Attribute id="13822" value="0" name="videoHidden"/>
          </Attributes>
          <MetaData>
           <entry key="IsLocked" val="False"/>
           <entry key="WinTrackHeight" val="0"/>
          </MetaData>
          <Medias>
           <VMFile id="13823" start="0" duration="4131" scalar="1/1" mediaStart="0/1" mediaDuration="4131/1" trackNumber="0" src="4" >
            <Transformer>
             <VectorParam id="13824"  name="translation">
              <InterpolatingParam id="13825" interp="linr"  time="-9999999/1" value="0" leadInLength="0/1"  />
              <InterpolatingParam id="13826" interp="linr"  time="-9999999/1" value="0" leadInLength="0/1"  />
              <InterpolatingParam id="13827" interp="linr"  time="-9999999/1" value="0" leadInLength="0/1"  />
             </VectorParam>
             <VectorParam id="13828"  name="rotation">
              <InterpolatingParam id="13829" interp="linr"  time="-9999999/1" value="0" leadInLength="0/1"  />
              <InterpolatingParam id="13830" interp="linr"  time="-9999999/1" value="0" leadInLength="0/1"  />
              <InterpolatingParam id="13831" interp="linr"  time="-9999999/1" value="0" leadInLength="0/1"  />
             </VectorParam>
             <VectorParam id="13832"  name="shear">
              <InterpolatingParam id="13833" interp="linr"  time="-9999999/1" value="0" leadInLength="0/1"  />
              <InterpolatingParam id="13834" interp="linr"  time="-9999999/1" value="0" leadInLength="0/1"  />
              <InterpolatingParam id="13835" interp="linr"  time="-9999999/1" value="0" leadInLength="0/1"  />
             </VectorParam>
             <VectorParam id="13836"  name="scale">
              <InterpolatingParam id="13837" interp="linr"  time="-9999999/1" value="1" leadInLength="0/1"  />
              <InterpolatingParam id="13838" interp="linr"  time="-9999999/1" value="1" leadInLength="0/1"  />
              <InterpolatingParam id="13839" interp="linr"  time="-9999999/1" value="1" leadInLength="0/1"  />
             </VectorParam>
             <VectorParam id="13840"  name="anchor">
              <InterpolatingParam id="13841" interp="linr"  time="0/1" value="0" leadInLength="0/1"  />
              <InterpolatingParam id="13842" interp="linr"  time="0/1" value="0" leadInLength="0/1"  />
              <InterpolatingParam id="13843" interp="linr"  time="0/1" value="0" leadInLength="0/1"  />
             </VectorParam>
            </Transformer>
            <Parameters>
             <VectorParam id="13844"  name="sourceCrop">
              <InterpolatingParam id="13845" interp="linr"  time="0/1" value="0" leadInLength="0/1"  />
              <InterpolatingParam id="13846" interp="linr"  time="0/1" value="0" leadInLength="0/1"  />
              <InterpolatingParam id="13847" interp="linr"  time="0/1" value="0" leadInLength="0/1"  />
              <InterpolatingParam id="13848" interp="linr"  time="0/1" value="0" leadInLength="0/1"  />
             </VectorParam>
             <VectorParam id="13849"  name="geometryCrop">
              <InterpolatingParam id="13850" interp="linr"  time="-9999999/1" value="0" leadInLength="0/1"  />
              <InterpolatingParam id="13851" interp="linr"  time="-9999999/1" value="0" leadInLength="0/1"  />
              <InterpolatingParam id="13852" interp="linr"  time="-9999999/1" value="0" leadInLength="0/1"  />
              <InterpolatingParam id="13853" interp="linr"  time="-9999999/1" value="0" leadInLength="0/1"  />
             </VectorParam>
             <InterpolatingParam id="13854" interp="linr"  time="-9999999/1" value="1" leadInLength="0/1"  name="opacity"/>
            </Parameters>
            <Attributes>
             <Attribute id="13855" value="" name="ident"/>
            </Attributes>
            <MetaData>
             <entry key="WinSubProjectDisplayName" val=""/>
            </MetaData>
            <ExtraData>
             <Entry key="ZoomPanBin">
              <ZoomPanBin id="13856"  >
               <ZoomPanKeyframes>
                <ZoomPanKeyframe id="13857" timeRangeEnd="-9999999/1" timeRangeDuration="0/1" interpolaterName=""  />
               </ZoomPanKeyframes>
              </ZoomPanBin>
             </Entry>
            </ExtraData>
           </VMFile>
           <IMFile id="13858" start="4131" duration="12" scalar="1/1" mediaStart="4130/1" mediaDuration="1/1" trackNumber="0" src="4" trimStartSum="0/1" >
            <Transformer>
             <VectorParam id="13859"  name="translation">
              <InterpolatingParam id="13860" interp="linr"  time="-9999999/1" value="0" leadInLength="0/1"  />
              <InterpolatingParam id="13861" interp="linr"  time="-9999999/1" value="0" leadInLength="0/1"  />
              <InterpolatingParam id="13862" interp="linr"  time="-9999999/1" value="0" leadInLength="0/1"  />
             </VectorParam>
             <VectorParam id="13863"  name="rotation">
              <InterpolatingParam id="13864" interp="linr"  time="-9999999/1" value="0" leadInLength="0/1"  />
              <InterpolatingParam id="13865" interp="linr"  time="-9999999/1" value="0" leadInLength="0/1"  />
              <InterpolatingParam id="13866" interp="linr"  time="-9999999/1" value="0" leadInLength="0/1"  />
             </VectorParam>
             <VectorParam id="13867"  name="shear">
              <InterpolatingParam id="13868" interp="linr"  time="-9999999/1" value="0" leadInLength="0/1"  />
              <InterpolatingParam id="13869" interp="linr"  time="-9999999/1" value="0" leadInLength="0/1"  />
              <InterpolatingParam id="13870" interp="linr"  time="-9999999/1" value="0" leadInLength="0/1"  />
             </VectorParam>
             <VectorParam id="13871"  name="scale">
              <InterpolatingParam id="13872" interp="linr"  time="-9999999/1" value="1" leadInLength="0/1"  />
              <InterpolatingParam id="13873" interp="linr"  time="-9999999/1" value="1" leadInLength="0/1"  />
              <InterpolatingParam id="13874" interp="linr"  time="-9999999/1" value="1" leadInLength="0/1"  />
             </VectorParam>
             <VectorParam id="13875"  name="anchor">
              <InterpolatingParam id="13876" interp="linr"  time="0/1" value="0" leadInLength="0/1"  />
              <InterpolatingParam id="13877" interp="linr"  time="0/1" value="0" leadInLength="0/1"  />
              <InterpolatingParam id="13878" interp="linr"  time="0/1" value="0" leadInLength="0/1"  />
             </VectorParam>
            </Transformer>
            <Parameters>
             <VectorParam id="13879"  name="sourceCrop">
              <InterpolatingParam id="13880" interp="linr"  time="0/1" value="0" leadInLength="0/1"  />
              <InterpolatingParam id="13881" interp="linr"  time="0/1" value="0" leadInLength="0/1"  />
              <InterpolatingParam id="13882" interp="linr"  time="0/1" value="0" leadInLength="0/1"  />
              <InterpolatingParam id="13883" interp="linr"  time="0/1" value="0" leadInLength="0/1"  />
             </VectorParam>
             <VectorParam id="13884"  name="geometryCrop">
              <InterpolatingParam id="13885" interp="linr"  time="-9999999/1" value="0" leadInLength="0/1"  />
              <InterpolatingParam id="13886" interp="linr"  time="-9999999/1" value="0" leadInLength="0/1"  />
              <InterpolatingParam id="13887" interp="linr"  time="-9999999/1" value="0" leadInLength="0/1"  />
              <InterpolatingParam id="13888" interp="linr"  time="-9999999/1" value="0" leadInLength="0/1"  />
             </VectorParam>
             <InterpolatingParam id="13889" interp="linr"  time="-9999999/1" value="1" leadInLength="0/1"  name="opacity"/>
            </Parameters>
            <Attributes>
             <Attribute id="13890" value="" name="ident"/>
            </Attributes>
            <MetaData>
             <entry key="WinSubProjectDisplayName" val=""/>
            </MetaData>
            <ExtraData>
             <Entry key="ZoomPanBin">
              <ZoomPanBin id="13891"  >
               <ZoomPanKeyframes>
                <ZoomPanKeyframe id="13892" timeRangeEnd="-9999999/1" timeRangeDuration="0/1" interpolaterName=""  />
               </ZoomPanKeyframes>
              </ZoomPanBin>
             </Entry>
            </ExtraData>
           </IMFile>
           <VMFile id="13893" start="4143" duration="185" scalar="1/1" mediaStart="4130/1" mediaDuration="185/1" trackNumber="0" src="4" >
            <Transformer>
             <VectorParam id="13894"  name="translation">
              <InterpolatingParam id="13895" interp="linr"  time="-9999999/1" value="0" leadInLength="0/1"  />
              <InterpolatingParam id="13896" interp="linr"  time="-9999999/1" value="0" leadInLength="0/1"  />
              <InterpolatingParam id="13897" interp="linr"  time="-9999999/1" value="0" leadInLength="0/1"  />
             </VectorParam>
             <VectorParam id="13898"  name="rotation">
              <InterpolatingParam id="13899" interp="linr"  time="-9999999/1" value="0" leadInLength="0/1"  />
              <InterpolatingParam id="13900" interp="linr"  time="-9999999/1" value="0" leadInLength="0/1"  />
              <InterpolatingParam id="13901" interp="linr"  time="-9999999/1" value="0" leadInLength="0/1"  />
             </VectorParam>
             <VectorParam id="13902"  name="shear">
              <InterpolatingParam id="13903" interp="linr"  time="-9999999/1" value="0" leadInLength="0/1"  />
              <InterpolatingParam id="13904" interp="linr"  time="-9999999/1" value="0" leadInLength="0/1"  />
              <InterpolatingParam id="13905" interp="linr"  time="-9999999/1" value="0" leadInLength="0/1"  />
             </VectorParam>
             <VectorParam id="13906"  name="scale">
              <InterpolatingParam id="13907" interp="linr"  time="-9999999/1" value="1" leadInLength="0/1"  />
              <InterpolatingParam id="13908" interp="linr"  time="-9999999/1" value="1" leadInLength="0/1"  />
              <InterpolatingParam id="13909" interp="linr"  time="-9999999/1" value="1" leadInLength="0/1"  />
             </VectorParam>
             <VectorParam id="13910"  name="anchor">
              <InterpolatingParam id="13911" interp="linr"  time="0/1" value="0" leadInLength="0/1"  />
              <InterpolatingParam id="13912" interp="linr"  time="0/1" value="0" leadInLength="0/1"  />
              <InterpolatingParam id="13913" interp="linr"  time="0/1" value="0" leadInLength="0/1"  />
             </VectorParam>
            </Transformer>
            <Parameters>
             <VectorParam id="13914"  name="sourceCrop">
              <InterpolatingParam id="13915" interp="linr"  time="0/1" value="0" leadInLength="0/1"  />
              <InterpolatingParam id="13916" interp="linr"  time="0/1" value="0" leadInLength="0/1"  />
              <InterpolatingParam id="13917" interp="linr"  time="0/1" value="0" leadInLength="0/1"  />
              <InterpolatingParam id="13918" interp="linr"  time="0/1" value="0" leadInLength="0/1"  />
             </VectorParam>
             <VectorParam id="13919"  name="geometryCrop">
              <InterpolatingParam id="13920" interp="linr"  time="-9999999/1" value="0" leadInLength="0/1"  />
              <InterpolatingParam id="13921" interp="linr"  time="-9999999/1" value="0" leadInLength="0/1"  />
              <InterpolatingParam id="13922" interp="linr"  time="-9999999/1" value="0" leadInLength="0/1"  />
              <InterpolatingParam id="13923" interp="linr"  time="-9999999/1" value="0" leadInLength="0/1"  />
             </VectorParam>
             <InterpolatingParam id="13924" interp="linr"  time="-9999999/1" value="1" leadInLength="0/1"  name="opacity"/>
            </Parameters>
            <Attributes>
             <Attribute id="13925" value="" name="ident"/>
            </Attributes>
            <MetaData>
             <entry key="WinSubProjectDisplayName" val=""/>
            </MetaData>
            <ExtraData>
             <Entry key="ZoomPanBin">
              <ZoomPanBin id="13926"  >
               <ZoomPanKeyframes>
                <ZoomPanKeyframe id="13927" timeRangeEnd="-9999999/1" timeRangeDuration="0/1" interpolaterName=""  />
               </ZoomPanKeyframes>
              </ZoomPanBin>
             </Entry>
            </ExtraData>
           </VMFile>
           <IMFile id="13928" start="4328" duration="3" scalar="1/1" mediaStart="4315/1" mediaDuration="1/1" trackNumber="0" src="4" trimStartSum="0/1" >
            <Transformer>
             <VectorParam id="13929"  name="translation">
              <InterpolatingParam id="13930" interp="linr"  time="-9999999/1" value="0" leadInLength="0/1"  />
              <InterpolatingParam id="13931" interp="linr"  time="-9999999/1" value="0" leadInLength="0/1"  />
              <InterpolatingParam id="13932" interp="linr"  time="-9999999/1" value="0" leadInLength="0/1"  />
             </VectorParam>
             <VectorParam id="13933"  name="rotation">
              <InterpolatingParam id="13934" interp="linr"  time="-9999999/1" value="0" leadInLength="0/1"  />
              <InterpolatingParam id="13935" interp="linr"  time="-9999999/1" value="0" leadInLength="0/1"  />
              <InterpolatingParam id="13936" interp="linr"  time="-9999999/1" value="0" leadInLength="0/1"  />
             </VectorParam>
             <VectorParam id="13937"  name="shear">
              <InterpolatingParam id="13938" interp="linr"  time="-9999999/1" value="0" leadInLength="0/1"  />
              <InterpolatingParam id="13939" interp="linr"  time="-9999999/1" value="0" leadInLength="0/1"  />
              <InterpolatingParam id="13940" interp="linr"  time="-9999999/1" value="0" leadInLength="0/1"  />
             </VectorParam>
             <VectorParam id="13941"  name="scale">
              <InterpolatingParam id="13942" interp="linr"  time="-9999999/1" value="1" leadInLength="0/1"  />
              <InterpolatingParam id="13943" interp="linr"  time="-9999999/1" value="1" leadInLength="0/1"  />
              <InterpolatingParam id="13944" interp="linr"  time="-9999999/1" value="1" leadInLength="0/1"  />
             </VectorParam>
             <VectorParam id="13945"  name="anchor">
              <InterpolatingParam id="13946" interp="linr"  time="0/1" value="0" leadInLength="0/1"  />
              <InterpolatingParam id="13947" interp="linr"  time="0/1" value="0" leadInLength="0/1"  />
              <InterpolatingParam id="13948" interp="linr"  time="0/1" value="0" leadInLength="0/1"  />
             </VectorParam>
            </Transformer>
            <Parameters>
             <VectorParam id="13949"  name="sourceCrop">
              <InterpolatingParam id="13950" interp="linr"  time="0/1" value="0" leadInLength="0/1"  />
              <InterpolatingParam id="13951" interp="linr"  time="0/1" value="0" leadInLength="0/1"  />
              <InterpolatingParam id="13952" interp="linr"  time="0/1" value="0" leadInLength="0/1"  />
              <InterpolatingParam id="13953" interp="linr"  time="0/1" value="0" leadInLength="0/1"  />
             </VectorParam>
             <VectorParam id="13954"  name="geometryCrop">
              <InterpolatingParam id="13955" interp="linr"  time="-9999999/1" value="0" leadInLength="0/1"  />
              <InterpolatingParam id="13956" interp="linr"  time="-9999999/1" value="0" leadInLength="0/1"  />
              <InterpolatingParam id="13957" interp="linr"  time="-9999999/1" value="0" leadInLength="0/1"  />
              <InterpolatingParam id="13958" interp="linr"  time="-9999999/1" value="0" leadInLength="0/1"  />
             </VectorParam>
             <InterpolatingParam id="13959" interp="linr"  time="-9999999/1" value="1" leadInLength="0/1"  name="opacity"/>
            </Parameters>
            <Attributes>
             <Attribute id="13960" value="" name="ident"/>
            </Attributes>
            <MetaData>
             <entry key="WinSubProjectDisplayName" val=""/>
            </MetaData>
            <ExtraData>
             <Entry key="ZoomPanBin">
              <ZoomPanBin id="13961"  >
               <ZoomPanKeyframes>
                <ZoomPanKeyframe id="13962" timeRangeEnd="-9999999/1" timeRangeDuration="0/1" interpolaterName=""  />
               </ZoomPanKeyframes>
              </ZoomPanBin>
             </Entry>
            </ExtraData>
           </IMFile>
           <VMFile id="13963" start="4331" duration="31" scalar="1/1" mediaStart="4315/1" mediaDuration="31/1" trackNumber="0" src="4" >
            <Transformer>
             <VectorParam id="13964"  name="translation">
              <InterpolatingParam id="13965" interp="linr"  time="-9999999/1" value="0" leadInLength="0/1"  />
              <InterpolatingParam id="13966" interp="linr"  time="-9999999/1" value="0" leadInLength="0/1"  />
              <InterpolatingParam id="13967" interp="linr"  time="-9999999/1" value="0" leadInLength="0/1"  />
             </VectorParam>
             <VectorParam id="13968"  name="rotation">
              <InterpolatingParam id="13969" interp="linr"  time="-9999999/1" value="0" leadInLength="0/1"  />
              <InterpolatingParam id="13970" interp="linr"  time="-9999999/1" value="0" leadInLength="0/1"  />
              <InterpolatingParam id="13971" interp="linr"  time="-9999999/1" value="0" leadInLength="0/1"  />
             </VectorParam>
             <VectorParam id="13972"  name="shear">
              <InterpolatingParam id="13973" interp="linr"  time="-9999999/1" value="0" leadInLength="0/1"  />
              <InterpolatingParam id="13974" interp="linr"  time="-9999999/1" value="0" leadInLength="0/1"  />
              <InterpolatingParam id="13975" interp="linr"  time="-9999999/1" value="0" leadInLength="0/1"  />
             </VectorParam>
             <VectorParam id="13976"  name="scale">
              <InterpolatingParam id="13977" interp="linr"  time="-9999999/1" value="1" leadInLength="0/1"  />
              <InterpolatingParam id="13978" interp="linr"  time="-9999999/1" value="1" leadInLength="0/1"  />
              <InterpolatingParam id="13979" interp="linr"  time="-9999999/1" value="1" leadInLength="0/1"  />
             </VectorParam>
             <VectorParam id="13980"  name="anchor">
              <InterpolatingParam id="13981" interp="linr"  time="0/1" value="0" leadInLength="0/1"  />
              <InterpolatingParam id="13982" interp="linr"  time="0/1" value="0" leadInLength="0/1"  />
              <InterpolatingParam id="13983" interp="linr"  time="0/1" value="0" leadInLength="0/1"  />
             </VectorParam>
            </Transformer>
            <Parameters>
             <VectorParam id="13984"  name="sourceCrop">
              <InterpolatingParam id="13985" interp="linr"  time="0/1" value="0" leadInLength="0/1"  />
              <InterpolatingParam id="13986" interp="linr"  time="0/1" value="0" leadInLength="0/1"  />
              <InterpolatingParam id="13987" interp="linr"  time="0/1" value="0" leadInLength="0/1"  />
              <InterpolatingParam id="13988" interp="linr"  time="0/1" value="0" leadInLength="0/1"  />
             </VectorParam>
             <VectorParam id="13989"  name="geometryCrop">
              <InterpolatingParam id="13990" interp="linr"  time="-9999999/1" value="0" leadInLength="0/1"  />
              <InterpolatingParam id="13991" interp="linr"  time="-9999999/1" value="0" leadInLength="0/1"  />
              <InterpolatingParam id="13992" interp="linr"  time="-9999999/1" value="0" leadInLength="0/1"  />
              <InterpolatingParam id="13993" interp="linr"  time="-9999999/1" value="0" leadInLength="0/1"  />
             </VectorParam>
             <InterpolatingParam id="13994" interp="linr"  time="-9999999/1" value="1" leadInLength="0/1"  name="opacity"/>
            </Parameters>
            <Attributes>
             <Attribute id="13995" value="" name="ident"/>
            </Attributes>
            <MetaData>
             <entry key="WinSubProjectDisplayName" val=""/>
            </MetaData>
            <ExtraData>
             <Entry key="ZoomPanBin">
              <ZoomPanBin id="13996"  >
               <ZoomPanKeyframes>
                <ZoomPanKeyframe id="13997" timeRangeEnd="-9999999/1" timeRangeDuration="0/1" interpolaterName=""  />
               </ZoomPanKeyframes>
              </ZoomPanBin>
             </Entry>
            </ExtraData>
           </VMFile>
           <VMFile id="13998" start="4362" duration="95" scalar="1/1" mediaStart="4751/1" mediaDuration="95/1" trackNumber="0" src="4" >
            <Transformer>
             <VectorParam id="13999"  name="translation">
              <InterpolatingParam id="14000" interp="linr"  time="-9999999/1" value="0" leadInLength="0/1"  />
              <InterpolatingParam id="14001" interp="linr"  time="-9999999/1" value="0" leadInLength="0/1"  />
              <InterpolatingParam id="14002" interp="linr"  time="-9999999/1" value="0" leadInLength="0/1"  />
             </VectorParam>
             <VectorParam id="14003"  name="rotation">
              <InterpolatingParam id="14004" interp="linr"  time="-9999999/1" value="0" leadInLength="0/1"  />
              <InterpolatingParam id="14005" interp="linr"  time="-9999999/1" value="0" leadInLength="0/1"  />
              <InterpolatingParam id="14006" interp="linr"  time="-9999999/1" value="0" leadInLength="0/1"  />
             </VectorParam>
             <VectorParam id="14007"  name="shear">
              <InterpolatingParam id="14008" interp="linr"  time="-9999999/1" value="0" leadInLength="0/1"  />
              <InterpolatingParam id="14009" interp="linr"  time="-9999999/1" value="0" leadInLength="0/1"  />
              <InterpolatingParam id="14010" interp="linr"  time="-9999999/1" value="0" leadInLength="0/1"  />
             </VectorParam>
             <VectorParam id="14011"  name="scale">
              <InterpolatingParam id="14012" interp="linr"  time="-9999999/1" value="1" leadInLength="0/1"  />
              <InterpolatingParam id="14013" interp="linr"  time="-9999999/1" value="1" leadInLength="0/1"  />
              <InterpolatingParam id="14014" interp="linr"  time="-9999999/1" value="1" leadInLength="0/1"  />
             </VectorParam>
             <VectorParam id="14015"  name="anchor">
              <InterpolatingParam id="14016" interp="linr"  time="0/1" value="0" leadInLength="0/1"  />
              <InterpolatingParam id="14017" interp="linr"  time="0/1" value="0" leadInLength="0/1"  />
              <InterpolatingParam id="14018" interp="linr"  time="0/1" value="0" leadInLength="0/1"  />
             </VectorParam>
            </Transformer>
            <Parameters>
             <VectorParam id="14019"  name="sourceCrop">
              <InterpolatingParam id="14020" interp="linr"  time="0/1" value="0" leadInLength="0/1"  />
              <InterpolatingParam id="14021" interp="linr"  time="0/1" value="0" leadInLength="0/1"  />
              <InterpolatingParam id="14022" interp="linr"  time="0/1" value="0" leadInLength="0/1"  />
              <InterpolatingParam id="14023" interp="linr"  time="0/1" value="0" leadInLength="0/1"  />
             </VectorParam>
             <VectorParam id="14024"  name="geometryCrop">
              <InterpolatingParam id="14025" interp="linr"  time="-9999999/1" value="0" leadInLength="0/1"  />
              <InterpolatingParam id="14026" interp="linr"  time="-9999999/1" value="0" leadInLength="0/1"  />
              <InterpolatingParam id="14027" interp="linr"  time="-9999999/1" value="0" leadInLength="0/1"  />
              <InterpolatingParam id="14028" interp="linr"  time="-9999999/1" value="0" leadInLength="0/1"  />
             </VectorParam>
             <InterpolatingParam id="14029" interp="linr"  time="-9999999/1" value="1" leadInLength="0/1"  name="opacity"/>
            </Parameters>
            <Attributes>
             <Attribute id="14030" value="" name="ident"/>
            </Attributes>
            <MetaData>
             <entry key="WinSubProjectDisplayName" val=""/>
            </MetaData>
            <ExtraData>
             <Entry key="ZoomPanBin">
              <ZoomPanBin id="14031"  >
               <ZoomPanKeyframes>
                <ZoomPanKeyframe id="14032" timeRangeEnd="-9999999/1" timeRangeDuration="0/1" interpolaterName=""  />
               </ZoomPanKeyframes>
              </ZoomPanBin>
             </Entry>
            </ExtraData>
           </VMFile>
           <IMFile id="14033" start="4457" duration="270" scalar="1/1" mediaStart="4846/1" mediaDuration="1/1" trackNumber="0" src="4" trimStartSum="0/1" >
            <Transformer>
             <VectorParam id="14034"  name="translation">
              <InterpolatingParam id="14035" interp="linr"  time="-9999999/1" value="0" leadInLength="0/1"  />
              <InterpolatingParam id="14036" interp="linr"  time="-9999999/1" value="0" leadInLength="0/1"  />
              <InterpolatingParam id="14037" interp="linr"  time="-9999999/1" value="0" leadInLength="0/1"  />
             </VectorParam>
             <VectorParam id="14038"  name="rotation">
              <InterpolatingParam id="14039" interp="linr"  time="-9999999/1" value="0" leadInLength="0/1"  />
              <InterpolatingParam id="14040" interp="linr"  time="-9999999/1" value="0" leadInLength="0/1"  />
              <InterpolatingParam id="14041" interp="linr"  time="-9999999/1" value="0" leadInLength="0/1"  />
             </VectorParam>
             <VectorParam id="14042"  name="shear">
              <InterpolatingParam id="14043" interp="linr"  time="-9999999/1" value="0" leadInLength="0/1"  />
              <InterpolatingParam id="14044" interp="linr"  time="-9999999/1" value="0" leadInLength="0/1"  />
              <InterpolatingParam id="14045" interp="linr"  time="-9999999/1" value="0" leadInLength="0/1"  />
             </VectorParam>
             <VectorParam id="14046"  name="scale">
              <InterpolatingParam id="14047" interp="linr"  time="-9999999/1" value="1" leadInLength="0/1"  />
              <InterpolatingParam id="14048" interp="linr"  time="-9999999/1" value="1" leadInLength="0/1"  />
              <InterpolatingParam id="14049" interp="linr"  time="-9999999/1" value="1" leadInLength="0/1"  />
             </VectorParam>
             <VectorParam id="14050"  name="anchor">
              <InterpolatingParam id="14051" interp="linr"  time="0/1" value="0" leadInLength="0/1"  />
              <InterpolatingParam id="14052" interp="linr"  time="0/1" value="0" leadInLength="0/1"  />
              <InterpolatingParam id="14053" interp="linr"  time="0/1" value="0" leadInLength="0/1"  />
             </VectorParam>
            </Transformer>
            <Parameters>
             <VectorParam id="14054"  name="sourceCrop">
              <InterpolatingParam id="14055" interp="linr"  time="0/1" value="0" leadInLength="0/1"  />
              <InterpolatingParam id="14056" interp="linr"  time="0/1" value="0" leadInLength="0/1"  />
              <InterpolatingParam id="14057" interp="linr"  time="0/1" value="0" leadInLength="0/1"  />
              <InterpolatingParam id="14058" interp="linr"  time="0/1" value="0" leadInLength="0/1"  />
             </VectorParam>
             <VectorParam id="14059"  name="geometryCrop">
              <InterpolatingParam id="14060" interp="linr"  time="-9999999/1" value="0" leadInLength="0/1"  />
              <InterpolatingParam id="14061" interp="linr"  time="-9999999/1" value="0" leadInLength="0/1"  />
              <InterpolatingParam id="14062" interp="linr"  time="-9999999/1" value="0" leadInLength="0/1"  />
              <InterpolatingParam id="14063" interp="linr"  time="-9999999/1" value="0" leadInLength="0/1"  />
             </VectorParam>
             <InterpolatingParam id="14064" interp="linr"  time="-9999999/1" value="1" leadInLength="0/1"  name="opacity"/>
            </Parameters>
            <Attributes>
             <Attribute id="14065" value="" name="ident"/>
            </Attributes>
            <MetaData>
             <entry key="WinSubProjectDisplayName" val=""/>
            </MetaData>
            <ExtraData>
             <Entry key="ZoomPanBin">
              <ZoomPanBin id="14066"  >
               <ZoomPanKeyframes>
                <ZoomPanKeyframe id="14067" timeRangeEnd="-9999999/1" timeRangeDuration="0/1" interpolaterName=""  />
               </ZoomPanKeyframes>
              </ZoomPanBin>
             </Entry>
            </ExtraData>
           </IMFile>
           <VMFile id="14068" start="4727" duration="17" scalar="1/1" mediaStart="4846/1" mediaDuration="17/1" trackNumber="0" src="4" >
            <Transformer>
             <VectorParam id="14069"  name="translation">
              <InterpolatingParam id="14070" interp="linr"  time="-9999999/1" value="0" leadInLength="0/1"  />
              <InterpolatingParam id="14071" interp="linr"  time="-9999999/1" value="0" leadInLength="0/1"  />
              <InterpolatingParam id="14072" interp="linr"  time="-9999999/1" value="0" leadInLength="0/1"  />
             </VectorParam>
             <VectorParam id="14073"  name="rotation">
              <InterpolatingParam id="14074" interp="linr"  time="-9999999/1" value="0" leadInLength="0/1"  />
              <InterpolatingParam id="14075" interp="linr"  time="-9999999/1" value="0" leadInLength="0/1"  />
              <InterpolatingParam id="14076" interp="linr"  time="-9999999/1" value="0" leadInLength="0/1"  />
             </VectorParam>
             <VectorParam id="14077"  name="shear">
              <InterpolatingParam id="14078" interp="linr"  time="-9999999/1" value="0" leadInLength="0/1"  />
              <InterpolatingParam id="14079" interp="linr"  time="-9999999/1" value="0" leadInLength="0/1"  />
              <InterpolatingParam id="14080" interp="linr"  time="-9999999/1" value="0" leadInLength="0/1"  />
             </VectorParam>
             <VectorParam id="14081"  name="scale">
              <InterpolatingParam id="14082" interp="linr"  time="-9999999/1" value="1" leadInLength="0/1"  />
              <InterpolatingParam id="14083" interp="linr"  time="-9999999/1" value="1" leadInLength="0/1"  />
              <InterpolatingParam id="14084" interp="linr"  time="-9999999/1" value="1" leadInLength="0/1"  />
             </VectorParam>
             <VectorParam id="14085"  name="anchor">
              <InterpolatingParam id="14086" interp="linr"  time="0/1" value="0" leadInLength="0/1"  />
              <InterpolatingParam id="14087" interp="linr"  time="0/1" value="0" leadInLength="0/1"  />
              <InterpolatingParam id="14088" interp="linr"  time="0/1" value="0" leadInLength="0/1"  />
             </VectorParam>
            </Transformer>
            <Parameters>
             <VectorParam id="14089"  name="sourceCrop">
              <InterpolatingParam id="14090" interp="linr"  time="0/1" value="0" leadInLength="0/1"  />
              <InterpolatingParam id="14091" interp="linr"  time="0/1" value="0" leadInLength="0/1"  />
              <InterpolatingParam id="14092" interp="linr"  time="0/1" value="0" leadInLength="0/1"  />
              <InterpolatingParam id="14093" interp="linr"  time="0/1" value="0" leadInLength="0/1"  />
             </VectorParam>
             <VectorParam id="14094"  name="geometryCrop">
              <InterpolatingParam id="14095" interp="linr"  time="-9999999/1" value="0" leadInLength="0/1"  />
              <InterpolatingParam id="14096" interp="linr"  time="-9999999/1" value="0" leadInLength="0/1"  />
              <InterpolatingParam id="14097" interp="linr"  time="-9999999/1" value="0" leadInLength="0/1"  />
              <InterpolatingParam id="14098" interp="linr"  time="-9999999/1" value="0" leadInLength="0/1"  />
             </VectorParam>
             <InterpolatingParam id="14099" interp="linr"  time="-9999999/1" value="1" leadInLength="0/1"  name="opacity"/>
            </Parameters>
            <Attributes>
             <Attribute id="14100" value="" name="ident"/>
            </Attributes>
            <MetaData>
             <entry key="WinSubProjectDisplayName" val=""/>
            </MetaData>
            <ExtraData>
             <Entry key="ZoomPanBin">
              <ZoomPanBin id="14101"  >
               <ZoomPanKeyframes>
                <ZoomPanKeyframe id="14102" timeRangeEnd="-9999999/1" timeRangeDuration="0/1" interpolaterName=""  />
               </ZoomPanKeyframes>
              </ZoomPanBin>
             </Entry>
            </ExtraData>
           </VMFile>
           <VMFile id="14103" start="4744" duration="386" scalar="1/1" mediaStart="7805/1" mediaDuration="386/1" trackNumber="0" src="4" >
            <Transformer>
             <VectorParam id="14104"  name="translation">
              <InterpolatingParam id="14105" interp="linr"  time="-9999999/1" value="0" leadInLength="0/1"  />
              <InterpolatingParam id="14106" interp="linr"  time="-9999999/1" value="0" leadInLength="0/1"  />
              <InterpolatingParam id="14107" interp="linr"  time="-9999999/1" value="0" leadInLength="0/1"  />
             </VectorParam>
             <VectorParam id="14108"  name="rotation">
              <InterpolatingParam id="14109" interp="linr"  time="-9999999/1" value="0" leadInLength="0/1"  />
              <InterpolatingParam id="14110" interp="linr"  time="-9999999/1" value="0" leadInLength="0/1"  />
              <InterpolatingParam id="14111" interp="linr"  time="-9999999/1" value="0" leadInLength="0/1"  />
             </VectorParam>
             <VectorParam id="14112"  name="shear">
              <InterpolatingParam id="14113" interp="linr"  time="-9999999/1" value="0" leadInLength="0/1"  />
              <InterpolatingParam id="14114" interp="linr"  time="-9999999/1" value="0" leadInLength="0/1"  />
              <InterpolatingParam id="14115" interp="linr"  time="-9999999/1" value="0" leadInLength="0/1"  />
             </VectorParam>
             <VectorParam id="14116"  name="scale">
              <InterpolatingParam id="14117" interp="linr"  time="-9999999/1" value="1" leadInLength="0/1"  />
              <InterpolatingParam id="14118" interp="linr"  time="-9999999/1" value="1" leadInLength="0/1"  />
              <InterpolatingParam id="14119" interp="linr"  time="-9999999/1" value="1" leadInLength="0/1"  />
             </VectorParam>
             <VectorParam id="14120"  name="anchor">
              <InterpolatingParam id="14121" interp="linr"  time="0/1" value="0" leadInLength="0/1"  />
              <InterpolatingParam id="14122" interp="linr"  time="0/1" value="0" leadInLength="0/1"  />
              <InterpolatingParam id="14123" interp="linr"  time="0/1" value="0" leadInLength="0/1"  />
             </VectorParam>
            </Transformer>
            <Parameters>
             <VectorParam id="14124"  name="sourceCrop">
              <InterpolatingParam id="14125" interp="linr"  time="0/1" value="0" leadInLength="0/1"  />
              <InterpolatingParam id="14126" interp="linr"  time="0/1" value="0" leadInLength="0/1"  />
              <InterpolatingParam id="14127" interp="linr"  time="0/1" value="0" leadInLength="0/1"  />
              <InterpolatingParam id="14128" interp="linr"  time="0/1" value="0" leadInLength="0/1"  />
             </VectorParam>
             <VectorParam id="14129"  name="geometryCrop">
              <InterpolatingParam id="14130" interp="linr"  time="-9999999/1" value="0" leadInLength="0/1"  />
              <InterpolatingParam id="14131" interp="linr"  time="-9999999/1" value="0" leadInLength="0/1"  />
              <InterpolatingParam id="14132" interp="linr"  time="-9999999/1" value="0" leadInLength="0/1"  />
              <InterpolatingParam id="14133" interp="linr"  time="-9999999/1" value="0" leadInLength="0/1"  />
             </VectorParam>
             <InterpolatingParam id="14134" interp="linr"  time="-9999999/1" value="1" leadInLength="0/1"  name="opacity"/>
            </Parameters>
            <Attributes>
             <Attribute id="14135" value="" name="ident"/>
            </Attributes>
            <MetaData>
             <entry key="WinSubProjectDisplayName" val=""/>
            </MetaData>
            <ExtraData>
             <Entry key="ZoomPanBin">
              <ZoomPanBin id="14136"  >
               <ZoomPanKeyframes>
                <ZoomPanKeyframe id="14137" timeRangeEnd="-9999999/1" timeRangeDuration="0/1" interpolaterName=""  />
               </ZoomPanKeyframes>
              </ZoomPanBin>
             </Entry>
            </ExtraData>
           </VMFile>
           <VMFile id="14138" start="5130" duration="922" scalar="1/1" mediaStart="8371/1" mediaDuration="922/1" trackNumber="0" src="4" >
            <Transformer>
             <VectorParam id="14139"  name="translation">
              <InterpolatingParam id="14140" interp="linr"  time="-9999999/1" value="0" leadInLength="0/1"  />
              <InterpolatingParam id="14141" interp="linr"  time="-9999999/1" value="0" leadInLength="0/1"  />
              <InterpolatingParam id="14142" interp="linr"  time="-9999999/1" value="0" leadInLength="0/1"  />
             </VectorParam>
             <VectorParam id="14143"  name="rotation">
              <InterpolatingParam id="14144" interp="linr"  time="-9999999/1" value="0" leadInLength="0/1"  />
              <InterpolatingParam id="14145" interp="linr"  time="-9999999/1" value="0" leadInLength="0/1"  />
              <InterpolatingParam id="14146" interp="linr"  time="-9999999/1" value="0" leadInLength="0/1"  />
             </VectorParam>
             <VectorParam id="14147"  name="shear">
              <InterpolatingParam id="14148" interp="linr"  time="-9999999/1" value="0" leadInLength="0/1"  />
              <InterpolatingParam id="14149" interp="linr"  time="-9999999/1" value="0" leadInLength="0/1"  />
              <InterpolatingParam id="14150" interp="linr"  time="-9999999/1" value="0" leadInLength="0/1"  />
             </VectorParam>
             <VectorParam id="14151"  name="scale">
              <InterpolatingParam id="14152" interp="linr"  time="-9999999/1" value="1" leadInLength="0/1"  />
              <InterpolatingParam id="14153" interp="linr"  time="-9999999/1" value="1" leadInLength="0/1"  />
              <InterpolatingParam id="14154" interp="linr"  time="-9999999/1" value="1" leadInLength="0/1"  />
             </VectorParam>
             <VectorParam id="14155"  name="anchor">
              <InterpolatingParam id="14156" interp="linr"  time="0/1" value="0" leadInLength="0/1"  />
              <InterpolatingParam id="14157" interp="linr"  time="0/1" value="0" leadInLength="0/1"  />
              <InterpolatingParam id="14158" interp="linr"  time="0/1" value="0" leadInLength="0/1"  />
             </VectorParam>
            </Transformer>
            <Parameters>
             <VectorParam id="14159"  name="sourceCrop">
              <InterpolatingParam id="14160" interp="linr"  time="0/1" value="0" leadInLength="0/1"  />
              <InterpolatingParam id="14161" interp="linr"  time="0/1" value="0" leadInLength="0/1"  />
              <InterpolatingParam id="14162" interp="linr"  time="0/1" value="0" leadInLength="0/1"  />
              <InterpolatingParam id="14163" interp="linr"  time="0/1" value="0" leadInLength="0/1"  />
             </VectorParam>
             <VectorParam id="14164"  name="geometryCrop">
              <InterpolatingParam id="14165" interp="linr"  time="-9999999/1" value="0" leadInLength="0/1"  />
              <InterpolatingParam id="14166" interp="linr"  time="-9999999/1" value="0" leadInLength="0/1"  />
              <InterpolatingParam id="14167" interp="linr"  time="-9999999/1" value="0" leadInLength="0/1"  />
              <InterpolatingParam id="14168" interp="linr"  time="-9999999/1" value="0" leadInLength="0/1"  />
             </VectorParam>
             <InterpolatingParam id="14169" interp="linr"  time="-9999999/1" value="1" leadInLength="0/1"  name="opacity"/>
            </Parameters>
            <Attributes>
             <Attribute id="14170" value="" name="ident"/>
            </Attributes>
            <MetaData>
             <entry key="WinSubProjectDisplayName" val=""/>
            </MetaData>
            <ExtraData>
             <Entry key="ZoomPanBin">
              <ZoomPanBin id="14171"  >
               <ZoomPanKeyframes>
                <ZoomPanKeyframe id="14172" timeRangeEnd="-9999999/1" timeRangeDuration="0/1" interpolaterName=""  />
               </ZoomPanKeyframes>
              </ZoomPanBin>
             </Entry>
            </ExtraData>
           </VMFile>
           <IMFile id="14173" start="6052" duration="30" scalar="1/1" mediaStart="9292/1" mediaDuration="1/1" trackNumber="0" src="4" trimStartSum="0/1" >
            <Transformer>
             <VectorParam id="14174"  name="translation">
              <InterpolatingParam id="14175" interp="linr"  time="-9999999/1" value="0" leadInLength="0/1"  />
              <InterpolatingParam id="14176" interp="linr"  time="-9999999/1" value="0" leadInLength="0/1"  />
              <InterpolatingParam id="14177" interp="linr"  time="-9999999/1" value="0" leadInLength="0/1"  />
             </VectorParam>
             <VectorParam id="14178"  name="rotation">
              <InterpolatingParam id="14179" interp="linr"  time="-9999999/1" value="0" leadInLength="0/1"  />
              <InterpolatingParam id="14180" interp="linr"  time="-9999999/1" value="0" leadInLength="0/1"  />
              <InterpolatingParam id="14181" interp="linr"  time="-9999999/1" value="0" leadInLength="0/1"  />
             </VectorParam>
             <VectorParam id="14182"  name="shear">
              <InterpolatingParam id="14183" interp="linr"  time="-9999999/1" value="0" leadInLength="0/1"  />
              <InterpolatingParam id="14184" interp="linr"  time="-9999999/1" value="0" leadInLength="0/1"  />
              <InterpolatingParam id="14185" interp="linr"  time="-9999999/1" value="0" leadInLength="0/1"  />
             </VectorParam>
             <VectorParam id="14186"  name="scale">
              <InterpolatingParam id="14187" interp="linr"  time="-9999999/1" value="1" leadInLength="0/1"  />
              <InterpolatingParam id="14188" interp="linr"  time="-9999999/1" value="1" leadInLength="0/1"  />
              <InterpolatingParam id="14189" interp="linr"  time="-9999999/1" value="1" leadInLength="0/1"  />
             </VectorParam>
             <VectorParam id="14190"  name="anchor">
              <InterpolatingParam id="14191" interp="linr"  time="0/1" value="0" leadInLength="0/1"  />
              <InterpolatingParam id="14192" interp="linr"  time="0/1" value="0" leadInLength="0/1"  />
              <InterpolatingParam id="14193" interp="linr"  time="0/1" value="0" leadInLength="0/1"  />
             </VectorParam>
            </Transformer>
            <Parameters>
             <VectorParam id="14194"  name="sourceCrop">
              <InterpolatingParam id="14195" interp="linr"  time="0/1" value="0" leadInLength="0/1"  />
              <InterpolatingParam id="14196" interp="linr"  time="0/1" value="0" leadInLength="0/1"  />
              <InterpolatingParam id="14197" interp="linr"  time="0/1" value="0" leadInLength="0/1"  />
              <InterpolatingParam id="14198" interp="linr"  time="0/1" value="0" leadInLength="0/1"  />
             </VectorParam>
             <VectorParam id="14199"  name="geometryCrop">
              <InterpolatingParam id="14200" interp="linr"  time="-9999999/1" value="0" leadInLength="0/1"  />
              <InterpolatingParam id="14201" interp="linr"  time="-9999999/1" value="0" leadInLength="0/1"  />
              <InterpolatingParam id="14202" interp="linr"  time="-9999999/1" value="0" leadInLength="0/1"  />
              <InterpolatingParam id="14203" interp="linr"  time="-9999999/1" value="0" leadInLength="0/1"  />
             </VectorParam>
             <InterpolatingParam id="14204" interp="linr"  time="-9999999/1" value="1" leadInLength="0/1"  name="opacity"/>
            </Parameters>
            <Attributes>
             <Attribute id="14205" value="" name="ident"/>
            </Attributes>
            <MetaData>
             <entry key="WinSubProjectDisplayName" val=""/>
            </MetaData>
            <ExtraData>
             <Entry key="ZoomPanBin">
              <ZoomPanBin id="14206"  >
               <ZoomPanKeyframes>
                <ZoomPanKeyframe id="14207" timeRangeEnd="-9999999/1" timeRangeDuration="0/1" interpolaterName=""  />
               </ZoomPanKeyframes>
              </ZoomPanBin>
             </Entry>
            </ExtraData>
           </IMFile>
           <VMFile id="14208" start="6082" duration="86" scalar="1/1" mediaStart="9292/1" mediaDuration="86/1" trackNumber="0" src="4" >
            <Transformer>
             <VectorParam id="14209"  name="translation">
              <InterpolatingParam id="14210" interp="linr"  time="-9999999/1" value="0" leadInLength="0/1"  />
              <InterpolatingParam id="14211" interp="linr"  time="-9999999/1" value="0" leadInLength="0/1"  />
              <InterpolatingParam id="14212" interp="linr"  time="-9999999/1" value="0" leadInLength="0/1"  />
             </VectorParam>
             <VectorParam id="14213"  name="rotation">
              <InterpolatingParam id="14214" interp="linr"  time="-9999999/1" value="0" leadInLength="0/1"  />
              <InterpolatingParam id="14215" interp="linr"  time="-9999999/1" value="0" leadInLength="0/1"  />
              <InterpolatingParam id="14216" interp="linr"  time="-9999999/1" value="0" leadInLength="0/1"  />
             </VectorParam>
             <VectorParam id="14217"  name="shear">
              <InterpolatingParam id="14218" interp="linr"  time="-9999999/1" value="0" leadInLength="0/1"  />
              <InterpolatingParam id="14219" interp="linr"  time="-9999999/1" value="0" leadInLength="0/1"  />
              <InterpolatingParam id="14220" interp="linr"  time="-9999999/1" value="0" leadInLength="0/1"  />
             </VectorParam>
             <VectorParam id="14221"  name="scale">
              <InterpolatingParam id="14222" interp="linr"  time="-9999999/1" value="1" leadInLength="0/1"  />
              <InterpolatingParam id="14223" interp="linr"  time="-9999999/1" value="1" leadInLength="0/1"  />
              <InterpolatingParam id="14224" interp="linr"  time="-9999999/1" value="1" leadInLength="0/1"  />
             </VectorParam>
             <VectorParam id="14225"  name="anchor">
              <InterpolatingParam id="14226" interp="linr"  time="0/1" value="0" leadInLength="0/1"  />
              <InterpolatingParam id="14227" interp="linr"  time="0/1" value="0" leadInLength="0/1"  />
              <InterpolatingParam id="14228" interp="linr"  time="0/1" value="0" leadInLength="0/1"  />
             </VectorParam>
            </Transformer>
            <Parameters>
             <VectorParam id="14229"  name="sourceCrop">
              <InterpolatingParam id="14230" interp="linr"  time="0/1" value="0" leadInLength="0/1"  />
              <InterpolatingParam id="14231" interp="linr"  time="0/1" value="0" leadInLength="0/1"  />
              <InterpolatingParam id="14232" interp="linr"  time="0/1" value="0" leadInLength="0/1"  />
              <InterpolatingParam id="14233" interp="linr"  time="0/1" value="0" leadInLength="0/1"  />
             </VectorParam>
             <VectorParam id="14234"  name="geometryCrop">
              <InterpolatingParam id="14235" interp="linr"  time="-9999999/1" value="0" leadInLength="0/1"  />
              <InterpolatingParam id="14236" interp="linr"  time="-9999999/1" value="0" leadInLength="0/1"  />
              <InterpolatingParam id="14237" interp="linr"  time="-9999999/1" value="0" leadInLength="0/1"  />
              <InterpolatingParam id="14238" interp="linr"  time="-9999999/1" value="0" leadInLength="0/1"  />
             </VectorParam>
             <InterpolatingParam id="14239" interp="linr"  time="-9999999/1" value="1" leadInLength="0/1"  name="opacity"/>
            </Parameters>
            <Attributes>
             <Attribute id="14240" value="" name="ident"/>
            </Attributes>
            <MetaData>
             <entry key="WinSubProjectDisplayName" val=""/>
            </MetaData>
            <ExtraData>
             <Entry key="ZoomPanBin">
              <ZoomPanBin id="14241"  >
               <ZoomPanKeyframes>
                <ZoomPanKeyframe id="14242" timeRangeEnd="-9999999/1" timeRangeDuration="0/1" interpolaterName=""  />
               </ZoomPanKeyframes>
              </ZoomPanBin>
             </Entry>
            </ExtraData>
           </VMFile>
           <VMFile id="14243" start="6168" duration="555" scalar="1/1" mediaStart="9516/1" mediaDuration="555/1" trackNumber="0" src="4" >
            <Transformer>
             <VectorParam id="14244"  name="translation">
              <InterpolatingParam id="14245" interp="linr"  time="-9999999/1" value="0" leadInLength="0/1"  />
              <InterpolatingParam id="14246" interp="linr"  time="-9999999/1" value="0" leadInLength="0/1"  />
              <InterpolatingParam id="14247" interp="linr"  time="-9999999/1" value="0" leadInLength="0/1"  />
             </VectorParam>
             <VectorParam id="14248"  name="rotation">
              <InterpolatingParam id="14249" interp="linr"  time="-9999999/1" value="0" leadInLength="0/1"  />
              <InterpolatingParam id="14250" interp="linr"  time="-9999999/1" value="0" leadInLength="0/1"  />
              <InterpolatingParam id="14251" interp="linr"  time="-9999999/1" value="0" leadInLength="0/1"  />
             </VectorParam>
             <VectorParam id="14252"  name="shear">
              <InterpolatingParam id="14253" interp="linr"  time="-9999999/1" value="0" leadInLength="0/1"  />
              <InterpolatingParam id="14254" interp="linr"  time="-9999999/1" value="0" leadInLength="0/1"  />
              <InterpolatingParam id="14255" interp="linr"  time="-9999999/1" value="0" leadInLength="0/1"  />
             </VectorParam>
             <VectorParam id="14256"  name="scale">
              <InterpolatingParam id="14257" interp="linr"  time="-9999999/1" value="1" leadInLength="0/1"  />
              <InterpolatingParam id="14258" interp="linr"  time="-9999999/1" value="1" leadInLength="0/1"  />
              <InterpolatingParam id="14259" interp="linr"  time="-9999999/1" value="1" leadInLength="0/1"  />
             </VectorParam>
             <VectorParam id="14260"  name="anchor">
              <InterpolatingParam id="14261" interp="linr"  time="0/1" value="0" leadInLength="0/1"  />
              <InterpolatingParam id="14262" interp="linr"  time="0/1" value="0" leadInLength="0/1"  />
              <InterpolatingParam id="14263" interp="linr"  time="0/1" value="0" leadInLength="0/1"  />
             </VectorParam>
            </Transformer>
            <Parameters>
             <VectorParam id="14264"  name="sourceCrop">
              <InterpolatingParam id="14265" interp="linr"  time="0/1" value="0" leadInLength="0/1"  />
              <InterpolatingParam id="14266" interp="linr"  time="0/1" value="0" leadInLength="0/1"  />
              <InterpolatingParam id="14267" interp="linr"  time="0/1" value="0" leadInLength="0/1"  />
              <InterpolatingParam id="14268" interp="linr"  time="0/1" value="0" leadInLength="0/1"  />
             </VectorParam>
             <VectorParam id="14269"  name="geometryCrop">
              <InterpolatingParam id="14270" interp="linr"  time="-9999999/1" value="0" leadInLength="0/1"  />
              <InterpolatingParam id="14271" interp="linr"  time="-9999999/1" value="0" leadInLength="0/1"  />
              <InterpolatingParam id="14272" interp="linr"  time="-9999999/1" value="0" leadInLength="0/1"  />
              <InterpolatingParam id="14273" interp="linr"  time="-9999999/1" value="0" leadInLength="0/1"  />
             </VectorParam>
             <InterpolatingParam id="14274" interp="linr"  time="-9999999/1" value="1" leadInLength="0/1"  name="opacity"/>
            </Parameters>
            <Attributes>
             <Attribute id="14275" value="" name="ident"/>
            </Attributes>
            <MetaData>
             <entry key="WinSubProjectDisplayName" val=""/>
            </MetaData>
            <ExtraData>
             <Entry key="ZoomPanBin">
              <ZoomPanBin id="14276"  >
               <ZoomPanKeyframes>
                <ZoomPanKeyframe id="14277" timeRangeEnd="-9999999/1" timeRangeDuration="0/1" interpolaterName=""  />
               </ZoomPanKeyframes>
              </ZoomPanBin>
             </Entry>
            </ExtraData>
           </VMFile>
           <VMFile id="14278" start="6723" duration="460" scalar="1/1" mediaStart="11597/1" mediaDuration="460/1" trackNumber="0" src="4" >
            <Transformer>
             <VectorParam id="14279"  name="translation">
              <InterpolatingParam id="14280" interp="linr"  time="-9999999/1" value="0" leadInLength="0/1"  />
              <InterpolatingParam id="14281" interp="linr"  time="-9999999/1" value="0" leadInLength="0/1"  />
              <InterpolatingParam id="14282" interp="linr"  time="-9999999/1" value="0" leadInLength="0/1"  />
             </VectorParam>
             <VectorParam id="14283"  name="rotation">
              <InterpolatingParam id="14284" interp="linr"  time="-9999999/1" value="0" leadInLength="0/1"  />
              <InterpolatingParam id="14285" interp="linr"  time="-9999999/1" value="0" leadInLength="0/1"  />
              <InterpolatingParam id="14286" interp="linr"  time="-9999999/1" value="0" leadInLength="0/1"  />
             </VectorParam>
             <VectorParam id="14287"  name="shear">
              <InterpolatingParam id="14288" interp="linr"  time="-9999999/1" value="0" leadInLength="0/1"  />
              <InterpolatingParam id="14289" interp="linr"  time="-9999999/1" value="0" leadInLength="0/1"  />
              <InterpolatingParam id="14290" interp="linr"  time="-9999999/1" value="0" leadInLength="0/1"  />
             </VectorParam>
             <VectorParam id="14291"  name="scale">
              <InterpolatingParam id="14292" interp="linr"  time="-9999999/1" value="1" leadInLength="0/1"  />
              <InterpolatingParam id="14293" interp="linr"  time="-9999999/1" value="1" leadInLength="0/1"  />
              <InterpolatingParam id="14294" interp="linr"  time="-9999999/1" value="1" leadInLength="0/1"  />
             </VectorParam>
             <VectorParam id="14295"  name="anchor">
              <InterpolatingParam id="14296" interp="linr"  time="0/1" value="0" leadInLength="0/1"  />
              <InterpolatingParam id="14297" interp="linr"  time="0/1" value="0" leadInLength="0/1"  />
              <InterpolatingParam id="14298" interp="linr"  time="0/1" value="0" leadInLength="0/1"  />
             </VectorParam>
            </Transformer>
            <Parameters>
             <VectorParam id="14299"  name="sourceCrop">
              <InterpolatingParam id="14300" interp="linr"  time="0/1" value="0" leadInLength="0/1"  />
              <InterpolatingParam id="14301" interp="linr"  time="0/1" value="0" leadInLength="0/1"  />
              <InterpolatingParam id="14302" interp="linr"  time="0/1" value="0" leadInLength="0/1"  />
              <InterpolatingParam id="14303" interp="linr"  time="0/1" value="0" leadInLength="0/1"  />
             </VectorParam>
             <VectorParam id="14304"  name="geometryCrop">
              <InterpolatingParam id="14305" interp="linr"  time="-9999999/1" value="0" leadInLength="0/1"  />
              <InterpolatingParam id="14306" interp="linr"  time="-9999999/1" value="0" leadInLength="0/1"  />
              <InterpolatingParam id="14307" interp="linr"  time="-9999999/1" value="0" leadInLength="0/1"  />
              <InterpolatingParam id="14308" interp="linr"  time="-9999999/1" value="0" leadInLength="0/1"  />
             </VectorParam>
             <InterpolatingParam id="14309" interp="linr"  time="-9999999/1" value="1" leadInLength="0/1"  name="opacity"/>
            </Parameters>
            <Attributes>
             <Attribute id="14310" value="" name="ident"/>
            </Attributes>
            <MetaData>
             <entry key="WinSubProjectDisplayName" val=""/>
            </MetaData>
            <ExtraData>
             <Entry key="ZoomPanBin">
              <ZoomPanBin id="14311"  >
               <ZoomPanKeyframes>
                <ZoomPanKeyframe id="14312" timeRangeEnd="-9999999/1" timeRangeDuration="0/1" interpolaterName=""  />
               </ZoomPanKeyframes>
              </ZoomPanBin>
             </Entry>
            </ExtraData>
           </VMFile>
           <VMFile id="14313" start="7183" duration="350" scalar="1/1" mediaStart="12237/1" mediaDuration="350/1" trackNumber="0" src="4" >
            <Transformer>
             <VectorParam id="14314"  name="translation">
              <InterpolatingParam id="14315" interp="linr"  time="-9999999/1" value="0" leadInLength="0/1"  />
              <InterpolatingParam id="14316" interp="linr"  time="-9999999/1" value="0" leadInLength="0/1"  />
              <InterpolatingParam id="14317" interp="linr"  time="-9999999/1" value="0" leadInLength="0/1"  />
             </VectorParam>
             <VectorParam id="14318"  name="rotation">
              <InterpolatingParam id="14319" interp="linr"  time="-9999999/1" value="0" leadInLength="0/1"  />
              <InterpolatingParam id="14320" interp="linr"  time="-9999999/1" value="0" leadInLength="0/1"  />
              <InterpolatingParam id="14321" interp="linr"  time="-9999999/1" value="0" leadInLength="0/1"  />
             </VectorParam>
             <VectorParam id="14322"  name="shear">
              <InterpolatingParam id="14323" interp="linr"  time="-9999999/1" value="0" leadInLength="0/1"  />
              <InterpolatingParam id="14324" interp="linr"  time="-9999999/1" value="0" leadInLength="0/1"  />
              <InterpolatingParam id="14325" interp="linr"  time="-9999999/1" value="0" leadInLength="0/1"  />
             </VectorParam>
             <VectorParam id="14326"  name="scale">
              <InterpolatingParam id="14327" interp="linr"  time="-9999999/1" value="1" leadInLength="0/1"  />
              <InterpolatingParam id="14328" interp="linr"  time="-9999999/1" value="1" leadInLength="0/1"  />
              <InterpolatingParam id="14329" interp="linr"  time="-9999999/1" value="1" leadInLength="0/1"  />
             </VectorParam>
             <VectorParam id="14330"  name="anchor">
              <InterpolatingParam id="14331" interp="linr"  time="0/1" value="0" leadInLength="0/1"  />
              <InterpolatingParam id="14332" interp="linr"  time="0/1" value="0" leadInLength="0/1"  />
              <InterpolatingParam id="14333" interp="linr"  time="0/1" value="0" leadInLength="0/1"  />
             </VectorParam>
            </Transformer>
            <Parameters>
             <VectorParam id="14334"  name="sourceCrop">
              <InterpolatingParam id="14335" interp="linr"  time="0/1" value="0" leadInLength="0/1"  />
              <InterpolatingParam id="14336" interp="linr"  time="0/1" value="0" leadInLength="0/1"  />
              <InterpolatingParam id="14337" interp="linr"  time="0/1" value="0" leadInLength="0/1"  />
              <InterpolatingParam id="14338" interp="linr"  time="0/1" value="0" leadInLength="0/1"  />
             </VectorParam>
             <VectorParam id="14339"  name="geometryCrop">
              <InterpolatingParam id="14340" interp="linr"  time="-9999999/1" value="0" leadInLength="0/1"  />
              <InterpolatingParam id="14341" interp="linr"  time="-9999999/1" value="0" leadInLength="0/1"  />
              <InterpolatingParam id="14342" interp="linr"  time="-9999999/1" value="0" leadInLength="0/1"  />
              <InterpolatingParam id="14343" interp="linr"  time="-9999999/1" value="0" leadInLength="0/1"  />
             </VectorParam>
             <InterpolatingParam id="14344" interp="linr"  time="-9999999/1" value="1" leadInLength="0/1"  name="opacity"/>
            </Parameters>
            <Attributes>
             <Attribute id="14345" value="" name="ident"/>
            </Attributes>
            <MetaData>
             <entry key="WinSubProjectDisplayName" val=""/>
            </MetaData>
            <ExtraData>
             <Entry key="ZoomPanBin">
              <ZoomPanBin id="14346"  >
               <ZoomPanKeyframes>
                <ZoomPanKeyframe id="14347" timeRangeEnd="-9999999/1" timeRangeDuration="0/1" interpolaterName=""  />
               </ZoomPanKeyframes>
              </ZoomPanBin>
             </Entry>
            </ExtraData>
           </VMFile>
           <VMFile id="14348" start="7533" duration="128" scalar="1/1" mediaStart="15765/1" mediaDuration="128/1" trackNumber="0" src="4" >
            <Transformer>
             <VectorParam id="14349"  name="translation">
              <InterpolatingParam id="14350" interp="linr"  time="-9999999/1" value="0" leadInLength="0/1"  />
              <InterpolatingParam id="14351" interp="linr"  time="-9999999/1" value="0" leadInLength="0/1"  />
              <InterpolatingParam id="14352" interp="linr"  time="-9999999/1" value="0" leadInLength="0/1"  />
             </VectorParam>
             <VectorParam id="14353"  name="rotation">
              <InterpolatingParam id="14354" interp="linr"  time="-9999999/1" value="0" leadInLength="0/1"  />
              <InterpolatingParam id="14355" interp="linr"  time="-9999999/1" value="0" leadInLength="0/1"  />
              <InterpolatingParam id="14356" interp="linr"  time="-9999999/1" value="0" leadInLength="0/1"  />
             </VectorParam>
             <VectorParam id="14357"  name="shear">
              <InterpolatingParam id="14358" interp="linr"  time="-9999999/1" value="0" leadInLength="0/1"  />
              <InterpolatingParam id="14359" interp="linr"  time="-9999999/1" value="0" leadInLength="0/1"  />
              <InterpolatingParam id="14360" interp="linr"  time="-9999999/1" value="0" leadInLength="0/1"  />
             </VectorParam>
             <VectorParam id="14361"  name="scale">
              <InterpolatingParam id="14362" interp="linr"  time="-9999999/1" value="1" leadInLength="0/1"  />
              <InterpolatingParam id="14363" interp="linr"  time="-9999999/1" value="1" leadInLength="0/1"  />
              <InterpolatingParam id="14364" interp="linr"  time="-9999999/1" value="1" leadInLength="0/1"  />
             </VectorParam>
             <VectorParam id="14365"  name="anchor">
              <InterpolatingParam id="14366" interp="linr"  time="0/1" value="0" leadInLength="0/1"  />
              <InterpolatingParam id="14367" interp="linr"  time="0/1" value="0" leadInLength="0/1"  />
              <InterpolatingParam id="14368" interp="linr"  time="0/1" value="0" leadInLength="0/1"  />
             </VectorParam>
            </Transformer>
            <Parameters>
             <VectorParam id="14369"  name="sourceCrop">
              <InterpolatingParam id="14370" interp="linr"  time="0/1" value="0" leadInLength="0/1"  />
              <InterpolatingParam id="14371" interp="linr"  time="0/1" value="0" leadInLength="0/1"  />
              <InterpolatingParam id="14372" interp="linr"  time="0/1" value="0" leadInLength="0/1"  />
              <InterpolatingParam id="14373" interp="linr"  time="0/1" value="0" leadInLength="0/1"  />
             </VectorParam>
             <VectorParam id="14374"  name="geometryCrop">
              <InterpolatingParam id="14375" interp="linr"  time="-9999999/1" value="0" leadInLength="0/1"  />
              <InterpolatingParam id="14376" interp="linr"  time="-9999999/1" value="0" leadInLength="0/1"  />
              <InterpolatingParam id="14377" interp="linr"  time="-9999999/1" value="0" leadInLength="0/1"  />
              <InterpolatingParam id="14378" interp="linr"  time="-9999999/1" value="0" leadInLength="0/1"  />
             </VectorParam>
             <InterpolatingParam id="14379" interp="linr"  time="-9999999/1" value="1" leadInLength="0/1"  name="opacity"/>
            </Parameters>
            <Attributes>
             <Attribute id="14380" value="" name="ident"/>
            </Attributes>
            <MetaData>
             <entry key="WinSubProjectDisplayName" val=""/>
            </MetaData>
            <ExtraData>
             <Entry key="ZoomPanBin">
              <ZoomPanBin id="14381"  >
               <ZoomPanKeyframes>
                <ZoomPanKeyframe id="14382" timeRangeEnd="-9999999/1" timeRangeDuration="0/1" interpolaterName=""  />
               </ZoomPanKeyframes>
              </ZoomPanBin>
             </Entry>
            </ExtraData>
           </VMFile>
           <VMFile id="14383" start="7661" duration="615" scalar="1/1" mediaStart="15918/1" mediaDuration="615/1" trackNumber="0" src="4" >
            <Transformer>
             <VectorParam id="14384"  name="translation">
              <InterpolatingParam id="14385" interp="linr"  time="-9999999/1" value="0" leadInLength="0/1"  />
              <InterpolatingParam id="14386" interp="linr"  time="-9999999/1" value="0" leadInLength="0/1"  />
              <InterpolatingParam id="14387" interp="linr"  time="-9999999/1" value="0" leadInLength="0/1"  />
             </VectorParam>
             <VectorParam id="14388"  name="rotation">
              <InterpolatingParam id="14389" interp="linr"  time="-9999999/1" value="0" leadInLength="0/1"  />
              <InterpolatingParam id="14390" interp="linr"  time="-9999999/1" value="0" leadInLength="0/1"  />
              <InterpolatingParam id="14391" interp="linr"  time="-9999999/1" value="0" leadInLength="0/1"  />
             </VectorParam>
             <VectorParam id="14392"  name="shear">
              <InterpolatingParam id="14393" interp="linr"  time="-9999999/1" value="0" leadInLength="0/1"  />
              <InterpolatingParam id="14394" interp="linr"  time="-9999999/1" value="0" leadInLength="0/1"  />
              <InterpolatingParam id="14395" interp="linr"  time="-9999999/1" value="0" leadInLength="0/1"  />
             </VectorParam>
             <VectorParam id="14396"  name="scale">
              <InterpolatingParam id="14397" interp="linr"  time="-9999999/1" value="1" leadInLength="0/1"  />
              <InterpolatingParam id="14398" interp="linr"  time="-9999999/1" value="1" leadInLength="0/1"  />
              <InterpolatingParam id="14399" interp="linr"  time="-9999999/1" value="1" leadInLength="0/1"  />
             </VectorParam>
             <VectorParam id="14400"  name="anchor">
              <InterpolatingParam id="14401" interp="linr"  time="0/1" value="0" leadInLength="0/1"  />
              <InterpolatingParam id="14402" interp="linr"  time="0/1" value="0" leadInLength="0/1"  />
              <InterpolatingParam id="14403" interp="linr"  time="0/1" value="0" leadInLength="0/1"  />
             </VectorParam>
            </Transformer>
            <Parameters>
             <VectorParam id="14404"  name="sourceCrop">
              <InterpolatingParam id="14405" interp="linr"  time="0/1" value="0" leadInLength="0/1"  />
              <InterpolatingParam id="14406" interp="linr"  time="0/1" value="0" leadInLength="0/1"  />
              <InterpolatingParam id="14407" interp="linr"  time="0/1" value="0" leadInLength="0/1"  />
              <InterpolatingParam id="14408" interp="linr"  time="0/1" value="0" leadInLength="0/1"  />
             </VectorParam>
             <VectorParam id="14409"  name="geometryCrop">
              <InterpolatingParam id="14410" interp="linr"  time="-9999999/1" value="0" leadInLength="0/1"  />
              <InterpolatingParam id="14411" interp="linr"  time="-9999999/1" value="0" leadInLength="0/1"  />
              <InterpolatingParam id="14412" interp="linr"  time="-9999999/1" value="0" leadInLength="0/1"  />
              <InterpolatingParam id="14413" interp="linr"  time="-9999999/1" value="0" leadInLength="0/1"  />
             </VectorParam>
             <InterpolatingParam id="14414" interp="linr"  time="-9999999/1" value="1" leadInLength="0/1"  name="opacity"/>
            </Parameters>
            <Attributes>
             <Attribute id="14415" value="" name="ident"/>
            </Attributes>
            <MetaData>
             <entry key="WinSubProjectDisplayName" val=""/>
            </MetaData>
            <ExtraData>
             <Entry key="ZoomPanBin">
              <ZoomPanBin id="14416"  >
               <ZoomPanKeyframes>
                <ZoomPanKeyframe id="14417" timeRangeEnd="-9999999/1" timeRangeDuration="0/1" interpolaterName=""  />
               </ZoomPanKeyframes>
              </ZoomPanBin>
             </Entry>
            </ExtraData>
           </VMFile>
           <VMFile id="14418" start="8276" duration="323" scalar="1/1" mediaStart="16694/1" mediaDuration="323/1" trackNumber="0" src="4" >
            <Transformer>
             <VectorParam id="14419"  name="translation">
              <InterpolatingParam id="14420" interp="linr"  time="-9999999/1" value="0" leadInLength="0/1"  />
              <InterpolatingParam id="14421" interp="linr"  time="-9999999/1" value="0" leadInLength="0/1"  />
              <InterpolatingParam id="14422" interp="linr"  time="-9999999/1" value="0" leadInLength="0/1"  />
             </VectorParam>
             <VectorParam id="14423"  name="rotation">
              <InterpolatingParam id="14424" interp="linr"  time="-9999999/1" value="0" leadInLength="0/1"  />
              <InterpolatingParam id="14425" interp="linr"  time="-9999999/1" value="0" leadInLength="0/1"  />
              <InterpolatingParam id="14426" interp="linr"  time="-9999999/1" value="0" leadInLength="0/1"  />
             </VectorParam>
             <VectorParam id="14427"  name="shear">
              <InterpolatingParam id="14428" interp="linr"  time="-9999999/1" value="0" leadInLength="0/1"  />
              <InterpolatingParam id="14429" interp="linr"  time="-9999999/1" value="0" leadInLength="0/1"  />
              <InterpolatingParam id="14430" interp="linr"  time="-9999999/1" value="0" leadInLength="0/1"  />
             </VectorParam>
             <VectorParam id="14431"  name="scale">
              <InterpolatingParam id="14432" interp="linr"  time="-9999999/1" value="1" leadInLength="0/1"  />
              <InterpolatingParam id="14433" interp="linr"  time="-9999999/1" value="1" leadInLength="0/1"  />
              <InterpolatingParam id="14434" interp="linr"  time="-9999999/1" value="1" leadInLength="0/1"  />
             </VectorParam>
             <VectorParam id="14435"  name="anchor">
              <InterpolatingParam id="14436" interp="linr"  time="0/1" value="0" leadInLength="0/1"  />
              <InterpolatingParam id="14437" interp="linr"  time="0/1" value="0" leadInLength="0/1"  />
              <InterpolatingParam id="14438" interp="linr"  time="0/1" value="0" leadInLength="0/1"  />
             </VectorParam>
            </Transformer>
            <Parameters>
             <VectorParam id="14439"  name="sourceCrop">
              <InterpolatingParam id="14440" interp="linr"  time="0/1" value="0" leadInLength="0/1"  />
              <InterpolatingParam id="14441" interp="linr"  time="0/1" value="0" leadInLength="0/1"  />
              <InterpolatingParam id="14442" interp="linr"  time="0/1" value="0" leadInLength="0/1"  />
              <InterpolatingParam id="14443" interp="linr"  time="0/1" value="0" leadInLength="0/1"  />
             </VectorParam>
             <VectorParam id="14444"  name="geometryCrop">
              <InterpolatingParam id="14445" interp="linr"  time="-9999999/1" value="0" leadInLength="0/1"  />
              <InterpolatingParam id="14446" interp="linr"  time="-9999999/1" value="0" leadInLength="0/1"  />
              <InterpolatingParam id="14447" interp="linr"  time="-9999999/1" value="0" leadInLength="0/1"  />
              <InterpolatingParam id="14448" interp="linr"  time="-9999999/1" value="0" leadInLength="0/1"  />
             </VectorParam>
             <InterpolatingParam id="14449" interp="linr"  time="-9999999/1" value="1" leadInLength="0/1"  name="opacity"/>
            </Parameters>
            <Attributes>
             <Attribute id="14450" value="" name="ident"/>
            </Attributes>
            <MetaData>
             <entry key="WinSubProjectDisplayName" val=""/>
            </MetaData>
            <ExtraData>
             <Entry key="ZoomPanBin">
              <ZoomPanBin id="14451"  >
               <ZoomPanKeyframes>
                <ZoomPanKeyframe id="14452" timeRangeEnd="-9999999/1" timeRangeDuration="0/1" interpolaterName=""  />
               </ZoomPanKeyframes>
              </ZoomPanBin>
             </Entry>
            </ExtraData>
           </VMFile>
           <VMFile id="14453" start="8599" duration="223" scalar="1/1" mediaStart="17164/1" mediaDuration="223/1" trackNumber="0" src="4" >
            <Transformer>
             <VectorParam id="14454"  name="translation">
              <InterpolatingParam id="14455" interp="linr"  time="-9999999/1" value="0" leadInLength="0/1"  />
              <InterpolatingParam id="14456" interp="linr"  time="-9999999/1" value="0" leadInLength="0/1"  />
              <InterpolatingParam id="14457" interp="linr"  time="-9999999/1" value="0" leadInLength="0/1"  />
             </VectorParam>
             <VectorParam id="14458"  name="rotation">
              <InterpolatingParam id="14459" interp="linr"  time="-9999999/1" value="0" leadInLength="0/1"  />
              <InterpolatingParam id="14460" interp="linr"  time="-9999999/1" value="0" leadInLength="0/1"  />
              <InterpolatingParam id="14461" interp="linr"  time="-9999999/1" value="0" leadInLength="0/1"  />
             </VectorParam>
             <VectorParam id="14462"  name="shear">
              <InterpolatingParam id="14463" interp="linr"  time="-9999999/1" value="0" leadInLength="0/1"  />
              <InterpolatingParam id="14464" interp="linr"  time="-9999999/1" value="0" leadInLength="0/1"  />
              <InterpolatingParam id="14465" interp="linr"  time="-9999999/1" value="0" leadInLength="0/1"  />
             </VectorParam>
             <VectorParam id="14466"  name="scale">
              <InterpolatingParam id="14467" interp="linr"  time="-9999999/1" value="1" leadInLength="0/1"  />
              <InterpolatingParam id="14468" interp="linr"  time="-9999999/1" value="1" leadInLength="0/1"  />
              <InterpolatingParam id="14469" interp="linr"  time="-9999999/1" value="1" leadInLength="0/1"  />
             </VectorParam>
             <VectorParam id="14470"  name="anchor">
              <InterpolatingParam id="14471" interp="linr"  time="0/1" value="0" leadInLength="0/1"  />
              <InterpolatingParam id="14472" interp="linr"  time="0/1" value="0" leadInLength="0/1"  />
              <InterpolatingParam id="14473" interp="linr"  time="0/1" value="0" leadInLength="0/1"  />
             </VectorParam>
            </Transformer>
            <Parameters>
             <VectorParam id="14474"  name="sourceCrop">
              <InterpolatingParam id="14475" interp="linr"  time="0/1" value="0" leadInLength="0/1"  />
              <InterpolatingParam id="14476" interp="linr"  time="0/1" value="0" leadInLength="0/1"  />
              <InterpolatingParam id="14477" interp="linr"  time="0/1" value="0" leadInLength="0/1"  />
              <InterpolatingParam id="14478" interp="linr"  time="0/1" value="0" leadInLength="0/1"  />
             </VectorParam>
             <VectorParam id="14479"  name="geometryCrop">
              <InterpolatingParam id="14480" interp="linr"  time="-9999999/1" value="0" leadInLength="0/1"  />
              <InterpolatingParam id="14481" interp="linr"  time="-9999999/1" value="0" leadInLength="0/1"  />
              <InterpolatingParam id="14482" interp="linr"  time="-9999999/1" value="0" leadInLength="0/1"  />
              <InterpolatingParam id="14483" interp="linr"  time="-9999999/1" value="0" leadInLength="0/1"  />
             </VectorParam>
             <InterpolatingParam id="14484" interp="linr"  time="-9999999/1" value="1" leadInLength="0/1"  name="opacity"/>
            </Parameters>
            <Attributes>
             <Attribute id="14485" value="" name="ident"/>
            </Attributes>
            <MetaData>
             <entry key="WinSubProjectDisplayName" val=""/>
            </MetaData>
            <ExtraData>
             <Entry key="ZoomPanBin">
              <ZoomPanBin id="14486"  >
               <ZoomPanKeyframes>
                <ZoomPanKeyframe id="14487" timeRangeEnd="-9999999/1" timeRangeDuration="0/1" interpolaterName=""  />
               </ZoomPanKeyframes>
              </ZoomPanBin>
             </Entry>
            </ExtraData>
           </VMFile>
           <VMFile id="14488" start="8822" duration="323" scalar="1/1" mediaStart="26742/1" mediaDuration="323/1" trackNumber="0" src="4" >
            <Transformer>
             <VectorParam id="14489"  name="translation">
              <InterpolatingParam id="14490" interp="linr"  time="-9999999/1" value="0" leadInLength="0/1"  />
              <InterpolatingParam id="14491" interp="linr"  time="-9999999/1" value="0" leadInLength="0/1"  />
              <InterpolatingParam id="14492" interp="linr"  time="-9999999/1" value="0" leadInLength="0/1"  />
             </VectorParam>
             <VectorParam id="14493"  name="rotation">
              <InterpolatingParam id="14494" interp="linr"  time="-9999999/1" value="0" leadInLength="0/1"  />
              <InterpolatingParam id="14495" interp="linr"  time="-9999999/1" value="0" leadInLength="0/1"  />
              <InterpolatingParam id="14496" interp="linr"  time="-9999999/1" value="0" leadInLength="0/1"  />
             </VectorParam>
             <VectorParam id="14497"  name="shear">
              <InterpolatingParam id="14498" interp="linr"  time="-9999999/1" value="0" leadInLength="0/1"  />
              <InterpolatingParam id="14499" interp="linr"  time="-9999999/1" value="0" leadInLength="0/1"  />
              <InterpolatingParam id="14500" interp="linr"  time="-9999999/1" value="0" leadInLength="0/1"  />
             </VectorParam>
             <VectorParam id="14501"  name="scale">
              <InterpolatingParam id="14502" interp="linr"  time="-9999999/1" value="1" leadInLength="0/1"  />
              <InterpolatingParam id="14503" interp="linr"  time="-9999999/1" value="1" leadInLength="0/1"  />
              <InterpolatingParam id="14504" interp="linr"  time="-9999999/1" value="1" leadInLength="0/1"  />
             </VectorParam>
             <VectorParam id="14505"  name="anchor">
              <InterpolatingParam id="14506" interp="linr"  time="0/1" value="0" leadInLength="0/1"  />
              <InterpolatingParam id="14507" interp="linr"  time="0/1" value="0" leadInLength="0/1"  />
              <InterpolatingParam id="14508" interp="linr"  time="0/1" value="0" leadInLength="0/1"  />
             </VectorParam>
            </Transformer>
            <Parameters>
             <VectorParam id="14509"  name="sourceCrop">
              <InterpolatingParam id="14510" interp="linr"  time="0/1" value="0" leadInLength="0/1"  />
              <InterpolatingParam id="14511" interp="linr"  time="0/1" value="0" leadInLength="0/1"  />
              <InterpolatingParam id="14512" interp="linr"  time="0/1" value="0" leadInLength="0/1"  />
              <InterpolatingParam id="14513" interp="linr"  time="0/1" value="0" leadInLength="0/1"  />
             </VectorParam>
             <VectorParam id="14514"  name="geometryCrop">
              <InterpolatingParam id="14515" interp="linr"  time="-9999999/1" value="0" leadInLength="0/1"  />
              <InterpolatingParam id="14516" interp="linr"  time="-9999999/1" value="0" leadInLength="0/1"  />
              <InterpolatingParam id="14517" interp="linr"  time="-9999999/1" value="0" leadInLength="0/1"  />
              <InterpolatingParam id="14518" interp="linr"  time="-9999999/1" value="0" leadInLength="0/1"  />
             </VectorParam>
             <InterpolatingParam id="14519" interp="linr"  time="-9999999/1" value="1" leadInLength="0/1"  name="opacity"/>
            </Parameters>
            <Attributes>
             <Attribute id="14520" value="" name="ident"/>
            </Attributes>
            <MetaData>
             <entry key="WinSubProjectDisplayName" val=""/>
            </MetaData>
            <ExtraData>
             <Entry key="ZoomPanBin">
              <ZoomPanBin id="14521"  >
               <ZoomPanKeyframes>
                <ZoomPanKeyframe id="14522" timeRangeEnd="-9999999/1" timeRangeDuration="0/1" interpolaterName=""  />
               </ZoomPanKeyframes>
              </ZoomPanBin>
             </Entry>
            </ExtraData>
           </VMFile>
           <VMFile id="14523" start="9145" duration="259" scalar="1/1" mediaStart="27825/1" mediaDuration="259/1" trackNumber="0" src="4" >
            <Transformer>
             <VectorParam id="14524"  name="translation">
              <InterpolatingParam id="14525" interp="linr"  time="-9999999/1" value="0" leadInLength="0/1"  />
              <InterpolatingParam id="14526" interp="linr"  time="-9999999/1" value="0" leadInLength="0/1"  />
              <InterpolatingParam id="14527" interp="linr"  time="-9999999/1" value="0" leadInLength="0/1"  />
             </VectorParam>
             <VectorParam id="14528"  name="rotation">
              <InterpolatingParam id="14529" interp="linr"  time="-9999999/1" value="0" leadInLength="0/1"  />
              <InterpolatingParam id="14530" interp="linr"  time="-9999999/1" value="0" leadInLength="0/1"  />
              <InterpolatingParam id="14531" interp="linr"  time="-9999999/1" value="0" leadInLength="0/1"  />
             </VectorParam>
             <VectorParam id="14532"  name="shear">
              <InterpolatingParam id="14533" interp="linr"  time="-9999999/1" value="0" leadInLength="0/1"  />
              <InterpolatingParam id="14534" interp="linr"  time="-9999999/1" value="0" leadInLength="0/1"  />
              <InterpolatingParam id="14535" interp="linr"  time="-9999999/1" value="0" leadInLength="0/1"  />
             </VectorParam>
             <VectorParam id="14536"  name="scale">
              <InterpolatingParam id="14537" interp="linr"  time="-9999999/1" value="1" leadInLength="0/1"  />
              <InterpolatingParam id="14538" interp="linr"  time="-9999999/1" value="1" leadInLength="0/1"  />
              <InterpolatingParam id="14539" interp="linr"  time="-9999999/1" value="1" leadInLength="0/1"  />
             </VectorParam>
             <VectorParam id="14540"  name="anchor">
              <InterpolatingParam id="14541" interp="linr"  time="0/1" value="0" leadInLength="0/1"  />
              <InterpolatingParam id="14542" interp="linr"  time="0/1" value="0" leadInLength="0/1"  />
              <InterpolatingParam id="14543" interp="linr"  time="0/1" value="0" leadInLength="0/1"  />
             </VectorParam>
            </Transformer>
            <Parameters>
             <VectorParam id="14544"  name="sourceCrop">
              <InterpolatingParam id="14545" interp="linr"  time="0/1" value="0" leadInLength="0/1"  />
              <InterpolatingParam id="14546" interp="linr"  time="0/1" value="0" leadInLength="0/1"  />
              <InterpolatingParam id="14547" interp="linr"  time="0/1" value="0" leadInLength="0/1"  />
              <InterpolatingParam id="14548" interp="linr"  time="0/1" value="0" leadInLength="0/1"  />
             </VectorParam>
             <VectorParam id="14549"  name="geometryCrop">
              <InterpolatingParam id="14550" interp="linr"  time="-9999999/1" value="0" leadInLength="0/1"  />
              <InterpolatingParam id="14551" interp="linr"  time="-9999999/1" value="0" leadInLength="0/1"  />
              <InterpolatingParam id="14552" interp="linr"  time="-9999999/1" value="0" leadInLength="0/1"  />
              <InterpolatingParam id="14553" interp="linr"  time="-9999999/1" value="0" leadInLength="0/1"  />
             </VectorParam>
             <InterpolatingParam id="14554" interp="linr"  time="-9999999/1" value="1" leadInLength="0/1"  name="opacity"/>
            </Parameters>
            <Attributes>
             <Attribute id="14555" value="" name="ident"/>
            </Attributes>
            <MetaData>
             <entry key="WinSubProjectDisplayName" val=""/>
            </MetaData>
            <ExtraData>
             <Entry key="ZoomPanBin">
              <ZoomPanBin id="14556"  >
               <ZoomPanKeyframes>
                <ZoomPanKeyframe id="14557" timeRangeEnd="-9999999/1" timeRangeDuration="0/1" interpolaterName=""  />
               </ZoomPanKeyframes>
              </ZoomPanBin>
             </Entry>
            </ExtraData>
           </VMFile>
           <VMFile id="14558" start="9404" duration="157" scalar="1/1" mediaStart="28287/1" mediaDuration="157/1" trackNumber="0" src="4" >
            <Transformer>
             <VectorParam id="14559"  name="translation">
              <InterpolatingParam id="14560" interp="linr"  time="-9999999/1" value="0" leadInLength="0/1"  />
              <InterpolatingParam id="14561" interp="linr"  time="-9999999/1" value="0" leadInLength="0/1"  />
              <InterpolatingParam id="14562" interp="linr"  time="-9999999/1" value="0" leadInLength="0/1"  />
             </VectorParam>
             <VectorParam id="14563"  name="rotation">
              <InterpolatingParam id="14564" interp="linr"  time="-9999999/1" value="0" leadInLength="0/1"  />
              <InterpolatingParam id="14565" interp="linr"  time="-9999999/1" value="0" leadInLength="0/1"  />
              <InterpolatingParam id="14566" interp="linr"  time="-9999999/1" value="0" leadInLength="0/1"  />
             </VectorParam>
             <VectorParam id="14567"  name="shear">
              <InterpolatingParam id="14568" interp="linr"  time="-9999999/1" value="0" leadInLength="0/1"  />
              <InterpolatingParam id="14569" interp="linr"  time="-9999999/1" value="0" leadInLength="0/1"  />
              <InterpolatingParam id="14570" interp="linr"  time="-9999999/1" value="0" leadInLength="0/1"  />
             </VectorParam>
             <VectorParam id="14571"  name="scale">
              <InterpolatingParam id="14572" interp="linr"  time="-9999999/1" value="1" leadInLength="0/1"  />
              <InterpolatingParam id="14573" interp="linr"  time="-9999999/1" value="1" leadInLength="0/1"  />
              <InterpolatingParam id="14574" interp="linr"  time="-9999999/1" value="1" leadInLength="0/1"  />
             </VectorParam>
             <VectorParam id="14575"  name="anchor">
              <InterpolatingParam id="14576" interp="linr"  time="0/1" value="0" leadInLength="0/1"  />
              <InterpolatingParam id="14577" interp="linr"  time="0/1" value="0" leadInLength="0/1"  />
              <InterpolatingParam id="14578" interp="linr"  time="0/1" value="0" leadInLength="0/1"  />
             </VectorParam>
            </Transformer>
            <Parameters>
             <VectorParam id="14579"  name="sourceCrop">
              <InterpolatingParam id="14580" interp="linr"  time="0/1" value="0" leadInLength="0/1"  />
              <InterpolatingParam id="14581" interp="linr"  time="0/1" value="0" leadInLength="0/1"  />
              <InterpolatingParam id="14582" interp="linr"  time="0/1" value="0" leadInLength="0/1"  />
              <InterpolatingParam id="14583" interp="linr"  time="0/1" value="0" leadInLength="0/1"  />
             </VectorParam>
             <VectorParam id="14584"  name="geometryCrop">
              <InterpolatingParam id="14585" interp="linr"  time="-9999999/1" value="0" leadInLength="0/1"  />
              <InterpolatingParam id="14586" interp="linr"  time="-9999999/1" value="0" leadInLength="0/1"  />
              <InterpolatingParam id="14587" interp="linr"  time="-9999999/1" value="0" leadInLength="0/1"  />
              <InterpolatingParam id="14588" interp="linr"  time="-9999999/1" value="0" leadInLength="0/1"  />
             </VectorParam>
             <InterpolatingParam id="14589" interp="linr"  time="-9999999/1" value="1" leadInLength="0/1"  name="opacity"/>
            </Parameters>
            <Attributes>
             <Attribute id="14590" value="" name="ident"/>
            </Attributes>
            <MetaData>
             <entry key="WinSubProjectDisplayName" val=""/>
            </MetaData>
            <ExtraData>
             <Entry key="ZoomPanBin">
              <ZoomPanBin id="14591"  >
               <ZoomPanKeyframes>
                <ZoomPanKeyframe id="14592" timeRangeEnd="-9999999/1" timeRangeDuration="0/1" interpolaterName=""  />
               </ZoomPanKeyframes>
              </ZoomPanBin>
             </Entry>
            </ExtraData>
           </VMFile>
           <VMFile id="14593" start="9561" duration="290" scalar="1/1" mediaStart="28689/1" mediaDuration="290/1" trackNumber="0" src="4" >
            <Transformer>
             <VectorParam id="14594"  name="translation">
              <InterpolatingParam id="14595" interp="linr"  time="-9999999/1" value="0" leadInLength="0/1"  />
              <InterpolatingParam id="14596" interp="linr"  time="-9999999/1" value="0" leadInLength="0/1"  />
              <InterpolatingParam id="14597" interp="linr"  time="-9999999/1" value="0" leadInLength="0/1"  />
             </VectorParam>
             <VectorParam id="14598"  name="rotation">
              <InterpolatingParam id="14599" interp="linr"  time="-9999999/1" value="0" leadInLength="0/1"  />
              <InterpolatingParam id="14600" interp="linr"  time="-9999999/1" value="0" leadInLength="0/1"  />
              <InterpolatingParam id="14601" interp="linr"  time="-9999999/1" value="0" leadInLength="0/1"  />
             </VectorParam>
             <VectorParam id="14602"  name="shear">
              <InterpolatingParam id="14603" interp="linr"  time="-9999999/1" value="0" leadInLength="0/1"  />
              <InterpolatingParam id="14604" interp="linr"  time="-9999999/1" value="0" leadInLength="0/1"  />
              <InterpolatingParam id="14605" interp="linr"  time="-9999999/1" value="0" leadInLength="0/1"  />
             </VectorParam>
             <VectorParam id="14606"  name="scale">
              <InterpolatingParam id="14607" interp="linr"  time="-9999999/1" value="1" leadInLength="0/1"  />
              <InterpolatingParam id="14608" interp="linr"  time="-9999999/1" value="1" leadInLength="0/1"  />
              <InterpolatingParam id="14609" interp="linr"  time="-9999999/1" value="1" leadInLength="0/1"  />
             </VectorParam>
             <VectorParam id="14610"  name="anchor">
              <InterpolatingParam id="14611" interp="linr"  time="0/1" value="0" leadInLength="0/1"  />
              <InterpolatingParam id="14612" interp="linr"  time="0/1" value="0" leadInLength="0/1"  />
              <InterpolatingParam id="14613" interp="linr"  time="0/1" value="0" leadInLength="0/1"  />
             </VectorParam>
            </Transformer>
            <Parameters>
             <VectorParam id="14614"  name="sourceCrop">
              <InterpolatingParam id="14615" interp="linr"  time="0/1" value="0" leadInLength="0/1"  />
              <InterpolatingParam id="14616" interp="linr"  time="0/1" value="0" leadInLength="0/1"  />
              <InterpolatingParam id="14617" interp="linr"  time="0/1" value="0" leadInLength="0/1"  />
              <InterpolatingParam id="14618" interp="linr"  time="0/1" value="0" leadInLength="0/1"  />
             </VectorParam>
             <VectorParam id="14619"  name="geometryCrop">
              <InterpolatingParam id="14620" interp="linr"  time="-9999999/1" value="0" leadInLength="0/1"  />
              <InterpolatingParam id="14621" interp="linr"  time="-9999999/1" value="0" leadInLength="0/1"  />
              <InterpolatingParam id="14622" interp="linr"  time="-9999999/1" value="0" leadInLength="0/1"  />
              <InterpolatingParam id="14623" interp="linr"  time="-9999999/1" value="0" leadInLength="0/1"  />
             </VectorParam>
             <InterpolatingParam id="14624" interp="linr"  time="-9999999/1" value="1" leadInLength="0/1"  name="opacity"/>
            </Parameters>
            <Attributes>
             <Attribute id="14625" value="" name="ident"/>
            </Attributes>
            <MetaData>
             <entry key="WinSubProjectDisplayName" val=""/>
            </MetaData>
            <ExtraData>
             <Entry key="ZoomPanBin">
              <ZoomPanBin id="14626"  >
               <ZoomPanKeyframes>
                <ZoomPanKeyframe id="14627" timeRangeEnd="-9999999/1" timeRangeDuration="0/1" interpolaterName=""  />
               </ZoomPanKeyframes>
              </ZoomPanBin>
             </Entry>
            </ExtraData>
           </VMFile>
           <IMFile id="14628" start="9851" duration="60" scalar="1/1" mediaStart="29056/1" mediaDuration="1/1" trackNumber="0" src="4" trimStartSum="0/1" >
            <Transformer>
             <VectorParam id="14629"  name="translation">
              <InterpolatingParam id="14630" interp="linr"  time="-9999999/1" value="0" leadInLength="0/1"  />
              <InterpolatingParam id="14631" interp="linr"  time="-9999999/1" value="0" leadInLength="0/1"  />
              <InterpolatingParam id="14632" interp="linr"  time="-9999999/1" value="0" leadInLength="0/1"  />
             </VectorParam>
             <VectorParam id="14633"  name="rotation">
              <InterpolatingParam id="14634" interp="linr"  time="-9999999/1" value="0" leadInLength="0/1"  />
              <InterpolatingParam id="14635" interp="linr"  time="-9999999/1" value="0" leadInLength="0/1"  />
              <InterpolatingParam id="14636" interp="linr"  time="-9999999/1" value="0" leadInLength="0/1"  />
             </VectorParam>
             <VectorParam id="14637"  name="shear">
              <InterpolatingParam id="14638" interp="linr"  time="-9999999/1" value="0" leadInLength="0/1"  />
              <InterpolatingParam id="14639" interp="linr"  time="-9999999/1" value="0" leadInLength="0/1"  />
              <InterpolatingParam id="14640" interp="linr"  time="-9999999/1" value="0" leadInLength="0/1"  />
             </VectorParam>
             <VectorParam id="14641"  name="scale">
              <InterpolatingParam id="14642" interp="linr"  time="-9999999/1" value="1" leadInLength="0/1"  />
              <InterpolatingParam id="14643" interp="linr"  time="-9999999/1" value="1" leadInLength="0/1"  />
              <InterpolatingParam id="14644" interp="linr"  time="-9999999/1" value="1" leadInLength="0/1"  />
             </VectorParam>
             <VectorParam id="14645"  name="anchor">
              <InterpolatingParam id="14646" interp="linr"  time="0/1" value="0" leadInLength="0/1"  />
              <InterpolatingParam id="14647" interp="linr"  time="0/1" value="0" leadInLength="0/1"  />
              <InterpolatingParam id="14648" interp="linr"  time="0/1" value="0" leadInLength="0/1"  />
             </VectorParam>
            </Transformer>
            <Parameters>
             <VectorParam id="14649"  name="sourceCrop">
              <InterpolatingParam id="14650" interp="linr"  time="0/1" value="0" leadInLength="0/1"  />
              <InterpolatingParam id="14651" interp="linr"  time="0/1" value="0" leadInLength="0/1"  />
              <InterpolatingParam id="14652" interp="linr"  time="0/1" value="0" leadInLength="0/1"  />
              <InterpolatingParam id="14653" interp="linr"  time="0/1" value="0" leadInLength="0/1"  />
             </VectorParam>
             <VectorParam id="14654"  name="geometryCrop">
              <InterpolatingParam id="14655" interp="linr"  time="-9999999/1" value="0" leadInLength="0/1"  />
              <InterpolatingParam id="14656" interp="linr"  time="-9999999/1" value="0" leadInLength="0/1"  />
              <InterpolatingParam id="14657" interp="linr"  time="-9999999/1" value="0" leadInLength="0/1"  />
              <InterpolatingParam id="14658" interp="linr"  time="-9999999/1" value="0" leadInLength="0/1"  />
             </VectorParam>
             <InterpolatingParam id="14659" interp="linr"  time="-9999999/1" value="1" leadInLength="0/1"  name="opacity"/>
            </Parameters>
            <Attributes>
             <Attribute id="14660" value="" name="ident"/>
            </Attributes>
            <MetaData>
             <entry key="WinSubProjectDisplayName" val=""/>
            </MetaData>
            <ExtraData>
             <Entry key="ZoomPanBin">
              <ZoomPanBin id="14661"  >
               <ZoomPanKeyframes>
                <ZoomPanKeyframe id="14662" timeRangeEnd="-9999999/1" timeRangeDuration="0/1" interpolaterName=""  />
               </ZoomPanKeyframes>
              </ZoomPanBin>
             </Entry>
            </ExtraData>
           </IMFile>
           <VMFile id="14663" start="9911" duration="18" scalar="1/1" mediaStart="29056/1" mediaDuration="18/1" trackNumber="0" src="4" >
            <Transformer>
             <VectorParam id="14664"  name="translation">
              <InterpolatingParam id="14665" interp="linr"  time="-9999999/1" value="0" leadInLength="0/1"  />
              <InterpolatingParam id="14666" interp="linr"  time="-9999999/1" value="0" leadInLength="0/1"  />
              <InterpolatingParam id="14667" interp="linr"  time="-9999999/1" value="0" leadInLength="0/1"  />
             </VectorParam>
             <VectorParam id="14668"  name="rotation">
              <InterpolatingParam id="14669" interp="linr"  time="-9999999/1" value="0" leadInLength="0/1"  />
              <InterpolatingParam id="14670" interp="linr"  time="-9999999/1" value="0" leadInLength="0/1"  />
              <InterpolatingParam id="14671" interp="linr"  time="-9999999/1" value="0" leadInLength="0/1"  />
             </VectorParam>
             <VectorParam id="14672"  name="shear">
              <InterpolatingParam id="14673" interp="linr"  time="-9999999/1" value="0" leadInLength="0/1"  />
              <InterpolatingParam id="14674" interp="linr"  time="-9999999/1" value="0" leadInLength="0/1"  />
              <InterpolatingParam id="14675" interp="linr"  time="-9999999/1" value="0" leadInLength="0/1"  />
             </VectorParam>
             <VectorParam id="14676"  name="scale">
              <InterpolatingParam id="14677" interp="linr"  time="-9999999/1" value="1" leadInLength="0/1"  />
              <InterpolatingParam id="14678" interp="linr"  time="-9999999/1" value="1" leadInLength="0/1"  />
              <InterpolatingParam id="14679" interp="linr"  time="-9999999/1" value="1" leadInLength="0/1"  />
             </VectorParam>
             <VectorParam id="14680"  name="anchor">
              <InterpolatingParam id="14681" interp="linr"  time="0/1" value="0" leadInLength="0/1"  />
              <InterpolatingParam id="14682" interp="linr"  time="0/1" value="0" leadInLength="0/1"  />
              <InterpolatingParam id="14683" interp="linr"  time="0/1" value="0" leadInLength="0/1"  />
             </VectorParam>
            </Transformer>
            <Parameters>
             <VectorParam id="14684"  name="sourceCrop">
              <InterpolatingParam id="14685" interp="linr"  time="0/1" value="0" leadInLength="0/1"  />
              <InterpolatingParam id="14686" interp="linr"  time="0/1" value="0" leadInLength="0/1"  />
              <InterpolatingParam id="14687" interp="linr"  time="0/1" value="0" leadInLength="0/1"  />
              <InterpolatingParam id="14688" interp="linr"  time="0/1" value="0" leadInLength="0/1"  />
             </VectorParam>
             <VectorParam id="14689"  name="geometryCrop">
              <InterpolatingParam id="14690" interp="linr"  time="-9999999/1" value="0" leadInLength="0/1"  />
              <InterpolatingParam id="14691" interp="linr"  time="-9999999/1" value="0" leadInLength="0/1"  />
              <InterpolatingParam id="14692" interp="linr"  time="-9999999/1" value="0" leadInLength="0/1"  />
              <InterpolatingParam id="14693" interp="linr"  time="-9999999/1" value="0" leadInLength="0/1"  />
             </VectorParam>
             <InterpolatingParam id="14694" interp="linr"  time="-9999999/1" value="1" leadInLength="0/1"  name="opacity"/>
            </Parameters>
            <Attributes>
             <Attribute id="14695" value="" name="ident"/>
            </Attributes>
            <MetaData>
             <entry key="WinSubProjectDisplayName" val=""/>
            </MetaData>
            <ExtraData>
             <Entry key="ZoomPanBin">
              <ZoomPanBin id="14696"  >
               <ZoomPanKeyframes>
                <ZoomPanKeyframe id="14697" timeRangeEnd="-9999999/1" timeRangeDuration="0/1" interpolaterName=""  />
               </ZoomPanKeyframes>
              </ZoomPanBin>
             </Entry>
            </ExtraData>
           </VMFile>
           <IMFile id="14698" start="9929" duration="30" scalar="1/1" mediaStart="29074/1" mediaDuration="1/1" trackNumber="0" src="4" trimStartSum="0/1" >
            <Transformer>
             <VectorParam id="14699"  name="translation">
              <InterpolatingParam id="14700" interp="linr"  time="-9999999/1" value="0" leadInLength="0/1"  />
              <InterpolatingParam id="14701" interp="linr"  time="-9999999/1" value="0" leadInLength="0/1"  />
              <InterpolatingParam id="14702" interp="linr"  time="-9999999/1" value="0" leadInLength="0/1"  />
             </VectorParam>
             <VectorParam id="14703"  name="rotation">
              <InterpolatingParam id="14704" interp="linr"  time="-9999999/1" value="0" leadInLength="0/1"  />
              <InterpolatingParam id="14705" interp="linr"  time="-9999999/1" value="0" leadInLength="0/1"  />
              <InterpolatingParam id="14706" interp="linr"  time="-9999999/1" value="0" leadInLength="0/1"  />
             </VectorParam>
             <VectorParam id="14707"  name="shear">
              <InterpolatingParam id="14708" interp="linr"  time="-9999999/1" value="0" leadInLength="0/1"  />
              <InterpolatingParam id="14709" interp="linr"  time="-9999999/1" value="0" leadInLength="0/1"  />
              <InterpolatingParam id="14710" interp="linr"  time="-9999999/1" value="0" leadInLength="0/1"  />
             </VectorParam>
             <VectorParam id="14711"  name="scale">
              <InterpolatingParam id="14712" interp="linr"  time="-9999999/1" value="1" leadInLength="0/1"  />
              <InterpolatingParam id="14713" interp="linr"  time="-9999999/1" value="1" leadInLength="0/1"  />
              <InterpolatingParam id="14714" interp="linr"  time="-9999999/1" value="1" leadInLength="0/1"  />
             </VectorParam>
             <VectorParam id="14715"  name="anchor">
              <InterpolatingParam id="14716" interp="linr"  time="0/1" value="0" leadInLength="0/1"  />
              <InterpolatingParam id="14717" interp="linr"  time="0/1" value="0" leadInLength="0/1"  />
              <InterpolatingParam id="14718" interp="linr"  time="0/1" value="0" leadInLength="0/1"  />
             </VectorParam>
            </Transformer>
            <Parameters>
             <VectorParam id="14719"  name="sourceCrop">
              <InterpolatingParam id="14720" interp="linr"  time="0/1" value="0" leadInLength="0/1"  />
              <InterpolatingParam id="14721" interp="linr"  time="0/1" value="0" leadInLength="0/1"  />
              <InterpolatingParam id="14722" interp="linr"  time="0/1" value="0" leadInLength="0/1"  />
              <InterpolatingParam id="14723" interp="linr"  time="0/1" value="0" leadInLength="0/1"  />
             </VectorParam>
             <VectorParam id="14724"  name="geometryCrop">
              <InterpolatingParam id="14725" interp="linr"  time="-9999999/1" value="0" leadInLength="0/1"  />
              <InterpolatingParam id="14726" interp="linr"  time="-9999999/1" value="0" leadInLength="0/1"  />
              <InterpolatingParam id="14727" interp="linr"  time="-9999999/1" value="0" leadInLength="0/1"  />
              <InterpolatingParam id="14728" interp="linr"  time="-9999999/1" value="0" leadInLength="0/1"  />
             </VectorParam>
             <InterpolatingParam id="14729" interp="linr"  time="-9999999/1" value="1" leadInLength="0/1"  name="opacity"/>
            </Parameters>
            <Attributes>
             <Attribute id="14730" value="" name="ident"/>
            </Attributes>
            <MetaData>
             <entry key="WinSubProjectDisplayName" val=""/>
            </MetaData>
            <ExtraData>
             <Entry key="ZoomPanBin">
              <ZoomPanBin id="14731"  >
               <ZoomPanKeyframes>
                <ZoomPanKeyframe id="14732" timeRangeEnd="-9999999/1" timeRangeDuration="0/1" interpolaterName=""  />
               </ZoomPanKeyframes>
              </ZoomPanBin>
             </Entry>
            </ExtraData>
           </IMFile>
           <VMFile id="14733" start="9959" duration="1" scalar="1/1" mediaStart="29074/1" mediaDuration="1/1" trackNumber="0" src="4" >
            <Transformer>
             <VectorParam id="14734"  name="translation">
              <InterpolatingParam id="14735" interp="linr"  time="-9999999/1" value="0" leadInLength="0/1"  />
              <InterpolatingParam id="14736" interp="linr"  time="-9999999/1" value="0" leadInLength="0/1"  />
              <InterpolatingParam id="14737" interp="linr"  time="-9999999/1" value="0" leadInLength="0/1"  />
             </VectorParam>
             <VectorParam id="14738"  name="rotation">
              <InterpolatingParam id="14739" interp="linr"  time="-9999999/1" value="0" leadInLength="0/1"  />
              <InterpolatingParam id="14740" interp="linr"  time="-9999999/1" value="0" leadInLength="0/1"  />
              <InterpolatingParam id="14741" interp="linr"  time="-9999999/1" value="0" leadInLength="0/1"  />
             </VectorParam>
             <VectorParam id="14742"  name="shear">
              <InterpolatingParam id="14743" interp="linr"  time="-9999999/1" value="0" leadInLength="0/1"  />
              <InterpolatingParam id="14744" interp="linr"  time="-9999999/1" value="0" leadInLength="0/1"  />
              <InterpolatingParam id="14745" interp="linr"  time="-9999999/1" value="0" leadInLength="0/1"  />
             </VectorParam>
             <VectorParam id="14746"  name="scale">
              <InterpolatingParam id="14747" interp="linr"  time="-9999999/1" value="1" leadInLength="0/1"  />
              <InterpolatingParam id="14748" interp="linr"  time="-9999999/1" value="1" leadInLength="0/1"  />
              <InterpolatingParam id="14749" interp="linr"  time="-9999999/1" value="1" leadInLength="0/1"  />
             </VectorParam>
             <VectorParam id="14750"  name="anchor">
              <InterpolatingParam id="14751" interp="linr"  time="0/1" value="0" leadInLength="0/1"  />
              <InterpolatingParam id="14752" interp="linr"  time="0/1" value="0" leadInLength="0/1"  />
              <InterpolatingParam id="14753" interp="linr"  time="0/1" value="0" leadInLength="0/1"  />
             </VectorParam>
            </Transformer>
            <Parameters>
             <VectorParam id="14754"  name="sourceCrop">
              <InterpolatingParam id="14755" interp="linr"  time="0/1" value="0" leadInLength="0/1"  />
              <InterpolatingParam id="14756" interp="linr"  time="0/1" value="0" leadInLength="0/1"  />
              <InterpolatingParam id="14757" interp="linr"  time="0/1" value="0" leadInLength="0/1"  />
              <InterpolatingParam id="14758" interp="linr"  time="0/1" value="0" leadInLength="0/1"  />
             </VectorParam>
             <VectorParam id="14759"  name="geometryCrop">
              <InterpolatingParam id="14760" interp="linr"  time="-9999999/1" value="0" leadInLength="0/1"  />
              <InterpolatingParam id="14761" interp="linr"  time="-9999999/1" value="0" leadInLength="0/1"  />
              <InterpolatingParam id="14762" interp="linr"  time="-9999999/1" value="0" leadInLength="0/1"  />
              <InterpolatingParam id="14763" interp="linr"  time="-9999999/1" value="0" leadInLength="0/1"  />
             </VectorParam>
             <InterpolatingParam id="14764" interp="linr"  time="-9999999/1" value="1" leadInLength="0/1"  name="opacity"/>
            </Parameters>
            <Attributes>
             <Attribute id="14765" value="" name="ident"/>
            </Attributes>
            <MetaData>
             <entry key="WinSubProjectDisplayName" val=""/>
            </MetaData>
            <ExtraData>
             <Entry key="ZoomPanBin">
              <ZoomPanBin id="14766"  >
               <ZoomPanKeyframes>
                <ZoomPanKeyframe id="14767" timeRangeEnd="-9999999/1" timeRangeDuration="0/1" interpolaterName=""  />
               </ZoomPanKeyframes>
              </ZoomPanBin>
             </Entry>
            </ExtraData>
           </VMFile>
           <VMFile id="14768" start="9960" duration="42" scalar="1/1" mediaStart="29274/1" mediaDuration="42/1" trackNumber="0" src="4" >
            <Transformer>
             <VectorParam id="14769"  name="translation">
              <InterpolatingParam id="14770" interp="linr"  time="-9999999/1" value="0" leadInLength="0/1"  />
              <InterpolatingParam id="14771" interp="linr"  time="-9999999/1" value="0" leadInLength="0/1"  />
              <InterpolatingParam id="14772" interp="linr"  time="-9999999/1" value="0" leadInLength="0/1"  />
             </VectorParam>
             <VectorParam id="14773"  name="rotation">
              <InterpolatingParam id="14774" interp="linr"  time="-9999999/1" value="0" leadInLength="0/1"  />
              <InterpolatingParam id="14775" interp="linr"  time="-9999999/1" value="0" leadInLength="0/1"  />
              <InterpolatingParam id="14776" interp="linr"  time="-9999999/1" value="0" leadInLength="0/1"  />
             </VectorParam>
             <VectorParam id="14777"  name="shear">
              <InterpolatingParam id="14778" interp="linr"  time="-9999999/1" value="0" leadInLength="0/1"  />
              <InterpolatingParam id="14779" interp="linr"  time="-9999999/1" value="0" leadInLength="0/1"  />
              <InterpolatingParam id="14780" interp="linr"  time="-9999999/1" value="0" leadInLength="0/1"  />
             </VectorParam>
             <VectorParam id="14781"  name="scale">
              <InterpolatingParam id="14782" interp="linr"  time="-9999999/1" value="1" leadInLength="0/1"  />
              <InterpolatingParam id="14783" interp="linr"  time="-9999999/1" value="1" leadInLength="0/1"  />
              <InterpolatingParam id="14784" interp="linr"  time="-9999999/1" value="1" leadInLength="0/1"  />
             </VectorParam>
             <VectorParam id="14785"  name="anchor">
              <InterpolatingParam id="14786" interp="linr"  time="0/1" value="0" leadInLength="0/1"  />
              <InterpolatingParam id="14787" interp="linr"  time="0/1" value="0" leadInLength="0/1"  />
              <InterpolatingParam id="14788" interp="linr"  time="0/1" value="0" leadInLength="0/1"  />
             </VectorParam>
            </Transformer>
            <Parameters>
             <VectorParam id="14789"  name="sourceCrop">
              <InterpolatingParam id="14790" interp="linr"  time="0/1" value="0" leadInLength="0/1"  />
              <InterpolatingParam id="14791" interp="linr"  time="0/1" value="0" leadInLength="0/1"  />
              <InterpolatingParam id="14792" interp="linr"  time="0/1" value="0" leadInLength="0/1"  />
              <InterpolatingParam id="14793" interp="linr"  time="0/1" value="0" leadInLength="0/1"  />
             </VectorParam>
             <VectorParam id="14794"  name="geometryCrop">
              <InterpolatingParam id="14795" interp="linr"  time="-9999999/1" value="0" leadInLength="0/1"  />
              <InterpolatingParam id="14796" interp="linr"  time="-9999999/1" value="0" leadInLength="0/1"  />
              <InterpolatingParam id="14797" interp="linr"  time="-9999999/1" value="0" leadInLength="0/1"  />
              <InterpolatingParam id="14798" interp="linr"  time="-9999999/1" value="0" leadInLength="0/1"  />
             </VectorParam>
             <InterpolatingParam id="14799" interp="linr"  time="-9999999/1" value="1" leadInLength="0/1"  name="opacity"/>
            </Parameters>
            <Attributes>
             <Attribute id="14800" value="" name="ident"/>
            </Attributes>
            <MetaData>
             <entry key="WinSubProjectDisplayName" val=""/>
            </MetaData>
            <ExtraData>
             <Entry key="ZoomPanBin">
              <ZoomPanBin id="14801"  >
               <ZoomPanKeyframes>
                <ZoomPanKeyframe id="14802" timeRangeEnd="-9999999/1" timeRangeDuration="0/1" interpolaterName=""  />
               </ZoomPanKeyframes>
              </ZoomPanBin>
             </Entry>
            </ExtraData>
           </VMFile>
           <VMFile id="14803" start="10002" duration="147" scalar="1/1" mediaStart="29358/1" mediaDuration="147/1" trackNumber="0" src="4" >
            <Transformer>
             <VectorParam id="14804"  name="translation">
              <InterpolatingParam id="14805" interp="linr"  time="-9999999/1" value="0" leadInLength="0/1"  />
              <InterpolatingParam id="14806" interp="linr"  time="-9999999/1" value="0" leadInLength="0/1"  />
              <InterpolatingParam id="14807" interp="linr"  time="-9999999/1" value="0" leadInLength="0/1"  />
             </VectorParam>
             <VectorParam id="14808"  name="rotation">
              <InterpolatingParam id="14809" interp="linr"  time="-9999999/1" value="0" leadInLength="0/1"  />
              <InterpolatingParam id="14810" interp="linr"  time="-9999999/1" value="0" leadInLength="0/1"  />
              <InterpolatingParam id="14811" interp="linr"  time="-9999999/1" value="0" leadInLength="0/1"  />
             </VectorParam>
             <VectorParam id="14812"  name="shear">
              <InterpolatingParam id="14813" interp="linr"  time="-9999999/1" value="0" leadInLength="0/1"  />
              <InterpolatingParam id="14814" interp="linr"  time="-9999999/1" value="0" leadInLength="0/1"  />
              <InterpolatingParam id="14815" interp="linr"  time="-9999999/1" value="0" leadInLength="0/1"  />
             </VectorParam>
             <VectorParam id="14816"  name="scale">
              <InterpolatingParam id="14817" interp="linr"  time="-9999999/1" value="1" leadInLength="0/1"  />
              <InterpolatingParam id="14818" interp="linr"  time="-9999999/1" value="1" leadInLength="0/1"  />
              <InterpolatingParam id="14819" interp="linr"  time="-9999999/1" value="1" leadInLength="0/1"  />
             </VectorParam>
             <VectorParam id="14820"  name="anchor">
              <InterpolatingParam id="14821" interp="linr"  time="0/1" value="0" leadInLength="0/1"  />
              <InterpolatingParam id="14822" interp="linr"  time="0/1" value="0" leadInLength="0/1"  />
              <InterpolatingParam id="14823" interp="linr"  time="0/1" value="0" leadInLength="0/1"  />
             </VectorParam>
            </Transformer>
            <Parameters>
             <VectorParam id="14824"  name="sourceCrop">
              <InterpolatingParam id="14825" interp="linr"  time="0/1" value="0" leadInLength="0/1"  />
              <InterpolatingParam id="14826" interp="linr"  time="0/1" value="0" leadInLength="0/1"  />
              <InterpolatingParam id="14827" interp="linr"  time="0/1" value="0" leadInLength="0/1"  />
              <InterpolatingParam id="14828" interp="linr"  time="0/1" value="0" leadInLength="0/1"  />
             </VectorParam>
             <VectorParam id="14829"  name="geometryCrop">
              <InterpolatingParam id="14830" interp="linr"  time="-9999999/1" value="0" leadInLength="0/1"  />
              <InterpolatingParam id="14831" interp="linr"  time="-9999999/1" value="0" leadInLength="0/1"  />
              <InterpolatingParam id="14832" interp="linr"  time="-9999999/1" value="0" leadInLength="0/1"  />
              <InterpolatingParam id="14833" interp="linr"  time="-9999999/1" value="0" leadInLength="0/1"  />
             </VectorParam>
             <InterpolatingParam id="14834" interp="linr"  time="-9999999/1" value="1" leadInLength="0/1"  name="opacity"/>
            </Parameters>
            <Attributes>
             <Attribute id="14835" value="" name="ident"/>
            </Attributes>
            <MetaData>
             <entry key="WinSubProjectDisplayName" val=""/>
            </MetaData>
            <ExtraData>
             <Entry key="ZoomPanBin">
              <ZoomPanBin id="14836"  >
               <ZoomPanKeyframes>
                <ZoomPanKeyframe id="14837" timeRangeEnd="-9999999/1" timeRangeDuration="0/1" interpolaterName=""  />
               </ZoomPanKeyframes>
              </ZoomPanBin>
             </Entry>
            </ExtraData>
           </VMFile>
           <VMFile id="14838" start="10149" duration="580" scalar="1/1" mediaStart="29557/1" mediaDuration="580/1" trackNumber="0" src="4" >
            <Transformer>
             <VectorParam id="14839"  name="translation">
              <InterpolatingParam id="14840" interp="linr"  time="-9999999/1" value="0" leadInLength="0/1"  />
              <InterpolatingParam id="14841" interp="linr"  time="-9999999/1" value="0" leadInLength="0/1"  />
              <InterpolatingParam id="14842" interp="linr"  time="-9999999/1" value="0" leadInLength="0/1"  />
             </VectorParam>
             <VectorParam id="14843"  name="rotation">
              <InterpolatingParam id="14844" interp="linr"  time="-9999999/1" value="0" leadInLength="0/1"  />
              <InterpolatingParam id="14845" interp="linr"  time="-9999999/1" value="0" leadInLength="0/1"  />
              <InterpolatingParam id="14846" interp="linr"  time="-9999999/1" value="0" leadInLength="0/1"  />
             </VectorParam>
             <VectorParam id="14847"  name="shear">
              <InterpolatingParam id="14848" interp="linr"  time="-9999999/1" value="0" leadInLength="0/1"  />
              <InterpolatingParam id="14849" interp="linr"  time="-9999999/1" value="0" leadInLength="0/1"  />
              <InterpolatingParam id="14850" interp="linr"  time="-9999999/1" value="0" leadInLength="0/1"  />
             </VectorParam>
             <VectorParam id="14851"  name="scale">
              <InterpolatingParam id="14852" interp="linr"  time="-9999999/1" value="1" leadInLength="0/1"  />
              <InterpolatingParam id="14853" interp="linr"  time="-9999999/1" value="1" leadInLength="0/1"  />
              <InterpolatingParam id="14854" interp="linr"  time="-9999999/1" value="1" leadInLength="0/1"  />
             </VectorParam>
             <VectorParam id="14855"  name="anchor">
              <InterpolatingParam id="14856" interp="linr"  time="0/1" value="0" leadInLength="0/1"  />
              <InterpolatingParam id="14857" interp="linr"  time="0/1" value="0" leadInLength="0/1"  />
              <InterpolatingParam id="14858" interp="linr"  time="0/1" value="0" leadInLength="0/1"  />
             </VectorParam>
            </Transformer>
            <Parameters>
             <VectorParam id="14859"  name="sourceCrop">
              <InterpolatingParam id="14860" interp="linr"  time="0/1" value="0" leadInLength="0/1"  />
              <InterpolatingParam id="14861" interp="linr"  time="0/1" value="0" leadInLength="0/1"  />
              <InterpolatingParam id="14862" interp="linr"  time="0/1" value="0" leadInLength="0/1"  />
              <InterpolatingParam id="14863" interp="linr"  time="0/1" value="0" leadInLength="0/1"  />
             </VectorParam>
             <VectorParam id="14864"  name="geometryCrop">
              <InterpolatingParam id="14865" interp="linr"  time="-9999999/1" value="0" leadInLength="0/1"  />
              <InterpolatingParam id="14866" interp="linr"  time="-9999999/1" value="0" leadInLength="0/1"  />
              <InterpolatingParam id="14867" interp="linr"  time="-9999999/1" value="0" leadInLength="0/1"  />
              <InterpolatingParam id="14868" interp="linr"  time="-9999999/1" value="0" leadInLength="0/1"  />
             </VectorParam>
             <InterpolatingParam id="14869" interp="linr"  time="-9999999/1" value="1" leadInLength="0/1"  name="opacity"/>
            </Parameters>
            <Attributes>
             <Attribute id="14870" value="" name="ident"/>
            </Attributes>
            <MetaData>
             <entry key="WinSubProjectDisplayName" val=""/>
            </MetaData>
            <ExtraData>
             <Entry key="ZoomPanBin">
              <ZoomPanBin id="14871"  >
               <ZoomPanKeyframes>
                <ZoomPanKeyframe id="14872" timeRangeEnd="-9999999/1" timeRangeDuration="0/1" interpolaterName=""  />
               </ZoomPanKeyframes>
              </ZoomPanBin>
             </Entry>
            </ExtraData>
           </VMFile>
           <VMFile id="14873" start="10729" duration="25" scalar="1/1" mediaStart="30200/1" mediaDuration="25/1" trackNumber="0" src="4" >
            <Transformer>
             <VectorParam id="14874"  name="translation">
              <InterpolatingParam id="14875" interp="linr"  time="-9999999/1" value="0" leadInLength="0/1"  />
              <InterpolatingParam id="14876" interp="linr"  time="-9999999/1" value="0" leadInLength="0/1"  />
              <InterpolatingParam id="14877" interp="linr"  time="-9999999/1" value="0" leadInLength="0/1"  />
             </VectorParam>
             <VectorParam id="14878"  name="rotation">
              <InterpolatingParam id="14879" interp="linr"  time="-9999999/1" value="0" leadInLength="0/1"  />
              <InterpolatingParam id="14880" interp="linr"  time="-9999999/1" value="0" leadInLength="0/1"  />
              <InterpolatingParam id="14881" interp="linr"  time="-9999999/1" value="0" leadInLength="0/1"  />
             </VectorParam>
             <VectorParam id="14882"  name="shear">
              <InterpolatingParam id="14883" interp="linr"  time="-9999999/1" value="0" leadInLength="0/1"  />
              <InterpolatingParam id="14884" interp="linr"  time="-9999999/1" value="0" leadInLength="0/1"  />
              <InterpolatingParam id="14885" interp="linr"  time="-9999999/1" value="0" leadInLength="0/1"  />
             </VectorParam>
             <VectorParam id="14886"  name="scale">
              <InterpolatingParam id="14887" interp="linr"  time="-9999999/1" value="1" leadInLength="0/1"  />
              <InterpolatingParam id="14888" interp="linr"  time="-9999999/1" value="1" leadInLength="0/1"  />
              <InterpolatingParam id="14889" interp="linr"  time="-9999999/1" value="1" leadInLength="0/1"  />
             </VectorParam>
             <VectorParam id="14890"  name="anchor">
              <InterpolatingParam id="14891" interp="linr"  time="0/1" value="0" leadInLength="0/1"  />
              <InterpolatingParam id="14892" interp="linr"  time="0/1" value="0" leadInLength="0/1"  />
              <InterpolatingParam id="14893" interp="linr"  time="0/1" value="0" leadInLength="0/1"  />
             </VectorParam>
            </Transformer>
            <Parameters>
             <VectorParam id="14894"  name="sourceCrop">
              <InterpolatingParam id="14895" interp="linr"  time="0/1" value="0" leadInLength="0/1"  />
              <InterpolatingParam id="14896" interp="linr"  time="0/1" value="0" leadInLength="0/1"  />
              <InterpolatingParam id="14897" interp="linr"  time="0/1" value="0" leadInLength="0/1"  />
              <InterpolatingParam id="14898" interp="linr"  time="0/1" value="0" leadInLength="0/1"  />
             </VectorParam>
             <VectorParam id="14899"  name="geometryCrop">
              <InterpolatingParam id="14900" interp="linr"  time="-9999999/1" value="0" leadInLength="0/1"  />
              <InterpolatingParam id="14901" interp="linr"  time="-9999999/1" value="0" leadInLength="0/1"  />
              <InterpolatingParam id="14902" interp="linr"  time="-9999999/1" value="0" leadInLength="0/1"  />
              <InterpolatingParam id="14903" interp="linr"  time="-9999999/1" value="0" leadInLength="0/1"  />
             </VectorParam>
             <InterpolatingParam id="14904" interp="linr"  time="-9999999/1" value="1" leadInLength="0/1"  name="opacity"/>
            </Parameters>
            <Attributes>
             <Attribute id="14905" value="" name="ident"/>
            </Attributes>
            <MetaData>
             <entry key="WinSubProjectDisplayName" val=""/>
            </MetaData>
            <ExtraData>
             <Entry key="ZoomPanBin">
              <ZoomPanBin id="14906"  >
               <ZoomPanKeyframes>
                <ZoomPanKeyframe id="14907" timeRangeEnd="-9999999/1" timeRangeDuration="0/1" interpolaterName=""  />
               </ZoomPanKeyframes>
              </ZoomPanBin>
             </Entry>
            </ExtraData>
           </VMFile>
           <VMFile id="14908" start="10754" duration="119" scalar="1/1" mediaStart="30368/1" mediaDuration="119/1" trackNumber="0" src="4" >
            <Transformer>
             <VectorParam id="14909"  name="translation">
              <InterpolatingParam id="14910" interp="linr"  time="-9999999/1" value="0" leadInLength="0/1"  />
              <InterpolatingParam id="14911" interp="linr"  time="-9999999/1" value="0" leadInLength="0/1"  />
              <InterpolatingParam id="14912" interp="linr"  time="-9999999/1" value="0" leadInLength="0/1"  />
             </VectorParam>
             <VectorParam id="14913"  name="rotation">
              <InterpolatingParam id="14914" interp="linr"  time="-9999999/1" value="0" leadInLength="0/1"  />
              <InterpolatingParam id="14915" interp="linr"  time="-9999999/1" value="0" leadInLength="0/1"  />
              <InterpolatingParam id="14916" interp="linr"  time="-9999999/1" value="0" leadInLength="0/1"  />
             </VectorParam>
             <VectorParam id="14917"  name="shear">
              <InterpolatingParam id="14918" interp="linr"  time="-9999999/1" value="0" leadInLength="0/1"  />
              <InterpolatingParam id="14919" interp="linr"  time="-9999999/1" value="0" leadInLength="0/1"  />
              <InterpolatingParam id="14920" interp="linr"  time="-9999999/1" value="0" leadInLength="0/1"  />
             </VectorParam>
             <VectorParam id="14921"  name="scale">
              <InterpolatingParam id="14922" interp="linr"  time="-9999999/1" value="1" leadInLength="0/1"  />
              <InterpolatingParam id="14923" interp="linr"  time="-9999999/1" value="1" leadInLength="0/1"  />
              <InterpolatingParam id="14924" interp="linr"  time="-9999999/1" value="1" leadInLength="0/1"  />
             </VectorParam>
             <VectorParam id="14925"  name="anchor">
              <InterpolatingParam id="14926" interp="linr"  time="0/1" value="0" leadInLength="0/1"  />
              <InterpolatingParam id="14927" interp="linr"  time="0/1" value="0" leadInLength="0/1"  />
              <InterpolatingParam id="14928" interp="linr"  time="0/1" value="0" leadInLength="0/1"  />
             </VectorParam>
            </Transformer>
            <Parameters>
             <VectorParam id="14929"  name="sourceCrop">
              <InterpolatingParam id="14930" interp="linr"  time="0/1" value="0" leadInLength="0/1"  />
              <InterpolatingParam id="14931" interp="linr"  time="0/1" value="0" leadInLength="0/1"  />
              <InterpolatingParam id="14932" interp="linr"  time="0/1" value="0" leadInLength="0/1"  />
              <InterpolatingParam id="14933" interp="linr"  time="0/1" value="0" leadInLength="0/1"  />
             </VectorParam>
             <VectorParam id="14934"  name="geometryCrop">
              <InterpolatingParam id="14935" interp="linr"  time="-9999999/1" value="0" leadInLength="0/1"  />
              <InterpolatingParam id="14936" interp="linr"  time="-9999999/1" value="0" leadInLength="0/1"  />
              <InterpolatingParam id="14937" interp="linr"  time="-9999999/1" value="0" leadInLength="0/1"  />
              <InterpolatingParam id="14938" interp="linr"  time="-9999999/1" value="0" leadInLength="0/1"  />
             </VectorParam>
             <InterpolatingParam id="14939" interp="linr"  time="-9999999/1" value="1" leadInLength="0/1"  name="opacity"/>
            </Parameters>
            <Attributes>
             <Attribute id="14940" value="" name="ident"/>
            </Attributes>
            <MetaData>
             <entry key="WinSubProjectDisplayName" val=""/>
            </MetaData>
            <ExtraData>
             <Entry key="ZoomPanBin">
              <ZoomPanBin id="14941"  >
               <ZoomPanKeyframes>
                <ZoomPanKeyframe id="14942" timeRangeEnd="-9999999/1" timeRangeDuration="0/1" interpolaterName=""  />
               </ZoomPanKeyframes>
              </ZoomPanBin>
             </Entry>
            </ExtraData>
           </VMFile>
           <VMFile id="14943" start="10873" duration="411" scalar="1/1" mediaStart="30756/1" mediaDuration="411/1" trackNumber="0" src="4" >
            <Transformer>
             <VectorParam id="14944"  name="translation">
              <InterpolatingParam id="14945" interp="linr"  time="-9999999/1" value="0" leadInLength="0/1"  />
              <InterpolatingParam id="14946" interp="linr"  time="-9999999/1" value="0" leadInLength="0/1"  />
              <InterpolatingParam id="14947" interp="linr"  time="-9999999/1" value="0" leadInLength="0/1"  />
             </VectorParam>
             <VectorParam id="14948"  name="rotation">
              <InterpolatingParam id="14949" interp="linr"  time="-9999999/1" value="0" leadInLength="0/1"  />
              <InterpolatingParam id="14950" interp="linr"  time="-9999999/1" value="0" leadInLength="0/1"  />
              <InterpolatingParam id="14951" interp="linr"  time="-9999999/1" value="0" leadInLength="0/1"  />
             </VectorParam>
             <VectorParam id="14952"  name="shear">
              <InterpolatingParam id="14953" interp="linr"  time="-9999999/1" value="0" leadInLength="0/1"  />
              <InterpolatingParam id="14954" interp="linr"  time="-9999999/1" value="0" leadInLength="0/1"  />
              <InterpolatingParam id="14955" interp="linr"  time="-9999999/1" value="0" leadInLength="0/1"  />
             </VectorParam>
             <VectorParam id="14956"  name="scale">
              <InterpolatingParam id="14957" interp="linr"  time="-9999999/1" value="1" leadInLength="0/1"  />
              <InterpolatingParam id="14958" interp="linr"  time="-9999999/1" value="1" leadInLength="0/1"  />
              <InterpolatingParam id="14959" interp="linr"  time="-9999999/1" value="1" leadInLength="0/1"  />
             </VectorParam>
             <VectorParam id="14960"  name="anchor">
              <InterpolatingParam id="14961" interp="linr"  time="0/1" value="0" leadInLength="0/1"  />
              <InterpolatingParam id="14962" interp="linr"  time="0/1" value="0" leadInLength="0/1"  />
              <InterpolatingParam id="14963" interp="linr"  time="0/1" value="0" leadInLength="0/1"  />
             </VectorParam>
            </Transformer>
            <Parameters>
             <VectorParam id="14964"  name="sourceCrop">
              <InterpolatingParam id="14965" interp="linr"  time="0/1" value="0" leadInLength="0/1"  />
              <InterpolatingParam id="14966" interp="linr"  time="0/1" value="0" leadInLength="0/1"  />
              <InterpolatingParam id="14967" interp="linr"  time="0/1" value="0" leadInLength="0/1"  />
              <InterpolatingParam id="14968" interp="linr"  time="0/1" value="0" leadInLength="0/1"  />
             </VectorParam>
             <VectorParam id="14969"  name="geometryCrop">
              <InterpolatingParam id="14970" interp="linr"  time="-9999999/1" value="0" leadInLength="0/1"  />
              <InterpolatingParam id="14971" interp="linr"  time="-9999999/1" value="0" leadInLength="0/1"  />
              <InterpolatingParam id="14972" interp="linr"  time="-9999999/1" value="0" leadInLength="0/1"  />
              <InterpolatingParam id="14973" interp="linr"  time="-9999999/1" value="0" leadInLength="0/1"  />
             </VectorParam>
             <InterpolatingParam id="14974" interp="linr"  time="-9999999/1" value="1" leadInLength="0/1"  name="opacity"/>
            </Parameters>
            <Attributes>
             <Attribute id="14975" value="" name="ident"/>
            </Attributes>
            <MetaData>
             <entry key="WinSubProjectDisplayName" val=""/>
            </MetaData>
            <ExtraData>
             <Entry key="ZoomPanBin">
              <ZoomPanBin id="14976"  >
               <ZoomPanKeyframes>
                <ZoomPanKeyframe id="14977" timeRangeEnd="-9999999/1" timeRangeDuration="0/1" interpolaterName=""  />
               </ZoomPanKeyframes>
              </ZoomPanBin>
             </Entry>
            </ExtraData>
           </VMFile>
          </Medias>
         </GenericTrack>
        </StitchedMedia>
        <StitchedMedia id="14978" start="3798" duration="220" scalar="4503599627370496/6757732562282619" mediaStart="576460752303423488/80868369607885" mediaDuration="371675290925544045/1125899906842624" minMediaStart="0/1" >
         <Transformer>
          <VectorParam id="14979"  name="translation">
           <InterpolatingParam id="14980" interp="linr"  time="-9999999/1" value="0" leadInLength="0/1"  interpolater="leadin-linr"  />
           <InterpolatingParam id="14981" interp="linr"  time="-9999999/1" value="0" leadInLength="0/1"  interpolater="leadin-linr"  />
           <InterpolatingParam id="14982" interp="linr"  time="-9999999/1" value="0" leadInLength="0/1"  interpolater="leadin-linr"  />
          </VectorParam>
          <VectorParam id="14983"  name="rotation">
           <InterpolatingParam id="14984" interp="linr"  time="-9999999/1" value="0" leadInLength="0/1"  interpolater="leadin-linr"  />
           <InterpolatingParam id="14985" interp="linr"  time="-9999999/1" value="0" leadInLength="0/1"  interpolater="leadin-linr"  />
           <InterpolatingParam id="14986" interp="linr"  time="-9999999/1" value="0" leadInLength="0/1"  interpolater="leadin-linr"  />
          </VectorParam>
          <VectorParam id="14987"  name="shear">
           <InterpolatingParam id="14988" interp="linr"  time="-9999999/1" value="0" leadInLength="0/1"  interpolater="leadin-linr"  />
           <InterpolatingParam id="14989" interp="linr"  time="-9999999/1" value="0" leadInLength="0/1"  interpolater="leadin-linr"  />
           <InterpolatingParam id="14990" interp="linr"  time="-9999999/1" value="0" leadInLength="0/1"  interpolater="leadin-linr"  />
          </VectorParam>
          <VectorParam id="14991"  name="scale">
           <InterpolatingParam id="14992" interp="linr"  time="-9999999/1" value="1" leadInLength="0/1"  interpolater="leadin-linr"  />
           <InterpolatingParam id="14993" interp="linr"  time="-9999999/1" value="1" leadInLength="0/1"  interpolater="leadin-linr"  />
           <InterpolatingParam id="14994" interp="linr"  time="-9999999/1" value="1" leadInLength="0/1"  interpolater="leadin-linr"  />
          </VectorParam>
          <VectorParam id="14995"  name="anchor">
           <InterpolatingParam id="14996" interp="linr"  >
            <Keyframes>
            <Keyframe id="14997"  time="0/1" value="0" leadInLength="0/1"  />
            <Keyframe id="14998"  time="32931335377/7971776" value="0" leadInLength="0/1"  />
            <Keyframe id="14999"  time="4328/1" value="0" leadInLength="0/1"  />
            <Keyframe id="15000"  time="4457/1" value="0" leadInLength="0/1"  />
            <Keyframe id="15001"  time="46272102474146/7646783123" value="0" leadInLength="0/1"  />
            <Keyframe id="15002"  time="1152921504606846976/117073500061145" value="0" leadInLength="0/1"  />
            <Keyframe id="15003"  time="288230376151711744/29038376098307" value="0" leadInLength="0/1"  />
            </Keyframes>
           </InterpolatingParam>
           <InterpolatingParam id="15004" interp="linr"  >
            <Keyframes>
            <Keyframe id="15005"  time="0/1" value="0" leadInLength="0/1"  />
            <Keyframe id="15006"  time="32931335377/7971776" value="0" leadInLength="0/1"  />
            <Keyframe id="15007"  time="4328/1" value="0" leadInLength="0/1"  />
            <Keyframe id="15008"  time="4457/1" value="0" leadInLength="0/1"  />
            <Keyframe id="15009"  time="46272102474146/7646783123" value="0" leadInLength="0/1"  />
            <Keyframe id="15010"  time="1152921504606846976/117073500061145" value="0" leadInLength="0/1"  />
            <Keyframe id="15011"  time="288230376151711744/29038376098307" value="0" leadInLength="0/1"  />
            </Keyframes>
           </InterpolatingParam>
           <InterpolatingParam id="15012" interp="linr"  >
            <Keyframes>
            <Keyframe id="15013"  time="0/1" value="0" leadInLength="0/1"  />
            <Keyframe id="15014"  time="32931335377/7971776" value="0" leadInLength="0/1"  />
            <Keyframe id="15015"  time="4328/1" value="0" leadInLength="0/1"  />
            <Keyframe id="15016"  time="4457/1" value="0" leadInLength="0/1"  />
            <Keyframe id="15017"  time="46272102474146/7646783123" value="0" leadInLength="0/1"  />
            <Keyframe id="15018"  time="1152921504606846976/117073500061145" value="0" leadInLength="0/1"  />
            <Keyframe id="15019"  time="288230376151711744/29038376098307" value="0" leadInLength="0/1"  />
            </Keyframes>
           </InterpolatingParam>
          </VectorParam>
         </Transformer>
         <Parameters>
          <VectorParam id="15020"  name="sourceCrop">
           <InterpolatingParam id="15021" interp="linr"  >
            <Keyframes>
            <Keyframe id="15022"  time="0/1" value="0" leadInLength="0/1"  />
            <Keyframe id="15023"  time="32931335377/7971776" value="0" leadInLength="0/1"  />
            <Keyframe id="15024"  time="4328/1" value="0" leadInLength="0/1"  />
            <Keyframe id="15025"  time="4457/1" value="0" leadInLength="0/1"  />
            <Keyframe id="15026"  time="46272102474146/7646783123" value="0" leadInLength="0/1"  />
            <Keyframe id="15027"  time="1152921504606846976/117073500061145" value="0" leadInLength="0/1"  />
            <Keyframe id="15028"  time="288230376151711744/29038376098307" value="0" leadInLength="0/1"  />
            </Keyframes>
           </InterpolatingParam>
           <InterpolatingParam id="15029" interp="linr"  >
            <Keyframes>
            <Keyframe id="15030"  time="0/1" value="0" leadInLength="0/1"  />
            <Keyframe id="15031"  time="32931335377/7971776" value="0" leadInLength="0/1"  />
            <Keyframe id="15032"  time="4328/1" value="0" leadInLength="0/1"  />
            <Keyframe id="15033"  time="4457/1" value="0" leadInLength="0/1"  />
            <Keyframe id="15034"  time="46272102474146/7646783123" value="0" leadInLength="0/1"  />
            <Keyframe id="15035"  time="1152921504606846976/117073500061145" value="0" leadInLength="0/1"  />
            <Keyframe id="15036"  time="288230376151711744/29038376098307" value="0" leadInLength="0/1"  />
            </Keyframes>
           </InterpolatingParam>
           <InterpolatingParam id="15037" interp="linr"  >
            <Keyframes>
            <Keyframe id="15038"  time="0/1" value="0" leadInLength="0/1"  />
            <Keyframe id="15039"  time="32931335377/7971776" value="0" leadInLength="0/1"  />
            <Keyframe id="15040"  time="4328/1" value="0" leadInLength="0/1"  />
            <Keyframe id="15041"  time="4457/1" value="0" leadInLength="0/1"  />
            <Keyframe id="15042"  time="46272102474146/7646783123" value="0" leadInLength="0/1"  />
            <Keyframe id="15043"  time="1152921504606846976/117073500061145" value="0" leadInLength="0/1"  />
            <Keyframe id="15044"  time="288230376151711744/29038376098307" value="0" leadInLength="0/1"  />
            </Keyframes>
           </InterpolatingParam>
           <InterpolatingParam id="15045" interp="linr"  >
            <Keyframes>
            <Keyframe id="15046"  time="0/1" value="0" leadInLength="0/1"  />
            <Keyframe id="15047"  time="32931335377/7971776" value="0" leadInLength="0/1"  />
            <Keyframe id="15048"  time="4328/1" value="0" leadInLength="0/1"  />
            <Keyframe id="15049"  time="4457/1" value="0" leadInLength="0/1"  />
            <Keyframe id="15050"  time="46272102474146/7646783123" value="0" leadInLength="0/1"  />
            <Keyframe id="15051"  time="1152921504606846976/117073500061145" value="0" leadInLength="0/1"  />
            <Keyframe id="15052"  time="288230376151711744/29038376098307" value="0" leadInLength="0/1"  />
            </Keyframes>
           </InterpolatingParam>
          </VectorParam>
          <VectorParam id="15053"  name="geometryCrop">
           <InterpolatingParam id="15054" interp="linr"  time="-9999999/1" value="0" leadInLength="0/1"  interpolater="leadin-linr"  />
           <InterpolatingParam id="15055" interp="linr"  time="-9999999/1" value="0" leadInLength="0/1"  interpolater="leadin-linr"  />
           <InterpolatingParam id="15056" interp="linr"  time="-9999999/1" value="0" leadInLength="0/1"  interpolater="leadin-linr"  />
           <InterpolatingParam id="15057" interp="linr"  time="-9999999/1" value="0" leadInLength="0/1"  interpolater="leadin-linr"  />
          </VectorParam>
          <InterpolatingParam id="15058" interp="linr"  time="-9999999/1" value="1" leadInLength="0/1"  interpolater="leadin-linr"  name="opacity"/>
          <InterpolatingParam id="15059" interp="linr"  time="0/1" value="1" leadInLength="0/1"  name="cursorOpacity"/>
          <InterpolatingParam id="15060" interp="linr"  time="0/1" value="1" leadInLength="0/1"  name="cursorScale"/>
          <Parameter id="15061"  name="captions"/>
         </Parameters>
         <Attributes>
          <Attribute id="15062" value="" name="ident"/>
         </Attributes>
         <MetaData>
          <entry key="WinSubProjectDisplayName" val=""/>
         </MetaData>
         <ExtraData>
          <Entry key="ZoomPanBin">
           <ZoomPanBin id="15063"  >
            <ZoomPanKeyframes>
             <ZoomPanKeyframe id="15064" timeRangeEnd="-9999999/1" timeRangeDuration="0/1" interpolaterName="linr"  />
            </ZoomPanKeyframes>
           </ZoomPanBin>
          </Entry>
          <Entry key="CursorEffectBin">
           <CursorEffectBin id="15065"  >
            <CursorEffectKeyframes>
            </CursorEffectKeyframes>
           </CursorEffectBin>
          </Entry>
         </ExtraData>
         <GenericTrack id="15066"  >
          <Attributes>
           <Attribute id="15067" value="" name="ident"/>
           <Attribute id="15068" value="0" name="audioMuted"/>
           <Attribute id="15069" value="0" name="videoHidden"/>
          </Attributes>
          <MetaData>
           <entry key="IsLocked" val="False"/>
           <entry key="WinTrackHeight" val="0"/>
          </MetaData>
          <Medias>
           <VMFile id="15070" start="0" duration="4131" scalar="1/1" mediaStart="0/1" mediaDuration="4131/1" trackNumber="0" src="4" >
            <Transformer>
             <VectorParam id="15071"  name="translation">
              <InterpolatingParam id="15072" interp="linr"  time="-9999999/1" value="0" leadInLength="0/1"  />
              <InterpolatingParam id="15073" interp="linr"  time="-9999999/1" value="0" leadInLength="0/1"  />
              <InterpolatingParam id="15074" interp="linr"  time="-9999999/1" value="0" leadInLength="0/1"  />
             </VectorParam>
             <VectorParam id="15075"  name="rotation">
              <InterpolatingParam id="15076" interp="linr"  time="-9999999/1" value="0" leadInLength="0/1"  />
              <InterpolatingParam id="15077" interp="linr"  time="-9999999/1" value="0" leadInLength="0/1"  />
              <InterpolatingParam id="15078" interp="linr"  time="-9999999/1" value="0" leadInLength="0/1"  />
             </VectorParam>
             <VectorParam id="15079"  name="shear">
              <InterpolatingParam id="15080" interp="linr"  time="-9999999/1" value="0" leadInLength="0/1"  />
              <InterpolatingParam id="15081" interp="linr"  time="-9999999/1" value="0" leadInLength="0/1"  />
              <InterpolatingParam id="15082" interp="linr"  time="-9999999/1" value="0" leadInLength="0/1"  />
             </VectorParam>
             <VectorParam id="15083"  name="scale">
              <InterpolatingParam id="15084" interp="linr"  time="-9999999/1" value="1" leadInLength="0/1"  />
              <InterpolatingParam id="15085" interp="linr"  time="-9999999/1" value="1" leadInLength="0/1"  />
              <InterpolatingParam id="15086" interp="linr"  time="-9999999/1" value="1" leadInLength="0/1"  />
             </VectorParam>
             <VectorParam id="15087"  name="anchor">
              <InterpolatingParam id="15088" interp="linr"  time="0/1" value="0" leadInLength="0/1"  />
              <InterpolatingParam id="15089" interp="linr"  time="0/1" value="0" leadInLength="0/1"  />
              <InterpolatingParam id="15090" interp="linr"  time="0/1" value="0" leadInLength="0/1"  />
             </VectorParam>
            </Transformer>
            <Parameters>
             <VectorParam id="15091"  name="sourceCrop">
              <InterpolatingParam id="15092" interp="linr"  time="0/1" value="0" leadInLength="0/1"  />
              <InterpolatingParam id="15093" interp="linr"  time="0/1" value="0" leadInLength="0/1"  />
              <InterpolatingParam id="15094" interp="linr"  time="0/1" value="0" leadInLength="0/1"  />
              <InterpolatingParam id="15095" interp="linr"  time="0/1" value="0" leadInLength="0/1"  />
             </VectorParam>
             <VectorParam id="15096"  name="geometryCrop">
              <InterpolatingParam id="15097" interp="linr"  time="-9999999/1" value="0" leadInLength="0/1"  />
              <InterpolatingParam id="15098" interp="linr"  time="-9999999/1" value="0" leadInLength="0/1"  />
              <InterpolatingParam id="15099" interp="linr"  time="-9999999/1" value="0" leadInLength="0/1"  />
              <InterpolatingParam id="15100" interp="linr"  time="-9999999/1" value="0" leadInLength="0/1"  />
             </VectorParam>
             <InterpolatingParam id="15101" interp="linr"  time="-9999999/1" value="1" leadInLength="0/1"  name="opacity"/>
            </Parameters>
            <Attributes>
             <Attribute id="15102" value="" name="ident"/>
            </Attributes>
            <MetaData>
             <entry key="WinSubProjectDisplayName" val=""/>
            </MetaData>
            <ExtraData>
             <Entry key="ZoomPanBin">
              <ZoomPanBin id="15103"  >
               <ZoomPanKeyframes>
                <ZoomPanKeyframe id="15104" timeRangeEnd="-9999999/1" timeRangeDuration="0/1" interpolaterName=""  />
               </ZoomPanKeyframes>
              </ZoomPanBin>
             </Entry>
            </ExtraData>
           </VMFile>
           <IMFile id="15105" start="4131" duration="12" scalar="1/1" mediaStart="4130/1" mediaDuration="1/1" trackNumber="0" src="4" trimStartSum="0/1" >
            <Transformer>
             <VectorParam id="15106"  name="translation">
              <InterpolatingParam id="15107" interp="linr"  time="-9999999/1" value="0" leadInLength="0/1"  />
              <InterpolatingParam id="15108" interp="linr"  time="-9999999/1" value="0" leadInLength="0/1"  />
              <InterpolatingParam id="15109" interp="linr"  time="-9999999/1" value="0" leadInLength="0/1"  />
             </VectorParam>
             <VectorParam id="15110"  name="rotation">
              <InterpolatingParam id="15111" interp="linr"  time="-9999999/1" value="0" leadInLength="0/1"  />
              <InterpolatingParam id="15112" interp="linr"  time="-9999999/1" value="0" leadInLength="0/1"  />
              <InterpolatingParam id="15113" interp="linr"  time="-9999999/1" value="0" leadInLength="0/1"  />
             </VectorParam>
             <VectorParam id="15114"  name="shear">
              <InterpolatingParam id="15115" interp="linr"  time="-9999999/1" value="0" leadInLength="0/1"  />
              <InterpolatingParam id="15116" interp="linr"  time="-9999999/1" value="0" leadInLength="0/1"  />
              <InterpolatingParam id="15117" interp="linr"  time="-9999999/1" value="0" leadInLength="0/1"  />
             </VectorParam>
             <VectorParam id="15118"  name="scale">
              <InterpolatingParam id="15119" interp="linr"  time="-9999999/1" value="1" leadInLength="0/1"  />
              <InterpolatingParam id="15120" interp="linr"  time="-9999999/1" value="1" leadInLength="0/1"  />
              <InterpolatingParam id="15121" interp="linr"  time="-9999999/1" value="1" leadInLength="0/1"  />
             </VectorParam>
             <VectorParam id="15122"  name="anchor">
              <InterpolatingParam id="15123" interp="linr"  time="0/1" value="0" leadInLength="0/1"  />
              <InterpolatingParam id="15124" interp="linr"  time="0/1" value="0" leadInLength="0/1"  />
              <InterpolatingParam id="15125" interp="linr"  time="0/1" value="0" leadInLength="0/1"  />
             </VectorParam>
            </Transformer>
            <Parameters>
             <VectorParam id="15126"  name="sourceCrop">
              <InterpolatingParam id="15127" interp="linr"  time="0/1" value="0" leadInLength="0/1"  />
              <InterpolatingParam id="15128" interp="linr"  time="0/1" value="0" leadInLength="0/1"  />
              <InterpolatingParam id="15129" interp="linr"  time="0/1" value="0" leadInLength="0/1"  />
              <InterpolatingParam id="15130" interp="linr"  time="0/1" value="0" leadInLength="0/1"  />
             </VectorParam>
             <VectorParam id="15131"  name="geometryCrop">
              <InterpolatingParam id="15132" interp="linr"  time="-9999999/1" value="0" leadInLength="0/1"  />
              <InterpolatingParam id="15133" interp="linr"  time="-9999999/1" value="0" leadInLength="0/1"  />
              <InterpolatingParam id="15134" interp="linr"  time="-9999999/1" value="0" leadInLength="0/1"  />
              <InterpolatingParam id="15135" interp="linr"  time="-9999999/1" value="0" leadInLength="0/1"  />
             </VectorParam>
             <InterpolatingParam id="15136" interp="linr"  time="-9999999/1" value="1" leadInLength="0/1"  name="opacity"/>
            </Parameters>
            <Attributes>
             <Attribute id="15137" value="" name="ident"/>
            </Attributes>
            <MetaData>
             <entry key="WinSubProjectDisplayName" val=""/>
            </MetaData>
            <ExtraData>
             <Entry key="ZoomPanBin">
              <ZoomPanBin id="15138"  >
               <ZoomPanKeyframes>
                <ZoomPanKeyframe id="15139" timeRangeEnd="-9999999/1" timeRangeDuration="0/1" interpolaterName=""  />
               </ZoomPanKeyframes>
              </ZoomPanBin>
             </Entry>
            </ExtraData>
           </IMFile>
           <VMFile id="15140" start="4143" duration="185" scalar="1/1" mediaStart="4130/1" mediaDuration="185/1" trackNumber="0" src="4" >
            <Transformer>
             <VectorParam id="15141"  name="translation">
              <InterpolatingParam id="15142" interp="linr"  time="-9999999/1" value="0" leadInLength="0/1"  />
              <InterpolatingParam id="15143" interp="linr"  time="-9999999/1" value="0" leadInLength="0/1"  />
              <InterpolatingParam id="15144" interp="linr"  time="-9999999/1" value="0" leadInLength="0/1"  />
             </VectorParam>
             <VectorParam id="15145"  name="rotation">
              <InterpolatingParam id="15146" interp="linr"  time="-9999999/1" value="0" leadInLength="0/1"  />
              <InterpolatingParam id="15147" interp="linr"  time="-9999999/1" value="0" leadInLength="0/1"  />
              <InterpolatingParam id="15148" interp="linr"  time="-9999999/1" value="0" leadInLength="0/1"  />
             </VectorParam>
             <VectorParam id="15149"  name="shear">
              <InterpolatingParam id="15150" interp="linr"  time="-9999999/1" value="0" leadInLength="0/1"  />
              <InterpolatingParam id="15151" interp="linr"  time="-9999999/1" value="0" leadInLength="0/1"  />
              <InterpolatingParam id="15152" interp="linr"  time="-9999999/1" value="0" leadInLength="0/1"  />
             </VectorParam>
             <VectorParam id="15153"  name="scale">
              <InterpolatingParam id="15154" interp="linr"  time="-9999999/1" value="1" leadInLength="0/1"  />
              <InterpolatingParam id="15155" interp="linr"  time="-9999999/1" value="1" leadInLength="0/1"  />
              <InterpolatingParam id="15156" interp="linr"  time="-9999999/1" value="1" leadInLength="0/1"  />
             </VectorParam>
             <VectorParam id="15157"  name="anchor">
              <InterpolatingParam id="15158" interp="linr"  time="0/1" value="0" leadInLength="0/1"  />
              <InterpolatingParam id="15159" interp="linr"  time="0/1" value="0" leadInLength="0/1"  />
              <InterpolatingParam id="15160" interp="linr"  time="0/1" value="0" leadInLength="0/1"  />
             </VectorParam>
            </Transformer>
            <Parameters>
             <VectorParam id="15161"  name="sourceCrop">
              <InterpolatingParam id="15162" interp="linr"  time="0/1" value="0" leadInLength="0/1"  />
              <InterpolatingParam id="15163" interp="linr"  time="0/1" value="0" leadInLength="0/1"  />
              <InterpolatingParam id="15164" interp="linr"  time="0/1" value="0" leadInLength="0/1"  />
              <InterpolatingParam id="15165" interp="linr"  time="0/1" value="0" leadInLength="0/1"  />
             </VectorParam>
             <VectorParam id="15166"  name="geometryCrop">
              <InterpolatingParam id="15167" interp="linr"  time="-9999999/1" value="0" leadInLength="0/1"  />
              <InterpolatingParam id="15168" interp="linr"  time="-9999999/1" value="0" leadInLength="0/1"  />
              <InterpolatingParam id="15169" interp="linr"  time="-9999999/1" value="0" leadInLength="0/1"  />
              <InterpolatingParam id="15170" interp="linr"  time="-9999999/1" value="0" leadInLength="0/1"  />
             </VectorParam>
             <InterpolatingParam id="15171" interp="linr"  time="-9999999/1" value="1" leadInLength="0/1"  name="opacity"/>
            </Parameters>
            <Attributes>
             <Attribute id="15172" value="" name="ident"/>
            </Attributes>
            <MetaData>
             <entry key="WinSubProjectDisplayName" val=""/>
            </MetaData>
            <ExtraData>
             <Entry key="ZoomPanBin">
              <ZoomPanBin id="15173"  >
               <ZoomPanKeyframes>
                <ZoomPanKeyframe id="15174" timeRangeEnd="-9999999/1" timeRangeDuration="0/1" interpolaterName=""  />
               </ZoomPanKeyframes>
              </ZoomPanBin>
             </Entry>
            </ExtraData>
           </VMFile>
           <IMFile id="15175" start="4328" duration="3" scalar="1/1" mediaStart="4315/1" mediaDuration="1/1" trackNumber="0" src="4" trimStartSum="0/1" >
            <Transformer>
             <VectorParam id="15176"  name="translation">
              <InterpolatingParam id="15177" interp="linr"  time="-9999999/1" value="0" leadInLength="0/1"  />
              <InterpolatingParam id="15178" interp="linr"  time="-9999999/1" value="0" leadInLength="0/1"  />
              <InterpolatingParam id="15179" interp="linr"  time="-9999999/1" value="0" leadInLength="0/1"  />
             </VectorParam>
             <VectorParam id="15180"  name="rotation">
              <InterpolatingParam id="15181" interp="linr"  time="-9999999/1" value="0" leadInLength="0/1"  />
              <InterpolatingParam id="15182" interp="linr"  time="-9999999/1" value="0" leadInLength="0/1"  />
              <InterpolatingParam id="15183" interp="linr"  time="-9999999/1" value="0" leadInLength="0/1"  />
             </VectorParam>
             <VectorParam id="15184"  name="shear">
              <InterpolatingParam id="15185" interp="linr"  time="-9999999/1" value="0" leadInLength="0/1"  />
              <InterpolatingParam id="15186" interp="linr"  time="-9999999/1" value="0" leadInLength="0/1"  />
              <InterpolatingParam id="15187" interp="linr"  time="-9999999/1" value="0" leadInLength="0/1"  />
             </VectorParam>
             <VectorParam id="15188"  name="scale">
              <InterpolatingParam id="15189" interp="linr"  time="-9999999/1" value="1" leadInLength="0/1"  />
              <InterpolatingParam id="15190" interp="linr"  time="-9999999/1" value="1" leadInLength="0/1"  />
              <InterpolatingParam id="15191" interp="linr"  time="-9999999/1" value="1" leadInLength="0/1"  />
             </VectorParam>
             <VectorParam id="15192"  name="anchor">
              <InterpolatingParam id="15193" interp="linr"  time="0/1" value="0" leadInLength="0/1"  />
              <InterpolatingParam id="15194" interp="linr"  time="0/1" value="0" leadInLength="0/1"  />
              <InterpolatingParam id="15195" interp="linr"  time="0/1" value="0" leadInLength="0/1"  />
             </VectorParam>
            </Transformer>
            <Parameters>
             <VectorParam id="15196"  name="sourceCrop">
              <InterpolatingParam id="15197" interp="linr"  time="0/1" value="0" leadInLength="0/1"  />
              <InterpolatingParam id="15198" interp="linr"  time="0/1" value="0" leadInLength="0/1"  />
              <InterpolatingParam id="15199" interp="linr"  time="0/1" value="0" leadInLength="0/1"  />
              <InterpolatingParam id="15200" interp="linr"  time="0/1" value="0" leadInLength="0/1"  />
             </VectorParam>
             <VectorParam id="15201"  name="geometryCrop">
              <InterpolatingParam id="15202" interp="linr"  time="-9999999/1" value="0" leadInLength="0/1"  />
              <InterpolatingParam id="15203" interp="linr"  time="-9999999/1" value="0" leadInLength="0/1"  />
              <InterpolatingParam id="15204" interp="linr"  time="-9999999/1" value="0" leadInLength="0/1"  />
              <InterpolatingParam id="15205" interp="linr"  time="-9999999/1" value="0" leadInLength="0/1"  />
             </VectorParam>
             <InterpolatingParam id="15206" interp="linr"  time="-9999999/1" value="1" leadInLength="0/1"  name="opacity"/>
            </Parameters>
            <Attributes>
             <Attribute id="15207" value="" name="ident"/>
            </Attributes>
            <MetaData>
             <entry key="WinSubProjectDisplayName" val=""/>
            </MetaData>
            <ExtraData>
             <Entry key="ZoomPanBin">
              <ZoomPanBin id="15208"  >
               <ZoomPanKeyframes>
                <ZoomPanKeyframe id="15209" timeRangeEnd="-9999999/1" timeRangeDuration="0/1" interpolaterName=""  />
               </ZoomPanKeyframes>
              </ZoomPanBin>
             </Entry>
            </ExtraData>
           </IMFile>
           <VMFile id="15210" start="4331" duration="31" scalar="1/1" mediaStart="4315/1" mediaDuration="31/1" trackNumber="0" src="4" >
            <Transformer>
             <VectorParam id="15211"  name="translation">
              <InterpolatingParam id="15212" interp="linr"  time="-9999999/1" value="0" leadInLength="0/1"  />
              <InterpolatingParam id="15213" interp="linr"  time="-9999999/1" value="0" leadInLength="0/1"  />
              <InterpolatingParam id="15214" interp="linr"  time="-9999999/1" value="0" leadInLength="0/1"  />
             </VectorParam>
             <VectorParam id="15215"  name="rotation">
              <InterpolatingParam id="15216" interp="linr"  time="-9999999/1" value="0" leadInLength="0/1"  />
              <InterpolatingParam id="15217" interp="linr"  time="-9999999/1" value="0" leadInLength="0/1"  />
              <InterpolatingParam id="15218" interp="linr"  time="-9999999/1" value="0" leadInLength="0/1"  />
             </VectorParam>
             <VectorParam id="15219"  name="shear">
              <InterpolatingParam id="15220" interp="linr"  time="-9999999/1" value="0" leadInLength="0/1"  />
              <InterpolatingParam id="15221" interp="linr"  time="-9999999/1" value="0" leadInLength="0/1"  />
              <InterpolatingParam id="15222" interp="linr"  time="-9999999/1" value="0" leadInLength="0/1"  />
             </VectorParam>
             <VectorParam id="15223"  name="scale">
              <InterpolatingParam id="15224" interp="linr"  time="-9999999/1" value="1" leadInLength="0/1"  />
              <InterpolatingParam id="15225" interp="linr"  time="-9999999/1" value="1" leadInLength="0/1"  />
              <InterpolatingParam id="15226" interp="linr"  time="-9999999/1" value="1" leadInLength="0/1"  />
             </VectorParam>
             <VectorParam id="15227"  name="anchor">
              <InterpolatingParam id="15228" interp="linr"  time="0/1" value="0" leadInLength="0/1"  />
              <InterpolatingParam id="15229" interp="linr"  time="0/1" value="0" leadInLength="0/1"  />
              <InterpolatingParam id="15230" interp="linr"  time="0/1" value="0" leadInLength="0/1"  />
             </VectorParam>
            </Transformer>
            <Parameters>
             <VectorParam id="15231"  name="sourceCrop">
              <InterpolatingParam id="15232" interp="linr"  time="0/1" value="0" leadInLength="0/1"  />
              <InterpolatingParam id="15233" interp="linr"  time="0/1" value="0" leadInLength="0/1"  />
              <InterpolatingParam id="15234" interp="linr"  time="0/1" value="0" leadInLength="0/1"  />
              <InterpolatingParam id="15235" interp="linr"  time="0/1" value="0" leadInLength="0/1"  />
             </VectorParam>
             <VectorParam id="15236"  name="geometryCrop">
              <InterpolatingParam id="15237" interp="linr"  time="-9999999/1" value="0" leadInLength="0/1"  />
              <InterpolatingParam id="15238" interp="linr"  time="-9999999/1" value="0" leadInLength="0/1"  />
              <InterpolatingParam id="15239" interp="linr"  time="-9999999/1" value="0" leadInLength="0/1"  />
              <InterpolatingParam id="15240" interp="linr"  time="-9999999/1" value="0" leadInLength="0/1"  />
             </VectorParam>
             <InterpolatingParam id="15241" interp="linr"  time="-9999999/1" value="1" leadInLength="0/1"  name="opacity"/>
            </Parameters>
            <Attributes>
             <Attribute id="15242" value="" name="ident"/>
            </Attributes>
            <MetaData>
             <entry key="WinSubProjectDisplayName" val=""/>
            </MetaData>
            <ExtraData>
             <Entry key="ZoomPanBin">
              <ZoomPanBin id="15243"  >
               <ZoomPanKeyframes>
                <ZoomPanKeyframe id="15244" timeRangeEnd="-9999999/1" timeRangeDuration="0/1" interpolaterName=""  />
               </ZoomPanKeyframes>
              </ZoomPanBin>
             </Entry>
            </ExtraData>
           </VMFile>
           <VMFile id="15245" start="4362" duration="95" scalar="1/1" mediaStart="4751/1" mediaDuration="95/1" trackNumber="0" src="4" >
            <Transformer>
             <VectorParam id="15246"  name="translation">
              <InterpolatingParam id="15247" interp="linr"  time="-9999999/1" value="0" leadInLength="0/1"  />
              <InterpolatingParam id="15248" interp="linr"  time="-9999999/1" value="0" leadInLength="0/1"  />
              <InterpolatingParam id="15249" interp="linr"  time="-9999999/1" value="0" leadInLength="0/1"  />
             </VectorParam>
             <VectorParam id="15250"  name="rotation">
              <InterpolatingParam id="15251" interp="linr"  time="-9999999/1" value="0" leadInLength="0/1"  />
              <InterpolatingParam id="15252" interp="linr"  time="-9999999/1" value="0" leadInLength="0/1"  />
              <InterpolatingParam id="15253" interp="linr"  time="-9999999/1" value="0" leadInLength="0/1"  />
             </VectorParam>
             <VectorParam id="15254"  name="shear">
              <InterpolatingParam id="15255" interp="linr"  time="-9999999/1" value="0" leadInLength="0/1"  />
              <InterpolatingParam id="15256" interp="linr"  time="-9999999/1" value="0" leadInLength="0/1"  />
              <InterpolatingParam id="15257" interp="linr"  time="-9999999/1" value="0" leadInLength="0/1"  />
             </VectorParam>
             <VectorParam id="15258"  name="scale">
              <InterpolatingParam id="15259" interp="linr"  time="-9999999/1" value="1" leadInLength="0/1"  />
              <InterpolatingParam id="15260" interp="linr"  time="-9999999/1" value="1" leadInLength="0/1"  />
              <InterpolatingParam id="15261" interp="linr"  time="-9999999/1" value="1" leadInLength="0/1"  />
             </VectorParam>
             <VectorParam id="15262"  name="anchor">
              <InterpolatingParam id="15263" interp="linr"  time="0/1" value="0" leadInLength="0/1"  />
              <InterpolatingParam id="15264" interp="linr"  time="0/1" value="0" leadInLength="0/1"  />
              <InterpolatingParam id="15265" interp="linr"  time="0/1" value="0" leadInLength="0/1"  />
             </VectorParam>
            </Transformer>
            <Parameters>
             <VectorParam id="15266"  name="sourceCrop">
              <InterpolatingParam id="15267" interp="linr"  time="0/1" value="0" leadInLength="0/1"  />
              <InterpolatingParam id="15268" interp="linr"  time="0/1" value="0" leadInLength="0/1"  />
              <InterpolatingParam id="15269" interp="linr"  time="0/1" value="0" leadInLength="0/1"  />
              <InterpolatingParam id="15270" interp="linr"  time="0/1" value="0" leadInLength="0/1"  />
             </VectorParam>
             <VectorParam id="15271"  name="geometryCrop">
              <InterpolatingParam id="15272" interp="linr"  time="-9999999/1" value="0" leadInLength="0/1"  />
              <InterpolatingParam id="15273" interp="linr"  time="-9999999/1" value="0" leadInLength="0/1"  />
              <InterpolatingParam id="15274" interp="linr"  time="-9999999/1" value="0" leadInLength="0/1"  />
              <InterpolatingParam id="15275" interp="linr"  time="-9999999/1" value="0" leadInLength="0/1"  />
             </VectorParam>
             <InterpolatingParam id="15276" interp="linr"  time="-9999999/1" value="1" leadInLength="0/1"  name="opacity"/>
            </Parameters>
            <Attributes>
             <Attribute id="15277" value="" name="ident"/>
            </Attributes>
            <MetaData>
             <entry key="WinSubProjectDisplayName" val=""/>
            </MetaData>
            <ExtraData>
             <Entry key="ZoomPanBin">
              <ZoomPanBin id="15278"  >
               <ZoomPanKeyframes>
                <ZoomPanKeyframe id="15279" timeRangeEnd="-9999999/1" timeRangeDuration="0/1" interpolaterName=""  />
               </ZoomPanKeyframes>
              </ZoomPanBin>
             </Entry>
            </ExtraData>
           </VMFile>
           <IMFile id="15280" start="4457" duration="270" scalar="1/1" mediaStart="4846/1" mediaDuration="1/1" trackNumber="0" src="4" trimStartSum="0/1" >
            <Transformer>
             <VectorParam id="15281"  name="translation">
              <InterpolatingParam id="15282" interp="linr"  time="-9999999/1" value="0" leadInLength="0/1"  />
              <InterpolatingParam id="15283" interp="linr"  time="-9999999/1" value="0" leadInLength="0/1"  />
              <InterpolatingParam id="15284" interp="linr"  time="-9999999/1" value="0" leadInLength="0/1"  />
             </VectorParam>
             <VectorParam id="15285"  name="rotation">
              <InterpolatingParam id="15286" interp="linr"  time="-9999999/1" value="0" leadInLength="0/1"  />
              <InterpolatingParam id="15287" interp="linr"  time="-9999999/1" value="0" leadInLength="0/1"  />
              <InterpolatingParam id="15288" interp="linr"  time="-9999999/1" value="0" leadInLength="0/1"  />
             </VectorParam>
             <VectorParam id="15289"  name="shear">
              <InterpolatingParam id="15290" interp="linr"  time="-9999999/1" value="0" leadInLength="0/1"  />
              <InterpolatingParam id="15291" interp="linr"  time="-9999999/1" value="0" leadInLength="0/1"  />
              <InterpolatingParam id="15292" interp="linr"  time="-9999999/1" value="0" leadInLength="0/1"  />
             </VectorParam>
             <VectorParam id="15293"  name="scale">
              <InterpolatingParam id="15294" interp="linr"  time="-9999999/1" value="1" leadInLength="0/1"  />
              <InterpolatingParam id="15295" interp="linr"  time="-9999999/1" value="1" leadInLength="0/1"  />
              <InterpolatingParam id="15296" interp="linr"  time="-9999999/1" value="1" leadInLength="0/1"  />
             </VectorParam>
             <VectorParam id="15297"  name="anchor">
              <InterpolatingParam id="15298" interp="linr"  time="0/1" value="0" leadInLength="0/1"  />
              <InterpolatingParam id="15299" interp="linr"  time="0/1" value="0" leadInLength="0/1"  />
              <InterpolatingParam id="15300" interp="linr"  time="0/1" value="0" leadInLength="0/1"  />
             </VectorParam>
            </Transformer>
            <Parameters>
             <VectorParam id="15301"  name="sourceCrop">
              <InterpolatingParam id="15302" interp="linr"  time="0/1" value="0" leadInLength="0/1"  />
              <InterpolatingParam id="15303" interp="linr"  time="0/1" value="0" leadInLength="0/1"  />
              <InterpolatingParam id="15304" interp="linr"  time="0/1" value="0" leadInLength="0/1"  />
              <InterpolatingParam id="15305" interp="linr"  time="0/1" value="0" leadInLength="0/1"  />
             </VectorParam>
             <VectorParam id="15306"  name="geometryCrop">
              <InterpolatingParam id="15307" interp="linr"  time="-9999999/1" value="0" leadInLength="0/1"  />
              <InterpolatingParam id="15308" interp="linr"  time="-9999999/1" value="0" leadInLength="0/1"  />
              <InterpolatingParam id="15309" interp="linr"  time="-9999999/1" value="0" leadInLength="0/1"  />
              <InterpolatingParam id="15310" interp="linr"  time="-9999999/1" value="0" leadInLength="0/1"  />
             </VectorParam>
             <InterpolatingParam id="15311" interp="linr"  time="-9999999/1" value="1" leadInLength="0/1"  name="opacity"/>
            </Parameters>
            <Attributes>
             <Attribute id="15312" value="" name="ident"/>
            </Attributes>
            <MetaData>
             <entry key="WinSubProjectDisplayName" val=""/>
            </MetaData>
            <ExtraData>
             <Entry key="ZoomPanBin">
              <ZoomPanBin id="15313"  >
               <ZoomPanKeyframes>
                <ZoomPanKeyframe id="15314" timeRangeEnd="-9999999/1" timeRangeDuration="0/1" interpolaterName=""  />
               </ZoomPanKeyframes>
              </ZoomPanBin>
             </Entry>
            </ExtraData>
           </IMFile>
           <VMFile id="15315" start="4727" duration="17" scalar="1/1" mediaStart="4846/1" mediaDuration="17/1" trackNumber="0" src="4" >
            <Transformer>
             <VectorParam id="15316"  name="translation">
              <InterpolatingParam id="15317" interp="linr"  time="-9999999/1" value="0" leadInLength="0/1"  />
              <InterpolatingParam id="15318" interp="linr"  time="-9999999/1" value="0" leadInLength="0/1"  />
              <InterpolatingParam id="15319" interp="linr"  time="-9999999/1" value="0" leadInLength="0/1"  />
             </VectorParam>
             <VectorParam id="15320"  name="rotation">
              <InterpolatingParam id="15321" interp="linr"  time="-9999999/1" value="0" leadInLength="0/1"  />
              <InterpolatingParam id="15322" interp="linr"  time="-9999999/1" value="0" leadInLength="0/1"  />
              <InterpolatingParam id="15323" interp="linr"  time="-9999999/1" value="0" leadInLength="0/1"  />
             </VectorParam>
             <VectorParam id="15324"  name="shear">
              <InterpolatingParam id="15325" interp="linr"  time="-9999999/1" value="0" leadInLength="0/1"  />
              <InterpolatingParam id="15326" interp="linr"  time="-9999999/1" value="0" leadInLength="0/1"  />
              <InterpolatingParam id="15327" interp="linr"  time="-9999999/1" value="0" leadInLength="0/1"  />
             </VectorParam>
             <VectorParam id="15328"  name="scale">
              <InterpolatingParam id="15329" interp="linr"  time="-9999999/1" value="1" leadInLength="0/1"  />
              <InterpolatingParam id="15330" interp="linr"  time="-9999999/1" value="1" leadInLength="0/1"  />
              <InterpolatingParam id="15331" interp="linr"  time="-9999999/1" value="1" leadInLength="0/1"  />
             </VectorParam>
             <VectorParam id="15332"  name="anchor">
              <InterpolatingParam id="15333" interp="linr"  time="0/1" value="0" leadInLength="0/1"  />
              <InterpolatingParam id="15334" interp="linr"  time="0/1" value="0" leadInLength="0/1"  />
              <InterpolatingParam id="15335" interp="linr"  time="0/1" value="0" leadInLength="0/1"  />
             </VectorParam>
            </Transformer>
            <Parameters>
             <VectorParam id="15336"  name="sourceCrop">
              <InterpolatingParam id="15337" interp="linr"  time="0/1" value="0" leadInLength="0/1"  />
              <InterpolatingParam id="15338" interp="linr"  time="0/1" value="0" leadInLength="0/1"  />
              <InterpolatingParam id="15339" interp="linr"  time="0/1" value="0" leadInLength="0/1"  />
              <InterpolatingParam id="15340" interp="linr"  time="0/1" value="0" leadInLength="0/1"  />
             </VectorParam>
             <VectorParam id="15341"  name="geometryCrop">
              <InterpolatingParam id="15342" interp="linr"  time="-9999999/1" value="0" leadInLength="0/1"  />
              <InterpolatingParam id="15343" interp="linr"  time="-9999999/1" value="0" leadInLength="0/1"  />
              <InterpolatingParam id="15344" interp="linr"  time="-9999999/1" value="0" leadInLength="0/1"  />
              <InterpolatingParam id="15345" interp="linr"  time="-9999999/1" value="0" leadInLength="0/1"  />
             </VectorParam>
             <InterpolatingParam id="15346" interp="linr"  time="-9999999/1" value="1" leadInLength="0/1"  name="opacity"/>
            </Parameters>
            <Attributes>
             <Attribute id="15347" value="" name="ident"/>
            </Attributes>
            <MetaData>
             <entry key="WinSubProjectDisplayName" val=""/>
            </MetaData>
            <ExtraData>
             <Entry key="ZoomPanBin">
              <ZoomPanBin id="15348"  >
               <ZoomPanKeyframes>
                <ZoomPanKeyframe id="15349" timeRangeEnd="-9999999/1" timeRangeDuration="0/1" interpolaterName=""  />
               </ZoomPanKeyframes>
              </ZoomPanBin>
             </Entry>
            </ExtraData>
           </VMFile>
           <VMFile id="15350" start="4744" duration="386" scalar="1/1" mediaStart="7805/1" mediaDuration="386/1" trackNumber="0" src="4" >
            <Transformer>
             <VectorParam id="15351"  name="translation">
              <InterpolatingParam id="15352" interp="linr"  time="-9999999/1" value="0" leadInLength="0/1"  />
              <InterpolatingParam id="15353" interp="linr"  time="-9999999/1" value="0" leadInLength="0/1"  />
              <InterpolatingParam id="15354" interp="linr"  time="-9999999/1" value="0" leadInLength="0/1"  />
             </VectorParam>
             <VectorParam id="15355"  name="rotation">
              <InterpolatingParam id="15356" interp="linr"  time="-9999999/1" value="0" leadInLength="0/1"  />
              <InterpolatingParam id="15357" interp="linr"  time="-9999999/1" value="0" leadInLength="0/1"  />
              <InterpolatingParam id="15358" interp="linr"  time="-9999999/1" value="0" leadInLength="0/1"  />
             </VectorParam>
             <VectorParam id="15359"  name="shear">
              <InterpolatingParam id="15360" interp="linr"  time="-9999999/1" value="0" leadInLength="0/1"  />
              <InterpolatingParam id="15361" interp="linr"  time="-9999999/1" value="0" leadInLength="0/1"  />
              <InterpolatingParam id="15362" interp="linr"  time="-9999999/1" value="0" leadInLength="0/1"  />
             </VectorParam>
             <VectorParam id="15363"  name="scale">
              <InterpolatingParam id="15364" interp="linr"  time="-9999999/1" value="1" leadInLength="0/1"  />
              <InterpolatingParam id="15365" interp="linr"  time="-9999999/1" value="1" leadInLength="0/1"  />
              <InterpolatingParam id="15366" interp="linr"  time="-9999999/1" value="1" leadInLength="0/1"  />
             </VectorParam>
             <VectorParam id="15367"  name="anchor">
              <InterpolatingParam id="15368" interp="linr"  time="0/1" value="0" leadInLength="0/1"  />
              <InterpolatingParam id="15369" interp="linr"  time="0/1" value="0" leadInLength="0/1"  />
              <InterpolatingParam id="15370" interp="linr"  time="0/1" value="0" leadInLength="0/1"  />
             </VectorParam>
            </Transformer>
            <Parameters>
             <VectorParam id="15371"  name="sourceCrop">
              <InterpolatingParam id="15372" interp="linr"  time="0/1" value="0" leadInLength="0/1"  />
              <InterpolatingParam id="15373" interp="linr"  time="0/1" value="0" leadInLength="0/1"  />
              <InterpolatingParam id="15374" interp="linr"  time="0/1" value="0" leadInLength="0/1"  />
              <InterpolatingParam id="15375" interp="linr"  time="0/1" value="0" leadInLength="0/1"  />
             </VectorParam>
             <VectorParam id="15376"  name="geometryCrop">
              <InterpolatingParam id="15377" interp="linr"  time="-9999999/1" value="0" leadInLength="0/1"  />
              <InterpolatingParam id="15378" interp="linr"  time="-9999999/1" value="0" leadInLength="0/1"  />
              <InterpolatingParam id="15379" interp="linr"  time="-9999999/1" value="0" leadInLength="0/1"  />
              <InterpolatingParam id="15380" interp="linr"  time="-9999999/1" value="0" leadInLength="0/1"  />
             </VectorParam>
             <InterpolatingParam id="15381" interp="linr"  time="-9999999/1" value="1" leadInLength="0/1"  name="opacity"/>
            </Parameters>
            <Attributes>
             <Attribute id="15382" value="" name="ident"/>
            </Attributes>
            <MetaData>
             <entry key="WinSubProjectDisplayName" val=""/>
            </MetaData>
            <ExtraData>
             <Entry key="ZoomPanBin">
              <ZoomPanBin id="15383"  >
               <ZoomPanKeyframes>
                <ZoomPanKeyframe id="15384" timeRangeEnd="-9999999/1" timeRangeDuration="0/1" interpolaterName=""  />
               </ZoomPanKeyframes>
              </ZoomPanBin>
             </Entry>
            </ExtraData>
           </VMFile>
           <VMFile id="15385" start="5130" duration="922" scalar="1/1" mediaStart="8371/1" mediaDuration="922/1" trackNumber="0" src="4" >
            <Transformer>
             <VectorParam id="15386"  name="translation">
              <InterpolatingParam id="15387" interp="linr"  time="-9999999/1" value="0" leadInLength="0/1"  />
              <InterpolatingParam id="15388" interp="linr"  time="-9999999/1" value="0" leadInLength="0/1"  />
              <InterpolatingParam id="15389" interp="linr"  time="-9999999/1" value="0" leadInLength="0/1"  />
             </VectorParam>
             <VectorParam id="15390"  name="rotation">
              <InterpolatingParam id="15391" interp="linr"  time="-9999999/1" value="0" leadInLength="0/1"  />
              <InterpolatingParam id="15392" interp="linr"  time="-9999999/1" value="0" leadInLength="0/1"  />
              <InterpolatingParam id="15393" interp="linr"  time="-9999999/1" value="0" leadInLength="0/1"  />
             </VectorParam>
             <VectorParam id="15394"  name="shear">
              <InterpolatingParam id="15395" interp="linr"  time="-9999999/1" value="0" leadInLength="0/1"  />
              <InterpolatingParam id="15396" interp="linr"  time="-9999999/1" value="0" leadInLength="0/1"  />
              <InterpolatingParam id="15397" interp="linr"  time="-9999999/1" value="0" leadInLength="0/1"  />
             </VectorParam>
             <VectorParam id="15398"  name="scale">
              <InterpolatingParam id="15399" interp="linr"  time="-9999999/1" value="1" leadInLength="0/1"  />
              <InterpolatingParam id="15400" interp="linr"  time="-9999999/1" value="1" leadInLength="0/1"  />
              <InterpolatingParam id="15401" interp="linr"  time="-9999999/1" value="1" leadInLength="0/1"  />
             </VectorParam>
             <VectorParam id="15402"  name="anchor">
              <InterpolatingParam id="15403" interp="linr"  time="0/1" value="0" leadInLength="0/1"  />
              <InterpolatingParam id="15404" interp="linr"  time="0/1" value="0" leadInLength="0/1"  />
              <InterpolatingParam id="15405" interp="linr"  time="0/1" value="0" leadInLength="0/1"  />
             </VectorParam>
            </Transformer>
            <Parameters>
             <VectorParam id="15406"  name="sourceCrop">
              <InterpolatingParam id="15407" interp="linr"  time="0/1" value="0" leadInLength="0/1"  />
              <InterpolatingParam id="15408" interp="linr"  time="0/1" value="0" leadInLength="0/1"  />
              <InterpolatingParam id="15409" interp="linr"  time="0/1" value="0" leadInLength="0/1"  />
              <InterpolatingParam id="15410" interp="linr"  time="0/1" value="0" leadInLength="0/1"  />
             </VectorParam>
             <VectorParam id="15411"  name="geometryCrop">
              <InterpolatingParam id="15412" interp="linr"  time="-9999999/1" value="0" leadInLength="0/1"  />
              <InterpolatingParam id="15413" interp="linr"  time="-9999999/1" value="0" leadInLength="0/1"  />
              <InterpolatingParam id="15414" interp="linr"  time="-9999999/1" value="0" leadInLength="0/1"  />
              <InterpolatingParam id="15415" interp="linr"  time="-9999999/1" value="0" leadInLength="0/1"  />
             </VectorParam>
             <InterpolatingParam id="15416" interp="linr"  time="-9999999/1" value="1" leadInLength="0/1"  name="opacity"/>
            </Parameters>
            <Attributes>
             <Attribute id="15417" value="" name="ident"/>
            </Attributes>
            <MetaData>
             <entry key="WinSubProjectDisplayName" val=""/>
            </MetaData>
            <ExtraData>
             <Entry key="ZoomPanBin">
              <ZoomPanBin id="15418"  >
               <ZoomPanKeyframes>
                <ZoomPanKeyframe id="15419" timeRangeEnd="-9999999/1" timeRangeDuration="0/1" interpolaterName=""  />
               </ZoomPanKeyframes>
              </ZoomPanBin>
             </Entry>
            </ExtraData>
           </VMFile>
           <IMFile id="15420" start="6052" duration="30" scalar="1/1" mediaStart="9292/1" mediaDuration="1/1" trackNumber="0" src="4" trimStartSum="0/1" >
            <Transformer>
             <VectorParam id="15421"  name="translation">
              <InterpolatingParam id="15422" interp="linr"  time="-9999999/1" value="0" leadInLength="0/1"  />
              <InterpolatingParam id="15423" interp="linr"  time="-9999999/1" value="0" leadInLength="0/1"  />
              <InterpolatingParam id="15424" interp="linr"  time="-9999999/1" value="0" leadInLength="0/1"  />
             </VectorParam>
             <VectorParam id="15425"  name="rotation">
              <InterpolatingParam id="15426" interp="linr"  time="-9999999/1" value="0" leadInLength="0/1"  />
              <InterpolatingParam id="15427" interp="linr"  time="-9999999/1" value="0" leadInLength="0/1"  />
              <InterpolatingParam id="15428" interp="linr"  time="-9999999/1" value="0" leadInLength="0/1"  />
             </VectorParam>
             <VectorParam id="15429"  name="shear">
              <InterpolatingParam id="15430" interp="linr"  time="-9999999/1" value="0" leadInLength="0/1"  />
              <InterpolatingParam id="15431" interp="linr"  time="-9999999/1" value="0" leadInLength="0/1"  />
              <InterpolatingParam id="15432" interp="linr"  time="-9999999/1" value="0" leadInLength="0/1"  />
             </VectorParam>
             <VectorParam id="15433"  name="scale">
              <InterpolatingParam id="15434" interp="linr"  time="-9999999/1" value="1" leadInLength="0/1"  />
              <InterpolatingParam id="15435" interp="linr"  time="-9999999/1" value="1" leadInLength="0/1"  />
              <InterpolatingParam id="15436" interp="linr"  time="-9999999/1" value="1" leadInLength="0/1"  />
             </VectorParam>
             <VectorParam id="15437"  name="anchor">
              <InterpolatingParam id="15438" interp="linr"  time="0/1" value="0" leadInLength="0/1"  />
              <InterpolatingParam id="15439" interp="linr"  time="0/1" value="0" leadInLength="0/1"  />
              <InterpolatingParam id="15440" interp="linr"  time="0/1" value="0" leadInLength="0/1"  />
             </VectorParam>
            </Transformer>
            <Parameters>
             <VectorParam id="15441"  name="sourceCrop">
              <InterpolatingParam id="15442" interp="linr"  time="0/1" value="0" leadInLength="0/1"  />
              <InterpolatingParam id="15443" interp="linr"  time="0/1" value="0" leadInLength="0/1"  />
              <InterpolatingParam id="15444" interp="linr"  time="0/1" value="0" leadInLength="0/1"  />
              <InterpolatingParam id="15445" interp="linr"  time="0/1" value="0" leadInLength="0/1"  />
             </VectorParam>
             <VectorParam id="15446"  name="geometryCrop">
              <InterpolatingParam id="15447" interp="linr"  time="-9999999/1" value="0" leadInLength="0/1"  />
              <InterpolatingParam id="15448" interp="linr"  time="-9999999/1" value="0" leadInLength="0/1"  />
              <InterpolatingParam id="15449" interp="linr"  time="-9999999/1" value="0" leadInLength="0/1"  />
              <InterpolatingParam id="15450" interp="linr"  time="-9999999/1" value="0" leadInLength="0/1"  />
             </VectorParam>
             <InterpolatingParam id="15451" interp="linr"  time="-9999999/1" value="1" leadInLength="0/1"  name="opacity"/>
            </Parameters>
            <Attributes>
             <Attribute id="15452" value="" name="ident"/>
            </Attributes>
            <MetaData>
             <entry key="WinSubProjectDisplayName" val=""/>
            </MetaData>
            <ExtraData>
             <Entry key="ZoomPanBin">
              <ZoomPanBin id="15453"  >
               <ZoomPanKeyframes>
                <ZoomPanKeyframe id="15454" timeRangeEnd="-9999999/1" timeRangeDuration="0/1" interpolaterName=""  />
               </ZoomPanKeyframes>
              </ZoomPanBin>
             </Entry>
            </ExtraData>
           </IMFile>
           <VMFile id="15455" start="6082" duration="86" scalar="1/1" mediaStart="9292/1" mediaDuration="86/1" trackNumber="0" src="4" >
            <Transformer>
             <VectorParam id="15456"  name="translation">
              <InterpolatingParam id="15457" interp="linr"  time="-9999999/1" value="0" leadInLength="0/1"  />
              <InterpolatingParam id="15458" interp="linr"  time="-9999999/1" value="0" leadInLength="0/1"  />
              <InterpolatingParam id="15459" interp="linr"  time="-9999999/1" value="0" leadInLength="0/1"  />
             </VectorParam>
             <VectorParam id="15460"  name="rotation">
              <InterpolatingParam id="15461" interp="linr"  time="-9999999/1" value="0" leadInLength="0/1"  />
              <InterpolatingParam id="15462" interp="linr"  time="-9999999/1" value="0" leadInLength="0/1"  />
              <InterpolatingParam id="15463" interp="linr"  time="-9999999/1" value="0" leadInLength="0/1"  />
             </VectorParam>
             <VectorParam id="15464"  name="shear">
              <InterpolatingParam id="15465" interp="linr"  time="-9999999/1" value="0" leadInLength="0/1"  />
              <InterpolatingParam id="15466" interp="linr"  time="-9999999/1" value="0" leadInLength="0/1"  />
              <InterpolatingParam id="15467" interp="linr"  time="-9999999/1" value="0" leadInLength="0/1"  />
             </VectorParam>
             <VectorParam id="15468"  name="scale">
              <InterpolatingParam id="15469" interp="linr"  time="-9999999/1" value="1" leadInLength="0/1"  />
              <InterpolatingParam id="15470" interp="linr"  time="-9999999/1" value="1" leadInLength="0/1"  />
              <InterpolatingParam id="15471" interp="linr"  time="-9999999/1" value="1" leadInLength="0/1"  />
             </VectorParam>
             <VectorParam id="15472"  name="anchor">
              <InterpolatingParam id="15473" interp="linr"  time="0/1" value="0" leadInLength="0/1"  />
              <InterpolatingParam id="15474" interp="linr"  time="0/1" value="0" leadInLength="0/1"  />
              <InterpolatingParam id="15475" interp="linr"  time="0/1" value="0" leadInLength="0/1"  />
             </VectorParam>
            </Transformer>
            <Parameters>
             <VectorParam id="15476"  name="sourceCrop">
              <InterpolatingParam id="15477" interp="linr"  time="0/1" value="0" leadInLength="0/1"  />
              <InterpolatingParam id="15478" interp="linr"  time="0/1" value="0" leadInLength="0/1"  />
              <InterpolatingParam id="15479" interp="linr"  time="0/1" value="0" leadInLength="0/1"  />
              <InterpolatingParam id="15480" interp="linr"  time="0/1" value="0" leadInLength="0/1"  />
             </VectorParam>
             <VectorParam id="15481"  name="geometryCrop">
              <InterpolatingParam id="15482" interp="linr"  time="-9999999/1" value="0" leadInLength="0/1"  />
              <InterpolatingParam id="15483" interp="linr"  time="-9999999/1" value="0" leadInLength="0/1"  />
              <InterpolatingParam id="15484" interp="linr"  time="-9999999/1" value="0" leadInLength="0/1"  />
              <InterpolatingParam id="15485" interp="linr"  time="-9999999/1" value="0" leadInLength="0/1"  />
             </VectorParam>
             <InterpolatingParam id="15486" interp="linr"  time="-9999999/1" value="1" leadInLength="0/1"  name="opacity"/>
            </Parameters>
            <Attributes>
             <Attribute id="15487" value="" name="ident"/>
            </Attributes>
            <MetaData>
             <entry key="WinSubProjectDisplayName" val=""/>
            </MetaData>
            <ExtraData>
             <Entry key="ZoomPanBin">
              <ZoomPanBin id="15488"  >
               <ZoomPanKeyframes>
                <ZoomPanKeyframe id="15489" timeRangeEnd="-9999999/1" timeRangeDuration="0/1" interpolaterName=""  />
               </ZoomPanKeyframes>
              </ZoomPanBin>
             </Entry>
            </ExtraData>
           </VMFile>
           <VMFile id="15490" start="6168" duration="555" scalar="1/1" mediaStart="9516/1" mediaDuration="555/1" trackNumber="0" src="4" >
            <Transformer>
             <VectorParam id="15491"  name="translation">
              <InterpolatingParam id="15492" interp="linr"  time="-9999999/1" value="0" leadInLength="0/1"  />
              <InterpolatingParam id="15493" interp="linr"  time="-9999999/1" value="0" leadInLength="0/1"  />
              <InterpolatingParam id="15494" interp="linr"  time="-9999999/1" value="0" leadInLength="0/1"  />
             </VectorParam>
             <VectorParam id="15495"  name="rotation">
              <InterpolatingParam id="15496" interp="linr"  time="-9999999/1" value="0" leadInLength="0/1"  />
              <InterpolatingParam id="15497" interp="linr"  time="-9999999/1" value="0" leadInLength="0/1"  />
              <InterpolatingParam id="15498" interp="linr"  time="-9999999/1" value="0" leadInLength="0/1"  />
             </VectorParam>
             <VectorParam id="15499"  name="shear">
              <InterpolatingParam id="15500" interp="linr"  time="-9999999/1" value="0" leadInLength="0/1"  />
              <InterpolatingParam id="15501" interp="linr"  time="-9999999/1" value="0" leadInLength="0/1"  />
              <InterpolatingParam id="15502" interp="linr"  time="-9999999/1" value="0" leadInLength="0/1"  />
             </VectorParam>
             <VectorParam id="15503"  name="scale">
              <InterpolatingParam id="15504" interp="linr"  time="-9999999/1" value="1" leadInLength="0/1"  />
              <InterpolatingParam id="15505" interp="linr"  time="-9999999/1" value="1" leadInLength="0/1"  />
              <InterpolatingParam id="15506" interp="linr"  time="-9999999/1" value="1" leadInLength="0/1"  />
             </VectorParam>
             <VectorParam id="15507"  name="anchor">
              <InterpolatingParam id="15508" interp="linr"  time="0/1" value="0" leadInLength="0/1"  />
              <InterpolatingParam id="15509" interp="linr"  time="0/1" value="0" leadInLength="0/1"  />
              <InterpolatingParam id="15510" interp="linr"  time="0/1" value="0" leadInLength="0/1"  />
             </VectorParam>
            </Transformer>
            <Parameters>
             <VectorParam id="15511"  name="sourceCrop">
              <InterpolatingParam id="15512" interp="linr"  time="0/1" value="0" leadInLength="0/1"  />
              <InterpolatingParam id="15513" interp="linr"  time="0/1" value="0" leadInLength="0/1"  />
              <InterpolatingParam id="15514" interp="linr"  time="0/1" value="0" leadInLength="0/1"  />
              <InterpolatingParam id="15515" interp="linr"  time="0/1" value="0" leadInLength="0/1"  />
             </VectorParam>
             <VectorParam id="15516"  name="geometryCrop">
              <InterpolatingParam id="15517" interp="linr"  time="-9999999/1" value="0" leadInLength="0/1"  />
              <InterpolatingParam id="15518" interp="linr"  time="-9999999/1" value="0" leadInLength="0/1"  />
              <InterpolatingParam id="15519" interp="linr"  time="-9999999/1" value="0" leadInLength="0/1"  />
              <InterpolatingParam id="15520" interp="linr"  time="-9999999/1" value="0" leadInLength="0/1"  />
             </VectorParam>
             <InterpolatingParam id="15521" interp="linr"  time="-9999999/1" value="1" leadInLength="0/1"  name="opacity"/>
            </Parameters>
            <Attributes>
             <Attribute id="15522" value="" name="ident"/>
            </Attributes>
            <MetaData>
             <entry key="WinSubProjectDisplayName" val=""/>
            </MetaData>
            <ExtraData>
             <Entry key="ZoomPanBin">
              <ZoomPanBin id="15523"  >
               <ZoomPanKeyframes>
                <ZoomPanKeyframe id="15524" timeRangeEnd="-9999999/1" timeRangeDuration="0/1" interpolaterName=""  />
               </ZoomPanKeyframes>
              </ZoomPanBin>
             </Entry>
            </ExtraData>
           </VMFile>
           <VMFile id="15525" start="6723" duration="460" scalar="1/1" mediaStart="11597/1" mediaDuration="460/1" trackNumber="0" src="4" >
            <Transformer>
             <VectorParam id="15526"  name="translation">
              <InterpolatingParam id="15527" interp="linr"  time="-9999999/1" value="0" leadInLength="0/1"  />
              <InterpolatingParam id="15528" interp="linr"  time="-9999999/1" value="0" leadInLength="0/1"  />
              <InterpolatingParam id="15529" interp="linr"  time="-9999999/1" value="0" leadInLength="0/1"  />
             </VectorParam>
             <VectorParam id="15530"  name="rotation">
              <InterpolatingParam id="15531" interp="linr"  time="-9999999/1" value="0" leadInLength="0/1"  />
              <InterpolatingParam id="15532" interp="linr"  time="-9999999/1" value="0" leadInLength="0/1"  />
              <InterpolatingParam id="15533" interp="linr"  time="-9999999/1" value="0" leadInLength="0/1"  />
             </VectorParam>
             <VectorParam id="15534"  name="shear">
              <InterpolatingParam id="15535" interp="linr"  time="-9999999/1" value="0" leadInLength="0/1"  />
              <InterpolatingParam id="15536" interp="linr"  time="-9999999/1" value="0" leadInLength="0/1"  />
              <InterpolatingParam id="15537" interp="linr"  time="-9999999/1" value="0" leadInLength="0/1"  />
             </VectorParam>
             <VectorParam id="15538"  name="scale">
              <InterpolatingParam id="15539" interp="linr"  time="-9999999/1" value="1" leadInLength="0/1"  />
              <InterpolatingParam id="15540" interp="linr"  time="-9999999/1" value="1" leadInLength="0/1"  />
              <InterpolatingParam id="15541" interp="linr"  time="-9999999/1" value="1" leadInLength="0/1"  />
             </VectorParam>
             <VectorParam id="15542"  name="anchor">
              <InterpolatingParam id="15543" interp="linr"  time="0/1" value="0" leadInLength="0/1"  />
              <InterpolatingParam id="15544" interp="linr"  time="0/1" value="0" leadInLength="0/1"  />
              <InterpolatingParam id="15545" interp="linr"  time="0/1" value="0" leadInLength="0/1"  />
             </VectorParam>
            </Transformer>
            <Parameters>
             <VectorParam id="15546"  name="sourceCrop">
              <InterpolatingParam id="15547" interp="linr"  time="0/1" value="0" leadInLength="0/1"  />
              <InterpolatingParam id="15548" interp="linr"  time="0/1" value="0" leadInLength="0/1"  />
              <InterpolatingParam id="15549" interp="linr"  time="0/1" value="0" leadInLength="0/1"  />
              <InterpolatingParam id="15550" interp="linr"  time="0/1" value="0" leadInLength="0/1"  />
             </VectorParam>
             <VectorParam id="15551"  name="geometryCrop">
              <InterpolatingParam id="15552" interp="linr"  time="-9999999/1" value="0" leadInLength="0/1"  />
              <InterpolatingParam id="15553" interp="linr"  time="-9999999/1" value="0" leadInLength="0/1"  />
              <InterpolatingParam id="15554" interp="linr"  time="-9999999/1" value="0" leadInLength="0/1"  />
              <InterpolatingParam id="15555" interp="linr"  time="-9999999/1" value="0" leadInLength="0/1"  />
             </VectorParam>
             <InterpolatingParam id="15556" interp="linr"  time="-9999999/1" value="1" leadInLength="0/1"  name="opacity"/>
            </Parameters>
            <Attributes>
             <Attribute id="15557" value="" name="ident"/>
            </Attributes>
            <MetaData>
             <entry key="WinSubProjectDisplayName" val=""/>
            </MetaData>
            <ExtraData>
             <Entry key="ZoomPanBin">
              <ZoomPanBin id="15558"  >
               <ZoomPanKeyframes>
                <ZoomPanKeyframe id="15559" timeRangeEnd="-9999999/1" timeRangeDuration="0/1" interpolaterName=""  />
               </ZoomPanKeyframes>
              </ZoomPanBin>
             </Entry>
            </ExtraData>
           </VMFile>
           <VMFile id="15560" start="7183" duration="350" scalar="1/1" mediaStart="12237/1" mediaDuration="350/1" trackNumber="0" src="4" >
            <Transformer>
             <VectorParam id="15561"  name="translation">
              <InterpolatingParam id="15562" interp="linr"  time="-9999999/1" value="0" leadInLength="0/1"  />
              <InterpolatingParam id="15563" interp="linr"  time="-9999999/1" value="0" leadInLength="0/1"  />
              <InterpolatingParam id="15564" interp="linr"  time="-9999999/1" value="0" leadInLength="0/1"  />
             </VectorParam>
             <VectorParam id="15565"  name="rotation">
              <InterpolatingParam id="15566" interp="linr"  time="-9999999/1" value="0" leadInLength="0/1"  />
              <InterpolatingParam id="15567" interp="linr"  time="-9999999/1" value="0" leadInLength="0/1"  />
              <InterpolatingParam id="15568" interp="linr"  time="-9999999/1" value="0" leadInLength="0/1"  />
             </VectorParam>
             <VectorParam id="15569"  name="shear">
              <InterpolatingParam id="15570" interp="linr"  time="-9999999/1" value="0" leadInLength="0/1"  />
              <InterpolatingParam id="15571" interp="linr"  time="-9999999/1" value="0" leadInLength="0/1"  />
              <InterpolatingParam id="15572" interp="linr"  time="-9999999/1" value="0" leadInLength="0/1"  />
             </VectorParam>
             <VectorParam id="15573"  name="scale">
              <InterpolatingParam id="15574" interp="linr"  time="-9999999/1" value="1" leadInLength="0/1"  />
              <InterpolatingParam id="15575" interp="linr"  time="-9999999/1" value="1" leadInLength="0/1"  />
              <InterpolatingParam id="15576" interp="linr"  time="-9999999/1" value="1" leadInLength="0/1"  />
             </VectorParam>
             <VectorParam id="15577"  name="anchor">
              <InterpolatingParam id="15578" interp="linr"  time="0/1" value="0" leadInLength="0/1"  />
              <InterpolatingParam id="15579" interp="linr"  time="0/1" value="0" leadInLength="0/1"  />
              <InterpolatingParam id="15580" interp="linr"  time="0/1" value="0" leadInLength="0/1"  />
             </VectorParam>
            </Transformer>
            <Parameters>
             <VectorParam id="15581"  name="sourceCrop">
              <InterpolatingParam id="15582" interp="linr"  time="0/1" value="0" leadInLength="0/1"  />
              <InterpolatingParam id="15583" interp="linr"  time="0/1" value="0" leadInLength="0/1"  />
              <InterpolatingParam id="15584" interp="linr"  time="0/1" value="0" leadInLength="0/1"  />
              <InterpolatingParam id="15585" interp="linr"  time="0/1" value="0" leadInLength="0/1"  />
             </VectorParam>
             <VectorParam id="15586"  name="geometryCrop">
              <InterpolatingParam id="15587" interp="linr"  time="-9999999/1" value="0" leadInLength="0/1"  />
              <InterpolatingParam id="15588" interp="linr"  time="-9999999/1" value="0" leadInLength="0/1"  />
              <InterpolatingParam id="15589" interp="linr"  time="-9999999/1" value="0" leadInLength="0/1"  />
              <InterpolatingParam id="15590" interp="linr"  time="-9999999/1" value="0" leadInLength="0/1"  />
             </VectorParam>
             <InterpolatingParam id="15591" interp="linr"  time="-9999999/1" value="1" leadInLength="0/1"  name="opacity"/>
            </Parameters>
            <Attributes>
             <Attribute id="15592" value="" name="ident"/>
            </Attributes>
            <MetaData>
             <entry key="WinSubProjectDisplayName" val=""/>
            </MetaData>
            <ExtraData>
             <Entry key="ZoomPanBin">
              <ZoomPanBin id="15593"  >
               <ZoomPanKeyframes>
                <ZoomPanKeyframe id="15594" timeRangeEnd="-9999999/1" timeRangeDuration="0/1" interpolaterName=""  />
               </ZoomPanKeyframes>
              </ZoomPanBin>
             </Entry>
            </ExtraData>
           </VMFile>
           <VMFile id="15595" start="7533" duration="128" scalar="1/1" mediaStart="15765/1" mediaDuration="128/1" trackNumber="0" src="4" >
            <Transformer>
             <VectorParam id="15596"  name="translation">
              <InterpolatingParam id="15597" interp="linr"  time="-9999999/1" value="0" leadInLength="0/1"  />
              <InterpolatingParam id="15598" interp="linr"  time="-9999999/1" value="0" leadInLength="0/1"  />
              <InterpolatingParam id="15599" interp="linr"  time="-9999999/1" value="0" leadInLength="0/1"  />
             </VectorParam>
             <VectorParam id="15600"  name="rotation">
              <InterpolatingParam id="15601" interp="linr"  time="-9999999/1" value="0" leadInLength="0/1"  />
              <InterpolatingParam id="15602" interp="linr"  time="-9999999/1" value="0" leadInLength="0/1"  />
              <InterpolatingParam id="15603" interp="linr"  time="-9999999/1" value="0" leadInLength="0/1"  />
             </VectorParam>
             <VectorParam id="15604"  name="shear">
              <InterpolatingParam id="15605" interp="linr"  time="-9999999/1" value="0" leadInLength="0/1"  />
              <InterpolatingParam id="15606" interp="linr"  time="-9999999/1" value="0" leadInLength="0/1"  />
              <InterpolatingParam id="15607" interp="linr"  time="-9999999/1" value="0" leadInLength="0/1"  />
             </VectorParam>
             <VectorParam id="15608"  name="scale">
              <InterpolatingParam id="15609" interp="linr"  time="-9999999/1" value="1" leadInLength="0/1"  />
              <InterpolatingParam id="15610" interp="linr"  time="-9999999/1" value="1" leadInLength="0/1"  />
              <InterpolatingParam id="15611" interp="linr"  time="-9999999/1" value="1" leadInLength="0/1"  />
             </VectorParam>
             <VectorParam id="15612"  name="anchor">
              <InterpolatingParam id="15613" interp="linr"  time="0/1" value="0" leadInLength="0/1"  />
              <InterpolatingParam id="15614" interp="linr"  time="0/1" value="0" leadInLength="0/1"  />
              <InterpolatingParam id="15615" interp="linr"  time="0/1" value="0" leadInLength="0/1"  />
             </VectorParam>
            </Transformer>
            <Parameters>
             <VectorParam id="15616"  name="sourceCrop">
              <InterpolatingParam id="15617" interp="linr"  time="0/1" value="0" leadInLength="0/1"  />
              <InterpolatingParam id="15618" interp="linr"  time="0/1" value="0" leadInLength="0/1"  />
              <InterpolatingParam id="15619" interp="linr"  time="0/1" value="0" leadInLength="0/1"  />
              <InterpolatingParam id="15620" interp="linr"  time="0/1" value="0" leadInLength="0/1"  />
             </VectorParam>
             <VectorParam id="15621"  name="geometryCrop">
              <InterpolatingParam id="15622" interp="linr"  time="-9999999/1" value="0" leadInLength="0/1"  />
              <InterpolatingParam id="15623" interp="linr"  time="-9999999/1" value="0" leadInLength="0/1"  />
              <InterpolatingParam id="15624" interp="linr"  time="-9999999/1" value="0" leadInLength="0/1"  />
              <InterpolatingParam id="15625" interp="linr"  time="-9999999/1" value="0" leadInLength="0/1"  />
             </VectorParam>
             <InterpolatingParam id="15626" interp="linr"  time="-9999999/1" value="1" leadInLength="0/1"  name="opacity"/>
            </Parameters>
            <Attributes>
             <Attribute id="15627" value="" name="ident"/>
            </Attributes>
            <MetaData>
             <entry key="WinSubProjectDisplayName" val=""/>
            </MetaData>
            <ExtraData>
             <Entry key="ZoomPanBin">
              <ZoomPanBin id="15628"  >
               <ZoomPanKeyframes>
                <ZoomPanKeyframe id="15629" timeRangeEnd="-9999999/1" timeRangeDuration="0/1" interpolaterName=""  />
               </ZoomPanKeyframes>
              </ZoomPanBin>
             </Entry>
            </ExtraData>
           </VMFile>
           <VMFile id="15630" start="7661" duration="615" scalar="1/1" mediaStart="15918/1" mediaDuration="615/1" trackNumber="0" src="4" >
            <Transformer>
             <VectorParam id="15631"  name="translation">
              <InterpolatingParam id="15632" interp="linr"  time="-9999999/1" value="0" leadInLength="0/1"  />
              <InterpolatingParam id="15633" interp="linr"  time="-9999999/1" value="0" leadInLength="0/1"  />
              <InterpolatingParam id="15634" interp="linr"  time="-9999999/1" value="0" leadInLength="0/1"  />
             </VectorParam>
             <VectorParam id="15635"  name="rotation">
              <InterpolatingParam id="15636" interp="linr"  time="-9999999/1" value="0" leadInLength="0/1"  />
              <InterpolatingParam id="15637" interp="linr"  time="-9999999/1" value="0" leadInLength="0/1"  />
              <InterpolatingParam id="15638" interp="linr"  time="-9999999/1" value="0" leadInLength="0/1"  />
             </VectorParam>
             <VectorParam id="15639"  name="shear">
              <InterpolatingParam id="15640" interp="linr"  time="-9999999/1" value="0" leadInLength="0/1"  />
              <InterpolatingParam id="15641" interp="linr"  time="-9999999/1" value="0" leadInLength="0/1"  />
              <InterpolatingParam id="15642" interp="linr"  time="-9999999/1" value="0" leadInLength="0/1"  />
             </VectorParam>
             <VectorParam id="15643"  name="scale">
              <InterpolatingParam id="15644" interp="linr"  time="-9999999/1" value="1" leadInLength="0/1"  />
              <InterpolatingParam id="15645" interp="linr"  time="-9999999/1" value="1" leadInLength="0/1"  />
              <InterpolatingParam id="15646" interp="linr"  time="-9999999/1" value="1" leadInLength="0/1"  />
             </VectorParam>
             <VectorParam id="15647"  name="anchor">
              <InterpolatingParam id="15648" interp="linr"  time="0/1" value="0" leadInLength="0/1"  />
              <InterpolatingParam id="15649" interp="linr"  time="0/1" value="0" leadInLength="0/1"  />
              <InterpolatingParam id="15650" interp="linr"  time="0/1" value="0" leadInLength="0/1"  />
             </VectorParam>
            </Transformer>
            <Parameters>
             <VectorParam id="15651"  name="sourceCrop">
              <InterpolatingParam id="15652" interp="linr"  time="0/1" value="0" leadInLength="0/1"  />
              <InterpolatingParam id="15653" interp="linr"  time="0/1" value="0" leadInLength="0/1"  />
              <InterpolatingParam id="15654" interp="linr"  time="0/1" value="0" leadInLength="0/1"  />
              <InterpolatingParam id="15655" interp="linr"  time="0/1" value="0" leadInLength="0/1"  />
             </VectorParam>
             <VectorParam id="15656"  name="geometryCrop">
              <InterpolatingParam id="15657" interp="linr"  time="-9999999/1" value="0" leadInLength="0/1"  />
              <InterpolatingParam id="15658" interp="linr"  time="-9999999/1" value="0" leadInLength="0/1"  />
              <InterpolatingParam id="15659" interp="linr"  time="-9999999/1" value="0" leadInLength="0/1"  />
              <InterpolatingParam id="15660" interp="linr"  time="-9999999/1" value="0" leadInLength="0/1"  />
             </VectorParam>
             <InterpolatingParam id="15661" interp="linr"  time="-9999999/1" value="1" leadInLength="0/1"  name="opacity"/>
            </Parameters>
            <Attributes>
             <Attribute id="15662" value="" name="ident"/>
            </Attributes>
            <MetaData>
             <entry key="WinSubProjectDisplayName" val=""/>
            </MetaData>
            <ExtraData>
             <Entry key="ZoomPanBin">
              <ZoomPanBin id="15663"  >
               <ZoomPanKeyframes>
                <ZoomPanKeyframe id="15664" timeRangeEnd="-9999999/1" timeRangeDuration="0/1" interpolaterName=""  />
               </ZoomPanKeyframes>
              </ZoomPanBin>
             </Entry>
            </ExtraData>
           </VMFile>
           <VMFile id="15665" start="8276" duration="323" scalar="1/1" mediaStart="16694/1" mediaDuration="323/1" trackNumber="0" src="4" >
            <Transformer>
             <VectorParam id="15666"  name="translation">
              <InterpolatingParam id="15667" interp="linr"  time="-9999999/1" value="0" leadInLength="0/1"  />
              <InterpolatingParam id="15668" interp="linr"  time="-9999999/1" value="0" leadInLength="0/1"  />
              <InterpolatingParam id="15669" interp="linr"  time="-9999999/1" value="0" leadInLength="0/1"  />
             </VectorParam>
             <VectorParam id="15670"  name="rotation">
              <InterpolatingParam id="15671" interp="linr"  time="-9999999/1" value="0" leadInLength="0/1"  />
              <InterpolatingParam id="15672" interp="linr"  time="-9999999/1" value="0" leadInLength="0/1"  />
              <InterpolatingParam id="15673" interp="linr"  time="-9999999/1" value="0" leadInLength="0/1"  />
             </VectorParam>
             <VectorParam id="15674"  name="shear">
              <InterpolatingParam id="15675" interp="linr"  time="-9999999/1" value="0" leadInLength="0/1"  />
              <InterpolatingParam id="15676" interp="linr"  time="-9999999/1" value="0" leadInLength="0/1"  />
              <InterpolatingParam id="15677" interp="linr"  time="-9999999/1" value="0" leadInLength="0/1"  />
             </VectorParam>
             <VectorParam id="15678"  name="scale">
              <InterpolatingParam id="15679" interp="linr"  time="-9999999/1" value="1" leadInLength="0/1"  />
              <InterpolatingParam id="15680" interp="linr"  time="-9999999/1" value="1" leadInLength="0/1"  />
              <InterpolatingParam id="15681" interp="linr"  time="-9999999/1" value="1" leadInLength="0/1"  />
             </VectorParam>
             <VectorParam id="15682"  name="anchor">
              <InterpolatingParam id="15683" interp="linr"  time="0/1" value="0" leadInLength="0/1"  />
              <InterpolatingParam id="15684" interp="linr"  time="0/1" value="0" leadInLength="0/1"  />
              <InterpolatingParam id="15685" interp="linr"  time="0/1" value="0" leadInLength="0/1"  />
             </VectorParam>
            </Transformer>
            <Parameters>
             <VectorParam id="15686"  name="sourceCrop">
              <InterpolatingParam id="15687" interp="linr"  time="0/1" value="0" leadInLength="0/1"  />
              <InterpolatingParam id="15688" interp="linr"  time="0/1" value="0" leadInLength="0/1"  />
              <InterpolatingParam id="15689" interp="linr"  time="0/1" value="0" leadInLength="0/1"  />
              <InterpolatingParam id="15690" interp="linr"  time="0/1" value="0" leadInLength="0/1"  />
             </VectorParam>
             <VectorParam id="15691"  name="geometryCrop">
              <InterpolatingParam id="15692" interp="linr"  time="-9999999/1" value="0" leadInLength="0/1"  />
              <InterpolatingParam id="15693" interp="linr"  time="-9999999/1" value="0" leadInLength="0/1"  />
              <InterpolatingParam id="15694" interp="linr"  time="-9999999/1" value="0" leadInLength="0/1"  />
              <InterpolatingParam id="15695" interp="linr"  time="-9999999/1" value="0" leadInLength="0/1"  />
             </VectorParam>
             <InterpolatingParam id="15696" interp="linr"  time="-9999999/1" value="1" leadInLength="0/1"  name="opacity"/>
            </Parameters>
            <Attributes>
             <Attribute id="15697" value="" name="ident"/>
            </Attributes>
            <MetaData>
             <entry key="WinSubProjectDisplayName" val=""/>
            </MetaData>
            <ExtraData>
             <Entry key="ZoomPanBin">
              <ZoomPanBin id="15698"  >
               <ZoomPanKeyframes>
                <ZoomPanKeyframe id="15699" timeRangeEnd="-9999999/1" timeRangeDuration="0/1" interpolaterName=""  />
               </ZoomPanKeyframes>
              </ZoomPanBin>
             </Entry>
            </ExtraData>
           </VMFile>
           <VMFile id="15700" start="8599" duration="223" scalar="1/1" mediaStart="17164/1" mediaDuration="223/1" trackNumber="0" src="4" >
            <Transformer>
             <VectorParam id="15701"  name="translation">
              <InterpolatingParam id="15702" interp="linr"  time="-9999999/1" value="0" leadInLength="0/1"  />
              <InterpolatingParam id="15703" interp="linr"  time="-9999999/1" value="0" leadInLength="0/1"  />
              <InterpolatingParam id="15704" interp="linr"  time="-9999999/1" value="0" leadInLength="0/1"  />
             </VectorParam>
             <VectorParam id="15705"  name="rotation">
              <InterpolatingParam id="15706" interp="linr"  time="-9999999/1" value="0" leadInLength="0/1"  />
              <InterpolatingParam id="15707" interp="linr"  time="-9999999/1" value="0" leadInLength="0/1"  />
              <InterpolatingParam id="15708" interp="linr"  time="-9999999/1" value="0" leadInLength="0/1"  />
             </VectorParam>
             <VectorParam id="15709"  name="shear">
              <InterpolatingParam id="15710" interp="linr"  time="-9999999/1" value="0" leadInLength="0/1"  />
              <InterpolatingParam id="15711" interp="linr"  time="-9999999/1" value="0" leadInLength="0/1"  />
              <InterpolatingParam id="15712" interp="linr"  time="-9999999/1" value="0" leadInLength="0/1"  />
             </VectorParam>
             <VectorParam id="15713"  name="scale">
              <InterpolatingParam id="15714" interp="linr"  time="-9999999/1" value="1" leadInLength="0/1"  />
              <InterpolatingParam id="15715" interp="linr"  time="-9999999/1" value="1" leadInLength="0/1"  />
              <InterpolatingParam id="15716" interp="linr"  time="-9999999/1" value="1" leadInLength="0/1"  />
             </VectorParam>
             <VectorParam id="15717"  name="anchor">
              <InterpolatingParam id="15718" interp="linr"  time="0/1" value="0" leadInLength="0/1"  />
              <InterpolatingParam id="15719" interp="linr"  time="0/1" value="0" leadInLength="0/1"  />
              <InterpolatingParam id="15720" interp="linr"  time="0/1" value="0" leadInLength="0/1"  />
             </VectorParam>
            </Transformer>
            <Parameters>
             <VectorParam id="15721"  name="sourceCrop">
              <InterpolatingParam id="15722" interp="linr"  time="0/1" value="0" leadInLength="0/1"  />
              <InterpolatingParam id="15723" interp="linr"  time="0/1" value="0" leadInLength="0/1"  />
              <InterpolatingParam id="15724" interp="linr"  time="0/1" value="0" leadInLength="0/1"  />
              <InterpolatingParam id="15725" interp="linr"  time="0/1" value="0" leadInLength="0/1"  />
             </VectorParam>
             <VectorParam id="15726"  name="geometryCrop">
              <InterpolatingParam id="15727" interp="linr"  time="-9999999/1" value="0" leadInLength="0/1"  />
              <InterpolatingParam id="15728" interp="linr"  time="-9999999/1" value="0" leadInLength="0/1"  />
              <InterpolatingParam id="15729" interp="linr"  time="-9999999/1" value="0" leadInLength="0/1"  />
              <InterpolatingParam id="15730" interp="linr"  time="-9999999/1" value="0" leadInLength="0/1"  />
             </VectorParam>
             <InterpolatingParam id="15731" interp="linr"  time="-9999999/1" value="1" leadInLength="0/1"  name="opacity"/>
            </Parameters>
            <Attributes>
             <Attribute id="15732" value="" name="ident"/>
            </Attributes>
            <MetaData>
             <entry key="WinSubProjectDisplayName" val=""/>
            </MetaData>
            <ExtraData>
             <Entry key="ZoomPanBin">
              <ZoomPanBin id="15733"  >
               <ZoomPanKeyframes>
                <ZoomPanKeyframe id="15734" timeRangeEnd="-9999999/1" timeRangeDuration="0/1" interpolaterName=""  />
               </ZoomPanKeyframes>
              </ZoomPanBin>
             </Entry>
            </ExtraData>
           </VMFile>
           <VMFile id="15735" start="8822" duration="323" scalar="1/1" mediaStart="26742/1" mediaDuration="323/1" trackNumber="0" src="4" >
            <Transformer>
             <VectorParam id="15736"  name="translation">
              <InterpolatingParam id="15737" interp="linr"  time="-9999999/1" value="0" leadInLength="0/1"  />
              <InterpolatingParam id="15738" interp="linr"  time="-9999999/1" value="0" leadInLength="0/1"  />
              <InterpolatingParam id="15739" interp="linr"  time="-9999999/1" value="0" leadInLength="0/1"  />
             </VectorParam>
             <VectorParam id="15740"  name="rotation">
              <InterpolatingParam id="15741" interp="linr"  time="-9999999/1" value="0" leadInLength="0/1"  />
              <InterpolatingParam id="15742" interp="linr"  time="-9999999/1" value="0" leadInLength="0/1"  />
              <InterpolatingParam id="15743" interp="linr"  time="-9999999/1" value="0" leadInLength="0/1"  />
             </VectorParam>
             <VectorParam id="15744"  name="shear">
              <InterpolatingParam id="15745" interp="linr"  time="-9999999/1" value="0" leadInLength="0/1"  />
              <InterpolatingParam id="15746" interp="linr"  time="-9999999/1" value="0" leadInLength="0/1"  />
              <InterpolatingParam id="15747" interp="linr"  time="-9999999/1" value="0" leadInLength="0/1"  />
             </VectorParam>
             <VectorParam id="15748"  name="scale">
              <InterpolatingParam id="15749" interp="linr"  time="-9999999/1" value="1" leadInLength="0/1"  />
              <InterpolatingParam id="15750" interp="linr"  time="-9999999/1" value="1" leadInLength="0/1"  />
              <InterpolatingParam id="15751" interp="linr"  time="-9999999/1" value="1" leadInLength="0/1"  />
             </VectorParam>
             <VectorParam id="15752"  name="anchor">
              <InterpolatingParam id="15753" interp="linr"  time="0/1" value="0" leadInLength="0/1"  />
              <InterpolatingParam id="15754" interp="linr"  time="0/1" value="0" leadInLength="0/1"  />
              <InterpolatingParam id="15755" interp="linr"  time="0/1" value="0" leadInLength="0/1"  />
             </VectorParam>
            </Transformer>
            <Parameters>
             <VectorParam id="15756"  name="sourceCrop">
              <InterpolatingParam id="15757" interp="linr"  time="0/1" value="0" leadInLength="0/1"  />
              <InterpolatingParam id="15758" interp="linr"  time="0/1" value="0" leadInLength="0/1"  />
              <InterpolatingParam id="15759" interp="linr"  time="0/1" value="0" leadInLength="0/1"  />
              <InterpolatingParam id="15760" interp="linr"  time="0/1" value="0" leadInLength="0/1"  />
             </VectorParam>
             <VectorParam id="15761"  name="geometryCrop">
              <InterpolatingParam id="15762" interp="linr"  time="-9999999/1" value="0" leadInLength="0/1"  />
              <InterpolatingParam id="15763" interp="linr"  time="-9999999/1" value="0" leadInLength="0/1"  />
              <InterpolatingParam id="15764" interp="linr"  time="-9999999/1" value="0" leadInLength="0/1"  />
              <InterpolatingParam id="15765" interp="linr"  time="-9999999/1" value="0" leadInLength="0/1"  />
             </VectorParam>
             <InterpolatingParam id="15766" interp="linr"  time="-9999999/1" value="1" leadInLength="0/1"  name="opacity"/>
            </Parameters>
            <Attributes>
             <Attribute id="15767" value="" name="ident"/>
            </Attributes>
            <MetaData>
             <entry key="WinSubProjectDisplayName" val=""/>
            </MetaData>
            <ExtraData>
             <Entry key="ZoomPanBin">
              <ZoomPanBin id="15768"  >
               <ZoomPanKeyframes>
                <ZoomPanKeyframe id="15769" timeRangeEnd="-9999999/1" timeRangeDuration="0/1" interpolaterName=""  />
               </ZoomPanKeyframes>
              </ZoomPanBin>
             </Entry>
            </ExtraData>
           </VMFile>
           <VMFile id="15770" start="9145" duration="259" scalar="1/1" mediaStart="27825/1" mediaDuration="259/1" trackNumber="0" src="4" >
            <Transformer>
             <VectorParam id="15771"  name="translation">
              <InterpolatingParam id="15772" interp="linr"  time="-9999999/1" value="0" leadInLength="0/1"  />
              <InterpolatingParam id="15773" interp="linr"  time="-9999999/1" value="0" leadInLength="0/1"  />
              <InterpolatingParam id="15774" interp="linr"  time="-9999999/1" value="0" leadInLength="0/1"  />
             </VectorParam>
             <VectorParam id="15775"  name="rotation">
              <InterpolatingParam id="15776" interp="linr"  time="-9999999/1" value="0" leadInLength="0/1"  />
              <InterpolatingParam id="15777" interp="linr"  time="-9999999/1" value="0" leadInLength="0/1"  />
              <InterpolatingParam id="15778" interp="linr"  time="-9999999/1" value="0" leadInLength="0/1"  />
             </VectorParam>
             <VectorParam id="15779"  name="shear">
              <InterpolatingParam id="15780" interp="linr"  time="-9999999/1" value="0" leadInLength="0/1"  />
              <InterpolatingParam id="15781" interp="linr"  time="-9999999/1" value="0" leadInLength="0/1"  />
              <InterpolatingParam id="15782" interp="linr"  time="-9999999/1" value="0" leadInLength="0/1"  />
             </VectorParam>
             <VectorParam id="15783"  name="scale">
              <InterpolatingParam id="15784" interp="linr"  time="-9999999/1" value="1" leadInLength="0/1"  />
              <InterpolatingParam id="15785" interp="linr"  time="-9999999/1" value="1" leadInLength="0/1"  />
              <InterpolatingParam id="15786" interp="linr"  time="-9999999/1" value="1" leadInLength="0/1"  />
             </VectorParam>
             <VectorParam id="15787"  name="anchor">
              <InterpolatingParam id="15788" interp="linr"  time="0/1" value="0" leadInLength="0/1"  />
              <InterpolatingParam id="15789" interp="linr"  time="0/1" value="0" leadInLength="0/1"  />
              <InterpolatingParam id="15790" interp="linr"  time="0/1" value="0" leadInLength="0/1"  />
             </VectorParam>
            </Transformer>
            <Parameters>
             <VectorParam id="15791"  name="sourceCrop">
              <InterpolatingParam id="15792" interp="linr"  time="0/1" value="0" leadInLength="0/1"  />
              <InterpolatingParam id="15793" interp="linr"  time="0/1" value="0" leadInLength="0/1"  />
              <InterpolatingParam id="15794" interp="linr"  time="0/1" value="0" leadInLength="0/1"  />
              <InterpolatingParam id="15795" interp="linr"  time="0/1" value="0" leadInLength="0/1"  />
             </VectorParam>
             <VectorParam id="15796"  name="geometryCrop">
              <InterpolatingParam id="15797" interp="linr"  time="-9999999/1" value="0" leadInLength="0/1"  />
              <InterpolatingParam id="15798" interp="linr"  time="-9999999/1" value="0" leadInLength="0/1"  />
              <InterpolatingParam id="15799" interp="linr"  time="-9999999/1" value="0" leadInLength="0/1"  />
              <InterpolatingParam id="15800" interp="linr"  time="-9999999/1" value="0" leadInLength="0/1"  />
             </VectorParam>
             <InterpolatingParam id="15801" interp="linr"  time="-9999999/1" value="1" leadInLength="0/1"  name="opacity"/>
            </Parameters>
            <Attributes>
             <Attribute id="15802" value="" name="ident"/>
            </Attributes>
            <MetaData>
             <entry key="WinSubProjectDisplayName" val=""/>
            </MetaData>
            <ExtraData>
             <Entry key="ZoomPanBin">
              <ZoomPanBin id="15803"  >
               <ZoomPanKeyframes>
                <ZoomPanKeyframe id="15804" timeRangeEnd="-9999999/1" timeRangeDuration="0/1" interpolaterName=""  />
               </ZoomPanKeyframes>
              </ZoomPanBin>
             </Entry>
            </ExtraData>
           </VMFile>
           <VMFile id="15805" start="9404" duration="157" scalar="1/1" mediaStart="28287/1" mediaDuration="157/1" trackNumber="0" src="4" >
            <Transformer>
             <VectorParam id="15806"  name="translation">
              <InterpolatingParam id="15807" interp="linr"  time="-9999999/1" value="0" leadInLength="0/1"  />
              <InterpolatingParam id="15808" interp="linr"  time="-9999999/1" value="0" leadInLength="0/1"  />
              <InterpolatingParam id="15809" interp="linr"  time="-9999999/1" value="0" leadInLength="0/1"  />
             </VectorParam>
             <VectorParam id="15810"  name="rotation">
              <InterpolatingParam id="15811" interp="linr"  time="-9999999/1" value="0" leadInLength="0/1"  />
              <InterpolatingParam id="15812" interp="linr"  time="-9999999/1" value="0" leadInLength="0/1"  />
              <InterpolatingParam id="15813" interp="linr"  time="-9999999/1" value="0" leadInLength="0/1"  />
             </VectorParam>
             <VectorParam id="15814"  name="shear">
              <InterpolatingParam id="15815" interp="linr"  time="-9999999/1" value="0" leadInLength="0/1"  />
              <InterpolatingParam id="15816" interp="linr"  time="-9999999/1" value="0" leadInLength="0/1"  />
              <InterpolatingParam id="15817" interp="linr"  time="-9999999/1" value="0" leadInLength="0/1"  />
             </VectorParam>
             <VectorParam id="15818"  name="scale">
              <InterpolatingParam id="15819" interp="linr"  time="-9999999/1" value="1" leadInLength="0/1"  />
              <InterpolatingParam id="15820" interp="linr"  time="-9999999/1" value="1" leadInLength="0/1"  />
              <InterpolatingParam id="15821" interp="linr"  time="-9999999/1" value="1" leadInLength="0/1"  />
             </VectorParam>
             <VectorParam id="15822"  name="anchor">
              <InterpolatingParam id="15823" interp="linr"  time="0/1" value="0" leadInLength="0/1"  />
              <InterpolatingParam id="15824" interp="linr"  time="0/1" value="0" leadInLength="0/1"  />
              <InterpolatingParam id="15825" interp="linr"  time="0/1" value="0" leadInLength="0/1"  />
             </VectorParam>
            </Transformer>
            <Parameters>
             <VectorParam id="15826"  name="sourceCrop">
              <InterpolatingParam id="15827" interp="linr"  time="0/1" value="0" leadInLength="0/1"  />
              <InterpolatingParam id="15828" interp="linr"  time="0/1" value="0" leadInLength="0/1"  />
              <InterpolatingParam id="15829" interp="linr"  time="0/1" value="0" leadInLength="0/1"  />
              <InterpolatingParam id="15830" interp="linr"  time="0/1" value="0" leadInLength="0/1"  />
             </VectorParam>
             <VectorParam id="15831"  name="geometryCrop">
              <InterpolatingParam id="15832" interp="linr"  time="-9999999/1" value="0" leadInLength="0/1"  />
              <InterpolatingParam id="15833" interp="linr"  time="-9999999/1" value="0" leadInLength="0/1"  />
              <InterpolatingParam id="15834" interp="linr"  time="-9999999/1" value="0" leadInLength="0/1"  />
              <InterpolatingParam id="15835" interp="linr"  time="-9999999/1" value="0" leadInLength="0/1"  />
             </VectorParam>
             <InterpolatingParam id="15836" interp="linr"  time="-9999999/1" value="1" leadInLength="0/1"  name="opacity"/>
            </Parameters>
            <Attributes>
             <Attribute id="15837" value="" name="ident"/>
            </Attributes>
            <MetaData>
             <entry key="WinSubProjectDisplayName" val=""/>
            </MetaData>
            <ExtraData>
             <Entry key="ZoomPanBin">
              <ZoomPanBin id="15838"  >
               <ZoomPanKeyframes>
                <ZoomPanKeyframe id="15839" timeRangeEnd="-9999999/1" timeRangeDuration="0/1" interpolaterName=""  />
               </ZoomPanKeyframes>
              </ZoomPanBin>
             </Entry>
            </ExtraData>
           </VMFile>
           <VMFile id="15840" start="9561" duration="290" scalar="1/1" mediaStart="28689/1" mediaDuration="290/1" trackNumber="0" src="4" >
            <Transformer>
             <VectorParam id="15841"  name="translation">
              <InterpolatingParam id="15842" interp="linr"  time="-9999999/1" value="0" leadInLength="0/1"  />
              <InterpolatingParam id="15843" interp="linr"  time="-9999999/1" value="0" leadInLength="0/1"  />
              <InterpolatingParam id="15844" interp="linr"  time="-9999999/1" value="0" leadInLength="0/1"  />
             </VectorParam>
             <VectorParam id="15845"  name="rotation">
              <InterpolatingParam id="15846" interp="linr"  time="-9999999/1" value="0" leadInLength="0/1"  />
              <InterpolatingParam id="15847" interp="linr"  time="-9999999/1" value="0" leadInLength="0/1"  />
              <InterpolatingParam id="15848" interp="linr"  time="-9999999/1" value="0" leadInLength="0/1"  />
             </VectorParam>
             <VectorParam id="15849"  name="shear">
              <InterpolatingParam id="15850" interp="linr"  time="-9999999/1" value="0" leadInLength="0/1"  />
              <InterpolatingParam id="15851" interp="linr"  time="-9999999/1" value="0" leadInLength="0/1"  />
              <InterpolatingParam id="15852" interp="linr"  time="-9999999/1" value="0" leadInLength="0/1"  />
             </VectorParam>
             <VectorParam id="15853"  name="scale">
              <InterpolatingParam id="15854" interp="linr"  time="-9999999/1" value="1" leadInLength="0/1"  />
              <InterpolatingParam id="15855" interp="linr"  time="-9999999/1" value="1" leadInLength="0/1"  />
              <InterpolatingParam id="15856" interp="linr"  time="-9999999/1" value="1" leadInLength="0/1"  />
             </VectorParam>
             <VectorParam id="15857"  name="anchor">
              <InterpolatingParam id="15858" interp="linr"  time="0/1" value="0" leadInLength="0/1"  />
              <InterpolatingParam id="15859" interp="linr"  time="0/1" value="0" leadInLength="0/1"  />
              <InterpolatingParam id="15860" interp="linr"  time="0/1" value="0" leadInLength="0/1"  />
             </VectorParam>
            </Transformer>
            <Parameters>
             <VectorParam id="15861"  name="sourceCrop">
              <InterpolatingParam id="15862" interp="linr"  time="0/1" value="0" leadInLength="0/1"  />
              <InterpolatingParam id="15863" interp="linr"  time="0/1" value="0" leadInLength="0/1"  />
              <InterpolatingParam id="15864" interp="linr"  time="0/1" value="0" leadInLength="0/1"  />
              <InterpolatingParam id="15865" interp="linr"  time="0/1" value="0" leadInLength="0/1"  />
             </VectorParam>
             <VectorParam id="15866"  name="geometryCrop">
              <InterpolatingParam id="15867" interp="linr"  time="-9999999/1" value="0" leadInLength="0/1"  />
              <InterpolatingParam id="15868" interp="linr"  time="-9999999/1" value="0" leadInLength="0/1"  />
              <InterpolatingParam id="15869" interp="linr"  time="-9999999/1" value="0" leadInLength="0/1"  />
              <InterpolatingParam id="15870" interp="linr"  time="-9999999/1" value="0" leadInLength="0/1"  />
             </VectorParam>
             <InterpolatingParam id="15871" interp="linr"  time="-9999999/1" value="1" leadInLength="0/1"  name="opacity"/>
            </Parameters>
            <Attributes>
             <Attribute id="15872" value="" name="ident"/>
            </Attributes>
            <MetaData>
             <entry key="WinSubProjectDisplayName" val=""/>
            </MetaData>
            <ExtraData>
             <Entry key="ZoomPanBin">
              <ZoomPanBin id="15873"  >
               <ZoomPanKeyframes>
                <ZoomPanKeyframe id="15874" timeRangeEnd="-9999999/1" timeRangeDuration="0/1" interpolaterName=""  />
               </ZoomPanKeyframes>
              </ZoomPanBin>
             </Entry>
            </ExtraData>
           </VMFile>
           <IMFile id="15875" start="9851" duration="60" scalar="1/1" mediaStart="29056/1" mediaDuration="1/1" trackNumber="0" src="4" trimStartSum="0/1" >
            <Transformer>
             <VectorParam id="15876"  name="translation">
              <InterpolatingParam id="15877" interp="linr"  time="-9999999/1" value="0" leadInLength="0/1"  />
              <InterpolatingParam id="15878" interp="linr"  time="-9999999/1" value="0" leadInLength="0/1"  />
              <InterpolatingParam id="15879" interp="linr"  time="-9999999/1" value="0" leadInLength="0/1"  />
             </VectorParam>
             <VectorParam id="15880"  name="rotation">
              <InterpolatingParam id="15881" interp="linr"  time="-9999999/1" value="0" leadInLength="0/1"  />
              <InterpolatingParam id="15882" interp="linr"  time="-9999999/1" value="0" leadInLength="0/1"  />
              <InterpolatingParam id="15883" interp="linr"  time="-9999999/1" value="0" leadInLength="0/1"  />
             </VectorParam>
             <VectorParam id="15884"  name="shear">
              <InterpolatingParam id="15885" interp="linr"  time="-9999999/1" value="0" leadInLength="0/1"  />
              <InterpolatingParam id="15886" interp="linr"  time="-9999999/1" value="0" leadInLength="0/1"  />
              <InterpolatingParam id="15887" interp="linr"  time="-9999999/1" value="0" leadInLength="0/1"  />
             </VectorParam>
             <VectorParam id="15888"  name="scale">
              <InterpolatingParam id="15889" interp="linr"  time="-9999999/1" value="1" leadInLength="0/1"  />
              <InterpolatingParam id="15890" interp="linr"  time="-9999999/1" value="1" leadInLength="0/1"  />
              <InterpolatingParam id="15891" interp="linr"  time="-9999999/1" value="1" leadInLength="0/1"  />
             </VectorParam>
             <VectorParam id="15892"  name="anchor">
              <InterpolatingParam id="15893" interp="linr"  time="0/1" value="0" leadInLength="0/1"  />
              <InterpolatingParam id="15894" interp="linr"  time="0/1" value="0" leadInLength="0/1"  />
              <InterpolatingParam id="15895" interp="linr"  time="0/1" value="0" leadInLength="0/1"  />
             </VectorParam>
            </Transformer>
            <Parameters>
             <VectorParam id="15896"  name="sourceCrop">
              <InterpolatingParam id="15897" interp="linr"  time="0/1" value="0" leadInLength="0/1"  />
              <InterpolatingParam id="15898" interp="linr"  time="0/1" value="0" leadInLength="0/1"  />
              <InterpolatingParam id="15899" interp="linr"  time="0/1" value="0" leadInLength="0/1"  />
              <InterpolatingParam id="15900" interp="linr"  time="0/1" value="0" leadInLength="0/1"  />
             </VectorParam>
             <VectorParam id="15901"  name="geometryCrop">
              <InterpolatingParam id="15902" interp="linr"  time="-9999999/1" value="0" leadInLength="0/1"  />
              <InterpolatingParam id="15903" interp="linr"  time="-9999999/1" value="0" leadInLength="0/1"  />
              <InterpolatingParam id="15904" interp="linr"  time="-9999999/1" value="0" leadInLength="0/1"  />
              <InterpolatingParam id="15905" interp="linr"  time="-9999999/1" value="0" leadInLength="0/1"  />
             </VectorParam>
             <InterpolatingParam id="15906" interp="linr"  time="-9999999/1" value="1" leadInLength="0/1"  name="opacity"/>
            </Parameters>
            <Attributes>
             <Attribute id="15907" value="" name="ident"/>
            </Attributes>
            <MetaData>
             <entry key="WinSubProjectDisplayName" val=""/>
            </MetaData>
            <ExtraData>
             <Entry key="ZoomPanBin">
              <ZoomPanBin id="15908"  >
               <ZoomPanKeyframes>
                <ZoomPanKeyframe id="15909" timeRangeEnd="-9999999/1" timeRangeDuration="0/1" interpolaterName=""  />
               </ZoomPanKeyframes>
              </ZoomPanBin>
             </Entry>
            </ExtraData>
           </IMFile>
           <VMFile id="15910" start="9911" duration="18" scalar="1/1" mediaStart="29056/1" mediaDuration="18/1" trackNumber="0" src="4" >
            <Transformer>
             <VectorParam id="15911"  name="translation">
              <InterpolatingParam id="15912" interp="linr"  time="-9999999/1" value="0" leadInLength="0/1"  />
              <InterpolatingParam id="15913" interp="linr"  time="-9999999/1" value="0" leadInLength="0/1"  />
              <InterpolatingParam id="15914" interp="linr"  time="-9999999/1" value="0" leadInLength="0/1"  />
             </VectorParam>
             <VectorParam id="15915"  name="rotation">
              <InterpolatingParam id="15916" interp="linr"  time="-9999999/1" value="0" leadInLength="0/1"  />
              <InterpolatingParam id="15917" interp="linr"  time="-9999999/1" value="0" leadInLength="0/1"  />
              <InterpolatingParam id="15918" interp="linr"  time="-9999999/1" value="0" leadInLength="0/1"  />
             </VectorParam>
             <VectorParam id="15919"  name="shear">
              <InterpolatingParam id="15920" interp="linr"  time="-9999999/1" value="0" leadInLength="0/1"  />
              <InterpolatingParam id="15921" interp="linr"  time="-9999999/1" value="0" leadInLength="0/1"  />
              <InterpolatingParam id="15922" interp="linr"  time="-9999999/1" value="0" leadInLength="0/1"  />
             </VectorParam>
             <VectorParam id="15923"  name="scale">
              <InterpolatingParam id="15924" interp="linr"  time="-9999999/1" value="1" leadInLength="0/1"  />
              <InterpolatingParam id="15925" interp="linr"  time="-9999999/1" value="1" leadInLength="0/1"  />
              <InterpolatingParam id="15926" interp="linr"  time="-9999999/1" value="1" leadInLength="0/1"  />
             </VectorParam>
             <VectorParam id="15927"  name="anchor">
              <InterpolatingParam id="15928" interp="linr"  time="0/1" value="0" leadInLength="0/1"  />
              <InterpolatingParam id="15929" interp="linr"  time="0/1" value="0" leadInLength="0/1"  />
              <InterpolatingParam id="15930" interp="linr"  time="0/1" value="0" leadInLength="0/1"  />
             </VectorParam>
            </Transformer>
            <Parameters>
             <VectorParam id="15931"  name="sourceCrop">
              <InterpolatingParam id="15932" interp="linr"  time="0/1" value="0" leadInLength="0/1"  />
              <InterpolatingParam id="15933" interp="linr"  time="0/1" value="0" leadInLength="0/1"  />
              <InterpolatingParam id="15934" interp="linr"  time="0/1" value="0" leadInLength="0/1"  />
              <InterpolatingParam id="15935" interp="linr"  time="0/1" value="0" leadInLength="0/1"  />
             </VectorParam>
             <VectorParam id="15936"  name="geometryCrop">
              <InterpolatingParam id="15937" interp="linr"  time="-9999999/1" value="0" leadInLength="0/1"  />
              <InterpolatingParam id="15938" interp="linr"  time="-9999999/1" value="0" leadInLength="0/1"  />
              <InterpolatingParam id="15939" interp="linr"  time="-9999999/1" value="0" leadInLength="0/1"  />
              <InterpolatingParam id="15940" interp="linr"  time="-9999999/1" value="0" leadInLength="0/1"  />
             </VectorParam>
             <InterpolatingParam id="15941" interp="linr"  time="-9999999/1" value="1" leadInLength="0/1"  name="opacity"/>
            </Parameters>
            <Attributes>
             <Attribute id="15942" value="" name="ident"/>
            </Attributes>
            <MetaData>
             <entry key="WinSubProjectDisplayName" val=""/>
            </MetaData>
            <ExtraData>
             <Entry key="ZoomPanBin">
              <ZoomPanBin id="15943"  >
               <ZoomPanKeyframes>
                <ZoomPanKeyframe id="15944" timeRangeEnd="-9999999/1" timeRangeDuration="0/1" interpolaterName=""  />
               </ZoomPanKeyframes>
              </ZoomPanBin>
             </Entry>
            </ExtraData>
           </VMFile>
           <IMFile id="15945" start="9929" duration="30" scalar="1/1" mediaStart="29074/1" mediaDuration="1/1" trackNumber="0" src="4" trimStartSum="0/1" >
            <Transformer>
             <VectorParam id="15946"  name="translation">
              <InterpolatingParam id="15947" interp="linr"  time="-9999999/1" value="0" leadInLength="0/1"  />
              <InterpolatingParam id="15948" interp="linr"  time="-9999999/1" value="0" leadInLength="0/1"  />
              <InterpolatingParam id="15949" interp="linr"  time="-9999999/1" value="0" leadInLength="0/1"  />
             </VectorParam>
             <VectorParam id="15950"  name="rotation">
              <InterpolatingParam id="15951" interp="linr"  time="-9999999/1" value="0" leadInLength="0/1"  />
              <InterpolatingParam id="15952" interp="linr"  time="-9999999/1" value="0" leadInLength="0/1"  />
              <InterpolatingParam id="15953" interp="linr"  time="-9999999/1" value="0" leadInLength="0/1"  />
             </VectorParam>
             <VectorParam id="15954"  name="shear">
              <InterpolatingParam id="15955" interp="linr"  time="-9999999/1" value="0" leadInLength="0/1"  />
              <InterpolatingParam id="15956" interp="linr"  time="-9999999/1" value="0" leadInLength="0/1"  />
              <InterpolatingParam id="15957" interp="linr"  time="-9999999/1" value="0" leadInLength="0/1"  />
             </VectorParam>
             <VectorParam id="15958"  name="scale">
              <InterpolatingParam id="15959" interp="linr"  time="-9999999/1" value="1" leadInLength="0/1"  />
              <InterpolatingParam id="15960" interp="linr"  time="-9999999/1" value="1" leadInLength="0/1"  />
              <InterpolatingParam id="15961" interp="linr"  time="-9999999/1" value="1" leadInLength="0/1"  />
             </VectorParam>
             <VectorParam id="15962"  name="anchor">
              <InterpolatingParam id="15963" interp="linr"  time="0/1" value="0" leadInLength="0/1"  />
              <InterpolatingParam id="15964" interp="linr"  time="0/1" value="0" leadInLength="0/1"  />
              <InterpolatingParam id="15965" interp="linr"  time="0/1" value="0" leadInLength="0/1"  />
             </VectorParam>
            </Transformer>
            <Parameters>
             <VectorParam id="15966"  name="sourceCrop">
              <InterpolatingParam id="15967" interp="linr"  time="0/1" value="0" leadInLength="0/1"  />
              <InterpolatingParam id="15968" interp="linr"  time="0/1" value="0" leadInLength="0/1"  />
              <InterpolatingParam id="15969" interp="linr"  time="0/1" value="0" leadInLength="0/1"  />
              <InterpolatingParam id="15970" interp="linr"  time="0/1" value="0" leadInLength="0/1"  />
             </VectorParam>
             <VectorParam id="15971"  name="geometryCrop">
              <InterpolatingParam id="15972" interp="linr"  time="-9999999/1" value="0" leadInLength="0/1"  />
              <InterpolatingParam id="15973" interp="linr"  time="-9999999/1" value="0" leadInLength="0/1"  />
              <InterpolatingParam id="15974" interp="linr"  time="-9999999/1" value="0" leadInLength="0/1"  />
              <InterpolatingParam id="15975" interp="linr"  time="-9999999/1" value="0" leadInLength="0/1"  />
             </VectorParam>
             <InterpolatingParam id="15976" interp="linr"  time="-9999999/1" value="1" leadInLength="0/1"  name="opacity"/>
            </Parameters>
            <Attributes>
             <Attribute id="15977" value="" name="ident"/>
            </Attributes>
            <MetaData>
             <entry key="WinSubProjectDisplayName" val=""/>
            </MetaData>
            <ExtraData>
             <Entry key="ZoomPanBin">
              <ZoomPanBin id="15978"  >
               <ZoomPanKeyframes>
                <ZoomPanKeyframe id="15979" timeRangeEnd="-9999999/1" timeRangeDuration="0/1" interpolaterName=""  />
               </ZoomPanKeyframes>
              </ZoomPanBin>
             </Entry>
            </ExtraData>
           </IMFile>
           <VMFile id="15980" start="9959" duration="1" scalar="1/1" mediaStart="29074/1" mediaDuration="1/1" trackNumber="0" src="4" >
            <Transformer>
             <VectorParam id="15981"  name="translation">
              <InterpolatingParam id="15982" interp="linr"  time="-9999999/1" value="0" leadInLength="0/1"  />
              <InterpolatingParam id="15983" interp="linr"  time="-9999999/1" value="0" leadInLength="0/1"  />
              <InterpolatingParam id="15984" interp="linr"  time="-9999999/1" value="0" leadInLength="0/1"  />
             </VectorParam>
             <VectorParam id="15985"  name="rotation">
              <InterpolatingParam id="15986" interp="linr"  time="-9999999/1" value="0" leadInLength="0/1"  />
              <InterpolatingParam id="15987" interp="linr"  time="-9999999/1" value="0" leadInLength="0/1"  />
              <InterpolatingParam id="15988" interp="linr"  time="-9999999/1" value="0" leadInLength="0/1"  />
             </VectorParam>
             <VectorParam id="15989"  name="shear">
              <InterpolatingParam id="15990" interp="linr"  time="-9999999/1" value="0" leadInLength="0/1"  />
              <InterpolatingParam id="15991" interp="linr"  time="-9999999/1" value="0" leadInLength="0/1"  />
              <InterpolatingParam id="15992" interp="linr"  time="-9999999/1" value="0" leadInLength="0/1"  />
             </VectorParam>
             <VectorParam id="15993"  name="scale">
              <InterpolatingParam id="15994" interp="linr"  time="-9999999/1" value="1" leadInLength="0/1"  />
              <InterpolatingParam id="15995" interp="linr"  time="-9999999/1" value="1" leadInLength="0/1"  />
              <InterpolatingParam id="15996" interp="linr"  time="-9999999/1" value="1" leadInLength="0/1"  />
             </VectorParam>
             <VectorParam id="15997"  name="anchor">
              <InterpolatingParam id="15998" interp="linr"  time="0/1" value="0" leadInLength="0/1"  />
              <InterpolatingParam id="15999" interp="linr"  time="0/1" value="0" leadInLength="0/1"  />
              <InterpolatingParam id="16000" interp="linr"  time="0/1" value="0" leadInLength="0/1"  />
             </VectorParam>
            </Transformer>
            <Parameters>
             <VectorParam id="16001"  name="sourceCrop">
              <InterpolatingParam id="16002" interp="linr"  time="0/1" value="0" leadInLength="0/1"  />
              <InterpolatingParam id="16003" interp="linr"  time="0/1" value="0" leadInLength="0/1"  />
              <InterpolatingParam id="16004" interp="linr"  time="0/1" value="0" leadInLength="0/1"  />
              <InterpolatingParam id="16005" interp="linr"  time="0/1" value="0" leadInLength="0/1"  />
             </VectorParam>
             <VectorParam id="16006"  name="geometryCrop">
              <InterpolatingParam id="16007" interp="linr"  time="-9999999/1" value="0" leadInLength="0/1"  />
              <InterpolatingParam id="16008" interp="linr"  time="-9999999/1" value="0" leadInLength="0/1"  />
              <InterpolatingParam id="16009" interp="linr"  time="-9999999/1" value="0" leadInLength="0/1"  />
              <InterpolatingParam id="16010" interp="linr"  time="-9999999/1" value="0" leadInLength="0/1"  />
             </VectorParam>
             <InterpolatingParam id="16011" interp="linr"  time="-9999999/1" value="1" leadInLength="0/1"  name="opacity"/>
            </Parameters>
            <Attributes>
             <Attribute id="16012" value="" name="ident"/>
            </Attributes>
            <MetaData>
             <entry key="WinSubProjectDisplayName" val=""/>
            </MetaData>
            <ExtraData>
             <Entry key="ZoomPanBin">
              <ZoomPanBin id="16013"  >
               <ZoomPanKeyframes>
                <ZoomPanKeyframe id="16014" timeRangeEnd="-9999999/1" timeRangeDuration="0/1" interpolaterName=""  />
               </ZoomPanKeyframes>
              </ZoomPanBin>
             </Entry>
            </ExtraData>
           </VMFile>
           <VMFile id="16015" start="9960" duration="42" scalar="1/1" mediaStart="29274/1" mediaDuration="42/1" trackNumber="0" src="4" >
            <Transformer>
             <VectorParam id="16016"  name="translation">
              <InterpolatingParam id="16017" interp="linr"  time="-9999999/1" value="0" leadInLength="0/1"  />
              <InterpolatingParam id="16018" interp="linr"  time="-9999999/1" value="0" leadInLength="0/1"  />
              <InterpolatingParam id="16019" interp="linr"  time="-9999999/1" value="0" leadInLength="0/1"  />
             </VectorParam>
             <VectorParam id="16020"  name="rotation">
              <InterpolatingParam id="16021" interp="linr"  time="-9999999/1" value="0" leadInLength="0/1"  />
              <InterpolatingParam id="16022" interp="linr"  time="-9999999/1" value="0" leadInLength="0/1"  />
              <InterpolatingParam id="16023" interp="linr"  time="-9999999/1" value="0" leadInLength="0/1"  />
             </VectorParam>
             <VectorParam id="16024"  name="shear">
              <InterpolatingParam id="16025" interp="linr"  time="-9999999/1" value="0" leadInLength="0/1"  />
              <InterpolatingParam id="16026" interp="linr"  time="-9999999/1" value="0" leadInLength="0/1"  />
              <InterpolatingParam id="16027" interp="linr"  time="-9999999/1" value="0" leadInLength="0/1"  />
             </VectorParam>
             <VectorParam id="16028"  name="scale">
              <InterpolatingParam id="16029" interp="linr"  time="-9999999/1" value="1" leadInLength="0/1"  />
              <InterpolatingParam id="16030" interp="linr"  time="-9999999/1" value="1" leadInLength="0/1"  />
              <InterpolatingParam id="16031" interp="linr"  time="-9999999/1" value="1" leadInLength="0/1"  />
             </VectorParam>
             <VectorParam id="16032"  name="anchor">
              <InterpolatingParam id="16033" interp="linr"  time="0/1" value="0" leadInLength="0/1"  />
              <InterpolatingParam id="16034" interp="linr"  time="0/1" value="0" leadInLength="0/1"  />
              <InterpolatingParam id="16035" interp="linr"  time="0/1" value="0" leadInLength="0/1"  />
             </VectorParam>
            </Transformer>
            <Parameters>
             <VectorParam id="16036"  name="sourceCrop">
              <InterpolatingParam id="16037" interp="linr"  time="0/1" value="0" leadInLength="0/1"  />
              <InterpolatingParam id="16038" interp="linr"  time="0/1" value="0" leadInLength="0/1"  />
              <InterpolatingParam id="16039" interp="linr"  time="0/1" value="0" leadInLength="0/1"  />
              <InterpolatingParam id="16040" interp="linr"  time="0/1" value="0" leadInLength="0/1"  />
             </VectorParam>
             <VectorParam id="16041"  name="geometryCrop">
              <InterpolatingParam id="16042" interp="linr"  time="-9999999/1" value="0" leadInLength="0/1"  />
              <InterpolatingParam id="16043" interp="linr"  time="-9999999/1" value="0" leadInLength="0/1"  />
              <InterpolatingParam id="16044" interp="linr"  time="-9999999/1" value="0" leadInLength="0/1"  />
              <InterpolatingParam id="16045" interp="linr"  time="-9999999/1" value="0" leadInLength="0/1"  />
             </VectorParam>
             <InterpolatingParam id="16046" interp="linr"  time="-9999999/1" value="1" leadInLength="0/1"  name="opacity"/>
            </Parameters>
            <Attributes>
             <Attribute id="16047" value="" name="ident"/>
            </Attributes>
            <MetaData>
             <entry key="WinSubProjectDisplayName" val=""/>
            </MetaData>
            <ExtraData>
             <Entry key="ZoomPanBin">
              <ZoomPanBin id="16048"  >
               <ZoomPanKeyframes>
                <ZoomPanKeyframe id="16049" timeRangeEnd="-9999999/1" timeRangeDuration="0/1" interpolaterName=""  />
               </ZoomPanKeyframes>
              </ZoomPanBin>
             </Entry>
            </ExtraData>
           </VMFile>
           <VMFile id="16050" start="10002" duration="147" scalar="1/1" mediaStart="29358/1" mediaDuration="147/1" trackNumber="0" src="4" >
            <Transformer>
             <VectorParam id="16051"  name="translation">
              <InterpolatingParam id="16052" interp="linr"  time="-9999999/1" value="0" leadInLength="0/1"  />
              <InterpolatingParam id="16053" interp="linr"  time="-9999999/1" value="0" leadInLength="0/1"  />
              <InterpolatingParam id="16054" interp="linr"  time="-9999999/1" value="0" leadInLength="0/1"  />
             </VectorParam>
             <VectorParam id="16055"  name="rotation">
              <InterpolatingParam id="16056" interp="linr"  time="-9999999/1" value="0" leadInLength="0/1"  />
              <InterpolatingParam id="16057" interp="linr"  time="-9999999/1" value="0" leadInLength="0/1"  />
              <InterpolatingParam id="16058" interp="linr"  time="-9999999/1" value="0" leadInLength="0/1"  />
             </VectorParam>
             <VectorParam id="16059"  name="shear">
              <InterpolatingParam id="16060" interp="linr"  time="-9999999/1" value="0" leadInLength="0/1"  />
              <InterpolatingParam id="16061" interp="linr"  time="-9999999/1" value="0" leadInLength="0/1"  />
              <InterpolatingParam id="16062" interp="linr"  time="-9999999/1" value="0" leadInLength="0/1"  />
             </VectorParam>
             <VectorParam id="16063"  name="scale">
              <InterpolatingParam id="16064" interp="linr"  time="-9999999/1" value="1" leadInLength="0/1"  />
              <InterpolatingParam id="16065" interp="linr"  time="-9999999/1" value="1" leadInLength="0/1"  />
              <InterpolatingParam id="16066" interp="linr"  time="-9999999/1" value="1" leadInLength="0/1"  />
             </VectorParam>
             <VectorParam id="16067"  name="anchor">
              <InterpolatingParam id="16068" interp="linr"  time="0/1" value="0" leadInLength="0/1"  />
              <InterpolatingParam id="16069" interp="linr"  time="0/1" value="0" leadInLength="0/1"  />
              <InterpolatingParam id="16070" interp="linr"  time="0/1" value="0" leadInLength="0/1"  />
             </VectorParam>
            </Transformer>
            <Parameters>
             <VectorParam id="16071"  name="sourceCrop">
              <InterpolatingParam id="16072" interp="linr"  time="0/1" value="0" leadInLength="0/1"  />
              <InterpolatingParam id="16073" interp="linr"  time="0/1" value="0" leadInLength="0/1"  />
              <InterpolatingParam id="16074" interp="linr"  time="0/1" value="0" leadInLength="0/1"  />
              <InterpolatingParam id="16075" interp="linr"  time="0/1" value="0" leadInLength="0/1"  />
             </VectorParam>
             <VectorParam id="16076"  name="geometryCrop">
              <InterpolatingParam id="16077" interp="linr"  time="-9999999/1" value="0" leadInLength="0/1"  />
              <InterpolatingParam id="16078" interp="linr"  time="-9999999/1" value="0" leadInLength="0/1"  />
              <InterpolatingParam id="16079" interp="linr"  time="-9999999/1" value="0" leadInLength="0/1"  />
              <InterpolatingParam id="16080" interp="linr"  time="-9999999/1" value="0" leadInLength="0/1"  />
             </VectorParam>
             <InterpolatingParam id="16081" interp="linr"  time="-9999999/1" value="1" leadInLength="0/1"  name="opacity"/>
            </Parameters>
            <Attributes>
             <Attribute id="16082" value="" name="ident"/>
            </Attributes>
            <MetaData>
             <entry key="WinSubProjectDisplayName" val=""/>
            </MetaData>
            <ExtraData>
             <Entry key="ZoomPanBin">
              <ZoomPanBin id="16083"  >
               <ZoomPanKeyframes>
                <ZoomPanKeyframe id="16084" timeRangeEnd="-9999999/1" timeRangeDuration="0/1" interpolaterName=""  />
               </ZoomPanKeyframes>
              </ZoomPanBin>
             </Entry>
            </ExtraData>
           </VMFile>
           <VMFile id="16085" start="10149" duration="580" scalar="1/1" mediaStart="29557/1" mediaDuration="580/1" trackNumber="0" src="4" >
            <Transformer>
             <VectorParam id="16086"  name="translation">
              <InterpolatingParam id="16087" interp="linr"  time="-9999999/1" value="0" leadInLength="0/1"  />
              <InterpolatingParam id="16088" interp="linr"  time="-9999999/1" value="0" leadInLength="0/1"  />
              <InterpolatingParam id="16089" interp="linr"  time="-9999999/1" value="0" leadInLength="0/1"  />
             </VectorParam>
             <VectorParam id="16090"  name="rotation">
              <InterpolatingParam id="16091" interp="linr"  time="-9999999/1" value="0" leadInLength="0/1"  />
              <InterpolatingParam id="16092" interp="linr"  time="-9999999/1" value="0" leadInLength="0/1"  />
              <InterpolatingParam id="16093" interp="linr"  time="-9999999/1" value="0" leadInLength="0/1"  />
             </VectorParam>
             <VectorParam id="16094"  name="shear">
              <InterpolatingParam id="16095" interp="linr"  time="-9999999/1" value="0" leadInLength="0/1"  />
              <InterpolatingParam id="16096" interp="linr"  time="-9999999/1" value="0" leadInLength="0/1"  />
              <InterpolatingParam id="16097" interp="linr"  time="-9999999/1" value="0" leadInLength="0/1"  />
             </VectorParam>
             <VectorParam id="16098"  name="scale">
              <InterpolatingParam id="16099" interp="linr"  time="-9999999/1" value="1" leadInLength="0/1"  />
              <InterpolatingParam id="16100" interp="linr"  time="-9999999/1" value="1" leadInLength="0/1"  />
              <InterpolatingParam id="16101" interp="linr"  time="-9999999/1" value="1" leadInLength="0/1"  />
             </VectorParam>
             <VectorParam id="16102"  name="anchor">
              <InterpolatingParam id="16103" interp="linr"  time="0/1" value="0" leadInLength="0/1"  />
              <InterpolatingParam id="16104" interp="linr"  time="0/1" value="0" leadInLength="0/1"  />
              <InterpolatingParam id="16105" interp="linr"  time="0/1" value="0" leadInLength="0/1"  />
             </VectorParam>
            </Transformer>
            <Parameters>
             <VectorParam id="16106"  name="sourceCrop">
              <InterpolatingParam id="16107" interp="linr"  time="0/1" value="0" leadInLength="0/1"  />
              <InterpolatingParam id="16108" interp="linr"  time="0/1" value="0" leadInLength="0/1"  />
              <InterpolatingParam id="16109" interp="linr"  time="0/1" value="0" leadInLength="0/1"  />
              <InterpolatingParam id="16110" interp="linr"  time="0/1" value="0" leadInLength="0/1"  />
             </VectorParam>
             <VectorParam id="16111"  name="geometryCrop">
              <InterpolatingParam id="16112" interp="linr"  time="-9999999/1" value="0" leadInLength="0/1"  />
              <InterpolatingParam id="16113" interp="linr"  time="-9999999/1" value="0" leadInLength="0/1"  />
              <InterpolatingParam id="16114" interp="linr"  time="-9999999/1" value="0" leadInLength="0/1"  />
              <InterpolatingParam id="16115" interp="linr"  time="-9999999/1" value="0" leadInLength="0/1"  />
             </VectorParam>
             <InterpolatingParam id="16116" interp="linr"  time="-9999999/1" value="1" leadInLength="0/1"  name="opacity"/>
            </Parameters>
            <Attributes>
             <Attribute id="16117" value="" name="ident"/>
            </Attributes>
            <MetaData>
             <entry key="WinSubProjectDisplayName" val=""/>
            </MetaData>
            <ExtraData>
             <Entry key="ZoomPanBin">
              <ZoomPanBin id="16118"  >
               <ZoomPanKeyframes>
                <ZoomPanKeyframe id="16119" timeRangeEnd="-9999999/1" timeRangeDuration="0/1" interpolaterName=""  />
               </ZoomPanKeyframes>
              </ZoomPanBin>
             </Entry>
            </ExtraData>
           </VMFile>
           <VMFile id="16120" start="10729" duration="25" scalar="1/1" mediaStart="30200/1" mediaDuration="25/1" trackNumber="0" src="4" >
            <Transformer>
             <VectorParam id="16121"  name="translation">
              <InterpolatingParam id="16122" interp="linr"  time="-9999999/1" value="0" leadInLength="0/1"  />
              <InterpolatingParam id="16123" interp="linr"  time="-9999999/1" value="0" leadInLength="0/1"  />
              <InterpolatingParam id="16124" interp="linr"  time="-9999999/1" value="0" leadInLength="0/1"  />
             </VectorParam>
             <VectorParam id="16125"  name="rotation">
              <InterpolatingParam id="16126" interp="linr"  time="-9999999/1" value="0" leadInLength="0/1"  />
              <InterpolatingParam id="16127" interp="linr"  time="-9999999/1" value="0" leadInLength="0/1"  />
              <InterpolatingParam id="16128" interp="linr"  time="-9999999/1" value="0" leadInLength="0/1"  />
             </VectorParam>
             <VectorParam id="16129"  name="shear">
              <InterpolatingParam id="16130" interp="linr"  time="-9999999/1" value="0" leadInLength="0/1"  />
              <InterpolatingParam id="16131" interp="linr"  time="-9999999/1" value="0" leadInLength="0/1"  />
              <InterpolatingParam id="16132" interp="linr"  time="-9999999/1" value="0" leadInLength="0/1"  />
             </VectorParam>
             <VectorParam id="16133"  name="scale">
              <InterpolatingParam id="16134" interp="linr"  time="-9999999/1" value="1" leadInLength="0/1"  />
              <InterpolatingParam id="16135" interp="linr"  time="-9999999/1" value="1" leadInLength="0/1"  />
              <InterpolatingParam id="16136" interp="linr"  time="-9999999/1" value="1" leadInLength="0/1"  />
             </VectorParam>
             <VectorParam id="16137"  name="anchor">
              <InterpolatingParam id="16138" interp="linr"  time="0/1" value="0" leadInLength="0/1"  />
              <InterpolatingParam id="16139" interp="linr"  time="0/1" value="0" leadInLength="0/1"  />
              <InterpolatingParam id="16140" interp="linr"  time="0/1" value="0" leadInLength="0/1"  />
             </VectorParam>
            </Transformer>
            <Parameters>
             <VectorParam id="16141"  name="sourceCrop">
              <InterpolatingParam id="16142" interp="linr"  time="0/1" value="0" leadInLength="0/1"  />
              <InterpolatingParam id="16143" interp="linr"  time="0/1" value="0" leadInLength="0/1"  />
              <InterpolatingParam id="16144" interp="linr"  time="0/1" value="0" leadInLength="0/1"  />
              <InterpolatingParam id="16145" interp="linr"  time="0/1" value="0" leadInLength="0/1"  />
             </VectorParam>
             <VectorParam id="16146"  name="geometryCrop">
              <InterpolatingParam id="16147" interp="linr"  time="-9999999/1" value="0" leadInLength="0/1"  />
              <InterpolatingParam id="16148" interp="linr"  time="-9999999/1" value="0" leadInLength="0/1"  />
              <InterpolatingParam id="16149" interp="linr"  time="-9999999/1" value="0" leadInLength="0/1"  />
              <InterpolatingParam id="16150" interp="linr"  time="-9999999/1" value="0" leadInLength="0/1"  />
             </VectorParam>
             <InterpolatingParam id="16151" interp="linr"  time="-9999999/1" value="1" leadInLength="0/1"  name="opacity"/>
            </Parameters>
            <Attributes>
             <Attribute id="16152" value="" name="ident"/>
            </Attributes>
            <MetaData>
             <entry key="WinSubProjectDisplayName" val=""/>
            </MetaData>
            <ExtraData>
             <Entry key="ZoomPanBin">
              <ZoomPanBin id="16153"  >
               <ZoomPanKeyframes>
                <ZoomPanKeyframe id="16154" timeRangeEnd="-9999999/1" timeRangeDuration="0/1" interpolaterName=""  />
               </ZoomPanKeyframes>
              </ZoomPanBin>
             </Entry>
            </ExtraData>
           </VMFile>
           <VMFile id="16155" start="10754" duration="119" scalar="1/1" mediaStart="30368/1" mediaDuration="119/1" trackNumber="0" src="4" >
            <Transformer>
             <VectorParam id="16156"  name="translation">
              <InterpolatingParam id="16157" interp="linr"  time="-9999999/1" value="0" leadInLength="0/1"  />
              <InterpolatingParam id="16158" interp="linr"  time="-9999999/1" value="0" leadInLength="0/1"  />
              <InterpolatingParam id="16159" interp="linr"  time="-9999999/1" value="0" leadInLength="0/1"  />
             </VectorParam>
             <VectorParam id="16160"  name="rotation">
              <InterpolatingParam id="16161" interp="linr"  time="-9999999/1" value="0" leadInLength="0/1"  />
              <InterpolatingParam id="16162" interp="linr"  time="-9999999/1" value="0" leadInLength="0/1"  />
              <InterpolatingParam id="16163" interp="linr"  time="-9999999/1" value="0" leadInLength="0/1"  />
             </VectorParam>
             <VectorParam id="16164"  name="shear">
              <InterpolatingParam id="16165" interp="linr"  time="-9999999/1" value="0" leadInLength="0/1"  />
              <InterpolatingParam id="16166" interp="linr"  time="-9999999/1" value="0" leadInLength="0/1"  />
              <InterpolatingParam id="16167" interp="linr"  time="-9999999/1" value="0" leadInLength="0/1"  />
             </VectorParam>
             <VectorParam id="16168"  name="scale">
              <InterpolatingParam id="16169" interp="linr"  time="-9999999/1" value="1" leadInLength="0/1"  />
              <InterpolatingParam id="16170" interp="linr"  time="-9999999/1" value="1" leadInLength="0/1"  />
              <InterpolatingParam id="16171" interp="linr"  time="-9999999/1" value="1" leadInLength="0/1"  />
             </VectorParam>
             <VectorParam id="16172"  name="anchor">
              <InterpolatingParam id="16173" interp="linr"  time="0/1" value="0" leadInLength="0/1"  />
              <InterpolatingParam id="16174" interp="linr"  time="0/1" value="0" leadInLength="0/1"  />
              <InterpolatingParam id="16175" interp="linr"  time="0/1" value="0" leadInLength="0/1"  />
             </VectorParam>
            </Transformer>
            <Parameters>
             <VectorParam id="16176"  name="sourceCrop">
              <InterpolatingParam id="16177" interp="linr"  time="0/1" value="0" leadInLength="0/1"  />
              <InterpolatingParam id="16178" interp="linr"  time="0/1" value="0" leadInLength="0/1"  />
              <InterpolatingParam id="16179" interp="linr"  time="0/1" value="0" leadInLength="0/1"  />
              <InterpolatingParam id="16180" interp="linr"  time="0/1" value="0" leadInLength="0/1"  />
             </VectorParam>
             <VectorParam id="16181"  name="geometryCrop">
              <InterpolatingParam id="16182" interp="linr"  time="-9999999/1" value="0" leadInLength="0/1"  />
              <InterpolatingParam id="16183" interp="linr"  time="-9999999/1" value="0" leadInLength="0/1"  />
              <InterpolatingParam id="16184" interp="linr"  time="-9999999/1" value="0" leadInLength="0/1"  />
              <InterpolatingParam id="16185" interp="linr"  time="-9999999/1" value="0" leadInLength="0/1"  />
             </VectorParam>
             <InterpolatingParam id="16186" interp="linr"  time="-9999999/1" value="1" leadInLength="0/1"  name="opacity"/>
            </Parameters>
            <Attributes>
             <Attribute id="16187" value="" name="ident"/>
            </Attributes>
            <MetaData>
             <entry key="WinSubProjectDisplayName" val=""/>
            </MetaData>
            <ExtraData>
             <Entry key="ZoomPanBin">
              <ZoomPanBin id="16188"  >
               <ZoomPanKeyframes>
                <ZoomPanKeyframe id="16189" timeRangeEnd="-9999999/1" timeRangeDuration="0/1" interpolaterName=""  />
               </ZoomPanKeyframes>
              </ZoomPanBin>
             </Entry>
            </ExtraData>
           </VMFile>
           <VMFile id="16190" start="10873" duration="411" scalar="1/1" mediaStart="30756/1" mediaDuration="411/1" trackNumber="0" src="4" >
            <Transformer>
             <VectorParam id="16191"  name="translation">
              <InterpolatingParam id="16192" interp="linr"  time="-9999999/1" value="0" leadInLength="0/1"  />
              <InterpolatingParam id="16193" interp="linr"  time="-9999999/1" value="0" leadInLength="0/1"  />
              <InterpolatingParam id="16194" interp="linr"  time="-9999999/1" value="0" leadInLength="0/1"  />
             </VectorParam>
             <VectorParam id="16195"  name="rotation">
              <InterpolatingParam id="16196" interp="linr"  time="-9999999/1" value="0" leadInLength="0/1"  />
              <InterpolatingParam id="16197" interp="linr"  time="-9999999/1" value="0" leadInLength="0/1"  />
              <InterpolatingParam id="16198" interp="linr"  time="-9999999/1" value="0" leadInLength="0/1"  />
             </VectorParam>
             <VectorParam id="16199"  name="shear">
              <InterpolatingParam id="16200" interp="linr"  time="-9999999/1" value="0" leadInLength="0/1"  />
              <InterpolatingParam id="16201" interp="linr"  time="-9999999/1" value="0" leadInLength="0/1"  />
              <InterpolatingParam id="16202" interp="linr"  time="-9999999/1" value="0" leadInLength="0/1"  />
             </VectorParam>
             <VectorParam id="16203"  name="scale">
              <InterpolatingParam id="16204" interp="linr"  time="-9999999/1" value="1" leadInLength="0/1"  />
              <InterpolatingParam id="16205" interp="linr"  time="-9999999/1" value="1" leadInLength="0/1"  />
              <InterpolatingParam id="16206" interp="linr"  time="-9999999/1" value="1" leadInLength="0/1"  />
             </VectorParam>
             <VectorParam id="16207"  name="anchor">
              <InterpolatingParam id="16208" interp="linr"  time="0/1" value="0" leadInLength="0/1"  />
              <InterpolatingParam id="16209" interp="linr"  time="0/1" value="0" leadInLength="0/1"  />
              <InterpolatingParam id="16210" interp="linr"  time="0/1" value="0" leadInLength="0/1"  />
             </VectorParam>
            </Transformer>
            <Parameters>
             <VectorParam id="16211"  name="sourceCrop">
              <InterpolatingParam id="16212" interp="linr"  time="0/1" value="0" leadInLength="0/1"  />
              <InterpolatingParam id="16213" interp="linr"  time="0/1" value="0" leadInLength="0/1"  />
              <InterpolatingParam id="16214" interp="linr"  time="0/1" value="0" leadInLength="0/1"  />
              <InterpolatingParam id="16215" interp="linr"  time="0/1" value="0" leadInLength="0/1"  />
             </VectorParam>
             <VectorParam id="16216"  name="geometryCrop">
              <InterpolatingParam id="16217" interp="linr"  time="-9999999/1" value="0" leadInLength="0/1"  />
              <InterpolatingParam id="16218" interp="linr"  time="-9999999/1" value="0" leadInLength="0/1"  />
              <InterpolatingParam id="16219" interp="linr"  time="-9999999/1" value="0" leadInLength="0/1"  />
              <InterpolatingParam id="16220" interp="linr"  time="-9999999/1" value="0" leadInLength="0/1"  />
             </VectorParam>
             <InterpolatingParam id="16221" interp="linr"  time="-9999999/1" value="1" leadInLength="0/1"  name="opacity"/>
            </Parameters>
            <Attributes>
             <Attribute id="16222" value="" name="ident"/>
            </Attributes>
            <MetaData>
             <entry key="WinSubProjectDisplayName" val=""/>
            </MetaData>
            <ExtraData>
             <Entry key="ZoomPanBin">
              <ZoomPanBin id="16223"  >
               <ZoomPanKeyframes>
                <ZoomPanKeyframe id="16224" timeRangeEnd="-9999999/1" timeRangeDuration="0/1" interpolaterName=""  />
               </ZoomPanKeyframes>
              </ZoomPanBin>
             </Entry>
            </ExtraData>
           </VMFile>
          </Medias>
         </GenericTrack>
        </StitchedMedia>
        <StitchedMedia id="16225" start="4018" duration="332" scalar="14303416/21468271" mediaStart="38639888/5123" mediaDuration="1781866493/3575854" minMediaStart="0/1" >
         <Transformer>
          <VectorParam id="16226"  name="translation">
           <InterpolatingParam id="16227" interp="linr"  time="-9999999/1" value="0" leadInLength="0/1"  interpolater="leadin-linr"  />
           <InterpolatingParam id="16228" interp="linr"  time="-9999999/1" value="0" leadInLength="0/1"  interpolater="leadin-linr"  />
           <InterpolatingParam id="16229" interp="linr"  time="-9999999/1" value="0" leadInLength="0/1"  interpolater="leadin-linr"  />
          </VectorParam>
          <VectorParam id="16230"  name="rotation">
           <InterpolatingParam id="16231" interp="linr"  time="-9999999/1" value="0" leadInLength="0/1"  interpolater="leadin-linr"  />
           <InterpolatingParam id="16232" interp="linr"  time="-9999999/1" value="0" leadInLength="0/1"  interpolater="leadin-linr"  />
           <InterpolatingParam id="16233" interp="linr"  time="-9999999/1" value="0" leadInLength="0/1"  interpolater="leadin-linr"  />
          </VectorParam>
          <VectorParam id="16234"  name="shear">
           <InterpolatingParam id="16235" interp="linr"  time="-9999999/1" value="0" leadInLength="0/1"  interpolater="leadin-linr"  />
           <InterpolatingParam id="16236" interp="linr"  time="-9999999/1" value="0" leadInLength="0/1"  interpolater="leadin-linr"  />
           <InterpolatingParam id="16237" interp="linr"  time="-9999999/1" value="0" leadInLength="0/1"  interpolater="leadin-linr"  />
          </VectorParam>
          <VectorParam id="16238"  name="scale">
           <InterpolatingParam id="16239" interp="linr"  time="-9999999/1" value="1" leadInLength="0/1"  interpolater="leadin-linr"  />
           <InterpolatingParam id="16240" interp="linr"  time="-9999999/1" value="1" leadInLength="0/1"  interpolater="leadin-linr"  />
           <InterpolatingParam id="16241" interp="linr"  time="-9999999/1" value="1" leadInLength="0/1"  interpolater="leadin-linr"  />
          </VectorParam>
          <VectorParam id="16242"  name="anchor">
           <InterpolatingParam id="16243" interp="linr"  >
            <Keyframes>
            <Keyframe id="16244"  time="0/1" value="0" leadInLength="0/1"  />
            <Keyframe id="16245"  time="32931335377/7971776" value="0" leadInLength="0/1"  />
            <Keyframe id="16246"  time="4328/1" value="0" leadInLength="0/1"  />
            <Keyframe id="16247"  time="4457/1" value="0" leadInLength="0/1"  />
            <Keyframe id="16248"  time="46272102474146/7646783123" value="0" leadInLength="0/1"  />
            <Keyframe id="16249"  time="576460752303423488/75433993780101" value="0" leadInLength="0/1"  />
            <Keyframe id="16250"  time="600059199085213793/58267769831581" value="0" leadInLength="0/1"  />
            <Keyframe id="16251"  time="1199749202952939991/115623946533563" value="0" leadInLength="0/1"  />
            </Keyframes>
           </InterpolatingParam>
           <InterpolatingParam id="16252" interp="linr"  >
            <Keyframes>
            <Keyframe id="16253"  time="0/1" value="0" leadInLength="0/1"  />
            <Keyframe id="16254"  time="32931335377/7971776" value="0" leadInLength="0/1"  />
            <Keyframe id="16255"  time="4328/1" value="0" leadInLength="0/1"  />
            <Keyframe id="16256"  time="4457/1" value="0" leadInLength="0/1"  />
            <Keyframe id="16257"  time="46272102474146/7646783123" value="0" leadInLength="0/1"  />
            <Keyframe id="16258"  time="576460752303423488/75433993780101" value="0" leadInLength="0/1"  />
            <Keyframe id="16259"  time="600059199085213793/58267769831581" value="0" leadInLength="0/1"  />
            <Keyframe id="16260"  time="1199749202952939991/115623946533563" value="0" leadInLength="0/1"  />
            </Keyframes>
           </InterpolatingParam>
           <InterpolatingParam id="16261" interp="linr"  >
            <Keyframes>
            <Keyframe id="16262"  time="0/1" value="0" leadInLength="0/1"  />
            <Keyframe id="16263"  time="32931335377/7971776" value="0" leadInLength="0/1"  />
            <Keyframe id="16264"  time="4328/1" value="0" leadInLength="0/1"  />
            <Keyframe id="16265"  time="4457/1" value="0" leadInLength="0/1"  />
            <Keyframe id="16266"  time="46272102474146/7646783123" value="0" leadInLength="0/1"  />
            <Keyframe id="16267"  time="576460752303423488/75433993780101" value="0" leadInLength="0/1"  />
            <Keyframe id="16268"  time="600059199085213793/58267769831581" value="0" leadInLength="0/1"  />
            <Keyframe id="16269"  time="1199749202952939991/115623946533563" value="0" leadInLength="0/1"  />
            </Keyframes>
           </InterpolatingParam>
          </VectorParam>
         </Transformer>
         <Parameters>
          <VectorParam id="16270"  name="sourceCrop">
           <InterpolatingParam id="16271" interp="linr"  >
            <Keyframes>
            <Keyframe id="16272"  time="0/1" value="0" leadInLength="0/1"  />
            <Keyframe id="16273"  time="32931335377/7971776" value="0" leadInLength="0/1"  />
            <Keyframe id="16274"  time="4328/1" value="0" leadInLength="0/1"  />
            <Keyframe id="16275"  time="4457/1" value="0" leadInLength="0/1"  />
            <Keyframe id="16276"  time="46272102474146/7646783123" value="0" leadInLength="0/1"  />
            <Keyframe id="16277"  time="576460752303423488/75433993780101" value="0" leadInLength="0/1"  />
            <Keyframe id="16278"  time="600059199085213793/58267769831581" value="0" leadInLength="0/1"  />
            <Keyframe id="16279"  time="1199749202952939991/115623946533563" value="0" leadInLength="0/1"  />
            </Keyframes>
           </InterpolatingParam>
           <InterpolatingParam id="16280" interp="linr"  >
            <Keyframes>
            <Keyframe id="16281"  time="0/1" value="0" leadInLength="0/1"  />
            <Keyframe id="16282"  time="32931335377/7971776" value="0" leadInLength="0/1"  />
            <Keyframe id="16283"  time="4328/1" value="0" leadInLength="0/1"  />
            <Keyframe id="16284"  time="4457/1" value="0" leadInLength="0/1"  />
            <Keyframe id="16285"  time="46272102474146/7646783123" value="0" leadInLength="0/1"  />
            <Keyframe id="16286"  time="576460752303423488/75433993780101" value="0" leadInLength="0/1"  />
            <Keyframe id="16287"  time="600059199085213793/58267769831581" value="0" leadInLength="0/1"  />
            <Keyframe id="16288"  time="1199749202952939991/115623946533563" value="0" leadInLength="0/1"  />
            </Keyframes>
           </InterpolatingParam>
           <InterpolatingParam id="16289" interp="linr"  >
            <Keyframes>
            <Keyframe id="16290"  time="0/1" value="0" leadInLength="0/1"  />
            <Keyframe id="16291"  time="32931335377/7971776" value="0" leadInLength="0/1"  />
            <Keyframe id="16292"  time="4328/1" value="0" leadInLength="0/1"  />
            <Keyframe id="16293"  time="4457/1" value="0" leadInLength="0/1"  />
            <Keyframe id="16294"  time="46272102474146/7646783123" value="0" leadInLength="0/1"  />
            <Keyframe id="16295"  time="576460752303423488/75433993780101" value="0" leadInLength="0/1"  />
            <Keyframe id="16296"  time="600059199085213793/58267769831581" value="0" leadInLength="0/1"  />
            <Keyframe id="16297"  time="1199749202952939991/115623946533563" value="0" leadInLength="0/1"  />
            </Keyframes>
           </InterpolatingParam>
           <InterpolatingParam id="16298" interp="linr"  >
            <Keyframes>
            <Keyframe id="16299"  time="0/1" value="0" leadInLength="0/1"  />
            <Keyframe id="16300"  time="32931335377/7971776" value="0" leadInLength="0/1"  />
            <Keyframe id="16301"  time="4328/1" value="0" leadInLength="0/1"  />
            <Keyframe id="16302"  time="4457/1" value="0" leadInLength="0/1"  />
            <Keyframe id="16303"  time="46272102474146/7646783123" value="0" leadInLength="0/1"  />
            <Keyframe id="16304"  time="576460752303423488/75433993780101" value="0" leadInLength="0/1"  />
            <Keyframe id="16305"  time="600059199085213793/58267769831581" value="0" leadInLength="0/1"  />
            <Keyframe id="16306"  time="1199749202952939991/115623946533563" value="0" leadInLength="0/1"  />
            </Keyframes>
           </InterpolatingParam>
          </VectorParam>
          <VectorParam id="16307"  name="geometryCrop">
           <InterpolatingParam id="16308" interp="linr"  time="-9999999/1" value="0" leadInLength="0/1"  interpolater="leadin-linr"  />
           <InterpolatingParam id="16309" interp="linr"  time="-9999999/1" value="0" leadInLength="0/1"  interpolater="leadin-linr"  />
           <InterpolatingParam id="16310" interp="linr"  time="-9999999/1" value="0" leadInLength="0/1"  interpolater="leadin-linr"  />
           <InterpolatingParam id="16311" interp="linr"  time="-9999999/1" value="0" leadInLength="0/1"  interpolater="leadin-linr"  />
          </VectorParam>
          <InterpolatingParam id="16312" interp="linr"  time="-9999999/1" value="1" leadInLength="0/1"  interpolater="leadin-linr"  name="opacity"/>
          <InterpolatingParam id="16313" interp="linr"  time="0/1" value="1" leadInLength="0/1"  name="cursorOpacity"/>
          <InterpolatingParam id="16314" interp="linr"  time="0/1" value="1" leadInLength="0/1"  name="cursorScale"/>
          <Parameter id="16315"  name="captions"/>
         </Parameters>
         <Attributes>
          <Attribute id="16316" value="" name="ident"/>
         </Attributes>
         <MetaData>
          <entry key="WinSubProjectDisplayName" val=""/>
         </MetaData>
         <ExtraData>
          <Entry key="ZoomPanBin">
           <ZoomPanBin id="16317"  >
            <ZoomPanKeyframes>
             <ZoomPanKeyframe id="16318" timeRangeEnd="-9999999/1" timeRangeDuration="0/1" interpolaterName="linr"  />
            </ZoomPanKeyframes>
           </ZoomPanBin>
          </Entry>
          <Entry key="CursorEffectBin">
           <CursorEffectBin id="16319"  >
            <CursorEffectKeyframes>
            </CursorEffectKeyframes>
           </CursorEffectBin>
          </Entry>
         </ExtraData>
         <GenericTrack id="16320"  >
          <Attributes>
           <Attribute id="16321" value="" name="ident"/>
           <Attribute id="16322" value="0" name="audioMuted"/>
           <Attribute id="16323" value="0" name="videoHidden"/>
          </Attributes>
          <MetaData>
           <entry key="IsLocked" val="False"/>
           <entry key="WinTrackHeight" val="0"/>
          </MetaData>
          <Medias>
           <VMFile id="16324" start="0" duration="4131" scalar="1/1" mediaStart="0/1" mediaDuration="4131/1" trackNumber="0" src="4" >
            <Transformer>
             <VectorParam id="16325"  name="translation">
              <InterpolatingParam id="16326" interp="linr"  time="-9999999/1" value="0" leadInLength="0/1"  />
              <InterpolatingParam id="16327" interp="linr"  time="-9999999/1" value="0" leadInLength="0/1"  />
              <InterpolatingParam id="16328" interp="linr"  time="-9999999/1" value="0" leadInLength="0/1"  />
             </VectorParam>
             <VectorParam id="16329"  name="rotation">
              <InterpolatingParam id="16330" interp="linr"  time="-9999999/1" value="0" leadInLength="0/1"  />
              <InterpolatingParam id="16331" interp="linr"  time="-9999999/1" value="0" leadInLength="0/1"  />
              <InterpolatingParam id="16332" interp="linr"  time="-9999999/1" value="0" leadInLength="0/1"  />
             </VectorParam>
             <VectorParam id="16333"  name="shear">
              <InterpolatingParam id="16334" interp="linr"  time="-9999999/1" value="0" leadInLength="0/1"  />
              <InterpolatingParam id="16335" interp="linr"  time="-9999999/1" value="0" leadInLength="0/1"  />
              <InterpolatingParam id="16336" interp="linr"  time="-9999999/1" value="0" leadInLength="0/1"  />
             </VectorParam>
             <VectorParam id="16337"  name="scale">
              <InterpolatingParam id="16338" interp="linr"  time="-9999999/1" value="1" leadInLength="0/1"  />
              <InterpolatingParam id="16339" interp="linr"  time="-9999999/1" value="1" leadInLength="0/1"  />
              <InterpolatingParam id="16340" interp="linr"  time="-9999999/1" value="1" leadInLength="0/1"  />
             </VectorParam>
             <VectorParam id="16341"  name="anchor">
              <InterpolatingParam id="16342" interp="linr"  time="0/1" value="0" leadInLength="0/1"  />
              <InterpolatingParam id="16343" interp="linr"  time="0/1" value="0" leadInLength="0/1"  />
              <InterpolatingParam id="16344" interp="linr"  time="0/1" value="0" leadInLength="0/1"  />
             </VectorParam>
            </Transformer>
            <Parameters>
             <VectorParam id="16345"  name="sourceCrop">
              <InterpolatingParam id="16346" interp="linr"  time="0/1" value="0" leadInLength="0/1"  />
              <InterpolatingParam id="16347" interp="linr"  time="0/1" value="0" leadInLength="0/1"  />
              <InterpolatingParam id="16348" interp="linr"  time="0/1" value="0" leadInLength="0/1"  />
              <InterpolatingParam id="16349" interp="linr"  time="0/1" value="0" leadInLength="0/1"  />
             </VectorParam>
             <VectorParam id="16350"  name="geometryCrop">
              <InterpolatingParam id="16351" interp="linr"  time="-9999999/1" value="0" leadInLength="0/1"  />
              <InterpolatingParam id="16352" interp="linr"  time="-9999999/1" value="0" leadInLength="0/1"  />
              <InterpolatingParam id="16353" interp="linr"  time="-9999999/1" value="0" leadInLength="0/1"  />
              <InterpolatingParam id="16354" interp="linr"  time="-9999999/1" value="0" leadInLength="0/1"  />
             </VectorParam>
             <InterpolatingParam id="16355" interp="linr"  time="-9999999/1" value="1" leadInLength="0/1"  name="opacity"/>
            </Parameters>
            <Attributes>
             <Attribute id="16356" value="" name="ident"/>
            </Attributes>
            <MetaData>
             <entry key="WinSubProjectDisplayName" val=""/>
            </MetaData>
            <ExtraData>
             <Entry key="ZoomPanBin">
              <ZoomPanBin id="16357"  >
               <ZoomPanKeyframes>
                <ZoomPanKeyframe id="16358" timeRangeEnd="-9999999/1" timeRangeDuration="0/1" interpolaterName=""  />
               </ZoomPanKeyframes>
              </ZoomPanBin>
             </Entry>
            </ExtraData>
           </VMFile>
           <IMFile id="16359" start="4131" duration="12" scalar="1/1" mediaStart="4130/1" mediaDuration="1/1" trackNumber="0" src="4" trimStartSum="0/1" >
            <Transformer>
             <VectorParam id="16360"  name="translation">
              <InterpolatingParam id="16361" interp="linr"  time="-9999999/1" value="0" leadInLength="0/1"  />
              <InterpolatingParam id="16362" interp="linr"  time="-9999999/1" value="0" leadInLength="0/1"  />
              <InterpolatingParam id="16363" interp="linr"  time="-9999999/1" value="0" leadInLength="0/1"  />
             </VectorParam>
             <VectorParam id="16364"  name="rotation">
              <InterpolatingParam id="16365" interp="linr"  time="-9999999/1" value="0" leadInLength="0/1"  />
              <InterpolatingParam id="16366" interp="linr"  time="-9999999/1" value="0" leadInLength="0/1"  />
              <InterpolatingParam id="16367" interp="linr"  time="-9999999/1" value="0" leadInLength="0/1"  />
             </VectorParam>
             <VectorParam id="16368"  name="shear">
              <InterpolatingParam id="16369" interp="linr"  time="-9999999/1" value="0" leadInLength="0/1"  />
              <InterpolatingParam id="16370" interp="linr"  time="-9999999/1" value="0" leadInLength="0/1"  />
              <InterpolatingParam id="16371" interp="linr"  time="-9999999/1" value="0" leadInLength="0/1"  />
             </VectorParam>
             <VectorParam id="16372"  name="scale">
              <InterpolatingParam id="16373" interp="linr"  time="-9999999/1" value="1" leadInLength="0/1"  />
              <InterpolatingParam id="16374" interp="linr"  time="-9999999/1" value="1" leadInLength="0/1"  />
              <InterpolatingParam id="16375" interp="linr"  time="-9999999/1" value="1" leadInLength="0/1"  />
             </VectorParam>
             <VectorParam id="16376"  name="anchor">
              <InterpolatingParam id="16377" interp="linr"  time="0/1" value="0" leadInLength="0/1"  />
              <InterpolatingParam id="16378" interp="linr"  time="0/1" value="0" leadInLength="0/1"  />
              <InterpolatingParam id="16379" interp="linr"  time="0/1" value="0" leadInLength="0/1"  />
             </VectorParam>
            </Transformer>
            <Parameters>
             <VectorParam id="16380"  name="sourceCrop">
              <InterpolatingParam id="16381" interp="linr"  time="0/1" value="0" leadInLength="0/1"  />
              <InterpolatingParam id="16382" interp="linr"  time="0/1" value="0" leadInLength="0/1"  />
              <InterpolatingParam id="16383" interp="linr"  time="0/1" value="0" leadInLength="0/1"  />
              <InterpolatingParam id="16384" interp="linr"  time="0/1" value="0" leadInLength="0/1"  />
             </VectorParam>
             <VectorParam id="16385"  name="geometryCrop">
              <InterpolatingParam id="16386" interp="linr"  time="-9999999/1" value="0" leadInLength="0/1"  />
              <InterpolatingParam id="16387" interp="linr"  time="-9999999/1" value="0" leadInLength="0/1"  />
              <InterpolatingParam id="16388" interp="linr"  time="-9999999/1" value="0" leadInLength="0/1"  />
              <InterpolatingParam id="16389" interp="linr"  time="-9999999/1" value="0" leadInLength="0/1"  />
             </VectorParam>
             <InterpolatingParam id="16390" interp="linr"  time="-9999999/1" value="1" leadInLength="0/1"  name="opacity"/>
            </Parameters>
            <Attributes>
             <Attribute id="16391" value="" name="ident"/>
            </Attributes>
            <MetaData>
             <entry key="WinSubProjectDisplayName" val=""/>
            </MetaData>
            <ExtraData>
             <Entry key="ZoomPanBin">
              <ZoomPanBin id="16392"  >
               <ZoomPanKeyframes>
                <ZoomPanKeyframe id="16393" timeRangeEnd="-9999999/1" timeRangeDuration="0/1" interpolaterName=""  />
               </ZoomPanKeyframes>
              </ZoomPanBin>
             </Entry>
            </ExtraData>
           </IMFile>
           <VMFile id="16394" start="4143" duration="185" scalar="1/1" mediaStart="4130/1" mediaDuration="185/1" trackNumber="0" src="4" >
            <Transformer>
             <VectorParam id="16395"  name="translation">
              <InterpolatingParam id="16396" interp="linr"  time="-9999999/1" value="0" leadInLength="0/1"  />
              <InterpolatingParam id="16397" interp="linr"  time="-9999999/1" value="0" leadInLength="0/1"  />
              <InterpolatingParam id="16398" interp="linr"  time="-9999999/1" value="0" leadInLength="0/1"  />
             </VectorParam>
             <VectorParam id="16399"  name="rotation">
              <InterpolatingParam id="16400" interp="linr"  time="-9999999/1" value="0" leadInLength="0/1"  />
              <InterpolatingParam id="16401" interp="linr"  time="-9999999/1" value="0" leadInLength="0/1"  />
              <InterpolatingParam id="16402" interp="linr"  time="-9999999/1" value="0" leadInLength="0/1"  />
             </VectorParam>
             <VectorParam id="16403"  name="shear">
              <InterpolatingParam id="16404" interp="linr"  time="-9999999/1" value="0" leadInLength="0/1"  />
              <InterpolatingParam id="16405" interp="linr"  time="-9999999/1" value="0" leadInLength="0/1"  />
              <InterpolatingParam id="16406" interp="linr"  time="-9999999/1" value="0" leadInLength="0/1"  />
             </VectorParam>
             <VectorParam id="16407"  name="scale">
              <InterpolatingParam id="16408" interp="linr"  time="-9999999/1" value="1" leadInLength="0/1"  />
              <InterpolatingParam id="16409" interp="linr"  time="-9999999/1" value="1" leadInLength="0/1"  />
              <InterpolatingParam id="16410" interp="linr"  time="-9999999/1" value="1" leadInLength="0/1"  />
             </VectorParam>
             <VectorParam id="16411"  name="anchor">
              <InterpolatingParam id="16412" interp="linr"  time="0/1" value="0" leadInLength="0/1"  />
              <InterpolatingParam id="16413" interp="linr"  time="0/1" value="0" leadInLength="0/1"  />
              <InterpolatingParam id="16414" interp="linr"  time="0/1" value="0" leadInLength="0/1"  />
             </VectorParam>
            </Transformer>
            <Parameters>
             <VectorParam id="16415"  name="sourceCrop">
              <InterpolatingParam id="16416" interp="linr"  time="0/1" value="0" leadInLength="0/1"  />
              <InterpolatingParam id="16417" interp="linr"  time="0/1" value="0" leadInLength="0/1"  />
              <InterpolatingParam id="16418" interp="linr"  time="0/1" value="0" leadInLength="0/1"  />
              <InterpolatingParam id="16419" interp="linr"  time="0/1" value="0" leadInLength="0/1"  />
             </VectorParam>
             <VectorParam id="16420"  name="geometryCrop">
              <InterpolatingParam id="16421" interp="linr"  time="-9999999/1" value="0" leadInLength="0/1"  />
              <InterpolatingParam id="16422" interp="linr"  time="-9999999/1" value="0" leadInLength="0/1"  />
              <InterpolatingParam id="16423" interp="linr"  time="-9999999/1" value="0" leadInLength="0/1"  />
              <InterpolatingParam id="16424" interp="linr"  time="-9999999/1" value="0" leadInLength="0/1"  />
             </VectorParam>
             <InterpolatingParam id="16425" interp="linr"  time="-9999999/1" value="1" leadInLength="0/1"  name="opacity"/>
            </Parameters>
            <Attributes>
             <Attribute id="16426" value="" name="ident"/>
            </Attributes>
            <MetaData>
             <entry key="WinSubProjectDisplayName" val=""/>
            </MetaData>
            <ExtraData>
             <Entry key="ZoomPanBin">
              <ZoomPanBin id="16427"  >
               <ZoomPanKeyframes>
                <ZoomPanKeyframe id="16428" timeRangeEnd="-9999999/1" timeRangeDuration="0/1" interpolaterName=""  />
               </ZoomPanKeyframes>
              </ZoomPanBin>
             </Entry>
            </ExtraData>
           </VMFile>
           <IMFile id="16429" start="4328" duration="3" scalar="1/1" mediaStart="4315/1" mediaDuration="1/1" trackNumber="0" src="4" trimStartSum="0/1" >
            <Transformer>
             <VectorParam id="16430"  name="translation">
              <InterpolatingParam id="16431" interp="linr"  time="-9999999/1" value="0" leadInLength="0/1"  />
              <InterpolatingParam id="16432" interp="linr"  time="-9999999/1" value="0" leadInLength="0/1"  />
              <InterpolatingParam id="16433" interp="linr"  time="-9999999/1" value="0" leadInLength="0/1"  />
             </VectorParam>
             <VectorParam id="16434"  name="rotation">
              <InterpolatingParam id="16435" interp="linr"  time="-9999999/1" value="0" leadInLength="0/1"  />
              <InterpolatingParam id="16436" interp="linr"  time="-9999999/1" value="0" leadInLength="0/1"  />
              <InterpolatingParam id="16437" interp="linr"  time="-9999999/1" value="0" leadInLength="0/1"  />
             </VectorParam>
             <VectorParam id="16438"  name="shear">
              <InterpolatingParam id="16439" interp="linr"  time="-9999999/1" value="0" leadInLength="0/1"  />
              <InterpolatingParam id="16440" interp="linr"  time="-9999999/1" value="0" leadInLength="0/1"  />
              <InterpolatingParam id="16441" interp="linr"  time="-9999999/1" value="0" leadInLength="0/1"  />
             </VectorParam>
             <VectorParam id="16442"  name="scale">
              <InterpolatingParam id="16443" interp="linr"  time="-9999999/1" value="1" leadInLength="0/1"  />
              <InterpolatingParam id="16444" interp="linr"  time="-9999999/1" value="1" leadInLength="0/1"  />
              <InterpolatingParam id="16445" interp="linr"  time="-9999999/1" value="1" leadInLength="0/1"  />
             </VectorParam>
             <VectorParam id="16446"  name="anchor">
              <InterpolatingParam id="16447" interp="linr"  time="0/1" value="0" leadInLength="0/1"  />
              <InterpolatingParam id="16448" interp="linr"  time="0/1" value="0" leadInLength="0/1"  />
              <InterpolatingParam id="16449" interp="linr"  time="0/1" value="0" leadInLength="0/1"  />
             </VectorParam>
            </Transformer>
            <Parameters>
             <VectorParam id="16450"  name="sourceCrop">
              <InterpolatingParam id="16451" interp="linr"  time="0/1" value="0" leadInLength="0/1"  />
              <InterpolatingParam id="16452" interp="linr"  time="0/1" value="0" leadInLength="0/1"  />
              <InterpolatingParam id="16453" interp="linr"  time="0/1" value="0" leadInLength="0/1"  />
              <InterpolatingParam id="16454" interp="linr"  time="0/1" value="0" leadInLength="0/1"  />
             </VectorParam>
             <VectorParam id="16455"  name="geometryCrop">
              <InterpolatingParam id="16456" interp="linr"  time="-9999999/1" value="0" leadInLength="0/1"  />
              <InterpolatingParam id="16457" interp="linr"  time="-9999999/1" value="0" leadInLength="0/1"  />
              <InterpolatingParam id="16458" interp="linr"  time="-9999999/1" value="0" leadInLength="0/1"  />
              <InterpolatingParam id="16459" interp="linr"  time="-9999999/1" value="0" leadInLength="0/1"  />
             </VectorParam>
             <InterpolatingParam id="16460" interp="linr"  time="-9999999/1" value="1" leadInLength="0/1"  name="opacity"/>
            </Parameters>
            <Attributes>
             <Attribute id="16461" value="" name="ident"/>
            </Attributes>
            <MetaData>
             <entry key="WinSubProjectDisplayName" val=""/>
            </MetaData>
            <ExtraData>
             <Entry key="ZoomPanBin">
              <ZoomPanBin id="16462"  >
               <ZoomPanKeyframes>
                <ZoomPanKeyframe id="16463" timeRangeEnd="-9999999/1" timeRangeDuration="0/1" interpolaterName=""  />
               </ZoomPanKeyframes>
              </ZoomPanBin>
             </Entry>
            </ExtraData>
           </IMFile>
           <VMFile id="16464" start="4331" duration="31" scalar="1/1" mediaStart="4315/1" mediaDuration="31/1" trackNumber="0" src="4" >
            <Transformer>
             <VectorParam id="16465"  name="translation">
              <InterpolatingParam id="16466" interp="linr"  time="-9999999/1" value="0" leadInLength="0/1"  />
              <InterpolatingParam id="16467" interp="linr"  time="-9999999/1" value="0" leadInLength="0/1"  />
              <InterpolatingParam id="16468" interp="linr"  time="-9999999/1" value="0" leadInLength="0/1"  />
             </VectorParam>
             <VectorParam id="16469"  name="rotation">
              <InterpolatingParam id="16470" interp="linr"  time="-9999999/1" value="0" leadInLength="0/1"  />
              <InterpolatingParam id="16471" interp="linr"  time="-9999999/1" value="0" leadInLength="0/1"  />
              <InterpolatingParam id="16472" interp="linr"  time="-9999999/1" value="0" leadInLength="0/1"  />
             </VectorParam>
             <VectorParam id="16473"  name="shear">
              <InterpolatingParam id="16474" interp="linr"  time="-9999999/1" value="0" leadInLength="0/1"  />
              <InterpolatingParam id="16475" interp="linr"  time="-9999999/1" value="0" leadInLength="0/1"  />
              <InterpolatingParam id="16476" interp="linr"  time="-9999999/1" value="0" leadInLength="0/1"  />
             </VectorParam>
             <VectorParam id="16477"  name="scale">
              <InterpolatingParam id="16478" interp="linr"  time="-9999999/1" value="1" leadInLength="0/1"  />
              <InterpolatingParam id="16479" interp="linr"  time="-9999999/1" value="1" leadInLength="0/1"  />
              <InterpolatingParam id="16480" interp="linr"  time="-9999999/1" value="1" leadInLength="0/1"  />
             </VectorParam>
             <VectorParam id="16481"  name="anchor">
              <InterpolatingParam id="16482" interp="linr"  time="0/1" value="0" leadInLength="0/1"  />
              <InterpolatingParam id="16483" interp="linr"  time="0/1" value="0" leadInLength="0/1"  />
              <InterpolatingParam id="16484" interp="linr"  time="0/1" value="0" leadInLength="0/1"  />
             </VectorParam>
            </Transformer>
            <Parameters>
             <VectorParam id="16485"  name="sourceCrop">
              <InterpolatingParam id="16486" interp="linr"  time="0/1" value="0" leadInLength="0/1"  />
              <InterpolatingParam id="16487" interp="linr"  time="0/1" value="0" leadInLength="0/1"  />
              <InterpolatingParam id="16488" interp="linr"  time="0/1" value="0" leadInLength="0/1"  />
              <InterpolatingParam id="16489" interp="linr"  time="0/1" value="0" leadInLength="0/1"  />
             </VectorParam>
             <VectorParam id="16490"  name="geometryCrop">
              <InterpolatingParam id="16491" interp="linr"  time="-9999999/1" value="0" leadInLength="0/1"  />
              <InterpolatingParam id="16492" interp="linr"  time="-9999999/1" value="0" leadInLength="0/1"  />
              <InterpolatingParam id="16493" interp="linr"  time="-9999999/1" value="0" leadInLength="0/1"  />
              <InterpolatingParam id="16494" interp="linr"  time="-9999999/1" value="0" leadInLength="0/1"  />
             </VectorParam>
             <InterpolatingParam id="16495" interp="linr"  time="-9999999/1" value="1" leadInLength="0/1"  name="opacity"/>
            </Parameters>
            <Attributes>
             <Attribute id="16496" value="" name="ident"/>
            </Attributes>
            <MetaData>
             <entry key="WinSubProjectDisplayName" val=""/>
            </MetaData>
            <ExtraData>
             <Entry key="ZoomPanBin">
              <ZoomPanBin id="16497"  >
               <ZoomPanKeyframes>
                <ZoomPanKeyframe id="16498" timeRangeEnd="-9999999/1" timeRangeDuration="0/1" interpolaterName=""  />
               </ZoomPanKeyframes>
              </ZoomPanBin>
             </Entry>
            </ExtraData>
           </VMFile>
           <VMFile id="16499" start="4362" duration="95" scalar="1/1" mediaStart="4751/1" mediaDuration="95/1" trackNumber="0" src="4" >
            <Transformer>
             <VectorParam id="16500"  name="translation">
              <InterpolatingParam id="16501" interp="linr"  time="-9999999/1" value="0" leadInLength="0/1"  />
              <InterpolatingParam id="16502" interp="linr"  time="-9999999/1" value="0" leadInLength="0/1"  />
              <InterpolatingParam id="16503" interp="linr"  time="-9999999/1" value="0" leadInLength="0/1"  />
             </VectorParam>
             <VectorParam id="16504"  name="rotation">
              <InterpolatingParam id="16505" interp="linr"  time="-9999999/1" value="0" leadInLength="0/1"  />
              <InterpolatingParam id="16506" interp="linr"  time="-9999999/1" value="0" leadInLength="0/1"  />
              <InterpolatingParam id="16507" interp="linr"  time="-9999999/1" value="0" leadInLength="0/1"  />
             </VectorParam>
             <VectorParam id="16508"  name="shear">
              <InterpolatingParam id="16509" interp="linr"  time="-9999999/1" value="0" leadInLength="0/1"  />
              <InterpolatingParam id="16510" interp="linr"  time="-9999999/1" value="0" leadInLength="0/1"  />
              <InterpolatingParam id="16511" interp="linr"  time="-9999999/1" value="0" leadInLength="0/1"  />
             </VectorParam>
             <VectorParam id="16512"  name="scale">
              <InterpolatingParam id="16513" interp="linr"  time="-9999999/1" value="1" leadInLength="0/1"  />
              <InterpolatingParam id="16514" interp="linr"  time="-9999999/1" value="1" leadInLength="0/1"  />
              <InterpolatingParam id="16515" interp="linr"  time="-9999999/1" value="1" leadInLength="0/1"  />
             </VectorParam>
             <VectorParam id="16516"  name="anchor">
              <InterpolatingParam id="16517" interp="linr"  time="0/1" value="0" leadInLength="0/1"  />
              <InterpolatingParam id="16518" interp="linr"  time="0/1" value="0" leadInLength="0/1"  />
              <InterpolatingParam id="16519" interp="linr"  time="0/1" value="0" leadInLength="0/1"  />
             </VectorParam>
            </Transformer>
            <Parameters>
             <VectorParam id="16520"  name="sourceCrop">
              <InterpolatingParam id="16521" interp="linr"  time="0/1" value="0" leadInLength="0/1"  />
              <InterpolatingParam id="16522" interp="linr"  time="0/1" value="0" leadInLength="0/1"  />
              <InterpolatingParam id="16523" interp="linr"  time="0/1" value="0" leadInLength="0/1"  />
              <InterpolatingParam id="16524" interp="linr"  time="0/1" value="0" leadInLength="0/1"  />
             </VectorParam>
             <VectorParam id="16525"  name="geometryCrop">
              <InterpolatingParam id="16526" interp="linr"  time="-9999999/1" value="0" leadInLength="0/1"  />
              <InterpolatingParam id="16527" interp="linr"  time="-9999999/1" value="0" leadInLength="0/1"  />
              <InterpolatingParam id="16528" interp="linr"  time="-9999999/1" value="0" leadInLength="0/1"  />
              <InterpolatingParam id="16529" interp="linr"  time="-9999999/1" value="0" leadInLength="0/1"  />
             </VectorParam>
             <InterpolatingParam id="16530" interp="linr"  time="-9999999/1" value="1" leadInLength="0/1"  name="opacity"/>
            </Parameters>
            <Attributes>
             <Attribute id="16531" value="" name="ident"/>
            </Attributes>
            <MetaData>
             <entry key="WinSubProjectDisplayName" val=""/>
            </MetaData>
            <ExtraData>
             <Entry key="ZoomPanBin">
              <ZoomPanBin id="16532"  >
               <ZoomPanKeyframes>
                <ZoomPanKeyframe id="16533" timeRangeEnd="-9999999/1" timeRangeDuration="0/1" interpolaterName=""  />
               </ZoomPanKeyframes>
              </ZoomPanBin>
             </Entry>
            </ExtraData>
           </VMFile>
           <IMFile id="16534" start="4457" duration="270" scalar="1/1" mediaStart="4846/1" mediaDuration="1/1" trackNumber="0" src="4" trimStartSum="0/1" >
            <Transformer>
             <VectorParam id="16535"  name="translation">
              <InterpolatingParam id="16536" interp="linr"  time="-9999999/1" value="0" leadInLength="0/1"  />
              <InterpolatingParam id="16537" interp="linr"  time="-9999999/1" value="0" leadInLength="0/1"  />
              <InterpolatingParam id="16538" interp="linr"  time="-9999999/1" value="0" leadInLength="0/1"  />
             </VectorParam>
             <VectorParam id="16539"  name="rotation">
              <InterpolatingParam id="16540" interp="linr"  time="-9999999/1" value="0" leadInLength="0/1"  />
              <InterpolatingParam id="16541" interp="linr"  time="-9999999/1" value="0" leadInLength="0/1"  />
              <InterpolatingParam id="16542" interp="linr"  time="-9999999/1" value="0" leadInLength="0/1"  />
             </VectorParam>
             <VectorParam id="16543"  name="shear">
              <InterpolatingParam id="16544" interp="linr"  time="-9999999/1" value="0" leadInLength="0/1"  />
              <InterpolatingParam id="16545" interp="linr"  time="-9999999/1" value="0" leadInLength="0/1"  />
              <InterpolatingParam id="16546" interp="linr"  time="-9999999/1" value="0" leadInLength="0/1"  />
             </VectorParam>
             <VectorParam id="16547"  name="scale">
              <InterpolatingParam id="16548" interp="linr"  time="-9999999/1" value="1" leadInLength="0/1"  />
              <InterpolatingParam id="16549" interp="linr"  time="-9999999/1" value="1" leadInLength="0/1"  />
              <InterpolatingParam id="16550" interp="linr"  time="-9999999/1" value="1" leadInLength="0/1"  />
             </VectorParam>
             <VectorParam id="16551"  name="anchor">
              <InterpolatingParam id="16552" interp="linr"  time="0/1" value="0" leadInLength="0/1"  />
              <InterpolatingParam id="16553" interp="linr"  time="0/1" value="0" leadInLength="0/1"  />
              <InterpolatingParam id="16554" interp="linr"  time="0/1" value="0" leadInLength="0/1"  />
             </VectorParam>
            </Transformer>
            <Parameters>
             <VectorParam id="16555"  name="sourceCrop">
              <InterpolatingParam id="16556" interp="linr"  time="0/1" value="0" leadInLength="0/1"  />
              <InterpolatingParam id="16557" interp="linr"  time="0/1" value="0" leadInLength="0/1"  />
              <InterpolatingParam id="16558" interp="linr"  time="0/1" value="0" leadInLength="0/1"  />
              <InterpolatingParam id="16559" interp="linr"  time="0/1" value="0" leadInLength="0/1"  />
             </VectorParam>
             <VectorParam id="16560"  name="geometryCrop">
              <InterpolatingParam id="16561" interp="linr"  time="-9999999/1" value="0" leadInLength="0/1"  />
              <InterpolatingParam id="16562" interp="linr"  time="-9999999/1" value="0" leadInLength="0/1"  />
              <InterpolatingParam id="16563" interp="linr"  time="-9999999/1" value="0" leadInLength="0/1"  />
              <InterpolatingParam id="16564" interp="linr"  time="-9999999/1" value="0" leadInLength="0/1"  />
             </VectorParam>
             <InterpolatingParam id="16565" interp="linr"  time="-9999999/1" value="1" leadInLength="0/1"  name="opacity"/>
            </Parameters>
            <Attributes>
             <Attribute id="16566" value="" name="ident"/>
            </Attributes>
            <MetaData>
             <entry key="WinSubProjectDisplayName" val=""/>
            </MetaData>
            <ExtraData>
             <Entry key="ZoomPanBin">
              <ZoomPanBin id="16567"  >
               <ZoomPanKeyframes>
                <ZoomPanKeyframe id="16568" timeRangeEnd="-9999999/1" timeRangeDuration="0/1" interpolaterName=""  />
               </ZoomPanKeyframes>
              </ZoomPanBin>
             </Entry>
            </ExtraData>
           </IMFile>
           <VMFile id="16569" start="4727" duration="17" scalar="1/1" mediaStart="4846/1" mediaDuration="17/1" trackNumber="0" src="4" >
            <Transformer>
             <VectorParam id="16570"  name="translation">
              <InterpolatingParam id="16571" interp="linr"  time="-9999999/1" value="0" leadInLength="0/1"  />
              <InterpolatingParam id="16572" interp="linr"  time="-9999999/1" value="0" leadInLength="0/1"  />
              <InterpolatingParam id="16573" interp="linr"  time="-9999999/1" value="0" leadInLength="0/1"  />
             </VectorParam>
             <VectorParam id="16574"  name="rotation">
              <InterpolatingParam id="16575" interp="linr"  time="-9999999/1" value="0" leadInLength="0/1"  />
              <InterpolatingParam id="16576" interp="linr"  time="-9999999/1" value="0" leadInLength="0/1"  />
              <InterpolatingParam id="16577" interp="linr"  time="-9999999/1" value="0" leadInLength="0/1"  />
             </VectorParam>
             <VectorParam id="16578"  name="shear">
              <InterpolatingParam id="16579" interp="linr"  time="-9999999/1" value="0" leadInLength="0/1"  />
              <InterpolatingParam id="16580" interp="linr"  time="-9999999/1" value="0" leadInLength="0/1"  />
              <InterpolatingParam id="16581" interp="linr"  time="-9999999/1" value="0" leadInLength="0/1"  />
             </VectorParam>
             <VectorParam id="16582"  name="scale">
              <InterpolatingParam id="16583" interp="linr"  time="-9999999/1" value="1" leadInLength="0/1"  />
              <InterpolatingParam id="16584" interp="linr"  time="-9999999/1" value="1" leadInLength="0/1"  />
              <InterpolatingParam id="16585" interp="linr"  time="-9999999/1" value="1" leadInLength="0/1"  />
             </VectorParam>
             <VectorParam id="16586"  name="anchor">
              <InterpolatingParam id="16587" interp="linr"  time="0/1" value="0" leadInLength="0/1"  />
              <InterpolatingParam id="16588" interp="linr"  time="0/1" value="0" leadInLength="0/1"  />
              <InterpolatingParam id="16589" interp="linr"  time="0/1" value="0" leadInLength="0/1"  />
             </VectorParam>
            </Transformer>
            <Parameters>
             <VectorParam id="16590"  name="sourceCrop">
              <InterpolatingParam id="16591" interp="linr"  time="0/1" value="0" leadInLength="0/1"  />
              <InterpolatingParam id="16592" interp="linr"  time="0/1" value="0" leadInLength="0/1"  />
              <InterpolatingParam id="16593" interp="linr"  time="0/1" value="0" leadInLength="0/1"  />
              <InterpolatingParam id="16594" interp="linr"  time="0/1" value="0" leadInLength="0/1"  />
             </VectorParam>
             <VectorParam id="16595"  name="geometryCrop">
              <InterpolatingParam id="16596" interp="linr"  time="-9999999/1" value="0" leadInLength="0/1"  />
              <InterpolatingParam id="16597" interp="linr"  time="-9999999/1" value="0" leadInLength="0/1"  />
              <InterpolatingParam id="16598" interp="linr"  time="-9999999/1" value="0" leadInLength="0/1"  />
              <InterpolatingParam id="16599" interp="linr"  time="-9999999/1" value="0" leadInLength="0/1"  />
             </VectorParam>
             <InterpolatingParam id="16600" interp="linr"  time="-9999999/1" value="1" leadInLength="0/1"  name="opacity"/>
            </Parameters>
            <Attributes>
             <Attribute id="16601" value="" name="ident"/>
            </Attributes>
            <MetaData>
             <entry key="WinSubProjectDisplayName" val=""/>
            </MetaData>
            <ExtraData>
             <Entry key="ZoomPanBin">
              <ZoomPanBin id="16602"  >
               <ZoomPanKeyframes>
                <ZoomPanKeyframe id="16603" timeRangeEnd="-9999999/1" timeRangeDuration="0/1" interpolaterName=""  />
               </ZoomPanKeyframes>
              </ZoomPanBin>
             </Entry>
            </ExtraData>
           </VMFile>
           <VMFile id="16604" start="4744" duration="386" scalar="1/1" mediaStart="7805/1" mediaDuration="386/1" trackNumber="0" src="4" >
            <Transformer>
             <VectorParam id="16605"  name="translation">
              <InterpolatingParam id="16606" interp="linr"  time="-9999999/1" value="0" leadInLength="0/1"  />
              <InterpolatingParam id="16607" interp="linr"  time="-9999999/1" value="0" leadInLength="0/1"  />
              <InterpolatingParam id="16608" interp="linr"  time="-9999999/1" value="0" leadInLength="0/1"  />
             </VectorParam>
             <VectorParam id="16609"  name="rotation">
              <InterpolatingParam id="16610" interp="linr"  time="-9999999/1" value="0" leadInLength="0/1"  />
              <InterpolatingParam id="16611" interp="linr"  time="-9999999/1" value="0" leadInLength="0/1"  />
              <InterpolatingParam id="16612" interp="linr"  time="-9999999/1" value="0" leadInLength="0/1"  />
             </VectorParam>
             <VectorParam id="16613"  name="shear">
              <InterpolatingParam id="16614" interp="linr"  time="-9999999/1" value="0" leadInLength="0/1"  />
              <InterpolatingParam id="16615" interp="linr"  time="-9999999/1" value="0" leadInLength="0/1"  />
              <InterpolatingParam id="16616" interp="linr"  time="-9999999/1" value="0" leadInLength="0/1"  />
             </VectorParam>
             <VectorParam id="16617"  name="scale">
              <InterpolatingParam id="16618" interp="linr"  time="-9999999/1" value="1" leadInLength="0/1"  />
              <InterpolatingParam id="16619" interp="linr"  time="-9999999/1" value="1" leadInLength="0/1"  />
              <InterpolatingParam id="16620" interp="linr"  time="-9999999/1" value="1" leadInLength="0/1"  />
             </VectorParam>
             <VectorParam id="16621"  name="anchor">
              <InterpolatingParam id="16622" interp="linr"  time="0/1" value="0" leadInLength="0/1"  />
              <InterpolatingParam id="16623" interp="linr"  time="0/1" value="0" leadInLength="0/1"  />
              <InterpolatingParam id="16624" interp="linr"  time="0/1" value="0" leadInLength="0/1"  />
             </VectorParam>
            </Transformer>
            <Parameters>
             <VectorParam id="16625"  name="sourceCrop">
              <InterpolatingParam id="16626" interp="linr"  time="0/1" value="0" leadInLength="0/1"  />
              <InterpolatingParam id="16627" interp="linr"  time="0/1" value="0" leadInLength="0/1"  />
              <InterpolatingParam id="16628" interp="linr"  time="0/1" value="0" leadInLength="0/1"  />
              <InterpolatingParam id="16629" interp="linr"  time="0/1" value="0" leadInLength="0/1"  />
             </VectorParam>
             <VectorParam id="16630"  name="geometryCrop">
              <InterpolatingParam id="16631" interp="linr"  time="-9999999/1" value="0" leadInLength="0/1"  />
              <InterpolatingParam id="16632" interp="linr"  time="-9999999/1" value="0" leadInLength="0/1"  />
              <InterpolatingParam id="16633" interp="linr"  time="-9999999/1" value="0" leadInLength="0/1"  />
              <InterpolatingParam id="16634" interp="linr"  time="-9999999/1" value="0" leadInLength="0/1"  />
             </VectorParam>
             <InterpolatingParam id="16635" interp="linr"  time="-9999999/1" value="1" leadInLength="0/1"  name="opacity"/>
            </Parameters>
            <Attributes>
             <Attribute id="16636" value="" name="ident"/>
            </Attributes>
            <MetaData>
             <entry key="WinSubProjectDisplayName" val=""/>
            </MetaData>
            <ExtraData>
             <Entry key="ZoomPanBin">
              <ZoomPanBin id="16637"  >
               <ZoomPanKeyframes>
                <ZoomPanKeyframe id="16638" timeRangeEnd="-9999999/1" timeRangeDuration="0/1" interpolaterName=""  />
               </ZoomPanKeyframes>
              </ZoomPanBin>
             </Entry>
            </ExtraData>
           </VMFile>
           <VMFile id="16639" start="5130" duration="922" scalar="1/1" mediaStart="8371/1" mediaDuration="922/1" trackNumber="0" src="4" >
            <Transformer>
             <VectorParam id="16640"  name="translation">
              <InterpolatingParam id="16641" interp="linr"  time="-9999999/1" value="0" leadInLength="0/1"  />
              <InterpolatingParam id="16642" interp="linr"  time="-9999999/1" value="0" leadInLength="0/1"  />
              <InterpolatingParam id="16643" interp="linr"  time="-9999999/1" value="0" leadInLength="0/1"  />
             </VectorParam>
             <VectorParam id="16644"  name="rotation">
              <InterpolatingParam id="16645" interp="linr"  time="-9999999/1" value="0" leadInLength="0/1"  />
              <InterpolatingParam id="16646" interp="linr"  time="-9999999/1" value="0" leadInLength="0/1"  />
              <InterpolatingParam id="16647" interp="linr"  time="-9999999/1" value="0" leadInLength="0/1"  />
             </VectorParam>
             <VectorParam id="16648"  name="shear">
              <InterpolatingParam id="16649" interp="linr"  time="-9999999/1" value="0" leadInLength="0/1"  />
              <InterpolatingParam id="16650" interp="linr"  time="-9999999/1" value="0" leadInLength="0/1"  />
              <InterpolatingParam id="16651" interp="linr"  time="-9999999/1" value="0" leadInLength="0/1"  />
             </VectorParam>
             <VectorParam id="16652"  name="scale">
              <InterpolatingParam id="16653" interp="linr"  time="-9999999/1" value="1" leadInLength="0/1"  />
              <InterpolatingParam id="16654" interp="linr"  time="-9999999/1" value="1" leadInLength="0/1"  />
              <InterpolatingParam id="16655" interp="linr"  time="-9999999/1" value="1" leadInLength="0/1"  />
             </VectorParam>
             <VectorParam id="16656"  name="anchor">
              <InterpolatingParam id="16657" interp="linr"  time="0/1" value="0" leadInLength="0/1"  />
              <InterpolatingParam id="16658" interp="linr"  time="0/1" value="0" leadInLength="0/1"  />
              <InterpolatingParam id="16659" interp="linr"  time="0/1" value="0" leadInLength="0/1"  />
             </VectorParam>
            </Transformer>
            <Parameters>
             <VectorParam id="16660"  name="sourceCrop">
              <InterpolatingParam id="16661" interp="linr"  time="0/1" value="0" leadInLength="0/1"  />
              <InterpolatingParam id="16662" interp="linr"  time="0/1" value="0" leadInLength="0/1"  />
              <InterpolatingParam id="16663" interp="linr"  time="0/1" value="0" leadInLength="0/1"  />
              <InterpolatingParam id="16664" interp="linr"  time="0/1" value="0" leadInLength="0/1"  />
             </VectorParam>
             <VectorParam id="16665"  name="geometryCrop">
              <InterpolatingParam id="16666" interp="linr"  time="-9999999/1" value="0" leadInLength="0/1"  />
              <InterpolatingParam id="16667" interp="linr"  time="-9999999/1" value="0" leadInLength="0/1"  />
              <InterpolatingParam id="16668" interp="linr"  time="-9999999/1" value="0" leadInLength="0/1"  />
              <InterpolatingParam id="16669" interp="linr"  time="-9999999/1" value="0" leadInLength="0/1"  />
             </VectorParam>
             <InterpolatingParam id="16670" interp="linr"  time="-9999999/1" value="1" leadInLength="0/1"  name="opacity"/>
            </Parameters>
            <Attributes>
             <Attribute id="16671" value="" name="ident"/>
            </Attributes>
            <MetaData>
             <entry key="WinSubProjectDisplayName" val=""/>
            </MetaData>
            <ExtraData>
             <Entry key="ZoomPanBin">
              <ZoomPanBin id="16672"  >
               <ZoomPanKeyframes>
                <ZoomPanKeyframe id="16673" timeRangeEnd="-9999999/1" timeRangeDuration="0/1" interpolaterName=""  />
               </ZoomPanKeyframes>
              </ZoomPanBin>
             </Entry>
            </ExtraData>
           </VMFile>
           <IMFile id="16674" start="6052" duration="30" scalar="1/1" mediaStart="9292/1" mediaDuration="1/1" trackNumber="0" src="4" trimStartSum="0/1" >
            <Transformer>
             <VectorParam id="16675"  name="translation">
              <InterpolatingParam id="16676" interp="linr"  time="-9999999/1" value="0" leadInLength="0/1"  />
              <InterpolatingParam id="16677" interp="linr"  time="-9999999/1" value="0" leadInLength="0/1"  />
              <InterpolatingParam id="16678" interp="linr"  time="-9999999/1" value="0" leadInLength="0/1"  />
             </VectorParam>
             <VectorParam id="16679"  name="rotation">
              <InterpolatingParam id="16680" interp="linr"  time="-9999999/1" value="0" leadInLength="0/1"  />
              <InterpolatingParam id="16681" interp="linr"  time="-9999999/1" value="0" leadInLength="0/1"  />
              <InterpolatingParam id="16682" interp="linr"  time="-9999999/1" value="0" leadInLength="0/1"  />
             </VectorParam>
             <VectorParam id="16683"  name="shear">
              <InterpolatingParam id="16684" interp="linr"  time="-9999999/1" value="0" leadInLength="0/1"  />
              <InterpolatingParam id="16685" interp="linr"  time="-9999999/1" value="0" leadInLength="0/1"  />
              <InterpolatingParam id="16686" interp="linr"  time="-9999999/1" value="0" leadInLength="0/1"  />
             </VectorParam>
             <VectorParam id="16687"  name="scale">
              <InterpolatingParam id="16688" interp="linr"  time="-9999999/1" value="1" leadInLength="0/1"  />
              <InterpolatingParam id="16689" interp="linr"  time="-9999999/1" value="1" leadInLength="0/1"  />
              <InterpolatingParam id="16690" interp="linr"  time="-9999999/1" value="1" leadInLength="0/1"  />
             </VectorParam>
             <VectorParam id="16691"  name="anchor">
              <InterpolatingParam id="16692" interp="linr"  time="0/1" value="0" leadInLength="0/1"  />
              <InterpolatingParam id="16693" interp="linr"  time="0/1" value="0" leadInLength="0/1"  />
              <InterpolatingParam id="16694" interp="linr"  time="0/1" value="0" leadInLength="0/1"  />
             </VectorParam>
            </Transformer>
            <Parameters>
             <VectorParam id="16695"  name="sourceCrop">
              <InterpolatingParam id="16696" interp="linr"  time="0/1" value="0" leadInLength="0/1"  />
              <InterpolatingParam id="16697" interp="linr"  time="0/1" value="0" leadInLength="0/1"  />
              <InterpolatingParam id="16698" interp="linr"  time="0/1" value="0" leadInLength="0/1"  />
              <InterpolatingParam id="16699" interp="linr"  time="0/1" value="0" leadInLength="0/1"  />
             </VectorParam>
             <VectorParam id="16700"  name="geometryCrop">
              <InterpolatingParam id="16701" interp="linr"  time="-9999999/1" value="0" leadInLength="0/1"  />
              <InterpolatingParam id="16702" interp="linr"  time="-9999999/1" value="0" leadInLength="0/1"  />
              <InterpolatingParam id="16703" interp="linr"  time="-9999999/1" value="0" leadInLength="0/1"  />
              <InterpolatingParam id="16704" interp="linr"  time="-9999999/1" value="0" leadInLength="0/1"  />
             </VectorParam>
             <InterpolatingParam id="16705" interp="linr"  time="-9999999/1" value="1" leadInLength="0/1"  name="opacity"/>
            </Parameters>
            <Attributes>
             <Attribute id="16706" value="" name="ident"/>
            </Attributes>
            <MetaData>
             <entry key="WinSubProjectDisplayName" val=""/>
            </MetaData>
            <ExtraData>
             <Entry key="ZoomPanBin">
              <ZoomPanBin id="16707"  >
               <ZoomPanKeyframes>
                <ZoomPanKeyframe id="16708" timeRangeEnd="-9999999/1" timeRangeDuration="0/1" interpolaterName=""  />
               </ZoomPanKeyframes>
              </ZoomPanBin>
             </Entry>
            </ExtraData>
           </IMFile>
           <VMFile id="16709" start="6082" duration="86" scalar="1/1" mediaStart="9292/1" mediaDuration="86/1" trackNumber="0" src="4" >
            <Transformer>
             <VectorParam id="16710"  name="translation">
              <InterpolatingParam id="16711" interp="linr"  time="-9999999/1" value="0" leadInLength="0/1"  />
              <InterpolatingParam id="16712" interp="linr"  time="-9999999/1" value="0" leadInLength="0/1"  />
              <InterpolatingParam id="16713" interp="linr"  time="-9999999/1" value="0" leadInLength="0/1"  />
             </VectorParam>
             <VectorParam id="16714"  name="rotation">
              <InterpolatingParam id="16715" interp="linr"  time="-9999999/1" value="0" leadInLength="0/1"  />
              <InterpolatingParam id="16716" interp="linr"  time="-9999999/1" value="0" leadInLength="0/1"  />
              <InterpolatingParam id="16717" interp="linr"  time="-9999999/1" value="0" leadInLength="0/1"  />
             </VectorParam>
             <VectorParam id="16718"  name="shear">
              <InterpolatingParam id="16719" interp="linr"  time="-9999999/1" value="0" leadInLength="0/1"  />
              <InterpolatingParam id="16720" interp="linr"  time="-9999999/1" value="0" leadInLength="0/1"  />
              <InterpolatingParam id="16721" interp="linr"  time="-9999999/1" value="0" leadInLength="0/1"  />
             </VectorParam>
             <VectorParam id="16722"  name="scale">
              <InterpolatingParam id="16723" interp="linr"  time="-9999999/1" value="1" leadInLength="0/1"  />
              <InterpolatingParam id="16724" interp="linr"  time="-9999999/1" value="1" leadInLength="0/1"  />
              <InterpolatingParam id="16725" interp="linr"  time="-9999999/1" value="1" leadInLength="0/1"  />
             </VectorParam>
             <VectorParam id="16726"  name="anchor">
              <InterpolatingParam id="16727" interp="linr"  time="0/1" value="0" leadInLength="0/1"  />
              <InterpolatingParam id="16728" interp="linr"  time="0/1" value="0" leadInLength="0/1"  />
              <InterpolatingParam id="16729" interp="linr"  time="0/1" value="0" leadInLength="0/1"  />
             </VectorParam>
            </Transformer>
            <Parameters>
             <VectorParam id="16730"  name="sourceCrop">
              <InterpolatingParam id="16731" interp="linr"  time="0/1" value="0" leadInLength="0/1"  />
              <InterpolatingParam id="16732" interp="linr"  time="0/1" value="0" leadInLength="0/1"  />
              <InterpolatingParam id="16733" interp="linr"  time="0/1" value="0" leadInLength="0/1"  />
              <InterpolatingParam id="16734" interp="linr"  time="0/1" value="0" leadInLength="0/1"  />
             </VectorParam>
             <VectorParam id="16735"  name="geometryCrop">
              <InterpolatingParam id="16736" interp="linr"  time="-9999999/1" value="0" leadInLength="0/1"  />
              <InterpolatingParam id="16737" interp="linr"  time="-9999999/1" value="0" leadInLength="0/1"  />
              <InterpolatingParam id="16738" interp="linr"  time="-9999999/1" value="0" leadInLength="0/1"  />
              <InterpolatingParam id="16739" interp="linr"  time="-9999999/1" value="0" leadInLength="0/1"  />
             </VectorParam>
             <InterpolatingParam id="16740" interp="linr"  time="-9999999/1" value="1" leadInLength="0/1"  name="opacity"/>
            </Parameters>
            <Attributes>
             <Attribute id="16741" value="" name="ident"/>
            </Attributes>
            <MetaData>
             <entry key="WinSubProjectDisplayName" val=""/>
            </MetaData>
            <ExtraData>
             <Entry key="ZoomPanBin">
              <ZoomPanBin id="16742"  >
               <ZoomPanKeyframes>
                <ZoomPanKeyframe id="16743" timeRangeEnd="-9999999/1" timeRangeDuration="0/1" interpolaterName=""  />
               </ZoomPanKeyframes>
              </ZoomPanBin>
             </Entry>
            </ExtraData>
           </VMFile>
           <VMFile id="16744" start="6168" duration="555" scalar="1/1" mediaStart="9516/1" mediaDuration="555/1" trackNumber="0" src="4" >
            <Transformer>
             <VectorParam id="16745"  name="translation">
              <InterpolatingParam id="16746" interp="linr"  time="-9999999/1" value="0" leadInLength="0/1"  />
              <InterpolatingParam id="16747" interp="linr"  time="-9999999/1" value="0" leadInLength="0/1"  />
              <InterpolatingParam id="16748" interp="linr"  time="-9999999/1" value="0" leadInLength="0/1"  />
             </VectorParam>
             <VectorParam id="16749"  name="rotation">
              <InterpolatingParam id="16750" interp="linr"  time="-9999999/1" value="0" leadInLength="0/1"  />
              <InterpolatingParam id="16751" interp="linr"  time="-9999999/1" value="0" leadInLength="0/1"  />
              <InterpolatingParam id="16752" interp="linr"  time="-9999999/1" value="0" leadInLength="0/1"  />
             </VectorParam>
             <VectorParam id="16753"  name="shear">
              <InterpolatingParam id="16754" interp="linr"  time="-9999999/1" value="0" leadInLength="0/1"  />
              <InterpolatingParam id="16755" interp="linr"  time="-9999999/1" value="0" leadInLength="0/1"  />
              <InterpolatingParam id="16756" interp="linr"  time="-9999999/1" value="0" leadInLength="0/1"  />
             </VectorParam>
             <VectorParam id="16757"  name="scale">
              <InterpolatingParam id="16758" interp="linr"  time="-9999999/1" value="1" leadInLength="0/1"  />
              <InterpolatingParam id="16759" interp="linr"  time="-9999999/1" value="1" leadInLength="0/1"  />
              <InterpolatingParam id="16760" interp="linr"  time="-9999999/1" value="1" leadInLength="0/1"  />
             </VectorParam>
             <VectorParam id="16761"  name="anchor">
              <InterpolatingParam id="16762" interp="linr"  time="0/1" value="0" leadInLength="0/1"  />
              <InterpolatingParam id="16763" interp="linr"  time="0/1" value="0" leadInLength="0/1"  />
              <InterpolatingParam id="16764" interp="linr"  time="0/1" value="0" leadInLength="0/1"  />
             </VectorParam>
            </Transformer>
            <Parameters>
             <VectorParam id="16765"  name="sourceCrop">
              <InterpolatingParam id="16766" interp="linr"  time="0/1" value="0" leadInLength="0/1"  />
              <InterpolatingParam id="16767" interp="linr"  time="0/1" value="0" leadInLength="0/1"  />
              <InterpolatingParam id="16768" interp="linr"  time="0/1" value="0" leadInLength="0/1"  />
              <InterpolatingParam id="16769" interp="linr"  time="0/1" value="0" leadInLength="0/1"  />
             </VectorParam>
             <VectorParam id="16770"  name="geometryCrop">
              <InterpolatingParam id="16771" interp="linr"  time="-9999999/1" value="0" leadInLength="0/1"  />
              <InterpolatingParam id="16772" interp="linr"  time="-9999999/1" value="0" leadInLength="0/1"  />
              <InterpolatingParam id="16773" interp="linr"  time="-9999999/1" value="0" leadInLength="0/1"  />
              <InterpolatingParam id="16774" interp="linr"  time="-9999999/1" value="0" leadInLength="0/1"  />
             </VectorParam>
             <InterpolatingParam id="16775" interp="linr"  time="-9999999/1" value="1" leadInLength="0/1"  name="opacity"/>
            </Parameters>
            <Attributes>
             <Attribute id="16776" value="" name="ident"/>
            </Attributes>
            <MetaData>
             <entry key="WinSubProjectDisplayName" val=""/>
            </MetaData>
            <ExtraData>
             <Entry key="ZoomPanBin">
              <ZoomPanBin id="16777"  >
               <ZoomPanKeyframes>
                <ZoomPanKeyframe id="16778" timeRangeEnd="-9999999/1" timeRangeDuration="0/1" interpolaterName=""  />
               </ZoomPanKeyframes>
              </ZoomPanBin>
             </Entry>
            </ExtraData>
           </VMFile>
           <VMFile id="16779" start="6723" duration="460" scalar="1/1" mediaStart="11597/1" mediaDuration="460/1" trackNumber="0" src="4" >
            <Transformer>
             <VectorParam id="16780"  name="translation">
              <InterpolatingParam id="16781" interp="linr"  time="-9999999/1" value="0" leadInLength="0/1"  />
              <InterpolatingParam id="16782" interp="linr"  time="-9999999/1" value="0" leadInLength="0/1"  />
              <InterpolatingParam id="16783" interp="linr"  time="-9999999/1" value="0" leadInLength="0/1"  />
             </VectorParam>
             <VectorParam id="16784"  name="rotation">
              <InterpolatingParam id="16785" interp="linr"  time="-9999999/1" value="0" leadInLength="0/1"  />
              <InterpolatingParam id="16786" interp="linr"  time="-9999999/1" value="0" leadInLength="0/1"  />
              <InterpolatingParam id="16787" interp="linr"  time="-9999999/1" value="0" leadInLength="0/1"  />
             </VectorParam>
             <VectorParam id="16788"  name="shear">
              <InterpolatingParam id="16789" interp="linr"  time="-9999999/1" value="0" leadInLength="0/1"  />
              <InterpolatingParam id="16790" interp="linr"  time="-9999999/1" value="0" leadInLength="0/1"  />
              <InterpolatingParam id="16791" interp="linr"  time="-9999999/1" value="0" leadInLength="0/1"  />
             </VectorParam>
             <VectorParam id="16792"  name="scale">
              <InterpolatingParam id="16793" interp="linr"  time="-9999999/1" value="1" leadInLength="0/1"  />
              <InterpolatingParam id="16794" interp="linr"  time="-9999999/1" value="1" leadInLength="0/1"  />
              <InterpolatingParam id="16795" interp="linr"  time="-9999999/1" value="1" leadInLength="0/1"  />
             </VectorParam>
             <VectorParam id="16796"  name="anchor">
              <InterpolatingParam id="16797" interp="linr"  time="0/1" value="0" leadInLength="0/1"  />
              <InterpolatingParam id="16798" interp="linr"  time="0/1" value="0" leadInLength="0/1"  />
              <InterpolatingParam id="16799" interp="linr"  time="0/1" value="0" leadInLength="0/1"  />
             </VectorParam>
            </Transformer>
            <Parameters>
             <VectorParam id="16800"  name="sourceCrop">
              <InterpolatingParam id="16801" interp="linr"  time="0/1" value="0" leadInLength="0/1"  />
              <InterpolatingParam id="16802" interp="linr"  time="0/1" value="0" leadInLength="0/1"  />
              <InterpolatingParam id="16803" interp="linr"  time="0/1" value="0" leadInLength="0/1"  />
              <InterpolatingParam id="16804" interp="linr"  time="0/1" value="0" leadInLength="0/1"  />
             </VectorParam>
             <VectorParam id="16805"  name="geometryCrop">
              <InterpolatingParam id="16806" interp="linr"  time="-9999999/1" value="0" leadInLength="0/1"  />
              <InterpolatingParam id="16807" interp="linr"  time="-9999999/1" value="0" leadInLength="0/1"  />
              <InterpolatingParam id="16808" interp="linr"  time="-9999999/1" value="0" leadInLength="0/1"  />
              <InterpolatingParam id="16809" interp="linr"  time="-9999999/1" value="0" leadInLength="0/1"  />
             </VectorParam>
             <InterpolatingParam id="16810" interp="linr"  time="-9999999/1" value="1" leadInLength="0/1"  name="opacity"/>
            </Parameters>
            <Attributes>
             <Attribute id="16811" value="" name="ident"/>
            </Attributes>
            <MetaData>
             <entry key="WinSubProjectDisplayName" val=""/>
            </MetaData>
            <ExtraData>
             <Entry key="ZoomPanBin">
              <ZoomPanBin id="16812"  >
               <ZoomPanKeyframes>
                <ZoomPanKeyframe id="16813" timeRangeEnd="-9999999/1" timeRangeDuration="0/1" interpolaterName=""  />
               </ZoomPanKeyframes>
              </ZoomPanBin>
             </Entry>
            </ExtraData>
           </VMFile>
           <VMFile id="16814" start="7183" duration="350" scalar="1/1" mediaStart="12237/1" mediaDuration="350/1" trackNumber="0" src="4" >
            <Transformer>
             <VectorParam id="16815"  name="translation">
              <InterpolatingParam id="16816" interp="linr"  time="-9999999/1" value="0" leadInLength="0/1"  />
              <InterpolatingParam id="16817" interp="linr"  time="-9999999/1" value="0" leadInLength="0/1"  />
              <InterpolatingParam id="16818" interp="linr"  time="-9999999/1" value="0" leadInLength="0/1"  />
             </VectorParam>
             <VectorParam id="16819"  name="rotation">
              <InterpolatingParam id="16820" interp="linr"  time="-9999999/1" value="0" leadInLength="0/1"  />
              <InterpolatingParam id="16821" interp="linr"  time="-9999999/1" value="0" leadInLength="0/1"  />
              <InterpolatingParam id="16822" interp="linr"  time="-9999999/1" value="0" leadInLength="0/1"  />
             </VectorParam>
             <VectorParam id="16823"  name="shear">
              <InterpolatingParam id="16824" interp="linr"  time="-9999999/1" value="0" leadInLength="0/1"  />
              <InterpolatingParam id="16825" interp="linr"  time="-9999999/1" value="0" leadInLength="0/1"  />
              <InterpolatingParam id="16826" interp="linr"  time="-9999999/1" value="0" leadInLength="0/1"  />
             </VectorParam>
             <VectorParam id="16827"  name="scale">
              <InterpolatingParam id="16828" interp="linr"  time="-9999999/1" value="1" leadInLength="0/1"  />
              <InterpolatingParam id="16829" interp="linr"  time="-9999999/1" value="1" leadInLength="0/1"  />
              <InterpolatingParam id="16830" interp="linr"  time="-9999999/1" value="1" leadInLength="0/1"  />
             </VectorParam>
             <VectorParam id="16831"  name="anchor">
              <InterpolatingParam id="16832" interp="linr"  time="0/1" value="0" leadInLength="0/1"  />
              <InterpolatingParam id="16833" interp="linr"  time="0/1" value="0" leadInLength="0/1"  />
              <InterpolatingParam id="16834" interp="linr"  time="0/1" value="0" leadInLength="0/1"  />
             </VectorParam>
            </Transformer>
            <Parameters>
             <VectorParam id="16835"  name="sourceCrop">
              <InterpolatingParam id="16836" interp="linr"  time="0/1" value="0" leadInLength="0/1"  />
              <InterpolatingParam id="16837" interp="linr"  time="0/1" value="0" leadInLength="0/1"  />
              <InterpolatingParam id="16838" interp="linr"  time="0/1" value="0" leadInLength="0/1"  />
              <InterpolatingParam id="16839" interp="linr"  time="0/1" value="0" leadInLength="0/1"  />
             </VectorParam>
             <VectorParam id="16840"  name="geometryCrop">
              <InterpolatingParam id="16841" interp="linr"  time="-9999999/1" value="0" leadInLength="0/1"  />
              <InterpolatingParam id="16842" interp="linr"  time="-9999999/1" value="0" leadInLength="0/1"  />
              <InterpolatingParam id="16843" interp="linr"  time="-9999999/1" value="0" leadInLength="0/1"  />
              <InterpolatingParam id="16844" interp="linr"  time="-9999999/1" value="0" leadInLength="0/1"  />
             </VectorParam>
             <InterpolatingParam id="16845" interp="linr"  time="-9999999/1" value="1" leadInLength="0/1"  name="opacity"/>
            </Parameters>
            <Attributes>
             <Attribute id="16846" value="" name="ident"/>
            </Attributes>
            <MetaData>
             <entry key="WinSubProjectDisplayName" val=""/>
            </MetaData>
            <ExtraData>
             <Entry key="ZoomPanBin">
              <ZoomPanBin id="16847"  >
               <ZoomPanKeyframes>
                <ZoomPanKeyframe id="16848" timeRangeEnd="-9999999/1" timeRangeDuration="0/1" interpolaterName=""  />
               </ZoomPanKeyframes>
              </ZoomPanBin>
             </Entry>
            </ExtraData>
           </VMFile>
           <VMFile id="16849" start="7533" duration="109" scalar="1/1" mediaStart="15765/1" mediaDuration="109/1" trackNumber="0" src="4" >
            <Transformer>
             <VectorParam id="16850"  name="translation">
              <InterpolatingParam id="16851" interp="linr"  time="-9999999/1" value="0" leadInLength="0/1"  />
              <InterpolatingParam id="16852" interp="linr"  time="-9999999/1" value="0" leadInLength="0/1"  />
              <InterpolatingParam id="16853" interp="linr"  time="-9999999/1" value="0" leadInLength="0/1"  />
             </VectorParam>
             <VectorParam id="16854"  name="rotation">
              <InterpolatingParam id="16855" interp="linr"  time="-9999999/1" value="0" leadInLength="0/1"  />
              <InterpolatingParam id="16856" interp="linr"  time="-9999999/1" value="0" leadInLength="0/1"  />
              <InterpolatingParam id="16857" interp="linr"  time="-9999999/1" value="0" leadInLength="0/1"  />
             </VectorParam>
             <VectorParam id="16858"  name="shear">
              <InterpolatingParam id="16859" interp="linr"  time="-9999999/1" value="0" leadInLength="0/1"  />
              <InterpolatingParam id="16860" interp="linr"  time="-9999999/1" value="0" leadInLength="0/1"  />
              <InterpolatingParam id="16861" interp="linr"  time="-9999999/1" value="0" leadInLength="0/1"  />
             </VectorParam>
             <VectorParam id="16862"  name="scale">
              <InterpolatingParam id="16863" interp="linr"  time="-9999999/1" value="1" leadInLength="0/1"  />
              <InterpolatingParam id="16864" interp="linr"  time="-9999999/1" value="1" leadInLength="0/1"  />
              <InterpolatingParam id="16865" interp="linr"  time="-9999999/1" value="1" leadInLength="0/1"  />
             </VectorParam>
             <VectorParam id="16866"  name="anchor">
              <InterpolatingParam id="16867" interp="linr"  time="0/1" value="0" leadInLength="0/1"  />
              <InterpolatingParam id="16868" interp="linr"  time="0/1" value="0" leadInLength="0/1"  />
              <InterpolatingParam id="16869" interp="linr"  time="0/1" value="0" leadInLength="0/1"  />
             </VectorParam>
            </Transformer>
            <Parameters>
             <VectorParam id="16870"  name="sourceCrop">
              <InterpolatingParam id="16871" interp="linr"  time="0/1" value="0" leadInLength="0/1"  />
              <InterpolatingParam id="16872" interp="linr"  time="0/1" value="0" leadInLength="0/1"  />
              <InterpolatingParam id="16873" interp="linr"  time="0/1" value="0" leadInLength="0/1"  />
              <InterpolatingParam id="16874" interp="linr"  time="0/1" value="0" leadInLength="0/1"  />
             </VectorParam>
             <VectorParam id="16875"  name="geometryCrop">
              <InterpolatingParam id="16876" interp="linr"  time="-9999999/1" value="0" leadInLength="0/1"  />
              <InterpolatingParam id="16877" interp="linr"  time="-9999999/1" value="0" leadInLength="0/1"  />
              <InterpolatingParam id="16878" interp="linr"  time="-9999999/1" value="0" leadInLength="0/1"  />
              <InterpolatingParam id="16879" interp="linr"  time="-9999999/1" value="0" leadInLength="0/1"  />
             </VectorParam>
             <InterpolatingParam id="16880" interp="linr"  time="-9999999/1" value="1" leadInLength="0/1"  name="opacity"/>
            </Parameters>
            <Attributes>
             <Attribute id="16881" value="" name="ident"/>
            </Attributes>
            <MetaData>
             <entry key="WinSubProjectDisplayName" val=""/>
            </MetaData>
            <ExtraData>
             <Entry key="ZoomPanBin">
              <ZoomPanBin id="16882"  >
               <ZoomPanKeyframes>
                <ZoomPanKeyframe id="16883" timeRangeEnd="-9999999/1" timeRangeDuration="0/1" interpolaterName=""  />
               </ZoomPanKeyframes>
              </ZoomPanBin>
             </Entry>
            </ExtraData>
           </VMFile>
           <IMFile id="16884" start="7642" duration="451" scalar="1/1" mediaStart="15873/1" mediaDuration="1/1" trackNumber="0" src="4" trimStartSum="0/1" >
            <Transformer>
             <VectorParam id="16885"  name="translation">
              <InterpolatingParam id="16886" interp="linr"  time="-9999999/1" value="0" leadInLength="0/1"  />
              <InterpolatingParam id="16887" interp="linr"  time="-9999999/1" value="0" leadInLength="0/1"  />
              <InterpolatingParam id="16888" interp="linr"  time="-9999999/1" value="0" leadInLength="0/1"  />
             </VectorParam>
             <VectorParam id="16889"  name="rotation">
              <InterpolatingParam id="16890" interp="linr"  time="-9999999/1" value="0" leadInLength="0/1"  />
              <InterpolatingParam id="16891" interp="linr"  time="-9999999/1" value="0" leadInLength="0/1"  />
              <InterpolatingParam id="16892" interp="linr"  time="-9999999/1" value="0" leadInLength="0/1"  />
             </VectorParam>
             <VectorParam id="16893"  name="shear">
              <InterpolatingParam id="16894" interp="linr"  time="-9999999/1" value="0" leadInLength="0/1"  />
              <InterpolatingParam id="16895" interp="linr"  time="-9999999/1" value="0" leadInLength="0/1"  />
              <InterpolatingParam id="16896" interp="linr"  time="-9999999/1" value="0" leadInLength="0/1"  />
             </VectorParam>
             <VectorParam id="16897"  name="scale">
              <InterpolatingParam id="16898" interp="linr"  time="-9999999/1" value="1" leadInLength="0/1"  />
              <InterpolatingParam id="16899" interp="linr"  time="-9999999/1" value="1" leadInLength="0/1"  />
              <InterpolatingParam id="16900" interp="linr"  time="-9999999/1" value="1" leadInLength="0/1"  />
             </VectorParam>
             <VectorParam id="16901"  name="anchor">
              <InterpolatingParam id="16902" interp="linr"  time="0/1" value="0" leadInLength="0/1"  />
              <InterpolatingParam id="16903" interp="linr"  time="0/1" value="0" leadInLength="0/1"  />
              <InterpolatingParam id="16904" interp="linr"  time="0/1" value="0" leadInLength="0/1"  />
             </VectorParam>
            </Transformer>
            <Parameters>
             <VectorParam id="16905"  name="sourceCrop">
              <InterpolatingParam id="16906" interp="linr"  time="0/1" value="0" leadInLength="0/1"  />
              <InterpolatingParam id="16907" interp="linr"  time="0/1" value="0" leadInLength="0/1"  />
              <InterpolatingParam id="16908" interp="linr"  time="0/1" value="0" leadInLength="0/1"  />
              <InterpolatingParam id="16909" interp="linr"  time="0/1" value="0" leadInLength="0/1"  />
             </VectorParam>
             <VectorParam id="16910"  name="geometryCrop">
              <InterpolatingParam id="16911" interp="linr"  time="-9999999/1" value="0" leadInLength="0/1"  />
              <InterpolatingParam id="16912" interp="linr"  time="-9999999/1" value="0" leadInLength="0/1"  />
              <InterpolatingParam id="16913" interp="linr"  time="-9999999/1" value="0" leadInLength="0/1"  />
              <InterpolatingParam id="16914" interp="linr"  time="-9999999/1" value="0" leadInLength="0/1"  />
             </VectorParam>
             <InterpolatingParam id="16915" interp="linr"  time="-9999999/1" value="1" leadInLength="0/1"  name="opacity"/>
            </Parameters>
            <Attributes>
             <Attribute id="16916" value="" name="ident"/>
            </Attributes>
            <MetaData>
             <entry key="WinSubProjectDisplayName" val=""/>
            </MetaData>
            <ExtraData>
             <Entry key="ZoomPanBin">
              <ZoomPanBin id="16917"  >
               <ZoomPanKeyframes>
                <ZoomPanKeyframe id="16918" timeRangeEnd="-9999999/1" timeRangeDuration="0/1" interpolaterName=""  />
               </ZoomPanKeyframes>
              </ZoomPanBin>
             </Entry>
            </ExtraData>
           </IMFile>
           <VMFile id="16919" start="8093" duration="21" scalar="1/1" mediaStart="15872/1" mediaDuration="21/1" trackNumber="0" src="4" >
            <Transformer>
             <VectorParam id="16920"  name="translation">
              <InterpolatingParam id="16921" interp="linr"  time="-9999999/1" value="0" leadInLength="0/1"  />
              <InterpolatingParam id="16922" interp="linr"  time="-9999999/1" value="0" leadInLength="0/1"  />
              <InterpolatingParam id="16923" interp="linr"  time="-9999999/1" value="0" leadInLength="0/1"  />
             </VectorParam>
             <VectorParam id="16924"  name="rotation">
              <InterpolatingParam id="16925" interp="linr"  time="-9999999/1" value="0" leadInLength="0/1"  />
              <InterpolatingParam id="16926" interp="linr"  time="-9999999/1" value="0" leadInLength="0/1"  />
              <InterpolatingParam id="16927" interp="linr"  time="-9999999/1" value="0" leadInLength="0/1"  />
             </VectorParam>
             <VectorParam id="16928"  name="shear">
              <InterpolatingParam id="16929" interp="linr"  time="-9999999/1" value="0" leadInLength="0/1"  />
              <InterpolatingParam id="16930" interp="linr"  time="-9999999/1" value="0" leadInLength="0/1"  />
              <InterpolatingParam id="16931" interp="linr"  time="-9999999/1" value="0" leadInLength="0/1"  />
             </VectorParam>
             <VectorParam id="16932"  name="scale">
              <InterpolatingParam id="16933" interp="linr"  time="-9999999/1" value="1" leadInLength="0/1"  />
              <InterpolatingParam id="16934" interp="linr"  time="-9999999/1" value="1" leadInLength="0/1"  />
              <InterpolatingParam id="16935" interp="linr"  time="-9999999/1" value="1" leadInLength="0/1"  />
             </VectorParam>
             <VectorParam id="16936"  name="anchor">
              <InterpolatingParam id="16937" interp="linr"  time="0/1" value="0" leadInLength="0/1"  />
              <InterpolatingParam id="16938" interp="linr"  time="0/1" value="0" leadInLength="0/1"  />
              <InterpolatingParam id="16939" interp="linr"  time="0/1" value="0" leadInLength="0/1"  />
             </VectorParam>
            </Transformer>
            <Parameters>
             <VectorParam id="16940"  name="sourceCrop">
              <InterpolatingParam id="16941" interp="linr"  time="0/1" value="0" leadInLength="0/1"  />
              <InterpolatingParam id="16942" interp="linr"  time="0/1" value="0" leadInLength="0/1"  />
              <InterpolatingParam id="16943" interp="linr"  time="0/1" value="0" leadInLength="0/1"  />
              <InterpolatingParam id="16944" interp="linr"  time="0/1" value="0" leadInLength="0/1"  />
             </VectorParam>
             <VectorParam id="16945"  name="geometryCrop">
              <InterpolatingParam id="16946" interp="linr"  time="-9999999/1" value="0" leadInLength="0/1"  />
              <InterpolatingParam id="16947" interp="linr"  time="-9999999/1" value="0" leadInLength="0/1"  />
              <InterpolatingParam id="16948" interp="linr"  time="-9999999/1" value="0" leadInLength="0/1"  />
              <InterpolatingParam id="16949" interp="linr"  time="-9999999/1" value="0" leadInLength="0/1"  />
             </VectorParam>
             <InterpolatingParam id="16950" interp="linr"  time="-9999999/1" value="1" leadInLength="0/1"  name="opacity"/>
            </Parameters>
            <Attributes>
             <Attribute id="16951" value="" name="ident"/>
            </Attributes>
            <MetaData>
             <entry key="WinSubProjectDisplayName" val=""/>
            </MetaData>
            <ExtraData>
             <Entry key="ZoomPanBin">
              <ZoomPanBin id="16952"  >
               <ZoomPanKeyframes>
                <ZoomPanKeyframe id="16953" timeRangeEnd="-9999999/1" timeRangeDuration="0/1" interpolaterName=""  />
               </ZoomPanKeyframes>
              </ZoomPanBin>
             </Entry>
            </ExtraData>
           </VMFile>
           <VMFile id="16954" start="8114" duration="615" scalar="1/1" mediaStart="15918/1" mediaDuration="615/1" trackNumber="0" src="4" >
            <Transformer>
             <VectorParam id="16955"  name="translation">
              <InterpolatingParam id="16956" interp="linr"  time="-9999999/1" value="0" leadInLength="0/1"  />
              <InterpolatingParam id="16957" interp="linr"  time="-9999999/1" value="0" leadInLength="0/1"  />
              <InterpolatingParam id="16958" interp="linr"  time="-9999999/1" value="0" leadInLength="0/1"  />
             </VectorParam>
             <VectorParam id="16959"  name="rotation">
              <InterpolatingParam id="16960" interp="linr"  time="-9999999/1" value="0" leadInLength="0/1"  />
              <InterpolatingParam id="16961" interp="linr"  time="-9999999/1" value="0" leadInLength="0/1"  />
              <InterpolatingParam id="16962" interp="linr"  time="-9999999/1" value="0" leadInLength="0/1"  />
             </VectorParam>
             <VectorParam id="16963"  name="shear">
              <InterpolatingParam id="16964" interp="linr"  time="-9999999/1" value="0" leadInLength="0/1"  />
              <InterpolatingParam id="16965" interp="linr"  time="-9999999/1" value="0" leadInLength="0/1"  />
              <InterpolatingParam id="16966" interp="linr"  time="-9999999/1" value="0" leadInLength="0/1"  />
             </VectorParam>
             <VectorParam id="16967"  name="scale">
              <InterpolatingParam id="16968" interp="linr"  time="-9999999/1" value="1" leadInLength="0/1"  />
              <InterpolatingParam id="16969" interp="linr"  time="-9999999/1" value="1" leadInLength="0/1"  />
              <InterpolatingParam id="16970" interp="linr"  time="-9999999/1" value="1" leadInLength="0/1"  />
             </VectorParam>
             <VectorParam id="16971"  name="anchor">
              <InterpolatingParam id="16972" interp="linr"  time="0/1" value="0" leadInLength="0/1"  />
              <InterpolatingParam id="16973" interp="linr"  time="0/1" value="0" leadInLength="0/1"  />
              <InterpolatingParam id="16974" interp="linr"  time="0/1" value="0" leadInLength="0/1"  />
             </VectorParam>
            </Transformer>
            <Parameters>
             <VectorParam id="16975"  name="sourceCrop">
              <InterpolatingParam id="16976" interp="linr"  time="0/1" value="0" leadInLength="0/1"  />
              <InterpolatingParam id="16977" interp="linr"  time="0/1" value="0" leadInLength="0/1"  />
              <InterpolatingParam id="16978" interp="linr"  time="0/1" value="0" leadInLength="0/1"  />
              <InterpolatingParam id="16979" interp="linr"  time="0/1" value="0" leadInLength="0/1"  />
             </VectorParam>
             <VectorParam id="16980"  name="geometryCrop">
              <InterpolatingParam id="16981" interp="linr"  time="-9999999/1" value="0" leadInLength="0/1"  />
              <InterpolatingParam id="16982" interp="linr"  time="-9999999/1" value="0" leadInLength="0/1"  />
              <InterpolatingParam id="16983" interp="linr"  time="-9999999/1" value="0" leadInLength="0/1"  />
              <InterpolatingParam id="16984" interp="linr"  time="-9999999/1" value="0" leadInLength="0/1"  />
             </VectorParam>
             <InterpolatingParam id="16985" interp="linr"  time="-9999999/1" value="1" leadInLength="0/1"  name="opacity"/>
            </Parameters>
            <Attributes>
             <Attribute id="16986" value="" name="ident"/>
            </Attributes>
            <MetaData>
             <entry key="WinSubProjectDisplayName" val=""/>
            </MetaData>
            <ExtraData>
             <Entry key="ZoomPanBin">
              <ZoomPanBin id="16987"  >
               <ZoomPanKeyframes>
                <ZoomPanKeyframe id="16988" timeRangeEnd="-9999999/1" timeRangeDuration="0/1" interpolaterName=""  />
               </ZoomPanKeyframes>
              </ZoomPanBin>
             </Entry>
            </ExtraData>
           </VMFile>
           <VMFile id="16989" start="8729" duration="323" scalar="1/1" mediaStart="16694/1" mediaDuration="323/1" trackNumber="0" src="4" >
            <Transformer>
             <VectorParam id="16990"  name="translation">
              <InterpolatingParam id="16991" interp="linr"  time="-9999999/1" value="0" leadInLength="0/1"  />
              <InterpolatingParam id="16992" interp="linr"  time="-9999999/1" value="0" leadInLength="0/1"  />
              <InterpolatingParam id="16993" interp="linr"  time="-9999999/1" value="0" leadInLength="0/1"  />
             </VectorParam>
             <VectorParam id="16994"  name="rotation">
              <InterpolatingParam id="16995" interp="linr"  time="-9999999/1" value="0" leadInLength="0/1"  />
              <InterpolatingParam id="16996" interp="linr"  time="-9999999/1" value="0" leadInLength="0/1"  />
              <InterpolatingParam id="16997" interp="linr"  time="-9999999/1" value="0" leadInLength="0/1"  />
             </VectorParam>
             <VectorParam id="16998"  name="shear">
              <InterpolatingParam id="16999" interp="linr"  time="-9999999/1" value="0" leadInLength="0/1"  />
              <InterpolatingParam id="17000" interp="linr"  time="-9999999/1" value="0" leadInLength="0/1"  />
              <InterpolatingParam id="17001" interp="linr"  time="-9999999/1" value="0" leadInLength="0/1"  />
             </VectorParam>
             <VectorParam id="17002"  name="scale">
              <InterpolatingParam id="17003" interp="linr"  time="-9999999/1" value="1" leadInLength="0/1"  />
              <InterpolatingParam id="17004" interp="linr"  time="-9999999/1" value="1" leadInLength="0/1"  />
              <InterpolatingParam id="17005" interp="linr"  time="-9999999/1" value="1" leadInLength="0/1"  />
             </VectorParam>
             <VectorParam id="17006"  name="anchor">
              <InterpolatingParam id="17007" interp="linr"  time="0/1" value="0" leadInLength="0/1"  />
              <InterpolatingParam id="17008" interp="linr"  time="0/1" value="0" leadInLength="0/1"  />
              <InterpolatingParam id="17009" interp="linr"  time="0/1" value="0" leadInLength="0/1"  />
             </VectorParam>
            </Transformer>
            <Parameters>
             <VectorParam id="17010"  name="sourceCrop">
              <InterpolatingParam id="17011" interp="linr"  time="0/1" value="0" leadInLength="0/1"  />
              <InterpolatingParam id="17012" interp="linr"  time="0/1" value="0" leadInLength="0/1"  />
              <InterpolatingParam id="17013" interp="linr"  time="0/1" value="0" leadInLength="0/1"  />
              <InterpolatingParam id="17014" interp="linr"  time="0/1" value="0" leadInLength="0/1"  />
             </VectorParam>
             <VectorParam id="17015"  name="geometryCrop">
              <InterpolatingParam id="17016" interp="linr"  time="-9999999/1" value="0" leadInLength="0/1"  />
              <InterpolatingParam id="17017" interp="linr"  time="-9999999/1" value="0" leadInLength="0/1"  />
              <InterpolatingParam id="17018" interp="linr"  time="-9999999/1" value="0" leadInLength="0/1"  />
              <InterpolatingParam id="17019" interp="linr"  time="-9999999/1" value="0" leadInLength="0/1"  />
             </VectorParam>
             <InterpolatingParam id="17020" interp="linr"  time="-9999999/1" value="1" leadInLength="0/1"  name="opacity"/>
            </Parameters>
            <Attributes>
             <Attribute id="17021" value="" name="ident"/>
            </Attributes>
            <MetaData>
             <entry key="WinSubProjectDisplayName" val=""/>
            </MetaData>
            <ExtraData>
             <Entry key="ZoomPanBin">
              <ZoomPanBin id="17022"  >
               <ZoomPanKeyframes>
                <ZoomPanKeyframe id="17023" timeRangeEnd="-9999999/1" timeRangeDuration="0/1" interpolaterName=""  />
               </ZoomPanKeyframes>
              </ZoomPanBin>
             </Entry>
            </ExtraData>
           </VMFile>
           <VMFile id="17024" start="9052" duration="223" scalar="1/1" mediaStart="17164/1" mediaDuration="223/1" trackNumber="0" src="4" >
            <Transformer>
             <VectorParam id="17025"  name="translation">
              <InterpolatingParam id="17026" interp="linr"  time="-9999999/1" value="0" leadInLength="0/1"  />
              <InterpolatingParam id="17027" interp="linr"  time="-9999999/1" value="0" leadInLength="0/1"  />
              <InterpolatingParam id="17028" interp="linr"  time="-9999999/1" value="0" leadInLength="0/1"  />
             </VectorParam>
             <VectorParam id="17029"  name="rotation">
              <InterpolatingParam id="17030" interp="linr"  time="-9999999/1" value="0" leadInLength="0/1"  />
              <InterpolatingParam id="17031" interp="linr"  time="-9999999/1" value="0" leadInLength="0/1"  />
              <InterpolatingParam id="17032" interp="linr"  time="-9999999/1" value="0" leadInLength="0/1"  />
             </VectorParam>
             <VectorParam id="17033"  name="shear">
              <InterpolatingParam id="17034" interp="linr"  time="-9999999/1" value="0" leadInLength="0/1"  />
              <InterpolatingParam id="17035" interp="linr"  time="-9999999/1" value="0" leadInLength="0/1"  />
              <InterpolatingParam id="17036" interp="linr"  time="-9999999/1" value="0" leadInLength="0/1"  />
             </VectorParam>
             <VectorParam id="17037"  name="scale">
              <InterpolatingParam id="17038" interp="linr"  time="-9999999/1" value="1" leadInLength="0/1"  />
              <InterpolatingParam id="17039" interp="linr"  time="-9999999/1" value="1" leadInLength="0/1"  />
              <InterpolatingParam id="17040" interp="linr"  time="-9999999/1" value="1" leadInLength="0/1"  />
             </VectorParam>
             <VectorParam id="17041"  name="anchor">
              <InterpolatingParam id="17042" interp="linr"  time="0/1" value="0" leadInLength="0/1"  />
              <InterpolatingParam id="17043" interp="linr"  time="0/1" value="0" leadInLength="0/1"  />
              <InterpolatingParam id="17044" interp="linr"  time="0/1" value="0" leadInLength="0/1"  />
             </VectorParam>
            </Transformer>
            <Parameters>
             <VectorParam id="17045"  name="sourceCrop">
              <InterpolatingParam id="17046" interp="linr"  time="0/1" value="0" leadInLength="0/1"  />
              <InterpolatingParam id="17047" interp="linr"  time="0/1" value="0" leadInLength="0/1"  />
              <InterpolatingParam id="17048" interp="linr"  time="0/1" value="0" leadInLength="0/1"  />
              <InterpolatingParam id="17049" interp="linr"  time="0/1" value="0" leadInLength="0/1"  />
             </VectorParam>
             <VectorParam id="17050"  name="geometryCrop">
              <InterpolatingParam id="17051" interp="linr"  time="-9999999/1" value="0" leadInLength="0/1"  />
              <InterpolatingParam id="17052" interp="linr"  time="-9999999/1" value="0" leadInLength="0/1"  />
              <InterpolatingParam id="17053" interp="linr"  time="-9999999/1" value="0" leadInLength="0/1"  />
              <InterpolatingParam id="17054" interp="linr"  time="-9999999/1" value="0" leadInLength="0/1"  />
             </VectorParam>
             <InterpolatingParam id="17055" interp="linr"  time="-9999999/1" value="1" leadInLength="0/1"  name="opacity"/>
            </Parameters>
            <Attributes>
             <Attribute id="17056" value="" name="ident"/>
            </Attributes>
            <MetaData>
             <entry key="WinSubProjectDisplayName" val=""/>
            </MetaData>
            <ExtraData>
             <Entry key="ZoomPanBin">
              <ZoomPanBin id="17057"  >
               <ZoomPanKeyframes>
                <ZoomPanKeyframe id="17058" timeRangeEnd="-9999999/1" timeRangeDuration="0/1" interpolaterName=""  />
               </ZoomPanKeyframes>
              </ZoomPanBin>
             </Entry>
            </ExtraData>
           </VMFile>
           <VMFile id="17059" start="9275" duration="323" scalar="1/1" mediaStart="26742/1" mediaDuration="323/1" trackNumber="0" src="4" >
            <Transformer>
             <VectorParam id="17060"  name="translation">
              <InterpolatingParam id="17061" interp="linr"  time="-9999999/1" value="0" leadInLength="0/1"  />
              <InterpolatingParam id="17062" interp="linr"  time="-9999999/1" value="0" leadInLength="0/1"  />
              <InterpolatingParam id="17063" interp="linr"  time="-9999999/1" value="0" leadInLength="0/1"  />
             </VectorParam>
             <VectorParam id="17064"  name="rotation">
              <InterpolatingParam id="17065" interp="linr"  time="-9999999/1" value="0" leadInLength="0/1"  />
              <InterpolatingParam id="17066" interp="linr"  time="-9999999/1" value="0" leadInLength="0/1"  />
              <InterpolatingParam id="17067" interp="linr"  time="-9999999/1" value="0" leadInLength="0/1"  />
             </VectorParam>
             <VectorParam id="17068"  name="shear">
              <InterpolatingParam id="17069" interp="linr"  time="-9999999/1" value="0" leadInLength="0/1"  />
              <InterpolatingParam id="17070" interp="linr"  time="-9999999/1" value="0" leadInLength="0/1"  />
              <InterpolatingParam id="17071" interp="linr"  time="-9999999/1" value="0" leadInLength="0/1"  />
             </VectorParam>
             <VectorParam id="17072"  name="scale">
              <InterpolatingParam id="17073" interp="linr"  time="-9999999/1" value="1" leadInLength="0/1"  />
              <InterpolatingParam id="17074" interp="linr"  time="-9999999/1" value="1" leadInLength="0/1"  />
              <InterpolatingParam id="17075" interp="linr"  time="-9999999/1" value="1" leadInLength="0/1"  />
             </VectorParam>
             <VectorParam id="17076"  name="anchor">
              <InterpolatingParam id="17077" interp="linr"  time="0/1" value="0" leadInLength="0/1"  />
              <InterpolatingParam id="17078" interp="linr"  time="0/1" value="0" leadInLength="0/1"  />
              <InterpolatingParam id="17079" interp="linr"  time="0/1" value="0" leadInLength="0/1"  />
             </VectorParam>
            </Transformer>
            <Parameters>
             <VectorParam id="17080"  name="sourceCrop">
              <InterpolatingParam id="17081" interp="linr"  time="0/1" value="0" leadInLength="0/1"  />
              <InterpolatingParam id="17082" interp="linr"  time="0/1" value="0" leadInLength="0/1"  />
              <InterpolatingParam id="17083" interp="linr"  time="0/1" value="0" leadInLength="0/1"  />
              <InterpolatingParam id="17084" interp="linr"  time="0/1" value="0" leadInLength="0/1"  />
             </VectorParam>
             <VectorParam id="17085"  name="geometryCrop">
              <InterpolatingParam id="17086" interp="linr"  time="-9999999/1" value="0" leadInLength="0/1"  />
              <InterpolatingParam id="17087" interp="linr"  time="-9999999/1" value="0" leadInLength="0/1"  />
              <InterpolatingParam id="17088" interp="linr"  time="-9999999/1" value="0" leadInLength="0/1"  />
              <InterpolatingParam id="17089" interp="linr"  time="-9999999/1" value="0" leadInLength="0/1"  />
             </VectorParam>
             <InterpolatingParam id="17090" interp="linr"  time="-9999999/1" value="1" leadInLength="0/1"  name="opacity"/>
            </Parameters>
            <Attributes>
             <Attribute id="17091" value="" name="ident"/>
            </Attributes>
            <MetaData>
             <entry key="WinSubProjectDisplayName" val=""/>
            </MetaData>
            <ExtraData>
             <Entry key="ZoomPanBin">
              <ZoomPanBin id="17092"  >
               <ZoomPanKeyframes>
                <ZoomPanKeyframe id="17093" timeRangeEnd="-9999999/1" timeRangeDuration="0/1" interpolaterName=""  />
               </ZoomPanKeyframes>
              </ZoomPanBin>
             </Entry>
            </ExtraData>
           </VMFile>
           <VMFile id="17094" start="9598" duration="259" scalar="1/1" mediaStart="27825/1" mediaDuration="259/1" trackNumber="0" src="4" >
            <Transformer>
             <VectorParam id="17095"  name="translation">
              <InterpolatingParam id="17096" interp="linr"  time="-9999999/1" value="0" leadInLength="0/1"  />
              <InterpolatingParam id="17097" interp="linr"  time="-9999999/1" value="0" leadInLength="0/1"  />
              <InterpolatingParam id="17098" interp="linr"  time="-9999999/1" value="0" leadInLength="0/1"  />
             </VectorParam>
             <VectorParam id="17099"  name="rotation">
              <InterpolatingParam id="17100" interp="linr"  time="-9999999/1" value="0" leadInLength="0/1"  />
              <InterpolatingParam id="17101" interp="linr"  time="-9999999/1" value="0" leadInLength="0/1"  />
              <InterpolatingParam id="17102" interp="linr"  time="-9999999/1" value="0" leadInLength="0/1"  />
             </VectorParam>
             <VectorParam id="17103"  name="shear">
              <InterpolatingParam id="17104" interp="linr"  time="-9999999/1" value="0" leadInLength="0/1"  />
              <InterpolatingParam id="17105" interp="linr"  time="-9999999/1" value="0" leadInLength="0/1"  />
              <InterpolatingParam id="17106" interp="linr"  time="-9999999/1" value="0" leadInLength="0/1"  />
             </VectorParam>
             <VectorParam id="17107"  name="scale">
              <InterpolatingParam id="17108" interp="linr"  time="-9999999/1" value="1" leadInLength="0/1"  />
              <InterpolatingParam id="17109" interp="linr"  time="-9999999/1" value="1" leadInLength="0/1"  />
              <InterpolatingParam id="17110" interp="linr"  time="-9999999/1" value="1" leadInLength="0/1"  />
             </VectorParam>
             <VectorParam id="17111"  name="anchor">
              <InterpolatingParam id="17112" interp="linr"  time="0/1" value="0" leadInLength="0/1"  />
              <InterpolatingParam id="17113" interp="linr"  time="0/1" value="0" leadInLength="0/1"  />
              <InterpolatingParam id="17114" interp="linr"  time="0/1" value="0" leadInLength="0/1"  />
             </VectorParam>
            </Transformer>
            <Parameters>
             <VectorParam id="17115"  name="sourceCrop">
              <InterpolatingParam id="17116" interp="linr"  time="0/1" value="0" leadInLength="0/1"  />
              <InterpolatingParam id="17117" interp="linr"  time="0/1" value="0" leadInLength="0/1"  />
              <InterpolatingParam id="17118" interp="linr"  time="0/1" value="0" leadInLength="0/1"  />
              <InterpolatingParam id="17119" interp="linr"  time="0/1" value="0" leadInLength="0/1"  />
             </VectorParam>
             <VectorParam id="17120"  name="geometryCrop">
              <InterpolatingParam id="17121" interp="linr"  time="-9999999/1" value="0" leadInLength="0/1"  />
              <InterpolatingParam id="17122" interp="linr"  time="-9999999/1" value="0" leadInLength="0/1"  />
              <InterpolatingParam id="17123" interp="linr"  time="-9999999/1" value="0" leadInLength="0/1"  />
              <InterpolatingParam id="17124" interp="linr"  time="-9999999/1" value="0" leadInLength="0/1"  />
             </VectorParam>
             <InterpolatingParam id="17125" interp="linr"  time="-9999999/1" value="1" leadInLength="0/1"  name="opacity"/>
            </Parameters>
            <Attributes>
             <Attribute id="17126" value="" name="ident"/>
            </Attributes>
            <MetaData>
             <entry key="WinSubProjectDisplayName" val=""/>
            </MetaData>
            <ExtraData>
             <Entry key="ZoomPanBin">
              <ZoomPanBin id="17127"  >
               <ZoomPanKeyframes>
                <ZoomPanKeyframe id="17128" timeRangeEnd="-9999999/1" timeRangeDuration="0/1" interpolaterName=""  />
               </ZoomPanKeyframes>
              </ZoomPanBin>
             </Entry>
            </ExtraData>
           </VMFile>
           <VMFile id="17129" start="9857" duration="157" scalar="1/1" mediaStart="28287/1" mediaDuration="157/1" trackNumber="0" src="4" >
            <Transformer>
             <VectorParam id="17130"  name="translation">
              <InterpolatingParam id="17131" interp="linr"  time="-9999999/1" value="0" leadInLength="0/1"  />
              <InterpolatingParam id="17132" interp="linr"  time="-9999999/1" value="0" leadInLength="0/1"  />
              <InterpolatingParam id="17133" interp="linr"  time="-9999999/1" value="0" leadInLength="0/1"  />
             </VectorParam>
             <VectorParam id="17134"  name="rotation">
              <InterpolatingParam id="17135" interp="linr"  time="-9999999/1" value="0" leadInLength="0/1"  />
              <InterpolatingParam id="17136" interp="linr"  time="-9999999/1" value="0" leadInLength="0/1"  />
              <InterpolatingParam id="17137" interp="linr"  time="-9999999/1" value="0" leadInLength="0/1"  />
             </VectorParam>
             <VectorParam id="17138"  name="shear">
              <InterpolatingParam id="17139" interp="linr"  time="-9999999/1" value="0" leadInLength="0/1"  />
              <InterpolatingParam id="17140" interp="linr"  time="-9999999/1" value="0" leadInLength="0/1"  />
              <InterpolatingParam id="17141" interp="linr"  time="-9999999/1" value="0" leadInLength="0/1"  />
             </VectorParam>
             <VectorParam id="17142"  name="scale">
              <InterpolatingParam id="17143" interp="linr"  time="-9999999/1" value="1" leadInLength="0/1"  />
              <InterpolatingParam id="17144" interp="linr"  time="-9999999/1" value="1" leadInLength="0/1"  />
              <InterpolatingParam id="17145" interp="linr"  time="-9999999/1" value="1" leadInLength="0/1"  />
             </VectorParam>
             <VectorParam id="17146"  name="anchor">
              <InterpolatingParam id="17147" interp="linr"  time="0/1" value="0" leadInLength="0/1"  />
              <InterpolatingParam id="17148" interp="linr"  time="0/1" value="0" leadInLength="0/1"  />
              <InterpolatingParam id="17149" interp="linr"  time="0/1" value="0" leadInLength="0/1"  />
             </VectorParam>
            </Transformer>
            <Parameters>
             <VectorParam id="17150"  name="sourceCrop">
              <InterpolatingParam id="17151" interp="linr"  time="0/1" value="0" leadInLength="0/1"  />
              <InterpolatingParam id="17152" interp="linr"  time="0/1" value="0" leadInLength="0/1"  />
              <InterpolatingParam id="17153" interp="linr"  time="0/1" value="0" leadInLength="0/1"  />
              <InterpolatingParam id="17154" interp="linr"  time="0/1" value="0" leadInLength="0/1"  />
             </VectorParam>
             <VectorParam id="17155"  name="geometryCrop">
              <InterpolatingParam id="17156" interp="linr"  time="-9999999/1" value="0" leadInLength="0/1"  />
              <InterpolatingParam id="17157" interp="linr"  time="-9999999/1" value="0" leadInLength="0/1"  />
              <InterpolatingParam id="17158" interp="linr"  time="-9999999/1" value="0" leadInLength="0/1"  />
              <InterpolatingParam id="17159" interp="linr"  time="-9999999/1" value="0" leadInLength="0/1"  />
             </VectorParam>
             <InterpolatingParam id="17160" interp="linr"  time="-9999999/1" value="1" leadInLength="0/1"  name="opacity"/>
            </Parameters>
            <Attributes>
             <Attribute id="17161" value="" name="ident"/>
            </Attributes>
            <MetaData>
             <entry key="WinSubProjectDisplayName" val=""/>
            </MetaData>
            <ExtraData>
             <Entry key="ZoomPanBin">
              <ZoomPanBin id="17162"  >
               <ZoomPanKeyframes>
                <ZoomPanKeyframe id="17163" timeRangeEnd="-9999999/1" timeRangeDuration="0/1" interpolaterName=""  />
               </ZoomPanKeyframes>
              </ZoomPanBin>
             </Entry>
            </ExtraData>
           </VMFile>
           <VMFile id="17164" start="10014" duration="290" scalar="1/1" mediaStart="28689/1" mediaDuration="290/1" trackNumber="0" src="4" >
            <Transformer>
             <VectorParam id="17165"  name="translation">
              <InterpolatingParam id="17166" interp="linr"  time="-9999999/1" value="0" leadInLength="0/1"  />
              <InterpolatingParam id="17167" interp="linr"  time="-9999999/1" value="0" leadInLength="0/1"  />
              <InterpolatingParam id="17168" interp="linr"  time="-9999999/1" value="0" leadInLength="0/1"  />
             </VectorParam>
             <VectorParam id="17169"  name="rotation">
              <InterpolatingParam id="17170" interp="linr"  time="-9999999/1" value="0" leadInLength="0/1"  />
              <InterpolatingParam id="17171" interp="linr"  time="-9999999/1" value="0" leadInLength="0/1"  />
              <InterpolatingParam id="17172" interp="linr"  time="-9999999/1" value="0" leadInLength="0/1"  />
             </VectorParam>
             <VectorParam id="17173"  name="shear">
              <InterpolatingParam id="17174" interp="linr"  time="-9999999/1" value="0" leadInLength="0/1"  />
              <InterpolatingParam id="17175" interp="linr"  time="-9999999/1" value="0" leadInLength="0/1"  />
              <InterpolatingParam id="17176" interp="linr"  time="-9999999/1" value="0" leadInLength="0/1"  />
             </VectorParam>
             <VectorParam id="17177"  name="scale">
              <InterpolatingParam id="17178" interp="linr"  time="-9999999/1" value="1" leadInLength="0/1"  />
              <InterpolatingParam id="17179" interp="linr"  time="-9999999/1" value="1" leadInLength="0/1"  />
              <InterpolatingParam id="17180" interp="linr"  time="-9999999/1" value="1" leadInLength="0/1"  />
             </VectorParam>
             <VectorParam id="17181"  name="anchor">
              <InterpolatingParam id="17182" interp="linr"  time="0/1" value="0" leadInLength="0/1"  />
              <InterpolatingParam id="17183" interp="linr"  time="0/1" value="0" leadInLength="0/1"  />
              <InterpolatingParam id="17184" interp="linr"  time="0/1" value="0" leadInLength="0/1"  />
             </VectorParam>
            </Transformer>
            <Parameters>
             <VectorParam id="17185"  name="sourceCrop">
              <InterpolatingParam id="17186" interp="linr"  time="0/1" value="0" leadInLength="0/1"  />
              <InterpolatingParam id="17187" interp="linr"  time="0/1" value="0" leadInLength="0/1"  />
              <InterpolatingParam id="17188" interp="linr"  time="0/1" value="0" leadInLength="0/1"  />
              <InterpolatingParam id="17189" interp="linr"  time="0/1" value="0" leadInLength="0/1"  />
             </VectorParam>
             <VectorParam id="17190"  name="geometryCrop">
              <InterpolatingParam id="17191" interp="linr"  time="-9999999/1" value="0" leadInLength="0/1"  />
              <InterpolatingParam id="17192" interp="linr"  time="-9999999/1" value="0" leadInLength="0/1"  />
              <InterpolatingParam id="17193" interp="linr"  time="-9999999/1" value="0" leadInLength="0/1"  />
              <InterpolatingParam id="17194" interp="linr"  time="-9999999/1" value="0" leadInLength="0/1"  />
             </VectorParam>
             <InterpolatingParam id="17195" interp="linr"  time="-9999999/1" value="1" leadInLength="0/1"  name="opacity"/>
            </Parameters>
            <Attributes>
             <Attribute id="17196" value="" name="ident"/>
            </Attributes>
            <MetaData>
             <entry key="WinSubProjectDisplayName" val=""/>
            </MetaData>
            <ExtraData>
             <Entry key="ZoomPanBin">
              <ZoomPanBin id="17197"  >
               <ZoomPanKeyframes>
                <ZoomPanKeyframe id="17198" timeRangeEnd="-9999999/1" timeRangeDuration="0/1" interpolaterName=""  />
               </ZoomPanKeyframes>
              </ZoomPanBin>
             </Entry>
            </ExtraData>
           </VMFile>
           <IMFile id="17199" start="10304" duration="60" scalar="1/1" mediaStart="29056/1" mediaDuration="1/1" trackNumber="0" src="4" trimStartSum="0/1" >
            <Transformer>
             <VectorParam id="17200"  name="translation">
              <InterpolatingParam id="17201" interp="linr"  time="-9999999/1" value="0" leadInLength="0/1"  />
              <InterpolatingParam id="17202" interp="linr"  time="-9999999/1" value="0" leadInLength="0/1"  />
              <InterpolatingParam id="17203" interp="linr"  time="-9999999/1" value="0" leadInLength="0/1"  />
             </VectorParam>
             <VectorParam id="17204"  name="rotation">
              <InterpolatingParam id="17205" interp="linr"  time="-9999999/1" value="0" leadInLength="0/1"  />
              <InterpolatingParam id="17206" interp="linr"  time="-9999999/1" value="0" leadInLength="0/1"  />
              <InterpolatingParam id="17207" interp="linr"  time="-9999999/1" value="0" leadInLength="0/1"  />
             </VectorParam>
             <VectorParam id="17208"  name="shear">
              <InterpolatingParam id="17209" interp="linr"  time="-9999999/1" value="0" leadInLength="0/1"  />
              <InterpolatingParam id="17210" interp="linr"  time="-9999999/1" value="0" leadInLength="0/1"  />
              <InterpolatingParam id="17211" interp="linr"  time="-9999999/1" value="0" leadInLength="0/1"  />
             </VectorParam>
             <VectorParam id="17212"  name="scale">
              <InterpolatingParam id="17213" interp="linr"  time="-9999999/1" value="1" leadInLength="0/1"  />
              <InterpolatingParam id="17214" interp="linr"  time="-9999999/1" value="1" leadInLength="0/1"  />
              <InterpolatingParam id="17215" interp="linr"  time="-9999999/1" value="1" leadInLength="0/1"  />
             </VectorParam>
             <VectorParam id="17216"  name="anchor">
              <InterpolatingParam id="17217" interp="linr"  time="0/1" value="0" leadInLength="0/1"  />
              <InterpolatingParam id="17218" interp="linr"  time="0/1" value="0" leadInLength="0/1"  />
              <InterpolatingParam id="17219" interp="linr"  time="0/1" value="0" leadInLength="0/1"  />
             </VectorParam>
            </Transformer>
            <Parameters>
             <VectorParam id="17220"  name="sourceCrop">
              <InterpolatingParam id="17221" interp="linr"  time="0/1" value="0" leadInLength="0/1"  />
              <InterpolatingParam id="17222" interp="linr"  time="0/1" value="0" leadInLength="0/1"  />
              <InterpolatingParam id="17223" interp="linr"  time="0/1" value="0" leadInLength="0/1"  />
              <InterpolatingParam id="17224" interp="linr"  time="0/1" value="0" leadInLength="0/1"  />
             </VectorParam>
             <VectorParam id="17225"  name="geometryCrop">
              <InterpolatingParam id="17226" interp="linr"  time="-9999999/1" value="0" leadInLength="0/1"  />
              <InterpolatingParam id="17227" interp="linr"  time="-9999999/1" value="0" leadInLength="0/1"  />
              <InterpolatingParam id="17228" interp="linr"  time="-9999999/1" value="0" leadInLength="0/1"  />
              <InterpolatingParam id="17229" interp="linr"  time="-9999999/1" value="0" leadInLength="0/1"  />
             </VectorParam>
             <InterpolatingParam id="17230" interp="linr"  time="-9999999/1" value="1" leadInLength="0/1"  name="opacity"/>
            </Parameters>
            <Attributes>
             <Attribute id="17231" value="" name="ident"/>
            </Attributes>
            <MetaData>
             <entry key="WinSubProjectDisplayName" val=""/>
            </MetaData>
            <ExtraData>
             <Entry key="ZoomPanBin">
              <ZoomPanBin id="17232"  >
               <ZoomPanKeyframes>
                <ZoomPanKeyframe id="17233" timeRangeEnd="-9999999/1" timeRangeDuration="0/1" interpolaterName=""  />
               </ZoomPanKeyframes>
              </ZoomPanBin>
             </Entry>
            </ExtraData>
           </IMFile>
           <VMFile id="17234" start="10364" duration="18" scalar="1/1" mediaStart="29056/1" mediaDuration="18/1" trackNumber="0" src="4" >
            <Transformer>
             <VectorParam id="17235"  name="translation">
              <InterpolatingParam id="17236" interp="linr"  time="-9999999/1" value="0" leadInLength="0/1"  />
              <InterpolatingParam id="17237" interp="linr"  time="-9999999/1" value="0" leadInLength="0/1"  />
              <InterpolatingParam id="17238" interp="linr"  time="-9999999/1" value="0" leadInLength="0/1"  />
             </VectorParam>
             <VectorParam id="17239"  name="rotation">
              <InterpolatingParam id="17240" interp="linr"  time="-9999999/1" value="0" leadInLength="0/1"  />
              <InterpolatingParam id="17241" interp="linr"  time="-9999999/1" value="0" leadInLength="0/1"  />
              <InterpolatingParam id="17242" interp="linr"  time="-9999999/1" value="0" leadInLength="0/1"  />
             </VectorParam>
             <VectorParam id="17243"  name="shear">
              <InterpolatingParam id="17244" interp="linr"  time="-9999999/1" value="0" leadInLength="0/1"  />
              <InterpolatingParam id="17245" interp="linr"  time="-9999999/1" value="0" leadInLength="0/1"  />
              <InterpolatingParam id="17246" interp="linr"  time="-9999999/1" value="0" leadInLength="0/1"  />
             </VectorParam>
             <VectorParam id="17247"  name="scale">
              <InterpolatingParam id="17248" interp="linr"  time="-9999999/1" value="1" leadInLength="0/1"  />
              <InterpolatingParam id="17249" interp="linr"  time="-9999999/1" value="1" leadInLength="0/1"  />
              <InterpolatingParam id="17250" interp="linr"  time="-9999999/1" value="1" leadInLength="0/1"  />
             </VectorParam>
             <VectorParam id="17251"  name="anchor">
              <InterpolatingParam id="17252" interp="linr"  time="0/1" value="0" leadInLength="0/1"  />
              <InterpolatingParam id="17253" interp="linr"  time="0/1" value="0" leadInLength="0/1"  />
              <InterpolatingParam id="17254" interp="linr"  time="0/1" value="0" leadInLength="0/1"  />
             </VectorParam>
            </Transformer>
            <Parameters>
             <VectorParam id="17255"  name="sourceCrop">
              <InterpolatingParam id="17256" interp="linr"  time="0/1" value="0" leadInLength="0/1"  />
              <InterpolatingParam id="17257" interp="linr"  time="0/1" value="0" leadInLength="0/1"  />
              <InterpolatingParam id="17258" interp="linr"  time="0/1" value="0" leadInLength="0/1"  />
              <InterpolatingParam id="17259" interp="linr"  time="0/1" value="0" leadInLength="0/1"  />
             </VectorParam>
             <VectorParam id="17260"  name="geometryCrop">
              <InterpolatingParam id="17261" interp="linr"  time="-9999999/1" value="0" leadInLength="0/1"  />
              <InterpolatingParam id="17262" interp="linr"  time="-9999999/1" value="0" leadInLength="0/1"  />
              <InterpolatingParam id="17263" interp="linr"  time="-9999999/1" value="0" leadInLength="0/1"  />
              <InterpolatingParam id="17264" interp="linr"  time="-9999999/1" value="0" leadInLength="0/1"  />
             </VectorParam>
             <InterpolatingParam id="17265" interp="linr"  time="-9999999/1" value="1" leadInLength="0/1"  name="opacity"/>
            </Parameters>
            <Attributes>
             <Attribute id="17266" value="" name="ident"/>
            </Attributes>
            <MetaData>
             <entry key="WinSubProjectDisplayName" val=""/>
            </MetaData>
            <ExtraData>
             <Entry key="ZoomPanBin">
              <ZoomPanBin id="17267"  >
               <ZoomPanKeyframes>
                <ZoomPanKeyframe id="17268" timeRangeEnd="-9999999/1" timeRangeDuration="0/1" interpolaterName=""  />
               </ZoomPanKeyframes>
              </ZoomPanBin>
             </Entry>
            </ExtraData>
           </VMFile>
           <IMFile id="17269" start="10382" duration="30" scalar="1/1" mediaStart="29074/1" mediaDuration="1/1" trackNumber="0" src="4" trimStartSum="0/1" >
            <Transformer>
             <VectorParam id="17270"  name="translation">
              <InterpolatingParam id="17271" interp="linr"  time="-9999999/1" value="0" leadInLength="0/1"  />
              <InterpolatingParam id="17272" interp="linr"  time="-9999999/1" value="0" leadInLength="0/1"  />
              <InterpolatingParam id="17273" interp="linr"  time="-9999999/1" value="0" leadInLength="0/1"  />
             </VectorParam>
             <VectorParam id="17274"  name="rotation">
              <InterpolatingParam id="17275" interp="linr"  time="-9999999/1" value="0" leadInLength="0/1"  />
              <InterpolatingParam id="17276" interp="linr"  time="-9999999/1" value="0" leadInLength="0/1"  />
              <InterpolatingParam id="17277" interp="linr"  time="-9999999/1" value="0" leadInLength="0/1"  />
             </VectorParam>
             <VectorParam id="17278"  name="shear">
              <InterpolatingParam id="17279" interp="linr"  time="-9999999/1" value="0" leadInLength="0/1"  />
              <InterpolatingParam id="17280" interp="linr"  time="-9999999/1" value="0" leadInLength="0/1"  />
              <InterpolatingParam id="17281" interp="linr"  time="-9999999/1" value="0" leadInLength="0/1"  />
             </VectorParam>
             <VectorParam id="17282"  name="scale">
              <InterpolatingParam id="17283" interp="linr"  time="-9999999/1" value="1" leadInLength="0/1"  />
              <InterpolatingParam id="17284" interp="linr"  time="-9999999/1" value="1" leadInLength="0/1"  />
              <InterpolatingParam id="17285" interp="linr"  time="-9999999/1" value="1" leadInLength="0/1"  />
             </VectorParam>
             <VectorParam id="17286"  name="anchor">
              <InterpolatingParam id="17287" interp="linr"  time="0/1" value="0" leadInLength="0/1"  />
              <InterpolatingParam id="17288" interp="linr"  time="0/1" value="0" leadInLength="0/1"  />
              <InterpolatingParam id="17289" interp="linr"  time="0/1" value="0" leadInLength="0/1"  />
             </VectorParam>
            </Transformer>
            <Parameters>
             <VectorParam id="17290"  name="sourceCrop">
              <InterpolatingParam id="17291" interp="linr"  time="0/1" value="0" leadInLength="0/1"  />
              <InterpolatingParam id="17292" interp="linr"  time="0/1" value="0" leadInLength="0/1"  />
              <InterpolatingParam id="17293" interp="linr"  time="0/1" value="0" leadInLength="0/1"  />
              <InterpolatingParam id="17294" interp="linr"  time="0/1" value="0" leadInLength="0/1"  />
             </VectorParam>
             <VectorParam id="17295"  name="geometryCrop">
              <InterpolatingParam id="17296" interp="linr"  time="-9999999/1" value="0" leadInLength="0/1"  />
              <InterpolatingParam id="17297" interp="linr"  time="-9999999/1" value="0" leadInLength="0/1"  />
              <InterpolatingParam id="17298" interp="linr"  time="-9999999/1" value="0" leadInLength="0/1"  />
              <InterpolatingParam id="17299" interp="linr"  time="-9999999/1" value="0" leadInLength="0/1"  />
             </VectorParam>
             <InterpolatingParam id="17300" interp="linr"  time="-9999999/1" value="1" leadInLength="0/1"  name="opacity"/>
            </Parameters>
            <Attributes>
             <Attribute id="17301" value="" name="ident"/>
            </Attributes>
            <MetaData>
             <entry key="WinSubProjectDisplayName" val=""/>
            </MetaData>
            <ExtraData>
             <Entry key="ZoomPanBin">
              <ZoomPanBin id="17302"  >
               <ZoomPanKeyframes>
                <ZoomPanKeyframe id="17303" timeRangeEnd="-9999999/1" timeRangeDuration="0/1" interpolaterName=""  />
               </ZoomPanKeyframes>
              </ZoomPanBin>
             </Entry>
            </ExtraData>
           </IMFile>
           <VMFile id="17304" start="10412" duration="1" scalar="1/1" mediaStart="29074/1" mediaDuration="1/1" trackNumber="0" src="4" >
            <Transformer>
             <VectorParam id="17305"  name="translation">
              <InterpolatingParam id="17306" interp="linr"  time="-9999999/1" value="0" leadInLength="0/1"  />
              <InterpolatingParam id="17307" interp="linr"  time="-9999999/1" value="0" leadInLength="0/1"  />
              <InterpolatingParam id="17308" interp="linr"  time="-9999999/1" value="0" leadInLength="0/1"  />
             </VectorParam>
             <VectorParam id="17309"  name="rotation">
              <InterpolatingParam id="17310" interp="linr"  time="-9999999/1" value="0" leadInLength="0/1"  />
              <InterpolatingParam id="17311" interp="linr"  time="-9999999/1" value="0" leadInLength="0/1"  />
              <InterpolatingParam id="17312" interp="linr"  time="-9999999/1" value="0" leadInLength="0/1"  />
             </VectorParam>
             <VectorParam id="17313"  name="shear">
              <InterpolatingParam id="17314" interp="linr"  time="-9999999/1" value="0" leadInLength="0/1"  />
              <InterpolatingParam id="17315" interp="linr"  time="-9999999/1" value="0" leadInLength="0/1"  />
              <InterpolatingParam id="17316" interp="linr"  time="-9999999/1" value="0" leadInLength="0/1"  />
             </VectorParam>
             <VectorParam id="17317"  name="scale">
              <InterpolatingParam id="17318" interp="linr"  time="-9999999/1" value="1" leadInLength="0/1"  />
              <InterpolatingParam id="17319" interp="linr"  time="-9999999/1" value="1" leadInLength="0/1"  />
              <InterpolatingParam id="17320" interp="linr"  time="-9999999/1" value="1" leadInLength="0/1"  />
             </VectorParam>
             <VectorParam id="17321"  name="anchor">
              <InterpolatingParam id="17322" interp="linr"  time="0/1" value="0" leadInLength="0/1"  />
              <InterpolatingParam id="17323" interp="linr"  time="0/1" value="0" leadInLength="0/1"  />
              <InterpolatingParam id="17324" interp="linr"  time="0/1" value="0" leadInLength="0/1"  />
             </VectorParam>
            </Transformer>
            <Parameters>
             <VectorParam id="17325"  name="sourceCrop">
              <InterpolatingParam id="17326" interp="linr"  time="0/1" value="0" leadInLength="0/1"  />
              <InterpolatingParam id="17327" interp="linr"  time="0/1" value="0" leadInLength="0/1"  />
              <InterpolatingParam id="17328" interp="linr"  time="0/1" value="0" leadInLength="0/1"  />
              <InterpolatingParam id="17329" interp="linr"  time="0/1" value="0" leadInLength="0/1"  />
             </VectorParam>
             <VectorParam id="17330"  name="geometryCrop">
              <InterpolatingParam id="17331" interp="linr"  time="-9999999/1" value="0" leadInLength="0/1"  />
              <InterpolatingParam id="17332" interp="linr"  time="-9999999/1" value="0" leadInLength="0/1"  />
              <InterpolatingParam id="17333" interp="linr"  time="-9999999/1" value="0" leadInLength="0/1"  />
              <InterpolatingParam id="17334" interp="linr"  time="-9999999/1" value="0" leadInLength="0/1"  />
             </VectorParam>
             <InterpolatingParam id="17335" interp="linr"  time="-9999999/1" value="1" leadInLength="0/1"  name="opacity"/>
            </Parameters>
            <Attributes>
             <Attribute id="17336" value="" name="ident"/>
            </Attributes>
            <MetaData>
             <entry key="WinSubProjectDisplayName" val=""/>
            </MetaData>
            <ExtraData>
             <Entry key="ZoomPanBin">
              <ZoomPanBin id="17337"  >
               <ZoomPanKeyframes>
                <ZoomPanKeyframe id="17338" timeRangeEnd="-9999999/1" timeRangeDuration="0/1" interpolaterName=""  />
               </ZoomPanKeyframes>
              </ZoomPanBin>
             </Entry>
            </ExtraData>
           </VMFile>
           <VMFile id="17339" start="10413" duration="42" scalar="1/1" mediaStart="29274/1" mediaDuration="42/1" trackNumber="0" src="4" >
            <Transformer>
             <VectorParam id="17340"  name="translation">
              <InterpolatingParam id="17341" interp="linr"  time="-9999999/1" value="0" leadInLength="0/1"  />
              <InterpolatingParam id="17342" interp="linr"  time="-9999999/1" value="0" leadInLength="0/1"  />
              <InterpolatingParam id="17343" interp="linr"  time="-9999999/1" value="0" leadInLength="0/1"  />
             </VectorParam>
             <VectorParam id="17344"  name="rotation">
              <InterpolatingParam id="17345" interp="linr"  time="-9999999/1" value="0" leadInLength="0/1"  />
              <InterpolatingParam id="17346" interp="linr"  time="-9999999/1" value="0" leadInLength="0/1"  />
              <InterpolatingParam id="17347" interp="linr"  time="-9999999/1" value="0" leadInLength="0/1"  />
             </VectorParam>
             <VectorParam id="17348"  name="shear">
              <InterpolatingParam id="17349" interp="linr"  time="-9999999/1" value="0" leadInLength="0/1"  />
              <InterpolatingParam id="17350" interp="linr"  time="-9999999/1" value="0" leadInLength="0/1"  />
              <InterpolatingParam id="17351" interp="linr"  time="-9999999/1" value="0" leadInLength="0/1"  />
             </VectorParam>
             <VectorParam id="17352"  name="scale">
              <InterpolatingParam id="17353" interp="linr"  time="-9999999/1" value="1" leadInLength="0/1"  />
              <InterpolatingParam id="17354" interp="linr"  time="-9999999/1" value="1" leadInLength="0/1"  />
              <InterpolatingParam id="17355" interp="linr"  time="-9999999/1" value="1" leadInLength="0/1"  />
             </VectorParam>
             <VectorParam id="17356"  name="anchor">
              <InterpolatingParam id="17357" interp="linr"  time="0/1" value="0" leadInLength="0/1"  />
              <InterpolatingParam id="17358" interp="linr"  time="0/1" value="0" leadInLength="0/1"  />
              <InterpolatingParam id="17359" interp="linr"  time="0/1" value="0" leadInLength="0/1"  />
             </VectorParam>
            </Transformer>
            <Parameters>
             <VectorParam id="17360"  name="sourceCrop">
              <InterpolatingParam id="17361" interp="linr"  time="0/1" value="0" leadInLength="0/1"  />
              <InterpolatingParam id="17362" interp="linr"  time="0/1" value="0" leadInLength="0/1"  />
              <InterpolatingParam id="17363" interp="linr"  time="0/1" value="0" leadInLength="0/1"  />
              <InterpolatingParam id="17364" interp="linr"  time="0/1" value="0" leadInLength="0/1"  />
             </VectorParam>
             <VectorParam id="17365"  name="geometryCrop">
              <InterpolatingParam id="17366" interp="linr"  time="-9999999/1" value="0" leadInLength="0/1"  />
              <InterpolatingParam id="17367" interp="linr"  time="-9999999/1" value="0" leadInLength="0/1"  />
              <InterpolatingParam id="17368" interp="linr"  time="-9999999/1" value="0" leadInLength="0/1"  />
              <InterpolatingParam id="17369" interp="linr"  time="-9999999/1" value="0" leadInLength="0/1"  />
             </VectorParam>
             <InterpolatingParam id="17370" interp="linr"  time="-9999999/1" value="1" leadInLength="0/1"  name="opacity"/>
            </Parameters>
            <Attributes>
             <Attribute id="17371" value="" name="ident"/>
            </Attributes>
            <MetaData>
             <entry key="WinSubProjectDisplayName" val=""/>
            </MetaData>
            <ExtraData>
             <Entry key="ZoomPanBin">
              <ZoomPanBin id="17372"  >
               <ZoomPanKeyframes>
                <ZoomPanKeyframe id="17373" timeRangeEnd="-9999999/1" timeRangeDuration="0/1" interpolaterName=""  />
               </ZoomPanKeyframes>
              </ZoomPanBin>
             </Entry>
            </ExtraData>
           </VMFile>
           <VMFile id="17374" start="10455" duration="147" scalar="1/1" mediaStart="29358/1" mediaDuration="147/1" trackNumber="0" src="4" >
            <Transformer>
             <VectorParam id="17375"  name="translation">
              <InterpolatingParam id="17376" interp="linr"  time="-9999999/1" value="0" leadInLength="0/1"  />
              <InterpolatingParam id="17377" interp="linr"  time="-9999999/1" value="0" leadInLength="0/1"  />
              <InterpolatingParam id="17378" interp="linr"  time="-9999999/1" value="0" leadInLength="0/1"  />
             </VectorParam>
             <VectorParam id="17379"  name="rotation">
              <InterpolatingParam id="17380" interp="linr"  time="-9999999/1" value="0" leadInLength="0/1"  />
              <InterpolatingParam id="17381" interp="linr"  time="-9999999/1" value="0" leadInLength="0/1"  />
              <InterpolatingParam id="17382" interp="linr"  time="-9999999/1" value="0" leadInLength="0/1"  />
             </VectorParam>
             <VectorParam id="17383"  name="shear">
              <InterpolatingParam id="17384" interp="linr"  time="-9999999/1" value="0" leadInLength="0/1"  />
              <InterpolatingParam id="17385" interp="linr"  time="-9999999/1" value="0" leadInLength="0/1"  />
              <InterpolatingParam id="17386" interp="linr"  time="-9999999/1" value="0" leadInLength="0/1"  />
             </VectorParam>
             <VectorParam id="17387"  name="scale">
              <InterpolatingParam id="17388" interp="linr"  time="-9999999/1" value="1" leadInLength="0/1"  />
              <InterpolatingParam id="17389" interp="linr"  time="-9999999/1" value="1" leadInLength="0/1"  />
              <InterpolatingParam id="17390" interp="linr"  time="-9999999/1" value="1" leadInLength="0/1"  />
             </VectorParam>
             <VectorParam id="17391"  name="anchor">
              <InterpolatingParam id="17392" interp="linr"  time="0/1" value="0" leadInLength="0/1"  />
              <InterpolatingParam id="17393" interp="linr"  time="0/1" value="0" leadInLength="0/1"  />
              <InterpolatingParam id="17394" interp="linr"  time="0/1" value="0" leadInLength="0/1"  />
             </VectorParam>
            </Transformer>
            <Parameters>
             <VectorParam id="17395"  name="sourceCrop">
              <InterpolatingParam id="17396" interp="linr"  time="0/1" value="0" leadInLength="0/1"  />
              <InterpolatingParam id="17397" interp="linr"  time="0/1" value="0" leadInLength="0/1"  />
              <InterpolatingParam id="17398" interp="linr"  time="0/1" value="0" leadInLength="0/1"  />
              <InterpolatingParam id="17399" interp="linr"  time="0/1" value="0" leadInLength="0/1"  />
             </VectorParam>
             <VectorParam id="17400"  name="geometryCrop">
              <InterpolatingParam id="17401" interp="linr"  time="-9999999/1" value="0" leadInLength="0/1"  />
              <InterpolatingParam id="17402" interp="linr"  time="-9999999/1" value="0" leadInLength="0/1"  />
              <InterpolatingParam id="17403" interp="linr"  time="-9999999/1" value="0" leadInLength="0/1"  />
              <InterpolatingParam id="17404" interp="linr"  time="-9999999/1" value="0" leadInLength="0/1"  />
             </VectorParam>
             <InterpolatingParam id="17405" interp="linr"  time="-9999999/1" value="1" leadInLength="0/1"  name="opacity"/>
            </Parameters>
            <Attributes>
             <Attribute id="17406" value="" name="ident"/>
            </Attributes>
            <MetaData>
             <entry key="WinSubProjectDisplayName" val=""/>
            </MetaData>
            <ExtraData>
             <Entry key="ZoomPanBin">
              <ZoomPanBin id="17407"  >
               <ZoomPanKeyframes>
                <ZoomPanKeyframe id="17408" timeRangeEnd="-9999999/1" timeRangeDuration="0/1" interpolaterName=""  />
               </ZoomPanKeyframes>
              </ZoomPanBin>
             </Entry>
            </ExtraData>
           </VMFile>
           <VMFile id="17409" start="10602" duration="580" scalar="1/1" mediaStart="29557/1" mediaDuration="580/1" trackNumber="0" src="4" >
            <Transformer>
             <VectorParam id="17410"  name="translation">
              <InterpolatingParam id="17411" interp="linr"  time="-9999999/1" value="0" leadInLength="0/1"  />
              <InterpolatingParam id="17412" interp="linr"  time="-9999999/1" value="0" leadInLength="0/1"  />
              <InterpolatingParam id="17413" interp="linr"  time="-9999999/1" value="0" leadInLength="0/1"  />
             </VectorParam>
             <VectorParam id="17414"  name="rotation">
              <InterpolatingParam id="17415" interp="linr"  time="-9999999/1" value="0" leadInLength="0/1"  />
              <InterpolatingParam id="17416" interp="linr"  time="-9999999/1" value="0" leadInLength="0/1"  />
              <InterpolatingParam id="17417" interp="linr"  time="-9999999/1" value="0" leadInLength="0/1"  />
             </VectorParam>
             <VectorParam id="17418"  name="shear">
              <InterpolatingParam id="17419" interp="linr"  time="-9999999/1" value="0" leadInLength="0/1"  />
              <InterpolatingParam id="17420" interp="linr"  time="-9999999/1" value="0" leadInLength="0/1"  />
              <InterpolatingParam id="17421" interp="linr"  time="-9999999/1" value="0" leadInLength="0/1"  />
             </VectorParam>
             <VectorParam id="17422"  name="scale">
              <InterpolatingParam id="17423" interp="linr"  time="-9999999/1" value="1" leadInLength="0/1"  />
              <InterpolatingParam id="17424" interp="linr"  time="-9999999/1" value="1" leadInLength="0/1"  />
              <InterpolatingParam id="17425" interp="linr"  time="-9999999/1" value="1" leadInLength="0/1"  />
             </VectorParam>
             <VectorParam id="17426"  name="anchor">
              <InterpolatingParam id="17427" interp="linr"  time="0/1" value="0" leadInLength="0/1"  />
              <InterpolatingParam id="17428" interp="linr"  time="0/1" value="0" leadInLength="0/1"  />
              <InterpolatingParam id="17429" interp="linr"  time="0/1" value="0" leadInLength="0/1"  />
             </VectorParam>
            </Transformer>
            <Parameters>
             <VectorParam id="17430"  name="sourceCrop">
              <InterpolatingParam id="17431" interp="linr"  time="0/1" value="0" leadInLength="0/1"  />
              <InterpolatingParam id="17432" interp="linr"  time="0/1" value="0" leadInLength="0/1"  />
              <InterpolatingParam id="17433" interp="linr"  time="0/1" value="0" leadInLength="0/1"  />
              <InterpolatingParam id="17434" interp="linr"  time="0/1" value="0" leadInLength="0/1"  />
             </VectorParam>
             <VectorParam id="17435"  name="geometryCrop">
              <InterpolatingParam id="17436" interp="linr"  time="-9999999/1" value="0" leadInLength="0/1"  />
              <InterpolatingParam id="17437" interp="linr"  time="-9999999/1" value="0" leadInLength="0/1"  />
              <InterpolatingParam id="17438" interp="linr"  time="-9999999/1" value="0" leadInLength="0/1"  />
              <InterpolatingParam id="17439" interp="linr"  time="-9999999/1" value="0" leadInLength="0/1"  />
             </VectorParam>
             <InterpolatingParam id="17440" interp="linr"  time="-9999999/1" value="1" leadInLength="0/1"  name="opacity"/>
            </Parameters>
            <Attributes>
             <Attribute id="17441" value="" name="ident"/>
            </Attributes>
            <MetaData>
             <entry key="WinSubProjectDisplayName" val=""/>
            </MetaData>
            <ExtraData>
             <Entry key="ZoomPanBin">
              <ZoomPanBin id="17442"  >
               <ZoomPanKeyframes>
                <ZoomPanKeyframe id="17443" timeRangeEnd="-9999999/1" timeRangeDuration="0/1" interpolaterName=""  />
               </ZoomPanKeyframes>
              </ZoomPanBin>
             </Entry>
            </ExtraData>
           </VMFile>
           <VMFile id="17444" start="11182" duration="25" scalar="1/1" mediaStart="30200/1" mediaDuration="25/1" trackNumber="0" src="4" >
            <Transformer>
             <VectorParam id="17445"  name="translation">
              <InterpolatingParam id="17446" interp="linr"  time="-9999999/1" value="0" leadInLength="0/1"  />
              <InterpolatingParam id="17447" interp="linr"  time="-9999999/1" value="0" leadInLength="0/1"  />
              <InterpolatingParam id="17448" interp="linr"  time="-9999999/1" value="0" leadInLength="0/1"  />
             </VectorParam>
             <VectorParam id="17449"  name="rotation">
              <InterpolatingParam id="17450" interp="linr"  time="-9999999/1" value="0" leadInLength="0/1"  />
              <InterpolatingParam id="17451" interp="linr"  time="-9999999/1" value="0" leadInLength="0/1"  />
              <InterpolatingParam id="17452" interp="linr"  time="-9999999/1" value="0" leadInLength="0/1"  />
             </VectorParam>
             <VectorParam id="17453"  name="shear">
              <InterpolatingParam id="17454" interp="linr"  time="-9999999/1" value="0" leadInLength="0/1"  />
              <InterpolatingParam id="17455" interp="linr"  time="-9999999/1" value="0" leadInLength="0/1"  />
              <InterpolatingParam id="17456" interp="linr"  time="-9999999/1" value="0" leadInLength="0/1"  />
             </VectorParam>
             <VectorParam id="17457"  name="scale">
              <InterpolatingParam id="17458" interp="linr"  time="-9999999/1" value="1" leadInLength="0/1"  />
              <InterpolatingParam id="17459" interp="linr"  time="-9999999/1" value="1" leadInLength="0/1"  />
              <InterpolatingParam id="17460" interp="linr"  time="-9999999/1" value="1" leadInLength="0/1"  />
             </VectorParam>
             <VectorParam id="17461"  name="anchor">
              <InterpolatingParam id="17462" interp="linr"  time="0/1" value="0" leadInLength="0/1"  />
              <InterpolatingParam id="17463" interp="linr"  time="0/1" value="0" leadInLength="0/1"  />
              <InterpolatingParam id="17464" interp="linr"  time="0/1" value="0" leadInLength="0/1"  />
             </VectorParam>
            </Transformer>
            <Parameters>
             <VectorParam id="17465"  name="sourceCrop">
              <InterpolatingParam id="17466" interp="linr"  time="0/1" value="0" leadInLength="0/1"  />
              <InterpolatingParam id="17467" interp="linr"  time="0/1" value="0" leadInLength="0/1"  />
              <InterpolatingParam id="17468" interp="linr"  time="0/1" value="0" leadInLength="0/1"  />
              <InterpolatingParam id="17469" interp="linr"  time="0/1" value="0" leadInLength="0/1"  />
             </VectorParam>
             <VectorParam id="17470"  name="geometryCrop">
              <InterpolatingParam id="17471" interp="linr"  time="-9999999/1" value="0" leadInLength="0/1"  />
              <InterpolatingParam id="17472" interp="linr"  time="-9999999/1" value="0" leadInLength="0/1"  />
              <InterpolatingParam id="17473" interp="linr"  time="-9999999/1" value="0" leadInLength="0/1"  />
              <InterpolatingParam id="17474" interp="linr"  time="-9999999/1" value="0" leadInLength="0/1"  />
             </VectorParam>
             <InterpolatingParam id="17475" interp="linr"  time="-9999999/1" value="1" leadInLength="0/1"  name="opacity"/>
            </Parameters>
            <Attributes>
             <Attribute id="17476" value="" name="ident"/>
            </Attributes>
            <MetaData>
             <entry key="WinSubProjectDisplayName" val=""/>
            </MetaData>
            <ExtraData>
             <Entry key="ZoomPanBin">
              <ZoomPanBin id="17477"  >
               <ZoomPanKeyframes>
                <ZoomPanKeyframe id="17478" timeRangeEnd="-9999999/1" timeRangeDuration="0/1" interpolaterName=""  />
               </ZoomPanKeyframes>
              </ZoomPanBin>
             </Entry>
            </ExtraData>
           </VMFile>
           <VMFile id="17479" start="11207" duration="119" scalar="1/1" mediaStart="30368/1" mediaDuration="119/1" trackNumber="0" src="4" >
            <Transformer>
             <VectorParam id="17480"  name="translation">
              <InterpolatingParam id="17481" interp="linr"  time="-9999999/1" value="0" leadInLength="0/1"  />
              <InterpolatingParam id="17482" interp="linr"  time="-9999999/1" value="0" leadInLength="0/1"  />
              <InterpolatingParam id="17483" interp="linr"  time="-9999999/1" value="0" leadInLength="0/1"  />
             </VectorParam>
             <VectorParam id="17484"  name="rotation">
              <InterpolatingParam id="17485" interp="linr"  time="-9999999/1" value="0" leadInLength="0/1"  />
              <InterpolatingParam id="17486" interp="linr"  time="-9999999/1" value="0" leadInLength="0/1"  />
              <InterpolatingParam id="17487" interp="linr"  time="-9999999/1" value="0" leadInLength="0/1"  />
             </VectorParam>
             <VectorParam id="17488"  name="shear">
              <InterpolatingParam id="17489" interp="linr"  time="-9999999/1" value="0" leadInLength="0/1"  />
              <InterpolatingParam id="17490" interp="linr"  time="-9999999/1" value="0" leadInLength="0/1"  />
              <InterpolatingParam id="17491" interp="linr"  time="-9999999/1" value="0" leadInLength="0/1"  />
             </VectorParam>
             <VectorParam id="17492"  name="scale">
              <InterpolatingParam id="17493" interp="linr"  time="-9999999/1" value="1" leadInLength="0/1"  />
              <InterpolatingParam id="17494" interp="linr"  time="-9999999/1" value="1" leadInLength="0/1"  />
              <InterpolatingParam id="17495" interp="linr"  time="-9999999/1" value="1" leadInLength="0/1"  />
             </VectorParam>
             <VectorParam id="17496"  name="anchor">
              <InterpolatingParam id="17497" interp="linr"  time="0/1" value="0" leadInLength="0/1"  />
              <InterpolatingParam id="17498" interp="linr"  time="0/1" value="0" leadInLength="0/1"  />
              <InterpolatingParam id="17499" interp="linr"  time="0/1" value="0" leadInLength="0/1"  />
             </VectorParam>
            </Transformer>
            <Parameters>
             <VectorParam id="17500"  name="sourceCrop">
              <InterpolatingParam id="17501" interp="linr"  time="0/1" value="0" leadInLength="0/1"  />
              <InterpolatingParam id="17502" interp="linr"  time="0/1" value="0" leadInLength="0/1"  />
              <InterpolatingParam id="17503" interp="linr"  time="0/1" value="0" leadInLength="0/1"  />
              <InterpolatingParam id="17504" interp="linr"  time="0/1" value="0" leadInLength="0/1"  />
             </VectorParam>
             <VectorParam id="17505"  name="geometryCrop">
              <InterpolatingParam id="17506" interp="linr"  time="-9999999/1" value="0" leadInLength="0/1"  />
              <InterpolatingParam id="17507" interp="linr"  time="-9999999/1" value="0" leadInLength="0/1"  />
              <InterpolatingParam id="17508" interp="linr"  time="-9999999/1" value="0" leadInLength="0/1"  />
              <InterpolatingParam id="17509" interp="linr"  time="-9999999/1" value="0" leadInLength="0/1"  />
             </VectorParam>
             <InterpolatingParam id="17510" interp="linr"  time="-9999999/1" value="1" leadInLength="0/1"  name="opacity"/>
            </Parameters>
            <Attributes>
             <Attribute id="17511" value="" name="ident"/>
            </Attributes>
            <MetaData>
             <entry key="WinSubProjectDisplayName" val=""/>
            </MetaData>
            <ExtraData>
             <Entry key="ZoomPanBin">
              <ZoomPanBin id="17512"  >
               <ZoomPanKeyframes>
                <ZoomPanKeyframe id="17513" timeRangeEnd="-9999999/1" timeRangeDuration="0/1" interpolaterName=""  />
               </ZoomPanKeyframes>
              </ZoomPanBin>
             </Entry>
            </ExtraData>
           </VMFile>
           <VMFile id="17514" start="11326" duration="411" scalar="1/1" mediaStart="30756/1" mediaDuration="411/1" trackNumber="0" src="4" >
            <Transformer>
             <VectorParam id="17515"  name="translation">
              <InterpolatingParam id="17516" interp="linr"  time="-9999999/1" value="0" leadInLength="0/1"  />
              <InterpolatingParam id="17517" interp="linr"  time="-9999999/1" value="0" leadInLength="0/1"  />
              <InterpolatingParam id="17518" interp="linr"  time="-9999999/1" value="0" leadInLength="0/1"  />
             </VectorParam>
             <VectorParam id="17519"  name="rotation">
              <InterpolatingParam id="17520" interp="linr"  time="-9999999/1" value="0" leadInLength="0/1"  />
              <InterpolatingParam id="17521" interp="linr"  time="-9999999/1" value="0" leadInLength="0/1"  />
              <InterpolatingParam id="17522" interp="linr"  time="-9999999/1" value="0" leadInLength="0/1"  />
             </VectorParam>
             <VectorParam id="17523"  name="shear">
              <InterpolatingParam id="17524" interp="linr"  time="-9999999/1" value="0" leadInLength="0/1"  />
              <InterpolatingParam id="17525" interp="linr"  time="-9999999/1" value="0" leadInLength="0/1"  />
              <InterpolatingParam id="17526" interp="linr"  time="-9999999/1" value="0" leadInLength="0/1"  />
             </VectorParam>
             <VectorParam id="17527"  name="scale">
              <InterpolatingParam id="17528" interp="linr"  time="-9999999/1" value="1" leadInLength="0/1"  />
              <InterpolatingParam id="17529" interp="linr"  time="-9999999/1" value="1" leadInLength="0/1"  />
              <InterpolatingParam id="17530" interp="linr"  time="-9999999/1" value="1" leadInLength="0/1"  />
             </VectorParam>
             <VectorParam id="17531"  name="anchor">
              <InterpolatingParam id="17532" interp="linr"  time="0/1" value="0" leadInLength="0/1"  />
              <InterpolatingParam id="17533" interp="linr"  time="0/1" value="0" leadInLength="0/1"  />
              <InterpolatingParam id="17534" interp="linr"  time="0/1" value="0" leadInLength="0/1"  />
             </VectorParam>
            </Transformer>
            <Parameters>
             <VectorParam id="17535"  name="sourceCrop">
              <InterpolatingParam id="17536" interp="linr"  time="0/1" value="0" leadInLength="0/1"  />
              <InterpolatingParam id="17537" interp="linr"  time="0/1" value="0" leadInLength="0/1"  />
              <InterpolatingParam id="17538" interp="linr"  time="0/1" value="0" leadInLength="0/1"  />
              <InterpolatingParam id="17539" interp="linr"  time="0/1" value="0" leadInLength="0/1"  />
             </VectorParam>
             <VectorParam id="17540"  name="geometryCrop">
              <InterpolatingParam id="17541" interp="linr"  time="-9999999/1" value="0" leadInLength="0/1"  />
              <InterpolatingParam id="17542" interp="linr"  time="-9999999/1" value="0" leadInLength="0/1"  />
              <InterpolatingParam id="17543" interp="linr"  time="-9999999/1" value="0" leadInLength="0/1"  />
              <InterpolatingParam id="17544" interp="linr"  time="-9999999/1" value="0" leadInLength="0/1"  />
             </VectorParam>
             <InterpolatingParam id="17545" interp="linr"  time="-9999999/1" value="1" leadInLength="0/1"  name="opacity"/>
            </Parameters>
            <Attributes>
             <Attribute id="17546" value="" name="ident"/>
            </Attributes>
            <MetaData>
             <entry key="WinSubProjectDisplayName" val=""/>
            </MetaData>
            <ExtraData>
             <Entry key="ZoomPanBin">
              <ZoomPanBin id="17547"  >
               <ZoomPanKeyframes>
                <ZoomPanKeyframe id="17548" timeRangeEnd="-9999999/1" timeRangeDuration="0/1" interpolaterName=""  />
               </ZoomPanKeyframes>
              </ZoomPanBin>
             </Entry>
            </ExtraData>
           </VMFile>
          </Medias>
         </GenericTrack>
        </StitchedMedia>
        <StitchedMedia id="17549" start="4350" duration="257" scalar="6642492086984/14635929349437" mediaStart="116104915089/14303416" mediaDuration="14635929349437/25846272712" minMediaStart="0/1" >
         <Transformer>
          <VectorParam id="17550"  name="translation">
           <InterpolatingParam id="17551" interp="linr"  time="-9999999/1" value="0" leadInLength="0/1"  interpolater="leadin-linr"  />
           <InterpolatingParam id="17552" interp="linr"  time="-9999999/1" value="0" leadInLength="0/1"  interpolater="leadin-linr"  />
           <InterpolatingParam id="17553" interp="linr"  time="-9999999/1" value="0" leadInLength="0/1"  interpolater="leadin-linr"  />
          </VectorParam>
          <VectorParam id="17554"  name="rotation">
           <InterpolatingParam id="17555" interp="linr"  time="-9999999/1" value="0" leadInLength="0/1"  interpolater="leadin-linr"  />
           <InterpolatingParam id="17556" interp="linr"  time="-9999999/1" value="0" leadInLength="0/1"  interpolater="leadin-linr"  />
           <InterpolatingParam id="17557" interp="linr"  time="-9999999/1" value="0" leadInLength="0/1"  interpolater="leadin-linr"  />
          </VectorParam>
          <VectorParam id="17558"  name="shear">
           <InterpolatingParam id="17559" interp="linr"  time="-9999999/1" value="0" leadInLength="0/1"  interpolater="leadin-linr"  />
           <InterpolatingParam id="17560" interp="linr"  time="-9999999/1" value="0" leadInLength="0/1"  interpolater="leadin-linr"  />
           <InterpolatingParam id="17561" interp="linr"  time="-9999999/1" value="0" leadInLength="0/1"  interpolater="leadin-linr"  />
          </VectorParam>
          <VectorParam id="17562"  name="scale">
           <InterpolatingParam id="17563" interp="linr"  time="-9999999/1" value="1" leadInLength="0/1"  interpolater="leadin-linr"  />
           <InterpolatingParam id="17564" interp="linr"  time="-9999999/1" value="1" leadInLength="0/1"  interpolater="leadin-linr"  />
           <InterpolatingParam id="17565" interp="linr"  time="-9999999/1" value="1" leadInLength="0/1"  interpolater="leadin-linr"  />
          </VectorParam>
          <VectorParam id="17566"  name="anchor">
           <InterpolatingParam id="17567" interp="linr"  >
            <Keyframes>
            <Keyframe id="17568"  time="0/1" value="0" leadInLength="0/1"  />
            <Keyframe id="17569"  time="32931335377/7971776" value="0" leadInLength="0/1"  />
            <Keyframe id="17570"  time="4328/1" value="0" leadInLength="0/1"  />
            <Keyframe id="17571"  time="4457/1" value="0" leadInLength="0/1"  />
            <Keyframe id="17572"  time="46272102474146/7646783123" value="0" leadInLength="0/1"  />
            <Keyframe id="17573"  time="576460752303423488/75433993780101" value="0" leadInLength="0/1"  />
            <Keyframe id="17574"  time="600059199085213793/58267769831581" value="0" leadInLength="0/1"  />
            <Keyframe id="17575"  time="1199749202952939991/115623946533563" value="0" leadInLength="0/1"  />
            </Keyframes>
           </InterpolatingParam>
           <InterpolatingParam id="17576" interp="linr"  >
            <Keyframes>
            <Keyframe id="17577"  time="0/1" value="0" leadInLength="0/1"  />
            <Keyframe id="17578"  time="32931335377/7971776" value="0" leadInLength="0/1"  />
            <Keyframe id="17579"  time="4328/1" value="0" leadInLength="0/1"  />
            <Keyframe id="17580"  time="4457/1" value="0" leadInLength="0/1"  />
            <Keyframe id="17581"  time="46272102474146/7646783123" value="0" leadInLength="0/1"  />
            <Keyframe id="17582"  time="576460752303423488/75433993780101" value="0" leadInLength="0/1"  />
            <Keyframe id="17583"  time="600059199085213793/58267769831581" value="0" leadInLength="0/1"  />
            <Keyframe id="17584"  time="1199749202952939991/115623946533563" value="0" leadInLength="0/1"  />
            </Keyframes>
           </InterpolatingParam>
           <InterpolatingParam id="17585" interp="linr"  >
            <Keyframes>
            <Keyframe id="17586"  time="0/1" value="0" leadInLength="0/1"  />
            <Keyframe id="17587"  time="32931335377/7971776" value="0" leadInLength="0/1"  />
            <Keyframe id="17588"  time="4328/1" value="0" leadInLength="0/1"  />
            <Keyframe id="17589"  time="4457/1" value="0" leadInLength="0/1"  />
            <Keyframe id="17590"  time="46272102474146/7646783123" value="0" leadInLength="0/1"  />
            <Keyframe id="17591"  time="576460752303423488/75433993780101" value="0" leadInLength="0/1"  />
            <Keyframe id="17592"  time="600059199085213793/58267769831581" value="0" leadInLength="0/1"  />
            <Keyframe id="17593"  time="1199749202952939991/115623946533563" value="0" leadInLength="0/1"  />
            </Keyframes>
           </InterpolatingParam>
          </VectorParam>
         </Transformer>
         <Parameters>
          <VectorParam id="17594"  name="sourceCrop">
           <InterpolatingParam id="17595" interp="linr"  >
            <Keyframes>
            <Keyframe id="17596"  time="0/1" value="0" leadInLength="0/1"  />
            <Keyframe id="17597"  time="32931335377/7971776" value="0" leadInLength="0/1"  />
            <Keyframe id="17598"  time="4328/1" value="0" leadInLength="0/1"  />
            <Keyframe id="17599"  time="4457/1" value="0" leadInLength="0/1"  />
            <Keyframe id="17600"  time="46272102474146/7646783123" value="0" leadInLength="0/1"  />
            <Keyframe id="17601"  time="576460752303423488/75433993780101" value="0" leadInLength="0/1"  />
            <Keyframe id="17602"  time="600059199085213793/58267769831581" value="0" leadInLength="0/1"  />
            <Keyframe id="17603"  time="1199749202952939991/115623946533563" value="0" leadInLength="0/1"  />
            </Keyframes>
           </InterpolatingParam>
           <InterpolatingParam id="17604" interp="linr"  >
            <Keyframes>
            <Keyframe id="17605"  time="0/1" value="0" leadInLength="0/1"  />
            <Keyframe id="17606"  time="32931335377/7971776" value="0" leadInLength="0/1"  />
            <Keyframe id="17607"  time="4328/1" value="0" leadInLength="0/1"  />
            <Keyframe id="17608"  time="4457/1" value="0" leadInLength="0/1"  />
            <Keyframe id="17609"  time="46272102474146/7646783123" value="0" leadInLength="0/1"  />
            <Keyframe id="17610"  time="576460752303423488/75433993780101" value="0" leadInLength="0/1"  />
            <Keyframe id="17611"  time="600059199085213793/58267769831581" value="0" leadInLength="0/1"  />
            <Keyframe id="17612"  time="1199749202952939991/115623946533563" value="0" leadInLength="0/1"  />
            </Keyframes>
           </InterpolatingParam>
           <InterpolatingParam id="17613" interp="linr"  >
            <Keyframes>
            <Keyframe id="17614"  time="0/1" value="0" leadInLength="0/1"  />
            <Keyframe id="17615"  time="32931335377/7971776" value="0" leadInLength="0/1"  />
            <Keyframe id="17616"  time="4328/1" value="0" leadInLength="0/1"  />
            <Keyframe id="17617"  time="4457/1" value="0" leadInLength="0/1"  />
            <Keyframe id="17618"  time="46272102474146/7646783123" value="0" leadInLength="0/1"  />
            <Keyframe id="17619"  time="576460752303423488/75433993780101" value="0" leadInLength="0/1"  />
            <Keyframe id="17620"  time="600059199085213793/58267769831581" value="0" leadInLength="0/1"  />
            <Keyframe id="17621"  time="1199749202952939991/115623946533563" value="0" leadInLength="0/1"  />
            </Keyframes>
           </InterpolatingParam>
           <InterpolatingParam id="17622" interp="linr"  >
            <Keyframes>
            <Keyframe id="17623"  time="0/1" value="0" leadInLength="0/1"  />
            <Keyframe id="17624"  time="32931335377/7971776" value="0" leadInLength="0/1"  />
            <Keyframe id="17625"  time="4328/1" value="0" leadInLength="0/1"  />
            <Keyframe id="17626"  time="4457/1" value="0" leadInLength="0/1"  />
            <Keyframe id="17627"  time="46272102474146/7646783123" value="0" leadInLength="0/1"  />
            <Keyframe id="17628"  time="576460752303423488/75433993780101" value="0" leadInLength="0/1"  />
            <Keyframe id="17629"  time="600059199085213793/58267769831581" value="0" leadInLength="0/1"  />
            <Keyframe id="17630"  time="1199749202952939991/115623946533563" value="0" leadInLength="0/1"  />
            </Keyframes>
           </InterpolatingParam>
          </VectorParam>
          <VectorParam id="17631"  name="geometryCrop">
           <InterpolatingParam id="17632" interp="linr"  time="-9999999/1" value="0" leadInLength="0/1"  interpolater="leadin-linr"  />
           <InterpolatingParam id="17633" interp="linr"  time="-9999999/1" value="0" leadInLength="0/1"  interpolater="leadin-linr"  />
           <InterpolatingParam id="17634" interp="linr"  time="-9999999/1" value="0" leadInLength="0/1"  interpolater="leadin-linr"  />
           <InterpolatingParam id="17635" interp="linr"  time="-9999999/1" value="0" leadInLength="0/1"  interpolater="leadin-linr"  />
          </VectorParam>
          <InterpolatingParam id="17636" interp="linr"  time="-9999999/1" value="1" leadInLength="0/1"  interpolater="leadin-linr"  name="opacity"/>
          <InterpolatingParam id="17637" interp="linr"  time="0/1" value="1" leadInLength="0/1"  name="cursorOpacity"/>
          <InterpolatingParam id="17638" interp="linr"  time="0/1" value="1" leadInLength="0/1"  name="cursorScale"/>
          <Parameter id="17639"  name="captions"/>
         </Parameters>
         <Attributes>
          <Attribute id="17640" value="" name="ident"/>
         </Attributes>
         <MetaData>
          <entry key="WinSubProjectDisplayName" val=""/>
         </MetaData>
         <ExtraData>
          <Entry key="ZoomPanBin">
           <ZoomPanBin id="17641"  >
            <ZoomPanKeyframes>
             <ZoomPanKeyframe id="17642" timeRangeEnd="-9999999/1" timeRangeDuration="0/1" interpolaterName="linr"  />
            </ZoomPanKeyframes>
           </ZoomPanBin>
          </Entry>
          <Entry key="CursorEffectBin">
           <CursorEffectBin id="17643"  >
            <CursorEffectKeyframes>
            </CursorEffectKeyframes>
           </CursorEffectBin>
          </Entry>
         </ExtraData>
         <GenericTrack id="17644"  >
          <Attributes>
           <Attribute id="17645" value="" name="ident"/>
           <Attribute id="17646" value="0" name="audioMuted"/>
           <Attribute id="17647" value="0" name="videoHidden"/>
          </Attributes>
          <MetaData>
           <entry key="IsLocked" val="False"/>
           <entry key="WinTrackHeight" val="0"/>
          </MetaData>
          <Medias>
           <VMFile id="17648" start="0" duration="4131" scalar="1/1" mediaStart="0/1" mediaDuration="4131/1" trackNumber="0" src="4" >
            <Transformer>
             <VectorParam id="17649"  name="translation">
              <InterpolatingParam id="17650" interp="linr"  time="-9999999/1" value="0" leadInLength="0/1"  />
              <InterpolatingParam id="17651" interp="linr"  time="-9999999/1" value="0" leadInLength="0/1"  />
              <InterpolatingParam id="17652" interp="linr"  time="-9999999/1" value="0" leadInLength="0/1"  />
             </VectorParam>
             <VectorParam id="17653"  name="rotation">
              <InterpolatingParam id="17654" interp="linr"  time="-9999999/1" value="0" leadInLength="0/1"  />
              <InterpolatingParam id="17655" interp="linr"  time="-9999999/1" value="0" leadInLength="0/1"  />
              <InterpolatingParam id="17656" interp="linr"  time="-9999999/1" value="0" leadInLength="0/1"  />
             </VectorParam>
             <VectorParam id="17657"  name="shear">
              <InterpolatingParam id="17658" interp="linr"  time="-9999999/1" value="0" leadInLength="0/1"  />
              <InterpolatingParam id="17659" interp="linr"  time="-9999999/1" value="0" leadInLength="0/1"  />
              <InterpolatingParam id="17660" interp="linr"  time="-9999999/1" value="0" leadInLength="0/1"  />
             </VectorParam>
             <VectorParam id="17661"  name="scale">
              <InterpolatingParam id="17662" interp="linr"  time="-9999999/1" value="1" leadInLength="0/1"  />
              <InterpolatingParam id="17663" interp="linr"  time="-9999999/1" value="1" leadInLength="0/1"  />
              <InterpolatingParam id="17664" interp="linr"  time="-9999999/1" value="1" leadInLength="0/1"  />
             </VectorParam>
             <VectorParam id="17665"  name="anchor">
              <InterpolatingParam id="17666" interp="linr"  time="0/1" value="0" leadInLength="0/1"  />
              <InterpolatingParam id="17667" interp="linr"  time="0/1" value="0" leadInLength="0/1"  />
              <InterpolatingParam id="17668" interp="linr"  time="0/1" value="0" leadInLength="0/1"  />
             </VectorParam>
            </Transformer>
            <Parameters>
             <VectorParam id="17669"  name="sourceCrop">
              <InterpolatingParam id="17670" interp="linr"  time="0/1" value="0" leadInLength="0/1"  />
              <InterpolatingParam id="17671" interp="linr"  time="0/1" value="0" leadInLength="0/1"  />
              <InterpolatingParam id="17672" interp="linr"  time="0/1" value="0" leadInLength="0/1"  />
              <InterpolatingParam id="17673" interp="linr"  time="0/1" value="0" leadInLength="0/1"  />
             </VectorParam>
             <VectorParam id="17674"  name="geometryCrop">
              <InterpolatingParam id="17675" interp="linr"  time="-9999999/1" value="0" leadInLength="0/1"  />
              <InterpolatingParam id="17676" interp="linr"  time="-9999999/1" value="0" leadInLength="0/1"  />
              <InterpolatingParam id="17677" interp="linr"  time="-9999999/1" value="0" leadInLength="0/1"  />
              <InterpolatingParam id="17678" interp="linr"  time="-9999999/1" value="0" leadInLength="0/1"  />
             </VectorParam>
             <InterpolatingParam id="17679" interp="linr"  time="-9999999/1" value="1" leadInLength="0/1"  name="opacity"/>
            </Parameters>
            <Attributes>
             <Attribute id="17680" value="" name="ident"/>
            </Attributes>
            <MetaData>
             <entry key="WinSubProjectDisplayName" val=""/>
            </MetaData>
            <ExtraData>
             <Entry key="ZoomPanBin">
              <ZoomPanBin id="17681"  >
               <ZoomPanKeyframes>
                <ZoomPanKeyframe id="17682" timeRangeEnd="-9999999/1" timeRangeDuration="0/1" interpolaterName=""  />
               </ZoomPanKeyframes>
              </ZoomPanBin>
             </Entry>
            </ExtraData>
           </VMFile>
           <IMFile id="17683" start="4131" duration="12" scalar="1/1" mediaStart="4130/1" mediaDuration="1/1" trackNumber="0" src="4" trimStartSum="0/1" >
            <Transformer>
             <VectorParam id="17684"  name="translation">
              <InterpolatingParam id="17685" interp="linr"  time="-9999999/1" value="0" leadInLength="0/1"  />
              <InterpolatingParam id="17686" interp="linr"  time="-9999999/1" value="0" leadInLength="0/1"  />
              <InterpolatingParam id="17687" interp="linr"  time="-9999999/1" value="0" leadInLength="0/1"  />
             </VectorParam>
             <VectorParam id="17688"  name="rotation">
              <InterpolatingParam id="17689" interp="linr"  time="-9999999/1" value="0" leadInLength="0/1"  />
              <InterpolatingParam id="17690" interp="linr"  time="-9999999/1" value="0" leadInLength="0/1"  />
              <InterpolatingParam id="17691" interp="linr"  time="-9999999/1" value="0" leadInLength="0/1"  />
             </VectorParam>
             <VectorParam id="17692"  name="shear">
              <InterpolatingParam id="17693" interp="linr"  time="-9999999/1" value="0" leadInLength="0/1"  />
              <InterpolatingParam id="17694" interp="linr"  time="-9999999/1" value="0" leadInLength="0/1"  />
              <InterpolatingParam id="17695" interp="linr"  time="-9999999/1" value="0" leadInLength="0/1"  />
             </VectorParam>
             <VectorParam id="17696"  name="scale">
              <InterpolatingParam id="17697" interp="linr"  time="-9999999/1" value="1" leadInLength="0/1"  />
              <InterpolatingParam id="17698" interp="linr"  time="-9999999/1" value="1" leadInLength="0/1"  />
              <InterpolatingParam id="17699" interp="linr"  time="-9999999/1" value="1" leadInLength="0/1"  />
             </VectorParam>
             <VectorParam id="17700"  name="anchor">
              <InterpolatingParam id="17701" interp="linr"  time="0/1" value="0" leadInLength="0/1"  />
              <InterpolatingParam id="17702" interp="linr"  time="0/1" value="0" leadInLength="0/1"  />
              <InterpolatingParam id="17703" interp="linr"  time="0/1" value="0" leadInLength="0/1"  />
             </VectorParam>
            </Transformer>
            <Parameters>
             <VectorParam id="17704"  name="sourceCrop">
              <InterpolatingParam id="17705" interp="linr"  time="0/1" value="0" leadInLength="0/1"  />
              <InterpolatingParam id="17706" interp="linr"  time="0/1" value="0" leadInLength="0/1"  />
              <InterpolatingParam id="17707" interp="linr"  time="0/1" value="0" leadInLength="0/1"  />
              <InterpolatingParam id="17708" interp="linr"  time="0/1" value="0" leadInLength="0/1"  />
             </VectorParam>
             <VectorParam id="17709"  name="geometryCrop">
              <InterpolatingParam id="17710" interp="linr"  time="-9999999/1" value="0" leadInLength="0/1"  />
              <InterpolatingParam id="17711" interp="linr"  time="-9999999/1" value="0" leadInLength="0/1"  />
              <InterpolatingParam id="17712" interp="linr"  time="-9999999/1" value="0" leadInLength="0/1"  />
              <InterpolatingParam id="17713" interp="linr"  time="-9999999/1" value="0" leadInLength="0/1"  />
             </VectorParam>
             <InterpolatingParam id="17714" interp="linr"  time="-9999999/1" value="1" leadInLength="0/1"  name="opacity"/>
            </Parameters>
            <Attributes>
             <Attribute id="17715" value="" name="ident"/>
            </Attributes>
            <MetaData>
             <entry key="WinSubProjectDisplayName" val=""/>
            </MetaData>
            <ExtraData>
             <Entry key="ZoomPanBin">
              <ZoomPanBin id="17716"  >
               <ZoomPanKeyframes>
                <ZoomPanKeyframe id="17717" timeRangeEnd="-9999999/1" timeRangeDuration="0/1" interpolaterName=""  />
               </ZoomPanKeyframes>
              </ZoomPanBin>
             </Entry>
            </ExtraData>
           </IMFile>
           <VMFile id="17718" start="4143" duration="185" scalar="1/1" mediaStart="4130/1" mediaDuration="185/1" trackNumber="0" src="4" >
            <Transformer>
             <VectorParam id="17719"  name="translation">
              <InterpolatingParam id="17720" interp="linr"  time="-9999999/1" value="0" leadInLength="0/1"  />
              <InterpolatingParam id="17721" interp="linr"  time="-9999999/1" value="0" leadInLength="0/1"  />
              <InterpolatingParam id="17722" interp="linr"  time="-9999999/1" value="0" leadInLength="0/1"  />
             </VectorParam>
             <VectorParam id="17723"  name="rotation">
              <InterpolatingParam id="17724" interp="linr"  time="-9999999/1" value="0" leadInLength="0/1"  />
              <InterpolatingParam id="17725" interp="linr"  time="-9999999/1" value="0" leadInLength="0/1"  />
              <InterpolatingParam id="17726" interp="linr"  time="-9999999/1" value="0" leadInLength="0/1"  />
             </VectorParam>
             <VectorParam id="17727"  name="shear">
              <InterpolatingParam id="17728" interp="linr"  time="-9999999/1" value="0" leadInLength="0/1"  />
              <InterpolatingParam id="17729" interp="linr"  time="-9999999/1" value="0" leadInLength="0/1"  />
              <InterpolatingParam id="17730" interp="linr"  time="-9999999/1" value="0" leadInLength="0/1"  />
             </VectorParam>
             <VectorParam id="17731"  name="scale">
              <InterpolatingParam id="17732" interp="linr"  time="-9999999/1" value="1" leadInLength="0/1"  />
              <InterpolatingParam id="17733" interp="linr"  time="-9999999/1" value="1" leadInLength="0/1"  />
              <InterpolatingParam id="17734" interp="linr"  time="-9999999/1" value="1" leadInLength="0/1"  />
             </VectorParam>
             <VectorParam id="17735"  name="anchor">
              <InterpolatingParam id="17736" interp="linr"  time="0/1" value="0" leadInLength="0/1"  />
              <InterpolatingParam id="17737" interp="linr"  time="0/1" value="0" leadInLength="0/1"  />
              <InterpolatingParam id="17738" interp="linr"  time="0/1" value="0" leadInLength="0/1"  />
             </VectorParam>
            </Transformer>
            <Parameters>
             <VectorParam id="17739"  name="sourceCrop">
              <InterpolatingParam id="17740" interp="linr"  time="0/1" value="0" leadInLength="0/1"  />
              <InterpolatingParam id="17741" interp="linr"  time="0/1" value="0" leadInLength="0/1"  />
              <InterpolatingParam id="17742" interp="linr"  time="0/1" value="0" leadInLength="0/1"  />
              <InterpolatingParam id="17743" interp="linr"  time="0/1" value="0" leadInLength="0/1"  />
             </VectorParam>
             <VectorParam id="17744"  name="geometryCrop">
              <InterpolatingParam id="17745" interp="linr"  time="-9999999/1" value="0" leadInLength="0/1"  />
              <InterpolatingParam id="17746" interp="linr"  time="-9999999/1" value="0" leadInLength="0/1"  />
              <InterpolatingParam id="17747" interp="linr"  time="-9999999/1" value="0" leadInLength="0/1"  />
              <InterpolatingParam id="17748" interp="linr"  time="-9999999/1" value="0" leadInLength="0/1"  />
             </VectorParam>
             <InterpolatingParam id="17749" interp="linr"  time="-9999999/1" value="1" leadInLength="0/1"  name="opacity"/>
            </Parameters>
            <Attributes>
             <Attribute id="17750" value="" name="ident"/>
            </Attributes>
            <MetaData>
             <entry key="WinSubProjectDisplayName" val=""/>
            </MetaData>
            <ExtraData>
             <Entry key="ZoomPanBin">
              <ZoomPanBin id="17751"  >
               <ZoomPanKeyframes>
                <ZoomPanKeyframe id="17752" timeRangeEnd="-9999999/1" timeRangeDuration="0/1" interpolaterName=""  />
               </ZoomPanKeyframes>
              </ZoomPanBin>
             </Entry>
            </ExtraData>
           </VMFile>
           <IMFile id="17753" start="4328" duration="3" scalar="1/1" mediaStart="4315/1" mediaDuration="1/1" trackNumber="0" src="4" trimStartSum="0/1" >
            <Transformer>
             <VectorParam id="17754"  name="translation">
              <InterpolatingParam id="17755" interp="linr"  time="-9999999/1" value="0" leadInLength="0/1"  />
              <InterpolatingParam id="17756" interp="linr"  time="-9999999/1" value="0" leadInLength="0/1"  />
              <InterpolatingParam id="17757" interp="linr"  time="-9999999/1" value="0" leadInLength="0/1"  />
             </VectorParam>
             <VectorParam id="17758"  name="rotation">
              <InterpolatingParam id="17759" interp="linr"  time="-9999999/1" value="0" leadInLength="0/1"  />
              <InterpolatingParam id="17760" interp="linr"  time="-9999999/1" value="0" leadInLength="0/1"  />
              <InterpolatingParam id="17761" interp="linr"  time="-9999999/1" value="0" leadInLength="0/1"  />
             </VectorParam>
             <VectorParam id="17762"  name="shear">
              <InterpolatingParam id="17763" interp="linr"  time="-9999999/1" value="0" leadInLength="0/1"  />
              <InterpolatingParam id="17764" interp="linr"  time="-9999999/1" value="0" leadInLength="0/1"  />
              <InterpolatingParam id="17765" interp="linr"  time="-9999999/1" value="0" leadInLength="0/1"  />
             </VectorParam>
             <VectorParam id="17766"  name="scale">
              <InterpolatingParam id="17767" interp="linr"  time="-9999999/1" value="1" leadInLength="0/1"  />
              <InterpolatingParam id="17768" interp="linr"  time="-9999999/1" value="1" leadInLength="0/1"  />
              <InterpolatingParam id="17769" interp="linr"  time="-9999999/1" value="1" leadInLength="0/1"  />
             </VectorParam>
             <VectorParam id="17770"  name="anchor">
              <InterpolatingParam id="17771" interp="linr"  time="0/1" value="0" leadInLength="0/1"  />
              <InterpolatingParam id="17772" interp="linr"  time="0/1" value="0" leadInLength="0/1"  />
              <InterpolatingParam id="17773" interp="linr"  time="0/1" value="0" leadInLength="0/1"  />
             </VectorParam>
            </Transformer>
            <Parameters>
             <VectorParam id="17774"  name="sourceCrop">
              <InterpolatingParam id="17775" interp="linr"  time="0/1" value="0" leadInLength="0/1"  />
              <InterpolatingParam id="17776" interp="linr"  time="0/1" value="0" leadInLength="0/1"  />
              <InterpolatingParam id="17777" interp="linr"  time="0/1" value="0" leadInLength="0/1"  />
              <InterpolatingParam id="17778" interp="linr"  time="0/1" value="0" leadInLength="0/1"  />
             </VectorParam>
             <VectorParam id="17779"  name="geometryCrop">
              <InterpolatingParam id="17780" interp="linr"  time="-9999999/1" value="0" leadInLength="0/1"  />
              <InterpolatingParam id="17781" interp="linr"  time="-9999999/1" value="0" leadInLength="0/1"  />
              <InterpolatingParam id="17782" interp="linr"  time="-9999999/1" value="0" leadInLength="0/1"  />
              <InterpolatingParam id="17783" interp="linr"  time="-9999999/1" value="0" leadInLength="0/1"  />
             </VectorParam>
             <InterpolatingParam id="17784" interp="linr"  time="-9999999/1" value="1" leadInLength="0/1"  name="opacity"/>
            </Parameters>
            <Attributes>
             <Attribute id="17785" value="" name="ident"/>
            </Attributes>
            <MetaData>
             <entry key="WinSubProjectDisplayName" val=""/>
            </MetaData>
            <ExtraData>
             <Entry key="ZoomPanBin">
              <ZoomPanBin id="17786"  >
               <ZoomPanKeyframes>
                <ZoomPanKeyframe id="17787" timeRangeEnd="-9999999/1" timeRangeDuration="0/1" interpolaterName=""  />
               </ZoomPanKeyframes>
              </ZoomPanBin>
             </Entry>
            </ExtraData>
           </IMFile>
           <VMFile id="17788" start="4331" duration="31" scalar="1/1" mediaStart="4315/1" mediaDuration="31/1" trackNumber="0" src="4" >
            <Transformer>
             <VectorParam id="17789"  name="translation">
              <InterpolatingParam id="17790" interp="linr"  time="-9999999/1" value="0" leadInLength="0/1"  />
              <InterpolatingParam id="17791" interp="linr"  time="-9999999/1" value="0" leadInLength="0/1"  />
              <InterpolatingParam id="17792" interp="linr"  time="-9999999/1" value="0" leadInLength="0/1"  />
             </VectorParam>
             <VectorParam id="17793"  name="rotation">
              <InterpolatingParam id="17794" interp="linr"  time="-9999999/1" value="0" leadInLength="0/1"  />
              <InterpolatingParam id="17795" interp="linr"  time="-9999999/1" value="0" leadInLength="0/1"  />
              <InterpolatingParam id="17796" interp="linr"  time="-9999999/1" value="0" leadInLength="0/1"  />
             </VectorParam>
             <VectorParam id="17797"  name="shear">
              <InterpolatingParam id="17798" interp="linr"  time="-9999999/1" value="0" leadInLength="0/1"  />
              <InterpolatingParam id="17799" interp="linr"  time="-9999999/1" value="0" leadInLength="0/1"  />
              <InterpolatingParam id="17800" interp="linr"  time="-9999999/1" value="0" leadInLength="0/1"  />
             </VectorParam>
             <VectorParam id="17801"  name="scale">
              <InterpolatingParam id="17802" interp="linr"  time="-9999999/1" value="1" leadInLength="0/1"  />
              <InterpolatingParam id="17803" interp="linr"  time="-9999999/1" value="1" leadInLength="0/1"  />
              <InterpolatingParam id="17804" interp="linr"  time="-9999999/1" value="1" leadInLength="0/1"  />
             </VectorParam>
             <VectorParam id="17805"  name="anchor">
              <InterpolatingParam id="17806" interp="linr"  time="0/1" value="0" leadInLength="0/1"  />
              <InterpolatingParam id="17807" interp="linr"  time="0/1" value="0" leadInLength="0/1"  />
              <InterpolatingParam id="17808" interp="linr"  time="0/1" value="0" leadInLength="0/1"  />
             </VectorParam>
            </Transformer>
            <Parameters>
             <VectorParam id="17809"  name="sourceCrop">
              <InterpolatingParam id="17810" interp="linr"  time="0/1" value="0" leadInLength="0/1"  />
              <InterpolatingParam id="17811" interp="linr"  time="0/1" value="0" leadInLength="0/1"  />
              <InterpolatingParam id="17812" interp="linr"  time="0/1" value="0" leadInLength="0/1"  />
              <InterpolatingParam id="17813" interp="linr"  time="0/1" value="0" leadInLength="0/1"  />
             </VectorParam>
             <VectorParam id="17814"  name="geometryCrop">
              <InterpolatingParam id="17815" interp="linr"  time="-9999999/1" value="0" leadInLength="0/1"  />
              <InterpolatingParam id="17816" interp="linr"  time="-9999999/1" value="0" leadInLength="0/1"  />
              <InterpolatingParam id="17817" interp="linr"  time="-9999999/1" value="0" leadInLength="0/1"  />
              <InterpolatingParam id="17818" interp="linr"  time="-9999999/1" value="0" leadInLength="0/1"  />
             </VectorParam>
             <InterpolatingParam id="17819" interp="linr"  time="-9999999/1" value="1" leadInLength="0/1"  name="opacity"/>
            </Parameters>
            <Attributes>
             <Attribute id="17820" value="" name="ident"/>
            </Attributes>
            <MetaData>
             <entry key="WinSubProjectDisplayName" val=""/>
            </MetaData>
            <ExtraData>
             <Entry key="ZoomPanBin">
              <ZoomPanBin id="17821"  >
               <ZoomPanKeyframes>
                <ZoomPanKeyframe id="17822" timeRangeEnd="-9999999/1" timeRangeDuration="0/1" interpolaterName=""  />
               </ZoomPanKeyframes>
              </ZoomPanBin>
             </Entry>
            </ExtraData>
           </VMFile>
           <VMFile id="17823" start="4362" duration="95" scalar="1/1" mediaStart="4751/1" mediaDuration="95/1" trackNumber="0" src="4" >
            <Transformer>
             <VectorParam id="17824"  name="translation">
              <InterpolatingParam id="17825" interp="linr"  time="-9999999/1" value="0" leadInLength="0/1"  />
              <InterpolatingParam id="17826" interp="linr"  time="-9999999/1" value="0" leadInLength="0/1"  />
              <InterpolatingParam id="17827" interp="linr"  time="-9999999/1" value="0" leadInLength="0/1"  />
             </VectorParam>
             <VectorParam id="17828"  name="rotation">
              <InterpolatingParam id="17829" interp="linr"  time="-9999999/1" value="0" leadInLength="0/1"  />
              <InterpolatingParam id="17830" interp="linr"  time="-9999999/1" value="0" leadInLength="0/1"  />
              <InterpolatingParam id="17831" interp="linr"  time="-9999999/1" value="0" leadInLength="0/1"  />
             </VectorParam>
             <VectorParam id="17832"  name="shear">
              <InterpolatingParam id="17833" interp="linr"  time="-9999999/1" value="0" leadInLength="0/1"  />
              <InterpolatingParam id="17834" interp="linr"  time="-9999999/1" value="0" leadInLength="0/1"  />
              <InterpolatingParam id="17835" interp="linr"  time="-9999999/1" value="0" leadInLength="0/1"  />
             </VectorParam>
             <VectorParam id="17836"  name="scale">
              <InterpolatingParam id="17837" interp="linr"  time="-9999999/1" value="1" leadInLength="0/1"  />
              <InterpolatingParam id="17838" interp="linr"  time="-9999999/1" value="1" leadInLength="0/1"  />
              <InterpolatingParam id="17839" interp="linr"  time="-9999999/1" value="1" leadInLength="0/1"  />
             </VectorParam>
             <VectorParam id="17840"  name="anchor">
              <InterpolatingParam id="17841" interp="linr"  time="0/1" value="0" leadInLength="0/1"  />
              <InterpolatingParam id="17842" interp="linr"  time="0/1" value="0" leadInLength="0/1"  />
              <InterpolatingParam id="17843" interp="linr"  time="0/1" value="0" leadInLength="0/1"  />
             </VectorParam>
            </Transformer>
            <Parameters>
             <VectorParam id="17844"  name="sourceCrop">
              <InterpolatingParam id="17845" interp="linr"  time="0/1" value="0" leadInLength="0/1"  />
              <InterpolatingParam id="17846" interp="linr"  time="0/1" value="0" leadInLength="0/1"  />
              <InterpolatingParam id="17847" interp="linr"  time="0/1" value="0" leadInLength="0/1"  />
              <InterpolatingParam id="17848" interp="linr"  time="0/1" value="0" leadInLength="0/1"  />
             </VectorParam>
             <VectorParam id="17849"  name="geometryCrop">
              <InterpolatingParam id="17850" interp="linr"  time="-9999999/1" value="0" leadInLength="0/1"  />
              <InterpolatingParam id="17851" interp="linr"  time="-9999999/1" value="0" leadInLength="0/1"  />
              <InterpolatingParam id="17852" interp="linr"  time="-9999999/1" value="0" leadInLength="0/1"  />
              <InterpolatingParam id="17853" interp="linr"  time="-9999999/1" value="0" leadInLength="0/1"  />
             </VectorParam>
             <InterpolatingParam id="17854" interp="linr"  time="-9999999/1" value="1" leadInLength="0/1"  name="opacity"/>
            </Parameters>
            <Attributes>
             <Attribute id="17855" value="" name="ident"/>
            </Attributes>
            <MetaData>
             <entry key="WinSubProjectDisplayName" val=""/>
            </MetaData>
            <ExtraData>
             <Entry key="ZoomPanBin">
              <ZoomPanBin id="17856"  >
               <ZoomPanKeyframes>
                <ZoomPanKeyframe id="17857" timeRangeEnd="-9999999/1" timeRangeDuration="0/1" interpolaterName=""  />
               </ZoomPanKeyframes>
              </ZoomPanBin>
             </Entry>
            </ExtraData>
           </VMFile>
           <IMFile id="17858" start="4457" duration="270" scalar="1/1" mediaStart="4846/1" mediaDuration="1/1" trackNumber="0" src="4" trimStartSum="0/1" >
            <Transformer>
             <VectorParam id="17859"  name="translation">
              <InterpolatingParam id="17860" interp="linr"  time="-9999999/1" value="0" leadInLength="0/1"  />
              <InterpolatingParam id="17861" interp="linr"  time="-9999999/1" value="0" leadInLength="0/1"  />
              <InterpolatingParam id="17862" interp="linr"  time="-9999999/1" value="0" leadInLength="0/1"  />
             </VectorParam>
             <VectorParam id="17863"  name="rotation">
              <InterpolatingParam id="17864" interp="linr"  time="-9999999/1" value="0" leadInLength="0/1"  />
              <InterpolatingParam id="17865" interp="linr"  time="-9999999/1" value="0" leadInLength="0/1"  />
              <InterpolatingParam id="17866" interp="linr"  time="-9999999/1" value="0" leadInLength="0/1"  />
             </VectorParam>
             <VectorParam id="17867"  name="shear">
              <InterpolatingParam id="17868" interp="linr"  time="-9999999/1" value="0" leadInLength="0/1"  />
              <InterpolatingParam id="17869" interp="linr"  time="-9999999/1" value="0" leadInLength="0/1"  />
              <InterpolatingParam id="17870" interp="linr"  time="-9999999/1" value="0" leadInLength="0/1"  />
             </VectorParam>
             <VectorParam id="17871"  name="scale">
              <InterpolatingParam id="17872" interp="linr"  time="-9999999/1" value="1" leadInLength="0/1"  />
              <InterpolatingParam id="17873" interp="linr"  time="-9999999/1" value="1" leadInLength="0/1"  />
              <InterpolatingParam id="17874" interp="linr"  time="-9999999/1" value="1" leadInLength="0/1"  />
             </VectorParam>
             <VectorParam id="17875"  name="anchor">
              <InterpolatingParam id="17876" interp="linr"  time="0/1" value="0" leadInLength="0/1"  />
              <InterpolatingParam id="17877" interp="linr"  time="0/1" value="0" leadInLength="0/1"  />
              <InterpolatingParam id="17878" interp="linr"  time="0/1" value="0" leadInLength="0/1"  />
             </VectorParam>
            </Transformer>
            <Parameters>
             <VectorParam id="17879"  name="sourceCrop">
              <InterpolatingParam id="17880" interp="linr"  time="0/1" value="0" leadInLength="0/1"  />
              <InterpolatingParam id="17881" interp="linr"  time="0/1" value="0" leadInLength="0/1"  />
              <InterpolatingParam id="17882" interp="linr"  time="0/1" value="0" leadInLength="0/1"  />
              <InterpolatingParam id="17883" interp="linr"  time="0/1" value="0" leadInLength="0/1"  />
             </VectorParam>
             <VectorParam id="17884"  name="geometryCrop">
              <InterpolatingParam id="17885" interp="linr"  time="-9999999/1" value="0" leadInLength="0/1"  />
              <InterpolatingParam id="17886" interp="linr"  time="-9999999/1" value="0" leadInLength="0/1"  />
              <InterpolatingParam id="17887" interp="linr"  time="-9999999/1" value="0" leadInLength="0/1"  />
              <InterpolatingParam id="17888" interp="linr"  time="-9999999/1" value="0" leadInLength="0/1"  />
             </VectorParam>
             <InterpolatingParam id="17889" interp="linr"  time="-9999999/1" value="1" leadInLength="0/1"  name="opacity"/>
            </Parameters>
            <Attributes>
             <Attribute id="17890" value="" name="ident"/>
            </Attributes>
            <MetaData>
             <entry key="WinSubProjectDisplayName" val=""/>
            </MetaData>
            <ExtraData>
             <Entry key="ZoomPanBin">
              <ZoomPanBin id="17891"  >
               <ZoomPanKeyframes>
                <ZoomPanKeyframe id="17892" timeRangeEnd="-9999999/1" timeRangeDuration="0/1" interpolaterName=""  />
               </ZoomPanKeyframes>
              </ZoomPanBin>
             </Entry>
            </ExtraData>
           </IMFile>
           <VMFile id="17893" start="4727" duration="17" scalar="1/1" mediaStart="4846/1" mediaDuration="17/1" trackNumber="0" src="4" >
            <Transformer>
             <VectorParam id="17894"  name="translation">
              <InterpolatingParam id="17895" interp="linr"  time="-9999999/1" value="0" leadInLength="0/1"  />
              <InterpolatingParam id="17896" interp="linr"  time="-9999999/1" value="0" leadInLength="0/1"  />
              <InterpolatingParam id="17897" interp="linr"  time="-9999999/1" value="0" leadInLength="0/1"  />
             </VectorParam>
             <VectorParam id="17898"  name="rotation">
              <InterpolatingParam id="17899" interp="linr"  time="-9999999/1" value="0" leadInLength="0/1"  />
              <InterpolatingParam id="17900" interp="linr"  time="-9999999/1" value="0" leadInLength="0/1"  />
              <InterpolatingParam id="17901" interp="linr"  time="-9999999/1" value="0" leadInLength="0/1"  />
             </VectorParam>
             <VectorParam id="17902"  name="shear">
              <InterpolatingParam id="17903" interp="linr"  time="-9999999/1" value="0" leadInLength="0/1"  />
              <InterpolatingParam id="17904" interp="linr"  time="-9999999/1" value="0" leadInLength="0/1"  />
              <InterpolatingParam id="17905" interp="linr"  time="-9999999/1" value="0" leadInLength="0/1"  />
             </VectorParam>
             <VectorParam id="17906"  name="scale">
              <InterpolatingParam id="17907" interp="linr"  time="-9999999/1" value="1" leadInLength="0/1"  />
              <InterpolatingParam id="17908" interp="linr"  time="-9999999/1" value="1" leadInLength="0/1"  />
              <InterpolatingParam id="17909" interp="linr"  time="-9999999/1" value="1" leadInLength="0/1"  />
             </VectorParam>
             <VectorParam id="17910"  name="anchor">
              <InterpolatingParam id="17911" interp="linr"  time="0/1" value="0" leadInLength="0/1"  />
              <InterpolatingParam id="17912" interp="linr"  time="0/1" value="0" leadInLength="0/1"  />
              <InterpolatingParam id="17913" interp="linr"  time="0/1" value="0" leadInLength="0/1"  />
             </VectorParam>
            </Transformer>
            <Parameters>
             <VectorParam id="17914"  name="sourceCrop">
              <InterpolatingParam id="17915" interp="linr"  time="0/1" value="0" leadInLength="0/1"  />
              <InterpolatingParam id="17916" interp="linr"  time="0/1" value="0" leadInLength="0/1"  />
              <InterpolatingParam id="17917" interp="linr"  time="0/1" value="0" leadInLength="0/1"  />
              <InterpolatingParam id="17918" interp="linr"  time="0/1" value="0" leadInLength="0/1"  />
             </VectorParam>
             <VectorParam id="17919"  name="geometryCrop">
              <InterpolatingParam id="17920" interp="linr"  time="-9999999/1" value="0" leadInLength="0/1"  />
              <InterpolatingParam id="17921" interp="linr"  time="-9999999/1" value="0" leadInLength="0/1"  />
              <InterpolatingParam id="17922" interp="linr"  time="-9999999/1" value="0" leadInLength="0/1"  />
              <InterpolatingParam id="17923" interp="linr"  time="-9999999/1" value="0" leadInLength="0/1"  />
             </VectorParam>
             <InterpolatingParam id="17924" interp="linr"  time="-9999999/1" value="1" leadInLength="0/1"  name="opacity"/>
            </Parameters>
            <Attributes>
             <Attribute id="17925" value="" name="ident"/>
            </Attributes>
            <MetaData>
             <entry key="WinSubProjectDisplayName" val=""/>
            </MetaData>
            <ExtraData>
             <Entry key="ZoomPanBin">
              <ZoomPanBin id="17926"  >
               <ZoomPanKeyframes>
                <ZoomPanKeyframe id="17927" timeRangeEnd="-9999999/1" timeRangeDuration="0/1" interpolaterName=""  />
               </ZoomPanKeyframes>
              </ZoomPanBin>
             </Entry>
            </ExtraData>
           </VMFile>
           <VMFile id="17928" start="4744" duration="386" scalar="1/1" mediaStart="7805/1" mediaDuration="386/1" trackNumber="0" src="4" >
            <Transformer>
             <VectorParam id="17929"  name="translation">
              <InterpolatingParam id="17930" interp="linr"  time="-9999999/1" value="0" leadInLength="0/1"  />
              <InterpolatingParam id="17931" interp="linr"  time="-9999999/1" value="0" leadInLength="0/1"  />
              <InterpolatingParam id="17932" interp="linr"  time="-9999999/1" value="0" leadInLength="0/1"  />
             </VectorParam>
             <VectorParam id="17933"  name="rotation">
              <InterpolatingParam id="17934" interp="linr"  time="-9999999/1" value="0" leadInLength="0/1"  />
              <InterpolatingParam id="17935" interp="linr"  time="-9999999/1" value="0" leadInLength="0/1"  />
              <InterpolatingParam id="17936" interp="linr"  time="-9999999/1" value="0" leadInLength="0/1"  />
             </VectorParam>
             <VectorParam id="17937"  name="shear">
              <InterpolatingParam id="17938" interp="linr"  time="-9999999/1" value="0" leadInLength="0/1"  />
              <InterpolatingParam id="17939" interp="linr"  time="-9999999/1" value="0" leadInLength="0/1"  />
              <InterpolatingParam id="17940" interp="linr"  time="-9999999/1" value="0" leadInLength="0/1"  />
             </VectorParam>
             <VectorParam id="17941"  name="scale">
              <InterpolatingParam id="17942" interp="linr"  time="-9999999/1" value="1" leadInLength="0/1"  />
              <InterpolatingParam id="17943" interp="linr"  time="-9999999/1" value="1" leadInLength="0/1"  />
              <InterpolatingParam id="17944" interp="linr"  time="-9999999/1" value="1" leadInLength="0/1"  />
             </VectorParam>
             <VectorParam id="17945"  name="anchor">
              <InterpolatingParam id="17946" interp="linr"  time="0/1" value="0" leadInLength="0/1"  />
              <InterpolatingParam id="17947" interp="linr"  time="0/1" value="0" leadInLength="0/1"  />
              <InterpolatingParam id="17948" interp="linr"  time="0/1" value="0" leadInLength="0/1"  />
             </VectorParam>
            </Transformer>
            <Parameters>
             <VectorParam id="17949"  name="sourceCrop">
              <InterpolatingParam id="17950" interp="linr"  time="0/1" value="0" leadInLength="0/1"  />
              <InterpolatingParam id="17951" interp="linr"  time="0/1" value="0" leadInLength="0/1"  />
              <InterpolatingParam id="17952" interp="linr"  time="0/1" value="0" leadInLength="0/1"  />
              <InterpolatingParam id="17953" interp="linr"  time="0/1" value="0" leadInLength="0/1"  />
             </VectorParam>
             <VectorParam id="17954"  name="geometryCrop">
              <InterpolatingParam id="17955" interp="linr"  time="-9999999/1" value="0" leadInLength="0/1"  />
              <InterpolatingParam id="17956" interp="linr"  time="-9999999/1" value="0" leadInLength="0/1"  />
              <InterpolatingParam id="17957" interp="linr"  time="-9999999/1" value="0" leadInLength="0/1"  />
              <InterpolatingParam id="17958" interp="linr"  time="-9999999/1" value="0" leadInLength="0/1"  />
             </VectorParam>
             <InterpolatingParam id="17959" interp="linr"  time="-9999999/1" value="1" leadInLength="0/1"  name="opacity"/>
            </Parameters>
            <Attributes>
             <Attribute id="17960" value="" name="ident"/>
            </Attributes>
            <MetaData>
             <entry key="WinSubProjectDisplayName" val=""/>
            </MetaData>
            <ExtraData>
             <Entry key="ZoomPanBin">
              <ZoomPanBin id="17961"  >
               <ZoomPanKeyframes>
                <ZoomPanKeyframe id="17962" timeRangeEnd="-9999999/1" timeRangeDuration="0/1" interpolaterName=""  />
               </ZoomPanKeyframes>
              </ZoomPanBin>
             </Entry>
            </ExtraData>
           </VMFile>
           <VMFile id="17963" start="5130" duration="922" scalar="1/1" mediaStart="8371/1" mediaDuration="922/1" trackNumber="0" src="4" >
            <Transformer>
             <VectorParam id="17964"  name="translation">
              <InterpolatingParam id="17965" interp="linr"  time="-9999999/1" value="0" leadInLength="0/1"  />
              <InterpolatingParam id="17966" interp="linr"  time="-9999999/1" value="0" leadInLength="0/1"  />
              <InterpolatingParam id="17967" interp="linr"  time="-9999999/1" value="0" leadInLength="0/1"  />
             </VectorParam>
             <VectorParam id="17968"  name="rotation">
              <InterpolatingParam id="17969" interp="linr"  time="-9999999/1" value="0" leadInLength="0/1"  />
              <InterpolatingParam id="17970" interp="linr"  time="-9999999/1" value="0" leadInLength="0/1"  />
              <InterpolatingParam id="17971" interp="linr"  time="-9999999/1" value="0" leadInLength="0/1"  />
             </VectorParam>
             <VectorParam id="17972"  name="shear">
              <InterpolatingParam id="17973" interp="linr"  time="-9999999/1" value="0" leadInLength="0/1"  />
              <InterpolatingParam id="17974" interp="linr"  time="-9999999/1" value="0" leadInLength="0/1"  />
              <InterpolatingParam id="17975" interp="linr"  time="-9999999/1" value="0" leadInLength="0/1"  />
             </VectorParam>
             <VectorParam id="17976"  name="scale">
              <InterpolatingParam id="17977" interp="linr"  time="-9999999/1" value="1" leadInLength="0/1"  />
              <InterpolatingParam id="17978" interp="linr"  time="-9999999/1" value="1" leadInLength="0/1"  />
              <InterpolatingParam id="17979" interp="linr"  time="-9999999/1" value="1" leadInLength="0/1"  />
             </VectorParam>
             <VectorParam id="17980"  name="anchor">
              <InterpolatingParam id="17981" interp="linr"  time="0/1" value="0" leadInLength="0/1"  />
              <InterpolatingParam id="17982" interp="linr"  time="0/1" value="0" leadInLength="0/1"  />
              <InterpolatingParam id="17983" interp="linr"  time="0/1" value="0" leadInLength="0/1"  />
             </VectorParam>
            </Transformer>
            <Parameters>
             <VectorParam id="17984"  name="sourceCrop">
              <InterpolatingParam id="17985" interp="linr"  time="0/1" value="0" leadInLength="0/1"  />
              <InterpolatingParam id="17986" interp="linr"  time="0/1" value="0" leadInLength="0/1"  />
              <InterpolatingParam id="17987" interp="linr"  time="0/1" value="0" leadInLength="0/1"  />
              <InterpolatingParam id="17988" interp="linr"  time="0/1" value="0" leadInLength="0/1"  />
             </VectorParam>
             <VectorParam id="17989"  name="geometryCrop">
              <InterpolatingParam id="17990" interp="linr"  time="-9999999/1" value="0" leadInLength="0/1"  />
              <InterpolatingParam id="17991" interp="linr"  time="-9999999/1" value="0" leadInLength="0/1"  />
              <InterpolatingParam id="17992" interp="linr"  time="-9999999/1" value="0" leadInLength="0/1"  />
              <InterpolatingParam id="17993" interp="linr"  time="-9999999/1" value="0" leadInLength="0/1"  />
             </VectorParam>
             <InterpolatingParam id="17994" interp="linr"  time="-9999999/1" value="1" leadInLength="0/1"  name="opacity"/>
            </Parameters>
            <Attributes>
             <Attribute id="17995" value="" name="ident"/>
            </Attributes>
            <MetaData>
             <entry key="WinSubProjectDisplayName" val=""/>
            </MetaData>
            <ExtraData>
             <Entry key="ZoomPanBin">
              <ZoomPanBin id="17996"  >
               <ZoomPanKeyframes>
                <ZoomPanKeyframe id="17997" timeRangeEnd="-9999999/1" timeRangeDuration="0/1" interpolaterName=""  />
               </ZoomPanKeyframes>
              </ZoomPanBin>
             </Entry>
            </ExtraData>
           </VMFile>
           <IMFile id="17998" start="6052" duration="30" scalar="1/1" mediaStart="9292/1" mediaDuration="1/1" trackNumber="0" src="4" trimStartSum="0/1" >
            <Transformer>
             <VectorParam id="17999"  name="translation">
              <InterpolatingParam id="18000" interp="linr"  time="-9999999/1" value="0" leadInLength="0/1"  />
              <InterpolatingParam id="18001" interp="linr"  time="-9999999/1" value="0" leadInLength="0/1"  />
              <InterpolatingParam id="18002" interp="linr"  time="-9999999/1" value="0" leadInLength="0/1"  />
             </VectorParam>
             <VectorParam id="18003"  name="rotation">
              <InterpolatingParam id="18004" interp="linr"  time="-9999999/1" value="0" leadInLength="0/1"  />
              <InterpolatingParam id="18005" interp="linr"  time="-9999999/1" value="0" leadInLength="0/1"  />
              <InterpolatingParam id="18006" interp="linr"  time="-9999999/1" value="0" leadInLength="0/1"  />
             </VectorParam>
             <VectorParam id="18007"  name="shear">
              <InterpolatingParam id="18008" interp="linr"  time="-9999999/1" value="0" leadInLength="0/1"  />
              <InterpolatingParam id="18009" interp="linr"  time="-9999999/1" value="0" leadInLength="0/1"  />
              <InterpolatingParam id="18010" interp="linr"  time="-9999999/1" value="0" leadInLength="0/1"  />
             </VectorParam>
             <VectorParam id="18011"  name="scale">
              <InterpolatingParam id="18012" interp="linr"  time="-9999999/1" value="1" leadInLength="0/1"  />
              <InterpolatingParam id="18013" interp="linr"  time="-9999999/1" value="1" leadInLength="0/1"  />
              <InterpolatingParam id="18014" interp="linr"  time="-9999999/1" value="1" leadInLength="0/1"  />
             </VectorParam>
             <VectorParam id="18015"  name="anchor">
              <InterpolatingParam id="18016" interp="linr"  time="0/1" value="0" leadInLength="0/1"  />
              <InterpolatingParam id="18017" interp="linr"  time="0/1" value="0" leadInLength="0/1"  />
              <InterpolatingParam id="18018" interp="linr"  time="0/1" value="0" leadInLength="0/1"  />
             </VectorParam>
            </Transformer>
            <Parameters>
             <VectorParam id="18019"  name="sourceCrop">
              <InterpolatingParam id="18020" interp="linr"  time="0/1" value="0" leadInLength="0/1"  />
              <InterpolatingParam id="18021" interp="linr"  time="0/1" value="0" leadInLength="0/1"  />
              <InterpolatingParam id="18022" interp="linr"  time="0/1" value="0" leadInLength="0/1"  />
              <InterpolatingParam id="18023" interp="linr"  time="0/1" value="0" leadInLength="0/1"  />
             </VectorParam>
             <VectorParam id="18024"  name="geometryCrop">
              <InterpolatingParam id="18025" interp="linr"  time="-9999999/1" value="0" leadInLength="0/1"  />
              <InterpolatingParam id="18026" interp="linr"  time="-9999999/1" value="0" leadInLength="0/1"  />
              <InterpolatingParam id="18027" interp="linr"  time="-9999999/1" value="0" leadInLength="0/1"  />
              <InterpolatingParam id="18028" interp="linr"  time="-9999999/1" value="0" leadInLength="0/1"  />
             </VectorParam>
             <InterpolatingParam id="18029" interp="linr"  time="-9999999/1" value="1" leadInLength="0/1"  name="opacity"/>
            </Parameters>
            <Attributes>
             <Attribute id="18030" value="" name="ident"/>
            </Attributes>
            <MetaData>
             <entry key="WinSubProjectDisplayName" val=""/>
            </MetaData>
            <ExtraData>
             <Entry key="ZoomPanBin">
              <ZoomPanBin id="18031"  >
               <ZoomPanKeyframes>
                <ZoomPanKeyframe id="18032" timeRangeEnd="-9999999/1" timeRangeDuration="0/1" interpolaterName=""  />
               </ZoomPanKeyframes>
              </ZoomPanBin>
             </Entry>
            </ExtraData>
           </IMFile>
           <VMFile id="18033" start="6082" duration="86" scalar="1/1" mediaStart="9292/1" mediaDuration="86/1" trackNumber="0" src="4" >
            <Transformer>
             <VectorParam id="18034"  name="translation">
              <InterpolatingParam id="18035" interp="linr"  time="-9999999/1" value="0" leadInLength="0/1"  />
              <InterpolatingParam id="18036" interp="linr"  time="-9999999/1" value="0" leadInLength="0/1"  />
              <InterpolatingParam id="18037" interp="linr"  time="-9999999/1" value="0" leadInLength="0/1"  />
             </VectorParam>
             <VectorParam id="18038"  name="rotation">
              <InterpolatingParam id="18039" interp="linr"  time="-9999999/1" value="0" leadInLength="0/1"  />
              <InterpolatingParam id="18040" interp="linr"  time="-9999999/1" value="0" leadInLength="0/1"  />
              <InterpolatingParam id="18041" interp="linr"  time="-9999999/1" value="0" leadInLength="0/1"  />
             </VectorParam>
             <VectorParam id="18042"  name="shear">
              <InterpolatingParam id="18043" interp="linr"  time="-9999999/1" value="0" leadInLength="0/1"  />
              <InterpolatingParam id="18044" interp="linr"  time="-9999999/1" value="0" leadInLength="0/1"  />
              <InterpolatingParam id="18045" interp="linr"  time="-9999999/1" value="0" leadInLength="0/1"  />
             </VectorParam>
             <VectorParam id="18046"  name="scale">
              <InterpolatingParam id="18047" interp="linr"  time="-9999999/1" value="1" leadInLength="0/1"  />
              <InterpolatingParam id="18048" interp="linr"  time="-9999999/1" value="1" leadInLength="0/1"  />
              <InterpolatingParam id="18049" interp="linr"  time="-9999999/1" value="1" leadInLength="0/1"  />
             </VectorParam>
             <VectorParam id="18050"  name="anchor">
              <InterpolatingParam id="18051" interp="linr"  time="0/1" value="0" leadInLength="0/1"  />
              <InterpolatingParam id="18052" interp="linr"  time="0/1" value="0" leadInLength="0/1"  />
              <InterpolatingParam id="18053" interp="linr"  time="0/1" value="0" leadInLength="0/1"  />
             </VectorParam>
            </Transformer>
            <Parameters>
             <VectorParam id="18054"  name="sourceCrop">
              <InterpolatingParam id="18055" interp="linr"  time="0/1" value="0" leadInLength="0/1"  />
              <InterpolatingParam id="18056" interp="linr"  time="0/1" value="0" leadInLength="0/1"  />
              <InterpolatingParam id="18057" interp="linr"  time="0/1" value="0" leadInLength="0/1"  />
              <InterpolatingParam id="18058" interp="linr"  time="0/1" value="0" leadInLength="0/1"  />
             </VectorParam>
             <VectorParam id="18059"  name="geometryCrop">
              <InterpolatingParam id="18060" interp="linr"  time="-9999999/1" value="0" leadInLength="0/1"  />
              <InterpolatingParam id="18061" interp="linr"  time="-9999999/1" value="0" leadInLength="0/1"  />
              <InterpolatingParam id="18062" interp="linr"  time="-9999999/1" value="0" leadInLength="0/1"  />
              <InterpolatingParam id="18063" interp="linr"  time="-9999999/1" value="0" leadInLength="0/1"  />
             </VectorParam>
             <InterpolatingParam id="18064" interp="linr"  time="-9999999/1" value="1" leadInLength="0/1"  name="opacity"/>
            </Parameters>
            <Attributes>
             <Attribute id="18065" value="" name="ident"/>
            </Attributes>
            <MetaData>
             <entry key="WinSubProjectDisplayName" val=""/>
            </MetaData>
            <ExtraData>
             <Entry key="ZoomPanBin">
              <ZoomPanBin id="18066"  >
               <ZoomPanKeyframes>
                <ZoomPanKeyframe id="18067" timeRangeEnd="-9999999/1" timeRangeDuration="0/1" interpolaterName=""  />
               </ZoomPanKeyframes>
              </ZoomPanBin>
             </Entry>
            </ExtraData>
           </VMFile>
           <VMFile id="18068" start="6168" duration="555" scalar="1/1" mediaStart="9516/1" mediaDuration="555/1" trackNumber="0" src="4" >
            <Transformer>
             <VectorParam id="18069"  name="translation">
              <InterpolatingParam id="18070" interp="linr"  time="-9999999/1" value="0" leadInLength="0/1"  />
              <InterpolatingParam id="18071" interp="linr"  time="-9999999/1" value="0" leadInLength="0/1"  />
              <InterpolatingParam id="18072" interp="linr"  time="-9999999/1" value="0" leadInLength="0/1"  />
             </VectorParam>
             <VectorParam id="18073"  name="rotation">
              <InterpolatingParam id="18074" interp="linr"  time="-9999999/1" value="0" leadInLength="0/1"  />
              <InterpolatingParam id="18075" interp="linr"  time="-9999999/1" value="0" leadInLength="0/1"  />
              <InterpolatingParam id="18076" interp="linr"  time="-9999999/1" value="0" leadInLength="0/1"  />
             </VectorParam>
             <VectorParam id="18077"  name="shear">
              <InterpolatingParam id="18078" interp="linr"  time="-9999999/1" value="0" leadInLength="0/1"  />
              <InterpolatingParam id="18079" interp="linr"  time="-9999999/1" value="0" leadInLength="0/1"  />
              <InterpolatingParam id="18080" interp="linr"  time="-9999999/1" value="0" leadInLength="0/1"  />
             </VectorParam>
             <VectorParam id="18081"  name="scale">
              <InterpolatingParam id="18082" interp="linr"  time="-9999999/1" value="1" leadInLength="0/1"  />
              <InterpolatingParam id="18083" interp="linr"  time="-9999999/1" value="1" leadInLength="0/1"  />
              <InterpolatingParam id="18084" interp="linr"  time="-9999999/1" value="1" leadInLength="0/1"  />
             </VectorParam>
             <VectorParam id="18085"  name="anchor">
              <InterpolatingParam id="18086" interp="linr"  time="0/1" value="0" leadInLength="0/1"  />
              <InterpolatingParam id="18087" interp="linr"  time="0/1" value="0" leadInLength="0/1"  />
              <InterpolatingParam id="18088" interp="linr"  time="0/1" value="0" leadInLength="0/1"  />
             </VectorParam>
            </Transformer>
            <Parameters>
             <VectorParam id="18089"  name="sourceCrop">
              <InterpolatingParam id="18090" interp="linr"  time="0/1" value="0" leadInLength="0/1"  />
              <InterpolatingParam id="18091" interp="linr"  time="0/1" value="0" leadInLength="0/1"  />
              <InterpolatingParam id="18092" interp="linr"  time="0/1" value="0" leadInLength="0/1"  />
              <InterpolatingParam id="18093" interp="linr"  time="0/1" value="0" leadInLength="0/1"  />
             </VectorParam>
             <VectorParam id="18094"  name="geometryCrop">
              <InterpolatingParam id="18095" interp="linr"  time="-9999999/1" value="0" leadInLength="0/1"  />
              <InterpolatingParam id="18096" interp="linr"  time="-9999999/1" value="0" leadInLength="0/1"  />
              <InterpolatingParam id="18097" interp="linr"  time="-9999999/1" value="0" leadInLength="0/1"  />
              <InterpolatingParam id="18098" interp="linr"  time="-9999999/1" value="0" leadInLength="0/1"  />
             </VectorParam>
             <InterpolatingParam id="18099" interp="linr"  time="-9999999/1" value="1" leadInLength="0/1"  name="opacity"/>
            </Parameters>
            <Attributes>
             <Attribute id="18100" value="" name="ident"/>
            </Attributes>
            <MetaData>
             <entry key="WinSubProjectDisplayName" val=""/>
            </MetaData>
            <ExtraData>
             <Entry key="ZoomPanBin">
              <ZoomPanBin id="18101"  >
               <ZoomPanKeyframes>
                <ZoomPanKeyframe id="18102" timeRangeEnd="-9999999/1" timeRangeDuration="0/1" interpolaterName=""  />
               </ZoomPanKeyframes>
              </ZoomPanBin>
             </Entry>
            </ExtraData>
           </VMFile>
           <VMFile id="18103" start="6723" duration="460" scalar="1/1" mediaStart="11597/1" mediaDuration="460/1" trackNumber="0" src="4" >
            <Transformer>
             <VectorParam id="18104"  name="translation">
              <InterpolatingParam id="18105" interp="linr"  time="-9999999/1" value="0" leadInLength="0/1"  />
              <InterpolatingParam id="18106" interp="linr"  time="-9999999/1" value="0" leadInLength="0/1"  />
              <InterpolatingParam id="18107" interp="linr"  time="-9999999/1" value="0" leadInLength="0/1"  />
             </VectorParam>
             <VectorParam id="18108"  name="rotation">
              <InterpolatingParam id="18109" interp="linr"  time="-9999999/1" value="0" leadInLength="0/1"  />
              <InterpolatingParam id="18110" interp="linr"  time="-9999999/1" value="0" leadInLength="0/1"  />
              <InterpolatingParam id="18111" interp="linr"  time="-9999999/1" value="0" leadInLength="0/1"  />
             </VectorParam>
             <VectorParam id="18112"  name="shear">
              <InterpolatingParam id="18113" interp="linr"  time="-9999999/1" value="0" leadInLength="0/1"  />
              <InterpolatingParam id="18114" interp="linr"  time="-9999999/1" value="0" leadInLength="0/1"  />
              <InterpolatingParam id="18115" interp="linr"  time="-9999999/1" value="0" leadInLength="0/1"  />
             </VectorParam>
             <VectorParam id="18116"  name="scale">
              <InterpolatingParam id="18117" interp="linr"  time="-9999999/1" value="1" leadInLength="0/1"  />
              <InterpolatingParam id="18118" interp="linr"  time="-9999999/1" value="1" leadInLength="0/1"  />
              <InterpolatingParam id="18119" interp="linr"  time="-9999999/1" value="1" leadInLength="0/1"  />
             </VectorParam>
             <VectorParam id="18120"  name="anchor">
              <InterpolatingParam id="18121" interp="linr"  time="0/1" value="0" leadInLength="0/1"  />
              <InterpolatingParam id="18122" interp="linr"  time="0/1" value="0" leadInLength="0/1"  />
              <InterpolatingParam id="18123" interp="linr"  time="0/1" value="0" leadInLength="0/1"  />
             </VectorParam>
            </Transformer>
            <Parameters>
             <VectorParam id="18124"  name="sourceCrop">
              <InterpolatingParam id="18125" interp="linr"  time="0/1" value="0" leadInLength="0/1"  />
              <InterpolatingParam id="18126" interp="linr"  time="0/1" value="0" leadInLength="0/1"  />
              <InterpolatingParam id="18127" interp="linr"  time="0/1" value="0" leadInLength="0/1"  />
              <InterpolatingParam id="18128" interp="linr"  time="0/1" value="0" leadInLength="0/1"  />
             </VectorParam>
             <VectorParam id="18129"  name="geometryCrop">
              <InterpolatingParam id="18130" interp="linr"  time="-9999999/1" value="0" leadInLength="0/1"  />
              <InterpolatingParam id="18131" interp="linr"  time="-9999999/1" value="0" leadInLength="0/1"  />
              <InterpolatingParam id="18132" interp="linr"  time="-9999999/1" value="0" leadInLength="0/1"  />
              <InterpolatingParam id="18133" interp="linr"  time="-9999999/1" value="0" leadInLength="0/1"  />
             </VectorParam>
             <InterpolatingParam id="18134" interp="linr"  time="-9999999/1" value="1" leadInLength="0/1"  name="opacity"/>
            </Parameters>
            <Attributes>
             <Attribute id="18135" value="" name="ident"/>
            </Attributes>
            <MetaData>
             <entry key="WinSubProjectDisplayName" val=""/>
            </MetaData>
            <ExtraData>
             <Entry key="ZoomPanBin">
              <ZoomPanBin id="18136"  >
               <ZoomPanKeyframes>
                <ZoomPanKeyframe id="18137" timeRangeEnd="-9999999/1" timeRangeDuration="0/1" interpolaterName=""  />
               </ZoomPanKeyframes>
              </ZoomPanBin>
             </Entry>
            </ExtraData>
           </VMFile>
           <VMFile id="18138" start="7183" duration="350" scalar="1/1" mediaStart="12237/1" mediaDuration="350/1" trackNumber="0" src="4" >
            <Transformer>
             <VectorParam id="18139"  name="translation">
              <InterpolatingParam id="18140" interp="linr"  time="-9999999/1" value="0" leadInLength="0/1"  />
              <InterpolatingParam id="18141" interp="linr"  time="-9999999/1" value="0" leadInLength="0/1"  />
              <InterpolatingParam id="18142" interp="linr"  time="-9999999/1" value="0" leadInLength="0/1"  />
             </VectorParam>
             <VectorParam id="18143"  name="rotation">
              <InterpolatingParam id="18144" interp="linr"  time="-9999999/1" value="0" leadInLength="0/1"  />
              <InterpolatingParam id="18145" interp="linr"  time="-9999999/1" value="0" leadInLength="0/1"  />
              <InterpolatingParam id="18146" interp="linr"  time="-9999999/1" value="0" leadInLength="0/1"  />
             </VectorParam>
             <VectorParam id="18147"  name="shear">
              <InterpolatingParam id="18148" interp="linr"  time="-9999999/1" value="0" leadInLength="0/1"  />
              <InterpolatingParam id="18149" interp="linr"  time="-9999999/1" value="0" leadInLength="0/1"  />
              <InterpolatingParam id="18150" interp="linr"  time="-9999999/1" value="0" leadInLength="0/1"  />
             </VectorParam>
             <VectorParam id="18151"  name="scale">
              <InterpolatingParam id="18152" interp="linr"  time="-9999999/1" value="1" leadInLength="0/1"  />
              <InterpolatingParam id="18153" interp="linr"  time="-9999999/1" value="1" leadInLength="0/1"  />
              <InterpolatingParam id="18154" interp="linr"  time="-9999999/1" value="1" leadInLength="0/1"  />
             </VectorParam>
             <VectorParam id="18155"  name="anchor">
              <InterpolatingParam id="18156" interp="linr"  time="0/1" value="0" leadInLength="0/1"  />
              <InterpolatingParam id="18157" interp="linr"  time="0/1" value="0" leadInLength="0/1"  />
              <InterpolatingParam id="18158" interp="linr"  time="0/1" value="0" leadInLength="0/1"  />
             </VectorParam>
            </Transformer>
            <Parameters>
             <VectorParam id="18159"  name="sourceCrop">
              <InterpolatingParam id="18160" interp="linr"  time="0/1" value="0" leadInLength="0/1"  />
              <InterpolatingParam id="18161" interp="linr"  time="0/1" value="0" leadInLength="0/1"  />
              <InterpolatingParam id="18162" interp="linr"  time="0/1" value="0" leadInLength="0/1"  />
              <InterpolatingParam id="18163" interp="linr"  time="0/1" value="0" leadInLength="0/1"  />
             </VectorParam>
             <VectorParam id="18164"  name="geometryCrop">
              <InterpolatingParam id="18165" interp="linr"  time="-9999999/1" value="0" leadInLength="0/1"  />
              <InterpolatingParam id="18166" interp="linr"  time="-9999999/1" value="0" leadInLength="0/1"  />
              <InterpolatingParam id="18167" interp="linr"  time="-9999999/1" value="0" leadInLength="0/1"  />
              <InterpolatingParam id="18168" interp="linr"  time="-9999999/1" value="0" leadInLength="0/1"  />
             </VectorParam>
             <InterpolatingParam id="18169" interp="linr"  time="-9999999/1" value="1" leadInLength="0/1"  name="opacity"/>
            </Parameters>
            <Attributes>
             <Attribute id="18170" value="" name="ident"/>
            </Attributes>
            <MetaData>
             <entry key="WinSubProjectDisplayName" val=""/>
            </MetaData>
            <ExtraData>
             <Entry key="ZoomPanBin">
              <ZoomPanBin id="18171"  >
               <ZoomPanKeyframes>
                <ZoomPanKeyframe id="18172" timeRangeEnd="-9999999/1" timeRangeDuration="0/1" interpolaterName=""  />
               </ZoomPanKeyframes>
              </ZoomPanBin>
             </Entry>
            </ExtraData>
           </VMFile>
           <VMFile id="18173" start="7533" duration="109" scalar="1/1" mediaStart="15765/1" mediaDuration="109/1" trackNumber="0" src="4" >
            <Transformer>
             <VectorParam id="18174"  name="translation">
              <InterpolatingParam id="18175" interp="linr"  time="-9999999/1" value="0" leadInLength="0/1"  />
              <InterpolatingParam id="18176" interp="linr"  time="-9999999/1" value="0" leadInLength="0/1"  />
              <InterpolatingParam id="18177" interp="linr"  time="-9999999/1" value="0" leadInLength="0/1"  />
             </VectorParam>
             <VectorParam id="18178"  name="rotation">
              <InterpolatingParam id="18179" interp="linr"  time="-9999999/1" value="0" leadInLength="0/1"  />
              <InterpolatingParam id="18180" interp="linr"  time="-9999999/1" value="0" leadInLength="0/1"  />
              <InterpolatingParam id="18181" interp="linr"  time="-9999999/1" value="0" leadInLength="0/1"  />
             </VectorParam>
             <VectorParam id="18182"  name="shear">
              <InterpolatingParam id="18183" interp="linr"  time="-9999999/1" value="0" leadInLength="0/1"  />
              <InterpolatingParam id="18184" interp="linr"  time="-9999999/1" value="0" leadInLength="0/1"  />
              <InterpolatingParam id="18185" interp="linr"  time="-9999999/1" value="0" leadInLength="0/1"  />
             </VectorParam>
             <VectorParam id="18186"  name="scale">
              <InterpolatingParam id="18187" interp="linr"  time="-9999999/1" value="1" leadInLength="0/1"  />
              <InterpolatingParam id="18188" interp="linr"  time="-9999999/1" value="1" leadInLength="0/1"  />
              <InterpolatingParam id="18189" interp="linr"  time="-9999999/1" value="1" leadInLength="0/1"  />
             </VectorParam>
             <VectorParam id="18190"  name="anchor">
              <InterpolatingParam id="18191" interp="linr"  time="0/1" value="0" leadInLength="0/1"  />
              <InterpolatingParam id="18192" interp="linr"  time="0/1" value="0" leadInLength="0/1"  />
              <InterpolatingParam id="18193" interp="linr"  time="0/1" value="0" leadInLength="0/1"  />
             </VectorParam>
            </Transformer>
            <Parameters>
             <VectorParam id="18194"  name="sourceCrop">
              <InterpolatingParam id="18195" interp="linr"  time="0/1" value="0" leadInLength="0/1"  />
              <InterpolatingParam id="18196" interp="linr"  time="0/1" value="0" leadInLength="0/1"  />
              <InterpolatingParam id="18197" interp="linr"  time="0/1" value="0" leadInLength="0/1"  />
              <InterpolatingParam id="18198" interp="linr"  time="0/1" value="0" leadInLength="0/1"  />
             </VectorParam>
             <VectorParam id="18199"  name="geometryCrop">
              <InterpolatingParam id="18200" interp="linr"  time="-9999999/1" value="0" leadInLength="0/1"  />
              <InterpolatingParam id="18201" interp="linr"  time="-9999999/1" value="0" leadInLength="0/1"  />
              <InterpolatingParam id="18202" interp="linr"  time="-9999999/1" value="0" leadInLength="0/1"  />
              <InterpolatingParam id="18203" interp="linr"  time="-9999999/1" value="0" leadInLength="0/1"  />
             </VectorParam>
             <InterpolatingParam id="18204" interp="linr"  time="-9999999/1" value="1" leadInLength="0/1"  name="opacity"/>
            </Parameters>
            <Attributes>
             <Attribute id="18205" value="" name="ident"/>
            </Attributes>
            <MetaData>
             <entry key="WinSubProjectDisplayName" val=""/>
            </MetaData>
            <ExtraData>
             <Entry key="ZoomPanBin">
              <ZoomPanBin id="18206"  >
               <ZoomPanKeyframes>
                <ZoomPanKeyframe id="18207" timeRangeEnd="-9999999/1" timeRangeDuration="0/1" interpolaterName=""  />
               </ZoomPanKeyframes>
              </ZoomPanBin>
             </Entry>
            </ExtraData>
           </VMFile>
           <IMFile id="18208" start="7642" duration="451" scalar="1/1" mediaStart="15873/1" mediaDuration="1/1" trackNumber="0" src="4" trimStartSum="0/1" >
            <Transformer>
             <VectorParam id="18209"  name="translation">
              <InterpolatingParam id="18210" interp="linr"  time="-9999999/1" value="0" leadInLength="0/1"  />
              <InterpolatingParam id="18211" interp="linr"  time="-9999999/1" value="0" leadInLength="0/1"  />
              <InterpolatingParam id="18212" interp="linr"  time="-9999999/1" value="0" leadInLength="0/1"  />
             </VectorParam>
             <VectorParam id="18213"  name="rotation">
              <InterpolatingParam id="18214" interp="linr"  time="-9999999/1" value="0" leadInLength="0/1"  />
              <InterpolatingParam id="18215" interp="linr"  time="-9999999/1" value="0" leadInLength="0/1"  />
              <InterpolatingParam id="18216" interp="linr"  time="-9999999/1" value="0" leadInLength="0/1"  />
             </VectorParam>
             <VectorParam id="18217"  name="shear">
              <InterpolatingParam id="18218" interp="linr"  time="-9999999/1" value="0" leadInLength="0/1"  />
              <InterpolatingParam id="18219" interp="linr"  time="-9999999/1" value="0" leadInLength="0/1"  />
              <InterpolatingParam id="18220" interp="linr"  time="-9999999/1" value="0" leadInLength="0/1"  />
             </VectorParam>
             <VectorParam id="18221"  name="scale">
              <InterpolatingParam id="18222" interp="linr"  time="-9999999/1" value="1" leadInLength="0/1"  />
              <InterpolatingParam id="18223" interp="linr"  time="-9999999/1" value="1" leadInLength="0/1"  />
              <InterpolatingParam id="18224" interp="linr"  time="-9999999/1" value="1" leadInLength="0/1"  />
             </VectorParam>
             <VectorParam id="18225"  name="anchor">
              <InterpolatingParam id="18226" interp="linr"  time="0/1" value="0" leadInLength="0/1"  />
              <InterpolatingParam id="18227" interp="linr"  time="0/1" value="0" leadInLength="0/1"  />
              <InterpolatingParam id="18228" interp="linr"  time="0/1" value="0" leadInLength="0/1"  />
             </VectorParam>
            </Transformer>
            <Parameters>
             <VectorParam id="18229"  name="sourceCrop">
              <InterpolatingParam id="18230" interp="linr"  time="0/1" value="0" leadInLength="0/1"  />
              <InterpolatingParam id="18231" interp="linr"  time="0/1" value="0" leadInLength="0/1"  />
              <InterpolatingParam id="18232" interp="linr"  time="0/1" value="0" leadInLength="0/1"  />
              <InterpolatingParam id="18233" interp="linr"  time="0/1" value="0" leadInLength="0/1"  />
             </VectorParam>
             <VectorParam id="18234"  name="geometryCrop">
              <InterpolatingParam id="18235" interp="linr"  time="-9999999/1" value="0" leadInLength="0/1"  />
              <InterpolatingParam id="18236" interp="linr"  time="-9999999/1" value="0" leadInLength="0/1"  />
              <InterpolatingParam id="18237" interp="linr"  time="-9999999/1" value="0" leadInLength="0/1"  />
              <InterpolatingParam id="18238" interp="linr"  time="-9999999/1" value="0" leadInLength="0/1"  />
             </VectorParam>
             <InterpolatingParam id="18239" interp="linr"  time="-9999999/1" value="1" leadInLength="0/1"  name="opacity"/>
            </Parameters>
            <Attributes>
             <Attribute id="18240" value="" name="ident"/>
            </Attributes>
            <MetaData>
             <entry key="WinSubProjectDisplayName" val=""/>
            </MetaData>
            <ExtraData>
             <Entry key="ZoomPanBin">
              <ZoomPanBin id="18241"  >
               <ZoomPanKeyframes>
                <ZoomPanKeyframe id="18242" timeRangeEnd="-9999999/1" timeRangeDuration="0/1" interpolaterName=""  />
               </ZoomPanKeyframes>
              </ZoomPanBin>
             </Entry>
            </ExtraData>
           </IMFile>
           <VMFile id="18243" start="8093" duration="21" scalar="1/1" mediaStart="15872/1" mediaDuration="21/1" trackNumber="0" src="4" >
            <Transformer>
             <VectorParam id="18244"  name="translation">
              <InterpolatingParam id="18245" interp="linr"  time="-9999999/1" value="0" leadInLength="0/1"  />
              <InterpolatingParam id="18246" interp="linr"  time="-9999999/1" value="0" leadInLength="0/1"  />
              <InterpolatingParam id="18247" interp="linr"  time="-9999999/1" value="0" leadInLength="0/1"  />
             </VectorParam>
             <VectorParam id="18248"  name="rotation">
              <InterpolatingParam id="18249" interp="linr"  time="-9999999/1" value="0" leadInLength="0/1"  />
              <InterpolatingParam id="18250" interp="linr"  time="-9999999/1" value="0" leadInLength="0/1"  />
              <InterpolatingParam id="18251" interp="linr"  time="-9999999/1" value="0" leadInLength="0/1"  />
             </VectorParam>
             <VectorParam id="18252"  name="shear">
              <InterpolatingParam id="18253" interp="linr"  time="-9999999/1" value="0" leadInLength="0/1"  />
              <InterpolatingParam id="18254" interp="linr"  time="-9999999/1" value="0" leadInLength="0/1"  />
              <InterpolatingParam id="18255" interp="linr"  time="-9999999/1" value="0" leadInLength="0/1"  />
             </VectorParam>
             <VectorParam id="18256"  name="scale">
              <InterpolatingParam id="18257" interp="linr"  time="-9999999/1" value="1" leadInLength="0/1"  />
              <InterpolatingParam id="18258" interp="linr"  time="-9999999/1" value="1" leadInLength="0/1"  />
              <InterpolatingParam id="18259" interp="linr"  time="-9999999/1" value="1" leadInLength="0/1"  />
             </VectorParam>
             <VectorParam id="18260"  name="anchor">
              <InterpolatingParam id="18261" interp="linr"  time="0/1" value="0" leadInLength="0/1"  />
              <InterpolatingParam id="18262" interp="linr"  time="0/1" value="0" leadInLength="0/1"  />
              <InterpolatingParam id="18263" interp="linr"  time="0/1" value="0" leadInLength="0/1"  />
             </VectorParam>
            </Transformer>
            <Parameters>
             <VectorParam id="18264"  name="sourceCrop">
              <InterpolatingParam id="18265" interp="linr"  time="0/1" value="0" leadInLength="0/1"  />
              <InterpolatingParam id="18266" interp="linr"  time="0/1" value="0" leadInLength="0/1"  />
              <InterpolatingParam id="18267" interp="linr"  time="0/1" value="0" leadInLength="0/1"  />
              <InterpolatingParam id="18268" interp="linr"  time="0/1" value="0" leadInLength="0/1"  />
             </VectorParam>
             <VectorParam id="18269"  name="geometryCrop">
              <InterpolatingParam id="18270" interp="linr"  time="-9999999/1" value="0" leadInLength="0/1"  />
              <InterpolatingParam id="18271" interp="linr"  time="-9999999/1" value="0" leadInLength="0/1"  />
              <InterpolatingParam id="18272" interp="linr"  time="-9999999/1" value="0" leadInLength="0/1"  />
              <InterpolatingParam id="18273" interp="linr"  time="-9999999/1" value="0" leadInLength="0/1"  />
             </VectorParam>
             <InterpolatingParam id="18274" interp="linr"  time="-9999999/1" value="1" leadInLength="0/1"  name="opacity"/>
            </Parameters>
            <Attributes>
             <Attribute id="18275" value="" name="ident"/>
            </Attributes>
            <MetaData>
             <entry key="WinSubProjectDisplayName" val=""/>
            </MetaData>
            <ExtraData>
             <Entry key="ZoomPanBin">
              <ZoomPanBin id="18276"  >
               <ZoomPanKeyframes>
                <ZoomPanKeyframe id="18277" timeRangeEnd="-9999999/1" timeRangeDuration="0/1" interpolaterName=""  />
               </ZoomPanKeyframes>
              </ZoomPanBin>
             </Entry>
            </ExtraData>
           </VMFile>
           <VMFile id="18278" start="8114" duration="615" scalar="1/1" mediaStart="15918/1" mediaDuration="615/1" trackNumber="0" src="4" >
            <Transformer>
             <VectorParam id="18279"  name="translation">
              <InterpolatingParam id="18280" interp="linr"  time="-9999999/1" value="0" leadInLength="0/1"  />
              <InterpolatingParam id="18281" interp="linr"  time="-9999999/1" value="0" leadInLength="0/1"  />
              <InterpolatingParam id="18282" interp="linr"  time="-9999999/1" value="0" leadInLength="0/1"  />
             </VectorParam>
             <VectorParam id="18283"  name="rotation">
              <InterpolatingParam id="18284" interp="linr"  time="-9999999/1" value="0" leadInLength="0/1"  />
              <InterpolatingParam id="18285" interp="linr"  time="-9999999/1" value="0" leadInLength="0/1"  />
              <InterpolatingParam id="18286" interp="linr"  time="-9999999/1" value="0" leadInLength="0/1"  />
             </VectorParam>
             <VectorParam id="18287"  name="shear">
              <InterpolatingParam id="18288" interp="linr"  time="-9999999/1" value="0" leadInLength="0/1"  />
              <InterpolatingParam id="18289" interp="linr"  time="-9999999/1" value="0" leadInLength="0/1"  />
              <InterpolatingParam id="18290" interp="linr"  time="-9999999/1" value="0" leadInLength="0/1"  />
             </VectorParam>
             <VectorParam id="18291"  name="scale">
              <InterpolatingParam id="18292" interp="linr"  time="-9999999/1" value="1" leadInLength="0/1"  />
              <InterpolatingParam id="18293" interp="linr"  time="-9999999/1" value="1" leadInLength="0/1"  />
              <InterpolatingParam id="18294" interp="linr"  time="-9999999/1" value="1" leadInLength="0/1"  />
             </VectorParam>
             <VectorParam id="18295"  name="anchor">
              <InterpolatingParam id="18296" interp="linr"  time="0/1" value="0" leadInLength="0/1"  />
              <InterpolatingParam id="18297" interp="linr"  time="0/1" value="0" leadInLength="0/1"  />
              <InterpolatingParam id="18298" interp="linr"  time="0/1" value="0" leadInLength="0/1"  />
             </VectorParam>
            </Transformer>
            <Parameters>
             <VectorParam id="18299"  name="sourceCrop">
              <InterpolatingParam id="18300" interp="linr"  time="0/1" value="0" leadInLength="0/1"  />
              <InterpolatingParam id="18301" interp="linr"  time="0/1" value="0" leadInLength="0/1"  />
              <InterpolatingParam id="18302" interp="linr"  time="0/1" value="0" leadInLength="0/1"  />
              <InterpolatingParam id="18303" interp="linr"  time="0/1" value="0" leadInLength="0/1"  />
             </VectorParam>
             <VectorParam id="18304"  name="geometryCrop">
              <InterpolatingParam id="18305" interp="linr"  time="-9999999/1" value="0" leadInLength="0/1"  />
              <InterpolatingParam id="18306" interp="linr"  time="-9999999/1" value="0" leadInLength="0/1"  />
              <InterpolatingParam id="18307" interp="linr"  time="-9999999/1" value="0" leadInLength="0/1"  />
              <InterpolatingParam id="18308" interp="linr"  time="-9999999/1" value="0" leadInLength="0/1"  />
             </VectorParam>
             <InterpolatingParam id="18309" interp="linr"  time="-9999999/1" value="1" leadInLength="0/1"  name="opacity"/>
            </Parameters>
            <Attributes>
             <Attribute id="18310" value="" name="ident"/>
            </Attributes>
            <MetaData>
             <entry key="WinSubProjectDisplayName" val=""/>
            </MetaData>
            <ExtraData>
             <Entry key="ZoomPanBin">
              <ZoomPanBin id="18311"  >
               <ZoomPanKeyframes>
                <ZoomPanKeyframe id="18312" timeRangeEnd="-9999999/1" timeRangeDuration="0/1" interpolaterName=""  />
               </ZoomPanKeyframes>
              </ZoomPanBin>
             </Entry>
            </ExtraData>
           </VMFile>
           <VMFile id="18313" start="8729" duration="323" scalar="1/1" mediaStart="16694/1" mediaDuration="323/1" trackNumber="0" src="4" >
            <Transformer>
             <VectorParam id="18314"  name="translation">
              <InterpolatingParam id="18315" interp="linr"  time="-9999999/1" value="0" leadInLength="0/1"  />
              <InterpolatingParam id="18316" interp="linr"  time="-9999999/1" value="0" leadInLength="0/1"  />
              <InterpolatingParam id="18317" interp="linr"  time="-9999999/1" value="0" leadInLength="0/1"  />
             </VectorParam>
             <VectorParam id="18318"  name="rotation">
              <InterpolatingParam id="18319" interp="linr"  time="-9999999/1" value="0" leadInLength="0/1"  />
              <InterpolatingParam id="18320" interp="linr"  time="-9999999/1" value="0" leadInLength="0/1"  />
              <InterpolatingParam id="18321" interp="linr"  time="-9999999/1" value="0" leadInLength="0/1"  />
             </VectorParam>
             <VectorParam id="18322"  name="shear">
              <InterpolatingParam id="18323" interp="linr"  time="-9999999/1" value="0" leadInLength="0/1"  />
              <InterpolatingParam id="18324" interp="linr"  time="-9999999/1" value="0" leadInLength="0/1"  />
              <InterpolatingParam id="18325" interp="linr"  time="-9999999/1" value="0" leadInLength="0/1"  />
             </VectorParam>
             <VectorParam id="18326"  name="scale">
              <InterpolatingParam id="18327" interp="linr"  time="-9999999/1" value="1" leadInLength="0/1"  />
              <InterpolatingParam id="18328" interp="linr"  time="-9999999/1" value="1" leadInLength="0/1"  />
              <InterpolatingParam id="18329" interp="linr"  time="-9999999/1" value="1" leadInLength="0/1"  />
             </VectorParam>
             <VectorParam id="18330"  name="anchor">
              <InterpolatingParam id="18331" interp="linr"  time="0/1" value="0" leadInLength="0/1"  />
              <InterpolatingParam id="18332" interp="linr"  time="0/1" value="0" leadInLength="0/1"  />
              <InterpolatingParam id="18333" interp="linr"  time="0/1" value="0" leadInLength="0/1"  />
             </VectorParam>
            </Transformer>
            <Parameters>
             <VectorParam id="18334"  name="sourceCrop">
              <InterpolatingParam id="18335" interp="linr"  time="0/1" value="0" leadInLength="0/1"  />
              <InterpolatingParam id="18336" interp="linr"  time="0/1" value="0" leadInLength="0/1"  />
              <InterpolatingParam id="18337" interp="linr"  time="0/1" value="0" leadInLength="0/1"  />
              <InterpolatingParam id="18338" interp="linr"  time="0/1" value="0" leadInLength="0/1"  />
             </VectorParam>
             <VectorParam id="18339"  name="geometryCrop">
              <InterpolatingParam id="18340" interp="linr"  time="-9999999/1" value="0" leadInLength="0/1"  />
              <InterpolatingParam id="18341" interp="linr"  time="-9999999/1" value="0" leadInLength="0/1"  />
              <InterpolatingParam id="18342" interp="linr"  time="-9999999/1" value="0" leadInLength="0/1"  />
              <InterpolatingParam id="18343" interp="linr"  time="-9999999/1" value="0" leadInLength="0/1"  />
             </VectorParam>
             <InterpolatingParam id="18344" interp="linr"  time="-9999999/1" value="1" leadInLength="0/1"  name="opacity"/>
            </Parameters>
            <Attributes>
             <Attribute id="18345" value="" name="ident"/>
            </Attributes>
            <MetaData>
             <entry key="WinSubProjectDisplayName" val=""/>
            </MetaData>
            <ExtraData>
             <Entry key="ZoomPanBin">
              <ZoomPanBin id="18346"  >
               <ZoomPanKeyframes>
                <ZoomPanKeyframe id="18347" timeRangeEnd="-9999999/1" timeRangeDuration="0/1" interpolaterName=""  />
               </ZoomPanKeyframes>
              </ZoomPanBin>
             </Entry>
            </ExtraData>
           </VMFile>
           <VMFile id="18348" start="9052" duration="223" scalar="1/1" mediaStart="17164/1" mediaDuration="223/1" trackNumber="0" src="4" >
            <Transformer>
             <VectorParam id="18349"  name="translation">
              <InterpolatingParam id="18350" interp="linr"  time="-9999999/1" value="0" leadInLength="0/1"  />
              <InterpolatingParam id="18351" interp="linr"  time="-9999999/1" value="0" leadInLength="0/1"  />
              <InterpolatingParam id="18352" interp="linr"  time="-9999999/1" value="0" leadInLength="0/1"  />
             </VectorParam>
             <VectorParam id="18353"  name="rotation">
              <InterpolatingParam id="18354" interp="linr"  time="-9999999/1" value="0" leadInLength="0/1"  />
              <InterpolatingParam id="18355" interp="linr"  time="-9999999/1" value="0" leadInLength="0/1"  />
              <InterpolatingParam id="18356" interp="linr"  time="-9999999/1" value="0" leadInLength="0/1"  />
             </VectorParam>
             <VectorParam id="18357"  name="shear">
              <InterpolatingParam id="18358" interp="linr"  time="-9999999/1" value="0" leadInLength="0/1"  />
              <InterpolatingParam id="18359" interp="linr"  time="-9999999/1" value="0" leadInLength="0/1"  />
              <InterpolatingParam id="18360" interp="linr"  time="-9999999/1" value="0" leadInLength="0/1"  />
             </VectorParam>
             <VectorParam id="18361"  name="scale">
              <InterpolatingParam id="18362" interp="linr"  time="-9999999/1" value="1" leadInLength="0/1"  />
              <InterpolatingParam id="18363" interp="linr"  time="-9999999/1" value="1" leadInLength="0/1"  />
              <InterpolatingParam id="18364" interp="linr"  time="-9999999/1" value="1" leadInLength="0/1"  />
             </VectorParam>
             <VectorParam id="18365"  name="anchor">
              <InterpolatingParam id="18366" interp="linr"  time="0/1" value="0" leadInLength="0/1"  />
              <InterpolatingParam id="18367" interp="linr"  time="0/1" value="0" leadInLength="0/1"  />
              <InterpolatingParam id="18368" interp="linr"  time="0/1" value="0" leadInLength="0/1"  />
             </VectorParam>
            </Transformer>
            <Parameters>
             <VectorParam id="18369"  name="sourceCrop">
              <InterpolatingParam id="18370" interp="linr"  time="0/1" value="0" leadInLength="0/1"  />
              <InterpolatingParam id="18371" interp="linr"  time="0/1" value="0" leadInLength="0/1"  />
              <InterpolatingParam id="18372" interp="linr"  time="0/1" value="0" leadInLength="0/1"  />
              <InterpolatingParam id="18373" interp="linr"  time="0/1" value="0" leadInLength="0/1"  />
             </VectorParam>
             <VectorParam id="18374"  name="geometryCrop">
              <InterpolatingParam id="18375" interp="linr"  time="-9999999/1" value="0" leadInLength="0/1"  />
              <InterpolatingParam id="18376" interp="linr"  time="-9999999/1" value="0" leadInLength="0/1"  />
              <InterpolatingParam id="18377" interp="linr"  time="-9999999/1" value="0" leadInLength="0/1"  />
              <InterpolatingParam id="18378" interp="linr"  time="-9999999/1" value="0" leadInLength="0/1"  />
             </VectorParam>
             <InterpolatingParam id="18379" interp="linr"  time="-9999999/1" value="1" leadInLength="0/1"  name="opacity"/>
            </Parameters>
            <Attributes>
             <Attribute id="18380" value="" name="ident"/>
            </Attributes>
            <MetaData>
             <entry key="WinSubProjectDisplayName" val=""/>
            </MetaData>
            <ExtraData>
             <Entry key="ZoomPanBin">
              <ZoomPanBin id="18381"  >
               <ZoomPanKeyframes>
                <ZoomPanKeyframe id="18382" timeRangeEnd="-9999999/1" timeRangeDuration="0/1" interpolaterName=""  />
               </ZoomPanKeyframes>
              </ZoomPanBin>
             </Entry>
            </ExtraData>
           </VMFile>
           <VMFile id="18383" start="9275" duration="323" scalar="1/1" mediaStart="26742/1" mediaDuration="323/1" trackNumber="0" src="4" >
            <Transformer>
             <VectorParam id="18384"  name="translation">
              <InterpolatingParam id="18385" interp="linr"  time="-9999999/1" value="0" leadInLength="0/1"  />
              <InterpolatingParam id="18386" interp="linr"  time="-9999999/1" value="0" leadInLength="0/1"  />
              <InterpolatingParam id="18387" interp="linr"  time="-9999999/1" value="0" leadInLength="0/1"  />
             </VectorParam>
             <VectorParam id="18388"  name="rotation">
              <InterpolatingParam id="18389" interp="linr"  time="-9999999/1" value="0" leadInLength="0/1"  />
              <InterpolatingParam id="18390" interp="linr"  time="-9999999/1" value="0" leadInLength="0/1"  />
              <InterpolatingParam id="18391" interp="linr"  time="-9999999/1" value="0" leadInLength="0/1"  />
             </VectorParam>
             <VectorParam id="18392"  name="shear">
              <InterpolatingParam id="18393" interp="linr"  time="-9999999/1" value="0" leadInLength="0/1"  />
              <InterpolatingParam id="18394" interp="linr"  time="-9999999/1" value="0" leadInLength="0/1"  />
              <InterpolatingParam id="18395" interp="linr"  time="-9999999/1" value="0" leadInLength="0/1"  />
             </VectorParam>
             <VectorParam id="18396"  name="scale">
              <InterpolatingParam id="18397" interp="linr"  time="-9999999/1" value="1" leadInLength="0/1"  />
              <InterpolatingParam id="18398" interp="linr"  time="-9999999/1" value="1" leadInLength="0/1"  />
              <InterpolatingParam id="18399" interp="linr"  time="-9999999/1" value="1" leadInLength="0/1"  />
             </VectorParam>
             <VectorParam id="18400"  name="anchor">
              <InterpolatingParam id="18401" interp="linr"  time="0/1" value="0" leadInLength="0/1"  />
              <InterpolatingParam id="18402" interp="linr"  time="0/1" value="0" leadInLength="0/1"  />
              <InterpolatingParam id="18403" interp="linr"  time="0/1" value="0" leadInLength="0/1"  />
             </VectorParam>
            </Transformer>
            <Parameters>
             <VectorParam id="18404"  name="sourceCrop">
              <InterpolatingParam id="18405" interp="linr"  time="0/1" value="0" leadInLength="0/1"  />
              <InterpolatingParam id="18406" interp="linr"  time="0/1" value="0" leadInLength="0/1"  />
              <InterpolatingParam id="18407" interp="linr"  time="0/1" value="0" leadInLength="0/1"  />
              <InterpolatingParam id="18408" interp="linr"  time="0/1" value="0" leadInLength="0/1"  />
             </VectorParam>
             <VectorParam id="18409"  name="geometryCrop">
              <InterpolatingParam id="18410" interp="linr"  time="-9999999/1" value="0" leadInLength="0/1"  />
              <InterpolatingParam id="18411" interp="linr"  time="-9999999/1" value="0" leadInLength="0/1"  />
              <InterpolatingParam id="18412" interp="linr"  time="-9999999/1" value="0" leadInLength="0/1"  />
              <InterpolatingParam id="18413" interp="linr"  time="-9999999/1" value="0" leadInLength="0/1"  />
             </VectorParam>
             <InterpolatingParam id="18414" interp="linr"  time="-9999999/1" value="1" leadInLength="0/1"  name="opacity"/>
            </Parameters>
            <Attributes>
             <Attribute id="18415" value="" name="ident"/>
            </Attributes>
            <MetaData>
             <entry key="WinSubProjectDisplayName" val=""/>
            </MetaData>
            <ExtraData>
             <Entry key="ZoomPanBin">
              <ZoomPanBin id="18416"  >
               <ZoomPanKeyframes>
                <ZoomPanKeyframe id="18417" timeRangeEnd="-9999999/1" timeRangeDuration="0/1" interpolaterName=""  />
               </ZoomPanKeyframes>
              </ZoomPanBin>
             </Entry>
            </ExtraData>
           </VMFile>
           <VMFile id="18418" start="9598" duration="259" scalar="1/1" mediaStart="27825/1" mediaDuration="259/1" trackNumber="0" src="4" >
            <Transformer>
             <VectorParam id="18419"  name="translation">
              <InterpolatingParam id="18420" interp="linr"  time="-9999999/1" value="0" leadInLength="0/1"  />
              <InterpolatingParam id="18421" interp="linr"  time="-9999999/1" value="0" leadInLength="0/1"  />
              <InterpolatingParam id="18422" interp="linr"  time="-9999999/1" value="0" leadInLength="0/1"  />
             </VectorParam>
             <VectorParam id="18423"  name="rotation">
              <InterpolatingParam id="18424" interp="linr"  time="-9999999/1" value="0" leadInLength="0/1"  />
              <InterpolatingParam id="18425" interp="linr"  time="-9999999/1" value="0" leadInLength="0/1"  />
              <InterpolatingParam id="18426" interp="linr"  time="-9999999/1" value="0" leadInLength="0/1"  />
             </VectorParam>
             <VectorParam id="18427"  name="shear">
              <InterpolatingParam id="18428" interp="linr"  time="-9999999/1" value="0" leadInLength="0/1"  />
              <InterpolatingParam id="18429" interp="linr"  time="-9999999/1" value="0" leadInLength="0/1"  />
              <InterpolatingParam id="18430" interp="linr"  time="-9999999/1" value="0" leadInLength="0/1"  />
             </VectorParam>
             <VectorParam id="18431"  name="scale">
              <InterpolatingParam id="18432" interp="linr"  time="-9999999/1" value="1" leadInLength="0/1"  />
              <InterpolatingParam id="18433" interp="linr"  time="-9999999/1" value="1" leadInLength="0/1"  />
              <InterpolatingParam id="18434" interp="linr"  time="-9999999/1" value="1" leadInLength="0/1"  />
             </VectorParam>
             <VectorParam id="18435"  name="anchor">
              <InterpolatingParam id="18436" interp="linr"  time="0/1" value="0" leadInLength="0/1"  />
              <InterpolatingParam id="18437" interp="linr"  time="0/1" value="0" leadInLength="0/1"  />
              <InterpolatingParam id="18438" interp="linr"  time="0/1" value="0" leadInLength="0/1"  />
             </VectorParam>
            </Transformer>
            <Parameters>
             <VectorParam id="18439"  name="sourceCrop">
              <InterpolatingParam id="18440" interp="linr"  time="0/1" value="0" leadInLength="0/1"  />
              <InterpolatingParam id="18441" interp="linr"  time="0/1" value="0" leadInLength="0/1"  />
              <InterpolatingParam id="18442" interp="linr"  time="0/1" value="0" leadInLength="0/1"  />
              <InterpolatingParam id="18443" interp="linr"  time="0/1" value="0" leadInLength="0/1"  />
             </VectorParam>
             <VectorParam id="18444"  name="geometryCrop">
              <InterpolatingParam id="18445" interp="linr"  time="-9999999/1" value="0" leadInLength="0/1"  />
              <InterpolatingParam id="18446" interp="linr"  time="-9999999/1" value="0" leadInLength="0/1"  />
              <InterpolatingParam id="18447" interp="linr"  time="-9999999/1" value="0" leadInLength="0/1"  />
              <InterpolatingParam id="18448" interp="linr"  time="-9999999/1" value="0" leadInLength="0/1"  />
             </VectorParam>
             <InterpolatingParam id="18449" interp="linr"  time="-9999999/1" value="1" leadInLength="0/1"  name="opacity"/>
            </Parameters>
            <Attributes>
             <Attribute id="18450" value="" name="ident"/>
            </Attributes>
            <MetaData>
             <entry key="WinSubProjectDisplayName" val=""/>
            </MetaData>
            <ExtraData>
             <Entry key="ZoomPanBin">
              <ZoomPanBin id="18451"  >
               <ZoomPanKeyframes>
                <ZoomPanKeyframe id="18452" timeRangeEnd="-9999999/1" timeRangeDuration="0/1" interpolaterName=""  />
               </ZoomPanKeyframes>
              </ZoomPanBin>
             </Entry>
            </ExtraData>
           </VMFile>
           <VMFile id="18453" start="9857" duration="157" scalar="1/1" mediaStart="28287/1" mediaDuration="157/1" trackNumber="0" src="4" >
            <Transformer>
             <VectorParam id="18454"  name="translation">
              <InterpolatingParam id="18455" interp="linr"  time="-9999999/1" value="0" leadInLength="0/1"  />
              <InterpolatingParam id="18456" interp="linr"  time="-9999999/1" value="0" leadInLength="0/1"  />
              <InterpolatingParam id="18457" interp="linr"  time="-9999999/1" value="0" leadInLength="0/1"  />
             </VectorParam>
             <VectorParam id="18458"  name="rotation">
              <InterpolatingParam id="18459" interp="linr"  time="-9999999/1" value="0" leadInLength="0/1"  />
              <InterpolatingParam id="18460" interp="linr"  time="-9999999/1" value="0" leadInLength="0/1"  />
              <InterpolatingParam id="18461" interp="linr"  time="-9999999/1" value="0" leadInLength="0/1"  />
             </VectorParam>
             <VectorParam id="18462"  name="shear">
              <InterpolatingParam id="18463" interp="linr"  time="-9999999/1" value="0" leadInLength="0/1"  />
              <InterpolatingParam id="18464" interp="linr"  time="-9999999/1" value="0" leadInLength="0/1"  />
              <InterpolatingParam id="18465" interp="linr"  time="-9999999/1" value="0" leadInLength="0/1"  />
             </VectorParam>
             <VectorParam id="18466"  name="scale">
              <InterpolatingParam id="18467" interp="linr"  time="-9999999/1" value="1" leadInLength="0/1"  />
              <InterpolatingParam id="18468" interp="linr"  time="-9999999/1" value="1" leadInLength="0/1"  />
              <InterpolatingParam id="18469" interp="linr"  time="-9999999/1" value="1" leadInLength="0/1"  />
             </VectorParam>
             <VectorParam id="18470"  name="anchor">
              <InterpolatingParam id="18471" interp="linr"  time="0/1" value="0" leadInLength="0/1"  />
              <InterpolatingParam id="18472" interp="linr"  time="0/1" value="0" leadInLength="0/1"  />
              <InterpolatingParam id="18473" interp="linr"  time="0/1" value="0" leadInLength="0/1"  />
             </VectorParam>
            </Transformer>
            <Parameters>
             <VectorParam id="18474"  name="sourceCrop">
              <InterpolatingParam id="18475" interp="linr"  time="0/1" value="0" leadInLength="0/1"  />
              <InterpolatingParam id="18476" interp="linr"  time="0/1" value="0" leadInLength="0/1"  />
              <InterpolatingParam id="18477" interp="linr"  time="0/1" value="0" leadInLength="0/1"  />
              <InterpolatingParam id="18478" interp="linr"  time="0/1" value="0" leadInLength="0/1"  />
             </VectorParam>
             <VectorParam id="18479"  name="geometryCrop">
              <InterpolatingParam id="18480" interp="linr"  time="-9999999/1" value="0" leadInLength="0/1"  />
              <InterpolatingParam id="18481" interp="linr"  time="-9999999/1" value="0" leadInLength="0/1"  />
              <InterpolatingParam id="18482" interp="linr"  time="-9999999/1" value="0" leadInLength="0/1"  />
              <InterpolatingParam id="18483" interp="linr"  time="-9999999/1" value="0" leadInLength="0/1"  />
             </VectorParam>
             <InterpolatingParam id="18484" interp="linr"  time="-9999999/1" value="1" leadInLength="0/1"  name="opacity"/>
            </Parameters>
            <Attributes>
             <Attribute id="18485" value="" name="ident"/>
            </Attributes>
            <MetaData>
             <entry key="WinSubProjectDisplayName" val=""/>
            </MetaData>
            <ExtraData>
             <Entry key="ZoomPanBin">
              <ZoomPanBin id="18486"  >
               <ZoomPanKeyframes>
                <ZoomPanKeyframe id="18487" timeRangeEnd="-9999999/1" timeRangeDuration="0/1" interpolaterName=""  />
               </ZoomPanKeyframes>
              </ZoomPanBin>
             </Entry>
            </ExtraData>
           </VMFile>
           <VMFile id="18488" start="10014" duration="290" scalar="1/1" mediaStart="28689/1" mediaDuration="290/1" trackNumber="0" src="4" >
            <Transformer>
             <VectorParam id="18489"  name="translation">
              <InterpolatingParam id="18490" interp="linr"  time="-9999999/1" value="0" leadInLength="0/1"  />
              <InterpolatingParam id="18491" interp="linr"  time="-9999999/1" value="0" leadInLength="0/1"  />
              <InterpolatingParam id="18492" interp="linr"  time="-9999999/1" value="0" leadInLength="0/1"  />
             </VectorParam>
             <VectorParam id="18493"  name="rotation">
              <InterpolatingParam id="18494" interp="linr"  time="-9999999/1" value="0" leadInLength="0/1"  />
              <InterpolatingParam id="18495" interp="linr"  time="-9999999/1" value="0" leadInLength="0/1"  />
              <InterpolatingParam id="18496" interp="linr"  time="-9999999/1" value="0" leadInLength="0/1"  />
             </VectorParam>
             <VectorParam id="18497"  name="shear">
              <InterpolatingParam id="18498" interp="linr"  time="-9999999/1" value="0" leadInLength="0/1"  />
              <InterpolatingParam id="18499" interp="linr"  time="-9999999/1" value="0" leadInLength="0/1"  />
              <InterpolatingParam id="18500" interp="linr"  time="-9999999/1" value="0" leadInLength="0/1"  />
             </VectorParam>
             <VectorParam id="18501"  name="scale">
              <InterpolatingParam id="18502" interp="linr"  time="-9999999/1" value="1" leadInLength="0/1"  />
              <InterpolatingParam id="18503" interp="linr"  time="-9999999/1" value="1" leadInLength="0/1"  />
              <InterpolatingParam id="18504" interp="linr"  time="-9999999/1" value="1" leadInLength="0/1"  />
             </VectorParam>
             <VectorParam id="18505"  name="anchor">
              <InterpolatingParam id="18506" interp="linr"  time="0/1" value="0" leadInLength="0/1"  />
              <InterpolatingParam id="18507" interp="linr"  time="0/1" value="0" leadInLength="0/1"  />
              <InterpolatingParam id="18508" interp="linr"  time="0/1" value="0" leadInLength="0/1"  />
             </VectorParam>
            </Transformer>
            <Parameters>
             <VectorParam id="18509"  name="sourceCrop">
              <InterpolatingParam id="18510" interp="linr"  time="0/1" value="0" leadInLength="0/1"  />
              <InterpolatingParam id="18511" interp="linr"  time="0/1" value="0" leadInLength="0/1"  />
              <InterpolatingParam id="18512" interp="linr"  time="0/1" value="0" leadInLength="0/1"  />
              <InterpolatingParam id="18513" interp="linr"  time="0/1" value="0" leadInLength="0/1"  />
             </VectorParam>
             <VectorParam id="18514"  name="geometryCrop">
              <InterpolatingParam id="18515" interp="linr"  time="-9999999/1" value="0" leadInLength="0/1"  />
              <InterpolatingParam id="18516" interp="linr"  time="-9999999/1" value="0" leadInLength="0/1"  />
              <InterpolatingParam id="18517" interp="linr"  time="-9999999/1" value="0" leadInLength="0/1"  />
              <InterpolatingParam id="18518" interp="linr"  time="-9999999/1" value="0" leadInLength="0/1"  />
             </VectorParam>
             <InterpolatingParam id="18519" interp="linr"  time="-9999999/1" value="1" leadInLength="0/1"  name="opacity"/>
            </Parameters>
            <Attributes>
             <Attribute id="18520" value="" name="ident"/>
            </Attributes>
            <MetaData>
             <entry key="WinSubProjectDisplayName" val=""/>
            </MetaData>
            <ExtraData>
             <Entry key="ZoomPanBin">
              <ZoomPanBin id="18521"  >
               <ZoomPanKeyframes>
                <ZoomPanKeyframe id="18522" timeRangeEnd="-9999999/1" timeRangeDuration="0/1" interpolaterName=""  />
               </ZoomPanKeyframes>
              </ZoomPanBin>
             </Entry>
            </ExtraData>
           </VMFile>
           <IMFile id="18523" start="10304" duration="60" scalar="1/1" mediaStart="29056/1" mediaDuration="1/1" trackNumber="0" src="4" trimStartSum="0/1" >
            <Transformer>
             <VectorParam id="18524"  name="translation">
              <InterpolatingParam id="18525" interp="linr"  time="-9999999/1" value="0" leadInLength="0/1"  />
              <InterpolatingParam id="18526" interp="linr"  time="-9999999/1" value="0" leadInLength="0/1"  />
              <InterpolatingParam id="18527" interp="linr"  time="-9999999/1" value="0" leadInLength="0/1"  />
             </VectorParam>
             <VectorParam id="18528"  name="rotation">
              <InterpolatingParam id="18529" interp="linr"  time="-9999999/1" value="0" leadInLength="0/1"  />
              <InterpolatingParam id="18530" interp="linr"  time="-9999999/1" value="0" leadInLength="0/1"  />
              <InterpolatingParam id="18531" interp="linr"  time="-9999999/1" value="0" leadInLength="0/1"  />
             </VectorParam>
             <VectorParam id="18532"  name="shear">
              <InterpolatingParam id="18533" interp="linr"  time="-9999999/1" value="0" leadInLength="0/1"  />
              <InterpolatingParam id="18534" interp="linr"  time="-9999999/1" value="0" leadInLength="0/1"  />
              <InterpolatingParam id="18535" interp="linr"  time="-9999999/1" value="0" leadInLength="0/1"  />
             </VectorParam>
             <VectorParam id="18536"  name="scale">
              <InterpolatingParam id="18537" interp="linr"  time="-9999999/1" value="1" leadInLength="0/1"  />
              <InterpolatingParam id="18538" interp="linr"  time="-9999999/1" value="1" leadInLength="0/1"  />
              <InterpolatingParam id="18539" interp="linr"  time="-9999999/1" value="1" leadInLength="0/1"  />
             </VectorParam>
             <VectorParam id="18540"  name="anchor">
              <InterpolatingParam id="18541" interp="linr"  time="0/1" value="0" leadInLength="0/1"  />
              <InterpolatingParam id="18542" interp="linr"  time="0/1" value="0" leadInLength="0/1"  />
              <InterpolatingParam id="18543" interp="linr"  time="0/1" value="0" leadInLength="0/1"  />
             </VectorParam>
            </Transformer>
            <Parameters>
             <VectorParam id="18544"  name="sourceCrop">
              <InterpolatingParam id="18545" interp="linr"  time="0/1" value="0" leadInLength="0/1"  />
              <InterpolatingParam id="18546" interp="linr"  time="0/1" value="0" leadInLength="0/1"  />
              <InterpolatingParam id="18547" interp="linr"  time="0/1" value="0" leadInLength="0/1"  />
              <InterpolatingParam id="18548" interp="linr"  time="0/1" value="0" leadInLength="0/1"  />
             </VectorParam>
             <VectorParam id="18549"  name="geometryCrop">
              <InterpolatingParam id="18550" interp="linr"  time="-9999999/1" value="0" leadInLength="0/1"  />
              <InterpolatingParam id="18551" interp="linr"  time="-9999999/1" value="0" leadInLength="0/1"  />
              <InterpolatingParam id="18552" interp="linr"  time="-9999999/1" value="0" leadInLength="0/1"  />
              <InterpolatingParam id="18553" interp="linr"  time="-9999999/1" value="0" leadInLength="0/1"  />
             </VectorParam>
             <InterpolatingParam id="18554" interp="linr"  time="-9999999/1" value="1" leadInLength="0/1"  name="opacity"/>
            </Parameters>
            <Attributes>
             <Attribute id="18555" value="" name="ident"/>
            </Attributes>
            <MetaData>
             <entry key="WinSubProjectDisplayName" val=""/>
            </MetaData>
            <ExtraData>
             <Entry key="ZoomPanBin">
              <ZoomPanBin id="18556"  >
               <ZoomPanKeyframes>
                <ZoomPanKeyframe id="18557" timeRangeEnd="-9999999/1" timeRangeDuration="0/1" interpolaterName=""  />
               </ZoomPanKeyframes>
              </ZoomPanBin>
             </Entry>
            </ExtraData>
           </IMFile>
           <VMFile id="18558" start="10364" duration="18" scalar="1/1" mediaStart="29056/1" mediaDuration="18/1" trackNumber="0" src="4" >
            <Transformer>
             <VectorParam id="18559"  name="translation">
              <InterpolatingParam id="18560" interp="linr"  time="-9999999/1" value="0" leadInLength="0/1"  />
              <InterpolatingParam id="18561" interp="linr"  time="-9999999/1" value="0" leadInLength="0/1"  />
              <InterpolatingParam id="18562" interp="linr"  time="-9999999/1" value="0" leadInLength="0/1"  />
             </VectorParam>
             <VectorParam id="18563"  name="rotation">
              <InterpolatingParam id="18564" interp="linr"  time="-9999999/1" value="0" leadInLength="0/1"  />
              <InterpolatingParam id="18565" interp="linr"  time="-9999999/1" value="0" leadInLength="0/1"  />
              <InterpolatingParam id="18566" interp="linr"  time="-9999999/1" value="0" leadInLength="0/1"  />
             </VectorParam>
             <VectorParam id="18567"  name="shear">
              <InterpolatingParam id="18568" interp="linr"  time="-9999999/1" value="0" leadInLength="0/1"  />
              <InterpolatingParam id="18569" interp="linr"  time="-9999999/1" value="0" leadInLength="0/1"  />
              <InterpolatingParam id="18570" interp="linr"  time="-9999999/1" value="0" leadInLength="0/1"  />
             </VectorParam>
             <VectorParam id="18571"  name="scale">
              <InterpolatingParam id="18572" interp="linr"  time="-9999999/1" value="1" leadInLength="0/1"  />
              <InterpolatingParam id="18573" interp="linr"  time="-9999999/1" value="1" leadInLength="0/1"  />
              <InterpolatingParam id="18574" interp="linr"  time="-9999999/1" value="1" leadInLength="0/1"  />
             </VectorParam>
             <VectorParam id="18575"  name="anchor">
              <InterpolatingParam id="18576" interp="linr"  time="0/1" value="0" leadInLength="0/1"  />
              <InterpolatingParam id="18577" interp="linr"  time="0/1" value="0" leadInLength="0/1"  />
              <InterpolatingParam id="18578" interp="linr"  time="0/1" value="0" leadInLength="0/1"  />
             </VectorParam>
            </Transformer>
            <Parameters>
             <VectorParam id="18579"  name="sourceCrop">
              <InterpolatingParam id="18580" interp="linr"  time="0/1" value="0" leadInLength="0/1"  />
              <InterpolatingParam id="18581" interp="linr"  time="0/1" value="0" leadInLength="0/1"  />
              <InterpolatingParam id="18582" interp="linr"  time="0/1" value="0" leadInLength="0/1"  />
              <InterpolatingParam id="18583" interp="linr"  time="0/1" value="0" leadInLength="0/1"  />
             </VectorParam>
             <VectorParam id="18584"  name="geometryCrop">
              <InterpolatingParam id="18585" interp="linr"  time="-9999999/1" value="0" leadInLength="0/1"  />
              <InterpolatingParam id="18586" interp="linr"  time="-9999999/1" value="0" leadInLength="0/1"  />
              <InterpolatingParam id="18587" interp="linr"  time="-9999999/1" value="0" leadInLength="0/1"  />
              <InterpolatingParam id="18588" interp="linr"  time="-9999999/1" value="0" leadInLength="0/1"  />
             </VectorParam>
             <InterpolatingParam id="18589" interp="linr"  time="-9999999/1" value="1" leadInLength="0/1"  name="opacity"/>
            </Parameters>
            <Attributes>
             <Attribute id="18590" value="" name="ident"/>
            </Attributes>
            <MetaData>
             <entry key="WinSubProjectDisplayName" val=""/>
            </MetaData>
            <ExtraData>
             <Entry key="ZoomPanBin">
              <ZoomPanBin id="18591"  >
               <ZoomPanKeyframes>
                <ZoomPanKeyframe id="18592" timeRangeEnd="-9999999/1" timeRangeDuration="0/1" interpolaterName=""  />
               </ZoomPanKeyframes>
              </ZoomPanBin>
             </Entry>
            </ExtraData>
           </VMFile>
           <IMFile id="18593" start="10382" duration="30" scalar="1/1" mediaStart="29074/1" mediaDuration="1/1" trackNumber="0" src="4" trimStartSum="0/1" >
            <Transformer>
             <VectorParam id="18594"  name="translation">
              <InterpolatingParam id="18595" interp="linr"  time="-9999999/1" value="0" leadInLength="0/1"  />
              <InterpolatingParam id="18596" interp="linr"  time="-9999999/1" value="0" leadInLength="0/1"  />
              <InterpolatingParam id="18597" interp="linr"  time="-9999999/1" value="0" leadInLength="0/1"  />
             </VectorParam>
             <VectorParam id="18598"  name="rotation">
              <InterpolatingParam id="18599" interp="linr"  time="-9999999/1" value="0" leadInLength="0/1"  />
              <InterpolatingParam id="18600" interp="linr"  time="-9999999/1" value="0" leadInLength="0/1"  />
              <InterpolatingParam id="18601" interp="linr"  time="-9999999/1" value="0" leadInLength="0/1"  />
             </VectorParam>
             <VectorParam id="18602"  name="shear">
              <InterpolatingParam id="18603" interp="linr"  time="-9999999/1" value="0" leadInLength="0/1"  />
              <InterpolatingParam id="18604" interp="linr"  time="-9999999/1" value="0" leadInLength="0/1"  />
              <InterpolatingParam id="18605" interp="linr"  time="-9999999/1" value="0" leadInLength="0/1"  />
             </VectorParam>
             <VectorParam id="18606"  name="scale">
              <InterpolatingParam id="18607" interp="linr"  time="-9999999/1" value="1" leadInLength="0/1"  />
              <InterpolatingParam id="18608" interp="linr"  time="-9999999/1" value="1" leadInLength="0/1"  />
              <InterpolatingParam id="18609" interp="linr"  time="-9999999/1" value="1" leadInLength="0/1"  />
             </VectorParam>
             <VectorParam id="18610"  name="anchor">
              <InterpolatingParam id="18611" interp="linr"  time="0/1" value="0" leadInLength="0/1"  />
              <InterpolatingParam id="18612" interp="linr"  time="0/1" value="0" leadInLength="0/1"  />
              <InterpolatingParam id="18613" interp="linr"  time="0/1" value="0" leadInLength="0/1"  />
             </VectorParam>
            </Transformer>
            <Parameters>
             <VectorParam id="18614"  name="sourceCrop">
              <InterpolatingParam id="18615" interp="linr"  time="0/1" value="0" leadInLength="0/1"  />
              <InterpolatingParam id="18616" interp="linr"  time="0/1" value="0" leadInLength="0/1"  />
              <InterpolatingParam id="18617" interp="linr"  time="0/1" value="0" leadInLength="0/1"  />
              <InterpolatingParam id="18618" interp="linr"  time="0/1" value="0" leadInLength="0/1"  />
             </VectorParam>
             <VectorParam id="18619"  name="geometryCrop">
              <InterpolatingParam id="18620" interp="linr"  time="-9999999/1" value="0" leadInLength="0/1"  />
              <InterpolatingParam id="18621" interp="linr"  time="-9999999/1" value="0" leadInLength="0/1"  />
              <InterpolatingParam id="18622" interp="linr"  time="-9999999/1" value="0" leadInLength="0/1"  />
              <InterpolatingParam id="18623" interp="linr"  time="-9999999/1" value="0" leadInLength="0/1"  />
             </VectorParam>
             <InterpolatingParam id="18624" interp="linr"  time="-9999999/1" value="1" leadInLength="0/1"  name="opacity"/>
            </Parameters>
            <Attributes>
             <Attribute id="18625" value="" name="ident"/>
            </Attributes>
            <MetaData>
             <entry key="WinSubProjectDisplayName" val=""/>
            </MetaData>
            <ExtraData>
             <Entry key="ZoomPanBin">
              <ZoomPanBin id="18626"  >
               <ZoomPanKeyframes>
                <ZoomPanKeyframe id="18627" timeRangeEnd="-9999999/1" timeRangeDuration="0/1" interpolaterName=""  />
               </ZoomPanKeyframes>
              </ZoomPanBin>
             </Entry>
            </ExtraData>
           </IMFile>
           <VMFile id="18628" start="10412" duration="1" scalar="1/1" mediaStart="29074/1" mediaDuration="1/1" trackNumber="0" src="4" >
            <Transformer>
             <VectorParam id="18629"  name="translation">
              <InterpolatingParam id="18630" interp="linr"  time="-9999999/1" value="0" leadInLength="0/1"  />
              <InterpolatingParam id="18631" interp="linr"  time="-9999999/1" value="0" leadInLength="0/1"  />
              <InterpolatingParam id="18632" interp="linr"  time="-9999999/1" value="0" leadInLength="0/1"  />
             </VectorParam>
             <VectorParam id="18633"  name="rotation">
              <InterpolatingParam id="18634" interp="linr"  time="-9999999/1" value="0" leadInLength="0/1"  />
              <InterpolatingParam id="18635" interp="linr"  time="-9999999/1" value="0" leadInLength="0/1"  />
              <InterpolatingParam id="18636" interp="linr"  time="-9999999/1" value="0" leadInLength="0/1"  />
             </VectorParam>
             <VectorParam id="18637"  name="shear">
              <InterpolatingParam id="18638" interp="linr"  time="-9999999/1" value="0" leadInLength="0/1"  />
              <InterpolatingParam id="18639" interp="linr"  time="-9999999/1" value="0" leadInLength="0/1"  />
              <InterpolatingParam id="18640" interp="linr"  time="-9999999/1" value="0" leadInLength="0/1"  />
             </VectorParam>
             <VectorParam id="18641"  name="scale">
              <InterpolatingParam id="18642" interp="linr"  time="-9999999/1" value="1" leadInLength="0/1"  />
              <InterpolatingParam id="18643" interp="linr"  time="-9999999/1" value="1" leadInLength="0/1"  />
              <InterpolatingParam id="18644" interp="linr"  time="-9999999/1" value="1" leadInLength="0/1"  />
             </VectorParam>
             <VectorParam id="18645"  name="anchor">
              <InterpolatingParam id="18646" interp="linr"  time="0/1" value="0" leadInLength="0/1"  />
              <InterpolatingParam id="18647" interp="linr"  time="0/1" value="0" leadInLength="0/1"  />
              <InterpolatingParam id="18648" interp="linr"  time="0/1" value="0" leadInLength="0/1"  />
             </VectorParam>
            </Transformer>
            <Parameters>
             <VectorParam id="18649"  name="sourceCrop">
              <InterpolatingParam id="18650" interp="linr"  time="0/1" value="0" leadInLength="0/1"  />
              <InterpolatingParam id="18651" interp="linr"  time="0/1" value="0" leadInLength="0/1"  />
              <InterpolatingParam id="18652" interp="linr"  time="0/1" value="0" leadInLength="0/1"  />
              <InterpolatingParam id="18653" interp="linr"  time="0/1" value="0" leadInLength="0/1"  />
             </VectorParam>
             <VectorParam id="18654"  name="geometryCrop">
              <InterpolatingParam id="18655" interp="linr"  time="-9999999/1" value="0" leadInLength="0/1"  />
              <InterpolatingParam id="18656" interp="linr"  time="-9999999/1" value="0" leadInLength="0/1"  />
              <InterpolatingParam id="18657" interp="linr"  time="-9999999/1" value="0" leadInLength="0/1"  />
              <InterpolatingParam id="18658" interp="linr"  time="-9999999/1" value="0" leadInLength="0/1"  />
             </VectorParam>
             <InterpolatingParam id="18659" interp="linr"  time="-9999999/1" value="1" leadInLength="0/1"  name="opacity"/>
            </Parameters>
            <Attributes>
             <Attribute id="18660" value="" name="ident"/>
            </Attributes>
            <MetaData>
             <entry key="WinSubProjectDisplayName" val=""/>
            </MetaData>
            <ExtraData>
             <Entry key="ZoomPanBin">
              <ZoomPanBin id="18661"  >
               <ZoomPanKeyframes>
                <ZoomPanKeyframe id="18662" timeRangeEnd="-9999999/1" timeRangeDuration="0/1" interpolaterName=""  />
               </ZoomPanKeyframes>
              </ZoomPanBin>
             </Entry>
            </ExtraData>
           </VMFile>
           <VMFile id="18663" start="10413" duration="42" scalar="1/1" mediaStart="29274/1" mediaDuration="42/1" trackNumber="0" src="4" >
            <Transformer>
             <VectorParam id="18664"  name="translation">
              <InterpolatingParam id="18665" interp="linr"  time="-9999999/1" value="0" leadInLength="0/1"  />
              <InterpolatingParam id="18666" interp="linr"  time="-9999999/1" value="0" leadInLength="0/1"  />
              <InterpolatingParam id="18667" interp="linr"  time="-9999999/1" value="0" leadInLength="0/1"  />
             </VectorParam>
             <VectorParam id="18668"  name="rotation">
              <InterpolatingParam id="18669" interp="linr"  time="-9999999/1" value="0" leadInLength="0/1"  />
              <InterpolatingParam id="18670" interp="linr"  time="-9999999/1" value="0" leadInLength="0/1"  />
              <InterpolatingParam id="18671" interp="linr"  time="-9999999/1" value="0" leadInLength="0/1"  />
             </VectorParam>
             <VectorParam id="18672"  name="shear">
              <InterpolatingParam id="18673" interp="linr"  time="-9999999/1" value="0" leadInLength="0/1"  />
              <InterpolatingParam id="18674" interp="linr"  time="-9999999/1" value="0" leadInLength="0/1"  />
              <InterpolatingParam id="18675" interp="linr"  time="-9999999/1" value="0" leadInLength="0/1"  />
             </VectorParam>
             <VectorParam id="18676"  name="scale">
              <InterpolatingParam id="18677" interp="linr"  time="-9999999/1" value="1" leadInLength="0/1"  />
              <InterpolatingParam id="18678" interp="linr"  time="-9999999/1" value="1" leadInLength="0/1"  />
              <InterpolatingParam id="18679" interp="linr"  time="-9999999/1" value="1" leadInLength="0/1"  />
             </VectorParam>
             <VectorParam id="18680"  name="anchor">
              <InterpolatingParam id="18681" interp="linr"  time="0/1" value="0" leadInLength="0/1"  />
              <InterpolatingParam id="18682" interp="linr"  time="0/1" value="0" leadInLength="0/1"  />
              <InterpolatingParam id="18683" interp="linr"  time="0/1" value="0" leadInLength="0/1"  />
             </VectorParam>
            </Transformer>
            <Parameters>
             <VectorParam id="18684"  name="sourceCrop">
              <InterpolatingParam id="18685" interp="linr"  time="0/1" value="0" leadInLength="0/1"  />
              <InterpolatingParam id="18686" interp="linr"  time="0/1" value="0" leadInLength="0/1"  />
              <InterpolatingParam id="18687" interp="linr"  time="0/1" value="0" leadInLength="0/1"  />
              <InterpolatingParam id="18688" interp="linr"  time="0/1" value="0" leadInLength="0/1"  />
             </VectorParam>
             <VectorParam id="18689"  name="geometryCrop">
              <InterpolatingParam id="18690" interp="linr"  time="-9999999/1" value="0" leadInLength="0/1"  />
              <InterpolatingParam id="18691" interp="linr"  time="-9999999/1" value="0" leadInLength="0/1"  />
              <InterpolatingParam id="18692" interp="linr"  time="-9999999/1" value="0" leadInLength="0/1"  />
              <InterpolatingParam id="18693" interp="linr"  time="-9999999/1" value="0" leadInLength="0/1"  />
             </VectorParam>
             <InterpolatingParam id="18694" interp="linr"  time="-9999999/1" value="1" leadInLength="0/1"  name="opacity"/>
            </Parameters>
            <Attributes>
             <Attribute id="18695" value="" name="ident"/>
            </Attributes>
            <MetaData>
             <entry key="WinSubProjectDisplayName" val=""/>
            </MetaData>
            <ExtraData>
             <Entry key="ZoomPanBin">
              <ZoomPanBin id="18696"  >
               <ZoomPanKeyframes>
                <ZoomPanKeyframe id="18697" timeRangeEnd="-9999999/1" timeRangeDuration="0/1" interpolaterName=""  />
               </ZoomPanKeyframes>
              </ZoomPanBin>
             </Entry>
            </ExtraData>
           </VMFile>
           <VMFile id="18698" start="10455" duration="147" scalar="1/1" mediaStart="29358/1" mediaDuration="147/1" trackNumber="0" src="4" >
            <Transformer>
             <VectorParam id="18699"  name="translation">
              <InterpolatingParam id="18700" interp="linr"  time="-9999999/1" value="0" leadInLength="0/1"  />
              <InterpolatingParam id="18701" interp="linr"  time="-9999999/1" value="0" leadInLength="0/1"  />
              <InterpolatingParam id="18702" interp="linr"  time="-9999999/1" value="0" leadInLength="0/1"  />
             </VectorParam>
             <VectorParam id="18703"  name="rotation">
              <InterpolatingParam id="18704" interp="linr"  time="-9999999/1" value="0" leadInLength="0/1"  />
              <InterpolatingParam id="18705" interp="linr"  time="-9999999/1" value="0" leadInLength="0/1"  />
              <InterpolatingParam id="18706" interp="linr"  time="-9999999/1" value="0" leadInLength="0/1"  />
             </VectorParam>
             <VectorParam id="18707"  name="shear">
              <InterpolatingParam id="18708" interp="linr"  time="-9999999/1" value="0" leadInLength="0/1"  />
              <InterpolatingParam id="18709" interp="linr"  time="-9999999/1" value="0" leadInLength="0/1"  />
              <InterpolatingParam id="18710" interp="linr"  time="-9999999/1" value="0" leadInLength="0/1"  />
             </VectorParam>
             <VectorParam id="18711"  name="scale">
              <InterpolatingParam id="18712" interp="linr"  time="-9999999/1" value="1" leadInLength="0/1"  />
              <InterpolatingParam id="18713" interp="linr"  time="-9999999/1" value="1" leadInLength="0/1"  />
              <InterpolatingParam id="18714" interp="linr"  time="-9999999/1" value="1" leadInLength="0/1"  />
             </VectorParam>
             <VectorParam id="18715"  name="anchor">
              <InterpolatingParam id="18716" interp="linr"  time="0/1" value="0" leadInLength="0/1"  />
              <InterpolatingParam id="18717" interp="linr"  time="0/1" value="0" leadInLength="0/1"  />
              <InterpolatingParam id="18718" interp="linr"  time="0/1" value="0" leadInLength="0/1"  />
             </VectorParam>
            </Transformer>
            <Parameters>
             <VectorParam id="18719"  name="sourceCrop">
              <InterpolatingParam id="18720" interp="linr"  time="0/1" value="0" leadInLength="0/1"  />
              <InterpolatingParam id="18721" interp="linr"  time="0/1" value="0" leadInLength="0/1"  />
              <InterpolatingParam id="18722" interp="linr"  time="0/1" value="0" leadInLength="0/1"  />
              <InterpolatingParam id="18723" interp="linr"  time="0/1" value="0" leadInLength="0/1"  />
             </VectorParam>
             <VectorParam id="18724"  name="geometryCrop">
              <InterpolatingParam id="18725" interp="linr"  time="-9999999/1" value="0" leadInLength="0/1"  />
              <InterpolatingParam id="18726" interp="linr"  time="-9999999/1" value="0" leadInLength="0/1"  />
              <InterpolatingParam id="18727" interp="linr"  time="-9999999/1" value="0" leadInLength="0/1"  />
              <InterpolatingParam id="18728" interp="linr"  time="-9999999/1" value="0" leadInLength="0/1"  />
             </VectorParam>
             <InterpolatingParam id="18729" interp="linr"  time="-9999999/1" value="1" leadInLength="0/1"  name="opacity"/>
            </Parameters>
            <Attributes>
             <Attribute id="18730" value="" name="ident"/>
            </Attributes>
            <MetaData>
             <entry key="WinSubProjectDisplayName" val=""/>
            </MetaData>
            <ExtraData>
             <Entry key="ZoomPanBin">
              <ZoomPanBin id="18731"  >
               <ZoomPanKeyframes>
                <ZoomPanKeyframe id="18732" timeRangeEnd="-9999999/1" timeRangeDuration="0/1" interpolaterName=""  />
               </ZoomPanKeyframes>
              </ZoomPanBin>
             </Entry>
            </ExtraData>
           </VMFile>
           <VMFile id="18733" start="10602" duration="580" scalar="1/1" mediaStart="29557/1" mediaDuration="580/1" trackNumber="0" src="4" >
            <Transformer>
             <VectorParam id="18734"  name="translation">
              <InterpolatingParam id="18735" interp="linr"  time="-9999999/1" value="0" leadInLength="0/1"  />
              <InterpolatingParam id="18736" interp="linr"  time="-9999999/1" value="0" leadInLength="0/1"  />
              <InterpolatingParam id="18737" interp="linr"  time="-9999999/1" value="0" leadInLength="0/1"  />
             </VectorParam>
             <VectorParam id="18738"  name="rotation">
              <InterpolatingParam id="18739" interp="linr"  time="-9999999/1" value="0" leadInLength="0/1"  />
              <InterpolatingParam id="18740" interp="linr"  time="-9999999/1" value="0" leadInLength="0/1"  />
              <InterpolatingParam id="18741" interp="linr"  time="-9999999/1" value="0" leadInLength="0/1"  />
             </VectorParam>
             <VectorParam id="18742"  name="shear">
              <InterpolatingParam id="18743" interp="linr"  time="-9999999/1" value="0" leadInLength="0/1"  />
              <InterpolatingParam id="18744" interp="linr"  time="-9999999/1" value="0" leadInLength="0/1"  />
              <InterpolatingParam id="18745" interp="linr"  time="-9999999/1" value="0" leadInLength="0/1"  />
             </VectorParam>
             <VectorParam id="18746"  name="scale">
              <InterpolatingParam id="18747" interp="linr"  time="-9999999/1" value="1" leadInLength="0/1"  />
              <InterpolatingParam id="18748" interp="linr"  time="-9999999/1" value="1" leadInLength="0/1"  />
              <InterpolatingParam id="18749" interp="linr"  time="-9999999/1" value="1" leadInLength="0/1"  />
             </VectorParam>
             <VectorParam id="18750"  name="anchor">
              <InterpolatingParam id="18751" interp="linr"  time="0/1" value="0" leadInLength="0/1"  />
              <InterpolatingParam id="18752" interp="linr"  time="0/1" value="0" leadInLength="0/1"  />
              <InterpolatingParam id="18753" interp="linr"  time="0/1" value="0" leadInLength="0/1"  />
             </VectorParam>
            </Transformer>
            <Parameters>
             <VectorParam id="18754"  name="sourceCrop">
              <InterpolatingParam id="18755" interp="linr"  time="0/1" value="0" leadInLength="0/1"  />
              <InterpolatingParam id="18756" interp="linr"  time="0/1" value="0" leadInLength="0/1"  />
              <InterpolatingParam id="18757" interp="linr"  time="0/1" value="0" leadInLength="0/1"  />
              <InterpolatingParam id="18758" interp="linr"  time="0/1" value="0" leadInLength="0/1"  />
             </VectorParam>
             <VectorParam id="18759"  name="geometryCrop">
              <InterpolatingParam id="18760" interp="linr"  time="-9999999/1" value="0" leadInLength="0/1"  />
              <InterpolatingParam id="18761" interp="linr"  time="-9999999/1" value="0" leadInLength="0/1"  />
              <InterpolatingParam id="18762" interp="linr"  time="-9999999/1" value="0" leadInLength="0/1"  />
              <InterpolatingParam id="18763" interp="linr"  time="-9999999/1" value="0" leadInLength="0/1"  />
             </VectorParam>
             <InterpolatingParam id="18764" interp="linr"  time="-9999999/1" value="1" leadInLength="0/1"  name="opacity"/>
            </Parameters>
            <Attributes>
             <Attribute id="18765" value="" name="ident"/>
            </Attributes>
            <MetaData>
             <entry key="WinSubProjectDisplayName" val=""/>
            </MetaData>
            <ExtraData>
             <Entry key="ZoomPanBin">
              <ZoomPanBin id="18766"  >
               <ZoomPanKeyframes>
                <ZoomPanKeyframe id="18767" timeRangeEnd="-9999999/1" timeRangeDuration="0/1" interpolaterName=""  />
               </ZoomPanKeyframes>
              </ZoomPanBin>
             </Entry>
            </ExtraData>
           </VMFile>
           <VMFile id="18768" start="11182" duration="25" scalar="1/1" mediaStart="30200/1" mediaDuration="25/1" trackNumber="0" src="4" >
            <Transformer>
             <VectorParam id="18769"  name="translation">
              <InterpolatingParam id="18770" interp="linr"  time="-9999999/1" value="0" leadInLength="0/1"  />
              <InterpolatingParam id="18771" interp="linr"  time="-9999999/1" value="0" leadInLength="0/1"  />
              <InterpolatingParam id="18772" interp="linr"  time="-9999999/1" value="0" leadInLength="0/1"  />
             </VectorParam>
             <VectorParam id="18773"  name="rotation">
              <InterpolatingParam id="18774" interp="linr"  time="-9999999/1" value="0" leadInLength="0/1"  />
              <InterpolatingParam id="18775" interp="linr"  time="-9999999/1" value="0" leadInLength="0/1"  />
              <InterpolatingParam id="18776" interp="linr"  time="-9999999/1" value="0" leadInLength="0/1"  />
             </VectorParam>
             <VectorParam id="18777"  name="shear">
              <InterpolatingParam id="18778" interp="linr"  time="-9999999/1" value="0" leadInLength="0/1"  />
              <InterpolatingParam id="18779" interp="linr"  time="-9999999/1" value="0" leadInLength="0/1"  />
              <InterpolatingParam id="18780" interp="linr"  time="-9999999/1" value="0" leadInLength="0/1"  />
             </VectorParam>
             <VectorParam id="18781"  name="scale">
              <InterpolatingParam id="18782" interp="linr"  time="-9999999/1" value="1" leadInLength="0/1"  />
              <InterpolatingParam id="18783" interp="linr"  time="-9999999/1" value="1" leadInLength="0/1"  />
              <InterpolatingParam id="18784" interp="linr"  time="-9999999/1" value="1" leadInLength="0/1"  />
             </VectorParam>
             <VectorParam id="18785"  name="anchor">
              <InterpolatingParam id="18786" interp="linr"  time="0/1" value="0" leadInLength="0/1"  />
              <InterpolatingParam id="18787" interp="linr"  time="0/1" value="0" leadInLength="0/1"  />
              <InterpolatingParam id="18788" interp="linr"  time="0/1" value="0" leadInLength="0/1"  />
             </VectorParam>
            </Transformer>
            <Parameters>
             <VectorParam id="18789"  name="sourceCrop">
              <InterpolatingParam id="18790" interp="linr"  time="0/1" value="0" leadInLength="0/1"  />
              <InterpolatingParam id="18791" interp="linr"  time="0/1" value="0" leadInLength="0/1"  />
              <InterpolatingParam id="18792" interp="linr"  time="0/1" value="0" leadInLength="0/1"  />
              <InterpolatingParam id="18793" interp="linr"  time="0/1" value="0" leadInLength="0/1"  />
             </VectorParam>
             <VectorParam id="18794"  name="geometryCrop">
              <InterpolatingParam id="18795" interp="linr"  time="-9999999/1" value="0" leadInLength="0/1"  />
              <InterpolatingParam id="18796" interp="linr"  time="-9999999/1" value="0" leadInLength="0/1"  />
              <InterpolatingParam id="18797" interp="linr"  time="-9999999/1" value="0" leadInLength="0/1"  />
              <InterpolatingParam id="18798" interp="linr"  time="-9999999/1" value="0" leadInLength="0/1"  />
             </VectorParam>
             <InterpolatingParam id="18799" interp="linr"  time="-9999999/1" value="1" leadInLength="0/1"  name="opacity"/>
            </Parameters>
            <Attributes>
             <Attribute id="18800" value="" name="ident"/>
            </Attributes>
            <MetaData>
             <entry key="WinSubProjectDisplayName" val=""/>
            </MetaData>
            <ExtraData>
             <Entry key="ZoomPanBin">
              <ZoomPanBin id="18801"  >
               <ZoomPanKeyframes>
                <ZoomPanKeyframe id="18802" timeRangeEnd="-9999999/1" timeRangeDuration="0/1" interpolaterName=""  />
               </ZoomPanKeyframes>
              </ZoomPanBin>
             </Entry>
            </ExtraData>
           </VMFile>
           <VMFile id="18803" start="11207" duration="119" scalar="1/1" mediaStart="30368/1" mediaDuration="119/1" trackNumber="0" src="4" >
            <Transformer>
             <VectorParam id="18804"  name="translation">
              <InterpolatingParam id="18805" interp="linr"  time="-9999999/1" value="0" leadInLength="0/1"  />
              <InterpolatingParam id="18806" interp="linr"  time="-9999999/1" value="0" leadInLength="0/1"  />
              <InterpolatingParam id="18807" interp="linr"  time="-9999999/1" value="0" leadInLength="0/1"  />
             </VectorParam>
             <VectorParam id="18808"  name="rotation">
              <InterpolatingParam id="18809" interp="linr"  time="-9999999/1" value="0" leadInLength="0/1"  />
              <InterpolatingParam id="18810" interp="linr"  time="-9999999/1" value="0" leadInLength="0/1"  />
              <InterpolatingParam id="18811" interp="linr"  time="-9999999/1" value="0" leadInLength="0/1"  />
             </VectorParam>
             <VectorParam id="18812"  name="shear">
              <InterpolatingParam id="18813" interp="linr"  time="-9999999/1" value="0" leadInLength="0/1"  />
              <InterpolatingParam id="18814" interp="linr"  time="-9999999/1" value="0" leadInLength="0/1"  />
              <InterpolatingParam id="18815" interp="linr"  time="-9999999/1" value="0" leadInLength="0/1"  />
             </VectorParam>
             <VectorParam id="18816"  name="scale">
              <InterpolatingParam id="18817" interp="linr"  time="-9999999/1" value="1" leadInLength="0/1"  />
              <InterpolatingParam id="18818" interp="linr"  time="-9999999/1" value="1" leadInLength="0/1"  />
              <InterpolatingParam id="18819" interp="linr"  time="-9999999/1" value="1" leadInLength="0/1"  />
             </VectorParam>
             <VectorParam id="18820"  name="anchor">
              <InterpolatingParam id="18821" interp="linr"  time="0/1" value="0" leadInLength="0/1"  />
              <InterpolatingParam id="18822" interp="linr"  time="0/1" value="0" leadInLength="0/1"  />
              <InterpolatingParam id="18823" interp="linr"  time="0/1" value="0" leadInLength="0/1"  />
             </VectorParam>
            </Transformer>
            <Parameters>
             <VectorParam id="18824"  name="sourceCrop">
              <InterpolatingParam id="18825" interp="linr"  time="0/1" value="0" leadInLength="0/1"  />
              <InterpolatingParam id="18826" interp="linr"  time="0/1" value="0" leadInLength="0/1"  />
              <InterpolatingParam id="18827" interp="linr"  time="0/1" value="0" leadInLength="0/1"  />
              <InterpolatingParam id="18828" interp="linr"  time="0/1" value="0" leadInLength="0/1"  />
             </VectorParam>
             <VectorParam id="18829"  name="geometryCrop">
              <InterpolatingParam id="18830" interp="linr"  time="-9999999/1" value="0" leadInLength="0/1"  />
              <InterpolatingParam id="18831" interp="linr"  time="-9999999/1" value="0" leadInLength="0/1"  />
              <InterpolatingParam id="18832" interp="linr"  time="-9999999/1" value="0" leadInLength="0/1"  />
              <InterpolatingParam id="18833" interp="linr"  time="-9999999/1" value="0" leadInLength="0/1"  />
             </VectorParam>
             <InterpolatingParam id="18834" interp="linr"  time="-9999999/1" value="1" leadInLength="0/1"  name="opacity"/>
            </Parameters>
            <Attributes>
             <Attribute id="18835" value="" name="ident"/>
            </Attributes>
            <MetaData>
             <entry key="WinSubProjectDisplayName" val=""/>
            </MetaData>
            <ExtraData>
             <Entry key="ZoomPanBin">
              <ZoomPanBin id="18836"  >
               <ZoomPanKeyframes>
                <ZoomPanKeyframe id="18837" timeRangeEnd="-9999999/1" timeRangeDuration="0/1" interpolaterName=""  />
               </ZoomPanKeyframes>
              </ZoomPanBin>
             </Entry>
            </ExtraData>
           </VMFile>
           <VMFile id="18838" start="11326" duration="411" scalar="1/1" mediaStart="30756/1" mediaDuration="411/1" trackNumber="0" src="4" >
            <Transformer>
             <VectorParam id="18839"  name="translation">
              <InterpolatingParam id="18840" interp="linr"  time="-9999999/1" value="0" leadInLength="0/1"  />
              <InterpolatingParam id="18841" interp="linr"  time="-9999999/1" value="0" leadInLength="0/1"  />
              <InterpolatingParam id="18842" interp="linr"  time="-9999999/1" value="0" leadInLength="0/1"  />
             </VectorParam>
             <VectorParam id="18843"  name="rotation">
              <InterpolatingParam id="18844" interp="linr"  time="-9999999/1" value="0" leadInLength="0/1"  />
              <InterpolatingParam id="18845" interp="linr"  time="-9999999/1" value="0" leadInLength="0/1"  />
              <InterpolatingParam id="18846" interp="linr"  time="-9999999/1" value="0" leadInLength="0/1"  />
             </VectorParam>
             <VectorParam id="18847"  name="shear">
              <InterpolatingParam id="18848" interp="linr"  time="-9999999/1" value="0" leadInLength="0/1"  />
              <InterpolatingParam id="18849" interp="linr"  time="-9999999/1" value="0" leadInLength="0/1"  />
              <InterpolatingParam id="18850" interp="linr"  time="-9999999/1" value="0" leadInLength="0/1"  />
             </VectorParam>
             <VectorParam id="18851"  name="scale">
              <InterpolatingParam id="18852" interp="linr"  time="-9999999/1" value="1" leadInLength="0/1"  />
              <InterpolatingParam id="18853" interp="linr"  time="-9999999/1" value="1" leadInLength="0/1"  />
              <InterpolatingParam id="18854" interp="linr"  time="-9999999/1" value="1" leadInLength="0/1"  />
             </VectorParam>
             <VectorParam id="18855"  name="anchor">
              <InterpolatingParam id="18856" interp="linr"  time="0/1" value="0" leadInLength="0/1"  />
              <InterpolatingParam id="18857" interp="linr"  time="0/1" value="0" leadInLength="0/1"  />
              <InterpolatingParam id="18858" interp="linr"  time="0/1" value="0" leadInLength="0/1"  />
             </VectorParam>
            </Transformer>
            <Parameters>
             <VectorParam id="18859"  name="sourceCrop">
              <InterpolatingParam id="18860" interp="linr"  time="0/1" value="0" leadInLength="0/1"  />
              <InterpolatingParam id="18861" interp="linr"  time="0/1" value="0" leadInLength="0/1"  />
              <InterpolatingParam id="18862" interp="linr"  time="0/1" value="0" leadInLength="0/1"  />
              <InterpolatingParam id="18863" interp="linr"  time="0/1" value="0" leadInLength="0/1"  />
             </VectorParam>
             <VectorParam id="18864"  name="geometryCrop">
              <InterpolatingParam id="18865" interp="linr"  time="-9999999/1" value="0" leadInLength="0/1"  />
              <InterpolatingParam id="18866" interp="linr"  time="-9999999/1" value="0" leadInLength="0/1"  />
              <InterpolatingParam id="18867" interp="linr"  time="-9999999/1" value="0" leadInLength="0/1"  />
              <InterpolatingParam id="18868" interp="linr"  time="-9999999/1" value="0" leadInLength="0/1"  />
             </VectorParam>
             <InterpolatingParam id="18869" interp="linr"  time="-9999999/1" value="1" leadInLength="0/1"  name="opacity"/>
            </Parameters>
            <Attributes>
             <Attribute id="18870" value="" name="ident"/>
            </Attributes>
            <MetaData>
             <entry key="WinSubProjectDisplayName" val=""/>
            </MetaData>
            <ExtraData>
             <Entry key="ZoomPanBin">
              <ZoomPanBin id="18871"  >
               <ZoomPanKeyframes>
                <ZoomPanKeyframe id="18872" timeRangeEnd="-9999999/1" timeRangeDuration="0/1" interpolaterName=""  />
               </ZoomPanKeyframes>
              </ZoomPanBin>
             </Entry>
            </ExtraData>
           </VMFile>
          </Medias>
         </GenericTrack>
        </StitchedMedia>
        <StitchedMedia id="18873" start="4607" duration="76" scalar="90461954492/199032340441" mediaStart="56109377728815/6461568178" mediaDuration="3781614468379/22615488623" minMediaStart="0/1" >
         <Transformer>
          <VectorParam id="18874"  name="translation">
           <InterpolatingParam id="18875" interp="linr"  time="-9999999/1" value="0" leadInLength="0/1"  interpolater="leadin-linr"  />
           <InterpolatingParam id="18876" interp="linr"  time="-9999999/1" value="0" leadInLength="0/1"  interpolater="leadin-linr"  />
           <InterpolatingParam id="18877" interp="linr"  time="-9999999/1" value="0" leadInLength="0/1"  interpolater="leadin-linr"  />
          </VectorParam>
          <VectorParam id="18878"  name="rotation">
           <InterpolatingParam id="18879" interp="linr"  time="-9999999/1" value="0" leadInLength="0/1"  interpolater="leadin-linr"  />
           <InterpolatingParam id="18880" interp="linr"  time="-9999999/1" value="0" leadInLength="0/1"  interpolater="leadin-linr"  />
           <InterpolatingParam id="18881" interp="linr"  time="-9999999/1" value="0" leadInLength="0/1"  interpolater="leadin-linr"  />
          </VectorParam>
          <VectorParam id="18882"  name="shear">
           <InterpolatingParam id="18883" interp="linr"  time="-9999999/1" value="0" leadInLength="0/1"  interpolater="leadin-linr"  />
           <InterpolatingParam id="18884" interp="linr"  time="-9999999/1" value="0" leadInLength="0/1"  interpolater="leadin-linr"  />
           <InterpolatingParam id="18885" interp="linr"  time="-9999999/1" value="0" leadInLength="0/1"  interpolater="leadin-linr"  />
          </VectorParam>
          <VectorParam id="18886"  name="scale">
           <InterpolatingParam id="18887" interp="linr"  time="-9999999/1" value="1" leadInLength="0/1"  interpolater="leadin-linr"  />
           <InterpolatingParam id="18888" interp="linr"  time="-9999999/1" value="1" leadInLength="0/1"  interpolater="leadin-linr"  />
           <InterpolatingParam id="18889" interp="linr"  time="-9999999/1" value="1" leadInLength="0/1"  interpolater="leadin-linr"  />
          </VectorParam>
          <VectorParam id="18890"  name="anchor">
           <InterpolatingParam id="18891" interp="linr"  >
            <Keyframes>
            <Keyframe id="18892"  time="0/1" value="0" leadInLength="0/1"  />
            <Keyframe id="18893"  time="32931335377/7971776" value="0" leadInLength="0/1"  />
            <Keyframe id="18894"  time="4328/1" value="0" leadInLength="0/1"  />
            <Keyframe id="18895"  time="4457/1" value="0" leadInLength="0/1"  />
            <Keyframe id="18896"  time="46272102474146/7646783123" value="0" leadInLength="0/1"  />
            <Keyframe id="18897"  time="576460752303423488/75433993780101" value="0" leadInLength="0/1"  />
            <Keyframe id="18898"  time="600059199085213793/58267769831581" value="0" leadInLength="0/1"  />
            <Keyframe id="18899"  time="1199749202952939991/115623946533563" value="0" leadInLength="0/1"  />
            </Keyframes>
           </InterpolatingParam>
           <InterpolatingParam id="18900" interp="linr"  >
            <Keyframes>
            <Keyframe id="18901"  time="0/1" value="0" leadInLength="0/1"  />
            <Keyframe id="18902"  time="32931335377/7971776" value="0" leadInLength="0/1"  />
            <Keyframe id="18903"  time="4328/1" value="0" leadInLength="0/1"  />
            <Keyframe id="18904"  time="4457/1" value="0" leadInLength="0/1"  />
            <Keyframe id="18905"  time="46272102474146/7646783123" value="0" leadInLength="0/1"  />
            <Keyframe id="18906"  time="576460752303423488/75433993780101" value="0" leadInLength="0/1"  />
            <Keyframe id="18907"  time="600059199085213793/58267769831581" value="0" leadInLength="0/1"  />
            <Keyframe id="18908"  time="1199749202952939991/115623946533563" value="0" leadInLength="0/1"  />
            </Keyframes>
           </InterpolatingParam>
           <InterpolatingParam id="18909" interp="linr"  >
            <Keyframes>
            <Keyframe id="18910"  time="0/1" value="0" leadInLength="0/1"  />
            <Keyframe id="18911"  time="32931335377/7971776" value="0" leadInLength="0/1"  />
            <Keyframe id="18912"  time="4328/1" value="0" leadInLength="0/1"  />
            <Keyframe id="18913"  time="4457/1" value="0" leadInLength="0/1"  />
            <Keyframe id="18914"  time="46272102474146/7646783123" value="0" leadInLength="0/1"  />
            <Keyframe id="18915"  time="576460752303423488/75433993780101" value="0" leadInLength="0/1"  />
            <Keyframe id="18916"  time="600059199085213793/58267769831581" value="0" leadInLength="0/1"  />
            <Keyframe id="18917"  time="1199749202952939991/115623946533563" value="0" leadInLength="0/1"  />
            </Keyframes>
           </InterpolatingParam>
          </VectorParam>
         </Transformer>
         <Parameters>
          <VectorParam id="18918"  name="sourceCrop">
           <InterpolatingParam id="18919" interp="linr"  >
            <Keyframes>
            <Keyframe id="18920"  time="0/1" value="0" leadInLength="0/1"  />
            <Keyframe id="18921"  time="32931335377/7971776" value="0" leadInLength="0/1"  />
            <Keyframe id="18922"  time="4328/1" value="0" leadInLength="0/1"  />
            <Keyframe id="18923"  time="4457/1" value="0" leadInLength="0/1"  />
            <Keyframe id="18924"  time="46272102474146/7646783123" value="0" leadInLength="0/1"  />
            <Keyframe id="18925"  time="576460752303423488/75433993780101" value="0" leadInLength="0/1"  />
            <Keyframe id="18926"  time="600059199085213793/58267769831581" value="0" leadInLength="0/1"  />
            <Keyframe id="18927"  time="1199749202952939991/115623946533563" value="0" leadInLength="0/1"  />
            </Keyframes>
           </InterpolatingParam>
           <InterpolatingParam id="18928" interp="linr"  >
            <Keyframes>
            <Keyframe id="18929"  time="0/1" value="0" leadInLength="0/1"  />
            <Keyframe id="18930"  time="32931335377/7971776" value="0" leadInLength="0/1"  />
            <Keyframe id="18931"  time="4328/1" value="0" leadInLength="0/1"  />
            <Keyframe id="18932"  time="4457/1" value="0" leadInLength="0/1"  />
            <Keyframe id="18933"  time="46272102474146/7646783123" value="0" leadInLength="0/1"  />
            <Keyframe id="18934"  time="576460752303423488/75433993780101" value="0" leadInLength="0/1"  />
            <Keyframe id="18935"  time="600059199085213793/58267769831581" value="0" leadInLength="0/1"  />
            <Keyframe id="18936"  time="1199749202952939991/115623946533563" value="0" leadInLength="0/1"  />
            </Keyframes>
           </InterpolatingParam>
           <InterpolatingParam id="18937" interp="linr"  >
            <Keyframes>
            <Keyframe id="18938"  time="0/1" value="0" leadInLength="0/1"  />
            <Keyframe id="18939"  time="32931335377/7971776" value="0" leadInLength="0/1"  />
            <Keyframe id="18940"  time="4328/1" value="0" leadInLength="0/1"  />
            <Keyframe id="18941"  time="4457/1" value="0" leadInLength="0/1"  />
            <Keyframe id="18942"  time="46272102474146/7646783123" value="0" leadInLength="0/1"  />
            <Keyframe id="18943"  time="576460752303423488/75433993780101" value="0" leadInLength="0/1"  />
            <Keyframe id="18944"  time="600059199085213793/58267769831581" value="0" leadInLength="0/1"  />
            <Keyframe id="18945"  time="1199749202952939991/115623946533563" value="0" leadInLength="0/1"  />
            </Keyframes>
           </InterpolatingParam>
           <InterpolatingParam id="18946" interp="linr"  >
            <Keyframes>
            <Keyframe id="18947"  time="0/1" value="0" leadInLength="0/1"  />
            <Keyframe id="18948"  time="32931335377/7971776" value="0" leadInLength="0/1"  />
            <Keyframe id="18949"  time="4328/1" value="0" leadInLength="0/1"  />
            <Keyframe id="18950"  time="4457/1" value="0" leadInLength="0/1"  />
            <Keyframe id="18951"  time="46272102474146/7646783123" value="0" leadInLength="0/1"  />
            <Keyframe id="18952"  time="576460752303423488/75433993780101" value="0" leadInLength="0/1"  />
            <Keyframe id="18953"  time="600059199085213793/58267769831581" value="0" leadInLength="0/1"  />
            <Keyframe id="18954"  time="1199749202952939991/115623946533563" value="0" leadInLength="0/1"  />
            </Keyframes>
           </InterpolatingParam>
          </VectorParam>
          <VectorParam id="18955"  name="geometryCrop">
           <InterpolatingParam id="18956" interp="linr"  time="-9999999/1" value="0" leadInLength="0/1"  interpolater="leadin-linr"  />
           <InterpolatingParam id="18957" interp="linr"  time="-9999999/1" value="0" leadInLength="0/1"  interpolater="leadin-linr"  />
           <InterpolatingParam id="18958" interp="linr"  time="-9999999/1" value="0" leadInLength="0/1"  interpolater="leadin-linr"  />
           <InterpolatingParam id="18959" interp="linr"  time="-9999999/1" value="0" leadInLength="0/1"  interpolater="leadin-linr"  />
          </VectorParam>
          <InterpolatingParam id="18960" interp="linr"  time="-9999999/1" value="1" leadInLength="0/1"  interpolater="leadin-linr"  name="opacity"/>
          <InterpolatingParam id="18961" interp="linr"  time="0/1" value="1" leadInLength="0/1"  name="cursorOpacity"/>
          <InterpolatingParam id="18962" interp="linr"  time="0/1" value="1" leadInLength="0/1"  name="cursorScale"/>
          <Parameter id="18963"  name="captions"/>
         </Parameters>
         <Attributes>
          <Attribute id="18964" value="" name="ident"/>
         </Attributes>
         <MetaData>
          <entry key="WinSubProjectDisplayName" val=""/>
         </MetaData>
         <ExtraData>
          <Entry key="ZoomPanBin">
           <ZoomPanBin id="18965"  >
            <ZoomPanKeyframes>
             <ZoomPanKeyframe id="18966" timeRangeEnd="-9999999/1" timeRangeDuration="0/1" interpolaterName="linr"  />
            </ZoomPanKeyframes>
           </ZoomPanBin>
          </Entry>
          <Entry key="CursorEffectBin">
           <CursorEffectBin id="18967"  >
            <CursorEffectKeyframes>
            </CursorEffectKeyframes>
           </CursorEffectBin>
          </Entry>
         </ExtraData>
         <GenericTrack id="18968"  >
          <Attributes>
           <Attribute id="18969" value="" name="ident"/>
           <Attribute id="18970" value="0" name="audioMuted"/>
           <Attribute id="18971" value="0" name="videoHidden"/>
          </Attributes>
          <MetaData>
           <entry key="IsLocked" val="False"/>
           <entry key="WinTrackHeight" val="0"/>
          </MetaData>
          <Medias>
           <VMFile id="18972" start="0" duration="4131" scalar="1/1" mediaStart="0/1" mediaDuration="4131/1" trackNumber="0" src="4" >
            <Transformer>
             <VectorParam id="18973"  name="translation">
              <InterpolatingParam id="18974" interp="linr"  time="-9999999/1" value="0" leadInLength="0/1"  />
              <InterpolatingParam id="18975" interp="linr"  time="-9999999/1" value="0" leadInLength="0/1"  />
              <InterpolatingParam id="18976" interp="linr"  time="-9999999/1" value="0" leadInLength="0/1"  />
             </VectorParam>
             <VectorParam id="18977"  name="rotation">
              <InterpolatingParam id="18978" interp="linr"  time="-9999999/1" value="0" leadInLength="0/1"  />
              <InterpolatingParam id="18979" interp="linr"  time="-9999999/1" value="0" leadInLength="0/1"  />
              <InterpolatingParam id="18980" interp="linr"  time="-9999999/1" value="0" leadInLength="0/1"  />
             </VectorParam>
             <VectorParam id="18981"  name="shear">
              <InterpolatingParam id="18982" interp="linr"  time="-9999999/1" value="0" leadInLength="0/1"  />
              <InterpolatingParam id="18983" interp="linr"  time="-9999999/1" value="0" leadInLength="0/1"  />
              <InterpolatingParam id="18984" interp="linr"  time="-9999999/1" value="0" leadInLength="0/1"  />
             </VectorParam>
             <VectorParam id="18985"  name="scale">
              <InterpolatingParam id="18986" interp="linr"  time="-9999999/1" value="1" leadInLength="0/1"  />
              <InterpolatingParam id="18987" interp="linr"  time="-9999999/1" value="1" leadInLength="0/1"  />
              <InterpolatingParam id="18988" interp="linr"  time="-9999999/1" value="1" leadInLength="0/1"  />
             </VectorParam>
             <VectorParam id="18989"  name="anchor">
              <InterpolatingParam id="18990" interp="linr"  time="0/1" value="0" leadInLength="0/1"  />
              <InterpolatingParam id="18991" interp="linr"  time="0/1" value="0" leadInLength="0/1"  />
              <InterpolatingParam id="18992" interp="linr"  time="0/1" value="0" leadInLength="0/1"  />
             </VectorParam>
            </Transformer>
            <Parameters>
             <VectorParam id="18993"  name="sourceCrop">
              <InterpolatingParam id="18994" interp="linr"  time="0/1" value="0" leadInLength="0/1"  />
              <InterpolatingParam id="18995" interp="linr"  time="0/1" value="0" leadInLength="0/1"  />
              <InterpolatingParam id="18996" interp="linr"  time="0/1" value="0" leadInLength="0/1"  />
              <InterpolatingParam id="18997" interp="linr"  time="0/1" value="0" leadInLength="0/1"  />
             </VectorParam>
             <VectorParam id="18998"  name="geometryCrop">
              <InterpolatingParam id="18999" interp="linr"  time="-9999999/1" value="0" leadInLength="0/1"  />
              <InterpolatingParam id="19000" interp="linr"  time="-9999999/1" value="0" leadInLength="0/1"  />
              <InterpolatingParam id="19001" interp="linr"  time="-9999999/1" value="0" leadInLength="0/1"  />
              <InterpolatingParam id="19002" interp="linr"  time="-9999999/1" value="0" leadInLength="0/1"  />
             </VectorParam>
             <InterpolatingParam id="19003" interp="linr"  time="-9999999/1" value="1" leadInLength="0/1"  name="opacity"/>
            </Parameters>
            <Attributes>
             <Attribute id="19004" value="" name="ident"/>
            </Attributes>
            <MetaData>
             <entry key="WinSubProjectDisplayName" val=""/>
            </MetaData>
            <ExtraData>
             <Entry key="ZoomPanBin">
              <ZoomPanBin id="19005"  >
               <ZoomPanKeyframes>
                <ZoomPanKeyframe id="19006" timeRangeEnd="-9999999/1" timeRangeDuration="0/1" interpolaterName=""  />
               </ZoomPanKeyframes>
              </ZoomPanBin>
             </Entry>
            </ExtraData>
           </VMFile>
           <IMFile id="19007" start="4131" duration="12" scalar="1/1" mediaStart="4130/1" mediaDuration="1/1" trackNumber="0" src="4" trimStartSum="0/1" >
            <Transformer>
             <VectorParam id="19008"  name="translation">
              <InterpolatingParam id="19009" interp="linr"  time="-9999999/1" value="0" leadInLength="0/1"  />
              <InterpolatingParam id="19010" interp="linr"  time="-9999999/1" value="0" leadInLength="0/1"  />
              <InterpolatingParam id="19011" interp="linr"  time="-9999999/1" value="0" leadInLength="0/1"  />
             </VectorParam>
             <VectorParam id="19012"  name="rotation">
              <InterpolatingParam id="19013" interp="linr"  time="-9999999/1" value="0" leadInLength="0/1"  />
              <InterpolatingParam id="19014" interp="linr"  time="-9999999/1" value="0" leadInLength="0/1"  />
              <InterpolatingParam id="19015" interp="linr"  time="-9999999/1" value="0" leadInLength="0/1"  />
             </VectorParam>
             <VectorParam id="19016"  name="shear">
              <InterpolatingParam id="19017" interp="linr"  time="-9999999/1" value="0" leadInLength="0/1"  />
              <InterpolatingParam id="19018" interp="linr"  time="-9999999/1" value="0" leadInLength="0/1"  />
              <InterpolatingParam id="19019" interp="linr"  time="-9999999/1" value="0" leadInLength="0/1"  />
             </VectorParam>
             <VectorParam id="19020"  name="scale">
              <InterpolatingParam id="19021" interp="linr"  time="-9999999/1" value="1" leadInLength="0/1"  />
              <InterpolatingParam id="19022" interp="linr"  time="-9999999/1" value="1" leadInLength="0/1"  />
              <InterpolatingParam id="19023" interp="linr"  time="-9999999/1" value="1" leadInLength="0/1"  />
             </VectorParam>
             <VectorParam id="19024"  name="anchor">
              <InterpolatingParam id="19025" interp="linr"  time="0/1" value="0" leadInLength="0/1"  />
              <InterpolatingParam id="19026" interp="linr"  time="0/1" value="0" leadInLength="0/1"  />
              <InterpolatingParam id="19027" interp="linr"  time="0/1" value="0" leadInLength="0/1"  />
             </VectorParam>
            </Transformer>
            <Parameters>
             <VectorParam id="19028"  name="sourceCrop">
              <InterpolatingParam id="19029" interp="linr"  time="0/1" value="0" leadInLength="0/1"  />
              <InterpolatingParam id="19030" interp="linr"  time="0/1" value="0" leadInLength="0/1"  />
              <InterpolatingParam id="19031" interp="linr"  time="0/1" value="0" leadInLength="0/1"  />
              <InterpolatingParam id="19032" interp="linr"  time="0/1" value="0" leadInLength="0/1"  />
             </VectorParam>
             <VectorParam id="19033"  name="geometryCrop">
              <InterpolatingParam id="19034" interp="linr"  time="-9999999/1" value="0" leadInLength="0/1"  />
              <InterpolatingParam id="19035" interp="linr"  time="-9999999/1" value="0" leadInLength="0/1"  />
              <InterpolatingParam id="19036" interp="linr"  time="-9999999/1" value="0" leadInLength="0/1"  />
              <InterpolatingParam id="19037" interp="linr"  time="-9999999/1" value="0" leadInLength="0/1"  />
             </VectorParam>
             <InterpolatingParam id="19038" interp="linr"  time="-9999999/1" value="1" leadInLength="0/1"  name="opacity"/>
            </Parameters>
            <Attributes>
             <Attribute id="19039" value="" name="ident"/>
            </Attributes>
            <MetaData>
             <entry key="WinSubProjectDisplayName" val=""/>
            </MetaData>
            <ExtraData>
             <Entry key="ZoomPanBin">
              <ZoomPanBin id="19040"  >
               <ZoomPanKeyframes>
                <ZoomPanKeyframe id="19041" timeRangeEnd="-9999999/1" timeRangeDuration="0/1" interpolaterName=""  />
               </ZoomPanKeyframes>
              </ZoomPanBin>
             </Entry>
            </ExtraData>
           </IMFile>
           <VMFile id="19042" start="4143" duration="185" scalar="1/1" mediaStart="4130/1" mediaDuration="185/1" trackNumber="0" src="4" >
            <Transformer>
             <VectorParam id="19043"  name="translation">
              <InterpolatingParam id="19044" interp="linr"  time="-9999999/1" value="0" leadInLength="0/1"  />
              <InterpolatingParam id="19045" interp="linr"  time="-9999999/1" value="0" leadInLength="0/1"  />
              <InterpolatingParam id="19046" interp="linr"  time="-9999999/1" value="0" leadInLength="0/1"  />
             </VectorParam>
             <VectorParam id="19047"  name="rotation">
              <InterpolatingParam id="19048" interp="linr"  time="-9999999/1" value="0" leadInLength="0/1"  />
              <InterpolatingParam id="19049" interp="linr"  time="-9999999/1" value="0" leadInLength="0/1"  />
              <InterpolatingParam id="19050" interp="linr"  time="-9999999/1" value="0" leadInLength="0/1"  />
             </VectorParam>
             <VectorParam id="19051"  name="shear">
              <InterpolatingParam id="19052" interp="linr"  time="-9999999/1" value="0" leadInLength="0/1"  />
              <InterpolatingParam id="19053" interp="linr"  time="-9999999/1" value="0" leadInLength="0/1"  />
              <InterpolatingParam id="19054" interp="linr"  time="-9999999/1" value="0" leadInLength="0/1"  />
             </VectorParam>
             <VectorParam id="19055"  name="scale">
              <InterpolatingParam id="19056" interp="linr"  time="-9999999/1" value="1" leadInLength="0/1"  />
              <InterpolatingParam id="19057" interp="linr"  time="-9999999/1" value="1" leadInLength="0/1"  />
              <InterpolatingParam id="19058" interp="linr"  time="-9999999/1" value="1" leadInLength="0/1"  />
             </VectorParam>
             <VectorParam id="19059"  name="anchor">
              <InterpolatingParam id="19060" interp="linr"  time="0/1" value="0" leadInLength="0/1"  />
              <InterpolatingParam id="19061" interp="linr"  time="0/1" value="0" leadInLength="0/1"  />
              <InterpolatingParam id="19062" interp="linr"  time="0/1" value="0" leadInLength="0/1"  />
             </VectorParam>
            </Transformer>
            <Parameters>
             <VectorParam id="19063"  name="sourceCrop">
              <InterpolatingParam id="19064" interp="linr"  time="0/1" value="0" leadInLength="0/1"  />
              <InterpolatingParam id="19065" interp="linr"  time="0/1" value="0" leadInLength="0/1"  />
              <InterpolatingParam id="19066" interp="linr"  time="0/1" value="0" leadInLength="0/1"  />
              <InterpolatingParam id="19067" interp="linr"  time="0/1" value="0" leadInLength="0/1"  />
             </VectorParam>
             <VectorParam id="19068"  name="geometryCrop">
              <InterpolatingParam id="19069" interp="linr"  time="-9999999/1" value="0" leadInLength="0/1"  />
              <InterpolatingParam id="19070" interp="linr"  time="-9999999/1" value="0" leadInLength="0/1"  />
              <InterpolatingParam id="19071" interp="linr"  time="-9999999/1" value="0" leadInLength="0/1"  />
              <InterpolatingParam id="19072" interp="linr"  time="-9999999/1" value="0" leadInLength="0/1"  />
             </VectorParam>
             <InterpolatingParam id="19073" interp="linr"  time="-9999999/1" value="1" leadInLength="0/1"  name="opacity"/>
            </Parameters>
            <Attributes>
             <Attribute id="19074" value="" name="ident"/>
            </Attributes>
            <MetaData>
             <entry key="WinSubProjectDisplayName" val=""/>
            </MetaData>
            <ExtraData>
             <Entry key="ZoomPanBin">
              <ZoomPanBin id="19075"  >
               <ZoomPanKeyframes>
                <ZoomPanKeyframe id="19076" timeRangeEnd="-9999999/1" timeRangeDuration="0/1" interpolaterName=""  />
               </ZoomPanKeyframes>
              </ZoomPanBin>
             </Entry>
            </ExtraData>
           </VMFile>
           <IMFile id="19077" start="4328" duration="3" scalar="1/1" mediaStart="4315/1" mediaDuration="1/1" trackNumber="0" src="4" trimStartSum="0/1" >
            <Transformer>
             <VectorParam id="19078"  name="translation">
              <InterpolatingParam id="19079" interp="linr"  time="-9999999/1" value="0" leadInLength="0/1"  />
              <InterpolatingParam id="19080" interp="linr"  time="-9999999/1" value="0" leadInLength="0/1"  />
              <InterpolatingParam id="19081" interp="linr"  time="-9999999/1" value="0" leadInLength="0/1"  />
             </VectorParam>
             <VectorParam id="19082"  name="rotation">
              <InterpolatingParam id="19083" interp="linr"  time="-9999999/1" value="0" leadInLength="0/1"  />
              <InterpolatingParam id="19084" interp="linr"  time="-9999999/1" value="0" leadInLength="0/1"  />
              <InterpolatingParam id="19085" interp="linr"  time="-9999999/1" value="0" leadInLength="0/1"  />
             </VectorParam>
             <VectorParam id="19086"  name="shear">
              <InterpolatingParam id="19087" interp="linr"  time="-9999999/1" value="0" leadInLength="0/1"  />
              <InterpolatingParam id="19088" interp="linr"  time="-9999999/1" value="0" leadInLength="0/1"  />
              <InterpolatingParam id="19089" interp="linr"  time="-9999999/1" value="0" leadInLength="0/1"  />
             </VectorParam>
             <VectorParam id="19090"  name="scale">
              <InterpolatingParam id="19091" interp="linr"  time="-9999999/1" value="1" leadInLength="0/1"  />
              <InterpolatingParam id="19092" interp="linr"  time="-9999999/1" value="1" leadInLength="0/1"  />
              <InterpolatingParam id="19093" interp="linr"  time="-9999999/1" value="1" leadInLength="0/1"  />
             </VectorParam>
             <VectorParam id="19094"  name="anchor">
              <InterpolatingParam id="19095" interp="linr"  time="0/1" value="0" leadInLength="0/1"  />
              <InterpolatingParam id="19096" interp="linr"  time="0/1" value="0" leadInLength="0/1"  />
              <InterpolatingParam id="19097" interp="linr"  time="0/1" value="0" leadInLength="0/1"  />
             </VectorParam>
            </Transformer>
            <Parameters>
             <VectorParam id="19098"  name="sourceCrop">
              <InterpolatingParam id="19099" interp="linr"  time="0/1" value="0" leadInLength="0/1"  />
              <InterpolatingParam id="19100" interp="linr"  time="0/1" value="0" leadInLength="0/1"  />
              <InterpolatingParam id="19101" interp="linr"  time="0/1" value="0" leadInLength="0/1"  />
              <InterpolatingParam id="19102" interp="linr"  time="0/1" value="0" leadInLength="0/1"  />
             </VectorParam>
             <VectorParam id="19103"  name="geometryCrop">
              <InterpolatingParam id="19104" interp="linr"  time="-9999999/1" value="0" leadInLength="0/1"  />
              <InterpolatingParam id="19105" interp="linr"  time="-9999999/1" value="0" leadInLength="0/1"  />
              <InterpolatingParam id="19106" interp="linr"  time="-9999999/1" value="0" leadInLength="0/1"  />
              <InterpolatingParam id="19107" interp="linr"  time="-9999999/1" value="0" leadInLength="0/1"  />
             </VectorParam>
             <InterpolatingParam id="19108" interp="linr"  time="-9999999/1" value="1" leadInLength="0/1"  name="opacity"/>
            </Parameters>
            <Attributes>
             <Attribute id="19109" value="" name="ident"/>
            </Attributes>
            <MetaData>
             <entry key="WinSubProjectDisplayName" val=""/>
            </MetaData>
            <ExtraData>
             <Entry key="ZoomPanBin">
              <ZoomPanBin id="19110"  >
               <ZoomPanKeyframes>
                <ZoomPanKeyframe id="19111" timeRangeEnd="-9999999/1" timeRangeDuration="0/1" interpolaterName=""  />
               </ZoomPanKeyframes>
              </ZoomPanBin>
             </Entry>
            </ExtraData>
           </IMFile>
           <VMFile id="19112" start="4331" duration="31" scalar="1/1" mediaStart="4315/1" mediaDuration="31/1" trackNumber="0" src="4" >
            <Transformer>
             <VectorParam id="19113"  name="translation">
              <InterpolatingParam id="19114" interp="linr"  time="-9999999/1" value="0" leadInLength="0/1"  />
              <InterpolatingParam id="19115" interp="linr"  time="-9999999/1" value="0" leadInLength="0/1"  />
              <InterpolatingParam id="19116" interp="linr"  time="-9999999/1" value="0" leadInLength="0/1"  />
             </VectorParam>
             <VectorParam id="19117"  name="rotation">
              <InterpolatingParam id="19118" interp="linr"  time="-9999999/1" value="0" leadInLength="0/1"  />
              <InterpolatingParam id="19119" interp="linr"  time="-9999999/1" value="0" leadInLength="0/1"  />
              <InterpolatingParam id="19120" interp="linr"  time="-9999999/1" value="0" leadInLength="0/1"  />
             </VectorParam>
             <VectorParam id="19121"  name="shear">
              <InterpolatingParam id="19122" interp="linr"  time="-9999999/1" value="0" leadInLength="0/1"  />
              <InterpolatingParam id="19123" interp="linr"  time="-9999999/1" value="0" leadInLength="0/1"  />
              <InterpolatingParam id="19124" interp="linr"  time="-9999999/1" value="0" leadInLength="0/1"  />
             </VectorParam>
             <VectorParam id="19125"  name="scale">
              <InterpolatingParam id="19126" interp="linr"  time="-9999999/1" value="1" leadInLength="0/1"  />
              <InterpolatingParam id="19127" interp="linr"  time="-9999999/1" value="1" leadInLength="0/1"  />
              <InterpolatingParam id="19128" interp="linr"  time="-9999999/1" value="1" leadInLength="0/1"  />
             </VectorParam>
             <VectorParam id="19129"  name="anchor">
              <InterpolatingParam id="19130" interp="linr"  time="0/1" value="0" leadInLength="0/1"  />
              <InterpolatingParam id="19131" interp="linr"  time="0/1" value="0" leadInLength="0/1"  />
              <InterpolatingParam id="19132" interp="linr"  time="0/1" value="0" leadInLength="0/1"  />
             </VectorParam>
            </Transformer>
            <Parameters>
             <VectorParam id="19133"  name="sourceCrop">
              <InterpolatingParam id="19134" interp="linr"  time="0/1" value="0" leadInLength="0/1"  />
              <InterpolatingParam id="19135" interp="linr"  time="0/1" value="0" leadInLength="0/1"  />
              <InterpolatingParam id="19136" interp="linr"  time="0/1" value="0" leadInLength="0/1"  />
              <InterpolatingParam id="19137" interp="linr"  time="0/1" value="0" leadInLength="0/1"  />
             </VectorParam>
             <VectorParam id="19138"  name="geometryCrop">
              <InterpolatingParam id="19139" interp="linr"  time="-9999999/1" value="0" leadInLength="0/1"  />
              <InterpolatingParam id="19140" interp="linr"  time="-9999999/1" value="0" leadInLength="0/1"  />
              <InterpolatingParam id="19141" interp="linr"  time="-9999999/1" value="0" leadInLength="0/1"  />
              <InterpolatingParam id="19142" interp="linr"  time="-9999999/1" value="0" leadInLength="0/1"  />
             </VectorParam>
             <InterpolatingParam id="19143" interp="linr"  time="-9999999/1" value="1" leadInLength="0/1"  name="opacity"/>
            </Parameters>
            <Attributes>
             <Attribute id="19144" value="" name="ident"/>
            </Attributes>
            <MetaData>
             <entry key="WinSubProjectDisplayName" val=""/>
            </MetaData>
            <ExtraData>
             <Entry key="ZoomPanBin">
              <ZoomPanBin id="19145"  >
               <ZoomPanKeyframes>
                <ZoomPanKeyframe id="19146" timeRangeEnd="-9999999/1" timeRangeDuration="0/1" interpolaterName=""  />
               </ZoomPanKeyframes>
              </ZoomPanBin>
             </Entry>
            </ExtraData>
           </VMFile>
           <VMFile id="19147" start="4362" duration="95" scalar="1/1" mediaStart="4751/1" mediaDuration="95/1" trackNumber="0" src="4" >
            <Transformer>
             <VectorParam id="19148"  name="translation">
              <InterpolatingParam id="19149" interp="linr"  time="-9999999/1" value="0" leadInLength="0/1"  />
              <InterpolatingParam id="19150" interp="linr"  time="-9999999/1" value="0" leadInLength="0/1"  />
              <InterpolatingParam id="19151" interp="linr"  time="-9999999/1" value="0" leadInLength="0/1"  />
             </VectorParam>
             <VectorParam id="19152"  name="rotation">
              <InterpolatingParam id="19153" interp="linr"  time="-9999999/1" value="0" leadInLength="0/1"  />
              <InterpolatingParam id="19154" interp="linr"  time="-9999999/1" value="0" leadInLength="0/1"  />
              <InterpolatingParam id="19155" interp="linr"  time="-9999999/1" value="0" leadInLength="0/1"  />
             </VectorParam>
             <VectorParam id="19156"  name="shear">
              <InterpolatingParam id="19157" interp="linr"  time="-9999999/1" value="0" leadInLength="0/1"  />
              <InterpolatingParam id="19158" interp="linr"  time="-9999999/1" value="0" leadInLength="0/1"  />
              <InterpolatingParam id="19159" interp="linr"  time="-9999999/1" value="0" leadInLength="0/1"  />
             </VectorParam>
             <VectorParam id="19160"  name="scale">
              <InterpolatingParam id="19161" interp="linr"  time="-9999999/1" value="1" leadInLength="0/1"  />
              <InterpolatingParam id="19162" interp="linr"  time="-9999999/1" value="1" leadInLength="0/1"  />
              <InterpolatingParam id="19163" interp="linr"  time="-9999999/1" value="1" leadInLength="0/1"  />
             </VectorParam>
             <VectorParam id="19164"  name="anchor">
              <InterpolatingParam id="19165" interp="linr"  time="0/1" value="0" leadInLength="0/1"  />
              <InterpolatingParam id="19166" interp="linr"  time="0/1" value="0" leadInLength="0/1"  />
              <InterpolatingParam id="19167" interp="linr"  time="0/1" value="0" leadInLength="0/1"  />
             </VectorParam>
            </Transformer>
            <Parameters>
             <VectorParam id="19168"  name="sourceCrop">
              <InterpolatingParam id="19169" interp="linr"  time="0/1" value="0" leadInLength="0/1"  />
              <InterpolatingParam id="19170" interp="linr"  time="0/1" value="0" leadInLength="0/1"  />
              <InterpolatingParam id="19171" interp="linr"  time="0/1" value="0" leadInLength="0/1"  />
              <InterpolatingParam id="19172" interp="linr"  time="0/1" value="0" leadInLength="0/1"  />
             </VectorParam>
             <VectorParam id="19173"  name="geometryCrop">
              <InterpolatingParam id="19174" interp="linr"  time="-9999999/1" value="0" leadInLength="0/1"  />
              <InterpolatingParam id="19175" interp="linr"  time="-9999999/1" value="0" leadInLength="0/1"  />
              <InterpolatingParam id="19176" interp="linr"  time="-9999999/1" value="0" leadInLength="0/1"  />
              <InterpolatingParam id="19177" interp="linr"  time="-9999999/1" value="0" leadInLength="0/1"  />
             </VectorParam>
             <InterpolatingParam id="19178" interp="linr"  time="-9999999/1" value="1" leadInLength="0/1"  name="opacity"/>
            </Parameters>
            <Attributes>
             <Attribute id="19179" value="" name="ident"/>
            </Attributes>
            <MetaData>
             <entry key="WinSubProjectDisplayName" val=""/>
            </MetaData>
            <ExtraData>
             <Entry key="ZoomPanBin">
              <ZoomPanBin id="19180"  >
               <ZoomPanKeyframes>
                <ZoomPanKeyframe id="19181" timeRangeEnd="-9999999/1" timeRangeDuration="0/1" interpolaterName=""  />
               </ZoomPanKeyframes>
              </ZoomPanBin>
             </Entry>
            </ExtraData>
           </VMFile>
           <IMFile id="19182" start="4457" duration="270" scalar="1/1" mediaStart="4846/1" mediaDuration="1/1" trackNumber="0" src="4" trimStartSum="0/1" >
            <Transformer>
             <VectorParam id="19183"  name="translation">
              <InterpolatingParam id="19184" interp="linr"  time="-9999999/1" value="0" leadInLength="0/1"  />
              <InterpolatingParam id="19185" interp="linr"  time="-9999999/1" value="0" leadInLength="0/1"  />
              <InterpolatingParam id="19186" interp="linr"  time="-9999999/1" value="0" leadInLength="0/1"  />
             </VectorParam>
             <VectorParam id="19187"  name="rotation">
              <InterpolatingParam id="19188" interp="linr"  time="-9999999/1" value="0" leadInLength="0/1"  />
              <InterpolatingParam id="19189" interp="linr"  time="-9999999/1" value="0" leadInLength="0/1"  />
              <InterpolatingParam id="19190" interp="linr"  time="-9999999/1" value="0" leadInLength="0/1"  />
             </VectorParam>
             <VectorParam id="19191"  name="shear">
              <InterpolatingParam id="19192" interp="linr"  time="-9999999/1" value="0" leadInLength="0/1"  />
              <InterpolatingParam id="19193" interp="linr"  time="-9999999/1" value="0" leadInLength="0/1"  />
              <InterpolatingParam id="19194" interp="linr"  time="-9999999/1" value="0" leadInLength="0/1"  />
             </VectorParam>
             <VectorParam id="19195"  name="scale">
              <InterpolatingParam id="19196" interp="linr"  time="-9999999/1" value="1" leadInLength="0/1"  />
              <InterpolatingParam id="19197" interp="linr"  time="-9999999/1" value="1" leadInLength="0/1"  />
              <InterpolatingParam id="19198" interp="linr"  time="-9999999/1" value="1" leadInLength="0/1"  />
             </VectorParam>
             <VectorParam id="19199"  name="anchor">
              <InterpolatingParam id="19200" interp="linr"  time="0/1" value="0" leadInLength="0/1"  />
              <InterpolatingParam id="19201" interp="linr"  time="0/1" value="0" leadInLength="0/1"  />
              <InterpolatingParam id="19202" interp="linr"  time="0/1" value="0" leadInLength="0/1"  />
             </VectorParam>
            </Transformer>
            <Parameters>
             <VectorParam id="19203"  name="sourceCrop">
              <InterpolatingParam id="19204" interp="linr"  time="0/1" value="0" leadInLength="0/1"  />
              <InterpolatingParam id="19205" interp="linr"  time="0/1" value="0" leadInLength="0/1"  />
              <InterpolatingParam id="19206" interp="linr"  time="0/1" value="0" leadInLength="0/1"  />
              <InterpolatingParam id="19207" interp="linr"  time="0/1" value="0" leadInLength="0/1"  />
             </VectorParam>
             <VectorParam id="19208"  name="geometryCrop">
              <InterpolatingParam id="19209" interp="linr"  time="-9999999/1" value="0" leadInLength="0/1"  />
              <InterpolatingParam id="19210" interp="linr"  time="-9999999/1" value="0" leadInLength="0/1"  />
              <InterpolatingParam id="19211" interp="linr"  time="-9999999/1" value="0" leadInLength="0/1"  />
              <InterpolatingParam id="19212" interp="linr"  time="-9999999/1" value="0" leadInLength="0/1"  />
             </VectorParam>
             <InterpolatingParam id="19213" interp="linr"  time="-9999999/1" value="1" leadInLength="0/1"  name="opacity"/>
            </Parameters>
            <Attributes>
             <Attribute id="19214" value="" name="ident"/>
            </Attributes>
            <MetaData>
             <entry key="WinSubProjectDisplayName" val=""/>
            </MetaData>
            <ExtraData>
             <Entry key="ZoomPanBin">
              <ZoomPanBin id="19215"  >
               <ZoomPanKeyframes>
                <ZoomPanKeyframe id="19216" timeRangeEnd="-9999999/1" timeRangeDuration="0/1" interpolaterName=""  />
               </ZoomPanKeyframes>
              </ZoomPanBin>
             </Entry>
            </ExtraData>
           </IMFile>
           <VMFile id="19217" start="4727" duration="17" scalar="1/1" mediaStart="4846/1" mediaDuration="17/1" trackNumber="0" src="4" >
            <Transformer>
             <VectorParam id="19218"  name="translation">
              <InterpolatingParam id="19219" interp="linr"  time="-9999999/1" value="0" leadInLength="0/1"  />
              <InterpolatingParam id="19220" interp="linr"  time="-9999999/1" value="0" leadInLength="0/1"  />
              <InterpolatingParam id="19221" interp="linr"  time="-9999999/1" value="0" leadInLength="0/1"  />
             </VectorParam>
             <VectorParam id="19222"  name="rotation">
              <InterpolatingParam id="19223" interp="linr"  time="-9999999/1" value="0" leadInLength="0/1"  />
              <InterpolatingParam id="19224" interp="linr"  time="-9999999/1" value="0" leadInLength="0/1"  />
              <InterpolatingParam id="19225" interp="linr"  time="-9999999/1" value="0" leadInLength="0/1"  />
             </VectorParam>
             <VectorParam id="19226"  name="shear">
              <InterpolatingParam id="19227" interp="linr"  time="-9999999/1" value="0" leadInLength="0/1"  />
              <InterpolatingParam id="19228" interp="linr"  time="-9999999/1" value="0" leadInLength="0/1"  />
              <InterpolatingParam id="19229" interp="linr"  time="-9999999/1" value="0" leadInLength="0/1"  />
             </VectorParam>
             <VectorParam id="19230"  name="scale">
              <InterpolatingParam id="19231" interp="linr"  time="-9999999/1" value="1" leadInLength="0/1"  />
              <InterpolatingParam id="19232" interp="linr"  time="-9999999/1" value="1" leadInLength="0/1"  />
              <InterpolatingParam id="19233" interp="linr"  time="-9999999/1" value="1" leadInLength="0/1"  />
             </VectorParam>
             <VectorParam id="19234"  name="anchor">
              <InterpolatingParam id="19235" interp="linr"  time="0/1" value="0" leadInLength="0/1"  />
              <InterpolatingParam id="19236" interp="linr"  time="0/1" value="0" leadInLength="0/1"  />
              <InterpolatingParam id="19237" interp="linr"  time="0/1" value="0" leadInLength="0/1"  />
             </VectorParam>
            </Transformer>
            <Parameters>
             <VectorParam id="19238"  name="sourceCrop">
              <InterpolatingParam id="19239" interp="linr"  time="0/1" value="0" leadInLength="0/1"  />
              <InterpolatingParam id="19240" interp="linr"  time="0/1" value="0" leadInLength="0/1"  />
              <InterpolatingParam id="19241" interp="linr"  time="0/1" value="0" leadInLength="0/1"  />
              <InterpolatingParam id="19242" interp="linr"  time="0/1" value="0" leadInLength="0/1"  />
             </VectorParam>
             <VectorParam id="19243"  name="geometryCrop">
              <InterpolatingParam id="19244" interp="linr"  time="-9999999/1" value="0" leadInLength="0/1"  />
              <InterpolatingParam id="19245" interp="linr"  time="-9999999/1" value="0" leadInLength="0/1"  />
              <InterpolatingParam id="19246" interp="linr"  time="-9999999/1" value="0" leadInLength="0/1"  />
              <InterpolatingParam id="19247" interp="linr"  time="-9999999/1" value="0" leadInLength="0/1"  />
             </VectorParam>
             <InterpolatingParam id="19248" interp="linr"  time="-9999999/1" value="1" leadInLength="0/1"  name="opacity"/>
            </Parameters>
            <Attributes>
             <Attribute id="19249" value="" name="ident"/>
            </Attributes>
            <MetaData>
             <entry key="WinSubProjectDisplayName" val=""/>
            </MetaData>
            <ExtraData>
             <Entry key="ZoomPanBin">
              <ZoomPanBin id="19250"  >
               <ZoomPanKeyframes>
                <ZoomPanKeyframe id="19251" timeRangeEnd="-9999999/1" timeRangeDuration="0/1" interpolaterName=""  />
               </ZoomPanKeyframes>
              </ZoomPanBin>
             </Entry>
            </ExtraData>
           </VMFile>
           <VMFile id="19252" start="4744" duration="386" scalar="1/1" mediaStart="7805/1" mediaDuration="386/1" trackNumber="0" src="4" >
            <Transformer>
             <VectorParam id="19253"  name="translation">
              <InterpolatingParam id="19254" interp="linr"  time="-9999999/1" value="0" leadInLength="0/1"  />
              <InterpolatingParam id="19255" interp="linr"  time="-9999999/1" value="0" leadInLength="0/1"  />
              <InterpolatingParam id="19256" interp="linr"  time="-9999999/1" value="0" leadInLength="0/1"  />
             </VectorParam>
             <VectorParam id="19257"  name="rotation">
              <InterpolatingParam id="19258" interp="linr"  time="-9999999/1" value="0" leadInLength="0/1"  />
              <InterpolatingParam id="19259" interp="linr"  time="-9999999/1" value="0" leadInLength="0/1"  />
              <InterpolatingParam id="19260" interp="linr"  time="-9999999/1" value="0" leadInLength="0/1"  />
             </VectorParam>
             <VectorParam id="19261"  name="shear">
              <InterpolatingParam id="19262" interp="linr"  time="-9999999/1" value="0" leadInLength="0/1"  />
              <InterpolatingParam id="19263" interp="linr"  time="-9999999/1" value="0" leadInLength="0/1"  />
              <InterpolatingParam id="19264" interp="linr"  time="-9999999/1" value="0" leadInLength="0/1"  />
             </VectorParam>
             <VectorParam id="19265"  name="scale">
              <InterpolatingParam id="19266" interp="linr"  time="-9999999/1" value="1" leadInLength="0/1"  />
              <InterpolatingParam id="19267" interp="linr"  time="-9999999/1" value="1" leadInLength="0/1"  />
              <InterpolatingParam id="19268" interp="linr"  time="-9999999/1" value="1" leadInLength="0/1"  />
             </VectorParam>
             <VectorParam id="19269"  name="anchor">
              <InterpolatingParam id="19270" interp="linr"  time="0/1" value="0" leadInLength="0/1"  />
              <InterpolatingParam id="19271" interp="linr"  time="0/1" value="0" leadInLength="0/1"  />
              <InterpolatingParam id="19272" interp="linr"  time="0/1" value="0" leadInLength="0/1"  />
             </VectorParam>
            </Transformer>
            <Parameters>
             <VectorParam id="19273"  name="sourceCrop">
              <InterpolatingParam id="19274" interp="linr"  time="0/1" value="0" leadInLength="0/1"  />
              <InterpolatingParam id="19275" interp="linr"  time="0/1" value="0" leadInLength="0/1"  />
              <InterpolatingParam id="19276" interp="linr"  time="0/1" value="0" leadInLength="0/1"  />
              <InterpolatingParam id="19277" interp="linr"  time="0/1" value="0" leadInLength="0/1"  />
             </VectorParam>
             <VectorParam id="19278"  name="geometryCrop">
              <InterpolatingParam id="19279" interp="linr"  time="-9999999/1" value="0" leadInLength="0/1"  />
              <InterpolatingParam id="19280" interp="linr"  time="-9999999/1" value="0" leadInLength="0/1"  />
              <InterpolatingParam id="19281" interp="linr"  time="-9999999/1" value="0" leadInLength="0/1"  />
              <InterpolatingParam id="19282" interp="linr"  time="-9999999/1" value="0" leadInLength="0/1"  />
             </VectorParam>
             <InterpolatingParam id="19283" interp="linr"  time="-9999999/1" value="1" leadInLength="0/1"  name="opacity"/>
            </Parameters>
            <Attributes>
             <Attribute id="19284" value="" name="ident"/>
            </Attributes>
            <MetaData>
             <entry key="WinSubProjectDisplayName" val=""/>
            </MetaData>
            <ExtraData>
             <Entry key="ZoomPanBin">
              <ZoomPanBin id="19285"  >
               <ZoomPanKeyframes>
                <ZoomPanKeyframe id="19286" timeRangeEnd="-9999999/1" timeRangeDuration="0/1" interpolaterName=""  />
               </ZoomPanKeyframes>
              </ZoomPanBin>
             </Entry>
            </ExtraData>
           </VMFile>
           <VMFile id="19287" start="5130" duration="922" scalar="1/1" mediaStart="8371/1" mediaDuration="922/1" trackNumber="0" src="4" >
            <Transformer>
             <VectorParam id="19288"  name="translation">
              <InterpolatingParam id="19289" interp="linr"  time="-9999999/1" value="0" leadInLength="0/1"  />
              <InterpolatingParam id="19290" interp="linr"  time="-9999999/1" value="0" leadInLength="0/1"  />
              <InterpolatingParam id="19291" interp="linr"  time="-9999999/1" value="0" leadInLength="0/1"  />
             </VectorParam>
             <VectorParam id="19292"  name="rotation">
              <InterpolatingParam id="19293" interp="linr"  time="-9999999/1" value="0" leadInLength="0/1"  />
              <InterpolatingParam id="19294" interp="linr"  time="-9999999/1" value="0" leadInLength="0/1"  />
              <InterpolatingParam id="19295" interp="linr"  time="-9999999/1" value="0" leadInLength="0/1"  />
             </VectorParam>
             <VectorParam id="19296"  name="shear">
              <InterpolatingParam id="19297" interp="linr"  time="-9999999/1" value="0" leadInLength="0/1"  />
              <InterpolatingParam id="19298" interp="linr"  time="-9999999/1" value="0" leadInLength="0/1"  />
              <InterpolatingParam id="19299" interp="linr"  time="-9999999/1" value="0" leadInLength="0/1"  />
             </VectorParam>
             <VectorParam id="19300"  name="scale">
              <InterpolatingParam id="19301" interp="linr"  time="-9999999/1" value="1" leadInLength="0/1"  />
              <InterpolatingParam id="19302" interp="linr"  time="-9999999/1" value="1" leadInLength="0/1"  />
              <InterpolatingParam id="19303" interp="linr"  time="-9999999/1" value="1" leadInLength="0/1"  />
             </VectorParam>
             <VectorParam id="19304"  name="anchor">
              <InterpolatingParam id="19305" interp="linr"  time="0/1" value="0" leadInLength="0/1"  />
              <InterpolatingParam id="19306" interp="linr"  time="0/1" value="0" leadInLength="0/1"  />
              <InterpolatingParam id="19307" interp="linr"  time="0/1" value="0" leadInLength="0/1"  />
             </VectorParam>
            </Transformer>
            <Parameters>
             <VectorParam id="19308"  name="sourceCrop">
              <InterpolatingParam id="19309" interp="linr"  time="0/1" value="0" leadInLength="0/1"  />
              <InterpolatingParam id="19310" interp="linr"  time="0/1" value="0" leadInLength="0/1"  />
              <InterpolatingParam id="19311" interp="linr"  time="0/1" value="0" leadInLength="0/1"  />
              <InterpolatingParam id="19312" interp="linr"  time="0/1" value="0" leadInLength="0/1"  />
             </VectorParam>
             <VectorParam id="19313"  name="geometryCrop">
              <InterpolatingParam id="19314" interp="linr"  time="-9999999/1" value="0" leadInLength="0/1"  />
              <InterpolatingParam id="19315" interp="linr"  time="-9999999/1" value="0" leadInLength="0/1"  />
              <InterpolatingParam id="19316" interp="linr"  time="-9999999/1" value="0" leadInLength="0/1"  />
              <InterpolatingParam id="19317" interp="linr"  time="-9999999/1" value="0" leadInLength="0/1"  />
             </VectorParam>
             <InterpolatingParam id="19318" interp="linr"  time="-9999999/1" value="1" leadInLength="0/1"  name="opacity"/>
            </Parameters>
            <Attributes>
             <Attribute id="19319" value="" name="ident"/>
            </Attributes>
            <MetaData>
             <entry key="WinSubProjectDisplayName" val=""/>
            </MetaData>
            <ExtraData>
             <Entry key="ZoomPanBin">
              <ZoomPanBin id="19320"  >
               <ZoomPanKeyframes>
                <ZoomPanKeyframe id="19321" timeRangeEnd="-9999999/1" timeRangeDuration="0/1" interpolaterName=""  />
               </ZoomPanKeyframes>
              </ZoomPanBin>
             </Entry>
            </ExtraData>
           </VMFile>
           <IMFile id="19322" start="6052" duration="30" scalar="1/1" mediaStart="9292/1" mediaDuration="1/1" trackNumber="0" src="4" trimStartSum="0/1" >
            <Transformer>
             <VectorParam id="19323"  name="translation">
              <InterpolatingParam id="19324" interp="linr"  time="-9999999/1" value="0" leadInLength="0/1"  />
              <InterpolatingParam id="19325" interp="linr"  time="-9999999/1" value="0" leadInLength="0/1"  />
              <InterpolatingParam id="19326" interp="linr"  time="-9999999/1" value="0" leadInLength="0/1"  />
             </VectorParam>
             <VectorParam id="19327"  name="rotation">
              <InterpolatingParam id="19328" interp="linr"  time="-9999999/1" value="0" leadInLength="0/1"  />
              <InterpolatingParam id="19329" interp="linr"  time="-9999999/1" value="0" leadInLength="0/1"  />
              <InterpolatingParam id="19330" interp="linr"  time="-9999999/1" value="0" leadInLength="0/1"  />
             </VectorParam>
             <VectorParam id="19331"  name="shear">
              <InterpolatingParam id="19332" interp="linr"  time="-9999999/1" value="0" leadInLength="0/1"  />
              <InterpolatingParam id="19333" interp="linr"  time="-9999999/1" value="0" leadInLength="0/1"  />
              <InterpolatingParam id="19334" interp="linr"  time="-9999999/1" value="0" leadInLength="0/1"  />
             </VectorParam>
             <VectorParam id="19335"  name="scale">
              <InterpolatingParam id="19336" interp="linr"  time="-9999999/1" value="1" leadInLength="0/1"  />
              <InterpolatingParam id="19337" interp="linr"  time="-9999999/1" value="1" leadInLength="0/1"  />
              <InterpolatingParam id="19338" interp="linr"  time="-9999999/1" value="1" leadInLength="0/1"  />
             </VectorParam>
             <VectorParam id="19339"  name="anchor">
              <InterpolatingParam id="19340" interp="linr"  time="0/1" value="0" leadInLength="0/1"  />
              <InterpolatingParam id="19341" interp="linr"  time="0/1" value="0" leadInLength="0/1"  />
              <InterpolatingParam id="19342" interp="linr"  time="0/1" value="0" leadInLength="0/1"  />
             </VectorParam>
            </Transformer>
            <Parameters>
             <VectorParam id="19343"  name="sourceCrop">
              <InterpolatingParam id="19344" interp="linr"  time="0/1" value="0" leadInLength="0/1"  />
              <InterpolatingParam id="19345" interp="linr"  time="0/1" value="0" leadInLength="0/1"  />
              <InterpolatingParam id="19346" interp="linr"  time="0/1" value="0" leadInLength="0/1"  />
              <InterpolatingParam id="19347" interp="linr"  time="0/1" value="0" leadInLength="0/1"  />
             </VectorParam>
             <VectorParam id="19348"  name="geometryCrop">
              <InterpolatingParam id="19349" interp="linr"  time="-9999999/1" value="0" leadInLength="0/1"  />
              <InterpolatingParam id="19350" interp="linr"  time="-9999999/1" value="0" leadInLength="0/1"  />
              <InterpolatingParam id="19351" interp="linr"  time="-9999999/1" value="0" leadInLength="0/1"  />
              <InterpolatingParam id="19352" interp="linr"  time="-9999999/1" value="0" leadInLength="0/1"  />
             </VectorParam>
             <InterpolatingParam id="19353" interp="linr"  time="-9999999/1" value="1" leadInLength="0/1"  name="opacity"/>
            </Parameters>
            <Attributes>
             <Attribute id="19354" value="" name="ident"/>
            </Attributes>
            <MetaData>
             <entry key="WinSubProjectDisplayName" val=""/>
            </MetaData>
            <ExtraData>
             <Entry key="ZoomPanBin">
              <ZoomPanBin id="19355"  >
               <ZoomPanKeyframes>
                <ZoomPanKeyframe id="19356" timeRangeEnd="-9999999/1" timeRangeDuration="0/1" interpolaterName=""  />
               </ZoomPanKeyframes>
              </ZoomPanBin>
             </Entry>
            </ExtraData>
           </IMFile>
           <VMFile id="19357" start="6082" duration="86" scalar="1/1" mediaStart="9292/1" mediaDuration="86/1" trackNumber="0" src="4" >
            <Transformer>
             <VectorParam id="19358"  name="translation">
              <InterpolatingParam id="19359" interp="linr"  time="-9999999/1" value="0" leadInLength="0/1"  />
              <InterpolatingParam id="19360" interp="linr"  time="-9999999/1" value="0" leadInLength="0/1"  />
              <InterpolatingParam id="19361" interp="linr"  time="-9999999/1" value="0" leadInLength="0/1"  />
             </VectorParam>
             <VectorParam id="19362"  name="rotation">
              <InterpolatingParam id="19363" interp="linr"  time="-9999999/1" value="0" leadInLength="0/1"  />
              <InterpolatingParam id="19364" interp="linr"  time="-9999999/1" value="0" leadInLength="0/1"  />
              <InterpolatingParam id="19365" interp="linr"  time="-9999999/1" value="0" leadInLength="0/1"  />
             </VectorParam>
             <VectorParam id="19366"  name="shear">
              <InterpolatingParam id="19367" interp="linr"  time="-9999999/1" value="0" leadInLength="0/1"  />
              <InterpolatingParam id="19368" interp="linr"  time="-9999999/1" value="0" leadInLength="0/1"  />
              <InterpolatingParam id="19369" interp="linr"  time="-9999999/1" value="0" leadInLength="0/1"  />
             </VectorParam>
             <VectorParam id="19370"  name="scale">
              <InterpolatingParam id="19371" interp="linr"  time="-9999999/1" value="1" leadInLength="0/1"  />
              <InterpolatingParam id="19372" interp="linr"  time="-9999999/1" value="1" leadInLength="0/1"  />
              <InterpolatingParam id="19373" interp="linr"  time="-9999999/1" value="1" leadInLength="0/1"  />
             </VectorParam>
             <VectorParam id="19374"  name="anchor">
              <InterpolatingParam id="19375" interp="linr"  time="0/1" value="0" leadInLength="0/1"  />
              <InterpolatingParam id="19376" interp="linr"  time="0/1" value="0" leadInLength="0/1"  />
              <InterpolatingParam id="19377" interp="linr"  time="0/1" value="0" leadInLength="0/1"  />
             </VectorParam>
            </Transformer>
            <Parameters>
             <VectorParam id="19378"  name="sourceCrop">
              <InterpolatingParam id="19379" interp="linr"  time="0/1" value="0" leadInLength="0/1"  />
              <InterpolatingParam id="19380" interp="linr"  time="0/1" value="0" leadInLength="0/1"  />
              <InterpolatingParam id="19381" interp="linr"  time="0/1" value="0" leadInLength="0/1"  />
              <InterpolatingParam id="19382" interp="linr"  time="0/1" value="0" leadInLength="0/1"  />
             </VectorParam>
             <VectorParam id="19383"  name="geometryCrop">
              <InterpolatingParam id="19384" interp="linr"  time="-9999999/1" value="0" leadInLength="0/1"  />
              <InterpolatingParam id="19385" interp="linr"  time="-9999999/1" value="0" leadInLength="0/1"  />
              <InterpolatingParam id="19386" interp="linr"  time="-9999999/1" value="0" leadInLength="0/1"  />
              <InterpolatingParam id="19387" interp="linr"  time="-9999999/1" value="0" leadInLength="0/1"  />
             </VectorParam>
             <InterpolatingParam id="19388" interp="linr"  time="-9999999/1" value="1" leadInLength="0/1"  name="opacity"/>
            </Parameters>
            <Attributes>
             <Attribute id="19389" value="" name="ident"/>
            </Attributes>
            <MetaData>
             <entry key="WinSubProjectDisplayName" val=""/>
            </MetaData>
            <ExtraData>
             <Entry key="ZoomPanBin">
              <ZoomPanBin id="19390"  >
               <ZoomPanKeyframes>
                <ZoomPanKeyframe id="19391" timeRangeEnd="-9999999/1" timeRangeDuration="0/1" interpolaterName=""  />
               </ZoomPanKeyframes>
              </ZoomPanBin>
             </Entry>
            </ExtraData>
           </VMFile>
           <VMFile id="19392" start="6168" duration="555" scalar="1/1" mediaStart="9516/1" mediaDuration="555/1" trackNumber="0" src="4" >
            <Transformer>
             <VectorParam id="19393"  name="translation">
              <InterpolatingParam id="19394" interp="linr"  time="-9999999/1" value="0" leadInLength="0/1"  />
              <InterpolatingParam id="19395" interp="linr"  time="-9999999/1" value="0" leadInLength="0/1"  />
              <InterpolatingParam id="19396" interp="linr"  time="-9999999/1" value="0" leadInLength="0/1"  />
             </VectorParam>
             <VectorParam id="19397"  name="rotation">
              <InterpolatingParam id="19398" interp="linr"  time="-9999999/1" value="0" leadInLength="0/1"  />
              <InterpolatingParam id="19399" interp="linr"  time="-9999999/1" value="0" leadInLength="0/1"  />
              <InterpolatingParam id="19400" interp="linr"  time="-9999999/1" value="0" leadInLength="0/1"  />
             </VectorParam>
             <VectorParam id="19401"  name="shear">
              <InterpolatingParam id="19402" interp="linr"  time="-9999999/1" value="0" leadInLength="0/1"  />
              <InterpolatingParam id="19403" interp="linr"  time="-9999999/1" value="0" leadInLength="0/1"  />
              <InterpolatingParam id="19404" interp="linr"  time="-9999999/1" value="0" leadInLength="0/1"  />
             </VectorParam>
             <VectorParam id="19405"  name="scale">
              <InterpolatingParam id="19406" interp="linr"  time="-9999999/1" value="1" leadInLength="0/1"  />
              <InterpolatingParam id="19407" interp="linr"  time="-9999999/1" value="1" leadInLength="0/1"  />
              <InterpolatingParam id="19408" interp="linr"  time="-9999999/1" value="1" leadInLength="0/1"  />
             </VectorParam>
             <VectorParam id="19409"  name="anchor">
              <InterpolatingParam id="19410" interp="linr"  time="0/1" value="0" leadInLength="0/1"  />
              <InterpolatingParam id="19411" interp="linr"  time="0/1" value="0" leadInLength="0/1"  />
              <InterpolatingParam id="19412" interp="linr"  time="0/1" value="0" leadInLength="0/1"  />
             </VectorParam>
            </Transformer>
            <Parameters>
             <VectorParam id="19413"  name="sourceCrop">
              <InterpolatingParam id="19414" interp="linr"  time="0/1" value="0" leadInLength="0/1"  />
              <InterpolatingParam id="19415" interp="linr"  time="0/1" value="0" leadInLength="0/1"  />
              <InterpolatingParam id="19416" interp="linr"  time="0/1" value="0" leadInLength="0/1"  />
              <InterpolatingParam id="19417" interp="linr"  time="0/1" value="0" leadInLength="0/1"  />
             </VectorParam>
             <VectorParam id="19418"  name="geometryCrop">
              <InterpolatingParam id="19419" interp="linr"  time="-9999999/1" value="0" leadInLength="0/1"  />
              <InterpolatingParam id="19420" interp="linr"  time="-9999999/1" value="0" leadInLength="0/1"  />
              <InterpolatingParam id="19421" interp="linr"  time="-9999999/1" value="0" leadInLength="0/1"  />
              <InterpolatingParam id="19422" interp="linr"  time="-9999999/1" value="0" leadInLength="0/1"  />
             </VectorParam>
             <InterpolatingParam id="19423" interp="linr"  time="-9999999/1" value="1" leadInLength="0/1"  name="opacity"/>
            </Parameters>
            <Attributes>
             <Attribute id="19424" value="" name="ident"/>
            </Attributes>
            <MetaData>
             <entry key="WinSubProjectDisplayName" val=""/>
            </MetaData>
            <ExtraData>
             <Entry key="ZoomPanBin">
              <ZoomPanBin id="19425"  >
               <ZoomPanKeyframes>
                <ZoomPanKeyframe id="19426" timeRangeEnd="-9999999/1" timeRangeDuration="0/1" interpolaterName=""  />
               </ZoomPanKeyframes>
              </ZoomPanBin>
             </Entry>
            </ExtraData>
           </VMFile>
           <VMFile id="19427" start="6723" duration="460" scalar="1/1" mediaStart="11597/1" mediaDuration="460/1" trackNumber="0" src="4" >
            <Transformer>
             <VectorParam id="19428"  name="translation">
              <InterpolatingParam id="19429" interp="linr"  time="-9999999/1" value="0" leadInLength="0/1"  />
              <InterpolatingParam id="19430" interp="linr"  time="-9999999/1" value="0" leadInLength="0/1"  />
              <InterpolatingParam id="19431" interp="linr"  time="-9999999/1" value="0" leadInLength="0/1"  />
             </VectorParam>
             <VectorParam id="19432"  name="rotation">
              <InterpolatingParam id="19433" interp="linr"  time="-9999999/1" value="0" leadInLength="0/1"  />
              <InterpolatingParam id="19434" interp="linr"  time="-9999999/1" value="0" leadInLength="0/1"  />
              <InterpolatingParam id="19435" interp="linr"  time="-9999999/1" value="0" leadInLength="0/1"  />
             </VectorParam>
             <VectorParam id="19436"  name="shear">
              <InterpolatingParam id="19437" interp="linr"  time="-9999999/1" value="0" leadInLength="0/1"  />
              <InterpolatingParam id="19438" interp="linr"  time="-9999999/1" value="0" leadInLength="0/1"  />
              <InterpolatingParam id="19439" interp="linr"  time="-9999999/1" value="0" leadInLength="0/1"  />
             </VectorParam>
             <VectorParam id="19440"  name="scale">
              <InterpolatingParam id="19441" interp="linr"  time="-9999999/1" value="1" leadInLength="0/1"  />
              <InterpolatingParam id="19442" interp="linr"  time="-9999999/1" value="1" leadInLength="0/1"  />
              <InterpolatingParam id="19443" interp="linr"  time="-9999999/1" value="1" leadInLength="0/1"  />
             </VectorParam>
             <VectorParam id="19444"  name="anchor">
              <InterpolatingParam id="19445" interp="linr"  time="0/1" value="0" leadInLength="0/1"  />
              <InterpolatingParam id="19446" interp="linr"  time="0/1" value="0" leadInLength="0/1"  />
              <InterpolatingParam id="19447" interp="linr"  time="0/1" value="0" leadInLength="0/1"  />
             </VectorParam>
            </Transformer>
            <Parameters>
             <VectorParam id="19448"  name="sourceCrop">
              <InterpolatingParam id="19449" interp="linr"  time="0/1" value="0" leadInLength="0/1"  />
              <InterpolatingParam id="19450" interp="linr"  time="0/1" value="0" leadInLength="0/1"  />
              <InterpolatingParam id="19451" interp="linr"  time="0/1" value="0" leadInLength="0/1"  />
              <InterpolatingParam id="19452" interp="linr"  time="0/1" value="0" leadInLength="0/1"  />
             </VectorParam>
             <VectorParam id="19453"  name="geometryCrop">
              <InterpolatingParam id="19454" interp="linr"  time="-9999999/1" value="0" leadInLength="0/1"  />
              <InterpolatingParam id="19455" interp="linr"  time="-9999999/1" value="0" leadInLength="0/1"  />
              <InterpolatingParam id="19456" interp="linr"  time="-9999999/1" value="0" leadInLength="0/1"  />
              <InterpolatingParam id="19457" interp="linr"  time="-9999999/1" value="0" leadInLength="0/1"  />
             </VectorParam>
             <InterpolatingParam id="19458" interp="linr"  time="-9999999/1" value="1" leadInLength="0/1"  name="opacity"/>
            </Parameters>
            <Attributes>
             <Attribute id="19459" value="" name="ident"/>
            </Attributes>
            <MetaData>
             <entry key="WinSubProjectDisplayName" val=""/>
            </MetaData>
            <ExtraData>
             <Entry key="ZoomPanBin">
              <ZoomPanBin id="19460"  >
               <ZoomPanKeyframes>
                <ZoomPanKeyframe id="19461" timeRangeEnd="-9999999/1" timeRangeDuration="0/1" interpolaterName=""  />
               </ZoomPanKeyframes>
              </ZoomPanBin>
             </Entry>
            </ExtraData>
           </VMFile>
           <VMFile id="19462" start="7183" duration="350" scalar="1/1" mediaStart="12237/1" mediaDuration="350/1" trackNumber="0" src="4" >
            <Transformer>
             <VectorParam id="19463"  name="translation">
              <InterpolatingParam id="19464" interp="linr"  time="-9999999/1" value="0" leadInLength="0/1"  />
              <InterpolatingParam id="19465" interp="linr"  time="-9999999/1" value="0" leadInLength="0/1"  />
              <InterpolatingParam id="19466" interp="linr"  time="-9999999/1" value="0" leadInLength="0/1"  />
             </VectorParam>
             <VectorParam id="19467"  name="rotation">
              <InterpolatingParam id="19468" interp="linr"  time="-9999999/1" value="0" leadInLength="0/1"  />
              <InterpolatingParam id="19469" interp="linr"  time="-9999999/1" value="0" leadInLength="0/1"  />
              <InterpolatingParam id="19470" interp="linr"  time="-9999999/1" value="0" leadInLength="0/1"  />
             </VectorParam>
             <VectorParam id="19471"  name="shear">
              <InterpolatingParam id="19472" interp="linr"  time="-9999999/1" value="0" leadInLength="0/1"  />
              <InterpolatingParam id="19473" interp="linr"  time="-9999999/1" value="0" leadInLength="0/1"  />
              <InterpolatingParam id="19474" interp="linr"  time="-9999999/1" value="0" leadInLength="0/1"  />
             </VectorParam>
             <VectorParam id="19475"  name="scale">
              <InterpolatingParam id="19476" interp="linr"  time="-9999999/1" value="1" leadInLength="0/1"  />
              <InterpolatingParam id="19477" interp="linr"  time="-9999999/1" value="1" leadInLength="0/1"  />
              <InterpolatingParam id="19478" interp="linr"  time="-9999999/1" value="1" leadInLength="0/1"  />
             </VectorParam>
             <VectorParam id="19479"  name="anchor">
              <InterpolatingParam id="19480" interp="linr"  time="0/1" value="0" leadInLength="0/1"  />
              <InterpolatingParam id="19481" interp="linr"  time="0/1" value="0" leadInLength="0/1"  />
              <InterpolatingParam id="19482" interp="linr"  time="0/1" value="0" leadInLength="0/1"  />
             </VectorParam>
            </Transformer>
            <Parameters>
             <VectorParam id="19483"  name="sourceCrop">
              <InterpolatingParam id="19484" interp="linr"  time="0/1" value="0" leadInLength="0/1"  />
              <InterpolatingParam id="19485" interp="linr"  time="0/1" value="0" leadInLength="0/1"  />
              <InterpolatingParam id="19486" interp="linr"  time="0/1" value="0" leadInLength="0/1"  />
              <InterpolatingParam id="19487" interp="linr"  time="0/1" value="0" leadInLength="0/1"  />
             </VectorParam>
             <VectorParam id="19488"  name="geometryCrop">
              <InterpolatingParam id="19489" interp="linr"  time="-9999999/1" value="0" leadInLength="0/1"  />
              <InterpolatingParam id="19490" interp="linr"  time="-9999999/1" value="0" leadInLength="0/1"  />
              <InterpolatingParam id="19491" interp="linr"  time="-9999999/1" value="0" leadInLength="0/1"  />
              <InterpolatingParam id="19492" interp="linr"  time="-9999999/1" value="0" leadInLength="0/1"  />
             </VectorParam>
             <InterpolatingParam id="19493" interp="linr"  time="-9999999/1" value="1" leadInLength="0/1"  name="opacity"/>
            </Parameters>
            <Attributes>
             <Attribute id="19494" value="" name="ident"/>
            </Attributes>
            <MetaData>
             <entry key="WinSubProjectDisplayName" val=""/>
            </MetaData>
            <ExtraData>
             <Entry key="ZoomPanBin">
              <ZoomPanBin id="19495"  >
               <ZoomPanKeyframes>
                <ZoomPanKeyframe id="19496" timeRangeEnd="-9999999/1" timeRangeDuration="0/1" interpolaterName=""  />
               </ZoomPanKeyframes>
              </ZoomPanBin>
             </Entry>
            </ExtraData>
           </VMFile>
           <VMFile id="19497" start="7533" duration="109" scalar="1/1" mediaStart="15765/1" mediaDuration="109/1" trackNumber="0" src="4" >
            <Transformer>
             <VectorParam id="19498"  name="translation">
              <InterpolatingParam id="19499" interp="linr"  time="-9999999/1" value="0" leadInLength="0/1"  />
              <InterpolatingParam id="19500" interp="linr"  time="-9999999/1" value="0" leadInLength="0/1"  />
              <InterpolatingParam id="19501" interp="linr"  time="-9999999/1" value="0" leadInLength="0/1"  />
             </VectorParam>
             <VectorParam id="19502"  name="rotation">
              <InterpolatingParam id="19503" interp="linr"  time="-9999999/1" value="0" leadInLength="0/1"  />
              <InterpolatingParam id="19504" interp="linr"  time="-9999999/1" value="0" leadInLength="0/1"  />
              <InterpolatingParam id="19505" interp="linr"  time="-9999999/1" value="0" leadInLength="0/1"  />
             </VectorParam>
             <VectorParam id="19506"  name="shear">
              <InterpolatingParam id="19507" interp="linr"  time="-9999999/1" value="0" leadInLength="0/1"  />
              <InterpolatingParam id="19508" interp="linr"  time="-9999999/1" value="0" leadInLength="0/1"  />
              <InterpolatingParam id="19509" interp="linr"  time="-9999999/1" value="0" leadInLength="0/1"  />
             </VectorParam>
             <VectorParam id="19510"  name="scale">
              <InterpolatingParam id="19511" interp="linr"  time="-9999999/1" value="1" leadInLength="0/1"  />
              <InterpolatingParam id="19512" interp="linr"  time="-9999999/1" value="1" leadInLength="0/1"  />
              <InterpolatingParam id="19513" interp="linr"  time="-9999999/1" value="1" leadInLength="0/1"  />
             </VectorParam>
             <VectorParam id="19514"  name="anchor">
              <InterpolatingParam id="19515" interp="linr"  time="0/1" value="0" leadInLength="0/1"  />
              <InterpolatingParam id="19516" interp="linr"  time="0/1" value="0" leadInLength="0/1"  />
              <InterpolatingParam id="19517" interp="linr"  time="0/1" value="0" leadInLength="0/1"  />
             </VectorParam>
            </Transformer>
            <Parameters>
             <VectorParam id="19518"  name="sourceCrop">
              <InterpolatingParam id="19519" interp="linr"  time="0/1" value="0" leadInLength="0/1"  />
              <InterpolatingParam id="19520" interp="linr"  time="0/1" value="0" leadInLength="0/1"  />
              <InterpolatingParam id="19521" interp="linr"  time="0/1" value="0" leadInLength="0/1"  />
              <InterpolatingParam id="19522" interp="linr"  time="0/1" value="0" leadInLength="0/1"  />
             </VectorParam>
             <VectorParam id="19523"  name="geometryCrop">
              <InterpolatingParam id="19524" interp="linr"  time="-9999999/1" value="0" leadInLength="0/1"  />
              <InterpolatingParam id="19525" interp="linr"  time="-9999999/1" value="0" leadInLength="0/1"  />
              <InterpolatingParam id="19526" interp="linr"  time="-9999999/1" value="0" leadInLength="0/1"  />
              <InterpolatingParam id="19527" interp="linr"  time="-9999999/1" value="0" leadInLength="0/1"  />
             </VectorParam>
             <InterpolatingParam id="19528" interp="linr"  time="-9999999/1" value="1" leadInLength="0/1"  name="opacity"/>
            </Parameters>
            <Attributes>
             <Attribute id="19529" value="" name="ident"/>
            </Attributes>
            <MetaData>
             <entry key="WinSubProjectDisplayName" val=""/>
            </MetaData>
            <ExtraData>
             <Entry key="ZoomPanBin">
              <ZoomPanBin id="19530"  >
               <ZoomPanKeyframes>
                <ZoomPanKeyframe id="19531" timeRangeEnd="-9999999/1" timeRangeDuration="0/1" interpolaterName=""  />
               </ZoomPanKeyframes>
              </ZoomPanBin>
             </Entry>
            </ExtraData>
           </VMFile>
           <IMFile id="19532" start="7642" duration="451" scalar="1/1" mediaStart="15873/1" mediaDuration="1/1" trackNumber="0" src="4" trimStartSum="0/1" >
            <Transformer>
             <VectorParam id="19533"  name="translation">
              <InterpolatingParam id="19534" interp="linr"  time="-9999999/1" value="0" leadInLength="0/1"  />
              <InterpolatingParam id="19535" interp="linr"  time="-9999999/1" value="0" leadInLength="0/1"  />
              <InterpolatingParam id="19536" interp="linr"  time="-9999999/1" value="0" leadInLength="0/1"  />
             </VectorParam>
             <VectorParam id="19537"  name="rotation">
              <InterpolatingParam id="19538" interp="linr"  time="-9999999/1" value="0" leadInLength="0/1"  />
              <InterpolatingParam id="19539" interp="linr"  time="-9999999/1" value="0" leadInLength="0/1"  />
              <InterpolatingParam id="19540" interp="linr"  time="-9999999/1" value="0" leadInLength="0/1"  />
             </VectorParam>
             <VectorParam id="19541"  name="shear">
              <InterpolatingParam id="19542" interp="linr"  time="-9999999/1" value="0" leadInLength="0/1"  />
              <InterpolatingParam id="19543" interp="linr"  time="-9999999/1" value="0" leadInLength="0/1"  />
              <InterpolatingParam id="19544" interp="linr"  time="-9999999/1" value="0" leadInLength="0/1"  />
             </VectorParam>
             <VectorParam id="19545"  name="scale">
              <InterpolatingParam id="19546" interp="linr"  time="-9999999/1" value="1" leadInLength="0/1"  />
              <InterpolatingParam id="19547" interp="linr"  time="-9999999/1" value="1" leadInLength="0/1"  />
              <InterpolatingParam id="19548" interp="linr"  time="-9999999/1" value="1" leadInLength="0/1"  />
             </VectorParam>
             <VectorParam id="19549"  name="anchor">
              <InterpolatingParam id="19550" interp="linr"  time="0/1" value="0" leadInLength="0/1"  />
              <InterpolatingParam id="19551" interp="linr"  time="0/1" value="0" leadInLength="0/1"  />
              <InterpolatingParam id="19552" interp="linr"  time="0/1" value="0" leadInLength="0/1"  />
             </VectorParam>
            </Transformer>
            <Parameters>
             <VectorParam id="19553"  name="sourceCrop">
              <InterpolatingParam id="19554" interp="linr"  time="0/1" value="0" leadInLength="0/1"  />
              <InterpolatingParam id="19555" interp="linr"  time="0/1" value="0" leadInLength="0/1"  />
              <InterpolatingParam id="19556" interp="linr"  time="0/1" value="0" leadInLength="0/1"  />
              <InterpolatingParam id="19557" interp="linr"  time="0/1" value="0" leadInLength="0/1"  />
             </VectorParam>
             <VectorParam id="19558"  name="geometryCrop">
              <InterpolatingParam id="19559" interp="linr"  time="-9999999/1" value="0" leadInLength="0/1"  />
              <InterpolatingParam id="19560" interp="linr"  time="-9999999/1" value="0" leadInLength="0/1"  />
              <InterpolatingParam id="19561" interp="linr"  time="-9999999/1" value="0" leadInLength="0/1"  />
              <InterpolatingParam id="19562" interp="linr"  time="-9999999/1" value="0" leadInLength="0/1"  />
             </VectorParam>
             <InterpolatingParam id="19563" interp="linr"  time="-9999999/1" value="1" leadInLength="0/1"  name="opacity"/>
            </Parameters>
            <Attributes>
             <Attribute id="19564" value="" name="ident"/>
            </Attributes>
            <MetaData>
             <entry key="WinSubProjectDisplayName" val=""/>
            </MetaData>
            <ExtraData>
             <Entry key="ZoomPanBin">
              <ZoomPanBin id="19565"  >
               <ZoomPanKeyframes>
                <ZoomPanKeyframe id="19566" timeRangeEnd="-9999999/1" timeRangeDuration="0/1" interpolaterName=""  />
               </ZoomPanKeyframes>
              </ZoomPanBin>
             </Entry>
            </ExtraData>
           </IMFile>
           <VMFile id="19567" start="8093" duration="21" scalar="1/1" mediaStart="15872/1" mediaDuration="21/1" trackNumber="0" src="4" >
            <Transformer>
             <VectorParam id="19568"  name="translation">
              <InterpolatingParam id="19569" interp="linr"  time="-9999999/1" value="0" leadInLength="0/1"  />
              <InterpolatingParam id="19570" interp="linr"  time="-9999999/1" value="0" leadInLength="0/1"  />
              <InterpolatingParam id="19571" interp="linr"  time="-9999999/1" value="0" leadInLength="0/1"  />
             </VectorParam>
             <VectorParam id="19572"  name="rotation">
              <InterpolatingParam id="19573" interp="linr"  time="-9999999/1" value="0" leadInLength="0/1"  />
              <InterpolatingParam id="19574" interp="linr"  time="-9999999/1" value="0" leadInLength="0/1"  />
              <InterpolatingParam id="19575" interp="linr"  time="-9999999/1" value="0" leadInLength="0/1"  />
             </VectorParam>
             <VectorParam id="19576"  name="shear">
              <InterpolatingParam id="19577" interp="linr"  time="-9999999/1" value="0" leadInLength="0/1"  />
              <InterpolatingParam id="19578" interp="linr"  time="-9999999/1" value="0" leadInLength="0/1"  />
              <InterpolatingParam id="19579" interp="linr"  time="-9999999/1" value="0" leadInLength="0/1"  />
             </VectorParam>
             <VectorParam id="19580"  name="scale">
              <InterpolatingParam id="19581" interp="linr"  time="-9999999/1" value="1" leadInLength="0/1"  />
              <InterpolatingParam id="19582" interp="linr"  time="-9999999/1" value="1" leadInLength="0/1"  />
              <InterpolatingParam id="19583" interp="linr"  time="-9999999/1" value="1" leadInLength="0/1"  />
             </VectorParam>
             <VectorParam id="19584"  name="anchor">
              <InterpolatingParam id="19585" interp="linr"  time="0/1" value="0" leadInLength="0/1"  />
              <InterpolatingParam id="19586" interp="linr"  time="0/1" value="0" leadInLength="0/1"  />
              <InterpolatingParam id="19587" interp="linr"  time="0/1" value="0" leadInLength="0/1"  />
             </VectorParam>
            </Transformer>
            <Parameters>
             <VectorParam id="19588"  name="sourceCrop">
              <InterpolatingParam id="19589" interp="linr"  time="0/1" value="0" leadInLength="0/1"  />
              <InterpolatingParam id="19590" interp="linr"  time="0/1" value="0" leadInLength="0/1"  />
              <InterpolatingParam id="19591" interp="linr"  time="0/1" value="0" leadInLength="0/1"  />
              <InterpolatingParam id="19592" interp="linr"  time="0/1" value="0" leadInLength="0/1"  />
             </VectorParam>
             <VectorParam id="19593"  name="geometryCrop">
              <InterpolatingParam id="19594" interp="linr"  time="-9999999/1" value="0" leadInLength="0/1"  />
              <InterpolatingParam id="19595" interp="linr"  time="-9999999/1" value="0" leadInLength="0/1"  />
              <InterpolatingParam id="19596" interp="linr"  time="-9999999/1" value="0" leadInLength="0/1"  />
              <InterpolatingParam id="19597" interp="linr"  time="-9999999/1" value="0" leadInLength="0/1"  />
             </VectorParam>
             <InterpolatingParam id="19598" interp="linr"  time="-9999999/1" value="1" leadInLength="0/1"  name="opacity"/>
            </Parameters>
            <Attributes>
             <Attribute id="19599" value="" name="ident"/>
            </Attributes>
            <MetaData>
             <entry key="WinSubProjectDisplayName" val=""/>
            </MetaData>
            <ExtraData>
             <Entry key="ZoomPanBin">
              <ZoomPanBin id="19600"  >
               <ZoomPanKeyframes>
                <ZoomPanKeyframe id="19601" timeRangeEnd="-9999999/1" timeRangeDuration="0/1" interpolaterName=""  />
               </ZoomPanKeyframes>
              </ZoomPanBin>
             </Entry>
            </ExtraData>
           </VMFile>
           <VMFile id="19602" start="8114" duration="615" scalar="1/1" mediaStart="15918/1" mediaDuration="615/1" trackNumber="0" src="4" >
            <Transformer>
             <VectorParam id="19603"  name="translation">
              <InterpolatingParam id="19604" interp="linr"  time="-9999999/1" value="0" leadInLength="0/1"  />
              <InterpolatingParam id="19605" interp="linr"  time="-9999999/1" value="0" leadInLength="0/1"  />
              <InterpolatingParam id="19606" interp="linr"  time="-9999999/1" value="0" leadInLength="0/1"  />
             </VectorParam>
             <VectorParam id="19607"  name="rotation">
              <InterpolatingParam id="19608" interp="linr"  time="-9999999/1" value="0" leadInLength="0/1"  />
              <InterpolatingParam id="19609" interp="linr"  time="-9999999/1" value="0" leadInLength="0/1"  />
              <InterpolatingParam id="19610" interp="linr"  time="-9999999/1" value="0" leadInLength="0/1"  />
             </VectorParam>
             <VectorParam id="19611"  name="shear">
              <InterpolatingParam id="19612" interp="linr"  time="-9999999/1" value="0" leadInLength="0/1"  />
              <InterpolatingParam id="19613" interp="linr"  time="-9999999/1" value="0" leadInLength="0/1"  />
              <InterpolatingParam id="19614" interp="linr"  time="-9999999/1" value="0" leadInLength="0/1"  />
             </VectorParam>
             <VectorParam id="19615"  name="scale">
              <InterpolatingParam id="19616" interp="linr"  time="-9999999/1" value="1" leadInLength="0/1"  />
              <InterpolatingParam id="19617" interp="linr"  time="-9999999/1" value="1" leadInLength="0/1"  />
              <InterpolatingParam id="19618" interp="linr"  time="-9999999/1" value="1" leadInLength="0/1"  />
             </VectorParam>
             <VectorParam id="19619"  name="anchor">
              <InterpolatingParam id="19620" interp="linr"  time="0/1" value="0" leadInLength="0/1"  />
              <InterpolatingParam id="19621" interp="linr"  time="0/1" value="0" leadInLength="0/1"  />
              <InterpolatingParam id="19622" interp="linr"  time="0/1" value="0" leadInLength="0/1"  />
             </VectorParam>
            </Transformer>
            <Parameters>
             <VectorParam id="19623"  name="sourceCrop">
              <InterpolatingParam id="19624" interp="linr"  time="0/1" value="0" leadInLength="0/1"  />
              <InterpolatingParam id="19625" interp="linr"  time="0/1" value="0" leadInLength="0/1"  />
              <InterpolatingParam id="19626" interp="linr"  time="0/1" value="0" leadInLength="0/1"  />
              <InterpolatingParam id="19627" interp="linr"  time="0/1" value="0" leadInLength="0/1"  />
             </VectorParam>
             <VectorParam id="19628"  name="geometryCrop">
              <InterpolatingParam id="19629" interp="linr"  time="-9999999/1" value="0" leadInLength="0/1"  />
              <InterpolatingParam id="19630" interp="linr"  time="-9999999/1" value="0" leadInLength="0/1"  />
              <InterpolatingParam id="19631" interp="linr"  time="-9999999/1" value="0" leadInLength="0/1"  />
              <InterpolatingParam id="19632" interp="linr"  time="-9999999/1" value="0" leadInLength="0/1"  />
             </VectorParam>
             <InterpolatingParam id="19633" interp="linr"  time="-9999999/1" value="1" leadInLength="0/1"  name="opacity"/>
            </Parameters>
            <Attributes>
             <Attribute id="19634" value="" name="ident"/>
            </Attributes>
            <MetaData>
             <entry key="WinSubProjectDisplayName" val=""/>
            </MetaData>
            <ExtraData>
             <Entry key="ZoomPanBin">
              <ZoomPanBin id="19635"  >
               <ZoomPanKeyframes>
                <ZoomPanKeyframe id="19636" timeRangeEnd="-9999999/1" timeRangeDuration="0/1" interpolaterName=""  />
               </ZoomPanKeyframes>
              </ZoomPanBin>
             </Entry>
            </ExtraData>
           </VMFile>
           <VMFile id="19637" start="8729" duration="323" scalar="1/1" mediaStart="16694/1" mediaDuration="323/1" trackNumber="0" src="4" >
            <Transformer>
             <VectorParam id="19638"  name="translation">
              <InterpolatingParam id="19639" interp="linr"  time="-9999999/1" value="0" leadInLength="0/1"  />
              <InterpolatingParam id="19640" interp="linr"  time="-9999999/1" value="0" leadInLength="0/1"  />
              <InterpolatingParam id="19641" interp="linr"  time="-9999999/1" value="0" leadInLength="0/1"  />
             </VectorParam>
             <VectorParam id="19642"  name="rotation">
              <InterpolatingParam id="19643" interp="linr"  time="-9999999/1" value="0" leadInLength="0/1"  />
              <InterpolatingParam id="19644" interp="linr"  time="-9999999/1" value="0" leadInLength="0/1"  />
              <InterpolatingParam id="19645" interp="linr"  time="-9999999/1" value="0" leadInLength="0/1"  />
             </VectorParam>
             <VectorParam id="19646"  name="shear">
              <InterpolatingParam id="19647" interp="linr"  time="-9999999/1" value="0" leadInLength="0/1"  />
              <InterpolatingParam id="19648" interp="linr"  time="-9999999/1" value="0" leadInLength="0/1"  />
              <InterpolatingParam id="19649" interp="linr"  time="-9999999/1" value="0" leadInLength="0/1"  />
             </VectorParam>
             <VectorParam id="19650"  name="scale">
              <InterpolatingParam id="19651" interp="linr"  time="-9999999/1" value="1" leadInLength="0/1"  />
              <InterpolatingParam id="19652" interp="linr"  time="-9999999/1" value="1" leadInLength="0/1"  />
              <InterpolatingParam id="19653" interp="linr"  time="-9999999/1" value="1" leadInLength="0/1"  />
             </VectorParam>
             <VectorParam id="19654"  name="anchor">
              <InterpolatingParam id="19655" interp="linr"  time="0/1" value="0" leadInLength="0/1"  />
              <InterpolatingParam id="19656" interp="linr"  time="0/1" value="0" leadInLength="0/1"  />
              <InterpolatingParam id="19657" interp="linr"  time="0/1" value="0" leadInLength="0/1"  />
             </VectorParam>
            </Transformer>
            <Parameters>
             <VectorParam id="19658"  name="sourceCrop">
              <InterpolatingParam id="19659" interp="linr"  time="0/1" value="0" leadInLength="0/1"  />
              <InterpolatingParam id="19660" interp="linr"  time="0/1" value="0" leadInLength="0/1"  />
              <InterpolatingParam id="19661" interp="linr"  time="0/1" value="0" leadInLength="0/1"  />
              <InterpolatingParam id="19662" interp="linr"  time="0/1" value="0" leadInLength="0/1"  />
             </VectorParam>
             <VectorParam id="19663"  name="geometryCrop">
              <InterpolatingParam id="19664" interp="linr"  time="-9999999/1" value="0" leadInLength="0/1"  />
              <InterpolatingParam id="19665" interp="linr"  time="-9999999/1" value="0" leadInLength="0/1"  />
              <InterpolatingParam id="19666" interp="linr"  time="-9999999/1" value="0" leadInLength="0/1"  />
              <InterpolatingParam id="19667" interp="linr"  time="-9999999/1" value="0" leadInLength="0/1"  />
             </VectorParam>
             <InterpolatingParam id="19668" interp="linr"  time="-9999999/1" value="1" leadInLength="0/1"  name="opacity"/>
            </Parameters>
            <Attributes>
             <Attribute id="19669" value="" name="ident"/>
            </Attributes>
            <MetaData>
             <entry key="WinSubProjectDisplayName" val=""/>
            </MetaData>
            <ExtraData>
             <Entry key="ZoomPanBin">
              <ZoomPanBin id="19670"  >
               <ZoomPanKeyframes>
                <ZoomPanKeyframe id="19671" timeRangeEnd="-9999999/1" timeRangeDuration="0/1" interpolaterName=""  />
               </ZoomPanKeyframes>
              </ZoomPanBin>
             </Entry>
            </ExtraData>
           </VMFile>
           <VMFile id="19672" start="9052" duration="223" scalar="1/1" mediaStart="17164/1" mediaDuration="223/1" trackNumber="0" src="4" >
            <Transformer>
             <VectorParam id="19673"  name="translation">
              <InterpolatingParam id="19674" interp="linr"  time="-9999999/1" value="0" leadInLength="0/1"  />
              <InterpolatingParam id="19675" interp="linr"  time="-9999999/1" value="0" leadInLength="0/1"  />
              <InterpolatingParam id="19676" interp="linr"  time="-9999999/1" value="0" leadInLength="0/1"  />
             </VectorParam>
             <VectorParam id="19677"  name="rotation">
              <InterpolatingParam id="19678" interp="linr"  time="-9999999/1" value="0" leadInLength="0/1"  />
              <InterpolatingParam id="19679" interp="linr"  time="-9999999/1" value="0" leadInLength="0/1"  />
              <InterpolatingParam id="19680" interp="linr"  time="-9999999/1" value="0" leadInLength="0/1"  />
             </VectorParam>
             <VectorParam id="19681"  name="shear">
              <InterpolatingParam id="19682" interp="linr"  time="-9999999/1" value="0" leadInLength="0/1"  />
              <InterpolatingParam id="19683" interp="linr"  time="-9999999/1" value="0" leadInLength="0/1"  />
              <InterpolatingParam id="19684" interp="linr"  time="-9999999/1" value="0" leadInLength="0/1"  />
             </VectorParam>
             <VectorParam id="19685"  name="scale">
              <InterpolatingParam id="19686" interp="linr"  time="-9999999/1" value="1" leadInLength="0/1"  />
              <InterpolatingParam id="19687" interp="linr"  time="-9999999/1" value="1" leadInLength="0/1"  />
              <InterpolatingParam id="19688" interp="linr"  time="-9999999/1" value="1" leadInLength="0/1"  />
             </VectorParam>
             <VectorParam id="19689"  name="anchor">
              <InterpolatingParam id="19690" interp="linr"  time="0/1" value="0" leadInLength="0/1"  />
              <InterpolatingParam id="19691" interp="linr"  time="0/1" value="0" leadInLength="0/1"  />
              <InterpolatingParam id="19692" interp="linr"  time="0/1" value="0" leadInLength="0/1"  />
             </VectorParam>
            </Transformer>
            <Parameters>
             <VectorParam id="19693"  name="sourceCrop">
              <InterpolatingParam id="19694" interp="linr"  time="0/1" value="0" leadInLength="0/1"  />
              <InterpolatingParam id="19695" interp="linr"  time="0/1" value="0" leadInLength="0/1"  />
              <InterpolatingParam id="19696" interp="linr"  time="0/1" value="0" leadInLength="0/1"  />
              <InterpolatingParam id="19697" interp="linr"  time="0/1" value="0" leadInLength="0/1"  />
             </VectorParam>
             <VectorParam id="19698"  name="geometryCrop">
              <InterpolatingParam id="19699" interp="linr"  time="-9999999/1" value="0" leadInLength="0/1"  />
              <InterpolatingParam id="19700" interp="linr"  time="-9999999/1" value="0" leadInLength="0/1"  />
              <InterpolatingParam id="19701" interp="linr"  time="-9999999/1" value="0" leadInLength="0/1"  />
              <InterpolatingParam id="19702" interp="linr"  time="-9999999/1" value="0" leadInLength="0/1"  />
             </VectorParam>
             <InterpolatingParam id="19703" interp="linr"  time="-9999999/1" value="1" leadInLength="0/1"  name="opacity"/>
            </Parameters>
            <Attributes>
             <Attribute id="19704" value="" name="ident"/>
            </Attributes>
            <MetaData>
             <entry key="WinSubProjectDisplayName" val=""/>
            </MetaData>
            <ExtraData>
             <Entry key="ZoomPanBin">
              <ZoomPanBin id="19705"  >
               <ZoomPanKeyframes>
                <ZoomPanKeyframe id="19706" timeRangeEnd="-9999999/1" timeRangeDuration="0/1" interpolaterName=""  />
               </ZoomPanKeyframes>
              </ZoomPanBin>
             </Entry>
            </ExtraData>
           </VMFile>
           <VMFile id="19707" start="9275" duration="323" scalar="1/1" mediaStart="26742/1" mediaDuration="323/1" trackNumber="0" src="4" >
            <Transformer>
             <VectorParam id="19708"  name="translation">
              <InterpolatingParam id="19709" interp="linr"  time="-9999999/1" value="0" leadInLength="0/1"  />
              <InterpolatingParam id="19710" interp="linr"  time="-9999999/1" value="0" leadInLength="0/1"  />
              <InterpolatingParam id="19711" interp="linr"  time="-9999999/1" value="0" leadInLength="0/1"  />
             </VectorParam>
             <VectorParam id="19712"  name="rotation">
              <InterpolatingParam id="19713" interp="linr"  time="-9999999/1" value="0" leadInLength="0/1"  />
              <InterpolatingParam id="19714" interp="linr"  time="-9999999/1" value="0" leadInLength="0/1"  />
              <InterpolatingParam id="19715" interp="linr"  time="-9999999/1" value="0" leadInLength="0/1"  />
             </VectorParam>
             <VectorParam id="19716"  name="shear">
              <InterpolatingParam id="19717" interp="linr"  time="-9999999/1" value="0" leadInLength="0/1"  />
              <InterpolatingParam id="19718" interp="linr"  time="-9999999/1" value="0" leadInLength="0/1"  />
              <InterpolatingParam id="19719" interp="linr"  time="-9999999/1" value="0" leadInLength="0/1"  />
             </VectorParam>
             <VectorParam id="19720"  name="scale">
              <InterpolatingParam id="19721" interp="linr"  time="-9999999/1" value="1" leadInLength="0/1"  />
              <InterpolatingParam id="19722" interp="linr"  time="-9999999/1" value="1" leadInLength="0/1"  />
              <InterpolatingParam id="19723" interp="linr"  time="-9999999/1" value="1" leadInLength="0/1"  />
             </VectorParam>
             <VectorParam id="19724"  name="anchor">
              <InterpolatingParam id="19725" interp="linr"  time="0/1" value="0" leadInLength="0/1"  />
              <InterpolatingParam id="19726" interp="linr"  time="0/1" value="0" leadInLength="0/1"  />
              <InterpolatingParam id="19727" interp="linr"  time="0/1" value="0" leadInLength="0/1"  />
             </VectorParam>
            </Transformer>
            <Parameters>
             <VectorParam id="19728"  name="sourceCrop">
              <InterpolatingParam id="19729" interp="linr"  time="0/1" value="0" leadInLength="0/1"  />
              <InterpolatingParam id="19730" interp="linr"  time="0/1" value="0" leadInLength="0/1"  />
              <InterpolatingParam id="19731" interp="linr"  time="0/1" value="0" leadInLength="0/1"  />
              <InterpolatingParam id="19732" interp="linr"  time="0/1" value="0" leadInLength="0/1"  />
             </VectorParam>
             <VectorParam id="19733"  name="geometryCrop">
              <InterpolatingParam id="19734" interp="linr"  time="-9999999/1" value="0" leadInLength="0/1"  />
              <InterpolatingParam id="19735" interp="linr"  time="-9999999/1" value="0" leadInLength="0/1"  />
              <InterpolatingParam id="19736" interp="linr"  time="-9999999/1" value="0" leadInLength="0/1"  />
              <InterpolatingParam id="19737" interp="linr"  time="-9999999/1" value="0" leadInLength="0/1"  />
             </VectorParam>
             <InterpolatingParam id="19738" interp="linr"  time="-9999999/1" value="1" leadInLength="0/1"  name="opacity"/>
            </Parameters>
            <Attributes>
             <Attribute id="19739" value="" name="ident"/>
            </Attributes>
            <MetaData>
             <entry key="WinSubProjectDisplayName" val=""/>
            </MetaData>
            <ExtraData>
             <Entry key="ZoomPanBin">
              <ZoomPanBin id="19740"  >
               <ZoomPanKeyframes>
                <ZoomPanKeyframe id="19741" timeRangeEnd="-9999999/1" timeRangeDuration="0/1" interpolaterName=""  />
               </ZoomPanKeyframes>
              </ZoomPanBin>
             </Entry>
            </ExtraData>
           </VMFile>
           <VMFile id="19742" start="9598" duration="259" scalar="1/1" mediaStart="27825/1" mediaDuration="259/1" trackNumber="0" src="4" >
            <Transformer>
             <VectorParam id="19743"  name="translation">
              <InterpolatingParam id="19744" interp="linr"  time="-9999999/1" value="0" leadInLength="0/1"  />
              <InterpolatingParam id="19745" interp="linr"  time="-9999999/1" value="0" leadInLength="0/1"  />
              <InterpolatingParam id="19746" interp="linr"  time="-9999999/1" value="0" leadInLength="0/1"  />
             </VectorParam>
             <VectorParam id="19747"  name="rotation">
              <InterpolatingParam id="19748" interp="linr"  time="-9999999/1" value="0" leadInLength="0/1"  />
              <InterpolatingParam id="19749" interp="linr"  time="-9999999/1" value="0" leadInLength="0/1"  />
              <InterpolatingParam id="19750" interp="linr"  time="-9999999/1" value="0" leadInLength="0/1"  />
             </VectorParam>
             <VectorParam id="19751"  name="shear">
              <InterpolatingParam id="19752" interp="linr"  time="-9999999/1" value="0" leadInLength="0/1"  />
              <InterpolatingParam id="19753" interp="linr"  time="-9999999/1" value="0" leadInLength="0/1"  />
              <InterpolatingParam id="19754" interp="linr"  time="-9999999/1" value="0" leadInLength="0/1"  />
             </VectorParam>
             <VectorParam id="19755"  name="scale">
              <InterpolatingParam id="19756" interp="linr"  time="-9999999/1" value="1" leadInLength="0/1"  />
              <InterpolatingParam id="19757" interp="linr"  time="-9999999/1" value="1" leadInLength="0/1"  />
              <InterpolatingParam id="19758" interp="linr"  time="-9999999/1" value="1" leadInLength="0/1"  />
             </VectorParam>
             <VectorParam id="19759"  name="anchor">
              <InterpolatingParam id="19760" interp="linr"  time="0/1" value="0" leadInLength="0/1"  />
              <InterpolatingParam id="19761" interp="linr"  time="0/1" value="0" leadInLength="0/1"  />
              <InterpolatingParam id="19762" interp="linr"  time="0/1" value="0" leadInLength="0/1"  />
             </VectorParam>
            </Transformer>
            <Parameters>
             <VectorParam id="19763"  name="sourceCrop">
              <InterpolatingParam id="19764" interp="linr"  time="0/1" value="0" leadInLength="0/1"  />
              <InterpolatingParam id="19765" interp="linr"  time="0/1" value="0" leadInLength="0/1"  />
              <InterpolatingParam id="19766" interp="linr"  time="0/1" value="0" leadInLength="0/1"  />
              <InterpolatingParam id="19767" interp="linr"  time="0/1" value="0" leadInLength="0/1"  />
             </VectorParam>
             <VectorParam id="19768"  name="geometryCrop">
              <InterpolatingParam id="19769" interp="linr"  time="-9999999/1" value="0" leadInLength="0/1"  />
              <InterpolatingParam id="19770" interp="linr"  time="-9999999/1" value="0" leadInLength="0/1"  />
              <InterpolatingParam id="19771" interp="linr"  time="-9999999/1" value="0" leadInLength="0/1"  />
              <InterpolatingParam id="19772" interp="linr"  time="-9999999/1" value="0" leadInLength="0/1"  />
             </VectorParam>
             <InterpolatingParam id="19773" interp="linr"  time="-9999999/1" value="1" leadInLength="0/1"  name="opacity"/>
            </Parameters>
            <Attributes>
             <Attribute id="19774" value="" name="ident"/>
            </Attributes>
            <MetaData>
             <entry key="WinSubProjectDisplayName" val=""/>
            </MetaData>
            <ExtraData>
             <Entry key="ZoomPanBin">
              <ZoomPanBin id="19775"  >
               <ZoomPanKeyframes>
                <ZoomPanKeyframe id="19776" timeRangeEnd="-9999999/1" timeRangeDuration="0/1" interpolaterName=""  />
               </ZoomPanKeyframes>
              </ZoomPanBin>
             </Entry>
            </ExtraData>
           </VMFile>
           <VMFile id="19777" start="9857" duration="157" scalar="1/1" mediaStart="28287/1" mediaDuration="157/1" trackNumber="0" src="4" >
            <Transformer>
             <VectorParam id="19778"  name="translation">
              <InterpolatingParam id="19779" interp="linr"  time="-9999999/1" value="0" leadInLength="0/1"  />
              <InterpolatingParam id="19780" interp="linr"  time="-9999999/1" value="0" leadInLength="0/1"  />
              <InterpolatingParam id="19781" interp="linr"  time="-9999999/1" value="0" leadInLength="0/1"  />
             </VectorParam>
             <VectorParam id="19782"  name="rotation">
              <InterpolatingParam id="19783" interp="linr"  time="-9999999/1" value="0" leadInLength="0/1"  />
              <InterpolatingParam id="19784" interp="linr"  time="-9999999/1" value="0" leadInLength="0/1"  />
              <InterpolatingParam id="19785" interp="linr"  time="-9999999/1" value="0" leadInLength="0/1"  />
             </VectorParam>
             <VectorParam id="19786"  name="shear">
              <InterpolatingParam id="19787" interp="linr"  time="-9999999/1" value="0" leadInLength="0/1"  />
              <InterpolatingParam id="19788" interp="linr"  time="-9999999/1" value="0" leadInLength="0/1"  />
              <InterpolatingParam id="19789" interp="linr"  time="-9999999/1" value="0" leadInLength="0/1"  />
             </VectorParam>
             <VectorParam id="19790"  name="scale">
              <InterpolatingParam id="19791" interp="linr"  time="-9999999/1" value="1" leadInLength="0/1"  />
              <InterpolatingParam id="19792" interp="linr"  time="-9999999/1" value="1" leadInLength="0/1"  />
              <InterpolatingParam id="19793" interp="linr"  time="-9999999/1" value="1" leadInLength="0/1"  />
             </VectorParam>
             <VectorParam id="19794"  name="anchor">
              <InterpolatingParam id="19795" interp="linr"  time="0/1" value="0" leadInLength="0/1"  />
              <InterpolatingParam id="19796" interp="linr"  time="0/1" value="0" leadInLength="0/1"  />
              <InterpolatingParam id="19797" interp="linr"  time="0/1" value="0" leadInLength="0/1"  />
             </VectorParam>
            </Transformer>
            <Parameters>
             <VectorParam id="19798"  name="sourceCrop">
              <InterpolatingParam id="19799" interp="linr"  time="0/1" value="0" leadInLength="0/1"  />
              <InterpolatingParam id="19800" interp="linr"  time="0/1" value="0" leadInLength="0/1"  />
              <InterpolatingParam id="19801" interp="linr"  time="0/1" value="0" leadInLength="0/1"  />
              <InterpolatingParam id="19802" interp="linr"  time="0/1" value="0" leadInLength="0/1"  />
             </VectorParam>
             <VectorParam id="19803"  name="geometryCrop">
              <InterpolatingParam id="19804" interp="linr"  time="-9999999/1" value="0" leadInLength="0/1"  />
              <InterpolatingParam id="19805" interp="linr"  time="-9999999/1" value="0" leadInLength="0/1"  />
              <InterpolatingParam id="19806" interp="linr"  time="-9999999/1" value="0" leadInLength="0/1"  />
              <InterpolatingParam id="19807" interp="linr"  time="-9999999/1" value="0" leadInLength="0/1"  />
             </VectorParam>
             <InterpolatingParam id="19808" interp="linr"  time="-9999999/1" value="1" leadInLength="0/1"  name="opacity"/>
            </Parameters>
            <Attributes>
             <Attribute id="19809" value="" name="ident"/>
            </Attributes>
            <MetaData>
             <entry key="WinSubProjectDisplayName" val=""/>
            </MetaData>
            <ExtraData>
             <Entry key="ZoomPanBin">
              <ZoomPanBin id="19810"  >
               <ZoomPanKeyframes>
                <ZoomPanKeyframe id="19811" timeRangeEnd="-9999999/1" timeRangeDuration="0/1" interpolaterName=""  />
               </ZoomPanKeyframes>
              </ZoomPanBin>
             </Entry>
            </ExtraData>
           </VMFile>
           <VMFile id="19812" start="10014" duration="290" scalar="1/1" mediaStart="28689/1" mediaDuration="290/1" trackNumber="0" src="4" >
            <Transformer>
             <VectorParam id="19813"  name="translation">
              <InterpolatingParam id="19814" interp="linr"  time="-9999999/1" value="0" leadInLength="0/1"  />
              <InterpolatingParam id="19815" interp="linr"  time="-9999999/1" value="0" leadInLength="0/1"  />
              <InterpolatingParam id="19816" interp="linr"  time="-9999999/1" value="0" leadInLength="0/1"  />
             </VectorParam>
             <VectorParam id="19817"  name="rotation">
              <InterpolatingParam id="19818" interp="linr"  time="-9999999/1" value="0" leadInLength="0/1"  />
              <InterpolatingParam id="19819" interp="linr"  time="-9999999/1" value="0" leadInLength="0/1"  />
              <InterpolatingParam id="19820" interp="linr"  time="-9999999/1" value="0" leadInLength="0/1"  />
             </VectorParam>
             <VectorParam id="19821"  name="shear">
              <InterpolatingParam id="19822" interp="linr"  time="-9999999/1" value="0" leadInLength="0/1"  />
              <InterpolatingParam id="19823" interp="linr"  time="-9999999/1" value="0" leadInLength="0/1"  />
              <InterpolatingParam id="19824" interp="linr"  time="-9999999/1" value="0" leadInLength="0/1"  />
             </VectorParam>
             <VectorParam id="19825"  name="scale">
              <InterpolatingParam id="19826" interp="linr"  time="-9999999/1" value="1" leadInLength="0/1"  />
              <InterpolatingParam id="19827" interp="linr"  time="-9999999/1" value="1" leadInLength="0/1"  />
              <InterpolatingParam id="19828" interp="linr"  time="-9999999/1" value="1" leadInLength="0/1"  />
             </VectorParam>
             <VectorParam id="19829"  name="anchor">
              <InterpolatingParam id="19830" interp="linr"  time="0/1" value="0" leadInLength="0/1"  />
              <InterpolatingParam id="19831" interp="linr"  time="0/1" value="0" leadInLength="0/1"  />
              <InterpolatingParam id="19832" interp="linr"  time="0/1" value="0" leadInLength="0/1"  />
             </VectorParam>
            </Transformer>
            <Parameters>
             <VectorParam id="19833"  name="sourceCrop">
              <InterpolatingParam id="19834" interp="linr"  time="0/1" value="0" leadInLength="0/1"  />
              <InterpolatingParam id="19835" interp="linr"  time="0/1" value="0" leadInLength="0/1"  />
              <InterpolatingParam id="19836" interp="linr"  time="0/1" value="0" leadInLength="0/1"  />
              <InterpolatingParam id="19837" interp="linr"  time="0/1" value="0" leadInLength="0/1"  />
             </VectorParam>
             <VectorParam id="19838"  name="geometryCrop">
              <InterpolatingParam id="19839" interp="linr"  time="-9999999/1" value="0" leadInLength="0/1"  />
              <InterpolatingParam id="19840" interp="linr"  time="-9999999/1" value="0" leadInLength="0/1"  />
              <InterpolatingParam id="19841" interp="linr"  time="-9999999/1" value="0" leadInLength="0/1"  />
              <InterpolatingParam id="19842" interp="linr"  time="-9999999/1" value="0" leadInLength="0/1"  />
             </VectorParam>
             <InterpolatingParam id="19843" interp="linr"  time="-9999999/1" value="1" leadInLength="0/1"  name="opacity"/>
            </Parameters>
            <Attributes>
             <Attribute id="19844" value="" name="ident"/>
            </Attributes>
            <MetaData>
             <entry key="WinSubProjectDisplayName" val=""/>
            </MetaData>
            <ExtraData>
             <Entry key="ZoomPanBin">
              <ZoomPanBin id="19845"  >
               <ZoomPanKeyframes>
                <ZoomPanKeyframe id="19846" timeRangeEnd="-9999999/1" timeRangeDuration="0/1" interpolaterName=""  />
               </ZoomPanKeyframes>
              </ZoomPanBin>
             </Entry>
            </ExtraData>
           </VMFile>
           <IMFile id="19847" start="10304" duration="60" scalar="1/1" mediaStart="29056/1" mediaDuration="1/1" trackNumber="0" src="4" trimStartSum="0/1" >
            <Transformer>
             <VectorParam id="19848"  name="translation">
              <InterpolatingParam id="19849" interp="linr"  time="-9999999/1" value="0" leadInLength="0/1"  />
              <InterpolatingParam id="19850" interp="linr"  time="-9999999/1" value="0" leadInLength="0/1"  />
              <InterpolatingParam id="19851" interp="linr"  time="-9999999/1" value="0" leadInLength="0/1"  />
             </VectorParam>
             <VectorParam id="19852"  name="rotation">
              <InterpolatingParam id="19853" interp="linr"  time="-9999999/1" value="0" leadInLength="0/1"  />
              <InterpolatingParam id="19854" interp="linr"  time="-9999999/1" value="0" leadInLength="0/1"  />
              <InterpolatingParam id="19855" interp="linr"  time="-9999999/1" value="0" leadInLength="0/1"  />
             </VectorParam>
             <VectorParam id="19856"  name="shear">
              <InterpolatingParam id="19857" interp="linr"  time="-9999999/1" value="0" leadInLength="0/1"  />
              <InterpolatingParam id="19858" interp="linr"  time="-9999999/1" value="0" leadInLength="0/1"  />
              <InterpolatingParam id="19859" interp="linr"  time="-9999999/1" value="0" leadInLength="0/1"  />
             </VectorParam>
             <VectorParam id="19860"  name="scale">
              <InterpolatingParam id="19861" interp="linr"  time="-9999999/1" value="1" leadInLength="0/1"  />
              <InterpolatingParam id="19862" interp="linr"  time="-9999999/1" value="1" leadInLength="0/1"  />
              <InterpolatingParam id="19863" interp="linr"  time="-9999999/1" value="1" leadInLength="0/1"  />
             </VectorParam>
             <VectorParam id="19864"  name="anchor">
              <InterpolatingParam id="19865" interp="linr"  time="0/1" value="0" leadInLength="0/1"  />
              <InterpolatingParam id="19866" interp="linr"  time="0/1" value="0" leadInLength="0/1"  />
              <InterpolatingParam id="19867" interp="linr"  time="0/1" value="0" leadInLength="0/1"  />
             </VectorParam>
            </Transformer>
            <Parameters>
             <VectorParam id="19868"  name="sourceCrop">
              <InterpolatingParam id="19869" interp="linr"  time="0/1" value="0" leadInLength="0/1"  />
              <InterpolatingParam id="19870" interp="linr"  time="0/1" value="0" leadInLength="0/1"  />
              <InterpolatingParam id="19871" interp="linr"  time="0/1" value="0" leadInLength="0/1"  />
              <InterpolatingParam id="19872" interp="linr"  time="0/1" value="0" leadInLength="0/1"  />
             </VectorParam>
             <VectorParam id="19873"  name="geometryCrop">
              <InterpolatingParam id="19874" interp="linr"  time="-9999999/1" value="0" leadInLength="0/1"  />
              <InterpolatingParam id="19875" interp="linr"  time="-9999999/1" value="0" leadInLength="0/1"  />
              <InterpolatingParam id="19876" interp="linr"  time="-9999999/1" value="0" leadInLength="0/1"  />
              <InterpolatingParam id="19877" interp="linr"  time="-9999999/1" value="0" leadInLength="0/1"  />
             </VectorParam>
             <InterpolatingParam id="19878" interp="linr"  time="-9999999/1" value="1" leadInLength="0/1"  name="opacity"/>
            </Parameters>
            <Attributes>
             <Attribute id="19879" value="" name="ident"/>
            </Attributes>
            <MetaData>
             <entry key="WinSubProjectDisplayName" val=""/>
            </MetaData>
            <ExtraData>
             <Entry key="ZoomPanBin">
              <ZoomPanBin id="19880"  >
               <ZoomPanKeyframes>
                <ZoomPanKeyframe id="19881" timeRangeEnd="-9999999/1" timeRangeDuration="0/1" interpolaterName=""  />
               </ZoomPanKeyframes>
              </ZoomPanBin>
             </Entry>
            </ExtraData>
           </IMFile>
           <VMFile id="19882" start="10364" duration="18" scalar="1/1" mediaStart="29056/1" mediaDuration="18/1" trackNumber="0" src="4" >
            <Transformer>
             <VectorParam id="19883"  name="translation">
              <InterpolatingParam id="19884" interp="linr"  time="-9999999/1" value="0" leadInLength="0/1"  />
              <InterpolatingParam id="19885" interp="linr"  time="-9999999/1" value="0" leadInLength="0/1"  />
              <InterpolatingParam id="19886" interp="linr"  time="-9999999/1" value="0" leadInLength="0/1"  />
             </VectorParam>
             <VectorParam id="19887"  name="rotation">
              <InterpolatingParam id="19888" interp="linr"  time="-9999999/1" value="0" leadInLength="0/1"  />
              <InterpolatingParam id="19889" interp="linr"  time="-9999999/1" value="0" leadInLength="0/1"  />
              <InterpolatingParam id="19890" interp="linr"  time="-9999999/1" value="0" leadInLength="0/1"  />
             </VectorParam>
             <VectorParam id="19891"  name="shear">
              <InterpolatingParam id="19892" interp="linr"  time="-9999999/1" value="0" leadInLength="0/1"  />
              <InterpolatingParam id="19893" interp="linr"  time="-9999999/1" value="0" leadInLength="0/1"  />
              <InterpolatingParam id="19894" interp="linr"  time="-9999999/1" value="0" leadInLength="0/1"  />
             </VectorParam>
             <VectorParam id="19895"  name="scale">
              <InterpolatingParam id="19896" interp="linr"  time="-9999999/1" value="1" leadInLength="0/1"  />
              <InterpolatingParam id="19897" interp="linr"  time="-9999999/1" value="1" leadInLength="0/1"  />
              <InterpolatingParam id="19898" interp="linr"  time="-9999999/1" value="1" leadInLength="0/1"  />
             </VectorParam>
             <VectorParam id="19899"  name="anchor">
              <InterpolatingParam id="19900" interp="linr"  time="0/1" value="0" leadInLength="0/1"  />
              <InterpolatingParam id="19901" interp="linr"  time="0/1" value="0" leadInLength="0/1"  />
              <InterpolatingParam id="19902" interp="linr"  time="0/1" value="0" leadInLength="0/1"  />
             </VectorParam>
            </Transformer>
            <Parameters>
             <VectorParam id="19903"  name="sourceCrop">
              <InterpolatingParam id="19904" interp="linr"  time="0/1" value="0" leadInLength="0/1"  />
              <InterpolatingParam id="19905" interp="linr"  time="0/1" value="0" leadInLength="0/1"  />
              <InterpolatingParam id="19906" interp="linr"  time="0/1" value="0" leadInLength="0/1"  />
              <InterpolatingParam id="19907" interp="linr"  time="0/1" value="0" leadInLength="0/1"  />
             </VectorParam>
             <VectorParam id="19908"  name="geometryCrop">
              <InterpolatingParam id="19909" interp="linr"  time="-9999999/1" value="0" leadInLength="0/1"  />
              <InterpolatingParam id="19910" interp="linr"  time="-9999999/1" value="0" leadInLength="0/1"  />
              <InterpolatingParam id="19911" interp="linr"  time="-9999999/1" value="0" leadInLength="0/1"  />
              <InterpolatingParam id="19912" interp="linr"  time="-9999999/1" value="0" leadInLength="0/1"  />
             </VectorParam>
             <InterpolatingParam id="19913" interp="linr"  time="-9999999/1" value="1" leadInLength="0/1"  name="opacity"/>
            </Parameters>
            <Attributes>
             <Attribute id="19914" value="" name="ident"/>
            </Attributes>
            <MetaData>
             <entry key="WinSubProjectDisplayName" val=""/>
            </MetaData>
            <ExtraData>
             <Entry key="ZoomPanBin">
              <ZoomPanBin id="19915"  >
               <ZoomPanKeyframes>
                <ZoomPanKeyframe id="19916" timeRangeEnd="-9999999/1" timeRangeDuration="0/1" interpolaterName=""  />
               </ZoomPanKeyframes>
              </ZoomPanBin>
             </Entry>
            </ExtraData>
           </VMFile>
           <IMFile id="19917" start="10382" duration="30" scalar="1/1" mediaStart="29074/1" mediaDuration="1/1" trackNumber="0" src="4" trimStartSum="0/1" >
            <Transformer>
             <VectorParam id="19918"  name="translation">
              <InterpolatingParam id="19919" interp="linr"  time="-9999999/1" value="0" leadInLength="0/1"  />
              <InterpolatingParam id="19920" interp="linr"  time="-9999999/1" value="0" leadInLength="0/1"  />
              <InterpolatingParam id="19921" interp="linr"  time="-9999999/1" value="0" leadInLength="0/1"  />
             </VectorParam>
             <VectorParam id="19922"  name="rotation">
              <InterpolatingParam id="19923" interp="linr"  time="-9999999/1" value="0" leadInLength="0/1"  />
              <InterpolatingParam id="19924" interp="linr"  time="-9999999/1" value="0" leadInLength="0/1"  />
              <InterpolatingParam id="19925" interp="linr"  time="-9999999/1" value="0" leadInLength="0/1"  />
             </VectorParam>
             <VectorParam id="19926"  name="shear">
              <InterpolatingParam id="19927" interp="linr"  time="-9999999/1" value="0" leadInLength="0/1"  />
              <InterpolatingParam id="19928" interp="linr"  time="-9999999/1" value="0" leadInLength="0/1"  />
              <InterpolatingParam id="19929" interp="linr"  time="-9999999/1" value="0" leadInLength="0/1"  />
             </VectorParam>
             <VectorParam id="19930"  name="scale">
              <InterpolatingParam id="19931" interp="linr"  time="-9999999/1" value="1" leadInLength="0/1"  />
              <InterpolatingParam id="19932" interp="linr"  time="-9999999/1" value="1" leadInLength="0/1"  />
              <InterpolatingParam id="19933" interp="linr"  time="-9999999/1" value="1" leadInLength="0/1"  />
             </VectorParam>
             <VectorParam id="19934"  name="anchor">
              <InterpolatingParam id="19935" interp="linr"  time="0/1" value="0" leadInLength="0/1"  />
              <InterpolatingParam id="19936" interp="linr"  time="0/1" value="0" leadInLength="0/1"  />
              <InterpolatingParam id="19937" interp="linr"  time="0/1" value="0" leadInLength="0/1"  />
             </VectorParam>
            </Transformer>
            <Parameters>
             <VectorParam id="19938"  name="sourceCrop">
              <InterpolatingParam id="19939" interp="linr"  time="0/1" value="0" leadInLength="0/1"  />
              <InterpolatingParam id="19940" interp="linr"  time="0/1" value="0" leadInLength="0/1"  />
              <InterpolatingParam id="19941" interp="linr"  time="0/1" value="0" leadInLength="0/1"  />
              <InterpolatingParam id="19942" interp="linr"  time="0/1" value="0" leadInLength="0/1"  />
             </VectorParam>
             <VectorParam id="19943"  name="geometryCrop">
              <InterpolatingParam id="19944" interp="linr"  time="-9999999/1" value="0" leadInLength="0/1"  />
              <InterpolatingParam id="19945" interp="linr"  time="-9999999/1" value="0" leadInLength="0/1"  />
              <InterpolatingParam id="19946" interp="linr"  time="-9999999/1" value="0" leadInLength="0/1"  />
              <InterpolatingParam id="19947" interp="linr"  time="-9999999/1" value="0" leadInLength="0/1"  />
             </VectorParam>
             <InterpolatingParam id="19948" interp="linr"  time="-9999999/1" value="1" leadInLength="0/1"  name="opacity"/>
            </Parameters>
            <Attributes>
             <Attribute id="19949" value="" name="ident"/>
            </Attributes>
            <MetaData>
             <entry key="WinSubProjectDisplayName" val=""/>
            </MetaData>
            <ExtraData>
             <Entry key="ZoomPanBin">
              <ZoomPanBin id="19950"  >
               <ZoomPanKeyframes>
                <ZoomPanKeyframe id="19951" timeRangeEnd="-9999999/1" timeRangeDuration="0/1" interpolaterName=""  />
               </ZoomPanKeyframes>
              </ZoomPanBin>
             </Entry>
            </ExtraData>
           </IMFile>
           <VMFile id="19952" start="10412" duration="1" scalar="1/1" mediaStart="29074/1" mediaDuration="1/1" trackNumber="0" src="4" >
            <Transformer>
             <VectorParam id="19953"  name="translation">
              <InterpolatingParam id="19954" interp="linr"  time="-9999999/1" value="0" leadInLength="0/1"  />
              <InterpolatingParam id="19955" interp="linr"  time="-9999999/1" value="0" leadInLength="0/1"  />
              <InterpolatingParam id="19956" interp="linr"  time="-9999999/1" value="0" leadInLength="0/1"  />
             </VectorParam>
             <VectorParam id="19957"  name="rotation">
              <InterpolatingParam id="19958" interp="linr"  time="-9999999/1" value="0" leadInLength="0/1"  />
              <InterpolatingParam id="19959" interp="linr"  time="-9999999/1" value="0" leadInLength="0/1"  />
              <InterpolatingParam id="19960" interp="linr"  time="-9999999/1" value="0" leadInLength="0/1"  />
             </VectorParam>
             <VectorParam id="19961"  name="shear">
              <InterpolatingParam id="19962" interp="linr"  time="-9999999/1" value="0" leadInLength="0/1"  />
              <InterpolatingParam id="19963" interp="linr"  time="-9999999/1" value="0" leadInLength="0/1"  />
              <InterpolatingParam id="19964" interp="linr"  time="-9999999/1" value="0" leadInLength="0/1"  />
             </VectorParam>
             <VectorParam id="19965"  name="scale">
              <InterpolatingParam id="19966" interp="linr"  time="-9999999/1" value="1" leadInLength="0/1"  />
              <InterpolatingParam id="19967" interp="linr"  time="-9999999/1" value="1" leadInLength="0/1"  />
              <InterpolatingParam id="19968" interp="linr"  time="-9999999/1" value="1" leadInLength="0/1"  />
             </VectorParam>
             <VectorParam id="19969"  name="anchor">
              <InterpolatingParam id="19970" interp="linr"  time="0/1" value="0" leadInLength="0/1"  />
              <InterpolatingParam id="19971" interp="linr"  time="0/1" value="0" leadInLength="0/1"  />
              <InterpolatingParam id="19972" interp="linr"  time="0/1" value="0" leadInLength="0/1"  />
             </VectorParam>
            </Transformer>
            <Parameters>
             <VectorParam id="19973"  name="sourceCrop">
              <InterpolatingParam id="19974" interp="linr"  time="0/1" value="0" leadInLength="0/1"  />
              <InterpolatingParam id="19975" interp="linr"  time="0/1" value="0" leadInLength="0/1"  />
              <InterpolatingParam id="19976" interp="linr"  time="0/1" value="0" leadInLength="0/1"  />
              <InterpolatingParam id="19977" interp="linr"  time="0/1" value="0" leadInLength="0/1"  />
             </VectorParam>
             <VectorParam id="19978"  name="geometryCrop">
              <InterpolatingParam id="19979" interp="linr"  time="-9999999/1" value="0" leadInLength="0/1"  />
              <InterpolatingParam id="19980" interp="linr"  time="-9999999/1" value="0" leadInLength="0/1"  />
              <InterpolatingParam id="19981" interp="linr"  time="-9999999/1" value="0" leadInLength="0/1"  />
              <InterpolatingParam id="19982" interp="linr"  time="-9999999/1" value="0" leadInLength="0/1"  />
             </VectorParam>
             <InterpolatingParam id="19983" interp="linr"  time="-9999999/1" value="1" leadInLength="0/1"  name="opacity"/>
            </Parameters>
            <Attributes>
             <Attribute id="19984" value="" name="ident"/>
            </Attributes>
            <MetaData>
             <entry key="WinSubProjectDisplayName" val=""/>
            </MetaData>
            <ExtraData>
             <Entry key="ZoomPanBin">
              <ZoomPanBin id="19985"  >
               <ZoomPanKeyframes>
                <ZoomPanKeyframe id="19986" timeRangeEnd="-9999999/1" timeRangeDuration="0/1" interpolaterName=""  />
               </ZoomPanKeyframes>
              </ZoomPanBin>
             </Entry>
            </ExtraData>
           </VMFile>
           <VMFile id="19987" start="10413" duration="42" scalar="1/1" mediaStart="29274/1" mediaDuration="42/1" trackNumber="0" src="4" >
            <Transformer>
             <VectorParam id="19988"  name="translation">
              <InterpolatingParam id="19989" interp="linr"  time="-9999999/1" value="0" leadInLength="0/1"  />
              <InterpolatingParam id="19990" interp="linr"  time="-9999999/1" value="0" leadInLength="0/1"  />
              <InterpolatingParam id="19991" interp="linr"  time="-9999999/1" value="0" leadInLength="0/1"  />
             </VectorParam>
             <VectorParam id="19992"  name="rotation">
              <InterpolatingParam id="19993" interp="linr"  time="-9999999/1" value="0" leadInLength="0/1"  />
              <InterpolatingParam id="19994" interp="linr"  time="-9999999/1" value="0" leadInLength="0/1"  />
              <InterpolatingParam id="19995" interp="linr"  time="-9999999/1" value="0" leadInLength="0/1"  />
             </VectorParam>
             <VectorParam id="19996"  name="shear">
              <InterpolatingParam id="19997" interp="linr"  time="-9999999/1" value="0" leadInLength="0/1"  />
              <InterpolatingParam id="19998" interp="linr"  time="-9999999/1" value="0" leadInLength="0/1"  />
              <InterpolatingParam id="19999" interp="linr"  time="-9999999/1" value="0" leadInLength="0/1"  />
             </VectorParam>
             <VectorParam id="20000"  name="scale">
              <InterpolatingParam id="20001" interp="linr"  time="-9999999/1" value="1" leadInLength="0/1"  />
              <InterpolatingParam id="20002" interp="linr"  time="-9999999/1" value="1" leadInLength="0/1"  />
              <InterpolatingParam id="20003" interp="linr"  time="-9999999/1" value="1" leadInLength="0/1"  />
             </VectorParam>
             <VectorParam id="20004"  name="anchor">
              <InterpolatingParam id="20005" interp="linr"  time="0/1" value="0" leadInLength="0/1"  />
              <InterpolatingParam id="20006" interp="linr"  time="0/1" value="0" leadInLength="0/1"  />
              <InterpolatingParam id="20007" interp="linr"  time="0/1" value="0" leadInLength="0/1"  />
             </VectorParam>
            </Transformer>
            <Parameters>
             <VectorParam id="20008"  name="sourceCrop">
              <InterpolatingParam id="20009" interp="linr"  time="0/1" value="0" leadInLength="0/1"  />
              <InterpolatingParam id="20010" interp="linr"  time="0/1" value="0" leadInLength="0/1"  />
              <InterpolatingParam id="20011" interp="linr"  time="0/1" value="0" leadInLength="0/1"  />
              <InterpolatingParam id="20012" interp="linr"  time="0/1" value="0" leadInLength="0/1"  />
             </VectorParam>
             <VectorParam id="20013"  name="geometryCrop">
              <InterpolatingParam id="20014" interp="linr"  time="-9999999/1" value="0" leadInLength="0/1"  />
              <InterpolatingParam id="20015" interp="linr"  time="-9999999/1" value="0" leadInLength="0/1"  />
              <InterpolatingParam id="20016" interp="linr"  time="-9999999/1" value="0" leadInLength="0/1"  />
              <InterpolatingParam id="20017" interp="linr"  time="-9999999/1" value="0" leadInLength="0/1"  />
             </VectorParam>
             <InterpolatingParam id="20018" interp="linr"  time="-9999999/1" value="1" leadInLength="0/1"  name="opacity"/>
            </Parameters>
            <Attributes>
             <Attribute id="20019" value="" name="ident"/>
            </Attributes>
            <MetaData>
             <entry key="WinSubProjectDisplayName" val=""/>
            </MetaData>
            <ExtraData>
             <Entry key="ZoomPanBin">
              <ZoomPanBin id="20020"  >
               <ZoomPanKeyframes>
                <ZoomPanKeyframe id="20021" timeRangeEnd="-9999999/1" timeRangeDuration="0/1" interpolaterName=""  />
               </ZoomPanKeyframes>
              </ZoomPanBin>
             </Entry>
            </ExtraData>
           </VMFile>
           <VMFile id="20022" start="10455" duration="147" scalar="1/1" mediaStart="29358/1" mediaDuration="147/1" trackNumber="0" src="4" >
            <Transformer>
             <VectorParam id="20023"  name="translation">
              <InterpolatingParam id="20024" interp="linr"  time="-9999999/1" value="0" leadInLength="0/1"  />
              <InterpolatingParam id="20025" interp="linr"  time="-9999999/1" value="0" leadInLength="0/1"  />
              <InterpolatingParam id="20026" interp="linr"  time="-9999999/1" value="0" leadInLength="0/1"  />
             </VectorParam>
             <VectorParam id="20027"  name="rotation">
              <InterpolatingParam id="20028" interp="linr"  time="-9999999/1" value="0" leadInLength="0/1"  />
              <InterpolatingParam id="20029" interp="linr"  time="-9999999/1" value="0" leadInLength="0/1"  />
              <InterpolatingParam id="20030" interp="linr"  time="-9999999/1" value="0" leadInLength="0/1"  />
             </VectorParam>
             <VectorParam id="20031"  name="shear">
              <InterpolatingParam id="20032" interp="linr"  time="-9999999/1" value="0" leadInLength="0/1"  />
              <InterpolatingParam id="20033" interp="linr"  time="-9999999/1" value="0" leadInLength="0/1"  />
              <InterpolatingParam id="20034" interp="linr"  time="-9999999/1" value="0" leadInLength="0/1"  />
             </VectorParam>
             <VectorParam id="20035"  name="scale">
              <InterpolatingParam id="20036" interp="linr"  time="-9999999/1" value="1" leadInLength="0/1"  />
              <InterpolatingParam id="20037" interp="linr"  time="-9999999/1" value="1" leadInLength="0/1"  />
              <InterpolatingParam id="20038" interp="linr"  time="-9999999/1" value="1" leadInLength="0/1"  />
             </VectorParam>
             <VectorParam id="20039"  name="anchor">
              <InterpolatingParam id="20040" interp="linr"  time="0/1" value="0" leadInLength="0/1"  />
              <InterpolatingParam id="20041" interp="linr"  time="0/1" value="0" leadInLength="0/1"  />
              <InterpolatingParam id="20042" interp="linr"  time="0/1" value="0" leadInLength="0/1"  />
             </VectorParam>
            </Transformer>
            <Parameters>
             <VectorParam id="20043"  name="sourceCrop">
              <InterpolatingParam id="20044" interp="linr"  time="0/1" value="0" leadInLength="0/1"  />
              <InterpolatingParam id="20045" interp="linr"  time="0/1" value="0" leadInLength="0/1"  />
              <InterpolatingParam id="20046" interp="linr"  time="0/1" value="0" leadInLength="0/1"  />
              <InterpolatingParam id="20047" interp="linr"  time="0/1" value="0" leadInLength="0/1"  />
             </VectorParam>
             <VectorParam id="20048"  name="geometryCrop">
              <InterpolatingParam id="20049" interp="linr"  time="-9999999/1" value="0" leadInLength="0/1"  />
              <InterpolatingParam id="20050" interp="linr"  time="-9999999/1" value="0" leadInLength="0/1"  />
              <InterpolatingParam id="20051" interp="linr"  time="-9999999/1" value="0" leadInLength="0/1"  />
              <InterpolatingParam id="20052" interp="linr"  time="-9999999/1" value="0" leadInLength="0/1"  />
             </VectorParam>
             <InterpolatingParam id="20053" interp="linr"  time="-9999999/1" value="1" leadInLength="0/1"  name="opacity"/>
            </Parameters>
            <Attributes>
             <Attribute id="20054" value="" name="ident"/>
            </Attributes>
            <MetaData>
             <entry key="WinSubProjectDisplayName" val=""/>
            </MetaData>
            <ExtraData>
             <Entry key="ZoomPanBin">
              <ZoomPanBin id="20055"  >
               <ZoomPanKeyframes>
                <ZoomPanKeyframe id="20056" timeRangeEnd="-9999999/1" timeRangeDuration="0/1" interpolaterName=""  />
               </ZoomPanKeyframes>
              </ZoomPanBin>
             </Entry>
            </ExtraData>
           </VMFile>
           <VMFile id="20057" start="10602" duration="580" scalar="1/1" mediaStart="29557/1" mediaDuration="580/1" trackNumber="0" src="4" >
            <Transformer>
             <VectorParam id="20058"  name="translation">
              <InterpolatingParam id="20059" interp="linr"  time="-9999999/1" value="0" leadInLength="0/1"  />
              <InterpolatingParam id="20060" interp="linr"  time="-9999999/1" value="0" leadInLength="0/1"  />
              <InterpolatingParam id="20061" interp="linr"  time="-9999999/1" value="0" leadInLength="0/1"  />
             </VectorParam>
             <VectorParam id="20062"  name="rotation">
              <InterpolatingParam id="20063" interp="linr"  time="-9999999/1" value="0" leadInLength="0/1"  />
              <InterpolatingParam id="20064" interp="linr"  time="-9999999/1" value="0" leadInLength="0/1"  />
              <InterpolatingParam id="20065" interp="linr"  time="-9999999/1" value="0" leadInLength="0/1"  />
             </VectorParam>
             <VectorParam id="20066"  name="shear">
              <InterpolatingParam id="20067" interp="linr"  time="-9999999/1" value="0" leadInLength="0/1"  />
              <InterpolatingParam id="20068" interp="linr"  time="-9999999/1" value="0" leadInLength="0/1"  />
              <InterpolatingParam id="20069" interp="linr"  time="-9999999/1" value="0" leadInLength="0/1"  />
             </VectorParam>
             <VectorParam id="20070"  name="scale">
              <InterpolatingParam id="20071" interp="linr"  time="-9999999/1" value="1" leadInLength="0/1"  />
              <InterpolatingParam id="20072" interp="linr"  time="-9999999/1" value="1" leadInLength="0/1"  />
              <InterpolatingParam id="20073" interp="linr"  time="-9999999/1" value="1" leadInLength="0/1"  />
             </VectorParam>
             <VectorParam id="20074"  name="anchor">
              <InterpolatingParam id="20075" interp="linr"  time="0/1" value="0" leadInLength="0/1"  />
              <InterpolatingParam id="20076" interp="linr"  time="0/1" value="0" leadInLength="0/1"  />
              <InterpolatingParam id="20077" interp="linr"  time="0/1" value="0" leadInLength="0/1"  />
             </VectorParam>
            </Transformer>
            <Parameters>
             <VectorParam id="20078"  name="sourceCrop">
              <InterpolatingParam id="20079" interp="linr"  time="0/1" value="0" leadInLength="0/1"  />
              <InterpolatingParam id="20080" interp="linr"  time="0/1" value="0" leadInLength="0/1"  />
              <InterpolatingParam id="20081" interp="linr"  time="0/1" value="0" leadInLength="0/1"  />
              <InterpolatingParam id="20082" interp="linr"  time="0/1" value="0" leadInLength="0/1"  />
             </VectorParam>
             <VectorParam id="20083"  name="geometryCrop">
              <InterpolatingParam id="20084" interp="linr"  time="-9999999/1" value="0" leadInLength="0/1"  />
              <InterpolatingParam id="20085" interp="linr"  time="-9999999/1" value="0" leadInLength="0/1"  />
              <InterpolatingParam id="20086" interp="linr"  time="-9999999/1" value="0" leadInLength="0/1"  />
              <InterpolatingParam id="20087" interp="linr"  time="-9999999/1" value="0" leadInLength="0/1"  />
             </VectorParam>
             <InterpolatingParam id="20088" interp="linr"  time="-9999999/1" value="1" leadInLength="0/1"  name="opacity"/>
            </Parameters>
            <Attributes>
             <Attribute id="20089" value="" name="ident"/>
            </Attributes>
            <MetaData>
             <entry key="WinSubProjectDisplayName" val=""/>
            </MetaData>
            <ExtraData>
             <Entry key="ZoomPanBin">
              <ZoomPanBin id="20090"  >
               <ZoomPanKeyframes>
                <ZoomPanKeyframe id="20091" timeRangeEnd="-9999999/1" timeRangeDuration="0/1" interpolaterName=""  />
               </ZoomPanKeyframes>
              </ZoomPanBin>
             </Entry>
            </ExtraData>
           </VMFile>
           <VMFile id="20092" start="11182" duration="25" scalar="1/1" mediaStart="30200/1" mediaDuration="25/1" trackNumber="0" src="4" >
            <Transformer>
             <VectorParam id="20093"  name="translation">
              <InterpolatingParam id="20094" interp="linr"  time="-9999999/1" value="0" leadInLength="0/1"  />
              <InterpolatingParam id="20095" interp="linr"  time="-9999999/1" value="0" leadInLength="0/1"  />
              <InterpolatingParam id="20096" interp="linr"  time="-9999999/1" value="0" leadInLength="0/1"  />
             </VectorParam>
             <VectorParam id="20097"  name="rotation">
              <InterpolatingParam id="20098" interp="linr"  time="-9999999/1" value="0" leadInLength="0/1"  />
              <InterpolatingParam id="20099" interp="linr"  time="-9999999/1" value="0" leadInLength="0/1"  />
              <InterpolatingParam id="20100" interp="linr"  time="-9999999/1" value="0" leadInLength="0/1"  />
             </VectorParam>
             <VectorParam id="20101"  name="shear">
              <InterpolatingParam id="20102" interp="linr"  time="-9999999/1" value="0" leadInLength="0/1"  />
              <InterpolatingParam id="20103" interp="linr"  time="-9999999/1" value="0" leadInLength="0/1"  />
              <InterpolatingParam id="20104" interp="linr"  time="-9999999/1" value="0" leadInLength="0/1"  />
             </VectorParam>
             <VectorParam id="20105"  name="scale">
              <InterpolatingParam id="20106" interp="linr"  time="-9999999/1" value="1" leadInLength="0/1"  />
              <InterpolatingParam id="20107" interp="linr"  time="-9999999/1" value="1" leadInLength="0/1"  />
              <InterpolatingParam id="20108" interp="linr"  time="-9999999/1" value="1" leadInLength="0/1"  />
             </VectorParam>
             <VectorParam id="20109"  name="anchor">
              <InterpolatingParam id="20110" interp="linr"  time="0/1" value="0" leadInLength="0/1"  />
              <InterpolatingParam id="20111" interp="linr"  time="0/1" value="0" leadInLength="0/1"  />
              <InterpolatingParam id="20112" interp="linr"  time="0/1" value="0" leadInLength="0/1"  />
             </VectorParam>
            </Transformer>
            <Parameters>
             <VectorParam id="20113"  name="sourceCrop">
              <InterpolatingParam id="20114" interp="linr"  time="0/1" value="0" leadInLength="0/1"  />
              <InterpolatingParam id="20115" interp="linr"  time="0/1" value="0" leadInLength="0/1"  />
              <InterpolatingParam id="20116" interp="linr"  time="0/1" value="0" leadInLength="0/1"  />
              <InterpolatingParam id="20117" interp="linr"  time="0/1" value="0" leadInLength="0/1"  />
             </VectorParam>
             <VectorParam id="20118"  name="geometryCrop">
              <InterpolatingParam id="20119" interp="linr"  time="-9999999/1" value="0" leadInLength="0/1"  />
              <InterpolatingParam id="20120" interp="linr"  time="-9999999/1" value="0" leadInLength="0/1"  />
              <InterpolatingParam id="20121" interp="linr"  time="-9999999/1" value="0" leadInLength="0/1"  />
              <InterpolatingParam id="20122" interp="linr"  time="-9999999/1" value="0" leadInLength="0/1"  />
             </VectorParam>
             <InterpolatingParam id="20123" interp="linr"  time="-9999999/1" value="1" leadInLength="0/1"  name="opacity"/>
            </Parameters>
            <Attributes>
             <Attribute id="20124" value="" name="ident"/>
            </Attributes>
            <MetaData>
             <entry key="WinSubProjectDisplayName" val=""/>
            </MetaData>
            <ExtraData>
             <Entry key="ZoomPanBin">
              <ZoomPanBin id="20125"  >
               <ZoomPanKeyframes>
                <ZoomPanKeyframe id="20126" timeRangeEnd="-9999999/1" timeRangeDuration="0/1" interpolaterName=""  />
               </ZoomPanKeyframes>
              </ZoomPanBin>
             </Entry>
            </ExtraData>
           </VMFile>
           <VMFile id="20127" start="11207" duration="119" scalar="1/1" mediaStart="30368/1" mediaDuration="119/1" trackNumber="0" src="4" >
            <Transformer>
             <VectorParam id="20128"  name="translation">
              <InterpolatingParam id="20129" interp="linr"  time="-9999999/1" value="0" leadInLength="0/1"  />
              <InterpolatingParam id="20130" interp="linr"  time="-9999999/1" value="0" leadInLength="0/1"  />
              <InterpolatingParam id="20131" interp="linr"  time="-9999999/1" value="0" leadInLength="0/1"  />
             </VectorParam>
             <VectorParam id="20132"  name="rotation">
              <InterpolatingParam id="20133" interp="linr"  time="-9999999/1" value="0" leadInLength="0/1"  />
              <InterpolatingParam id="20134" interp="linr"  time="-9999999/1" value="0" leadInLength="0/1"  />
              <InterpolatingParam id="20135" interp="linr"  time="-9999999/1" value="0" leadInLength="0/1"  />
             </VectorParam>
             <VectorParam id="20136"  name="shear">
              <InterpolatingParam id="20137" interp="linr"  time="-9999999/1" value="0" leadInLength="0/1"  />
              <InterpolatingParam id="20138" interp="linr"  time="-9999999/1" value="0" leadInLength="0/1"  />
              <InterpolatingParam id="20139" interp="linr"  time="-9999999/1" value="0" leadInLength="0/1"  />
             </VectorParam>
             <VectorParam id="20140"  name="scale">
              <InterpolatingParam id="20141" interp="linr"  time="-9999999/1" value="1" leadInLength="0/1"  />
              <InterpolatingParam id="20142" interp="linr"  time="-9999999/1" value="1" leadInLength="0/1"  />
              <InterpolatingParam id="20143" interp="linr"  time="-9999999/1" value="1" leadInLength="0/1"  />
             </VectorParam>
             <VectorParam id="20144"  name="anchor">
              <InterpolatingParam id="20145" interp="linr"  time="0/1" value="0" leadInLength="0/1"  />
              <InterpolatingParam id="20146" interp="linr"  time="0/1" value="0" leadInLength="0/1"  />
              <InterpolatingParam id="20147" interp="linr"  time="0/1" value="0" leadInLength="0/1"  />
             </VectorParam>
            </Transformer>
            <Parameters>
             <VectorParam id="20148"  name="sourceCrop">
              <InterpolatingParam id="20149" interp="linr"  time="0/1" value="0" leadInLength="0/1"  />
              <InterpolatingParam id="20150" interp="linr"  time="0/1" value="0" leadInLength="0/1"  />
              <InterpolatingParam id="20151" interp="linr"  time="0/1" value="0" leadInLength="0/1"  />
              <InterpolatingParam id="20152" interp="linr"  time="0/1" value="0" leadInLength="0/1"  />
             </VectorParam>
             <VectorParam id="20153"  name="geometryCrop">
              <InterpolatingParam id="20154" interp="linr"  time="-9999999/1" value="0" leadInLength="0/1"  />
              <InterpolatingParam id="20155" interp="linr"  time="-9999999/1" value="0" leadInLength="0/1"  />
              <InterpolatingParam id="20156" interp="linr"  time="-9999999/1" value="0" leadInLength="0/1"  />
              <InterpolatingParam id="20157" interp="linr"  time="-9999999/1" value="0" leadInLength="0/1"  />
             </VectorParam>
             <InterpolatingParam id="20158" interp="linr"  time="-9999999/1" value="1" leadInLength="0/1"  name="opacity"/>
            </Parameters>
            <Attributes>
             <Attribute id="20159" value="" name="ident"/>
            </Attributes>
            <MetaData>
             <entry key="WinSubProjectDisplayName" val=""/>
            </MetaData>
            <ExtraData>
             <Entry key="ZoomPanBin">
              <ZoomPanBin id="20160"  >
               <ZoomPanKeyframes>
                <ZoomPanKeyframe id="20161" timeRangeEnd="-9999999/1" timeRangeDuration="0/1" interpolaterName=""  />
               </ZoomPanKeyframes>
              </ZoomPanBin>
             </Entry>
            </ExtraData>
           </VMFile>
           <VMFile id="20162" start="11326" duration="411" scalar="1/1" mediaStart="30756/1" mediaDuration="411/1" trackNumber="0" src="4" >
            <Transformer>
             <VectorParam id="20163"  name="translation">
              <InterpolatingParam id="20164" interp="linr"  time="-9999999/1" value="0" leadInLength="0/1"  />
              <InterpolatingParam id="20165" interp="linr"  time="-9999999/1" value="0" leadInLength="0/1"  />
              <InterpolatingParam id="20166" interp="linr"  time="-9999999/1" value="0" leadInLength="0/1"  />
             </VectorParam>
             <VectorParam id="20167"  name="rotation">
              <InterpolatingParam id="20168" interp="linr"  time="-9999999/1" value="0" leadInLength="0/1"  />
              <InterpolatingParam id="20169" interp="linr"  time="-9999999/1" value="0" leadInLength="0/1"  />
              <InterpolatingParam id="20170" interp="linr"  time="-9999999/1" value="0" leadInLength="0/1"  />
             </VectorParam>
             <VectorParam id="20171"  name="shear">
              <InterpolatingParam id="20172" interp="linr"  time="-9999999/1" value="0" leadInLength="0/1"  />
              <InterpolatingParam id="20173" interp="linr"  time="-9999999/1" value="0" leadInLength="0/1"  />
              <InterpolatingParam id="20174" interp="linr"  time="-9999999/1" value="0" leadInLength="0/1"  />
             </VectorParam>
             <VectorParam id="20175"  name="scale">
              <InterpolatingParam id="20176" interp="linr"  time="-9999999/1" value="1" leadInLength="0/1"  />
              <InterpolatingParam id="20177" interp="linr"  time="-9999999/1" value="1" leadInLength="0/1"  />
              <InterpolatingParam id="20178" interp="linr"  time="-9999999/1" value="1" leadInLength="0/1"  />
             </VectorParam>
             <VectorParam id="20179"  name="anchor">
              <InterpolatingParam id="20180" interp="linr"  time="0/1" value="0" leadInLength="0/1"  />
              <InterpolatingParam id="20181" interp="linr"  time="0/1" value="0" leadInLength="0/1"  />
              <InterpolatingParam id="20182" interp="linr"  time="0/1" value="0" leadInLength="0/1"  />
             </VectorParam>
            </Transformer>
            <Parameters>
             <VectorParam id="20183"  name="sourceCrop">
              <InterpolatingParam id="20184" interp="linr"  time="0/1" value="0" leadInLength="0/1"  />
              <InterpolatingParam id="20185" interp="linr"  time="0/1" value="0" leadInLength="0/1"  />
              <InterpolatingParam id="20186" interp="linr"  time="0/1" value="0" leadInLength="0/1"  />
              <InterpolatingParam id="20187" interp="linr"  time="0/1" value="0" leadInLength="0/1"  />
             </VectorParam>
             <VectorParam id="20188"  name="geometryCrop">
              <InterpolatingParam id="20189" interp="linr"  time="-9999999/1" value="0" leadInLength="0/1"  />
              <InterpolatingParam id="20190" interp="linr"  time="-9999999/1" value="0" leadInLength="0/1"  />
              <InterpolatingParam id="20191" interp="linr"  time="-9999999/1" value="0" leadInLength="0/1"  />
              <InterpolatingParam id="20192" interp="linr"  time="-9999999/1" value="0" leadInLength="0/1"  />
             </VectorParam>
             <InterpolatingParam id="20193" interp="linr"  time="-9999999/1" value="1" leadInLength="0/1"  name="opacity"/>
            </Parameters>
            <Attributes>
             <Attribute id="20194" value="" name="ident"/>
            </Attributes>
            <MetaData>
             <entry key="WinSubProjectDisplayName" val=""/>
            </MetaData>
            <ExtraData>
             <Entry key="ZoomPanBin">
              <ZoomPanBin id="20195"  >
               <ZoomPanKeyframes>
                <ZoomPanKeyframe id="20196" timeRangeEnd="-9999999/1" timeRangeDuration="0/1" interpolaterName=""  />
               </ZoomPanKeyframes>
              </ZoomPanBin>
             </Entry>
            </ExtraData>
           </VMFile>
          </Medias>
         </GenericTrack>
        </StitchedMedia>
        <StitchedMedia id="20197" start="4683" duration="55" scalar="8684347631232/26073236597771" mediaStart="400328873038463/45230977246" mediaDuration="1434028012877405/8684347631232" minMediaStart="0/1" >
         <Transformer>
          <VectorParam id="20198"  name="translation">
           <InterpolatingParam id="20199" interp="linr"  time="-9999999/1" value="0" leadInLength="0/1"  interpolater="leadin-linr"  />
           <InterpolatingParam id="20200" interp="linr"  time="-9999999/1" value="0" leadInLength="0/1"  interpolater="leadin-linr"  />
           <InterpolatingParam id="20201" interp="linr"  time="-9999999/1" value="0" leadInLength="0/1"  interpolater="leadin-linr"  />
          </VectorParam>
          <VectorParam id="20202"  name="rotation">
           <InterpolatingParam id="20203" interp="linr"  time="-9999999/1" value="0" leadInLength="0/1"  interpolater="leadin-linr"  />
           <InterpolatingParam id="20204" interp="linr"  time="-9999999/1" value="0" leadInLength="0/1"  interpolater="leadin-linr"  />
           <InterpolatingParam id="20205" interp="linr"  time="-9999999/1" value="0" leadInLength="0/1"  interpolater="leadin-linr"  />
          </VectorParam>
          <VectorParam id="20206"  name="shear">
           <InterpolatingParam id="20207" interp="linr"  time="-9999999/1" value="0" leadInLength="0/1"  interpolater="leadin-linr"  />
           <InterpolatingParam id="20208" interp="linr"  time="-9999999/1" value="0" leadInLength="0/1"  interpolater="leadin-linr"  />
           <InterpolatingParam id="20209" interp="linr"  time="-9999999/1" value="0" leadInLength="0/1"  interpolater="leadin-linr"  />
          </VectorParam>
          <VectorParam id="20210"  name="scale">
           <InterpolatingParam id="20211" interp="linr"  time="-9999999/1" value="1" leadInLength="0/1"  interpolater="leadin-linr"  />
           <InterpolatingParam id="20212" interp="linr"  time="-9999999/1" value="1" leadInLength="0/1"  interpolater="leadin-linr"  />
           <InterpolatingParam id="20213" interp="linr"  time="-9999999/1" value="1" leadInLength="0/1"  interpolater="leadin-linr"  />
          </VectorParam>
          <VectorParam id="20214"  name="anchor">
           <InterpolatingParam id="20215" interp="linr"  >
            <Keyframes>
            <Keyframe id="20216"  time="0/1" value="0" leadInLength="0/1"  />
            <Keyframe id="20217"  time="32931335377/7971776" value="0" leadInLength="0/1"  />
            <Keyframe id="20218"  time="4328/1" value="0" leadInLength="0/1"  />
            <Keyframe id="20219"  time="4457/1" value="0" leadInLength="0/1"  />
            <Keyframe id="20220"  time="46272102474146/7646783123" value="0" leadInLength="0/1"  />
            <Keyframe id="20221"  time="576460752303423488/75433993780101" value="0" leadInLength="0/1"  />
            <Keyframe id="20222"  time="600059199085213793/58267769831581" value="0" leadInLength="0/1"  />
            <Keyframe id="20223"  time="1199749202952939991/115623946533563" value="0" leadInLength="0/1"  />
            </Keyframes>
           </InterpolatingParam>
           <InterpolatingParam id="20224" interp="linr"  >
            <Keyframes>
            <Keyframe id="20225"  time="0/1" value="0" leadInLength="0/1"  />
            <Keyframe id="20226"  time="32931335377/7971776" value="0" leadInLength="0/1"  />
            <Keyframe id="20227"  time="4328/1" value="0" leadInLength="0/1"  />
            <Keyframe id="20228"  time="4457/1" value="0" leadInLength="0/1"  />
            <Keyframe id="20229"  time="46272102474146/7646783123" value="0" leadInLength="0/1"  />
            <Keyframe id="20230"  time="576460752303423488/75433993780101" value="0" leadInLength="0/1"  />
            <Keyframe id="20231"  time="600059199085213793/58267769831581" value="0" leadInLength="0/1"  />
            <Keyframe id="20232"  time="1199749202952939991/115623946533563" value="0" leadInLength="0/1"  />
            </Keyframes>
           </InterpolatingParam>
           <InterpolatingParam id="20233" interp="linr"  >
            <Keyframes>
            <Keyframe id="20234"  time="0/1" value="0" leadInLength="0/1"  />
            <Keyframe id="20235"  time="32931335377/7971776" value="0" leadInLength="0/1"  />
            <Keyframe id="20236"  time="4328/1" value="0" leadInLength="0/1"  />
            <Keyframe id="20237"  time="4457/1" value="0" leadInLength="0/1"  />
            <Keyframe id="20238"  time="46272102474146/7646783123" value="0" leadInLength="0/1"  />
            <Keyframe id="20239"  time="576460752303423488/75433993780101" value="0" leadInLength="0/1"  />
            <Keyframe id="20240"  time="600059199085213793/58267769831581" value="0" leadInLength="0/1"  />
            <Keyframe id="20241"  time="1199749202952939991/115623946533563" value="0" leadInLength="0/1"  />
            </Keyframes>
           </InterpolatingParam>
          </VectorParam>
         </Transformer>
         <Parameters>
          <VectorParam id="20242"  name="sourceCrop">
           <InterpolatingParam id="20243" interp="linr"  >
            <Keyframes>
            <Keyframe id="20244"  time="0/1" value="0" leadInLength="0/1"  />
            <Keyframe id="20245"  time="32931335377/7971776" value="0" leadInLength="0/1"  />
            <Keyframe id="20246"  time="4328/1" value="0" leadInLength="0/1"  />
            <Keyframe id="20247"  time="4457/1" value="0" leadInLength="0/1"  />
            <Keyframe id="20248"  time="46272102474146/7646783123" value="0" leadInLength="0/1"  />
            <Keyframe id="20249"  time="576460752303423488/75433993780101" value="0" leadInLength="0/1"  />
            <Keyframe id="20250"  time="600059199085213793/58267769831581" value="0" leadInLength="0/1"  />
            <Keyframe id="20251"  time="1199749202952939991/115623946533563" value="0" leadInLength="0/1"  />
            </Keyframes>
           </InterpolatingParam>
           <InterpolatingParam id="20252" interp="linr"  >
            <Keyframes>
            <Keyframe id="20253"  time="0/1" value="0" leadInLength="0/1"  />
            <Keyframe id="20254"  time="32931335377/7971776" value="0" leadInLength="0/1"  />
            <Keyframe id="20255"  time="4328/1" value="0" leadInLength="0/1"  />
            <Keyframe id="20256"  time="4457/1" value="0" leadInLength="0/1"  />
            <Keyframe id="20257"  time="46272102474146/7646783123" value="0" leadInLength="0/1"  />
            <Keyframe id="20258"  time="576460752303423488/75433993780101" value="0" leadInLength="0/1"  />
            <Keyframe id="20259"  time="600059199085213793/58267769831581" value="0" leadInLength="0/1"  />
            <Keyframe id="20260"  time="1199749202952939991/115623946533563" value="0" leadInLength="0/1"  />
            </Keyframes>
           </InterpolatingParam>
           <InterpolatingParam id="20261" interp="linr"  >
            <Keyframes>
            <Keyframe id="20262"  time="0/1" value="0" leadInLength="0/1"  />
            <Keyframe id="20263"  time="32931335377/7971776" value="0" leadInLength="0/1"  />
            <Keyframe id="20264"  time="4328/1" value="0" leadInLength="0/1"  />
            <Keyframe id="20265"  time="4457/1" value="0" leadInLength="0/1"  />
            <Keyframe id="20266"  time="46272102474146/7646783123" value="0" leadInLength="0/1"  />
            <Keyframe id="20267"  time="576460752303423488/75433993780101" value="0" leadInLength="0/1"  />
            <Keyframe id="20268"  time="600059199085213793/58267769831581" value="0" leadInLength="0/1"  />
            <Keyframe id="20269"  time="1199749202952939991/115623946533563" value="0" leadInLength="0/1"  />
            </Keyframes>
           </InterpolatingParam>
           <InterpolatingParam id="20270" interp="linr"  >
            <Keyframes>
            <Keyframe id="20271"  time="0/1" value="0" leadInLength="0/1"  />
            <Keyframe id="20272"  time="32931335377/7971776" value="0" leadInLength="0/1"  />
            <Keyframe id="20273"  time="4328/1" value="0" leadInLength="0/1"  />
            <Keyframe id="20274"  time="4457/1" value="0" leadInLength="0/1"  />
            <Keyframe id="20275"  time="46272102474146/7646783123" value="0" leadInLength="0/1"  />
            <Keyframe id="20276"  time="576460752303423488/75433993780101" value="0" leadInLength="0/1"  />
            <Keyframe id="20277"  time="600059199085213793/58267769831581" value="0" leadInLength="0/1"  />
            <Keyframe id="20278"  time="1199749202952939991/115623946533563" value="0" leadInLength="0/1"  />
            </Keyframes>
           </InterpolatingParam>
          </VectorParam>
          <VectorParam id="20279"  name="geometryCrop">
           <InterpolatingParam id="20280" interp="linr"  time="-9999999/1" value="0" leadInLength="0/1"  interpolater="leadin-linr"  />
           <InterpolatingParam id="20281" interp="linr"  time="-9999999/1" value="0" leadInLength="0/1"  interpolater="leadin-linr"  />
           <InterpolatingParam id="20282" interp="linr"  time="-9999999/1" value="0" leadInLength="0/1"  interpolater="leadin-linr"  />
           <InterpolatingParam id="20283" interp="linr"  time="-9999999/1" value="0" leadInLength="0/1"  interpolater="leadin-linr"  />
          </VectorParam>
          <InterpolatingParam id="20284" interp="linr"  time="-9999999/1" value="1" leadInLength="0/1"  interpolater="leadin-linr"  name="opacity"/>
          <InterpolatingParam id="20285" interp="linr"  time="0/1" value="1" leadInLength="0/1"  name="cursorOpacity"/>
          <InterpolatingParam id="20286" interp="linr"  time="0/1" value="1" leadInLength="0/1"  name="cursorScale"/>
          <Parameter id="20287"  name="captions"/>
         </Parameters>
         <Attributes>
          <Attribute id="20288" value="" name="ident"/>
         </Attributes>
         <MetaData>
          <entry key="WinSubProjectDisplayName" val=""/>
         </MetaData>
         <ExtraData>
          <Entry key="ZoomPanBin">
           <ZoomPanBin id="20289"  >
            <ZoomPanKeyframes>
             <ZoomPanKeyframe id="20290" timeRangeEnd="-9999999/1" timeRangeDuration="0/1" interpolaterName="linr"  />
            </ZoomPanKeyframes>
           </ZoomPanBin>
          </Entry>
          <Entry key="CursorEffectBin">
           <CursorEffectBin id="20291"  >
            <CursorEffectKeyframes>
            </CursorEffectKeyframes>
           </CursorEffectBin>
          </Entry>
         </ExtraData>
         <GenericTrack id="20292"  >
          <Attributes>
           <Attribute id="20293" value="" name="ident"/>
           <Attribute id="20294" value="0" name="audioMuted"/>
           <Attribute id="20295" value="0" name="videoHidden"/>
          </Attributes>
          <MetaData>
           <entry key="IsLocked" val="False"/>
           <entry key="WinTrackHeight" val="0"/>
          </MetaData>
          <Medias>
           <VMFile id="20296" start="0" duration="4131" scalar="1/1" mediaStart="0/1" mediaDuration="4131/1" trackNumber="0" src="4" >
            <Transformer>
             <VectorParam id="20297"  name="translation">
              <InterpolatingParam id="20298" interp="linr"  time="-9999999/1" value="0" leadInLength="0/1"  />
              <InterpolatingParam id="20299" interp="linr"  time="-9999999/1" value="0" leadInLength="0/1"  />
              <InterpolatingParam id="20300" interp="linr"  time="-9999999/1" value="0" leadInLength="0/1"  />
             </VectorParam>
             <VectorParam id="20301"  name="rotation">
              <InterpolatingParam id="20302" interp="linr"  time="-9999999/1" value="0" leadInLength="0/1"  />
              <InterpolatingParam id="20303" interp="linr"  time="-9999999/1" value="0" leadInLength="0/1"  />
              <InterpolatingParam id="20304" interp="linr"  time="-9999999/1" value="0" leadInLength="0/1"  />
             </VectorParam>
             <VectorParam id="20305"  name="shear">
              <InterpolatingParam id="20306" interp="linr"  time="-9999999/1" value="0" leadInLength="0/1"  />
              <InterpolatingParam id="20307" interp="linr"  time="-9999999/1" value="0" leadInLength="0/1"  />
              <InterpolatingParam id="20308" interp="linr"  time="-9999999/1" value="0" leadInLength="0/1"  />
             </VectorParam>
             <VectorParam id="20309"  name="scale">
              <InterpolatingParam id="20310" interp="linr"  time="-9999999/1" value="1" leadInLength="0/1"  />
              <InterpolatingParam id="20311" interp="linr"  time="-9999999/1" value="1" leadInLength="0/1"  />
              <InterpolatingParam id="20312" interp="linr"  time="-9999999/1" value="1" leadInLength="0/1"  />
             </VectorParam>
             <VectorParam id="20313"  name="anchor">
              <InterpolatingParam id="20314" interp="linr"  time="0/1" value="0" leadInLength="0/1"  />
              <InterpolatingParam id="20315" interp="linr"  time="0/1" value="0" leadInLength="0/1"  />
              <InterpolatingParam id="20316" interp="linr"  time="0/1" value="0" leadInLength="0/1"  />
             </VectorParam>
            </Transformer>
            <Parameters>
             <VectorParam id="20317"  name="sourceCrop">
              <InterpolatingParam id="20318" interp="linr"  time="0/1" value="0" leadInLength="0/1"  />
              <InterpolatingParam id="20319" interp="linr"  time="0/1" value="0" leadInLength="0/1"  />
              <InterpolatingParam id="20320" interp="linr"  time="0/1" value="0" leadInLength="0/1"  />
              <InterpolatingParam id="20321" interp="linr"  time="0/1" value="0" leadInLength="0/1"  />
             </VectorParam>
             <VectorParam id="20322"  name="geometryCrop">
              <InterpolatingParam id="20323" interp="linr"  time="-9999999/1" value="0" leadInLength="0/1"  />
              <InterpolatingParam id="20324" interp="linr"  time="-9999999/1" value="0" leadInLength="0/1"  />
              <InterpolatingParam id="20325" interp="linr"  time="-9999999/1" value="0" leadInLength="0/1"  />
              <InterpolatingParam id="20326" interp="linr"  time="-9999999/1" value="0" leadInLength="0/1"  />
             </VectorParam>
             <InterpolatingParam id="20327" interp="linr"  time="-9999999/1" value="1" leadInLength="0/1"  name="opacity"/>
            </Parameters>
            <Attributes>
             <Attribute id="20328" value="" name="ident"/>
            </Attributes>
            <MetaData>
             <entry key="WinSubProjectDisplayName" val=""/>
            </MetaData>
            <ExtraData>
             <Entry key="ZoomPanBin">
              <ZoomPanBin id="20329"  >
               <ZoomPanKeyframes>
                <ZoomPanKeyframe id="20330" timeRangeEnd="-9999999/1" timeRangeDuration="0/1" interpolaterName=""  />
               </ZoomPanKeyframes>
              </ZoomPanBin>
             </Entry>
            </ExtraData>
           </VMFile>
           <IMFile id="20331" start="4131" duration="12" scalar="1/1" mediaStart="4130/1" mediaDuration="1/1" trackNumber="0" src="4" trimStartSum="0/1" >
            <Transformer>
             <VectorParam id="20332"  name="translation">
              <InterpolatingParam id="20333" interp="linr"  time="-9999999/1" value="0" leadInLength="0/1"  />
              <InterpolatingParam id="20334" interp="linr"  time="-9999999/1" value="0" leadInLength="0/1"  />
              <InterpolatingParam id="20335" interp="linr"  time="-9999999/1" value="0" leadInLength="0/1"  />
             </VectorParam>
             <VectorParam id="20336"  name="rotation">
              <InterpolatingParam id="20337" interp="linr"  time="-9999999/1" value="0" leadInLength="0/1"  />
              <InterpolatingParam id="20338" interp="linr"  time="-9999999/1" value="0" leadInLength="0/1"  />
              <InterpolatingParam id="20339" interp="linr"  time="-9999999/1" value="0" leadInLength="0/1"  />
             </VectorParam>
             <VectorParam id="20340"  name="shear">
              <InterpolatingParam id="20341" interp="linr"  time="-9999999/1" value="0" leadInLength="0/1"  />
              <InterpolatingParam id="20342" interp="linr"  time="-9999999/1" value="0" leadInLength="0/1"  />
              <InterpolatingParam id="20343" interp="linr"  time="-9999999/1" value="0" leadInLength="0/1"  />
             </VectorParam>
             <VectorParam id="20344"  name="scale">
              <InterpolatingParam id="20345" interp="linr"  time="-9999999/1" value="1" leadInLength="0/1"  />
              <InterpolatingParam id="20346" interp="linr"  time="-9999999/1" value="1" leadInLength="0/1"  />
              <InterpolatingParam id="20347" interp="linr"  time="-9999999/1" value="1" leadInLength="0/1"  />
             </VectorParam>
             <VectorParam id="20348"  name="anchor">
              <InterpolatingParam id="20349" interp="linr"  time="0/1" value="0" leadInLength="0/1"  />
              <InterpolatingParam id="20350" interp="linr"  time="0/1" value="0" leadInLength="0/1"  />
              <InterpolatingParam id="20351" interp="linr"  time="0/1" value="0" leadInLength="0/1"  />
             </VectorParam>
            </Transformer>
            <Parameters>
             <VectorParam id="20352"  name="sourceCrop">
              <InterpolatingParam id="20353" interp="linr"  time="0/1" value="0" leadInLength="0/1"  />
              <InterpolatingParam id="20354" interp="linr"  time="0/1" value="0" leadInLength="0/1"  />
              <InterpolatingParam id="20355" interp="linr"  time="0/1" value="0" leadInLength="0/1"  />
              <InterpolatingParam id="20356" interp="linr"  time="0/1" value="0" leadInLength="0/1"  />
             </VectorParam>
             <VectorParam id="20357"  name="geometryCrop">
              <InterpolatingParam id="20358" interp="linr"  time="-9999999/1" value="0" leadInLength="0/1"  />
              <InterpolatingParam id="20359" interp="linr"  time="-9999999/1" value="0" leadInLength="0/1"  />
              <InterpolatingParam id="20360" interp="linr"  time="-9999999/1" value="0" leadInLength="0/1"  />
              <InterpolatingParam id="20361" interp="linr"  time="-9999999/1" value="0" leadInLength="0/1"  />
             </VectorParam>
             <InterpolatingParam id="20362" interp="linr"  time="-9999999/1" value="1" leadInLength="0/1"  name="opacity"/>
            </Parameters>
            <Attributes>
             <Attribute id="20363" value="" name="ident"/>
            </Attributes>
            <MetaData>
             <entry key="WinSubProjectDisplayName" val=""/>
            </MetaData>
            <ExtraData>
             <Entry key="ZoomPanBin">
              <ZoomPanBin id="20364"  >
               <ZoomPanKeyframes>
                <ZoomPanKeyframe id="20365" timeRangeEnd="-9999999/1" timeRangeDuration="0/1" interpolaterName=""  />
               </ZoomPanKeyframes>
              </ZoomPanBin>
             </Entry>
            </ExtraData>
           </IMFile>
           <VMFile id="20366" start="4143" duration="185" scalar="1/1" mediaStart="4130/1" mediaDuration="185/1" trackNumber="0" src="4" >
            <Transformer>
             <VectorParam id="20367"  name="translation">
              <InterpolatingParam id="20368" interp="linr"  time="-9999999/1" value="0" leadInLength="0/1"  />
              <InterpolatingParam id="20369" interp="linr"  time="-9999999/1" value="0" leadInLength="0/1"  />
              <InterpolatingParam id="20370" interp="linr"  time="-9999999/1" value="0" leadInLength="0/1"  />
             </VectorParam>
             <VectorParam id="20371"  name="rotation">
              <InterpolatingParam id="20372" interp="linr"  time="-9999999/1" value="0" leadInLength="0/1"  />
              <InterpolatingParam id="20373" interp="linr"  time="-9999999/1" value="0" leadInLength="0/1"  />
              <InterpolatingParam id="20374" interp="linr"  time="-9999999/1" value="0" leadInLength="0/1"  />
             </VectorParam>
             <VectorParam id="20375"  name="shear">
              <InterpolatingParam id="20376" interp="linr"  time="-9999999/1" value="0" leadInLength="0/1"  />
              <InterpolatingParam id="20377" interp="linr"  time="-9999999/1" value="0" leadInLength="0/1"  />
              <InterpolatingParam id="20378" interp="linr"  time="-9999999/1" value="0" leadInLength="0/1"  />
             </VectorParam>
             <VectorParam id="20379"  name="scale">
              <InterpolatingParam id="20380" interp="linr"  time="-9999999/1" value="1" leadInLength="0/1"  />
              <InterpolatingParam id="20381" interp="linr"  time="-9999999/1" value="1" leadInLength="0/1"  />
              <InterpolatingParam id="20382" interp="linr"  time="-9999999/1" value="1" leadInLength="0/1"  />
             </VectorParam>
             <VectorParam id="20383"  name="anchor">
              <InterpolatingParam id="20384" interp="linr"  time="0/1" value="0" leadInLength="0/1"  />
              <InterpolatingParam id="20385" interp="linr"  time="0/1" value="0" leadInLength="0/1"  />
              <InterpolatingParam id="20386" interp="linr"  time="0/1" value="0" leadInLength="0/1"  />
             </VectorParam>
            </Transformer>
            <Parameters>
             <VectorParam id="20387"  name="sourceCrop">
              <InterpolatingParam id="20388" interp="linr"  time="0/1" value="0" leadInLength="0/1"  />
              <InterpolatingParam id="20389" interp="linr"  time="0/1" value="0" leadInLength="0/1"  />
              <InterpolatingParam id="20390" interp="linr"  time="0/1" value="0" leadInLength="0/1"  />
              <InterpolatingParam id="20391" interp="linr"  time="0/1" value="0" leadInLength="0/1"  />
             </VectorParam>
             <VectorParam id="20392"  name="geometryCrop">
              <InterpolatingParam id="20393" interp="linr"  time="-9999999/1" value="0" leadInLength="0/1"  />
              <InterpolatingParam id="20394" interp="linr"  time="-9999999/1" value="0" leadInLength="0/1"  />
              <InterpolatingParam id="20395" interp="linr"  time="-9999999/1" value="0" leadInLength="0/1"  />
              <InterpolatingParam id="20396" interp="linr"  time="-9999999/1" value="0" leadInLength="0/1"  />
             </VectorParam>
             <InterpolatingParam id="20397" interp="linr"  time="-9999999/1" value="1" leadInLength="0/1"  name="opacity"/>
            </Parameters>
            <Attributes>
             <Attribute id="20398" value="" name="ident"/>
            </Attributes>
            <MetaData>
             <entry key="WinSubProjectDisplayName" val=""/>
            </MetaData>
            <ExtraData>
             <Entry key="ZoomPanBin">
              <ZoomPanBin id="20399"  >
               <ZoomPanKeyframes>
                <ZoomPanKeyframe id="20400" timeRangeEnd="-9999999/1" timeRangeDuration="0/1" interpolaterName=""  />
               </ZoomPanKeyframes>
              </ZoomPanBin>
             </Entry>
            </ExtraData>
           </VMFile>
           <IMFile id="20401" start="4328" duration="3" scalar="1/1" mediaStart="4315/1" mediaDuration="1/1" trackNumber="0" src="4" trimStartSum="0/1" >
            <Transformer>
             <VectorParam id="20402"  name="translation">
              <InterpolatingParam id="20403" interp="linr"  time="-9999999/1" value="0" leadInLength="0/1"  />
              <InterpolatingParam id="20404" interp="linr"  time="-9999999/1" value="0" leadInLength="0/1"  />
              <InterpolatingParam id="20405" interp="linr"  time="-9999999/1" value="0" leadInLength="0/1"  />
             </VectorParam>
             <VectorParam id="20406"  name="rotation">
              <InterpolatingParam id="20407" interp="linr"  time="-9999999/1" value="0" leadInLength="0/1"  />
              <InterpolatingParam id="20408" interp="linr"  time="-9999999/1" value="0" leadInLength="0/1"  />
              <InterpolatingParam id="20409" interp="linr"  time="-9999999/1" value="0" leadInLength="0/1"  />
             </VectorParam>
             <VectorParam id="20410"  name="shear">
              <InterpolatingParam id="20411" interp="linr"  time="-9999999/1" value="0" leadInLength="0/1"  />
              <InterpolatingParam id="20412" interp="linr"  time="-9999999/1" value="0" leadInLength="0/1"  />
              <InterpolatingParam id="20413" interp="linr"  time="-9999999/1" value="0" leadInLength="0/1"  />
             </VectorParam>
             <VectorParam id="20414"  name="scale">
              <InterpolatingParam id="20415" interp="linr"  time="-9999999/1" value="1" leadInLength="0/1"  />
              <InterpolatingParam id="20416" interp="linr"  time="-9999999/1" value="1" leadInLength="0/1"  />
              <InterpolatingParam id="20417" interp="linr"  time="-9999999/1" value="1" leadInLength="0/1"  />
             </VectorParam>
             <VectorParam id="20418"  name="anchor">
              <InterpolatingParam id="20419" interp="linr"  time="0/1" value="0" leadInLength="0/1"  />
              <InterpolatingParam id="20420" interp="linr"  time="0/1" value="0" leadInLength="0/1"  />
              <InterpolatingParam id="20421" interp="linr"  time="0/1" value="0" leadInLength="0/1"  />
             </VectorParam>
            </Transformer>
            <Parameters>
             <VectorParam id="20422"  name="sourceCrop">
              <InterpolatingParam id="20423" interp="linr"  time="0/1" value="0" leadInLength="0/1"  />
              <InterpolatingParam id="20424" interp="linr"  time="0/1" value="0" leadInLength="0/1"  />
              <InterpolatingParam id="20425" interp="linr"  time="0/1" value="0" leadInLength="0/1"  />
              <InterpolatingParam id="20426" interp="linr"  time="0/1" value="0" leadInLength="0/1"  />
             </VectorParam>
             <VectorParam id="20427"  name="geometryCrop">
              <InterpolatingParam id="20428" interp="linr"  time="-9999999/1" value="0" leadInLength="0/1"  />
              <InterpolatingParam id="20429" interp="linr"  time="-9999999/1" value="0" leadInLength="0/1"  />
              <InterpolatingParam id="20430" interp="linr"  time="-9999999/1" value="0" leadInLength="0/1"  />
              <InterpolatingParam id="20431" interp="linr"  time="-9999999/1" value="0" leadInLength="0/1"  />
             </VectorParam>
             <InterpolatingParam id="20432" interp="linr"  time="-9999999/1" value="1" leadInLength="0/1"  name="opacity"/>
            </Parameters>
            <Attributes>
             <Attribute id="20433" value="" name="ident"/>
            </Attributes>
            <MetaData>
             <entry key="WinSubProjectDisplayName" val=""/>
            </MetaData>
            <ExtraData>
             <Entry key="ZoomPanBin">
              <ZoomPanBin id="20434"  >
               <ZoomPanKeyframes>
                <ZoomPanKeyframe id="20435" timeRangeEnd="-9999999/1" timeRangeDuration="0/1" interpolaterName=""  />
               </ZoomPanKeyframes>
              </ZoomPanBin>
             </Entry>
            </ExtraData>
           </IMFile>
           <VMFile id="20436" start="4331" duration="31" scalar="1/1" mediaStart="4315/1" mediaDuration="31/1" trackNumber="0" src="4" >
            <Transformer>
             <VectorParam id="20437"  name="translation">
              <InterpolatingParam id="20438" interp="linr"  time="-9999999/1" value="0" leadInLength="0/1"  />
              <InterpolatingParam id="20439" interp="linr"  time="-9999999/1" value="0" leadInLength="0/1"  />
              <InterpolatingParam id="20440" interp="linr"  time="-9999999/1" value="0" leadInLength="0/1"  />
             </VectorParam>
             <VectorParam id="20441"  name="rotation">
              <InterpolatingParam id="20442" interp="linr"  time="-9999999/1" value="0" leadInLength="0/1"  />
              <InterpolatingParam id="20443" interp="linr"  time="-9999999/1" value="0" leadInLength="0/1"  />
              <InterpolatingParam id="20444" interp="linr"  time="-9999999/1" value="0" leadInLength="0/1"  />
             </VectorParam>
             <VectorParam id="20445"  name="shear">
              <InterpolatingParam id="20446" interp="linr"  time="-9999999/1" value="0" leadInLength="0/1"  />
              <InterpolatingParam id="20447" interp="linr"  time="-9999999/1" value="0" leadInLength="0/1"  />
              <InterpolatingParam id="20448" interp="linr"  time="-9999999/1" value="0" leadInLength="0/1"  />
             </VectorParam>
             <VectorParam id="20449"  name="scale">
              <InterpolatingParam id="20450" interp="linr"  time="-9999999/1" value="1" leadInLength="0/1"  />
              <InterpolatingParam id="20451" interp="linr"  time="-9999999/1" value="1" leadInLength="0/1"  />
              <InterpolatingParam id="20452" interp="linr"  time="-9999999/1" value="1" leadInLength="0/1"  />
             </VectorParam>
             <VectorParam id="20453"  name="anchor">
              <InterpolatingParam id="20454" interp="linr"  time="0/1" value="0" leadInLength="0/1"  />
              <InterpolatingParam id="20455" interp="linr"  time="0/1" value="0" leadInLength="0/1"  />
              <InterpolatingParam id="20456" interp="linr"  time="0/1" value="0" leadInLength="0/1"  />
             </VectorParam>
            </Transformer>
            <Parameters>
             <VectorParam id="20457"  name="sourceCrop">
              <InterpolatingParam id="20458" interp="linr"  time="0/1" value="0" leadInLength="0/1"  />
              <InterpolatingParam id="20459" interp="linr"  time="0/1" value="0" leadInLength="0/1"  />
              <InterpolatingParam id="20460" interp="linr"  time="0/1" value="0" leadInLength="0/1"  />
              <InterpolatingParam id="20461" interp="linr"  time="0/1" value="0" leadInLength="0/1"  />
             </VectorParam>
             <VectorParam id="20462"  name="geometryCrop">
              <InterpolatingParam id="20463" interp="linr"  time="-9999999/1" value="0" leadInLength="0/1"  />
              <InterpolatingParam id="20464" interp="linr"  time="-9999999/1" value="0" leadInLength="0/1"  />
              <InterpolatingParam id="20465" interp="linr"  time="-9999999/1" value="0" leadInLength="0/1"  />
              <InterpolatingParam id="20466" interp="linr"  time="-9999999/1" value="0" leadInLength="0/1"  />
             </VectorParam>
             <InterpolatingParam id="20467" interp="linr"  time="-9999999/1" value="1" leadInLength="0/1"  name="opacity"/>
            </Parameters>
            <Attributes>
             <Attribute id="20468" value="" name="ident"/>
            </Attributes>
            <MetaData>
             <entry key="WinSubProjectDisplayName" val=""/>
            </MetaData>
            <ExtraData>
             <Entry key="ZoomPanBin">
              <ZoomPanBin id="20469"  >
               <ZoomPanKeyframes>
                <ZoomPanKeyframe id="20470" timeRangeEnd="-9999999/1" timeRangeDuration="0/1" interpolaterName=""  />
               </ZoomPanKeyframes>
              </ZoomPanBin>
             </Entry>
            </ExtraData>
           </VMFile>
           <VMFile id="20471" start="4362" duration="95" scalar="1/1" mediaStart="4751/1" mediaDuration="95/1" trackNumber="0" src="4" >
            <Transformer>
             <VectorParam id="20472"  name="translation">
              <InterpolatingParam id="20473" interp="linr"  time="-9999999/1" value="0" leadInLength="0/1"  />
              <InterpolatingParam id="20474" interp="linr"  time="-9999999/1" value="0" leadInLength="0/1"  />
              <InterpolatingParam id="20475" interp="linr"  time="-9999999/1" value="0" leadInLength="0/1"  />
             </VectorParam>
             <VectorParam id="20476"  name="rotation">
              <InterpolatingParam id="20477" interp="linr"  time="-9999999/1" value="0" leadInLength="0/1"  />
              <InterpolatingParam id="20478" interp="linr"  time="-9999999/1" value="0" leadInLength="0/1"  />
              <InterpolatingParam id="20479" interp="linr"  time="-9999999/1" value="0" leadInLength="0/1"  />
             </VectorParam>
             <VectorParam id="20480"  name="shear">
              <InterpolatingParam id="20481" interp="linr"  time="-9999999/1" value="0" leadInLength="0/1"  />
              <InterpolatingParam id="20482" interp="linr"  time="-9999999/1" value="0" leadInLength="0/1"  />
              <InterpolatingParam id="20483" interp="linr"  time="-9999999/1" value="0" leadInLength="0/1"  />
             </VectorParam>
             <VectorParam id="20484"  name="scale">
              <InterpolatingParam id="20485" interp="linr"  time="-9999999/1" value="1" leadInLength="0/1"  />
              <InterpolatingParam id="20486" interp="linr"  time="-9999999/1" value="1" leadInLength="0/1"  />
              <InterpolatingParam id="20487" interp="linr"  time="-9999999/1" value="1" leadInLength="0/1"  />
             </VectorParam>
             <VectorParam id="20488"  name="anchor">
              <InterpolatingParam id="20489" interp="linr"  time="0/1" value="0" leadInLength="0/1"  />
              <InterpolatingParam id="20490" interp="linr"  time="0/1" value="0" leadInLength="0/1"  />
              <InterpolatingParam id="20491" interp="linr"  time="0/1" value="0" leadInLength="0/1"  />
             </VectorParam>
            </Transformer>
            <Parameters>
             <VectorParam id="20492"  name="sourceCrop">
              <InterpolatingParam id="20493" interp="linr"  time="0/1" value="0" leadInLength="0/1"  />
              <InterpolatingParam id="20494" interp="linr"  time="0/1" value="0" leadInLength="0/1"  />
              <InterpolatingParam id="20495" interp="linr"  time="0/1" value="0" leadInLength="0/1"  />
              <InterpolatingParam id="20496" interp="linr"  time="0/1" value="0" leadInLength="0/1"  />
             </VectorParam>
             <VectorParam id="20497"  name="geometryCrop">
              <InterpolatingParam id="20498" interp="linr"  time="-9999999/1" value="0" leadInLength="0/1"  />
              <InterpolatingParam id="20499" interp="linr"  time="-9999999/1" value="0" leadInLength="0/1"  />
              <InterpolatingParam id="20500" interp="linr"  time="-9999999/1" value="0" leadInLength="0/1"  />
              <InterpolatingParam id="20501" interp="linr"  time="-9999999/1" value="0" leadInLength="0/1"  />
             </VectorParam>
             <InterpolatingParam id="20502" interp="linr"  time="-9999999/1" value="1" leadInLength="0/1"  name="opacity"/>
            </Parameters>
            <Attributes>
             <Attribute id="20503" value="" name="ident"/>
            </Attributes>
            <MetaData>
             <entry key="WinSubProjectDisplayName" val=""/>
            </MetaData>
            <ExtraData>
             <Entry key="ZoomPanBin">
              <ZoomPanBin id="20504"  >
               <ZoomPanKeyframes>
                <ZoomPanKeyframe id="20505" timeRangeEnd="-9999999/1" timeRangeDuration="0/1" interpolaterName=""  />
               </ZoomPanKeyframes>
              </ZoomPanBin>
             </Entry>
            </ExtraData>
           </VMFile>
           <IMFile id="20506" start="4457" duration="270" scalar="1/1" mediaStart="4846/1" mediaDuration="1/1" trackNumber="0" src="4" trimStartSum="0/1" >
            <Transformer>
             <VectorParam id="20507"  name="translation">
              <InterpolatingParam id="20508" interp="linr"  time="-9999999/1" value="0" leadInLength="0/1"  />
              <InterpolatingParam id="20509" interp="linr"  time="-9999999/1" value="0" leadInLength="0/1"  />
              <InterpolatingParam id="20510" interp="linr"  time="-9999999/1" value="0" leadInLength="0/1"  />
             </VectorParam>
             <VectorParam id="20511"  name="rotation">
              <InterpolatingParam id="20512" interp="linr"  time="-9999999/1" value="0" leadInLength="0/1"  />
              <InterpolatingParam id="20513" interp="linr"  time="-9999999/1" value="0" leadInLength="0/1"  />
              <InterpolatingParam id="20514" interp="linr"  time="-9999999/1" value="0" leadInLength="0/1"  />
             </VectorParam>
             <VectorParam id="20515"  name="shear">
              <InterpolatingParam id="20516" interp="linr"  time="-9999999/1" value="0" leadInLength="0/1"  />
              <InterpolatingParam id="20517" interp="linr"  time="-9999999/1" value="0" leadInLength="0/1"  />
              <InterpolatingParam id="20518" interp="linr"  time="-9999999/1" value="0" leadInLength="0/1"  />
             </VectorParam>
             <VectorParam id="20519"  name="scale">
              <InterpolatingParam id="20520" interp="linr"  time="-9999999/1" value="1" leadInLength="0/1"  />
              <InterpolatingParam id="20521" interp="linr"  time="-9999999/1" value="1" leadInLength="0/1"  />
              <InterpolatingParam id="20522" interp="linr"  time="-9999999/1" value="1" leadInLength="0/1"  />
             </VectorParam>
             <VectorParam id="20523"  name="anchor">
              <InterpolatingParam id="20524" interp="linr"  time="0/1" value="0" leadInLength="0/1"  />
              <InterpolatingParam id="20525" interp="linr"  time="0/1" value="0" leadInLength="0/1"  />
              <InterpolatingParam id="20526" interp="linr"  time="0/1" value="0" leadInLength="0/1"  />
             </VectorParam>
            </Transformer>
            <Parameters>
             <VectorParam id="20527"  name="sourceCrop">
              <InterpolatingParam id="20528" interp="linr"  time="0/1" value="0" leadInLength="0/1"  />
              <InterpolatingParam id="20529" interp="linr"  time="0/1" value="0" leadInLength="0/1"  />
              <InterpolatingParam id="20530" interp="linr"  time="0/1" value="0" leadInLength="0/1"  />
              <InterpolatingParam id="20531" interp="linr"  time="0/1" value="0" leadInLength="0/1"  />
             </VectorParam>
             <VectorParam id="20532"  name="geometryCrop">
              <InterpolatingParam id="20533" interp="linr"  time="-9999999/1" value="0" leadInLength="0/1"  />
              <InterpolatingParam id="20534" interp="linr"  time="-9999999/1" value="0" leadInLength="0/1"  />
              <InterpolatingParam id="20535" interp="linr"  time="-9999999/1" value="0" leadInLength="0/1"  />
              <InterpolatingParam id="20536" interp="linr"  time="-9999999/1" value="0" leadInLength="0/1"  />
             </VectorParam>
             <InterpolatingParam id="20537" interp="linr"  time="-9999999/1" value="1" leadInLength="0/1"  name="opacity"/>
            </Parameters>
            <Attributes>
             <Attribute id="20538" value="" name="ident"/>
            </Attributes>
            <MetaData>
             <entry key="WinSubProjectDisplayName" val=""/>
            </MetaData>
            <ExtraData>
             <Entry key="ZoomPanBin">
              <ZoomPanBin id="20539"  >
               <ZoomPanKeyframes>
                <ZoomPanKeyframe id="20540" timeRangeEnd="-9999999/1" timeRangeDuration="0/1" interpolaterName=""  />
               </ZoomPanKeyframes>
              </ZoomPanBin>
             </Entry>
            </ExtraData>
           </IMFile>
           <VMFile id="20541" start="4727" duration="17" scalar="1/1" mediaStart="4846/1" mediaDuration="17/1" trackNumber="0" src="4" >
            <Transformer>
             <VectorParam id="20542"  name="translation">
              <InterpolatingParam id="20543" interp="linr"  time="-9999999/1" value="0" leadInLength="0/1"  />
              <InterpolatingParam id="20544" interp="linr"  time="-9999999/1" value="0" leadInLength="0/1"  />
              <InterpolatingParam id="20545" interp="linr"  time="-9999999/1" value="0" leadInLength="0/1"  />
             </VectorParam>
             <VectorParam id="20546"  name="rotation">
              <InterpolatingParam id="20547" interp="linr"  time="-9999999/1" value="0" leadInLength="0/1"  />
              <InterpolatingParam id="20548" interp="linr"  time="-9999999/1" value="0" leadInLength="0/1"  />
              <InterpolatingParam id="20549" interp="linr"  time="-9999999/1" value="0" leadInLength="0/1"  />
             </VectorParam>
             <VectorParam id="20550"  name="shear">
              <InterpolatingParam id="20551" interp="linr"  time="-9999999/1" value="0" leadInLength="0/1"  />
              <InterpolatingParam id="20552" interp="linr"  time="-9999999/1" value="0" leadInLength="0/1"  />
              <InterpolatingParam id="20553" interp="linr"  time="-9999999/1" value="0" leadInLength="0/1"  />
             </VectorParam>
             <VectorParam id="20554"  name="scale">
              <InterpolatingParam id="20555" interp="linr"  time="-9999999/1" value="1" leadInLength="0/1"  />
              <InterpolatingParam id="20556" interp="linr"  time="-9999999/1" value="1" leadInLength="0/1"  />
              <InterpolatingParam id="20557" interp="linr"  time="-9999999/1" value="1" leadInLength="0/1"  />
             </VectorParam>
             <VectorParam id="20558"  name="anchor">
              <InterpolatingParam id="20559" interp="linr"  time="0/1" value="0" leadInLength="0/1"  />
              <InterpolatingParam id="20560" interp="linr"  time="0/1" value="0" leadInLength="0/1"  />
              <InterpolatingParam id="20561" interp="linr"  time="0/1" value="0" leadInLength="0/1"  />
             </VectorParam>
            </Transformer>
            <Parameters>
             <VectorParam id="20562"  name="sourceCrop">
              <InterpolatingParam id="20563" interp="linr"  time="0/1" value="0" leadInLength="0/1"  />
              <InterpolatingParam id="20564" interp="linr"  time="0/1" value="0" leadInLength="0/1"  />
              <InterpolatingParam id="20565" interp="linr"  time="0/1" value="0" leadInLength="0/1"  />
              <InterpolatingParam id="20566" interp="linr"  time="0/1" value="0" leadInLength="0/1"  />
             </VectorParam>
             <VectorParam id="20567"  name="geometryCrop">
              <InterpolatingParam id="20568" interp="linr"  time="-9999999/1" value="0" leadInLength="0/1"  />
              <InterpolatingParam id="20569" interp="linr"  time="-9999999/1" value="0" leadInLength="0/1"  />
              <InterpolatingParam id="20570" interp="linr"  time="-9999999/1" value="0" leadInLength="0/1"  />
              <InterpolatingParam id="20571" interp="linr"  time="-9999999/1" value="0" leadInLength="0/1"  />
             </VectorParam>
             <InterpolatingParam id="20572" interp="linr"  time="-9999999/1" value="1" leadInLength="0/1"  name="opacity"/>
            </Parameters>
            <Attributes>
             <Attribute id="20573" value="" name="ident"/>
            </Attributes>
            <MetaData>
             <entry key="WinSubProjectDisplayName" val=""/>
            </MetaData>
            <ExtraData>
             <Entry key="ZoomPanBin">
              <ZoomPanBin id="20574"  >
               <ZoomPanKeyframes>
                <ZoomPanKeyframe id="20575" timeRangeEnd="-9999999/1" timeRangeDuration="0/1" interpolaterName=""  />
               </ZoomPanKeyframes>
              </ZoomPanBin>
             </Entry>
            </ExtraData>
           </VMFile>
           <VMFile id="20576" start="4744" duration="386" scalar="1/1" mediaStart="7805/1" mediaDuration="386/1" trackNumber="0" src="4" >
            <Transformer>
             <VectorParam id="20577"  name="translation">
              <InterpolatingParam id="20578" interp="linr"  time="-9999999/1" value="0" leadInLength="0/1"  />
              <InterpolatingParam id="20579" interp="linr"  time="-9999999/1" value="0" leadInLength="0/1"  />
              <InterpolatingParam id="20580" interp="linr"  time="-9999999/1" value="0" leadInLength="0/1"  />
             </VectorParam>
             <VectorParam id="20581"  name="rotation">
              <InterpolatingParam id="20582" interp="linr"  time="-9999999/1" value="0" leadInLength="0/1"  />
              <InterpolatingParam id="20583" interp="linr"  time="-9999999/1" value="0" leadInLength="0/1"  />
              <InterpolatingParam id="20584" interp="linr"  time="-9999999/1" value="0" leadInLength="0/1"  />
             </VectorParam>
             <VectorParam id="20585"  name="shear">
              <InterpolatingParam id="20586" interp="linr"  time="-9999999/1" value="0" leadInLength="0/1"  />
              <InterpolatingParam id="20587" interp="linr"  time="-9999999/1" value="0" leadInLength="0/1"  />
              <InterpolatingParam id="20588" interp="linr"  time="-9999999/1" value="0" leadInLength="0/1"  />
             </VectorParam>
             <VectorParam id="20589"  name="scale">
              <InterpolatingParam id="20590" interp="linr"  time="-9999999/1" value="1" leadInLength="0/1"  />
              <InterpolatingParam id="20591" interp="linr"  time="-9999999/1" value="1" leadInLength="0/1"  />
              <InterpolatingParam id="20592" interp="linr"  time="-9999999/1" value="1" leadInLength="0/1"  />
             </VectorParam>
             <VectorParam id="20593"  name="anchor">
              <InterpolatingParam id="20594" interp="linr"  time="0/1" value="0" leadInLength="0/1"  />
              <InterpolatingParam id="20595" interp="linr"  time="0/1" value="0" leadInLength="0/1"  />
              <InterpolatingParam id="20596" interp="linr"  time="0/1" value="0" leadInLength="0/1"  />
             </VectorParam>
            </Transformer>
            <Parameters>
             <VectorParam id="20597"  name="sourceCrop">
              <InterpolatingParam id="20598" interp="linr"  time="0/1" value="0" leadInLength="0/1"  />
              <InterpolatingParam id="20599" interp="linr"  time="0/1" value="0" leadInLength="0/1"  />
              <InterpolatingParam id="20600" interp="linr"  time="0/1" value="0" leadInLength="0/1"  />
              <InterpolatingParam id="20601" interp="linr"  time="0/1" value="0" leadInLength="0/1"  />
             </VectorParam>
             <VectorParam id="20602"  name="geometryCrop">
              <InterpolatingParam id="20603" interp="linr"  time="-9999999/1" value="0" leadInLength="0/1"  />
              <InterpolatingParam id="20604" interp="linr"  time="-9999999/1" value="0" leadInLength="0/1"  />
              <InterpolatingParam id="20605" interp="linr"  time="-9999999/1" value="0" leadInLength="0/1"  />
              <InterpolatingParam id="20606" interp="linr"  time="-9999999/1" value="0" leadInLength="0/1"  />
             </VectorParam>
             <InterpolatingParam id="20607" interp="linr"  time="-9999999/1" value="1" leadInLength="0/1"  name="opacity"/>
            </Parameters>
            <Attributes>
             <Attribute id="20608" value="" name="ident"/>
            </Attributes>
            <MetaData>
             <entry key="WinSubProjectDisplayName" val=""/>
            </MetaData>
            <ExtraData>
             <Entry key="ZoomPanBin">
              <ZoomPanBin id="20609"  >
               <ZoomPanKeyframes>
                <ZoomPanKeyframe id="20610" timeRangeEnd="-9999999/1" timeRangeDuration="0/1" interpolaterName=""  />
               </ZoomPanKeyframes>
              </ZoomPanBin>
             </Entry>
            </ExtraData>
           </VMFile>
           <VMFile id="20611" start="5130" duration="922" scalar="1/1" mediaStart="8371/1" mediaDuration="922/1" trackNumber="0" src="4" >
            <Transformer>
             <VectorParam id="20612"  name="translation">
              <InterpolatingParam id="20613" interp="linr"  time="-9999999/1" value="0" leadInLength="0/1"  />
              <InterpolatingParam id="20614" interp="linr"  time="-9999999/1" value="0" leadInLength="0/1"  />
              <InterpolatingParam id="20615" interp="linr"  time="-9999999/1" value="0" leadInLength="0/1"  />
             </VectorParam>
             <VectorParam id="20616"  name="rotation">
              <InterpolatingParam id="20617" interp="linr"  time="-9999999/1" value="0" leadInLength="0/1"  />
              <InterpolatingParam id="20618" interp="linr"  time="-9999999/1" value="0" leadInLength="0/1"  />
              <InterpolatingParam id="20619" interp="linr"  time="-9999999/1" value="0" leadInLength="0/1"  />
             </VectorParam>
             <VectorParam id="20620"  name="shear">
              <InterpolatingParam id="20621" interp="linr"  time="-9999999/1" value="0" leadInLength="0/1"  />
              <InterpolatingParam id="20622" interp="linr"  time="-9999999/1" value="0" leadInLength="0/1"  />
              <InterpolatingParam id="20623" interp="linr"  time="-9999999/1" value="0" leadInLength="0/1"  />
             </VectorParam>
             <VectorParam id="20624"  name="scale">
              <InterpolatingParam id="20625" interp="linr"  time="-9999999/1" value="1" leadInLength="0/1"  />
              <InterpolatingParam id="20626" interp="linr"  time="-9999999/1" value="1" leadInLength="0/1"  />
              <InterpolatingParam id="20627" interp="linr"  time="-9999999/1" value="1" leadInLength="0/1"  />
             </VectorParam>
             <VectorParam id="20628"  name="anchor">
              <InterpolatingParam id="20629" interp="linr"  time="0/1" value="0" leadInLength="0/1"  />
              <InterpolatingParam id="20630" interp="linr"  time="0/1" value="0" leadInLength="0/1"  />
              <InterpolatingParam id="20631" interp="linr"  time="0/1" value="0" leadInLength="0/1"  />
             </VectorParam>
            </Transformer>
            <Parameters>
             <VectorParam id="20632"  name="sourceCrop">
              <InterpolatingParam id="20633" interp="linr"  time="0/1" value="0" leadInLength="0/1"  />
              <InterpolatingParam id="20634" interp="linr"  time="0/1" value="0" leadInLength="0/1"  />
              <InterpolatingParam id="20635" interp="linr"  time="0/1" value="0" leadInLength="0/1"  />
              <InterpolatingParam id="20636" interp="linr"  time="0/1" value="0" leadInLength="0/1"  />
             </VectorParam>
             <VectorParam id="20637"  name="geometryCrop">
              <InterpolatingParam id="20638" interp="linr"  time="-9999999/1" value="0" leadInLength="0/1"  />
              <InterpolatingParam id="20639" interp="linr"  time="-9999999/1" value="0" leadInLength="0/1"  />
              <InterpolatingParam id="20640" interp="linr"  time="-9999999/1" value="0" leadInLength="0/1"  />
              <InterpolatingParam id="20641" interp="linr"  time="-9999999/1" value="0" leadInLength="0/1"  />
             </VectorParam>
             <InterpolatingParam id="20642" interp="linr"  time="-9999999/1" value="1" leadInLength="0/1"  name="opacity"/>
            </Parameters>
            <Attributes>
             <Attribute id="20643" value="" name="ident"/>
            </Attributes>
            <MetaData>
             <entry key="WinSubProjectDisplayName" val=""/>
            </MetaData>
            <ExtraData>
             <Entry key="ZoomPanBin">
              <ZoomPanBin id="20644"  >
               <ZoomPanKeyframes>
                <ZoomPanKeyframe id="20645" timeRangeEnd="-9999999/1" timeRangeDuration="0/1" interpolaterName=""  />
               </ZoomPanKeyframes>
              </ZoomPanBin>
             </Entry>
            </ExtraData>
           </VMFile>
           <IMFile id="20646" start="6052" duration="30" scalar="1/1" mediaStart="9292/1" mediaDuration="1/1" trackNumber="0" src="4" trimStartSum="0/1" >
            <Transformer>
             <VectorParam id="20647"  name="translation">
              <InterpolatingParam id="20648" interp="linr"  time="-9999999/1" value="0" leadInLength="0/1"  />
              <InterpolatingParam id="20649" interp="linr"  time="-9999999/1" value="0" leadInLength="0/1"  />
              <InterpolatingParam id="20650" interp="linr"  time="-9999999/1" value="0" leadInLength="0/1"  />
             </VectorParam>
             <VectorParam id="20651"  name="rotation">
              <InterpolatingParam id="20652" interp="linr"  time="-9999999/1" value="0" leadInLength="0/1"  />
              <InterpolatingParam id="20653" interp="linr"  time="-9999999/1" value="0" leadInLength="0/1"  />
              <InterpolatingParam id="20654" interp="linr"  time="-9999999/1" value="0" leadInLength="0/1"  />
             </VectorParam>
             <VectorParam id="20655"  name="shear">
              <InterpolatingParam id="20656" interp="linr"  time="-9999999/1" value="0" leadInLength="0/1"  />
              <InterpolatingParam id="20657" interp="linr"  time="-9999999/1" value="0" leadInLength="0/1"  />
              <InterpolatingParam id="20658" interp="linr"  time="-9999999/1" value="0" leadInLength="0/1"  />
             </VectorParam>
             <VectorParam id="20659"  name="scale">
              <InterpolatingParam id="20660" interp="linr"  time="-9999999/1" value="1" leadInLength="0/1"  />
              <InterpolatingParam id="20661" interp="linr"  time="-9999999/1" value="1" leadInLength="0/1"  />
              <InterpolatingParam id="20662" interp="linr"  time="-9999999/1" value="1" leadInLength="0/1"  />
             </VectorParam>
             <VectorParam id="20663"  name="anchor">
              <InterpolatingParam id="20664" interp="linr"  time="0/1" value="0" leadInLength="0/1"  />
              <InterpolatingParam id="20665" interp="linr"  time="0/1" value="0" leadInLength="0/1"  />
              <InterpolatingParam id="20666" interp="linr"  time="0/1" value="0" leadInLength="0/1"  />
             </VectorParam>
            </Transformer>
            <Parameters>
             <VectorParam id="20667"  name="sourceCrop">
              <InterpolatingParam id="20668" interp="linr"  time="0/1" value="0" leadInLength="0/1"  />
              <InterpolatingParam id="20669" interp="linr"  time="0/1" value="0" leadInLength="0/1"  />
              <InterpolatingParam id="20670" interp="linr"  time="0/1" value="0" leadInLength="0/1"  />
              <InterpolatingParam id="20671" interp="linr"  time="0/1" value="0" leadInLength="0/1"  />
             </VectorParam>
             <VectorParam id="20672"  name="geometryCrop">
              <InterpolatingParam id="20673" interp="linr"  time="-9999999/1" value="0" leadInLength="0/1"  />
              <InterpolatingParam id="20674" interp="linr"  time="-9999999/1" value="0" leadInLength="0/1"  />
              <InterpolatingParam id="20675" interp="linr"  time="-9999999/1" value="0" leadInLength="0/1"  />
              <InterpolatingParam id="20676" interp="linr"  time="-9999999/1" value="0" leadInLength="0/1"  />
             </VectorParam>
             <InterpolatingParam id="20677" interp="linr"  time="-9999999/1" value="1" leadInLength="0/1"  name="opacity"/>
            </Parameters>
            <Attributes>
             <Attribute id="20678" value="" name="ident"/>
            </Attributes>
            <MetaData>
             <entry key="WinSubProjectDisplayName" val=""/>
            </MetaData>
            <ExtraData>
             <Entry key="ZoomPanBin">
              <ZoomPanBin id="20679"  >
               <ZoomPanKeyframes>
                <ZoomPanKeyframe id="20680" timeRangeEnd="-9999999/1" timeRangeDuration="0/1" interpolaterName=""  />
               </ZoomPanKeyframes>
              </ZoomPanBin>
             </Entry>
            </ExtraData>
           </IMFile>
           <VMFile id="20681" start="6082" duration="86" scalar="1/1" mediaStart="9292/1" mediaDuration="86/1" trackNumber="0" src="4" >
            <Transformer>
             <VectorParam id="20682"  name="translation">
              <InterpolatingParam id="20683" interp="linr"  time="-9999999/1" value="0" leadInLength="0/1"  />
              <InterpolatingParam id="20684" interp="linr"  time="-9999999/1" value="0" leadInLength="0/1"  />
              <InterpolatingParam id="20685" interp="linr"  time="-9999999/1" value="0" leadInLength="0/1"  />
             </VectorParam>
             <VectorParam id="20686"  name="rotation">
              <InterpolatingParam id="20687" interp="linr"  time="-9999999/1" value="0" leadInLength="0/1"  />
              <InterpolatingParam id="20688" interp="linr"  time="-9999999/1" value="0" leadInLength="0/1"  />
              <InterpolatingParam id="20689" interp="linr"  time="-9999999/1" value="0" leadInLength="0/1"  />
             </VectorParam>
             <VectorParam id="20690"  name="shear">
              <InterpolatingParam id="20691" interp="linr"  time="-9999999/1" value="0" leadInLength="0/1"  />
              <InterpolatingParam id="20692" interp="linr"  time="-9999999/1" value="0" leadInLength="0/1"  />
              <InterpolatingParam id="20693" interp="linr"  time="-9999999/1" value="0" leadInLength="0/1"  />
             </VectorParam>
             <VectorParam id="20694"  name="scale">
              <InterpolatingParam id="20695" interp="linr"  time="-9999999/1" value="1" leadInLength="0/1"  />
              <InterpolatingParam id="20696" interp="linr"  time="-9999999/1" value="1" leadInLength="0/1"  />
              <InterpolatingParam id="20697" interp="linr"  time="-9999999/1" value="1" leadInLength="0/1"  />
             </VectorParam>
             <VectorParam id="20698"  name="anchor">
              <InterpolatingParam id="20699" interp="linr"  time="0/1" value="0" leadInLength="0/1"  />
              <InterpolatingParam id="20700" interp="linr"  time="0/1" value="0" leadInLength="0/1"  />
              <InterpolatingParam id="20701" interp="linr"  time="0/1" value="0" leadInLength="0/1"  />
             </VectorParam>
            </Transformer>
            <Parameters>
             <VectorParam id="20702"  name="sourceCrop">
              <InterpolatingParam id="20703" interp="linr"  time="0/1" value="0" leadInLength="0/1"  />
              <InterpolatingParam id="20704" interp="linr"  time="0/1" value="0" leadInLength="0/1"  />
              <InterpolatingParam id="20705" interp="linr"  time="0/1" value="0" leadInLength="0/1"  />
              <InterpolatingParam id="20706" interp="linr"  time="0/1" value="0" leadInLength="0/1"  />
             </VectorParam>
             <VectorParam id="20707"  name="geometryCrop">
              <InterpolatingParam id="20708" interp="linr"  time="-9999999/1" value="0" leadInLength="0/1"  />
              <InterpolatingParam id="20709" interp="linr"  time="-9999999/1" value="0" leadInLength="0/1"  />
              <InterpolatingParam id="20710" interp="linr"  time="-9999999/1" value="0" leadInLength="0/1"  />
              <InterpolatingParam id="20711" interp="linr"  time="-9999999/1" value="0" leadInLength="0/1"  />
             </VectorParam>
             <InterpolatingParam id="20712" interp="linr"  time="-9999999/1" value="1" leadInLength="0/1"  name="opacity"/>
            </Parameters>
            <Attributes>
             <Attribute id="20713" value="" name="ident"/>
            </Attributes>
            <MetaData>
             <entry key="WinSubProjectDisplayName" val=""/>
            </MetaData>
            <ExtraData>
             <Entry key="ZoomPanBin">
              <ZoomPanBin id="20714"  >
               <ZoomPanKeyframes>
                <ZoomPanKeyframe id="20715" timeRangeEnd="-9999999/1" timeRangeDuration="0/1" interpolaterName=""  />
               </ZoomPanKeyframes>
              </ZoomPanBin>
             </Entry>
            </ExtraData>
           </VMFile>
           <VMFile id="20716" start="6168" duration="555" scalar="1/1" mediaStart="9516/1" mediaDuration="555/1" trackNumber="0" src="4" >
            <Transformer>
             <VectorParam id="20717"  name="translation">
              <InterpolatingParam id="20718" interp="linr"  time="-9999999/1" value="0" leadInLength="0/1"  />
              <InterpolatingParam id="20719" interp="linr"  time="-9999999/1" value="0" leadInLength="0/1"  />
              <InterpolatingParam id="20720" interp="linr"  time="-9999999/1" value="0" leadInLength="0/1"  />
             </VectorParam>
             <VectorParam id="20721"  name="rotation">
              <InterpolatingParam id="20722" interp="linr"  time="-9999999/1" value="0" leadInLength="0/1"  />
              <InterpolatingParam id="20723" interp="linr"  time="-9999999/1" value="0" leadInLength="0/1"  />
              <InterpolatingParam id="20724" interp="linr"  time="-9999999/1" value="0" leadInLength="0/1"  />
             </VectorParam>
             <VectorParam id="20725"  name="shear">
              <InterpolatingParam id="20726" interp="linr"  time="-9999999/1" value="0" leadInLength="0/1"  />
              <InterpolatingParam id="20727" interp="linr"  time="-9999999/1" value="0" leadInLength="0/1"  />
              <InterpolatingParam id="20728" interp="linr"  time="-9999999/1" value="0" leadInLength="0/1"  />
             </VectorParam>
             <VectorParam id="20729"  name="scale">
              <InterpolatingParam id="20730" interp="linr"  time="-9999999/1" value="1" leadInLength="0/1"  />
              <InterpolatingParam id="20731" interp="linr"  time="-9999999/1" value="1" leadInLength="0/1"  />
              <InterpolatingParam id="20732" interp="linr"  time="-9999999/1" value="1" leadInLength="0/1"  />
             </VectorParam>
             <VectorParam id="20733"  name="anchor">
              <InterpolatingParam id="20734" interp="linr"  time="0/1" value="0" leadInLength="0/1"  />
              <InterpolatingParam id="20735" interp="linr"  time="0/1" value="0" leadInLength="0/1"  />
              <InterpolatingParam id="20736" interp="linr"  time="0/1" value="0" leadInLength="0/1"  />
             </VectorParam>
            </Transformer>
            <Parameters>
             <VectorParam id="20737"  name="sourceCrop">
              <InterpolatingParam id="20738" interp="linr"  time="0/1" value="0" leadInLength="0/1"  />
              <InterpolatingParam id="20739" interp="linr"  time="0/1" value="0" leadInLength="0/1"  />
              <InterpolatingParam id="20740" interp="linr"  time="0/1" value="0" leadInLength="0/1"  />
              <InterpolatingParam id="20741" interp="linr"  time="0/1" value="0" leadInLength="0/1"  />
             </VectorParam>
             <VectorParam id="20742"  name="geometryCrop">
              <InterpolatingParam id="20743" interp="linr"  time="-9999999/1" value="0" leadInLength="0/1"  />
              <InterpolatingParam id="20744" interp="linr"  time="-9999999/1" value="0" leadInLength="0/1"  />
              <InterpolatingParam id="20745" interp="linr"  time="-9999999/1" value="0" leadInLength="0/1"  />
              <InterpolatingParam id="20746" interp="linr"  time="-9999999/1" value="0" leadInLength="0/1"  />
             </VectorParam>
             <InterpolatingParam id="20747" interp="linr"  time="-9999999/1" value="1" leadInLength="0/1"  name="opacity"/>
            </Parameters>
            <Attributes>
             <Attribute id="20748" value="" name="ident"/>
            </Attributes>
            <MetaData>
             <entry key="WinSubProjectDisplayName" val=""/>
            </MetaData>
            <ExtraData>
             <Entry key="ZoomPanBin">
              <ZoomPanBin id="20749"  >
               <ZoomPanKeyframes>
                <ZoomPanKeyframe id="20750" timeRangeEnd="-9999999/1" timeRangeDuration="0/1" interpolaterName=""  />
               </ZoomPanKeyframes>
              </ZoomPanBin>
             </Entry>
            </ExtraData>
           </VMFile>
           <VMFile id="20751" start="6723" duration="460" scalar="1/1" mediaStart="11597/1" mediaDuration="460/1" trackNumber="0" src="4" >
            <Transformer>
             <VectorParam id="20752"  name="translation">
              <InterpolatingParam id="20753" interp="linr"  time="-9999999/1" value="0" leadInLength="0/1"  />
              <InterpolatingParam id="20754" interp="linr"  time="-9999999/1" value="0" leadInLength="0/1"  />
              <InterpolatingParam id="20755" interp="linr"  time="-9999999/1" value="0" leadInLength="0/1"  />
             </VectorParam>
             <VectorParam id="20756"  name="rotation">
              <InterpolatingParam id="20757" interp="linr"  time="-9999999/1" value="0" leadInLength="0/1"  />
              <InterpolatingParam id="20758" interp="linr"  time="-9999999/1" value="0" leadInLength="0/1"  />
              <InterpolatingParam id="20759" interp="linr"  time="-9999999/1" value="0" leadInLength="0/1"  />
             </VectorParam>
             <VectorParam id="20760"  name="shear">
              <InterpolatingParam id="20761" interp="linr"  time="-9999999/1" value="0" leadInLength="0/1"  />
              <InterpolatingParam id="20762" interp="linr"  time="-9999999/1" value="0" leadInLength="0/1"  />
              <InterpolatingParam id="20763" interp="linr"  time="-9999999/1" value="0" leadInLength="0/1"  />
             </VectorParam>
             <VectorParam id="20764"  name="scale">
              <InterpolatingParam id="20765" interp="linr"  time="-9999999/1" value="1" leadInLength="0/1"  />
              <InterpolatingParam id="20766" interp="linr"  time="-9999999/1" value="1" leadInLength="0/1"  />
              <InterpolatingParam id="20767" interp="linr"  time="-9999999/1" value="1" leadInLength="0/1"  />
             </VectorParam>
             <VectorParam id="20768"  name="anchor">
              <InterpolatingParam id="20769" interp="linr"  time="0/1" value="0" leadInLength="0/1"  />
              <InterpolatingParam id="20770" interp="linr"  time="0/1" value="0" leadInLength="0/1"  />
              <InterpolatingParam id="20771" interp="linr"  time="0/1" value="0" leadInLength="0/1"  />
             </VectorParam>
            </Transformer>
            <Parameters>
             <VectorParam id="20772"  name="sourceCrop">
              <InterpolatingParam id="20773" interp="linr"  time="0/1" value="0" leadInLength="0/1"  />
              <InterpolatingParam id="20774" interp="linr"  time="0/1" value="0" leadInLength="0/1"  />
              <InterpolatingParam id="20775" interp="linr"  time="0/1" value="0" leadInLength="0/1"  />
              <InterpolatingParam id="20776" interp="linr"  time="0/1" value="0" leadInLength="0/1"  />
             </VectorParam>
             <VectorParam id="20777"  name="geometryCrop">
              <InterpolatingParam id="20778" interp="linr"  time="-9999999/1" value="0" leadInLength="0/1"  />
              <InterpolatingParam id="20779" interp="linr"  time="-9999999/1" value="0" leadInLength="0/1"  />
              <InterpolatingParam id="20780" interp="linr"  time="-9999999/1" value="0" leadInLength="0/1"  />
              <InterpolatingParam id="20781" interp="linr"  time="-9999999/1" value="0" leadInLength="0/1"  />
             </VectorParam>
             <InterpolatingParam id="20782" interp="linr"  time="-9999999/1" value="1" leadInLength="0/1"  name="opacity"/>
            </Parameters>
            <Attributes>
             <Attribute id="20783" value="" name="ident"/>
            </Attributes>
            <MetaData>
             <entry key="WinSubProjectDisplayName" val=""/>
            </MetaData>
            <ExtraData>
             <Entry key="ZoomPanBin">
              <ZoomPanBin id="20784"  >
               <ZoomPanKeyframes>
                <ZoomPanKeyframe id="20785" timeRangeEnd="-9999999/1" timeRangeDuration="0/1" interpolaterName=""  />
               </ZoomPanKeyframes>
              </ZoomPanBin>
             </Entry>
            </ExtraData>
           </VMFile>
           <VMFile id="20786" start="7183" duration="350" scalar="1/1" mediaStart="12237/1" mediaDuration="350/1" trackNumber="0" src="4" >
            <Transformer>
             <VectorParam id="20787"  name="translation">
              <InterpolatingParam id="20788" interp="linr"  time="-9999999/1" value="0" leadInLength="0/1"  />
              <InterpolatingParam id="20789" interp="linr"  time="-9999999/1" value="0" leadInLength="0/1"  />
              <InterpolatingParam id="20790" interp="linr"  time="-9999999/1" value="0" leadInLength="0/1"  />
             </VectorParam>
             <VectorParam id="20791"  name="rotation">
              <InterpolatingParam id="20792" interp="linr"  time="-9999999/1" value="0" leadInLength="0/1"  />
              <InterpolatingParam id="20793" interp="linr"  time="-9999999/1" value="0" leadInLength="0/1"  />
              <InterpolatingParam id="20794" interp="linr"  time="-9999999/1" value="0" leadInLength="0/1"  />
             </VectorParam>
             <VectorParam id="20795"  name="shear">
              <InterpolatingParam id="20796" interp="linr"  time="-9999999/1" value="0" leadInLength="0/1"  />
              <InterpolatingParam id="20797" interp="linr"  time="-9999999/1" value="0" leadInLength="0/1"  />
              <InterpolatingParam id="20798" interp="linr"  time="-9999999/1" value="0" leadInLength="0/1"  />
             </VectorParam>
             <VectorParam id="20799"  name="scale">
              <InterpolatingParam id="20800" interp="linr"  time="-9999999/1" value="1" leadInLength="0/1"  />
              <InterpolatingParam id="20801" interp="linr"  time="-9999999/1" value="1" leadInLength="0/1"  />
              <InterpolatingParam id="20802" interp="linr"  time="-9999999/1" value="1" leadInLength="0/1"  />
             </VectorParam>
             <VectorParam id="20803"  name="anchor">
              <InterpolatingParam id="20804" interp="linr"  time="0/1" value="0" leadInLength="0/1"  />
              <InterpolatingParam id="20805" interp="linr"  time="0/1" value="0" leadInLength="0/1"  />
              <InterpolatingParam id="20806" interp="linr"  time="0/1" value="0" leadInLength="0/1"  />
             </VectorParam>
            </Transformer>
            <Parameters>
             <VectorParam id="20807"  name="sourceCrop">
              <InterpolatingParam id="20808" interp="linr"  time="0/1" value="0" leadInLength="0/1"  />
              <InterpolatingParam id="20809" interp="linr"  time="0/1" value="0" leadInLength="0/1"  />
              <InterpolatingParam id="20810" interp="linr"  time="0/1" value="0" leadInLength="0/1"  />
              <InterpolatingParam id="20811" interp="linr"  time="0/1" value="0" leadInLength="0/1"  />
             </VectorParam>
             <VectorParam id="20812"  name="geometryCrop">
              <InterpolatingParam id="20813" interp="linr"  time="-9999999/1" value="0" leadInLength="0/1"  />
              <InterpolatingParam id="20814" interp="linr"  time="-9999999/1" value="0" leadInLength="0/1"  />
              <InterpolatingParam id="20815" interp="linr"  time="-9999999/1" value="0" leadInLength="0/1"  />
              <InterpolatingParam id="20816" interp="linr"  time="-9999999/1" value="0" leadInLength="0/1"  />
             </VectorParam>
             <InterpolatingParam id="20817" interp="linr"  time="-9999999/1" value="1" leadInLength="0/1"  name="opacity"/>
            </Parameters>
            <Attributes>
             <Attribute id="20818" value="" name="ident"/>
            </Attributes>
            <MetaData>
             <entry key="WinSubProjectDisplayName" val=""/>
            </MetaData>
            <ExtraData>
             <Entry key="ZoomPanBin">
              <ZoomPanBin id="20819"  >
               <ZoomPanKeyframes>
                <ZoomPanKeyframe id="20820" timeRangeEnd="-9999999/1" timeRangeDuration="0/1" interpolaterName=""  />
               </ZoomPanKeyframes>
              </ZoomPanBin>
             </Entry>
            </ExtraData>
           </VMFile>
           <VMFile id="20821" start="7533" duration="109" scalar="1/1" mediaStart="15765/1" mediaDuration="109/1" trackNumber="0" src="4" >
            <Transformer>
             <VectorParam id="20822"  name="translation">
              <InterpolatingParam id="20823" interp="linr"  time="-9999999/1" value="0" leadInLength="0/1"  />
              <InterpolatingParam id="20824" interp="linr"  time="-9999999/1" value="0" leadInLength="0/1"  />
              <InterpolatingParam id="20825" interp="linr"  time="-9999999/1" value="0" leadInLength="0/1"  />
             </VectorParam>
             <VectorParam id="20826"  name="rotation">
              <InterpolatingParam id="20827" interp="linr"  time="-9999999/1" value="0" leadInLength="0/1"  />
              <InterpolatingParam id="20828" interp="linr"  time="-9999999/1" value="0" leadInLength="0/1"  />
              <InterpolatingParam id="20829" interp="linr"  time="-9999999/1" value="0" leadInLength="0/1"  />
             </VectorParam>
             <VectorParam id="20830"  name="shear">
              <InterpolatingParam id="20831" interp="linr"  time="-9999999/1" value="0" leadInLength="0/1"  />
              <InterpolatingParam id="20832" interp="linr"  time="-9999999/1" value="0" leadInLength="0/1"  />
              <InterpolatingParam id="20833" interp="linr"  time="-9999999/1" value="0" leadInLength="0/1"  />
             </VectorParam>
             <VectorParam id="20834"  name="scale">
              <InterpolatingParam id="20835" interp="linr"  time="-9999999/1" value="1" leadInLength="0/1"  />
              <InterpolatingParam id="20836" interp="linr"  time="-9999999/1" value="1" leadInLength="0/1"  />
              <InterpolatingParam id="20837" interp="linr"  time="-9999999/1" value="1" leadInLength="0/1"  />
             </VectorParam>
             <VectorParam id="20838"  name="anchor">
              <InterpolatingParam id="20839" interp="linr"  time="0/1" value="0" leadInLength="0/1"  />
              <InterpolatingParam id="20840" interp="linr"  time="0/1" value="0" leadInLength="0/1"  />
              <InterpolatingParam id="20841" interp="linr"  time="0/1" value="0" leadInLength="0/1"  />
             </VectorParam>
            </Transformer>
            <Parameters>
             <VectorParam id="20842"  name="sourceCrop">
              <InterpolatingParam id="20843" interp="linr"  time="0/1" value="0" leadInLength="0/1"  />
              <InterpolatingParam id="20844" interp="linr"  time="0/1" value="0" leadInLength="0/1"  />
              <InterpolatingParam id="20845" interp="linr"  time="0/1" value="0" leadInLength="0/1"  />
              <InterpolatingParam id="20846" interp="linr"  time="0/1" value="0" leadInLength="0/1"  />
             </VectorParam>
             <VectorParam id="20847"  name="geometryCrop">
              <InterpolatingParam id="20848" interp="linr"  time="-9999999/1" value="0" leadInLength="0/1"  />
              <InterpolatingParam id="20849" interp="linr"  time="-9999999/1" value="0" leadInLength="0/1"  />
              <InterpolatingParam id="20850" interp="linr"  time="-9999999/1" value="0" leadInLength="0/1"  />
              <InterpolatingParam id="20851" interp="linr"  time="-9999999/1" value="0" leadInLength="0/1"  />
             </VectorParam>
             <InterpolatingParam id="20852" interp="linr"  time="-9999999/1" value="1" leadInLength="0/1"  name="opacity"/>
            </Parameters>
            <Attributes>
             <Attribute id="20853" value="" name="ident"/>
            </Attributes>
            <MetaData>
             <entry key="WinSubProjectDisplayName" val=""/>
            </MetaData>
            <ExtraData>
             <Entry key="ZoomPanBin">
              <ZoomPanBin id="20854"  >
               <ZoomPanKeyframes>
                <ZoomPanKeyframe id="20855" timeRangeEnd="-9999999/1" timeRangeDuration="0/1" interpolaterName=""  />
               </ZoomPanKeyframes>
              </ZoomPanBin>
             </Entry>
            </ExtraData>
           </VMFile>
           <IMFile id="20856" start="7642" duration="451" scalar="1/1" mediaStart="15873/1" mediaDuration="1/1" trackNumber="0" src="4" trimStartSum="0/1" >
            <Transformer>
             <VectorParam id="20857"  name="translation">
              <InterpolatingParam id="20858" interp="linr"  time="-9999999/1" value="0" leadInLength="0/1"  />
              <InterpolatingParam id="20859" interp="linr"  time="-9999999/1" value="0" leadInLength="0/1"  />
              <InterpolatingParam id="20860" interp="linr"  time="-9999999/1" value="0" leadInLength="0/1"  />
             </VectorParam>
             <VectorParam id="20861"  name="rotation">
              <InterpolatingParam id="20862" interp="linr"  time="-9999999/1" value="0" leadInLength="0/1"  />
              <InterpolatingParam id="20863" interp="linr"  time="-9999999/1" value="0" leadInLength="0/1"  />
              <InterpolatingParam id="20864" interp="linr"  time="-9999999/1" value="0" leadInLength="0/1"  />
             </VectorParam>
             <VectorParam id="20865"  name="shear">
              <InterpolatingParam id="20866" interp="linr"  time="-9999999/1" value="0" leadInLength="0/1"  />
              <InterpolatingParam id="20867" interp="linr"  time="-9999999/1" value="0" leadInLength="0/1"  />
              <InterpolatingParam id="20868" interp="linr"  time="-9999999/1" value="0" leadInLength="0/1"  />
             </VectorParam>
             <VectorParam id="20869"  name="scale">
              <InterpolatingParam id="20870" interp="linr"  time="-9999999/1" value="1" leadInLength="0/1"  />
              <InterpolatingParam id="20871" interp="linr"  time="-9999999/1" value="1" leadInLength="0/1"  />
              <InterpolatingParam id="20872" interp="linr"  time="-9999999/1" value="1" leadInLength="0/1"  />
             </VectorParam>
             <VectorParam id="20873"  name="anchor">
              <InterpolatingParam id="20874" interp="linr"  time="0/1" value="0" leadInLength="0/1"  />
              <InterpolatingParam id="20875" interp="linr"  time="0/1" value="0" leadInLength="0/1"  />
              <InterpolatingParam id="20876" interp="linr"  time="0/1" value="0" leadInLength="0/1"  />
             </VectorParam>
            </Transformer>
            <Parameters>
             <VectorParam id="20877"  name="sourceCrop">
              <InterpolatingParam id="20878" interp="linr"  time="0/1" value="0" leadInLength="0/1"  />
              <InterpolatingParam id="20879" interp="linr"  time="0/1" value="0" leadInLength="0/1"  />
              <InterpolatingParam id="20880" interp="linr"  time="0/1" value="0" leadInLength="0/1"  />
              <InterpolatingParam id="20881" interp="linr"  time="0/1" value="0" leadInLength="0/1"  />
             </VectorParam>
             <VectorParam id="20882"  name="geometryCrop">
              <InterpolatingParam id="20883" interp="linr"  time="-9999999/1" value="0" leadInLength="0/1"  />
              <InterpolatingParam id="20884" interp="linr"  time="-9999999/1" value="0" leadInLength="0/1"  />
              <InterpolatingParam id="20885" interp="linr"  time="-9999999/1" value="0" leadInLength="0/1"  />
              <InterpolatingParam id="20886" interp="linr"  time="-9999999/1" value="0" leadInLength="0/1"  />
             </VectorParam>
             <InterpolatingParam id="20887" interp="linr"  time="-9999999/1" value="1" leadInLength="0/1"  name="opacity"/>
            </Parameters>
            <Attributes>
             <Attribute id="20888" value="" name="ident"/>
            </Attributes>
            <MetaData>
             <entry key="WinSubProjectDisplayName" val=""/>
            </MetaData>
            <ExtraData>
             <Entry key="ZoomPanBin">
              <ZoomPanBin id="20889"  >
               <ZoomPanKeyframes>
                <ZoomPanKeyframe id="20890" timeRangeEnd="-9999999/1" timeRangeDuration="0/1" interpolaterName=""  />
               </ZoomPanKeyframes>
              </ZoomPanBin>
             </Entry>
            </ExtraData>
           </IMFile>
           <VMFile id="20891" start="8093" duration="21" scalar="1/1" mediaStart="15872/1" mediaDuration="21/1" trackNumber="0" src="4" >
            <Transformer>
             <VectorParam id="20892"  name="translation">
              <InterpolatingParam id="20893" interp="linr"  time="-9999999/1" value="0" leadInLength="0/1"  />
              <InterpolatingParam id="20894" interp="linr"  time="-9999999/1" value="0" leadInLength="0/1"  />
              <InterpolatingParam id="20895" interp="linr"  time="-9999999/1" value="0" leadInLength="0/1"  />
             </VectorParam>
             <VectorParam id="20896"  name="rotation">
              <InterpolatingParam id="20897" interp="linr"  time="-9999999/1" value="0" leadInLength="0/1"  />
              <InterpolatingParam id="20898" interp="linr"  time="-9999999/1" value="0" leadInLength="0/1"  />
              <InterpolatingParam id="20899" interp="linr"  time="-9999999/1" value="0" leadInLength="0/1"  />
             </VectorParam>
             <VectorParam id="20900"  name="shear">
              <InterpolatingParam id="20901" interp="linr"  time="-9999999/1" value="0" leadInLength="0/1"  />
              <InterpolatingParam id="20902" interp="linr"  time="-9999999/1" value="0" leadInLength="0/1"  />
              <InterpolatingParam id="20903" interp="linr"  time="-9999999/1" value="0" leadInLength="0/1"  />
             </VectorParam>
             <VectorParam id="20904"  name="scale">
              <InterpolatingParam id="20905" interp="linr"  time="-9999999/1" value="1" leadInLength="0/1"  />
              <InterpolatingParam id="20906" interp="linr"  time="-9999999/1" value="1" leadInLength="0/1"  />
              <InterpolatingParam id="20907" interp="linr"  time="-9999999/1" value="1" leadInLength="0/1"  />
             </VectorParam>
             <VectorParam id="20908"  name="anchor">
              <InterpolatingParam id="20909" interp="linr"  time="0/1" value="0" leadInLength="0/1"  />
              <InterpolatingParam id="20910" interp="linr"  time="0/1" value="0" leadInLength="0/1"  />
              <InterpolatingParam id="20911" interp="linr"  time="0/1" value="0" leadInLength="0/1"  />
             </VectorParam>
            </Transformer>
            <Parameters>
             <VectorParam id="20912"  name="sourceCrop">
              <InterpolatingParam id="20913" interp="linr"  time="0/1" value="0" leadInLength="0/1"  />
              <InterpolatingParam id="20914" interp="linr"  time="0/1" value="0" leadInLength="0/1"  />
              <InterpolatingParam id="20915" interp="linr"  time="0/1" value="0" leadInLength="0/1"  />
              <InterpolatingParam id="20916" interp="linr"  time="0/1" value="0" leadInLength="0/1"  />
             </VectorParam>
             <VectorParam id="20917"  name="geometryCrop">
              <InterpolatingParam id="20918" interp="linr"  time="-9999999/1" value="0" leadInLength="0/1"  />
              <InterpolatingParam id="20919" interp="linr"  time="-9999999/1" value="0" leadInLength="0/1"  />
              <InterpolatingParam id="20920" interp="linr"  time="-9999999/1" value="0" leadInLength="0/1"  />
              <InterpolatingParam id="20921" interp="linr"  time="-9999999/1" value="0" leadInLength="0/1"  />
             </VectorParam>
             <InterpolatingParam id="20922" interp="linr"  time="-9999999/1" value="1" leadInLength="0/1"  name="opacity"/>
            </Parameters>
            <Attributes>
             <Attribute id="20923" value="" name="ident"/>
            </Attributes>
            <MetaData>
             <entry key="WinSubProjectDisplayName" val=""/>
            </MetaData>
            <ExtraData>
             <Entry key="ZoomPanBin">
              <ZoomPanBin id="20924"  >
               <ZoomPanKeyframes>
                <ZoomPanKeyframe id="20925" timeRangeEnd="-9999999/1" timeRangeDuration="0/1" interpolaterName=""  />
               </ZoomPanKeyframes>
              </ZoomPanBin>
             </Entry>
            </ExtraData>
           </VMFile>
           <VMFile id="20926" start="8114" duration="615" scalar="1/1" mediaStart="15918/1" mediaDuration="615/1" trackNumber="0" src="4" >
            <Transformer>
             <VectorParam id="20927"  name="translation">
              <InterpolatingParam id="20928" interp="linr"  time="-9999999/1" value="0" leadInLength="0/1"  />
              <InterpolatingParam id="20929" interp="linr"  time="-9999999/1" value="0" leadInLength="0/1"  />
              <InterpolatingParam id="20930" interp="linr"  time="-9999999/1" value="0" leadInLength="0/1"  />
             </VectorParam>
             <VectorParam id="20931"  name="rotation">
              <InterpolatingParam id="20932" interp="linr"  time="-9999999/1" value="0" leadInLength="0/1"  />
              <InterpolatingParam id="20933" interp="linr"  time="-9999999/1" value="0" leadInLength="0/1"  />
              <InterpolatingParam id="20934" interp="linr"  time="-9999999/1" value="0" leadInLength="0/1"  />
             </VectorParam>
             <VectorParam id="20935"  name="shear">
              <InterpolatingParam id="20936" interp="linr"  time="-9999999/1" value="0" leadInLength="0/1"  />
              <InterpolatingParam id="20937" interp="linr"  time="-9999999/1" value="0" leadInLength="0/1"  />
              <InterpolatingParam id="20938" interp="linr"  time="-9999999/1" value="0" leadInLength="0/1"  />
             </VectorParam>
             <VectorParam id="20939"  name="scale">
              <InterpolatingParam id="20940" interp="linr"  time="-9999999/1" value="1" leadInLength="0/1"  />
              <InterpolatingParam id="20941" interp="linr"  time="-9999999/1" value="1" leadInLength="0/1"  />
              <InterpolatingParam id="20942" interp="linr"  time="-9999999/1" value="1" leadInLength="0/1"  />
             </VectorParam>
             <VectorParam id="20943"  name="anchor">
              <InterpolatingParam id="20944" interp="linr"  time="0/1" value="0" leadInLength="0/1"  />
              <InterpolatingParam id="20945" interp="linr"  time="0/1" value="0" leadInLength="0/1"  />
              <InterpolatingParam id="20946" interp="linr"  time="0/1" value="0" leadInLength="0/1"  />
             </VectorParam>
            </Transformer>
            <Parameters>
             <VectorParam id="20947"  name="sourceCrop">
              <InterpolatingParam id="20948" interp="linr"  time="0/1" value="0" leadInLength="0/1"  />
              <InterpolatingParam id="20949" interp="linr"  time="0/1" value="0" leadInLength="0/1"  />
              <InterpolatingParam id="20950" interp="linr"  time="0/1" value="0" leadInLength="0/1"  />
              <InterpolatingParam id="20951" interp="linr"  time="0/1" value="0" leadInLength="0/1"  />
             </VectorParam>
             <VectorParam id="20952"  name="geometryCrop">
              <InterpolatingParam id="20953" interp="linr"  time="-9999999/1" value="0" leadInLength="0/1"  />
              <InterpolatingParam id="20954" interp="linr"  time="-9999999/1" value="0" leadInLength="0/1"  />
              <InterpolatingParam id="20955" interp="linr"  time="-9999999/1" value="0" leadInLength="0/1"  />
              <InterpolatingParam id="20956" interp="linr"  time="-9999999/1" value="0" leadInLength="0/1"  />
             </VectorParam>
             <InterpolatingParam id="20957" interp="linr"  time="-9999999/1" value="1" leadInLength="0/1"  name="opacity"/>
            </Parameters>
            <Attributes>
             <Attribute id="20958" value="" name="ident"/>
            </Attributes>
            <MetaData>
             <entry key="WinSubProjectDisplayName" val=""/>
            </MetaData>
            <ExtraData>
             <Entry key="ZoomPanBin">
              <ZoomPanBin id="20959"  >
               <ZoomPanKeyframes>
                <ZoomPanKeyframe id="20960" timeRangeEnd="-9999999/1" timeRangeDuration="0/1" interpolaterName=""  />
               </ZoomPanKeyframes>
              </ZoomPanBin>
             </Entry>
            </ExtraData>
           </VMFile>
           <VMFile id="20961" start="8729" duration="323" scalar="1/1" mediaStart="16694/1" mediaDuration="323/1" trackNumber="0" src="4" >
            <Transformer>
             <VectorParam id="20962"  name="translation">
              <InterpolatingParam id="20963" interp="linr"  time="-9999999/1" value="0" leadInLength="0/1"  />
              <InterpolatingParam id="20964" interp="linr"  time="-9999999/1" value="0" leadInLength="0/1"  />
              <InterpolatingParam id="20965" interp="linr"  time="-9999999/1" value="0" leadInLength="0/1"  />
             </VectorParam>
             <VectorParam id="20966"  name="rotation">
              <InterpolatingParam id="20967" interp="linr"  time="-9999999/1" value="0" leadInLength="0/1"  />
              <InterpolatingParam id="20968" interp="linr"  time="-9999999/1" value="0" leadInLength="0/1"  />
              <InterpolatingParam id="20969" interp="linr"  time="-9999999/1" value="0" leadInLength="0/1"  />
             </VectorParam>
             <VectorParam id="20970"  name="shear">
              <InterpolatingParam id="20971" interp="linr"  time="-9999999/1" value="0" leadInLength="0/1"  />
              <InterpolatingParam id="20972" interp="linr"  time="-9999999/1" value="0" leadInLength="0/1"  />
              <InterpolatingParam id="20973" interp="linr"  time="-9999999/1" value="0" leadInLength="0/1"  />
             </VectorParam>
             <VectorParam id="20974"  name="scale">
              <InterpolatingParam id="20975" interp="linr"  time="-9999999/1" value="1" leadInLength="0/1"  />
              <InterpolatingParam id="20976" interp="linr"  time="-9999999/1" value="1" leadInLength="0/1"  />
              <InterpolatingParam id="20977" interp="linr"  time="-9999999/1" value="1" leadInLength="0/1"  />
             </VectorParam>
             <VectorParam id="20978"  name="anchor">
              <InterpolatingParam id="20979" interp="linr"  time="0/1" value="0" leadInLength="0/1"  />
              <InterpolatingParam id="20980" interp="linr"  time="0/1" value="0" leadInLength="0/1"  />
              <InterpolatingParam id="20981" interp="linr"  time="0/1" value="0" leadInLength="0/1"  />
             </VectorParam>
            </Transformer>
            <Parameters>
             <VectorParam id="20982"  name="sourceCrop">
              <InterpolatingParam id="20983" interp="linr"  time="0/1" value="0" leadInLength="0/1"  />
              <InterpolatingParam id="20984" interp="linr"  time="0/1" value="0" leadInLength="0/1"  />
              <InterpolatingParam id="20985" interp="linr"  time="0/1" value="0" leadInLength="0/1"  />
              <InterpolatingParam id="20986" interp="linr"  time="0/1" value="0" leadInLength="0/1"  />
             </VectorParam>
             <VectorParam id="20987"  name="geometryCrop">
              <InterpolatingParam id="20988" interp="linr"  time="-9999999/1" value="0" leadInLength="0/1"  />
              <InterpolatingParam id="20989" interp="linr"  time="-9999999/1" value="0" leadInLength="0/1"  />
              <InterpolatingParam id="20990" interp="linr"  time="-9999999/1" value="0" leadInLength="0/1"  />
              <InterpolatingParam id="20991" interp="linr"  time="-9999999/1" value="0" leadInLength="0/1"  />
             </VectorParam>
             <InterpolatingParam id="20992" interp="linr"  time="-9999999/1" value="1" leadInLength="0/1"  name="opacity"/>
            </Parameters>
            <Attributes>
             <Attribute id="20993" value="" name="ident"/>
            </Attributes>
            <MetaData>
             <entry key="WinSubProjectDisplayName" val=""/>
            </MetaData>
            <ExtraData>
             <Entry key="ZoomPanBin">
              <ZoomPanBin id="20994"  >
               <ZoomPanKeyframes>
                <ZoomPanKeyframe id="20995" timeRangeEnd="-9999999/1" timeRangeDuration="0/1" interpolaterName=""  />
               </ZoomPanKeyframes>
              </ZoomPanBin>
             </Entry>
            </ExtraData>
           </VMFile>
           <VMFile id="20996" start="9052" duration="223" scalar="1/1" mediaStart="17164/1" mediaDuration="223/1" trackNumber="0" src="4" >
            <Transformer>
             <VectorParam id="20997"  name="translation">
              <InterpolatingParam id="20998" interp="linr"  time="-9999999/1" value="0" leadInLength="0/1"  />
              <InterpolatingParam id="20999" interp="linr"  time="-9999999/1" value="0" leadInLength="0/1"  />
              <InterpolatingParam id="21000" interp="linr"  time="-9999999/1" value="0" leadInLength="0/1"  />
             </VectorParam>
             <VectorParam id="21001"  name="rotation">
              <InterpolatingParam id="21002" interp="linr"  time="-9999999/1" value="0" leadInLength="0/1"  />
              <InterpolatingParam id="21003" interp="linr"  time="-9999999/1" value="0" leadInLength="0/1"  />
              <InterpolatingParam id="21004" interp="linr"  time="-9999999/1" value="0" leadInLength="0/1"  />
             </VectorParam>
             <VectorParam id="21005"  name="shear">
              <InterpolatingParam id="21006" interp="linr"  time="-9999999/1" value="0" leadInLength="0/1"  />
              <InterpolatingParam id="21007" interp="linr"  time="-9999999/1" value="0" leadInLength="0/1"  />
              <InterpolatingParam id="21008" interp="linr"  time="-9999999/1" value="0" leadInLength="0/1"  />
             </VectorParam>
             <VectorParam id="21009"  name="scale">
              <InterpolatingParam id="21010" interp="linr"  time="-9999999/1" value="1" leadInLength="0/1"  />
              <InterpolatingParam id="21011" interp="linr"  time="-9999999/1" value="1" leadInLength="0/1"  />
              <InterpolatingParam id="21012" interp="linr"  time="-9999999/1" value="1" leadInLength="0/1"  />
             </VectorParam>
             <VectorParam id="21013"  name="anchor">
              <InterpolatingParam id="21014" interp="linr"  time="0/1" value="0" leadInLength="0/1"  />
              <InterpolatingParam id="21015" interp="linr"  time="0/1" value="0" leadInLength="0/1"  />
              <InterpolatingParam id="21016" interp="linr"  time="0/1" value="0" leadInLength="0/1"  />
             </VectorParam>
            </Transformer>
            <Parameters>
             <VectorParam id="21017"  name="sourceCrop">
              <InterpolatingParam id="21018" interp="linr"  time="0/1" value="0" leadInLength="0/1"  />
              <InterpolatingParam id="21019" interp="linr"  time="0/1" value="0" leadInLength="0/1"  />
              <InterpolatingParam id="21020" interp="linr"  time="0/1" value="0" leadInLength="0/1"  />
              <InterpolatingParam id="21021" interp="linr"  time="0/1" value="0" leadInLength="0/1"  />
             </VectorParam>
             <VectorParam id="21022"  name="geometryCrop">
              <InterpolatingParam id="21023" interp="linr"  time="-9999999/1" value="0" leadInLength="0/1"  />
              <InterpolatingParam id="21024" interp="linr"  time="-9999999/1" value="0" leadInLength="0/1"  />
              <InterpolatingParam id="21025" interp="linr"  time="-9999999/1" value="0" leadInLength="0/1"  />
              <InterpolatingParam id="21026" interp="linr"  time="-9999999/1" value="0" leadInLength="0/1"  />
             </VectorParam>
             <InterpolatingParam id="21027" interp="linr"  time="-9999999/1" value="1" leadInLength="0/1"  name="opacity"/>
            </Parameters>
            <Attributes>
             <Attribute id="21028" value="" name="ident"/>
            </Attributes>
            <MetaData>
             <entry key="WinSubProjectDisplayName" val=""/>
            </MetaData>
            <ExtraData>
             <Entry key="ZoomPanBin">
              <ZoomPanBin id="21029"  >
               <ZoomPanKeyframes>
                <ZoomPanKeyframe id="21030" timeRangeEnd="-9999999/1" timeRangeDuration="0/1" interpolaterName=""  />
               </ZoomPanKeyframes>
              </ZoomPanBin>
             </Entry>
            </ExtraData>
           </VMFile>
           <VMFile id="21031" start="9275" duration="323" scalar="1/1" mediaStart="26742/1" mediaDuration="323/1" trackNumber="0" src="4" >
            <Transformer>
             <VectorParam id="21032"  name="translation">
              <InterpolatingParam id="21033" interp="linr"  time="-9999999/1" value="0" leadInLength="0/1"  />
              <InterpolatingParam id="21034" interp="linr"  time="-9999999/1" value="0" leadInLength="0/1"  />
              <InterpolatingParam id="21035" interp="linr"  time="-9999999/1" value="0" leadInLength="0/1"  />
             </VectorParam>
             <VectorParam id="21036"  name="rotation">
              <InterpolatingParam id="21037" interp="linr"  time="-9999999/1" value="0" leadInLength="0/1"  />
              <InterpolatingParam id="21038" interp="linr"  time="-9999999/1" value="0" leadInLength="0/1"  />
              <InterpolatingParam id="21039" interp="linr"  time="-9999999/1" value="0" leadInLength="0/1"  />
             </VectorParam>
             <VectorParam id="21040"  name="shear">
              <InterpolatingParam id="21041" interp="linr"  time="-9999999/1" value="0" leadInLength="0/1"  />
              <InterpolatingParam id="21042" interp="linr"  time="-9999999/1" value="0" leadInLength="0/1"  />
              <InterpolatingParam id="21043" interp="linr"  time="-9999999/1" value="0" leadInLength="0/1"  />
             </VectorParam>
             <VectorParam id="21044"  name="scale">
              <InterpolatingParam id="21045" interp="linr"  time="-9999999/1" value="1" leadInLength="0/1"  />
              <InterpolatingParam id="21046" interp="linr"  time="-9999999/1" value="1" leadInLength="0/1"  />
              <InterpolatingParam id="21047" interp="linr"  time="-9999999/1" value="1" leadInLength="0/1"  />
             </VectorParam>
             <VectorParam id="21048"  name="anchor">
              <InterpolatingParam id="21049" interp="linr"  time="0/1" value="0" leadInLength="0/1"  />
              <InterpolatingParam id="21050" interp="linr"  time="0/1" value="0" leadInLength="0/1"  />
              <InterpolatingParam id="21051" interp="linr"  time="0/1" value="0" leadInLength="0/1"  />
             </VectorParam>
            </Transformer>
            <Parameters>
             <VectorParam id="21052"  name="sourceCrop">
              <InterpolatingParam id="21053" interp="linr"  time="0/1" value="0" leadInLength="0/1"  />
              <InterpolatingParam id="21054" interp="linr"  time="0/1" value="0" leadInLength="0/1"  />
              <InterpolatingParam id="21055" interp="linr"  time="0/1" value="0" leadInLength="0/1"  />
              <InterpolatingParam id="21056" interp="linr"  time="0/1" value="0" leadInLength="0/1"  />
             </VectorParam>
             <VectorParam id="21057"  name="geometryCrop">
              <InterpolatingParam id="21058" interp="linr"  time="-9999999/1" value="0" leadInLength="0/1"  />
              <InterpolatingParam id="21059" interp="linr"  time="-9999999/1" value="0" leadInLength="0/1"  />
              <InterpolatingParam id="21060" interp="linr"  time="-9999999/1" value="0" leadInLength="0/1"  />
              <InterpolatingParam id="21061" interp="linr"  time="-9999999/1" value="0" leadInLength="0/1"  />
             </VectorParam>
             <InterpolatingParam id="21062" interp="linr"  time="-9999999/1" value="1" leadInLength="0/1"  name="opacity"/>
            </Parameters>
            <Attributes>
             <Attribute id="21063" value="" name="ident"/>
            </Attributes>
            <MetaData>
             <entry key="WinSubProjectDisplayName" val=""/>
            </MetaData>
            <ExtraData>
             <Entry key="ZoomPanBin">
              <ZoomPanBin id="21064"  >
               <ZoomPanKeyframes>
                <ZoomPanKeyframe id="21065" timeRangeEnd="-9999999/1" timeRangeDuration="0/1" interpolaterName=""  />
               </ZoomPanKeyframes>
              </ZoomPanBin>
             </Entry>
            </ExtraData>
           </VMFile>
           <VMFile id="21066" start="9598" duration="259" scalar="1/1" mediaStart="27825/1" mediaDuration="259/1" trackNumber="0" src="4" >
            <Transformer>
             <VectorParam id="21067"  name="translation">
              <InterpolatingParam id="21068" interp="linr"  time="-9999999/1" value="0" leadInLength="0/1"  />
              <InterpolatingParam id="21069" interp="linr"  time="-9999999/1" value="0" leadInLength="0/1"  />
              <InterpolatingParam id="21070" interp="linr"  time="-9999999/1" value="0" leadInLength="0/1"  />
             </VectorParam>
             <VectorParam id="21071"  name="rotation">
              <InterpolatingParam id="21072" interp="linr"  time="-9999999/1" value="0" leadInLength="0/1"  />
              <InterpolatingParam id="21073" interp="linr"  time="-9999999/1" value="0" leadInLength="0/1"  />
              <InterpolatingParam id="21074" interp="linr"  time="-9999999/1" value="0" leadInLength="0/1"  />
             </VectorParam>
             <VectorParam id="21075"  name="shear">
              <InterpolatingParam id="21076" interp="linr"  time="-9999999/1" value="0" leadInLength="0/1"  />
              <InterpolatingParam id="21077" interp="linr"  time="-9999999/1" value="0" leadInLength="0/1"  />
              <InterpolatingParam id="21078" interp="linr"  time="-9999999/1" value="0" leadInLength="0/1"  />
             </VectorParam>
             <VectorParam id="21079"  name="scale">
              <InterpolatingParam id="21080" interp="linr"  time="-9999999/1" value="1" leadInLength="0/1"  />
              <InterpolatingParam id="21081" interp="linr"  time="-9999999/1" value="1" leadInLength="0/1"  />
              <InterpolatingParam id="21082" interp="linr"  time="-9999999/1" value="1" leadInLength="0/1"  />
             </VectorParam>
             <VectorParam id="21083"  name="anchor">
              <InterpolatingParam id="21084" interp="linr"  time="0/1" value="0" leadInLength="0/1"  />
              <InterpolatingParam id="21085" interp="linr"  time="0/1" value="0" leadInLength="0/1"  />
              <InterpolatingParam id="21086" interp="linr"  time="0/1" value="0" leadInLength="0/1"  />
             </VectorParam>
            </Transformer>
            <Parameters>
             <VectorParam id="21087"  name="sourceCrop">
              <InterpolatingParam id="21088" interp="linr"  time="0/1" value="0" leadInLength="0/1"  />
              <InterpolatingParam id="21089" interp="linr"  time="0/1" value="0" leadInLength="0/1"  />
              <InterpolatingParam id="21090" interp="linr"  time="0/1" value="0" leadInLength="0/1"  />
              <InterpolatingParam id="21091" interp="linr"  time="0/1" value="0" leadInLength="0/1"  />
             </VectorParam>
             <VectorParam id="21092"  name="geometryCrop">
              <InterpolatingParam id="21093" interp="linr"  time="-9999999/1" value="0" leadInLength="0/1"  />
              <InterpolatingParam id="21094" interp="linr"  time="-9999999/1" value="0" leadInLength="0/1"  />
              <InterpolatingParam id="21095" interp="linr"  time="-9999999/1" value="0" leadInLength="0/1"  />
              <InterpolatingParam id="21096" interp="linr"  time="-9999999/1" value="0" leadInLength="0/1"  />
             </VectorParam>
             <InterpolatingParam id="21097" interp="linr"  time="-9999999/1" value="1" leadInLength="0/1"  name="opacity"/>
            </Parameters>
            <Attributes>
             <Attribute id="21098" value="" name="ident"/>
            </Attributes>
            <MetaData>
             <entry key="WinSubProjectDisplayName" val=""/>
            </MetaData>
            <ExtraData>
             <Entry key="ZoomPanBin">
              <ZoomPanBin id="21099"  >
               <ZoomPanKeyframes>
                <ZoomPanKeyframe id="21100" timeRangeEnd="-9999999/1" timeRangeDuration="0/1" interpolaterName=""  />
               </ZoomPanKeyframes>
              </ZoomPanBin>
             </Entry>
            </ExtraData>
           </VMFile>
           <VMFile id="21101" start="9857" duration="157" scalar="1/1" mediaStart="28287/1" mediaDuration="157/1" trackNumber="0" src="4" >
            <Transformer>
             <VectorParam id="21102"  name="translation">
              <InterpolatingParam id="21103" interp="linr"  time="-9999999/1" value="0" leadInLength="0/1"  />
              <InterpolatingParam id="21104" interp="linr"  time="-9999999/1" value="0" leadInLength="0/1"  />
              <InterpolatingParam id="21105" interp="linr"  time="-9999999/1" value="0" leadInLength="0/1"  />
             </VectorParam>
             <VectorParam id="21106"  name="rotation">
              <InterpolatingParam id="21107" interp="linr"  time="-9999999/1" value="0" leadInLength="0/1"  />
              <InterpolatingParam id="21108" interp="linr"  time="-9999999/1" value="0" leadInLength="0/1"  />
              <InterpolatingParam id="21109" interp="linr"  time="-9999999/1" value="0" leadInLength="0/1"  />
             </VectorParam>
             <VectorParam id="21110"  name="shear">
              <InterpolatingParam id="21111" interp="linr"  time="-9999999/1" value="0" leadInLength="0/1"  />
              <InterpolatingParam id="21112" interp="linr"  time="-9999999/1" value="0" leadInLength="0/1"  />
              <InterpolatingParam id="21113" interp="linr"  time="-9999999/1" value="0" leadInLength="0/1"  />
             </VectorParam>
             <VectorParam id="21114"  name="scale">
              <InterpolatingParam id="21115" interp="linr"  time="-9999999/1" value="1" leadInLength="0/1"  />
              <InterpolatingParam id="21116" interp="linr"  time="-9999999/1" value="1" leadInLength="0/1"  />
              <InterpolatingParam id="21117" interp="linr"  time="-9999999/1" value="1" leadInLength="0/1"  />
             </VectorParam>
             <VectorParam id="21118"  name="anchor">
              <InterpolatingParam id="21119" interp="linr"  time="0/1" value="0" leadInLength="0/1"  />
              <InterpolatingParam id="21120" interp="linr"  time="0/1" value="0" leadInLength="0/1"  />
              <InterpolatingParam id="21121" interp="linr"  time="0/1" value="0" leadInLength="0/1"  />
             </VectorParam>
            </Transformer>
            <Parameters>
             <VectorParam id="21122"  name="sourceCrop">
              <InterpolatingParam id="21123" interp="linr"  time="0/1" value="0" leadInLength="0/1"  />
              <InterpolatingParam id="21124" interp="linr"  time="0/1" value="0" leadInLength="0/1"  />
              <InterpolatingParam id="21125" interp="linr"  time="0/1" value="0" leadInLength="0/1"  />
              <InterpolatingParam id="21126" interp="linr"  time="0/1" value="0" leadInLength="0/1"  />
             </VectorParam>
             <VectorParam id="21127"  name="geometryCrop">
              <InterpolatingParam id="21128" interp="linr"  time="-9999999/1" value="0" leadInLength="0/1"  />
              <InterpolatingParam id="21129" interp="linr"  time="-9999999/1" value="0" leadInLength="0/1"  />
              <InterpolatingParam id="21130" interp="linr"  time="-9999999/1" value="0" leadInLength="0/1"  />
              <InterpolatingParam id="21131" interp="linr"  time="-9999999/1" value="0" leadInLength="0/1"  />
             </VectorParam>
             <InterpolatingParam id="21132" interp="linr"  time="-9999999/1" value="1" leadInLength="0/1"  name="opacity"/>
            </Parameters>
            <Attributes>
             <Attribute id="21133" value="" name="ident"/>
            </Attributes>
            <MetaData>
             <entry key="WinSubProjectDisplayName" val=""/>
            </MetaData>
            <ExtraData>
             <Entry key="ZoomPanBin">
              <ZoomPanBin id="21134"  >
               <ZoomPanKeyframes>
                <ZoomPanKeyframe id="21135" timeRangeEnd="-9999999/1" timeRangeDuration="0/1" interpolaterName=""  />
               </ZoomPanKeyframes>
              </ZoomPanBin>
             </Entry>
            </ExtraData>
           </VMFile>
           <VMFile id="21136" start="10014" duration="290" scalar="1/1" mediaStart="28689/1" mediaDuration="290/1" trackNumber="0" src="4" >
            <Transformer>
             <VectorParam id="21137"  name="translation">
              <InterpolatingParam id="21138" interp="linr"  time="-9999999/1" value="0" leadInLength="0/1"  />
              <InterpolatingParam id="21139" interp="linr"  time="-9999999/1" value="0" leadInLength="0/1"  />
              <InterpolatingParam id="21140" interp="linr"  time="-9999999/1" value="0" leadInLength="0/1"  />
             </VectorParam>
             <VectorParam id="21141"  name="rotation">
              <InterpolatingParam id="21142" interp="linr"  time="-9999999/1" value="0" leadInLength="0/1"  />
              <InterpolatingParam id="21143" interp="linr"  time="-9999999/1" value="0" leadInLength="0/1"  />
              <InterpolatingParam id="21144" interp="linr"  time="-9999999/1" value="0" leadInLength="0/1"  />
             </VectorParam>
             <VectorParam id="21145"  name="shear">
              <InterpolatingParam id="21146" interp="linr"  time="-9999999/1" value="0" leadInLength="0/1"  />
              <InterpolatingParam id="21147" interp="linr"  time="-9999999/1" value="0" leadInLength="0/1"  />
              <InterpolatingParam id="21148" interp="linr"  time="-9999999/1" value="0" leadInLength="0/1"  />
             </VectorParam>
             <VectorParam id="21149"  name="scale">
              <InterpolatingParam id="21150" interp="linr"  time="-9999999/1" value="1" leadInLength="0/1"  />
              <InterpolatingParam id="21151" interp="linr"  time="-9999999/1" value="1" leadInLength="0/1"  />
              <InterpolatingParam id="21152" interp="linr"  time="-9999999/1" value="1" leadInLength="0/1"  />
             </VectorParam>
             <VectorParam id="21153"  name="anchor">
              <InterpolatingParam id="21154" interp="linr"  time="0/1" value="0" leadInLength="0/1"  />
              <InterpolatingParam id="21155" interp="linr"  time="0/1" value="0" leadInLength="0/1"  />
              <InterpolatingParam id="21156" interp="linr"  time="0/1" value="0" leadInLength="0/1"  />
             </VectorParam>
            </Transformer>
            <Parameters>
             <VectorParam id="21157"  name="sourceCrop">
              <InterpolatingParam id="21158" interp="linr"  time="0/1" value="0" leadInLength="0/1"  />
              <InterpolatingParam id="21159" interp="linr"  time="0/1" value="0" leadInLength="0/1"  />
              <InterpolatingParam id="21160" interp="linr"  time="0/1" value="0" leadInLength="0/1"  />
              <InterpolatingParam id="21161" interp="linr"  time="0/1" value="0" leadInLength="0/1"  />
             </VectorParam>
             <VectorParam id="21162"  name="geometryCrop">
              <InterpolatingParam id="21163" interp="linr"  time="-9999999/1" value="0" leadInLength="0/1"  />
              <InterpolatingParam id="21164" interp="linr"  time="-9999999/1" value="0" leadInLength="0/1"  />
              <InterpolatingParam id="21165" interp="linr"  time="-9999999/1" value="0" leadInLength="0/1"  />
              <InterpolatingParam id="21166" interp="linr"  time="-9999999/1" value="0" leadInLength="0/1"  />
             </VectorParam>
             <InterpolatingParam id="21167" interp="linr"  time="-9999999/1" value="1" leadInLength="0/1"  name="opacity"/>
            </Parameters>
            <Attributes>
             <Attribute id="21168" value="" name="ident"/>
            </Attributes>
            <MetaData>
             <entry key="WinSubProjectDisplayName" val=""/>
            </MetaData>
            <ExtraData>
             <Entry key="ZoomPanBin">
              <ZoomPanBin id="21169"  >
               <ZoomPanKeyframes>
                <ZoomPanKeyframe id="21170" timeRangeEnd="-9999999/1" timeRangeDuration="0/1" interpolaterName=""  />
               </ZoomPanKeyframes>
              </ZoomPanBin>
             </Entry>
            </ExtraData>
           </VMFile>
           <IMFile id="21171" start="10304" duration="60" scalar="1/1" mediaStart="29056/1" mediaDuration="1/1" trackNumber="0" src="4" trimStartSum="0/1" >
            <Transformer>
             <VectorParam id="21172"  name="translation">
              <InterpolatingParam id="21173" interp="linr"  time="-9999999/1" value="0" leadInLength="0/1"  />
              <InterpolatingParam id="21174" interp="linr"  time="-9999999/1" value="0" leadInLength="0/1"  />
              <InterpolatingParam id="21175" interp="linr"  time="-9999999/1" value="0" leadInLength="0/1"  />
             </VectorParam>
             <VectorParam id="21176"  name="rotation">
              <InterpolatingParam id="21177" interp="linr"  time="-9999999/1" value="0" leadInLength="0/1"  />
              <InterpolatingParam id="21178" interp="linr"  time="-9999999/1" value="0" leadInLength="0/1"  />
              <InterpolatingParam id="21179" interp="linr"  time="-9999999/1" value="0" leadInLength="0/1"  />
             </VectorParam>
             <VectorParam id="21180"  name="shear">
              <InterpolatingParam id="21181" interp="linr"  time="-9999999/1" value="0" leadInLength="0/1"  />
              <InterpolatingParam id="21182" interp="linr"  time="-9999999/1" value="0" leadInLength="0/1"  />
              <InterpolatingParam id="21183" interp="linr"  time="-9999999/1" value="0" leadInLength="0/1"  />
             </VectorParam>
             <VectorParam id="21184"  name="scale">
              <InterpolatingParam id="21185" interp="linr"  time="-9999999/1" value="1" leadInLength="0/1"  />
              <InterpolatingParam id="21186" interp="linr"  time="-9999999/1" value="1" leadInLength="0/1"  />
              <InterpolatingParam id="21187" interp="linr"  time="-9999999/1" value="1" leadInLength="0/1"  />
             </VectorParam>
             <VectorParam id="21188"  name="anchor">
              <InterpolatingParam id="21189" interp="linr"  time="0/1" value="0" leadInLength="0/1"  />
              <InterpolatingParam id="21190" interp="linr"  time="0/1" value="0" leadInLength="0/1"  />
              <InterpolatingParam id="21191" interp="linr"  time="0/1" value="0" leadInLength="0/1"  />
             </VectorParam>
            </Transformer>
            <Parameters>
             <VectorParam id="21192"  name="sourceCrop">
              <InterpolatingParam id="21193" interp="linr"  time="0/1" value="0" leadInLength="0/1"  />
              <InterpolatingParam id="21194" interp="linr"  time="0/1" value="0" leadInLength="0/1"  />
              <InterpolatingParam id="21195" interp="linr"  time="0/1" value="0" leadInLength="0/1"  />
              <InterpolatingParam id="21196" interp="linr"  time="0/1" value="0" leadInLength="0/1"  />
             </VectorParam>
             <VectorParam id="21197"  name="geometryCrop">
              <InterpolatingParam id="21198" interp="linr"  time="-9999999/1" value="0" leadInLength="0/1"  />
              <InterpolatingParam id="21199" interp="linr"  time="-9999999/1" value="0" leadInLength="0/1"  />
              <InterpolatingParam id="21200" interp="linr"  time="-9999999/1" value="0" leadInLength="0/1"  />
              <InterpolatingParam id="21201" interp="linr"  time="-9999999/1" value="0" leadInLength="0/1"  />
             </VectorParam>
             <InterpolatingParam id="21202" interp="linr"  time="-9999999/1" value="1" leadInLength="0/1"  name="opacity"/>
            </Parameters>
            <Attributes>
             <Attribute id="21203" value="" name="ident"/>
            </Attributes>
            <MetaData>
             <entry key="WinSubProjectDisplayName" val=""/>
            </MetaData>
            <ExtraData>
             <Entry key="ZoomPanBin">
              <ZoomPanBin id="21204"  >
               <ZoomPanKeyframes>
                <ZoomPanKeyframe id="21205" timeRangeEnd="-9999999/1" timeRangeDuration="0/1" interpolaterName=""  />
               </ZoomPanKeyframes>
              </ZoomPanBin>
             </Entry>
            </ExtraData>
           </IMFile>
           <VMFile id="21206" start="10364" duration="18" scalar="1/1" mediaStart="29056/1" mediaDuration="18/1" trackNumber="0" src="4" >
            <Transformer>
             <VectorParam id="21207"  name="translation">
              <InterpolatingParam id="21208" interp="linr"  time="-9999999/1" value="0" leadInLength="0/1"  />
              <InterpolatingParam id="21209" interp="linr"  time="-9999999/1" value="0" leadInLength="0/1"  />
              <InterpolatingParam id="21210" interp="linr"  time="-9999999/1" value="0" leadInLength="0/1"  />
             </VectorParam>
             <VectorParam id="21211"  name="rotation">
              <InterpolatingParam id="21212" interp="linr"  time="-9999999/1" value="0" leadInLength="0/1"  />
              <InterpolatingParam id="21213" interp="linr"  time="-9999999/1" value="0" leadInLength="0/1"  />
              <InterpolatingParam id="21214" interp="linr"  time="-9999999/1" value="0" leadInLength="0/1"  />
             </VectorParam>
             <VectorParam id="21215"  name="shear">
              <InterpolatingParam id="21216" interp="linr"  time="-9999999/1" value="0" leadInLength="0/1"  />
              <InterpolatingParam id="21217" interp="linr"  time="-9999999/1" value="0" leadInLength="0/1"  />
              <InterpolatingParam id="21218" interp="linr"  time="-9999999/1" value="0" leadInLength="0/1"  />
             </VectorParam>
             <VectorParam id="21219"  name="scale">
              <InterpolatingParam id="21220" interp="linr"  time="-9999999/1" value="1" leadInLength="0/1"  />
              <InterpolatingParam id="21221" interp="linr"  time="-9999999/1" value="1" leadInLength="0/1"  />
              <InterpolatingParam id="21222" interp="linr"  time="-9999999/1" value="1" leadInLength="0/1"  />
             </VectorParam>
             <VectorParam id="21223"  name="anchor">
              <InterpolatingParam id="21224" interp="linr"  time="0/1" value="0" leadInLength="0/1"  />
              <InterpolatingParam id="21225" interp="linr"  time="0/1" value="0" leadInLength="0/1"  />
              <InterpolatingParam id="21226" interp="linr"  time="0/1" value="0" leadInLength="0/1"  />
             </VectorParam>
            </Transformer>
            <Parameters>
             <VectorParam id="21227"  name="sourceCrop">
              <InterpolatingParam id="21228" interp="linr"  time="0/1" value="0" leadInLength="0/1"  />
              <InterpolatingParam id="21229" interp="linr"  time="0/1" value="0" leadInLength="0/1"  />
              <InterpolatingParam id="21230" interp="linr"  time="0/1" value="0" leadInLength="0/1"  />
              <InterpolatingParam id="21231" interp="linr"  time="0/1" value="0" leadInLength="0/1"  />
             </VectorParam>
             <VectorParam id="21232"  name="geometryCrop">
              <InterpolatingParam id="21233" interp="linr"  time="-9999999/1" value="0" leadInLength="0/1"  />
              <InterpolatingParam id="21234" interp="linr"  time="-9999999/1" value="0" leadInLength="0/1"  />
              <InterpolatingParam id="21235" interp="linr"  time="-9999999/1" value="0" leadInLength="0/1"  />
              <InterpolatingParam id="21236" interp="linr"  time="-9999999/1" value="0" leadInLength="0/1"  />
             </VectorParam>
             <InterpolatingParam id="21237" interp="linr"  time="-9999999/1" value="1" leadInLength="0/1"  name="opacity"/>
            </Parameters>
            <Attributes>
             <Attribute id="21238" value="" name="ident"/>
            </Attributes>
            <MetaData>
             <entry key="WinSubProjectDisplayName" val=""/>
            </MetaData>
            <ExtraData>
             <Entry key="ZoomPanBin">
              <ZoomPanBin id="21239"  >
               <ZoomPanKeyframes>
                <ZoomPanKeyframe id="21240" timeRangeEnd="-9999999/1" timeRangeDuration="0/1" interpolaterName=""  />
               </ZoomPanKeyframes>
              </ZoomPanBin>
             </Entry>
            </ExtraData>
           </VMFile>
           <IMFile id="21241" start="10382" duration="30" scalar="1/1" mediaStart="29074/1" mediaDuration="1/1" trackNumber="0" src="4" trimStartSum="0/1" >
            <Transformer>
             <VectorParam id="21242"  name="translation">
              <InterpolatingParam id="21243" interp="linr"  time="-9999999/1" value="0" leadInLength="0/1"  />
              <InterpolatingParam id="21244" interp="linr"  time="-9999999/1" value="0" leadInLength="0/1"  />
              <InterpolatingParam id="21245" interp="linr"  time="-9999999/1" value="0" leadInLength="0/1"  />
             </VectorParam>
             <VectorParam id="21246"  name="rotation">
              <InterpolatingParam id="21247" interp="linr"  time="-9999999/1" value="0" leadInLength="0/1"  />
              <InterpolatingParam id="21248" interp="linr"  time="-9999999/1" value="0" leadInLength="0/1"  />
              <InterpolatingParam id="21249" interp="linr"  time="-9999999/1" value="0" leadInLength="0/1"  />
             </VectorParam>
             <VectorParam id="21250"  name="shear">
              <InterpolatingParam id="21251" interp="linr"  time="-9999999/1" value="0" leadInLength="0/1"  />
              <InterpolatingParam id="21252" interp="linr"  time="-9999999/1" value="0" leadInLength="0/1"  />
              <InterpolatingParam id="21253" interp="linr"  time="-9999999/1" value="0" leadInLength="0/1"  />
             </VectorParam>
             <VectorParam id="21254"  name="scale">
              <InterpolatingParam id="21255" interp="linr"  time="-9999999/1" value="1" leadInLength="0/1"  />
              <InterpolatingParam id="21256" interp="linr"  time="-9999999/1" value="1" leadInLength="0/1"  />
              <InterpolatingParam id="21257" interp="linr"  time="-9999999/1" value="1" leadInLength="0/1"  />
             </VectorParam>
             <VectorParam id="21258"  name="anchor">
              <InterpolatingParam id="21259" interp="linr"  time="0/1" value="0" leadInLength="0/1"  />
              <InterpolatingParam id="21260" interp="linr"  time="0/1" value="0" leadInLength="0/1"  />
              <InterpolatingParam id="21261" interp="linr"  time="0/1" value="0" leadInLength="0/1"  />
             </VectorParam>
            </Transformer>
            <Parameters>
             <VectorParam id="21262"  name="sourceCrop">
              <InterpolatingParam id="21263" interp="linr"  time="0/1" value="0" leadInLength="0/1"  />
              <InterpolatingParam id="21264" interp="linr"  time="0/1" value="0" leadInLength="0/1"  />
              <InterpolatingParam id="21265" interp="linr"  time="0/1" value="0" leadInLength="0/1"  />
              <InterpolatingParam id="21266" interp="linr"  time="0/1" value="0" leadInLength="0/1"  />
             </VectorParam>
             <VectorParam id="21267"  name="geometryCrop">
              <InterpolatingParam id="21268" interp="linr"  time="-9999999/1" value="0" leadInLength="0/1"  />
              <InterpolatingParam id="21269" interp="linr"  time="-9999999/1" value="0" leadInLength="0/1"  />
              <InterpolatingParam id="21270" interp="linr"  time="-9999999/1" value="0" leadInLength="0/1"  />
              <InterpolatingParam id="21271" interp="linr"  time="-9999999/1" value="0" leadInLength="0/1"  />
             </VectorParam>
             <InterpolatingParam id="21272" interp="linr"  time="-9999999/1" value="1" leadInLength="0/1"  name="opacity"/>
            </Parameters>
            <Attributes>
             <Attribute id="21273" value="" name="ident"/>
            </Attributes>
            <MetaData>
             <entry key="WinSubProjectDisplayName" val=""/>
            </MetaData>
            <ExtraData>
             <Entry key="ZoomPanBin">
              <ZoomPanBin id="21274"  >
               <ZoomPanKeyframes>
                <ZoomPanKeyframe id="21275" timeRangeEnd="-9999999/1" timeRangeDuration="0/1" interpolaterName=""  />
               </ZoomPanKeyframes>
              </ZoomPanBin>
             </Entry>
            </ExtraData>
           </IMFile>
           <VMFile id="21276" start="10412" duration="1" scalar="1/1" mediaStart="29074/1" mediaDuration="1/1" trackNumber="0" src="4" >
            <Transformer>
             <VectorParam id="21277"  name="translation">
              <InterpolatingParam id="21278" interp="linr"  time="-9999999/1" value="0" leadInLength="0/1"  />
              <InterpolatingParam id="21279" interp="linr"  time="-9999999/1" value="0" leadInLength="0/1"  />
              <InterpolatingParam id="21280" interp="linr"  time="-9999999/1" value="0" leadInLength="0/1"  />
             </VectorParam>
             <VectorParam id="21281"  name="rotation">
              <InterpolatingParam id="21282" interp="linr"  time="-9999999/1" value="0" leadInLength="0/1"  />
              <InterpolatingParam id="21283" interp="linr"  time="-9999999/1" value="0" leadInLength="0/1"  />
              <InterpolatingParam id="21284" interp="linr"  time="-9999999/1" value="0" leadInLength="0/1"  />
             </VectorParam>
             <VectorParam id="21285"  name="shear">
              <InterpolatingParam id="21286" interp="linr"  time="-9999999/1" value="0" leadInLength="0/1"  />
              <InterpolatingParam id="21287" interp="linr"  time="-9999999/1" value="0" leadInLength="0/1"  />
              <InterpolatingParam id="21288" interp="linr"  time="-9999999/1" value="0" leadInLength="0/1"  />
             </VectorParam>
             <VectorParam id="21289"  name="scale">
              <InterpolatingParam id="21290" interp="linr"  time="-9999999/1" value="1" leadInLength="0/1"  />
              <InterpolatingParam id="21291" interp="linr"  time="-9999999/1" value="1" leadInLength="0/1"  />
              <InterpolatingParam id="21292" interp="linr"  time="-9999999/1" value="1" leadInLength="0/1"  />
             </VectorParam>
             <VectorParam id="21293"  name="anchor">
              <InterpolatingParam id="21294" interp="linr"  time="0/1" value="0" leadInLength="0/1"  />
              <InterpolatingParam id="21295" interp="linr"  time="0/1" value="0" leadInLength="0/1"  />
              <InterpolatingParam id="21296" interp="linr"  time="0/1" value="0" leadInLength="0/1"  />
             </VectorParam>
            </Transformer>
            <Parameters>
             <VectorParam id="21297"  name="sourceCrop">
              <InterpolatingParam id="21298" interp="linr"  time="0/1" value="0" leadInLength="0/1"  />
              <InterpolatingParam id="21299" interp="linr"  time="0/1" value="0" leadInLength="0/1"  />
              <InterpolatingParam id="21300" interp="linr"  time="0/1" value="0" leadInLength="0/1"  />
              <InterpolatingParam id="21301" interp="linr"  time="0/1" value="0" leadInLength="0/1"  />
             </VectorParam>
             <VectorParam id="21302"  name="geometryCrop">
              <InterpolatingParam id="21303" interp="linr"  time="-9999999/1" value="0" leadInLength="0/1"  />
              <InterpolatingParam id="21304" interp="linr"  time="-9999999/1" value="0" leadInLength="0/1"  />
              <InterpolatingParam id="21305" interp="linr"  time="-9999999/1" value="0" leadInLength="0/1"  />
              <InterpolatingParam id="21306" interp="linr"  time="-9999999/1" value="0" leadInLength="0/1"  />
             </VectorParam>
             <InterpolatingParam id="21307" interp="linr"  time="-9999999/1" value="1" leadInLength="0/1"  name="opacity"/>
            </Parameters>
            <Attributes>
             <Attribute id="21308" value="" name="ident"/>
            </Attributes>
            <MetaData>
             <entry key="WinSubProjectDisplayName" val=""/>
            </MetaData>
            <ExtraData>
             <Entry key="ZoomPanBin">
              <ZoomPanBin id="21309"  >
               <ZoomPanKeyframes>
                <ZoomPanKeyframe id="21310" timeRangeEnd="-9999999/1" timeRangeDuration="0/1" interpolaterName=""  />
               </ZoomPanKeyframes>
              </ZoomPanBin>
             </Entry>
            </ExtraData>
           </VMFile>
           <VMFile id="21311" start="10413" duration="42" scalar="1/1" mediaStart="29274/1" mediaDuration="42/1" trackNumber="0" src="4" >
            <Transformer>
             <VectorParam id="21312"  name="translation">
              <InterpolatingParam id="21313" interp="linr"  time="-9999999/1" value="0" leadInLength="0/1"  />
              <InterpolatingParam id="21314" interp="linr"  time="-9999999/1" value="0" leadInLength="0/1"  />
              <InterpolatingParam id="21315" interp="linr"  time="-9999999/1" value="0" leadInLength="0/1"  />
             </VectorParam>
             <VectorParam id="21316"  name="rotation">
              <InterpolatingParam id="21317" interp="linr"  time="-9999999/1" value="0" leadInLength="0/1"  />
              <InterpolatingParam id="21318" interp="linr"  time="-9999999/1" value="0" leadInLength="0/1"  />
              <InterpolatingParam id="21319" interp="linr"  time="-9999999/1" value="0" leadInLength="0/1"  />
             </VectorParam>
             <VectorParam id="21320"  name="shear">
              <InterpolatingParam id="21321" interp="linr"  time="-9999999/1" value="0" leadInLength="0/1"  />
              <InterpolatingParam id="21322" interp="linr"  time="-9999999/1" value="0" leadInLength="0/1"  />
              <InterpolatingParam id="21323" interp="linr"  time="-9999999/1" value="0" leadInLength="0/1"  />
             </VectorParam>
             <VectorParam id="21324"  name="scale">
              <InterpolatingParam id="21325" interp="linr"  time="-9999999/1" value="1" leadInLength="0/1"  />
              <InterpolatingParam id="21326" interp="linr"  time="-9999999/1" value="1" leadInLength="0/1"  />
              <InterpolatingParam id="21327" interp="linr"  time="-9999999/1" value="1" leadInLength="0/1"  />
             </VectorParam>
             <VectorParam id="21328"  name="anchor">
              <InterpolatingParam id="21329" interp="linr"  time="0/1" value="0" leadInLength="0/1"  />
              <InterpolatingParam id="21330" interp="linr"  time="0/1" value="0" leadInLength="0/1"  />
              <InterpolatingParam id="21331" interp="linr"  time="0/1" value="0" leadInLength="0/1"  />
             </VectorParam>
            </Transformer>
            <Parameters>
             <VectorParam id="21332"  name="sourceCrop">
              <InterpolatingParam id="21333" interp="linr"  time="0/1" value="0" leadInLength="0/1"  />
              <InterpolatingParam id="21334" interp="linr"  time="0/1" value="0" leadInLength="0/1"  />
              <InterpolatingParam id="21335" interp="linr"  time="0/1" value="0" leadInLength="0/1"  />
              <InterpolatingParam id="21336" interp="linr"  time="0/1" value="0" leadInLength="0/1"  />
             </VectorParam>
             <VectorParam id="21337"  name="geometryCrop">
              <InterpolatingParam id="21338" interp="linr"  time="-9999999/1" value="0" leadInLength="0/1"  />
              <InterpolatingParam id="21339" interp="linr"  time="-9999999/1" value="0" leadInLength="0/1"  />
              <InterpolatingParam id="21340" interp="linr"  time="-9999999/1" value="0" leadInLength="0/1"  />
              <InterpolatingParam id="21341" interp="linr"  time="-9999999/1" value="0" leadInLength="0/1"  />
             </VectorParam>
             <InterpolatingParam id="21342" interp="linr"  time="-9999999/1" value="1" leadInLength="0/1"  name="opacity"/>
            </Parameters>
            <Attributes>
             <Attribute id="21343" value="" name="ident"/>
            </Attributes>
            <MetaData>
             <entry key="WinSubProjectDisplayName" val=""/>
            </MetaData>
            <ExtraData>
             <Entry key="ZoomPanBin">
              <ZoomPanBin id="21344"  >
               <ZoomPanKeyframes>
                <ZoomPanKeyframe id="21345" timeRangeEnd="-9999999/1" timeRangeDuration="0/1" interpolaterName=""  />
               </ZoomPanKeyframes>
              </ZoomPanBin>
             </Entry>
            </ExtraData>
           </VMFile>
           <VMFile id="21346" start="10455" duration="147" scalar="1/1" mediaStart="29358/1" mediaDuration="147/1" trackNumber="0" src="4" >
            <Transformer>
             <VectorParam id="21347"  name="translation">
              <InterpolatingParam id="21348" interp="linr"  time="-9999999/1" value="0" leadInLength="0/1"  />
              <InterpolatingParam id="21349" interp="linr"  time="-9999999/1" value="0" leadInLength="0/1"  />
              <InterpolatingParam id="21350" interp="linr"  time="-9999999/1" value="0" leadInLength="0/1"  />
             </VectorParam>
             <VectorParam id="21351"  name="rotation">
              <InterpolatingParam id="21352" interp="linr"  time="-9999999/1" value="0" leadInLength="0/1"  />
              <InterpolatingParam id="21353" interp="linr"  time="-9999999/1" value="0" leadInLength="0/1"  />
              <InterpolatingParam id="21354" interp="linr"  time="-9999999/1" value="0" leadInLength="0/1"  />
             </VectorParam>
             <VectorParam id="21355"  name="shear">
              <InterpolatingParam id="21356" interp="linr"  time="-9999999/1" value="0" leadInLength="0/1"  />
              <InterpolatingParam id="21357" interp="linr"  time="-9999999/1" value="0" leadInLength="0/1"  />
              <InterpolatingParam id="21358" interp="linr"  time="-9999999/1" value="0" leadInLength="0/1"  />
             </VectorParam>
             <VectorParam id="21359"  name="scale">
              <InterpolatingParam id="21360" interp="linr"  time="-9999999/1" value="1" leadInLength="0/1"  />
              <InterpolatingParam id="21361" interp="linr"  time="-9999999/1" value="1" leadInLength="0/1"  />
              <InterpolatingParam id="21362" interp="linr"  time="-9999999/1" value="1" leadInLength="0/1"  />
             </VectorParam>
             <VectorParam id="21363"  name="anchor">
              <InterpolatingParam id="21364" interp="linr"  time="0/1" value="0" leadInLength="0/1"  />
              <InterpolatingParam id="21365" interp="linr"  time="0/1" value="0" leadInLength="0/1"  />
              <InterpolatingParam id="21366" interp="linr"  time="0/1" value="0" leadInLength="0/1"  />
             </VectorParam>
            </Transformer>
            <Parameters>
             <VectorParam id="21367"  name="sourceCrop">
              <InterpolatingParam id="21368" interp="linr"  time="0/1" value="0" leadInLength="0/1"  />
              <InterpolatingParam id="21369" interp="linr"  time="0/1" value="0" leadInLength="0/1"  />
              <InterpolatingParam id="21370" interp="linr"  time="0/1" value="0" leadInLength="0/1"  />
              <InterpolatingParam id="21371" interp="linr"  time="0/1" value="0" leadInLength="0/1"  />
             </VectorParam>
             <VectorParam id="21372"  name="geometryCrop">
              <InterpolatingParam id="21373" interp="linr"  time="-9999999/1" value="0" leadInLength="0/1"  />
              <InterpolatingParam id="21374" interp="linr"  time="-9999999/1" value="0" leadInLength="0/1"  />
              <InterpolatingParam id="21375" interp="linr"  time="-9999999/1" value="0" leadInLength="0/1"  />
              <InterpolatingParam id="21376" interp="linr"  time="-9999999/1" value="0" leadInLength="0/1"  />
             </VectorParam>
             <InterpolatingParam id="21377" interp="linr"  time="-9999999/1" value="1" leadInLength="0/1"  name="opacity"/>
            </Parameters>
            <Attributes>
             <Attribute id="21378" value="" name="ident"/>
            </Attributes>
            <MetaData>
             <entry key="WinSubProjectDisplayName" val=""/>
            </MetaData>
            <ExtraData>
             <Entry key="ZoomPanBin">
              <ZoomPanBin id="21379"  >
               <ZoomPanKeyframes>
                <ZoomPanKeyframe id="21380" timeRangeEnd="-9999999/1" timeRangeDuration="0/1" interpolaterName=""  />
               </ZoomPanKeyframes>
              </ZoomPanBin>
             </Entry>
            </ExtraData>
           </VMFile>
           <VMFile id="21381" start="10602" duration="580" scalar="1/1" mediaStart="29557/1" mediaDuration="580/1" trackNumber="0" src="4" >
            <Transformer>
             <VectorParam id="21382"  name="translation">
              <InterpolatingParam id="21383" interp="linr"  time="-9999999/1" value="0" leadInLength="0/1"  />
              <InterpolatingParam id="21384" interp="linr"  time="-9999999/1" value="0" leadInLength="0/1"  />
              <InterpolatingParam id="21385" interp="linr"  time="-9999999/1" value="0" leadInLength="0/1"  />
             </VectorParam>
             <VectorParam id="21386"  name="rotation">
              <InterpolatingParam id="21387" interp="linr"  time="-9999999/1" value="0" leadInLength="0/1"  />
              <InterpolatingParam id="21388" interp="linr"  time="-9999999/1" value="0" leadInLength="0/1"  />
              <InterpolatingParam id="21389" interp="linr"  time="-9999999/1" value="0" leadInLength="0/1"  />
             </VectorParam>
             <VectorParam id="21390"  name="shear">
              <InterpolatingParam id="21391" interp="linr"  time="-9999999/1" value="0" leadInLength="0/1"  />
              <InterpolatingParam id="21392" interp="linr"  time="-9999999/1" value="0" leadInLength="0/1"  />
              <InterpolatingParam id="21393" interp="linr"  time="-9999999/1" value="0" leadInLength="0/1"  />
             </VectorParam>
             <VectorParam id="21394"  name="scale">
              <InterpolatingParam id="21395" interp="linr"  time="-9999999/1" value="1" leadInLength="0/1"  />
              <InterpolatingParam id="21396" interp="linr"  time="-9999999/1" value="1" leadInLength="0/1"  />
              <InterpolatingParam id="21397" interp="linr"  time="-9999999/1" value="1" leadInLength="0/1"  />
             </VectorParam>
             <VectorParam id="21398"  name="anchor">
              <InterpolatingParam id="21399" interp="linr"  time="0/1" value="0" leadInLength="0/1"  />
              <InterpolatingParam id="21400" interp="linr"  time="0/1" value="0" leadInLength="0/1"  />
              <InterpolatingParam id="21401" interp="linr"  time="0/1" value="0" leadInLength="0/1"  />
             </VectorParam>
            </Transformer>
            <Parameters>
             <VectorParam id="21402"  name="sourceCrop">
              <InterpolatingParam id="21403" interp="linr"  time="0/1" value="0" leadInLength="0/1"  />
              <InterpolatingParam id="21404" interp="linr"  time="0/1" value="0" leadInLength="0/1"  />
              <InterpolatingParam id="21405" interp="linr"  time="0/1" value="0" leadInLength="0/1"  />
              <InterpolatingParam id="21406" interp="linr"  time="0/1" value="0" leadInLength="0/1"  />
             </VectorParam>
             <VectorParam id="21407"  name="geometryCrop">
              <InterpolatingParam id="21408" interp="linr"  time="-9999999/1" value="0" leadInLength="0/1"  />
              <InterpolatingParam id="21409" interp="linr"  time="-9999999/1" value="0" leadInLength="0/1"  />
              <InterpolatingParam id="21410" interp="linr"  time="-9999999/1" value="0" leadInLength="0/1"  />
              <InterpolatingParam id="21411" interp="linr"  time="-9999999/1" value="0" leadInLength="0/1"  />
             </VectorParam>
             <InterpolatingParam id="21412" interp="linr"  time="-9999999/1" value="1" leadInLength="0/1"  name="opacity"/>
            </Parameters>
            <Attributes>
             <Attribute id="21413" value="" name="ident"/>
            </Attributes>
            <MetaData>
             <entry key="WinSubProjectDisplayName" val=""/>
            </MetaData>
            <ExtraData>
             <Entry key="ZoomPanBin">
              <ZoomPanBin id="21414"  >
               <ZoomPanKeyframes>
                <ZoomPanKeyframe id="21415" timeRangeEnd="-9999999/1" timeRangeDuration="0/1" interpolaterName=""  />
               </ZoomPanKeyframes>
              </ZoomPanBin>
             </Entry>
            </ExtraData>
           </VMFile>
           <VMFile id="21416" start="11182" duration="25" scalar="1/1" mediaStart="30200/1" mediaDuration="25/1" trackNumber="0" src="4" >
            <Transformer>
             <VectorParam id="21417"  name="translation">
              <InterpolatingParam id="21418" interp="linr"  time="-9999999/1" value="0" leadInLength="0/1"  />
              <InterpolatingParam id="21419" interp="linr"  time="-9999999/1" value="0" leadInLength="0/1"  />
              <InterpolatingParam id="21420" interp="linr"  time="-9999999/1" value="0" leadInLength="0/1"  />
             </VectorParam>
             <VectorParam id="21421"  name="rotation">
              <InterpolatingParam id="21422" interp="linr"  time="-9999999/1" value="0" leadInLength="0/1"  />
              <InterpolatingParam id="21423" interp="linr"  time="-9999999/1" value="0" leadInLength="0/1"  />
              <InterpolatingParam id="21424" interp="linr"  time="-9999999/1" value="0" leadInLength="0/1"  />
             </VectorParam>
             <VectorParam id="21425"  name="shear">
              <InterpolatingParam id="21426" interp="linr"  time="-9999999/1" value="0" leadInLength="0/1"  />
              <InterpolatingParam id="21427" interp="linr"  time="-9999999/1" value="0" leadInLength="0/1"  />
              <InterpolatingParam id="21428" interp="linr"  time="-9999999/1" value="0" leadInLength="0/1"  />
             </VectorParam>
             <VectorParam id="21429"  name="scale">
              <InterpolatingParam id="21430" interp="linr"  time="-9999999/1" value="1" leadInLength="0/1"  />
              <InterpolatingParam id="21431" interp="linr"  time="-9999999/1" value="1" leadInLength="0/1"  />
              <InterpolatingParam id="21432" interp="linr"  time="-9999999/1" value="1" leadInLength="0/1"  />
             </VectorParam>
             <VectorParam id="21433"  name="anchor">
              <InterpolatingParam id="21434" interp="linr"  time="0/1" value="0" leadInLength="0/1"  />
              <InterpolatingParam id="21435" interp="linr"  time="0/1" value="0" leadInLength="0/1"  />
              <InterpolatingParam id="21436" interp="linr"  time="0/1" value="0" leadInLength="0/1"  />
             </VectorParam>
            </Transformer>
            <Parameters>
             <VectorParam id="21437"  name="sourceCrop">
              <InterpolatingParam id="21438" interp="linr"  time="0/1" value="0" leadInLength="0/1"  />
              <InterpolatingParam id="21439" interp="linr"  time="0/1" value="0" leadInLength="0/1"  />
              <InterpolatingParam id="21440" interp="linr"  time="0/1" value="0" leadInLength="0/1"  />
              <InterpolatingParam id="21441" interp="linr"  time="0/1" value="0" leadInLength="0/1"  />
             </VectorParam>
             <VectorParam id="21442"  name="geometryCrop">
              <InterpolatingParam id="21443" interp="linr"  time="-9999999/1" value="0" leadInLength="0/1"  />
              <InterpolatingParam id="21444" interp="linr"  time="-9999999/1" value="0" leadInLength="0/1"  />
              <InterpolatingParam id="21445" interp="linr"  time="-9999999/1" value="0" leadInLength="0/1"  />
              <InterpolatingParam id="21446" interp="linr"  time="-9999999/1" value="0" leadInLength="0/1"  />
             </VectorParam>
             <InterpolatingParam id="21447" interp="linr"  time="-9999999/1" value="1" leadInLength="0/1"  name="opacity"/>
            </Parameters>
            <Attributes>
             <Attribute id="21448" value="" name="ident"/>
            </Attributes>
            <MetaData>
             <entry key="WinSubProjectDisplayName" val=""/>
            </MetaData>
            <ExtraData>
             <Entry key="ZoomPanBin">
              <ZoomPanBin id="21449"  >
               <ZoomPanKeyframes>
                <ZoomPanKeyframe id="21450" timeRangeEnd="-9999999/1" timeRangeDuration="0/1" interpolaterName=""  />
               </ZoomPanKeyframes>
              </ZoomPanBin>
             </Entry>
            </ExtraData>
           </VMFile>
           <VMFile id="21451" start="11207" duration="119" scalar="1/1" mediaStart="30368/1" mediaDuration="119/1" trackNumber="0" src="4" >
            <Transformer>
             <VectorParam id="21452"  name="translation">
              <InterpolatingParam id="21453" interp="linr"  time="-9999999/1" value="0" leadInLength="0/1"  />
              <InterpolatingParam id="21454" interp="linr"  time="-9999999/1" value="0" leadInLength="0/1"  />
              <InterpolatingParam id="21455" interp="linr"  time="-9999999/1" value="0" leadInLength="0/1"  />
             </VectorParam>
             <VectorParam id="21456"  name="rotation">
              <InterpolatingParam id="21457" interp="linr"  time="-9999999/1" value="0" leadInLength="0/1"  />
              <InterpolatingParam id="21458" interp="linr"  time="-9999999/1" value="0" leadInLength="0/1"  />
              <InterpolatingParam id="21459" interp="linr"  time="-9999999/1" value="0" leadInLength="0/1"  />
             </VectorParam>
             <VectorParam id="21460"  name="shear">
              <InterpolatingParam id="21461" interp="linr"  time="-9999999/1" value="0" leadInLength="0/1"  />
              <InterpolatingParam id="21462" interp="linr"  time="-9999999/1" value="0" leadInLength="0/1"  />
              <InterpolatingParam id="21463" interp="linr"  time="-9999999/1" value="0" leadInLength="0/1"  />
             </VectorParam>
             <VectorParam id="21464"  name="scale">
              <InterpolatingParam id="21465" interp="linr"  time="-9999999/1" value="1" leadInLength="0/1"  />
              <InterpolatingParam id="21466" interp="linr"  time="-9999999/1" value="1" leadInLength="0/1"  />
              <InterpolatingParam id="21467" interp="linr"  time="-9999999/1" value="1" leadInLength="0/1"  />
             </VectorParam>
             <VectorParam id="21468"  name="anchor">
              <InterpolatingParam id="21469" interp="linr"  time="0/1" value="0" leadInLength="0/1"  />
              <InterpolatingParam id="21470" interp="linr"  time="0/1" value="0" leadInLength="0/1"  />
              <InterpolatingParam id="21471" interp="linr"  time="0/1" value="0" leadInLength="0/1"  />
             </VectorParam>
            </Transformer>
            <Parameters>
             <VectorParam id="21472"  name="sourceCrop">
              <InterpolatingParam id="21473" interp="linr"  time="0/1" value="0" leadInLength="0/1"  />
              <InterpolatingParam id="21474" interp="linr"  time="0/1" value="0" leadInLength="0/1"  />
              <InterpolatingParam id="21475" interp="linr"  time="0/1" value="0" leadInLength="0/1"  />
              <InterpolatingParam id="21476" interp="linr"  time="0/1" value="0" leadInLength="0/1"  />
             </VectorParam>
             <VectorParam id="21477"  name="geometryCrop">
              <InterpolatingParam id="21478" interp="linr"  time="-9999999/1" value="0" leadInLength="0/1"  />
              <InterpolatingParam id="21479" interp="linr"  time="-9999999/1" value="0" leadInLength="0/1"  />
              <InterpolatingParam id="21480" interp="linr"  time="-9999999/1" value="0" leadInLength="0/1"  />
              <InterpolatingParam id="21481" interp="linr"  time="-9999999/1" value="0" leadInLength="0/1"  />
             </VectorParam>
             <InterpolatingParam id="21482" interp="linr"  time="-9999999/1" value="1" leadInLength="0/1"  name="opacity"/>
            </Parameters>
            <Attributes>
             <Attribute id="21483" value="" name="ident"/>
            </Attributes>
            <MetaData>
             <entry key="WinSubProjectDisplayName" val=""/>
            </MetaData>
            <ExtraData>
             <Entry key="ZoomPanBin">
              <ZoomPanBin id="21484"  >
               <ZoomPanKeyframes>
                <ZoomPanKeyframe id="21485" timeRangeEnd="-9999999/1" timeRangeDuration="0/1" interpolaterName=""  />
               </ZoomPanKeyframes>
              </ZoomPanBin>
             </Entry>
            </ExtraData>
           </VMFile>
           <VMFile id="21486" start="11326" duration="411" scalar="1/1" mediaStart="30756/1" mediaDuration="411/1" trackNumber="0" src="4" >
            <Transformer>
             <VectorParam id="21487"  name="translation">
              <InterpolatingParam id="21488" interp="linr"  time="-9999999/1" value="0" leadInLength="0/1"  />
              <InterpolatingParam id="21489" interp="linr"  time="-9999999/1" value="0" leadInLength="0/1"  />
              <InterpolatingParam id="21490" interp="linr"  time="-9999999/1" value="0" leadInLength="0/1"  />
             </VectorParam>
             <VectorParam id="21491"  name="rotation">
              <InterpolatingParam id="21492" interp="linr"  time="-9999999/1" value="0" leadInLength="0/1"  />
              <InterpolatingParam id="21493" interp="linr"  time="-9999999/1" value="0" leadInLength="0/1"  />
              <InterpolatingParam id="21494" interp="linr"  time="-9999999/1" value="0" leadInLength="0/1"  />
             </VectorParam>
             <VectorParam id="21495"  name="shear">
              <InterpolatingParam id="21496" interp="linr"  time="-9999999/1" value="0" leadInLength="0/1"  />
              <InterpolatingParam id="21497" interp="linr"  time="-9999999/1" value="0" leadInLength="0/1"  />
              <InterpolatingParam id="21498" interp="linr"  time="-9999999/1" value="0" leadInLength="0/1"  />
             </VectorParam>
             <VectorParam id="21499"  name="scale">
              <InterpolatingParam id="21500" interp="linr"  time="-9999999/1" value="1" leadInLength="0/1"  />
              <InterpolatingParam id="21501" interp="linr"  time="-9999999/1" value="1" leadInLength="0/1"  />
              <InterpolatingParam id="21502" interp="linr"  time="-9999999/1" value="1" leadInLength="0/1"  />
             </VectorParam>
             <VectorParam id="21503"  name="anchor">
              <InterpolatingParam id="21504" interp="linr"  time="0/1" value="0" leadInLength="0/1"  />
              <InterpolatingParam id="21505" interp="linr"  time="0/1" value="0" leadInLength="0/1"  />
              <InterpolatingParam id="21506" interp="linr"  time="0/1" value="0" leadInLength="0/1"  />
             </VectorParam>
            </Transformer>
            <Parameters>
             <VectorParam id="21507"  name="sourceCrop">
              <InterpolatingParam id="21508" interp="linr"  time="0/1" value="0" leadInLength="0/1"  />
              <InterpolatingParam id="21509" interp="linr"  time="0/1" value="0" leadInLength="0/1"  />
              <InterpolatingParam id="21510" interp="linr"  time="0/1" value="0" leadInLength="0/1"  />
              <InterpolatingParam id="21511" interp="linr"  time="0/1" value="0" leadInLength="0/1"  />
             </VectorParam>
             <VectorParam id="21512"  name="geometryCrop">
              <InterpolatingParam id="21513" interp="linr"  time="-9999999/1" value="0" leadInLength="0/1"  />
              <InterpolatingParam id="21514" interp="linr"  time="-9999999/1" value="0" leadInLength="0/1"  />
              <InterpolatingParam id="21515" interp="linr"  time="-9999999/1" value="0" leadInLength="0/1"  />
              <InterpolatingParam id="21516" interp="linr"  time="-9999999/1" value="0" leadInLength="0/1"  />
             </VectorParam>
             <InterpolatingParam id="21517" interp="linr"  time="-9999999/1" value="1" leadInLength="0/1"  name="opacity"/>
            </Parameters>
            <Attributes>
             <Attribute id="21518" value="" name="ident"/>
            </Attributes>
            <MetaData>
             <entry key="WinSubProjectDisplayName" val=""/>
            </MetaData>
            <ExtraData>
             <Entry key="ZoomPanBin">
              <ZoomPanBin id="21519"  >
               <ZoomPanKeyframes>
                <ZoomPanKeyframe id="21520" timeRangeEnd="-9999999/1" timeRangeDuration="0/1" interpolaterName=""  />
               </ZoomPanKeyframes>
              </ZoomPanBin>
             </Entry>
            </ExtraData>
           </VMFile>
          </Medias>
         </GenericTrack>
        </StitchedMedia>
        <StitchedMedia id="21521" start="4738" duration="272" scalar="52106085787392/130366182988855" mediaStart="78297171636262301/8684347631232" mediaDuration="2216225110810535/3256630361712" minMediaStart="0/1" >
         <Transformer>
          <VectorParam id="21522"  name="translation">
           <InterpolatingParam id="21523" interp="linr"  time="-9999999/1" value="0" leadInLength="0/1"  interpolater="leadin-linr"  />
           <InterpolatingParam id="21524" interp="linr"  time="-9999999/1" value="0" leadInLength="0/1"  interpolater="leadin-linr"  />
           <InterpolatingParam id="21525" interp="linr"  time="-9999999/1" value="0" leadInLength="0/1"  interpolater="leadin-linr"  />
          </VectorParam>
          <VectorParam id="21526"  name="rotation">
           <InterpolatingParam id="21527" interp="linr"  time="-9999999/1" value="0" leadInLength="0/1"  interpolater="leadin-linr"  />
           <InterpolatingParam id="21528" interp="linr"  time="-9999999/1" value="0" leadInLength="0/1"  interpolater="leadin-linr"  />
           <InterpolatingParam id="21529" interp="linr"  time="-9999999/1" value="0" leadInLength="0/1"  interpolater="leadin-linr"  />
          </VectorParam>
          <VectorParam id="21530"  name="shear">
           <InterpolatingParam id="21531" interp="linr"  time="-9999999/1" value="0" leadInLength="0/1"  interpolater="leadin-linr"  />
           <InterpolatingParam id="21532" interp="linr"  time="-9999999/1" value="0" leadInLength="0/1"  interpolater="leadin-linr"  />
           <InterpolatingParam id="21533" interp="linr"  time="-9999999/1" value="0" leadInLength="0/1"  interpolater="leadin-linr"  />
          </VectorParam>
          <VectorParam id="21534"  name="scale">
           <InterpolatingParam id="21535" interp="linr"  time="-9999999/1" value="1" leadInLength="0/1"  interpolater="leadin-linr"  />
           <InterpolatingParam id="21536" interp="linr"  time="-9999999/1" value="1" leadInLength="0/1"  interpolater="leadin-linr"  />
           <InterpolatingParam id="21537" interp="linr"  time="-9999999/1" value="1" leadInLength="0/1"  interpolater="leadin-linr"  />
          </VectorParam>
          <VectorParam id="21538"  name="anchor">
           <InterpolatingParam id="21539" interp="linr"  >
            <Keyframes>
            <Keyframe id="21540"  time="0/1" value="0" leadInLength="0/1"  />
            <Keyframe id="21541"  time="32931335377/7971776" value="0" leadInLength="0/1"  />
            <Keyframe id="21542"  time="4328/1" value="0" leadInLength="0/1"  />
            <Keyframe id="21543"  time="4457/1" value="0" leadInLength="0/1"  />
            <Keyframe id="21544"  time="46272102474146/7646783123" value="0" leadInLength="0/1"  />
            <Keyframe id="21545"  time="576460752303423488/75433993780101" value="0" leadInLength="0/1"  />
            <Keyframe id="21546"  time="600059199085213793/58267769831581" value="0" leadInLength="0/1"  />
            <Keyframe id="21547"  time="1199749202952939991/115623946533563" value="0" leadInLength="0/1"  />
            </Keyframes>
           </InterpolatingParam>
           <InterpolatingParam id="21548" interp="linr"  >
            <Keyframes>
            <Keyframe id="21549"  time="0/1" value="0" leadInLength="0/1"  />
            <Keyframe id="21550"  time="32931335377/7971776" value="0" leadInLength="0/1"  />
            <Keyframe id="21551"  time="4328/1" value="0" leadInLength="0/1"  />
            <Keyframe id="21552"  time="4457/1" value="0" leadInLength="0/1"  />
            <Keyframe id="21553"  time="46272102474146/7646783123" value="0" leadInLength="0/1"  />
            <Keyframe id="21554"  time="576460752303423488/75433993780101" value="0" leadInLength="0/1"  />
            <Keyframe id="21555"  time="600059199085213793/58267769831581" value="0" leadInLength="0/1"  />
            <Keyframe id="21556"  time="1199749202952939991/115623946533563" value="0" leadInLength="0/1"  />
            </Keyframes>
           </InterpolatingParam>
           <InterpolatingParam id="21557" interp="linr"  >
            <Keyframes>
            <Keyframe id="21558"  time="0/1" value="0" leadInLength="0/1"  />
            <Keyframe id="21559"  time="32931335377/7971776" value="0" leadInLength="0/1"  />
            <Keyframe id="21560"  time="4328/1" value="0" leadInLength="0/1"  />
            <Keyframe id="21561"  time="4457/1" value="0" leadInLength="0/1"  />
            <Keyframe id="21562"  time="46272102474146/7646783123" value="0" leadInLength="0/1"  />
            <Keyframe id="21563"  time="576460752303423488/75433993780101" value="0" leadInLength="0/1"  />
            <Keyframe id="21564"  time="600059199085213793/58267769831581" value="0" leadInLength="0/1"  />
            <Keyframe id="21565"  time="1199749202952939991/115623946533563" value="0" leadInLength="0/1"  />
            </Keyframes>
           </InterpolatingParam>
          </VectorParam>
         </Transformer>
         <Parameters>
          <VectorParam id="21566"  name="sourceCrop">
           <InterpolatingParam id="21567" interp="linr"  >
            <Keyframes>
            <Keyframe id="21568"  time="0/1" value="0" leadInLength="0/1"  />
            <Keyframe id="21569"  time="32931335377/7971776" value="0" leadInLength="0/1"  />
            <Keyframe id="21570"  time="4328/1" value="0" leadInLength="0/1"  />
            <Keyframe id="21571"  time="4457/1" value="0" leadInLength="0/1"  />
            <Keyframe id="21572"  time="46272102474146/7646783123" value="0" leadInLength="0/1"  />
            <Keyframe id="21573"  time="576460752303423488/75433993780101" value="0" leadInLength="0/1"  />
            <Keyframe id="21574"  time="600059199085213793/58267769831581" value="0" leadInLength="0/1"  />
            <Keyframe id="21575"  time="1199749202952939991/115623946533563" value="0" leadInLength="0/1"  />
            </Keyframes>
           </InterpolatingParam>
           <InterpolatingParam id="21576" interp="linr"  >
            <Keyframes>
            <Keyframe id="21577"  time="0/1" value="0" leadInLength="0/1"  />
            <Keyframe id="21578"  time="32931335377/7971776" value="0" leadInLength="0/1"  />
            <Keyframe id="21579"  time="4328/1" value="0" leadInLength="0/1"  />
            <Keyframe id="21580"  time="4457/1" value="0" leadInLength="0/1"  />
            <Keyframe id="21581"  time="46272102474146/7646783123" value="0" leadInLength="0/1"  />
            <Keyframe id="21582"  time="576460752303423488/75433993780101" value="0" leadInLength="0/1"  />
            <Keyframe id="21583"  time="600059199085213793/58267769831581" value="0" leadInLength="0/1"  />
            <Keyframe id="21584"  time="1199749202952939991/115623946533563" value="0" leadInLength="0/1"  />
            </Keyframes>
           </InterpolatingParam>
           <InterpolatingParam id="21585" interp="linr"  >
            <Keyframes>
            <Keyframe id="21586"  time="0/1" value="0" leadInLength="0/1"  />
            <Keyframe id="21587"  time="32931335377/7971776" value="0" leadInLength="0/1"  />
            <Keyframe id="21588"  time="4328/1" value="0" leadInLength="0/1"  />
            <Keyframe id="21589"  time="4457/1" value="0" leadInLength="0/1"  />
            <Keyframe id="21590"  time="46272102474146/7646783123" value="0" leadInLength="0/1"  />
            <Keyframe id="21591"  time="576460752303423488/75433993780101" value="0" leadInLength="0/1"  />
            <Keyframe id="21592"  time="600059199085213793/58267769831581" value="0" leadInLength="0/1"  />
            <Keyframe id="21593"  time="1199749202952939991/115623946533563" value="0" leadInLength="0/1"  />
            </Keyframes>
           </InterpolatingParam>
           <InterpolatingParam id="21594" interp="linr"  >
            <Keyframes>
            <Keyframe id="21595"  time="0/1" value="0" leadInLength="0/1"  />
            <Keyframe id="21596"  time="32931335377/7971776" value="0" leadInLength="0/1"  />
            <Keyframe id="21597"  time="4328/1" value="0" leadInLength="0/1"  />
            <Keyframe id="21598"  time="4457/1" value="0" leadInLength="0/1"  />
            <Keyframe id="21599"  time="46272102474146/7646783123" value="0" leadInLength="0/1"  />
            <Keyframe id="21600"  time="576460752303423488/75433993780101" value="0" leadInLength="0/1"  />
            <Keyframe id="21601"  time="600059199085213793/58267769831581" value="0" leadInLength="0/1"  />
            <Keyframe id="21602"  time="1199749202952939991/115623946533563" value="0" leadInLength="0/1"  />
            </Keyframes>
           </InterpolatingParam>
          </VectorParam>
          <VectorParam id="21603"  name="geometryCrop">
           <InterpolatingParam id="21604" interp="linr"  time="-9999999/1" value="0" leadInLength="0/1"  interpolater="leadin-linr"  />
           <InterpolatingParam id="21605" interp="linr"  time="-9999999/1" value="0" leadInLength="0/1"  interpolater="leadin-linr"  />
           <InterpolatingParam id="21606" interp="linr"  time="-9999999/1" value="0" leadInLength="0/1"  interpolater="leadin-linr"  />
           <InterpolatingParam id="21607" interp="linr"  time="-9999999/1" value="0" leadInLength="0/1"  interpolater="leadin-linr"  />
          </VectorParam>
          <InterpolatingParam id="21608" interp="linr"  time="-9999999/1" value="1" leadInLength="0/1"  interpolater="leadin-linr"  name="opacity"/>
          <InterpolatingParam id="21609" interp="linr"  time="0/1" value="1" leadInLength="0/1"  name="cursorOpacity"/>
          <InterpolatingParam id="21610" interp="linr"  time="0/1" value="1" leadInLength="0/1"  name="cursorScale"/>
          <Parameter id="21611"  name="captions"/>
         </Parameters>
         <Attributes>
          <Attribute id="21612" value="" name="ident"/>
         </Attributes>
         <MetaData>
          <entry key="WinSubProjectDisplayName" val=""/>
         </MetaData>
         <ExtraData>
          <Entry key="ZoomPanBin">
           <ZoomPanBin id="21613"  >
            <ZoomPanKeyframes>
             <ZoomPanKeyframe id="21614" timeRangeEnd="-9999999/1" timeRangeDuration="0/1" interpolaterName="linr"  />
            </ZoomPanKeyframes>
           </ZoomPanBin>
          </Entry>
          <Entry key="CursorEffectBin">
           <CursorEffectBin id="21615"  >
            <CursorEffectKeyframes>
            </CursorEffectKeyframes>
           </CursorEffectBin>
          </Entry>
         </ExtraData>
         <GenericTrack id="21616"  >
          <Attributes>
           <Attribute id="21617" value="" name="ident"/>
           <Attribute id="21618" value="0" name="audioMuted"/>
           <Attribute id="21619" value="0" name="videoHidden"/>
          </Attributes>
          <MetaData>
           <entry key="IsLocked" val="False"/>
           <entry key="WinTrackHeight" val="0"/>
          </MetaData>
          <Medias>
           <VMFile id="21620" start="0" duration="4131" scalar="1/1" mediaStart="0/1" mediaDuration="4131/1" trackNumber="0" src="4" >
            <Transformer>
             <VectorParam id="21621"  name="translation">
              <InterpolatingParam id="21622" interp="linr"  time="-9999999/1" value="0" leadInLength="0/1"  />
              <InterpolatingParam id="21623" interp="linr"  time="-9999999/1" value="0" leadInLength="0/1"  />
              <InterpolatingParam id="21624" interp="linr"  time="-9999999/1" value="0" leadInLength="0/1"  />
             </VectorParam>
             <VectorParam id="21625"  name="rotation">
              <InterpolatingParam id="21626" interp="linr"  time="-9999999/1" value="0" leadInLength="0/1"  />
              <InterpolatingParam id="21627" interp="linr"  time="-9999999/1" value="0" leadInLength="0/1"  />
              <InterpolatingParam id="21628" interp="linr"  time="-9999999/1" value="0" leadInLength="0/1"  />
             </VectorParam>
             <VectorParam id="21629"  name="shear">
              <InterpolatingParam id="21630" interp="linr"  time="-9999999/1" value="0" leadInLength="0/1"  />
              <InterpolatingParam id="21631" interp="linr"  time="-9999999/1" value="0" leadInLength="0/1"  />
              <InterpolatingParam id="21632" interp="linr"  time="-9999999/1" value="0" leadInLength="0/1"  />
             </VectorParam>
             <VectorParam id="21633"  name="scale">
              <InterpolatingParam id="21634" interp="linr"  time="-9999999/1" value="1" leadInLength="0/1"  />
              <InterpolatingParam id="21635" interp="linr"  time="-9999999/1" value="1" leadInLength="0/1"  />
              <InterpolatingParam id="21636" interp="linr"  time="-9999999/1" value="1" leadInLength="0/1"  />
             </VectorParam>
             <VectorParam id="21637"  name="anchor">
              <InterpolatingParam id="21638" interp="linr"  time="0/1" value="0" leadInLength="0/1"  />
              <InterpolatingParam id="21639" interp="linr"  time="0/1" value="0" leadInLength="0/1"  />
              <InterpolatingParam id="21640" interp="linr"  time="0/1" value="0" leadInLength="0/1"  />
             </VectorParam>
            </Transformer>
            <Parameters>
             <VectorParam id="21641"  name="sourceCrop">
              <InterpolatingParam id="21642" interp="linr"  time="0/1" value="0" leadInLength="0/1"  />
              <InterpolatingParam id="21643" interp="linr"  time="0/1" value="0" leadInLength="0/1"  />
              <InterpolatingParam id="21644" interp="linr"  time="0/1" value="0" leadInLength="0/1"  />
              <InterpolatingParam id="21645" interp="linr"  time="0/1" value="0" leadInLength="0/1"  />
             </VectorParam>
             <VectorParam id="21646"  name="geometryCrop">
              <InterpolatingParam id="21647" interp="linr"  time="-9999999/1" value="0" leadInLength="0/1"  />
              <InterpolatingParam id="21648" interp="linr"  time="-9999999/1" value="0" leadInLength="0/1"  />
              <InterpolatingParam id="21649" interp="linr"  time="-9999999/1" value="0" leadInLength="0/1"  />
              <InterpolatingParam id="21650" interp="linr"  time="-9999999/1" value="0" leadInLength="0/1"  />
             </VectorParam>
             <InterpolatingParam id="21651" interp="linr"  time="-9999999/1" value="1" leadInLength="0/1"  name="opacity"/>
            </Parameters>
            <Attributes>
             <Attribute id="21652" value="" name="ident"/>
            </Attributes>
            <MetaData>
             <entry key="WinSubProjectDisplayName" val=""/>
            </MetaData>
            <ExtraData>
             <Entry key="ZoomPanBin">
              <ZoomPanBin id="21653"  >
               <ZoomPanKeyframes>
                <ZoomPanKeyframe id="21654" timeRangeEnd="-9999999/1" timeRangeDuration="0/1" interpolaterName=""  />
               </ZoomPanKeyframes>
              </ZoomPanBin>
             </Entry>
            </ExtraData>
           </VMFile>
           <IMFile id="21655" start="4131" duration="12" scalar="1/1" mediaStart="4130/1" mediaDuration="1/1" trackNumber="0" src="4" trimStartSum="0/1" >
            <Transformer>
             <VectorParam id="21656"  name="translation">
              <InterpolatingParam id="21657" interp="linr"  time="-9999999/1" value="0" leadInLength="0/1"  />
              <InterpolatingParam id="21658" interp="linr"  time="-9999999/1" value="0" leadInLength="0/1"  />
              <InterpolatingParam id="21659" interp="linr"  time="-9999999/1" value="0" leadInLength="0/1"  />
             </VectorParam>
             <VectorParam id="21660"  name="rotation">
              <InterpolatingParam id="21661" interp="linr"  time="-9999999/1" value="0" leadInLength="0/1"  />
              <InterpolatingParam id="21662" interp="linr"  time="-9999999/1" value="0" leadInLength="0/1"  />
              <InterpolatingParam id="21663" interp="linr"  time="-9999999/1" value="0" leadInLength="0/1"  />
             </VectorParam>
             <VectorParam id="21664"  name="shear">
              <InterpolatingParam id="21665" interp="linr"  time="-9999999/1" value="0" leadInLength="0/1"  />
              <InterpolatingParam id="21666" interp="linr"  time="-9999999/1" value="0" leadInLength="0/1"  />
              <InterpolatingParam id="21667" interp="linr"  time="-9999999/1" value="0" leadInLength="0/1"  />
             </VectorParam>
             <VectorParam id="21668"  name="scale">
              <InterpolatingParam id="21669" interp="linr"  time="-9999999/1" value="1" leadInLength="0/1"  />
              <InterpolatingParam id="21670" interp="linr"  time="-9999999/1" value="1" leadInLength="0/1"  />
              <InterpolatingParam id="21671" interp="linr"  time="-9999999/1" value="1" leadInLength="0/1"  />
             </VectorParam>
             <VectorParam id="21672"  name="anchor">
              <InterpolatingParam id="21673" interp="linr"  time="0/1" value="0" leadInLength="0/1"  />
              <InterpolatingParam id="21674" interp="linr"  time="0/1" value="0" leadInLength="0/1"  />
              <InterpolatingParam id="21675" interp="linr"  time="0/1" value="0" leadInLength="0/1"  />
             </VectorParam>
            </Transformer>
            <Parameters>
             <VectorParam id="21676"  name="sourceCrop">
              <InterpolatingParam id="21677" interp="linr"  time="0/1" value="0" leadInLength="0/1"  />
              <InterpolatingParam id="21678" interp="linr"  time="0/1" value="0" leadInLength="0/1"  />
              <InterpolatingParam id="21679" interp="linr"  time="0/1" value="0" leadInLength="0/1"  />
              <InterpolatingParam id="21680" interp="linr"  time="0/1" value="0" leadInLength="0/1"  />
             </VectorParam>
             <VectorParam id="21681"  name="geometryCrop">
              <InterpolatingParam id="21682" interp="linr"  time="-9999999/1" value="0" leadInLength="0/1"  />
              <InterpolatingParam id="21683" interp="linr"  time="-9999999/1" value="0" leadInLength="0/1"  />
              <InterpolatingParam id="21684" interp="linr"  time="-9999999/1" value="0" leadInLength="0/1"  />
              <InterpolatingParam id="21685" interp="linr"  time="-9999999/1" value="0" leadInLength="0/1"  />
             </VectorParam>
             <InterpolatingParam id="21686" interp="linr"  time="-9999999/1" value="1" leadInLength="0/1"  name="opacity"/>
            </Parameters>
            <Attributes>
             <Attribute id="21687" value="" name="ident"/>
            </Attributes>
            <MetaData>
             <entry key="WinSubProjectDisplayName" val=""/>
            </MetaData>
            <ExtraData>
             <Entry key="ZoomPanBin">
              <ZoomPanBin id="21688"  >
               <ZoomPanKeyframes>
                <ZoomPanKeyframe id="21689" timeRangeEnd="-9999999/1" timeRangeDuration="0/1" interpolaterName=""  />
               </ZoomPanKeyframes>
              </ZoomPanBin>
             </Entry>
            </ExtraData>
           </IMFile>
           <VMFile id="21690" start="4143" duration="185" scalar="1/1" mediaStart="4130/1" mediaDuration="185/1" trackNumber="0" src="4" >
            <Transformer>
             <VectorParam id="21691"  name="translation">
              <InterpolatingParam id="21692" interp="linr"  time="-9999999/1" value="0" leadInLength="0/1"  />
              <InterpolatingParam id="21693" interp="linr"  time="-9999999/1" value="0" leadInLength="0/1"  />
              <InterpolatingParam id="21694" interp="linr"  time="-9999999/1" value="0" leadInLength="0/1"  />
             </VectorParam>
             <VectorParam id="21695"  name="rotation">
              <InterpolatingParam id="21696" interp="linr"  time="-9999999/1" value="0" leadInLength="0/1"  />
              <InterpolatingParam id="21697" interp="linr"  time="-9999999/1" value="0" leadInLength="0/1"  />
              <InterpolatingParam id="21698" interp="linr"  time="-9999999/1" value="0" leadInLength="0/1"  />
             </VectorParam>
             <VectorParam id="21699"  name="shear">
              <InterpolatingParam id="21700" interp="linr"  time="-9999999/1" value="0" leadInLength="0/1"  />
              <InterpolatingParam id="21701" interp="linr"  time="-9999999/1" value="0" leadInLength="0/1"  />
              <InterpolatingParam id="21702" interp="linr"  time="-9999999/1" value="0" leadInLength="0/1"  />
             </VectorParam>
             <VectorParam id="21703"  name="scale">
              <InterpolatingParam id="21704" interp="linr"  time="-9999999/1" value="1" leadInLength="0/1"  />
              <InterpolatingParam id="21705" interp="linr"  time="-9999999/1" value="1" leadInLength="0/1"  />
              <InterpolatingParam id="21706" interp="linr"  time="-9999999/1" value="1" leadInLength="0/1"  />
             </VectorParam>
             <VectorParam id="21707"  name="anchor">
              <InterpolatingParam id="21708" interp="linr"  time="0/1" value="0" leadInLength="0/1"  />
              <InterpolatingParam id="21709" interp="linr"  time="0/1" value="0" leadInLength="0/1"  />
              <InterpolatingParam id="21710" interp="linr"  time="0/1" value="0" leadInLength="0/1"  />
             </VectorParam>
            </Transformer>
            <Parameters>
             <VectorParam id="21711"  name="sourceCrop">
              <InterpolatingParam id="21712" interp="linr"  time="0/1" value="0" leadInLength="0/1"  />
              <InterpolatingParam id="21713" interp="linr"  time="0/1" value="0" leadInLength="0/1"  />
              <InterpolatingParam id="21714" interp="linr"  time="0/1" value="0" leadInLength="0/1"  />
              <InterpolatingParam id="21715" interp="linr"  time="0/1" value="0" leadInLength="0/1"  />
             </VectorParam>
             <VectorParam id="21716"  name="geometryCrop">
              <InterpolatingParam id="21717" interp="linr"  time="-9999999/1" value="0" leadInLength="0/1"  />
              <InterpolatingParam id="21718" interp="linr"  time="-9999999/1" value="0" leadInLength="0/1"  />
              <InterpolatingParam id="21719" interp="linr"  time="-9999999/1" value="0" leadInLength="0/1"  />
              <InterpolatingParam id="21720" interp="linr"  time="-9999999/1" value="0" leadInLength="0/1"  />
             </VectorParam>
             <InterpolatingParam id="21721" interp="linr"  time="-9999999/1" value="1" leadInLength="0/1"  name="opacity"/>
            </Parameters>
            <Attributes>
             <Attribute id="21722" value="" name="ident"/>
            </Attributes>
            <MetaData>
             <entry key="WinSubProjectDisplayName" val=""/>
            </MetaData>
            <ExtraData>
             <Entry key="ZoomPanBin">
              <ZoomPanBin id="21723"  >
               <ZoomPanKeyframes>
                <ZoomPanKeyframe id="21724" timeRangeEnd="-9999999/1" timeRangeDuration="0/1" interpolaterName=""  />
               </ZoomPanKeyframes>
              </ZoomPanBin>
             </Entry>
            </ExtraData>
           </VMFile>
           <IMFile id="21725" start="4328" duration="3" scalar="1/1" mediaStart="4315/1" mediaDuration="1/1" trackNumber="0" src="4" trimStartSum="0/1" >
            <Transformer>
             <VectorParam id="21726"  name="translation">
              <InterpolatingParam id="21727" interp="linr"  time="-9999999/1" value="0" leadInLength="0/1"  />
              <InterpolatingParam id="21728" interp="linr"  time="-9999999/1" value="0" leadInLength="0/1"  />
              <InterpolatingParam id="21729" interp="linr"  time="-9999999/1" value="0" leadInLength="0/1"  />
             </VectorParam>
             <VectorParam id="21730"  name="rotation">
              <InterpolatingParam id="21731" interp="linr"  time="-9999999/1" value="0" leadInLength="0/1"  />
              <InterpolatingParam id="21732" interp="linr"  time="-9999999/1" value="0" leadInLength="0/1"  />
              <InterpolatingParam id="21733" interp="linr"  time="-9999999/1" value="0" leadInLength="0/1"  />
             </VectorParam>
             <VectorParam id="21734"  name="shear">
              <InterpolatingParam id="21735" interp="linr"  time="-9999999/1" value="0" leadInLength="0/1"  />
              <InterpolatingParam id="21736" interp="linr"  time="-9999999/1" value="0" leadInLength="0/1"  />
              <InterpolatingParam id="21737" interp="linr"  time="-9999999/1" value="0" leadInLength="0/1"  />
             </VectorParam>
             <VectorParam id="21738"  name="scale">
              <InterpolatingParam id="21739" interp="linr"  time="-9999999/1" value="1" leadInLength="0/1"  />
              <InterpolatingParam id="21740" interp="linr"  time="-9999999/1" value="1" leadInLength="0/1"  />
              <InterpolatingParam id="21741" interp="linr"  time="-9999999/1" value="1" leadInLength="0/1"  />
             </VectorParam>
             <VectorParam id="21742"  name="anchor">
              <InterpolatingParam id="21743" interp="linr"  time="0/1" value="0" leadInLength="0/1"  />
              <InterpolatingParam id="21744" interp="linr"  time="0/1" value="0" leadInLength="0/1"  />
              <InterpolatingParam id="21745" interp="linr"  time="0/1" value="0" leadInLength="0/1"  />
             </VectorParam>
            </Transformer>
            <Parameters>
             <VectorParam id="21746"  name="sourceCrop">
              <InterpolatingParam id="21747" interp="linr"  time="0/1" value="0" leadInLength="0/1"  />
              <InterpolatingParam id="21748" interp="linr"  time="0/1" value="0" leadInLength="0/1"  />
              <InterpolatingParam id="21749" interp="linr"  time="0/1" value="0" leadInLength="0/1"  />
              <InterpolatingParam id="21750" interp="linr"  time="0/1" value="0" leadInLength="0/1"  />
             </VectorParam>
             <VectorParam id="21751"  name="geometryCrop">
              <InterpolatingParam id="21752" interp="linr"  time="-9999999/1" value="0" leadInLength="0/1"  />
              <InterpolatingParam id="21753" interp="linr"  time="-9999999/1" value="0" leadInLength="0/1"  />
              <InterpolatingParam id="21754" interp="linr"  time="-9999999/1" value="0" leadInLength="0/1"  />
              <InterpolatingParam id="21755" interp="linr"  time="-9999999/1" value="0" leadInLength="0/1"  />
             </VectorParam>
             <InterpolatingParam id="21756" interp="linr"  time="-9999999/1" value="1" leadInLength="0/1"  name="opacity"/>
            </Parameters>
            <Attributes>
             <Attribute id="21757" value="" name="ident"/>
            </Attributes>
            <MetaData>
             <entry key="WinSubProjectDisplayName" val=""/>
            </MetaData>
            <ExtraData>
             <Entry key="ZoomPanBin">
              <ZoomPanBin id="21758"  >
               <ZoomPanKeyframes>
                <ZoomPanKeyframe id="21759" timeRangeEnd="-9999999/1" timeRangeDuration="0/1" interpolaterName=""  />
               </ZoomPanKeyframes>
              </ZoomPanBin>
             </Entry>
            </ExtraData>
           </IMFile>
           <VMFile id="21760" start="4331" duration="31" scalar="1/1" mediaStart="4315/1" mediaDuration="31/1" trackNumber="0" src="4" >
            <Transformer>
             <VectorParam id="21761"  name="translation">
              <InterpolatingParam id="21762" interp="linr"  time="-9999999/1" value="0" leadInLength="0/1"  />
              <InterpolatingParam id="21763" interp="linr"  time="-9999999/1" value="0" leadInLength="0/1"  />
              <InterpolatingParam id="21764" interp="linr"  time="-9999999/1" value="0" leadInLength="0/1"  />
             </VectorParam>
             <VectorParam id="21765"  name="rotation">
              <InterpolatingParam id="21766" interp="linr"  time="-9999999/1" value="0" leadInLength="0/1"  />
              <InterpolatingParam id="21767" interp="linr"  time="-9999999/1" value="0" leadInLength="0/1"  />
              <InterpolatingParam id="21768" interp="linr"  time="-9999999/1" value="0" leadInLength="0/1"  />
             </VectorParam>
             <VectorParam id="21769"  name="shear">
              <InterpolatingParam id="21770" interp="linr"  time="-9999999/1" value="0" leadInLength="0/1"  />
              <InterpolatingParam id="21771" interp="linr"  time="-9999999/1" value="0" leadInLength="0/1"  />
              <InterpolatingParam id="21772" interp="linr"  time="-9999999/1" value="0" leadInLength="0/1"  />
             </VectorParam>
             <VectorParam id="21773"  name="scale">
              <InterpolatingParam id="21774" interp="linr"  time="-9999999/1" value="1" leadInLength="0/1"  />
              <InterpolatingParam id="21775" interp="linr"  time="-9999999/1" value="1" leadInLength="0/1"  />
              <InterpolatingParam id="21776" interp="linr"  time="-9999999/1" value="1" leadInLength="0/1"  />
             </VectorParam>
             <VectorParam id="21777"  name="anchor">
              <InterpolatingParam id="21778" interp="linr"  time="0/1" value="0" leadInLength="0/1"  />
              <InterpolatingParam id="21779" interp="linr"  time="0/1" value="0" leadInLength="0/1"  />
              <InterpolatingParam id="21780" interp="linr"  time="0/1" value="0" leadInLength="0/1"  />
             </VectorParam>
            </Transformer>
            <Parameters>
             <VectorParam id="21781"  name="sourceCrop">
              <InterpolatingParam id="21782" interp="linr"  time="0/1" value="0" leadInLength="0/1"  />
              <InterpolatingParam id="21783" interp="linr"  time="0/1" value="0" leadInLength="0/1"  />
              <InterpolatingParam id="21784" interp="linr"  time="0/1" value="0" leadInLength="0/1"  />
              <InterpolatingParam id="21785" interp="linr"  time="0/1" value="0" leadInLength="0/1"  />
             </VectorParam>
             <VectorParam id="21786"  name="geometryCrop">
              <InterpolatingParam id="21787" interp="linr"  time="-9999999/1" value="0" leadInLength="0/1"  />
              <InterpolatingParam id="21788" interp="linr"  time="-9999999/1" value="0" leadInLength="0/1"  />
              <InterpolatingParam id="21789" interp="linr"  time="-9999999/1" value="0" leadInLength="0/1"  />
              <InterpolatingParam id="21790" interp="linr"  time="-9999999/1" value="0" leadInLength="0/1"  />
             </VectorParam>
             <InterpolatingParam id="21791" interp="linr"  time="-9999999/1" value="1" leadInLength="0/1"  name="opacity"/>
            </Parameters>
            <Attributes>
             <Attribute id="21792" value="" name="ident"/>
            </Attributes>
            <MetaData>
             <entry key="WinSubProjectDisplayName" val=""/>
            </MetaData>
            <ExtraData>
             <Entry key="ZoomPanBin">
              <ZoomPanBin id="21793"  >
               <ZoomPanKeyframes>
                <ZoomPanKeyframe id="21794" timeRangeEnd="-9999999/1" timeRangeDuration="0/1" interpolaterName=""  />
               </ZoomPanKeyframes>
              </ZoomPanBin>
             </Entry>
            </ExtraData>
           </VMFile>
           <VMFile id="21795" start="4362" duration="95" scalar="1/1" mediaStart="4751/1" mediaDuration="95/1" trackNumber="0" src="4" >
            <Transformer>
             <VectorParam id="21796"  name="translation">
              <InterpolatingParam id="21797" interp="linr"  time="-9999999/1" value="0" leadInLength="0/1"  />
              <InterpolatingParam id="21798" interp="linr"  time="-9999999/1" value="0" leadInLength="0/1"  />
              <InterpolatingParam id="21799" interp="linr"  time="-9999999/1" value="0" leadInLength="0/1"  />
             </VectorParam>
             <VectorParam id="21800"  name="rotation">
              <InterpolatingParam id="21801" interp="linr"  time="-9999999/1" value="0" leadInLength="0/1"  />
              <InterpolatingParam id="21802" interp="linr"  time="-9999999/1" value="0" leadInLength="0/1"  />
              <InterpolatingParam id="21803" interp="linr"  time="-9999999/1" value="0" leadInLength="0/1"  />
             </VectorParam>
             <VectorParam id="21804"  name="shear">
              <InterpolatingParam id="21805" interp="linr"  time="-9999999/1" value="0" leadInLength="0/1"  />
              <InterpolatingParam id="21806" interp="linr"  time="-9999999/1" value="0" leadInLength="0/1"  />
              <InterpolatingParam id="21807" interp="linr"  time="-9999999/1" value="0" leadInLength="0/1"  />
             </VectorParam>
             <VectorParam id="21808"  name="scale">
              <InterpolatingParam id="21809" interp="linr"  time="-9999999/1" value="1" leadInLength="0/1"  />
              <InterpolatingParam id="21810" interp="linr"  time="-9999999/1" value="1" leadInLength="0/1"  />
              <InterpolatingParam id="21811" interp="linr"  time="-9999999/1" value="1" leadInLength="0/1"  />
             </VectorParam>
             <VectorParam id="21812"  name="anchor">
              <InterpolatingParam id="21813" interp="linr"  time="0/1" value="0" leadInLength="0/1"  />
              <InterpolatingParam id="21814" interp="linr"  time="0/1" value="0" leadInLength="0/1"  />
              <InterpolatingParam id="21815" interp="linr"  time="0/1" value="0" leadInLength="0/1"  />
             </VectorParam>
            </Transformer>
            <Parameters>
             <VectorParam id="21816"  name="sourceCrop">
              <InterpolatingParam id="21817" interp="linr"  time="0/1" value="0" leadInLength="0/1"  />
              <InterpolatingParam id="21818" interp="linr"  time="0/1" value="0" leadInLength="0/1"  />
              <InterpolatingParam id="21819" interp="linr"  time="0/1" value="0" leadInLength="0/1"  />
              <InterpolatingParam id="21820" interp="linr"  time="0/1" value="0" leadInLength="0/1"  />
             </VectorParam>
             <VectorParam id="21821"  name="geometryCrop">
              <InterpolatingParam id="21822" interp="linr"  time="-9999999/1" value="0" leadInLength="0/1"  />
              <InterpolatingParam id="21823" interp="linr"  time="-9999999/1" value="0" leadInLength="0/1"  />
              <InterpolatingParam id="21824" interp="linr"  time="-9999999/1" value="0" leadInLength="0/1"  />
              <InterpolatingParam id="21825" interp="linr"  time="-9999999/1" value="0" leadInLength="0/1"  />
             </VectorParam>
             <InterpolatingParam id="21826" interp="linr"  time="-9999999/1" value="1" leadInLength="0/1"  name="opacity"/>
            </Parameters>
            <Attributes>
             <Attribute id="21827" value="" name="ident"/>
            </Attributes>
            <MetaData>
             <entry key="WinSubProjectDisplayName" val=""/>
            </MetaData>
            <ExtraData>
             <Entry key="ZoomPanBin">
              <ZoomPanBin id="21828"  >
               <ZoomPanKeyframes>
                <ZoomPanKeyframe id="21829" timeRangeEnd="-9999999/1" timeRangeDuration="0/1" interpolaterName=""  />
               </ZoomPanKeyframes>
              </ZoomPanBin>
             </Entry>
            </ExtraData>
           </VMFile>
           <IMFile id="21830" start="4457" duration="270" scalar="1/1" mediaStart="4846/1" mediaDuration="1/1" trackNumber="0" src="4" trimStartSum="0/1" >
            <Transformer>
             <VectorParam id="21831"  name="translation">
              <InterpolatingParam id="21832" interp="linr"  time="-9999999/1" value="0" leadInLength="0/1"  />
              <InterpolatingParam id="21833" interp="linr"  time="-9999999/1" value="0" leadInLength="0/1"  />
              <InterpolatingParam id="21834" interp="linr"  time="-9999999/1" value="0" leadInLength="0/1"  />
             </VectorParam>
             <VectorParam id="21835"  name="rotation">
              <InterpolatingParam id="21836" interp="linr"  time="-9999999/1" value="0" leadInLength="0/1"  />
              <InterpolatingParam id="21837" interp="linr"  time="-9999999/1" value="0" leadInLength="0/1"  />
              <InterpolatingParam id="21838" interp="linr"  time="-9999999/1" value="0" leadInLength="0/1"  />
             </VectorParam>
             <VectorParam id="21839"  name="shear">
              <InterpolatingParam id="21840" interp="linr"  time="-9999999/1" value="0" leadInLength="0/1"  />
              <InterpolatingParam id="21841" interp="linr"  time="-9999999/1" value="0" leadInLength="0/1"  />
              <InterpolatingParam id="21842" interp="linr"  time="-9999999/1" value="0" leadInLength="0/1"  />
             </VectorParam>
             <VectorParam id="21843"  name="scale">
              <InterpolatingParam id="21844" interp="linr"  time="-9999999/1" value="1" leadInLength="0/1"  />
              <InterpolatingParam id="21845" interp="linr"  time="-9999999/1" value="1" leadInLength="0/1"  />
              <InterpolatingParam id="21846" interp="linr"  time="-9999999/1" value="1" leadInLength="0/1"  />
             </VectorParam>
             <VectorParam id="21847"  name="anchor">
              <InterpolatingParam id="21848" interp="linr"  time="0/1" value="0" leadInLength="0/1"  />
              <InterpolatingParam id="21849" interp="linr"  time="0/1" value="0" leadInLength="0/1"  />
              <InterpolatingParam id="21850" interp="linr"  time="0/1" value="0" leadInLength="0/1"  />
             </VectorParam>
            </Transformer>
            <Parameters>
             <VectorParam id="21851"  name="sourceCrop">
              <InterpolatingParam id="21852" interp="linr"  time="0/1" value="0" leadInLength="0/1"  />
              <InterpolatingParam id="21853" interp="linr"  time="0/1" value="0" leadInLength="0/1"  />
              <InterpolatingParam id="21854" interp="linr"  time="0/1" value="0" leadInLength="0/1"  />
              <InterpolatingParam id="21855" interp="linr"  time="0/1" value="0" leadInLength="0/1"  />
             </VectorParam>
             <VectorParam id="21856"  name="geometryCrop">
              <InterpolatingParam id="21857" interp="linr"  time="-9999999/1" value="0" leadInLength="0/1"  />
              <InterpolatingParam id="21858" interp="linr"  time="-9999999/1" value="0" leadInLength="0/1"  />
              <InterpolatingParam id="21859" interp="linr"  time="-9999999/1" value="0" leadInLength="0/1"  />
              <InterpolatingParam id="21860" interp="linr"  time="-9999999/1" value="0" leadInLength="0/1"  />
             </VectorParam>
             <InterpolatingParam id="21861" interp="linr"  time="-9999999/1" value="1" leadInLength="0/1"  name="opacity"/>
            </Parameters>
            <Attributes>
             <Attribute id="21862" value="" name="ident"/>
            </Attributes>
            <MetaData>
             <entry key="WinSubProjectDisplayName" val=""/>
            </MetaData>
            <ExtraData>
             <Entry key="ZoomPanBin">
              <ZoomPanBin id="21863"  >
               <ZoomPanKeyframes>
                <ZoomPanKeyframe id="21864" timeRangeEnd="-9999999/1" timeRangeDuration="0/1" interpolaterName=""  />
               </ZoomPanKeyframes>
              </ZoomPanBin>
             </Entry>
            </ExtraData>
           </IMFile>
           <VMFile id="21865" start="4727" duration="17" scalar="1/1" mediaStart="4846/1" mediaDuration="17/1" trackNumber="0" src="4" >
            <Transformer>
             <VectorParam id="21866"  name="translation">
              <InterpolatingParam id="21867" interp="linr"  time="-9999999/1" value="0" leadInLength="0/1"  />
              <InterpolatingParam id="21868" interp="linr"  time="-9999999/1" value="0" leadInLength="0/1"  />
              <InterpolatingParam id="21869" interp="linr"  time="-9999999/1" value="0" leadInLength="0/1"  />
             </VectorParam>
             <VectorParam id="21870"  name="rotation">
              <InterpolatingParam id="21871" interp="linr"  time="-9999999/1" value="0" leadInLength="0/1"  />
              <InterpolatingParam id="21872" interp="linr"  time="-9999999/1" value="0" leadInLength="0/1"  />
              <InterpolatingParam id="21873" interp="linr"  time="-9999999/1" value="0" leadInLength="0/1"  />
             </VectorParam>
             <VectorParam id="21874"  name="shear">
              <InterpolatingParam id="21875" interp="linr"  time="-9999999/1" value="0" leadInLength="0/1"  />
              <InterpolatingParam id="21876" interp="linr"  time="-9999999/1" value="0" leadInLength="0/1"  />
              <InterpolatingParam id="21877" interp="linr"  time="-9999999/1" value="0" leadInLength="0/1"  />
             </VectorParam>
             <VectorParam id="21878"  name="scale">
              <InterpolatingParam id="21879" interp="linr"  time="-9999999/1" value="1" leadInLength="0/1"  />
              <InterpolatingParam id="21880" interp="linr"  time="-9999999/1" value="1" leadInLength="0/1"  />
              <InterpolatingParam id="21881" interp="linr"  time="-9999999/1" value="1" leadInLength="0/1"  />
             </VectorParam>
             <VectorParam id="21882"  name="anchor">
              <InterpolatingParam id="21883" interp="linr"  time="0/1" value="0" leadInLength="0/1"  />
              <InterpolatingParam id="21884" interp="linr"  time="0/1" value="0" leadInLength="0/1"  />
              <InterpolatingParam id="21885" interp="linr"  time="0/1" value="0" leadInLength="0/1"  />
             </VectorParam>
            </Transformer>
            <Parameters>
             <VectorParam id="21886"  name="sourceCrop">
              <InterpolatingParam id="21887" interp="linr"  time="0/1" value="0" leadInLength="0/1"  />
              <InterpolatingParam id="21888" interp="linr"  time="0/1" value="0" leadInLength="0/1"  />
              <InterpolatingParam id="21889" interp="linr"  time="0/1" value="0" leadInLength="0/1"  />
              <InterpolatingParam id="21890" interp="linr"  time="0/1" value="0" leadInLength="0/1"  />
             </VectorParam>
             <VectorParam id="21891"  name="geometryCrop">
              <InterpolatingParam id="21892" interp="linr"  time="-9999999/1" value="0" leadInLength="0/1"  />
              <InterpolatingParam id="21893" interp="linr"  time="-9999999/1" value="0" leadInLength="0/1"  />
              <InterpolatingParam id="21894" interp="linr"  time="-9999999/1" value="0" leadInLength="0/1"  />
              <InterpolatingParam id="21895" interp="linr"  time="-9999999/1" value="0" leadInLength="0/1"  />
             </VectorParam>
             <InterpolatingParam id="21896" interp="linr"  time="-9999999/1" value="1" leadInLength="0/1"  name="opacity"/>
            </Parameters>
            <Attributes>
             <Attribute id="21897" value="" name="ident"/>
            </Attributes>
            <MetaData>
             <entry key="WinSubProjectDisplayName" val=""/>
            </MetaData>
            <ExtraData>
             <Entry key="ZoomPanBin">
              <ZoomPanBin id="21898"  >
               <ZoomPanKeyframes>
                <ZoomPanKeyframe id="21899" timeRangeEnd="-9999999/1" timeRangeDuration="0/1" interpolaterName=""  />
               </ZoomPanKeyframes>
              </ZoomPanBin>
             </Entry>
            </ExtraData>
           </VMFile>
           <VMFile id="21900" start="4744" duration="386" scalar="1/1" mediaStart="7805/1" mediaDuration="386/1" trackNumber="0" src="4" >
            <Transformer>
             <VectorParam id="21901"  name="translation">
              <InterpolatingParam id="21902" interp="linr"  time="-9999999/1" value="0" leadInLength="0/1"  />
              <InterpolatingParam id="21903" interp="linr"  time="-9999999/1" value="0" leadInLength="0/1"  />
              <InterpolatingParam id="21904" interp="linr"  time="-9999999/1" value="0" leadInLength="0/1"  />
             </VectorParam>
             <VectorParam id="21905"  name="rotation">
              <InterpolatingParam id="21906" interp="linr"  time="-9999999/1" value="0" leadInLength="0/1"  />
              <InterpolatingParam id="21907" interp="linr"  time="-9999999/1" value="0" leadInLength="0/1"  />
              <InterpolatingParam id="21908" interp="linr"  time="-9999999/1" value="0" leadInLength="0/1"  />
             </VectorParam>
             <VectorParam id="21909"  name="shear">
              <InterpolatingParam id="21910" interp="linr"  time="-9999999/1" value="0" leadInLength="0/1"  />
              <InterpolatingParam id="21911" interp="linr"  time="-9999999/1" value="0" leadInLength="0/1"  />
              <InterpolatingParam id="21912" interp="linr"  time="-9999999/1" value="0" leadInLength="0/1"  />
             </VectorParam>
             <VectorParam id="21913"  name="scale">
              <InterpolatingParam id="21914" interp="linr"  time="-9999999/1" value="1" leadInLength="0/1"  />
              <InterpolatingParam id="21915" interp="linr"  time="-9999999/1" value="1" leadInLength="0/1"  />
              <InterpolatingParam id="21916" interp="linr"  time="-9999999/1" value="1" leadInLength="0/1"  />
             </VectorParam>
             <VectorParam id="21917"  name="anchor">
              <InterpolatingParam id="21918" interp="linr"  time="0/1" value="0" leadInLength="0/1"  />
              <InterpolatingParam id="21919" interp="linr"  time="0/1" value="0" leadInLength="0/1"  />
              <InterpolatingParam id="21920" interp="linr"  time="0/1" value="0" leadInLength="0/1"  />
             </VectorParam>
            </Transformer>
            <Parameters>
             <VectorParam id="21921"  name="sourceCrop">
              <InterpolatingParam id="21922" interp="linr"  time="0/1" value="0" leadInLength="0/1"  />
              <InterpolatingParam id="21923" interp="linr"  time="0/1" value="0" leadInLength="0/1"  />
              <InterpolatingParam id="21924" interp="linr"  time="0/1" value="0" leadInLength="0/1"  />
              <InterpolatingParam id="21925" interp="linr"  time="0/1" value="0" leadInLength="0/1"  />
             </VectorParam>
             <VectorParam id="21926"  name="geometryCrop">
              <InterpolatingParam id="21927" interp="linr"  time="-9999999/1" value="0" leadInLength="0/1"  />
              <InterpolatingParam id="21928" interp="linr"  time="-9999999/1" value="0" leadInLength="0/1"  />
              <InterpolatingParam id="21929" interp="linr"  time="-9999999/1" value="0" leadInLength="0/1"  />
              <InterpolatingParam id="21930" interp="linr"  time="-9999999/1" value="0" leadInLength="0/1"  />
             </VectorParam>
             <InterpolatingParam id="21931" interp="linr"  time="-9999999/1" value="1" leadInLength="0/1"  name="opacity"/>
            </Parameters>
            <Attributes>
             <Attribute id="21932" value="" name="ident"/>
            </Attributes>
            <MetaData>
             <entry key="WinSubProjectDisplayName" val=""/>
            </MetaData>
            <ExtraData>
             <Entry key="ZoomPanBin">
              <ZoomPanBin id="21933"  >
               <ZoomPanKeyframes>
                <ZoomPanKeyframe id="21934" timeRangeEnd="-9999999/1" timeRangeDuration="0/1" interpolaterName=""  />
               </ZoomPanKeyframes>
              </ZoomPanBin>
             </Entry>
            </ExtraData>
           </VMFile>
           <VMFile id="21935" start="5130" duration="922" scalar="1/1" mediaStart="8371/1" mediaDuration="922/1" trackNumber="0" src="4" >
            <Transformer>
             <VectorParam id="21936"  name="translation">
              <InterpolatingParam id="21937" interp="linr"  time="-9999999/1" value="0" leadInLength="0/1"  />
              <InterpolatingParam id="21938" interp="linr"  time="-9999999/1" value="0" leadInLength="0/1"  />
              <InterpolatingParam id="21939" interp="linr"  time="-9999999/1" value="0" leadInLength="0/1"  />
             </VectorParam>
             <VectorParam id="21940"  name="rotation">
              <InterpolatingParam id="21941" interp="linr"  time="-9999999/1" value="0" leadInLength="0/1"  />
              <InterpolatingParam id="21942" interp="linr"  time="-9999999/1" value="0" leadInLength="0/1"  />
              <InterpolatingParam id="21943" interp="linr"  time="-9999999/1" value="0" leadInLength="0/1"  />
             </VectorParam>
             <VectorParam id="21944"  name="shear">
              <InterpolatingParam id="21945" interp="linr"  time="-9999999/1" value="0" leadInLength="0/1"  />
              <InterpolatingParam id="21946" interp="linr"  time="-9999999/1" value="0" leadInLength="0/1"  />
              <InterpolatingParam id="21947" interp="linr"  time="-9999999/1" value="0" leadInLength="0/1"  />
             </VectorParam>
             <VectorParam id="21948"  name="scale">
              <InterpolatingParam id="21949" interp="linr"  time="-9999999/1" value="1" leadInLength="0/1"  />
              <InterpolatingParam id="21950" interp="linr"  time="-9999999/1" value="1" leadInLength="0/1"  />
              <InterpolatingParam id="21951" interp="linr"  time="-9999999/1" value="1" leadInLength="0/1"  />
             </VectorParam>
             <VectorParam id="21952"  name="anchor">
              <InterpolatingParam id="21953" interp="linr"  time="0/1" value="0" leadInLength="0/1"  />
              <InterpolatingParam id="21954" interp="linr"  time="0/1" value="0" leadInLength="0/1"  />
              <InterpolatingParam id="21955" interp="linr"  time="0/1" value="0" leadInLength="0/1"  />
             </VectorParam>
            </Transformer>
            <Parameters>
             <VectorParam id="21956"  name="sourceCrop">
              <InterpolatingParam id="21957" interp="linr"  time="0/1" value="0" leadInLength="0/1"  />
              <InterpolatingParam id="21958" interp="linr"  time="0/1" value="0" leadInLength="0/1"  />
              <InterpolatingParam id="21959" interp="linr"  time="0/1" value="0" leadInLength="0/1"  />
              <InterpolatingParam id="21960" interp="linr"  time="0/1" value="0" leadInLength="0/1"  />
             </VectorParam>
             <VectorParam id="21961"  name="geometryCrop">
              <InterpolatingParam id="21962" interp="linr"  time="-9999999/1" value="0" leadInLength="0/1"  />
              <InterpolatingParam id="21963" interp="linr"  time="-9999999/1" value="0" leadInLength="0/1"  />
              <InterpolatingParam id="21964" interp="linr"  time="-9999999/1" value="0" leadInLength="0/1"  />
              <InterpolatingParam id="21965" interp="linr"  time="-9999999/1" value="0" leadInLength="0/1"  />
             </VectorParam>
             <InterpolatingParam id="21966" interp="linr"  time="-9999999/1" value="1" leadInLength="0/1"  name="opacity"/>
            </Parameters>
            <Attributes>
             <Attribute id="21967" value="" name="ident"/>
            </Attributes>
            <MetaData>
             <entry key="WinSubProjectDisplayName" val=""/>
            </MetaData>
            <ExtraData>
             <Entry key="ZoomPanBin">
              <ZoomPanBin id="21968"  >
               <ZoomPanKeyframes>
                <ZoomPanKeyframe id="21969" timeRangeEnd="-9999999/1" timeRangeDuration="0/1" interpolaterName=""  />
               </ZoomPanKeyframes>
              </ZoomPanBin>
             </Entry>
            </ExtraData>
           </VMFile>
           <IMFile id="21970" start="6052" duration="30" scalar="1/1" mediaStart="9292/1" mediaDuration="1/1" trackNumber="0" src="4" trimStartSum="0/1" >
            <Transformer>
             <VectorParam id="21971"  name="translation">
              <InterpolatingParam id="21972" interp="linr"  time="-9999999/1" value="0" leadInLength="0/1"  />
              <InterpolatingParam id="21973" interp="linr"  time="-9999999/1" value="0" leadInLength="0/1"  />
              <InterpolatingParam id="21974" interp="linr"  time="-9999999/1" value="0" leadInLength="0/1"  />
             </VectorParam>
             <VectorParam id="21975"  name="rotation">
              <InterpolatingParam id="21976" interp="linr"  time="-9999999/1" value="0" leadInLength="0/1"  />
              <InterpolatingParam id="21977" interp="linr"  time="-9999999/1" value="0" leadInLength="0/1"  />
              <InterpolatingParam id="21978" interp="linr"  time="-9999999/1" value="0" leadInLength="0/1"  />
             </VectorParam>
             <VectorParam id="21979"  name="shear">
              <InterpolatingParam id="21980" interp="linr"  time="-9999999/1" value="0" leadInLength="0/1"  />
              <InterpolatingParam id="21981" interp="linr"  time="-9999999/1" value="0" leadInLength="0/1"  />
              <InterpolatingParam id="21982" interp="linr"  time="-9999999/1" value="0" leadInLength="0/1"  />
             </VectorParam>
             <VectorParam id="21983"  name="scale">
              <InterpolatingParam id="21984" interp="linr"  time="-9999999/1" value="1" leadInLength="0/1"  />
              <InterpolatingParam id="21985" interp="linr"  time="-9999999/1" value="1" leadInLength="0/1"  />
              <InterpolatingParam id="21986" interp="linr"  time="-9999999/1" value="1" leadInLength="0/1"  />
             </VectorParam>
             <VectorParam id="21987"  name="anchor">
              <InterpolatingParam id="21988" interp="linr"  time="0/1" value="0" leadInLength="0/1"  />
              <InterpolatingParam id="21989" interp="linr"  time="0/1" value="0" leadInLength="0/1"  />
              <InterpolatingParam id="21990" interp="linr"  time="0/1" value="0" leadInLength="0/1"  />
             </VectorParam>
            </Transformer>
            <Parameters>
             <VectorParam id="21991"  name="sourceCrop">
              <InterpolatingParam id="21992" interp="linr"  time="0/1" value="0" leadInLength="0/1"  />
              <InterpolatingParam id="21993" interp="linr"  time="0/1" value="0" leadInLength="0/1"  />
              <InterpolatingParam id="21994" interp="linr"  time="0/1" value="0" leadInLength="0/1"  />
              <InterpolatingParam id="21995" interp="linr"  time="0/1" value="0" leadInLength="0/1"  />
             </VectorParam>
             <VectorParam id="21996"  name="geometryCrop">
              <InterpolatingParam id="21997" interp="linr"  time="-9999999/1" value="0" leadInLength="0/1"  />
              <InterpolatingParam id="21998" interp="linr"  time="-9999999/1" value="0" leadInLength="0/1"  />
              <InterpolatingParam id="21999" interp="linr"  time="-9999999/1" value="0" leadInLength="0/1"  />
              <InterpolatingParam id="22000" interp="linr"  time="-9999999/1" value="0" leadInLength="0/1"  />
             </VectorParam>
             <InterpolatingParam id="22001" interp="linr"  time="-9999999/1" value="1" leadInLength="0/1"  name="opacity"/>
            </Parameters>
            <Attributes>
             <Attribute id="22002" value="" name="ident"/>
            </Attributes>
            <MetaData>
             <entry key="WinSubProjectDisplayName" val=""/>
            </MetaData>
            <ExtraData>
             <Entry key="ZoomPanBin">
              <ZoomPanBin id="22003"  >
               <ZoomPanKeyframes>
                <ZoomPanKeyframe id="22004" timeRangeEnd="-9999999/1" timeRangeDuration="0/1" interpolaterName=""  />
               </ZoomPanKeyframes>
              </ZoomPanBin>
             </Entry>
            </ExtraData>
           </IMFile>
           <VMFile id="22005" start="6082" duration="86" scalar="1/1" mediaStart="9292/1" mediaDuration="86/1" trackNumber="0" src="4" >
            <Transformer>
             <VectorParam id="22006"  name="translation">
              <InterpolatingParam id="22007" interp="linr"  time="-9999999/1" value="0" leadInLength="0/1"  />
              <InterpolatingParam id="22008" interp="linr"  time="-9999999/1" value="0" leadInLength="0/1"  />
              <InterpolatingParam id="22009" interp="linr"  time="-9999999/1" value="0" leadInLength="0/1"  />
             </VectorParam>
             <VectorParam id="22010"  name="rotation">
              <InterpolatingParam id="22011" interp="linr"  time="-9999999/1" value="0" leadInLength="0/1"  />
              <InterpolatingParam id="22012" interp="linr"  time="-9999999/1" value="0" leadInLength="0/1"  />
              <InterpolatingParam id="22013" interp="linr"  time="-9999999/1" value="0" leadInLength="0/1"  />
             </VectorParam>
             <VectorParam id="22014"  name="shear">
              <InterpolatingParam id="22015" interp="linr"  time="-9999999/1" value="0" leadInLength="0/1"  />
              <InterpolatingParam id="22016" interp="linr"  time="-9999999/1" value="0" leadInLength="0/1"  />
              <InterpolatingParam id="22017" interp="linr"  time="-9999999/1" value="0" leadInLength="0/1"  />
             </VectorParam>
             <VectorParam id="22018"  name="scale">
              <InterpolatingParam id="22019" interp="linr"  time="-9999999/1" value="1" leadInLength="0/1"  />
              <InterpolatingParam id="22020" interp="linr"  time="-9999999/1" value="1" leadInLength="0/1"  />
              <InterpolatingParam id="22021" interp="linr"  time="-9999999/1" value="1" leadInLength="0/1"  />
             </VectorParam>
             <VectorParam id="22022"  name="anchor">
              <InterpolatingParam id="22023" interp="linr"  time="0/1" value="0" leadInLength="0/1"  />
              <InterpolatingParam id="22024" interp="linr"  time="0/1" value="0" leadInLength="0/1"  />
              <InterpolatingParam id="22025" interp="linr"  time="0/1" value="0" leadInLength="0/1"  />
             </VectorParam>
            </Transformer>
            <Parameters>
             <VectorParam id="22026"  name="sourceCrop">
              <InterpolatingParam id="22027" interp="linr"  time="0/1" value="0" leadInLength="0/1"  />
              <InterpolatingParam id="22028" interp="linr"  time="0/1" value="0" leadInLength="0/1"  />
              <InterpolatingParam id="22029" interp="linr"  time="0/1" value="0" leadInLength="0/1"  />
              <InterpolatingParam id="22030" interp="linr"  time="0/1" value="0" leadInLength="0/1"  />
             </VectorParam>
             <VectorParam id="22031"  name="geometryCrop">
              <InterpolatingParam id="22032" interp="linr"  time="-9999999/1" value="0" leadInLength="0/1"  />
              <InterpolatingParam id="22033" interp="linr"  time="-9999999/1" value="0" leadInLength="0/1"  />
              <InterpolatingParam id="22034" interp="linr"  time="-9999999/1" value="0" leadInLength="0/1"  />
              <InterpolatingParam id="22035" interp="linr"  time="-9999999/1" value="0" leadInLength="0/1"  />
             </VectorParam>
             <InterpolatingParam id="22036" interp="linr"  time="-9999999/1" value="1" leadInLength="0/1"  name="opacity"/>
            </Parameters>
            <Attributes>
             <Attribute id="22037" value="" name="ident"/>
            </Attributes>
            <MetaData>
             <entry key="WinSubProjectDisplayName" val=""/>
            </MetaData>
            <ExtraData>
             <Entry key="ZoomPanBin">
              <ZoomPanBin id="22038"  >
               <ZoomPanKeyframes>
                <ZoomPanKeyframe id="22039" timeRangeEnd="-9999999/1" timeRangeDuration="0/1" interpolaterName=""  />
               </ZoomPanKeyframes>
              </ZoomPanBin>
             </Entry>
            </ExtraData>
           </VMFile>
           <VMFile id="22040" start="6168" duration="555" scalar="1/1" mediaStart="9516/1" mediaDuration="555/1" trackNumber="0" src="4" >
            <Transformer>
             <VectorParam id="22041"  name="translation">
              <InterpolatingParam id="22042" interp="linr"  time="-9999999/1" value="0" leadInLength="0/1"  />
              <InterpolatingParam id="22043" interp="linr"  time="-9999999/1" value="0" leadInLength="0/1"  />
              <InterpolatingParam id="22044" interp="linr"  time="-9999999/1" value="0" leadInLength="0/1"  />
             </VectorParam>
             <VectorParam id="22045"  name="rotation">
              <InterpolatingParam id="22046" interp="linr"  time="-9999999/1" value="0" leadInLength="0/1"  />
              <InterpolatingParam id="22047" interp="linr"  time="-9999999/1" value="0" leadInLength="0/1"  />
              <InterpolatingParam id="22048" interp="linr"  time="-9999999/1" value="0" leadInLength="0/1"  />
             </VectorParam>
             <VectorParam id="22049"  name="shear">
              <InterpolatingParam id="22050" interp="linr"  time="-9999999/1" value="0" leadInLength="0/1"  />
              <InterpolatingParam id="22051" interp="linr"  time="-9999999/1" value="0" leadInLength="0/1"  />
              <InterpolatingParam id="22052" interp="linr"  time="-9999999/1" value="0" leadInLength="0/1"  />
             </VectorParam>
             <VectorParam id="22053"  name="scale">
              <InterpolatingParam id="22054" interp="linr"  time="-9999999/1" value="1" leadInLength="0/1"  />
              <InterpolatingParam id="22055" interp="linr"  time="-9999999/1" value="1" leadInLength="0/1"  />
              <InterpolatingParam id="22056" interp="linr"  time="-9999999/1" value="1" leadInLength="0/1"  />
             </VectorParam>
             <VectorParam id="22057"  name="anchor">
              <InterpolatingParam id="22058" interp="linr"  time="0/1" value="0" leadInLength="0/1"  />
              <InterpolatingParam id="22059" interp="linr"  time="0/1" value="0" leadInLength="0/1"  />
              <InterpolatingParam id="22060" interp="linr"  time="0/1" value="0" leadInLength="0/1"  />
             </VectorParam>
            </Transformer>
            <Parameters>
             <VectorParam id="22061"  name="sourceCrop">
              <InterpolatingParam id="22062" interp="linr"  time="0/1" value="0" leadInLength="0/1"  />
              <InterpolatingParam id="22063" interp="linr"  time="0/1" value="0" leadInLength="0/1"  />
              <InterpolatingParam id="22064" interp="linr"  time="0/1" value="0" leadInLength="0/1"  />
              <InterpolatingParam id="22065" interp="linr"  time="0/1" value="0" leadInLength="0/1"  />
             </VectorParam>
             <VectorParam id="22066"  name="geometryCrop">
              <InterpolatingParam id="22067" interp="linr"  time="-9999999/1" value="0" leadInLength="0/1"  />
              <InterpolatingParam id="22068" interp="linr"  time="-9999999/1" value="0" leadInLength="0/1"  />
              <InterpolatingParam id="22069" interp="linr"  time="-9999999/1" value="0" leadInLength="0/1"  />
              <InterpolatingParam id="22070" interp="linr"  time="-9999999/1" value="0" leadInLength="0/1"  />
             </VectorParam>
             <InterpolatingParam id="22071" interp="linr"  time="-9999999/1" value="1" leadInLength="0/1"  name="opacity"/>
            </Parameters>
            <Attributes>
             <Attribute id="22072" value="" name="ident"/>
            </Attributes>
            <MetaData>
             <entry key="WinSubProjectDisplayName" val=""/>
            </MetaData>
            <ExtraData>
             <Entry key="ZoomPanBin">
              <ZoomPanBin id="22073"  >
               <ZoomPanKeyframes>
                <ZoomPanKeyframe id="22074" timeRangeEnd="-9999999/1" timeRangeDuration="0/1" interpolaterName=""  />
               </ZoomPanKeyframes>
              </ZoomPanBin>
             </Entry>
            </ExtraData>
           </VMFile>
           <VMFile id="22075" start="6723" duration="460" scalar="1/1" mediaStart="11597/1" mediaDuration="460/1" trackNumber="0" src="4" >
            <Transformer>
             <VectorParam id="22076"  name="translation">
              <InterpolatingParam id="22077" interp="linr"  time="-9999999/1" value="0" leadInLength="0/1"  />
              <InterpolatingParam id="22078" interp="linr"  time="-9999999/1" value="0" leadInLength="0/1"  />
              <InterpolatingParam id="22079" interp="linr"  time="-9999999/1" value="0" leadInLength="0/1"  />
             </VectorParam>
             <VectorParam id="22080"  name="rotation">
              <InterpolatingParam id="22081" interp="linr"  time="-9999999/1" value="0" leadInLength="0/1"  />
              <InterpolatingParam id="22082" interp="linr"  time="-9999999/1" value="0" leadInLength="0/1"  />
              <InterpolatingParam id="22083" interp="linr"  time="-9999999/1" value="0" leadInLength="0/1"  />
             </VectorParam>
             <VectorParam id="22084"  name="shear">
              <InterpolatingParam id="22085" interp="linr"  time="-9999999/1" value="0" leadInLength="0/1"  />
              <InterpolatingParam id="22086" interp="linr"  time="-9999999/1" value="0" leadInLength="0/1"  />
              <InterpolatingParam id="22087" interp="linr"  time="-9999999/1" value="0" leadInLength="0/1"  />
             </VectorParam>
             <VectorParam id="22088"  name="scale">
              <InterpolatingParam id="22089" interp="linr"  time="-9999999/1" value="1" leadInLength="0/1"  />
              <InterpolatingParam id="22090" interp="linr"  time="-9999999/1" value="1" leadInLength="0/1"  />
              <InterpolatingParam id="22091" interp="linr"  time="-9999999/1" value="1" leadInLength="0/1"  />
             </VectorParam>
             <VectorParam id="22092"  name="anchor">
              <InterpolatingParam id="22093" interp="linr"  time="0/1" value="0" leadInLength="0/1"  />
              <InterpolatingParam id="22094" interp="linr"  time="0/1" value="0" leadInLength="0/1"  />
              <InterpolatingParam id="22095" interp="linr"  time="0/1" value="0" leadInLength="0/1"  />
             </VectorParam>
            </Transformer>
            <Parameters>
             <VectorParam id="22096"  name="sourceCrop">
              <InterpolatingParam id="22097" interp="linr"  time="0/1" value="0" leadInLength="0/1"  />
              <InterpolatingParam id="22098" interp="linr"  time="0/1" value="0" leadInLength="0/1"  />
              <InterpolatingParam id="22099" interp="linr"  time="0/1" value="0" leadInLength="0/1"  />
              <InterpolatingParam id="22100" interp="linr"  time="0/1" value="0" leadInLength="0/1"  />
             </VectorParam>
             <VectorParam id="22101"  name="geometryCrop">
              <InterpolatingParam id="22102" interp="linr"  time="-9999999/1" value="0" leadInLength="0/1"  />
              <InterpolatingParam id="22103" interp="linr"  time="-9999999/1" value="0" leadInLength="0/1"  />
              <InterpolatingParam id="22104" interp="linr"  time="-9999999/1" value="0" leadInLength="0/1"  />
              <InterpolatingParam id="22105" interp="linr"  time="-9999999/1" value="0" leadInLength="0/1"  />
             </VectorParam>
             <InterpolatingParam id="22106" interp="linr"  time="-9999999/1" value="1" leadInLength="0/1"  name="opacity"/>
            </Parameters>
            <Attributes>
             <Attribute id="22107" value="" name="ident"/>
            </Attributes>
            <MetaData>
             <entry key="WinSubProjectDisplayName" val=""/>
            </MetaData>
            <ExtraData>
             <Entry key="ZoomPanBin">
              <ZoomPanBin id="22108"  >
               <ZoomPanKeyframes>
                <ZoomPanKeyframe id="22109" timeRangeEnd="-9999999/1" timeRangeDuration="0/1" interpolaterName=""  />
               </ZoomPanKeyframes>
              </ZoomPanBin>
             </Entry>
            </ExtraData>
           </VMFile>
           <VMFile id="22110" start="7183" duration="350" scalar="1/1" mediaStart="12237/1" mediaDuration="350/1" trackNumber="0" src="4" >
            <Transformer>
             <VectorParam id="22111"  name="translation">
              <InterpolatingParam id="22112" interp="linr"  time="-9999999/1" value="0" leadInLength="0/1"  />
              <InterpolatingParam id="22113" interp="linr"  time="-9999999/1" value="0" leadInLength="0/1"  />
              <InterpolatingParam id="22114" interp="linr"  time="-9999999/1" value="0" leadInLength="0/1"  />
             </VectorParam>
             <VectorParam id="22115"  name="rotation">
              <InterpolatingParam id="22116" interp="linr"  time="-9999999/1" value="0" leadInLength="0/1"  />
              <InterpolatingParam id="22117" interp="linr"  time="-9999999/1" value="0" leadInLength="0/1"  />
              <InterpolatingParam id="22118" interp="linr"  time="-9999999/1" value="0" leadInLength="0/1"  />
             </VectorParam>
             <VectorParam id="22119"  name="shear">
              <InterpolatingParam id="22120" interp="linr"  time="-9999999/1" value="0" leadInLength="0/1"  />
              <InterpolatingParam id="22121" interp="linr"  time="-9999999/1" value="0" leadInLength="0/1"  />
              <InterpolatingParam id="22122" interp="linr"  time="-9999999/1" value="0" leadInLength="0/1"  />
             </VectorParam>
             <VectorParam id="22123"  name="scale">
              <InterpolatingParam id="22124" interp="linr"  time="-9999999/1" value="1" leadInLength="0/1"  />
              <InterpolatingParam id="22125" interp="linr"  time="-9999999/1" value="1" leadInLength="0/1"  />
              <InterpolatingParam id="22126" interp="linr"  time="-9999999/1" value="1" leadInLength="0/1"  />
             </VectorParam>
             <VectorParam id="22127"  name="anchor">
              <InterpolatingParam id="22128" interp="linr"  time="0/1" value="0" leadInLength="0/1"  />
              <InterpolatingParam id="22129" interp="linr"  time="0/1" value="0" leadInLength="0/1"  />
              <InterpolatingParam id="22130" interp="linr"  time="0/1" value="0" leadInLength="0/1"  />
             </VectorParam>
            </Transformer>
            <Parameters>
             <VectorParam id="22131"  name="sourceCrop">
              <InterpolatingParam id="22132" interp="linr"  time="0/1" value="0" leadInLength="0/1"  />
              <InterpolatingParam id="22133" interp="linr"  time="0/1" value="0" leadInLength="0/1"  />
              <InterpolatingParam id="22134" interp="linr"  time="0/1" value="0" leadInLength="0/1"  />
              <InterpolatingParam id="22135" interp="linr"  time="0/1" value="0" leadInLength="0/1"  />
             </VectorParam>
             <VectorParam id="22136"  name="geometryCrop">
              <InterpolatingParam id="22137" interp="linr"  time="-9999999/1" value="0" leadInLength="0/1"  />
              <InterpolatingParam id="22138" interp="linr"  time="-9999999/1" value="0" leadInLength="0/1"  />
              <InterpolatingParam id="22139" interp="linr"  time="-9999999/1" value="0" leadInLength="0/1"  />
              <InterpolatingParam id="22140" interp="linr"  time="-9999999/1" value="0" leadInLength="0/1"  />
             </VectorParam>
             <InterpolatingParam id="22141" interp="linr"  time="-9999999/1" value="1" leadInLength="0/1"  name="opacity"/>
            </Parameters>
            <Attributes>
             <Attribute id="22142" value="" name="ident"/>
            </Attributes>
            <MetaData>
             <entry key="WinSubProjectDisplayName" val=""/>
            </MetaData>
            <ExtraData>
             <Entry key="ZoomPanBin">
              <ZoomPanBin id="22143"  >
               <ZoomPanKeyframes>
                <ZoomPanKeyframe id="22144" timeRangeEnd="-9999999/1" timeRangeDuration="0/1" interpolaterName=""  />
               </ZoomPanKeyframes>
              </ZoomPanBin>
             </Entry>
            </ExtraData>
           </VMFile>
           <VMFile id="22145" start="7533" duration="109" scalar="1/1" mediaStart="15765/1" mediaDuration="109/1" trackNumber="0" src="4" >
            <Transformer>
             <VectorParam id="22146"  name="translation">
              <InterpolatingParam id="22147" interp="linr"  time="-9999999/1" value="0" leadInLength="0/1"  />
              <InterpolatingParam id="22148" interp="linr"  time="-9999999/1" value="0" leadInLength="0/1"  />
              <InterpolatingParam id="22149" interp="linr"  time="-9999999/1" value="0" leadInLength="0/1"  />
             </VectorParam>
             <VectorParam id="22150"  name="rotation">
              <InterpolatingParam id="22151" interp="linr"  time="-9999999/1" value="0" leadInLength="0/1"  />
              <InterpolatingParam id="22152" interp="linr"  time="-9999999/1" value="0" leadInLength="0/1"  />
              <InterpolatingParam id="22153" interp="linr"  time="-9999999/1" value="0" leadInLength="0/1"  />
             </VectorParam>
             <VectorParam id="22154"  name="shear">
              <InterpolatingParam id="22155" interp="linr"  time="-9999999/1" value="0" leadInLength="0/1"  />
              <InterpolatingParam id="22156" interp="linr"  time="-9999999/1" value="0" leadInLength="0/1"  />
              <InterpolatingParam id="22157" interp="linr"  time="-9999999/1" value="0" leadInLength="0/1"  />
             </VectorParam>
             <VectorParam id="22158"  name="scale">
              <InterpolatingParam id="22159" interp="linr"  time="-9999999/1" value="1" leadInLength="0/1"  />
              <InterpolatingParam id="22160" interp="linr"  time="-9999999/1" value="1" leadInLength="0/1"  />
              <InterpolatingParam id="22161" interp="linr"  time="-9999999/1" value="1" leadInLength="0/1"  />
             </VectorParam>
             <VectorParam id="22162"  name="anchor">
              <InterpolatingParam id="22163" interp="linr"  time="0/1" value="0" leadInLength="0/1"  />
              <InterpolatingParam id="22164" interp="linr"  time="0/1" value="0" leadInLength="0/1"  />
              <InterpolatingParam id="22165" interp="linr"  time="0/1" value="0" leadInLength="0/1"  />
             </VectorParam>
            </Transformer>
            <Parameters>
             <VectorParam id="22166"  name="sourceCrop">
              <InterpolatingParam id="22167" interp="linr"  time="0/1" value="0" leadInLength="0/1"  />
              <InterpolatingParam id="22168" interp="linr"  time="0/1" value="0" leadInLength="0/1"  />
              <InterpolatingParam id="22169" interp="linr"  time="0/1" value="0" leadInLength="0/1"  />
              <InterpolatingParam id="22170" interp="linr"  time="0/1" value="0" leadInLength="0/1"  />
             </VectorParam>
             <VectorParam id="22171"  name="geometryCrop">
              <InterpolatingParam id="22172" interp="linr"  time="-9999999/1" value="0" leadInLength="0/1"  />
              <InterpolatingParam id="22173" interp="linr"  time="-9999999/1" value="0" leadInLength="0/1"  />
              <InterpolatingParam id="22174" interp="linr"  time="-9999999/1" value="0" leadInLength="0/1"  />
              <InterpolatingParam id="22175" interp="linr"  time="-9999999/1" value="0" leadInLength="0/1"  />
             </VectorParam>
             <InterpolatingParam id="22176" interp="linr"  time="-9999999/1" value="1" leadInLength="0/1"  name="opacity"/>
            </Parameters>
            <Attributes>
             <Attribute id="22177" value="" name="ident"/>
            </Attributes>
            <MetaData>
             <entry key="WinSubProjectDisplayName" val=""/>
            </MetaData>
            <ExtraData>
             <Entry key="ZoomPanBin">
              <ZoomPanBin id="22178"  >
               <ZoomPanKeyframes>
                <ZoomPanKeyframe id="22179" timeRangeEnd="-9999999/1" timeRangeDuration="0/1" interpolaterName=""  />
               </ZoomPanKeyframes>
              </ZoomPanBin>
             </Entry>
            </ExtraData>
           </VMFile>
           <IMFile id="22180" start="7642" duration="451" scalar="1/1" mediaStart="15873/1" mediaDuration="1/1" trackNumber="0" src="4" trimStartSum="0/1" >
            <Transformer>
             <VectorParam id="22181"  name="translation">
              <InterpolatingParam id="22182" interp="linr"  time="-9999999/1" value="0" leadInLength="0/1"  />
              <InterpolatingParam id="22183" interp="linr"  time="-9999999/1" value="0" leadInLength="0/1"  />
              <InterpolatingParam id="22184" interp="linr"  time="-9999999/1" value="0" leadInLength="0/1"  />
             </VectorParam>
             <VectorParam id="22185"  name="rotation">
              <InterpolatingParam id="22186" interp="linr"  time="-9999999/1" value="0" leadInLength="0/1"  />
              <InterpolatingParam id="22187" interp="linr"  time="-9999999/1" value="0" leadInLength="0/1"  />
              <InterpolatingParam id="22188" interp="linr"  time="-9999999/1" value="0" leadInLength="0/1"  />
             </VectorParam>
             <VectorParam id="22189"  name="shear">
              <InterpolatingParam id="22190" interp="linr"  time="-9999999/1" value="0" leadInLength="0/1"  />
              <InterpolatingParam id="22191" interp="linr"  time="-9999999/1" value="0" leadInLength="0/1"  />
              <InterpolatingParam id="22192" interp="linr"  time="-9999999/1" value="0" leadInLength="0/1"  />
             </VectorParam>
             <VectorParam id="22193"  name="scale">
              <InterpolatingParam id="22194" interp="linr"  time="-9999999/1" value="1" leadInLength="0/1"  />
              <InterpolatingParam id="22195" interp="linr"  time="-9999999/1" value="1" leadInLength="0/1"  />
              <InterpolatingParam id="22196" interp="linr"  time="-9999999/1" value="1" leadInLength="0/1"  />
             </VectorParam>
             <VectorParam id="22197"  name="anchor">
              <InterpolatingParam id="22198" interp="linr"  time="0/1" value="0" leadInLength="0/1"  />
              <InterpolatingParam id="22199" interp="linr"  time="0/1" value="0" leadInLength="0/1"  />
              <InterpolatingParam id="22200" interp="linr"  time="0/1" value="0" leadInLength="0/1"  />
             </VectorParam>
            </Transformer>
            <Parameters>
             <VectorParam id="22201"  name="sourceCrop">
              <InterpolatingParam id="22202" interp="linr"  time="0/1" value="0" leadInLength="0/1"  />
              <InterpolatingParam id="22203" interp="linr"  time="0/1" value="0" leadInLength="0/1"  />
              <InterpolatingParam id="22204" interp="linr"  time="0/1" value="0" leadInLength="0/1"  />
              <InterpolatingParam id="22205" interp="linr"  time="0/1" value="0" leadInLength="0/1"  />
             </VectorParam>
             <VectorParam id="22206"  name="geometryCrop">
              <InterpolatingParam id="22207" interp="linr"  time="-9999999/1" value="0" leadInLength="0/1"  />
              <InterpolatingParam id="22208" interp="linr"  time="-9999999/1" value="0" leadInLength="0/1"  />
              <InterpolatingParam id="22209" interp="linr"  time="-9999999/1" value="0" leadInLength="0/1"  />
              <InterpolatingParam id="22210" interp="linr"  time="-9999999/1" value="0" leadInLength="0/1"  />
             </VectorParam>
             <InterpolatingParam id="22211" interp="linr"  time="-9999999/1" value="1" leadInLength="0/1"  name="opacity"/>
            </Parameters>
            <Attributes>
             <Attribute id="22212" value="" name="ident"/>
            </Attributes>
            <MetaData>
             <entry key="WinSubProjectDisplayName" val=""/>
            </MetaData>
            <ExtraData>
             <Entry key="ZoomPanBin">
              <ZoomPanBin id="22213"  >
               <ZoomPanKeyframes>
                <ZoomPanKeyframe id="22214" timeRangeEnd="-9999999/1" timeRangeDuration="0/1" interpolaterName=""  />
               </ZoomPanKeyframes>
              </ZoomPanBin>
             </Entry>
            </ExtraData>
           </IMFile>
           <VMFile id="22215" start="8093" duration="21" scalar="1/1" mediaStart="15872/1" mediaDuration="21/1" trackNumber="0" src="4" >
            <Transformer>
             <VectorParam id="22216"  name="translation">
              <InterpolatingParam id="22217" interp="linr"  time="-9999999/1" value="0" leadInLength="0/1"  />
              <InterpolatingParam id="22218" interp="linr"  time="-9999999/1" value="0" leadInLength="0/1"  />
              <InterpolatingParam id="22219" interp="linr"  time="-9999999/1" value="0" leadInLength="0/1"  />
             </VectorParam>
             <VectorParam id="22220"  name="rotation">
              <InterpolatingParam id="22221" interp="linr"  time="-9999999/1" value="0" leadInLength="0/1"  />
              <InterpolatingParam id="22222" interp="linr"  time="-9999999/1" value="0" leadInLength="0/1"  />
              <InterpolatingParam id="22223" interp="linr"  time="-9999999/1" value="0" leadInLength="0/1"  />
             </VectorParam>
             <VectorParam id="22224"  name="shear">
              <InterpolatingParam id="22225" interp="linr"  time="-9999999/1" value="0" leadInLength="0/1"  />
              <InterpolatingParam id="22226" interp="linr"  time="-9999999/1" value="0" leadInLength="0/1"  />
              <InterpolatingParam id="22227" interp="linr"  time="-9999999/1" value="0" leadInLength="0/1"  />
             </VectorParam>
             <VectorParam id="22228"  name="scale">
              <InterpolatingParam id="22229" interp="linr"  time="-9999999/1" value="1" leadInLength="0/1"  />
              <InterpolatingParam id="22230" interp="linr"  time="-9999999/1" value="1" leadInLength="0/1"  />
              <InterpolatingParam id="22231" interp="linr"  time="-9999999/1" value="1" leadInLength="0/1"  />
             </VectorParam>
             <VectorParam id="22232"  name="anchor">
              <InterpolatingParam id="22233" interp="linr"  time="0/1" value="0" leadInLength="0/1"  />
              <InterpolatingParam id="22234" interp="linr"  time="0/1" value="0" leadInLength="0/1"  />
              <InterpolatingParam id="22235" interp="linr"  time="0/1" value="0" leadInLength="0/1"  />
             </VectorParam>
            </Transformer>
            <Parameters>
             <VectorParam id="22236"  name="sourceCrop">
              <InterpolatingParam id="22237" interp="linr"  time="0/1" value="0" leadInLength="0/1"  />
              <InterpolatingParam id="22238" interp="linr"  time="0/1" value="0" leadInLength="0/1"  />
              <InterpolatingParam id="22239" interp="linr"  time="0/1" value="0" leadInLength="0/1"  />
              <InterpolatingParam id="22240" interp="linr"  time="0/1" value="0" leadInLength="0/1"  />
             </VectorParam>
             <VectorParam id="22241"  name="geometryCrop">
              <InterpolatingParam id="22242" interp="linr"  time="-9999999/1" value="0" leadInLength="0/1"  />
              <InterpolatingParam id="22243" interp="linr"  time="-9999999/1" value="0" leadInLength="0/1"  />
              <InterpolatingParam id="22244" interp="linr"  time="-9999999/1" value="0" leadInLength="0/1"  />
              <InterpolatingParam id="22245" interp="linr"  time="-9999999/1" value="0" leadInLength="0/1"  />
             </VectorParam>
             <InterpolatingParam id="22246" interp="linr"  time="-9999999/1" value="1" leadInLength="0/1"  name="opacity"/>
            </Parameters>
            <Attributes>
             <Attribute id="22247" value="" name="ident"/>
            </Attributes>
            <MetaData>
             <entry key="WinSubProjectDisplayName" val=""/>
            </MetaData>
            <ExtraData>
             <Entry key="ZoomPanBin">
              <ZoomPanBin id="22248"  >
               <ZoomPanKeyframes>
                <ZoomPanKeyframe id="22249" timeRangeEnd="-9999999/1" timeRangeDuration="0/1" interpolaterName=""  />
               </ZoomPanKeyframes>
              </ZoomPanBin>
             </Entry>
            </ExtraData>
           </VMFile>
           <VMFile id="22250" start="8114" duration="615" scalar="1/1" mediaStart="15918/1" mediaDuration="615/1" trackNumber="0" src="4" >
            <Transformer>
             <VectorParam id="22251"  name="translation">
              <InterpolatingParam id="22252" interp="linr"  time="-9999999/1" value="0" leadInLength="0/1"  />
              <InterpolatingParam id="22253" interp="linr"  time="-9999999/1" value="0" leadInLength="0/1"  />
              <InterpolatingParam id="22254" interp="linr"  time="-9999999/1" value="0" leadInLength="0/1"  />
             </VectorParam>
             <VectorParam id="22255"  name="rotation">
              <InterpolatingParam id="22256" interp="linr"  time="-9999999/1" value="0" leadInLength="0/1"  />
              <InterpolatingParam id="22257" interp="linr"  time="-9999999/1" value="0" leadInLength="0/1"  />
              <InterpolatingParam id="22258" interp="linr"  time="-9999999/1" value="0" leadInLength="0/1"  />
             </VectorParam>
             <VectorParam id="22259"  name="shear">
              <InterpolatingParam id="22260" interp="linr"  time="-9999999/1" value="0" leadInLength="0/1"  />
              <InterpolatingParam id="22261" interp="linr"  time="-9999999/1" value="0" leadInLength="0/1"  />
              <InterpolatingParam id="22262" interp="linr"  time="-9999999/1" value="0" leadInLength="0/1"  />
             </VectorParam>
             <VectorParam id="22263"  name="scale">
              <InterpolatingParam id="22264" interp="linr"  time="-9999999/1" value="1" leadInLength="0/1"  />
              <InterpolatingParam id="22265" interp="linr"  time="-9999999/1" value="1" leadInLength="0/1"  />
              <InterpolatingParam id="22266" interp="linr"  time="-9999999/1" value="1" leadInLength="0/1"  />
             </VectorParam>
             <VectorParam id="22267"  name="anchor">
              <InterpolatingParam id="22268" interp="linr"  time="0/1" value="0" leadInLength="0/1"  />
              <InterpolatingParam id="22269" interp="linr"  time="0/1" value="0" leadInLength="0/1"  />
              <InterpolatingParam id="22270" interp="linr"  time="0/1" value="0" leadInLength="0/1"  />
             </VectorParam>
            </Transformer>
            <Parameters>
             <VectorParam id="22271"  name="sourceCrop">
              <InterpolatingParam id="22272" interp="linr"  time="0/1" value="0" leadInLength="0/1"  />
              <InterpolatingParam id="22273" interp="linr"  time="0/1" value="0" leadInLength="0/1"  />
              <InterpolatingParam id="22274" interp="linr"  time="0/1" value="0" leadInLength="0/1"  />
              <InterpolatingParam id="22275" interp="linr"  time="0/1" value="0" leadInLength="0/1"  />
             </VectorParam>
             <VectorParam id="22276"  name="geometryCrop">
              <InterpolatingParam id="22277" interp="linr"  time="-9999999/1" value="0" leadInLength="0/1"  />
              <InterpolatingParam id="22278" interp="linr"  time="-9999999/1" value="0" leadInLength="0/1"  />
              <InterpolatingParam id="22279" interp="linr"  time="-9999999/1" value="0" leadInLength="0/1"  />
              <InterpolatingParam id="22280" interp="linr"  time="-9999999/1" value="0" leadInLength="0/1"  />
             </VectorParam>
             <InterpolatingParam id="22281" interp="linr"  time="-9999999/1" value="1" leadInLength="0/1"  name="opacity"/>
            </Parameters>
            <Attributes>
             <Attribute id="22282" value="" name="ident"/>
            </Attributes>
            <MetaData>
             <entry key="WinSubProjectDisplayName" val=""/>
            </MetaData>
            <ExtraData>
             <Entry key="ZoomPanBin">
              <ZoomPanBin id="22283"  >
               <ZoomPanKeyframes>
                <ZoomPanKeyframe id="22284" timeRangeEnd="-9999999/1" timeRangeDuration="0/1" interpolaterName=""  />
               </ZoomPanKeyframes>
              </ZoomPanBin>
             </Entry>
            </ExtraData>
           </VMFile>
           <VMFile id="22285" start="8729" duration="323" scalar="1/1" mediaStart="16694/1" mediaDuration="323/1" trackNumber="0" src="4" >
            <Transformer>
             <VectorParam id="22286"  name="translation">
              <InterpolatingParam id="22287" interp="linr"  time="-9999999/1" value="0" leadInLength="0/1"  />
              <InterpolatingParam id="22288" interp="linr"  time="-9999999/1" value="0" leadInLength="0/1"  />
              <InterpolatingParam id="22289" interp="linr"  time="-9999999/1" value="0" leadInLength="0/1"  />
             </VectorParam>
             <VectorParam id="22290"  name="rotation">
              <InterpolatingParam id="22291" interp="linr"  time="-9999999/1" value="0" leadInLength="0/1"  />
              <InterpolatingParam id="22292" interp="linr"  time="-9999999/1" value="0" leadInLength="0/1"  />
              <InterpolatingParam id="22293" interp="linr"  time="-9999999/1" value="0" leadInLength="0/1"  />
             </VectorParam>
             <VectorParam id="22294"  name="shear">
              <InterpolatingParam id="22295" interp="linr"  time="-9999999/1" value="0" leadInLength="0/1"  />
              <InterpolatingParam id="22296" interp="linr"  time="-9999999/1" value="0" leadInLength="0/1"  />
              <InterpolatingParam id="22297" interp="linr"  time="-9999999/1" value="0" leadInLength="0/1"  />
             </VectorParam>
             <VectorParam id="22298"  name="scale">
              <InterpolatingParam id="22299" interp="linr"  time="-9999999/1" value="1" leadInLength="0/1"  />
              <InterpolatingParam id="22300" interp="linr"  time="-9999999/1" value="1" leadInLength="0/1"  />
              <InterpolatingParam id="22301" interp="linr"  time="-9999999/1" value="1" leadInLength="0/1"  />
             </VectorParam>
             <VectorParam id="22302"  name="anchor">
              <InterpolatingParam id="22303" interp="linr"  time="0/1" value="0" leadInLength="0/1"  />
              <InterpolatingParam id="22304" interp="linr"  time="0/1" value="0" leadInLength="0/1"  />
              <InterpolatingParam id="22305" interp="linr"  time="0/1" value="0" leadInLength="0/1"  />
             </VectorParam>
            </Transformer>
            <Parameters>
             <VectorParam id="22306"  name="sourceCrop">
              <InterpolatingParam id="22307" interp="linr"  time="0/1" value="0" leadInLength="0/1"  />
              <InterpolatingParam id="22308" interp="linr"  time="0/1" value="0" leadInLength="0/1"  />
              <InterpolatingParam id="22309" interp="linr"  time="0/1" value="0" leadInLength="0/1"  />
              <InterpolatingParam id="22310" interp="linr"  time="0/1" value="0" leadInLength="0/1"  />
             </VectorParam>
             <VectorParam id="22311"  name="geometryCrop">
              <InterpolatingParam id="22312" interp="linr"  time="-9999999/1" value="0" leadInLength="0/1"  />
              <InterpolatingParam id="22313" interp="linr"  time="-9999999/1" value="0" leadInLength="0/1"  />
              <InterpolatingParam id="22314" interp="linr"  time="-9999999/1" value="0" leadInLength="0/1"  />
              <InterpolatingParam id="22315" interp="linr"  time="-9999999/1" value="0" leadInLength="0/1"  />
             </VectorParam>
             <InterpolatingParam id="22316" interp="linr"  time="-9999999/1" value="1" leadInLength="0/1"  name="opacity"/>
            </Parameters>
            <Attributes>
             <Attribute id="22317" value="" name="ident"/>
            </Attributes>
            <MetaData>
             <entry key="WinSubProjectDisplayName" val=""/>
            </MetaData>
            <ExtraData>
             <Entry key="ZoomPanBin">
              <ZoomPanBin id="22318"  >
               <ZoomPanKeyframes>
                <ZoomPanKeyframe id="22319" timeRangeEnd="-9999999/1" timeRangeDuration="0/1" interpolaterName=""  />
               </ZoomPanKeyframes>
              </ZoomPanBin>
             </Entry>
            </ExtraData>
           </VMFile>
           <VMFile id="22320" start="9052" duration="223" scalar="1/1" mediaStart="17164/1" mediaDuration="223/1" trackNumber="0" src="4" >
            <Transformer>
             <VectorParam id="22321"  name="translation">
              <InterpolatingParam id="22322" interp="linr"  time="-9999999/1" value="0" leadInLength="0/1"  />
              <InterpolatingParam id="22323" interp="linr"  time="-9999999/1" value="0" leadInLength="0/1"  />
              <InterpolatingParam id="22324" interp="linr"  time="-9999999/1" value="0" leadInLength="0/1"  />
             </VectorParam>
             <VectorParam id="22325"  name="rotation">
              <InterpolatingParam id="22326" interp="linr"  time="-9999999/1" value="0" leadInLength="0/1"  />
              <InterpolatingParam id="22327" interp="linr"  time="-9999999/1" value="0" leadInLength="0/1"  />
              <InterpolatingParam id="22328" interp="linr"  time="-9999999/1" value="0" leadInLength="0/1"  />
             </VectorParam>
             <VectorParam id="22329"  name="shear">
              <InterpolatingParam id="22330" interp="linr"  time="-9999999/1" value="0" leadInLength="0/1"  />
              <InterpolatingParam id="22331" interp="linr"  time="-9999999/1" value="0" leadInLength="0/1"  />
              <InterpolatingParam id="22332" interp="linr"  time="-9999999/1" value="0" leadInLength="0/1"  />
             </VectorParam>
             <VectorParam id="22333"  name="scale">
              <InterpolatingParam id="22334" interp="linr"  time="-9999999/1" value="1" leadInLength="0/1"  />
              <InterpolatingParam id="22335" interp="linr"  time="-9999999/1" value="1" leadInLength="0/1"  />
              <InterpolatingParam id="22336" interp="linr"  time="-9999999/1" value="1" leadInLength="0/1"  />
             </VectorParam>
             <VectorParam id="22337"  name="anchor">
              <InterpolatingParam id="22338" interp="linr"  time="0/1" value="0" leadInLength="0/1"  />
              <InterpolatingParam id="22339" interp="linr"  time="0/1" value="0" leadInLength="0/1"  />
              <InterpolatingParam id="22340" interp="linr"  time="0/1" value="0" leadInLength="0/1"  />
             </VectorParam>
            </Transformer>
            <Parameters>
             <VectorParam id="22341"  name="sourceCrop">
              <InterpolatingParam id="22342" interp="linr"  time="0/1" value="0" leadInLength="0/1"  />
              <InterpolatingParam id="22343" interp="linr"  time="0/1" value="0" leadInLength="0/1"  />
              <InterpolatingParam id="22344" interp="linr"  time="0/1" value="0" leadInLength="0/1"  />
              <InterpolatingParam id="22345" interp="linr"  time="0/1" value="0" leadInLength="0/1"  />
             </VectorParam>
             <VectorParam id="22346"  name="geometryCrop">
              <InterpolatingParam id="22347" interp="linr"  time="-9999999/1" value="0" leadInLength="0/1"  />
              <InterpolatingParam id="22348" interp="linr"  time="-9999999/1" value="0" leadInLength="0/1"  />
              <InterpolatingParam id="22349" interp="linr"  time="-9999999/1" value="0" leadInLength="0/1"  />
              <InterpolatingParam id="22350" interp="linr"  time="-9999999/1" value="0" leadInLength="0/1"  />
             </VectorParam>
             <InterpolatingParam id="22351" interp="linr"  time="-9999999/1" value="1" leadInLength="0/1"  name="opacity"/>
            </Parameters>
            <Attributes>
             <Attribute id="22352" value="" name="ident"/>
            </Attributes>
            <MetaData>
             <entry key="WinSubProjectDisplayName" val=""/>
            </MetaData>
            <ExtraData>
             <Entry key="ZoomPanBin">
              <ZoomPanBin id="22353"  >
               <ZoomPanKeyframes>
                <ZoomPanKeyframe id="22354" timeRangeEnd="-9999999/1" timeRangeDuration="0/1" interpolaterName=""  />
               </ZoomPanKeyframes>
              </ZoomPanBin>
             </Entry>
            </ExtraData>
           </VMFile>
           <VMFile id="22355" start="9275" duration="323" scalar="1/1" mediaStart="26742/1" mediaDuration="323/1" trackNumber="0" src="4" >
            <Transformer>
             <VectorParam id="22356"  name="translation">
              <InterpolatingParam id="22357" interp="linr"  time="-9999999/1" value="0" leadInLength="0/1"  />
              <InterpolatingParam id="22358" interp="linr"  time="-9999999/1" value="0" leadInLength="0/1"  />
              <InterpolatingParam id="22359" interp="linr"  time="-9999999/1" value="0" leadInLength="0/1"  />
             </VectorParam>
             <VectorParam id="22360"  name="rotation">
              <InterpolatingParam id="22361" interp="linr"  time="-9999999/1" value="0" leadInLength="0/1"  />
              <InterpolatingParam id="22362" interp="linr"  time="-9999999/1" value="0" leadInLength="0/1"  />
              <InterpolatingParam id="22363" interp="linr"  time="-9999999/1" value="0" leadInLength="0/1"  />
             </VectorParam>
             <VectorParam id="22364"  name="shear">
              <InterpolatingParam id="22365" interp="linr"  time="-9999999/1" value="0" leadInLength="0/1"  />
              <InterpolatingParam id="22366" interp="linr"  time="-9999999/1" value="0" leadInLength="0/1"  />
              <InterpolatingParam id="22367" interp="linr"  time="-9999999/1" value="0" leadInLength="0/1"  />
             </VectorParam>
             <VectorParam id="22368"  name="scale">
              <InterpolatingParam id="22369" interp="linr"  time="-9999999/1" value="1" leadInLength="0/1"  />
              <InterpolatingParam id="22370" interp="linr"  time="-9999999/1" value="1" leadInLength="0/1"  />
              <InterpolatingParam id="22371" interp="linr"  time="-9999999/1" value="1" leadInLength="0/1"  />
             </VectorParam>
             <VectorParam id="22372"  name="anchor">
              <InterpolatingParam id="22373" interp="linr"  time="0/1" value="0" leadInLength="0/1"  />
              <InterpolatingParam id="22374" interp="linr"  time="0/1" value="0" leadInLength="0/1"  />
              <InterpolatingParam id="22375" interp="linr"  time="0/1" value="0" leadInLength="0/1"  />
             </VectorParam>
            </Transformer>
            <Parameters>
             <VectorParam id="22376"  name="sourceCrop">
              <InterpolatingParam id="22377" interp="linr"  time="0/1" value="0" leadInLength="0/1"  />
              <InterpolatingParam id="22378" interp="linr"  time="0/1" value="0" leadInLength="0/1"  />
              <InterpolatingParam id="22379" interp="linr"  time="0/1" value="0" leadInLength="0/1"  />
              <InterpolatingParam id="22380" interp="linr"  time="0/1" value="0" leadInLength="0/1"  />
             </VectorParam>
             <VectorParam id="22381"  name="geometryCrop">
              <InterpolatingParam id="22382" interp="linr"  time="-9999999/1" value="0" leadInLength="0/1"  />
              <InterpolatingParam id="22383" interp="linr"  time="-9999999/1" value="0" leadInLength="0/1"  />
              <InterpolatingParam id="22384" interp="linr"  time="-9999999/1" value="0" leadInLength="0/1"  />
              <InterpolatingParam id="22385" interp="linr"  time="-9999999/1" value="0" leadInLength="0/1"  />
             </VectorParam>
             <InterpolatingParam id="22386" interp="linr"  time="-9999999/1" value="1" leadInLength="0/1"  name="opacity"/>
            </Parameters>
            <Attributes>
             <Attribute id="22387" value="" name="ident"/>
            </Attributes>
            <MetaData>
             <entry key="WinSubProjectDisplayName" val=""/>
            </MetaData>
            <ExtraData>
             <Entry key="ZoomPanBin">
              <ZoomPanBin id="22388"  >
               <ZoomPanKeyframes>
                <ZoomPanKeyframe id="22389" timeRangeEnd="-9999999/1" timeRangeDuration="0/1" interpolaterName=""  />
               </ZoomPanKeyframes>
              </ZoomPanBin>
             </Entry>
            </ExtraData>
           </VMFile>
           <VMFile id="22390" start="9598" duration="259" scalar="1/1" mediaStart="27825/1" mediaDuration="259/1" trackNumber="0" src="4" >
            <Transformer>
             <VectorParam id="22391"  name="translation">
              <InterpolatingParam id="22392" interp="linr"  time="-9999999/1" value="0" leadInLength="0/1"  />
              <InterpolatingParam id="22393" interp="linr"  time="-9999999/1" value="0" leadInLength="0/1"  />
              <InterpolatingParam id="22394" interp="linr"  time="-9999999/1" value="0" leadInLength="0/1"  />
             </VectorParam>
             <VectorParam id="22395"  name="rotation">
              <InterpolatingParam id="22396" interp="linr"  time="-9999999/1" value="0" leadInLength="0/1"  />
              <InterpolatingParam id="22397" interp="linr"  time="-9999999/1" value="0" leadInLength="0/1"  />
              <InterpolatingParam id="22398" interp="linr"  time="-9999999/1" value="0" leadInLength="0/1"  />
             </VectorParam>
             <VectorParam id="22399"  name="shear">
              <InterpolatingParam id="22400" interp="linr"  time="-9999999/1" value="0" leadInLength="0/1"  />
              <InterpolatingParam id="22401" interp="linr"  time="-9999999/1" value="0" leadInLength="0/1"  />
              <InterpolatingParam id="22402" interp="linr"  time="-9999999/1" value="0" leadInLength="0/1"  />
             </VectorParam>
             <VectorParam id="22403"  name="scale">
              <InterpolatingParam id="22404" interp="linr"  time="-9999999/1" value="1" leadInLength="0/1"  />
              <InterpolatingParam id="22405" interp="linr"  time="-9999999/1" value="1" leadInLength="0/1"  />
              <InterpolatingParam id="22406" interp="linr"  time="-9999999/1" value="1" leadInLength="0/1"  />
             </VectorParam>
             <VectorParam id="22407"  name="anchor">
              <InterpolatingParam id="22408" interp="linr"  time="0/1" value="0" leadInLength="0/1"  />
              <InterpolatingParam id="22409" interp="linr"  time="0/1" value="0" leadInLength="0/1"  />
              <InterpolatingParam id="22410" interp="linr"  time="0/1" value="0" leadInLength="0/1"  />
             </VectorParam>
            </Transformer>
            <Parameters>
             <VectorParam id="22411"  name="sourceCrop">
              <InterpolatingParam id="22412" interp="linr"  time="0/1" value="0" leadInLength="0/1"  />
              <InterpolatingParam id="22413" interp="linr"  time="0/1" value="0" leadInLength="0/1"  />
              <InterpolatingParam id="22414" interp="linr"  time="0/1" value="0" leadInLength="0/1"  />
              <InterpolatingParam id="22415" interp="linr"  time="0/1" value="0" leadInLength="0/1"  />
             </VectorParam>
             <VectorParam id="22416"  name="geometryCrop">
              <InterpolatingParam id="22417" interp="linr"  time="-9999999/1" value="0" leadInLength="0/1"  />
              <InterpolatingParam id="22418" interp="linr"  time="-9999999/1" value="0" leadInLength="0/1"  />
              <InterpolatingParam id="22419" interp="linr"  time="-9999999/1" value="0" leadInLength="0/1"  />
              <InterpolatingParam id="22420" interp="linr"  time="-9999999/1" value="0" leadInLength="0/1"  />
             </VectorParam>
             <InterpolatingParam id="22421" interp="linr"  time="-9999999/1" value="1" leadInLength="0/1"  name="opacity"/>
            </Parameters>
            <Attributes>
             <Attribute id="22422" value="" name="ident"/>
            </Attributes>
            <MetaData>
             <entry key="WinSubProjectDisplayName" val=""/>
            </MetaData>
            <ExtraData>
             <Entry key="ZoomPanBin">
              <ZoomPanBin id="22423"  >
               <ZoomPanKeyframes>
                <ZoomPanKeyframe id="22424" timeRangeEnd="-9999999/1" timeRangeDuration="0/1" interpolaterName=""  />
               </ZoomPanKeyframes>
              </ZoomPanBin>
             </Entry>
            </ExtraData>
           </VMFile>
           <VMFile id="22425" start="9857" duration="157" scalar="1/1" mediaStart="28287/1" mediaDuration="157/1" trackNumber="0" src="4" >
            <Transformer>
             <VectorParam id="22426"  name="translation">
              <InterpolatingParam id="22427" interp="linr"  time="-9999999/1" value="0" leadInLength="0/1"  />
              <InterpolatingParam id="22428" interp="linr"  time="-9999999/1" value="0" leadInLength="0/1"  />
              <InterpolatingParam id="22429" interp="linr"  time="-9999999/1" value="0" leadInLength="0/1"  />
             </VectorParam>
             <VectorParam id="22430"  name="rotation">
              <InterpolatingParam id="22431" interp="linr"  time="-9999999/1" value="0" leadInLength="0/1"  />
              <InterpolatingParam id="22432" interp="linr"  time="-9999999/1" value="0" leadInLength="0/1"  />
              <InterpolatingParam id="22433" interp="linr"  time="-9999999/1" value="0" leadInLength="0/1"  />
             </VectorParam>
             <VectorParam id="22434"  name="shear">
              <InterpolatingParam id="22435" interp="linr"  time="-9999999/1" value="0" leadInLength="0/1"  />
              <InterpolatingParam id="22436" interp="linr"  time="-9999999/1" value="0" leadInLength="0/1"  />
              <InterpolatingParam id="22437" interp="linr"  time="-9999999/1" value="0" leadInLength="0/1"  />
             </VectorParam>
             <VectorParam id="22438"  name="scale">
              <InterpolatingParam id="22439" interp="linr"  time="-9999999/1" value="1" leadInLength="0/1"  />
              <InterpolatingParam id="22440" interp="linr"  time="-9999999/1" value="1" leadInLength="0/1"  />
              <InterpolatingParam id="22441" interp="linr"  time="-9999999/1" value="1" leadInLength="0/1"  />
             </VectorParam>
             <VectorParam id="22442"  name="anchor">
              <InterpolatingParam id="22443" interp="linr"  time="0/1" value="0" leadInLength="0/1"  />
              <InterpolatingParam id="22444" interp="linr"  time="0/1" value="0" leadInLength="0/1"  />
              <InterpolatingParam id="22445" interp="linr"  time="0/1" value="0" leadInLength="0/1"  />
             </VectorParam>
            </Transformer>
            <Parameters>
             <VectorParam id="22446"  name="sourceCrop">
              <InterpolatingParam id="22447" interp="linr"  time="0/1" value="0" leadInLength="0/1"  />
              <InterpolatingParam id="22448" interp="linr"  time="0/1" value="0" leadInLength="0/1"  />
              <InterpolatingParam id="22449" interp="linr"  time="0/1" value="0" leadInLength="0/1"  />
              <InterpolatingParam id="22450" interp="linr"  time="0/1" value="0" leadInLength="0/1"  />
             </VectorParam>
             <VectorParam id="22451"  name="geometryCrop">
              <InterpolatingParam id="22452" interp="linr"  time="-9999999/1" value="0" leadInLength="0/1"  />
              <InterpolatingParam id="22453" interp="linr"  time="-9999999/1" value="0" leadInLength="0/1"  />
              <InterpolatingParam id="22454" interp="linr"  time="-9999999/1" value="0" leadInLength="0/1"  />
              <InterpolatingParam id="22455" interp="linr"  time="-9999999/1" value="0" leadInLength="0/1"  />
             </VectorParam>
             <InterpolatingParam id="22456" interp="linr"  time="-9999999/1" value="1" leadInLength="0/1"  name="opacity"/>
            </Parameters>
            <Attributes>
             <Attribute id="22457" value="" name="ident"/>
            </Attributes>
            <MetaData>
             <entry key="WinSubProjectDisplayName" val=""/>
            </MetaData>
            <ExtraData>
             <Entry key="ZoomPanBin">
              <ZoomPanBin id="22458"  >
               <ZoomPanKeyframes>
                <ZoomPanKeyframe id="22459" timeRangeEnd="-9999999/1" timeRangeDuration="0/1" interpolaterName=""  />
               </ZoomPanKeyframes>
              </ZoomPanBin>
             </Entry>
            </ExtraData>
           </VMFile>
           <VMFile id="22460" start="10014" duration="290" scalar="1/1" mediaStart="28689/1" mediaDuration="290/1" trackNumber="0" src="4" >
            <Transformer>
             <VectorParam id="22461"  name="translation">
              <InterpolatingParam id="22462" interp="linr"  time="-9999999/1" value="0" leadInLength="0/1"  />
              <InterpolatingParam id="22463" interp="linr"  time="-9999999/1" value="0" leadInLength="0/1"  />
              <InterpolatingParam id="22464" interp="linr"  time="-9999999/1" value="0" leadInLength="0/1"  />
             </VectorParam>
             <VectorParam id="22465"  name="rotation">
              <InterpolatingParam id="22466" interp="linr"  time="-9999999/1" value="0" leadInLength="0/1"  />
              <InterpolatingParam id="22467" interp="linr"  time="-9999999/1" value="0" leadInLength="0/1"  />
              <InterpolatingParam id="22468" interp="linr"  time="-9999999/1" value="0" leadInLength="0/1"  />
             </VectorParam>
             <VectorParam id="22469"  name="shear">
              <InterpolatingParam id="22470" interp="linr"  time="-9999999/1" value="0" leadInLength="0/1"  />
              <InterpolatingParam id="22471" interp="linr"  time="-9999999/1" value="0" leadInLength="0/1"  />
              <InterpolatingParam id="22472" interp="linr"  time="-9999999/1" value="0" leadInLength="0/1"  />
             </VectorParam>
             <VectorParam id="22473"  name="scale">
              <InterpolatingParam id="22474" interp="linr"  time="-9999999/1" value="1" leadInLength="0/1"  />
              <InterpolatingParam id="22475" interp="linr"  time="-9999999/1" value="1" leadInLength="0/1"  />
              <InterpolatingParam id="22476" interp="linr"  time="-9999999/1" value="1" leadInLength="0/1"  />
             </VectorParam>
             <VectorParam id="22477"  name="anchor">
              <InterpolatingParam id="22478" interp="linr"  time="0/1" value="0" leadInLength="0/1"  />
              <InterpolatingParam id="22479" interp="linr"  time="0/1" value="0" leadInLength="0/1"  />
              <InterpolatingParam id="22480" interp="linr"  time="0/1" value="0" leadInLength="0/1"  />
             </VectorParam>
            </Transformer>
            <Parameters>
             <VectorParam id="22481"  name="sourceCrop">
              <InterpolatingParam id="22482" interp="linr"  time="0/1" value="0" leadInLength="0/1"  />
              <InterpolatingParam id="22483" interp="linr"  time="0/1" value="0" leadInLength="0/1"  />
              <InterpolatingParam id="22484" interp="linr"  time="0/1" value="0" leadInLength="0/1"  />
              <InterpolatingParam id="22485" interp="linr"  time="0/1" value="0" leadInLength="0/1"  />
             </VectorParam>
             <VectorParam id="22486"  name="geometryCrop">
              <InterpolatingParam id="22487" interp="linr"  time="-9999999/1" value="0" leadInLength="0/1"  />
              <InterpolatingParam id="22488" interp="linr"  time="-9999999/1" value="0" leadInLength="0/1"  />
              <InterpolatingParam id="22489" interp="linr"  time="-9999999/1" value="0" leadInLength="0/1"  />
              <InterpolatingParam id="22490" interp="linr"  time="-9999999/1" value="0" leadInLength="0/1"  />
             </VectorParam>
             <InterpolatingParam id="22491" interp="linr"  time="-9999999/1" value="1" leadInLength="0/1"  name="opacity"/>
            </Parameters>
            <Attributes>
             <Attribute id="22492" value="" name="ident"/>
            </Attributes>
            <MetaData>
             <entry key="WinSubProjectDisplayName" val=""/>
            </MetaData>
            <ExtraData>
             <Entry key="ZoomPanBin">
              <ZoomPanBin id="22493"  >
               <ZoomPanKeyframes>
                <ZoomPanKeyframe id="22494" timeRangeEnd="-9999999/1" timeRangeDuration="0/1" interpolaterName=""  />
               </ZoomPanKeyframes>
              </ZoomPanBin>
             </Entry>
            </ExtraData>
           </VMFile>
           <IMFile id="22495" start="10304" duration="60" scalar="1/1" mediaStart="29056/1" mediaDuration="1/1" trackNumber="0" src="4" trimStartSum="0/1" >
            <Transformer>
             <VectorParam id="22496"  name="translation">
              <InterpolatingParam id="22497" interp="linr"  time="-9999999/1" value="0" leadInLength="0/1"  />
              <InterpolatingParam id="22498" interp="linr"  time="-9999999/1" value="0" leadInLength="0/1"  />
              <InterpolatingParam id="22499" interp="linr"  time="-9999999/1" value="0" leadInLength="0/1"  />
             </VectorParam>
             <VectorParam id="22500"  name="rotation">
              <InterpolatingParam id="22501" interp="linr"  time="-9999999/1" value="0" leadInLength="0/1"  />
              <InterpolatingParam id="22502" interp="linr"  time="-9999999/1" value="0" leadInLength="0/1"  />
              <InterpolatingParam id="22503" interp="linr"  time="-9999999/1" value="0" leadInLength="0/1"  />
             </VectorParam>
             <VectorParam id="22504"  name="shear">
              <InterpolatingParam id="22505" interp="linr"  time="-9999999/1" value="0" leadInLength="0/1"  />
              <InterpolatingParam id="22506" interp="linr"  time="-9999999/1" value="0" leadInLength="0/1"  />
              <InterpolatingParam id="22507" interp="linr"  time="-9999999/1" value="0" leadInLength="0/1"  />
             </VectorParam>
             <VectorParam id="22508"  name="scale">
              <InterpolatingParam id="22509" interp="linr"  time="-9999999/1" value="1" leadInLength="0/1"  />
              <InterpolatingParam id="22510" interp="linr"  time="-9999999/1" value="1" leadInLength="0/1"  />
              <InterpolatingParam id="22511" interp="linr"  time="-9999999/1" value="1" leadInLength="0/1"  />
             </VectorParam>
             <VectorParam id="22512"  name="anchor">
              <InterpolatingParam id="22513" interp="linr"  time="0/1" value="0" leadInLength="0/1"  />
              <InterpolatingParam id="22514" interp="linr"  time="0/1" value="0" leadInLength="0/1"  />
              <InterpolatingParam id="22515" interp="linr"  time="0/1" value="0" leadInLength="0/1"  />
             </VectorParam>
            </Transformer>
            <Parameters>
             <VectorParam id="22516"  name="sourceCrop">
              <InterpolatingParam id="22517" interp="linr"  time="0/1" value="0" leadInLength="0/1"  />
              <InterpolatingParam id="22518" interp="linr"  time="0/1" value="0" leadInLength="0/1"  />
              <InterpolatingParam id="22519" interp="linr"  time="0/1" value="0" leadInLength="0/1"  />
              <InterpolatingParam id="22520" interp="linr"  time="0/1" value="0" leadInLength="0/1"  />
             </VectorParam>
             <VectorParam id="22521"  name="geometryCrop">
              <InterpolatingParam id="22522" interp="linr"  time="-9999999/1" value="0" leadInLength="0/1"  />
              <InterpolatingParam id="22523" interp="linr"  time="-9999999/1" value="0" leadInLength="0/1"  />
              <InterpolatingParam id="22524" interp="linr"  time="-9999999/1" value="0" leadInLength="0/1"  />
              <InterpolatingParam id="22525" interp="linr"  time="-9999999/1" value="0" leadInLength="0/1"  />
             </VectorParam>
             <InterpolatingParam id="22526" interp="linr"  time="-9999999/1" value="1" leadInLength="0/1"  name="opacity"/>
            </Parameters>
            <Attributes>
             <Attribute id="22527" value="" name="ident"/>
            </Attributes>
            <MetaData>
             <entry key="WinSubProjectDisplayName" val=""/>
            </MetaData>
            <ExtraData>
             <Entry key="ZoomPanBin">
              <ZoomPanBin id="22528"  >
               <ZoomPanKeyframes>
                <ZoomPanKeyframe id="22529" timeRangeEnd="-9999999/1" timeRangeDuration="0/1" interpolaterName=""  />
               </ZoomPanKeyframes>
              </ZoomPanBin>
             </Entry>
            </ExtraData>
           </IMFile>
           <VMFile id="22530" start="10364" duration="18" scalar="1/1" mediaStart="29056/1" mediaDuration="18/1" trackNumber="0" src="4" >
            <Transformer>
             <VectorParam id="22531"  name="translation">
              <InterpolatingParam id="22532" interp="linr"  time="-9999999/1" value="0" leadInLength="0/1"  />
              <InterpolatingParam id="22533" interp="linr"  time="-9999999/1" value="0" leadInLength="0/1"  />
              <InterpolatingParam id="22534" interp="linr"  time="-9999999/1" value="0" leadInLength="0/1"  />
             </VectorParam>
             <VectorParam id="22535"  name="rotation">
              <InterpolatingParam id="22536" interp="linr"  time="-9999999/1" value="0" leadInLength="0/1"  />
              <InterpolatingParam id="22537" interp="linr"  time="-9999999/1" value="0" leadInLength="0/1"  />
              <InterpolatingParam id="22538" interp="linr"  time="-9999999/1" value="0" leadInLength="0/1"  />
             </VectorParam>
             <VectorParam id="22539"  name="shear">
              <InterpolatingParam id="22540" interp="linr"  time="-9999999/1" value="0" leadInLength="0/1"  />
              <InterpolatingParam id="22541" interp="linr"  time="-9999999/1" value="0" leadInLength="0/1"  />
              <InterpolatingParam id="22542" interp="linr"  time="-9999999/1" value="0" leadInLength="0/1"  />
             </VectorParam>
             <VectorParam id="22543"  name="scale">
              <InterpolatingParam id="22544" interp="linr"  time="-9999999/1" value="1" leadInLength="0/1"  />
              <InterpolatingParam id="22545" interp="linr"  time="-9999999/1" value="1" leadInLength="0/1"  />
              <InterpolatingParam id="22546" interp="linr"  time="-9999999/1" value="1" leadInLength="0/1"  />
             </VectorParam>
             <VectorParam id="22547"  name="anchor">
              <InterpolatingParam id="22548" interp="linr"  time="0/1" value="0" leadInLength="0/1"  />
              <InterpolatingParam id="22549" interp="linr"  time="0/1" value="0" leadInLength="0/1"  />
              <InterpolatingParam id="22550" interp="linr"  time="0/1" value="0" leadInLength="0/1"  />
             </VectorParam>
            </Transformer>
            <Parameters>
             <VectorParam id="22551"  name="sourceCrop">
              <InterpolatingParam id="22552" interp="linr"  time="0/1" value="0" leadInLength="0/1"  />
              <InterpolatingParam id="22553" interp="linr"  time="0/1" value="0" leadInLength="0/1"  />
              <InterpolatingParam id="22554" interp="linr"  time="0/1" value="0" leadInLength="0/1"  />
              <InterpolatingParam id="22555" interp="linr"  time="0/1" value="0" leadInLength="0/1"  />
             </VectorParam>
             <VectorParam id="22556"  name="geometryCrop">
              <InterpolatingParam id="22557" interp="linr"  time="-9999999/1" value="0" leadInLength="0/1"  />
              <InterpolatingParam id="22558" interp="linr"  time="-9999999/1" value="0" leadInLength="0/1"  />
              <InterpolatingParam id="22559" interp="linr"  time="-9999999/1" value="0" leadInLength="0/1"  />
              <InterpolatingParam id="22560" interp="linr"  time="-9999999/1" value="0" leadInLength="0/1"  />
             </VectorParam>
             <InterpolatingParam id="22561" interp="linr"  time="-9999999/1" value="1" leadInLength="0/1"  name="opacity"/>
            </Parameters>
            <Attributes>
             <Attribute id="22562" value="" name="ident"/>
            </Attributes>
            <MetaData>
             <entry key="WinSubProjectDisplayName" val=""/>
            </MetaData>
            <ExtraData>
             <Entry key="ZoomPanBin">
              <ZoomPanBin id="22563"  >
               <ZoomPanKeyframes>
                <ZoomPanKeyframe id="22564" timeRangeEnd="-9999999/1" timeRangeDuration="0/1" interpolaterName=""  />
               </ZoomPanKeyframes>
              </ZoomPanBin>
             </Entry>
            </ExtraData>
           </VMFile>
           <IMFile id="22565" start="10382" duration="30" scalar="1/1" mediaStart="29074/1" mediaDuration="1/1" trackNumber="0" src="4" trimStartSum="0/1" >
            <Transformer>
             <VectorParam id="22566"  name="translation">
              <InterpolatingParam id="22567" interp="linr"  time="-9999999/1" value="0" leadInLength="0/1"  />
              <InterpolatingParam id="22568" interp="linr"  time="-9999999/1" value="0" leadInLength="0/1"  />
              <InterpolatingParam id="22569" interp="linr"  time="-9999999/1" value="0" leadInLength="0/1"  />
             </VectorParam>
             <VectorParam id="22570"  name="rotation">
              <InterpolatingParam id="22571" interp="linr"  time="-9999999/1" value="0" leadInLength="0/1"  />
              <InterpolatingParam id="22572" interp="linr"  time="-9999999/1" value="0" leadInLength="0/1"  />
              <InterpolatingParam id="22573" interp="linr"  time="-9999999/1" value="0" leadInLength="0/1"  />
             </VectorParam>
             <VectorParam id="22574"  name="shear">
              <InterpolatingParam id="22575" interp="linr"  time="-9999999/1" value="0" leadInLength="0/1"  />
              <InterpolatingParam id="22576" interp="linr"  time="-9999999/1" value="0" leadInLength="0/1"  />
              <InterpolatingParam id="22577" interp="linr"  time="-9999999/1" value="0" leadInLength="0/1"  />
             </VectorParam>
             <VectorParam id="22578"  name="scale">
              <InterpolatingParam id="22579" interp="linr"  time="-9999999/1" value="1" leadInLength="0/1"  />
              <InterpolatingParam id="22580" interp="linr"  time="-9999999/1" value="1" leadInLength="0/1"  />
              <InterpolatingParam id="22581" interp="linr"  time="-9999999/1" value="1" leadInLength="0/1"  />
             </VectorParam>
             <VectorParam id="22582"  name="anchor">
              <InterpolatingParam id="22583" interp="linr"  time="0/1" value="0" leadInLength="0/1"  />
              <InterpolatingParam id="22584" interp="linr"  time="0/1" value="0" leadInLength="0/1"  />
              <InterpolatingParam id="22585" interp="linr"  time="0/1" value="0" leadInLength="0/1"  />
             </VectorParam>
            </Transformer>
            <Parameters>
             <VectorParam id="22586"  name="sourceCrop">
              <InterpolatingParam id="22587" interp="linr"  time="0/1" value="0" leadInLength="0/1"  />
              <InterpolatingParam id="22588" interp="linr"  time="0/1" value="0" leadInLength="0/1"  />
              <InterpolatingParam id="22589" interp="linr"  time="0/1" value="0" leadInLength="0/1"  />
              <InterpolatingParam id="22590" interp="linr"  time="0/1" value="0" leadInLength="0/1"  />
             </VectorParam>
             <VectorParam id="22591"  name="geometryCrop">
              <InterpolatingParam id="22592" interp="linr"  time="-9999999/1" value="0" leadInLength="0/1"  />
              <InterpolatingParam id="22593" interp="linr"  time="-9999999/1" value="0" leadInLength="0/1"  />
              <InterpolatingParam id="22594" interp="linr"  time="-9999999/1" value="0" leadInLength="0/1"  />
              <InterpolatingParam id="22595" interp="linr"  time="-9999999/1" value="0" leadInLength="0/1"  />
             </VectorParam>
             <InterpolatingParam id="22596" interp="linr"  time="-9999999/1" value="1" leadInLength="0/1"  name="opacity"/>
            </Parameters>
            <Attributes>
             <Attribute id="22597" value="" name="ident"/>
            </Attributes>
            <MetaData>
             <entry key="WinSubProjectDisplayName" val=""/>
            </MetaData>
            <ExtraData>
             <Entry key="ZoomPanBin">
              <ZoomPanBin id="22598"  >
               <ZoomPanKeyframes>
                <ZoomPanKeyframe id="22599" timeRangeEnd="-9999999/1" timeRangeDuration="0/1" interpolaterName=""  />
               </ZoomPanKeyframes>
              </ZoomPanBin>
             </Entry>
            </ExtraData>
           </IMFile>
           <VMFile id="22600" start="10412" duration="1" scalar="1/1" mediaStart="29074/1" mediaDuration="1/1" trackNumber="0" src="4" >
            <Transformer>
             <VectorParam id="22601"  name="translation">
              <InterpolatingParam id="22602" interp="linr"  time="-9999999/1" value="0" leadInLength="0/1"  />
              <InterpolatingParam id="22603" interp="linr"  time="-9999999/1" value="0" leadInLength="0/1"  />
              <InterpolatingParam id="22604" interp="linr"  time="-9999999/1" value="0" leadInLength="0/1"  />
             </VectorParam>
             <VectorParam id="22605"  name="rotation">
              <InterpolatingParam id="22606" interp="linr"  time="-9999999/1" value="0" leadInLength="0/1"  />
              <InterpolatingParam id="22607" interp="linr"  time="-9999999/1" value="0" leadInLength="0/1"  />
              <InterpolatingParam id="22608" interp="linr"  time="-9999999/1" value="0" leadInLength="0/1"  />
             </VectorParam>
             <VectorParam id="22609"  name="shear">
              <InterpolatingParam id="22610" interp="linr"  time="-9999999/1" value="0" leadInLength="0/1"  />
              <InterpolatingParam id="22611" interp="linr"  time="-9999999/1" value="0" leadInLength="0/1"  />
              <InterpolatingParam id="22612" interp="linr"  time="-9999999/1" value="0" leadInLength="0/1"  />
             </VectorParam>
             <VectorParam id="22613"  name="scale">
              <InterpolatingParam id="22614" interp="linr"  time="-9999999/1" value="1" leadInLength="0/1"  />
              <InterpolatingParam id="22615" interp="linr"  time="-9999999/1" value="1" leadInLength="0/1"  />
              <InterpolatingParam id="22616" interp="linr"  time="-9999999/1" value="1" leadInLength="0/1"  />
             </VectorParam>
             <VectorParam id="22617"  name="anchor">
              <InterpolatingParam id="22618" interp="linr"  time="0/1" value="0" leadInLength="0/1"  />
              <InterpolatingParam id="22619" interp="linr"  time="0/1" value="0" leadInLength="0/1"  />
              <InterpolatingParam id="22620" interp="linr"  time="0/1" value="0" leadInLength="0/1"  />
             </VectorParam>
            </Transformer>
            <Parameters>
             <VectorParam id="22621"  name="sourceCrop">
              <InterpolatingParam id="22622" interp="linr"  time="0/1" value="0" leadInLength="0/1"  />
              <InterpolatingParam id="22623" interp="linr"  time="0/1" value="0" leadInLength="0/1"  />
              <InterpolatingParam id="22624" interp="linr"  time="0/1" value="0" leadInLength="0/1"  />
              <InterpolatingParam id="22625" interp="linr"  time="0/1" value="0" leadInLength="0/1"  />
             </VectorParam>
             <VectorParam id="22626"  name="geometryCrop">
              <InterpolatingParam id="22627" interp="linr"  time="-9999999/1" value="0" leadInLength="0/1"  />
              <InterpolatingParam id="22628" interp="linr"  time="-9999999/1" value="0" leadInLength="0/1"  />
              <InterpolatingParam id="22629" interp="linr"  time="-9999999/1" value="0" leadInLength="0/1"  />
              <InterpolatingParam id="22630" interp="linr"  time="-9999999/1" value="0" leadInLength="0/1"  />
             </VectorParam>
             <InterpolatingParam id="22631" interp="linr"  time="-9999999/1" value="1" leadInLength="0/1"  name="opacity"/>
            </Parameters>
            <Attributes>
             <Attribute id="22632" value="" name="ident"/>
            </Attributes>
            <MetaData>
             <entry key="WinSubProjectDisplayName" val=""/>
            </MetaData>
            <ExtraData>
             <Entry key="ZoomPanBin">
              <ZoomPanBin id="22633"  >
               <ZoomPanKeyframes>
                <ZoomPanKeyframe id="22634" timeRangeEnd="-9999999/1" timeRangeDuration="0/1" interpolaterName=""  />
               </ZoomPanKeyframes>
              </ZoomPanBin>
             </Entry>
            </ExtraData>
           </VMFile>
           <VMFile id="22635" start="10413" duration="42" scalar="1/1" mediaStart="29274/1" mediaDuration="42/1" trackNumber="0" src="4" >
            <Transformer>
             <VectorParam id="22636"  name="translation">
              <InterpolatingParam id="22637" interp="linr"  time="-9999999/1" value="0" leadInLength="0/1"  />
              <InterpolatingParam id="22638" interp="linr"  time="-9999999/1" value="0" leadInLength="0/1"  />
              <InterpolatingParam id="22639" interp="linr"  time="-9999999/1" value="0" leadInLength="0/1"  />
             </VectorParam>
             <VectorParam id="22640"  name="rotation">
              <InterpolatingParam id="22641" interp="linr"  time="-9999999/1" value="0" leadInLength="0/1"  />
              <InterpolatingParam id="22642" interp="linr"  time="-9999999/1" value="0" leadInLength="0/1"  />
              <InterpolatingParam id="22643" interp="linr"  time="-9999999/1" value="0" leadInLength="0/1"  />
             </VectorParam>
             <VectorParam id="22644"  name="shear">
              <InterpolatingParam id="22645" interp="linr"  time="-9999999/1" value="0" leadInLength="0/1"  />
              <InterpolatingParam id="22646" interp="linr"  time="-9999999/1" value="0" leadInLength="0/1"  />
              <InterpolatingParam id="22647" interp="linr"  time="-9999999/1" value="0" leadInLength="0/1"  />
             </VectorParam>
             <VectorParam id="22648"  name="scale">
              <InterpolatingParam id="22649" interp="linr"  time="-9999999/1" value="1" leadInLength="0/1"  />
              <InterpolatingParam id="22650" interp="linr"  time="-9999999/1" value="1" leadInLength="0/1"  />
              <InterpolatingParam id="22651" interp="linr"  time="-9999999/1" value="1" leadInLength="0/1"  />
             </VectorParam>
             <VectorParam id="22652"  name="anchor">
              <InterpolatingParam id="22653" interp="linr"  time="0/1" value="0" leadInLength="0/1"  />
              <InterpolatingParam id="22654" interp="linr"  time="0/1" value="0" leadInLength="0/1"  />
              <InterpolatingParam id="22655" interp="linr"  time="0/1" value="0" leadInLength="0/1"  />
             </VectorParam>
            </Transformer>
            <Parameters>
             <VectorParam id="22656"  name="sourceCrop">
              <InterpolatingParam id="22657" interp="linr"  time="0/1" value="0" leadInLength="0/1"  />
              <InterpolatingParam id="22658" interp="linr"  time="0/1" value="0" leadInLength="0/1"  />
              <InterpolatingParam id="22659" interp="linr"  time="0/1" value="0" leadInLength="0/1"  />
              <InterpolatingParam id="22660" interp="linr"  time="0/1" value="0" leadInLength="0/1"  />
             </VectorParam>
             <VectorParam id="22661"  name="geometryCrop">
              <InterpolatingParam id="22662" interp="linr"  time="-9999999/1" value="0" leadInLength="0/1"  />
              <InterpolatingParam id="22663" interp="linr"  time="-9999999/1" value="0" leadInLength="0/1"  />
              <InterpolatingParam id="22664" interp="linr"  time="-9999999/1" value="0" leadInLength="0/1"  />
              <InterpolatingParam id="22665" interp="linr"  time="-9999999/1" value="0" leadInLength="0/1"  />
             </VectorParam>
             <InterpolatingParam id="22666" interp="linr"  time="-9999999/1" value="1" leadInLength="0/1"  name="opacity"/>
            </Parameters>
            <Attributes>
             <Attribute id="22667" value="" name="ident"/>
            </Attributes>
            <MetaData>
             <entry key="WinSubProjectDisplayName" val=""/>
            </MetaData>
            <ExtraData>
             <Entry key="ZoomPanBin">
              <ZoomPanBin id="22668"  >
               <ZoomPanKeyframes>
                <ZoomPanKeyframe id="22669" timeRangeEnd="-9999999/1" timeRangeDuration="0/1" interpolaterName=""  />
               </ZoomPanKeyframes>
              </ZoomPanBin>
             </Entry>
            </ExtraData>
           </VMFile>
           <VMFile id="22670" start="10455" duration="147" scalar="1/1" mediaStart="29358/1" mediaDuration="147/1" trackNumber="0" src="4" >
            <Transformer>
             <VectorParam id="22671"  name="translation">
              <InterpolatingParam id="22672" interp="linr"  time="-9999999/1" value="0" leadInLength="0/1"  />
              <InterpolatingParam id="22673" interp="linr"  time="-9999999/1" value="0" leadInLength="0/1"  />
              <InterpolatingParam id="22674" interp="linr"  time="-9999999/1" value="0" leadInLength="0/1"  />
             </VectorParam>
             <VectorParam id="22675"  name="rotation">
              <InterpolatingParam id="22676" interp="linr"  time="-9999999/1" value="0" leadInLength="0/1"  />
              <InterpolatingParam id="22677" interp="linr"  time="-9999999/1" value="0" leadInLength="0/1"  />
              <InterpolatingParam id="22678" interp="linr"  time="-9999999/1" value="0" leadInLength="0/1"  />
             </VectorParam>
             <VectorParam id="22679"  name="shear">
              <InterpolatingParam id="22680" interp="linr"  time="-9999999/1" value="0" leadInLength="0/1"  />
              <InterpolatingParam id="22681" interp="linr"  time="-9999999/1" value="0" leadInLength="0/1"  />
              <InterpolatingParam id="22682" interp="linr"  time="-9999999/1" value="0" leadInLength="0/1"  />
             </VectorParam>
             <VectorParam id="22683"  name="scale">
              <InterpolatingParam id="22684" interp="linr"  time="-9999999/1" value="1" leadInLength="0/1"  />
              <InterpolatingParam id="22685" interp="linr"  time="-9999999/1" value="1" leadInLength="0/1"  />
              <InterpolatingParam id="22686" interp="linr"  time="-9999999/1" value="1" leadInLength="0/1"  />
             </VectorParam>
             <VectorParam id="22687"  name="anchor">
              <InterpolatingParam id="22688" interp="linr"  time="0/1" value="0" leadInLength="0/1"  />
              <InterpolatingParam id="22689" interp="linr"  time="0/1" value="0" leadInLength="0/1"  />
              <InterpolatingParam id="22690" interp="linr"  time="0/1" value="0" leadInLength="0/1"  />
             </VectorParam>
            </Transformer>
            <Parameters>
             <VectorParam id="22691"  name="sourceCrop">
              <InterpolatingParam id="22692" interp="linr"  time="0/1" value="0" leadInLength="0/1"  />
              <InterpolatingParam id="22693" interp="linr"  time="0/1" value="0" leadInLength="0/1"  />
              <InterpolatingParam id="22694" interp="linr"  time="0/1" value="0" leadInLength="0/1"  />
              <InterpolatingParam id="22695" interp="linr"  time="0/1" value="0" leadInLength="0/1"  />
             </VectorParam>
             <VectorParam id="22696"  name="geometryCrop">
              <InterpolatingParam id="22697" interp="linr"  time="-9999999/1" value="0" leadInLength="0/1"  />
              <InterpolatingParam id="22698" interp="linr"  time="-9999999/1" value="0" leadInLength="0/1"  />
              <InterpolatingParam id="22699" interp="linr"  time="-9999999/1" value="0" leadInLength="0/1"  />
              <InterpolatingParam id="22700" interp="linr"  time="-9999999/1" value="0" leadInLength="0/1"  />
             </VectorParam>
             <InterpolatingParam id="22701" interp="linr"  time="-9999999/1" value="1" leadInLength="0/1"  name="opacity"/>
            </Parameters>
            <Attributes>
             <Attribute id="22702" value="" name="ident"/>
            </Attributes>
            <MetaData>
             <entry key="WinSubProjectDisplayName" val=""/>
            </MetaData>
            <ExtraData>
             <Entry key="ZoomPanBin">
              <ZoomPanBin id="22703"  >
               <ZoomPanKeyframes>
                <ZoomPanKeyframe id="22704" timeRangeEnd="-9999999/1" timeRangeDuration="0/1" interpolaterName=""  />
               </ZoomPanKeyframes>
              </ZoomPanBin>
             </Entry>
            </ExtraData>
           </VMFile>
           <VMFile id="22705" start="10602" duration="580" scalar="1/1" mediaStart="29557/1" mediaDuration="580/1" trackNumber="0" src="4" >
            <Transformer>
             <VectorParam id="22706"  name="translation">
              <InterpolatingParam id="22707" interp="linr"  time="-9999999/1" value="0" leadInLength="0/1"  />
              <InterpolatingParam id="22708" interp="linr"  time="-9999999/1" value="0" leadInLength="0/1"  />
              <InterpolatingParam id="22709" interp="linr"  time="-9999999/1" value="0" leadInLength="0/1"  />
             </VectorParam>
             <VectorParam id="22710"  name="rotation">
              <InterpolatingParam id="22711" interp="linr"  time="-9999999/1" value="0" leadInLength="0/1"  />
              <InterpolatingParam id="22712" interp="linr"  time="-9999999/1" value="0" leadInLength="0/1"  />
              <InterpolatingParam id="22713" interp="linr"  time="-9999999/1" value="0" leadInLength="0/1"  />
             </VectorParam>
             <VectorParam id="22714"  name="shear">
              <InterpolatingParam id="22715" interp="linr"  time="-9999999/1" value="0" leadInLength="0/1"  />
              <InterpolatingParam id="22716" interp="linr"  time="-9999999/1" value="0" leadInLength="0/1"  />
              <InterpolatingParam id="22717" interp="linr"  time="-9999999/1" value="0" leadInLength="0/1"  />
             </VectorParam>
             <VectorParam id="22718"  name="scale">
              <InterpolatingParam id="22719" interp="linr"  time="-9999999/1" value="1" leadInLength="0/1"  />
              <InterpolatingParam id="22720" interp="linr"  time="-9999999/1" value="1" leadInLength="0/1"  />
              <InterpolatingParam id="22721" interp="linr"  time="-9999999/1" value="1" leadInLength="0/1"  />
             </VectorParam>
             <VectorParam id="22722"  name="anchor">
              <InterpolatingParam id="22723" interp="linr"  time="0/1" value="0" leadInLength="0/1"  />
              <InterpolatingParam id="22724" interp="linr"  time="0/1" value="0" leadInLength="0/1"  />
              <InterpolatingParam id="22725" interp="linr"  time="0/1" value="0" leadInLength="0/1"  />
             </VectorParam>
            </Transformer>
            <Parameters>
             <VectorParam id="22726"  name="sourceCrop">
              <InterpolatingParam id="22727" interp="linr"  time="0/1" value="0" leadInLength="0/1"  />
              <InterpolatingParam id="22728" interp="linr"  time="0/1" value="0" leadInLength="0/1"  />
              <InterpolatingParam id="22729" interp="linr"  time="0/1" value="0" leadInLength="0/1"  />
              <InterpolatingParam id="22730" interp="linr"  time="0/1" value="0" leadInLength="0/1"  />
             </VectorParam>
             <VectorParam id="22731"  name="geometryCrop">
              <InterpolatingParam id="22732" interp="linr"  time="-9999999/1" value="0" leadInLength="0/1"  />
              <InterpolatingParam id="22733" interp="linr"  time="-9999999/1" value="0" leadInLength="0/1"  />
              <InterpolatingParam id="22734" interp="linr"  time="-9999999/1" value="0" leadInLength="0/1"  />
              <InterpolatingParam id="22735" interp="linr"  time="-9999999/1" value="0" leadInLength="0/1"  />
             </VectorParam>
             <InterpolatingParam id="22736" interp="linr"  time="-9999999/1" value="1" leadInLength="0/1"  name="opacity"/>
            </Parameters>
            <Attributes>
             <Attribute id="22737" value="" name="ident"/>
            </Attributes>
            <MetaData>
             <entry key="WinSubProjectDisplayName" val=""/>
            </MetaData>
            <ExtraData>
             <Entry key="ZoomPanBin">
              <ZoomPanBin id="22738"  >
               <ZoomPanKeyframes>
                <ZoomPanKeyframe id="22739" timeRangeEnd="-9999999/1" timeRangeDuration="0/1" interpolaterName=""  />
               </ZoomPanKeyframes>
              </ZoomPanBin>
             </Entry>
            </ExtraData>
           </VMFile>
           <VMFile id="22740" start="11182" duration="25" scalar="1/1" mediaStart="30200/1" mediaDuration="25/1" trackNumber="0" src="4" >
            <Transformer>
             <VectorParam id="22741"  name="translation">
              <InterpolatingParam id="22742" interp="linr"  time="-9999999/1" value="0" leadInLength="0/1"  />
              <InterpolatingParam id="22743" interp="linr"  time="-9999999/1" value="0" leadInLength="0/1"  />
              <InterpolatingParam id="22744" interp="linr"  time="-9999999/1" value="0" leadInLength="0/1"  />
             </VectorParam>
             <VectorParam id="22745"  name="rotation">
              <InterpolatingParam id="22746" interp="linr"  time="-9999999/1" value="0" leadInLength="0/1"  />
              <InterpolatingParam id="22747" interp="linr"  time="-9999999/1" value="0" leadInLength="0/1"  />
              <InterpolatingParam id="22748" interp="linr"  time="-9999999/1" value="0" leadInLength="0/1"  />
             </VectorParam>
             <VectorParam id="22749"  name="shear">
              <InterpolatingParam id="22750" interp="linr"  time="-9999999/1" value="0" leadInLength="0/1"  />
              <InterpolatingParam id="22751" interp="linr"  time="-9999999/1" value="0" leadInLength="0/1"  />
              <InterpolatingParam id="22752" interp="linr"  time="-9999999/1" value="0" leadInLength="0/1"  />
             </VectorParam>
             <VectorParam id="22753"  name="scale">
              <InterpolatingParam id="22754" interp="linr"  time="-9999999/1" value="1" leadInLength="0/1"  />
              <InterpolatingParam id="22755" interp="linr"  time="-9999999/1" value="1" leadInLength="0/1"  />
              <InterpolatingParam id="22756" interp="linr"  time="-9999999/1" value="1" leadInLength="0/1"  />
             </VectorParam>
             <VectorParam id="22757"  name="anchor">
              <InterpolatingParam id="22758" interp="linr"  time="0/1" value="0" leadInLength="0/1"  />
              <InterpolatingParam id="22759" interp="linr"  time="0/1" value="0" leadInLength="0/1"  />
              <InterpolatingParam id="22760" interp="linr"  time="0/1" value="0" leadInLength="0/1"  />
             </VectorParam>
            </Transformer>
            <Parameters>
             <VectorParam id="22761"  name="sourceCrop">
              <InterpolatingParam id="22762" interp="linr"  time="0/1" value="0" leadInLength="0/1"  />
              <InterpolatingParam id="22763" interp="linr"  time="0/1" value="0" leadInLength="0/1"  />
              <InterpolatingParam id="22764" interp="linr"  time="0/1" value="0" leadInLength="0/1"  />
              <InterpolatingParam id="22765" interp="linr"  time="0/1" value="0" leadInLength="0/1"  />
             </VectorParam>
             <VectorParam id="22766"  name="geometryCrop">
              <InterpolatingParam id="22767" interp="linr"  time="-9999999/1" value="0" leadInLength="0/1"  />
              <InterpolatingParam id="22768" interp="linr"  time="-9999999/1" value="0" leadInLength="0/1"  />
              <InterpolatingParam id="22769" interp="linr"  time="-9999999/1" value="0" leadInLength="0/1"  />
              <InterpolatingParam id="22770" interp="linr"  time="-9999999/1" value="0" leadInLength="0/1"  />
             </VectorParam>
             <InterpolatingParam id="22771" interp="linr"  time="-9999999/1" value="1" leadInLength="0/1"  name="opacity"/>
            </Parameters>
            <Attributes>
             <Attribute id="22772" value="" name="ident"/>
            </Attributes>
            <MetaData>
             <entry key="WinSubProjectDisplayName" val=""/>
            </MetaData>
            <ExtraData>
             <Entry key="ZoomPanBin">
              <ZoomPanBin id="22773"  >
               <ZoomPanKeyframes>
                <ZoomPanKeyframe id="22774" timeRangeEnd="-9999999/1" timeRangeDuration="0/1" interpolaterName=""  />
               </ZoomPanKeyframes>
              </ZoomPanBin>
             </Entry>
            </ExtraData>
           </VMFile>
           <VMFile id="22775" start="11207" duration="119" scalar="1/1" mediaStart="30368/1" mediaDuration="119/1" trackNumber="0" src="4" >
            <Transformer>
             <VectorParam id="22776"  name="translation">
              <InterpolatingParam id="22777" interp="linr"  time="-9999999/1" value="0" leadInLength="0/1"  />
              <InterpolatingParam id="22778" interp="linr"  time="-9999999/1" value="0" leadInLength="0/1"  />
              <InterpolatingParam id="22779" interp="linr"  time="-9999999/1" value="0" leadInLength="0/1"  />
             </VectorParam>
             <VectorParam id="22780"  name="rotation">
              <InterpolatingParam id="22781" interp="linr"  time="-9999999/1" value="0" leadInLength="0/1"  />
              <InterpolatingParam id="22782" interp="linr"  time="-9999999/1" value="0" leadInLength="0/1"  />
              <InterpolatingParam id="22783" interp="linr"  time="-9999999/1" value="0" leadInLength="0/1"  />
             </VectorParam>
             <VectorParam id="22784"  name="shear">
              <InterpolatingParam id="22785" interp="linr"  time="-9999999/1" value="0" leadInLength="0/1"  />
              <InterpolatingParam id="22786" interp="linr"  time="-9999999/1" value="0" leadInLength="0/1"  />
              <InterpolatingParam id="22787" interp="linr"  time="-9999999/1" value="0" leadInLength="0/1"  />
             </VectorParam>
             <VectorParam id="22788"  name="scale">
              <InterpolatingParam id="22789" interp="linr"  time="-9999999/1" value="1" leadInLength="0/1"  />
              <InterpolatingParam id="22790" interp="linr"  time="-9999999/1" value="1" leadInLength="0/1"  />
              <InterpolatingParam id="22791" interp="linr"  time="-9999999/1" value="1" leadInLength="0/1"  />
             </VectorParam>
             <VectorParam id="22792"  name="anchor">
              <InterpolatingParam id="22793" interp="linr"  time="0/1" value="0" leadInLength="0/1"  />
              <InterpolatingParam id="22794" interp="linr"  time="0/1" value="0" leadInLength="0/1"  />
              <InterpolatingParam id="22795" interp="linr"  time="0/1" value="0" leadInLength="0/1"  />
             </VectorParam>
            </Transformer>
            <Parameters>
             <VectorParam id="22796"  name="sourceCrop">
              <InterpolatingParam id="22797" interp="linr"  time="0/1" value="0" leadInLength="0/1"  />
              <InterpolatingParam id="22798" interp="linr"  time="0/1" value="0" leadInLength="0/1"  />
              <InterpolatingParam id="22799" interp="linr"  time="0/1" value="0" leadInLength="0/1"  />
              <InterpolatingParam id="22800" interp="linr"  time="0/1" value="0" leadInLength="0/1"  />
             </VectorParam>
             <VectorParam id="22801"  name="geometryCrop">
              <InterpolatingParam id="22802" interp="linr"  time="-9999999/1" value="0" leadInLength="0/1"  />
              <InterpolatingParam id="22803" interp="linr"  time="-9999999/1" value="0" leadInLength="0/1"  />
              <InterpolatingParam id="22804" interp="linr"  time="-9999999/1" value="0" leadInLength="0/1"  />
              <InterpolatingParam id="22805" interp="linr"  time="-9999999/1" value="0" leadInLength="0/1"  />
             </VectorParam>
             <InterpolatingParam id="22806" interp="linr"  time="-9999999/1" value="1" leadInLength="0/1"  name="opacity"/>
            </Parameters>
            <Attributes>
             <Attribute id="22807" value="" name="ident"/>
            </Attributes>
            <MetaData>
             <entry key="WinSubProjectDisplayName" val=""/>
            </MetaData>
            <ExtraData>
             <Entry key="ZoomPanBin">
              <ZoomPanBin id="22808"  >
               <ZoomPanKeyframes>
                <ZoomPanKeyframe id="22809" timeRangeEnd="-9999999/1" timeRangeDuration="0/1" interpolaterName=""  />
               </ZoomPanKeyframes>
              </ZoomPanBin>
             </Entry>
            </ExtraData>
           </VMFile>
           <VMFile id="22810" start="11326" duration="411" scalar="1/1" mediaStart="30756/1" mediaDuration="411/1" trackNumber="0" src="4" >
            <Transformer>
             <VectorParam id="22811"  name="translation">
              <InterpolatingParam id="22812" interp="linr"  time="-9999999/1" value="0" leadInLength="0/1"  />
              <InterpolatingParam id="22813" interp="linr"  time="-9999999/1" value="0" leadInLength="0/1"  />
              <InterpolatingParam id="22814" interp="linr"  time="-9999999/1" value="0" leadInLength="0/1"  />
             </VectorParam>
             <VectorParam id="22815"  name="rotation">
              <InterpolatingParam id="22816" interp="linr"  time="-9999999/1" value="0" leadInLength="0/1"  />
              <InterpolatingParam id="22817" interp="linr"  time="-9999999/1" value="0" leadInLength="0/1"  />
              <InterpolatingParam id="22818" interp="linr"  time="-9999999/1" value="0" leadInLength="0/1"  />
             </VectorParam>
             <VectorParam id="22819"  name="shear">
              <InterpolatingParam id="22820" interp="linr"  time="-9999999/1" value="0" leadInLength="0/1"  />
              <InterpolatingParam id="22821" interp="linr"  time="-9999999/1" value="0" leadInLength="0/1"  />
              <InterpolatingParam id="22822" interp="linr"  time="-9999999/1" value="0" leadInLength="0/1"  />
             </VectorParam>
             <VectorParam id="22823"  name="scale">
              <InterpolatingParam id="22824" interp="linr"  time="-9999999/1" value="1" leadInLength="0/1"  />
              <InterpolatingParam id="22825" interp="linr"  time="-9999999/1" value="1" leadInLength="0/1"  />
              <InterpolatingParam id="22826" interp="linr"  time="-9999999/1" value="1" leadInLength="0/1"  />
             </VectorParam>
             <VectorParam id="22827"  name="anchor">
              <InterpolatingParam id="22828" interp="linr"  time="0/1" value="0" leadInLength="0/1"  />
              <InterpolatingParam id="22829" interp="linr"  time="0/1" value="0" leadInLength="0/1"  />
              <InterpolatingParam id="22830" interp="linr"  time="0/1" value="0" leadInLength="0/1"  />
             </VectorParam>
            </Transformer>
            <Parameters>
             <VectorParam id="22831"  name="sourceCrop">
              <InterpolatingParam id="22832" interp="linr"  time="0/1" value="0" leadInLength="0/1"  />
              <InterpolatingParam id="22833" interp="linr"  time="0/1" value="0" leadInLength="0/1"  />
              <InterpolatingParam id="22834" interp="linr"  time="0/1" value="0" leadInLength="0/1"  />
              <InterpolatingParam id="22835" interp="linr"  time="0/1" value="0" leadInLength="0/1"  />
             </VectorParam>
             <VectorParam id="22836"  name="geometryCrop">
              <InterpolatingParam id="22837" interp="linr"  time="-9999999/1" value="0" leadInLength="0/1"  />
              <InterpolatingParam id="22838" interp="linr"  time="-9999999/1" value="0" leadInLength="0/1"  />
              <InterpolatingParam id="22839" interp="linr"  time="-9999999/1" value="0" leadInLength="0/1"  />
              <InterpolatingParam id="22840" interp="linr"  time="-9999999/1" value="0" leadInLength="0/1"  />
             </VectorParam>
             <InterpolatingParam id="22841" interp="linr"  time="-9999999/1" value="1" leadInLength="0/1"  name="opacity"/>
            </Parameters>
            <Attributes>
             <Attribute id="22842" value="" name="ident"/>
            </Attributes>
            <MetaData>
             <entry key="WinSubProjectDisplayName" val=""/>
            </MetaData>
            <ExtraData>
             <Entry key="ZoomPanBin">
              <ZoomPanBin id="22843"  >
               <ZoomPanKeyframes>
                <ZoomPanKeyframe id="22844" timeRangeEnd="-9999999/1" timeRangeDuration="0/1" interpolaterName=""  />
               </ZoomPanKeyframes>
              </ZoomPanBin>
             </Entry>
            </ExtraData>
           </VMFile>
          </Medias>
         </GenericTrack>
        </StitchedMedia>
        <StitchedMedia id="22845" start="5010" duration="244" scalar="24048962671104/28859689363945" mediaStart="19733253944995141/2004080222592" mediaDuration="1760441051200645/6012240667776" minMediaStart="0/1" >
         <Transformer>
          <VectorParam id="22846"  name="translation">
           <InterpolatingParam id="22847" interp="linr"  time="-9999999/1" value="0" leadInLength="0/1"  interpolater="leadin-linr"  />
           <InterpolatingParam id="22848" interp="linr"  time="-9999999/1" value="0" leadInLength="0/1"  interpolater="leadin-linr"  />
           <InterpolatingParam id="22849" interp="linr"  time="-9999999/1" value="0" leadInLength="0/1"  interpolater="leadin-linr"  />
          </VectorParam>
          <VectorParam id="22850"  name="rotation">
           <InterpolatingParam id="22851" interp="linr"  time="-9999999/1" value="0" leadInLength="0/1"  interpolater="leadin-linr"  />
           <InterpolatingParam id="22852" interp="linr"  time="-9999999/1" value="0" leadInLength="0/1"  interpolater="leadin-linr"  />
           <InterpolatingParam id="22853" interp="linr"  time="-9999999/1" value="0" leadInLength="0/1"  interpolater="leadin-linr"  />
          </VectorParam>
          <VectorParam id="22854"  name="shear">
           <InterpolatingParam id="22855" interp="linr"  time="-9999999/1" value="0" leadInLength="0/1"  interpolater="leadin-linr"  />
           <InterpolatingParam id="22856" interp="linr"  time="-9999999/1" value="0" leadInLength="0/1"  interpolater="leadin-linr"  />
           <InterpolatingParam id="22857" interp="linr"  time="-9999999/1" value="0" leadInLength="0/1"  interpolater="leadin-linr"  />
          </VectorParam>
          <VectorParam id="22858"  name="scale">
           <InterpolatingParam id="22859" interp="linr"  time="-9999999/1" value="1" leadInLength="0/1"  interpolater="leadin-linr"  />
           <InterpolatingParam id="22860" interp="linr"  time="-9999999/1" value="1" leadInLength="0/1"  interpolater="leadin-linr"  />
           <InterpolatingParam id="22861" interp="linr"  time="-9999999/1" value="1" leadInLength="0/1"  interpolater="leadin-linr"  />
          </VectorParam>
          <VectorParam id="22862"  name="anchor">
           <InterpolatingParam id="22863" interp="linr"  >
            <Keyframes>
            <Keyframe id="22864"  time="0/1" value="0" leadInLength="0/1"  />
            <Keyframe id="22865"  time="32931335377/7971776" value="0" leadInLength="0/1"  />
            <Keyframe id="22866"  time="4328/1" value="0" leadInLength="0/1"  />
            <Keyframe id="22867"  time="4457/1" value="0" leadInLength="0/1"  />
            <Keyframe id="22868"  time="46272102474146/7646783123" value="0" leadInLength="0/1"  />
            <Keyframe id="22869"  time="576460752303423488/75433993780101" value="0" leadInLength="0/1"  />
            <Keyframe id="22870"  time="600059199085213793/58267769831581" value="0" leadInLength="0/1"  />
            <Keyframe id="22871"  time="1199749202952939991/115623946533563" value="0" leadInLength="0/1"  />
            </Keyframes>
           </InterpolatingParam>
           <InterpolatingParam id="22872" interp="linr"  >
            <Keyframes>
            <Keyframe id="22873"  time="0/1" value="0" leadInLength="0/1"  />
            <Keyframe id="22874"  time="32931335377/7971776" value="0" leadInLength="0/1"  />
            <Keyframe id="22875"  time="4328/1" value="0" leadInLength="0/1"  />
            <Keyframe id="22876"  time="4457/1" value="0" leadInLength="0/1"  />
            <Keyframe id="22877"  time="46272102474146/7646783123" value="0" leadInLength="0/1"  />
            <Keyframe id="22878"  time="576460752303423488/75433993780101" value="0" leadInLength="0/1"  />
            <Keyframe id="22879"  time="600059199085213793/58267769831581" value="0" leadInLength="0/1"  />
            <Keyframe id="22880"  time="1199749202952939991/115623946533563" value="0" leadInLength="0/1"  />
            </Keyframes>
           </InterpolatingParam>
           <InterpolatingParam id="22881" interp="linr"  >
            <Keyframes>
            <Keyframe id="22882"  time="0/1" value="0" leadInLength="0/1"  />
            <Keyframe id="22883"  time="32931335377/7971776" value="0" leadInLength="0/1"  />
            <Keyframe id="22884"  time="4328/1" value="0" leadInLength="0/1"  />
            <Keyframe id="22885"  time="4457/1" value="0" leadInLength="0/1"  />
            <Keyframe id="22886"  time="46272102474146/7646783123" value="0" leadInLength="0/1"  />
            <Keyframe id="22887"  time="576460752303423488/75433993780101" value="0" leadInLength="0/1"  />
            <Keyframe id="22888"  time="600059199085213793/58267769831581" value="0" leadInLength="0/1"  />
            <Keyframe id="22889"  time="1199749202952939991/115623946533563" value="0" leadInLength="0/1"  />
            </Keyframes>
           </InterpolatingParam>
          </VectorParam>
         </Transformer>
         <Parameters>
          <VectorParam id="22890"  name="sourceCrop">
           <InterpolatingParam id="22891" interp="linr"  >
            <Keyframes>
            <Keyframe id="22892"  time="0/1" value="0" leadInLength="0/1"  />
            <Keyframe id="22893"  time="32931335377/7971776" value="0" leadInLength="0/1"  />
            <Keyframe id="22894"  time="4328/1" value="0" leadInLength="0/1"  />
            <Keyframe id="22895"  time="4457/1" value="0" leadInLength="0/1"  />
            <Keyframe id="22896"  time="46272102474146/7646783123" value="0" leadInLength="0/1"  />
            <Keyframe id="22897"  time="576460752303423488/75433993780101" value="0" leadInLength="0/1"  />
            <Keyframe id="22898"  time="600059199085213793/58267769831581" value="0" leadInLength="0/1"  />
            <Keyframe id="22899"  time="1199749202952939991/115623946533563" value="0" leadInLength="0/1"  />
            </Keyframes>
           </InterpolatingParam>
           <InterpolatingParam id="22900" interp="linr"  >
            <Keyframes>
            <Keyframe id="22901"  time="0/1" value="0" leadInLength="0/1"  />
            <Keyframe id="22902"  time="32931335377/7971776" value="0" leadInLength="0/1"  />
            <Keyframe id="22903"  time="4328/1" value="0" leadInLength="0/1"  />
            <Keyframe id="22904"  time="4457/1" value="0" leadInLength="0/1"  />
            <Keyframe id="22905"  time="46272102474146/7646783123" value="0" leadInLength="0/1"  />
            <Keyframe id="22906"  time="576460752303423488/75433993780101" value="0" leadInLength="0/1"  />
            <Keyframe id="22907"  time="600059199085213793/58267769831581" value="0" leadInLength="0/1"  />
            <Keyframe id="22908"  time="1199749202952939991/115623946533563" value="0" leadInLength="0/1"  />
            </Keyframes>
           </InterpolatingParam>
           <InterpolatingParam id="22909" interp="linr"  >
            <Keyframes>
            <Keyframe id="22910"  time="0/1" value="0" leadInLength="0/1"  />
            <Keyframe id="22911"  time="32931335377/7971776" value="0" leadInLength="0/1"  />
            <Keyframe id="22912"  time="4328/1" value="0" leadInLength="0/1"  />
            <Keyframe id="22913"  time="4457/1" value="0" leadInLength="0/1"  />
            <Keyframe id="22914"  time="46272102474146/7646783123" value="0" leadInLength="0/1"  />
            <Keyframe id="22915"  time="576460752303423488/75433993780101" value="0" leadInLength="0/1"  />
            <Keyframe id="22916"  time="600059199085213793/58267769831581" value="0" leadInLength="0/1"  />
            <Keyframe id="22917"  time="1199749202952939991/115623946533563" value="0" leadInLength="0/1"  />
            </Keyframes>
           </InterpolatingParam>
           <InterpolatingParam id="22918" interp="linr"  >
            <Keyframes>
            <Keyframe id="22919"  time="0/1" value="0" leadInLength="0/1"  />
            <Keyframe id="22920"  time="32931335377/7971776" value="0" leadInLength="0/1"  />
            <Keyframe id="22921"  time="4328/1" value="0" leadInLength="0/1"  />
            <Keyframe id="22922"  time="4457/1" value="0" leadInLength="0/1"  />
            <Keyframe id="22923"  time="46272102474146/7646783123" value="0" leadInLength="0/1"  />
            <Keyframe id="22924"  time="576460752303423488/75433993780101" value="0" leadInLength="0/1"  />
            <Keyframe id="22925"  time="600059199085213793/58267769831581" value="0" leadInLength="0/1"  />
            <Keyframe id="22926"  time="1199749202952939991/115623946533563" value="0" leadInLength="0/1"  />
            </Keyframes>
           </InterpolatingParam>
          </VectorParam>
          <VectorParam id="22927"  name="geometryCrop">
           <InterpolatingParam id="22928" interp="linr"  time="-9999999/1" value="0" leadInLength="0/1"  interpolater="leadin-linr"  />
           <InterpolatingParam id="22929" interp="linr"  time="-9999999/1" value="0" leadInLength="0/1"  interpolater="leadin-linr"  />
           <InterpolatingParam id="22930" interp="linr"  time="-9999999/1" value="0" leadInLength="0/1"  interpolater="leadin-linr"  />
           <InterpolatingParam id="22931" interp="linr"  time="-9999999/1" value="0" leadInLength="0/1"  interpolater="leadin-linr"  />
          </VectorParam>
          <InterpolatingParam id="22932" interp="linr"  time="-9999999/1" value="1" leadInLength="0/1"  interpolater="leadin-linr"  name="opacity"/>
          <InterpolatingParam id="22933" interp="linr"  time="0/1" value="1" leadInLength="0/1"  name="cursorOpacity"/>
          <InterpolatingParam id="22934" interp="linr"  time="0/1" value="1" leadInLength="0/1"  name="cursorScale"/>
          <Parameter id="22935"  name="captions"/>
         </Parameters>
         <Attributes>
          <Attribute id="22936" value="" name="ident"/>
         </Attributes>
         <MetaData>
          <entry key="WinSubProjectDisplayName" val=""/>
         </MetaData>
         <ExtraData>
          <Entry key="ZoomPanBin">
           <ZoomPanBin id="22937"  >
            <ZoomPanKeyframes>
             <ZoomPanKeyframe id="22938" timeRangeEnd="-9999999/1" timeRangeDuration="0/1" interpolaterName="linr"  />
            </ZoomPanKeyframes>
           </ZoomPanBin>
          </Entry>
          <Entry key="CursorEffectBin">
           <CursorEffectBin id="22939"  >
            <CursorEffectKeyframes>
            </CursorEffectKeyframes>
           </CursorEffectBin>
          </Entry>
         </ExtraData>
         <GenericTrack id="22940"  >
          <Attributes>
           <Attribute id="22941" value="" name="ident"/>
           <Attribute id="22942" value="0" name="audioMuted"/>
           <Attribute id="22943" value="0" name="videoHidden"/>
          </Attributes>
          <MetaData>
           <entry key="IsLocked" val="False"/>
           <entry key="WinTrackHeight" val="0"/>
          </MetaData>
          <Medias>
           <VMFile id="22944" start="0" duration="4131" scalar="1/1" mediaStart="0/1" mediaDuration="4131/1" trackNumber="0" src="4" >
            <Transformer>
             <VectorParam id="22945"  name="translation">
              <InterpolatingParam id="22946" interp="linr"  time="-9999999/1" value="0" leadInLength="0/1"  />
              <InterpolatingParam id="22947" interp="linr"  time="-9999999/1" value="0" leadInLength="0/1"  />
              <InterpolatingParam id="22948" interp="linr"  time="-9999999/1" value="0" leadInLength="0/1"  />
             </VectorParam>
             <VectorParam id="22949"  name="rotation">
              <InterpolatingParam id="22950" interp="linr"  time="-9999999/1" value="0" leadInLength="0/1"  />
              <InterpolatingParam id="22951" interp="linr"  time="-9999999/1" value="0" leadInLength="0/1"  />
              <InterpolatingParam id="22952" interp="linr"  time="-9999999/1" value="0" leadInLength="0/1"  />
             </VectorParam>
             <VectorParam id="22953"  name="shear">
              <InterpolatingParam id="22954" interp="linr"  time="-9999999/1" value="0" leadInLength="0/1"  />
              <InterpolatingParam id="22955" interp="linr"  time="-9999999/1" value="0" leadInLength="0/1"  />
              <InterpolatingParam id="22956" interp="linr"  time="-9999999/1" value="0" leadInLength="0/1"  />
             </VectorParam>
             <VectorParam id="22957"  name="scale">
              <InterpolatingParam id="22958" interp="linr"  time="-9999999/1" value="1" leadInLength="0/1"  />
              <InterpolatingParam id="22959" interp="linr"  time="-9999999/1" value="1" leadInLength="0/1"  />
              <InterpolatingParam id="22960" interp="linr"  time="-9999999/1" value="1" leadInLength="0/1"  />
             </VectorParam>
             <VectorParam id="22961"  name="anchor">
              <InterpolatingParam id="22962" interp="linr"  time="0/1" value="0" leadInLength="0/1"  />
              <InterpolatingParam id="22963" interp="linr"  time="0/1" value="0" leadInLength="0/1"  />
              <InterpolatingParam id="22964" interp="linr"  time="0/1" value="0" leadInLength="0/1"  />
             </VectorParam>
            </Transformer>
            <Parameters>
             <VectorParam id="22965"  name="sourceCrop">
              <InterpolatingParam id="22966" interp="linr"  time="0/1" value="0" leadInLength="0/1"  />
              <InterpolatingParam id="22967" interp="linr"  time="0/1" value="0" leadInLength="0/1"  />
              <InterpolatingParam id="22968" interp="linr"  time="0/1" value="0" leadInLength="0/1"  />
              <InterpolatingParam id="22969" interp="linr"  time="0/1" value="0" leadInLength="0/1"  />
             </VectorParam>
             <VectorParam id="22970"  name="geometryCrop">
              <InterpolatingParam id="22971" interp="linr"  time="-9999999/1" value="0" leadInLength="0/1"  />
              <InterpolatingParam id="22972" interp="linr"  time="-9999999/1" value="0" leadInLength="0/1"  />
              <InterpolatingParam id="22973" interp="linr"  time="-9999999/1" value="0" leadInLength="0/1"  />
              <InterpolatingParam id="22974" interp="linr"  time="-9999999/1" value="0" leadInLength="0/1"  />
             </VectorParam>
             <InterpolatingParam id="22975" interp="linr"  time="-9999999/1" value="1" leadInLength="0/1"  name="opacity"/>
            </Parameters>
            <Attributes>
             <Attribute id="22976" value="" name="ident"/>
            </Attributes>
            <MetaData>
             <entry key="WinSubProjectDisplayName" val=""/>
            </MetaData>
            <ExtraData>
             <Entry key="ZoomPanBin">
              <ZoomPanBin id="22977"  >
               <ZoomPanKeyframes>
                <ZoomPanKeyframe id="22978" timeRangeEnd="-9999999/1" timeRangeDuration="0/1" interpolaterName=""  />
               </ZoomPanKeyframes>
              </ZoomPanBin>
             </Entry>
            </ExtraData>
           </VMFile>
           <IMFile id="22979" start="4131" duration="12" scalar="1/1" mediaStart="4130/1" mediaDuration="1/1" trackNumber="0" src="4" trimStartSum="0/1" >
            <Transformer>
             <VectorParam id="22980"  name="translation">
              <InterpolatingParam id="22981" interp="linr"  time="-9999999/1" value="0" leadInLength="0/1"  />
              <InterpolatingParam id="22982" interp="linr"  time="-9999999/1" value="0" leadInLength="0/1"  />
              <InterpolatingParam id="22983" interp="linr"  time="-9999999/1" value="0" leadInLength="0/1"  />
             </VectorParam>
             <VectorParam id="22984"  name="rotation">
              <InterpolatingParam id="22985" interp="linr"  time="-9999999/1" value="0" leadInLength="0/1"  />
              <InterpolatingParam id="22986" interp="linr"  time="-9999999/1" value="0" leadInLength="0/1"  />
              <InterpolatingParam id="22987" interp="linr"  time="-9999999/1" value="0" leadInLength="0/1"  />
             </VectorParam>
             <VectorParam id="22988"  name="shear">
              <InterpolatingParam id="22989" interp="linr"  time="-9999999/1" value="0" leadInLength="0/1"  />
              <InterpolatingParam id="22990" interp="linr"  time="-9999999/1" value="0" leadInLength="0/1"  />
              <InterpolatingParam id="22991" interp="linr"  time="-9999999/1" value="0" leadInLength="0/1"  />
             </VectorParam>
             <VectorParam id="22992"  name="scale">
              <InterpolatingParam id="22993" interp="linr"  time="-9999999/1" value="1" leadInLength="0/1"  />
              <InterpolatingParam id="22994" interp="linr"  time="-9999999/1" value="1" leadInLength="0/1"  />
              <InterpolatingParam id="22995" interp="linr"  time="-9999999/1" value="1" leadInLength="0/1"  />
             </VectorParam>
             <VectorParam id="22996"  name="anchor">
              <InterpolatingParam id="22997" interp="linr"  time="0/1" value="0" leadInLength="0/1"  />
              <InterpolatingParam id="22998" interp="linr"  time="0/1" value="0" leadInLength="0/1"  />
              <InterpolatingParam id="22999" interp="linr"  time="0/1" value="0" leadInLength="0/1"  />
             </VectorParam>
            </Transformer>
            <Parameters>
             <VectorParam id="23000"  name="sourceCrop">
              <InterpolatingParam id="23001" interp="linr"  time="0/1" value="0" leadInLength="0/1"  />
              <InterpolatingParam id="23002" interp="linr"  time="0/1" value="0" leadInLength="0/1"  />
              <InterpolatingParam id="23003" interp="linr"  time="0/1" value="0" leadInLength="0/1"  />
              <InterpolatingParam id="23004" interp="linr"  time="0/1" value="0" leadInLength="0/1"  />
             </VectorParam>
             <VectorParam id="23005"  name="geometryCrop">
              <InterpolatingParam id="23006" interp="linr"  time="-9999999/1" value="0" leadInLength="0/1"  />
              <InterpolatingParam id="23007" interp="linr"  time="-9999999/1" value="0" leadInLength="0/1"  />
              <InterpolatingParam id="23008" interp="linr"  time="-9999999/1" value="0" leadInLength="0/1"  />
              <InterpolatingParam id="23009" interp="linr"  time="-9999999/1" value="0" leadInLength="0/1"  />
             </VectorParam>
             <InterpolatingParam id="23010" interp="linr"  time="-9999999/1" value="1" leadInLength="0/1"  name="opacity"/>
            </Parameters>
            <Attributes>
             <Attribute id="23011" value="" name="ident"/>
            </Attributes>
            <MetaData>
             <entry key="WinSubProjectDisplayName" val=""/>
            </MetaData>
            <ExtraData>
             <Entry key="ZoomPanBin">
              <ZoomPanBin id="23012"  >
               <ZoomPanKeyframes>
                <ZoomPanKeyframe id="23013" timeRangeEnd="-9999999/1" timeRangeDuration="0/1" interpolaterName=""  />
               </ZoomPanKeyframes>
              </ZoomPanBin>
             </Entry>
            </ExtraData>
           </IMFile>
           <VMFile id="23014" start="4143" duration="185" scalar="1/1" mediaStart="4130/1" mediaDuration="185/1" trackNumber="0" src="4" >
            <Transformer>
             <VectorParam id="23015"  name="translation">
              <InterpolatingParam id="23016" interp="linr"  time="-9999999/1" value="0" leadInLength="0/1"  />
              <InterpolatingParam id="23017" interp="linr"  time="-9999999/1" value="0" leadInLength="0/1"  />
              <InterpolatingParam id="23018" interp="linr"  time="-9999999/1" value="0" leadInLength="0/1"  />
             </VectorParam>
             <VectorParam id="23019"  name="rotation">
              <InterpolatingParam id="23020" interp="linr"  time="-9999999/1" value="0" leadInLength="0/1"  />
              <InterpolatingParam id="23021" interp="linr"  time="-9999999/1" value="0" leadInLength="0/1"  />
              <InterpolatingParam id="23022" interp="linr"  time="-9999999/1" value="0" leadInLength="0/1"  />
             </VectorParam>
             <VectorParam id="23023"  name="shear">
              <InterpolatingParam id="23024" interp="linr"  time="-9999999/1" value="0" leadInLength="0/1"  />
              <InterpolatingParam id="23025" interp="linr"  time="-9999999/1" value="0" leadInLength="0/1"  />
              <InterpolatingParam id="23026" interp="linr"  time="-9999999/1" value="0" leadInLength="0/1"  />
             </VectorParam>
             <VectorParam id="23027"  name="scale">
              <InterpolatingParam id="23028" interp="linr"  time="-9999999/1" value="1" leadInLength="0/1"  />
              <InterpolatingParam id="23029" interp="linr"  time="-9999999/1" value="1" leadInLength="0/1"  />
              <InterpolatingParam id="23030" interp="linr"  time="-9999999/1" value="1" leadInLength="0/1"  />
             </VectorParam>
             <VectorParam id="23031"  name="anchor">
              <InterpolatingParam id="23032" interp="linr"  time="0/1" value="0" leadInLength="0/1"  />
              <InterpolatingParam id="23033" interp="linr"  time="0/1" value="0" leadInLength="0/1"  />
              <InterpolatingParam id="23034" interp="linr"  time="0/1" value="0" leadInLength="0/1"  />
             </VectorParam>
            </Transformer>
            <Parameters>
             <VectorParam id="23035"  name="sourceCrop">
              <InterpolatingParam id="23036" interp="linr"  time="0/1" value="0" leadInLength="0/1"  />
              <InterpolatingParam id="23037" interp="linr"  time="0/1" value="0" leadInLength="0/1"  />
              <InterpolatingParam id="23038" interp="linr"  time="0/1" value="0" leadInLength="0/1"  />
              <InterpolatingParam id="23039" interp="linr"  time="0/1" value="0" leadInLength="0/1"  />
             </VectorParam>
             <VectorParam id="23040"  name="geometryCrop">
              <InterpolatingParam id="23041" interp="linr"  time="-9999999/1" value="0" leadInLength="0/1"  />
              <InterpolatingParam id="23042" interp="linr"  time="-9999999/1" value="0" leadInLength="0/1"  />
              <InterpolatingParam id="23043" interp="linr"  time="-9999999/1" value="0" leadInLength="0/1"  />
              <InterpolatingParam id="23044" interp="linr"  time="-9999999/1" value="0" leadInLength="0/1"  />
             </VectorParam>
             <InterpolatingParam id="23045" interp="linr"  time="-9999999/1" value="1" leadInLength="0/1"  name="opacity"/>
            </Parameters>
            <Attributes>
             <Attribute id="23046" value="" name="ident"/>
            </Attributes>
            <MetaData>
             <entry key="WinSubProjectDisplayName" val=""/>
            </MetaData>
            <ExtraData>
             <Entry key="ZoomPanBin">
              <ZoomPanBin id="23047"  >
               <ZoomPanKeyframes>
                <ZoomPanKeyframe id="23048" timeRangeEnd="-9999999/1" timeRangeDuration="0/1" interpolaterName=""  />
               </ZoomPanKeyframes>
              </ZoomPanBin>
             </Entry>
            </ExtraData>
           </VMFile>
           <IMFile id="23049" start="4328" duration="3" scalar="1/1" mediaStart="4315/1" mediaDuration="1/1" trackNumber="0" src="4" trimStartSum="0/1" >
            <Transformer>
             <VectorParam id="23050"  name="translation">
              <InterpolatingParam id="23051" interp="linr"  time="-9999999/1" value="0" leadInLength="0/1"  />
              <InterpolatingParam id="23052" interp="linr"  time="-9999999/1" value="0" leadInLength="0/1"  />
              <InterpolatingParam id="23053" interp="linr"  time="-9999999/1" value="0" leadInLength="0/1"  />
             </VectorParam>
             <VectorParam id="23054"  name="rotation">
              <InterpolatingParam id="23055" interp="linr"  time="-9999999/1" value="0" leadInLength="0/1"  />
              <InterpolatingParam id="23056" interp="linr"  time="-9999999/1" value="0" leadInLength="0/1"  />
              <InterpolatingParam id="23057" interp="linr"  time="-9999999/1" value="0" leadInLength="0/1"  />
             </VectorParam>
             <VectorParam id="23058"  name="shear">
              <InterpolatingParam id="23059" interp="linr"  time="-9999999/1" value="0" leadInLength="0/1"  />
              <InterpolatingParam id="23060" interp="linr"  time="-9999999/1" value="0" leadInLength="0/1"  />
              <InterpolatingParam id="23061" interp="linr"  time="-9999999/1" value="0" leadInLength="0/1"  />
             </VectorParam>
             <VectorParam id="23062"  name="scale">
              <InterpolatingParam id="23063" interp="linr"  time="-9999999/1" value="1" leadInLength="0/1"  />
              <InterpolatingParam id="23064" interp="linr"  time="-9999999/1" value="1" leadInLength="0/1"  />
              <InterpolatingParam id="23065" interp="linr"  time="-9999999/1" value="1" leadInLength="0/1"  />
             </VectorParam>
             <VectorParam id="23066"  name="anchor">
              <InterpolatingParam id="23067" interp="linr"  time="0/1" value="0" leadInLength="0/1"  />
              <InterpolatingParam id="23068" interp="linr"  time="0/1" value="0" leadInLength="0/1"  />
              <InterpolatingParam id="23069" interp="linr"  time="0/1" value="0" leadInLength="0/1"  />
             </VectorParam>
            </Transformer>
            <Parameters>
             <VectorParam id="23070"  name="sourceCrop">
              <InterpolatingParam id="23071" interp="linr"  time="0/1" value="0" leadInLength="0/1"  />
              <InterpolatingParam id="23072" interp="linr"  time="0/1" value="0" leadInLength="0/1"  />
              <InterpolatingParam id="23073" interp="linr"  time="0/1" value="0" leadInLength="0/1"  />
              <InterpolatingParam id="23074" interp="linr"  time="0/1" value="0" leadInLength="0/1"  />
             </VectorParam>
             <VectorParam id="23075"  name="geometryCrop">
              <InterpolatingParam id="23076" interp="linr"  time="-9999999/1" value="0" leadInLength="0/1"  />
              <InterpolatingParam id="23077" interp="linr"  time="-9999999/1" value="0" leadInLength="0/1"  />
              <InterpolatingParam id="23078" interp="linr"  time="-9999999/1" value="0" leadInLength="0/1"  />
              <InterpolatingParam id="23079" interp="linr"  time="-9999999/1" value="0" leadInLength="0/1"  />
             </VectorParam>
             <InterpolatingParam id="23080" interp="linr"  time="-9999999/1" value="1" leadInLength="0/1"  name="opacity"/>
            </Parameters>
            <Attributes>
             <Attribute id="23081" value="" name="ident"/>
            </Attributes>
            <MetaData>
             <entry key="WinSubProjectDisplayName" val=""/>
            </MetaData>
            <ExtraData>
             <Entry key="ZoomPanBin">
              <ZoomPanBin id="23082"  >
               <ZoomPanKeyframes>
                <ZoomPanKeyframe id="23083" timeRangeEnd="-9999999/1" timeRangeDuration="0/1" interpolaterName=""  />
               </ZoomPanKeyframes>
              </ZoomPanBin>
             </Entry>
            </ExtraData>
           </IMFile>
           <VMFile id="23084" start="4331" duration="31" scalar="1/1" mediaStart="4315/1" mediaDuration="31/1" trackNumber="0" src="4" >
            <Transformer>
             <VectorParam id="23085"  name="translation">
              <InterpolatingParam id="23086" interp="linr"  time="-9999999/1" value="0" leadInLength="0/1"  />
              <InterpolatingParam id="23087" interp="linr"  time="-9999999/1" value="0" leadInLength="0/1"  />
              <InterpolatingParam id="23088" interp="linr"  time="-9999999/1" value="0" leadInLength="0/1"  />
             </VectorParam>
             <VectorParam id="23089"  name="rotation">
              <InterpolatingParam id="23090" interp="linr"  time="-9999999/1" value="0" leadInLength="0/1"  />
              <InterpolatingParam id="23091" interp="linr"  time="-9999999/1" value="0" leadInLength="0/1"  />
              <InterpolatingParam id="23092" interp="linr"  time="-9999999/1" value="0" leadInLength="0/1"  />
             </VectorParam>
             <VectorParam id="23093"  name="shear">
              <InterpolatingParam id="23094" interp="linr"  time="-9999999/1" value="0" leadInLength="0/1"  />
              <InterpolatingParam id="23095" interp="linr"  time="-9999999/1" value="0" leadInLength="0/1"  />
              <InterpolatingParam id="23096" interp="linr"  time="-9999999/1" value="0" leadInLength="0/1"  />
             </VectorParam>
             <VectorParam id="23097"  name="scale">
              <InterpolatingParam id="23098" interp="linr"  time="-9999999/1" value="1" leadInLength="0/1"  />
              <InterpolatingParam id="23099" interp="linr"  time="-9999999/1" value="1" leadInLength="0/1"  />
              <InterpolatingParam id="23100" interp="linr"  time="-9999999/1" value="1" leadInLength="0/1"  />
             </VectorParam>
             <VectorParam id="23101"  name="anchor">
              <InterpolatingParam id="23102" interp="linr"  time="0/1" value="0" leadInLength="0/1"  />
              <InterpolatingParam id="23103" interp="linr"  time="0/1" value="0" leadInLength="0/1"  />
              <InterpolatingParam id="23104" interp="linr"  time="0/1" value="0" leadInLength="0/1"  />
             </VectorParam>
            </Transformer>
            <Parameters>
             <VectorParam id="23105"  name="sourceCrop">
              <InterpolatingParam id="23106" interp="linr"  time="0/1" value="0" leadInLength="0/1"  />
              <InterpolatingParam id="23107" interp="linr"  time="0/1" value="0" leadInLength="0/1"  />
              <InterpolatingParam id="23108" interp="linr"  time="0/1" value="0" leadInLength="0/1"  />
              <InterpolatingParam id="23109" interp="linr"  time="0/1" value="0" leadInLength="0/1"  />
             </VectorParam>
             <VectorParam id="23110"  name="geometryCrop">
              <InterpolatingParam id="23111" interp="linr"  time="-9999999/1" value="0" leadInLength="0/1"  />
              <InterpolatingParam id="23112" interp="linr"  time="-9999999/1" value="0" leadInLength="0/1"  />
              <InterpolatingParam id="23113" interp="linr"  time="-9999999/1" value="0" leadInLength="0/1"  />
              <InterpolatingParam id="23114" interp="linr"  time="-9999999/1" value="0" leadInLength="0/1"  />
             </VectorParam>
             <InterpolatingParam id="23115" interp="linr"  time="-9999999/1" value="1" leadInLength="0/1"  name="opacity"/>
            </Parameters>
            <Attributes>
             <Attribute id="23116" value="" name="ident"/>
            </Attributes>
            <MetaData>
             <entry key="WinSubProjectDisplayName" val=""/>
            </MetaData>
            <ExtraData>
             <Entry key="ZoomPanBin">
              <ZoomPanBin id="23117"  >
               <ZoomPanKeyframes>
                <ZoomPanKeyframe id="23118" timeRangeEnd="-9999999/1" timeRangeDuration="0/1" interpolaterName=""  />
               </ZoomPanKeyframes>
              </ZoomPanBin>
             </Entry>
            </ExtraData>
           </VMFile>
           <VMFile id="23119" start="4362" duration="95" scalar="1/1" mediaStart="4751/1" mediaDuration="95/1" trackNumber="0" src="4" >
            <Transformer>
             <VectorParam id="23120"  name="translation">
              <InterpolatingParam id="23121" interp="linr"  time="-9999999/1" value="0" leadInLength="0/1"  />
              <InterpolatingParam id="23122" interp="linr"  time="-9999999/1" value="0" leadInLength="0/1"  />
              <InterpolatingParam id="23123" interp="linr"  time="-9999999/1" value="0" leadInLength="0/1"  />
             </VectorParam>
             <VectorParam id="23124"  name="rotation">
              <InterpolatingParam id="23125" interp="linr"  time="-9999999/1" value="0" leadInLength="0/1"  />
              <InterpolatingParam id="23126" interp="linr"  time="-9999999/1" value="0" leadInLength="0/1"  />
              <InterpolatingParam id="23127" interp="linr"  time="-9999999/1" value="0" leadInLength="0/1"  />
             </VectorParam>
             <VectorParam id="23128"  name="shear">
              <InterpolatingParam id="23129" interp="linr"  time="-9999999/1" value="0" leadInLength="0/1"  />
              <InterpolatingParam id="23130" interp="linr"  time="-9999999/1" value="0" leadInLength="0/1"  />
              <InterpolatingParam id="23131" interp="linr"  time="-9999999/1" value="0" leadInLength="0/1"  />
             </VectorParam>
             <VectorParam id="23132"  name="scale">
              <InterpolatingParam id="23133" interp="linr"  time="-9999999/1" value="1" leadInLength="0/1"  />
              <InterpolatingParam id="23134" interp="linr"  time="-9999999/1" value="1" leadInLength="0/1"  />
              <InterpolatingParam id="23135" interp="linr"  time="-9999999/1" value="1" leadInLength="0/1"  />
             </VectorParam>
             <VectorParam id="23136"  name="anchor">
              <InterpolatingParam id="23137" interp="linr"  time="0/1" value="0" leadInLength="0/1"  />
              <InterpolatingParam id="23138" interp="linr"  time="0/1" value="0" leadInLength="0/1"  />
              <InterpolatingParam id="23139" interp="linr"  time="0/1" value="0" leadInLength="0/1"  />
             </VectorParam>
            </Transformer>
            <Parameters>
             <VectorParam id="23140"  name="sourceCrop">
              <InterpolatingParam id="23141" interp="linr"  time="0/1" value="0" leadInLength="0/1"  />
              <InterpolatingParam id="23142" interp="linr"  time="0/1" value="0" leadInLength="0/1"  />
              <InterpolatingParam id="23143" interp="linr"  time="0/1" value="0" leadInLength="0/1"  />
              <InterpolatingParam id="23144" interp="linr"  time="0/1" value="0" leadInLength="0/1"  />
             </VectorParam>
             <VectorParam id="23145"  name="geometryCrop">
              <InterpolatingParam id="23146" interp="linr"  time="-9999999/1" value="0" leadInLength="0/1"  />
              <InterpolatingParam id="23147" interp="linr"  time="-9999999/1" value="0" leadInLength="0/1"  />
              <InterpolatingParam id="23148" interp="linr"  time="-9999999/1" value="0" leadInLength="0/1"  />
              <InterpolatingParam id="23149" interp="linr"  time="-9999999/1" value="0" leadInLength="0/1"  />
             </VectorParam>
             <InterpolatingParam id="23150" interp="linr"  time="-9999999/1" value="1" leadInLength="0/1"  name="opacity"/>
            </Parameters>
            <Attributes>
             <Attribute id="23151" value="" name="ident"/>
            </Attributes>
            <MetaData>
             <entry key="WinSubProjectDisplayName" val=""/>
            </MetaData>
            <ExtraData>
             <Entry key="ZoomPanBin">
              <ZoomPanBin id="23152"  >
               <ZoomPanKeyframes>
                <ZoomPanKeyframe id="23153" timeRangeEnd="-9999999/1" timeRangeDuration="0/1" interpolaterName=""  />
               </ZoomPanKeyframes>
              </ZoomPanBin>
             </Entry>
            </ExtraData>
           </VMFile>
           <IMFile id="23154" start="4457" duration="270" scalar="1/1" mediaStart="4846/1" mediaDuration="1/1" trackNumber="0" src="4" trimStartSum="0/1" >
            <Transformer>
             <VectorParam id="23155"  name="translation">
              <InterpolatingParam id="23156" interp="linr"  time="-9999999/1" value="0" leadInLength="0/1"  />
              <InterpolatingParam id="23157" interp="linr"  time="-9999999/1" value="0" leadInLength="0/1"  />
              <InterpolatingParam id="23158" interp="linr"  time="-9999999/1" value="0" leadInLength="0/1"  />
             </VectorParam>
             <VectorParam id="23159"  name="rotation">
              <InterpolatingParam id="23160" interp="linr"  time="-9999999/1" value="0" leadInLength="0/1"  />
              <InterpolatingParam id="23161" interp="linr"  time="-9999999/1" value="0" leadInLength="0/1"  />
              <InterpolatingParam id="23162" interp="linr"  time="-9999999/1" value="0" leadInLength="0/1"  />
             </VectorParam>
             <VectorParam id="23163"  name="shear">
              <InterpolatingParam id="23164" interp="linr"  time="-9999999/1" value="0" leadInLength="0/1"  />
              <InterpolatingParam id="23165" interp="linr"  time="-9999999/1" value="0" leadInLength="0/1"  />
              <InterpolatingParam id="23166" interp="linr"  time="-9999999/1" value="0" leadInLength="0/1"  />
             </VectorParam>
             <VectorParam id="23167"  name="scale">
              <InterpolatingParam id="23168" interp="linr"  time="-9999999/1" value="1" leadInLength="0/1"  />
              <InterpolatingParam id="23169" interp="linr"  time="-9999999/1" value="1" leadInLength="0/1"  />
              <InterpolatingParam id="23170" interp="linr"  time="-9999999/1" value="1" leadInLength="0/1"  />
             </VectorParam>
             <VectorParam id="23171"  name="anchor">
              <InterpolatingParam id="23172" interp="linr"  time="0/1" value="0" leadInLength="0/1"  />
              <InterpolatingParam id="23173" interp="linr"  time="0/1" value="0" leadInLength="0/1"  />
              <InterpolatingParam id="23174" interp="linr"  time="0/1" value="0" leadInLength="0/1"  />
             </VectorParam>
            </Transformer>
            <Parameters>
             <VectorParam id="23175"  name="sourceCrop">
              <InterpolatingParam id="23176" interp="linr"  time="0/1" value="0" leadInLength="0/1"  />
              <InterpolatingParam id="23177" interp="linr"  time="0/1" value="0" leadInLength="0/1"  />
              <InterpolatingParam id="23178" interp="linr"  time="0/1" value="0" leadInLength="0/1"  />
              <InterpolatingParam id="23179" interp="linr"  time="0/1" value="0" leadInLength="0/1"  />
             </VectorParam>
             <VectorParam id="23180"  name="geometryCrop">
              <InterpolatingParam id="23181" interp="linr"  time="-9999999/1" value="0" leadInLength="0/1"  />
              <InterpolatingParam id="23182" interp="linr"  time="-9999999/1" value="0" leadInLength="0/1"  />
              <InterpolatingParam id="23183" interp="linr"  time="-9999999/1" value="0" leadInLength="0/1"  />
              <InterpolatingParam id="23184" interp="linr"  time="-9999999/1" value="0" leadInLength="0/1"  />
             </VectorParam>
             <InterpolatingParam id="23185" interp="linr"  time="-9999999/1" value="1" leadInLength="0/1"  name="opacity"/>
            </Parameters>
            <Attributes>
             <Attribute id="23186" value="" name="ident"/>
            </Attributes>
            <MetaData>
             <entry key="WinSubProjectDisplayName" val=""/>
            </MetaData>
            <ExtraData>
             <Entry key="ZoomPanBin">
              <ZoomPanBin id="23187"  >
               <ZoomPanKeyframes>
                <ZoomPanKeyframe id="23188" timeRangeEnd="-9999999/1" timeRangeDuration="0/1" interpolaterName=""  />
               </ZoomPanKeyframes>
              </ZoomPanBin>
             </Entry>
            </ExtraData>
           </IMFile>
           <VMFile id="23189" start="4727" duration="17" scalar="1/1" mediaStart="4846/1" mediaDuration="17/1" trackNumber="0" src="4" >
            <Transformer>
             <VectorParam id="23190"  name="translation">
              <InterpolatingParam id="23191" interp="linr"  time="-9999999/1" value="0" leadInLength="0/1"  />
              <InterpolatingParam id="23192" interp="linr"  time="-9999999/1" value="0" leadInLength="0/1"  />
              <InterpolatingParam id="23193" interp="linr"  time="-9999999/1" value="0" leadInLength="0/1"  />
             </VectorParam>
             <VectorParam id="23194"  name="rotation">
              <InterpolatingParam id="23195" interp="linr"  time="-9999999/1" value="0" leadInLength="0/1"  />
              <InterpolatingParam id="23196" interp="linr"  time="-9999999/1" value="0" leadInLength="0/1"  />
              <InterpolatingParam id="23197" interp="linr"  time="-9999999/1" value="0" leadInLength="0/1"  />
             </VectorParam>
             <VectorParam id="23198"  name="shear">
              <InterpolatingParam id="23199" interp="linr"  time="-9999999/1" value="0" leadInLength="0/1"  />
              <InterpolatingParam id="23200" interp="linr"  time="-9999999/1" value="0" leadInLength="0/1"  />
              <InterpolatingParam id="23201" interp="linr"  time="-9999999/1" value="0" leadInLength="0/1"  />
             </VectorParam>
             <VectorParam id="23202"  name="scale">
              <InterpolatingParam id="23203" interp="linr"  time="-9999999/1" value="1" leadInLength="0/1"  />
              <InterpolatingParam id="23204" interp="linr"  time="-9999999/1" value="1" leadInLength="0/1"  />
              <InterpolatingParam id="23205" interp="linr"  time="-9999999/1" value="1" leadInLength="0/1"  />
             </VectorParam>
             <VectorParam id="23206"  name="anchor">
              <InterpolatingParam id="23207" interp="linr"  time="0/1" value="0" leadInLength="0/1"  />
              <InterpolatingParam id="23208" interp="linr"  time="0/1" value="0" leadInLength="0/1"  />
              <InterpolatingParam id="23209" interp="linr"  time="0/1" value="0" leadInLength="0/1"  />
             </VectorParam>
            </Transformer>
            <Parameters>
             <VectorParam id="23210"  name="sourceCrop">
              <InterpolatingParam id="23211" interp="linr"  time="0/1" value="0" leadInLength="0/1"  />
              <InterpolatingParam id="23212" interp="linr"  time="0/1" value="0" leadInLength="0/1"  />
              <InterpolatingParam id="23213" interp="linr"  time="0/1" value="0" leadInLength="0/1"  />
              <InterpolatingParam id="23214" interp="linr"  time="0/1" value="0" leadInLength="0/1"  />
             </VectorParam>
             <VectorParam id="23215"  name="geometryCrop">
              <InterpolatingParam id="23216" interp="linr"  time="-9999999/1" value="0" leadInLength="0/1"  />
              <InterpolatingParam id="23217" interp="linr"  time="-9999999/1" value="0" leadInLength="0/1"  />
              <InterpolatingParam id="23218" interp="linr"  time="-9999999/1" value="0" leadInLength="0/1"  />
              <InterpolatingParam id="23219" interp="linr"  time="-9999999/1" value="0" leadInLength="0/1"  />
             </VectorParam>
             <InterpolatingParam id="23220" interp="linr"  time="-9999999/1" value="1" leadInLength="0/1"  name="opacity"/>
            </Parameters>
            <Attributes>
             <Attribute id="23221" value="" name="ident"/>
            </Attributes>
            <MetaData>
             <entry key="WinSubProjectDisplayName" val=""/>
            </MetaData>
            <ExtraData>
             <Entry key="ZoomPanBin">
              <ZoomPanBin id="23222"  >
               <ZoomPanKeyframes>
                <ZoomPanKeyframe id="23223" timeRangeEnd="-9999999/1" timeRangeDuration="0/1" interpolaterName=""  />
               </ZoomPanKeyframes>
              </ZoomPanBin>
             </Entry>
            </ExtraData>
           </VMFile>
           <VMFile id="23224" start="4744" duration="386" scalar="1/1" mediaStart="7805/1" mediaDuration="386/1" trackNumber="0" src="4" >
            <Transformer>
             <VectorParam id="23225"  name="translation">
              <InterpolatingParam id="23226" interp="linr"  time="-9999999/1" value="0" leadInLength="0/1"  />
              <InterpolatingParam id="23227" interp="linr"  time="-9999999/1" value="0" leadInLength="0/1"  />
              <InterpolatingParam id="23228" interp="linr"  time="-9999999/1" value="0" leadInLength="0/1"  />
             </VectorParam>
             <VectorParam id="23229"  name="rotation">
              <InterpolatingParam id="23230" interp="linr"  time="-9999999/1" value="0" leadInLength="0/1"  />
              <InterpolatingParam id="23231" interp="linr"  time="-9999999/1" value="0" leadInLength="0/1"  />
              <InterpolatingParam id="23232" interp="linr"  time="-9999999/1" value="0" leadInLength="0/1"  />
             </VectorParam>
             <VectorParam id="23233"  name="shear">
              <InterpolatingParam id="23234" interp="linr"  time="-9999999/1" value="0" leadInLength="0/1"  />
              <InterpolatingParam id="23235" interp="linr"  time="-9999999/1" value="0" leadInLength="0/1"  />
              <InterpolatingParam id="23236" interp="linr"  time="-9999999/1" value="0" leadInLength="0/1"  />
             </VectorParam>
             <VectorParam id="23237"  name="scale">
              <InterpolatingParam id="23238" interp="linr"  time="-9999999/1" value="1" leadInLength="0/1"  />
              <InterpolatingParam id="23239" interp="linr"  time="-9999999/1" value="1" leadInLength="0/1"  />
              <InterpolatingParam id="23240" interp="linr"  time="-9999999/1" value="1" leadInLength="0/1"  />
             </VectorParam>
             <VectorParam id="23241"  name="anchor">
              <InterpolatingParam id="23242" interp="linr"  time="0/1" value="0" leadInLength="0/1"  />
              <InterpolatingParam id="23243" interp="linr"  time="0/1" value="0" leadInLength="0/1"  />
              <InterpolatingParam id="23244" interp="linr"  time="0/1" value="0" leadInLength="0/1"  />
             </VectorParam>
            </Transformer>
            <Parameters>
             <VectorParam id="23245"  name="sourceCrop">
              <InterpolatingParam id="23246" interp="linr"  time="0/1" value="0" leadInLength="0/1"  />
              <InterpolatingParam id="23247" interp="linr"  time="0/1" value="0" leadInLength="0/1"  />
              <InterpolatingParam id="23248" interp="linr"  time="0/1" value="0" leadInLength="0/1"  />
              <InterpolatingParam id="23249" interp="linr"  time="0/1" value="0" leadInLength="0/1"  />
             </VectorParam>
             <VectorParam id="23250"  name="geometryCrop">
              <InterpolatingParam id="23251" interp="linr"  time="-9999999/1" value="0" leadInLength="0/1"  />
              <InterpolatingParam id="23252" interp="linr"  time="-9999999/1" value="0" leadInLength="0/1"  />
              <InterpolatingParam id="23253" interp="linr"  time="-9999999/1" value="0" leadInLength="0/1"  />
              <InterpolatingParam id="23254" interp="linr"  time="-9999999/1" value="0" leadInLength="0/1"  />
             </VectorParam>
             <InterpolatingParam id="23255" interp="linr"  time="-9999999/1" value="1" leadInLength="0/1"  name="opacity"/>
            </Parameters>
            <Attributes>
             <Attribute id="23256" value="" name="ident"/>
            </Attributes>
            <MetaData>
             <entry key="WinSubProjectDisplayName" val=""/>
            </MetaData>
            <ExtraData>
             <Entry key="ZoomPanBin">
              <ZoomPanBin id="23257"  >
               <ZoomPanKeyframes>
                <ZoomPanKeyframe id="23258" timeRangeEnd="-9999999/1" timeRangeDuration="0/1" interpolaterName=""  />
               </ZoomPanKeyframes>
              </ZoomPanBin>
             </Entry>
            </ExtraData>
           </VMFile>
           <VMFile id="23259" start="5130" duration="922" scalar="1/1" mediaStart="8371/1" mediaDuration="922/1" trackNumber="0" src="4" >
            <Transformer>
             <VectorParam id="23260"  name="translation">
              <InterpolatingParam id="23261" interp="linr"  time="-9999999/1" value="0" leadInLength="0/1"  />
              <InterpolatingParam id="23262" interp="linr"  time="-9999999/1" value="0" leadInLength="0/1"  />
              <InterpolatingParam id="23263" interp="linr"  time="-9999999/1" value="0" leadInLength="0/1"  />
             </VectorParam>
             <VectorParam id="23264"  name="rotation">
              <InterpolatingParam id="23265" interp="linr"  time="-9999999/1" value="0" leadInLength="0/1"  />
              <InterpolatingParam id="23266" interp="linr"  time="-9999999/1" value="0" leadInLength="0/1"  />
              <InterpolatingParam id="23267" interp="linr"  time="-9999999/1" value="0" leadInLength="0/1"  />
             </VectorParam>
             <VectorParam id="23268"  name="shear">
              <InterpolatingParam id="23269" interp="linr"  time="-9999999/1" value="0" leadInLength="0/1"  />
              <InterpolatingParam id="23270" interp="linr"  time="-9999999/1" value="0" leadInLength="0/1"  />
              <InterpolatingParam id="23271" interp="linr"  time="-9999999/1" value="0" leadInLength="0/1"  />
             </VectorParam>
             <VectorParam id="23272"  name="scale">
              <InterpolatingParam id="23273" interp="linr"  time="-9999999/1" value="1" leadInLength="0/1"  />
              <InterpolatingParam id="23274" interp="linr"  time="-9999999/1" value="1" leadInLength="0/1"  />
              <InterpolatingParam id="23275" interp="linr"  time="-9999999/1" value="1" leadInLength="0/1"  />
             </VectorParam>
             <VectorParam id="23276"  name="anchor">
              <InterpolatingParam id="23277" interp="linr"  time="0/1" value="0" leadInLength="0/1"  />
              <InterpolatingParam id="23278" interp="linr"  time="0/1" value="0" leadInLength="0/1"  />
              <InterpolatingParam id="23279" interp="linr"  time="0/1" value="0" leadInLength="0/1"  />
             </VectorParam>
            </Transformer>
            <Parameters>
             <VectorParam id="23280"  name="sourceCrop">
              <InterpolatingParam id="23281" interp="linr"  time="0/1" value="0" leadInLength="0/1"  />
              <InterpolatingParam id="23282" interp="linr"  time="0/1" value="0" leadInLength="0/1"  />
              <InterpolatingParam id="23283" interp="linr"  time="0/1" value="0" leadInLength="0/1"  />
              <InterpolatingParam id="23284" interp="linr"  time="0/1" value="0" leadInLength="0/1"  />
             </VectorParam>
             <VectorParam id="23285"  name="geometryCrop">
              <InterpolatingParam id="23286" interp="linr"  time="-9999999/1" value="0" leadInLength="0/1"  />
              <InterpolatingParam id="23287" interp="linr"  time="-9999999/1" value="0" leadInLength="0/1"  />
              <InterpolatingParam id="23288" interp="linr"  time="-9999999/1" value="0" leadInLength="0/1"  />
              <InterpolatingParam id="23289" interp="linr"  time="-9999999/1" value="0" leadInLength="0/1"  />
             </VectorParam>
             <InterpolatingParam id="23290" interp="linr"  time="-9999999/1" value="1" leadInLength="0/1"  name="opacity"/>
            </Parameters>
            <Attributes>
             <Attribute id="23291" value="" name="ident"/>
            </Attributes>
            <MetaData>
             <entry key="WinSubProjectDisplayName" val=""/>
            </MetaData>
            <ExtraData>
             <Entry key="ZoomPanBin">
              <ZoomPanBin id="23292"  >
               <ZoomPanKeyframes>
                <ZoomPanKeyframe id="23293" timeRangeEnd="-9999999/1" timeRangeDuration="0/1" interpolaterName=""  />
               </ZoomPanKeyframes>
              </ZoomPanBin>
             </Entry>
            </ExtraData>
           </VMFile>
           <IMFile id="23294" start="6052" duration="30" scalar="1/1" mediaStart="9292/1" mediaDuration="1/1" trackNumber="0" src="4" trimStartSum="0/1" >
            <Transformer>
             <VectorParam id="23295"  name="translation">
              <InterpolatingParam id="23296" interp="linr"  time="-9999999/1" value="0" leadInLength="0/1"  />
              <InterpolatingParam id="23297" interp="linr"  time="-9999999/1" value="0" leadInLength="0/1"  />
              <InterpolatingParam id="23298" interp="linr"  time="-9999999/1" value="0" leadInLength="0/1"  />
             </VectorParam>
             <VectorParam id="23299"  name="rotation">
              <InterpolatingParam id="23300" interp="linr"  time="-9999999/1" value="0" leadInLength="0/1"  />
              <InterpolatingParam id="23301" interp="linr"  time="-9999999/1" value="0" leadInLength="0/1"  />
              <InterpolatingParam id="23302" interp="linr"  time="-9999999/1" value="0" leadInLength="0/1"  />
             </VectorParam>
             <VectorParam id="23303"  name="shear">
              <InterpolatingParam id="23304" interp="linr"  time="-9999999/1" value="0" leadInLength="0/1"  />
              <InterpolatingParam id="23305" interp="linr"  time="-9999999/1" value="0" leadInLength="0/1"  />
              <InterpolatingParam id="23306" interp="linr"  time="-9999999/1" value="0" leadInLength="0/1"  />
             </VectorParam>
             <VectorParam id="23307"  name="scale">
              <InterpolatingParam id="23308" interp="linr"  time="-9999999/1" value="1" leadInLength="0/1"  />
              <InterpolatingParam id="23309" interp="linr"  time="-9999999/1" value="1" leadInLength="0/1"  />
              <InterpolatingParam id="23310" interp="linr"  time="-9999999/1" value="1" leadInLength="0/1"  />
             </VectorParam>
             <VectorParam id="23311"  name="anchor">
              <InterpolatingParam id="23312" interp="linr"  time="0/1" value="0" leadInLength="0/1"  />
              <InterpolatingParam id="23313" interp="linr"  time="0/1" value="0" leadInLength="0/1"  />
              <InterpolatingParam id="23314" interp="linr"  time="0/1" value="0" leadInLength="0/1"  />
             </VectorParam>
            </Transformer>
            <Parameters>
             <VectorParam id="23315"  name="sourceCrop">
              <InterpolatingParam id="23316" interp="linr"  time="0/1" value="0" leadInLength="0/1"  />
              <InterpolatingParam id="23317" interp="linr"  time="0/1" value="0" leadInLength="0/1"  />
              <InterpolatingParam id="23318" interp="linr"  time="0/1" value="0" leadInLength="0/1"  />
              <InterpolatingParam id="23319" interp="linr"  time="0/1" value="0" leadInLength="0/1"  />
             </VectorParam>
             <VectorParam id="23320"  name="geometryCrop">
              <InterpolatingParam id="23321" interp="linr"  time="-9999999/1" value="0" leadInLength="0/1"  />
              <InterpolatingParam id="23322" interp="linr"  time="-9999999/1" value="0" leadInLength="0/1"  />
              <InterpolatingParam id="23323" interp="linr"  time="-9999999/1" value="0" leadInLength="0/1"  />
              <InterpolatingParam id="23324" interp="linr"  time="-9999999/1" value="0" leadInLength="0/1"  />
             </VectorParam>
             <InterpolatingParam id="23325" interp="linr"  time="-9999999/1" value="1" leadInLength="0/1"  name="opacity"/>
            </Parameters>
            <Attributes>
             <Attribute id="23326" value="" name="ident"/>
            </Attributes>
            <MetaData>
             <entry key="WinSubProjectDisplayName" val=""/>
            </MetaData>
            <ExtraData>
             <Entry key="ZoomPanBin">
              <ZoomPanBin id="23327"  >
               <ZoomPanKeyframes>
                <ZoomPanKeyframe id="23328" timeRangeEnd="-9999999/1" timeRangeDuration="0/1" interpolaterName=""  />
               </ZoomPanKeyframes>
              </ZoomPanBin>
             </Entry>
            </ExtraData>
           </IMFile>
           <VMFile id="23329" start="6082" duration="86" scalar="1/1" mediaStart="9292/1" mediaDuration="86/1" trackNumber="0" src="4" >
            <Transformer>
             <VectorParam id="23330"  name="translation">
              <InterpolatingParam id="23331" interp="linr"  time="-9999999/1" value="0" leadInLength="0/1"  />
              <InterpolatingParam id="23332" interp="linr"  time="-9999999/1" value="0" leadInLength="0/1"  />
              <InterpolatingParam id="23333" interp="linr"  time="-9999999/1" value="0" leadInLength="0/1"  />
             </VectorParam>
             <VectorParam id="23334"  name="rotation">
              <InterpolatingParam id="23335" interp="linr"  time="-9999999/1" value="0" leadInLength="0/1"  />
              <InterpolatingParam id="23336" interp="linr"  time="-9999999/1" value="0" leadInLength="0/1"  />
              <InterpolatingParam id="23337" interp="linr"  time="-9999999/1" value="0" leadInLength="0/1"  />
             </VectorParam>
             <VectorParam id="23338"  name="shear">
              <InterpolatingParam id="23339" interp="linr"  time="-9999999/1" value="0" leadInLength="0/1"  />
              <InterpolatingParam id="23340" interp="linr"  time="-9999999/1" value="0" leadInLength="0/1"  />
              <InterpolatingParam id="23341" interp="linr"  time="-9999999/1" value="0" leadInLength="0/1"  />
             </VectorParam>
             <VectorParam id="23342"  name="scale">
              <InterpolatingParam id="23343" interp="linr"  time="-9999999/1" value="1" leadInLength="0/1"  />
              <InterpolatingParam id="23344" interp="linr"  time="-9999999/1" value="1" leadInLength="0/1"  />
              <InterpolatingParam id="23345" interp="linr"  time="-9999999/1" value="1" leadInLength="0/1"  />
             </VectorParam>
             <VectorParam id="23346"  name="anchor">
              <InterpolatingParam id="23347" interp="linr"  time="0/1" value="0" leadInLength="0/1"  />
              <InterpolatingParam id="23348" interp="linr"  time="0/1" value="0" leadInLength="0/1"  />
              <InterpolatingParam id="23349" interp="linr"  time="0/1" value="0" leadInLength="0/1"  />
             </VectorParam>
            </Transformer>
            <Parameters>
             <VectorParam id="23350"  name="sourceCrop">
              <InterpolatingParam id="23351" interp="linr"  time="0/1" value="0" leadInLength="0/1"  />
              <InterpolatingParam id="23352" interp="linr"  time="0/1" value="0" leadInLength="0/1"  />
              <InterpolatingParam id="23353" interp="linr"  time="0/1" value="0" leadInLength="0/1"  />
              <InterpolatingParam id="23354" interp="linr"  time="0/1" value="0" leadInLength="0/1"  />
             </VectorParam>
             <VectorParam id="23355"  name="geometryCrop">
              <InterpolatingParam id="23356" interp="linr"  time="-9999999/1" value="0" leadInLength="0/1"  />
              <InterpolatingParam id="23357" interp="linr"  time="-9999999/1" value="0" leadInLength="0/1"  />
              <InterpolatingParam id="23358" interp="linr"  time="-9999999/1" value="0" leadInLength="0/1"  />
              <InterpolatingParam id="23359" interp="linr"  time="-9999999/1" value="0" leadInLength="0/1"  />
             </VectorParam>
             <InterpolatingParam id="23360" interp="linr"  time="-9999999/1" value="1" leadInLength="0/1"  name="opacity"/>
            </Parameters>
            <Attributes>
             <Attribute id="23361" value="" name="ident"/>
            </Attributes>
            <MetaData>
             <entry key="WinSubProjectDisplayName" val=""/>
            </MetaData>
            <ExtraData>
             <Entry key="ZoomPanBin">
              <ZoomPanBin id="23362"  >
               <ZoomPanKeyframes>
                <ZoomPanKeyframe id="23363" timeRangeEnd="-9999999/1" timeRangeDuration="0/1" interpolaterName=""  />
               </ZoomPanKeyframes>
              </ZoomPanBin>
             </Entry>
            </ExtraData>
           </VMFile>
           <VMFile id="23364" start="6168" duration="555" scalar="1/1" mediaStart="9516/1" mediaDuration="555/1" trackNumber="0" src="4" >
            <Transformer>
             <VectorParam id="23365"  name="translation">
              <InterpolatingParam id="23366" interp="linr"  time="-9999999/1" value="0" leadInLength="0/1"  />
              <InterpolatingParam id="23367" interp="linr"  time="-9999999/1" value="0" leadInLength="0/1"  />
              <InterpolatingParam id="23368" interp="linr"  time="-9999999/1" value="0" leadInLength="0/1"  />
             </VectorParam>
             <VectorParam id="23369"  name="rotation">
              <InterpolatingParam id="23370" interp="linr"  time="-9999999/1" value="0" leadInLength="0/1"  />
              <InterpolatingParam id="23371" interp="linr"  time="-9999999/1" value="0" leadInLength="0/1"  />
              <InterpolatingParam id="23372" interp="linr"  time="-9999999/1" value="0" leadInLength="0/1"  />
             </VectorParam>
             <VectorParam id="23373"  name="shear">
              <InterpolatingParam id="23374" interp="linr"  time="-9999999/1" value="0" leadInLength="0/1"  />
              <InterpolatingParam id="23375" interp="linr"  time="-9999999/1" value="0" leadInLength="0/1"  />
              <InterpolatingParam id="23376" interp="linr"  time="-9999999/1" value="0" leadInLength="0/1"  />
             </VectorParam>
             <VectorParam id="23377"  name="scale">
              <InterpolatingParam id="23378" interp="linr"  time="-9999999/1" value="1" leadInLength="0/1"  />
              <InterpolatingParam id="23379" interp="linr"  time="-9999999/1" value="1" leadInLength="0/1"  />
              <InterpolatingParam id="23380" interp="linr"  time="-9999999/1" value="1" leadInLength="0/1"  />
             </VectorParam>
             <VectorParam id="23381"  name="anchor">
              <InterpolatingParam id="23382" interp="linr"  time="0/1" value="0" leadInLength="0/1"  />
              <InterpolatingParam id="23383" interp="linr"  time="0/1" value="0" leadInLength="0/1"  />
              <InterpolatingParam id="23384" interp="linr"  time="0/1" value="0" leadInLength="0/1"  />
             </VectorParam>
            </Transformer>
            <Parameters>
             <VectorParam id="23385"  name="sourceCrop">
              <InterpolatingParam id="23386" interp="linr"  time="0/1" value="0" leadInLength="0/1"  />
              <InterpolatingParam id="23387" interp="linr"  time="0/1" value="0" leadInLength="0/1"  />
              <InterpolatingParam id="23388" interp="linr"  time="0/1" value="0" leadInLength="0/1"  />
              <InterpolatingParam id="23389" interp="linr"  time="0/1" value="0" leadInLength="0/1"  />
             </VectorParam>
             <VectorParam id="23390"  name="geometryCrop">
              <InterpolatingParam id="23391" interp="linr"  time="-9999999/1" value="0" leadInLength="0/1"  />
              <InterpolatingParam id="23392" interp="linr"  time="-9999999/1" value="0" leadInLength="0/1"  />
              <InterpolatingParam id="23393" interp="linr"  time="-9999999/1" value="0" leadInLength="0/1"  />
              <InterpolatingParam id="23394" interp="linr"  time="-9999999/1" value="0" leadInLength="0/1"  />
             </VectorParam>
             <InterpolatingParam id="23395" interp="linr"  time="-9999999/1" value="1" leadInLength="0/1"  name="opacity"/>
            </Parameters>
            <Attributes>
             <Attribute id="23396" value="" name="ident"/>
            </Attributes>
            <MetaData>
             <entry key="WinSubProjectDisplayName" val=""/>
            </MetaData>
            <ExtraData>
             <Entry key="ZoomPanBin">
              <ZoomPanBin id="23397"  >
               <ZoomPanKeyframes>
                <ZoomPanKeyframe id="23398" timeRangeEnd="-9999999/1" timeRangeDuration="0/1" interpolaterName=""  />
               </ZoomPanKeyframes>
              </ZoomPanBin>
             </Entry>
            </ExtraData>
           </VMFile>
           <VMFile id="23399" start="6723" duration="460" scalar="1/1" mediaStart="11597/1" mediaDuration="460/1" trackNumber="0" src="4" >
            <Transformer>
             <VectorParam id="23400"  name="translation">
              <InterpolatingParam id="23401" interp="linr"  time="-9999999/1" value="0" leadInLength="0/1"  />
              <InterpolatingParam id="23402" interp="linr"  time="-9999999/1" value="0" leadInLength="0/1"  />
              <InterpolatingParam id="23403" interp="linr"  time="-9999999/1" value="0" leadInLength="0/1"  />
             </VectorParam>
             <VectorParam id="23404"  name="rotation">
              <InterpolatingParam id="23405" interp="linr"  time="-9999999/1" value="0" leadInLength="0/1"  />
              <InterpolatingParam id="23406" interp="linr"  time="-9999999/1" value="0" leadInLength="0/1"  />
              <InterpolatingParam id="23407" interp="linr"  time="-9999999/1" value="0" leadInLength="0/1"  />
             </VectorParam>
             <VectorParam id="23408"  name="shear">
              <InterpolatingParam id="23409" interp="linr"  time="-9999999/1" value="0" leadInLength="0/1"  />
              <InterpolatingParam id="23410" interp="linr"  time="-9999999/1" value="0" leadInLength="0/1"  />
              <InterpolatingParam id="23411" interp="linr"  time="-9999999/1" value="0" leadInLength="0/1"  />
             </VectorParam>
             <VectorParam id="23412"  name="scale">
              <InterpolatingParam id="23413" interp="linr"  time="-9999999/1" value="1" leadInLength="0/1"  />
              <InterpolatingParam id="23414" interp="linr"  time="-9999999/1" value="1" leadInLength="0/1"  />
              <InterpolatingParam id="23415" interp="linr"  time="-9999999/1" value="1" leadInLength="0/1"  />
             </VectorParam>
             <VectorParam id="23416"  name="anchor">
              <InterpolatingParam id="23417" interp="linr"  time="0/1" value="0" leadInLength="0/1"  />
              <InterpolatingParam id="23418" interp="linr"  time="0/1" value="0" leadInLength="0/1"  />
              <InterpolatingParam id="23419" interp="linr"  time="0/1" value="0" leadInLength="0/1"  />
             </VectorParam>
            </Transformer>
            <Parameters>
             <VectorParam id="23420"  name="sourceCrop">
              <InterpolatingParam id="23421" interp="linr"  time="0/1" value="0" leadInLength="0/1"  />
              <InterpolatingParam id="23422" interp="linr"  time="0/1" value="0" leadInLength="0/1"  />
              <InterpolatingParam id="23423" interp="linr"  time="0/1" value="0" leadInLength="0/1"  />
              <InterpolatingParam id="23424" interp="linr"  time="0/1" value="0" leadInLength="0/1"  />
             </VectorParam>
             <VectorParam id="23425"  name="geometryCrop">
              <InterpolatingParam id="23426" interp="linr"  time="-9999999/1" value="0" leadInLength="0/1"  />
              <InterpolatingParam id="23427" interp="linr"  time="-9999999/1" value="0" leadInLength="0/1"  />
              <InterpolatingParam id="23428" interp="linr"  time="-9999999/1" value="0" leadInLength="0/1"  />
              <InterpolatingParam id="23429" interp="linr"  time="-9999999/1" value="0" leadInLength="0/1"  />
             </VectorParam>
             <InterpolatingParam id="23430" interp="linr"  time="-9999999/1" value="1" leadInLength="0/1"  name="opacity"/>
            </Parameters>
            <Attributes>
             <Attribute id="23431" value="" name="ident"/>
            </Attributes>
            <MetaData>
             <entry key="WinSubProjectDisplayName" val=""/>
            </MetaData>
            <ExtraData>
             <Entry key="ZoomPanBin">
              <ZoomPanBin id="23432"  >
               <ZoomPanKeyframes>
                <ZoomPanKeyframe id="23433" timeRangeEnd="-9999999/1" timeRangeDuration="0/1" interpolaterName=""  />
               </ZoomPanKeyframes>
              </ZoomPanBin>
             </Entry>
            </ExtraData>
           </VMFile>
           <VMFile id="23434" start="7183" duration="350" scalar="1/1" mediaStart="12237/1" mediaDuration="350/1" trackNumber="0" src="4" >
            <Transformer>
             <VectorParam id="23435"  name="translation">
              <InterpolatingParam id="23436" interp="linr"  time="-9999999/1" value="0" leadInLength="0/1"  />
              <InterpolatingParam id="23437" interp="linr"  time="-9999999/1" value="0" leadInLength="0/1"  />
              <InterpolatingParam id="23438" interp="linr"  time="-9999999/1" value="0" leadInLength="0/1"  />
             </VectorParam>
             <VectorParam id="23439"  name="rotation">
              <InterpolatingParam id="23440" interp="linr"  time="-9999999/1" value="0" leadInLength="0/1"  />
              <InterpolatingParam id="23441" interp="linr"  time="-9999999/1" value="0" leadInLength="0/1"  />
              <InterpolatingParam id="23442" interp="linr"  time="-9999999/1" value="0" leadInLength="0/1"  />
             </VectorParam>
             <VectorParam id="23443"  name="shear">
              <InterpolatingParam id="23444" interp="linr"  time="-9999999/1" value="0" leadInLength="0/1"  />
              <InterpolatingParam id="23445" interp="linr"  time="-9999999/1" value="0" leadInLength="0/1"  />
              <InterpolatingParam id="23446" interp="linr"  time="-9999999/1" value="0" leadInLength="0/1"  />
             </VectorParam>
             <VectorParam id="23447"  name="scale">
              <InterpolatingParam id="23448" interp="linr"  time="-9999999/1" value="1" leadInLength="0/1"  />
              <InterpolatingParam id="23449" interp="linr"  time="-9999999/1" value="1" leadInLength="0/1"  />
              <InterpolatingParam id="23450" interp="linr"  time="-9999999/1" value="1" leadInLength="0/1"  />
             </VectorParam>
             <VectorParam id="23451"  name="anchor">
              <InterpolatingParam id="23452" interp="linr"  time="0/1" value="0" leadInLength="0/1"  />
              <InterpolatingParam id="23453" interp="linr"  time="0/1" value="0" leadInLength="0/1"  />
              <InterpolatingParam id="23454" interp="linr"  time="0/1" value="0" leadInLength="0/1"  />
             </VectorParam>
            </Transformer>
            <Parameters>
             <VectorParam id="23455"  name="sourceCrop">
              <InterpolatingParam id="23456" interp="linr"  time="0/1" value="0" leadInLength="0/1"  />
              <InterpolatingParam id="23457" interp="linr"  time="0/1" value="0" leadInLength="0/1"  />
              <InterpolatingParam id="23458" interp="linr"  time="0/1" value="0" leadInLength="0/1"  />
              <InterpolatingParam id="23459" interp="linr"  time="0/1" value="0" leadInLength="0/1"  />
             </VectorParam>
             <VectorParam id="23460"  name="geometryCrop">
              <InterpolatingParam id="23461" interp="linr"  time="-9999999/1" value="0" leadInLength="0/1"  />
              <InterpolatingParam id="23462" interp="linr"  time="-9999999/1" value="0" leadInLength="0/1"  />
              <InterpolatingParam id="23463" interp="linr"  time="-9999999/1" value="0" leadInLength="0/1"  />
              <InterpolatingParam id="23464" interp="linr"  time="-9999999/1" value="0" leadInLength="0/1"  />
             </VectorParam>
             <InterpolatingParam id="23465" interp="linr"  time="-9999999/1" value="1" leadInLength="0/1"  name="opacity"/>
            </Parameters>
            <Attributes>
             <Attribute id="23466" value="" name="ident"/>
            </Attributes>
            <MetaData>
             <entry key="WinSubProjectDisplayName" val=""/>
            </MetaData>
            <ExtraData>
             <Entry key="ZoomPanBin">
              <ZoomPanBin id="23467"  >
               <ZoomPanKeyframes>
                <ZoomPanKeyframe id="23468" timeRangeEnd="-9999999/1" timeRangeDuration="0/1" interpolaterName=""  />
               </ZoomPanKeyframes>
              </ZoomPanBin>
             </Entry>
            </ExtraData>
           </VMFile>
           <VMFile id="23469" start="7533" duration="109" scalar="1/1" mediaStart="15765/1" mediaDuration="109/1" trackNumber="0" src="4" >
            <Transformer>
             <VectorParam id="23470"  name="translation">
              <InterpolatingParam id="23471" interp="linr"  time="-9999999/1" value="0" leadInLength="0/1"  />
              <InterpolatingParam id="23472" interp="linr"  time="-9999999/1" value="0" leadInLength="0/1"  />
              <InterpolatingParam id="23473" interp="linr"  time="-9999999/1" value="0" leadInLength="0/1"  />
             </VectorParam>
             <VectorParam id="23474"  name="rotation">
              <InterpolatingParam id="23475" interp="linr"  time="-9999999/1" value="0" leadInLength="0/1"  />
              <InterpolatingParam id="23476" interp="linr"  time="-9999999/1" value="0" leadInLength="0/1"  />
              <InterpolatingParam id="23477" interp="linr"  time="-9999999/1" value="0" leadInLength="0/1"  />
             </VectorParam>
             <VectorParam id="23478"  name="shear">
              <InterpolatingParam id="23479" interp="linr"  time="-9999999/1" value="0" leadInLength="0/1"  />
              <InterpolatingParam id="23480" interp="linr"  time="-9999999/1" value="0" leadInLength="0/1"  />
              <InterpolatingParam id="23481" interp="linr"  time="-9999999/1" value="0" leadInLength="0/1"  />
             </VectorParam>
             <VectorParam id="23482"  name="scale">
              <InterpolatingParam id="23483" interp="linr"  time="-9999999/1" value="1" leadInLength="0/1"  />
              <InterpolatingParam id="23484" interp="linr"  time="-9999999/1" value="1" leadInLength="0/1"  />
              <InterpolatingParam id="23485" interp="linr"  time="-9999999/1" value="1" leadInLength="0/1"  />
             </VectorParam>
             <VectorParam id="23486"  name="anchor">
              <InterpolatingParam id="23487" interp="linr"  time="0/1" value="0" leadInLength="0/1"  />
              <InterpolatingParam id="23488" interp="linr"  time="0/1" value="0" leadInLength="0/1"  />
              <InterpolatingParam id="23489" interp="linr"  time="0/1" value="0" leadInLength="0/1"  />
             </VectorParam>
            </Transformer>
            <Parameters>
             <VectorParam id="23490"  name="sourceCrop">
              <InterpolatingParam id="23491" interp="linr"  time="0/1" value="0" leadInLength="0/1"  />
              <InterpolatingParam id="23492" interp="linr"  time="0/1" value="0" leadInLength="0/1"  />
              <InterpolatingParam id="23493" interp="linr"  time="0/1" value="0" leadInLength="0/1"  />
              <InterpolatingParam id="23494" interp="linr"  time="0/1" value="0" leadInLength="0/1"  />
             </VectorParam>
             <VectorParam id="23495"  name="geometryCrop">
              <InterpolatingParam id="23496" interp="linr"  time="-9999999/1" value="0" leadInLength="0/1"  />
              <InterpolatingParam id="23497" interp="linr"  time="-9999999/1" value="0" leadInLength="0/1"  />
              <InterpolatingParam id="23498" interp="linr"  time="-9999999/1" value="0" leadInLength="0/1"  />
              <InterpolatingParam id="23499" interp="linr"  time="-9999999/1" value="0" leadInLength="0/1"  />
             </VectorParam>
             <InterpolatingParam id="23500" interp="linr"  time="-9999999/1" value="1" leadInLength="0/1"  name="opacity"/>
            </Parameters>
            <Attributes>
             <Attribute id="23501" value="" name="ident"/>
            </Attributes>
            <MetaData>
             <entry key="WinSubProjectDisplayName" val=""/>
            </MetaData>
            <ExtraData>
             <Entry key="ZoomPanBin">
              <ZoomPanBin id="23502"  >
               <ZoomPanKeyframes>
                <ZoomPanKeyframe id="23503" timeRangeEnd="-9999999/1" timeRangeDuration="0/1" interpolaterName=""  />
               </ZoomPanKeyframes>
              </ZoomPanBin>
             </Entry>
            </ExtraData>
           </VMFile>
           <IMFile id="23504" start="7642" duration="451" scalar="1/1" mediaStart="15873/1" mediaDuration="1/1" trackNumber="0" src="4" trimStartSum="0/1" >
            <Transformer>
             <VectorParam id="23505"  name="translation">
              <InterpolatingParam id="23506" interp="linr"  time="-9999999/1" value="0" leadInLength="0/1"  />
              <InterpolatingParam id="23507" interp="linr"  time="-9999999/1" value="0" leadInLength="0/1"  />
              <InterpolatingParam id="23508" interp="linr"  time="-9999999/1" value="0" leadInLength="0/1"  />
             </VectorParam>
             <VectorParam id="23509"  name="rotation">
              <InterpolatingParam id="23510" interp="linr"  time="-9999999/1" value="0" leadInLength="0/1"  />
              <InterpolatingParam id="23511" interp="linr"  time="-9999999/1" value="0" leadInLength="0/1"  />
              <InterpolatingParam id="23512" interp="linr"  time="-9999999/1" value="0" leadInLength="0/1"  />
             </VectorParam>
             <VectorParam id="23513"  name="shear">
              <InterpolatingParam id="23514" interp="linr"  time="-9999999/1" value="0" leadInLength="0/1"  />
              <InterpolatingParam id="23515" interp="linr"  time="-9999999/1" value="0" leadInLength="0/1"  />
              <InterpolatingParam id="23516" interp="linr"  time="-9999999/1" value="0" leadInLength="0/1"  />
             </VectorParam>
             <VectorParam id="23517"  name="scale">
              <InterpolatingParam id="23518" interp="linr"  time="-9999999/1" value="1" leadInLength="0/1"  />
              <InterpolatingParam id="23519" interp="linr"  time="-9999999/1" value="1" leadInLength="0/1"  />
              <InterpolatingParam id="23520" interp="linr"  time="-9999999/1" value="1" leadInLength="0/1"  />
             </VectorParam>
             <VectorParam id="23521"  name="anchor">
              <InterpolatingParam id="23522" interp="linr"  time="0/1" value="0" leadInLength="0/1"  />
              <InterpolatingParam id="23523" interp="linr"  time="0/1" value="0" leadInLength="0/1"  />
              <InterpolatingParam id="23524" interp="linr"  time="0/1" value="0" leadInLength="0/1"  />
             </VectorParam>
            </Transformer>
            <Parameters>
             <VectorParam id="23525"  name="sourceCrop">
              <InterpolatingParam id="23526" interp="linr"  time="0/1" value="0" leadInLength="0/1"  />
              <InterpolatingParam id="23527" interp="linr"  time="0/1" value="0" leadInLength="0/1"  />
              <InterpolatingParam id="23528" interp="linr"  time="0/1" value="0" leadInLength="0/1"  />
              <InterpolatingParam id="23529" interp="linr"  time="0/1" value="0" leadInLength="0/1"  />
             </VectorParam>
             <VectorParam id="23530"  name="geometryCrop">
              <InterpolatingParam id="23531" interp="linr"  time="-9999999/1" value="0" leadInLength="0/1"  />
              <InterpolatingParam id="23532" interp="linr"  time="-9999999/1" value="0" leadInLength="0/1"  />
              <InterpolatingParam id="23533" interp="linr"  time="-9999999/1" value="0" leadInLength="0/1"  />
              <InterpolatingParam id="23534" interp="linr"  time="-9999999/1" value="0" leadInLength="0/1"  />
             </VectorParam>
             <InterpolatingParam id="23535" interp="linr"  time="-9999999/1" value="1" leadInLength="0/1"  name="opacity"/>
            </Parameters>
            <Attributes>
             <Attribute id="23536" value="" name="ident"/>
            </Attributes>
            <MetaData>
             <entry key="WinSubProjectDisplayName" val=""/>
            </MetaData>
            <ExtraData>
             <Entry key="ZoomPanBin">
              <ZoomPanBin id="23537"  >
               <ZoomPanKeyframes>
                <ZoomPanKeyframe id="23538" timeRangeEnd="-9999999/1" timeRangeDuration="0/1" interpolaterName=""  />
               </ZoomPanKeyframes>
              </ZoomPanBin>
             </Entry>
            </ExtraData>
           </IMFile>
           <VMFile id="23539" start="8093" duration="21" scalar="1/1" mediaStart="15872/1" mediaDuration="21/1" trackNumber="0" src="4" >
            <Transformer>
             <VectorParam id="23540"  name="translation">
              <InterpolatingParam id="23541" interp="linr"  time="-9999999/1" value="0" leadInLength="0/1"  />
              <InterpolatingParam id="23542" interp="linr"  time="-9999999/1" value="0" leadInLength="0/1"  />
              <InterpolatingParam id="23543" interp="linr"  time="-9999999/1" value="0" leadInLength="0/1"  />
             </VectorParam>
             <VectorParam id="23544"  name="rotation">
              <InterpolatingParam id="23545" interp="linr"  time="-9999999/1" value="0" leadInLength="0/1"  />
              <InterpolatingParam id="23546" interp="linr"  time="-9999999/1" value="0" leadInLength="0/1"  />
              <InterpolatingParam id="23547" interp="linr"  time="-9999999/1" value="0" leadInLength="0/1"  />
             </VectorParam>
             <VectorParam id="23548"  name="shear">
              <InterpolatingParam id="23549" interp="linr"  time="-9999999/1" value="0" leadInLength="0/1"  />
              <InterpolatingParam id="23550" interp="linr"  time="-9999999/1" value="0" leadInLength="0/1"  />
              <InterpolatingParam id="23551" interp="linr"  time="-9999999/1" value="0" leadInLength="0/1"  />
             </VectorParam>
             <VectorParam id="23552"  name="scale">
              <InterpolatingParam id="23553" interp="linr"  time="-9999999/1" value="1" leadInLength="0/1"  />
              <InterpolatingParam id="23554" interp="linr"  time="-9999999/1" value="1" leadInLength="0/1"  />
              <InterpolatingParam id="23555" interp="linr"  time="-9999999/1" value="1" leadInLength="0/1"  />
             </VectorParam>
             <VectorParam id="23556"  name="anchor">
              <InterpolatingParam id="23557" interp="linr"  time="0/1" value="0" leadInLength="0/1"  />
              <InterpolatingParam id="23558" interp="linr"  time="0/1" value="0" leadInLength="0/1"  />
              <InterpolatingParam id="23559" interp="linr"  time="0/1" value="0" leadInLength="0/1"  />
             </VectorParam>
            </Transformer>
            <Parameters>
             <VectorParam id="23560"  name="sourceCrop">
              <InterpolatingParam id="23561" interp="linr"  time="0/1" value="0" leadInLength="0/1"  />
              <InterpolatingParam id="23562" interp="linr"  time="0/1" value="0" leadInLength="0/1"  />
              <InterpolatingParam id="23563" interp="linr"  time="0/1" value="0" leadInLength="0/1"  />
              <InterpolatingParam id="23564" interp="linr"  time="0/1" value="0" leadInLength="0/1"  />
             </VectorParam>
             <VectorParam id="23565"  name="geometryCrop">
              <InterpolatingParam id="23566" interp="linr"  time="-9999999/1" value="0" leadInLength="0/1"  />
              <InterpolatingParam id="23567" interp="linr"  time="-9999999/1" value="0" leadInLength="0/1"  />
              <InterpolatingParam id="23568" interp="linr"  time="-9999999/1" value="0" leadInLength="0/1"  />
              <InterpolatingParam id="23569" interp="linr"  time="-9999999/1" value="0" leadInLength="0/1"  />
             </VectorParam>
             <InterpolatingParam id="23570" interp="linr"  time="-9999999/1" value="1" leadInLength="0/1"  name="opacity"/>
            </Parameters>
            <Attributes>
             <Attribute id="23571" value="" name="ident"/>
            </Attributes>
            <MetaData>
             <entry key="WinSubProjectDisplayName" val=""/>
            </MetaData>
            <ExtraData>
             <Entry key="ZoomPanBin">
              <ZoomPanBin id="23572"  >
               <ZoomPanKeyframes>
                <ZoomPanKeyframe id="23573" timeRangeEnd="-9999999/1" timeRangeDuration="0/1" interpolaterName=""  />
               </ZoomPanKeyframes>
              </ZoomPanBin>
             </Entry>
            </ExtraData>
           </VMFile>
           <VMFile id="23574" start="8114" duration="615" scalar="1/1" mediaStart="15918/1" mediaDuration="615/1" trackNumber="0" src="4" >
            <Transformer>
             <VectorParam id="23575"  name="translation">
              <InterpolatingParam id="23576" interp="linr"  time="-9999999/1" value="0" leadInLength="0/1"  />
              <InterpolatingParam id="23577" interp="linr"  time="-9999999/1" value="0" leadInLength="0/1"  />
              <InterpolatingParam id="23578" interp="linr"  time="-9999999/1" value="0" leadInLength="0/1"  />
             </VectorParam>
             <VectorParam id="23579"  name="rotation">
              <InterpolatingParam id="23580" interp="linr"  time="-9999999/1" value="0" leadInLength="0/1"  />
              <InterpolatingParam id="23581" interp="linr"  time="-9999999/1" value="0" leadInLength="0/1"  />
              <InterpolatingParam id="23582" interp="linr"  time="-9999999/1" value="0" leadInLength="0/1"  />
             </VectorParam>
             <VectorParam id="23583"  name="shear">
              <InterpolatingParam id="23584" interp="linr"  time="-9999999/1" value="0" leadInLength="0/1"  />
              <InterpolatingParam id="23585" interp="linr"  time="-9999999/1" value="0" leadInLength="0/1"  />
              <InterpolatingParam id="23586" interp="linr"  time="-9999999/1" value="0" leadInLength="0/1"  />
             </VectorParam>
             <VectorParam id="23587"  name="scale">
              <InterpolatingParam id="23588" interp="linr"  time="-9999999/1" value="1" leadInLength="0/1"  />
              <InterpolatingParam id="23589" interp="linr"  time="-9999999/1" value="1" leadInLength="0/1"  />
              <InterpolatingParam id="23590" interp="linr"  time="-9999999/1" value="1" leadInLength="0/1"  />
             </VectorParam>
             <VectorParam id="23591"  name="anchor">
              <InterpolatingParam id="23592" interp="linr"  time="0/1" value="0" leadInLength="0/1"  />
              <InterpolatingParam id="23593" interp="linr"  time="0/1" value="0" leadInLength="0/1"  />
              <InterpolatingParam id="23594" interp="linr"  time="0/1" value="0" leadInLength="0/1"  />
             </VectorParam>
            </Transformer>
            <Parameters>
             <VectorParam id="23595"  name="sourceCrop">
              <InterpolatingParam id="23596" interp="linr"  time="0/1" value="0" leadInLength="0/1"  />
              <InterpolatingParam id="23597" interp="linr"  time="0/1" value="0" leadInLength="0/1"  />
              <InterpolatingParam id="23598" interp="linr"  time="0/1" value="0" leadInLength="0/1"  />
              <InterpolatingParam id="23599" interp="linr"  time="0/1" value="0" leadInLength="0/1"  />
             </VectorParam>
             <VectorParam id="23600"  name="geometryCrop">
              <InterpolatingParam id="23601" interp="linr"  time="-9999999/1" value="0" leadInLength="0/1"  />
              <InterpolatingParam id="23602" interp="linr"  time="-9999999/1" value="0" leadInLength="0/1"  />
              <InterpolatingParam id="23603" interp="linr"  time="-9999999/1" value="0" leadInLength="0/1"  />
              <InterpolatingParam id="23604" interp="linr"  time="-9999999/1" value="0" leadInLength="0/1"  />
             </VectorParam>
             <InterpolatingParam id="23605" interp="linr"  time="-9999999/1" value="1" leadInLength="0/1"  name="opacity"/>
            </Parameters>
            <Attributes>
             <Attribute id="23606" value="" name="ident"/>
            </Attributes>
            <MetaData>
             <entry key="WinSubProjectDisplayName" val=""/>
            </MetaData>
            <ExtraData>
             <Entry key="ZoomPanBin">
              <ZoomPanBin id="23607"  >
               <ZoomPanKeyframes>
                <ZoomPanKeyframe id="23608" timeRangeEnd="-9999999/1" timeRangeDuration="0/1" interpolaterName=""  />
               </ZoomPanKeyframes>
              </ZoomPanBin>
             </Entry>
            </ExtraData>
           </VMFile>
           <VMFile id="23609" start="8729" duration="323" scalar="1/1" mediaStart="16694/1" mediaDuration="323/1" trackNumber="0" src="4" >
            <Transformer>
             <VectorParam id="23610"  name="translation">
              <InterpolatingParam id="23611" interp="linr"  time="-9999999/1" value="0" leadInLength="0/1"  />
              <InterpolatingParam id="23612" interp="linr"  time="-9999999/1" value="0" leadInLength="0/1"  />
              <InterpolatingParam id="23613" interp="linr"  time="-9999999/1" value="0" leadInLength="0/1"  />
             </VectorParam>
             <VectorParam id="23614"  name="rotation">
              <InterpolatingParam id="23615" interp="linr"  time="-9999999/1" value="0" leadInLength="0/1"  />
              <InterpolatingParam id="23616" interp="linr"  time="-9999999/1" value="0" leadInLength="0/1"  />
              <InterpolatingParam id="23617" interp="linr"  time="-9999999/1" value="0" leadInLength="0/1"  />
             </VectorParam>
             <VectorParam id="23618"  name="shear">
              <InterpolatingParam id="23619" interp="linr"  time="-9999999/1" value="0" leadInLength="0/1"  />
              <InterpolatingParam id="23620" interp="linr"  time="-9999999/1" value="0" leadInLength="0/1"  />
              <InterpolatingParam id="23621" interp="linr"  time="-9999999/1" value="0" leadInLength="0/1"  />
             </VectorParam>
             <VectorParam id="23622"  name="scale">
              <InterpolatingParam id="23623" interp="linr"  time="-9999999/1" value="1" leadInLength="0/1"  />
              <InterpolatingParam id="23624" interp="linr"  time="-9999999/1" value="1" leadInLength="0/1"  />
              <InterpolatingParam id="23625" interp="linr"  time="-9999999/1" value="1" leadInLength="0/1"  />
             </VectorParam>
             <VectorParam id="23626"  name="anchor">
              <InterpolatingParam id="23627" interp="linr"  time="0/1" value="0" leadInLength="0/1"  />
              <InterpolatingParam id="23628" interp="linr"  time="0/1" value="0" leadInLength="0/1"  />
              <InterpolatingParam id="23629" interp="linr"  time="0/1" value="0" leadInLength="0/1"  />
             </VectorParam>
            </Transformer>
            <Parameters>
             <VectorParam id="23630"  name="sourceCrop">
              <InterpolatingParam id="23631" interp="linr"  time="0/1" value="0" leadInLength="0/1"  />
              <InterpolatingParam id="23632" interp="linr"  time="0/1" value="0" leadInLength="0/1"  />
              <InterpolatingParam id="23633" interp="linr"  time="0/1" value="0" leadInLength="0/1"  />
              <InterpolatingParam id="23634" interp="linr"  time="0/1" value="0" leadInLength="0/1"  />
             </VectorParam>
             <VectorParam id="23635"  name="geometryCrop">
              <InterpolatingParam id="23636" interp="linr"  time="-9999999/1" value="0" leadInLength="0/1"  />
              <InterpolatingParam id="23637" interp="linr"  time="-9999999/1" value="0" leadInLength="0/1"  />
              <InterpolatingParam id="23638" interp="linr"  time="-9999999/1" value="0" leadInLength="0/1"  />
              <InterpolatingParam id="23639" interp="linr"  time="-9999999/1" value="0" leadInLength="0/1"  />
             </VectorParam>
             <InterpolatingParam id="23640" interp="linr"  time="-9999999/1" value="1" leadInLength="0/1"  name="opacity"/>
            </Parameters>
            <Attributes>
             <Attribute id="23641" value="" name="ident"/>
            </Attributes>
            <MetaData>
             <entry key="WinSubProjectDisplayName" val=""/>
            </MetaData>
            <ExtraData>
             <Entry key="ZoomPanBin">
              <ZoomPanBin id="23642"  >
               <ZoomPanKeyframes>
                <ZoomPanKeyframe id="23643" timeRangeEnd="-9999999/1" timeRangeDuration="0/1" interpolaterName=""  />
               </ZoomPanKeyframes>
              </ZoomPanBin>
             </Entry>
            </ExtraData>
           </VMFile>
           <VMFile id="23644" start="9052" duration="223" scalar="1/1" mediaStart="17164/1" mediaDuration="223/1" trackNumber="0" src="4" >
            <Transformer>
             <VectorParam id="23645"  name="translation">
              <InterpolatingParam id="23646" interp="linr"  time="-9999999/1" value="0" leadInLength="0/1"  />
              <InterpolatingParam id="23647" interp="linr"  time="-9999999/1" value="0" leadInLength="0/1"  />
              <InterpolatingParam id="23648" interp="linr"  time="-9999999/1" value="0" leadInLength="0/1"  />
             </VectorParam>
             <VectorParam id="23649"  name="rotation">
              <InterpolatingParam id="23650" interp="linr"  time="-9999999/1" value="0" leadInLength="0/1"  />
              <InterpolatingParam id="23651" interp="linr"  time="-9999999/1" value="0" leadInLength="0/1"  />
              <InterpolatingParam id="23652" interp="linr"  time="-9999999/1" value="0" leadInLength="0/1"  />
             </VectorParam>
             <VectorParam id="23653"  name="shear">
              <InterpolatingParam id="23654" interp="linr"  time="-9999999/1" value="0" leadInLength="0/1"  />
              <InterpolatingParam id="23655" interp="linr"  time="-9999999/1" value="0" leadInLength="0/1"  />
              <InterpolatingParam id="23656" interp="linr"  time="-9999999/1" value="0" leadInLength="0/1"  />
             </VectorParam>
             <VectorParam id="23657"  name="scale">
              <InterpolatingParam id="23658" interp="linr"  time="-9999999/1" value="1" leadInLength="0/1"  />
              <InterpolatingParam id="23659" interp="linr"  time="-9999999/1" value="1" leadInLength="0/1"  />
              <InterpolatingParam id="23660" interp="linr"  time="-9999999/1" value="1" leadInLength="0/1"  />
             </VectorParam>
             <VectorParam id="23661"  name="anchor">
              <InterpolatingParam id="23662" interp="linr"  time="0/1" value="0" leadInLength="0/1"  />
              <InterpolatingParam id="23663" interp="linr"  time="0/1" value="0" leadInLength="0/1"  />
              <InterpolatingParam id="23664" interp="linr"  time="0/1" value="0" leadInLength="0/1"  />
             </VectorParam>
            </Transformer>
            <Parameters>
             <VectorParam id="23665"  name="sourceCrop">
              <InterpolatingParam id="23666" interp="linr"  time="0/1" value="0" leadInLength="0/1"  />
              <InterpolatingParam id="23667" interp="linr"  time="0/1" value="0" leadInLength="0/1"  />
              <InterpolatingParam id="23668" interp="linr"  time="0/1" value="0" leadInLength="0/1"  />
              <InterpolatingParam id="23669" interp="linr"  time="0/1" value="0" leadInLength="0/1"  />
             </VectorParam>
             <VectorParam id="23670"  name="geometryCrop">
              <InterpolatingParam id="23671" interp="linr"  time="-9999999/1" value="0" leadInLength="0/1"  />
              <InterpolatingParam id="23672" interp="linr"  time="-9999999/1" value="0" leadInLength="0/1"  />
              <InterpolatingParam id="23673" interp="linr"  time="-9999999/1" value="0" leadInLength="0/1"  />
              <InterpolatingParam id="23674" interp="linr"  time="-9999999/1" value="0" leadInLength="0/1"  />
             </VectorParam>
             <InterpolatingParam id="23675" interp="linr"  time="-9999999/1" value="1" leadInLength="0/1"  name="opacity"/>
            </Parameters>
            <Attributes>
             <Attribute id="23676" value="" name="ident"/>
            </Attributes>
            <MetaData>
             <entry key="WinSubProjectDisplayName" val=""/>
            </MetaData>
            <ExtraData>
             <Entry key="ZoomPanBin">
              <ZoomPanBin id="23677"  >
               <ZoomPanKeyframes>
                <ZoomPanKeyframe id="23678" timeRangeEnd="-9999999/1" timeRangeDuration="0/1" interpolaterName=""  />
               </ZoomPanKeyframes>
              </ZoomPanBin>
             </Entry>
            </ExtraData>
           </VMFile>
           <VMFile id="23679" start="9275" duration="323" scalar="1/1" mediaStart="26742/1" mediaDuration="323/1" trackNumber="0" src="4" >
            <Transformer>
             <VectorParam id="23680"  name="translation">
              <InterpolatingParam id="23681" interp="linr"  time="-9999999/1" value="0" leadInLength="0/1"  />
              <InterpolatingParam id="23682" interp="linr"  time="-9999999/1" value="0" leadInLength="0/1"  />
              <InterpolatingParam id="23683" interp="linr"  time="-9999999/1" value="0" leadInLength="0/1"  />
             </VectorParam>
             <VectorParam id="23684"  name="rotation">
              <InterpolatingParam id="23685" interp="linr"  time="-9999999/1" value="0" leadInLength="0/1"  />
              <InterpolatingParam id="23686" interp="linr"  time="-9999999/1" value="0" leadInLength="0/1"  />
              <InterpolatingParam id="23687" interp="linr"  time="-9999999/1" value="0" leadInLength="0/1"  />
             </VectorParam>
             <VectorParam id="23688"  name="shear">
              <InterpolatingParam id="23689" interp="linr"  time="-9999999/1" value="0" leadInLength="0/1"  />
              <InterpolatingParam id="23690" interp="linr"  time="-9999999/1" value="0" leadInLength="0/1"  />
              <InterpolatingParam id="23691" interp="linr"  time="-9999999/1" value="0" leadInLength="0/1"  />
             </VectorParam>
             <VectorParam id="23692"  name="scale">
              <InterpolatingParam id="23693" interp="linr"  time="-9999999/1" value="1" leadInLength="0/1"  />
              <InterpolatingParam id="23694" interp="linr"  time="-9999999/1" value="1" leadInLength="0/1"  />
              <InterpolatingParam id="23695" interp="linr"  time="-9999999/1" value="1" leadInLength="0/1"  />
             </VectorParam>
             <VectorParam id="23696"  name="anchor">
              <InterpolatingParam id="23697" interp="linr"  time="0/1" value="0" leadInLength="0/1"  />
              <InterpolatingParam id="23698" interp="linr"  time="0/1" value="0" leadInLength="0/1"  />
              <InterpolatingParam id="23699" interp="linr"  time="0/1" value="0" leadInLength="0/1"  />
             </VectorParam>
            </Transformer>
            <Parameters>
             <VectorParam id="23700"  name="sourceCrop">
              <InterpolatingParam id="23701" interp="linr"  time="0/1" value="0" leadInLength="0/1"  />
              <InterpolatingParam id="23702" interp="linr"  time="0/1" value="0" leadInLength="0/1"  />
              <InterpolatingParam id="23703" interp="linr"  time="0/1" value="0" leadInLength="0/1"  />
              <InterpolatingParam id="23704" interp="linr"  time="0/1" value="0" leadInLength="0/1"  />
             </VectorParam>
             <VectorParam id="23705"  name="geometryCrop">
              <InterpolatingParam id="23706" interp="linr"  time="-9999999/1" value="0" leadInLength="0/1"  />
              <InterpolatingParam id="23707" interp="linr"  time="-9999999/1" value="0" leadInLength="0/1"  />
              <InterpolatingParam id="23708" interp="linr"  time="-9999999/1" value="0" leadInLength="0/1"  />
              <InterpolatingParam id="23709" interp="linr"  time="-9999999/1" value="0" leadInLength="0/1"  />
             </VectorParam>
             <InterpolatingParam id="23710" interp="linr"  time="-9999999/1" value="1" leadInLength="0/1"  name="opacity"/>
            </Parameters>
            <Attributes>
             <Attribute id="23711" value="" name="ident"/>
            </Attributes>
            <MetaData>
             <entry key="WinSubProjectDisplayName" val=""/>
            </MetaData>
            <ExtraData>
             <Entry key="ZoomPanBin">
              <ZoomPanBin id="23712"  >
               <ZoomPanKeyframes>
                <ZoomPanKeyframe id="23713" timeRangeEnd="-9999999/1" timeRangeDuration="0/1" interpolaterName=""  />
               </ZoomPanKeyframes>
              </ZoomPanBin>
             </Entry>
            </ExtraData>
           </VMFile>
           <VMFile id="23714" start="9598" duration="259" scalar="1/1" mediaStart="27825/1" mediaDuration="259/1" trackNumber="0" src="4" >
            <Transformer>
             <VectorParam id="23715"  name="translation">
              <InterpolatingParam id="23716" interp="linr"  time="-9999999/1" value="0" leadInLength="0/1"  />
              <InterpolatingParam id="23717" interp="linr"  time="-9999999/1" value="0" leadInLength="0/1"  />
              <InterpolatingParam id="23718" interp="linr"  time="-9999999/1" value="0" leadInLength="0/1"  />
             </VectorParam>
             <VectorParam id="23719"  name="rotation">
              <InterpolatingParam id="23720" interp="linr"  time="-9999999/1" value="0" leadInLength="0/1"  />
              <InterpolatingParam id="23721" interp="linr"  time="-9999999/1" value="0" leadInLength="0/1"  />
              <InterpolatingParam id="23722" interp="linr"  time="-9999999/1" value="0" leadInLength="0/1"  />
             </VectorParam>
             <VectorParam id="23723"  name="shear">
              <InterpolatingParam id="23724" interp="linr"  time="-9999999/1" value="0" leadInLength="0/1"  />
              <InterpolatingParam id="23725" interp="linr"  time="-9999999/1" value="0" leadInLength="0/1"  />
              <InterpolatingParam id="23726" interp="linr"  time="-9999999/1" value="0" leadInLength="0/1"  />
             </VectorParam>
             <VectorParam id="23727"  name="scale">
              <InterpolatingParam id="23728" interp="linr"  time="-9999999/1" value="1" leadInLength="0/1"  />
              <InterpolatingParam id="23729" interp="linr"  time="-9999999/1" value="1" leadInLength="0/1"  />
              <InterpolatingParam id="23730" interp="linr"  time="-9999999/1" value="1" leadInLength="0/1"  />
             </VectorParam>
             <VectorParam id="23731"  name="anchor">
              <InterpolatingParam id="23732" interp="linr"  time="0/1" value="0" leadInLength="0/1"  />
              <InterpolatingParam id="23733" interp="linr"  time="0/1" value="0" leadInLength="0/1"  />
              <InterpolatingParam id="23734" interp="linr"  time="0/1" value="0" leadInLength="0/1"  />
             </VectorParam>
            </Transformer>
            <Parameters>
             <VectorParam id="23735"  name="sourceCrop">
              <InterpolatingParam id="23736" interp="linr"  time="0/1" value="0" leadInLength="0/1"  />
              <InterpolatingParam id="23737" interp="linr"  time="0/1" value="0" leadInLength="0/1"  />
              <InterpolatingParam id="23738" interp="linr"  time="0/1" value="0" leadInLength="0/1"  />
              <InterpolatingParam id="23739" interp="linr"  time="0/1" value="0" leadInLength="0/1"  />
             </VectorParam>
             <VectorParam id="23740"  name="geometryCrop">
              <InterpolatingParam id="23741" interp="linr"  time="-9999999/1" value="0" leadInLength="0/1"  />
              <InterpolatingParam id="23742" interp="linr"  time="-9999999/1" value="0" leadInLength="0/1"  />
              <InterpolatingParam id="23743" interp="linr"  time="-9999999/1" value="0" leadInLength="0/1"  />
              <InterpolatingParam id="23744" interp="linr"  time="-9999999/1" value="0" leadInLength="0/1"  />
             </VectorParam>
             <InterpolatingParam id="23745" interp="linr"  time="-9999999/1" value="1" leadInLength="0/1"  name="opacity"/>
            </Parameters>
            <Attributes>
             <Attribute id="23746" value="" name="ident"/>
            </Attributes>
            <MetaData>
             <entry key="WinSubProjectDisplayName" val=""/>
            </MetaData>
            <ExtraData>
             <Entry key="ZoomPanBin">
              <ZoomPanBin id="23747"  >
               <ZoomPanKeyframes>
                <ZoomPanKeyframe id="23748" timeRangeEnd="-9999999/1" timeRangeDuration="0/1" interpolaterName=""  />
               </ZoomPanKeyframes>
              </ZoomPanBin>
             </Entry>
            </ExtraData>
           </VMFile>
           <VMFile id="23749" start="9857" duration="157" scalar="1/1" mediaStart="28287/1" mediaDuration="157/1" trackNumber="0" src="4" >
            <Transformer>
             <VectorParam id="23750"  name="translation">
              <InterpolatingParam id="23751" interp="linr"  time="-9999999/1" value="0" leadInLength="0/1"  />
              <InterpolatingParam id="23752" interp="linr"  time="-9999999/1" value="0" leadInLength="0/1"  />
              <InterpolatingParam id="23753" interp="linr"  time="-9999999/1" value="0" leadInLength="0/1"  />
             </VectorParam>
             <VectorParam id="23754"  name="rotation">
              <InterpolatingParam id="23755" interp="linr"  time="-9999999/1" value="0" leadInLength="0/1"  />
              <InterpolatingParam id="23756" interp="linr"  time="-9999999/1" value="0" leadInLength="0/1"  />
              <InterpolatingParam id="23757" interp="linr"  time="-9999999/1" value="0" leadInLength="0/1"  />
             </VectorParam>
             <VectorParam id="23758"  name="shear">
              <InterpolatingParam id="23759" interp="linr"  time="-9999999/1" value="0" leadInLength="0/1"  />
              <InterpolatingParam id="23760" interp="linr"  time="-9999999/1" value="0" leadInLength="0/1"  />
              <InterpolatingParam id="23761" interp="linr"  time="-9999999/1" value="0" leadInLength="0/1"  />
             </VectorParam>
             <VectorParam id="23762"  name="scale">
              <InterpolatingParam id="23763" interp="linr"  time="-9999999/1" value="1" leadInLength="0/1"  />
              <InterpolatingParam id="23764" interp="linr"  time="-9999999/1" value="1" leadInLength="0/1"  />
              <InterpolatingParam id="23765" interp="linr"  time="-9999999/1" value="1" leadInLength="0/1"  />
             </VectorParam>
             <VectorParam id="23766"  name="anchor">
              <InterpolatingParam id="23767" interp="linr"  time="0/1" value="0" leadInLength="0/1"  />
              <InterpolatingParam id="23768" interp="linr"  time="0/1" value="0" leadInLength="0/1"  />
              <InterpolatingParam id="23769" interp="linr"  time="0/1" value="0" leadInLength="0/1"  />
             </VectorParam>
            </Transformer>
            <Parameters>
             <VectorParam id="23770"  name="sourceCrop">
              <InterpolatingParam id="23771" interp="linr"  time="0/1" value="0" leadInLength="0/1"  />
              <InterpolatingParam id="23772" interp="linr"  time="0/1" value="0" leadInLength="0/1"  />
              <InterpolatingParam id="23773" interp="linr"  time="0/1" value="0" leadInLength="0/1"  />
              <InterpolatingParam id="23774" interp="linr"  time="0/1" value="0" leadInLength="0/1"  />
             </VectorParam>
             <VectorParam id="23775"  name="geometryCrop">
              <InterpolatingParam id="23776" interp="linr"  time="-9999999/1" value="0" leadInLength="0/1"  />
              <InterpolatingParam id="23777" interp="linr"  time="-9999999/1" value="0" leadInLength="0/1"  />
              <InterpolatingParam id="23778" interp="linr"  time="-9999999/1" value="0" leadInLength="0/1"  />
              <InterpolatingParam id="23779" interp="linr"  time="-9999999/1" value="0" leadInLength="0/1"  />
             </VectorParam>
             <InterpolatingParam id="23780" interp="linr"  time="-9999999/1" value="1" leadInLength="0/1"  name="opacity"/>
            </Parameters>
            <Attributes>
             <Attribute id="23781" value="" name="ident"/>
            </Attributes>
            <MetaData>
             <entry key="WinSubProjectDisplayName" val=""/>
            </MetaData>
            <ExtraData>
             <Entry key="ZoomPanBin">
              <ZoomPanBin id="23782"  >
               <ZoomPanKeyframes>
                <ZoomPanKeyframe id="23783" timeRangeEnd="-9999999/1" timeRangeDuration="0/1" interpolaterName=""  />
               </ZoomPanKeyframes>
              </ZoomPanBin>
             </Entry>
            </ExtraData>
           </VMFile>
           <VMFile id="23784" start="10014" duration="290" scalar="1/1" mediaStart="28689/1" mediaDuration="290/1" trackNumber="0" src="4" >
            <Transformer>
             <VectorParam id="23785"  name="translation">
              <InterpolatingParam id="23786" interp="linr"  time="-9999999/1" value="0" leadInLength="0/1"  />
              <InterpolatingParam id="23787" interp="linr"  time="-9999999/1" value="0" leadInLength="0/1"  />
              <InterpolatingParam id="23788" interp="linr"  time="-9999999/1" value="0" leadInLength="0/1"  />
             </VectorParam>
             <VectorParam id="23789"  name="rotation">
              <InterpolatingParam id="23790" interp="linr"  time="-9999999/1" value="0" leadInLength="0/1"  />
              <InterpolatingParam id="23791" interp="linr"  time="-9999999/1" value="0" leadInLength="0/1"  />
              <InterpolatingParam id="23792" interp="linr"  time="-9999999/1" value="0" leadInLength="0/1"  />
             </VectorParam>
             <VectorParam id="23793"  name="shear">
              <InterpolatingParam id="23794" interp="linr"  time="-9999999/1" value="0" leadInLength="0/1"  />
              <InterpolatingParam id="23795" interp="linr"  time="-9999999/1" value="0" leadInLength="0/1"  />
              <InterpolatingParam id="23796" interp="linr"  time="-9999999/1" value="0" leadInLength="0/1"  />
             </VectorParam>
             <VectorParam id="23797"  name="scale">
              <InterpolatingParam id="23798" interp="linr"  time="-9999999/1" value="1" leadInLength="0/1"  />
              <InterpolatingParam id="23799" interp="linr"  time="-9999999/1" value="1" leadInLength="0/1"  />
              <InterpolatingParam id="23800" interp="linr"  time="-9999999/1" value="1" leadInLength="0/1"  />
             </VectorParam>
             <VectorParam id="23801"  name="anchor">
              <InterpolatingParam id="23802" interp="linr"  time="0/1" value="0" leadInLength="0/1"  />
              <InterpolatingParam id="23803" interp="linr"  time="0/1" value="0" leadInLength="0/1"  />
              <InterpolatingParam id="23804" interp="linr"  time="0/1" value="0" leadInLength="0/1"  />
             </VectorParam>
            </Transformer>
            <Parameters>
             <VectorParam id="23805"  name="sourceCrop">
              <InterpolatingParam id="23806" interp="linr"  time="0/1" value="0" leadInLength="0/1"  />
              <InterpolatingParam id="23807" interp="linr"  time="0/1" value="0" leadInLength="0/1"  />
              <InterpolatingParam id="23808" interp="linr"  time="0/1" value="0" leadInLength="0/1"  />
              <InterpolatingParam id="23809" interp="linr"  time="0/1" value="0" leadInLength="0/1"  />
             </VectorParam>
             <VectorParam id="23810"  name="geometryCrop">
              <InterpolatingParam id="23811" interp="linr"  time="-9999999/1" value="0" leadInLength="0/1"  />
              <InterpolatingParam id="23812" interp="linr"  time="-9999999/1" value="0" leadInLength="0/1"  />
              <InterpolatingParam id="23813" interp="linr"  time="-9999999/1" value="0" leadInLength="0/1"  />
              <InterpolatingParam id="23814" interp="linr"  time="-9999999/1" value="0" leadInLength="0/1"  />
             </VectorParam>
             <InterpolatingParam id="23815" interp="linr"  time="-9999999/1" value="1" leadInLength="0/1"  name="opacity"/>
            </Parameters>
            <Attributes>
             <Attribute id="23816" value="" name="ident"/>
            </Attributes>
            <MetaData>
             <entry key="WinSubProjectDisplayName" val=""/>
            </MetaData>
            <ExtraData>
             <Entry key="ZoomPanBin">
              <ZoomPanBin id="23817"  >
               <ZoomPanKeyframes>
                <ZoomPanKeyframe id="23818" timeRangeEnd="-9999999/1" timeRangeDuration="0/1" interpolaterName=""  />
               </ZoomPanKeyframes>
              </ZoomPanBin>
             </Entry>
            </ExtraData>
           </VMFile>
           <IMFile id="23819" start="10304" duration="60" scalar="1/1" mediaStart="29056/1" mediaDuration="1/1" trackNumber="0" src="4" trimStartSum="0/1" >
            <Transformer>
             <VectorParam id="23820"  name="translation">
              <InterpolatingParam id="23821" interp="linr"  time="-9999999/1" value="0" leadInLength="0/1"  />
              <InterpolatingParam id="23822" interp="linr"  time="-9999999/1" value="0" leadInLength="0/1"  />
              <InterpolatingParam id="23823" interp="linr"  time="-9999999/1" value="0" leadInLength="0/1"  />
             </VectorParam>
             <VectorParam id="23824"  name="rotation">
              <InterpolatingParam id="23825" interp="linr"  time="-9999999/1" value="0" leadInLength="0/1"  />
              <InterpolatingParam id="23826" interp="linr"  time="-9999999/1" value="0" leadInLength="0/1"  />
              <InterpolatingParam id="23827" interp="linr"  time="-9999999/1" value="0" leadInLength="0/1"  />
             </VectorParam>
             <VectorParam id="23828"  name="shear">
              <InterpolatingParam id="23829" interp="linr"  time="-9999999/1" value="0" leadInLength="0/1"  />
              <InterpolatingParam id="23830" interp="linr"  time="-9999999/1" value="0" leadInLength="0/1"  />
              <InterpolatingParam id="23831" interp="linr"  time="-9999999/1" value="0" leadInLength="0/1"  />
             </VectorParam>
             <VectorParam id="23832"  name="scale">
              <InterpolatingParam id="23833" interp="linr"  time="-9999999/1" value="1" leadInLength="0/1"  />
              <InterpolatingParam id="23834" interp="linr"  time="-9999999/1" value="1" leadInLength="0/1"  />
              <InterpolatingParam id="23835" interp="linr"  time="-9999999/1" value="1" leadInLength="0/1"  />
             </VectorParam>
             <VectorParam id="23836"  name="anchor">
              <InterpolatingParam id="23837" interp="linr"  time="0/1" value="0" leadInLength="0/1"  />
              <InterpolatingParam id="23838" interp="linr"  time="0/1" value="0" leadInLength="0/1"  />
              <InterpolatingParam id="23839" interp="linr"  time="0/1" value="0" leadInLength="0/1"  />
             </VectorParam>
            </Transformer>
            <Parameters>
             <VectorParam id="23840"  name="sourceCrop">
              <InterpolatingParam id="23841" interp="linr"  time="0/1" value="0" leadInLength="0/1"  />
              <InterpolatingParam id="23842" interp="linr"  time="0/1" value="0" leadInLength="0/1"  />
              <InterpolatingParam id="23843" interp="linr"  time="0/1" value="0" leadInLength="0/1"  />
              <InterpolatingParam id="23844" interp="linr"  time="0/1" value="0" leadInLength="0/1"  />
             </VectorParam>
             <VectorParam id="23845"  name="geometryCrop">
              <InterpolatingParam id="23846" interp="linr"  time="-9999999/1" value="0" leadInLength="0/1"  />
              <InterpolatingParam id="23847" interp="linr"  time="-9999999/1" value="0" leadInLength="0/1"  />
              <InterpolatingParam id="23848" interp="linr"  time="-9999999/1" value="0" leadInLength="0/1"  />
              <InterpolatingParam id="23849" interp="linr"  time="-9999999/1" value="0" leadInLength="0/1"  />
             </VectorParam>
             <InterpolatingParam id="23850" interp="linr"  time="-9999999/1" value="1" leadInLength="0/1"  name="opacity"/>
            </Parameters>
            <Attributes>
             <Attribute id="23851" value="" name="ident"/>
            </Attributes>
            <MetaData>
             <entry key="WinSubProjectDisplayName" val=""/>
            </MetaData>
            <ExtraData>
             <Entry key="ZoomPanBin">
              <ZoomPanBin id="23852"  >
               <ZoomPanKeyframes>
                <ZoomPanKeyframe id="23853" timeRangeEnd="-9999999/1" timeRangeDuration="0/1" interpolaterName=""  />
               </ZoomPanKeyframes>
              </ZoomPanBin>
             </Entry>
            </ExtraData>
           </IMFile>
           <VMFile id="23854" start="10364" duration="18" scalar="1/1" mediaStart="29056/1" mediaDuration="18/1" trackNumber="0" src="4" >
            <Transformer>
             <VectorParam id="23855"  name="translation">
              <InterpolatingParam id="23856" interp="linr"  time="-9999999/1" value="0" leadInLength="0/1"  />
              <InterpolatingParam id="23857" interp="linr"  time="-9999999/1" value="0" leadInLength="0/1"  />
              <InterpolatingParam id="23858" interp="linr"  time="-9999999/1" value="0" leadInLength="0/1"  />
             </VectorParam>
             <VectorParam id="23859"  name="rotation">
              <InterpolatingParam id="23860" interp="linr"  time="-9999999/1" value="0" leadInLength="0/1"  />
              <InterpolatingParam id="23861" interp="linr"  time="-9999999/1" value="0" leadInLength="0/1"  />
              <InterpolatingParam id="23862" interp="linr"  time="-9999999/1" value="0" leadInLength="0/1"  />
             </VectorParam>
             <VectorParam id="23863"  name="shear">
              <InterpolatingParam id="23864" interp="linr"  time="-9999999/1" value="0" leadInLength="0/1"  />
              <InterpolatingParam id="23865" interp="linr"  time="-9999999/1" value="0" leadInLength="0/1"  />
              <InterpolatingParam id="23866" interp="linr"  time="-9999999/1" value="0" leadInLength="0/1"  />
             </VectorParam>
             <VectorParam id="23867"  name="scale">
              <InterpolatingParam id="23868" interp="linr"  time="-9999999/1" value="1" leadInLength="0/1"  />
              <InterpolatingParam id="23869" interp="linr"  time="-9999999/1" value="1" leadInLength="0/1"  />
              <InterpolatingParam id="23870" interp="linr"  time="-9999999/1" value="1" leadInLength="0/1"  />
             </VectorParam>
             <VectorParam id="23871"  name="anchor">
              <InterpolatingParam id="23872" interp="linr"  time="0/1" value="0" leadInLength="0/1"  />
              <InterpolatingParam id="23873" interp="linr"  time="0/1" value="0" leadInLength="0/1"  />
              <InterpolatingParam id="23874" interp="linr"  time="0/1" value="0" leadInLength="0/1"  />
             </VectorParam>
            </Transformer>
            <Parameters>
             <VectorParam id="23875"  name="sourceCrop">
              <InterpolatingParam id="23876" interp="linr"  time="0/1" value="0" leadInLength="0/1"  />
              <InterpolatingParam id="23877" interp="linr"  time="0/1" value="0" leadInLength="0/1"  />
              <InterpolatingParam id="23878" interp="linr"  time="0/1" value="0" leadInLength="0/1"  />
              <InterpolatingParam id="23879" interp="linr"  time="0/1" value="0" leadInLength="0/1"  />
             </VectorParam>
             <VectorParam id="23880"  name="geometryCrop">
              <InterpolatingParam id="23881" interp="linr"  time="-9999999/1" value="0" leadInLength="0/1"  />
              <InterpolatingParam id="23882" interp="linr"  time="-9999999/1" value="0" leadInLength="0/1"  />
              <InterpolatingParam id="23883" interp="linr"  time="-9999999/1" value="0" leadInLength="0/1"  />
              <InterpolatingParam id="23884" interp="linr"  time="-9999999/1" value="0" leadInLength="0/1"  />
             </VectorParam>
             <InterpolatingParam id="23885" interp="linr"  time="-9999999/1" value="1" leadInLength="0/1"  name="opacity"/>
            </Parameters>
            <Attributes>
             <Attribute id="23886" value="" name="ident"/>
            </Attributes>
            <MetaData>
             <entry key="WinSubProjectDisplayName" val=""/>
            </MetaData>
            <ExtraData>
             <Entry key="ZoomPanBin">
              <ZoomPanBin id="23887"  >
               <ZoomPanKeyframes>
                <ZoomPanKeyframe id="23888" timeRangeEnd="-9999999/1" timeRangeDuration="0/1" interpolaterName=""  />
               </ZoomPanKeyframes>
              </ZoomPanBin>
             </Entry>
            </ExtraData>
           </VMFile>
           <IMFile id="23889" start="10382" duration="30" scalar="1/1" mediaStart="29074/1" mediaDuration="1/1" trackNumber="0" src="4" trimStartSum="0/1" >
            <Transformer>
             <VectorParam id="23890"  name="translation">
              <InterpolatingParam id="23891" interp="linr"  time="-9999999/1" value="0" leadInLength="0/1"  />
              <InterpolatingParam id="23892" interp="linr"  time="-9999999/1" value="0" leadInLength="0/1"  />
              <InterpolatingParam id="23893" interp="linr"  time="-9999999/1" value="0" leadInLength="0/1"  />
             </VectorParam>
             <VectorParam id="23894"  name="rotation">
              <InterpolatingParam id="23895" interp="linr"  time="-9999999/1" value="0" leadInLength="0/1"  />
              <InterpolatingParam id="23896" interp="linr"  time="-9999999/1" value="0" leadInLength="0/1"  />
              <InterpolatingParam id="23897" interp="linr"  time="-9999999/1" value="0" leadInLength="0/1"  />
             </VectorParam>
             <VectorParam id="23898"  name="shear">
              <InterpolatingParam id="23899" interp="linr"  time="-9999999/1" value="0" leadInLength="0/1"  />
              <InterpolatingParam id="23900" interp="linr"  time="-9999999/1" value="0" leadInLength="0/1"  />
              <InterpolatingParam id="23901" interp="linr"  time="-9999999/1" value="0" leadInLength="0/1"  />
             </VectorParam>
             <VectorParam id="23902"  name="scale">
              <InterpolatingParam id="23903" interp="linr"  time="-9999999/1" value="1" leadInLength="0/1"  />
              <InterpolatingParam id="23904" interp="linr"  time="-9999999/1" value="1" leadInLength="0/1"  />
              <InterpolatingParam id="23905" interp="linr"  time="-9999999/1" value="1" leadInLength="0/1"  />
             </VectorParam>
             <VectorParam id="23906"  name="anchor">
              <InterpolatingParam id="23907" interp="linr"  time="0/1" value="0" leadInLength="0/1"  />
              <InterpolatingParam id="23908" interp="linr"  time="0/1" value="0" leadInLength="0/1"  />
              <InterpolatingParam id="23909" interp="linr"  time="0/1" value="0" leadInLength="0/1"  />
             </VectorParam>
            </Transformer>
            <Parameters>
             <VectorParam id="23910"  name="sourceCrop">
              <InterpolatingParam id="23911" interp="linr"  time="0/1" value="0" leadInLength="0/1"  />
              <InterpolatingParam id="23912" interp="linr"  time="0/1" value="0" leadInLength="0/1"  />
              <InterpolatingParam id="23913" interp="linr"  time="0/1" value="0" leadInLength="0/1"  />
              <InterpolatingParam id="23914" interp="linr"  time="0/1" value="0" leadInLength="0/1"  />
             </VectorParam>
             <VectorParam id="23915"  name="geometryCrop">
              <InterpolatingParam id="23916" interp="linr"  time="-9999999/1" value="0" leadInLength="0/1"  />
              <InterpolatingParam id="23917" interp="linr"  time="-9999999/1" value="0" leadInLength="0/1"  />
              <InterpolatingParam id="23918" interp="linr"  time="-9999999/1" value="0" leadInLength="0/1"  />
              <InterpolatingParam id="23919" interp="linr"  time="-9999999/1" value="0" leadInLength="0/1"  />
             </VectorParam>
             <InterpolatingParam id="23920" interp="linr"  time="-9999999/1" value="1" leadInLength="0/1"  name="opacity"/>
            </Parameters>
            <Attributes>
             <Attribute id="23921" value="" name="ident"/>
            </Attributes>
            <MetaData>
             <entry key="WinSubProjectDisplayName" val=""/>
            </MetaData>
            <ExtraData>
             <Entry key="ZoomPanBin">
              <ZoomPanBin id="23922"  >
               <ZoomPanKeyframes>
                <ZoomPanKeyframe id="23923" timeRangeEnd="-9999999/1" timeRangeDuration="0/1" interpolaterName=""  />
               </ZoomPanKeyframes>
              </ZoomPanBin>
             </Entry>
            </ExtraData>
           </IMFile>
           <VMFile id="23924" start="10412" duration="1" scalar="1/1" mediaStart="29074/1" mediaDuration="1/1" trackNumber="0" src="4" >
            <Transformer>
             <VectorParam id="23925"  name="translation">
              <InterpolatingParam id="23926" interp="linr"  time="-9999999/1" value="0" leadInLength="0/1"  />
              <InterpolatingParam id="23927" interp="linr"  time="-9999999/1" value="0" leadInLength="0/1"  />
              <InterpolatingParam id="23928" interp="linr"  time="-9999999/1" value="0" leadInLength="0/1"  />
             </VectorParam>
             <VectorParam id="23929"  name="rotation">
              <InterpolatingParam id="23930" interp="linr"  time="-9999999/1" value="0" leadInLength="0/1"  />
              <InterpolatingParam id="23931" interp="linr"  time="-9999999/1" value="0" leadInLength="0/1"  />
              <InterpolatingParam id="23932" interp="linr"  time="-9999999/1" value="0" leadInLength="0/1"  />
             </VectorParam>
             <VectorParam id="23933"  name="shear">
              <InterpolatingParam id="23934" interp="linr"  time="-9999999/1" value="0" leadInLength="0/1"  />
              <InterpolatingParam id="23935" interp="linr"  time="-9999999/1" value="0" leadInLength="0/1"  />
              <InterpolatingParam id="23936" interp="linr"  time="-9999999/1" value="0" leadInLength="0/1"  />
             </VectorParam>
             <VectorParam id="23937"  name="scale">
              <InterpolatingParam id="23938" interp="linr"  time="-9999999/1" value="1" leadInLength="0/1"  />
              <InterpolatingParam id="23939" interp="linr"  time="-9999999/1" value="1" leadInLength="0/1"  />
              <InterpolatingParam id="23940" interp="linr"  time="-9999999/1" value="1" leadInLength="0/1"  />
             </VectorParam>
             <VectorParam id="23941"  name="anchor">
              <InterpolatingParam id="23942" interp="linr"  time="0/1" value="0" leadInLength="0/1"  />
              <InterpolatingParam id="23943" interp="linr"  time="0/1" value="0" leadInLength="0/1"  />
              <InterpolatingParam id="23944" interp="linr"  time="0/1" value="0" leadInLength="0/1"  />
             </VectorParam>
            </Transformer>
            <Parameters>
             <VectorParam id="23945"  name="sourceCrop">
              <InterpolatingParam id="23946" interp="linr"  time="0/1" value="0" leadInLength="0/1"  />
              <InterpolatingParam id="23947" interp="linr"  time="0/1" value="0" leadInLength="0/1"  />
              <InterpolatingParam id="23948" interp="linr"  time="0/1" value="0" leadInLength="0/1"  />
              <InterpolatingParam id="23949" interp="linr"  time="0/1" value="0" leadInLength="0/1"  />
             </VectorParam>
             <VectorParam id="23950"  name="geometryCrop">
              <InterpolatingParam id="23951" interp="linr"  time="-9999999/1" value="0" leadInLength="0/1"  />
              <InterpolatingParam id="23952" interp="linr"  time="-9999999/1" value="0" leadInLength="0/1"  />
              <InterpolatingParam id="23953" interp="linr"  time="-9999999/1" value="0" leadInLength="0/1"  />
              <InterpolatingParam id="23954" interp="linr"  time="-9999999/1" value="0" leadInLength="0/1"  />
             </VectorParam>
             <InterpolatingParam id="23955" interp="linr"  time="-9999999/1" value="1" leadInLength="0/1"  name="opacity"/>
            </Parameters>
            <Attributes>
             <Attribute id="23956" value="" name="ident"/>
            </Attributes>
            <MetaData>
             <entry key="WinSubProjectDisplayName" val=""/>
            </MetaData>
            <ExtraData>
             <Entry key="ZoomPanBin">
              <ZoomPanBin id="23957"  >
               <ZoomPanKeyframes>
                <ZoomPanKeyframe id="23958" timeRangeEnd="-9999999/1" timeRangeDuration="0/1" interpolaterName=""  />
               </ZoomPanKeyframes>
              </ZoomPanBin>
             </Entry>
            </ExtraData>
           </VMFile>
           <VMFile id="23959" start="10413" duration="42" scalar="1/1" mediaStart="29274/1" mediaDuration="42/1" trackNumber="0" src="4" >
            <Transformer>
             <VectorParam id="23960"  name="translation">
              <InterpolatingParam id="23961" interp="linr"  time="-9999999/1" value="0" leadInLength="0/1"  />
              <InterpolatingParam id="23962" interp="linr"  time="-9999999/1" value="0" leadInLength="0/1"  />
              <InterpolatingParam id="23963" interp="linr"  time="-9999999/1" value="0" leadInLength="0/1"  />
             </VectorParam>
             <VectorParam id="23964"  name="rotation">
              <InterpolatingParam id="23965" interp="linr"  time="-9999999/1" value="0" leadInLength="0/1"  />
              <InterpolatingParam id="23966" interp="linr"  time="-9999999/1" value="0" leadInLength="0/1"  />
              <InterpolatingParam id="23967" interp="linr"  time="-9999999/1" value="0" leadInLength="0/1"  />
             </VectorParam>
             <VectorParam id="23968"  name="shear">
              <InterpolatingParam id="23969" interp="linr"  time="-9999999/1" value="0" leadInLength="0/1"  />
              <InterpolatingParam id="23970" interp="linr"  time="-9999999/1" value="0" leadInLength="0/1"  />
              <InterpolatingParam id="23971" interp="linr"  time="-9999999/1" value="0" leadInLength="0/1"  />
             </VectorParam>
             <VectorParam id="23972"  name="scale">
              <InterpolatingParam id="23973" interp="linr"  time="-9999999/1" value="1" leadInLength="0/1"  />
              <InterpolatingParam id="23974" interp="linr"  time="-9999999/1" value="1" leadInLength="0/1"  />
              <InterpolatingParam id="23975" interp="linr"  time="-9999999/1" value="1" leadInLength="0/1"  />
             </VectorParam>
             <VectorParam id="23976"  name="anchor">
              <InterpolatingParam id="23977" interp="linr"  time="0/1" value="0" leadInLength="0/1"  />
              <InterpolatingParam id="23978" interp="linr"  time="0/1" value="0" leadInLength="0/1"  />
              <InterpolatingParam id="23979" interp="linr"  time="0/1" value="0" leadInLength="0/1"  />
             </VectorParam>
            </Transformer>
            <Parameters>
             <VectorParam id="23980"  name="sourceCrop">
              <InterpolatingParam id="23981" interp="linr"  time="0/1" value="0" leadInLength="0/1"  />
              <InterpolatingParam id="23982" interp="linr"  time="0/1" value="0" leadInLength="0/1"  />
              <InterpolatingParam id="23983" interp="linr"  time="0/1" value="0" leadInLength="0/1"  />
              <InterpolatingParam id="23984" interp="linr"  time="0/1" value="0" leadInLength="0/1"  />
             </VectorParam>
             <VectorParam id="23985"  name="geometryCrop">
              <InterpolatingParam id="23986" interp="linr"  time="-9999999/1" value="0" leadInLength="0/1"  />
              <InterpolatingParam id="23987" interp="linr"  time="-9999999/1" value="0" leadInLength="0/1"  />
              <InterpolatingParam id="23988" interp="linr"  time="-9999999/1" value="0" leadInLength="0/1"  />
              <InterpolatingParam id="23989" interp="linr"  time="-9999999/1" value="0" leadInLength="0/1"  />
             </VectorParam>
             <InterpolatingParam id="23990" interp="linr"  time="-9999999/1" value="1" leadInLength="0/1"  name="opacity"/>
            </Parameters>
            <Attributes>
             <Attribute id="23991" value="" name="ident"/>
            </Attributes>
            <MetaData>
             <entry key="WinSubProjectDisplayName" val=""/>
            </MetaData>
            <ExtraData>
             <Entry key="ZoomPanBin">
              <ZoomPanBin id="23992"  >
               <ZoomPanKeyframes>
                <ZoomPanKeyframe id="23993" timeRangeEnd="-9999999/1" timeRangeDuration="0/1" interpolaterName=""  />
               </ZoomPanKeyframes>
              </ZoomPanBin>
             </Entry>
            </ExtraData>
           </VMFile>
           <VMFile id="23994" start="10455" duration="147" scalar="1/1" mediaStart="29358/1" mediaDuration="147/1" trackNumber="0" src="4" >
            <Transformer>
             <VectorParam id="23995"  name="translation">
              <InterpolatingParam id="23996" interp="linr"  time="-9999999/1" value="0" leadInLength="0/1"  />
              <InterpolatingParam id="23997" interp="linr"  time="-9999999/1" value="0" leadInLength="0/1"  />
              <InterpolatingParam id="23998" interp="linr"  time="-9999999/1" value="0" leadInLength="0/1"  />
             </VectorParam>
             <VectorParam id="23999"  name="rotation">
              <InterpolatingParam id="24000" interp="linr"  time="-9999999/1" value="0" leadInLength="0/1"  />
              <InterpolatingParam id="24001" interp="linr"  time="-9999999/1" value="0" leadInLength="0/1"  />
              <InterpolatingParam id="24002" interp="linr"  time="-9999999/1" value="0" leadInLength="0/1"  />
             </VectorParam>
             <VectorParam id="24003"  name="shear">
              <InterpolatingParam id="24004" interp="linr"  time="-9999999/1" value="0" leadInLength="0/1"  />
              <InterpolatingParam id="24005" interp="linr"  time="-9999999/1" value="0" leadInLength="0/1"  />
              <InterpolatingParam id="24006" interp="linr"  time="-9999999/1" value="0" leadInLength="0/1"  />
             </VectorParam>
             <VectorParam id="24007"  name="scale">
              <InterpolatingParam id="24008" interp="linr"  time="-9999999/1" value="1" leadInLength="0/1"  />
              <InterpolatingParam id="24009" interp="linr"  time="-9999999/1" value="1" leadInLength="0/1"  />
              <InterpolatingParam id="24010" interp="linr"  time="-9999999/1" value="1" leadInLength="0/1"  />
             </VectorParam>
             <VectorParam id="24011"  name="anchor">
              <InterpolatingParam id="24012" interp="linr"  time="0/1" value="0" leadInLength="0/1"  />
              <InterpolatingParam id="24013" interp="linr"  time="0/1" value="0" leadInLength="0/1"  />
              <InterpolatingParam id="24014" interp="linr"  time="0/1" value="0" leadInLength="0/1"  />
             </VectorParam>
            </Transformer>
            <Parameters>
             <VectorParam id="24015"  name="sourceCrop">
              <InterpolatingParam id="24016" interp="linr"  time="0/1" value="0" leadInLength="0/1"  />
              <InterpolatingParam id="24017" interp="linr"  time="0/1" value="0" leadInLength="0/1"  />
              <InterpolatingParam id="24018" interp="linr"  time="0/1" value="0" leadInLength="0/1"  />
              <InterpolatingParam id="24019" interp="linr"  time="0/1" value="0" leadInLength="0/1"  />
             </VectorParam>
             <VectorParam id="24020"  name="geometryCrop">
              <InterpolatingParam id="24021" interp="linr"  time="-9999999/1" value="0" leadInLength="0/1"  />
              <InterpolatingParam id="24022" interp="linr"  time="-9999999/1" value="0" leadInLength="0/1"  />
              <InterpolatingParam id="24023" interp="linr"  time="-9999999/1" value="0" leadInLength="0/1"  />
              <InterpolatingParam id="24024" interp="linr"  time="-9999999/1" value="0" leadInLength="0/1"  />
             </VectorParam>
             <InterpolatingParam id="24025" interp="linr"  time="-9999999/1" value="1" leadInLength="0/1"  name="opacity"/>
            </Parameters>
            <Attributes>
             <Attribute id="24026" value="" name="ident"/>
            </Attributes>
            <MetaData>
             <entry key="WinSubProjectDisplayName" val=""/>
            </MetaData>
            <ExtraData>
             <Entry key="ZoomPanBin">
              <ZoomPanBin id="24027"  >
               <ZoomPanKeyframes>
                <ZoomPanKeyframe id="24028" timeRangeEnd="-9999999/1" timeRangeDuration="0/1" interpolaterName=""  />
               </ZoomPanKeyframes>
              </ZoomPanBin>
             </Entry>
            </ExtraData>
           </VMFile>
           <VMFile id="24029" start="10602" duration="580" scalar="1/1" mediaStart="29557/1" mediaDuration="580/1" trackNumber="0" src="4" >
            <Transformer>
             <VectorParam id="24030"  name="translation">
              <InterpolatingParam id="24031" interp="linr"  time="-9999999/1" value="0" leadInLength="0/1"  />
              <InterpolatingParam id="24032" interp="linr"  time="-9999999/1" value="0" leadInLength="0/1"  />
              <InterpolatingParam id="24033" interp="linr"  time="-9999999/1" value="0" leadInLength="0/1"  />
             </VectorParam>
             <VectorParam id="24034"  name="rotation">
              <InterpolatingParam id="24035" interp="linr"  time="-9999999/1" value="0" leadInLength="0/1"  />
              <InterpolatingParam id="24036" interp="linr"  time="-9999999/1" value="0" leadInLength="0/1"  />
              <InterpolatingParam id="24037" interp="linr"  time="-9999999/1" value="0" leadInLength="0/1"  />
             </VectorParam>
             <VectorParam id="24038"  name="shear">
              <InterpolatingParam id="24039" interp="linr"  time="-9999999/1" value="0" leadInLength="0/1"  />
              <InterpolatingParam id="24040" interp="linr"  time="-9999999/1" value="0" leadInLength="0/1"  />
              <InterpolatingParam id="24041" interp="linr"  time="-9999999/1" value="0" leadInLength="0/1"  />
             </VectorParam>
             <VectorParam id="24042"  name="scale">
              <InterpolatingParam id="24043" interp="linr"  time="-9999999/1" value="1" leadInLength="0/1"  />
              <InterpolatingParam id="24044" interp="linr"  time="-9999999/1" value="1" leadInLength="0/1"  />
              <InterpolatingParam id="24045" interp="linr"  time="-9999999/1" value="1" leadInLength="0/1"  />
             </VectorParam>
             <VectorParam id="24046"  name="anchor">
              <InterpolatingParam id="24047" interp="linr"  time="0/1" value="0" leadInLength="0/1"  />
              <InterpolatingParam id="24048" interp="linr"  time="0/1" value="0" leadInLength="0/1"  />
              <InterpolatingParam id="24049" interp="linr"  time="0/1" value="0" leadInLength="0/1"  />
             </VectorParam>
            </Transformer>
            <Parameters>
             <VectorParam id="24050"  name="sourceCrop">
              <InterpolatingParam id="24051" interp="linr"  time="0/1" value="0" leadInLength="0/1"  />
              <InterpolatingParam id="24052" interp="linr"  time="0/1" value="0" leadInLength="0/1"  />
              <InterpolatingParam id="24053" interp="linr"  time="0/1" value="0" leadInLength="0/1"  />
              <InterpolatingParam id="24054" interp="linr"  time="0/1" value="0" leadInLength="0/1"  />
             </VectorParam>
             <VectorParam id="24055"  name="geometryCrop">
              <InterpolatingParam id="24056" interp="linr"  time="-9999999/1" value="0" leadInLength="0/1"  />
              <InterpolatingParam id="24057" interp="linr"  time="-9999999/1" value="0" leadInLength="0/1"  />
              <InterpolatingParam id="24058" interp="linr"  time="-9999999/1" value="0" leadInLength="0/1"  />
              <InterpolatingParam id="24059" interp="linr"  time="-9999999/1" value="0" leadInLength="0/1"  />
             </VectorParam>
             <InterpolatingParam id="24060" interp="linr"  time="-9999999/1" value="1" leadInLength="0/1"  name="opacity"/>
            </Parameters>
            <Attributes>
             <Attribute id="24061" value="" name="ident"/>
            </Attributes>
            <MetaData>
             <entry key="WinSubProjectDisplayName" val=""/>
            </MetaData>
            <ExtraData>
             <Entry key="ZoomPanBin">
              <ZoomPanBin id="24062"  >
               <ZoomPanKeyframes>
                <ZoomPanKeyframe id="24063" timeRangeEnd="-9999999/1" timeRangeDuration="0/1" interpolaterName=""  />
               </ZoomPanKeyframes>
              </ZoomPanBin>
             </Entry>
            </ExtraData>
           </VMFile>
           <VMFile id="24064" start="11182" duration="25" scalar="1/1" mediaStart="30200/1" mediaDuration="25/1" trackNumber="0" src="4" >
            <Transformer>
             <VectorParam id="24065"  name="translation">
              <InterpolatingParam id="24066" interp="linr"  time="-9999999/1" value="0" leadInLength="0/1"  />
              <InterpolatingParam id="24067" interp="linr"  time="-9999999/1" value="0" leadInLength="0/1"  />
              <InterpolatingParam id="24068" interp="linr"  time="-9999999/1" value="0" leadInLength="0/1"  />
             </VectorParam>
             <VectorParam id="24069"  name="rotation">
              <InterpolatingParam id="24070" interp="linr"  time="-9999999/1" value="0" leadInLength="0/1"  />
              <InterpolatingParam id="24071" interp="linr"  time="-9999999/1" value="0" leadInLength="0/1"  />
              <InterpolatingParam id="24072" interp="linr"  time="-9999999/1" value="0" leadInLength="0/1"  />
             </VectorParam>
             <VectorParam id="24073"  name="shear">
              <InterpolatingParam id="24074" interp="linr"  time="-9999999/1" value="0" leadInLength="0/1"  />
              <InterpolatingParam id="24075" interp="linr"  time="-9999999/1" value="0" leadInLength="0/1"  />
              <InterpolatingParam id="24076" interp="linr"  time="-9999999/1" value="0" leadInLength="0/1"  />
             </VectorParam>
             <VectorParam id="24077"  name="scale">
              <InterpolatingParam id="24078" interp="linr"  time="-9999999/1" value="1" leadInLength="0/1"  />
              <InterpolatingParam id="24079" interp="linr"  time="-9999999/1" value="1" leadInLength="0/1"  />
              <InterpolatingParam id="24080" interp="linr"  time="-9999999/1" value="1" leadInLength="0/1"  />
             </VectorParam>
             <VectorParam id="24081"  name="anchor">
              <InterpolatingParam id="24082" interp="linr"  time="0/1" value="0" leadInLength="0/1"  />
              <InterpolatingParam id="24083" interp="linr"  time="0/1" value="0" leadInLength="0/1"  />
              <InterpolatingParam id="24084" interp="linr"  time="0/1" value="0" leadInLength="0/1"  />
             </VectorParam>
            </Transformer>
            <Parameters>
             <VectorParam id="24085"  name="sourceCrop">
              <InterpolatingParam id="24086" interp="linr"  time="0/1" value="0" leadInLength="0/1"  />
              <InterpolatingParam id="24087" interp="linr"  time="0/1" value="0" leadInLength="0/1"  />
              <InterpolatingParam id="24088" interp="linr"  time="0/1" value="0" leadInLength="0/1"  />
              <InterpolatingParam id="24089" interp="linr"  time="0/1" value="0" leadInLength="0/1"  />
             </VectorParam>
             <VectorParam id="24090"  name="geometryCrop">
              <InterpolatingParam id="24091" interp="linr"  time="-9999999/1" value="0" leadInLength="0/1"  />
              <InterpolatingParam id="24092" interp="linr"  time="-9999999/1" value="0" leadInLength="0/1"  />
              <InterpolatingParam id="24093" interp="linr"  time="-9999999/1" value="0" leadInLength="0/1"  />
              <InterpolatingParam id="24094" interp="linr"  time="-9999999/1" value="0" leadInLength="0/1"  />
             </VectorParam>
             <InterpolatingParam id="24095" interp="linr"  time="-9999999/1" value="1" leadInLength="0/1"  name="opacity"/>
            </Parameters>
            <Attributes>
             <Attribute id="24096" value="" name="ident"/>
            </Attributes>
            <MetaData>
             <entry key="WinSubProjectDisplayName" val=""/>
            </MetaData>
            <ExtraData>
             <Entry key="ZoomPanBin">
              <ZoomPanBin id="24097"  >
               <ZoomPanKeyframes>
                <ZoomPanKeyframe id="24098" timeRangeEnd="-9999999/1" timeRangeDuration="0/1" interpolaterName=""  />
               </ZoomPanKeyframes>
              </ZoomPanBin>
             </Entry>
            </ExtraData>
           </VMFile>
           <VMFile id="24099" start="11207" duration="119" scalar="1/1" mediaStart="30368/1" mediaDuration="119/1" trackNumber="0" src="4" >
            <Transformer>
             <VectorParam id="24100"  name="translation">
              <InterpolatingParam id="24101" interp="linr"  time="-9999999/1" value="0" leadInLength="0/1"  />
              <InterpolatingParam id="24102" interp="linr"  time="-9999999/1" value="0" leadInLength="0/1"  />
              <InterpolatingParam id="24103" interp="linr"  time="-9999999/1" value="0" leadInLength="0/1"  />
             </VectorParam>
             <VectorParam id="24104"  name="rotation">
              <InterpolatingParam id="24105" interp="linr"  time="-9999999/1" value="0" leadInLength="0/1"  />
              <InterpolatingParam id="24106" interp="linr"  time="-9999999/1" value="0" leadInLength="0/1"  />
              <InterpolatingParam id="24107" interp="linr"  time="-9999999/1" value="0" leadInLength="0/1"  />
             </VectorParam>
             <VectorParam id="24108"  name="shear">
              <InterpolatingParam id="24109" interp="linr"  time="-9999999/1" value="0" leadInLength="0/1"  />
              <InterpolatingParam id="24110" interp="linr"  time="-9999999/1" value="0" leadInLength="0/1"  />
              <InterpolatingParam id="24111" interp="linr"  time="-9999999/1" value="0" leadInLength="0/1"  />
             </VectorParam>
             <VectorParam id="24112"  name="scale">
              <InterpolatingParam id="24113" interp="linr"  time="-9999999/1" value="1" leadInLength="0/1"  />
              <InterpolatingParam id="24114" interp="linr"  time="-9999999/1" value="1" leadInLength="0/1"  />
              <InterpolatingParam id="24115" interp="linr"  time="-9999999/1" value="1" leadInLength="0/1"  />
             </VectorParam>
             <VectorParam id="24116"  name="anchor">
              <InterpolatingParam id="24117" interp="linr"  time="0/1" value="0" leadInLength="0/1"  />
              <InterpolatingParam id="24118" interp="linr"  time="0/1" value="0" leadInLength="0/1"  />
              <InterpolatingParam id="24119" interp="linr"  time="0/1" value="0" leadInLength="0/1"  />
             </VectorParam>
            </Transformer>
            <Parameters>
             <VectorParam id="24120"  name="sourceCrop">
              <InterpolatingParam id="24121" interp="linr"  time="0/1" value="0" leadInLength="0/1"  />
              <InterpolatingParam id="24122" interp="linr"  time="0/1" value="0" leadInLength="0/1"  />
              <InterpolatingParam id="24123" interp="linr"  time="0/1" value="0" leadInLength="0/1"  />
              <InterpolatingParam id="24124" interp="linr"  time="0/1" value="0" leadInLength="0/1"  />
             </VectorParam>
             <VectorParam id="24125"  name="geometryCrop">
              <InterpolatingParam id="24126" interp="linr"  time="-9999999/1" value="0" leadInLength="0/1"  />
              <InterpolatingParam id="24127" interp="linr"  time="-9999999/1" value="0" leadInLength="0/1"  />
              <InterpolatingParam id="24128" interp="linr"  time="-9999999/1" value="0" leadInLength="0/1"  />
              <InterpolatingParam id="24129" interp="linr"  time="-9999999/1" value="0" leadInLength="0/1"  />
             </VectorParam>
             <InterpolatingParam id="24130" interp="linr"  time="-9999999/1" value="1" leadInLength="0/1"  name="opacity"/>
            </Parameters>
            <Attributes>
             <Attribute id="24131" value="" name="ident"/>
            </Attributes>
            <MetaData>
             <entry key="WinSubProjectDisplayName" val=""/>
            </MetaData>
            <ExtraData>
             <Entry key="ZoomPanBin">
              <ZoomPanBin id="24132"  >
               <ZoomPanKeyframes>
                <ZoomPanKeyframe id="24133" timeRangeEnd="-9999999/1" timeRangeDuration="0/1" interpolaterName=""  />
               </ZoomPanKeyframes>
              </ZoomPanBin>
             </Entry>
            </ExtraData>
           </VMFile>
           <VMFile id="24134" start="11326" duration="411" scalar="1/1" mediaStart="30756/1" mediaDuration="411/1" trackNumber="0" src="4" >
            <Transformer>
             <VectorParam id="24135"  name="translation">
              <InterpolatingParam id="24136" interp="linr"  time="-9999999/1" value="0" leadInLength="0/1"  />
              <InterpolatingParam id="24137" interp="linr"  time="-9999999/1" value="0" leadInLength="0/1"  />
              <InterpolatingParam id="24138" interp="linr"  time="-9999999/1" value="0" leadInLength="0/1"  />
             </VectorParam>
             <VectorParam id="24139"  name="rotation">
              <InterpolatingParam id="24140" interp="linr"  time="-9999999/1" value="0" leadInLength="0/1"  />
              <InterpolatingParam id="24141" interp="linr"  time="-9999999/1" value="0" leadInLength="0/1"  />
              <InterpolatingParam id="24142" interp="linr"  time="-9999999/1" value="0" leadInLength="0/1"  />
             </VectorParam>
             <VectorParam id="24143"  name="shear">
              <InterpolatingParam id="24144" interp="linr"  time="-9999999/1" value="0" leadInLength="0/1"  />
              <InterpolatingParam id="24145" interp="linr"  time="-9999999/1" value="0" leadInLength="0/1"  />
              <InterpolatingParam id="24146" interp="linr"  time="-9999999/1" value="0" leadInLength="0/1"  />
             </VectorParam>
             <VectorParam id="24147"  name="scale">
              <InterpolatingParam id="24148" interp="linr"  time="-9999999/1" value="1" leadInLength="0/1"  />
              <InterpolatingParam id="24149" interp="linr"  time="-9999999/1" value="1" leadInLength="0/1"  />
              <InterpolatingParam id="24150" interp="linr"  time="-9999999/1" value="1" leadInLength="0/1"  />
             </VectorParam>
             <VectorParam id="24151"  name="anchor">
              <InterpolatingParam id="24152" interp="linr"  time="0/1" value="0" leadInLength="0/1"  />
              <InterpolatingParam id="24153" interp="linr"  time="0/1" value="0" leadInLength="0/1"  />
              <InterpolatingParam id="24154" interp="linr"  time="0/1" value="0" leadInLength="0/1"  />
             </VectorParam>
            </Transformer>
            <Parameters>
             <VectorParam id="24155"  name="sourceCrop">
              <InterpolatingParam id="24156" interp="linr"  time="0/1" value="0" leadInLength="0/1"  />
              <InterpolatingParam id="24157" interp="linr"  time="0/1" value="0" leadInLength="0/1"  />
              <InterpolatingParam id="24158" interp="linr"  time="0/1" value="0" leadInLength="0/1"  />
              <InterpolatingParam id="24159" interp="linr"  time="0/1" value="0" leadInLength="0/1"  />
             </VectorParam>
             <VectorParam id="24160"  name="geometryCrop">
              <InterpolatingParam id="24161" interp="linr"  time="-9999999/1" value="0" leadInLength="0/1"  />
              <InterpolatingParam id="24162" interp="linr"  time="-9999999/1" value="0" leadInLength="0/1"  />
              <InterpolatingParam id="24163" interp="linr"  time="-9999999/1" value="0" leadInLength="0/1"  />
              <InterpolatingParam id="24164" interp="linr"  time="-9999999/1" value="0" leadInLength="0/1"  />
             </VectorParam>
             <InterpolatingParam id="24165" interp="linr"  time="-9999999/1" value="1" leadInLength="0/1"  name="opacity"/>
            </Parameters>
            <Attributes>
             <Attribute id="24166" value="" name="ident"/>
            </Attributes>
            <MetaData>
             <entry key="WinSubProjectDisplayName" val=""/>
            </MetaData>
            <ExtraData>
             <Entry key="ZoomPanBin">
              <ZoomPanBin id="24167"  >
               <ZoomPanKeyframes>
                <ZoomPanKeyframe id="24168" timeRangeEnd="-9999999/1" timeRangeDuration="0/1" interpolaterName=""  />
               </ZoomPanKeyframes>
              </ZoomPanBin>
             </Entry>
            </ExtraData>
           </VMFile>
          </Medias>
         </GenericTrack>
        </StitchedMedia>
        <StitchedMedia id="24169" start="5254" duration="563" scalar="24048962671104/28859689363945" mediaStart="193493721999383/18951113216" mediaDuration="16248005111901035/24048962671104" minMediaStart="0/1" >
         <Transformer>
          <VectorParam id="24170"  name="translation">
           <InterpolatingParam id="24171" interp="linr"  time="-9999999/1" value="0" leadInLength="0/1"  interpolater="leadin-linr"  />
           <InterpolatingParam id="24172" interp="linr"  time="-9999999/1" value="0" leadInLength="0/1"  interpolater="leadin-linr"  />
           <InterpolatingParam id="24173" interp="linr"  time="-9999999/1" value="0" leadInLength="0/1"  interpolater="leadin-linr"  />
          </VectorParam>
          <VectorParam id="24174"  name="rotation">
           <InterpolatingParam id="24175" interp="linr"  time="-9999999/1" value="0" leadInLength="0/1"  interpolater="leadin-linr"  />
           <InterpolatingParam id="24176" interp="linr"  time="-9999999/1" value="0" leadInLength="0/1"  interpolater="leadin-linr"  />
           <InterpolatingParam id="24177" interp="linr"  time="-9999999/1" value="0" leadInLength="0/1"  interpolater="leadin-linr"  />
          </VectorParam>
          <VectorParam id="24178"  name="shear">
           <InterpolatingParam id="24179" interp="linr"  time="-9999999/1" value="0" leadInLength="0/1"  interpolater="leadin-linr"  />
           <InterpolatingParam id="24180" interp="linr"  time="-9999999/1" value="0" leadInLength="0/1"  interpolater="leadin-linr"  />
           <InterpolatingParam id="24181" interp="linr"  time="-9999999/1" value="0" leadInLength="0/1"  interpolater="leadin-linr"  />
          </VectorParam>
          <VectorParam id="24182"  name="scale">
           <InterpolatingParam id="24183" interp="linr"  time="-9999999/1" value="1" leadInLength="0/1"  interpolater="leadin-linr"  />
           <InterpolatingParam id="24184" interp="linr"  time="-9999999/1" value="1" leadInLength="0/1"  interpolater="leadin-linr"  />
           <InterpolatingParam id="24185" interp="linr"  time="-9999999/1" value="1" leadInLength="0/1"  interpolater="leadin-linr"  />
          </VectorParam>
          <VectorParam id="24186"  name="anchor">
           <InterpolatingParam id="24187" interp="linr"  >
            <Keyframes>
            <Keyframe id="24188"  time="0/1" value="0" leadInLength="0/1"  />
            <Keyframe id="24189"  time="32931335377/7971776" value="0" leadInLength="0/1"  />
            <Keyframe id="24190"  time="4328/1" value="0" leadInLength="0/1"  />
            <Keyframe id="24191"  time="4457/1" value="0" leadInLength="0/1"  />
            <Keyframe id="24192"  time="46272102474146/7646783123" value="0" leadInLength="0/1"  />
            <Keyframe id="24193"  time="576460752303423488/75433993780101" value="0" leadInLength="0/1"  />
            <Keyframe id="24194"  time="600059199085213793/58267769831581" value="0" leadInLength="0/1"  />
            <Keyframe id="24195"  time="1199749202952939991/115623946533563" value="0" leadInLength="0/1"  />
            </Keyframes>
           </InterpolatingParam>
           <InterpolatingParam id="24196" interp="linr"  >
            <Keyframes>
            <Keyframe id="24197"  time="0/1" value="0" leadInLength="0/1"  />
            <Keyframe id="24198"  time="32931335377/7971776" value="0" leadInLength="0/1"  />
            <Keyframe id="24199"  time="4328/1" value="0" leadInLength="0/1"  />
            <Keyframe id="24200"  time="4457/1" value="0" leadInLength="0/1"  />
            <Keyframe id="24201"  time="46272102474146/7646783123" value="0" leadInLength="0/1"  />
            <Keyframe id="24202"  time="576460752303423488/75433993780101" value="0" leadInLength="0/1"  />
            <Keyframe id="24203"  time="600059199085213793/58267769831581" value="0" leadInLength="0/1"  />
            <Keyframe id="24204"  time="1199749202952939991/115623946533563" value="0" leadInLength="0/1"  />
            </Keyframes>
           </InterpolatingParam>
           <InterpolatingParam id="24205" interp="linr"  >
            <Keyframes>
            <Keyframe id="24206"  time="0/1" value="0" leadInLength="0/1"  />
            <Keyframe id="24207"  time="32931335377/7971776" value="0" leadInLength="0/1"  />
            <Keyframe id="24208"  time="4328/1" value="0" leadInLength="0/1"  />
            <Keyframe id="24209"  time="4457/1" value="0" leadInLength="0/1"  />
            <Keyframe id="24210"  time="46272102474146/7646783123" value="0" leadInLength="0/1"  />
            <Keyframe id="24211"  time="576460752303423488/75433993780101" value="0" leadInLength="0/1"  />
            <Keyframe id="24212"  time="600059199085213793/58267769831581" value="0" leadInLength="0/1"  />
            <Keyframe id="24213"  time="1199749202952939991/115623946533563" value="0" leadInLength="0/1"  />
            </Keyframes>
           </InterpolatingParam>
          </VectorParam>
         </Transformer>
         <Parameters>
          <VectorParam id="24214"  name="sourceCrop">
           <InterpolatingParam id="24215" interp="linr"  >
            <Keyframes>
            <Keyframe id="24216"  time="0/1" value="0" leadInLength="0/1"  />
            <Keyframe id="24217"  time="32931335377/7971776" value="0" leadInLength="0/1"  />
            <Keyframe id="24218"  time="4328/1" value="0" leadInLength="0/1"  />
            <Keyframe id="24219"  time="4457/1" value="0" leadInLength="0/1"  />
            <Keyframe id="24220"  time="46272102474146/7646783123" value="0" leadInLength="0/1"  />
            <Keyframe id="24221"  time="576460752303423488/75433993780101" value="0" leadInLength="0/1"  />
            <Keyframe id="24222"  time="600059199085213793/58267769831581" value="0" leadInLength="0/1"  />
            <Keyframe id="24223"  time="1199749202952939991/115623946533563" value="0" leadInLength="0/1"  />
            </Keyframes>
           </InterpolatingParam>
           <InterpolatingParam id="24224" interp="linr"  >
            <Keyframes>
            <Keyframe id="24225"  time="0/1" value="0" leadInLength="0/1"  />
            <Keyframe id="24226"  time="32931335377/7971776" value="0" leadInLength="0/1"  />
            <Keyframe id="24227"  time="4328/1" value="0" leadInLength="0/1"  />
            <Keyframe id="24228"  time="4457/1" value="0" leadInLength="0/1"  />
            <Keyframe id="24229"  time="46272102474146/7646783123" value="0" leadInLength="0/1"  />
            <Keyframe id="24230"  time="576460752303423488/75433993780101" value="0" leadInLength="0/1"  />
            <Keyframe id="24231"  time="600059199085213793/58267769831581" value="0" leadInLength="0/1"  />
            <Keyframe id="24232"  time="1199749202952939991/115623946533563" value="0" leadInLength="0/1"  />
            </Keyframes>
           </InterpolatingParam>
           <InterpolatingParam id="24233" interp="linr"  >
            <Keyframes>
            <Keyframe id="24234"  time="0/1" value="0" leadInLength="0/1"  />
            <Keyframe id="24235"  time="32931335377/7971776" value="0" leadInLength="0/1"  />
            <Keyframe id="24236"  time="4328/1" value="0" leadInLength="0/1"  />
            <Keyframe id="24237"  time="4457/1" value="0" leadInLength="0/1"  />
            <Keyframe id="24238"  time="46272102474146/7646783123" value="0" leadInLength="0/1"  />
            <Keyframe id="24239"  time="576460752303423488/75433993780101" value="0" leadInLength="0/1"  />
            <Keyframe id="24240"  time="600059199085213793/58267769831581" value="0" leadInLength="0/1"  />
            <Keyframe id="24241"  time="1199749202952939991/115623946533563" value="0" leadInLength="0/1"  />
            </Keyframes>
           </InterpolatingParam>
           <InterpolatingParam id="24242" interp="linr"  >
            <Keyframes>
            <Keyframe id="24243"  time="0/1" value="0" leadInLength="0/1"  />
            <Keyframe id="24244"  time="32931335377/7971776" value="0" leadInLength="0/1"  />
            <Keyframe id="24245"  time="4328/1" value="0" leadInLength="0/1"  />
            <Keyframe id="24246"  time="4457/1" value="0" leadInLength="0/1"  />
            <Keyframe id="24247"  time="46272102474146/7646783123" value="0" leadInLength="0/1"  />
            <Keyframe id="24248"  time="576460752303423488/75433993780101" value="0" leadInLength="0/1"  />
            <Keyframe id="24249"  time="600059199085213793/58267769831581" value="0" leadInLength="0/1"  />
            <Keyframe id="24250"  time="1199749202952939991/115623946533563" value="0" leadInLength="0/1"  />
            </Keyframes>
           </InterpolatingParam>
          </VectorParam>
          <VectorParam id="24251"  name="geometryCrop">
           <InterpolatingParam id="24252" interp="linr"  time="-9999999/1" value="0" leadInLength="0/1"  interpolater="leadin-linr"  />
           <InterpolatingParam id="24253" interp="linr"  time="-9999999/1" value="0" leadInLength="0/1"  interpolater="leadin-linr"  />
           <InterpolatingParam id="24254" interp="linr"  time="-9999999/1" value="0" leadInLength="0/1"  interpolater="leadin-linr"  />
           <InterpolatingParam id="24255" interp="linr"  time="-9999999/1" value="0" leadInLength="0/1"  interpolater="leadin-linr"  />
          </VectorParam>
          <InterpolatingParam id="24256" interp="linr"  time="-9999999/1" value="1" leadInLength="0/1"  interpolater="leadin-linr"  name="opacity"/>
          <InterpolatingParam id="24257" interp="linr"  time="0/1" value="1" leadInLength="0/1"  name="cursorOpacity"/>
          <InterpolatingParam id="24258" interp="linr"  time="0/1" value="1" leadInLength="0/1"  name="cursorScale"/>
          <Parameter id="24259"  name="captions"/>
         </Parameters>
         <Attributes>
          <Attribute id="24260" value="" name="ident"/>
         </Attributes>
         <MetaData>
          <entry key="WinSubProjectDisplayName" val=""/>
         </MetaData>
         <ExtraData>
          <Entry key="ZoomPanBin">
           <ZoomPanBin id="24261"  >
            <ZoomPanKeyframes>
             <ZoomPanKeyframe id="24262" timeRangeEnd="-9999999/1" timeRangeDuration="0/1" interpolaterName="linr"  />
            </ZoomPanKeyframes>
           </ZoomPanBin>
          </Entry>
          <Entry key="CursorEffectBin">
           <CursorEffectBin id="24263"  >
            <CursorEffectKeyframes>
            </CursorEffectKeyframes>
           </CursorEffectBin>
          </Entry>
         </ExtraData>
         <GenericTrack id="24264"  >
          <Attributes>
           <Attribute id="24265" value="" name="ident"/>
           <Attribute id="24266" value="0" name="audioMuted"/>
           <Attribute id="24267" value="0" name="videoHidden"/>
          </Attributes>
          <MetaData>
           <entry key="IsLocked" val="False"/>
           <entry key="WinTrackHeight" val="0"/>
          </MetaData>
          <Medias>
           <VMFile id="24268" start="0" duration="4131" scalar="1/1" mediaStart="0/1" mediaDuration="4131/1" trackNumber="0" src="4" >
            <Transformer>
             <VectorParam id="24269"  name="translation">
              <InterpolatingParam id="24270" interp="linr"  time="-9999999/1" value="0" leadInLength="0/1"  />
              <InterpolatingParam id="24271" interp="linr"  time="-9999999/1" value="0" leadInLength="0/1"  />
              <InterpolatingParam id="24272" interp="linr"  time="-9999999/1" value="0" leadInLength="0/1"  />
             </VectorParam>
             <VectorParam id="24273"  name="rotation">
              <InterpolatingParam id="24274" interp="linr"  time="-9999999/1" value="0" leadInLength="0/1"  />
              <InterpolatingParam id="24275" interp="linr"  time="-9999999/1" value="0" leadInLength="0/1"  />
              <InterpolatingParam id="24276" interp="linr"  time="-9999999/1" value="0" leadInLength="0/1"  />
             </VectorParam>
             <VectorParam id="24277"  name="shear">
              <InterpolatingParam id="24278" interp="linr"  time="-9999999/1" value="0" leadInLength="0/1"  />
              <InterpolatingParam id="24279" interp="linr"  time="-9999999/1" value="0" leadInLength="0/1"  />
              <InterpolatingParam id="24280" interp="linr"  time="-9999999/1" value="0" leadInLength="0/1"  />
             </VectorParam>
             <VectorParam id="24281"  name="scale">
              <InterpolatingParam id="24282" interp="linr"  time="-9999999/1" value="1" leadInLength="0/1"  />
              <InterpolatingParam id="24283" interp="linr"  time="-9999999/1" value="1" leadInLength="0/1"  />
              <InterpolatingParam id="24284" interp="linr"  time="-9999999/1" value="1" leadInLength="0/1"  />
             </VectorParam>
             <VectorParam id="24285"  name="anchor">
              <InterpolatingParam id="24286" interp="linr"  time="0/1" value="0" leadInLength="0/1"  />
              <InterpolatingParam id="24287" interp="linr"  time="0/1" value="0" leadInLength="0/1"  />
              <InterpolatingParam id="24288" interp="linr"  time="0/1" value="0" leadInLength="0/1"  />
             </VectorParam>
            </Transformer>
            <Parameters>
             <VectorParam id="24289"  name="sourceCrop">
              <InterpolatingParam id="24290" interp="linr"  time="0/1" value="0" leadInLength="0/1"  />
              <InterpolatingParam id="24291" interp="linr"  time="0/1" value="0" leadInLength="0/1"  />
              <InterpolatingParam id="24292" interp="linr"  time="0/1" value="0" leadInLength="0/1"  />
              <InterpolatingParam id="24293" interp="linr"  time="0/1" value="0" leadInLength="0/1"  />
             </VectorParam>
             <VectorParam id="24294"  name="geometryCrop">
              <InterpolatingParam id="24295" interp="linr"  time="-9999999/1" value="0" leadInLength="0/1"  />
              <InterpolatingParam id="24296" interp="linr"  time="-9999999/1" value="0" leadInLength="0/1"  />
              <InterpolatingParam id="24297" interp="linr"  time="-9999999/1" value="0" leadInLength="0/1"  />
              <InterpolatingParam id="24298" interp="linr"  time="-9999999/1" value="0" leadInLength="0/1"  />
             </VectorParam>
             <InterpolatingParam id="24299" interp="linr"  time="-9999999/1" value="1" leadInLength="0/1"  name="opacity"/>
            </Parameters>
            <Attributes>
             <Attribute id="24300" value="" name="ident"/>
            </Attributes>
            <MetaData>
             <entry key="WinSubProjectDisplayName" val=""/>
            </MetaData>
            <ExtraData>
             <Entry key="ZoomPanBin">
              <ZoomPanBin id="24301"  >
               <ZoomPanKeyframes>
                <ZoomPanKeyframe id="24302" timeRangeEnd="-9999999/1" timeRangeDuration="0/1" interpolaterName=""  />
               </ZoomPanKeyframes>
              </ZoomPanBin>
             </Entry>
            </ExtraData>
           </VMFile>
           <IMFile id="24303" start="4131" duration="12" scalar="1/1" mediaStart="4130/1" mediaDuration="1/1" trackNumber="0" src="4" trimStartSum="0/1" >
            <Transformer>
             <VectorParam id="24304"  name="translation">
              <InterpolatingParam id="24305" interp="linr"  time="-9999999/1" value="0" leadInLength="0/1"  />
              <InterpolatingParam id="24306" interp="linr"  time="-9999999/1" value="0" leadInLength="0/1"  />
              <InterpolatingParam id="24307" interp="linr"  time="-9999999/1" value="0" leadInLength="0/1"  />
             </VectorParam>
             <VectorParam id="24308"  name="rotation">
              <InterpolatingParam id="24309" interp="linr"  time="-9999999/1" value="0" leadInLength="0/1"  />
              <InterpolatingParam id="24310" interp="linr"  time="-9999999/1" value="0" leadInLength="0/1"  />
              <InterpolatingParam id="24311" interp="linr"  time="-9999999/1" value="0" leadInLength="0/1"  />
             </VectorParam>
             <VectorParam id="24312"  name="shear">
              <InterpolatingParam id="24313" interp="linr"  time="-9999999/1" value="0" leadInLength="0/1"  />
              <InterpolatingParam id="24314" interp="linr"  time="-9999999/1" value="0" leadInLength="0/1"  />
              <InterpolatingParam id="24315" interp="linr"  time="-9999999/1" value="0" leadInLength="0/1"  />
             </VectorParam>
             <VectorParam id="24316"  name="scale">
              <InterpolatingParam id="24317" interp="linr"  time="-9999999/1" value="1" leadInLength="0/1"  />
              <InterpolatingParam id="24318" interp="linr"  time="-9999999/1" value="1" leadInLength="0/1"  />
              <InterpolatingParam id="24319" interp="linr"  time="-9999999/1" value="1" leadInLength="0/1"  />
             </VectorParam>
             <VectorParam id="24320"  name="anchor">
              <InterpolatingParam id="24321" interp="linr"  time="0/1" value="0" leadInLength="0/1"  />
              <InterpolatingParam id="24322" interp="linr"  time="0/1" value="0" leadInLength="0/1"  />
              <InterpolatingParam id="24323" interp="linr"  time="0/1" value="0" leadInLength="0/1"  />
             </VectorParam>
            </Transformer>
            <Parameters>
             <VectorParam id="24324"  name="sourceCrop">
              <InterpolatingParam id="24325" interp="linr"  time="0/1" value="0" leadInLength="0/1"  />
              <InterpolatingParam id="24326" interp="linr"  time="0/1" value="0" leadInLength="0/1"  />
              <InterpolatingParam id="24327" interp="linr"  time="0/1" value="0" leadInLength="0/1"  />
              <InterpolatingParam id="24328" interp="linr"  time="0/1" value="0" leadInLength="0/1"  />
             </VectorParam>
             <VectorParam id="24329"  name="geometryCrop">
              <InterpolatingParam id="24330" interp="linr"  time="-9999999/1" value="0" leadInLength="0/1"  />
              <InterpolatingParam id="24331" interp="linr"  time="-9999999/1" value="0" leadInLength="0/1"  />
              <InterpolatingParam id="24332" interp="linr"  time="-9999999/1" value="0" leadInLength="0/1"  />
              <InterpolatingParam id="24333" interp="linr"  time="-9999999/1" value="0" leadInLength="0/1"  />
             </VectorParam>
             <InterpolatingParam id="24334" interp="linr"  time="-9999999/1" value="1" leadInLength="0/1"  name="opacity"/>
            </Parameters>
            <Attributes>
             <Attribute id="24335" value="" name="ident"/>
            </Attributes>
            <MetaData>
             <entry key="WinSubProjectDisplayName" val=""/>
            </MetaData>
            <ExtraData>
             <Entry key="ZoomPanBin">
              <ZoomPanBin id="24336"  >
               <ZoomPanKeyframes>
                <ZoomPanKeyframe id="24337" timeRangeEnd="-9999999/1" timeRangeDuration="0/1" interpolaterName=""  />
               </ZoomPanKeyframes>
              </ZoomPanBin>
             </Entry>
            </ExtraData>
           </IMFile>
           <VMFile id="24338" start="4143" duration="185" scalar="1/1" mediaStart="4130/1" mediaDuration="185/1" trackNumber="0" src="4" >
            <Transformer>
             <VectorParam id="24339"  name="translation">
              <InterpolatingParam id="24340" interp="linr"  time="-9999999/1" value="0" leadInLength="0/1"  />
              <InterpolatingParam id="24341" interp="linr"  time="-9999999/1" value="0" leadInLength="0/1"  />
              <InterpolatingParam id="24342" interp="linr"  time="-9999999/1" value="0" leadInLength="0/1"  />
             </VectorParam>
             <VectorParam id="24343"  name="rotation">
              <InterpolatingParam id="24344" interp="linr"  time="-9999999/1" value="0" leadInLength="0/1"  />
              <InterpolatingParam id="24345" interp="linr"  time="-9999999/1" value="0" leadInLength="0/1"  />
              <InterpolatingParam id="24346" interp="linr"  time="-9999999/1" value="0" leadInLength="0/1"  />
             </VectorParam>
             <VectorParam id="24347"  name="shear">
              <InterpolatingParam id="24348" interp="linr"  time="-9999999/1" value="0" leadInLength="0/1"  />
              <InterpolatingParam id="24349" interp="linr"  time="-9999999/1" value="0" leadInLength="0/1"  />
              <InterpolatingParam id="24350" interp="linr"  time="-9999999/1" value="0" leadInLength="0/1"  />
             </VectorParam>
             <VectorParam id="24351"  name="scale">
              <InterpolatingParam id="24352" interp="linr"  time="-9999999/1" value="1" leadInLength="0/1"  />
              <InterpolatingParam id="24353" interp="linr"  time="-9999999/1" value="1" leadInLength="0/1"  />
              <InterpolatingParam id="24354" interp="linr"  time="-9999999/1" value="1" leadInLength="0/1"  />
             </VectorParam>
             <VectorParam id="24355"  name="anchor">
              <InterpolatingParam id="24356" interp="linr"  time="0/1" value="0" leadInLength="0/1"  />
              <InterpolatingParam id="24357" interp="linr"  time="0/1" value="0" leadInLength="0/1"  />
              <InterpolatingParam id="24358" interp="linr"  time="0/1" value="0" leadInLength="0/1"  />
             </VectorParam>
            </Transformer>
            <Parameters>
             <VectorParam id="24359"  name="sourceCrop">
              <InterpolatingParam id="24360" interp="linr"  time="0/1" value="0" leadInLength="0/1"  />
              <InterpolatingParam id="24361" interp="linr"  time="0/1" value="0" leadInLength="0/1"  />
              <InterpolatingParam id="24362" interp="linr"  time="0/1" value="0" leadInLength="0/1"  />
              <InterpolatingParam id="24363" interp="linr"  time="0/1" value="0" leadInLength="0/1"  />
             </VectorParam>
             <VectorParam id="24364"  name="geometryCrop">
              <InterpolatingParam id="24365" interp="linr"  time="-9999999/1" value="0" leadInLength="0/1"  />
              <InterpolatingParam id="24366" interp="linr"  time="-9999999/1" value="0" leadInLength="0/1"  />
              <InterpolatingParam id="24367" interp="linr"  time="-9999999/1" value="0" leadInLength="0/1"  />
              <InterpolatingParam id="24368" interp="linr"  time="-9999999/1" value="0" leadInLength="0/1"  />
             </VectorParam>
             <InterpolatingParam id="24369" interp="linr"  time="-9999999/1" value="1" leadInLength="0/1"  name="opacity"/>
            </Parameters>
            <Attributes>
             <Attribute id="24370" value="" name="ident"/>
            </Attributes>
            <MetaData>
             <entry key="WinSubProjectDisplayName" val=""/>
            </MetaData>
            <ExtraData>
             <Entry key="ZoomPanBin">
              <ZoomPanBin id="24371"  >
               <ZoomPanKeyframes>
                <ZoomPanKeyframe id="24372" timeRangeEnd="-9999999/1" timeRangeDuration="0/1" interpolaterName=""  />
               </ZoomPanKeyframes>
              </ZoomPanBin>
             </Entry>
            </ExtraData>
           </VMFile>
           <IMFile id="24373" start="4328" duration="3" scalar="1/1" mediaStart="4315/1" mediaDuration="1/1" trackNumber="0" src="4" trimStartSum="0/1" >
            <Transformer>
             <VectorParam id="24374"  name="translation">
              <InterpolatingParam id="24375" interp="linr"  time="-9999999/1" value="0" leadInLength="0/1"  />
              <InterpolatingParam id="24376" interp="linr"  time="-9999999/1" value="0" leadInLength="0/1"  />
              <InterpolatingParam id="24377" interp="linr"  time="-9999999/1" value="0" leadInLength="0/1"  />
             </VectorParam>
             <VectorParam id="24378"  name="rotation">
              <InterpolatingParam id="24379" interp="linr"  time="-9999999/1" value="0" leadInLength="0/1"  />
              <InterpolatingParam id="24380" interp="linr"  time="-9999999/1" value="0" leadInLength="0/1"  />
              <InterpolatingParam id="24381" interp="linr"  time="-9999999/1" value="0" leadInLength="0/1"  />
             </VectorParam>
             <VectorParam id="24382"  name="shear">
              <InterpolatingParam id="24383" interp="linr"  time="-9999999/1" value="0" leadInLength="0/1"  />
              <InterpolatingParam id="24384" interp="linr"  time="-9999999/1" value="0" leadInLength="0/1"  />
              <InterpolatingParam id="24385" interp="linr"  time="-9999999/1" value="0" leadInLength="0/1"  />
             </VectorParam>
             <VectorParam id="24386"  name="scale">
              <InterpolatingParam id="24387" interp="linr"  time="-9999999/1" value="1" leadInLength="0/1"  />
              <InterpolatingParam id="24388" interp="linr"  time="-9999999/1" value="1" leadInLength="0/1"  />
              <InterpolatingParam id="24389" interp="linr"  time="-9999999/1" value="1" leadInLength="0/1"  />
             </VectorParam>
             <VectorParam id="24390"  name="anchor">
              <InterpolatingParam id="24391" interp="linr"  time="0/1" value="0" leadInLength="0/1"  />
              <InterpolatingParam id="24392" interp="linr"  time="0/1" value="0" leadInLength="0/1"  />
              <InterpolatingParam id="24393" interp="linr"  time="0/1" value="0" leadInLength="0/1"  />
             </VectorParam>
            </Transformer>
            <Parameters>
             <VectorParam id="24394"  name="sourceCrop">
              <InterpolatingParam id="24395" interp="linr"  time="0/1" value="0" leadInLength="0/1"  />
              <InterpolatingParam id="24396" interp="linr"  time="0/1" value="0" leadInLength="0/1"  />
              <InterpolatingParam id="24397" interp="linr"  time="0/1" value="0" leadInLength="0/1"  />
              <InterpolatingParam id="24398" interp="linr"  time="0/1" value="0" leadInLength="0/1"  />
             </VectorParam>
             <VectorParam id="24399"  name="geometryCrop">
              <InterpolatingParam id="24400" interp="linr"  time="-9999999/1" value="0" leadInLength="0/1"  />
              <InterpolatingParam id="24401" interp="linr"  time="-9999999/1" value="0" leadInLength="0/1"  />
              <InterpolatingParam id="24402" interp="linr"  time="-9999999/1" value="0" leadInLength="0/1"  />
              <InterpolatingParam id="24403" interp="linr"  time="-9999999/1" value="0" leadInLength="0/1"  />
             </VectorParam>
             <InterpolatingParam id="24404" interp="linr"  time="-9999999/1" value="1" leadInLength="0/1"  name="opacity"/>
            </Parameters>
            <Attributes>
             <Attribute id="24405" value="" name="ident"/>
            </Attributes>
            <MetaData>
             <entry key="WinSubProjectDisplayName" val=""/>
            </MetaData>
            <ExtraData>
             <Entry key="ZoomPanBin">
              <ZoomPanBin id="24406"  >
               <ZoomPanKeyframes>
                <ZoomPanKeyframe id="24407" timeRangeEnd="-9999999/1" timeRangeDuration="0/1" interpolaterName=""  />
               </ZoomPanKeyframes>
              </ZoomPanBin>
             </Entry>
            </ExtraData>
           </IMFile>
           <VMFile id="24408" start="4331" duration="31" scalar="1/1" mediaStart="4315/1" mediaDuration="31/1" trackNumber="0" src="4" >
            <Transformer>
             <VectorParam id="24409"  name="translation">
              <InterpolatingParam id="24410" interp="linr"  time="-9999999/1" value="0" leadInLength="0/1"  />
              <InterpolatingParam id="24411" interp="linr"  time="-9999999/1" value="0" leadInLength="0/1"  />
              <InterpolatingParam id="24412" interp="linr"  time="-9999999/1" value="0" leadInLength="0/1"  />
             </VectorParam>
             <VectorParam id="24413"  name="rotation">
              <InterpolatingParam id="24414" interp="linr"  time="-9999999/1" value="0" leadInLength="0/1"  />
              <InterpolatingParam id="24415" interp="linr"  time="-9999999/1" value="0" leadInLength="0/1"  />
              <InterpolatingParam id="24416" interp="linr"  time="-9999999/1" value="0" leadInLength="0/1"  />
             </VectorParam>
             <VectorParam id="24417"  name="shear">
              <InterpolatingParam id="24418" interp="linr"  time="-9999999/1" value="0" leadInLength="0/1"  />
              <InterpolatingParam id="24419" interp="linr"  time="-9999999/1" value="0" leadInLength="0/1"  />
              <InterpolatingParam id="24420" interp="linr"  time="-9999999/1" value="0" leadInLength="0/1"  />
             </VectorParam>
             <VectorParam id="24421"  name="scale">
              <InterpolatingParam id="24422" interp="linr"  time="-9999999/1" value="1" leadInLength="0/1"  />
              <InterpolatingParam id="24423" interp="linr"  time="-9999999/1" value="1" leadInLength="0/1"  />
              <InterpolatingParam id="24424" interp="linr"  time="-9999999/1" value="1" leadInLength="0/1"  />
             </VectorParam>
             <VectorParam id="24425"  name="anchor">
              <InterpolatingParam id="24426" interp="linr"  time="0/1" value="0" leadInLength="0/1"  />
              <InterpolatingParam id="24427" interp="linr"  time="0/1" value="0" leadInLength="0/1"  />
              <InterpolatingParam id="24428" interp="linr"  time="0/1" value="0" leadInLength="0/1"  />
             </VectorParam>
            </Transformer>
            <Parameters>
             <VectorParam id="24429"  name="sourceCrop">
              <InterpolatingParam id="24430" interp="linr"  time="0/1" value="0" leadInLength="0/1"  />
              <InterpolatingParam id="24431" interp="linr"  time="0/1" value="0" leadInLength="0/1"  />
              <InterpolatingParam id="24432" interp="linr"  time="0/1" value="0" leadInLength="0/1"  />
              <InterpolatingParam id="24433" interp="linr"  time="0/1" value="0" leadInLength="0/1"  />
             </VectorParam>
             <VectorParam id="24434"  name="geometryCrop">
              <InterpolatingParam id="24435" interp="linr"  time="-9999999/1" value="0" leadInLength="0/1"  />
              <InterpolatingParam id="24436" interp="linr"  time="-9999999/1" value="0" leadInLength="0/1"  />
              <InterpolatingParam id="24437" interp="linr"  time="-9999999/1" value="0" leadInLength="0/1"  />
              <InterpolatingParam id="24438" interp="linr"  time="-9999999/1" value="0" leadInLength="0/1"  />
             </VectorParam>
             <InterpolatingParam id="24439" interp="linr"  time="-9999999/1" value="1" leadInLength="0/1"  name="opacity"/>
            </Parameters>
            <Attributes>
             <Attribute id="24440" value="" name="ident"/>
            </Attributes>
            <MetaData>
             <entry key="WinSubProjectDisplayName" val=""/>
            </MetaData>
            <ExtraData>
             <Entry key="ZoomPanBin">
              <ZoomPanBin id="24441"  >
               <ZoomPanKeyframes>
                <ZoomPanKeyframe id="24442" timeRangeEnd="-9999999/1" timeRangeDuration="0/1" interpolaterName=""  />
               </ZoomPanKeyframes>
              </ZoomPanBin>
             </Entry>
            </ExtraData>
           </VMFile>
           <VMFile id="24443" start="4362" duration="95" scalar="1/1" mediaStart="4751/1" mediaDuration="95/1" trackNumber="0" src="4" >
            <Transformer>
             <VectorParam id="24444"  name="translation">
              <InterpolatingParam id="24445" interp="linr"  time="-9999999/1" value="0" leadInLength="0/1"  />
              <InterpolatingParam id="24446" interp="linr"  time="-9999999/1" value="0" leadInLength="0/1"  />
              <InterpolatingParam id="24447" interp="linr"  time="-9999999/1" value="0" leadInLength="0/1"  />
             </VectorParam>
             <VectorParam id="24448"  name="rotation">
              <InterpolatingParam id="24449" interp="linr"  time="-9999999/1" value="0" leadInLength="0/1"  />
              <InterpolatingParam id="24450" interp="linr"  time="-9999999/1" value="0" leadInLength="0/1"  />
              <InterpolatingParam id="24451" interp="linr"  time="-9999999/1" value="0" leadInLength="0/1"  />
             </VectorParam>
             <VectorParam id="24452"  name="shear">
              <InterpolatingParam id="24453" interp="linr"  time="-9999999/1" value="0" leadInLength="0/1"  />
              <InterpolatingParam id="24454" interp="linr"  time="-9999999/1" value="0" leadInLength="0/1"  />
              <InterpolatingParam id="24455" interp="linr"  time="-9999999/1" value="0" leadInLength="0/1"  />
             </VectorParam>
             <VectorParam id="24456"  name="scale">
              <InterpolatingParam id="24457" interp="linr"  time="-9999999/1" value="1" leadInLength="0/1"  />
              <InterpolatingParam id="24458" interp="linr"  time="-9999999/1" value="1" leadInLength="0/1"  />
              <InterpolatingParam id="24459" interp="linr"  time="-9999999/1" value="1" leadInLength="0/1"  />
             </VectorParam>
             <VectorParam id="24460"  name="anchor">
              <InterpolatingParam id="24461" interp="linr"  time="0/1" value="0" leadInLength="0/1"  />
              <InterpolatingParam id="24462" interp="linr"  time="0/1" value="0" leadInLength="0/1"  />
              <InterpolatingParam id="24463" interp="linr"  time="0/1" value="0" leadInLength="0/1"  />
             </VectorParam>
            </Transformer>
            <Parameters>
             <VectorParam id="24464"  name="sourceCrop">
              <InterpolatingParam id="24465" interp="linr"  time="0/1" value="0" leadInLength="0/1"  />
              <InterpolatingParam id="24466" interp="linr"  time="0/1" value="0" leadInLength="0/1"  />
              <InterpolatingParam id="24467" interp="linr"  time="0/1" value="0" leadInLength="0/1"  />
              <InterpolatingParam id="24468" interp="linr"  time="0/1" value="0" leadInLength="0/1"  />
             </VectorParam>
             <VectorParam id="24469"  name="geometryCrop">
              <InterpolatingParam id="24470" interp="linr"  time="-9999999/1" value="0" leadInLength="0/1"  />
              <InterpolatingParam id="24471" interp="linr"  time="-9999999/1" value="0" leadInLength="0/1"  />
              <InterpolatingParam id="24472" interp="linr"  time="-9999999/1" value="0" leadInLength="0/1"  />
              <InterpolatingParam id="24473" interp="linr"  time="-9999999/1" value="0" leadInLength="0/1"  />
             </VectorParam>
             <InterpolatingParam id="24474" interp="linr"  time="-9999999/1" value="1" leadInLength="0/1"  name="opacity"/>
            </Parameters>
            <Attributes>
             <Attribute id="24475" value="" name="ident"/>
            </Attributes>
            <MetaData>
             <entry key="WinSubProjectDisplayName" val=""/>
            </MetaData>
            <ExtraData>
             <Entry key="ZoomPanBin">
              <ZoomPanBin id="24476"  >
               <ZoomPanKeyframes>
                <ZoomPanKeyframe id="24477" timeRangeEnd="-9999999/1" timeRangeDuration="0/1" interpolaterName=""  />
               </ZoomPanKeyframes>
              </ZoomPanBin>
             </Entry>
            </ExtraData>
           </VMFile>
           <IMFile id="24478" start="4457" duration="270" scalar="1/1" mediaStart="4846/1" mediaDuration="1/1" trackNumber="0" src="4" trimStartSum="0/1" >
            <Transformer>
             <VectorParam id="24479"  name="translation">
              <InterpolatingParam id="24480" interp="linr"  time="-9999999/1" value="0" leadInLength="0/1"  />
              <InterpolatingParam id="24481" interp="linr"  time="-9999999/1" value="0" leadInLength="0/1"  />
              <InterpolatingParam id="24482" interp="linr"  time="-9999999/1" value="0" leadInLength="0/1"  />
             </VectorParam>
             <VectorParam id="24483"  name="rotation">
              <InterpolatingParam id="24484" interp="linr"  time="-9999999/1" value="0" leadInLength="0/1"  />
              <InterpolatingParam id="24485" interp="linr"  time="-9999999/1" value="0" leadInLength="0/1"  />
              <InterpolatingParam id="24486" interp="linr"  time="-9999999/1" value="0" leadInLength="0/1"  />
             </VectorParam>
             <VectorParam id="24487"  name="shear">
              <InterpolatingParam id="24488" interp="linr"  time="-9999999/1" value="0" leadInLength="0/1"  />
              <InterpolatingParam id="24489" interp="linr"  time="-9999999/1" value="0" leadInLength="0/1"  />
              <InterpolatingParam id="24490" interp="linr"  time="-9999999/1" value="0" leadInLength="0/1"  />
             </VectorParam>
             <VectorParam id="24491"  name="scale">
              <InterpolatingParam id="24492" interp="linr"  time="-9999999/1" value="1" leadInLength="0/1"  />
              <InterpolatingParam id="24493" interp="linr"  time="-9999999/1" value="1" leadInLength="0/1"  />
              <InterpolatingParam id="24494" interp="linr"  time="-9999999/1" value="1" leadInLength="0/1"  />
             </VectorParam>
             <VectorParam id="24495"  name="anchor">
              <InterpolatingParam id="24496" interp="linr"  time="0/1" value="0" leadInLength="0/1"  />
              <InterpolatingParam id="24497" interp="linr"  time="0/1" value="0" leadInLength="0/1"  />
              <InterpolatingParam id="24498" interp="linr"  time="0/1" value="0" leadInLength="0/1"  />
             </VectorParam>
            </Transformer>
            <Parameters>
             <VectorParam id="24499"  name="sourceCrop">
              <InterpolatingParam id="24500" interp="linr"  time="0/1" value="0" leadInLength="0/1"  />
              <InterpolatingParam id="24501" interp="linr"  time="0/1" value="0" leadInLength="0/1"  />
              <InterpolatingParam id="24502" interp="linr"  time="0/1" value="0" leadInLength="0/1"  />
              <InterpolatingParam id="24503" interp="linr"  time="0/1" value="0" leadInLength="0/1"  />
             </VectorParam>
             <VectorParam id="24504"  name="geometryCrop">
              <InterpolatingParam id="24505" interp="linr"  time="-9999999/1" value="0" leadInLength="0/1"  />
              <InterpolatingParam id="24506" interp="linr"  time="-9999999/1" value="0" leadInLength="0/1"  />
              <InterpolatingParam id="24507" interp="linr"  time="-9999999/1" value="0" leadInLength="0/1"  />
              <InterpolatingParam id="24508" interp="linr"  time="-9999999/1" value="0" leadInLength="0/1"  />
             </VectorParam>
             <InterpolatingParam id="24509" interp="linr"  time="-9999999/1" value="1" leadInLength="0/1"  name="opacity"/>
            </Parameters>
            <Attributes>
             <Attribute id="24510" value="" name="ident"/>
            </Attributes>
            <MetaData>
             <entry key="WinSubProjectDisplayName" val=""/>
            </MetaData>
            <ExtraData>
             <Entry key="ZoomPanBin">
              <ZoomPanBin id="24511"  >
               <ZoomPanKeyframes>
                <ZoomPanKeyframe id="24512" timeRangeEnd="-9999999/1" timeRangeDuration="0/1" interpolaterName=""  />
               </ZoomPanKeyframes>
              </ZoomPanBin>
             </Entry>
            </ExtraData>
           </IMFile>
           <VMFile id="24513" start="4727" duration="17" scalar="1/1" mediaStart="4846/1" mediaDuration="17/1" trackNumber="0" src="4" >
            <Transformer>
             <VectorParam id="24514"  name="translation">
              <InterpolatingParam id="24515" interp="linr"  time="-9999999/1" value="0" leadInLength="0/1"  />
              <InterpolatingParam id="24516" interp="linr"  time="-9999999/1" value="0" leadInLength="0/1"  />
              <InterpolatingParam id="24517" interp="linr"  time="-9999999/1" value="0" leadInLength="0/1"  />
             </VectorParam>
             <VectorParam id="24518"  name="rotation">
              <InterpolatingParam id="24519" interp="linr"  time="-9999999/1" value="0" leadInLength="0/1"  />
              <InterpolatingParam id="24520" interp="linr"  time="-9999999/1" value="0" leadInLength="0/1"  />
              <InterpolatingParam id="24521" interp="linr"  time="-9999999/1" value="0" leadInLength="0/1"  />
             </VectorParam>
             <VectorParam id="24522"  name="shear">
              <InterpolatingParam id="24523" interp="linr"  time="-9999999/1" value="0" leadInLength="0/1"  />
              <InterpolatingParam id="24524" interp="linr"  time="-9999999/1" value="0" leadInLength="0/1"  />
              <InterpolatingParam id="24525" interp="linr"  time="-9999999/1" value="0" leadInLength="0/1"  />
             </VectorParam>
             <VectorParam id="24526"  name="scale">
              <InterpolatingParam id="24527" interp="linr"  time="-9999999/1" value="1" leadInLength="0/1"  />
              <InterpolatingParam id="24528" interp="linr"  time="-9999999/1" value="1" leadInLength="0/1"  />
              <InterpolatingParam id="24529" interp="linr"  time="-9999999/1" value="1" leadInLength="0/1"  />
             </VectorParam>
             <VectorParam id="24530"  name="anchor">
              <InterpolatingParam id="24531" interp="linr"  time="0/1" value="0" leadInLength="0/1"  />
              <InterpolatingParam id="24532" interp="linr"  time="0/1" value="0" leadInLength="0/1"  />
              <InterpolatingParam id="24533" interp="linr"  time="0/1" value="0" leadInLength="0/1"  />
             </VectorParam>
            </Transformer>
            <Parameters>
             <VectorParam id="24534"  name="sourceCrop">
              <InterpolatingParam id="24535" interp="linr"  time="0/1" value="0" leadInLength="0/1"  />
              <InterpolatingParam id="24536" interp="linr"  time="0/1" value="0" leadInLength="0/1"  />
              <InterpolatingParam id="24537" interp="linr"  time="0/1" value="0" leadInLength="0/1"  />
              <InterpolatingParam id="24538" interp="linr"  time="0/1" value="0" leadInLength="0/1"  />
             </VectorParam>
             <VectorParam id="24539"  name="geometryCrop">
              <InterpolatingParam id="24540" interp="linr"  time="-9999999/1" value="0" leadInLength="0/1"  />
              <InterpolatingParam id="24541" interp="linr"  time="-9999999/1" value="0" leadInLength="0/1"  />
              <InterpolatingParam id="24542" interp="linr"  time="-9999999/1" value="0" leadInLength="0/1"  />
              <InterpolatingParam id="24543" interp="linr"  time="-9999999/1" value="0" leadInLength="0/1"  />
             </VectorParam>
             <InterpolatingParam id="24544" interp="linr"  time="-9999999/1" value="1" leadInLength="0/1"  name="opacity"/>
            </Parameters>
            <Attributes>
             <Attribute id="24545" value="" name="ident"/>
            </Attributes>
            <MetaData>
             <entry key="WinSubProjectDisplayName" val=""/>
            </MetaData>
            <ExtraData>
             <Entry key="ZoomPanBin">
              <ZoomPanBin id="24546"  >
               <ZoomPanKeyframes>
                <ZoomPanKeyframe id="24547" timeRangeEnd="-9999999/1" timeRangeDuration="0/1" interpolaterName=""  />
               </ZoomPanKeyframes>
              </ZoomPanBin>
             </Entry>
            </ExtraData>
           </VMFile>
           <VMFile id="24548" start="4744" duration="386" scalar="1/1" mediaStart="7805/1" mediaDuration="386/1" trackNumber="0" src="4" >
            <Transformer>
             <VectorParam id="24549"  name="translation">
              <InterpolatingParam id="24550" interp="linr"  time="-9999999/1" value="0" leadInLength="0/1"  />
              <InterpolatingParam id="24551" interp="linr"  time="-9999999/1" value="0" leadInLength="0/1"  />
              <InterpolatingParam id="24552" interp="linr"  time="-9999999/1" value="0" leadInLength="0/1"  />
             </VectorParam>
             <VectorParam id="24553"  name="rotation">
              <InterpolatingParam id="24554" interp="linr"  time="-9999999/1" value="0" leadInLength="0/1"  />
              <InterpolatingParam id="24555" interp="linr"  time="-9999999/1" value="0" leadInLength="0/1"  />
              <InterpolatingParam id="24556" interp="linr"  time="-9999999/1" value="0" leadInLength="0/1"  />
             </VectorParam>
             <VectorParam id="24557"  name="shear">
              <InterpolatingParam id="24558" interp="linr"  time="-9999999/1" value="0" leadInLength="0/1"  />
              <InterpolatingParam id="24559" interp="linr"  time="-9999999/1" value="0" leadInLength="0/1"  />
              <InterpolatingParam id="24560" interp="linr"  time="-9999999/1" value="0" leadInLength="0/1"  />
             </VectorParam>
             <VectorParam id="24561"  name="scale">
              <InterpolatingParam id="24562" interp="linr"  time="-9999999/1" value="1" leadInLength="0/1"  />
              <InterpolatingParam id="24563" interp="linr"  time="-9999999/1" value="1" leadInLength="0/1"  />
              <InterpolatingParam id="24564" interp="linr"  time="-9999999/1" value="1" leadInLength="0/1"  />
             </VectorParam>
             <VectorParam id="24565"  name="anchor">
              <InterpolatingParam id="24566" interp="linr"  time="0/1" value="0" leadInLength="0/1"  />
              <InterpolatingParam id="24567" interp="linr"  time="0/1" value="0" leadInLength="0/1"  />
              <InterpolatingParam id="24568" interp="linr"  time="0/1" value="0" leadInLength="0/1"  />
             </VectorParam>
            </Transformer>
            <Parameters>
             <VectorParam id="24569"  name="sourceCrop">
              <InterpolatingParam id="24570" interp="linr"  time="0/1" value="0" leadInLength="0/1"  />
              <InterpolatingParam id="24571" interp="linr"  time="0/1" value="0" leadInLength="0/1"  />
              <InterpolatingParam id="24572" interp="linr"  time="0/1" value="0" leadInLength="0/1"  />
              <InterpolatingParam id="24573" interp="linr"  time="0/1" value="0" leadInLength="0/1"  />
             </VectorParam>
             <VectorParam id="24574"  name="geometryCrop">
              <InterpolatingParam id="24575" interp="linr"  time="-9999999/1" value="0" leadInLength="0/1"  />
              <InterpolatingParam id="24576" interp="linr"  time="-9999999/1" value="0" leadInLength="0/1"  />
              <InterpolatingParam id="24577" interp="linr"  time="-9999999/1" value="0" leadInLength="0/1"  />
              <InterpolatingParam id="24578" interp="linr"  time="-9999999/1" value="0" leadInLength="0/1"  />
             </VectorParam>
             <InterpolatingParam id="24579" interp="linr"  time="-9999999/1" value="1" leadInLength="0/1"  name="opacity"/>
            </Parameters>
            <Attributes>
             <Attribute id="24580" value="" name="ident"/>
            </Attributes>
            <MetaData>
             <entry key="WinSubProjectDisplayName" val=""/>
            </MetaData>
            <ExtraData>
             <Entry key="ZoomPanBin">
              <ZoomPanBin id="24581"  >
               <ZoomPanKeyframes>
                <ZoomPanKeyframe id="24582" timeRangeEnd="-9999999/1" timeRangeDuration="0/1" interpolaterName=""  />
               </ZoomPanKeyframes>
              </ZoomPanBin>
             </Entry>
            </ExtraData>
           </VMFile>
           <VMFile id="24583" start="5130" duration="922" scalar="1/1" mediaStart="8371/1" mediaDuration="922/1" trackNumber="0" src="4" >
            <Transformer>
             <VectorParam id="24584"  name="translation">
              <InterpolatingParam id="24585" interp="linr"  time="-9999999/1" value="0" leadInLength="0/1"  />
              <InterpolatingParam id="24586" interp="linr"  time="-9999999/1" value="0" leadInLength="0/1"  />
              <InterpolatingParam id="24587" interp="linr"  time="-9999999/1" value="0" leadInLength="0/1"  />
             </VectorParam>
             <VectorParam id="24588"  name="rotation">
              <InterpolatingParam id="24589" interp="linr"  time="-9999999/1" value="0" leadInLength="0/1"  />
              <InterpolatingParam id="24590" interp="linr"  time="-9999999/1" value="0" leadInLength="0/1"  />
              <InterpolatingParam id="24591" interp="linr"  time="-9999999/1" value="0" leadInLength="0/1"  />
             </VectorParam>
             <VectorParam id="24592"  name="shear">
              <InterpolatingParam id="24593" interp="linr"  time="-9999999/1" value="0" leadInLength="0/1"  />
              <InterpolatingParam id="24594" interp="linr"  time="-9999999/1" value="0" leadInLength="0/1"  />
              <InterpolatingParam id="24595" interp="linr"  time="-9999999/1" value="0" leadInLength="0/1"  />
             </VectorParam>
             <VectorParam id="24596"  name="scale">
              <InterpolatingParam id="24597" interp="linr"  time="-9999999/1" value="1" leadInLength="0/1"  />
              <InterpolatingParam id="24598" interp="linr"  time="-9999999/1" value="1" leadInLength="0/1"  />
              <InterpolatingParam id="24599" interp="linr"  time="-9999999/1" value="1" leadInLength="0/1"  />
             </VectorParam>
             <VectorParam id="24600"  name="anchor">
              <InterpolatingParam id="24601" interp="linr"  time="0/1" value="0" leadInLength="0/1"  />
              <InterpolatingParam id="24602" interp="linr"  time="0/1" value="0" leadInLength="0/1"  />
              <InterpolatingParam id="24603" interp="linr"  time="0/1" value="0" leadInLength="0/1"  />
             </VectorParam>
            </Transformer>
            <Parameters>
             <VectorParam id="24604"  name="sourceCrop">
              <InterpolatingParam id="24605" interp="linr"  time="0/1" value="0" leadInLength="0/1"  />
              <InterpolatingParam id="24606" interp="linr"  time="0/1" value="0" leadInLength="0/1"  />
              <InterpolatingParam id="24607" interp="linr"  time="0/1" value="0" leadInLength="0/1"  />
              <InterpolatingParam id="24608" interp="linr"  time="0/1" value="0" leadInLength="0/1"  />
             </VectorParam>
             <VectorParam id="24609"  name="geometryCrop">
              <InterpolatingParam id="24610" interp="linr"  time="-9999999/1" value="0" leadInLength="0/1"  />
              <InterpolatingParam id="24611" interp="linr"  time="-9999999/1" value="0" leadInLength="0/1"  />
              <InterpolatingParam id="24612" interp="linr"  time="-9999999/1" value="0" leadInLength="0/1"  />
              <InterpolatingParam id="24613" interp="linr"  time="-9999999/1" value="0" leadInLength="0/1"  />
             </VectorParam>
             <InterpolatingParam id="24614" interp="linr"  time="-9999999/1" value="1" leadInLength="0/1"  name="opacity"/>
            </Parameters>
            <Attributes>
             <Attribute id="24615" value="" name="ident"/>
            </Attributes>
            <MetaData>
             <entry key="WinSubProjectDisplayName" val=""/>
            </MetaData>
            <ExtraData>
             <Entry key="ZoomPanBin">
              <ZoomPanBin id="24616"  >
               <ZoomPanKeyframes>
                <ZoomPanKeyframe id="24617" timeRangeEnd="-9999999/1" timeRangeDuration="0/1" interpolaterName=""  />
               </ZoomPanKeyframes>
              </ZoomPanBin>
             </Entry>
            </ExtraData>
           </VMFile>
           <IMFile id="24618" start="6052" duration="30" scalar="1/1" mediaStart="9292/1" mediaDuration="1/1" trackNumber="0" src="4" trimStartSum="0/1" >
            <Transformer>
             <VectorParam id="24619"  name="translation">
              <InterpolatingParam id="24620" interp="linr"  time="-9999999/1" value="0" leadInLength="0/1"  />
              <InterpolatingParam id="24621" interp="linr"  time="-9999999/1" value="0" leadInLength="0/1"  />
              <InterpolatingParam id="24622" interp="linr"  time="-9999999/1" value="0" leadInLength="0/1"  />
             </VectorParam>
             <VectorParam id="24623"  name="rotation">
              <InterpolatingParam id="24624" interp="linr"  time="-9999999/1" value="0" leadInLength="0/1"  />
              <InterpolatingParam id="24625" interp="linr"  time="-9999999/1" value="0" leadInLength="0/1"  />
              <InterpolatingParam id="24626" interp="linr"  time="-9999999/1" value="0" leadInLength="0/1"  />
             </VectorParam>
             <VectorParam id="24627"  name="shear">
              <InterpolatingParam id="24628" interp="linr"  time="-9999999/1" value="0" leadInLength="0/1"  />
              <InterpolatingParam id="24629" interp="linr"  time="-9999999/1" value="0" leadInLength="0/1"  />
              <InterpolatingParam id="24630" interp="linr"  time="-9999999/1" value="0" leadInLength="0/1"  />
             </VectorParam>
             <VectorParam id="24631"  name="scale">
              <InterpolatingParam id="24632" interp="linr"  time="-9999999/1" value="1" leadInLength="0/1"  />
              <InterpolatingParam id="24633" interp="linr"  time="-9999999/1" value="1" leadInLength="0/1"  />
              <InterpolatingParam id="24634" interp="linr"  time="-9999999/1" value="1" leadInLength="0/1"  />
             </VectorParam>
             <VectorParam id="24635"  name="anchor">
              <InterpolatingParam id="24636" interp="linr"  time="0/1" value="0" leadInLength="0/1"  />
              <InterpolatingParam id="24637" interp="linr"  time="0/1" value="0" leadInLength="0/1"  />
              <InterpolatingParam id="24638" interp="linr"  time="0/1" value="0" leadInLength="0/1"  />
             </VectorParam>
            </Transformer>
            <Parameters>
             <VectorParam id="24639"  name="sourceCrop">
              <InterpolatingParam id="24640" interp="linr"  time="0/1" value="0" leadInLength="0/1"  />
              <InterpolatingParam id="24641" interp="linr"  time="0/1" value="0" leadInLength="0/1"  />
              <InterpolatingParam id="24642" interp="linr"  time="0/1" value="0" leadInLength="0/1"  />
              <InterpolatingParam id="24643" interp="linr"  time="0/1" value="0" leadInLength="0/1"  />
             </VectorParam>
             <VectorParam id="24644"  name="geometryCrop">
              <InterpolatingParam id="24645" interp="linr"  time="-9999999/1" value="0" leadInLength="0/1"  />
              <InterpolatingParam id="24646" interp="linr"  time="-9999999/1" value="0" leadInLength="0/1"  />
              <InterpolatingParam id="24647" interp="linr"  time="-9999999/1" value="0" leadInLength="0/1"  />
              <InterpolatingParam id="24648" interp="linr"  time="-9999999/1" value="0" leadInLength="0/1"  />
             </VectorParam>
             <InterpolatingParam id="24649" interp="linr"  time="-9999999/1" value="1" leadInLength="0/1"  name="opacity"/>
            </Parameters>
            <Attributes>
             <Attribute id="24650" value="" name="ident"/>
            </Attributes>
            <MetaData>
             <entry key="WinSubProjectDisplayName" val=""/>
            </MetaData>
            <ExtraData>
             <Entry key="ZoomPanBin">
              <ZoomPanBin id="24651"  >
               <ZoomPanKeyframes>
                <ZoomPanKeyframe id="24652" timeRangeEnd="-9999999/1" timeRangeDuration="0/1" interpolaterName=""  />
               </ZoomPanKeyframes>
              </ZoomPanBin>
             </Entry>
            </ExtraData>
           </IMFile>
           <VMFile id="24653" start="6082" duration="86" scalar="1/1" mediaStart="9292/1" mediaDuration="86/1" trackNumber="0" src="4" >
            <Transformer>
             <VectorParam id="24654"  name="translation">
              <InterpolatingParam id="24655" interp="linr"  time="-9999999/1" value="0" leadInLength="0/1"  />
              <InterpolatingParam id="24656" interp="linr"  time="-9999999/1" value="0" leadInLength="0/1"  />
              <InterpolatingParam id="24657" interp="linr"  time="-9999999/1" value="0" leadInLength="0/1"  />
             </VectorParam>
             <VectorParam id="24658"  name="rotation">
              <InterpolatingParam id="24659" interp="linr"  time="-9999999/1" value="0" leadInLength="0/1"  />
              <InterpolatingParam id="24660" interp="linr"  time="-9999999/1" value="0" leadInLength="0/1"  />
              <InterpolatingParam id="24661" interp="linr"  time="-9999999/1" value="0" leadInLength="0/1"  />
             </VectorParam>
             <VectorParam id="24662"  name="shear">
              <InterpolatingParam id="24663" interp="linr"  time="-9999999/1" value="0" leadInLength="0/1"  />
              <InterpolatingParam id="24664" interp="linr"  time="-9999999/1" value="0" leadInLength="0/1"  />
              <InterpolatingParam id="24665" interp="linr"  time="-9999999/1" value="0" leadInLength="0/1"  />
             </VectorParam>
             <VectorParam id="24666"  name="scale">
              <InterpolatingParam id="24667" interp="linr"  time="-9999999/1" value="1" leadInLength="0/1"  />
              <InterpolatingParam id="24668" interp="linr"  time="-9999999/1" value="1" leadInLength="0/1"  />
              <InterpolatingParam id="24669" interp="linr"  time="-9999999/1" value="1" leadInLength="0/1"  />
             </VectorParam>
             <VectorParam id="24670"  name="anchor">
              <InterpolatingParam id="24671" interp="linr"  time="0/1" value="0" leadInLength="0/1"  />
              <InterpolatingParam id="24672" interp="linr"  time="0/1" value="0" leadInLength="0/1"  />
              <InterpolatingParam id="24673" interp="linr"  time="0/1" value="0" leadInLength="0/1"  />
             </VectorParam>
            </Transformer>
            <Parameters>
             <VectorParam id="24674"  name="sourceCrop">
              <InterpolatingParam id="24675" interp="linr"  time="0/1" value="0" leadInLength="0/1"  />
              <InterpolatingParam id="24676" interp="linr"  time="0/1" value="0" leadInLength="0/1"  />
              <InterpolatingParam id="24677" interp="linr"  time="0/1" value="0" leadInLength="0/1"  />
              <InterpolatingParam id="24678" interp="linr"  time="0/1" value="0" leadInLength="0/1"  />
             </VectorParam>
             <VectorParam id="24679"  name="geometryCrop">
              <InterpolatingParam id="24680" interp="linr"  time="-9999999/1" value="0" leadInLength="0/1"  />
              <InterpolatingParam id="24681" interp="linr"  time="-9999999/1" value="0" leadInLength="0/1"  />
              <InterpolatingParam id="24682" interp="linr"  time="-9999999/1" value="0" leadInLength="0/1"  />
              <InterpolatingParam id="24683" interp="linr"  time="-9999999/1" value="0" leadInLength="0/1"  />
             </VectorParam>
             <InterpolatingParam id="24684" interp="linr"  time="-9999999/1" value="1" leadInLength="0/1"  name="opacity"/>
            </Parameters>
            <Attributes>
             <Attribute id="24685" value="" name="ident"/>
            </Attributes>
            <MetaData>
             <entry key="WinSubProjectDisplayName" val=""/>
            </MetaData>
            <ExtraData>
             <Entry key="ZoomPanBin">
              <ZoomPanBin id="24686"  >
               <ZoomPanKeyframes>
                <ZoomPanKeyframe id="24687" timeRangeEnd="-9999999/1" timeRangeDuration="0/1" interpolaterName=""  />
               </ZoomPanKeyframes>
              </ZoomPanBin>
             </Entry>
            </ExtraData>
           </VMFile>
           <VMFile id="24688" start="6168" duration="555" scalar="1/1" mediaStart="9516/1" mediaDuration="555/1" trackNumber="0" src="4" >
            <Transformer>
             <VectorParam id="24689"  name="translation">
              <InterpolatingParam id="24690" interp="linr"  time="-9999999/1" value="0" leadInLength="0/1"  />
              <InterpolatingParam id="24691" interp="linr"  time="-9999999/1" value="0" leadInLength="0/1"  />
              <InterpolatingParam id="24692" interp="linr"  time="-9999999/1" value="0" leadInLength="0/1"  />
             </VectorParam>
             <VectorParam id="24693"  name="rotation">
              <InterpolatingParam id="24694" interp="linr"  time="-9999999/1" value="0" leadInLength="0/1"  />
              <InterpolatingParam id="24695" interp="linr"  time="-9999999/1" value="0" leadInLength="0/1"  />
              <InterpolatingParam id="24696" interp="linr"  time="-9999999/1" value="0" leadInLength="0/1"  />
             </VectorParam>
             <VectorParam id="24697"  name="shear">
              <InterpolatingParam id="24698" interp="linr"  time="-9999999/1" value="0" leadInLength="0/1"  />
              <InterpolatingParam id="24699" interp="linr"  time="-9999999/1" value="0" leadInLength="0/1"  />
              <InterpolatingParam id="24700" interp="linr"  time="-9999999/1" value="0" leadInLength="0/1"  />
             </VectorParam>
             <VectorParam id="24701"  name="scale">
              <InterpolatingParam id="24702" interp="linr"  time="-9999999/1" value="1" leadInLength="0/1"  />
              <InterpolatingParam id="24703" interp="linr"  time="-9999999/1" value="1" leadInLength="0/1"  />
              <InterpolatingParam id="24704" interp="linr"  time="-9999999/1" value="1" leadInLength="0/1"  />
             </VectorParam>
             <VectorParam id="24705"  name="anchor">
              <InterpolatingParam id="24706" interp="linr"  time="0/1" value="0" leadInLength="0/1"  />
              <InterpolatingParam id="24707" interp="linr"  time="0/1" value="0" leadInLength="0/1"  />
              <InterpolatingParam id="24708" interp="linr"  time="0/1" value="0" leadInLength="0/1"  />
             </VectorParam>
            </Transformer>
            <Parameters>
             <VectorParam id="24709"  name="sourceCrop">
              <InterpolatingParam id="24710" interp="linr"  time="0/1" value="0" leadInLength="0/1"  />
              <InterpolatingParam id="24711" interp="linr"  time="0/1" value="0" leadInLength="0/1"  />
              <InterpolatingParam id="24712" interp="linr"  time="0/1" value="0" leadInLength="0/1"  />
              <InterpolatingParam id="24713" interp="linr"  time="0/1" value="0" leadInLength="0/1"  />
             </VectorParam>
             <VectorParam id="24714"  name="geometryCrop">
              <InterpolatingParam id="24715" interp="linr"  time="-9999999/1" value="0" leadInLength="0/1"  />
              <InterpolatingParam id="24716" interp="linr"  time="-9999999/1" value="0" leadInLength="0/1"  />
              <InterpolatingParam id="24717" interp="linr"  time="-9999999/1" value="0" leadInLength="0/1"  />
              <InterpolatingParam id="24718" interp="linr"  time="-9999999/1" value="0" leadInLength="0/1"  />
             </VectorParam>
             <InterpolatingParam id="24719" interp="linr"  time="-9999999/1" value="1" leadInLength="0/1"  name="opacity"/>
            </Parameters>
            <Attributes>
             <Attribute id="24720" value="" name="ident"/>
            </Attributes>
            <MetaData>
             <entry key="WinSubProjectDisplayName" val=""/>
            </MetaData>
            <ExtraData>
             <Entry key="ZoomPanBin">
              <ZoomPanBin id="24721"  >
               <ZoomPanKeyframes>
                <ZoomPanKeyframe id="24722" timeRangeEnd="-9999999/1" timeRangeDuration="0/1" interpolaterName=""  />
               </ZoomPanKeyframes>
              </ZoomPanBin>
             </Entry>
            </ExtraData>
           </VMFile>
           <VMFile id="24723" start="6723" duration="460" scalar="1/1" mediaStart="11597/1" mediaDuration="460/1" trackNumber="0" src="4" >
            <Transformer>
             <VectorParam id="24724"  name="translation">
              <InterpolatingParam id="24725" interp="linr"  time="-9999999/1" value="0" leadInLength="0/1"  />
              <InterpolatingParam id="24726" interp="linr"  time="-9999999/1" value="0" leadInLength="0/1"  />
              <InterpolatingParam id="24727" interp="linr"  time="-9999999/1" value="0" leadInLength="0/1"  />
             </VectorParam>
             <VectorParam id="24728"  name="rotation">
              <InterpolatingParam id="24729" interp="linr"  time="-9999999/1" value="0" leadInLength="0/1"  />
              <InterpolatingParam id="24730" interp="linr"  time="-9999999/1" value="0" leadInLength="0/1"  />
              <InterpolatingParam id="24731" interp="linr"  time="-9999999/1" value="0" leadInLength="0/1"  />
             </VectorParam>
             <VectorParam id="24732"  name="shear">
              <InterpolatingParam id="24733" interp="linr"  time="-9999999/1" value="0" leadInLength="0/1"  />
              <InterpolatingParam id="24734" interp="linr"  time="-9999999/1" value="0" leadInLength="0/1"  />
              <InterpolatingParam id="24735" interp="linr"  time="-9999999/1" value="0" leadInLength="0/1"  />
             </VectorParam>
             <VectorParam id="24736"  name="scale">
              <InterpolatingParam id="24737" interp="linr"  time="-9999999/1" value="1" leadInLength="0/1"  />
              <InterpolatingParam id="24738" interp="linr"  time="-9999999/1" value="1" leadInLength="0/1"  />
              <InterpolatingParam id="24739" interp="linr"  time="-9999999/1" value="1" leadInLength="0/1"  />
             </VectorParam>
             <VectorParam id="24740"  name="anchor">
              <InterpolatingParam id="24741" interp="linr"  time="0/1" value="0" leadInLength="0/1"  />
              <InterpolatingParam id="24742" interp="linr"  time="0/1" value="0" leadInLength="0/1"  />
              <InterpolatingParam id="24743" interp="linr"  time="0/1" value="0" leadInLength="0/1"  />
             </VectorParam>
            </Transformer>
            <Parameters>
             <VectorParam id="24744"  name="sourceCrop">
              <InterpolatingParam id="24745" interp="linr"  time="0/1" value="0" leadInLength="0/1"  />
              <InterpolatingParam id="24746" interp="linr"  time="0/1" value="0" leadInLength="0/1"  />
              <InterpolatingParam id="24747" interp="linr"  time="0/1" value="0" leadInLength="0/1"  />
              <InterpolatingParam id="24748" interp="linr"  time="0/1" value="0" leadInLength="0/1"  />
             </VectorParam>
             <VectorParam id="24749"  name="geometryCrop">
              <InterpolatingParam id="24750" interp="linr"  time="-9999999/1" value="0" leadInLength="0/1"  />
              <InterpolatingParam id="24751" interp="linr"  time="-9999999/1" value="0" leadInLength="0/1"  />
              <InterpolatingParam id="24752" interp="linr"  time="-9999999/1" value="0" leadInLength="0/1"  />
              <InterpolatingParam id="24753" interp="linr"  time="-9999999/1" value="0" leadInLength="0/1"  />
             </VectorParam>
             <InterpolatingParam id="24754" interp="linr"  time="-9999999/1" value="1" leadInLength="0/1"  name="opacity"/>
            </Parameters>
            <Attributes>
             <Attribute id="24755" value="" name="ident"/>
            </Attributes>
            <MetaData>
             <entry key="WinSubProjectDisplayName" val=""/>
            </MetaData>
            <ExtraData>
             <Entry key="ZoomPanBin">
              <ZoomPanBin id="24756"  >
               <ZoomPanKeyframes>
                <ZoomPanKeyframe id="24757" timeRangeEnd="-9999999/1" timeRangeDuration="0/1" interpolaterName=""  />
               </ZoomPanKeyframes>
              </ZoomPanBin>
             </Entry>
            </ExtraData>
           </VMFile>
           <VMFile id="24758" start="7183" duration="350" scalar="1/1" mediaStart="12237/1" mediaDuration="350/1" trackNumber="0" src="4" >
            <Transformer>
             <VectorParam id="24759"  name="translation">
              <InterpolatingParam id="24760" interp="linr"  time="-9999999/1" value="0" leadInLength="0/1"  />
              <InterpolatingParam id="24761" interp="linr"  time="-9999999/1" value="0" leadInLength="0/1"  />
              <InterpolatingParam id="24762" interp="linr"  time="-9999999/1" value="0" leadInLength="0/1"  />
             </VectorParam>
             <VectorParam id="24763"  name="rotation">
              <InterpolatingParam id="24764" interp="linr"  time="-9999999/1" value="0" leadInLength="0/1"  />
              <InterpolatingParam id="24765" interp="linr"  time="-9999999/1" value="0" leadInLength="0/1"  />
              <InterpolatingParam id="24766" interp="linr"  time="-9999999/1" value="0" leadInLength="0/1"  />
             </VectorParam>
             <VectorParam id="24767"  name="shear">
              <InterpolatingParam id="24768" interp="linr"  time="-9999999/1" value="0" leadInLength="0/1"  />
              <InterpolatingParam id="24769" interp="linr"  time="-9999999/1" value="0" leadInLength="0/1"  />
              <InterpolatingParam id="24770" interp="linr"  time="-9999999/1" value="0" leadInLength="0/1"  />
             </VectorParam>
             <VectorParam id="24771"  name="scale">
              <InterpolatingParam id="24772" interp="linr"  time="-9999999/1" value="1" leadInLength="0/1"  />
              <InterpolatingParam id="24773" interp="linr"  time="-9999999/1" value="1" leadInLength="0/1"  />
              <InterpolatingParam id="24774" interp="linr"  time="-9999999/1" value="1" leadInLength="0/1"  />
             </VectorParam>
             <VectorParam id="24775"  name="anchor">
              <InterpolatingParam id="24776" interp="linr"  time="0/1" value="0" leadInLength="0/1"  />
              <InterpolatingParam id="24777" interp="linr"  time="0/1" value="0" leadInLength="0/1"  />
              <InterpolatingParam id="24778" interp="linr"  time="0/1" value="0" leadInLength="0/1"  />
             </VectorParam>
            </Transformer>
            <Parameters>
             <VectorParam id="24779"  name="sourceCrop">
              <InterpolatingParam id="24780" interp="linr"  time="0/1" value="0" leadInLength="0/1"  />
              <InterpolatingParam id="24781" interp="linr"  time="0/1" value="0" leadInLength="0/1"  />
              <InterpolatingParam id="24782" interp="linr"  time="0/1" value="0" leadInLength="0/1"  />
              <InterpolatingParam id="24783" interp="linr"  time="0/1" value="0" leadInLength="0/1"  />
             </VectorParam>
             <VectorParam id="24784"  name="geometryCrop">
              <InterpolatingParam id="24785" interp="linr"  time="-9999999/1" value="0" leadInLength="0/1"  />
              <InterpolatingParam id="24786" interp="linr"  time="-9999999/1" value="0" leadInLength="0/1"  />
              <InterpolatingParam id="24787" interp="linr"  time="-9999999/1" value="0" leadInLength="0/1"  />
              <InterpolatingParam id="24788" interp="linr"  time="-9999999/1" value="0" leadInLength="0/1"  />
             </VectorParam>
             <InterpolatingParam id="24789" interp="linr"  time="-9999999/1" value="1" leadInLength="0/1"  name="opacity"/>
            </Parameters>
            <Attributes>
             <Attribute id="24790" value="" name="ident"/>
            </Attributes>
            <MetaData>
             <entry key="WinSubProjectDisplayName" val=""/>
            </MetaData>
            <ExtraData>
             <Entry key="ZoomPanBin">
              <ZoomPanBin id="24791"  >
               <ZoomPanKeyframes>
                <ZoomPanKeyframe id="24792" timeRangeEnd="-9999999/1" timeRangeDuration="0/1" interpolaterName=""  />
               </ZoomPanKeyframes>
              </ZoomPanBin>
             </Entry>
            </ExtraData>
           </VMFile>
           <VMFile id="24793" start="7533" duration="109" scalar="1/1" mediaStart="15765/1" mediaDuration="109/1" trackNumber="0" src="4" >
            <Transformer>
             <VectorParam id="24794"  name="translation">
              <InterpolatingParam id="24795" interp="linr"  time="-9999999/1" value="0" leadInLength="0/1"  />
              <InterpolatingParam id="24796" interp="linr"  time="-9999999/1" value="0" leadInLength="0/1"  />
              <InterpolatingParam id="24797" interp="linr"  time="-9999999/1" value="0" leadInLength="0/1"  />
             </VectorParam>
             <VectorParam id="24798"  name="rotation">
              <InterpolatingParam id="24799" interp="linr"  time="-9999999/1" value="0" leadInLength="0/1"  />
              <InterpolatingParam id="24800" interp="linr"  time="-9999999/1" value="0" leadInLength="0/1"  />
              <InterpolatingParam id="24801" interp="linr"  time="-9999999/1" value="0" leadInLength="0/1"  />
             </VectorParam>
             <VectorParam id="24802"  name="shear">
              <InterpolatingParam id="24803" interp="linr"  time="-9999999/1" value="0" leadInLength="0/1"  />
              <InterpolatingParam id="24804" interp="linr"  time="-9999999/1" value="0" leadInLength="0/1"  />
              <InterpolatingParam id="24805" interp="linr"  time="-9999999/1" value="0" leadInLength="0/1"  />
             </VectorParam>
             <VectorParam id="24806"  name="scale">
              <InterpolatingParam id="24807" interp="linr"  time="-9999999/1" value="1" leadInLength="0/1"  />
              <InterpolatingParam id="24808" interp="linr"  time="-9999999/1" value="1" leadInLength="0/1"  />
              <InterpolatingParam id="24809" interp="linr"  time="-9999999/1" value="1" leadInLength="0/1"  />
             </VectorParam>
             <VectorParam id="24810"  name="anchor">
              <InterpolatingParam id="24811" interp="linr"  time="0/1" value="0" leadInLength="0/1"  />
              <InterpolatingParam id="24812" interp="linr"  time="0/1" value="0" leadInLength="0/1"  />
              <InterpolatingParam id="24813" interp="linr"  time="0/1" value="0" leadInLength="0/1"  />
             </VectorParam>
            </Transformer>
            <Parameters>
             <VectorParam id="24814"  name="sourceCrop">
              <InterpolatingParam id="24815" interp="linr"  time="0/1" value="0" leadInLength="0/1"  />
              <InterpolatingParam id="24816" interp="linr"  time="0/1" value="0" leadInLength="0/1"  />
              <InterpolatingParam id="24817" interp="linr"  time="0/1" value="0" leadInLength="0/1"  />
              <InterpolatingParam id="24818" interp="linr"  time="0/1" value="0" leadInLength="0/1"  />
             </VectorParam>
             <VectorParam id="24819"  name="geometryCrop">
              <InterpolatingParam id="24820" interp="linr"  time="-9999999/1" value="0" leadInLength="0/1"  />
              <InterpolatingParam id="24821" interp="linr"  time="-9999999/1" value="0" leadInLength="0/1"  />
              <InterpolatingParam id="24822" interp="linr"  time="-9999999/1" value="0" leadInLength="0/1"  />
              <InterpolatingParam id="24823" interp="linr"  time="-9999999/1" value="0" leadInLength="0/1"  />
             </VectorParam>
             <InterpolatingParam id="24824" interp="linr"  time="-9999999/1" value="1" leadInLength="0/1"  name="opacity"/>
            </Parameters>
            <Attributes>
             <Attribute id="24825" value="" name="ident"/>
            </Attributes>
            <MetaData>
             <entry key="WinSubProjectDisplayName" val=""/>
            </MetaData>
            <ExtraData>
             <Entry key="ZoomPanBin">
              <ZoomPanBin id="24826"  >
               <ZoomPanKeyframes>
                <ZoomPanKeyframe id="24827" timeRangeEnd="-9999999/1" timeRangeDuration="0/1" interpolaterName=""  />
               </ZoomPanKeyframes>
              </ZoomPanBin>
             </Entry>
            </ExtraData>
           </VMFile>
           <IMFile id="24828" start="7642" duration="451" scalar="1/1" mediaStart="15873/1" mediaDuration="1/1" trackNumber="0" src="4" trimStartSum="0/1" >
            <Transformer>
             <VectorParam id="24829"  name="translation">
              <InterpolatingParam id="24830" interp="linr"  time="-9999999/1" value="0" leadInLength="0/1"  />
              <InterpolatingParam id="24831" interp="linr"  time="-9999999/1" value="0" leadInLength="0/1"  />
              <InterpolatingParam id="24832" interp="linr"  time="-9999999/1" value="0" leadInLength="0/1"  />
             </VectorParam>
             <VectorParam id="24833"  name="rotation">
              <InterpolatingParam id="24834" interp="linr"  time="-9999999/1" value="0" leadInLength="0/1"  />
              <InterpolatingParam id="24835" interp="linr"  time="-9999999/1" value="0" leadInLength="0/1"  />
              <InterpolatingParam id="24836" interp="linr"  time="-9999999/1" value="0" leadInLength="0/1"  />
             </VectorParam>
             <VectorParam id="24837"  name="shear">
              <InterpolatingParam id="24838" interp="linr"  time="-9999999/1" value="0" leadInLength="0/1"  />
              <InterpolatingParam id="24839" interp="linr"  time="-9999999/1" value="0" leadInLength="0/1"  />
              <InterpolatingParam id="24840" interp="linr"  time="-9999999/1" value="0" leadInLength="0/1"  />
             </VectorParam>
             <VectorParam id="24841"  name="scale">
              <InterpolatingParam id="24842" interp="linr"  time="-9999999/1" value="1" leadInLength="0/1"  />
              <InterpolatingParam id="24843" interp="linr"  time="-9999999/1" value="1" leadInLength="0/1"  />
              <InterpolatingParam id="24844" interp="linr"  time="-9999999/1" value="1" leadInLength="0/1"  />
             </VectorParam>
             <VectorParam id="24845"  name="anchor">
              <InterpolatingParam id="24846" interp="linr"  time="0/1" value="0" leadInLength="0/1"  />
              <InterpolatingParam id="24847" interp="linr"  time="0/1" value="0" leadInLength="0/1"  />
              <InterpolatingParam id="24848" interp="linr"  time="0/1" value="0" leadInLength="0/1"  />
             </VectorParam>
            </Transformer>
            <Parameters>
             <VectorParam id="24849"  name="sourceCrop">
              <InterpolatingParam id="24850" interp="linr"  time="0/1" value="0" leadInLength="0/1"  />
              <InterpolatingParam id="24851" interp="linr"  time="0/1" value="0" leadInLength="0/1"  />
              <InterpolatingParam id="24852" interp="linr"  time="0/1" value="0" leadInLength="0/1"  />
              <InterpolatingParam id="24853" interp="linr"  time="0/1" value="0" leadInLength="0/1"  />
             </VectorParam>
             <VectorParam id="24854"  name="geometryCrop">
              <InterpolatingParam id="24855" interp="linr"  time="-9999999/1" value="0" leadInLength="0/1"  />
              <InterpolatingParam id="24856" interp="linr"  time="-9999999/1" value="0" leadInLength="0/1"  />
              <InterpolatingParam id="24857" interp="linr"  time="-9999999/1" value="0" leadInLength="0/1"  />
              <InterpolatingParam id="24858" interp="linr"  time="-9999999/1" value="0" leadInLength="0/1"  />
             </VectorParam>
             <InterpolatingParam id="24859" interp="linr"  time="-9999999/1" value="1" leadInLength="0/1"  name="opacity"/>
            </Parameters>
            <Attributes>
             <Attribute id="24860" value="" name="ident"/>
            </Attributes>
            <MetaData>
             <entry key="WinSubProjectDisplayName" val=""/>
            </MetaData>
            <ExtraData>
             <Entry key="ZoomPanBin">
              <ZoomPanBin id="24861"  >
               <ZoomPanKeyframes>
                <ZoomPanKeyframe id="24862" timeRangeEnd="-9999999/1" timeRangeDuration="0/1" interpolaterName=""  />
               </ZoomPanKeyframes>
              </ZoomPanBin>
             </Entry>
            </ExtraData>
           </IMFile>
           <VMFile id="24863" start="8093" duration="21" scalar="1/1" mediaStart="15872/1" mediaDuration="21/1" trackNumber="0" src="4" >
            <Transformer>
             <VectorParam id="24864"  name="translation">
              <InterpolatingParam id="24865" interp="linr"  time="-9999999/1" value="0" leadInLength="0/1"  />
              <InterpolatingParam id="24866" interp="linr"  time="-9999999/1" value="0" leadInLength="0/1"  />
              <InterpolatingParam id="24867" interp="linr"  time="-9999999/1" value="0" leadInLength="0/1"  />
             </VectorParam>
             <VectorParam id="24868"  name="rotation">
              <InterpolatingParam id="24869" interp="linr"  time="-9999999/1" value="0" leadInLength="0/1"  />
              <InterpolatingParam id="24870" interp="linr"  time="-9999999/1" value="0" leadInLength="0/1"  />
              <InterpolatingParam id="24871" interp="linr"  time="-9999999/1" value="0" leadInLength="0/1"  />
             </VectorParam>
             <VectorParam id="24872"  name="shear">
              <InterpolatingParam id="24873" interp="linr"  time="-9999999/1" value="0" leadInLength="0/1"  />
              <InterpolatingParam id="24874" interp="linr"  time="-9999999/1" value="0" leadInLength="0/1"  />
              <InterpolatingParam id="24875" interp="linr"  time="-9999999/1" value="0" leadInLength="0/1"  />
             </VectorParam>
             <VectorParam id="24876"  name="scale">
              <InterpolatingParam id="24877" interp="linr"  time="-9999999/1" value="1" leadInLength="0/1"  />
              <InterpolatingParam id="24878" interp="linr"  time="-9999999/1" value="1" leadInLength="0/1"  />
              <InterpolatingParam id="24879" interp="linr"  time="-9999999/1" value="1" leadInLength="0/1"  />
             </VectorParam>
             <VectorParam id="24880"  name="anchor">
              <InterpolatingParam id="24881" interp="linr"  time="0/1" value="0" leadInLength="0/1"  />
              <InterpolatingParam id="24882" interp="linr"  time="0/1" value="0" leadInLength="0/1"  />
              <InterpolatingParam id="24883" interp="linr"  time="0/1" value="0" leadInLength="0/1"  />
             </VectorParam>
            </Transformer>
            <Parameters>
             <VectorParam id="24884"  name="sourceCrop">
              <InterpolatingParam id="24885" interp="linr"  time="0/1" value="0" leadInLength="0/1"  />
              <InterpolatingParam id="24886" interp="linr"  time="0/1" value="0" leadInLength="0/1"  />
              <InterpolatingParam id="24887" interp="linr"  time="0/1" value="0" leadInLength="0/1"  />
              <InterpolatingParam id="24888" interp="linr"  time="0/1" value="0" leadInLength="0/1"  />
             </VectorParam>
             <VectorParam id="24889"  name="geometryCrop">
              <InterpolatingParam id="24890" interp="linr"  time="-9999999/1" value="0" leadInLength="0/1"  />
              <InterpolatingParam id="24891" interp="linr"  time="-9999999/1" value="0" leadInLength="0/1"  />
              <InterpolatingParam id="24892" interp="linr"  time="-9999999/1" value="0" leadInLength="0/1"  />
              <InterpolatingParam id="24893" interp="linr"  time="-9999999/1" value="0" leadInLength="0/1"  />
             </VectorParam>
             <InterpolatingParam id="24894" interp="linr"  time="-9999999/1" value="1" leadInLength="0/1"  name="opacity"/>
            </Parameters>
            <Attributes>
             <Attribute id="24895" value="" name="ident"/>
            </Attributes>
            <MetaData>
             <entry key="WinSubProjectDisplayName" val=""/>
            </MetaData>
            <ExtraData>
             <Entry key="ZoomPanBin">
              <ZoomPanBin id="24896"  >
               <ZoomPanKeyframes>
                <ZoomPanKeyframe id="24897" timeRangeEnd="-9999999/1" timeRangeDuration="0/1" interpolaterName=""  />
               </ZoomPanKeyframes>
              </ZoomPanBin>
             </Entry>
            </ExtraData>
           </VMFile>
           <VMFile id="24898" start="8114" duration="615" scalar="1/1" mediaStart="15918/1" mediaDuration="615/1" trackNumber="0" src="4" >
            <Transformer>
             <VectorParam id="24899"  name="translation">
              <InterpolatingParam id="24900" interp="linr"  time="-9999999/1" value="0" leadInLength="0/1"  />
              <InterpolatingParam id="24901" interp="linr"  time="-9999999/1" value="0" leadInLength="0/1"  />
              <InterpolatingParam id="24902" interp="linr"  time="-9999999/1" value="0" leadInLength="0/1"  />
             </VectorParam>
             <VectorParam id="24903"  name="rotation">
              <InterpolatingParam id="24904" interp="linr"  time="-9999999/1" value="0" leadInLength="0/1"  />
              <InterpolatingParam id="24905" interp="linr"  time="-9999999/1" value="0" leadInLength="0/1"  />
              <InterpolatingParam id="24906" interp="linr"  time="-9999999/1" value="0" leadInLength="0/1"  />
             </VectorParam>
             <VectorParam id="24907"  name="shear">
              <InterpolatingParam id="24908" interp="linr"  time="-9999999/1" value="0" leadInLength="0/1"  />
              <InterpolatingParam id="24909" interp="linr"  time="-9999999/1" value="0" leadInLength="0/1"  />
              <InterpolatingParam id="24910" interp="linr"  time="-9999999/1" value="0" leadInLength="0/1"  />
             </VectorParam>
             <VectorParam id="24911"  name="scale">
              <InterpolatingParam id="24912" interp="linr"  time="-9999999/1" value="1" leadInLength="0/1"  />
              <InterpolatingParam id="24913" interp="linr"  time="-9999999/1" value="1" leadInLength="0/1"  />
              <InterpolatingParam id="24914" interp="linr"  time="-9999999/1" value="1" leadInLength="0/1"  />
             </VectorParam>
             <VectorParam id="24915"  name="anchor">
              <InterpolatingParam id="24916" interp="linr"  time="0/1" value="0" leadInLength="0/1"  />
              <InterpolatingParam id="24917" interp="linr"  time="0/1" value="0" leadInLength="0/1"  />
              <InterpolatingParam id="24918" interp="linr"  time="0/1" value="0" leadInLength="0/1"  />
             </VectorParam>
            </Transformer>
            <Parameters>
             <VectorParam id="24919"  name="sourceCrop">
              <InterpolatingParam id="24920" interp="linr"  time="0/1" value="0" leadInLength="0/1"  />
              <InterpolatingParam id="24921" interp="linr"  time="0/1" value="0" leadInLength="0/1"  />
              <InterpolatingParam id="24922" interp="linr"  time="0/1" value="0" leadInLength="0/1"  />
              <InterpolatingParam id="24923" interp="linr"  time="0/1" value="0" leadInLength="0/1"  />
             </VectorParam>
             <VectorParam id="24924"  name="geometryCrop">
              <InterpolatingParam id="24925" interp="linr"  time="-9999999/1" value="0" leadInLength="0/1"  />
              <InterpolatingParam id="24926" interp="linr"  time="-9999999/1" value="0" leadInLength="0/1"  />
              <InterpolatingParam id="24927" interp="linr"  time="-9999999/1" value="0" leadInLength="0/1"  />
              <InterpolatingParam id="24928" interp="linr"  time="-9999999/1" value="0" leadInLength="0/1"  />
             </VectorParam>
             <InterpolatingParam id="24929" interp="linr"  time="-9999999/1" value="1" leadInLength="0/1"  name="opacity"/>
            </Parameters>
            <Attributes>
             <Attribute id="24930" value="" name="ident"/>
            </Attributes>
            <MetaData>
             <entry key="WinSubProjectDisplayName" val=""/>
            </MetaData>
            <ExtraData>
             <Entry key="ZoomPanBin">
              <ZoomPanBin id="24931"  >
               <ZoomPanKeyframes>
                <ZoomPanKeyframe id="24932" timeRangeEnd="-9999999/1" timeRangeDuration="0/1" interpolaterName=""  />
               </ZoomPanKeyframes>
              </ZoomPanBin>
             </Entry>
            </ExtraData>
           </VMFile>
           <VMFile id="24933" start="8729" duration="323" scalar="1/1" mediaStart="16694/1" mediaDuration="323/1" trackNumber="0" src="4" >
            <Transformer>
             <VectorParam id="24934"  name="translation">
              <InterpolatingParam id="24935" interp="linr"  time="-9999999/1" value="0" leadInLength="0/1"  />
              <InterpolatingParam id="24936" interp="linr"  time="-9999999/1" value="0" leadInLength="0/1"  />
              <InterpolatingParam id="24937" interp="linr"  time="-9999999/1" value="0" leadInLength="0/1"  />
             </VectorParam>
             <VectorParam id="24938"  name="rotation">
              <InterpolatingParam id="24939" interp="linr"  time="-9999999/1" value="0" leadInLength="0/1"  />
              <InterpolatingParam id="24940" interp="linr"  time="-9999999/1" value="0" leadInLength="0/1"  />
              <InterpolatingParam id="24941" interp="linr"  time="-9999999/1" value="0" leadInLength="0/1"  />
             </VectorParam>
             <VectorParam id="24942"  name="shear">
              <InterpolatingParam id="24943" interp="linr"  time="-9999999/1" value="0" leadInLength="0/1"  />
              <InterpolatingParam id="24944" interp="linr"  time="-9999999/1" value="0" leadInLength="0/1"  />
              <InterpolatingParam id="24945" interp="linr"  time="-9999999/1" value="0" leadInLength="0/1"  />
             </VectorParam>
             <VectorParam id="24946"  name="scale">
              <InterpolatingParam id="24947" interp="linr"  time="-9999999/1" value="1" leadInLength="0/1"  />
              <InterpolatingParam id="24948" interp="linr"  time="-9999999/1" value="1" leadInLength="0/1"  />
              <InterpolatingParam id="24949" interp="linr"  time="-9999999/1" value="1" leadInLength="0/1"  />
             </VectorParam>
             <VectorParam id="24950"  name="anchor">
              <InterpolatingParam id="24951" interp="linr"  time="0/1" value="0" leadInLength="0/1"  />
              <InterpolatingParam id="24952" interp="linr"  time="0/1" value="0" leadInLength="0/1"  />
              <InterpolatingParam id="24953" interp="linr"  time="0/1" value="0" leadInLength="0/1"  />
             </VectorParam>
            </Transformer>
            <Parameters>
             <VectorParam id="24954"  name="sourceCrop">
              <InterpolatingParam id="24955" interp="linr"  time="0/1" value="0" leadInLength="0/1"  />
              <InterpolatingParam id="24956" interp="linr"  time="0/1" value="0" leadInLength="0/1"  />
              <InterpolatingParam id="24957" interp="linr"  time="0/1" value="0" leadInLength="0/1"  />
              <InterpolatingParam id="24958" interp="linr"  time="0/1" value="0" leadInLength="0/1"  />
             </VectorParam>
             <VectorParam id="24959"  name="geometryCrop">
              <InterpolatingParam id="24960" interp="linr"  time="-9999999/1" value="0" leadInLength="0/1"  />
              <InterpolatingParam id="24961" interp="linr"  time="-9999999/1" value="0" leadInLength="0/1"  />
              <InterpolatingParam id="24962" interp="linr"  time="-9999999/1" value="0" leadInLength="0/1"  />
              <InterpolatingParam id="24963" interp="linr"  time="-9999999/1" value="0" leadInLength="0/1"  />
             </VectorParam>
             <InterpolatingParam id="24964" interp="linr"  time="-9999999/1" value="1" leadInLength="0/1"  name="opacity"/>
            </Parameters>
            <Attributes>
             <Attribute id="24965" value="" name="ident"/>
            </Attributes>
            <MetaData>
             <entry key="WinSubProjectDisplayName" val=""/>
            </MetaData>
            <ExtraData>
             <Entry key="ZoomPanBin">
              <ZoomPanBin id="24966"  >
               <ZoomPanKeyframes>
                <ZoomPanKeyframe id="24967" timeRangeEnd="-9999999/1" timeRangeDuration="0/1" interpolaterName=""  />
               </ZoomPanKeyframes>
              </ZoomPanBin>
             </Entry>
            </ExtraData>
           </VMFile>
           <VMFile id="24968" start="9052" duration="223" scalar="1/1" mediaStart="17164/1" mediaDuration="223/1" trackNumber="0" src="4" >
            <Transformer>
             <VectorParam id="24969"  name="translation">
              <InterpolatingParam id="24970" interp="linr"  time="-9999999/1" value="0" leadInLength="0/1"  />
              <InterpolatingParam id="24971" interp="linr"  time="-9999999/1" value="0" leadInLength="0/1"  />
              <InterpolatingParam id="24972" interp="linr"  time="-9999999/1" value="0" leadInLength="0/1"  />
             </VectorParam>
             <VectorParam id="24973"  name="rotation">
              <InterpolatingParam id="24974" interp="linr"  time="-9999999/1" value="0" leadInLength="0/1"  />
              <InterpolatingParam id="24975" interp="linr"  time="-9999999/1" value="0" leadInLength="0/1"  />
              <InterpolatingParam id="24976" interp="linr"  time="-9999999/1" value="0" leadInLength="0/1"  />
             </VectorParam>
             <VectorParam id="24977"  name="shear">
              <InterpolatingParam id="24978" interp="linr"  time="-9999999/1" value="0" leadInLength="0/1"  />
              <InterpolatingParam id="24979" interp="linr"  time="-9999999/1" value="0" leadInLength="0/1"  />
              <InterpolatingParam id="24980" interp="linr"  time="-9999999/1" value="0" leadInLength="0/1"  />
             </VectorParam>
             <VectorParam id="24981"  name="scale">
              <InterpolatingParam id="24982" interp="linr"  time="-9999999/1" value="1" leadInLength="0/1"  />
              <InterpolatingParam id="24983" interp="linr"  time="-9999999/1" value="1" leadInLength="0/1"  />
              <InterpolatingParam id="24984" interp="linr"  time="-9999999/1" value="1" leadInLength="0/1"  />
             </VectorParam>
             <VectorParam id="24985"  name="anchor">
              <InterpolatingParam id="24986" interp="linr"  time="0/1" value="0" leadInLength="0/1"  />
              <InterpolatingParam id="24987" interp="linr"  time="0/1" value="0" leadInLength="0/1"  />
              <InterpolatingParam id="24988" interp="linr"  time="0/1" value="0" leadInLength="0/1"  />
             </VectorParam>
            </Transformer>
            <Parameters>
             <VectorParam id="24989"  name="sourceCrop">
              <InterpolatingParam id="24990" interp="linr"  time="0/1" value="0" leadInLength="0/1"  />
              <InterpolatingParam id="24991" interp="linr"  time="0/1" value="0" leadInLength="0/1"  />
              <InterpolatingParam id="24992" interp="linr"  time="0/1" value="0" leadInLength="0/1"  />
              <InterpolatingParam id="24993" interp="linr"  time="0/1" value="0" leadInLength="0/1"  />
             </VectorParam>
             <VectorParam id="24994"  name="geometryCrop">
              <InterpolatingParam id="24995" interp="linr"  time="-9999999/1" value="0" leadInLength="0/1"  />
              <InterpolatingParam id="24996" interp="linr"  time="-9999999/1" value="0" leadInLength="0/1"  />
              <InterpolatingParam id="24997" interp="linr"  time="-9999999/1" value="0" leadInLength="0/1"  />
              <InterpolatingParam id="24998" interp="linr"  time="-9999999/1" value="0" leadInLength="0/1"  />
             </VectorParam>
             <InterpolatingParam id="24999" interp="linr"  time="-9999999/1" value="1" leadInLength="0/1"  name="opacity"/>
            </Parameters>
            <Attributes>
             <Attribute id="25000" value="" name="ident"/>
            </Attributes>
            <MetaData>
             <entry key="WinSubProjectDisplayName" val=""/>
            </MetaData>
            <ExtraData>
             <Entry key="ZoomPanBin">
              <ZoomPanBin id="25001"  >
               <ZoomPanKeyframes>
                <ZoomPanKeyframe id="25002" timeRangeEnd="-9999999/1" timeRangeDuration="0/1" interpolaterName=""  />
               </ZoomPanKeyframes>
              </ZoomPanBin>
             </Entry>
            </ExtraData>
           </VMFile>
           <VMFile id="25003" start="9275" duration="323" scalar="1/1" mediaStart="26742/1" mediaDuration="323/1" trackNumber="0" src="4" >
            <Transformer>
             <VectorParam id="25004"  name="translation">
              <InterpolatingParam id="25005" interp="linr"  time="-9999999/1" value="0" leadInLength="0/1"  />
              <InterpolatingParam id="25006" interp="linr"  time="-9999999/1" value="0" leadInLength="0/1"  />
              <InterpolatingParam id="25007" interp="linr"  time="-9999999/1" value="0" leadInLength="0/1"  />
             </VectorParam>
             <VectorParam id="25008"  name="rotation">
              <InterpolatingParam id="25009" interp="linr"  time="-9999999/1" value="0" leadInLength="0/1"  />
              <InterpolatingParam id="25010" interp="linr"  time="-9999999/1" value="0" leadInLength="0/1"  />
              <InterpolatingParam id="25011" interp="linr"  time="-9999999/1" value="0" leadInLength="0/1"  />
             </VectorParam>
             <VectorParam id="25012"  name="shear">
              <InterpolatingParam id="25013" interp="linr"  time="-9999999/1" value="0" leadInLength="0/1"  />
              <InterpolatingParam id="25014" interp="linr"  time="-9999999/1" value="0" leadInLength="0/1"  />
              <InterpolatingParam id="25015" interp="linr"  time="-9999999/1" value="0" leadInLength="0/1"  />
             </VectorParam>
             <VectorParam id="25016"  name="scale">
              <InterpolatingParam id="25017" interp="linr"  time="-9999999/1" value="1" leadInLength="0/1"  />
              <InterpolatingParam id="25018" interp="linr"  time="-9999999/1" value="1" leadInLength="0/1"  />
              <InterpolatingParam id="25019" interp="linr"  time="-9999999/1" value="1" leadInLength="0/1"  />
             </VectorParam>
             <VectorParam id="25020"  name="anchor">
              <InterpolatingParam id="25021" interp="linr"  time="0/1" value="0" leadInLength="0/1"  />
              <InterpolatingParam id="25022" interp="linr"  time="0/1" value="0" leadInLength="0/1"  />
              <InterpolatingParam id="25023" interp="linr"  time="0/1" value="0" leadInLength="0/1"  />
             </VectorParam>
            </Transformer>
            <Parameters>
             <VectorParam id="25024"  name="sourceCrop">
              <InterpolatingParam id="25025" interp="linr"  time="0/1" value="0" leadInLength="0/1"  />
              <InterpolatingParam id="25026" interp="linr"  time="0/1" value="0" leadInLength="0/1"  />
              <InterpolatingParam id="25027" interp="linr"  time="0/1" value="0" leadInLength="0/1"  />
              <InterpolatingParam id="25028" interp="linr"  time="0/1" value="0" leadInLength="0/1"  />
             </VectorParam>
             <VectorParam id="25029"  name="geometryCrop">
              <InterpolatingParam id="25030" interp="linr"  time="-9999999/1" value="0" leadInLength="0/1"  />
              <InterpolatingParam id="25031" interp="linr"  time="-9999999/1" value="0" leadInLength="0/1"  />
              <InterpolatingParam id="25032" interp="linr"  time="-9999999/1" value="0" leadInLength="0/1"  />
              <InterpolatingParam id="25033" interp="linr"  time="-9999999/1" value="0" leadInLength="0/1"  />
             </VectorParam>
             <InterpolatingParam id="25034" interp="linr"  time="-9999999/1" value="1" leadInLength="0/1"  name="opacity"/>
            </Parameters>
            <Attributes>
             <Attribute id="25035" value="" name="ident"/>
            </Attributes>
            <MetaData>
             <entry key="WinSubProjectDisplayName" val=""/>
            </MetaData>
            <ExtraData>
             <Entry key="ZoomPanBin">
              <ZoomPanBin id="25036"  >
               <ZoomPanKeyframes>
                <ZoomPanKeyframe id="25037" timeRangeEnd="-9999999/1" timeRangeDuration="0/1" interpolaterName=""  />
               </ZoomPanKeyframes>
              </ZoomPanBin>
             </Entry>
            </ExtraData>
           </VMFile>
           <VMFile id="25038" start="9598" duration="259" scalar="1/1" mediaStart="27825/1" mediaDuration="259/1" trackNumber="0" src="4" >
            <Transformer>
             <VectorParam id="25039"  name="translation">
              <InterpolatingParam id="25040" interp="linr"  time="-9999999/1" value="0" leadInLength="0/1"  />
              <InterpolatingParam id="25041" interp="linr"  time="-9999999/1" value="0" leadInLength="0/1"  />
              <InterpolatingParam id="25042" interp="linr"  time="-9999999/1" value="0" leadInLength="0/1"  />
             </VectorParam>
             <VectorParam id="25043"  name="rotation">
              <InterpolatingParam id="25044" interp="linr"  time="-9999999/1" value="0" leadInLength="0/1"  />
              <InterpolatingParam id="25045" interp="linr"  time="-9999999/1" value="0" leadInLength="0/1"  />
              <InterpolatingParam id="25046" interp="linr"  time="-9999999/1" value="0" leadInLength="0/1"  />
             </VectorParam>
             <VectorParam id="25047"  name="shear">
              <InterpolatingParam id="25048" interp="linr"  time="-9999999/1" value="0" leadInLength="0/1"  />
              <InterpolatingParam id="25049" interp="linr"  time="-9999999/1" value="0" leadInLength="0/1"  />
              <InterpolatingParam id="25050" interp="linr"  time="-9999999/1" value="0" leadInLength="0/1"  />
             </VectorParam>
             <VectorParam id="25051"  name="scale">
              <InterpolatingParam id="25052" interp="linr"  time="-9999999/1" value="1" leadInLength="0/1"  />
              <InterpolatingParam id="25053" interp="linr"  time="-9999999/1" value="1" leadInLength="0/1"  />
              <InterpolatingParam id="25054" interp="linr"  time="-9999999/1" value="1" leadInLength="0/1"  />
             </VectorParam>
             <VectorParam id="25055"  name="anchor">
              <InterpolatingParam id="25056" interp="linr"  time="0/1" value="0" leadInLength="0/1"  />
              <InterpolatingParam id="25057" interp="linr"  time="0/1" value="0" leadInLength="0/1"  />
              <InterpolatingParam id="25058" interp="linr"  time="0/1" value="0" leadInLength="0/1"  />
             </VectorParam>
            </Transformer>
            <Parameters>
             <VectorParam id="25059"  name="sourceCrop">
              <InterpolatingParam id="25060" interp="linr"  time="0/1" value="0" leadInLength="0/1"  />
              <InterpolatingParam id="25061" interp="linr"  time="0/1" value="0" leadInLength="0/1"  />
              <InterpolatingParam id="25062" interp="linr"  time="0/1" value="0" leadInLength="0/1"  />
              <InterpolatingParam id="25063" interp="linr"  time="0/1" value="0" leadInLength="0/1"  />
             </VectorParam>
             <VectorParam id="25064"  name="geometryCrop">
              <InterpolatingParam id="25065" interp="linr"  time="-9999999/1" value="0" leadInLength="0/1"  />
              <InterpolatingParam id="25066" interp="linr"  time="-9999999/1" value="0" leadInLength="0/1"  />
              <InterpolatingParam id="25067" interp="linr"  time="-9999999/1" value="0" leadInLength="0/1"  />
              <InterpolatingParam id="25068" interp="linr"  time="-9999999/1" value="0" leadInLength="0/1"  />
             </VectorParam>
             <InterpolatingParam id="25069" interp="linr"  time="-9999999/1" value="1" leadInLength="0/1"  name="opacity"/>
            </Parameters>
            <Attributes>
             <Attribute id="25070" value="" name="ident"/>
            </Attributes>
            <MetaData>
             <entry key="WinSubProjectDisplayName" val=""/>
            </MetaData>
            <ExtraData>
             <Entry key="ZoomPanBin">
              <ZoomPanBin id="25071"  >
               <ZoomPanKeyframes>
                <ZoomPanKeyframe id="25072" timeRangeEnd="-9999999/1" timeRangeDuration="0/1" interpolaterName=""  />
               </ZoomPanKeyframes>
              </ZoomPanBin>
             </Entry>
            </ExtraData>
           </VMFile>
           <VMFile id="25073" start="9857" duration="157" scalar="1/1" mediaStart="28287/1" mediaDuration="157/1" trackNumber="0" src="4" >
            <Transformer>
             <VectorParam id="25074"  name="translation">
              <InterpolatingParam id="25075" interp="linr"  time="-9999999/1" value="0" leadInLength="0/1"  />
              <InterpolatingParam id="25076" interp="linr"  time="-9999999/1" value="0" leadInLength="0/1"  />
              <InterpolatingParam id="25077" interp="linr"  time="-9999999/1" value="0" leadInLength="0/1"  />
             </VectorParam>
             <VectorParam id="25078"  name="rotation">
              <InterpolatingParam id="25079" interp="linr"  time="-9999999/1" value="0" leadInLength="0/1"  />
              <InterpolatingParam id="25080" interp="linr"  time="-9999999/1" value="0" leadInLength="0/1"  />
              <InterpolatingParam id="25081" interp="linr"  time="-9999999/1" value="0" leadInLength="0/1"  />
             </VectorParam>
             <VectorParam id="25082"  name="shear">
              <InterpolatingParam id="25083" interp="linr"  time="-9999999/1" value="0" leadInLength="0/1"  />
              <InterpolatingParam id="25084" interp="linr"  time="-9999999/1" value="0" leadInLength="0/1"  />
              <InterpolatingParam id="25085" interp="linr"  time="-9999999/1" value="0" leadInLength="0/1"  />
             </VectorParam>
             <VectorParam id="25086"  name="scale">
              <InterpolatingParam id="25087" interp="linr"  time="-9999999/1" value="1" leadInLength="0/1"  />
              <InterpolatingParam id="25088" interp="linr"  time="-9999999/1" value="1" leadInLength="0/1"  />
              <InterpolatingParam id="25089" interp="linr"  time="-9999999/1" value="1" leadInLength="0/1"  />
             </VectorParam>
             <VectorParam id="25090"  name="anchor">
              <InterpolatingParam id="25091" interp="linr"  time="0/1" value="0" leadInLength="0/1"  />
              <InterpolatingParam id="25092" interp="linr"  time="0/1" value="0" leadInLength="0/1"  />
              <InterpolatingParam id="25093" interp="linr"  time="0/1" value="0" leadInLength="0/1"  />
             </VectorParam>
            </Transformer>
            <Parameters>
             <VectorParam id="25094"  name="sourceCrop">
              <InterpolatingParam id="25095" interp="linr"  time="0/1" value="0" leadInLength="0/1"  />
              <InterpolatingParam id="25096" interp="linr"  time="0/1" value="0" leadInLength="0/1"  />
              <InterpolatingParam id="25097" interp="linr"  time="0/1" value="0" leadInLength="0/1"  />
              <InterpolatingParam id="25098" interp="linr"  time="0/1" value="0" leadInLength="0/1"  />
             </VectorParam>
             <VectorParam id="25099"  name="geometryCrop">
              <InterpolatingParam id="25100" interp="linr"  time="-9999999/1" value="0" leadInLength="0/1"  />
              <InterpolatingParam id="25101" interp="linr"  time="-9999999/1" value="0" leadInLength="0/1"  />
              <InterpolatingParam id="25102" interp="linr"  time="-9999999/1" value="0" leadInLength="0/1"  />
              <InterpolatingParam id="25103" interp="linr"  time="-9999999/1" value="0" leadInLength="0/1"  />
             </VectorParam>
             <InterpolatingParam id="25104" interp="linr"  time="-9999999/1" value="1" leadInLength="0/1"  name="opacity"/>
            </Parameters>
            <Attributes>
             <Attribute id="25105" value="" name="ident"/>
            </Attributes>
            <MetaData>
             <entry key="WinSubProjectDisplayName" val=""/>
            </MetaData>
            <ExtraData>
             <Entry key="ZoomPanBin">
              <ZoomPanBin id="25106"  >
               <ZoomPanKeyframes>
                <ZoomPanKeyframe id="25107" timeRangeEnd="-9999999/1" timeRangeDuration="0/1" interpolaterName=""  />
               </ZoomPanKeyframes>
              </ZoomPanBin>
             </Entry>
            </ExtraData>
           </VMFile>
           <VMFile id="25108" start="10014" duration="290" scalar="1/1" mediaStart="28689/1" mediaDuration="290/1" trackNumber="0" src="4" >
            <Transformer>
             <VectorParam id="25109"  name="translation">
              <InterpolatingParam id="25110" interp="linr"  time="-9999999/1" value="0" leadInLength="0/1"  />
              <InterpolatingParam id="25111" interp="linr"  time="-9999999/1" value="0" leadInLength="0/1"  />
              <InterpolatingParam id="25112" interp="linr"  time="-9999999/1" value="0" leadInLength="0/1"  />
             </VectorParam>
             <VectorParam id="25113"  name="rotation">
              <InterpolatingParam id="25114" interp="linr"  time="-9999999/1" value="0" leadInLength="0/1"  />
              <InterpolatingParam id="25115" interp="linr"  time="-9999999/1" value="0" leadInLength="0/1"  />
              <InterpolatingParam id="25116" interp="linr"  time="-9999999/1" value="0" leadInLength="0/1"  />
             </VectorParam>
             <VectorParam id="25117"  name="shear">
              <InterpolatingParam id="25118" interp="linr"  time="-9999999/1" value="0" leadInLength="0/1"  />
              <InterpolatingParam id="25119" interp="linr"  time="-9999999/1" value="0" leadInLength="0/1"  />
              <InterpolatingParam id="25120" interp="linr"  time="-9999999/1" value="0" leadInLength="0/1"  />
             </VectorParam>
             <VectorParam id="25121"  name="scale">
              <InterpolatingParam id="25122" interp="linr"  time="-9999999/1" value="1" leadInLength="0/1"  />
              <InterpolatingParam id="25123" interp="linr"  time="-9999999/1" value="1" leadInLength="0/1"  />
              <InterpolatingParam id="25124" interp="linr"  time="-9999999/1" value="1" leadInLength="0/1"  />
             </VectorParam>
             <VectorParam id="25125"  name="anchor">
              <InterpolatingParam id="25126" interp="linr"  time="0/1" value="0" leadInLength="0/1"  />
              <InterpolatingParam id="25127" interp="linr"  time="0/1" value="0" leadInLength="0/1"  />
              <InterpolatingParam id="25128" interp="linr"  time="0/1" value="0" leadInLength="0/1"  />
             </VectorParam>
            </Transformer>
            <Parameters>
             <VectorParam id="25129"  name="sourceCrop">
              <InterpolatingParam id="25130" interp="linr"  time="0/1" value="0" leadInLength="0/1"  />
              <InterpolatingParam id="25131" interp="linr"  time="0/1" value="0" leadInLength="0/1"  />
              <InterpolatingParam id="25132" interp="linr"  time="0/1" value="0" leadInLength="0/1"  />
              <InterpolatingParam id="25133" interp="linr"  time="0/1" value="0" leadInLength="0/1"  />
             </VectorParam>
             <VectorParam id="25134"  name="geometryCrop">
              <InterpolatingParam id="25135" interp="linr"  time="-9999999/1" value="0" leadInLength="0/1"  />
              <InterpolatingParam id="25136" interp="linr"  time="-9999999/1" value="0" leadInLength="0/1"  />
              <InterpolatingParam id="25137" interp="linr"  time="-9999999/1" value="0" leadInLength="0/1"  />
              <InterpolatingParam id="25138" interp="linr"  time="-9999999/1" value="0" leadInLength="0/1"  />
             </VectorParam>
             <InterpolatingParam id="25139" interp="linr"  time="-9999999/1" value="1" leadInLength="0/1"  name="opacity"/>
            </Parameters>
            <Attributes>
             <Attribute id="25140" value="" name="ident"/>
            </Attributes>
            <MetaData>
             <entry key="WinSubProjectDisplayName" val=""/>
            </MetaData>
            <ExtraData>
             <Entry key="ZoomPanBin">
              <ZoomPanBin id="25141"  >
               <ZoomPanKeyframes>
                <ZoomPanKeyframe id="25142" timeRangeEnd="-9999999/1" timeRangeDuration="0/1" interpolaterName=""  />
               </ZoomPanKeyframes>
              </ZoomPanBin>
             </Entry>
            </ExtraData>
           </VMFile>
           <IMFile id="25143" start="10304" duration="60" scalar="1/1" mediaStart="29056/1" mediaDuration="1/1" trackNumber="0" src="4" trimStartSum="0/1" >
            <Transformer>
             <VectorParam id="25144"  name="translation">
              <InterpolatingParam id="25145" interp="linr"  time="-9999999/1" value="0" leadInLength="0/1"  />
              <InterpolatingParam id="25146" interp="linr"  time="-9999999/1" value="0" leadInLength="0/1"  />
              <InterpolatingParam id="25147" interp="linr"  time="-9999999/1" value="0" leadInLength="0/1"  />
             </VectorParam>
             <VectorParam id="25148"  name="rotation">
              <InterpolatingParam id="25149" interp="linr"  time="-9999999/1" value="0" leadInLength="0/1"  />
              <InterpolatingParam id="25150" interp="linr"  time="-9999999/1" value="0" leadInLength="0/1"  />
              <InterpolatingParam id="25151" interp="linr"  time="-9999999/1" value="0" leadInLength="0/1"  />
             </VectorParam>
             <VectorParam id="25152"  name="shear">
              <InterpolatingParam id="25153" interp="linr"  time="-9999999/1" value="0" leadInLength="0/1"  />
              <InterpolatingParam id="25154" interp="linr"  time="-9999999/1" value="0" leadInLength="0/1"  />
              <InterpolatingParam id="25155" interp="linr"  time="-9999999/1" value="0" leadInLength="0/1"  />
             </VectorParam>
             <VectorParam id="25156"  name="scale">
              <InterpolatingParam id="25157" interp="linr"  time="-9999999/1" value="1" leadInLength="0/1"  />
              <InterpolatingParam id="25158" interp="linr"  time="-9999999/1" value="1" leadInLength="0/1"  />
              <InterpolatingParam id="25159" interp="linr"  time="-9999999/1" value="1" leadInLength="0/1"  />
             </VectorParam>
             <VectorParam id="25160"  name="anchor">
              <InterpolatingParam id="25161" interp="linr"  time="0/1" value="0" leadInLength="0/1"  />
              <InterpolatingParam id="25162" interp="linr"  time="0/1" value="0" leadInLength="0/1"  />
              <InterpolatingParam id="25163" interp="linr"  time="0/1" value="0" leadInLength="0/1"  />
             </VectorParam>
            </Transformer>
            <Parameters>
             <VectorParam id="25164"  name="sourceCrop">
              <InterpolatingParam id="25165" interp="linr"  time="0/1" value="0" leadInLength="0/1"  />
              <InterpolatingParam id="25166" interp="linr"  time="0/1" value="0" leadInLength="0/1"  />
              <InterpolatingParam id="25167" interp="linr"  time="0/1" value="0" leadInLength="0/1"  />
              <InterpolatingParam id="25168" interp="linr"  time="0/1" value="0" leadInLength="0/1"  />
             </VectorParam>
             <VectorParam id="25169"  name="geometryCrop">
              <InterpolatingParam id="25170" interp="linr"  time="-9999999/1" value="0" leadInLength="0/1"  />
              <InterpolatingParam id="25171" interp="linr"  time="-9999999/1" value="0" leadInLength="0/1"  />
              <InterpolatingParam id="25172" interp="linr"  time="-9999999/1" value="0" leadInLength="0/1"  />
              <InterpolatingParam id="25173" interp="linr"  time="-9999999/1" value="0" leadInLength="0/1"  />
             </VectorParam>
             <InterpolatingParam id="25174" interp="linr"  time="-9999999/1" value="1" leadInLength="0/1"  name="opacity"/>
            </Parameters>
            <Attributes>
             <Attribute id="25175" value="" name="ident"/>
            </Attributes>
            <MetaData>
             <entry key="WinSubProjectDisplayName" val=""/>
            </MetaData>
            <ExtraData>
             <Entry key="ZoomPanBin">
              <ZoomPanBin id="25176"  >
               <ZoomPanKeyframes>
                <ZoomPanKeyframe id="25177" timeRangeEnd="-9999999/1" timeRangeDuration="0/1" interpolaterName=""  />
               </ZoomPanKeyframes>
              </ZoomPanBin>
             </Entry>
            </ExtraData>
           </IMFile>
           <VMFile id="25178" start="10364" duration="18" scalar="1/1" mediaStart="29056/1" mediaDuration="18/1" trackNumber="0" src="4" >
            <Transformer>
             <VectorParam id="25179"  name="translation">
              <InterpolatingParam id="25180" interp="linr"  time="-9999999/1" value="0" leadInLength="0/1"  />
              <InterpolatingParam id="25181" interp="linr"  time="-9999999/1" value="0" leadInLength="0/1"  />
              <InterpolatingParam id="25182" interp="linr"  time="-9999999/1" value="0" leadInLength="0/1"  />
             </VectorParam>
             <VectorParam id="25183"  name="rotation">
              <InterpolatingParam id="25184" interp="linr"  time="-9999999/1" value="0" leadInLength="0/1"  />
              <InterpolatingParam id="25185" interp="linr"  time="-9999999/1" value="0" leadInLength="0/1"  />
              <InterpolatingParam id="25186" interp="linr"  time="-9999999/1" value="0" leadInLength="0/1"  />
             </VectorParam>
             <VectorParam id="25187"  name="shear">
              <InterpolatingParam id="25188" interp="linr"  time="-9999999/1" value="0" leadInLength="0/1"  />
              <InterpolatingParam id="25189" interp="linr"  time="-9999999/1" value="0" leadInLength="0/1"  />
              <InterpolatingParam id="25190" interp="linr"  time="-9999999/1" value="0" leadInLength="0/1"  />
             </VectorParam>
             <VectorParam id="25191"  name="scale">
              <InterpolatingParam id="25192" interp="linr"  time="-9999999/1" value="1" leadInLength="0/1"  />
              <InterpolatingParam id="25193" interp="linr"  time="-9999999/1" value="1" leadInLength="0/1"  />
              <InterpolatingParam id="25194" interp="linr"  time="-9999999/1" value="1" leadInLength="0/1"  />
             </VectorParam>
             <VectorParam id="25195"  name="anchor">
              <InterpolatingParam id="25196" interp="linr"  time="0/1" value="0" leadInLength="0/1"  />
              <InterpolatingParam id="25197" interp="linr"  time="0/1" value="0" leadInLength="0/1"  />
              <InterpolatingParam id="25198" interp="linr"  time="0/1" value="0" leadInLength="0/1"  />
             </VectorParam>
            </Transformer>
            <Parameters>
             <VectorParam id="25199"  name="sourceCrop">
              <InterpolatingParam id="25200" interp="linr"  time="0/1" value="0" leadInLength="0/1"  />
              <InterpolatingParam id="25201" interp="linr"  time="0/1" value="0" leadInLength="0/1"  />
              <InterpolatingParam id="25202" interp="linr"  time="0/1" value="0" leadInLength="0/1"  />
              <InterpolatingParam id="25203" interp="linr"  time="0/1" value="0" leadInLength="0/1"  />
             </VectorParam>
             <VectorParam id="25204"  name="geometryCrop">
              <InterpolatingParam id="25205" interp="linr"  time="-9999999/1" value="0" leadInLength="0/1"  />
              <InterpolatingParam id="25206" interp="linr"  time="-9999999/1" value="0" leadInLength="0/1"  />
              <InterpolatingParam id="25207" interp="linr"  time="-9999999/1" value="0" leadInLength="0/1"  />
              <InterpolatingParam id="25208" interp="linr"  time="-9999999/1" value="0" leadInLength="0/1"  />
             </VectorParam>
             <InterpolatingParam id="25209" interp="linr"  time="-9999999/1" value="1" leadInLength="0/1"  name="opacity"/>
            </Parameters>
            <Attributes>
             <Attribute id="25210" value="" name="ident"/>
            </Attributes>
            <MetaData>
             <entry key="WinSubProjectDisplayName" val=""/>
            </MetaData>
            <ExtraData>
             <Entry key="ZoomPanBin">
              <ZoomPanBin id="25211"  >
               <ZoomPanKeyframes>
                <ZoomPanKeyframe id="25212" timeRangeEnd="-9999999/1" timeRangeDuration="0/1" interpolaterName=""  />
               </ZoomPanKeyframes>
              </ZoomPanBin>
             </Entry>
            </ExtraData>
           </VMFile>
           <IMFile id="25213" start="10382" duration="30" scalar="1/1" mediaStart="29074/1" mediaDuration="1/1" trackNumber="0" src="4" trimStartSum="0/1" >
            <Transformer>
             <VectorParam id="25214"  name="translation">
              <InterpolatingParam id="25215" interp="linr"  time="-9999999/1" value="0" leadInLength="0/1"  />
              <InterpolatingParam id="25216" interp="linr"  time="-9999999/1" value="0" leadInLength="0/1"  />
              <InterpolatingParam id="25217" interp="linr"  time="-9999999/1" value="0" leadInLength="0/1"  />
             </VectorParam>
             <VectorParam id="25218"  name="rotation">
              <InterpolatingParam id="25219" interp="linr"  time="-9999999/1" value="0" leadInLength="0/1"  />
              <InterpolatingParam id="25220" interp="linr"  time="-9999999/1" value="0" leadInLength="0/1"  />
              <InterpolatingParam id="25221" interp="linr"  time="-9999999/1" value="0" leadInLength="0/1"  />
             </VectorParam>
             <VectorParam id="25222"  name="shear">
              <InterpolatingParam id="25223" interp="linr"  time="-9999999/1" value="0" leadInLength="0/1"  />
              <InterpolatingParam id="25224" interp="linr"  time="-9999999/1" value="0" leadInLength="0/1"  />
              <InterpolatingParam id="25225" interp="linr"  time="-9999999/1" value="0" leadInLength="0/1"  />
             </VectorParam>
             <VectorParam id="25226"  name="scale">
              <InterpolatingParam id="25227" interp="linr"  time="-9999999/1" value="1" leadInLength="0/1"  />
              <InterpolatingParam id="25228" interp="linr"  time="-9999999/1" value="1" leadInLength="0/1"  />
              <InterpolatingParam id="25229" interp="linr"  time="-9999999/1" value="1" leadInLength="0/1"  />
             </VectorParam>
             <VectorParam id="25230"  name="anchor">
              <InterpolatingParam id="25231" interp="linr"  time="0/1" value="0" leadInLength="0/1"  />
              <InterpolatingParam id="25232" interp="linr"  time="0/1" value="0" leadInLength="0/1"  />
              <InterpolatingParam id="25233" interp="linr"  time="0/1" value="0" leadInLength="0/1"  />
             </VectorParam>
            </Transformer>
            <Parameters>
             <VectorParam id="25234"  name="sourceCrop">
              <InterpolatingParam id="25235" interp="linr"  time="0/1" value="0" leadInLength="0/1"  />
              <InterpolatingParam id="25236" interp="linr"  time="0/1" value="0" leadInLength="0/1"  />
              <InterpolatingParam id="25237" interp="linr"  time="0/1" value="0" leadInLength="0/1"  />
              <InterpolatingParam id="25238" interp="linr"  time="0/1" value="0" leadInLength="0/1"  />
             </VectorParam>
             <VectorParam id="25239"  name="geometryCrop">
              <InterpolatingParam id="25240" interp="linr"  time="-9999999/1" value="0" leadInLength="0/1"  />
              <InterpolatingParam id="25241" interp="linr"  time="-9999999/1" value="0" leadInLength="0/1"  />
              <InterpolatingParam id="25242" interp="linr"  time="-9999999/1" value="0" leadInLength="0/1"  />
              <InterpolatingParam id="25243" interp="linr"  time="-9999999/1" value="0" leadInLength="0/1"  />
             </VectorParam>
             <InterpolatingParam id="25244" interp="linr"  time="-9999999/1" value="1" leadInLength="0/1"  name="opacity"/>
            </Parameters>
            <Attributes>
             <Attribute id="25245" value="" name="ident"/>
            </Attributes>
            <MetaData>
             <entry key="WinSubProjectDisplayName" val=""/>
            </MetaData>
            <ExtraData>
             <Entry key="ZoomPanBin">
              <ZoomPanBin id="25246"  >
               <ZoomPanKeyframes>
                <ZoomPanKeyframe id="25247" timeRangeEnd="-9999999/1" timeRangeDuration="0/1" interpolaterName=""  />
               </ZoomPanKeyframes>
              </ZoomPanBin>
             </Entry>
            </ExtraData>
           </IMFile>
           <VMFile id="25248" start="10412" duration="1" scalar="1/1" mediaStart="29074/1" mediaDuration="1/1" trackNumber="0" src="4" >
            <Transformer>
             <VectorParam id="25249"  name="translation">
              <InterpolatingParam id="25250" interp="linr"  time="-9999999/1" value="0" leadInLength="0/1"  />
              <InterpolatingParam id="25251" interp="linr"  time="-9999999/1" value="0" leadInLength="0/1"  />
              <InterpolatingParam id="25252" interp="linr"  time="-9999999/1" value="0" leadInLength="0/1"  />
             </VectorParam>
             <VectorParam id="25253"  name="rotation">
              <InterpolatingParam id="25254" interp="linr"  time="-9999999/1" value="0" leadInLength="0/1"  />
              <InterpolatingParam id="25255" interp="linr"  time="-9999999/1" value="0" leadInLength="0/1"  />
              <InterpolatingParam id="25256" interp="linr"  time="-9999999/1" value="0" leadInLength="0/1"  />
             </VectorParam>
             <VectorParam id="25257"  name="shear">
              <InterpolatingParam id="25258" interp="linr"  time="-9999999/1" value="0" leadInLength="0/1"  />
              <InterpolatingParam id="25259" interp="linr"  time="-9999999/1" value="0" leadInLength="0/1"  />
              <InterpolatingParam id="25260" interp="linr"  time="-9999999/1" value="0" leadInLength="0/1"  />
             </VectorParam>
             <VectorParam id="25261"  name="scale">
              <InterpolatingParam id="25262" interp="linr"  time="-9999999/1" value="1" leadInLength="0/1"  />
              <InterpolatingParam id="25263" interp="linr"  time="-9999999/1" value="1" leadInLength="0/1"  />
              <InterpolatingParam id="25264" interp="linr"  time="-9999999/1" value="1" leadInLength="0/1"  />
             </VectorParam>
             <VectorParam id="25265"  name="anchor">
              <InterpolatingParam id="25266" interp="linr"  time="0/1" value="0" leadInLength="0/1"  />
              <InterpolatingParam id="25267" interp="linr"  time="0/1" value="0" leadInLength="0/1"  />
              <InterpolatingParam id="25268" interp="linr"  time="0/1" value="0" leadInLength="0/1"  />
             </VectorParam>
            </Transformer>
            <Parameters>
             <VectorParam id="25269"  name="sourceCrop">
              <InterpolatingParam id="25270" interp="linr"  time="0/1" value="0" leadInLength="0/1"  />
              <InterpolatingParam id="25271" interp="linr"  time="0/1" value="0" leadInLength="0/1"  />
              <InterpolatingParam id="25272" interp="linr"  time="0/1" value="0" leadInLength="0/1"  />
              <InterpolatingParam id="25273" interp="linr"  time="0/1" value="0" leadInLength="0/1"  />
             </VectorParam>
             <VectorParam id="25274"  name="geometryCrop">
              <InterpolatingParam id="25275" interp="linr"  time="-9999999/1" value="0" leadInLength="0/1"  />
              <InterpolatingParam id="25276" interp="linr"  time="-9999999/1" value="0" leadInLength="0/1"  />
              <InterpolatingParam id="25277" interp="linr"  time="-9999999/1" value="0" leadInLength="0/1"  />
              <InterpolatingParam id="25278" interp="linr"  time="-9999999/1" value="0" leadInLength="0/1"  />
             </VectorParam>
             <InterpolatingParam id="25279" interp="linr"  time="-9999999/1" value="1" leadInLength="0/1"  name="opacity"/>
            </Parameters>
            <Attributes>
             <Attribute id="25280" value="" name="ident"/>
            </Attributes>
            <MetaData>
             <entry key="WinSubProjectDisplayName" val=""/>
            </MetaData>
            <ExtraData>
             <Entry key="ZoomPanBin">
              <ZoomPanBin id="25281"  >
               <ZoomPanKeyframes>
                <ZoomPanKeyframe id="25282" timeRangeEnd="-9999999/1" timeRangeDuration="0/1" interpolaterName=""  />
               </ZoomPanKeyframes>
              </ZoomPanBin>
             </Entry>
            </ExtraData>
           </VMFile>
           <VMFile id="25283" start="10413" duration="42" scalar="1/1" mediaStart="29274/1" mediaDuration="42/1" trackNumber="0" src="4" >
            <Transformer>
             <VectorParam id="25284"  name="translation">
              <InterpolatingParam id="25285" interp="linr"  time="-9999999/1" value="0" leadInLength="0/1"  />
              <InterpolatingParam id="25286" interp="linr"  time="-9999999/1" value="0" leadInLength="0/1"  />
              <InterpolatingParam id="25287" interp="linr"  time="-9999999/1" value="0" leadInLength="0/1"  />
             </VectorParam>
             <VectorParam id="25288"  name="rotation">
              <InterpolatingParam id="25289" interp="linr"  time="-9999999/1" value="0" leadInLength="0/1"  />
              <InterpolatingParam id="25290" interp="linr"  time="-9999999/1" value="0" leadInLength="0/1"  />
              <InterpolatingParam id="25291" interp="linr"  time="-9999999/1" value="0" leadInLength="0/1"  />
             </VectorParam>
             <VectorParam id="25292"  name="shear">
              <InterpolatingParam id="25293" interp="linr"  time="-9999999/1" value="0" leadInLength="0/1"  />
              <InterpolatingParam id="25294" interp="linr"  time="-9999999/1" value="0" leadInLength="0/1"  />
              <InterpolatingParam id="25295" interp="linr"  time="-9999999/1" value="0" leadInLength="0/1"  />
             </VectorParam>
             <VectorParam id="25296"  name="scale">
              <InterpolatingParam id="25297" interp="linr"  time="-9999999/1" value="1" leadInLength="0/1"  />
              <InterpolatingParam id="25298" interp="linr"  time="-9999999/1" value="1" leadInLength="0/1"  />
              <InterpolatingParam id="25299" interp="linr"  time="-9999999/1" value="1" leadInLength="0/1"  />
             </VectorParam>
             <VectorParam id="25300"  name="anchor">
              <InterpolatingParam id="25301" interp="linr"  time="0/1" value="0" leadInLength="0/1"  />
              <InterpolatingParam id="25302" interp="linr"  time="0/1" value="0" leadInLength="0/1"  />
              <InterpolatingParam id="25303" interp="linr"  time="0/1" value="0" leadInLength="0/1"  />
             </VectorParam>
            </Transformer>
            <Parameters>
             <VectorParam id="25304"  name="sourceCrop">
              <InterpolatingParam id="25305" interp="linr"  time="0/1" value="0" leadInLength="0/1"  />
              <InterpolatingParam id="25306" interp="linr"  time="0/1" value="0" leadInLength="0/1"  />
              <InterpolatingParam id="25307" interp="linr"  time="0/1" value="0" leadInLength="0/1"  />
              <InterpolatingParam id="25308" interp="linr"  time="0/1" value="0" leadInLength="0/1"  />
             </VectorParam>
             <VectorParam id="25309"  name="geometryCrop">
              <InterpolatingParam id="25310" interp="linr"  time="-9999999/1" value="0" leadInLength="0/1"  />
              <InterpolatingParam id="25311" interp="linr"  time="-9999999/1" value="0" leadInLength="0/1"  />
              <InterpolatingParam id="25312" interp="linr"  time="-9999999/1" value="0" leadInLength="0/1"  />
              <InterpolatingParam id="25313" interp="linr"  time="-9999999/1" value="0" leadInLength="0/1"  />
             </VectorParam>
             <InterpolatingParam id="25314" interp="linr"  time="-9999999/1" value="1" leadInLength="0/1"  name="opacity"/>
            </Parameters>
            <Attributes>
             <Attribute id="25315" value="" name="ident"/>
            </Attributes>
            <MetaData>
             <entry key="WinSubProjectDisplayName" val=""/>
            </MetaData>
            <ExtraData>
             <Entry key="ZoomPanBin">
              <ZoomPanBin id="25316"  >
               <ZoomPanKeyframes>
                <ZoomPanKeyframe id="25317" timeRangeEnd="-9999999/1" timeRangeDuration="0/1" interpolaterName=""  />
               </ZoomPanKeyframes>
              </ZoomPanBin>
             </Entry>
            </ExtraData>
           </VMFile>
           <VMFile id="25318" start="10455" duration="147" scalar="1/1" mediaStart="29358/1" mediaDuration="147/1" trackNumber="0" src="4" >
            <Transformer>
             <VectorParam id="25319"  name="translation">
              <InterpolatingParam id="25320" interp="linr"  time="-9999999/1" value="0" leadInLength="0/1"  />
              <InterpolatingParam id="25321" interp="linr"  time="-9999999/1" value="0" leadInLength="0/1"  />
              <InterpolatingParam id="25322" interp="linr"  time="-9999999/1" value="0" leadInLength="0/1"  />
             </VectorParam>
             <VectorParam id="25323"  name="rotation">
              <InterpolatingParam id="25324" interp="linr"  time="-9999999/1" value="0" leadInLength="0/1"  />
              <InterpolatingParam id="25325" interp="linr"  time="-9999999/1" value="0" leadInLength="0/1"  />
              <InterpolatingParam id="25326" interp="linr"  time="-9999999/1" value="0" leadInLength="0/1"  />
             </VectorParam>
             <VectorParam id="25327"  name="shear">
              <InterpolatingParam id="25328" interp="linr"  time="-9999999/1" value="0" leadInLength="0/1"  />
              <InterpolatingParam id="25329" interp="linr"  time="-9999999/1" value="0" leadInLength="0/1"  />
              <InterpolatingParam id="25330" interp="linr"  time="-9999999/1" value="0" leadInLength="0/1"  />
             </VectorParam>
             <VectorParam id="25331"  name="scale">
              <InterpolatingParam id="25332" interp="linr"  time="-9999999/1" value="1" leadInLength="0/1"  />
              <InterpolatingParam id="25333" interp="linr"  time="-9999999/1" value="1" leadInLength="0/1"  />
              <InterpolatingParam id="25334" interp="linr"  time="-9999999/1" value="1" leadInLength="0/1"  />
             </VectorParam>
             <VectorParam id="25335"  name="anchor">
              <InterpolatingParam id="25336" interp="linr"  time="0/1" value="0" leadInLength="0/1"  />
              <InterpolatingParam id="25337" interp="linr"  time="0/1" value="0" leadInLength="0/1"  />
              <InterpolatingParam id="25338" interp="linr"  time="0/1" value="0" leadInLength="0/1"  />
             </VectorParam>
            </Transformer>
            <Parameters>
             <VectorParam id="25339"  name="sourceCrop">
              <InterpolatingParam id="25340" interp="linr"  time="0/1" value="0" leadInLength="0/1"  />
              <InterpolatingParam id="25341" interp="linr"  time="0/1" value="0" leadInLength="0/1"  />
              <InterpolatingParam id="25342" interp="linr"  time="0/1" value="0" leadInLength="0/1"  />
              <InterpolatingParam id="25343" interp="linr"  time="0/1" value="0" leadInLength="0/1"  />
             </VectorParam>
             <VectorParam id="25344"  name="geometryCrop">
              <InterpolatingParam id="25345" interp="linr"  time="-9999999/1" value="0" leadInLength="0/1"  />
              <InterpolatingParam id="25346" interp="linr"  time="-9999999/1" value="0" leadInLength="0/1"  />
              <InterpolatingParam id="25347" interp="linr"  time="-9999999/1" value="0" leadInLength="0/1"  />
              <InterpolatingParam id="25348" interp="linr"  time="-9999999/1" value="0" leadInLength="0/1"  />
             </VectorParam>
             <InterpolatingParam id="25349" interp="linr"  time="-9999999/1" value="1" leadInLength="0/1"  name="opacity"/>
            </Parameters>
            <Attributes>
             <Attribute id="25350" value="" name="ident"/>
            </Attributes>
            <MetaData>
             <entry key="WinSubProjectDisplayName" val=""/>
            </MetaData>
            <ExtraData>
             <Entry key="ZoomPanBin">
              <ZoomPanBin id="25351"  >
               <ZoomPanKeyframes>
                <ZoomPanKeyframe id="25352" timeRangeEnd="-9999999/1" timeRangeDuration="0/1" interpolaterName=""  />
               </ZoomPanKeyframes>
              </ZoomPanBin>
             </Entry>
            </ExtraData>
           </VMFile>
           <VMFile id="25353" start="10602" duration="580" scalar="1/1" mediaStart="29557/1" mediaDuration="580/1" trackNumber="0" src="4" >
            <Transformer>
             <VectorParam id="25354"  name="translation">
              <InterpolatingParam id="25355" interp="linr"  time="-9999999/1" value="0" leadInLength="0/1"  />
              <InterpolatingParam id="25356" interp="linr"  time="-9999999/1" value="0" leadInLength="0/1"  />
              <InterpolatingParam id="25357" interp="linr"  time="-9999999/1" value="0" leadInLength="0/1"  />
             </VectorParam>
             <VectorParam id="25358"  name="rotation">
              <InterpolatingParam id="25359" interp="linr"  time="-9999999/1" value="0" leadInLength="0/1"  />
              <InterpolatingParam id="25360" interp="linr"  time="-9999999/1" value="0" leadInLength="0/1"  />
              <InterpolatingParam id="25361" interp="linr"  time="-9999999/1" value="0" leadInLength="0/1"  />
             </VectorParam>
             <VectorParam id="25362"  name="shear">
              <InterpolatingParam id="25363" interp="linr"  time="-9999999/1" value="0" leadInLength="0/1"  />
              <InterpolatingParam id="25364" interp="linr"  time="-9999999/1" value="0" leadInLength="0/1"  />
              <InterpolatingParam id="25365" interp="linr"  time="-9999999/1" value="0" leadInLength="0/1"  />
             </VectorParam>
             <VectorParam id="25366"  name="scale">
              <InterpolatingParam id="25367" interp="linr"  time="-9999999/1" value="1" leadInLength="0/1"  />
              <InterpolatingParam id="25368" interp="linr"  time="-9999999/1" value="1" leadInLength="0/1"  />
              <InterpolatingParam id="25369" interp="linr"  time="-9999999/1" value="1" leadInLength="0/1"  />
             </VectorParam>
             <VectorParam id="25370"  name="anchor">
              <InterpolatingParam id="25371" interp="linr"  time="0/1" value="0" leadInLength="0/1"  />
              <InterpolatingParam id="25372" interp="linr"  time="0/1" value="0" leadInLength="0/1"  />
              <InterpolatingParam id="25373" interp="linr"  time="0/1" value="0" leadInLength="0/1"  />
             </VectorParam>
            </Transformer>
            <Parameters>
             <VectorParam id="25374"  name="sourceCrop">
              <InterpolatingParam id="25375" interp="linr"  time="0/1" value="0" leadInLength="0/1"  />
              <InterpolatingParam id="25376" interp="linr"  time="0/1" value="0" leadInLength="0/1"  />
              <InterpolatingParam id="25377" interp="linr"  time="0/1" value="0" leadInLength="0/1"  />
              <InterpolatingParam id="25378" interp="linr"  time="0/1" value="0" leadInLength="0/1"  />
             </VectorParam>
             <VectorParam id="25379"  name="geometryCrop">
              <InterpolatingParam id="25380" interp="linr"  time="-9999999/1" value="0" leadInLength="0/1"  />
              <InterpolatingParam id="25381" interp="linr"  time="-9999999/1" value="0" leadInLength="0/1"  />
              <InterpolatingParam id="25382" interp="linr"  time="-9999999/1" value="0" leadInLength="0/1"  />
              <InterpolatingParam id="25383" interp="linr"  time="-9999999/1" value="0" leadInLength="0/1"  />
             </VectorParam>
             <InterpolatingParam id="25384" interp="linr"  time="-9999999/1" value="1" leadInLength="0/1"  name="opacity"/>
            </Parameters>
            <Attributes>
             <Attribute id="25385" value="" name="ident"/>
            </Attributes>
            <MetaData>
             <entry key="WinSubProjectDisplayName" val=""/>
            </MetaData>
            <ExtraData>
             <Entry key="ZoomPanBin">
              <ZoomPanBin id="25386"  >
               <ZoomPanKeyframes>
                <ZoomPanKeyframe id="25387" timeRangeEnd="-9999999/1" timeRangeDuration="0/1" interpolaterName=""  />
               </ZoomPanKeyframes>
              </ZoomPanBin>
             </Entry>
            </ExtraData>
           </VMFile>
           <VMFile id="25388" start="11182" duration="25" scalar="1/1" mediaStart="30200/1" mediaDuration="25/1" trackNumber="0" src="4" >
            <Transformer>
             <VectorParam id="25389"  name="translation">
              <InterpolatingParam id="25390" interp="linr"  time="-9999999/1" value="0" leadInLength="0/1"  />
              <InterpolatingParam id="25391" interp="linr"  time="-9999999/1" value="0" leadInLength="0/1"  />
              <InterpolatingParam id="25392" interp="linr"  time="-9999999/1" value="0" leadInLength="0/1"  />
             </VectorParam>
             <VectorParam id="25393"  name="rotation">
              <InterpolatingParam id="25394" interp="linr"  time="-9999999/1" value="0" leadInLength="0/1"  />
              <InterpolatingParam id="25395" interp="linr"  time="-9999999/1" value="0" leadInLength="0/1"  />
              <InterpolatingParam id="25396" interp="linr"  time="-9999999/1" value="0" leadInLength="0/1"  />
             </VectorParam>
             <VectorParam id="25397"  name="shear">
              <InterpolatingParam id="25398" interp="linr"  time="-9999999/1" value="0" leadInLength="0/1"  />
              <InterpolatingParam id="25399" interp="linr"  time="-9999999/1" value="0" leadInLength="0/1"  />
              <InterpolatingParam id="25400" interp="linr"  time="-9999999/1" value="0" leadInLength="0/1"  />
             </VectorParam>
             <VectorParam id="25401"  name="scale">
              <InterpolatingParam id="25402" interp="linr"  time="-9999999/1" value="1" leadInLength="0/1"  />
              <InterpolatingParam id="25403" interp="linr"  time="-9999999/1" value="1" leadInLength="0/1"  />
              <InterpolatingParam id="25404" interp="linr"  time="-9999999/1" value="1" leadInLength="0/1"  />
             </VectorParam>
             <VectorParam id="25405"  name="anchor">
              <InterpolatingParam id="25406" interp="linr"  time="0/1" value="0" leadInLength="0/1"  />
              <InterpolatingParam id="25407" interp="linr"  time="0/1" value="0" leadInLength="0/1"  />
              <InterpolatingParam id="25408" interp="linr"  time="0/1" value="0" leadInLength="0/1"  />
             </VectorParam>
            </Transformer>
            <Parameters>
             <VectorParam id="25409"  name="sourceCrop">
              <InterpolatingParam id="25410" interp="linr"  time="0/1" value="0" leadInLength="0/1"  />
              <InterpolatingParam id="25411" interp="linr"  time="0/1" value="0" leadInLength="0/1"  />
              <InterpolatingParam id="25412" interp="linr"  time="0/1" value="0" leadInLength="0/1"  />
              <InterpolatingParam id="25413" interp="linr"  time="0/1" value="0" leadInLength="0/1"  />
             </VectorParam>
             <VectorParam id="25414"  name="geometryCrop">
              <InterpolatingParam id="25415" interp="linr"  time="-9999999/1" value="0" leadInLength="0/1"  />
              <InterpolatingParam id="25416" interp="linr"  time="-9999999/1" value="0" leadInLength="0/1"  />
              <InterpolatingParam id="25417" interp="linr"  time="-9999999/1" value="0" leadInLength="0/1"  />
              <InterpolatingParam id="25418" interp="linr"  time="-9999999/1" value="0" leadInLength="0/1"  />
             </VectorParam>
             <InterpolatingParam id="25419" interp="linr"  time="-9999999/1" value="1" leadInLength="0/1"  name="opacity"/>
            </Parameters>
            <Attributes>
             <Attribute id="25420" value="" name="ident"/>
            </Attributes>
            <MetaData>
             <entry key="WinSubProjectDisplayName" val=""/>
            </MetaData>
            <ExtraData>
             <Entry key="ZoomPanBin">
              <ZoomPanBin id="25421"  >
               <ZoomPanKeyframes>
                <ZoomPanKeyframe id="25422" timeRangeEnd="-9999999/1" timeRangeDuration="0/1" interpolaterName=""  />
               </ZoomPanKeyframes>
              </ZoomPanBin>
             </Entry>
            </ExtraData>
           </VMFile>
           <VMFile id="25423" start="11207" duration="119" scalar="1/1" mediaStart="30368/1" mediaDuration="119/1" trackNumber="0" src="4" >
            <Transformer>
             <VectorParam id="25424"  name="translation">
              <InterpolatingParam id="25425" interp="linr"  time="-9999999/1" value="0" leadInLength="0/1"  />
              <InterpolatingParam id="25426" interp="linr"  time="-9999999/1" value="0" leadInLength="0/1"  />
              <InterpolatingParam id="25427" interp="linr"  time="-9999999/1" value="0" leadInLength="0/1"  />
             </VectorParam>
             <VectorParam id="25428"  name="rotation">
              <InterpolatingParam id="25429" interp="linr"  time="-9999999/1" value="0" leadInLength="0/1"  />
              <InterpolatingParam id="25430" interp="linr"  time="-9999999/1" value="0" leadInLength="0/1"  />
              <InterpolatingParam id="25431" interp="linr"  time="-9999999/1" value="0" leadInLength="0/1"  />
             </VectorParam>
             <VectorParam id="25432"  name="shear">
              <InterpolatingParam id="25433" interp="linr"  time="-9999999/1" value="0" leadInLength="0/1"  />
              <InterpolatingParam id="25434" interp="linr"  time="-9999999/1" value="0" leadInLength="0/1"  />
              <InterpolatingParam id="25435" interp="linr"  time="-9999999/1" value="0" leadInLength="0/1"  />
             </VectorParam>
             <VectorParam id="25436"  name="scale">
              <InterpolatingParam id="25437" interp="linr"  time="-9999999/1" value="1" leadInLength="0/1"  />
              <InterpolatingParam id="25438" interp="linr"  time="-9999999/1" value="1" leadInLength="0/1"  />
              <InterpolatingParam id="25439" interp="linr"  time="-9999999/1" value="1" leadInLength="0/1"  />
             </VectorParam>
             <VectorParam id="25440"  name="anchor">
              <InterpolatingParam id="25441" interp="linr"  time="0/1" value="0" leadInLength="0/1"  />
              <InterpolatingParam id="25442" interp="linr"  time="0/1" value="0" leadInLength="0/1"  />
              <InterpolatingParam id="25443" interp="linr"  time="0/1" value="0" leadInLength="0/1"  />
             </VectorParam>
            </Transformer>
            <Parameters>
             <VectorParam id="25444"  name="sourceCrop">
              <InterpolatingParam id="25445" interp="linr"  time="0/1" value="0" leadInLength="0/1"  />
              <InterpolatingParam id="25446" interp="linr"  time="0/1" value="0" leadInLength="0/1"  />
              <InterpolatingParam id="25447" interp="linr"  time="0/1" value="0" leadInLength="0/1"  />
              <InterpolatingParam id="25448" interp="linr"  time="0/1" value="0" leadInLength="0/1"  />
             </VectorParam>
             <VectorParam id="25449"  name="geometryCrop">
              <InterpolatingParam id="25450" interp="linr"  time="-9999999/1" value="0" leadInLength="0/1"  />
              <InterpolatingParam id="25451" interp="linr"  time="-9999999/1" value="0" leadInLength="0/1"  />
              <InterpolatingParam id="25452" interp="linr"  time="-9999999/1" value="0" leadInLength="0/1"  />
              <InterpolatingParam id="25453" interp="linr"  time="-9999999/1" value="0" leadInLength="0/1"  />
             </VectorParam>
             <InterpolatingParam id="25454" interp="linr"  time="-9999999/1" value="1" leadInLength="0/1"  name="opacity"/>
            </Parameters>
            <Attributes>
             <Attribute id="25455" value="" name="ident"/>
            </Attributes>
            <MetaData>
             <entry key="WinSubProjectDisplayName" val=""/>
            </MetaData>
            <ExtraData>
             <Entry key="ZoomPanBin">
              <ZoomPanBin id="25456"  >
               <ZoomPanKeyframes>
                <ZoomPanKeyframe id="25457" timeRangeEnd="-9999999/1" timeRangeDuration="0/1" interpolaterName=""  />
               </ZoomPanKeyframes>
              </ZoomPanBin>
             </Entry>
            </ExtraData>
           </VMFile>
           <VMFile id="25458" start="11326" duration="411" scalar="1/1" mediaStart="30756/1" mediaDuration="411/1" trackNumber="0" src="4" >
            <Transformer>
             <VectorParam id="25459"  name="translation">
              <InterpolatingParam id="25460" interp="linr"  time="-9999999/1" value="0" leadInLength="0/1"  />
              <InterpolatingParam id="25461" interp="linr"  time="-9999999/1" value="0" leadInLength="0/1"  />
              <InterpolatingParam id="25462" interp="linr"  time="-9999999/1" value="0" leadInLength="0/1"  />
             </VectorParam>
             <VectorParam id="25463"  name="rotation">
              <InterpolatingParam id="25464" interp="linr"  time="-9999999/1" value="0" leadInLength="0/1"  />
              <InterpolatingParam id="25465" interp="linr"  time="-9999999/1" value="0" leadInLength="0/1"  />
              <InterpolatingParam id="25466" interp="linr"  time="-9999999/1" value="0" leadInLength="0/1"  />
             </VectorParam>
             <VectorParam id="25467"  name="shear">
              <InterpolatingParam id="25468" interp="linr"  time="-9999999/1" value="0" leadInLength="0/1"  />
              <InterpolatingParam id="25469" interp="linr"  time="-9999999/1" value="0" leadInLength="0/1"  />
              <InterpolatingParam id="25470" interp="linr"  time="-9999999/1" value="0" leadInLength="0/1"  />
             </VectorParam>
             <VectorParam id="25471"  name="scale">
              <InterpolatingParam id="25472" interp="linr"  time="-9999999/1" value="1" leadInLength="0/1"  />
              <InterpolatingParam id="25473" interp="linr"  time="-9999999/1" value="1" leadInLength="0/1"  />
              <InterpolatingParam id="25474" interp="linr"  time="-9999999/1" value="1" leadInLength="0/1"  />
             </VectorParam>
             <VectorParam id="25475"  name="anchor">
              <InterpolatingParam id="25476" interp="linr"  time="0/1" value="0" leadInLength="0/1"  />
              <InterpolatingParam id="25477" interp="linr"  time="0/1" value="0" leadInLength="0/1"  />
              <InterpolatingParam id="25478" interp="linr"  time="0/1" value="0" leadInLength="0/1"  />
             </VectorParam>
            </Transformer>
            <Parameters>
             <VectorParam id="25479"  name="sourceCrop">
              <InterpolatingParam id="25480" interp="linr"  time="0/1" value="0" leadInLength="0/1"  />
              <InterpolatingParam id="25481" interp="linr"  time="0/1" value="0" leadInLength="0/1"  />
              <InterpolatingParam id="25482" interp="linr"  time="0/1" value="0" leadInLength="0/1"  />
              <InterpolatingParam id="25483" interp="linr"  time="0/1" value="0" leadInLength="0/1"  />
             </VectorParam>
             <VectorParam id="25484"  name="geometryCrop">
              <InterpolatingParam id="25485" interp="linr"  time="-9999999/1" value="0" leadInLength="0/1"  />
              <InterpolatingParam id="25486" interp="linr"  time="-9999999/1" value="0" leadInLength="0/1"  />
              <InterpolatingParam id="25487" interp="linr"  time="-9999999/1" value="0" leadInLength="0/1"  />
              <InterpolatingParam id="25488" interp="linr"  time="-9999999/1" value="0" leadInLength="0/1"  />
             </VectorParam>
             <InterpolatingParam id="25489" interp="linr"  time="-9999999/1" value="1" leadInLength="0/1"  name="opacity"/>
            </Parameters>
            <Attributes>
             <Attribute id="25490" value="" name="ident"/>
            </Attributes>
            <MetaData>
             <entry key="WinSubProjectDisplayName" val=""/>
            </MetaData>
            <ExtraData>
             <Entry key="ZoomPanBin">
              <ZoomPanBin id="25491"  >
               <ZoomPanKeyframes>
                <ZoomPanKeyframe id="25492" timeRangeEnd="-9999999/1" timeRangeDuration="0/1" interpolaterName=""  />
               </ZoomPanKeyframes>
              </ZoomPanBin>
             </Entry>
            </ExtraData>
           </VMFile>
          </Medias>
         </GenericTrack>
        </StitchedMedia>
        <StitchedMedia id="25493" start="5817" duration="248" scalar="737408/1474035" mediaStart="63863028/5761" mediaDuration="45695085/92176" minMediaStart="0/1" >
         <Transformer>
          <VectorParam id="25494"  name="translation">
           <InterpolatingParam id="25495" interp="linr"  time="-9999999/1" value="0" leadInLength="0/1"  interpolater="leadin-linr"  />
           <InterpolatingParam id="25496" interp="linr"  time="-9999999/1" value="0" leadInLength="0/1"  interpolater="leadin-linr"  />
           <InterpolatingParam id="25497" interp="linr"  time="-9999999/1" value="0" leadInLength="0/1"  interpolater="leadin-linr"  />
          </VectorParam>
          <VectorParam id="25498"  name="rotation">
           <InterpolatingParam id="25499" interp="linr"  time="-9999999/1" value="0" leadInLength="0/1"  interpolater="leadin-linr"  />
           <InterpolatingParam id="25500" interp="linr"  time="-9999999/1" value="0" leadInLength="0/1"  interpolater="leadin-linr"  />
           <InterpolatingParam id="25501" interp="linr"  time="-9999999/1" value="0" leadInLength="0/1"  interpolater="leadin-linr"  />
          </VectorParam>
          <VectorParam id="25502"  name="shear">
           <InterpolatingParam id="25503" interp="linr"  time="-9999999/1" value="0" leadInLength="0/1"  interpolater="leadin-linr"  />
           <InterpolatingParam id="25504" interp="linr"  time="-9999999/1" value="0" leadInLength="0/1"  interpolater="leadin-linr"  />
           <InterpolatingParam id="25505" interp="linr"  time="-9999999/1" value="0" leadInLength="0/1"  interpolater="leadin-linr"  />
          </VectorParam>
          <VectorParam id="25506"  name="scale">
           <InterpolatingParam id="25507" interp="linr"  time="-9999999/1" value="1" leadInLength="0/1"  interpolater="leadin-linr"  />
           <InterpolatingParam id="25508" interp="linr"  time="-9999999/1" value="1" leadInLength="0/1"  interpolater="leadin-linr"  />
           <InterpolatingParam id="25509" interp="linr"  time="-9999999/1" value="1" leadInLength="0/1"  interpolater="leadin-linr"  />
          </VectorParam>
          <VectorParam id="25510"  name="anchor">
           <InterpolatingParam id="25511" interp="linr"  >
            <Keyframes>
            <Keyframe id="25512"  time="0/1" value="0" leadInLength="0/1"  />
            <Keyframe id="25513"  time="32931335377/7971776" value="0" leadInLength="0/1"  />
            <Keyframe id="25514"  time="4328/1" value="0" leadInLength="0/1"  />
            <Keyframe id="25515"  time="4457/1" value="0" leadInLength="0/1"  />
            <Keyframe id="25516"  time="46272102474146/7646783123" value="0" leadInLength="0/1"  />
            <Keyframe id="25517"  time="576460752303423488/75433993780101" value="0" leadInLength="0/1"  />
            <Keyframe id="25518"  time="600059199085213793/58267769831581" value="0" leadInLength="0/1"  />
            <Keyframe id="25519"  time="1199749202952939991/115623946533563" value="0" leadInLength="0/1"  />
            <Keyframe id="25520"  time="59009043983436089/5153349143808" value="0" leadInLength="0/1"  />
            </Keyframes>
           </InterpolatingParam>
           <InterpolatingParam id="25521" interp="linr"  >
            <Keyframes>
            <Keyframe id="25522"  time="0/1" value="0" leadInLength="0/1"  />
            <Keyframe id="25523"  time="32931335377/7971776" value="0" leadInLength="0/1"  />
            <Keyframe id="25524"  time="4328/1" value="0" leadInLength="0/1"  />
            <Keyframe id="25525"  time="4457/1" value="0" leadInLength="0/1"  />
            <Keyframe id="25526"  time="46272102474146/7646783123" value="0" leadInLength="0/1"  />
            <Keyframe id="25527"  time="576460752303423488/75433993780101" value="0" leadInLength="0/1"  />
            <Keyframe id="25528"  time="600059199085213793/58267769831581" value="0" leadInLength="0/1"  />
            <Keyframe id="25529"  time="1199749202952939991/115623946533563" value="0" leadInLength="0/1"  />
            <Keyframe id="25530"  time="59009043983436089/5153349143808" value="0" leadInLength="0/1"  />
            </Keyframes>
           </InterpolatingParam>
           <InterpolatingParam id="25531" interp="linr"  >
            <Keyframes>
            <Keyframe id="25532"  time="0/1" value="0" leadInLength="0/1"  />
            <Keyframe id="25533"  time="32931335377/7971776" value="0" leadInLength="0/1"  />
            <Keyframe id="25534"  time="4328/1" value="0" leadInLength="0/1"  />
            <Keyframe id="25535"  time="4457/1" value="0" leadInLength="0/1"  />
            <Keyframe id="25536"  time="46272102474146/7646783123" value="0" leadInLength="0/1"  />
            <Keyframe id="25537"  time="576460752303423488/75433993780101" value="0" leadInLength="0/1"  />
            <Keyframe id="25538"  time="600059199085213793/58267769831581" value="0" leadInLength="0/1"  />
            <Keyframe id="25539"  time="1199749202952939991/115623946533563" value="0" leadInLength="0/1"  />
            <Keyframe id="25540"  time="59009043983436089/5153349143808" value="0" leadInLength="0/1"  />
            </Keyframes>
           </InterpolatingParam>
          </VectorParam>
         </Transformer>
         <Parameters>
          <VectorParam id="25541"  name="sourceCrop">
           <InterpolatingParam id="25542" interp="linr"  >
            <Keyframes>
            <Keyframe id="25543"  time="0/1" value="0" leadInLength="0/1"  />
            <Keyframe id="25544"  time="32931335377/7971776" value="0" leadInLength="0/1"  />
            <Keyframe id="25545"  time="4328/1" value="0" leadInLength="0/1"  />
            <Keyframe id="25546"  time="4457/1" value="0" leadInLength="0/1"  />
            <Keyframe id="25547"  time="46272102474146/7646783123" value="0" leadInLength="0/1"  />
            <Keyframe id="25548"  time="576460752303423488/75433993780101" value="0" leadInLength="0/1"  />
            <Keyframe id="25549"  time="600059199085213793/58267769831581" value="0" leadInLength="0/1"  />
            <Keyframe id="25550"  time="1199749202952939991/115623946533563" value="0" leadInLength="0/1"  />
            <Keyframe id="25551"  time="59009043983436089/5153349143808" value="0" leadInLength="0/1"  />
            </Keyframes>
           </InterpolatingParam>
           <InterpolatingParam id="25552" interp="linr"  >
            <Keyframes>
            <Keyframe id="25553"  time="0/1" value="0" leadInLength="0/1"  />
            <Keyframe id="25554"  time="32931335377/7971776" value="0" leadInLength="0/1"  />
            <Keyframe id="25555"  time="4328/1" value="0" leadInLength="0/1"  />
            <Keyframe id="25556"  time="4457/1" value="0" leadInLength="0/1"  />
            <Keyframe id="25557"  time="46272102474146/7646783123" value="0" leadInLength="0/1"  />
            <Keyframe id="25558"  time="576460752303423488/75433993780101" value="0" leadInLength="0/1"  />
            <Keyframe id="25559"  time="600059199085213793/58267769831581" value="0" leadInLength="0/1"  />
            <Keyframe id="25560"  time="1199749202952939991/115623946533563" value="0" leadInLength="0/1"  />
            <Keyframe id="25561"  time="59009043983436089/5153349143808" value="0" leadInLength="0/1"  />
            </Keyframes>
           </InterpolatingParam>
           <InterpolatingParam id="25562" interp="linr"  >
            <Keyframes>
            <Keyframe id="25563"  time="0/1" value="0" leadInLength="0/1"  />
            <Keyframe id="25564"  time="32931335377/7971776" value="0" leadInLength="0/1"  />
            <Keyframe id="25565"  time="4328/1" value="0" leadInLength="0/1"  />
            <Keyframe id="25566"  time="4457/1" value="0" leadInLength="0/1"  />
            <Keyframe id="25567"  time="46272102474146/7646783123" value="0" leadInLength="0/1"  />
            <Keyframe id="25568"  time="576460752303423488/75433993780101" value="0" leadInLength="0/1"  />
            <Keyframe id="25569"  time="600059199085213793/58267769831581" value="0" leadInLength="0/1"  />
            <Keyframe id="25570"  time="1199749202952939991/115623946533563" value="0" leadInLength="0/1"  />
            <Keyframe id="25571"  time="59009043983436089/5153349143808" value="0" leadInLength="0/1"  />
            </Keyframes>
           </InterpolatingParam>
           <InterpolatingParam id="25572" interp="linr"  >
            <Keyframes>
            <Keyframe id="25573"  time="0/1" value="0" leadInLength="0/1"  />
            <Keyframe id="25574"  time="32931335377/7971776" value="0" leadInLength="0/1"  />
            <Keyframe id="25575"  time="4328/1" value="0" leadInLength="0/1"  />
            <Keyframe id="25576"  time="4457/1" value="0" leadInLength="0/1"  />
            <Keyframe id="25577"  time="46272102474146/7646783123" value="0" leadInLength="0/1"  />
            <Keyframe id="25578"  time="576460752303423488/75433993780101" value="0" leadInLength="0/1"  />
            <Keyframe id="25579"  time="600059199085213793/58267769831581" value="0" leadInLength="0/1"  />
            <Keyframe id="25580"  time="1199749202952939991/115623946533563" value="0" leadInLength="0/1"  />
            <Keyframe id="25581"  time="59009043983436089/5153349143808" value="0" leadInLength="0/1"  />
            </Keyframes>
           </InterpolatingParam>
          </VectorParam>
          <VectorParam id="25582"  name="geometryCrop">
           <InterpolatingParam id="25583" interp="linr"  time="-9999999/1" value="0" leadInLength="0/1"  interpolater="leadin-linr"  />
           <InterpolatingParam id="25584" interp="linr"  time="-9999999/1" value="0" leadInLength="0/1"  interpolater="leadin-linr"  />
           <InterpolatingParam id="25585" interp="linr"  time="-9999999/1" value="0" leadInLength="0/1"  interpolater="leadin-linr"  />
           <InterpolatingParam id="25586" interp="linr"  time="-9999999/1" value="0" leadInLength="0/1"  interpolater="leadin-linr"  />
          </VectorParam>
          <InterpolatingParam id="25587" interp="linr"  time="-9999999/1" value="1" leadInLength="0/1"  interpolater="leadin-linr"  name="opacity"/>
          <InterpolatingParam id="25588" interp="linr"  time="0/1" value="1" leadInLength="0/1"  name="cursorOpacity"/>
          <InterpolatingParam id="25589" interp="linr"  time="0/1" value="1" leadInLength="0/1"  name="cursorScale"/>
          <Parameter id="25590"  name="captions"/>
         </Parameters>
         <Attributes>
          <Attribute id="25591" value="" name="ident"/>
         </Attributes>
         <MetaData>
          <entry key="WinSubProjectDisplayName" val=""/>
         </MetaData>
         <ExtraData>
          <Entry key="ZoomPanBin">
           <ZoomPanBin id="25592"  >
            <ZoomPanKeyframes>
             <ZoomPanKeyframe id="25593" timeRangeEnd="-9999999/1" timeRangeDuration="0/1" interpolaterName="linr"  />
            </ZoomPanKeyframes>
           </ZoomPanBin>
          </Entry>
          <Entry key="CursorEffectBin">
           <CursorEffectBin id="25594"  >
            <CursorEffectKeyframes>
            </CursorEffectKeyframes>
           </CursorEffectBin>
          </Entry>
         </ExtraData>
         <GenericTrack id="25595"  >
          <Attributes>
           <Attribute id="25596" value="" name="ident"/>
           <Attribute id="25597" value="0" name="audioMuted"/>
           <Attribute id="25598" value="0" name="videoHidden"/>
          </Attributes>
          <MetaData>
           <entry key="IsLocked" val="False"/>
           <entry key="WinTrackHeight" val="0"/>
          </MetaData>
          <Medias>
           <VMFile id="25599" start="0" duration="4131" scalar="1/1" mediaStart="0/1" mediaDuration="4131/1" trackNumber="0" src="4" >
            <Transformer>
             <VectorParam id="25600"  name="translation">
              <InterpolatingParam id="25601" interp="linr"  time="-9999999/1" value="0" leadInLength="0/1"  />
              <InterpolatingParam id="25602" interp="linr"  time="-9999999/1" value="0" leadInLength="0/1"  />
              <InterpolatingParam id="25603" interp="linr"  time="-9999999/1" value="0" leadInLength="0/1"  />
             </VectorParam>
             <VectorParam id="25604"  name="rotation">
              <InterpolatingParam id="25605" interp="linr"  time="-9999999/1" value="0" leadInLength="0/1"  />
              <InterpolatingParam id="25606" interp="linr"  time="-9999999/1" value="0" leadInLength="0/1"  />
              <InterpolatingParam id="25607" interp="linr"  time="-9999999/1" value="0" leadInLength="0/1"  />
             </VectorParam>
             <VectorParam id="25608"  name="shear">
              <InterpolatingParam id="25609" interp="linr"  time="-9999999/1" value="0" leadInLength="0/1"  />
              <InterpolatingParam id="25610" interp="linr"  time="-9999999/1" value="0" leadInLength="0/1"  />
              <InterpolatingParam id="25611" interp="linr"  time="-9999999/1" value="0" leadInLength="0/1"  />
             </VectorParam>
             <VectorParam id="25612"  name="scale">
              <InterpolatingParam id="25613" interp="linr"  time="-9999999/1" value="1" leadInLength="0/1"  />
              <InterpolatingParam id="25614" interp="linr"  time="-9999999/1" value="1" leadInLength="0/1"  />
              <InterpolatingParam id="25615" interp="linr"  time="-9999999/1" value="1" leadInLength="0/1"  />
             </VectorParam>
             <VectorParam id="25616"  name="anchor">
              <InterpolatingParam id="25617" interp="linr"  time="0/1" value="0" leadInLength="0/1"  />
              <InterpolatingParam id="25618" interp="linr"  time="0/1" value="0" leadInLength="0/1"  />
              <InterpolatingParam id="25619" interp="linr"  time="0/1" value="0" leadInLength="0/1"  />
             </VectorParam>
            </Transformer>
            <Parameters>
             <VectorParam id="25620"  name="sourceCrop">
              <InterpolatingParam id="25621" interp="linr"  time="0/1" value="0" leadInLength="0/1"  />
              <InterpolatingParam id="25622" interp="linr"  time="0/1" value="0" leadInLength="0/1"  />
              <InterpolatingParam id="25623" interp="linr"  time="0/1" value="0" leadInLength="0/1"  />
              <InterpolatingParam id="25624" interp="linr"  time="0/1" value="0" leadInLength="0/1"  />
             </VectorParam>
             <VectorParam id="25625"  name="geometryCrop">
              <InterpolatingParam id="25626" interp="linr"  time="-9999999/1" value="0" leadInLength="0/1"  />
              <InterpolatingParam id="25627" interp="linr"  time="-9999999/1" value="0" leadInLength="0/1"  />
              <InterpolatingParam id="25628" interp="linr"  time="-9999999/1" value="0" leadInLength="0/1"  />
              <InterpolatingParam id="25629" interp="linr"  time="-9999999/1" value="0" leadInLength="0/1"  />
             </VectorParam>
             <InterpolatingParam id="25630" interp="linr"  time="-9999999/1" value="1" leadInLength="0/1"  name="opacity"/>
            </Parameters>
            <Attributes>
             <Attribute id="25631" value="" name="ident"/>
            </Attributes>
            <MetaData>
             <entry key="WinSubProjectDisplayName" val=""/>
            </MetaData>
            <ExtraData>
             <Entry key="ZoomPanBin">
              <ZoomPanBin id="25632"  >
               <ZoomPanKeyframes>
                <ZoomPanKeyframe id="25633" timeRangeEnd="-9999999/1" timeRangeDuration="0/1" interpolaterName=""  />
               </ZoomPanKeyframes>
              </ZoomPanBin>
             </Entry>
            </ExtraData>
           </VMFile>
           <IMFile id="25634" start="4131" duration="12" scalar="1/1" mediaStart="4130/1" mediaDuration="1/1" trackNumber="0" src="4" trimStartSum="0/1" >
            <Transformer>
             <VectorParam id="25635"  name="translation">
              <InterpolatingParam id="25636" interp="linr"  time="-9999999/1" value="0" leadInLength="0/1"  />
              <InterpolatingParam id="25637" interp="linr"  time="-9999999/1" value="0" leadInLength="0/1"  />
              <InterpolatingParam id="25638" interp="linr"  time="-9999999/1" value="0" leadInLength="0/1"  />
             </VectorParam>
             <VectorParam id="25639"  name="rotation">
              <InterpolatingParam id="25640" interp="linr"  time="-9999999/1" value="0" leadInLength="0/1"  />
              <InterpolatingParam id="25641" interp="linr"  time="-9999999/1" value="0" leadInLength="0/1"  />
              <InterpolatingParam id="25642" interp="linr"  time="-9999999/1" value="0" leadInLength="0/1"  />
             </VectorParam>
             <VectorParam id="25643"  name="shear">
              <InterpolatingParam id="25644" interp="linr"  time="-9999999/1" value="0" leadInLength="0/1"  />
              <InterpolatingParam id="25645" interp="linr"  time="-9999999/1" value="0" leadInLength="0/1"  />
              <InterpolatingParam id="25646" interp="linr"  time="-9999999/1" value="0" leadInLength="0/1"  />
             </VectorParam>
             <VectorParam id="25647"  name="scale">
              <InterpolatingParam id="25648" interp="linr"  time="-9999999/1" value="1" leadInLength="0/1"  />
              <InterpolatingParam id="25649" interp="linr"  time="-9999999/1" value="1" leadInLength="0/1"  />
              <InterpolatingParam id="25650" interp="linr"  time="-9999999/1" value="1" leadInLength="0/1"  />
             </VectorParam>
             <VectorParam id="25651"  name="anchor">
              <InterpolatingParam id="25652" interp="linr"  time="0/1" value="0" leadInLength="0/1"  />
              <InterpolatingParam id="25653" interp="linr"  time="0/1" value="0" leadInLength="0/1"  />
              <InterpolatingParam id="25654" interp="linr"  time="0/1" value="0" leadInLength="0/1"  />
             </VectorParam>
            </Transformer>
            <Parameters>
             <VectorParam id="25655"  name="sourceCrop">
              <InterpolatingParam id="25656" interp="linr"  time="0/1" value="0" leadInLength="0/1"  />
              <InterpolatingParam id="25657" interp="linr"  time="0/1" value="0" leadInLength="0/1"  />
              <InterpolatingParam id="25658" interp="linr"  time="0/1" value="0" leadInLength="0/1"  />
              <InterpolatingParam id="25659" interp="linr"  time="0/1" value="0" leadInLength="0/1"  />
             </VectorParam>
             <VectorParam id="25660"  name="geometryCrop">
              <InterpolatingParam id="25661" interp="linr"  time="-9999999/1" value="0" leadInLength="0/1"  />
              <InterpolatingParam id="25662" interp="linr"  time="-9999999/1" value="0" leadInLength="0/1"  />
              <InterpolatingParam id="25663" interp="linr"  time="-9999999/1" value="0" leadInLength="0/1"  />
              <InterpolatingParam id="25664" interp="linr"  time="-9999999/1" value="0" leadInLength="0/1"  />
             </VectorParam>
             <InterpolatingParam id="25665" interp="linr"  time="-9999999/1" value="1" leadInLength="0/1"  name="opacity"/>
            </Parameters>
            <Attributes>
             <Attribute id="25666" value="" name="ident"/>
            </Attributes>
            <MetaData>
             <entry key="WinSubProjectDisplayName" val=""/>
            </MetaData>
            <ExtraData>
             <Entry key="ZoomPanBin">
              <ZoomPanBin id="25667"  >
               <ZoomPanKeyframes>
                <ZoomPanKeyframe id="25668" timeRangeEnd="-9999999/1" timeRangeDuration="0/1" interpolaterName=""  />
               </ZoomPanKeyframes>
              </ZoomPanBin>
             </Entry>
            </ExtraData>
           </IMFile>
           <VMFile id="25669" start="4143" duration="185" scalar="1/1" mediaStart="4130/1" mediaDuration="185/1" trackNumber="0" src="4" >
            <Transformer>
             <VectorParam id="25670"  name="translation">
              <InterpolatingParam id="25671" interp="linr"  time="-9999999/1" value="0" leadInLength="0/1"  />
              <InterpolatingParam id="25672" interp="linr"  time="-9999999/1" value="0" leadInLength="0/1"  />
              <InterpolatingParam id="25673" interp="linr"  time="-9999999/1" value="0" leadInLength="0/1"  />
             </VectorParam>
             <VectorParam id="25674"  name="rotation">
              <InterpolatingParam id="25675" interp="linr"  time="-9999999/1" value="0" leadInLength="0/1"  />
              <InterpolatingParam id="25676" interp="linr"  time="-9999999/1" value="0" leadInLength="0/1"  />
              <InterpolatingParam id="25677" interp="linr"  time="-9999999/1" value="0" leadInLength="0/1"  />
             </VectorParam>
             <VectorParam id="25678"  name="shear">
              <InterpolatingParam id="25679" interp="linr"  time="-9999999/1" value="0" leadInLength="0/1"  />
              <InterpolatingParam id="25680" interp="linr"  time="-9999999/1" value="0" leadInLength="0/1"  />
              <InterpolatingParam id="25681" interp="linr"  time="-9999999/1" value="0" leadInLength="0/1"  />
             </VectorParam>
             <VectorParam id="25682"  name="scale">
              <InterpolatingParam id="25683" interp="linr"  time="-9999999/1" value="1" leadInLength="0/1"  />
              <InterpolatingParam id="25684" interp="linr"  time="-9999999/1" value="1" leadInLength="0/1"  />
              <InterpolatingParam id="25685" interp="linr"  time="-9999999/1" value="1" leadInLength="0/1"  />
             </VectorParam>
             <VectorParam id="25686"  name="anchor">
              <InterpolatingParam id="25687" interp="linr"  time="0/1" value="0" leadInLength="0/1"  />
              <InterpolatingParam id="25688" interp="linr"  time="0/1" value="0" leadInLength="0/1"  />
              <InterpolatingParam id="25689" interp="linr"  time="0/1" value="0" leadInLength="0/1"  />
             </VectorParam>
            </Transformer>
            <Parameters>
             <VectorParam id="25690"  name="sourceCrop">
              <InterpolatingParam id="25691" interp="linr"  time="0/1" value="0" leadInLength="0/1"  />
              <InterpolatingParam id="25692" interp="linr"  time="0/1" value="0" leadInLength="0/1"  />
              <InterpolatingParam id="25693" interp="linr"  time="0/1" value="0" leadInLength="0/1"  />
              <InterpolatingParam id="25694" interp="linr"  time="0/1" value="0" leadInLength="0/1"  />
             </VectorParam>
             <VectorParam id="25695"  name="geometryCrop">
              <InterpolatingParam id="25696" interp="linr"  time="-9999999/1" value="0" leadInLength="0/1"  />
              <InterpolatingParam id="25697" interp="linr"  time="-9999999/1" value="0" leadInLength="0/1"  />
              <InterpolatingParam id="25698" interp="linr"  time="-9999999/1" value="0" leadInLength="0/1"  />
              <InterpolatingParam id="25699" interp="linr"  time="-9999999/1" value="0" leadInLength="0/1"  />
             </VectorParam>
             <InterpolatingParam id="25700" interp="linr"  time="-9999999/1" value="1" leadInLength="0/1"  name="opacity"/>
            </Parameters>
            <Attributes>
             <Attribute id="25701" value="" name="ident"/>
            </Attributes>
            <MetaData>
             <entry key="WinSubProjectDisplayName" val=""/>
            </MetaData>
            <ExtraData>
             <Entry key="ZoomPanBin">
              <ZoomPanBin id="25702"  >
               <ZoomPanKeyframes>
                <ZoomPanKeyframe id="25703" timeRangeEnd="-9999999/1" timeRangeDuration="0/1" interpolaterName=""  />
               </ZoomPanKeyframes>
              </ZoomPanBin>
             </Entry>
            </ExtraData>
           </VMFile>
           <IMFile id="25704" start="4328" duration="3" scalar="1/1" mediaStart="4315/1" mediaDuration="1/1" trackNumber="0" src="4" trimStartSum="0/1" >
            <Transformer>
             <VectorParam id="25705"  name="translation">
              <InterpolatingParam id="25706" interp="linr"  time="-9999999/1" value="0" leadInLength="0/1"  />
              <InterpolatingParam id="25707" interp="linr"  time="-9999999/1" value="0" leadInLength="0/1"  />
              <InterpolatingParam id="25708" interp="linr"  time="-9999999/1" value="0" leadInLength="0/1"  />
             </VectorParam>
             <VectorParam id="25709"  name="rotation">
              <InterpolatingParam id="25710" interp="linr"  time="-9999999/1" value="0" leadInLength="0/1"  />
              <InterpolatingParam id="25711" interp="linr"  time="-9999999/1" value="0" leadInLength="0/1"  />
              <InterpolatingParam id="25712" interp="linr"  time="-9999999/1" value="0" leadInLength="0/1"  />
             </VectorParam>
             <VectorParam id="25713"  name="shear">
              <InterpolatingParam id="25714" interp="linr"  time="-9999999/1" value="0" leadInLength="0/1"  />
              <InterpolatingParam id="25715" interp="linr"  time="-9999999/1" value="0" leadInLength="0/1"  />
              <InterpolatingParam id="25716" interp="linr"  time="-9999999/1" value="0" leadInLength="0/1"  />
             </VectorParam>
             <VectorParam id="25717"  name="scale">
              <InterpolatingParam id="25718" interp="linr"  time="-9999999/1" value="1" leadInLength="0/1"  />
              <InterpolatingParam id="25719" interp="linr"  time="-9999999/1" value="1" leadInLength="0/1"  />
              <InterpolatingParam id="25720" interp="linr"  time="-9999999/1" value="1" leadInLength="0/1"  />
             </VectorParam>
             <VectorParam id="25721"  name="anchor">
              <InterpolatingParam id="25722" interp="linr"  time="0/1" value="0" leadInLength="0/1"  />
              <InterpolatingParam id="25723" interp="linr"  time="0/1" value="0" leadInLength="0/1"  />
              <InterpolatingParam id="25724" interp="linr"  time="0/1" value="0" leadInLength="0/1"  />
             </VectorParam>
            </Transformer>
            <Parameters>
             <VectorParam id="25725"  name="sourceCrop">
              <InterpolatingParam id="25726" interp="linr"  time="0/1" value="0" leadInLength="0/1"  />
              <InterpolatingParam id="25727" interp="linr"  time="0/1" value="0" leadInLength="0/1"  />
              <InterpolatingParam id="25728" interp="linr"  time="0/1" value="0" leadInLength="0/1"  />
              <InterpolatingParam id="25729" interp="linr"  time="0/1" value="0" leadInLength="0/1"  />
             </VectorParam>
             <VectorParam id="25730"  name="geometryCrop">
              <InterpolatingParam id="25731" interp="linr"  time="-9999999/1" value="0" leadInLength="0/1"  />
              <InterpolatingParam id="25732" interp="linr"  time="-9999999/1" value="0" leadInLength="0/1"  />
              <InterpolatingParam id="25733" interp="linr"  time="-9999999/1" value="0" leadInLength="0/1"  />
              <InterpolatingParam id="25734" interp="linr"  time="-9999999/1" value="0" leadInLength="0/1"  />
             </VectorParam>
             <InterpolatingParam id="25735" interp="linr"  time="-9999999/1" value="1" leadInLength="0/1"  name="opacity"/>
            </Parameters>
            <Attributes>
             <Attribute id="25736" value="" name="ident"/>
            </Attributes>
            <MetaData>
             <entry key="WinSubProjectDisplayName" val=""/>
            </MetaData>
            <ExtraData>
             <Entry key="ZoomPanBin">
              <ZoomPanBin id="25737"  >
               <ZoomPanKeyframes>
                <ZoomPanKeyframe id="25738" timeRangeEnd="-9999999/1" timeRangeDuration="0/1" interpolaterName=""  />
               </ZoomPanKeyframes>
              </ZoomPanBin>
             </Entry>
            </ExtraData>
           </IMFile>
           <VMFile id="25739" start="4331" duration="31" scalar="1/1" mediaStart="4315/1" mediaDuration="31/1" trackNumber="0" src="4" >
            <Transformer>
             <VectorParam id="25740"  name="translation">
              <InterpolatingParam id="25741" interp="linr"  time="-9999999/1" value="0" leadInLength="0/1"  />
              <InterpolatingParam id="25742" interp="linr"  time="-9999999/1" value="0" leadInLength="0/1"  />
              <InterpolatingParam id="25743" interp="linr"  time="-9999999/1" value="0" leadInLength="0/1"  />
             </VectorParam>
             <VectorParam id="25744"  name="rotation">
              <InterpolatingParam id="25745" interp="linr"  time="-9999999/1" value="0" leadInLength="0/1"  />
              <InterpolatingParam id="25746" interp="linr"  time="-9999999/1" value="0" leadInLength="0/1"  />
              <InterpolatingParam id="25747" interp="linr"  time="-9999999/1" value="0" leadInLength="0/1"  />
             </VectorParam>
             <VectorParam id="25748"  name="shear">
              <InterpolatingParam id="25749" interp="linr"  time="-9999999/1" value="0" leadInLength="0/1"  />
              <InterpolatingParam id="25750" interp="linr"  time="-9999999/1" value="0" leadInLength="0/1"  />
              <InterpolatingParam id="25751" interp="linr"  time="-9999999/1" value="0" leadInLength="0/1"  />
             </VectorParam>
             <VectorParam id="25752"  name="scale">
              <InterpolatingParam id="25753" interp="linr"  time="-9999999/1" value="1" leadInLength="0/1"  />
              <InterpolatingParam id="25754" interp="linr"  time="-9999999/1" value="1" leadInLength="0/1"  />
              <InterpolatingParam id="25755" interp="linr"  time="-9999999/1" value="1" leadInLength="0/1"  />
             </VectorParam>
             <VectorParam id="25756"  name="anchor">
              <InterpolatingParam id="25757" interp="linr"  time="0/1" value="0" leadInLength="0/1"  />
              <InterpolatingParam id="25758" interp="linr"  time="0/1" value="0" leadInLength="0/1"  />
              <InterpolatingParam id="25759" interp="linr"  time="0/1" value="0" leadInLength="0/1"  />
             </VectorParam>
            </Transformer>
            <Parameters>
             <VectorParam id="25760"  name="sourceCrop">
              <InterpolatingParam id="25761" interp="linr"  time="0/1" value="0" leadInLength="0/1"  />
              <InterpolatingParam id="25762" interp="linr"  time="0/1" value="0" leadInLength="0/1"  />
              <InterpolatingParam id="25763" interp="linr"  time="0/1" value="0" leadInLength="0/1"  />
              <InterpolatingParam id="25764" interp="linr"  time="0/1" value="0" leadInLength="0/1"  />
             </VectorParam>
             <VectorParam id="25765"  name="geometryCrop">
              <InterpolatingParam id="25766" interp="linr"  time="-9999999/1" value="0" leadInLength="0/1"  />
              <InterpolatingParam id="25767" interp="linr"  time="-9999999/1" value="0" leadInLength="0/1"  />
              <InterpolatingParam id="25768" interp="linr"  time="-9999999/1" value="0" leadInLength="0/1"  />
              <InterpolatingParam id="25769" interp="linr"  time="-9999999/1" value="0" leadInLength="0/1"  />
             </VectorParam>
             <InterpolatingParam id="25770" interp="linr"  time="-9999999/1" value="1" leadInLength="0/1"  name="opacity"/>
            </Parameters>
            <Attributes>
             <Attribute id="25771" value="" name="ident"/>
            </Attributes>
            <MetaData>
             <entry key="WinSubProjectDisplayName" val=""/>
            </MetaData>
            <ExtraData>
             <Entry key="ZoomPanBin">
              <ZoomPanBin id="25772"  >
               <ZoomPanKeyframes>
                <ZoomPanKeyframe id="25773" timeRangeEnd="-9999999/1" timeRangeDuration="0/1" interpolaterName=""  />
               </ZoomPanKeyframes>
              </ZoomPanBin>
             </Entry>
            </ExtraData>
           </VMFile>
           <VMFile id="25774" start="4362" duration="95" scalar="1/1" mediaStart="4751/1" mediaDuration="95/1" trackNumber="0" src="4" >
            <Transformer>
             <VectorParam id="25775"  name="translation">
              <InterpolatingParam id="25776" interp="linr"  time="-9999999/1" value="0" leadInLength="0/1"  />
              <InterpolatingParam id="25777" interp="linr"  time="-9999999/1" value="0" leadInLength="0/1"  />
              <InterpolatingParam id="25778" interp="linr"  time="-9999999/1" value="0" leadInLength="0/1"  />
             </VectorParam>
             <VectorParam id="25779"  name="rotation">
              <InterpolatingParam id="25780" interp="linr"  time="-9999999/1" value="0" leadInLength="0/1"  />
              <InterpolatingParam id="25781" interp="linr"  time="-9999999/1" value="0" leadInLength="0/1"  />
              <InterpolatingParam id="25782" interp="linr"  time="-9999999/1" value="0" leadInLength="0/1"  />
             </VectorParam>
             <VectorParam id="25783"  name="shear">
              <InterpolatingParam id="25784" interp="linr"  time="-9999999/1" value="0" leadInLength="0/1"  />
              <InterpolatingParam id="25785" interp="linr"  time="-9999999/1" value="0" leadInLength="0/1"  />
              <InterpolatingParam id="25786" interp="linr"  time="-9999999/1" value="0" leadInLength="0/1"  />
             </VectorParam>
             <VectorParam id="25787"  name="scale">
              <InterpolatingParam id="25788" interp="linr"  time="-9999999/1" value="1" leadInLength="0/1"  />
              <InterpolatingParam id="25789" interp="linr"  time="-9999999/1" value="1" leadInLength="0/1"  />
              <InterpolatingParam id="25790" interp="linr"  time="-9999999/1" value="1" leadInLength="0/1"  />
             </VectorParam>
             <VectorParam id="25791"  name="anchor">
              <InterpolatingParam id="25792" interp="linr"  time="0/1" value="0" leadInLength="0/1"  />
              <InterpolatingParam id="25793" interp="linr"  time="0/1" value="0" leadInLength="0/1"  />
              <InterpolatingParam id="25794" interp="linr"  time="0/1" value="0" leadInLength="0/1"  />
             </VectorParam>
            </Transformer>
            <Parameters>
             <VectorParam id="25795"  name="sourceCrop">
              <InterpolatingParam id="25796" interp="linr"  time="0/1" value="0" leadInLength="0/1"  />
              <InterpolatingParam id="25797" interp="linr"  time="0/1" value="0" leadInLength="0/1"  />
              <InterpolatingParam id="25798" interp="linr"  time="0/1" value="0" leadInLength="0/1"  />
              <InterpolatingParam id="25799" interp="linr"  time="0/1" value="0" leadInLength="0/1"  />
             </VectorParam>
             <VectorParam id="25800"  name="geometryCrop">
              <InterpolatingParam id="25801" interp="linr"  time="-9999999/1" value="0" leadInLength="0/1"  />
              <InterpolatingParam id="25802" interp="linr"  time="-9999999/1" value="0" leadInLength="0/1"  />
              <InterpolatingParam id="25803" interp="linr"  time="-9999999/1" value="0" leadInLength="0/1"  />
              <InterpolatingParam id="25804" interp="linr"  time="-9999999/1" value="0" leadInLength="0/1"  />
             </VectorParam>
             <InterpolatingParam id="25805" interp="linr"  time="-9999999/1" value="1" leadInLength="0/1"  name="opacity"/>
            </Parameters>
            <Attributes>
             <Attribute id="25806" value="" name="ident"/>
            </Attributes>
            <MetaData>
             <entry key="WinSubProjectDisplayName" val=""/>
            </MetaData>
            <ExtraData>
             <Entry key="ZoomPanBin">
              <ZoomPanBin id="25807"  >
               <ZoomPanKeyframes>
                <ZoomPanKeyframe id="25808" timeRangeEnd="-9999999/1" timeRangeDuration="0/1" interpolaterName=""  />
               </ZoomPanKeyframes>
              </ZoomPanBin>
             </Entry>
            </ExtraData>
           </VMFile>
           <IMFile id="25809" start="4457" duration="270" scalar="1/1" mediaStart="4846/1" mediaDuration="1/1" trackNumber="0" src="4" trimStartSum="0/1" >
            <Transformer>
             <VectorParam id="25810"  name="translation">
              <InterpolatingParam id="25811" interp="linr"  time="-9999999/1" value="0" leadInLength="0/1"  />
              <InterpolatingParam id="25812" interp="linr"  time="-9999999/1" value="0" leadInLength="0/1"  />
              <InterpolatingParam id="25813" interp="linr"  time="-9999999/1" value="0" leadInLength="0/1"  />
             </VectorParam>
             <VectorParam id="25814"  name="rotation">
              <InterpolatingParam id="25815" interp="linr"  time="-9999999/1" value="0" leadInLength="0/1"  />
              <InterpolatingParam id="25816" interp="linr"  time="-9999999/1" value="0" leadInLength="0/1"  />
              <InterpolatingParam id="25817" interp="linr"  time="-9999999/1" value="0" leadInLength="0/1"  />
             </VectorParam>
             <VectorParam id="25818"  name="shear">
              <InterpolatingParam id="25819" interp="linr"  time="-9999999/1" value="0" leadInLength="0/1"  />
              <InterpolatingParam id="25820" interp="linr"  time="-9999999/1" value="0" leadInLength="0/1"  />
              <InterpolatingParam id="25821" interp="linr"  time="-9999999/1" value="0" leadInLength="0/1"  />
             </VectorParam>
             <VectorParam id="25822"  name="scale">
              <InterpolatingParam id="25823" interp="linr"  time="-9999999/1" value="1" leadInLength="0/1"  />
              <InterpolatingParam id="25824" interp="linr"  time="-9999999/1" value="1" leadInLength="0/1"  />
              <InterpolatingParam id="25825" interp="linr"  time="-9999999/1" value="1" leadInLength="0/1"  />
             </VectorParam>
             <VectorParam id="25826"  name="anchor">
              <InterpolatingParam id="25827" interp="linr"  time="0/1" value="0" leadInLength="0/1"  />
              <InterpolatingParam id="25828" interp="linr"  time="0/1" value="0" leadInLength="0/1"  />
              <InterpolatingParam id="25829" interp="linr"  time="0/1" value="0" leadInLength="0/1"  />
             </VectorParam>
            </Transformer>
            <Parameters>
             <VectorParam id="25830"  name="sourceCrop">
              <InterpolatingParam id="25831" interp="linr"  time="0/1" value="0" leadInLength="0/1"  />
              <InterpolatingParam id="25832" interp="linr"  time="0/1" value="0" leadInLength="0/1"  />
              <InterpolatingParam id="25833" interp="linr"  time="0/1" value="0" leadInLength="0/1"  />
              <InterpolatingParam id="25834" interp="linr"  time="0/1" value="0" leadInLength="0/1"  />
             </VectorParam>
             <VectorParam id="25835"  name="geometryCrop">
              <InterpolatingParam id="25836" interp="linr"  time="-9999999/1" value="0" leadInLength="0/1"  />
              <InterpolatingParam id="25837" interp="linr"  time="-9999999/1" value="0" leadInLength="0/1"  />
              <InterpolatingParam id="25838" interp="linr"  time="-9999999/1" value="0" leadInLength="0/1"  />
              <InterpolatingParam id="25839" interp="linr"  time="-9999999/1" value="0" leadInLength="0/1"  />
             </VectorParam>
             <InterpolatingParam id="25840" interp="linr"  time="-9999999/1" value="1" leadInLength="0/1"  name="opacity"/>
            </Parameters>
            <Attributes>
             <Attribute id="25841" value="" name="ident"/>
            </Attributes>
            <MetaData>
             <entry key="WinSubProjectDisplayName" val=""/>
            </MetaData>
            <ExtraData>
             <Entry key="ZoomPanBin">
              <ZoomPanBin id="25842"  >
               <ZoomPanKeyframes>
                <ZoomPanKeyframe id="25843" timeRangeEnd="-9999999/1" timeRangeDuration="0/1" interpolaterName=""  />
               </ZoomPanKeyframes>
              </ZoomPanBin>
             </Entry>
            </ExtraData>
           </IMFile>
           <VMFile id="25844" start="4727" duration="17" scalar="1/1" mediaStart="4846/1" mediaDuration="17/1" trackNumber="0" src="4" >
            <Transformer>
             <VectorParam id="25845"  name="translation">
              <InterpolatingParam id="25846" interp="linr"  time="-9999999/1" value="0" leadInLength="0/1"  />
              <InterpolatingParam id="25847" interp="linr"  time="-9999999/1" value="0" leadInLength="0/1"  />
              <InterpolatingParam id="25848" interp="linr"  time="-9999999/1" value="0" leadInLength="0/1"  />
             </VectorParam>
             <VectorParam id="25849"  name="rotation">
              <InterpolatingParam id="25850" interp="linr"  time="-9999999/1" value="0" leadInLength="0/1"  />
              <InterpolatingParam id="25851" interp="linr"  time="-9999999/1" value="0" leadInLength="0/1"  />
              <InterpolatingParam id="25852" interp="linr"  time="-9999999/1" value="0" leadInLength="0/1"  />
             </VectorParam>
             <VectorParam id="25853"  name="shear">
              <InterpolatingParam id="25854" interp="linr"  time="-9999999/1" value="0" leadInLength="0/1"  />
              <InterpolatingParam id="25855" interp="linr"  time="-9999999/1" value="0" leadInLength="0/1"  />
              <InterpolatingParam id="25856" interp="linr"  time="-9999999/1" value="0" leadInLength="0/1"  />
             </VectorParam>
             <VectorParam id="25857"  name="scale">
              <InterpolatingParam id="25858" interp="linr"  time="-9999999/1" value="1" leadInLength="0/1"  />
              <InterpolatingParam id="25859" interp="linr"  time="-9999999/1" value="1" leadInLength="0/1"  />
              <InterpolatingParam id="25860" interp="linr"  time="-9999999/1" value="1" leadInLength="0/1"  />
             </VectorParam>
             <VectorParam id="25861"  name="anchor">
              <InterpolatingParam id="25862" interp="linr"  time="0/1" value="0" leadInLength="0/1"  />
              <InterpolatingParam id="25863" interp="linr"  time="0/1" value="0" leadInLength="0/1"  />
              <InterpolatingParam id="25864" interp="linr"  time="0/1" value="0" leadInLength="0/1"  />
             </VectorParam>
            </Transformer>
            <Parameters>
             <VectorParam id="25865"  name="sourceCrop">
              <InterpolatingParam id="25866" interp="linr"  time="0/1" value="0" leadInLength="0/1"  />
              <InterpolatingParam id="25867" interp="linr"  time="0/1" value="0" leadInLength="0/1"  />
              <InterpolatingParam id="25868" interp="linr"  time="0/1" value="0" leadInLength="0/1"  />
              <InterpolatingParam id="25869" interp="linr"  time="0/1" value="0" leadInLength="0/1"  />
             </VectorParam>
             <VectorParam id="25870"  name="geometryCrop">
              <InterpolatingParam id="25871" interp="linr"  time="-9999999/1" value="0" leadInLength="0/1"  />
              <InterpolatingParam id="25872" interp="linr"  time="-9999999/1" value="0" leadInLength="0/1"  />
              <InterpolatingParam id="25873" interp="linr"  time="-9999999/1" value="0" leadInLength="0/1"  />
              <InterpolatingParam id="25874" interp="linr"  time="-9999999/1" value="0" leadInLength="0/1"  />
             </VectorParam>
             <InterpolatingParam id="25875" interp="linr"  time="-9999999/1" value="1" leadInLength="0/1"  name="opacity"/>
            </Parameters>
            <Attributes>
             <Attribute id="25876" value="" name="ident"/>
            </Attributes>
            <MetaData>
             <entry key="WinSubProjectDisplayName" val=""/>
            </MetaData>
            <ExtraData>
             <Entry key="ZoomPanBin">
              <ZoomPanBin id="25877"  >
               <ZoomPanKeyframes>
                <ZoomPanKeyframe id="25878" timeRangeEnd="-9999999/1" timeRangeDuration="0/1" interpolaterName=""  />
               </ZoomPanKeyframes>
              </ZoomPanBin>
             </Entry>
            </ExtraData>
           </VMFile>
           <VMFile id="25879" start="4744" duration="386" scalar="1/1" mediaStart="7805/1" mediaDuration="386/1" trackNumber="0" src="4" >
            <Transformer>
             <VectorParam id="25880"  name="translation">
              <InterpolatingParam id="25881" interp="linr"  time="-9999999/1" value="0" leadInLength="0/1"  />
              <InterpolatingParam id="25882" interp="linr"  time="-9999999/1" value="0" leadInLength="0/1"  />
              <InterpolatingParam id="25883" interp="linr"  time="-9999999/1" value="0" leadInLength="0/1"  />
             </VectorParam>
             <VectorParam id="25884"  name="rotation">
              <InterpolatingParam id="25885" interp="linr"  time="-9999999/1" value="0" leadInLength="0/1"  />
              <InterpolatingParam id="25886" interp="linr"  time="-9999999/1" value="0" leadInLength="0/1"  />
              <InterpolatingParam id="25887" interp="linr"  time="-9999999/1" value="0" leadInLength="0/1"  />
             </VectorParam>
             <VectorParam id="25888"  name="shear">
              <InterpolatingParam id="25889" interp="linr"  time="-9999999/1" value="0" leadInLength="0/1"  />
              <InterpolatingParam id="25890" interp="linr"  time="-9999999/1" value="0" leadInLength="0/1"  />
              <InterpolatingParam id="25891" interp="linr"  time="-9999999/1" value="0" leadInLength="0/1"  />
             </VectorParam>
             <VectorParam id="25892"  name="scale">
              <InterpolatingParam id="25893" interp="linr"  time="-9999999/1" value="1" leadInLength="0/1"  />
              <InterpolatingParam id="25894" interp="linr"  time="-9999999/1" value="1" leadInLength="0/1"  />
              <InterpolatingParam id="25895" interp="linr"  time="-9999999/1" value="1" leadInLength="0/1"  />
             </VectorParam>
             <VectorParam id="25896"  name="anchor">
              <InterpolatingParam id="25897" interp="linr"  time="0/1" value="0" leadInLength="0/1"  />
              <InterpolatingParam id="25898" interp="linr"  time="0/1" value="0" leadInLength="0/1"  />
              <InterpolatingParam id="25899" interp="linr"  time="0/1" value="0" leadInLength="0/1"  />
             </VectorParam>
            </Transformer>
            <Parameters>
             <VectorParam id="25900"  name="sourceCrop">
              <InterpolatingParam id="25901" interp="linr"  time="0/1" value="0" leadInLength="0/1"  />
              <InterpolatingParam id="25902" interp="linr"  time="0/1" value="0" leadInLength="0/1"  />
              <InterpolatingParam id="25903" interp="linr"  time="0/1" value="0" leadInLength="0/1"  />
              <InterpolatingParam id="25904" interp="linr"  time="0/1" value="0" leadInLength="0/1"  />
             </VectorParam>
             <VectorParam id="25905"  name="geometryCrop">
              <InterpolatingParam id="25906" interp="linr"  time="-9999999/1" value="0" leadInLength="0/1"  />
              <InterpolatingParam id="25907" interp="linr"  time="-9999999/1" value="0" leadInLength="0/1"  />
              <InterpolatingParam id="25908" interp="linr"  time="-9999999/1" value="0" leadInLength="0/1"  />
              <InterpolatingParam id="25909" interp="linr"  time="-9999999/1" value="0" leadInLength="0/1"  />
             </VectorParam>
             <InterpolatingParam id="25910" interp="linr"  time="-9999999/1" value="1" leadInLength="0/1"  name="opacity"/>
            </Parameters>
            <Attributes>
             <Attribute id="25911" value="" name="ident"/>
            </Attributes>
            <MetaData>
             <entry key="WinSubProjectDisplayName" val=""/>
            </MetaData>
            <ExtraData>
             <Entry key="ZoomPanBin">
              <ZoomPanBin id="25912"  >
               <ZoomPanKeyframes>
                <ZoomPanKeyframe id="25913" timeRangeEnd="-9999999/1" timeRangeDuration="0/1" interpolaterName=""  />
               </ZoomPanKeyframes>
              </ZoomPanBin>
             </Entry>
            </ExtraData>
           </VMFile>
           <VMFile id="25914" start="5130" duration="922" scalar="1/1" mediaStart="8371/1" mediaDuration="922/1" trackNumber="0" src="4" >
            <Transformer>
             <VectorParam id="25915"  name="translation">
              <InterpolatingParam id="25916" interp="linr"  time="-9999999/1" value="0" leadInLength="0/1"  />
              <InterpolatingParam id="25917" interp="linr"  time="-9999999/1" value="0" leadInLength="0/1"  />
              <InterpolatingParam id="25918" interp="linr"  time="-9999999/1" value="0" leadInLength="0/1"  />
             </VectorParam>
             <VectorParam id="25919"  name="rotation">
              <InterpolatingParam id="25920" interp="linr"  time="-9999999/1" value="0" leadInLength="0/1"  />
              <InterpolatingParam id="25921" interp="linr"  time="-9999999/1" value="0" leadInLength="0/1"  />
              <InterpolatingParam id="25922" interp="linr"  time="-9999999/1" value="0" leadInLength="0/1"  />
             </VectorParam>
             <VectorParam id="25923"  name="shear">
              <InterpolatingParam id="25924" interp="linr"  time="-9999999/1" value="0" leadInLength="0/1"  />
              <InterpolatingParam id="25925" interp="linr"  time="-9999999/1" value="0" leadInLength="0/1"  />
              <InterpolatingParam id="25926" interp="linr"  time="-9999999/1" value="0" leadInLength="0/1"  />
             </VectorParam>
             <VectorParam id="25927"  name="scale">
              <InterpolatingParam id="25928" interp="linr"  time="-9999999/1" value="1" leadInLength="0/1"  />
              <InterpolatingParam id="25929" interp="linr"  time="-9999999/1" value="1" leadInLength="0/1"  />
              <InterpolatingParam id="25930" interp="linr"  time="-9999999/1" value="1" leadInLength="0/1"  />
             </VectorParam>
             <VectorParam id="25931"  name="anchor">
              <InterpolatingParam id="25932" interp="linr"  time="0/1" value="0" leadInLength="0/1"  />
              <InterpolatingParam id="25933" interp="linr"  time="0/1" value="0" leadInLength="0/1"  />
              <InterpolatingParam id="25934" interp="linr"  time="0/1" value="0" leadInLength="0/1"  />
             </VectorParam>
            </Transformer>
            <Parameters>
             <VectorParam id="25935"  name="sourceCrop">
              <InterpolatingParam id="25936" interp="linr"  time="0/1" value="0" leadInLength="0/1"  />
              <InterpolatingParam id="25937" interp="linr"  time="0/1" value="0" leadInLength="0/1"  />
              <InterpolatingParam id="25938" interp="linr"  time="0/1" value="0" leadInLength="0/1"  />
              <InterpolatingParam id="25939" interp="linr"  time="0/1" value="0" leadInLength="0/1"  />
             </VectorParam>
             <VectorParam id="25940"  name="geometryCrop">
              <InterpolatingParam id="25941" interp="linr"  time="-9999999/1" value="0" leadInLength="0/1"  />
              <InterpolatingParam id="25942" interp="linr"  time="-9999999/1" value="0" leadInLength="0/1"  />
              <InterpolatingParam id="25943" interp="linr"  time="-9999999/1" value="0" leadInLength="0/1"  />
              <InterpolatingParam id="25944" interp="linr"  time="-9999999/1" value="0" leadInLength="0/1"  />
             </VectorParam>
             <InterpolatingParam id="25945" interp="linr"  time="-9999999/1" value="1" leadInLength="0/1"  name="opacity"/>
            </Parameters>
            <Attributes>
             <Attribute id="25946" value="" name="ident"/>
            </Attributes>
            <MetaData>
             <entry key="WinSubProjectDisplayName" val=""/>
            </MetaData>
            <ExtraData>
             <Entry key="ZoomPanBin">
              <ZoomPanBin id="25947"  >
               <ZoomPanKeyframes>
                <ZoomPanKeyframe id="25948" timeRangeEnd="-9999999/1" timeRangeDuration="0/1" interpolaterName=""  />
               </ZoomPanKeyframes>
              </ZoomPanBin>
             </Entry>
            </ExtraData>
           </VMFile>
           <IMFile id="25949" start="6052" duration="30" scalar="1/1" mediaStart="9292/1" mediaDuration="1/1" trackNumber="0" src="4" trimStartSum="0/1" >
            <Transformer>
             <VectorParam id="25950"  name="translation">
              <InterpolatingParam id="25951" interp="linr"  time="-9999999/1" value="0" leadInLength="0/1"  />
              <InterpolatingParam id="25952" interp="linr"  time="-9999999/1" value="0" leadInLength="0/1"  />
              <InterpolatingParam id="25953" interp="linr"  time="-9999999/1" value="0" leadInLength="0/1"  />
             </VectorParam>
             <VectorParam id="25954"  name="rotation">
              <InterpolatingParam id="25955" interp="linr"  time="-9999999/1" value="0" leadInLength="0/1"  />
              <InterpolatingParam id="25956" interp="linr"  time="-9999999/1" value="0" leadInLength="0/1"  />
              <InterpolatingParam id="25957" interp="linr"  time="-9999999/1" value="0" leadInLength="0/1"  />
             </VectorParam>
             <VectorParam id="25958"  name="shear">
              <InterpolatingParam id="25959" interp="linr"  time="-9999999/1" value="0" leadInLength="0/1"  />
              <InterpolatingParam id="25960" interp="linr"  time="-9999999/1" value="0" leadInLength="0/1"  />
              <InterpolatingParam id="25961" interp="linr"  time="-9999999/1" value="0" leadInLength="0/1"  />
             </VectorParam>
             <VectorParam id="25962"  name="scale">
              <InterpolatingParam id="25963" interp="linr"  time="-9999999/1" value="1" leadInLength="0/1"  />
              <InterpolatingParam id="25964" interp="linr"  time="-9999999/1" value="1" leadInLength="0/1"  />
              <InterpolatingParam id="25965" interp="linr"  time="-9999999/1" value="1" leadInLength="0/1"  />
             </VectorParam>
             <VectorParam id="25966"  name="anchor">
              <InterpolatingParam id="25967" interp="linr"  time="0/1" value="0" leadInLength="0/1"  />
              <InterpolatingParam id="25968" interp="linr"  time="0/1" value="0" leadInLength="0/1"  />
              <InterpolatingParam id="25969" interp="linr"  time="0/1" value="0" leadInLength="0/1"  />
             </VectorParam>
            </Transformer>
            <Parameters>
             <VectorParam id="25970"  name="sourceCrop">
              <InterpolatingParam id="25971" interp="linr"  time="0/1" value="0" leadInLength="0/1"  />
              <InterpolatingParam id="25972" interp="linr"  time="0/1" value="0" leadInLength="0/1"  />
              <InterpolatingParam id="25973" interp="linr"  time="0/1" value="0" leadInLength="0/1"  />
              <InterpolatingParam id="25974" interp="linr"  time="0/1" value="0" leadInLength="0/1"  />
             </VectorParam>
             <VectorParam id="25975"  name="geometryCrop">
              <InterpolatingParam id="25976" interp="linr"  time="-9999999/1" value="0" leadInLength="0/1"  />
              <InterpolatingParam id="25977" interp="linr"  time="-9999999/1" value="0" leadInLength="0/1"  />
              <InterpolatingParam id="25978" interp="linr"  time="-9999999/1" value="0" leadInLength="0/1"  />
              <InterpolatingParam id="25979" interp="linr"  time="-9999999/1" value="0" leadInLength="0/1"  />
             </VectorParam>
             <InterpolatingParam id="25980" interp="linr"  time="-9999999/1" value="1" leadInLength="0/1"  name="opacity"/>
            </Parameters>
            <Attributes>
             <Attribute id="25981" value="" name="ident"/>
            </Attributes>
            <MetaData>
             <entry key="WinSubProjectDisplayName" val=""/>
            </MetaData>
            <ExtraData>
             <Entry key="ZoomPanBin">
              <ZoomPanBin id="25982"  >
               <ZoomPanKeyframes>
                <ZoomPanKeyframe id="25983" timeRangeEnd="-9999999/1" timeRangeDuration="0/1" interpolaterName=""  />
               </ZoomPanKeyframes>
              </ZoomPanBin>
             </Entry>
            </ExtraData>
           </IMFile>
           <VMFile id="25984" start="6082" duration="86" scalar="1/1" mediaStart="9292/1" mediaDuration="86/1" trackNumber="0" src="4" >
            <Transformer>
             <VectorParam id="25985"  name="translation">
              <InterpolatingParam id="25986" interp="linr"  time="-9999999/1" value="0" leadInLength="0/1"  />
              <InterpolatingParam id="25987" interp="linr"  time="-9999999/1" value="0" leadInLength="0/1"  />
              <InterpolatingParam id="25988" interp="linr"  time="-9999999/1" value="0" leadInLength="0/1"  />
             </VectorParam>
             <VectorParam id="25989"  name="rotation">
              <InterpolatingParam id="25990" interp="linr"  time="-9999999/1" value="0" leadInLength="0/1"  />
              <InterpolatingParam id="25991" interp="linr"  time="-9999999/1" value="0" leadInLength="0/1"  />
              <InterpolatingParam id="25992" interp="linr"  time="-9999999/1" value="0" leadInLength="0/1"  />
             </VectorParam>
             <VectorParam id="25993"  name="shear">
              <InterpolatingParam id="25994" interp="linr"  time="-9999999/1" value="0" leadInLength="0/1"  />
              <InterpolatingParam id="25995" interp="linr"  time="-9999999/1" value="0" leadInLength="0/1"  />
              <InterpolatingParam id="25996" interp="linr"  time="-9999999/1" value="0" leadInLength="0/1"  />
             </VectorParam>
             <VectorParam id="25997"  name="scale">
              <InterpolatingParam id="25998" interp="linr"  time="-9999999/1" value="1" leadInLength="0/1"  />
              <InterpolatingParam id="25999" interp="linr"  time="-9999999/1" value="1" leadInLength="0/1"  />
              <InterpolatingParam id="26000" interp="linr"  time="-9999999/1" value="1" leadInLength="0/1"  />
             </VectorParam>
             <VectorParam id="26001"  name="anchor">
              <InterpolatingParam id="26002" interp="linr"  time="0/1" value="0" leadInLength="0/1"  />
              <InterpolatingParam id="26003" interp="linr"  time="0/1" value="0" leadInLength="0/1"  />
              <InterpolatingParam id="26004" interp="linr"  time="0/1" value="0" leadInLength="0/1"  />
             </VectorParam>
            </Transformer>
            <Parameters>
             <VectorParam id="26005"  name="sourceCrop">
              <InterpolatingParam id="26006" interp="linr"  time="0/1" value="0" leadInLength="0/1"  />
              <InterpolatingParam id="26007" interp="linr"  time="0/1" value="0" leadInLength="0/1"  />
              <InterpolatingParam id="26008" interp="linr"  time="0/1" value="0" leadInLength="0/1"  />
              <InterpolatingParam id="26009" interp="linr"  time="0/1" value="0" leadInLength="0/1"  />
             </VectorParam>
             <VectorParam id="26010"  name="geometryCrop">
              <InterpolatingParam id="26011" interp="linr"  time="-9999999/1" value="0" leadInLength="0/1"  />
              <InterpolatingParam id="26012" interp="linr"  time="-9999999/1" value="0" leadInLength="0/1"  />
              <InterpolatingParam id="26013" interp="linr"  time="-9999999/1" value="0" leadInLength="0/1"  />
              <InterpolatingParam id="26014" interp="linr"  time="-9999999/1" value="0" leadInLength="0/1"  />
             </VectorParam>
             <InterpolatingParam id="26015" interp="linr"  time="-9999999/1" value="1" leadInLength="0/1"  name="opacity"/>
            </Parameters>
            <Attributes>
             <Attribute id="26016" value="" name="ident"/>
            </Attributes>
            <MetaData>
             <entry key="WinSubProjectDisplayName" val=""/>
            </MetaData>
            <ExtraData>
             <Entry key="ZoomPanBin">
              <ZoomPanBin id="26017"  >
               <ZoomPanKeyframes>
                <ZoomPanKeyframe id="26018" timeRangeEnd="-9999999/1" timeRangeDuration="0/1" interpolaterName=""  />
               </ZoomPanKeyframes>
              </ZoomPanBin>
             </Entry>
            </ExtraData>
           </VMFile>
           <VMFile id="26019" start="6168" duration="555" scalar="1/1" mediaStart="9516/1" mediaDuration="555/1" trackNumber="0" src="4" >
            <Transformer>
             <VectorParam id="26020"  name="translation">
              <InterpolatingParam id="26021" interp="linr"  time="-9999999/1" value="0" leadInLength="0/1"  />
              <InterpolatingParam id="26022" interp="linr"  time="-9999999/1" value="0" leadInLength="0/1"  />
              <InterpolatingParam id="26023" interp="linr"  time="-9999999/1" value="0" leadInLength="0/1"  />
             </VectorParam>
             <VectorParam id="26024"  name="rotation">
              <InterpolatingParam id="26025" interp="linr"  time="-9999999/1" value="0" leadInLength="0/1"  />
              <InterpolatingParam id="26026" interp="linr"  time="-9999999/1" value="0" leadInLength="0/1"  />
              <InterpolatingParam id="26027" interp="linr"  time="-9999999/1" value="0" leadInLength="0/1"  />
             </VectorParam>
             <VectorParam id="26028"  name="shear">
              <InterpolatingParam id="26029" interp="linr"  time="-9999999/1" value="0" leadInLength="0/1"  />
              <InterpolatingParam id="26030" interp="linr"  time="-9999999/1" value="0" leadInLength="0/1"  />
              <InterpolatingParam id="26031" interp="linr"  time="-9999999/1" value="0" leadInLength="0/1"  />
             </VectorParam>
             <VectorParam id="26032"  name="scale">
              <InterpolatingParam id="26033" interp="linr"  time="-9999999/1" value="1" leadInLength="0/1"  />
              <InterpolatingParam id="26034" interp="linr"  time="-9999999/1" value="1" leadInLength="0/1"  />
              <InterpolatingParam id="26035" interp="linr"  time="-9999999/1" value="1" leadInLength="0/1"  />
             </VectorParam>
             <VectorParam id="26036"  name="anchor">
              <InterpolatingParam id="26037" interp="linr"  time="0/1" value="0" leadInLength="0/1"  />
              <InterpolatingParam id="26038" interp="linr"  time="0/1" value="0" leadInLength="0/1"  />
              <InterpolatingParam id="26039" interp="linr"  time="0/1" value="0" leadInLength="0/1"  />
             </VectorParam>
            </Transformer>
            <Parameters>
             <VectorParam id="26040"  name="sourceCrop">
              <InterpolatingParam id="26041" interp="linr"  time="0/1" value="0" leadInLength="0/1"  />
              <InterpolatingParam id="26042" interp="linr"  time="0/1" value="0" leadInLength="0/1"  />
              <InterpolatingParam id="26043" interp="linr"  time="0/1" value="0" leadInLength="0/1"  />
              <InterpolatingParam id="26044" interp="linr"  time="0/1" value="0" leadInLength="0/1"  />
             </VectorParam>
             <VectorParam id="26045"  name="geometryCrop">
              <InterpolatingParam id="26046" interp="linr"  time="-9999999/1" value="0" leadInLength="0/1"  />
              <InterpolatingParam id="26047" interp="linr"  time="-9999999/1" value="0" leadInLength="0/1"  />
              <InterpolatingParam id="26048" interp="linr"  time="-9999999/1" value="0" leadInLength="0/1"  />
              <InterpolatingParam id="26049" interp="linr"  time="-9999999/1" value="0" leadInLength="0/1"  />
             </VectorParam>
             <InterpolatingParam id="26050" interp="linr"  time="-9999999/1" value="1" leadInLength="0/1"  name="opacity"/>
            </Parameters>
            <Attributes>
             <Attribute id="26051" value="" name="ident"/>
            </Attributes>
            <MetaData>
             <entry key="WinSubProjectDisplayName" val=""/>
            </MetaData>
            <ExtraData>
             <Entry key="ZoomPanBin">
              <ZoomPanBin id="26052"  >
               <ZoomPanKeyframes>
                <ZoomPanKeyframe id="26053" timeRangeEnd="-9999999/1" timeRangeDuration="0/1" interpolaterName=""  />
               </ZoomPanKeyframes>
              </ZoomPanBin>
             </Entry>
            </ExtraData>
           </VMFile>
           <VMFile id="26054" start="6723" duration="460" scalar="1/1" mediaStart="11597/1" mediaDuration="460/1" trackNumber="0" src="4" >
            <Transformer>
             <VectorParam id="26055"  name="translation">
              <InterpolatingParam id="26056" interp="linr"  time="-9999999/1" value="0" leadInLength="0/1"  />
              <InterpolatingParam id="26057" interp="linr"  time="-9999999/1" value="0" leadInLength="0/1"  />
              <InterpolatingParam id="26058" interp="linr"  time="-9999999/1" value="0" leadInLength="0/1"  />
             </VectorParam>
             <VectorParam id="26059"  name="rotation">
              <InterpolatingParam id="26060" interp="linr"  time="-9999999/1" value="0" leadInLength="0/1"  />
              <InterpolatingParam id="26061" interp="linr"  time="-9999999/1" value="0" leadInLength="0/1"  />
              <InterpolatingParam id="26062" interp="linr"  time="-9999999/1" value="0" leadInLength="0/1"  />
             </VectorParam>
             <VectorParam id="26063"  name="shear">
              <InterpolatingParam id="26064" interp="linr"  time="-9999999/1" value="0" leadInLength="0/1"  />
              <InterpolatingParam id="26065" interp="linr"  time="-9999999/1" value="0" leadInLength="0/1"  />
              <InterpolatingParam id="26066" interp="linr"  time="-9999999/1" value="0" leadInLength="0/1"  />
             </VectorParam>
             <VectorParam id="26067"  name="scale">
              <InterpolatingParam id="26068" interp="linr"  time="-9999999/1" value="1" leadInLength="0/1"  />
              <InterpolatingParam id="26069" interp="linr"  time="-9999999/1" value="1" leadInLength="0/1"  />
              <InterpolatingParam id="26070" interp="linr"  time="-9999999/1" value="1" leadInLength="0/1"  />
             </VectorParam>
             <VectorParam id="26071"  name="anchor">
              <InterpolatingParam id="26072" interp="linr"  time="0/1" value="0" leadInLength="0/1"  />
              <InterpolatingParam id="26073" interp="linr"  time="0/1" value="0" leadInLength="0/1"  />
              <InterpolatingParam id="26074" interp="linr"  time="0/1" value="0" leadInLength="0/1"  />
             </VectorParam>
            </Transformer>
            <Parameters>
             <VectorParam id="26075"  name="sourceCrop">
              <InterpolatingParam id="26076" interp="linr"  time="0/1" value="0" leadInLength="0/1"  />
              <InterpolatingParam id="26077" interp="linr"  time="0/1" value="0" leadInLength="0/1"  />
              <InterpolatingParam id="26078" interp="linr"  time="0/1" value="0" leadInLength="0/1"  />
              <InterpolatingParam id="26079" interp="linr"  time="0/1" value="0" leadInLength="0/1"  />
             </VectorParam>
             <VectorParam id="26080"  name="geometryCrop">
              <InterpolatingParam id="26081" interp="linr"  time="-9999999/1" value="0" leadInLength="0/1"  />
              <InterpolatingParam id="26082" interp="linr"  time="-9999999/1" value="0" leadInLength="0/1"  />
              <InterpolatingParam id="26083" interp="linr"  time="-9999999/1" value="0" leadInLength="0/1"  />
              <InterpolatingParam id="26084" interp="linr"  time="-9999999/1" value="0" leadInLength="0/1"  />
             </VectorParam>
             <InterpolatingParam id="26085" interp="linr"  time="-9999999/1" value="1" leadInLength="0/1"  name="opacity"/>
            </Parameters>
            <Attributes>
             <Attribute id="26086" value="" name="ident"/>
            </Attributes>
            <MetaData>
             <entry key="WinSubProjectDisplayName" val=""/>
            </MetaData>
            <ExtraData>
             <Entry key="ZoomPanBin">
              <ZoomPanBin id="26087"  >
               <ZoomPanKeyframes>
                <ZoomPanKeyframe id="26088" timeRangeEnd="-9999999/1" timeRangeDuration="0/1" interpolaterName=""  />
               </ZoomPanKeyframes>
              </ZoomPanBin>
             </Entry>
            </ExtraData>
           </VMFile>
           <VMFile id="26089" start="7183" duration="350" scalar="1/1" mediaStart="12237/1" mediaDuration="350/1" trackNumber="0" src="4" >
            <Transformer>
             <VectorParam id="26090"  name="translation">
              <InterpolatingParam id="26091" interp="linr"  time="-9999999/1" value="0" leadInLength="0/1"  />
              <InterpolatingParam id="26092" interp="linr"  time="-9999999/1" value="0" leadInLength="0/1"  />
              <InterpolatingParam id="26093" interp="linr"  time="-9999999/1" value="0" leadInLength="0/1"  />
             </VectorParam>
             <VectorParam id="26094"  name="rotation">
              <InterpolatingParam id="26095" interp="linr"  time="-9999999/1" value="0" leadInLength="0/1"  />
              <InterpolatingParam id="26096" interp="linr"  time="-9999999/1" value="0" leadInLength="0/1"  />
              <InterpolatingParam id="26097" interp="linr"  time="-9999999/1" value="0" leadInLength="0/1"  />
             </VectorParam>
             <VectorParam id="26098"  name="shear">
              <InterpolatingParam id="26099" interp="linr"  time="-9999999/1" value="0" leadInLength="0/1"  />
              <InterpolatingParam id="26100" interp="linr"  time="-9999999/1" value="0" leadInLength="0/1"  />
              <InterpolatingParam id="26101" interp="linr"  time="-9999999/1" value="0" leadInLength="0/1"  />
             </VectorParam>
             <VectorParam id="26102"  name="scale">
              <InterpolatingParam id="26103" interp="linr"  time="-9999999/1" value="1" leadInLength="0/1"  />
              <InterpolatingParam id="26104" interp="linr"  time="-9999999/1" value="1" leadInLength="0/1"  />
              <InterpolatingParam id="26105" interp="linr"  time="-9999999/1" value="1" leadInLength="0/1"  />
             </VectorParam>
             <VectorParam id="26106"  name="anchor">
              <InterpolatingParam id="26107" interp="linr"  time="0/1" value="0" leadInLength="0/1"  />
              <InterpolatingParam id="26108" interp="linr"  time="0/1" value="0" leadInLength="0/1"  />
              <InterpolatingParam id="26109" interp="linr"  time="0/1" value="0" leadInLength="0/1"  />
             </VectorParam>
            </Transformer>
            <Parameters>
             <VectorParam id="26110"  name="sourceCrop">
              <InterpolatingParam id="26111" interp="linr"  time="0/1" value="0" leadInLength="0/1"  />
              <InterpolatingParam id="26112" interp="linr"  time="0/1" value="0" leadInLength="0/1"  />
              <InterpolatingParam id="26113" interp="linr"  time="0/1" value="0" leadInLength="0/1"  />
              <InterpolatingParam id="26114" interp="linr"  time="0/1" value="0" leadInLength="0/1"  />
             </VectorParam>
             <VectorParam id="26115"  name="geometryCrop">
              <InterpolatingParam id="26116" interp="linr"  time="-9999999/1" value="0" leadInLength="0/1"  />
              <InterpolatingParam id="26117" interp="linr"  time="-9999999/1" value="0" leadInLength="0/1"  />
              <InterpolatingParam id="26118" interp="linr"  time="-9999999/1" value="0" leadInLength="0/1"  />
              <InterpolatingParam id="26119" interp="linr"  time="-9999999/1" value="0" leadInLength="0/1"  />
             </VectorParam>
             <InterpolatingParam id="26120" interp="linr"  time="-9999999/1" value="1" leadInLength="0/1"  name="opacity"/>
            </Parameters>
            <Attributes>
             <Attribute id="26121" value="" name="ident"/>
            </Attributes>
            <MetaData>
             <entry key="WinSubProjectDisplayName" val=""/>
            </MetaData>
            <ExtraData>
             <Entry key="ZoomPanBin">
              <ZoomPanBin id="26122"  >
               <ZoomPanKeyframes>
                <ZoomPanKeyframe id="26123" timeRangeEnd="-9999999/1" timeRangeDuration="0/1" interpolaterName=""  />
               </ZoomPanKeyframes>
              </ZoomPanBin>
             </Entry>
            </ExtraData>
           </VMFile>
           <VMFile id="26124" start="7533" duration="109" scalar="1/1" mediaStart="15765/1" mediaDuration="109/1" trackNumber="0" src="4" >
            <Transformer>
             <VectorParam id="26125"  name="translation">
              <InterpolatingParam id="26126" interp="linr"  time="-9999999/1" value="0" leadInLength="0/1"  />
              <InterpolatingParam id="26127" interp="linr"  time="-9999999/1" value="0" leadInLength="0/1"  />
              <InterpolatingParam id="26128" interp="linr"  time="-9999999/1" value="0" leadInLength="0/1"  />
             </VectorParam>
             <VectorParam id="26129"  name="rotation">
              <InterpolatingParam id="26130" interp="linr"  time="-9999999/1" value="0" leadInLength="0/1"  />
              <InterpolatingParam id="26131" interp="linr"  time="-9999999/1" value="0" leadInLength="0/1"  />
              <InterpolatingParam id="26132" interp="linr"  time="-9999999/1" value="0" leadInLength="0/1"  />
             </VectorParam>
             <VectorParam id="26133"  name="shear">
              <InterpolatingParam id="26134" interp="linr"  time="-9999999/1" value="0" leadInLength="0/1"  />
              <InterpolatingParam id="26135" interp="linr"  time="-9999999/1" value="0" leadInLength="0/1"  />
              <InterpolatingParam id="26136" interp="linr"  time="-9999999/1" value="0" leadInLength="0/1"  />
             </VectorParam>
             <VectorParam id="26137"  name="scale">
              <InterpolatingParam id="26138" interp="linr"  time="-9999999/1" value="1" leadInLength="0/1"  />
              <InterpolatingParam id="26139" interp="linr"  time="-9999999/1" value="1" leadInLength="0/1"  />
              <InterpolatingParam id="26140" interp="linr"  time="-9999999/1" value="1" leadInLength="0/1"  />
             </VectorParam>
             <VectorParam id="26141"  name="anchor">
              <InterpolatingParam id="26142" interp="linr"  time="0/1" value="0" leadInLength="0/1"  />
              <InterpolatingParam id="26143" interp="linr"  time="0/1" value="0" leadInLength="0/1"  />
              <InterpolatingParam id="26144" interp="linr"  time="0/1" value="0" leadInLength="0/1"  />
             </VectorParam>
            </Transformer>
            <Parameters>
             <VectorParam id="26145"  name="sourceCrop">
              <InterpolatingParam id="26146" interp="linr"  time="0/1" value="0" leadInLength="0/1"  />
              <InterpolatingParam id="26147" interp="linr"  time="0/1" value="0" leadInLength="0/1"  />
              <InterpolatingParam id="26148" interp="linr"  time="0/1" value="0" leadInLength="0/1"  />
              <InterpolatingParam id="26149" interp="linr"  time="0/1" value="0" leadInLength="0/1"  />
             </VectorParam>
             <VectorParam id="26150"  name="geometryCrop">
              <InterpolatingParam id="26151" interp="linr"  time="-9999999/1" value="0" leadInLength="0/1"  />
              <InterpolatingParam id="26152" interp="linr"  time="-9999999/1" value="0" leadInLength="0/1"  />
              <InterpolatingParam id="26153" interp="linr"  time="-9999999/1" value="0" leadInLength="0/1"  />
              <InterpolatingParam id="26154" interp="linr"  time="-9999999/1" value="0" leadInLength="0/1"  />
             </VectorParam>
             <InterpolatingParam id="26155" interp="linr"  time="-9999999/1" value="1" leadInLength="0/1"  name="opacity"/>
            </Parameters>
            <Attributes>
             <Attribute id="26156" value="" name="ident"/>
            </Attributes>
            <MetaData>
             <entry key="WinSubProjectDisplayName" val=""/>
            </MetaData>
            <ExtraData>
             <Entry key="ZoomPanBin">
              <ZoomPanBin id="26157"  >
               <ZoomPanKeyframes>
                <ZoomPanKeyframe id="26158" timeRangeEnd="-9999999/1" timeRangeDuration="0/1" interpolaterName=""  />
               </ZoomPanKeyframes>
              </ZoomPanBin>
             </Entry>
            </ExtraData>
           </VMFile>
           <IMFile id="26159" start="7642" duration="451" scalar="1/1" mediaStart="15873/1" mediaDuration="1/1" trackNumber="0" src="4" trimStartSum="0/1" >
            <Transformer>
             <VectorParam id="26160"  name="translation">
              <InterpolatingParam id="26161" interp="linr"  time="-9999999/1" value="0" leadInLength="0/1"  />
              <InterpolatingParam id="26162" interp="linr"  time="-9999999/1" value="0" leadInLength="0/1"  />
              <InterpolatingParam id="26163" interp="linr"  time="-9999999/1" value="0" leadInLength="0/1"  />
             </VectorParam>
             <VectorParam id="26164"  name="rotation">
              <InterpolatingParam id="26165" interp="linr"  time="-9999999/1" value="0" leadInLength="0/1"  />
              <InterpolatingParam id="26166" interp="linr"  time="-9999999/1" value="0" leadInLength="0/1"  />
              <InterpolatingParam id="26167" interp="linr"  time="-9999999/1" value="0" leadInLength="0/1"  />
             </VectorParam>
             <VectorParam id="26168"  name="shear">
              <InterpolatingParam id="26169" interp="linr"  time="-9999999/1" value="0" leadInLength="0/1"  />
              <InterpolatingParam id="26170" interp="linr"  time="-9999999/1" value="0" leadInLength="0/1"  />
              <InterpolatingParam id="26171" interp="linr"  time="-9999999/1" value="0" leadInLength="0/1"  />
             </VectorParam>
             <VectorParam id="26172"  name="scale">
              <InterpolatingParam id="26173" interp="linr"  time="-9999999/1" value="1" leadInLength="0/1"  />
              <InterpolatingParam id="26174" interp="linr"  time="-9999999/1" value="1" leadInLength="0/1"  />
              <InterpolatingParam id="26175" interp="linr"  time="-9999999/1" value="1" leadInLength="0/1"  />
             </VectorParam>
             <VectorParam id="26176"  name="anchor">
              <InterpolatingParam id="26177" interp="linr"  time="0/1" value="0" leadInLength="0/1"  />
              <InterpolatingParam id="26178" interp="linr"  time="0/1" value="0" leadInLength="0/1"  />
              <InterpolatingParam id="26179" interp="linr"  time="0/1" value="0" leadInLength="0/1"  />
             </VectorParam>
            </Transformer>
            <Parameters>
             <VectorParam id="26180"  name="sourceCrop">
              <InterpolatingParam id="26181" interp="linr"  time="0/1" value="0" leadInLength="0/1"  />
              <InterpolatingParam id="26182" interp="linr"  time="0/1" value="0" leadInLength="0/1"  />
              <InterpolatingParam id="26183" interp="linr"  time="0/1" value="0" leadInLength="0/1"  />
              <InterpolatingParam id="26184" interp="linr"  time="0/1" value="0" leadInLength="0/1"  />
             </VectorParam>
             <VectorParam id="26185"  name="geometryCrop">
              <InterpolatingParam id="26186" interp="linr"  time="-9999999/1" value="0" leadInLength="0/1"  />
              <InterpolatingParam id="26187" interp="linr"  time="-9999999/1" value="0" leadInLength="0/1"  />
              <InterpolatingParam id="26188" interp="linr"  time="-9999999/1" value="0" leadInLength="0/1"  />
              <InterpolatingParam id="26189" interp="linr"  time="-9999999/1" value="0" leadInLength="0/1"  />
             </VectorParam>
             <InterpolatingParam id="26190" interp="linr"  time="-9999999/1" value="1" leadInLength="0/1"  name="opacity"/>
            </Parameters>
            <Attributes>
             <Attribute id="26191" value="" name="ident"/>
            </Attributes>
            <MetaData>
             <entry key="WinSubProjectDisplayName" val=""/>
            </MetaData>
            <ExtraData>
             <Entry key="ZoomPanBin">
              <ZoomPanBin id="26192"  >
               <ZoomPanKeyframes>
                <ZoomPanKeyframe id="26193" timeRangeEnd="-9999999/1" timeRangeDuration="0/1" interpolaterName=""  />
               </ZoomPanKeyframes>
              </ZoomPanBin>
             </Entry>
            </ExtraData>
           </IMFile>
           <VMFile id="26194" start="8093" duration="21" scalar="1/1" mediaStart="15872/1" mediaDuration="21/1" trackNumber="0" src="4" >
            <Transformer>
             <VectorParam id="26195"  name="translation">
              <InterpolatingParam id="26196" interp="linr"  time="-9999999/1" value="0" leadInLength="0/1"  />
              <InterpolatingParam id="26197" interp="linr"  time="-9999999/1" value="0" leadInLength="0/1"  />
              <InterpolatingParam id="26198" interp="linr"  time="-9999999/1" value="0" leadInLength="0/1"  />
             </VectorParam>
             <VectorParam id="26199"  name="rotation">
              <InterpolatingParam id="26200" interp="linr"  time="-9999999/1" value="0" leadInLength="0/1"  />
              <InterpolatingParam id="26201" interp="linr"  time="-9999999/1" value="0" leadInLength="0/1"  />
              <InterpolatingParam id="26202" interp="linr"  time="-9999999/1" value="0" leadInLength="0/1"  />
             </VectorParam>
             <VectorParam id="26203"  name="shear">
              <InterpolatingParam id="26204" interp="linr"  time="-9999999/1" value="0" leadInLength="0/1"  />
              <InterpolatingParam id="26205" interp="linr"  time="-9999999/1" value="0" leadInLength="0/1"  />
              <InterpolatingParam id="26206" interp="linr"  time="-9999999/1" value="0" leadInLength="0/1"  />
             </VectorParam>
             <VectorParam id="26207"  name="scale">
              <InterpolatingParam id="26208" interp="linr"  time="-9999999/1" value="1" leadInLength="0/1"  />
              <InterpolatingParam id="26209" interp="linr"  time="-9999999/1" value="1" leadInLength="0/1"  />
              <InterpolatingParam id="26210" interp="linr"  time="-9999999/1" value="1" leadInLength="0/1"  />
             </VectorParam>
             <VectorParam id="26211"  name="anchor">
              <InterpolatingParam id="26212" interp="linr"  time="0/1" value="0" leadInLength="0/1"  />
              <InterpolatingParam id="26213" interp="linr"  time="0/1" value="0" leadInLength="0/1"  />
              <InterpolatingParam id="26214" interp="linr"  time="0/1" value="0" leadInLength="0/1"  />
             </VectorParam>
            </Transformer>
            <Parameters>
             <VectorParam id="26215"  name="sourceCrop">
              <InterpolatingParam id="26216" interp="linr"  time="0/1" value="0" leadInLength="0/1"  />
              <InterpolatingParam id="26217" interp="linr"  time="0/1" value="0" leadInLength="0/1"  />
              <InterpolatingParam id="26218" interp="linr"  time="0/1" value="0" leadInLength="0/1"  />
              <InterpolatingParam id="26219" interp="linr"  time="0/1" value="0" leadInLength="0/1"  />
             </VectorParam>
             <VectorParam id="26220"  name="geometryCrop">
              <InterpolatingParam id="26221" interp="linr"  time="-9999999/1" value="0" leadInLength="0/1"  />
              <InterpolatingParam id="26222" interp="linr"  time="-9999999/1" value="0" leadInLength="0/1"  />
              <InterpolatingParam id="26223" interp="linr"  time="-9999999/1" value="0" leadInLength="0/1"  />
              <InterpolatingParam id="26224" interp="linr"  time="-9999999/1" value="0" leadInLength="0/1"  />
             </VectorParam>
             <InterpolatingParam id="26225" interp="linr"  time="-9999999/1" value="1" leadInLength="0/1"  name="opacity"/>
            </Parameters>
            <Attributes>
             <Attribute id="26226" value="" name="ident"/>
            </Attributes>
            <MetaData>
             <entry key="WinSubProjectDisplayName" val=""/>
            </MetaData>
            <ExtraData>
             <Entry key="ZoomPanBin">
              <ZoomPanBin id="26227"  >
               <ZoomPanKeyframes>
                <ZoomPanKeyframe id="26228" timeRangeEnd="-9999999/1" timeRangeDuration="0/1" interpolaterName=""  />
               </ZoomPanKeyframes>
              </ZoomPanBin>
             </Entry>
            </ExtraData>
           </VMFile>
           <VMFile id="26229" start="8114" duration="615" scalar="1/1" mediaStart="15918/1" mediaDuration="615/1" trackNumber="0" src="4" >
            <Transformer>
             <VectorParam id="26230"  name="translation">
              <InterpolatingParam id="26231" interp="linr"  time="-9999999/1" value="0" leadInLength="0/1"  />
              <InterpolatingParam id="26232" interp="linr"  time="-9999999/1" value="0" leadInLength="0/1"  />
              <InterpolatingParam id="26233" interp="linr"  time="-9999999/1" value="0" leadInLength="0/1"  />
             </VectorParam>
             <VectorParam id="26234"  name="rotation">
              <InterpolatingParam id="26235" interp="linr"  time="-9999999/1" value="0" leadInLength="0/1"  />
              <InterpolatingParam id="26236" interp="linr"  time="-9999999/1" value="0" leadInLength="0/1"  />
              <InterpolatingParam id="26237" interp="linr"  time="-9999999/1" value="0" leadInLength="0/1"  />
             </VectorParam>
             <VectorParam id="26238"  name="shear">
              <InterpolatingParam id="26239" interp="linr"  time="-9999999/1" value="0" leadInLength="0/1"  />
              <InterpolatingParam id="26240" interp="linr"  time="-9999999/1" value="0" leadInLength="0/1"  />
              <InterpolatingParam id="26241" interp="linr"  time="-9999999/1" value="0" leadInLength="0/1"  />
             </VectorParam>
             <VectorParam id="26242"  name="scale">
              <InterpolatingParam id="26243" interp="linr"  time="-9999999/1" value="1" leadInLength="0/1"  />
              <InterpolatingParam id="26244" interp="linr"  time="-9999999/1" value="1" leadInLength="0/1"  />
              <InterpolatingParam id="26245" interp="linr"  time="-9999999/1" value="1" leadInLength="0/1"  />
             </VectorParam>
             <VectorParam id="26246"  name="anchor">
              <InterpolatingParam id="26247" interp="linr"  time="0/1" value="0" leadInLength="0/1"  />
              <InterpolatingParam id="26248" interp="linr"  time="0/1" value="0" leadInLength="0/1"  />
              <InterpolatingParam id="26249" interp="linr"  time="0/1" value="0" leadInLength="0/1"  />
             </VectorParam>
            </Transformer>
            <Parameters>
             <VectorParam id="26250"  name="sourceCrop">
              <InterpolatingParam id="26251" interp="linr"  time="0/1" value="0" leadInLength="0/1"  />
              <InterpolatingParam id="26252" interp="linr"  time="0/1" value="0" leadInLength="0/1"  />
              <InterpolatingParam id="26253" interp="linr"  time="0/1" value="0" leadInLength="0/1"  />
              <InterpolatingParam id="26254" interp="linr"  time="0/1" value="0" leadInLength="0/1"  />
             </VectorParam>
             <VectorParam id="26255"  name="geometryCrop">
              <InterpolatingParam id="26256" interp="linr"  time="-9999999/1" value="0" leadInLength="0/1"  />
              <InterpolatingParam id="26257" interp="linr"  time="-9999999/1" value="0" leadInLength="0/1"  />
              <InterpolatingParam id="26258" interp="linr"  time="-9999999/1" value="0" leadInLength="0/1"  />
              <InterpolatingParam id="26259" interp="linr"  time="-9999999/1" value="0" leadInLength="0/1"  />
             </VectorParam>
             <InterpolatingParam id="26260" interp="linr"  time="-9999999/1" value="1" leadInLength="0/1"  name="opacity"/>
            </Parameters>
            <Attributes>
             <Attribute id="26261" value="" name="ident"/>
            </Attributes>
            <MetaData>
             <entry key="WinSubProjectDisplayName" val=""/>
            </MetaData>
            <ExtraData>
             <Entry key="ZoomPanBin">
              <ZoomPanBin id="26262"  >
               <ZoomPanKeyframes>
                <ZoomPanKeyframe id="26263" timeRangeEnd="-9999999/1" timeRangeDuration="0/1" interpolaterName=""  />
               </ZoomPanKeyframes>
              </ZoomPanBin>
             </Entry>
            </ExtraData>
           </VMFile>
           <VMFile id="26264" start="8729" duration="323" scalar="1/1" mediaStart="16694/1" mediaDuration="323/1" trackNumber="0" src="4" >
            <Transformer>
             <VectorParam id="26265"  name="translation">
              <InterpolatingParam id="26266" interp="linr"  time="-9999999/1" value="0" leadInLength="0/1"  />
              <InterpolatingParam id="26267" interp="linr"  time="-9999999/1" value="0" leadInLength="0/1"  />
              <InterpolatingParam id="26268" interp="linr"  time="-9999999/1" value="0" leadInLength="0/1"  />
             </VectorParam>
             <VectorParam id="26269"  name="rotation">
              <InterpolatingParam id="26270" interp="linr"  time="-9999999/1" value="0" leadInLength="0/1"  />
              <InterpolatingParam id="26271" interp="linr"  time="-9999999/1" value="0" leadInLength="0/1"  />
              <InterpolatingParam id="26272" interp="linr"  time="-9999999/1" value="0" leadInLength="0/1"  />
             </VectorParam>
             <VectorParam id="26273"  name="shear">
              <InterpolatingParam id="26274" interp="linr"  time="-9999999/1" value="0" leadInLength="0/1"  />
              <InterpolatingParam id="26275" interp="linr"  time="-9999999/1" value="0" leadInLength="0/1"  />
              <InterpolatingParam id="26276" interp="linr"  time="-9999999/1" value="0" leadInLength="0/1"  />
             </VectorParam>
             <VectorParam id="26277"  name="scale">
              <InterpolatingParam id="26278" interp="linr"  time="-9999999/1" value="1" leadInLength="0/1"  />
              <InterpolatingParam id="26279" interp="linr"  time="-9999999/1" value="1" leadInLength="0/1"  />
              <InterpolatingParam id="26280" interp="linr"  time="-9999999/1" value="1" leadInLength="0/1"  />
             </VectorParam>
             <VectorParam id="26281"  name="anchor">
              <InterpolatingParam id="26282" interp="linr"  time="0/1" value="0" leadInLength="0/1"  />
              <InterpolatingParam id="26283" interp="linr"  time="0/1" value="0" leadInLength="0/1"  />
              <InterpolatingParam id="26284" interp="linr"  time="0/1" value="0" leadInLength="0/1"  />
             </VectorParam>
            </Transformer>
            <Parameters>
             <VectorParam id="26285"  name="sourceCrop">
              <InterpolatingParam id="26286" interp="linr"  time="0/1" value="0" leadInLength="0/1"  />
              <InterpolatingParam id="26287" interp="linr"  time="0/1" value="0" leadInLength="0/1"  />
              <InterpolatingParam id="26288" interp="linr"  time="0/1" value="0" leadInLength="0/1"  />
              <InterpolatingParam id="26289" interp="linr"  time="0/1" value="0" leadInLength="0/1"  />
             </VectorParam>
             <VectorParam id="26290"  name="geometryCrop">
              <InterpolatingParam id="26291" interp="linr"  time="-9999999/1" value="0" leadInLength="0/1"  />
              <InterpolatingParam id="26292" interp="linr"  time="-9999999/1" value="0" leadInLength="0/1"  />
              <InterpolatingParam id="26293" interp="linr"  time="-9999999/1" value="0" leadInLength="0/1"  />
              <InterpolatingParam id="26294" interp="linr"  time="-9999999/1" value="0" leadInLength="0/1"  />
             </VectorParam>
             <InterpolatingParam id="26295" interp="linr"  time="-9999999/1" value="1" leadInLength="0/1"  name="opacity"/>
            </Parameters>
            <Attributes>
             <Attribute id="26296" value="" name="ident"/>
            </Attributes>
            <MetaData>
             <entry key="WinSubProjectDisplayName" val=""/>
            </MetaData>
            <ExtraData>
             <Entry key="ZoomPanBin">
              <ZoomPanBin id="26297"  >
               <ZoomPanKeyframes>
                <ZoomPanKeyframe id="26298" timeRangeEnd="-9999999/1" timeRangeDuration="0/1" interpolaterName=""  />
               </ZoomPanKeyframes>
              </ZoomPanBin>
             </Entry>
            </ExtraData>
           </VMFile>
           <VMFile id="26299" start="9052" duration="223" scalar="1/1" mediaStart="17164/1" mediaDuration="223/1" trackNumber="0" src="4" >
            <Transformer>
             <VectorParam id="26300"  name="translation">
              <InterpolatingParam id="26301" interp="linr"  time="-9999999/1" value="0" leadInLength="0/1"  />
              <InterpolatingParam id="26302" interp="linr"  time="-9999999/1" value="0" leadInLength="0/1"  />
              <InterpolatingParam id="26303" interp="linr"  time="-9999999/1" value="0" leadInLength="0/1"  />
             </VectorParam>
             <VectorParam id="26304"  name="rotation">
              <InterpolatingParam id="26305" interp="linr"  time="-9999999/1" value="0" leadInLength="0/1"  />
              <InterpolatingParam id="26306" interp="linr"  time="-9999999/1" value="0" leadInLength="0/1"  />
              <InterpolatingParam id="26307" interp="linr"  time="-9999999/1" value="0" leadInLength="0/1"  />
             </VectorParam>
             <VectorParam id="26308"  name="shear">
              <InterpolatingParam id="26309" interp="linr"  time="-9999999/1" value="0" leadInLength="0/1"  />
              <InterpolatingParam id="26310" interp="linr"  time="-9999999/1" value="0" leadInLength="0/1"  />
              <InterpolatingParam id="26311" interp="linr"  time="-9999999/1" value="0" leadInLength="0/1"  />
             </VectorParam>
             <VectorParam id="26312"  name="scale">
              <InterpolatingParam id="26313" interp="linr"  time="-9999999/1" value="1" leadInLength="0/1"  />
              <InterpolatingParam id="26314" interp="linr"  time="-9999999/1" value="1" leadInLength="0/1"  />
              <InterpolatingParam id="26315" interp="linr"  time="-9999999/1" value="1" leadInLength="0/1"  />
             </VectorParam>
             <VectorParam id="26316"  name="anchor">
              <InterpolatingParam id="26317" interp="linr"  time="0/1" value="0" leadInLength="0/1"  />
              <InterpolatingParam id="26318" interp="linr"  time="0/1" value="0" leadInLength="0/1"  />
              <InterpolatingParam id="26319" interp="linr"  time="0/1" value="0" leadInLength="0/1"  />
             </VectorParam>
            </Transformer>
            <Parameters>
             <VectorParam id="26320"  name="sourceCrop">
              <InterpolatingParam id="26321" interp="linr"  time="0/1" value="0" leadInLength="0/1"  />
              <InterpolatingParam id="26322" interp="linr"  time="0/1" value="0" leadInLength="0/1"  />
              <InterpolatingParam id="26323" interp="linr"  time="0/1" value="0" leadInLength="0/1"  />
              <InterpolatingParam id="26324" interp="linr"  time="0/1" value="0" leadInLength="0/1"  />
             </VectorParam>
             <VectorParam id="26325"  name="geometryCrop">
              <InterpolatingParam id="26326" interp="linr"  time="-9999999/1" value="0" leadInLength="0/1"  />
              <InterpolatingParam id="26327" interp="linr"  time="-9999999/1" value="0" leadInLength="0/1"  />
              <InterpolatingParam id="26328" interp="linr"  time="-9999999/1" value="0" leadInLength="0/1"  />
              <InterpolatingParam id="26329" interp="linr"  time="-9999999/1" value="0" leadInLength="0/1"  />
             </VectorParam>
             <InterpolatingParam id="26330" interp="linr"  time="-9999999/1" value="1" leadInLength="0/1"  name="opacity"/>
            </Parameters>
            <Attributes>
             <Attribute id="26331" value="" name="ident"/>
            </Attributes>
            <MetaData>
             <entry key="WinSubProjectDisplayName" val=""/>
            </MetaData>
            <ExtraData>
             <Entry key="ZoomPanBin">
              <ZoomPanBin id="26332"  >
               <ZoomPanKeyframes>
                <ZoomPanKeyframe id="26333" timeRangeEnd="-9999999/1" timeRangeDuration="0/1" interpolaterName=""  />
               </ZoomPanKeyframes>
              </ZoomPanBin>
             </Entry>
            </ExtraData>
           </VMFile>
           <VMFile id="26334" start="9275" duration="323" scalar="1/1" mediaStart="26742/1" mediaDuration="323/1" trackNumber="0" src="4" >
            <Transformer>
             <VectorParam id="26335"  name="translation">
              <InterpolatingParam id="26336" interp="linr"  time="-9999999/1" value="0" leadInLength="0/1"  />
              <InterpolatingParam id="26337" interp="linr"  time="-9999999/1" value="0" leadInLength="0/1"  />
              <InterpolatingParam id="26338" interp="linr"  time="-9999999/1" value="0" leadInLength="0/1"  />
             </VectorParam>
             <VectorParam id="26339"  name="rotation">
              <InterpolatingParam id="26340" interp="linr"  time="-9999999/1" value="0" leadInLength="0/1"  />
              <InterpolatingParam id="26341" interp="linr"  time="-9999999/1" value="0" leadInLength="0/1"  />
              <InterpolatingParam id="26342" interp="linr"  time="-9999999/1" value="0" leadInLength="0/1"  />
             </VectorParam>
             <VectorParam id="26343"  name="shear">
              <InterpolatingParam id="26344" interp="linr"  time="-9999999/1" value="0" leadInLength="0/1"  />
              <InterpolatingParam id="26345" interp="linr"  time="-9999999/1" value="0" leadInLength="0/1"  />
              <InterpolatingParam id="26346" interp="linr"  time="-9999999/1" value="0" leadInLength="0/1"  />
             </VectorParam>
             <VectorParam id="26347"  name="scale">
              <InterpolatingParam id="26348" interp="linr"  time="-9999999/1" value="1" leadInLength="0/1"  />
              <InterpolatingParam id="26349" interp="linr"  time="-9999999/1" value="1" leadInLength="0/1"  />
              <InterpolatingParam id="26350" interp="linr"  time="-9999999/1" value="1" leadInLength="0/1"  />
             </VectorParam>
             <VectorParam id="26351"  name="anchor">
              <InterpolatingParam id="26352" interp="linr"  time="0/1" value="0" leadInLength="0/1"  />
              <InterpolatingParam id="26353" interp="linr"  time="0/1" value="0" leadInLength="0/1"  />
              <InterpolatingParam id="26354" interp="linr"  time="0/1" value="0" leadInLength="0/1"  />
             </VectorParam>
            </Transformer>
            <Parameters>
             <VectorParam id="26355"  name="sourceCrop">
              <InterpolatingParam id="26356" interp="linr"  time="0/1" value="0" leadInLength="0/1"  />
              <InterpolatingParam id="26357" interp="linr"  time="0/1" value="0" leadInLength="0/1"  />
              <InterpolatingParam id="26358" interp="linr"  time="0/1" value="0" leadInLength="0/1"  />
              <InterpolatingParam id="26359" interp="linr"  time="0/1" value="0" leadInLength="0/1"  />
             </VectorParam>
             <VectorParam id="26360"  name="geometryCrop">
              <InterpolatingParam id="26361" interp="linr"  time="-9999999/1" value="0" leadInLength="0/1"  />
              <InterpolatingParam id="26362" interp="linr"  time="-9999999/1" value="0" leadInLength="0/1"  />
              <InterpolatingParam id="26363" interp="linr"  time="-9999999/1" value="0" leadInLength="0/1"  />
              <InterpolatingParam id="26364" interp="linr"  time="-9999999/1" value="0" leadInLength="0/1"  />
             </VectorParam>
             <InterpolatingParam id="26365" interp="linr"  time="-9999999/1" value="1" leadInLength="0/1"  name="opacity"/>
            </Parameters>
            <Attributes>
             <Attribute id="26366" value="" name="ident"/>
            </Attributes>
            <MetaData>
             <entry key="WinSubProjectDisplayName" val=""/>
            </MetaData>
            <ExtraData>
             <Entry key="ZoomPanBin">
              <ZoomPanBin id="26367"  >
               <ZoomPanKeyframes>
                <ZoomPanKeyframe id="26368" timeRangeEnd="-9999999/1" timeRangeDuration="0/1" interpolaterName=""  />
               </ZoomPanKeyframes>
              </ZoomPanBin>
             </Entry>
            </ExtraData>
           </VMFile>
           <VMFile id="26369" start="9598" duration="259" scalar="1/1" mediaStart="27825/1" mediaDuration="259/1" trackNumber="0" src="4" >
            <Transformer>
             <VectorParam id="26370"  name="translation">
              <InterpolatingParam id="26371" interp="linr"  time="-9999999/1" value="0" leadInLength="0/1"  />
              <InterpolatingParam id="26372" interp="linr"  time="-9999999/1" value="0" leadInLength="0/1"  />
              <InterpolatingParam id="26373" interp="linr"  time="-9999999/1" value="0" leadInLength="0/1"  />
             </VectorParam>
             <VectorParam id="26374"  name="rotation">
              <InterpolatingParam id="26375" interp="linr"  time="-9999999/1" value="0" leadInLength="0/1"  />
              <InterpolatingParam id="26376" interp="linr"  time="-9999999/1" value="0" leadInLength="0/1"  />
              <InterpolatingParam id="26377" interp="linr"  time="-9999999/1" value="0" leadInLength="0/1"  />
             </VectorParam>
             <VectorParam id="26378"  name="shear">
              <InterpolatingParam id="26379" interp="linr"  time="-9999999/1" value="0" leadInLength="0/1"  />
              <InterpolatingParam id="26380" interp="linr"  time="-9999999/1" value="0" leadInLength="0/1"  />
              <InterpolatingParam id="26381" interp="linr"  time="-9999999/1" value="0" leadInLength="0/1"  />
             </VectorParam>
             <VectorParam id="26382"  name="scale">
              <InterpolatingParam id="26383" interp="linr"  time="-9999999/1" value="1" leadInLength="0/1"  />
              <InterpolatingParam id="26384" interp="linr"  time="-9999999/1" value="1" leadInLength="0/1"  />
              <InterpolatingParam id="26385" interp="linr"  time="-9999999/1" value="1" leadInLength="0/1"  />
             </VectorParam>
             <VectorParam id="26386"  name="anchor">
              <InterpolatingParam id="26387" interp="linr"  time="0/1" value="0" leadInLength="0/1"  />
              <InterpolatingParam id="26388" interp="linr"  time="0/1" value="0" leadInLength="0/1"  />
              <InterpolatingParam id="26389" interp="linr"  time="0/1" value="0" leadInLength="0/1"  />
             </VectorParam>
            </Transformer>
            <Parameters>
             <VectorParam id="26390"  name="sourceCrop">
              <InterpolatingParam id="26391" interp="linr"  time="0/1" value="0" leadInLength="0/1"  />
              <InterpolatingParam id="26392" interp="linr"  time="0/1" value="0" leadInLength="0/1"  />
              <InterpolatingParam id="26393" interp="linr"  time="0/1" value="0" leadInLength="0/1"  />
              <InterpolatingParam id="26394" interp="linr"  time="0/1" value="0" leadInLength="0/1"  />
             </VectorParam>
             <VectorParam id="26395"  name="geometryCrop">
              <InterpolatingParam id="26396" interp="linr"  time="-9999999/1" value="0" leadInLength="0/1"  />
              <InterpolatingParam id="26397" interp="linr"  time="-9999999/1" value="0" leadInLength="0/1"  />
              <InterpolatingParam id="26398" interp="linr"  time="-9999999/1" value="0" leadInLength="0/1"  />
              <InterpolatingParam id="26399" interp="linr"  time="-9999999/1" value="0" leadInLength="0/1"  />
             </VectorParam>
             <InterpolatingParam id="26400" interp="linr"  time="-9999999/1" value="1" leadInLength="0/1"  name="opacity"/>
            </Parameters>
            <Attributes>
             <Attribute id="26401" value="" name="ident"/>
            </Attributes>
            <MetaData>
             <entry key="WinSubProjectDisplayName" val=""/>
            </MetaData>
            <ExtraData>
             <Entry key="ZoomPanBin">
              <ZoomPanBin id="26402"  >
               <ZoomPanKeyframes>
                <ZoomPanKeyframe id="26403" timeRangeEnd="-9999999/1" timeRangeDuration="0/1" interpolaterName=""  />
               </ZoomPanKeyframes>
              </ZoomPanBin>
             </Entry>
            </ExtraData>
           </VMFile>
           <VMFile id="26404" start="9857" duration="157" scalar="1/1" mediaStart="28287/1" mediaDuration="157/1" trackNumber="0" src="4" >
            <Transformer>
             <VectorParam id="26405"  name="translation">
              <InterpolatingParam id="26406" interp="linr"  time="-9999999/1" value="0" leadInLength="0/1"  />
              <InterpolatingParam id="26407" interp="linr"  time="-9999999/1" value="0" leadInLength="0/1"  />
              <InterpolatingParam id="26408" interp="linr"  time="-9999999/1" value="0" leadInLength="0/1"  />
             </VectorParam>
             <VectorParam id="26409"  name="rotation">
              <InterpolatingParam id="26410" interp="linr"  time="-9999999/1" value="0" leadInLength="0/1"  />
              <InterpolatingParam id="26411" interp="linr"  time="-9999999/1" value="0" leadInLength="0/1"  />
              <InterpolatingParam id="26412" interp="linr"  time="-9999999/1" value="0" leadInLength="0/1"  />
             </VectorParam>
             <VectorParam id="26413"  name="shear">
              <InterpolatingParam id="26414" interp="linr"  time="-9999999/1" value="0" leadInLength="0/1"  />
              <InterpolatingParam id="26415" interp="linr"  time="-9999999/1" value="0" leadInLength="0/1"  />
              <InterpolatingParam id="26416" interp="linr"  time="-9999999/1" value="0" leadInLength="0/1"  />
             </VectorParam>
             <VectorParam id="26417"  name="scale">
              <InterpolatingParam id="26418" interp="linr"  time="-9999999/1" value="1" leadInLength="0/1"  />
              <InterpolatingParam id="26419" interp="linr"  time="-9999999/1" value="1" leadInLength="0/1"  />
              <InterpolatingParam id="26420" interp="linr"  time="-9999999/1" value="1" leadInLength="0/1"  />
             </VectorParam>
             <VectorParam id="26421"  name="anchor">
              <InterpolatingParam id="26422" interp="linr"  time="0/1" value="0" leadInLength="0/1"  />
              <InterpolatingParam id="26423" interp="linr"  time="0/1" value="0" leadInLength="0/1"  />
              <InterpolatingParam id="26424" interp="linr"  time="0/1" value="0" leadInLength="0/1"  />
             </VectorParam>
            </Transformer>
            <Parameters>
             <VectorParam id="26425"  name="sourceCrop">
              <InterpolatingParam id="26426" interp="linr"  time="0/1" value="0" leadInLength="0/1"  />
              <InterpolatingParam id="26427" interp="linr"  time="0/1" value="0" leadInLength="0/1"  />
              <InterpolatingParam id="26428" interp="linr"  time="0/1" value="0" leadInLength="0/1"  />
              <InterpolatingParam id="26429" interp="linr"  time="0/1" value="0" leadInLength="0/1"  />
             </VectorParam>
             <VectorParam id="26430"  name="geometryCrop">
              <InterpolatingParam id="26431" interp="linr"  time="-9999999/1" value="0" leadInLength="0/1"  />
              <InterpolatingParam id="26432" interp="linr"  time="-9999999/1" value="0" leadInLength="0/1"  />
              <InterpolatingParam id="26433" interp="linr"  time="-9999999/1" value="0" leadInLength="0/1"  />
              <InterpolatingParam id="26434" interp="linr"  time="-9999999/1" value="0" leadInLength="0/1"  />
             </VectorParam>
             <InterpolatingParam id="26435" interp="linr"  time="-9999999/1" value="1" leadInLength="0/1"  name="opacity"/>
            </Parameters>
            <Attributes>
             <Attribute id="26436" value="" name="ident"/>
            </Attributes>
            <MetaData>
             <entry key="WinSubProjectDisplayName" val=""/>
            </MetaData>
            <ExtraData>
             <Entry key="ZoomPanBin">
              <ZoomPanBin id="26437"  >
               <ZoomPanKeyframes>
                <ZoomPanKeyframe id="26438" timeRangeEnd="-9999999/1" timeRangeDuration="0/1" interpolaterName=""  />
               </ZoomPanKeyframes>
              </ZoomPanBin>
             </Entry>
            </ExtraData>
           </VMFile>
           <VMFile id="26439" start="10014" duration="290" scalar="1/1" mediaStart="28689/1" mediaDuration="290/1" trackNumber="0" src="4" >
            <Transformer>
             <VectorParam id="26440"  name="translation">
              <InterpolatingParam id="26441" interp="linr"  time="-9999999/1" value="0" leadInLength="0/1"  />
              <InterpolatingParam id="26442" interp="linr"  time="-9999999/1" value="0" leadInLength="0/1"  />
              <InterpolatingParam id="26443" interp="linr"  time="-9999999/1" value="0" leadInLength="0/1"  />
             </VectorParam>
             <VectorParam id="26444"  name="rotation">
              <InterpolatingParam id="26445" interp="linr"  time="-9999999/1" value="0" leadInLength="0/1"  />
              <InterpolatingParam id="26446" interp="linr"  time="-9999999/1" value="0" leadInLength="0/1"  />
              <InterpolatingParam id="26447" interp="linr"  time="-9999999/1" value="0" leadInLength="0/1"  />
             </VectorParam>
             <VectorParam id="26448"  name="shear">
              <InterpolatingParam id="26449" interp="linr"  time="-9999999/1" value="0" leadInLength="0/1"  />
              <InterpolatingParam id="26450" interp="linr"  time="-9999999/1" value="0" leadInLength="0/1"  />
              <InterpolatingParam id="26451" interp="linr"  time="-9999999/1" value="0" leadInLength="0/1"  />
             </VectorParam>
             <VectorParam id="26452"  name="scale">
              <InterpolatingParam id="26453" interp="linr"  time="-9999999/1" value="1" leadInLength="0/1"  />
              <InterpolatingParam id="26454" interp="linr"  time="-9999999/1" value="1" leadInLength="0/1"  />
              <InterpolatingParam id="26455" interp="linr"  time="-9999999/1" value="1" leadInLength="0/1"  />
             </VectorParam>
             <VectorParam id="26456"  name="anchor">
              <InterpolatingParam id="26457" interp="linr"  time="0/1" value="0" leadInLength="0/1"  />
              <InterpolatingParam id="26458" interp="linr"  time="0/1" value="0" leadInLength="0/1"  />
              <InterpolatingParam id="26459" interp="linr"  time="0/1" value="0" leadInLength="0/1"  />
             </VectorParam>
            </Transformer>
            <Parameters>
             <VectorParam id="26460"  name="sourceCrop">
              <InterpolatingParam id="26461" interp="linr"  time="0/1" value="0" leadInLength="0/1"  />
              <InterpolatingParam id="26462" interp="linr"  time="0/1" value="0" leadInLength="0/1"  />
              <InterpolatingParam id="26463" interp="linr"  time="0/1" value="0" leadInLength="0/1"  />
              <InterpolatingParam id="26464" interp="linr"  time="0/1" value="0" leadInLength="0/1"  />
             </VectorParam>
             <VectorParam id="26465"  name="geometryCrop">
              <InterpolatingParam id="26466" interp="linr"  time="-9999999/1" value="0" leadInLength="0/1"  />
              <InterpolatingParam id="26467" interp="linr"  time="-9999999/1" value="0" leadInLength="0/1"  />
              <InterpolatingParam id="26468" interp="linr"  time="-9999999/1" value="0" leadInLength="0/1"  />
              <InterpolatingParam id="26469" interp="linr"  time="-9999999/1" value="0" leadInLength="0/1"  />
             </VectorParam>
             <InterpolatingParam id="26470" interp="linr"  time="-9999999/1" value="1" leadInLength="0/1"  name="opacity"/>
            </Parameters>
            <Attributes>
             <Attribute id="26471" value="" name="ident"/>
            </Attributes>
            <MetaData>
             <entry key="WinSubProjectDisplayName" val=""/>
            </MetaData>
            <ExtraData>
             <Entry key="ZoomPanBin">
              <ZoomPanBin id="26472"  >
               <ZoomPanKeyframes>
                <ZoomPanKeyframe id="26473" timeRangeEnd="-9999999/1" timeRangeDuration="0/1" interpolaterName=""  />
               </ZoomPanKeyframes>
              </ZoomPanBin>
             </Entry>
            </ExtraData>
           </VMFile>
           <IMFile id="26474" start="10304" duration="60" scalar="1/1" mediaStart="29056/1" mediaDuration="1/1" trackNumber="0" src="4" trimStartSum="0/1" >
            <Transformer>
             <VectorParam id="26475"  name="translation">
              <InterpolatingParam id="26476" interp="linr"  time="-9999999/1" value="0" leadInLength="0/1"  />
              <InterpolatingParam id="26477" interp="linr"  time="-9999999/1" value="0" leadInLength="0/1"  />
              <InterpolatingParam id="26478" interp="linr"  time="-9999999/1" value="0" leadInLength="0/1"  />
             </VectorParam>
             <VectorParam id="26479"  name="rotation">
              <InterpolatingParam id="26480" interp="linr"  time="-9999999/1" value="0" leadInLength="0/1"  />
              <InterpolatingParam id="26481" interp="linr"  time="-9999999/1" value="0" leadInLength="0/1"  />
              <InterpolatingParam id="26482" interp="linr"  time="-9999999/1" value="0" leadInLength="0/1"  />
             </VectorParam>
             <VectorParam id="26483"  name="shear">
              <InterpolatingParam id="26484" interp="linr"  time="-9999999/1" value="0" leadInLength="0/1"  />
              <InterpolatingParam id="26485" interp="linr"  time="-9999999/1" value="0" leadInLength="0/1"  />
              <InterpolatingParam id="26486" interp="linr"  time="-9999999/1" value="0" leadInLength="0/1"  />
             </VectorParam>
             <VectorParam id="26487"  name="scale">
              <InterpolatingParam id="26488" interp="linr"  time="-9999999/1" value="1" leadInLength="0/1"  />
              <InterpolatingParam id="26489" interp="linr"  time="-9999999/1" value="1" leadInLength="0/1"  />
              <InterpolatingParam id="26490" interp="linr"  time="-9999999/1" value="1" leadInLength="0/1"  />
             </VectorParam>
             <VectorParam id="26491"  name="anchor">
              <InterpolatingParam id="26492" interp="linr"  time="0/1" value="0" leadInLength="0/1"  />
              <InterpolatingParam id="26493" interp="linr"  time="0/1" value="0" leadInLength="0/1"  />
              <InterpolatingParam id="26494" interp="linr"  time="0/1" value="0" leadInLength="0/1"  />
             </VectorParam>
            </Transformer>
            <Parameters>
             <VectorParam id="26495"  name="sourceCrop">
              <InterpolatingParam id="26496" interp="linr"  time="0/1" value="0" leadInLength="0/1"  />
              <InterpolatingParam id="26497" interp="linr"  time="0/1" value="0" leadInLength="0/1"  />
              <InterpolatingParam id="26498" interp="linr"  time="0/1" value="0" leadInLength="0/1"  />
              <InterpolatingParam id="26499" interp="linr"  time="0/1" value="0" leadInLength="0/1"  />
             </VectorParam>
             <VectorParam id="26500"  name="geometryCrop">
              <InterpolatingParam id="26501" interp="linr"  time="-9999999/1" value="0" leadInLength="0/1"  />
              <InterpolatingParam id="26502" interp="linr"  time="-9999999/1" value="0" leadInLength="0/1"  />
              <InterpolatingParam id="26503" interp="linr"  time="-9999999/1" value="0" leadInLength="0/1"  />
              <InterpolatingParam id="26504" interp="linr"  time="-9999999/1" value="0" leadInLength="0/1"  />
             </VectorParam>
             <InterpolatingParam id="26505" interp="linr"  time="-9999999/1" value="1" leadInLength="0/1"  name="opacity"/>
            </Parameters>
            <Attributes>
             <Attribute id="26506" value="" name="ident"/>
            </Attributes>
            <MetaData>
             <entry key="WinSubProjectDisplayName" val=""/>
            </MetaData>
            <ExtraData>
             <Entry key="ZoomPanBin">
              <ZoomPanBin id="26507"  >
               <ZoomPanKeyframes>
                <ZoomPanKeyframe id="26508" timeRangeEnd="-9999999/1" timeRangeDuration="0/1" interpolaterName=""  />
               </ZoomPanKeyframes>
              </ZoomPanBin>
             </Entry>
            </ExtraData>
           </IMFile>
           <VMFile id="26509" start="10364" duration="18" scalar="1/1" mediaStart="29056/1" mediaDuration="18/1" trackNumber="0" src="4" >
            <Transformer>
             <VectorParam id="26510"  name="translation">
              <InterpolatingParam id="26511" interp="linr"  time="-9999999/1" value="0" leadInLength="0/1"  />
              <InterpolatingParam id="26512" interp="linr"  time="-9999999/1" value="0" leadInLength="0/1"  />
              <InterpolatingParam id="26513" interp="linr"  time="-9999999/1" value="0" leadInLength="0/1"  />
             </VectorParam>
             <VectorParam id="26514"  name="rotation">
              <InterpolatingParam id="26515" interp="linr"  time="-9999999/1" value="0" leadInLength="0/1"  />
              <InterpolatingParam id="26516" interp="linr"  time="-9999999/1" value="0" leadInLength="0/1"  />
              <InterpolatingParam id="26517" interp="linr"  time="-9999999/1" value="0" leadInLength="0/1"  />
             </VectorParam>
             <VectorParam id="26518"  name="shear">
              <InterpolatingParam id="26519" interp="linr"  time="-9999999/1" value="0" leadInLength="0/1"  />
              <InterpolatingParam id="26520" interp="linr"  time="-9999999/1" value="0" leadInLength="0/1"  />
              <InterpolatingParam id="26521" interp="linr"  time="-9999999/1" value="0" leadInLength="0/1"  />
             </VectorParam>
             <VectorParam id="26522"  name="scale">
              <InterpolatingParam id="26523" interp="linr"  time="-9999999/1" value="1" leadInLength="0/1"  />
              <InterpolatingParam id="26524" interp="linr"  time="-9999999/1" value="1" leadInLength="0/1"  />
              <InterpolatingParam id="26525" interp="linr"  time="-9999999/1" value="1" leadInLength="0/1"  />
             </VectorParam>
             <VectorParam id="26526"  name="anchor">
              <InterpolatingParam id="26527" interp="linr"  time="0/1" value="0" leadInLength="0/1"  />
              <InterpolatingParam id="26528" interp="linr"  time="0/1" value="0" leadInLength="0/1"  />
              <InterpolatingParam id="26529" interp="linr"  time="0/1" value="0" leadInLength="0/1"  />
             </VectorParam>
            </Transformer>
            <Parameters>
             <VectorParam id="26530"  name="sourceCrop">
              <InterpolatingParam id="26531" interp="linr"  time="0/1" value="0" leadInLength="0/1"  />
              <InterpolatingParam id="26532" interp="linr"  time="0/1" value="0" leadInLength="0/1"  />
              <InterpolatingParam id="26533" interp="linr"  time="0/1" value="0" leadInLength="0/1"  />
              <InterpolatingParam id="26534" interp="linr"  time="0/1" value="0" leadInLength="0/1"  />
             </VectorParam>
             <VectorParam id="26535"  name="geometryCrop">
              <InterpolatingParam id="26536" interp="linr"  time="-9999999/1" value="0" leadInLength="0/1"  />
              <InterpolatingParam id="26537" interp="linr"  time="-9999999/1" value="0" leadInLength="0/1"  />
              <InterpolatingParam id="26538" interp="linr"  time="-9999999/1" value="0" leadInLength="0/1"  />
              <InterpolatingParam id="26539" interp="linr"  time="-9999999/1" value="0" leadInLength="0/1"  />
             </VectorParam>
             <InterpolatingParam id="26540" interp="linr"  time="-9999999/1" value="1" leadInLength="0/1"  name="opacity"/>
            </Parameters>
            <Attributes>
             <Attribute id="26541" value="" name="ident"/>
            </Attributes>
            <MetaData>
             <entry key="WinSubProjectDisplayName" val=""/>
            </MetaData>
            <ExtraData>
             <Entry key="ZoomPanBin">
              <ZoomPanBin id="26542"  >
               <ZoomPanKeyframes>
                <ZoomPanKeyframe id="26543" timeRangeEnd="-9999999/1" timeRangeDuration="0/1" interpolaterName=""  />
               </ZoomPanKeyframes>
              </ZoomPanBin>
             </Entry>
            </ExtraData>
           </VMFile>
           <IMFile id="26544" start="10382" duration="30" scalar="1/1" mediaStart="29074/1" mediaDuration="1/1" trackNumber="0" src="4" trimStartSum="0/1" >
            <Transformer>
             <VectorParam id="26545"  name="translation">
              <InterpolatingParam id="26546" interp="linr"  time="-9999999/1" value="0" leadInLength="0/1"  />
              <InterpolatingParam id="26547" interp="linr"  time="-9999999/1" value="0" leadInLength="0/1"  />
              <InterpolatingParam id="26548" interp="linr"  time="-9999999/1" value="0" leadInLength="0/1"  />
             </VectorParam>
             <VectorParam id="26549"  name="rotation">
              <InterpolatingParam id="26550" interp="linr"  time="-9999999/1" value="0" leadInLength="0/1"  />
              <InterpolatingParam id="26551" interp="linr"  time="-9999999/1" value="0" leadInLength="0/1"  />
              <InterpolatingParam id="26552" interp="linr"  time="-9999999/1" value="0" leadInLength="0/1"  />
             </VectorParam>
             <VectorParam id="26553"  name="shear">
              <InterpolatingParam id="26554" interp="linr"  time="-9999999/1" value="0" leadInLength="0/1"  />
              <InterpolatingParam id="26555" interp="linr"  time="-9999999/1" value="0" leadInLength="0/1"  />
              <InterpolatingParam id="26556" interp="linr"  time="-9999999/1" value="0" leadInLength="0/1"  />
             </VectorParam>
             <VectorParam id="26557"  name="scale">
              <InterpolatingParam id="26558" interp="linr"  time="-9999999/1" value="1" leadInLength="0/1"  />
              <InterpolatingParam id="26559" interp="linr"  time="-9999999/1" value="1" leadInLength="0/1"  />
              <InterpolatingParam id="26560" interp="linr"  time="-9999999/1" value="1" leadInLength="0/1"  />
             </VectorParam>
             <VectorParam id="26561"  name="anchor">
              <InterpolatingParam id="26562" interp="linr"  time="0/1" value="0" leadInLength="0/1"  />
              <InterpolatingParam id="26563" interp="linr"  time="0/1" value="0" leadInLength="0/1"  />
              <InterpolatingParam id="26564" interp="linr"  time="0/1" value="0" leadInLength="0/1"  />
             </VectorParam>
            </Transformer>
            <Parameters>
             <VectorParam id="26565"  name="sourceCrop">
              <InterpolatingParam id="26566" interp="linr"  time="0/1" value="0" leadInLength="0/1"  />
              <InterpolatingParam id="26567" interp="linr"  time="0/1" value="0" leadInLength="0/1"  />
              <InterpolatingParam id="26568" interp="linr"  time="0/1" value="0" leadInLength="0/1"  />
              <InterpolatingParam id="26569" interp="linr"  time="0/1" value="0" leadInLength="0/1"  />
             </VectorParam>
             <VectorParam id="26570"  name="geometryCrop">
              <InterpolatingParam id="26571" interp="linr"  time="-9999999/1" value="0" leadInLength="0/1"  />
              <InterpolatingParam id="26572" interp="linr"  time="-9999999/1" value="0" leadInLength="0/1"  />
              <InterpolatingParam id="26573" interp="linr"  time="-9999999/1" value="0" leadInLength="0/1"  />
              <InterpolatingParam id="26574" interp="linr"  time="-9999999/1" value="0" leadInLength="0/1"  />
             </VectorParam>
             <InterpolatingParam id="26575" interp="linr"  time="-9999999/1" value="1" leadInLength="0/1"  name="opacity"/>
            </Parameters>
            <Attributes>
             <Attribute id="26576" value="" name="ident"/>
            </Attributes>
            <MetaData>
             <entry key="WinSubProjectDisplayName" val=""/>
            </MetaData>
            <ExtraData>
             <Entry key="ZoomPanBin">
              <ZoomPanBin id="26577"  >
               <ZoomPanKeyframes>
                <ZoomPanKeyframe id="26578" timeRangeEnd="-9999999/1" timeRangeDuration="0/1" interpolaterName=""  />
               </ZoomPanKeyframes>
              </ZoomPanBin>
             </Entry>
            </ExtraData>
           </IMFile>
           <VMFile id="26579" start="10412" duration="1" scalar="1/1" mediaStart="29074/1" mediaDuration="1/1" trackNumber="0" src="4" >
            <Transformer>
             <VectorParam id="26580"  name="translation">
              <InterpolatingParam id="26581" interp="linr"  time="-9999999/1" value="0" leadInLength="0/1"  />
              <InterpolatingParam id="26582" interp="linr"  time="-9999999/1" value="0" leadInLength="0/1"  />
              <InterpolatingParam id="26583" interp="linr"  time="-9999999/1" value="0" leadInLength="0/1"  />
             </VectorParam>
             <VectorParam id="26584"  name="rotation">
              <InterpolatingParam id="26585" interp="linr"  time="-9999999/1" value="0" leadInLength="0/1"  />
              <InterpolatingParam id="26586" interp="linr"  time="-9999999/1" value="0" leadInLength="0/1"  />
              <InterpolatingParam id="26587" interp="linr"  time="-9999999/1" value="0" leadInLength="0/1"  />
             </VectorParam>
             <VectorParam id="26588"  name="shear">
              <InterpolatingParam id="26589" interp="linr"  time="-9999999/1" value="0" leadInLength="0/1"  />
              <InterpolatingParam id="26590" interp="linr"  time="-9999999/1" value="0" leadInLength="0/1"  />
              <InterpolatingParam id="26591" interp="linr"  time="-9999999/1" value="0" leadInLength="0/1"  />
             </VectorParam>
             <VectorParam id="26592"  name="scale">
              <InterpolatingParam id="26593" interp="linr"  time="-9999999/1" value="1" leadInLength="0/1"  />
              <InterpolatingParam id="26594" interp="linr"  time="-9999999/1" value="1" leadInLength="0/1"  />
              <InterpolatingParam id="26595" interp="linr"  time="-9999999/1" value="1" leadInLength="0/1"  />
             </VectorParam>
             <VectorParam id="26596"  name="anchor">
              <InterpolatingParam id="26597" interp="linr"  time="0/1" value="0" leadInLength="0/1"  />
              <InterpolatingParam id="26598" interp="linr"  time="0/1" value="0" leadInLength="0/1"  />
              <InterpolatingParam id="26599" interp="linr"  time="0/1" value="0" leadInLength="0/1"  />
             </VectorParam>
            </Transformer>
            <Parameters>
             <VectorParam id="26600"  name="sourceCrop">
              <InterpolatingParam id="26601" interp="linr"  time="0/1" value="0" leadInLength="0/1"  />
              <InterpolatingParam id="26602" interp="linr"  time="0/1" value="0" leadInLength="0/1"  />
              <InterpolatingParam id="26603" interp="linr"  time="0/1" value="0" leadInLength="0/1"  />
              <InterpolatingParam id="26604" interp="linr"  time="0/1" value="0" leadInLength="0/1"  />
             </VectorParam>
             <VectorParam id="26605"  name="geometryCrop">
              <InterpolatingParam id="26606" interp="linr"  time="-9999999/1" value="0" leadInLength="0/1"  />
              <InterpolatingParam id="26607" interp="linr"  time="-9999999/1" value="0" leadInLength="0/1"  />
              <InterpolatingParam id="26608" interp="linr"  time="-9999999/1" value="0" leadInLength="0/1"  />
              <InterpolatingParam id="26609" interp="linr"  time="-9999999/1" value="0" leadInLength="0/1"  />
             </VectorParam>
             <InterpolatingParam id="26610" interp="linr"  time="-9999999/1" value="1" leadInLength="0/1"  name="opacity"/>
            </Parameters>
            <Attributes>
             <Attribute id="26611" value="" name="ident"/>
            </Attributes>
            <MetaData>
             <entry key="WinSubProjectDisplayName" val=""/>
            </MetaData>
            <ExtraData>
             <Entry key="ZoomPanBin">
              <ZoomPanBin id="26612"  >
               <ZoomPanKeyframes>
                <ZoomPanKeyframe id="26613" timeRangeEnd="-9999999/1" timeRangeDuration="0/1" interpolaterName=""  />
               </ZoomPanKeyframes>
              </ZoomPanBin>
             </Entry>
            </ExtraData>
           </VMFile>
           <VMFile id="26614" start="10413" duration="42" scalar="1/1" mediaStart="29274/1" mediaDuration="42/1" trackNumber="0" src="4" >
            <Transformer>
             <VectorParam id="26615"  name="translation">
              <InterpolatingParam id="26616" interp="linr"  time="-9999999/1" value="0" leadInLength="0/1"  />
              <InterpolatingParam id="26617" interp="linr"  time="-9999999/1" value="0" leadInLength="0/1"  />
              <InterpolatingParam id="26618" interp="linr"  time="-9999999/1" value="0" leadInLength="0/1"  />
             </VectorParam>
             <VectorParam id="26619"  name="rotation">
              <InterpolatingParam id="26620" interp="linr"  time="-9999999/1" value="0" leadInLength="0/1"  />
              <InterpolatingParam id="26621" interp="linr"  time="-9999999/1" value="0" leadInLength="0/1"  />
              <InterpolatingParam id="26622" interp="linr"  time="-9999999/1" value="0" leadInLength="0/1"  />
             </VectorParam>
             <VectorParam id="26623"  name="shear">
              <InterpolatingParam id="26624" interp="linr"  time="-9999999/1" value="0" leadInLength="0/1"  />
              <InterpolatingParam id="26625" interp="linr"  time="-9999999/1" value="0" leadInLength="0/1"  />
              <InterpolatingParam id="26626" interp="linr"  time="-9999999/1" value="0" leadInLength="0/1"  />
             </VectorParam>
             <VectorParam id="26627"  name="scale">
              <InterpolatingParam id="26628" interp="linr"  time="-9999999/1" value="1" leadInLength="0/1"  />
              <InterpolatingParam id="26629" interp="linr"  time="-9999999/1" value="1" leadInLength="0/1"  />
              <InterpolatingParam id="26630" interp="linr"  time="-9999999/1" value="1" leadInLength="0/1"  />
             </VectorParam>
             <VectorParam id="26631"  name="anchor">
              <InterpolatingParam id="26632" interp="linr"  time="0/1" value="0" leadInLength="0/1"  />
              <InterpolatingParam id="26633" interp="linr"  time="0/1" value="0" leadInLength="0/1"  />
              <InterpolatingParam id="26634" interp="linr"  time="0/1" value="0" leadInLength="0/1"  />
             </VectorParam>
            </Transformer>
            <Parameters>
             <VectorParam id="26635"  name="sourceCrop">
              <InterpolatingParam id="26636" interp="linr"  time="0/1" value="0" leadInLength="0/1"  />
              <InterpolatingParam id="26637" interp="linr"  time="0/1" value="0" leadInLength="0/1"  />
              <InterpolatingParam id="26638" interp="linr"  time="0/1" value="0" leadInLength="0/1"  />
              <InterpolatingParam id="26639" interp="linr"  time="0/1" value="0" leadInLength="0/1"  />
             </VectorParam>
             <VectorParam id="26640"  name="geometryCrop">
              <InterpolatingParam id="26641" interp="linr"  time="-9999999/1" value="0" leadInLength="0/1"  />
              <InterpolatingParam id="26642" interp="linr"  time="-9999999/1" value="0" leadInLength="0/1"  />
              <InterpolatingParam id="26643" interp="linr"  time="-9999999/1" value="0" leadInLength="0/1"  />
              <InterpolatingParam id="26644" interp="linr"  time="-9999999/1" value="0" leadInLength="0/1"  />
             </VectorParam>
             <InterpolatingParam id="26645" interp="linr"  time="-9999999/1" value="1" leadInLength="0/1"  name="opacity"/>
            </Parameters>
            <Attributes>
             <Attribute id="26646" value="" name="ident"/>
            </Attributes>
            <MetaData>
             <entry key="WinSubProjectDisplayName" val=""/>
            </MetaData>
            <ExtraData>
             <Entry key="ZoomPanBin">
              <ZoomPanBin id="26647"  >
               <ZoomPanKeyframes>
                <ZoomPanKeyframe id="26648" timeRangeEnd="-9999999/1" timeRangeDuration="0/1" interpolaterName=""  />
               </ZoomPanKeyframes>
              </ZoomPanBin>
             </Entry>
            </ExtraData>
           </VMFile>
           <VMFile id="26649" start="10455" duration="147" scalar="1/1" mediaStart="29358/1" mediaDuration="147/1" trackNumber="0" src="4" >
            <Transformer>
             <VectorParam id="26650"  name="translation">
              <InterpolatingParam id="26651" interp="linr"  time="-9999999/1" value="0" leadInLength="0/1"  />
              <InterpolatingParam id="26652" interp="linr"  time="-9999999/1" value="0" leadInLength="0/1"  />
              <InterpolatingParam id="26653" interp="linr"  time="-9999999/1" value="0" leadInLength="0/1"  />
             </VectorParam>
             <VectorParam id="26654"  name="rotation">
              <InterpolatingParam id="26655" interp="linr"  time="-9999999/1" value="0" leadInLength="0/1"  />
              <InterpolatingParam id="26656" interp="linr"  time="-9999999/1" value="0" leadInLength="0/1"  />
              <InterpolatingParam id="26657" interp="linr"  time="-9999999/1" value="0" leadInLength="0/1"  />
             </VectorParam>
             <VectorParam id="26658"  name="shear">
              <InterpolatingParam id="26659" interp="linr"  time="-9999999/1" value="0" leadInLength="0/1"  />
              <InterpolatingParam id="26660" interp="linr"  time="-9999999/1" value="0" leadInLength="0/1"  />
              <InterpolatingParam id="26661" interp="linr"  time="-9999999/1" value="0" leadInLength="0/1"  />
             </VectorParam>
             <VectorParam id="26662"  name="scale">
              <InterpolatingParam id="26663" interp="linr"  time="-9999999/1" value="1" leadInLength="0/1"  />
              <InterpolatingParam id="26664" interp="linr"  time="-9999999/1" value="1" leadInLength="0/1"  />
              <InterpolatingParam id="26665" interp="linr"  time="-9999999/1" value="1" leadInLength="0/1"  />
             </VectorParam>
             <VectorParam id="26666"  name="anchor">
              <InterpolatingParam id="26667" interp="linr"  time="0/1" value="0" leadInLength="0/1"  />
              <InterpolatingParam id="26668" interp="linr"  time="0/1" value="0" leadInLength="0/1"  />
              <InterpolatingParam id="26669" interp="linr"  time="0/1" value="0" leadInLength="0/1"  />
             </VectorParam>
            </Transformer>
            <Parameters>
             <VectorParam id="26670"  name="sourceCrop">
              <InterpolatingParam id="26671" interp="linr"  time="0/1" value="0" leadInLength="0/1"  />
              <InterpolatingParam id="26672" interp="linr"  time="0/1" value="0" leadInLength="0/1"  />
              <InterpolatingParam id="26673" interp="linr"  time="0/1" value="0" leadInLength="0/1"  />
              <InterpolatingParam id="26674" interp="linr"  time="0/1" value="0" leadInLength="0/1"  />
             </VectorParam>
             <VectorParam id="26675"  name="geometryCrop">
              <InterpolatingParam id="26676" interp="linr"  time="-9999999/1" value="0" leadInLength="0/1"  />
              <InterpolatingParam id="26677" interp="linr"  time="-9999999/1" value="0" leadInLength="0/1"  />
              <InterpolatingParam id="26678" interp="linr"  time="-9999999/1" value="0" leadInLength="0/1"  />
              <InterpolatingParam id="26679" interp="linr"  time="-9999999/1" value="0" leadInLength="0/1"  />
             </VectorParam>
             <InterpolatingParam id="26680" interp="linr"  time="-9999999/1" value="1" leadInLength="0/1"  name="opacity"/>
            </Parameters>
            <Attributes>
             <Attribute id="26681" value="" name="ident"/>
            </Attributes>
            <MetaData>
             <entry key="WinSubProjectDisplayName" val=""/>
            </MetaData>
            <ExtraData>
             <Entry key="ZoomPanBin">
              <ZoomPanBin id="26682"  >
               <ZoomPanKeyframes>
                <ZoomPanKeyframe id="26683" timeRangeEnd="-9999999/1" timeRangeDuration="0/1" interpolaterName=""  />
               </ZoomPanKeyframes>
              </ZoomPanBin>
             </Entry>
            </ExtraData>
           </VMFile>
           <VMFile id="26684" start="10602" duration="580" scalar="1/1" mediaStart="29557/1" mediaDuration="580/1" trackNumber="0" src="4" >
            <Transformer>
             <VectorParam id="26685"  name="translation">
              <InterpolatingParam id="26686" interp="linr"  time="-9999999/1" value="0" leadInLength="0/1"  />
              <InterpolatingParam id="26687" interp="linr"  time="-9999999/1" value="0" leadInLength="0/1"  />
              <InterpolatingParam id="26688" interp="linr"  time="-9999999/1" value="0" leadInLength="0/1"  />
             </VectorParam>
             <VectorParam id="26689"  name="rotation">
              <InterpolatingParam id="26690" interp="linr"  time="-9999999/1" value="0" leadInLength="0/1"  />
              <InterpolatingParam id="26691" interp="linr"  time="-9999999/1" value="0" leadInLength="0/1"  />
              <InterpolatingParam id="26692" interp="linr"  time="-9999999/1" value="0" leadInLength="0/1"  />
             </VectorParam>
             <VectorParam id="26693"  name="shear">
              <InterpolatingParam id="26694" interp="linr"  time="-9999999/1" value="0" leadInLength="0/1"  />
              <InterpolatingParam id="26695" interp="linr"  time="-9999999/1" value="0" leadInLength="0/1"  />
              <InterpolatingParam id="26696" interp="linr"  time="-9999999/1" value="0" leadInLength="0/1"  />
             </VectorParam>
             <VectorParam id="26697"  name="scale">
              <InterpolatingParam id="26698" interp="linr"  time="-9999999/1" value="1" leadInLength="0/1"  />
              <InterpolatingParam id="26699" interp="linr"  time="-9999999/1" value="1" leadInLength="0/1"  />
              <InterpolatingParam id="26700" interp="linr"  time="-9999999/1" value="1" leadInLength="0/1"  />
             </VectorParam>
             <VectorParam id="26701"  name="anchor">
              <InterpolatingParam id="26702" interp="linr"  time="0/1" value="0" leadInLength="0/1"  />
              <InterpolatingParam id="26703" interp="linr"  time="0/1" value="0" leadInLength="0/1"  />
              <InterpolatingParam id="26704" interp="linr"  time="0/1" value="0" leadInLength="0/1"  />
             </VectorParam>
            </Transformer>
            <Parameters>
             <VectorParam id="26705"  name="sourceCrop">
              <InterpolatingParam id="26706" interp="linr"  time="0/1" value="0" leadInLength="0/1"  />
              <InterpolatingParam id="26707" interp="linr"  time="0/1" value="0" leadInLength="0/1"  />
              <InterpolatingParam id="26708" interp="linr"  time="0/1" value="0" leadInLength="0/1"  />
              <InterpolatingParam id="26709" interp="linr"  time="0/1" value="0" leadInLength="0/1"  />
             </VectorParam>
             <VectorParam id="26710"  name="geometryCrop">
              <InterpolatingParam id="26711" interp="linr"  time="-9999999/1" value="0" leadInLength="0/1"  />
              <InterpolatingParam id="26712" interp="linr"  time="-9999999/1" value="0" leadInLength="0/1"  />
              <InterpolatingParam id="26713" interp="linr"  time="-9999999/1" value="0" leadInLength="0/1"  />
              <InterpolatingParam id="26714" interp="linr"  time="-9999999/1" value="0" leadInLength="0/1"  />
             </VectorParam>
             <InterpolatingParam id="26715" interp="linr"  time="-9999999/1" value="1" leadInLength="0/1"  name="opacity"/>
            </Parameters>
            <Attributes>
             <Attribute id="26716" value="" name="ident"/>
            </Attributes>
            <MetaData>
             <entry key="WinSubProjectDisplayName" val=""/>
            </MetaData>
            <ExtraData>
             <Entry key="ZoomPanBin">
              <ZoomPanBin id="26717"  >
               <ZoomPanKeyframes>
                <ZoomPanKeyframe id="26718" timeRangeEnd="-9999999/1" timeRangeDuration="0/1" interpolaterName=""  />
               </ZoomPanKeyframes>
              </ZoomPanBin>
             </Entry>
            </ExtraData>
           </VMFile>
           <VMFile id="26719" start="11182" duration="25" scalar="1/1" mediaStart="30200/1" mediaDuration="25/1" trackNumber="0" src="4" >
            <Transformer>
             <VectorParam id="26720"  name="translation">
              <InterpolatingParam id="26721" interp="linr"  time="-9999999/1" value="0" leadInLength="0/1"  />
              <InterpolatingParam id="26722" interp="linr"  time="-9999999/1" value="0" leadInLength="0/1"  />
              <InterpolatingParam id="26723" interp="linr"  time="-9999999/1" value="0" leadInLength="0/1"  />
             </VectorParam>
             <VectorParam id="26724"  name="rotation">
              <InterpolatingParam id="26725" interp="linr"  time="-9999999/1" value="0" leadInLength="0/1"  />
              <InterpolatingParam id="26726" interp="linr"  time="-9999999/1" value="0" leadInLength="0/1"  />
              <InterpolatingParam id="26727" interp="linr"  time="-9999999/1" value="0" leadInLength="0/1"  />
             </VectorParam>
             <VectorParam id="26728"  name="shear">
              <InterpolatingParam id="26729" interp="linr"  time="-9999999/1" value="0" leadInLength="0/1"  />
              <InterpolatingParam id="26730" interp="linr"  time="-9999999/1" value="0" leadInLength="0/1"  />
              <InterpolatingParam id="26731" interp="linr"  time="-9999999/1" value="0" leadInLength="0/1"  />
             </VectorParam>
             <VectorParam id="26732"  name="scale">
              <InterpolatingParam id="26733" interp="linr"  time="-9999999/1" value="1" leadInLength="0/1"  />
              <InterpolatingParam id="26734" interp="linr"  time="-9999999/1" value="1" leadInLength="0/1"  />
              <InterpolatingParam id="26735" interp="linr"  time="-9999999/1" value="1" leadInLength="0/1"  />
             </VectorParam>
             <VectorParam id="26736"  name="anchor">
              <InterpolatingParam id="26737" interp="linr"  time="0/1" value="0" leadInLength="0/1"  />
              <InterpolatingParam id="26738" interp="linr"  time="0/1" value="0" leadInLength="0/1"  />
              <InterpolatingParam id="26739" interp="linr"  time="0/1" value="0" leadInLength="0/1"  />
             </VectorParam>
            </Transformer>
            <Parameters>
             <VectorParam id="26740"  name="sourceCrop">
              <InterpolatingParam id="26741" interp="linr"  time="0/1" value="0" leadInLength="0/1"  />
              <InterpolatingParam id="26742" interp="linr"  time="0/1" value="0" leadInLength="0/1"  />
              <InterpolatingParam id="26743" interp="linr"  time="0/1" value="0" leadInLength="0/1"  />
              <InterpolatingParam id="26744" interp="linr"  time="0/1" value="0" leadInLength="0/1"  />
             </VectorParam>
             <VectorParam id="26745"  name="geometryCrop">
              <InterpolatingParam id="26746" interp="linr"  time="-9999999/1" value="0" leadInLength="0/1"  />
              <InterpolatingParam id="26747" interp="linr"  time="-9999999/1" value="0" leadInLength="0/1"  />
              <InterpolatingParam id="26748" interp="linr"  time="-9999999/1" value="0" leadInLength="0/1"  />
              <InterpolatingParam id="26749" interp="linr"  time="-9999999/1" value="0" leadInLength="0/1"  />
             </VectorParam>
             <InterpolatingParam id="26750" interp="linr"  time="-9999999/1" value="1" leadInLength="0/1"  name="opacity"/>
            </Parameters>
            <Attributes>
             <Attribute id="26751" value="" name="ident"/>
            </Attributes>
            <MetaData>
             <entry key="WinSubProjectDisplayName" val=""/>
            </MetaData>
            <ExtraData>
             <Entry key="ZoomPanBin">
              <ZoomPanBin id="26752"  >
               <ZoomPanKeyframes>
                <ZoomPanKeyframe id="26753" timeRangeEnd="-9999999/1" timeRangeDuration="0/1" interpolaterName=""  />
               </ZoomPanKeyframes>
              </ZoomPanBin>
             </Entry>
            </ExtraData>
           </VMFile>
           <VMFile id="26754" start="11207" duration="119" scalar="1/1" mediaStart="30368/1" mediaDuration="119/1" trackNumber="0" src="4" >
            <Transformer>
             <VectorParam id="26755"  name="translation">
              <InterpolatingParam id="26756" interp="linr"  time="-9999999/1" value="0" leadInLength="0/1"  />
              <InterpolatingParam id="26757" interp="linr"  time="-9999999/1" value="0" leadInLength="0/1"  />
              <InterpolatingParam id="26758" interp="linr"  time="-9999999/1" value="0" leadInLength="0/1"  />
             </VectorParam>
             <VectorParam id="26759"  name="rotation">
              <InterpolatingParam id="26760" interp="linr"  time="-9999999/1" value="0" leadInLength="0/1"  />
              <InterpolatingParam id="26761" interp="linr"  time="-9999999/1" value="0" leadInLength="0/1"  />
              <InterpolatingParam id="26762" interp="linr"  time="-9999999/1" value="0" leadInLength="0/1"  />
             </VectorParam>
             <VectorParam id="26763"  name="shear">
              <InterpolatingParam id="26764" interp="linr"  time="-9999999/1" value="0" leadInLength="0/1"  />
              <InterpolatingParam id="26765" interp="linr"  time="-9999999/1" value="0" leadInLength="0/1"  />
              <InterpolatingParam id="26766" interp="linr"  time="-9999999/1" value="0" leadInLength="0/1"  />
             </VectorParam>
             <VectorParam id="26767"  name="scale">
              <InterpolatingParam id="26768" interp="linr"  time="-9999999/1" value="1" leadInLength="0/1"  />
              <InterpolatingParam id="26769" interp="linr"  time="-9999999/1" value="1" leadInLength="0/1"  />
              <InterpolatingParam id="26770" interp="linr"  time="-9999999/1" value="1" leadInLength="0/1"  />
             </VectorParam>
             <VectorParam id="26771"  name="anchor">
              <InterpolatingParam id="26772" interp="linr"  time="0/1" value="0" leadInLength="0/1"  />
              <InterpolatingParam id="26773" interp="linr"  time="0/1" value="0" leadInLength="0/1"  />
              <InterpolatingParam id="26774" interp="linr"  time="0/1" value="0" leadInLength="0/1"  />
             </VectorParam>
            </Transformer>
            <Parameters>
             <VectorParam id="26775"  name="sourceCrop">
              <InterpolatingParam id="26776" interp="linr"  time="0/1" value="0" leadInLength="0/1"  />
              <InterpolatingParam id="26777" interp="linr"  time="0/1" value="0" leadInLength="0/1"  />
              <InterpolatingParam id="26778" interp="linr"  time="0/1" value="0" leadInLength="0/1"  />
              <InterpolatingParam id="26779" interp="linr"  time="0/1" value="0" leadInLength="0/1"  />
             </VectorParam>
             <VectorParam id="26780"  name="geometryCrop">
              <InterpolatingParam id="26781" interp="linr"  time="-9999999/1" value="0" leadInLength="0/1"  />
              <InterpolatingParam id="26782" interp="linr"  time="-9999999/1" value="0" leadInLength="0/1"  />
              <InterpolatingParam id="26783" interp="linr"  time="-9999999/1" value="0" leadInLength="0/1"  />
              <InterpolatingParam id="26784" interp="linr"  time="-9999999/1" value="0" leadInLength="0/1"  />
             </VectorParam>
             <InterpolatingParam id="26785" interp="linr"  time="-9999999/1" value="1" leadInLength="0/1"  name="opacity"/>
            </Parameters>
            <Attributes>
             <Attribute id="26786" value="" name="ident"/>
            </Attributes>
            <MetaData>
             <entry key="WinSubProjectDisplayName" val=""/>
            </MetaData>
            <ExtraData>
             <Entry key="ZoomPanBin">
              <ZoomPanBin id="26787"  >
               <ZoomPanKeyframes>
                <ZoomPanKeyframe id="26788" timeRangeEnd="-9999999/1" timeRangeDuration="0/1" interpolaterName=""  />
               </ZoomPanKeyframes>
              </ZoomPanBin>
             </Entry>
            </ExtraData>
           </VMFile>
           <VMFile id="26789" start="11326" duration="125" scalar="1/1" mediaStart="30756/1" mediaDuration="125/1" trackNumber="0" src="4" >
            <Transformer>
             <VectorParam id="26790"  name="translation">
              <InterpolatingParam id="26791" interp="linr"  time="-9999999/1" value="0" leadInLength="0/1"  />
              <InterpolatingParam id="26792" interp="linr"  time="-9999999/1" value="0" leadInLength="0/1"  />
              <InterpolatingParam id="26793" interp="linr"  time="-9999999/1" value="0" leadInLength="0/1"  />
             </VectorParam>
             <VectorParam id="26794"  name="rotation">
              <InterpolatingParam id="26795" interp="linr"  time="-9999999/1" value="0" leadInLength="0/1"  />
              <InterpolatingParam id="26796" interp="linr"  time="-9999999/1" value="0" leadInLength="0/1"  />
              <InterpolatingParam id="26797" interp="linr"  time="-9999999/1" value="0" leadInLength="0/1"  />
             </VectorParam>
             <VectorParam id="26798"  name="shear">
              <InterpolatingParam id="26799" interp="linr"  time="-9999999/1" value="0" leadInLength="0/1"  />
              <InterpolatingParam id="26800" interp="linr"  time="-9999999/1" value="0" leadInLength="0/1"  />
              <InterpolatingParam id="26801" interp="linr"  time="-9999999/1" value="0" leadInLength="0/1"  />
             </VectorParam>
             <VectorParam id="26802"  name="scale">
              <InterpolatingParam id="26803" interp="linr"  time="-9999999/1" value="1" leadInLength="0/1"  />
              <InterpolatingParam id="26804" interp="linr"  time="-9999999/1" value="1" leadInLength="0/1"  />
              <InterpolatingParam id="26805" interp="linr"  time="-9999999/1" value="1" leadInLength="0/1"  />
             </VectorParam>
             <VectorParam id="26806"  name="anchor">
              <InterpolatingParam id="26807" interp="linr"  time="0/1" value="0" leadInLength="0/1"  />
              <InterpolatingParam id="26808" interp="linr"  time="0/1" value="0" leadInLength="0/1"  />
              <InterpolatingParam id="26809" interp="linr"  time="0/1" value="0" leadInLength="0/1"  />
             </VectorParam>
            </Transformer>
            <Parameters>
             <VectorParam id="26810"  name="sourceCrop">
              <InterpolatingParam id="26811" interp="linr"  time="0/1" value="0" leadInLength="0/1"  />
              <InterpolatingParam id="26812" interp="linr"  time="0/1" value="0" leadInLength="0/1"  />
              <InterpolatingParam id="26813" interp="linr"  time="0/1" value="0" leadInLength="0/1"  />
              <InterpolatingParam id="26814" interp="linr"  time="0/1" value="0" leadInLength="0/1"  />
             </VectorParam>
             <VectorParam id="26815"  name="geometryCrop">
              <InterpolatingParam id="26816" interp="linr"  time="-9999999/1" value="0" leadInLength="0/1"  />
              <InterpolatingParam id="26817" interp="linr"  time="-9999999/1" value="0" leadInLength="0/1"  />
              <InterpolatingParam id="26818" interp="linr"  time="-9999999/1" value="0" leadInLength="0/1"  />
              <InterpolatingParam id="26819" interp="linr"  time="-9999999/1" value="0" leadInLength="0/1"  />
             </VectorParam>
             <InterpolatingParam id="26820" interp="linr"  time="-9999999/1" value="1" leadInLength="0/1"  name="opacity"/>
            </Parameters>
            <Attributes>
             <Attribute id="26821" value="" name="ident"/>
            </Attributes>
            <MetaData>
             <entry key="WinSubProjectDisplayName" val=""/>
            </MetaData>
            <ExtraData>
             <Entry key="ZoomPanBin">
              <ZoomPanBin id="26822"  >
               <ZoomPanKeyframes>
                <ZoomPanKeyframe id="26823" timeRangeEnd="-9999999/1" timeRangeDuration="0/1" interpolaterName=""  />
               </ZoomPanKeyframes>
              </ZoomPanBin>
             </Entry>
            </ExtraData>
           </VMFile>
           <IMFile id="26824" start="11451" duration="120" scalar="1/1" mediaStart="30880/1" mediaDuration="1/1" trackNumber="0" src="4" trimStartSum="0/1" >
            <Transformer>
             <VectorParam id="26825"  name="translation">
              <InterpolatingParam id="26826" interp="linr"  time="-9999999/1" value="0" leadInLength="0/1"  />
              <InterpolatingParam id="26827" interp="linr"  time="-9999999/1" value="0" leadInLength="0/1"  />
              <InterpolatingParam id="26828" interp="linr"  time="-9999999/1" value="0" leadInLength="0/1"  />
             </VectorParam>
             <VectorParam id="26829"  name="rotation">
              <InterpolatingParam id="26830" interp="linr"  time="-9999999/1" value="0" leadInLength="0/1"  />
              <InterpolatingParam id="26831" interp="linr"  time="-9999999/1" value="0" leadInLength="0/1"  />
              <InterpolatingParam id="26832" interp="linr"  time="-9999999/1" value="0" leadInLength="0/1"  />
             </VectorParam>
             <VectorParam id="26833"  name="shear">
              <InterpolatingParam id="26834" interp="linr"  time="-9999999/1" value="0" leadInLength="0/1"  />
              <InterpolatingParam id="26835" interp="linr"  time="-9999999/1" value="0" leadInLength="0/1"  />
              <InterpolatingParam id="26836" interp="linr"  time="-9999999/1" value="0" leadInLength="0/1"  />
             </VectorParam>
             <VectorParam id="26837"  name="scale">
              <InterpolatingParam id="26838" interp="linr"  time="-9999999/1" value="1" leadInLength="0/1"  />
              <InterpolatingParam id="26839" interp="linr"  time="-9999999/1" value="1" leadInLength="0/1"  />
              <InterpolatingParam id="26840" interp="linr"  time="-9999999/1" value="1" leadInLength="0/1"  />
             </VectorParam>
             <VectorParam id="26841"  name="anchor">
              <InterpolatingParam id="26842" interp="linr"  time="0/1" value="0" leadInLength="0/1"  />
              <InterpolatingParam id="26843" interp="linr"  time="0/1" value="0" leadInLength="0/1"  />
              <InterpolatingParam id="26844" interp="linr"  time="0/1" value="0" leadInLength="0/1"  />
             </VectorParam>
            </Transformer>
            <Parameters>
             <VectorParam id="26845"  name="sourceCrop">
              <InterpolatingParam id="26846" interp="linr"  time="0/1" value="0" leadInLength="0/1"  />
              <InterpolatingParam id="26847" interp="linr"  time="0/1" value="0" leadInLength="0/1"  />
              <InterpolatingParam id="26848" interp="linr"  time="0/1" value="0" leadInLength="0/1"  />
              <InterpolatingParam id="26849" interp="linr"  time="0/1" value="0" leadInLength="0/1"  />
             </VectorParam>
             <VectorParam id="26850"  name="geometryCrop">
              <InterpolatingParam id="26851" interp="linr"  time="-9999999/1" value="0" leadInLength="0/1"  />
              <InterpolatingParam id="26852" interp="linr"  time="-9999999/1" value="0" leadInLength="0/1"  />
              <InterpolatingParam id="26853" interp="linr"  time="-9999999/1" value="0" leadInLength="0/1"  />
              <InterpolatingParam id="26854" interp="linr"  time="-9999999/1" value="0" leadInLength="0/1"  />
             </VectorParam>
             <InterpolatingParam id="26855" interp="linr"  time="-9999999/1" value="1" leadInLength="0/1"  name="opacity"/>
            </Parameters>
            <Attributes>
             <Attribute id="26856" value="" name="ident"/>
            </Attributes>
            <MetaData>
             <entry key="WinSubProjectDisplayName" val=""/>
            </MetaData>
            <ExtraData>
             <Entry key="ZoomPanBin">
              <ZoomPanBin id="26857"  >
               <ZoomPanKeyframes>
                <ZoomPanKeyframe id="26858" timeRangeEnd="-9999999/1" timeRangeDuration="0/1" interpolaterName=""  />
               </ZoomPanKeyframes>
              </ZoomPanBin>
             </Entry>
            </ExtraData>
           </IMFile>
           <VMFile id="26859" start="11571" duration="287" scalar="1/1" mediaStart="30878/1" mediaDuration="287/1" trackNumber="0" src="4" >
            <Transformer>
             <VectorParam id="26860"  name="translation">
              <InterpolatingParam id="26861" interp="linr"  time="-9999999/1" value="0" leadInLength="0/1"  />
              <InterpolatingParam id="26862" interp="linr"  time="-9999999/1" value="0" leadInLength="0/1"  />
              <InterpolatingParam id="26863" interp="linr"  time="-9999999/1" value="0" leadInLength="0/1"  />
             </VectorParam>
             <VectorParam id="26864"  name="rotation">
              <InterpolatingParam id="26865" interp="linr"  time="-9999999/1" value="0" leadInLength="0/1"  />
              <InterpolatingParam id="26866" interp="linr"  time="-9999999/1" value="0" leadInLength="0/1"  />
              <InterpolatingParam id="26867" interp="linr"  time="-9999999/1" value="0" leadInLength="0/1"  />
             </VectorParam>
             <VectorParam id="26868"  name="shear">
              <InterpolatingParam id="26869" interp="linr"  time="-9999999/1" value="0" leadInLength="0/1"  />
              <InterpolatingParam id="26870" interp="linr"  time="-9999999/1" value="0" leadInLength="0/1"  />
              <InterpolatingParam id="26871" interp="linr"  time="-9999999/1" value="0" leadInLength="0/1"  />
             </VectorParam>
             <VectorParam id="26872"  name="scale">
              <InterpolatingParam id="26873" interp="linr"  time="-9999999/1" value="1" leadInLength="0/1"  />
              <InterpolatingParam id="26874" interp="linr"  time="-9999999/1" value="1" leadInLength="0/1"  />
              <InterpolatingParam id="26875" interp="linr"  time="-9999999/1" value="1" leadInLength="0/1"  />
             </VectorParam>
             <VectorParam id="26876"  name="anchor">
              <InterpolatingParam id="26877" interp="linr"  time="0/1" value="0" leadInLength="0/1"  />
              <InterpolatingParam id="26878" interp="linr"  time="0/1" value="0" leadInLength="0/1"  />
              <InterpolatingParam id="26879" interp="linr"  time="0/1" value="0" leadInLength="0/1"  />
             </VectorParam>
            </Transformer>
            <Parameters>
             <VectorParam id="26880"  name="sourceCrop">
              <InterpolatingParam id="26881" interp="linr"  time="0/1" value="0" leadInLength="0/1"  />
              <InterpolatingParam id="26882" interp="linr"  time="0/1" value="0" leadInLength="0/1"  />
              <InterpolatingParam id="26883" interp="linr"  time="0/1" value="0" leadInLength="0/1"  />
              <InterpolatingParam id="26884" interp="linr"  time="0/1" value="0" leadInLength="0/1"  />
             </VectorParam>
             <VectorParam id="26885"  name="geometryCrop">
              <InterpolatingParam id="26886" interp="linr"  time="-9999999/1" value="0" leadInLength="0/1"  />
              <InterpolatingParam id="26887" interp="linr"  time="-9999999/1" value="0" leadInLength="0/1"  />
              <InterpolatingParam id="26888" interp="linr"  time="-9999999/1" value="0" leadInLength="0/1"  />
              <InterpolatingParam id="26889" interp="linr"  time="-9999999/1" value="0" leadInLength="0/1"  />
             </VectorParam>
             <InterpolatingParam id="26890" interp="linr"  time="-9999999/1" value="1" leadInLength="0/1"  name="opacity"/>
            </Parameters>
            <Attributes>
             <Attribute id="26891" value="" name="ident"/>
            </Attributes>
            <MetaData>
             <entry key="WinSubProjectDisplayName" val=""/>
            </MetaData>
            <ExtraData>
             <Entry key="ZoomPanBin">
              <ZoomPanBin id="26892"  >
               <ZoomPanKeyframes>
                <ZoomPanKeyframe id="26893" timeRangeEnd="-9999999/1" timeRangeDuration="0/1" interpolaterName=""  />
               </ZoomPanKeyframes>
              </ZoomPanBin>
             </Entry>
            </ExtraData>
           </VMFile>
          </Medias>
         </GenericTrack>
        </StitchedMedia>
       </Medias>
      </GenericTrack>
      <GenericTrack id="26894"  >
       <Attributes>
        <Attribute id="26895" value="" name="ident"/>
        <Attribute id="26896" value="0" name="audioMuted"/>
        <Attribute id="26897" value="0" name="videoHidden"/>
       </Attributes>
       <MetaData>
        <entry key="IsLocked" val="False"/>
        <entry key="WinTrackHeight" val="62"/>
       </MetaData>
       <Medias>
        <AMFile id="26898" start="0" duration="227" scalar="1/1" mediaStart="0/1" mediaDuration="227/1" trackNumber="1" src="5" channelNumber="0,1" >
         <Parameters>
          <InterpolatingParam id="26899" interp="linr"  time="0/1" value="1" leadInLength="0/1"  name="volume"/>
          <Parameter id="26900"  name="captions"/>
         </Parameters>
         <Attributes>
          <Attribute id="26901" value="" name="ident"/>
          <Attribute id="26902" value="44100" name="sampleRate"/>
          <Attribute id="26903" value="16" name="bitDepth"/>
          <Attribute id="26904" value="1" name="gain"/>
          <Attribute id="26905" value="0" name="mixToMono"/>
         </Attributes>
         <MetaData>
          <entry key="WinSubProjectDisplayName" val=""/>
         </MetaData>
        </AMFile>
        <AMFile id="26906" start="227" duration="294" scalar="1/1" mediaStart="1927/1" mediaDuration="294/1" trackNumber="1" src="5" channelNumber="0,1" >
         <Parameters>
          <InterpolatingParam id="26907" interp="linr"  time="0/1" value="1" leadInLength="0/1"  name="volume"/>
          <Parameter id="26908"  name="captions"/>
         </Parameters>
         <Attributes>
          <Attribute id="26909" value="" name="ident"/>
          <Attribute id="26910" value="44100" name="sampleRate"/>
          <Attribute id="26911" value="16" name="bitDepth"/>
          <Attribute id="26912" value="1" name="gain"/>
          <Attribute id="26913" value="0" name="mixToMono"/>
         </Attributes>
         <MetaData>
          <entry key="WinSubProjectDisplayName" val=""/>
         </MetaData>
        </AMFile>
        <AMFile id="26914" start="541" duration="228" scalar="1/1" mediaStart="3721/1" mediaDuration="228/1" trackNumber="1" src="5" channelNumber="0,1" >
         <Parameters>
          <InterpolatingParam id="26915" interp="linr"  time="0/1" value="1" leadInLength="0/1"  name="volume"/>
          <Parameter id="26916"  name="captions"/>
         </Parameters>
         <Attributes>
          <Attribute id="26917" value="" name="ident"/>
          <Attribute id="26918" value="44100" name="sampleRate"/>
          <Attribute id="26919" value="16" name="bitDepth"/>
          <Attribute id="26920" value="1" name="gain"/>
          <Attribute id="26921" value="0" name="mixToMono"/>
         </Attributes>
         <MetaData>
          <entry key="WinSubProjectDisplayName" val=""/>
         </MetaData>
        </AMFile>
        <AMFile id="26922" start="769" duration="192" scalar="1/1" mediaStart="5443/1" mediaDuration="192/1" trackNumber="1" src="5" channelNumber="0,1" >
         <Parameters>
          <InterpolatingParam id="26923" interp="linr"  time="0/1" value="1" leadInLength="0/1"  name="volume"/>
          <Parameter id="26924"  name="captions"/>
         </Parameters>
         <Attributes>
          <Attribute id="26925" value="" name="ident"/>
          <Attribute id="26926" value="44100" name="sampleRate"/>
          <Attribute id="26927" value="16" name="bitDepth"/>
          <Attribute id="26928" value="1" name="gain"/>
          <Attribute id="26929" value="0" name="mixToMono"/>
         </Attributes>
         <MetaData>
          <entry key="WinSubProjectDisplayName" val=""/>
         </MetaData>
        </AMFile>
        <AMFile id="26930" start="983" duration="161" scalar="1/1" mediaStart="7826/1" mediaDuration="161/1" trackNumber="1" src="5" channelNumber="0,1" >
         <Parameters>
          <InterpolatingParam id="26931" interp="linr"  time="0/1" value="1" leadInLength="0/1"  name="volume"/>
          <Parameter id="26932"  name="captions"/>
         </Parameters>
         <Attributes>
          <Attribute id="26933" value="" name="ident"/>
          <Attribute id="26934" value="44100" name="sampleRate"/>
          <Attribute id="26935" value="16" name="bitDepth"/>
          <Attribute id="26936" value="1" name="gain"/>
          <Attribute id="26937" value="0" name="mixToMono"/>
         </Attributes>
         <MetaData>
          <entry key="WinSubProjectDisplayName" val=""/>
         </MetaData>
        </AMFile>
        <AMFile id="26938" start="1165" duration="254" scalar="1/1" mediaStart="10696/1" mediaDuration="254/1" trackNumber="1" src="5" channelNumber="0,1" >
         <Parameters>
          <InterpolatingParam id="26939" interp="linr"  time="0/1" value="1" leadInLength="0/1"  name="volume"/>
          <Parameter id="26940"  name="captions"/>
         </Parameters>
         <Attributes>
          <Attribute id="26941" value="" name="ident"/>
          <Attribute id="26942" value="44100" name="sampleRate"/>
          <Attribute id="26943" value="16" name="bitDepth"/>
          <Attribute id="26944" value="1" name="gain"/>
          <Attribute id="26945" value="0" name="mixToMono"/>
         </Attributes>
         <MetaData>
          <entry key="WinSubProjectDisplayName" val=""/>
         </MetaData>
        </AMFile>
        <AMFile id="26946" start="1419" duration="114" scalar="1/1" mediaStart="11846/1" mediaDuration="114/1" trackNumber="1" src="5" channelNumber="0,1" >
         <Parameters>
          <InterpolatingParam id="26947" interp="linr"  time="0/1" value="1" leadInLength="0/1"  name="volume"/>
          <Parameter id="26948"  name="captions"/>
         </Parameters>
         <Attributes>
          <Attribute id="26949" value="" name="ident"/>
          <Attribute id="26950" value="44100" name="sampleRate"/>
          <Attribute id="26951" value="16" name="bitDepth"/>
          <Attribute id="26952" value="1" name="gain"/>
          <Attribute id="26953" value="0" name="mixToMono"/>
         </Attributes>
         <MetaData>
          <entry key="WinSubProjectDisplayName" val=""/>
         </MetaData>
        </AMFile>
        <AMFile id="26954" start="1533" duration="351" scalar="1/1" mediaStart="13627/1" mediaDuration="351/1" trackNumber="1" src="5" channelNumber="0,1" >
         <Parameters>
          <InterpolatingParam id="26955" interp="linr"  time="0/1" value="1" leadInLength="0/1"  name="volume"/>
          <Parameter id="26956"  name="captions"/>
         </Parameters>
         <Attributes>
          <Attribute id="26957" value="" name="ident"/>
          <Attribute id="26958" value="44100" name="sampleRate"/>
          <Attribute id="26959" value="16" name="bitDepth"/>
          <Attribute id="26960" value="1" name="gain"/>
          <Attribute id="26961" value="0" name="mixToMono"/>
         </Attributes>
         <MetaData>
          <entry key="WinSubProjectDisplayName" val=""/>
         </MetaData>
        </AMFile>
        <AMFile id="26962" start="1884" duration="233" scalar="1/1" mediaStart="15450/1" mediaDuration="233/1" trackNumber="1" src="5" channelNumber="0,1" >
         <Parameters>
          <InterpolatingParam id="26963" interp="linr"  time="0/1" value="1" leadInLength="0/1"  name="volume"/>
          <Parameter id="26964"  name="captions"/>
         </Parameters>
         <Attributes>
          <Attribute id="26965" value="" name="ident"/>
          <Attribute id="26966" value="44100" name="sampleRate"/>
          <Attribute id="26967" value="16" name="bitDepth"/>
          <Attribute id="26968" value="1" name="gain"/>
          <Attribute id="26969" value="0" name="mixToMono"/>
         </Attributes>
         <MetaData>
          <entry key="WinSubProjectDisplayName" val=""/>
         </MetaData>
        </AMFile>
        <AMFile id="26970" start="2117" duration="110" scalar="1/1" mediaStart="16557/1" mediaDuration="110/1" trackNumber="1" src="5" channelNumber="0,1" >
         <Parameters>
          <InterpolatingParam id="26971" interp="linr"  time="0/1" value="1" leadInLength="0/1"  name="volume"/>
          <Parameter id="26972"  name="captions"/>
         </Parameters>
         <Attributes>
          <Attribute id="26973" value="" name="ident"/>
          <Attribute id="26974" value="44100" name="sampleRate"/>
          <Attribute id="26975" value="16" name="bitDepth"/>
          <Attribute id="26976" value="1" name="gain"/>
          <Attribute id="26977" value="0" name="mixToMono"/>
         </Attributes>
         <MetaData>
          <entry key="WinSubProjectDisplayName" val=""/>
         </MetaData>
        </AMFile>
        <AMFile id="26978" start="2245" duration="322" scalar="1/1" mediaStart="18110/1" mediaDuration="322/1" trackNumber="1" src="5" channelNumber="0,1" >
         <Parameters>
          <InterpolatingParam id="26979" interp="linr"  time="0/1" value="1" leadInLength="0/1"  name="volume"/>
          <Parameter id="26980"  name="captions"/>
         </Parameters>
         <Attributes>
          <Attribute id="26981" value="" name="ident"/>
          <Attribute id="26982" value="44100" name="sampleRate"/>
          <Attribute id="26983" value="16" name="bitDepth"/>
          <Attribute id="26984" value="1" name="gain"/>
          <Attribute id="26985" value="0" name="mixToMono"/>
         </Attributes>
         <MetaData>
          <entry key="WinSubProjectDisplayName" val=""/>
         </MetaData>
        </AMFile>
        <AMFile id="26986" start="2567" duration="301" scalar="1/1" mediaStart="21168/1" mediaDuration="301/1" trackNumber="1" src="5" channelNumber="0,1" >
         <Parameters>
          <InterpolatingParam id="26987" interp="linr"  time="0/1" value="1" leadInLength="0/1"  name="volume"/>
          <Parameter id="26988"  name="captions"/>
         </Parameters>
         <Attributes>
          <Attribute id="26989" value="" name="ident"/>
          <Attribute id="26990" value="44100" name="sampleRate"/>
          <Attribute id="26991" value="16" name="bitDepth"/>
          <Attribute id="26992" value="1" name="gain"/>
          <Attribute id="26993" value="0" name="mixToMono"/>
         </Attributes>
         <MetaData>
          <entry key="WinSubProjectDisplayName" val=""/>
         </MetaData>
        </AMFile>
        <AMFile id="26994" start="2868" duration="224" scalar="1/1" mediaStart="23396/1" mediaDuration="224/1" trackNumber="1" src="5" channelNumber="0,1" >
         <Parameters>
          <InterpolatingParam id="26995" interp="linr"  time="0/1" value="1" leadInLength="0/1"  name="volume"/>
          <Parameter id="26996"  name="captions"/>
         </Parameters>
         <Attributes>
          <Attribute id="26997" value="" name="ident"/>
          <Attribute id="26998" value="44100" name="sampleRate"/>
          <Attribute id="26999" value="16" name="bitDepth"/>
          <Attribute id="27000" value="1" name="gain"/>
          <Attribute id="27001" value="0" name="mixToMono"/>
         </Attributes>
         <MetaData>
          <entry key="WinSubProjectDisplayName" val=""/>
         </MetaData>
        </AMFile>
        <AMFile id="27002" start="3092" duration="195" scalar="1/1" mediaStart="24423/1" mediaDuration="195/1" trackNumber="1" src="5" channelNumber="0,1" >
         <Parameters>
          <InterpolatingParam id="27003" interp="linr"  time="0/1" value="1" leadInLength="0/1"  name="volume"/>
          <Parameter id="27004"  name="captions"/>
         </Parameters>
         <Attributes>
          <Attribute id="27005" value="" name="ident"/>
          <Attribute id="27006" value="44100" name="sampleRate"/>
          <Attribute id="27007" value="16" name="bitDepth"/>
          <Attribute id="27008" value="1" name="gain"/>
          <Attribute id="27009" value="0" name="mixToMono"/>
         </Attributes>
         <MetaData>
          <entry key="WinSubProjectDisplayName" val=""/>
         </MetaData>
        </AMFile>
        <AMFile id="27010" start="3304" duration="269" scalar="1/1" mediaStart="25591/1" mediaDuration="269/1" trackNumber="1" src="5" channelNumber="0,1" >
         <Parameters>
          <InterpolatingParam id="27011" interp="linr"  time="0/1" value="1" leadInLength="0/1"  name="volume"/>
          <Parameter id="27012"  name="captions"/>
         </Parameters>
         <Attributes>
          <Attribute id="27013" value="" name="ident"/>
          <Attribute id="27014" value="44100" name="sampleRate"/>
          <Attribute id="27015" value="16" name="bitDepth"/>
          <Attribute id="27016" value="1" name="gain"/>
          <Attribute id="27017" value="0" name="mixToMono"/>
         </Attributes>
         <MetaData>
          <entry key="WinSubProjectDisplayName" val=""/>
         </MetaData>
        </AMFile>
        <AMFile id="27018" start="3573" duration="225" scalar="1/1" mediaStart="27713/1" mediaDuration="225/1" trackNumber="1" src="5" channelNumber="0,1" >
         <Parameters>
          <InterpolatingParam id="27019" interp="linr"  time="0/1" value="1" leadInLength="0/1"  name="volume"/>
          <Parameter id="27020"  name="captions"/>
         </Parameters>
         <Attributes>
          <Attribute id="27021" value="" name="ident"/>
          <Attribute id="27022" value="44100" name="sampleRate"/>
          <Attribute id="27023" value="16" name="bitDepth"/>
          <Attribute id="27024" value="1" name="gain"/>
          <Attribute id="27025" value="0" name="mixToMono"/>
         </Attributes>
         <MetaData>
          <entry key="WinSubProjectDisplayName" val=""/>
         </MetaData>
        </AMFile>
        <AMFile id="27026" start="3810" duration="211" scalar="1/1" mediaStart="28193/1" mediaDuration="211/1" trackNumber="1" src="5" channelNumber="0,1" >
         <Parameters>
          <InterpolatingParam id="27027" interp="linr"  time="0/1" value="1" leadInLength="0/1"  name="volume"/>
          <Parameter id="27028"  name="captions"/>
         </Parameters>
         <Attributes>
          <Attribute id="27029" value="" name="ident"/>
          <Attribute id="27030" value="44100" name="sampleRate"/>
          <Attribute id="27031" value="16" name="bitDepth"/>
          <Attribute id="27032" value="1" name="gain"/>
          <Attribute id="27033" value="0" name="mixToMono"/>
         </Attributes>
         <MetaData>
          <entry key="WinSubProjectDisplayName" val=""/>
         </MetaData>
        </AMFile>
        <AMFile id="27034" start="4021" duration="323" scalar="1/1" mediaStart="30104/1" mediaDuration="323/1" trackNumber="1" src="5" channelNumber="0,1" >
         <Parameters>
          <InterpolatingParam id="27035" interp="linr"  time="0/1" value="1" leadInLength="0/1"  name="volume"/>
          <Parameter id="27036"  name="captions"/>
         </Parameters>
         <Attributes>
          <Attribute id="27037" value="" name="ident"/>
          <Attribute id="27038" value="44100" name="sampleRate"/>
          <Attribute id="27039" value="16" name="bitDepth"/>
          <Attribute id="27040" value="1" name="gain"/>
          <Attribute id="27041" value="0" name="mixToMono"/>
         </Attributes>
         <MetaData>
          <entry key="WinSubProjectDisplayName" val=""/>
         </MetaData>
        </AMFile>
        <AMFile id="27042" start="4360" duration="272" scalar="1/1" mediaStart="34527/1" mediaDuration="272/1" trackNumber="1" src="5" channelNumber="0,1" >
         <Parameters>
          <InterpolatingParam id="27043" interp="linr"  time="0/1" value="1" leadInLength="0/1"  name="volume"/>
          <Parameter id="27044"  name="captions"/>
         </Parameters>
         <Attributes>
          <Attribute id="27045" value="" name="ident"/>
          <Attribute id="27046" value="44100" name="sampleRate"/>
          <Attribute id="27047" value="16" name="bitDepth"/>
          <Attribute id="27048" value="1" name="gain"/>
          <Attribute id="27049" value="0" name="mixToMono"/>
         </Attributes>
         <MetaData>
          <entry key="WinSubProjectDisplayName" val=""/>
         </MetaData>
        </AMFile>
        <AMFile id="27050" start="4642" duration="155" scalar="1/1" mediaStart="35394/1" mediaDuration="155/1" trackNumber="1" src="5" channelNumber="0,1" >
         <Parameters>
          <InterpolatingParam id="27051" interp="linr"  time="0/1" value="1" leadInLength="0/1"  name="volume"/>
          <Parameter id="27052"  name="captions"/>
         </Parameters>
         <Attributes>
          <Attribute id="27053" value="" name="ident"/>
          <Attribute id="27054" value="44100" name="sampleRate"/>
          <Attribute id="27055" value="16" name="bitDepth"/>
          <Attribute id="27056" value="1" name="gain"/>
          <Attribute id="27057" value="0" name="mixToMono"/>
         </Attributes>
         <MetaData>
          <entry key="WinSubProjectDisplayName" val=""/>
         </MetaData>
        </AMFile>
        <AMFile id="27058" start="4827" duration="159" scalar="1/1" mediaStart="36433/1" mediaDuration="159/1" trackNumber="1" src="5" channelNumber="0,1" >
         <Parameters>
          <InterpolatingParam id="27059" interp="linr"  time="0/1" value="1" leadInLength="0/1"  name="volume"/>
          <Parameter id="27060"  name="captions"/>
         </Parameters>
         <Attributes>
          <Attribute id="27061" value="" name="ident"/>
          <Attribute id="27062" value="44100" name="sampleRate"/>
          <Attribute id="27063" value="16" name="bitDepth"/>
          <Attribute id="27064" value="1" name="gain"/>
          <Attribute id="27065" value="0" name="mixToMono"/>
         </Attributes>
         <MetaData>
          <entry key="WinSubProjectDisplayName" val=""/>
         </MetaData>
        </AMFile>
        <AMFile id="27066" start="5026" duration="198" scalar="1/1" mediaStart="40045/1" mediaDuration="198/1" trackNumber="1" src="5" channelNumber="0,1" >
         <Parameters>
          <InterpolatingParam id="27067" interp="linr"  time="0/1" value="1" leadInLength="0/1"  name="volume"/>
          <Parameter id="27068"  name="captions"/>
         </Parameters>
         <Attributes>
          <Attribute id="27069" value="" name="ident"/>
          <Attribute id="27070" value="44100" name="sampleRate"/>
          <Attribute id="27071" value="16" name="bitDepth"/>
          <Attribute id="27072" value="1" name="gain"/>
          <Attribute id="27073" value="0" name="mixToMono"/>
         </Attributes>
         <MetaData>
          <entry key="WinSubProjectDisplayName" val=""/>
         </MetaData>
        </AMFile>
        <AMFile id="27074" start="5245" duration="255" scalar="1/1" mediaStart="42478/1" mediaDuration="255/1" trackNumber="1" src="5" channelNumber="0,1" >
         <Parameters>
          <InterpolatingParam id="27075" interp="linr"  time="0/1" value="1" leadInLength="0/1"  name="volume"/>
          <Parameter id="27076"  name="captions"/>
         </Parameters>
         <Attributes>
          <Attribute id="27077" value="" name="ident"/>
          <Attribute id="27078" value="44100" name="sampleRate"/>
          <Attribute id="27079" value="16" name="bitDepth"/>
          <Attribute id="27080" value="1" name="gain"/>
          <Attribute id="27081" value="0" name="mixToMono"/>
         </Attributes>
         <MetaData>
          <entry key="WinSubProjectDisplayName" val=""/>
         </MetaData>
        </AMFile>
        <AMFile id="27082" start="5532" duration="296" scalar="1/1" mediaStart="43031/1" mediaDuration="296/1" trackNumber="1" src="5" channelNumber="0,1" >
         <Parameters>
          <InterpolatingParam id="27083" interp="linr"  time="0/1" value="1" leadInLength="0/1"  name="volume"/>
          <Parameter id="27084"  name="captions"/>
         </Parameters>
         <Attributes>
          <Attribute id="27085" value="" name="ident"/>
          <Attribute id="27086" value="44100" name="sampleRate"/>
          <Attribute id="27087" value="16" name="bitDepth"/>
          <Attribute id="27088" value="1" name="gain"/>
          <Attribute id="27089" value="0" name="mixToMono"/>
         </Attributes>
         <MetaData>
          <entry key="WinSubProjectDisplayName" val=""/>
         </MetaData>
        </AMFile>
        <AMFile id="27090" start="5828" duration="214" scalar="1/1" mediaStart="44296/1" mediaDuration="214/1" trackNumber="1" src="5" channelNumber="0,1" >
         <Parameters>
          <InterpolatingParam id="27091" interp="linr"  time="0/1" value="1" leadInLength="0/1"  name="volume"/>
          <Parameter id="27092"  name="captions"/>
         </Parameters>
         <Attributes>
          <Attribute id="27093" value="" name="ident"/>
          <Attribute id="27094" value="44100" name="sampleRate"/>
          <Attribute id="27095" value="16" name="bitDepth"/>
          <Attribute id="27096" value="1" name="gain"/>
          <Attribute id="27097" value="0" name="mixToMono"/>
         </Attributes>
         <MetaData>
          <entry key="WinSubProjectDisplayName" val=""/>
         </MetaData>
        </AMFile>
       </Medias>
      </GenericTrack>
      <GenericTrack id="27098"  >
       <Attributes>
        <Attribute id="27099" value="" name="ident"/>
        <Attribute id="27100" value="0" name="audioMuted"/>
        <Attribute id="27101" value="0" name="videoHidden"/>
       </Attributes>
       <MetaData>
        <entry key="IsLocked" val="False"/>
        <entry key="WinTrackHeight" val="62"/>
       </MetaData>
       <Medias>
       </Medias>
      </GenericTrack>
      <GenericTrack id="27102"  >
       <Attributes>
        <Attribute id="27103" value="" name="ident"/>
        <Attribute id="27104" value="0" name="audioMuted"/>
        <Attribute id="27105" value="0" name="videoHidden"/>
       </Attributes>
       <MetaData>
        <entry key="IsLocked" val="False"/>
        <entry key="WinTrackHeight" val="62"/>
       </MetaData>
       <Medias>
       </Medias>
      </GenericTrack>
     </Tracks>
    </GenericMixer>
   <CaptionAttributes id="27106"  >
    <Attribute id="27107" value="1" name="captionsEnabled"/>
    <Attribute id="27108" value="Arial" name="captionsFontName"/>
    <Attribute id="27109" value="28" name="captionsFontSize"/>
    <Attribute id="27110" value="(0,0,0,255)" name="captionsBackgroundColor"/>
    <Attribute id="27111" value="(255,255,255,255)" name="captionsForegroundColor"/>
    <Attribute id="27112" value="en" name="lang"/>
    <Attribute id="27113" value="0" name="captionsAlignment"/>
    <Attribute id="27114" value="1" name="captionsDefaultFontSize"/>
    <Attribute id="27115" value="0.5" name="captionsOpacity"/>
    <Attribute id="27116" value="1" name="captionsBackgroundEnabled"/>
    <Attribute id="27117" value="1" name="captionsBackgroundOnlyAroundText"/>
   </CaptionAttributes>
   <Parameters>
    <VectorParam id="27118"  name="eyePosition">
     <InterpolatingParam id="27119" interp="linr"  time="0/1" value="0" leadInLength="0/1"  />
     <InterpolatingParam id="27120" interp="linr"  time="0/1" value="0" leadInLength="0/1"  />
     <InterpolatingParam id="27121" interp="linr"  time="0/1" value="3000" leadInLength="0/1"  />
    </VectorParam>
    <VectorParam id="27122"  name="eyeLookAtPosition">
     <InterpolatingParam id="27123" interp="linr"  time="0/1" value="0" leadInLength="0/1"  />
     <InterpolatingParam id="27124" interp="linr"  time="0/1" value="0" leadInLength="0/1"  />
     <InterpolatingParam id="27125" interp="linr"  time="0/1" value="0" leadInLength="0/1"  />
    </VectorParam>
    <VectorParam id="27126"  name="eyeUpVector">
     <InterpolatingParam id="27127" interp="linr"  time="0/1" value="0" leadInLength="0/1"  />
     <InterpolatingParam id="27128" interp="linr"  time="0/1" value="1" leadInLength="0/1"  />
     <InterpolatingParam id="27129" interp="linr"  time="0/1" value="0" leadInLength="0/1"  />
    </VectorParam>
    <InterpolatingParam id="27130" interp="linr"  time="0/1" value="0.23885785" leadInLength="0/1"  name="fov"/>
    <InterpolatingParam id="27131" interp="linr"  time="0/1" value="1.5" leadInLength="0/1"  name="nearClipDistance"/>
    <InterpolatingParam id="27132" interp="linr"  time="0/1" value="6000" leadInLength="0/1"  name="farClipDistance"/>
   </Parameters>
  </Timeline>
 </Project>
</GoProject>
</CSMLData>

</Project_Data>
